<svg width="58" height="126" viewBox="0 0 58 126" fill="none" xmlns="http://www.w3.org/2000/svg">
<g filter="url(#filter0_d)">
<path d="M51.33 109.708C50.1603 105.171 47.0764 97.7627 47.0764 69.6533V3.75738C47.0764 3.43836 46.8283 3.15479 46.4738 3.15479H36.3005C35.9815 3.15479 35.6979 3.40291 35.6979 3.75738V95.4941C35.6979 95.565 35.7334 95.6714 35.7334 95.7423C35.7688 99.2161 35.5561 105.845 33.6774 108.326C31.1253 111.729 30.5581 118.854 37.6475 117.117C44.7723 115.38 52.4998 114.246 51.33 109.708Z" fill="url(#paint0_linear)"/>
<path opacity="0.3" d="M38.179 5.42334V99.9959C38.179 99.9959 38.3917 109.637 34.4216 112.792" stroke="#F2F2F2" stroke-width="7" stroke-miterlimit="10" stroke-linecap="round" stroke-linejoin="round"/>
<path d="M11.0266 0C11.0266 0 14.8548 3.75738 25.808 7.40841C37.6827 11.343 53.3502 10.2442 53.3502 10.2442V19.035V27.8259C53.3502 27.8259 37.6472 26.727 25.808 30.6616C14.8548 34.3127 11.0266 38.07 11.0266 38.07C3.93717 30.9806 5.07148 19.035 5.07148 19.035C5.07148 19.035 3.90173 7.12484 11.0266 0Z" fill="url(#paint1_linear)"/>
<path d="M11.0266 0C11.0266 0 12.0191 0.957064 14.4295 2.41039C14.4295 2.41039 9.71503 5.99053 9.71503 19.035C9.71503 32.1149 14.4295 35.6597 14.4295 35.6597C12.0191 37.0775 11.0266 38.07 11.0266 38.07C3.93717 30.9806 5.07148 19.035 5.07148 19.035C5.07148 19.035 3.90173 7.12484 11.0266 0Z" fill="#CCCCCC"/>
<path opacity="0.3" d="M40.6958 13.1506C40.6958 13.1506 22.8305 10.9174 11.3103 3.54443C11.3103 3.54443 7.23385 7.08913 7.94279 18.4322" stroke="#F2F2F2" stroke-width="7" stroke-miterlimit="10" stroke-linecap="round" stroke-linejoin="round"/>
</g>
<defs>
<filter id="filter0_d" x="0.359985" y="0" width="56.9903" height="125.385" filterUnits="userSpaceOnUse" color-interpolation-filters="sRGB">
<feFlood flood-opacity="0" result="BackgroundImageFix"/>
<feColorMatrix in="SourceAlpha" type="matrix" values="0 0 0 0 0 0 0 0 0 0 0 0 0 0 0 0 0 0 127 0"/>
<feOffset dy="4"/>
<feGaussianBlur stdDeviation="2"/>
<feColorMatrix type="matrix" values="0 0 0 0 0 0 0 0 0 0 0 0 0 0 0 0 0 0 0.25 0"/>
<feBlend mode="normal" in2="BackgroundImageFix" result="effect1_dropShadow"/>
<feBlend mode="normal" in="SourceGraphic" in2="effect1_dropShadow" result="shape"/>
</filter>
<linearGradient id="paint0_linear" x1="41.6891" y1="3.15479" x2="41.6891" y2="117.385" gradientUnits="userSpaceOnUse">
<stop stop-color="#FF8C00"/>
<stop offset="1" stop-color="#EBB206"/>
</linearGradient>
<linearGradient id="paint1_linear" x1="29.1751" y1="0" x2="29.1751" y2="38.07" gradientUnits="userSpaceOnUse">
<stop stop-color="#333333"/>
<stop offset="1" stop-color="#070606"/>
</linearGradient>
</defs>
</svg>
