<svg width="119" height="134" viewBox="0 0 119 134" fill="none" xmlns="http://www.w3.org/2000/svg">
<g filter="url(#filter0_d)">
<path d="M41.8361 30.2736C50.3348 22.8303 36.0036 13.8873 29.5047 11.7209C24.3943 9.99898 22.0614 6.72171 18.1175 3.44444C15.2291 1.05593 8.39684 -1.99915 5.28622 1.77804C2.28669 5.38859 5.23068 12.8874 7.06373 16.3869C9.17451 20.3307 12.8406 23.608 17.0066 25.2188C21.1726 26.8297 25.7275 27.0519 30.0601 27.9406C32.2265 28.385 34.5039 28.2739 36.5591 29.2182C39.1143 30.4958 39.3365 32.4399 41.8361 30.2736C43.3358 28.9405 41.2806 30.7735 41.8361 30.2736Z" fill="#616F81"/>
<path d="M27.1162 14.1652C22.0059 12.4433 19.7285 9.16603 15.7291 5.88876C13.285 3.88907 8.1192 1.44501 4.67529 2.94477C2.89779 6.83306 5.45295 13.221 7.1749 16.4427C9.28568 20.3865 12.9518 23.6638 17.1178 25.2746C21.2838 26.8855 25.8386 27.1077 30.1713 27.9964C32.3376 28.4408 34.6151 28.3297 36.6703 29.274C38.8922 30.3294 39.3365 31.9958 41.114 30.8849C45.6689 23.886 33.0597 16.1094 27.1162 14.1652Z" fill="url(#paint0_linear)"/>
<path d="M77.1638 30.2736C68.6651 22.8303 82.9962 13.8873 89.4951 11.7209C94.6055 9.99898 96.8829 6.72171 100.882 3.44444C103.771 1.05593 110.603 -1.99915 113.714 1.77804C116.713 5.38859 113.769 12.8874 111.936 16.3869C109.825 20.3307 106.159 23.608 101.993 25.2188C97.8272 26.8297 93.2723 27.0519 88.9397 27.9406C86.7733 28.385 84.496 28.2739 82.4407 29.2182C79.8856 30.4958 79.6634 32.4399 77.1638 30.2736C75.664 28.9405 77.7192 30.7735 77.1638 30.2736Z" fill="#616F81"/>
<path d="M91.8837 14.1652C96.994 12.4433 99.327 9.16603 103.271 5.88876C105.715 3.88907 110.881 1.44501 114.325 2.94477C116.102 6.83306 113.547 13.221 111.825 16.4427C109.714 20.3865 106.048 23.6638 101.882 25.2746C97.7161 26.8855 93.1613 27.1077 88.8286 27.9964C86.6623 28.4408 84.3848 28.3297 82.3296 29.274C80.1077 30.3294 79.6633 31.9958 77.8858 30.8849C73.331 23.886 85.9402 16.1094 91.8837 14.1652Z" fill="url(#paint1_linear)"/>
<path d="M93.3836 77.0998C87.6623 55.4365 91.1617 18.8311 59.8333 18.8311C59.7777 18.8311 59.7222 18.8311 59.6667 18.8311C59.6111 18.8311 59.5555 18.8311 59.5 18.8311C28.2271 18.8311 31.671 55.4365 25.9497 77.0998C24.0611 84.2653 35.5593 105.484 59.5 105.484C59.5555 105.484 59.6111 105.484 59.6667 105.484C59.7222 105.484 59.7777 105.484 59.8333 105.484C83.774 105.484 95.2722 84.2653 93.3836 77.0998Z" fill="#616F81"/>
<path d="M48.7239 53.7701C48.7239 56.9918 46.1132 59.658 42.8359 59.658C39.6142 59.658 36.9479 57.0473 36.9479 53.7701C36.9479 50.5483 39.5586 47.8821 42.8359 47.8821C46.1132 47.9376 48.7239 50.5483 48.7239 53.7701Z" fill="white"/>
<path d="M42.8358 60.2133C39.2808 60.2133 36.3924 57.3249 36.3924 53.7699C36.3924 50.2149 39.2808 47.3264 42.8358 47.3264C46.3908 47.3264 49.2793 50.2149 49.2793 53.7699C49.2793 57.3249 46.3908 60.2133 42.8358 60.2133ZM42.8358 48.4929C39.8918 48.4929 37.5033 50.8814 37.5033 53.8254C37.5033 56.7694 39.8918 59.1579 42.8358 59.1579C45.7798 59.1579 48.1683 56.7694 48.1683 53.8254C48.1683 50.8814 45.7798 48.4929 42.8358 48.4929Z" fill="#353C42"/>
<path d="M46.502 53.77C46.502 55.7697 44.8912 57.3805 42.8915 57.3805C40.8918 57.3805 39.2809 55.7697 39.2809 53.77C39.2809 51.7703 40.8918 50.1594 42.8915 50.1594C44.8356 50.1594 46.502 51.7703 46.502 53.77Z" fill="#353C42"/>
<path d="M46.2799 50.9373C46.2799 51.8816 45.5023 52.6592 44.558 52.6592C43.6137 52.6592 42.836 51.8816 42.836 50.9373C42.836 49.993 43.6137 49.2153 44.558 49.2153C45.5023 49.2153 46.2799 49.993 46.2799 50.9373Z" fill="white"/>
<path d="M73.4421 64.1573C70.3315 61.2133 67.8319 58.3248 66.832 54.0477C65.8877 49.8262 64.7768 45.8823 59.5554 45.8823H59.4443C54.2229 45.8823 53.1119 49.8262 52.1677 54.0477C51.2234 58.3248 48.6682 61.2133 45.5576 64.1573H73.4421Z" fill="url(#paint2_linear)"/>
<path opacity="0.1" d="M59.6667 105.484C59.7222 105.484 59.7777 105.484 59.8333 105.484C83.774 105.484 95.2722 84.2653 93.3836 77.0998C87.6623 55.4365 91.1617 18.8311 59.8333 18.8311C59.7777 18.8311 59.7222 18.8311 59.6667 18.8311H59.6111L59.6667 105.484Z" fill="white"/>
<path d="M38.892 61.0468C39.7252 62.0467 38.9475 64.1575 37.1145 65.7128C35.2814 67.2681 33.0596 67.7125 32.2264 66.6571C31.3932 65.6572 32.1708 63.5465 34.0039 61.9912C35.8369 60.4358 38.0032 60.047 38.892 61.0468Z" fill="#97A9B4"/>
<path d="M59.8334 62.1575C66.7768 62.1575 78.0528 60.8799 80.8302 73.8779C81.7745 78.2661 68.3321 89.1533 65.8325 89.1533C63.3329 89.1533 61.6109 87.4869 59.6668 87.4869C57.7227 87.4869 56.0562 89.1533 53.5011 89.1533C51.0015 89.1533 37.5591 78.2661 38.5034 73.8779C41.2808 60.8244 52.5568 62.1575 59.5001 62.1575H59.8334Z" fill="#97A9B4"/>
<path d="M70.3317 53.7701C70.3317 56.9918 72.9424 59.658 76.2197 59.658C79.4414 59.658 82.1076 57.0473 82.1076 53.7701C82.1076 50.5483 79.4969 47.8821 76.2197 47.8821C72.9979 47.9376 70.3317 50.5483 70.3317 53.7701Z" fill="white"/>
<path d="M76.2197 60.2133C72.6647 60.2133 69.7762 57.3249 69.7762 53.7699C69.7762 50.2149 72.6647 47.3264 76.2197 47.3264C79.7747 47.3264 82.6631 50.2149 82.6631 53.7699C82.6631 57.3249 79.7747 60.2133 76.2197 60.2133ZM76.2197 48.4929C73.2757 48.4929 70.8872 50.8814 70.8872 53.8254C70.8872 56.7694 73.2757 59.1579 76.2197 59.1579C79.1637 59.1579 81.5522 56.7694 81.5522 53.8254C81.5522 50.8814 79.1637 48.4929 76.2197 48.4929Z" fill="#353C42"/>
<path d="M72.6091 53.77C72.6091 55.7697 74.2199 57.3805 76.2196 57.3805C78.2193 57.3805 79.8302 55.7697 79.8302 53.77C79.8302 51.7703 78.2193 50.1594 76.2196 50.1594C74.2199 50.1594 72.6091 51.7703 72.6091 53.77Z" fill="#353C42"/>
<path d="M72.7756 50.9373C72.7756 51.8816 73.5533 52.6592 74.4976 52.6592C75.4419 52.6592 76.2195 51.8816 76.2195 50.9373C76.2195 49.993 75.4419 49.2153 74.4976 49.2153C73.5533 49.2153 72.7756 49.993 72.7756 50.9373Z" fill="white"/>
<path d="M80.219 61.0468C79.3858 62.0467 80.1635 64.1575 81.9965 65.7128C83.8296 67.2681 86.0515 67.7125 86.8847 66.6571C87.7179 65.6572 86.9402 63.5465 85.1072 61.9912C83.2741 60.4358 81.0522 60.047 80.219 61.0468Z" fill="#97A9B4"/>
<path d="M50.9456 69.3787C51.1678 70.3786 50.0568 71.4895 48.446 71.8783C46.8351 72.2672 45.3354 71.7117 45.1132 70.7119C44.891 69.712 46.0019 68.6011 47.6128 68.2122C49.1681 67.8234 50.6679 68.3789 50.9456 69.3787Z" fill="#353C42"/>
<path d="M48.5573 42.3274C48.7239 42.4385 51.5568 44.7159 51.0569 45.1047C50.3348 45.6047 44.8357 43.3272 43.1692 43.605C41.9472 43.8272 38.5588 46.7156 37.6701 46.549C36.8369 46.3823 40.1142 42.6051 40.2808 42.494C42.5582 40.2722 46.0577 40.3833 48.5573 42.3274C49.335 42.9384 47.5575 41.4942 48.5573 42.3274Z" fill="#353C42"/>
<path d="M70.5539 42.3274C70.3873 42.4385 67.5544 44.7159 68.0543 45.1047C68.7764 45.6047 74.2756 43.3272 75.942 43.605C77.164 43.8272 80.5524 46.7156 81.3856 46.549C82.2188 46.3823 78.9415 42.6051 78.7749 42.494C76.553 40.2722 72.998 40.3833 70.5539 42.3274C69.7207 42.9384 71.5538 41.4942 70.5539 42.3274Z" fill="#353C42"/>
<path d="M68.1654 69.3787C67.9432 70.3786 69.0541 71.4895 70.665 71.8783C72.2758 72.2672 73.7756 71.7117 73.9978 70.7119C74.22 69.712 73.109 68.6011 71.4982 68.2122C69.8873 67.8234 68.3875 68.3789 68.1654 69.3787Z" fill="#353C42"/>
<path d="M39.6144 77.8219C39.6144 77.8219 39.5033 77.7108 39.3366 77.5997C39.17 77.433 38.9478 77.2664 38.6701 76.9887C38.3923 76.7665 38.1146 76.4887 37.7258 76.2665C37.5591 76.1555 37.3925 76.0444 37.2259 75.9333C37.0592 75.8777 36.8926 75.7666 36.7259 75.7111C36.6704 75.7111 36.5593 75.6555 36.5593 75.6555L36.226 75.6C36.0594 75.6 35.8927 75.5444 35.7261 75.6C35.3373 75.6 35.004 75.6555 34.6707 75.7111C34.5596 75.7666 34.3374 75.7666 34.2819 75.8777C34.1708 75.9333 34.0041 75.9888 34.0041 76.0444C33.8375 76.211 33.7264 76.3221 33.7264 76.3221C33.7264 76.3221 33.6708 76.211 33.6708 75.9333C33.6708 75.7666 33.7264 75.6555 33.7819 75.4889C33.8375 75.2667 34.0041 75.1556 34.1708 74.989C34.3374 74.8223 34.5041 74.7112 34.7262 74.5446C34.9484 74.4335 35.1706 74.3224 35.4483 74.2669C35.6705 74.2113 36.0038 74.1558 36.3371 74.1558H36.7259C37.0037 74.2113 37.0592 74.2669 37.2814 74.2669C37.6147 74.3779 37.8369 74.5446 38.1146 74.7112C38.3368 74.8779 38.559 75.1001 38.7256 75.3223C38.8923 75.5444 39.0589 75.7666 39.17 75.9333C39.2811 76.1554 39.3922 76.3221 39.4477 76.5443C39.6144 76.9331 39.6699 77.2664 39.6699 77.4886C39.6144 77.7108 39.6144 77.8219 39.6144 77.8219Z" fill="#353C42"/>
<path d="M79.8857 77.8219C79.8857 77.8219 79.9968 77.7108 80.1635 77.5997C80.3301 77.433 80.5523 77.2664 80.83 76.9887C81.1078 76.7665 81.3855 76.4887 81.7743 76.2665C81.941 76.1555 82.1076 76.0444 82.2742 75.9333C82.4409 75.8777 82.6075 75.7666 82.7742 75.7111C82.8297 75.7111 82.9408 75.6555 82.9408 75.6555L83.2741 75.6C83.4408 75.6 83.6074 75.5444 83.774 75.6C84.1628 75.6 84.4961 75.6555 84.8294 75.7111C84.9405 75.7666 85.1627 75.7666 85.2183 75.8777C85.3294 75.9333 85.496 75.9888 85.496 76.0444C85.6626 76.211 85.7182 76.3221 85.7182 76.3221C85.7182 76.3221 85.7737 76.211 85.7737 75.9333C85.7737 75.7666 85.7182 75.6555 85.6626 75.4889C85.6071 75.2667 85.4404 75.1556 85.2738 74.989C85.1071 74.8223 84.9405 74.7112 84.7183 74.5446C84.4961 74.4335 84.274 74.3224 83.9962 74.2669C83.774 74.2113 83.4407 74.1558 83.1074 74.1558H82.7186C82.4409 74.2113 82.3854 74.2669 82.1632 74.2669C81.8299 74.3779 81.6077 74.5446 81.33 74.7112C81.1078 74.8779 80.8856 75.1001 80.7189 75.3223C80.5523 75.5444 80.3856 75.7666 80.3301 75.9333C80.219 76.1554 80.1079 76.3221 80.0524 76.5443C79.8857 76.9331 79.8302 77.2664 79.8302 77.4886C79.8302 77.7108 79.8857 77.8219 79.8857 77.8219Z" fill="#353C42"/>
<path d="M63.3884 28.6074C65.277 29.9405 64.777 32.8845 64.777 34.8286C64.777 37.4949 63.7217 39.939 62.944 42.4386C62.4441 41.8276 56.6116 33.5511 57.0005 33.3844C55.5563 33.9954 54.3342 38.7725 55.1119 40.1612C52.9456 36.4395 52.0568 32.9956 52.7789 28.7185C51.5569 29.7183 50.5571 30.496 49.5572 31.7736C49.0573 32.4401 47.502 35.6063 48.1685 36.4395C46.7243 34.662 45.78 33.1622 45.5023 30.8848C45.3912 29.7739 45.1134 28.6074 45.0579 27.4965C45.0579 27.0521 45.4467 23.7748 45.8911 23.6637C43.8914 24.3303 42.2806 26.4411 40.392 27.1076C40.7252 24.9413 41.8917 22.8861 43.3915 21.2752C46.7798 17.6647 51.1125 16.5537 55.834 15.7761C57.3338 15.5539 59.0002 15.665 60.5 15.6094C62.1664 15.4983 63.8327 15.4428 65.4436 15.8316C67.721 16.3871 69.8874 17.7202 71.6093 19.2755C72.998 20.4976 74.3867 21.9418 75.3865 23.5526C76.2753 25.0524 77.2751 27.6076 76.9974 29.3295C75.6642 27.9964 74.0534 26.9965 72.6092 25.7745C71.3316 24.7191 68.7764 22.9416 66.9989 23.2749C69.2208 24.6636 70.8317 26.2189 72.1092 28.6074C73.0535 30.3849 73.7757 33.3289 73.0535 35.273C72.387 34.9953 71.9981 33.7733 71.5538 33.1622C70.9983 32.4401 70.1095 31.4403 69.3319 31.107C69.0542 32.6623 69.8874 34.3843 69.7207 35.9951C68.7764 34.9953 68.2765 33.3289 67.4988 32.1069C66.6656 30.8293 65.4992 29.9961 64.3882 28.9407L63.3884 28.6074Z" fill="#8899A8"/>
<path d="M66.2211 92.6527C66.2211 93.9858 63.2771 95.0412 59.611 95.0412C55.9449 95.0412 53.001 93.9858 53.001 92.6527C53.001 91.3196 55.9449 90.2642 59.611 90.2642C63.2771 90.3197 66.2211 91.3751 66.2211 92.6527Z" fill="#97A9B4"/>
<path d="M69.665 65.0461C69.665 65.7127 68.1653 66.2126 66.3322 66.2126C64.4992 66.2126 62.9994 65.7127 62.9994 65.0461C62.9994 64.3796 64.4992 63.8796 66.3322 63.8796C68.1653 63.8796 69.665 64.3796 69.665 65.0461Z" fill="white"/>
<path d="M61.333 64.8239C61.333 65.3794 60.4443 65.7682 59.2778 65.7682C58.1668 65.7682 57.2781 65.3239 57.2781 64.8239C57.2781 64.2685 58.1668 63.8796 59.2778 63.8796C60.4443 63.8796 61.333 64.2685 61.333 64.8239Z" fill="white"/>
<path d="M58.8334 115.205L73.8866 106.095V125.314L58.8334 115.705V115.205Z" fill="url(#paint3_linear)"/>
<path d="M58.5557 114.649L43.5025 105.54V124.815L58.5557 115.205V114.649Z" fill="url(#paint4_linear)"/>
<path d="M64.277 115.205C64.277 118.205 61.8329 120.649 58.8334 120.649C55.8339 120.649 53.3898 118.205 53.3898 115.205C53.3898 112.205 55.8339 109.761 58.8334 109.761C61.8329 109.706 64.277 112.15 64.277 115.205Z" fill="url(#paint5_linear)"/>
</g>
<defs>
<filter id="filter0_d" x="0" y="0" width="119" height="133.314" filterUnits="userSpaceOnUse" color-interpolation-filters="sRGB">
<feFlood flood-opacity="0" result="BackgroundImageFix"/>
<feColorMatrix in="SourceAlpha" type="matrix" values="0 0 0 0 0 0 0 0 0 0 0 0 0 0 0 0 0 0 127 0"/>
<feOffset dy="4"/>
<feGaussianBlur stdDeviation="2"/>
<feColorMatrix type="matrix" values="0 0 0 0 0 0 0 0 0 0 0 0 0 0 0 0 0 0 0.25 0"/>
<feBlend mode="normal" in2="BackgroundImageFix" result="effect1_dropShadow"/>
<feBlend mode="normal" in="SourceGraphic" in2="effect1_dropShadow" result="shape"/>
</filter>
<linearGradient id="paint0_linear" x1="23.0793" y1="2.48071" x2="23.0793" y2="31.2519" gradientUnits="userSpaceOnUse">
<stop stop-color="#8899A8"/>
<stop offset="1" stop-color="#2D4050" stop-opacity="0.71"/>
</linearGradient>
<linearGradient id="paint1_linear" x1="95.9206" y1="2.48071" x2="95.9206" y2="31.2519" gradientUnits="userSpaceOnUse">
<stop stop-color="#8899A8"/>
<stop offset="1" stop-color="#2D4050" stop-opacity="0.71"/>
</linearGradient>
<linearGradient id="paint2_linear" x1="59.4971" y1="45.8565" x2="59.4971" y2="64.1416" gradientUnits="userSpaceOnUse">
<stop stop-color="#616F81"/>
<stop offset="0.9946" stop-color="#8899A8"/>
</linearGradient>
<linearGradient id="paint3_linear" x1="66.36" y1="106.095" x2="66.36" y2="125.314" gradientUnits="userSpaceOnUse">
<stop stop-color="#D31515"/>
<stop offset="1" stop-color="#FF4172"/>
</linearGradient>
<linearGradient id="paint4_linear" x1="51.0291" y1="105.54" x2="51.0291" y2="124.815" gradientUnits="userSpaceOnUse">
<stop stop-color="#D31515"/>
<stop offset="1" stop-color="#FF4172"/>
</linearGradient>
<linearGradient id="paint5_linear" x1="58.8334" y1="109.76" x2="58.8334" y2="120.649" gradientUnits="userSpaceOnUse">
<stop stop-color="#A20B0B"/>
<stop offset="1" stop-color="#FF4172"/>
</linearGradient>
</defs>
</svg>
