<svg width="60" height="112" viewBox="0 0 60 112" fill="none" xmlns="http://www.w3.org/2000/svg">
<g filter="url(#filter0_d)">
<path d="M48.3093 47.9055L37.8395 41.7258H37.7885V12.4614H22.2115V41.7769L11.3841 48.0588C5.76619 51.3274 2.90614 57.8646 4.38724 64.1976C4.38724 64.1976 11.8949 97.037 12.8652 100.714C13.7845 104.391 44.9386 104.289 46.1133 100.714C47.2879 97.1392 54.6934 63.6358 54.6934 63.6358C56.0723 57.6093 53.5187 51.2763 48.3093 47.9055Z" fill="url(#paint0_linear)"/>
<path d="M29.7701 94.994C38.9372 94.994 46.3686 84.7959 46.3686 72.2158C46.3686 59.6358 38.9372 49.4376 29.7701 49.4376C20.603 49.4376 13.1716 59.6358 13.1716 72.2158C13.1716 84.7959 20.603 94.994 29.7701 94.994Z" fill="url(#paint1_linear)"/>
<path d="M29.7701 93.7683C38.4577 93.7683 45.5003 84.1189 45.5003 72.2158C45.5003 60.3127 38.4577 50.6633 29.7701 50.6633C21.0825 50.6633 14.0399 60.3127 14.0399 72.2158C14.0399 84.1189 21.0825 93.7683 29.7701 93.7683Z" stroke="#357C39" stroke-width="0.712" stroke-miterlimit="10"/>
<path d="M29.77 92.9002C38.0909 92.9002 44.8363 83.6396 44.8363 72.216C44.8363 60.7924 38.0909 51.5317 29.77 51.5317C21.4491 51.5317 14.7037 60.7924 14.7037 72.216C14.7037 83.6396 21.4491 92.9002 29.77 92.9002Z" stroke="#357C39" stroke-width="0.351" stroke-miterlimit="10"/>
<path d="M38.4012 66.9043C38.4012 64.8614 36.6647 60.6224 33.1408 59.601C29.6168 58.5795 24.9181 59.0392 22.4156 62.8696C19.9131 66.6489 22.9263 69.9176 25.1224 70.939C25.1224 70.939 25.0714 72.0626 25.7864 72.2158C26.3482 72.3179 26.4503 71.5008 26.4503 71.5008L27.1142 71.4497C27.1142 71.4497 27.0632 72.369 27.8293 72.4712C28.5953 72.5733 28.5953 71.3986 28.5953 71.3986L29.77 71.4497C29.77 71.4497 29.4125 72.5733 30.5361 72.6244C31.6086 72.6755 31.4554 71.4497 31.4554 71.4497L32.3747 71.3476C32.3747 71.3476 32.6811 72.9308 33.6515 72.7265C34.6219 72.5222 34.4686 70.939 34.4686 70.939C34.4686 70.939 38.4012 68.8961 38.4012 66.9043ZM27.0632 67.8236C26.1439 67.8236 25.4289 66.8021 25.4289 65.5764C25.4289 64.2996 26.1439 63.3292 27.0632 63.3292C27.9825 63.3292 28.6975 64.3507 28.6975 65.5764C28.6975 66.8021 27.9314 67.8236 27.0632 67.8236ZM30.1275 68.2322C27.7271 69.9176 29.3103 66.7511 30.1786 66.7511C31.2 66.7511 31.915 69.8154 30.1275 68.2322ZM32.8343 67.8236C31.915 67.8236 31.2 66.8021 31.2 65.5764C31.2 64.2996 31.915 63.3292 32.8343 63.3292C33.7536 63.3292 34.4686 64.3507 34.4686 65.5764C34.4686 66.8021 33.7026 67.8236 32.8343 67.8236Z" fill="#143E18"/>
<path d="M27.0769 78.8149C27.299 78.8149 27.5102 78.8323 27.7104 78.8672L27.8541 78.8933L27.6255 81.3032C27.4165 81.251 27.127 81.2249 26.7569 81.2249C26.1996 81.2249 25.7947 81.3533 25.5422 81.6102C25.2896 81.8627 25.1634 82.2284 25.1634 82.7074V86.3451H22.6097V78.9455H24.5103L24.9086 80.1276H25.0327C25.2461 79.7358 25.5422 79.4201 25.921 79.1807C26.3041 78.9368 26.6894 78.8149 27.0769 78.8149Z" fill="#143E18"/>
<path d="M31.4592 86.3451H28.9056V78.9455H31.4592V86.3451ZM28.8403 77.1038C28.8403 76.7206 28.947 76.4355 29.1603 76.2482C29.3737 76.061 29.7176 75.9674 30.1922 75.9674C30.6668 75.9674 31.0129 76.0632 31.2306 76.2548C31.4483 76.4463 31.5572 76.7294 31.5572 77.1038C31.5572 77.8527 31.1022 78.2271 30.1922 78.2271C29.2909 78.2271 28.8403 77.8527 28.8403 77.1038Z" fill="#143E18"/>
<path d="M37.6833 86.4758C37.3088 86.4758 36.9736 86.4148 36.6775 86.2929C36.3814 86.1666 36.0875 85.9424 35.7958 85.6202H35.6782C35.7566 86.1383 35.7958 86.4605 35.7958 86.5868V89.5584H33.2422V78.9455H35.319L35.6782 79.886H35.7958C36.2704 79.1719 36.9257 78.8149 37.7616 78.8149C38.5802 78.8149 39.2224 79.1545 39.6883 79.8338C40.1542 80.513 40.3871 81.4447 40.3871 82.629C40.3871 83.822 40.1433 84.7625 39.6556 85.4504C39.1723 86.134 38.5149 86.4758 37.6833 86.4758ZM36.8277 80.8199C36.4533 80.8199 36.1898 80.9549 36.0375 81.2249C35.8894 81.4904 35.8089 81.8867 35.7958 82.4135V82.616C35.7958 83.2516 35.8807 83.711 36.0505 83.994C36.2203 84.277 36.4881 84.4185 36.8538 84.4185C37.1804 84.4185 37.4177 84.2792 37.5657 84.0005C37.7137 83.7175 37.7878 83.2516 37.7878 82.6029C37.7878 81.9672 37.7137 81.5122 37.5657 81.2379C37.4177 80.9593 37.1717 80.8199 36.8277 80.8199Z" fill="#143E18"/>
<path d="M37.7883 12.4614H22.2112V19.1008H37.7883V12.4614Z" fill="#2F6C31"/>
<path opacity="0.34" d="M25.0204 12.4614H22.2115V41.7769L11.3841 48.0588C5.76619 51.3274 2.90614 57.8646 4.38724 64.1976C4.38724 64.1976 11.8949 97.037 12.8652 100.714C13.7845 104.391 44.9386 104.289 46.1133 100.714C46.3686 99.9481 46.9304 97.752 47.5943 94.7898C27.4208 106.281 22.1093 59.3457 25.0204 12.4614Z" fill="url(#paint2_linear)"/>
<path d="M36.8181 8.22263H23.1818L22.3136 1.68538C22.2114 0.766077 22.8754 0 23.7947 0H36.1542C37.0735 0 37.7374 0.817149 37.6353 1.68538L36.8181 8.22263Z" fill="#693621"/>
<path d="M22.4669 0.817261C22.3647 1.07262 22.3137 1.32799 22.3137 1.63442L23.1819 8.17166H36.8182L37.38 3.67731C31.762 6.53735 23.4883 4.18803 22.4669 0.817261Z" fill="#4A2512"/>
<path d="M39.0652 14.3512H20.8835C20.3728 14.3512 19.9642 13.9426 19.9642 13.4319V7.91612C19.9642 7.4054 20.3728 6.99683 20.8835 6.99683H39.0652C39.5759 6.99683 39.9845 7.4054 39.9845 7.91612V13.4319C39.9845 13.9426 39.5759 14.3512 39.0652 14.3512Z" fill="url(#paint3_linear)"/>
<path d="M20.2195 7.50757C20.0663 7.71186 19.9642 8.01829 19.9642 8.27365V13.0234C19.9642 13.7384 20.577 14.3512 21.2921 14.3512H38.7077C39.4227 14.3512 40.0356 13.7384 40.0356 13.0234V10.7762C34.2133 14.2491 21.9049 12.1551 20.2195 7.50757Z" fill="url(#paint4_linear)"/>
<path opacity="0.43" d="M51.0961 59.4081C52.6851 57.4646 50.4151 52.9797 46.0258 49.391C41.6364 45.8022 36.79 44.4684 35.2009 46.412C33.6119 48.3555 35.8819 52.8403 40.2712 56.4291C44.6606 60.0179 49.507 61.3516 51.0961 59.4081Z" fill="#6CB538"/>
<path opacity="0.43" d="M51.8332 65.2192C51.8332 66.2917 50.9649 67.1599 49.8924 67.1599C48.8199 67.1599 47.9517 66.2917 47.9517 65.2192C47.9517 64.1467 48.8199 63.2784 49.8924 63.2784C50.9649 63.3295 51.8332 64.1978 51.8332 65.2192Z" fill="#6CB538"/>
<path d="M19.9641 44.4838C17.5126 45.9649 12.865 48.7228 9.13677 51.7871C7.04281 53.5235 4.74456 58.6308 5.766 64.0444C6.83852 69.4581 9.03462 78.3446 9.03462 78.3446C9.03462 78.3446 7.96212 68.3345 7.65568 63.6358C7.34925 58.784 8.52391 55.26 10.9243 52.8085C12.814 50.8678 19.9641 44.4838 19.9641 44.4838Z" fill="#357C39"/>
<path opacity="0.43" d="M34.9795 40.0917C35.7129 40.0917 36.3074 35.9987 36.3074 30.9498C36.3074 25.9008 35.7129 21.8079 34.9795 21.8079C34.2461 21.8079 33.6516 25.9008 33.6516 30.9498C33.6516 35.9987 34.2461 40.0917 34.9795 40.0917Z" fill="#6CB538"/>
</g>
<defs>
<filter id="filter0_d" x="0" y="0" width="59.0632" height="111.434" filterUnits="userSpaceOnUse" color-interpolation-filters="sRGB">
<feFlood flood-opacity="0" result="BackgroundImageFix"/>
<feColorMatrix in="SourceAlpha" type="matrix" values="0 0 0 0 0 0 0 0 0 0 0 0 0 0 0 0 0 0 127 0"/>
<feOffset dy="4"/>
<feGaussianBlur stdDeviation="2"/>
<feColorMatrix type="matrix" values="0 0 0 0 0.116875 0 0 0 0 0.275 0 0 0 0 0.260944 0 0 0 1 0"/>
<feBlend mode="normal" in2="BackgroundImageFix" result="effect1_dropShadow"/>
<feBlend mode="normal" in="SourceGraphic" in2="effect1_dropShadow" result="shape"/>
</filter>
<linearGradient id="paint0_linear" x1="29.5316" y1="12.4614" x2="29.5316" y2="103.434" gradientUnits="userSpaceOnUse">
<stop stop-color="#B2DC59"/>
<stop offset="1" stop-color="#2A6110"/>
</linearGradient>
<linearGradient id="paint1_linear" x1="29.7701" y1="49.4376" x2="29.7701" y2="94.994" gradientUnits="userSpaceOnUse">
<stop stop-color="#FFF9C1"/>
<stop offset="1" stop-color="#CDB900"/>
</linearGradient>
<linearGradient id="paint2_linear" x1="25.7972" y1="12.4614" x2="25.7972" y2="103.434" gradientUnits="userSpaceOnUse">
<stop stop-color="#1DB954"/>
<stop offset="1" stop-color="#265B0D"/>
</linearGradient>
<linearGradient id="paint3_linear" x1="29.9743" y1="6.99683" x2="29.9743" y2="14.3512" gradientUnits="userSpaceOnUse">
<stop stop-color="#1DB954"/>
<stop offset="1" stop-color="#265B0D"/>
</linearGradient>
<linearGradient id="paint4_linear" x1="29.9999" y1="7.50757" x2="29.9999" y2="14.3512" gradientUnits="userSpaceOnUse">
<stop stop-color="#B2DC59"/>
<stop offset="1" stop-color="#2A6110"/>
</linearGradient>
</defs>
</svg>
