<svg width="101" height="105" viewBox="0 0 101 105" fill="none" xmlns="http://www.w3.org/2000/svg">
<g filter="url(#filter0_d)">
<path d="M74.9959 80.7278C74.7413 87.0918 61.186 92.1512 44.6713 92.0876C28.1567 92.0239 14.9832 86.8054 15.2059 80.4414C15.4605 74.0774 29.0158 69.018 45.5305 69.0816C62.0769 69.1453 75.2504 74.3638 74.9959 80.7278Z" fill="#A2B2B2"/>
<path d="M74.6139 80.155C74.3912 86.3599 60.9631 91.3238 44.6394 91.2283C28.3157 91.1647 15.2694 86.0735 15.4922 79.8686C15.7149 73.6637 29.143 68.6997 45.4667 68.7952C61.8222 68.8906 74.8685 73.9819 74.6139 80.155Z" fill="url(#paint0_linear)"/>
<path opacity="0.4" d="M63.827 78.1502C63.6679 82.0004 55.3629 85.0551 45.2759 85.0233C35.1571 84.9597 27.1066 81.8095 27.2339 77.9911C27.393 74.1408 35.6981 71.0861 45.785 71.1179C55.9038 71.1497 63.9543 74.2999 63.827 78.1502Z" fill="#404041"/>
<path d="M29.3978 65.7722C29.3978 65.7404 29.3978 65.7404 29.3978 65.7722C29.2069 65.6131 28.9841 65.4858 28.7614 65.3903C28.3795 65.2312 27.8386 65.0403 27.3931 65.0085C26.5976 64.913 25.8021 64.8176 25.0066 64.6903C23.2565 64.4357 21.57 64.0857 19.8836 63.6402C16.9243 62.8447 11.2285 61.2855 9.98751 58.7399C8.90563 56.608 10.7194 53.8396 13.8696 54.4442C15.4924 54.7624 16.8288 56.1943 18.4835 56.608C24.4338 58.1672 20.7109 51.1349 18.3562 49.8303C16.1606 48.5893 13.0741 48.5575 10.5285 49.1939C3.9417 50.8486 2.95527 56.1943 4.86448 60.1718C6.67822 63.9903 11.2603 66.2813 15.7788 67.7769C17.9425 68.4769 20.2336 68.986 22.5246 69.336C24.8793 69.6861 27.2976 70.0997 29.3978 68.986C30.8933 68.1269 30.8615 66.5677 29.3978 65.7722Z" fill="#DDDDDC"/>
<path d="M17.1154 62.813C17.3381 63.4812 17.37 64.1813 17.1472 64.8495C17.0518 65.1359 16.8927 65.3904 16.7017 65.5813C16.0017 66.0268 15.0471 66.2814 14.0289 66.345C12.9788 66.2814 11.8333 65.995 10.7832 65.6768C12.3424 66.5041 14.0607 67.1723 15.7471 67.7451C17.8791 68.4451 20.1065 68.9224 22.3657 69.2725C22.6203 67.5224 21.4111 65.4541 20.5202 64.0858C20.4565 63.9585 20.3611 63.8312 20.2656 63.704C20.1383 63.6721 20.011 63.6403 19.8519 63.6085C19.1201 63.3858 18.1655 63.1312 17.1154 62.813Z" fill="#C8D8D8"/>
<path opacity="0.5" d="M10.9738 59.8854C10.5601 59.5035 10.2101 59.1217 10.0192 58.708C8.9373 56.5761 10.751 53.8077 13.9012 54.4123C15.5241 54.7305 16.8605 56.1624 18.5152 56.5761C18.9606 56.7034 20.2653 57.0534 20.6789 56.7034C21.0608 56.3852 20.5516 55.7806 20.488 55.3988C20.1698 53.935 19.8516 52.6622 19.1516 51.2303C18.6743 50.2439 18.0378 48.0483 16.2559 48.112C14.8877 48.1438 14.6649 49.703 14.6013 50.4985C14.5376 51.3894 14.824 52.0258 13.4876 52.3758C12.6921 52.5986 11.8329 52.4395 11.0374 52.694C9.44642 53.2032 8.45999 54.476 8.26907 55.8124C8.04633 57.308 9.22368 59.2172 10.9738 59.8854Z" fill="#A4BABA"/>
<path d="M75.2186 46.9666C74.5822 44.8983 72.4821 42.8618 70.732 41.7163C67.709 39.7752 64.0179 38.9797 60.5495 38.2479C52.8491 36.625 44.894 36.275 37.0663 37.0705C31.0205 37.6751 24.0837 38.4388 19.1516 42.3527C16.956 44.1028 15.6196 46.6165 15.2377 49.3531C15.015 50.9441 15.3332 52.5987 15.715 54.1261C16.2241 56.1944 16.7969 58.2945 17.2742 60.3628C19.1516 68.3179 22.4291 76.0501 31.3705 80.5368C39.7392 84.7052 50.4944 84.5779 58.9267 80.6641C62.5224 79.0094 65.6726 76.782 67.8045 73.9182C69.7455 71.3089 71.1138 68.5088 72.323 65.6768C74.7413 59.9492 77.1278 53.0442 75.2186 46.9666Z" fill="#DDDDDC"/>
<path opacity="0.3" d="M72.7049 64.7539C73.3732 63.1311 74.0096 61.4128 74.5505 59.6627C44.3214 76.6228 21.6655 62.4629 16.9243 59.0581C17.0198 59.5036 17.1471 59.9491 17.2425 60.3945C17.5289 61.6037 17.8471 62.8129 18.1971 64.022C24.7521 68.2859 45.4988 79.0093 72.7049 64.7539Z" fill="url(#paint1_linear)"/>
<path opacity="0.3" d="M13.1375 50.3712C10.051 49.6393 6.80533 51.5167 5.81891 53.8078C5.21433 55.2079 5.08705 56.6398 5.40525 58.1035C5.65981 59.3126 6.48713 60.9037 7.75993 61.6355C8.23723 61.9219 8.87364 61.5401 8.87364 61.1264C8.90546 60.1718 7.98267 59.249 7.60083 58.358C7.09171 57.1489 7.219 55.8443 7.66448 54.6351C8.10996 53.4577 9.1282 52.5668 10.5283 52.0895C11.5147 51.7395 12.5011 51.5804 13.3284 51.0076C13.6148 50.7849 13.4557 50.4348 13.1375 50.3712Z" fill="url(#paint2_linear)"/>
<path opacity="0.2" d="M60.1361 58.549C60.1361 58.549 70.0322 56.9899 74.5506 52.3441C74.5506 52.3441 71.4004 80.0912 48.9354 81.7459C48.9354 81.7459 57.2405 75.7955 60.1361 58.549Z" fill="url(#paint3_linear)"/>
<path d="M17.6557 48.9073C17.7512 49.1619 19.4695 47.5072 19.5968 47.2845C20.0423 46.3299 20.5514 46.2344 21.9515 45.5026C23.4788 44.7071 25.6426 44.198 27.7109 43.8161C32.4203 42.9888 37.5751 41.9069 42.5709 41.7796C48.3621 41.6523 53.8988 41.8751 59.4674 42.7661C62.4584 43.2434 65.3223 43.9434 67.9951 44.7389C69.268 45.1207 70.4453 45.598 71.4317 46.139C72.3863 46.6799 72.45 47.2845 72.5136 47.9527C72.5454 48.3982 74.1046 49.1619 74.5501 48.6528C74.5501 48.6528 78.5912 38.3749 46.7075 38.3749C14.5056 38.3749 17.2421 48.1755 17.6557 48.9073Z" fill="#CCCBCB"/>
<path d="M73.1181 47.6982C71.4952 51.1666 64.6539 52.694 60.4855 54.5395C60.3582 54.6032 60.2946 54.6986 60.2946 54.7623C61.631 54.4759 62.9356 54.1577 64.2084 53.744C67.6132 52.694 71.1134 51.453 73.2453 49.6074C75.3773 47.7618 74.8045 46.0436 72.959 44.5798C73.4681 45.5981 73.5954 46.6481 73.1181 47.6982Z" fill="#878F8C"/>
<path d="M74.5817 47.8254C74.5817 52.4393 61.8855 56.1623 46.23 56.1623C30.5745 56.1623 17.8783 52.4075 17.8783 47.8254C17.8783 43.2115 30.5745 39.4885 46.23 39.4885C61.8855 39.4885 74.5817 43.2115 74.5817 47.8254Z" fill="#AA784B"/>
<path d="M22.0888 43.2004C24.1898 42.194 26.6985 41.4392 28.9249 40.999C33.8795 40.0555 39.3045 39.6152 44.4786 39.5838C51.0325 39.5209 57.2414 39.8983 63.4504 40.9675C68.1228 41.7537 73.5477 43.5148 74.4258 46.6597C75.2725 49.7416 71.823 52.0059 67.7778 53.6097C60.4713 56.4715 50.6562 57.5408 42.0327 57.1319C37.1722 56.9118 32.343 56.2199 28.0783 54.8048C24.6602 53.6726 21.1167 52.3203 18.953 50.3391C15.9112 47.5717 18.2945 44.9929 22.0888 43.2004Z" fill="#AA784B"/>
<path d="M45.5299 54.0302C44.3844 54.0302 43.2389 53.9984 42.0934 53.9666C36.9067 53.712 32.2928 52.9165 28.4425 51.5801C25.2924 50.4982 21.824 49.1299 19.9148 47.2844C19.4693 46.8707 19.342 46.5843 19.3102 46.4889C19.4375 46.1388 20.2011 45.1206 22.6195 43.9114C24.465 42.9886 26.8197 42.1931 29.1108 41.7477C33.6929 40.8249 39.0386 40.3158 44.5753 40.2839C44.989 40.2839 45.4027 40.2839 45.8163 40.2839C52.3076 40.2839 58.0989 40.7612 63.5083 41.7158C69.9041 42.8614 72.6725 44.9297 72.9907 46.0752C73.2134 46.9662 71.6224 48.6844 67.5494 50.3709C61.7264 52.662 53.7395 54.0302 45.5299 54.0302Z" fill="#C28F5F"/>
<path d="M45.4028 54.6665C44.13 54.6665 42.8572 54.6347 41.5844 54.5711C35.8568 54.2211 30.4156 53.871 26.1517 51.9936C23.447 50.7845 20.1377 50.6254 18.483 46.5842C18.8967 46.2342 19.4058 45.8524 20.074 45.4069C22.0469 44.1659 24.5607 43.084 27.0108 42.4794C32.102 41.1748 38.0524 40.4748 44.2255 40.4111C44.671 40.4111 45.1483 40.4111 45.5938 40.4111C52.8487 40.4111 59.3082 41.0794 65.354 42.4476C70.3498 43.5931 72.959 45.2796 74.0727 46.3297C73.3727 47.0934 72.3226 49.098 69.8725 50.3708C63.6676 53.6483 54.5034 54.6665 45.4028 54.6665Z" fill="url(#paint4_radial)"/>
<path d="M44.8618 55.9074C43.589 55.9074 42.3162 55.8756 41.0752 55.7801C35.4113 55.3665 30.4792 53.9346 26.0562 52.2481C24.3379 51.5799 23.5106 51.198 22.3332 50.5298C21.4104 49.9889 19.2785 48.6206 19.9149 47.0296C20.2649 46.1068 24.0197 44.7386 25.1652 44.4204C29.8428 43.0839 34.2021 42.1611 38.816 41.8111C40.4707 41.6838 42.0935 41.6202 43.7481 41.5884C44.1936 41.5884 44.6709 41.5884 45.1164 41.5884C51.0986 41.5884 57.1126 42.1293 62.9675 43.5294C64.5585 43.9112 66.1177 44.2613 67.6768 44.7704C68.6315 45.0886 72.0044 45.8841 71.7498 47.5387C71.5589 48.7479 70.2861 49.5752 69.4906 50.0525C63.2538 53.9028 53.8987 55.9074 44.8618 55.9074Z" fill="url(#paint5_linear)"/>
<path d="M23.3195 42.925C23.3195 42.925 20.233 44.0706 18.9283 45.5025L19.1511 45.7252C19.1511 45.7252 22.0149 43.4024 23.3195 42.925Z" fill="#B18661"/>
<path d="M70.7317 43.6251C70.7317 43.6251 72.1 44.2933 72.8318 44.9297L72.7682 45.0888L70.7317 43.6251Z" fill="#B18661"/>
<path d="M45.7851 37.7068C29.6205 37.7068 16.4788 41.7798 16.4788 46.8392C16.4788 53.235 29.5886 57.2162 45.7851 57.2162C61.9497 57.2162 75.0914 54.5714 75.0914 46.8392C75.0914 41.8116 61.9815 37.7068 45.7851 37.7068ZM45.7851 54.0305C30.9569 54.0305 18.9607 50.5621 18.9607 46.2664C18.9607 41.9707 30.9569 38.5023 45.7851 38.5023C60.6132 38.5023 72.6094 41.9707 72.6094 46.2664C72.6094 50.5621 60.6132 54.0305 45.7851 54.0305Z" fill="#DDDDDC"/>
<path opacity="0.5" d="M41.4891 54.8258C41.4891 54.8895 41.4573 54.9531 41.3937 55.0167C40.9164 55.8122 38.1799 55.1758 37.448 55.1122C34.7115 54.794 31.9749 54.4758 29.2702 53.903C27.902 53.6167 26.5337 53.2666 25.2291 52.853C20.0106 51.2301 16.9877 49.0346 16.9877 46.8708C16.9877 45.0889 18.9923 43.3069 22.588 41.8114C19.8833 43.116 18.4196 44.6434 18.4196 46.2662C18.4196 48.5891 21.347 50.6892 26.6292 52.2166C30.7658 53.4257 35.0615 53.9667 39.3572 54.2849C39.739 54.3167 41.6164 54.2849 41.4891 54.8258Z" fill="white"/>
<path opacity="0.2" d="M68.5042 47.2846C68.5042 49.5756 61.4402 51.4212 52.7215 51.4212C44.0028 51.4212 47.7575 47.6982 49.7304 47.2846C60.3265 45.0253 44.0028 43.1479 52.7215 43.1479C61.4402 43.1479 68.5042 45.8845 68.5042 47.2846Z" fill="white"/>
<path opacity="0.5" d="M55.6488 54.0941C55.6488 54.0941 53.2623 54.285 52.785 54.7623C52.2759 55.2396 54.4397 55.8124 59.1172 54.9214C63.7948 54.0304 69.1406 52.4394 70.3815 50.9121C71.5907 49.3847 69.4906 50.5302 66.754 51.6757C63.9857 52.7894 55.6488 54.0941 55.6488 54.0941Z" fill="white"/>
<g opacity="0.5">
<path opacity="0.5" d="M36.4937 0C36.4937 0 46.3261 6.8095 41.8076 15.0827C37.2891 23.3878 41.8076 30.9928 41.8076 30.9928C41.1394 29.7836 41.3303 27.3653 41.3939 26.0925C41.5212 22.9741 42.1258 19.8557 43.4941 16.9919C44.4169 15.0827 45.7533 13.3008 45.976 11.1689C46.3261 7.54136 43.2395 4.77302 40.4712 2.73653C39.1665 1.81375 37.8301 0.890963 36.4937 0Z" fill="white"/>
<path opacity="0.5" d="M47.09 5.72766C47.09 5.72766 51.3857 10.0234 48.49 14.2236C45.5626 18.4239 48.14 22.7196 48.14 22.7196C47.8536 22.0196 48.1082 20.7467 48.2037 20.0467C48.4582 18.3921 48.9674 16.7374 49.8583 15.2737C50.4629 14.3191 51.2902 13.4281 51.5448 12.2826C51.9584 10.3416 50.4629 8.68693 49.0628 7.41413C48.4264 6.84137 47.7582 6.2686 47.09 5.72766Z" fill="white"/>
<path opacity="0.5" d="M46.3578 14.86C46.3578 14.86 42.0939 24.6924 45.435 30.6428C48.5852 36.3067 44.9577 39.6478 44.9577 39.6478C44.9577 39.6478 50.6535 37.1341 47.567 30.8337C43.7486 23.0377 46.3578 14.86 46.3578 14.86Z" fill="white"/>
</g>
<path opacity="0.7" d="M42.508 31.5337C42.508 31.5337 45.69 34.0793 43.5262 36.5931C41.3624 39.0751 43.2716 41.6525 43.2716 41.6525C43.0489 41.2388 43.2398 40.4751 43.3353 40.0615C43.5262 39.0751 43.908 38.0886 44.5763 37.2295C45.0217 36.6567 45.6263 36.1158 45.8172 35.4476C46.1036 34.302 45.0217 33.3156 44.0035 32.5519C43.4944 32.2019 43.0171 31.8837 42.508 31.5337Z" fill="white"/>
<path opacity="0.2" d="M89.8452 96.0128C89.8452 96.5697 85.8202 97 80.8839 97C75.9223 97 71.9226 96.5444 71.9226 96.0128C71.9226 95.4559 75.9476 95.0255 80.8839 95.0255C85.8455 95.0255 89.8452 95.4559 89.8452 96.0128Z" fill="#1A1A1A"/>
<path d="M96.6552 84.7479C96.6552 84.7479 92.4784 77.8118 81.3907 77.8118C70.2777 77.8118 64.5566 84.7479 64.5566 84.7479H96.6552Z" fill="#D1D3D4"/>
<path d="M72.8847 81.2796C72.7581 80.6468 72.5303 79.938 72.3784 79.4823C71.4671 79.8367 70.6064 80.2417 69.8469 80.6721C69.8469 80.6721 70.1001 81.3049 69.9229 81.9125C69.771 82.52 68.2521 81.7606 67.3408 82.2416C65.4422 83.6085 64.5056 84.773 64.5056 84.773H73.796C73.6188 84.0136 73.0872 82.2416 72.8847 81.2796Z" fill="#D5D1BC"/>
<path d="M88.1742 81.2796C88.3008 80.6468 88.5286 79.938 88.6805 79.4823C89.5919 79.8367 90.4525 80.2417 91.212 80.6721C91.212 80.6721 90.9588 81.3049 91.136 81.9125C91.2879 82.52 93.3637 81.7606 94.3003 82.2416C96.1989 83.6085 96.5786 84.773 96.5786 84.773H87.2629C87.4655 84.0136 87.997 82.2416 88.1742 81.2796Z" fill="#D5D1BC"/>
<path d="M94.984 82.3937C94.984 89.912 88.8833 96.0381 81.3396 96.0381C73.7959 96.0381 67.6952 89.9374 67.6952 82.3937C67.6952 74.85 73.7959 68.7493 81.3396 68.7493C88.8833 68.7493 94.984 74.85 94.984 82.3937Z" fill="url(#paint6_linear)"/>
<g opacity="0.2">
<path opacity="0.2" d="M91.4145 85.963C91.4145 91.5322 86.9085 96.0382 81.3394 96.0382C75.7702 96.0382 71.2643 91.5322 71.2643 85.963C71.2643 80.3939 75.7702 75.8879 81.3394 75.8879C86.9085 75.8879 91.4145 80.3939 91.4145 85.963Z" fill="#E9E7DB"/>
</g>
<path opacity="0.3" d="M82.6558 93.3802C78.884 93.3802 75.1881 91.6082 72.8845 88.2667C69.4924 83.3811 70.7328 76.6474 75.6185 73.2553C80.0738 70.167 86.1998 71.2808 89.2882 75.7361C90.6552 77.7106 91.1615 80.0649 90.7311 82.4191C90.3008 84.7733 88.9844 86.8238 87.0099 88.1655C85.2126 89.4059 83.0609 89.8615 80.9092 89.4818C78.7574 89.1021 76.9095 87.887 75.6691 86.0897C74.5299 84.4443 74.0996 82.4697 74.454 80.5205C74.8084 78.5713 75.8969 76.8753 77.5423 75.7361C80.6307 73.6097 84.8582 74.3692 87.0099 77.4575C87.9465 78.8245 88.3009 80.4699 88.0225 82.1153C87.7187 83.7608 86.8074 85.1784 85.4404 86.115C84.2 86.9757 82.6812 87.3048 81.1876 87.0263C79.6941 86.7479 78.403 85.9125 77.517 84.6721C76.7323 83.5329 76.4285 82.1407 76.6817 80.7737C76.9348 79.4067 77.6942 78.2169 78.8334 77.4069C79.1878 77.1537 79.6941 77.255 79.9472 77.6094C80.2003 77.9638 80.0991 78.4701 79.7447 78.7232C78.9599 79.2801 78.4284 80.0902 78.2512 81.0521C78.074 81.9888 78.2765 82.9507 78.8334 83.7608C79.4662 84.6468 80.3775 85.2543 81.4661 85.4568C82.5293 85.6593 83.6178 85.4062 84.5291 84.7987C85.5417 84.0899 86.2252 83.052 86.4277 81.8369C86.6555 80.6218 86.377 79.4067 85.6936 78.3941C84.0734 76.0399 80.8332 75.4577 78.479 77.0778C77.1879 77.9638 76.3273 79.3054 76.0488 80.8243C75.7703 82.3685 76.0994 83.9127 76.9854 85.1784C77.9727 86.6213 79.4662 87.5832 81.1876 87.887C82.909 88.1908 84.6557 87.8364 86.0733 86.8238C87.6934 85.71 88.7566 84.0392 89.111 82.1153C89.4654 80.1914 89.035 78.2422 87.9212 76.6221C85.3392 72.9009 80.2257 71.9643 76.5045 74.5464C72.3529 77.4322 71.315 83.1532 74.1755 87.3048C77.3905 91.9626 83.795 93.1271 88.4275 89.8868C88.7819 89.6337 89.2882 89.735 89.5413 90.0894C89.7945 90.4438 89.6932 90.95 89.3388 91.2032C87.339 92.6967 84.9848 93.3802 82.6558 93.3802Z" fill="#FCE5D4"/>
<path d="M64.3789 84.8745C64.3789 84.8745 66.2269 82.419 68.9608 84.748C71.7201 87.0769 75.2641 85.3049 76.6563 83.6088C78.2512 81.6596 79.2384 85.8871 79.8966 86.6212C81.1876 88.0388 85.1367 86.5959 85.9973 85.2543C86.8327 83.9379 87.9212 85.558 88.9591 86.3934C89.997 87.2035 94.7308 83.381 96.6547 84.8239C96.6547 84.8239 89.8958 96.19 85.162 96.19C80.4535 96.19 77.188 96.19 76.4032 96.19C75.6185 96.19 69.619 92.4688 64.3789 84.8745Z" fill="url(#paint7_linear)"/>
<path d="M86.5034 90.6966L91.1359 85.9375C90.1234 86.3678 89.3133 86.6716 88.9336 86.3932C88.7817 86.2666 88.6298 86.14 88.4779 85.9881L86.5034 90.6966Z" fill="#E9E7DB"/>
<path d="M73.2892 85.735L73.188 85.7097C71.821 86.0388 70.2768 85.8616 68.9352 84.7224L74.6056 89.4562L73.2892 85.735Z" fill="#E9E7DB"/>
<path d="M81.263 87.178C80.7061 87.1273 80.2251 86.8742 79.8961 86.5198C79.567 86.1401 79.1366 84.925 78.5797 84.0137V84.039L80.5289 91.7852L81.263 87.178Z" fill="#E9E7DB"/>
<path d="M77.0344 70.7523L76.1594 71.0072L76.2869 71.4447L77.1618 71.1898L77.0344 70.7523Z" fill="#E9E7DB"/>
<path d="M80.7497 69.4159L80.6619 69.863L81.5561 70.0386L81.6439 69.5915L80.7497 69.4159Z" fill="#E9E7DB"/>
<path d="M77.8237 72.8079L77.7358 73.255L78.63 73.4308L78.7179 72.9837L77.8237 72.8079Z" fill="#E9E7DB"/>
<path d="M71.5189 74.8329L71.431 75.28L72.3252 75.4558L72.4131 75.0087L71.5189 74.8329Z" fill="#E9E7DB"/>
<path d="M70.1674 78.876L70.0795 79.3231L70.9736 79.4989L71.0615 79.0518L70.1674 78.876Z" fill="#E9E7DB"/>
<path d="M76.485 76.8494L76.397 77.2965L77.2912 77.4726L77.3792 77.0255L76.485 76.8494Z" fill="#E9E7DB"/>
<path d="M75.8825 80.8673L75.0159 81.149L75.1568 81.5824L76.0234 81.3006L75.8825 80.8673Z" fill="#E9E7DB"/>
<path d="M81.5235 81.5547L80.6569 81.8364L80.7977 82.2698L81.6644 81.9881L81.5235 81.5547Z" fill="#E9E7DB"/>
<path d="M81.8209 75.3873L81.5629 75.7629L82.3141 76.2789L82.5721 75.9033L81.8209 75.3873Z" fill="#E9E7DB"/>
<path d="M85.09 71.2643L84.8552 72.1448L85.2955 72.2622L85.5302 71.3816L85.09 71.2643Z" fill="#E9E7DB"/>
<path d="M89.831 74.4075L89.5958 75.288L90.036 75.4056L90.2713 74.5251L89.831 74.4075Z" fill="#E9E7DB"/>
<path d="M86.5033 76.6651L86.1869 77.5198L86.6142 77.678L86.9306 76.8234L86.5033 76.6651Z" fill="#E9E7DB"/>
<path d="M89.8816 81.3666L88.9913 81.5612L89.0886 82.0063L89.9789 81.8117L89.8816 81.3666Z" fill="#E9E7DB"/>
<path d="M91.9142 79.1075L91.0239 79.3022L91.1213 79.7474L92.0116 79.5526L91.9142 79.1075Z" fill="#E9E7DB"/>
</g>
<defs>
<filter id="filter0_d" x="0" y="0" width="100.655" height="105" filterUnits="userSpaceOnUse" color-interpolation-filters="sRGB">
<feFlood flood-opacity="0" result="BackgroundImageFix"/>
<feColorMatrix in="SourceAlpha" type="matrix" values="0 0 0 0 0 0 0 0 0 0 0 0 0 0 0 0 0 0 127 0"/>
<feOffset dy="4"/>
<feGaussianBlur stdDeviation="2"/>
<feColorMatrix type="matrix" values="0 0 0 0 0 0 0 0 0 0 0 0 0 0 0 0 0 0 0.25 0"/>
<feBlend mode="normal" in2="BackgroundImageFix" result="effect1_dropShadow"/>
<feBlend mode="normal" in="SourceGraphic" in2="effect1_dropShadow" result="shape"/>
</filter>
<linearGradient id="paint0_linear" x1="45.0535" y1="68.7938" x2="45.0535" y2="91.2297" gradientUnits="userSpaceOnUse">
<stop stop-color="white"/>
<stop offset="1" stop-color="#D8F3FF"/>
</linearGradient>
<linearGradient id="paint1_linear" x1="45.7374" y1="59.0581" x2="45.7374" y2="71.9114" gradientUnits="userSpaceOnUse">
<stop stop-color="white"/>
<stop offset="1" stop-color="white" stop-opacity="0"/>
<stop offset="1" stop-color="#CDA326"/>
</linearGradient>
<linearGradient id="paint2_linear" x1="9.35706" y1="50.2106" x2="9.35706" y2="61.735" gradientUnits="userSpaceOnUse">
<stop stop-color="white"/>
<stop offset="1" stop-color="white" stop-opacity="0"/>
<stop offset="1" stop-color="#CDA326"/>
</linearGradient>
<linearGradient id="paint3_linear" x1="61.743" y1="52.3441" x2="61.743" y2="81.7459" gradientUnits="userSpaceOnUse">
<stop stop-color="white"/>
<stop offset="1" stop-color="white" stop-opacity="0"/>
<stop offset="1" stop-color="#CDA326"/>
</linearGradient>
<radialGradient id="paint4_radial" cx="0" cy="0" r="1" gradientUnits="userSpaceOnUse" gradientTransform="translate(46.6609 47.4562) scale(30.3639 7.8903)">
<stop offset="0.2673" stop-color="#131416"/>
<stop offset="0.4512" stop-color="#151617"/>
<stop offset="0.5522" stop-color="#1D1B1A"/>
<stop offset="0.633" stop-color="#2B2520"/>
<stop offset="0.7032" stop-color="#3F3328"/>
<stop offset="0.7665" stop-color="#584433"/>
<stop offset="0.8248" stop-color="#775A40"/>
<stop offset="0.8782" stop-color="#9B744F"/>
<stop offset="0.9255" stop-color="#C28F5F"/>
</radialGradient>
<linearGradient id="paint5_linear" x1="45.7809" y1="41.5884" x2="45.7809" y2="55.9074" gradientUnits="userSpaceOnUse">
<stop stop-color="#341212"/>
<stop offset="1" stop-color="#16171A" stop-opacity="0"/>
<stop offset="1" stop-color="#0B0B0C"/>
</linearGradient>
<linearGradient id="paint6_linear" x1="67.698" y1="82.383" x2="94.9808" y2="82.383" gradientUnits="userSpaceOnUse">
<stop stop-color="#FB6400"/>
<stop offset="0.5" stop-color="#F37521"/>
<stop offset="1" stop-color="#D4622A"/>
</linearGradient>
<linearGradient id="paint7_linear" x1="80.5168" y1="83.1" x2="80.5168" y2="96.19" gradientUnits="userSpaceOnUse">
<stop stop-color="#E9E7DB"/>
<stop offset="1" stop-color="#E9E7DB" stop-opacity="0"/>
</linearGradient>
</defs>
</svg>
