<svg width="140" height="78" viewBox="0 0 140 78" fill="none" xmlns="http://www.w3.org/2000/svg">
<path d="M137.576 8.00302C137.388 7.00509 136.453 6.38138 135.455 6.56849L99.5292 13.6164C98.8431 13.7412 98.2817 14.3025 98.0946 14.9886L93.791 32.5149L44.4555 34.4484L32.2931 44.3654L35.474 48.3571L46.4513 39.4381L70.5266 38.4401C70.5266 38.6272 70.589 38.8144 70.6513 38.9391L78.5725 57.8999C79.6328 60.5195 82.0652 62.1412 84.8719 62.1412C85.0591 62.1412 85.2462 62.1412 85.4333 62.1412C88.4271 61.8917 90.8596 59.8958 91.5456 56.9644L101.4 16.9845L136.203 10.1236C137.139 9.93653 137.825 9.00096 137.576 8.00302ZM87.9905 56.0912C87.5539 57.7752 86.2441 58.4613 85.1214 58.5236C83.9987 58.586 82.5642 58.1494 81.8781 56.5278L74.2689 38.253L92.5436 37.5046L87.9905 56.0912Z" fill="#B5B5B5"/>
<path d="M48.3226 37.5672L89.1133 36.1327C89.7994 36.1327 90.2984 35.5713 90.2984 34.8852V34.8229C90.2984 34.1368 89.737 33.5754 89.051 33.5754L48.2602 35.0723C47.5118 35.0723 47.0128 35.7584 47.0752 36.5069C47.1999 37.1306 47.6989 37.5672 48.3226 37.5672Z" fill="black"/>
<path d="M33.8708 66.7095C40.1062 60.474 40.1063 50.3644 33.8708 44.1289C27.6354 37.8935 17.5257 37.8935 11.2903 44.1289C5.05482 50.3644 5.05483 60.474 11.2903 66.7095C17.5257 72.9449 27.6354 72.9449 33.8708 66.7095Z" fill="#B5B5B5"/>
<path d="M22.5635 40.1243C14.1434 40.1243 7.34497 46.9851 7.34497 55.3428C7.34497 63.7629 14.2058 70.5614 22.5635 70.5614C30.9836 70.5614 37.7821 63.7005 37.7821 55.3428C37.8444 46.9851 30.9836 40.1243 22.5635 40.1243ZM22.5635 64.5737C17.5115 64.5737 13.395 60.4573 13.395 55.4052C13.395 50.3531 17.5115 46.2366 22.5635 46.2366C27.6156 46.2366 31.7321 50.3531 31.7321 55.4052C31.7321 60.4573 27.678 64.5737 22.5635 64.5737Z" fill="url(#paint0_linear)"/>
<path d="M27.873 60.7117C30.7959 57.7889 30.7959 53.05 27.873 50.1271C24.9502 47.2043 20.2113 47.2043 17.2884 50.1271C14.3655 53.05 14.3655 57.7889 17.2884 60.7117C20.2113 63.6346 24.9502 63.6346 27.873 60.7117Z" fill="#A6A6A6"/>
<path d="M20.1309 57.401C21.3784 59.0226 23.6861 59.2721 25.3078 58.0247L40.3392 46.1118L35.7861 40.3113L20.7547 52.2242C19.133 53.4716 18.8835 55.7793 20.1309 57.401Z" fill="black"/>
<path d="M37.5952 43.7416L20.8174 57.0266L20.755 56.9642C19.7571 55.6544 19.9442 53.8457 21.254 52.7854L35.7241 41.3091L37.5952 43.7416Z" fill="#B5B5B5"/>
<path d="M35.3499 42.9931C35.5994 43.305 35.5371 43.8039 35.2252 44.0534L25.9943 51.3509C25.6824 51.6003 25.1835 51.538 24.934 51.2261C24.6845 50.9142 24.7469 50.4153 25.0587 50.1658L34.2896 42.8684C34.6015 42.5565 35.1005 42.6189 35.3499 42.9931Z" fill="#A6A6A6"/>
<path d="M24.123 51.85C24.3725 52.1618 24.3101 52.6608 23.9983 52.9103L22.7509 53.9082C22.439 54.1577 21.94 54.0953 21.6906 53.7835C21.4411 53.4716 21.5034 52.9727 21.8153 52.7232L23.0627 51.7252C23.3746 51.4757 23.8735 51.5381 24.123 51.85Z" fill="#A6A6A6"/>
<path d="M91.6081 34.1991C91.6081 34.1991 43.3329 36.5068 36.9087 34.1991C30.7339 32.0161 16.6381 24.095 13.3324 3.88672L96.3484 13.2424L91.6081 34.1991Z" fill="url(#paint1_linear)"/>
<path d="M89.1756 13.1798L89.3627 12.868L13.6442 5.4458L14.3926 8.75147L85.8076 15.9865L83.4375 26.7767H26.1184C30.921 31.0803 35.5364 33.0138 37.1581 33.5752C38.4055 34.0118 42.3349 34.5731 53.9359 34.5731C68.5308 34.5731 87.5539 33.7623 91.0467 33.5752L95.4751 13.9283L89.1756 13.1798Z" fill="url(#paint2_linear)"/>
<path d="M139.883 7.87818C140.257 9.87405 138.885 11.8076 136.889 12.1818L117.991 15.5498L116.681 8.31477L135.58 4.94674C137.575 4.51014 139.509 5.8823 139.883 7.87818Z" fill="url(#paint3_linear)"/>
<path d="M118.116 11.8699L139.197 8.12762C139.197 8.06525 139.197 8.06525 139.197 8.00288C138.885 6.38123 137.389 5.32092 135.767 5.63278L117.617 8.87608L118.116 11.8699Z" fill="url(#paint4_linear)"/>
<path d="M118.989 9.68702C119.051 10.1236 119.488 10.3731 119.862 10.3107L131.463 8.25249C131.9 8.19011 132.149 7.75352 132.087 7.37929C132.025 6.94269 131.588 6.69321 131.214 6.75558L119.613 8.75145C119.176 8.8762 118.927 9.25042 118.989 9.68702Z" fill="url(#paint5_linear)"/>
<path d="M133.085 7.19198C133.147 7.62858 133.584 7.87806 133.958 7.81569L135.517 7.5662C135.954 7.50383 136.203 7.06724 136.141 6.69301C136.079 6.25641 135.642 6.00693 135.268 6.0693L133.709 6.31878C133.334 6.31878 133.023 6.75538 133.085 7.19198Z" fill="url(#paint6_linear)"/>
<path d="M71.9617 39.8124L78.5731 55.9041C78.8849 56.7149 80.0076 56.7149 80.3818 55.9041L80.4442 55.7794C80.5689 55.5299 80.5689 55.2804 80.4442 55.0309L73.7705 39.0639C73.6457 38.6897 73.2715 38.4402 72.8973 38.4402C72.1488 38.4402 71.7122 39.1886 71.9617 39.8124Z" fill="black"/>
<path d="M95.9119 15.2381L11.5238 6.56849C10.214 6.44375 9.09133 5.50818 8.71711 4.19839C8.0934 1.95303 9.90216 -0.229961 12.2723 0.0195234L97.3465 10.3731L95.9119 15.2381Z" fill="url(#paint7_linear)"/>
<path d="M36.2225 30.6435C34.7255 30.6435 33.3534 29.7703 32.7297 28.3358L28.7379 19.1049C28.3013 18.1693 28.3013 17.109 28.6755 16.1734C29.0498 15.2379 29.7982 14.4894 30.6714 14.0528C31.1704 13.8657 31.6694 13.741 32.1683 13.741C33.6652 13.741 35.0374 14.6142 35.6611 16.0487L39.6529 25.2796C40.0895 26.2152 40.0895 27.2755 39.7152 28.2111C39.341 29.1466 38.5926 29.8951 37.7194 30.3317C37.2828 30.5188 36.7838 30.6435 36.2225 30.6435Z" fill="url(#paint8_linear)"/>
<path d="M36.7217 29.646C35.5366 30.145 34.1645 29.646 33.6031 28.3986L29.6114 19.1677C29.1124 17.9826 29.6114 16.6105 30.8588 16.0491C32.0438 15.5501 33.416 16.0491 33.9774 17.2965L37.9691 26.5275C38.4681 27.7125 37.9691 29.1471 36.7217 29.646Z" fill="url(#paint9_linear)"/>
<path d="M53.0629 30.6435C51.566 30.6435 50.1938 29.7703 49.5701 28.3358L45.516 19.1049C45.0794 18.1693 45.0794 17.109 45.4536 16.1734C45.8278 15.2379 46.5763 14.4894 47.4495 14.0528C47.9485 13.8657 48.4474 13.741 48.9464 13.741C50.4433 13.741 51.8155 14.6142 52.4392 16.0487L56.4309 25.2796C57.2418 27.2131 56.3686 29.4585 54.4351 30.2693C54.0608 30.5188 53.5619 30.6435 53.0629 30.6435Z" fill="url(#paint10_linear)"/>
<path d="M53.5618 29.646C52.3767 30.145 51.0045 29.646 50.4432 28.3986L46.4515 19.1677C45.9525 17.9826 46.4515 16.6105 47.6989 16.0491C48.8839 15.5501 50.2561 16.0491 50.8174 17.2965L54.8092 26.5275C55.3082 27.7125 54.7468 29.1471 53.5618 29.646Z" fill="url(#paint11_linear)"/>
<path d="M69.4666 16.1112C69.4043 16.0488 69.4043 15.9864 69.3419 15.9241H62.6058C62.5434 16.0488 62.4811 16.1112 62.4187 16.2359C62.0445 17.1715 62.0445 18.2318 62.4811 19.1674L66.4728 28.3983C67.0965 29.7705 68.4687 30.706 69.9656 30.706C70.4646 30.706 71.0259 30.5813 71.4625 30.3942C72.3981 29.9576 73.1465 29.2715 73.4584 28.2736C73.8326 27.338 73.8326 26.2777 73.396 25.3421L69.4666 16.1112Z" fill="url(#paint12_linear)"/>
<path d="M70.527 29.646C69.3419 30.145 67.9698 29.646 67.4084 28.3986L63.4167 19.1677C62.9177 17.9826 63.4167 16.6105 64.6641 16.0491C65.8491 15.5501 67.2213 16.0491 67.7826 17.2965L71.7744 26.5275C72.211 27.7125 71.712 29.1471 70.527 29.646Z" fill="url(#paint13_linear)"/>
<path d="M115.808 11.4336L100.652 14.6145C100.215 14.7393 99.9036 15.1759 100.091 15.6125C100.215 15.9867 100.59 16.1738 100.964 16.1114L116.12 12.9929C116.494 12.9305 116.744 12.6187 116.744 12.2444V12.1821C116.744 11.6831 116.245 11.3089 115.808 11.4336Z" fill="#DED6E5"/>
<path d="M99.9035 18.0446L90.735 54.5317C90.6102 54.9683 90.1113 55.2178 89.6747 55.093C89.3004 54.9683 89.1133 54.594 89.2381 54.1574L98.1571 17.5456C98.2819 17.109 98.7808 16.8595 99.2174 16.9843L99.4046 17.0466C99.7788 17.2337 99.9659 17.6703 99.9035 18.0446Z" fill="#DED6E5"/>
<defs>
<linearGradient id="paint0_linear" x1="22.5637" y1="40.1243" x2="22.5637" y2="70.5614" gradientUnits="userSpaceOnUse">
<stop/>
<stop offset="1" stop-color="#0A0909" stop-opacity="0.35"/>
</linearGradient>
<linearGradient id="paint1_linear" x1="54.8404" y1="3.88672" x2="54.8404" y2="35.2247" gradientUnits="userSpaceOnUse">
<stop stop-color="#CF0E0E"/>
<stop offset="1" stop-color="#FF4172"/>
</linearGradient>
<linearGradient id="paint2_linear" x1="54.5596" y1="5.4458" x2="54.5596" y2="34.5731" gradientUnits="userSpaceOnUse">
<stop stop-color="#FF1D1D"/>
<stop offset="1" stop-color="#FF4172"/>
</linearGradient>
<linearGradient id="paint3_linear" x1="128.313" y1="4.86548" x2="128.313" y2="15.5498" gradientUnits="userSpaceOnUse">
<stop/>
<stop offset="1" stop-color="#8B8181"/>
</linearGradient>
<linearGradient id="paint4_linear" x1="128.407" y1="5.57837" x2="128.407" y2="11.8699" gradientUnits="userSpaceOnUse">
<stop/>
<stop offset="1" stop-color="#8B8181"/>
</linearGradient>
<linearGradient id="paint5_linear" x1="125.538" y1="6.74609" x2="125.538" y2="10.3202" gradientUnits="userSpaceOnUse">
<stop/>
<stop offset="1" stop-color="#8B8181"/>
</linearGradient>
<linearGradient id="paint6_linear" x1="134.614" y1="6.05981" x2="134.614" y2="7.82517" gradientUnits="userSpaceOnUse">
<stop/>
<stop offset="1" stop-color="#8B8181"/>
</linearGradient>
<linearGradient id="paint7_linear" x1="52.9697" y1="0" x2="52.9697" y2="15.2381" gradientUnits="userSpaceOnUse">
<stop stop-color="#FF1D1D"/>
<stop offset="1" stop-color="#FF4172"/>
</linearGradient>
<linearGradient id="paint8_linear" x1="33.4387" y1="11.3505" x2="33.7346" y2="33.031" gradientUnits="userSpaceOnUse">
<stop stop-color="#D91B24"/>
<stop offset="1" stop-color="#393C5A"/>
</linearGradient>
<linearGradient id="paint9_linear" x1="33.7902" y1="15.8579" x2="33.7902" y2="29.8372" gradientUnits="userSpaceOnUse">
<stop stop-color="#FF1D1D"/>
<stop offset="1" stop-color="#FF4172"/>
</linearGradient>
<linearGradient id="paint10_linear" x1="50.2022" y1="11.3505" x2="50.4989" y2="33.031" gradientUnits="userSpaceOnUse">
<stop stop-color="#D91B24"/>
<stop offset="1" stop-color="#393C5A"/>
</linearGradient>
<linearGradient id="paint11_linear" x1="50.6258" y1="15.8579" x2="50.6258" y2="29.8372" gradientUnits="userSpaceOnUse">
<stop stop-color="#FF1D1D"/>
<stop offset="1" stop-color="#FF4172"/>
</linearGradient>
<linearGradient id="paint12_linear" x1="67.1819" y1="13.8335" x2="67.4082" y2="32.7948" gradientUnits="userSpaceOnUse">
<stop stop-color="#D91B24"/>
<stop offset="1" stop-color="#393C5A"/>
</linearGradient>
<linearGradient id="paint13_linear" x1="67.578" y1="15.8579" x2="67.578" y2="29.8372" gradientUnits="userSpaceOnUse">
<stop stop-color="#FF1D1D"/>
<stop offset="1" stop-color="#FF4172"/>
</linearGradient>
</defs>
</svg>
