<svg width="84" height="100" viewBox="0 0 84 100" fill="none" xmlns="http://www.w3.org/2000/svg">
<g filter="url(#filter0_d)">
<path d="M4 27.6149V73.2295L47.0433 91.9999V38.8257L4 27.6149Z" fill="url(#paint0_linear)"/>
<path d="M79.3904 27.6149V73.2295L47.0436 91.9999V38.8257L79.3904 27.6149Z" fill="#C10F3E"/>
<path d="M4 27.615L39.8437 20.2097L79.3901 27.615L47.0433 38.8258L4 27.615Z" fill="#FF004E"/>
<path d="M55.066 26.4836C55.066 26.4836 57.1231 20.7754 57.6887 15.9414C58.2544 11.0559 58.3573 6.89043 58.7687 5.86191C59.1801 4.88483 60.3114 3.29063 59.6943 3.0335C59.0772 2.77637 49.872 -0.772007 43.0324 0.153656C36.1928 1.07932 20.9708 12.1359 15.7253 12.0844C15.7253 12.0844 17.1138 16.867 20.0965 20.0554C23.0792 23.2952 25.3934 25.3523 28.1704 27.2036C30.9474 29.0549 36.8099 31.6776 43.3409 30.2377C49.872 28.7464 53.0604 28.5407 55.066 26.4836Z" fill="white"/>
<path d="M57.946 13.7299C57.946 13.7299 51.672 20.4667 51.1578 22.0094C50.6435 23.6036 52.4948 28.0777 52.4948 28.0777L50.9521 28.5405C50.9521 28.5405 49.3579 23.0894 50.5407 20.7238C51.7234 18.3582 57.6888 11.9814 58.3059 10.3872L57.946 13.7299Z" fill="#EBEBEB"/>
<path d="M46.2721 4.06215C46.2721 4.06215 45.5521 4.01073 45.9635 9.51328C46.3749 15.0158 46.5806 19.4384 47.0435 20.7241C47.5063 22.0097 50.129 24.7867 50.129 24.7867L50.0262 22.5754C50.0262 22.5754 48.1234 20.6212 47.7634 17.33C47.4549 14.0902 45.9121 5.09067 46.2721 4.06215Z" fill="#EBEBEB"/>
<path d="M42.4155 30.3405C42.4155 30.3405 42.3641 23.398 41.6441 22.5238C40.8727 21.701 38.4043 15.7356 38.1986 14.3985C37.9929 13.0615 38.8157 1.38782 38.8157 1.38782C38.8157 1.38782 36.553 11.9815 36.7073 13.4214C36.8615 14.8614 40.6156 22.0095 40.6156 24.118C40.6156 26.2264 39.9985 30.3919 39.9985 30.3919L42.4155 30.3405Z" fill="#EBEBEB"/>
<path d="M47.0436 38.8257L66.4825 55.2305L79.3904 27.6149L47.0436 38.8257Z" fill="#B7133E"/>
<path d="M47.0436 92L66.4825 55.2306L79.3904 73.2296L47.0436 92Z" fill="#B7133E"/>
<path opacity="0.2" d="M4 73.2296C4 73.2296 43.0835 73.1268 47.0433 38.8258V92L4 73.2296Z" fill="url(#paint1_linear)"/>
</g>
<defs>
<filter id="filter0_d" x="0" y="0" width="83.3904" height="100" filterUnits="userSpaceOnUse" color-interpolation-filters="sRGB">
<feFlood flood-opacity="0" result="BackgroundImageFix"/>
<feColorMatrix in="SourceAlpha" type="matrix" values="0 0 0 0 0 0 0 0 0 0 0 0 0 0 0 0 0 0 127 0"/>
<feOffset dy="4"/>
<feGaussianBlur stdDeviation="2"/>
<feColorMatrix type="matrix" values="0 0 0 0 0 0 0 0 0 0 0 0 0 0 0 0 0 0 0.25 0"/>
<feBlend mode="normal" in2="BackgroundImageFix" result="effect1_dropShadow"/>
<feBlend mode="normal" in="SourceGraphic" in2="effect1_dropShadow" result="shape"/>
</filter>
<linearGradient id="paint0_linear" x1="25.5217" y1="27.6149" x2="25.5217" y2="91.9999" gradientUnits="userSpaceOnUse">
<stop stop-color="#AE0733"/>
<stop offset="1" stop-color="#D81145"/>
</linearGradient>
<linearGradient id="paint1_linear" x1="22.7107" y1="31.3055" x2="23.4989" y2="99.5143" gradientUnits="userSpaceOnUse">
<stop stop-color="#81050A"/>
<stop offset="1" stop-color="#393C5A"/>
</linearGradient>
</defs>
</svg>
