<svg width="102" height="91" viewBox="0 0 102 91" fill="none" xmlns="http://www.w3.org/2000/svg">
<g filter="url(#filter0_d)">
<path d="M50.834 9.70586C46.9102 9.79306 42.6375 12.2345 42.8991 16.6816C43.1607 21.0414 46.1254 25.5755 50.834 25.5755C54.9322 25.5755 58.0713 21.9133 58.7688 18.0767C59.728 13.0193 55.6298 9.61867 50.834 9.70586Z" fill="#FF1000"/>
<path d="M54.9321 0.899041C54.4961 0.201472 53.7986 -0.583296 52.8394 0.63745C51.9675 1.8582 51.0955 5.17165 51.0955 5.17165C50.2236 9.44426 50.7467 12.5833 50.7467 12.5833C51.2699 13.4553 51.5315 12.9321 51.5315 12.9321C50.5723 6.218 53.101 2.99175 53.2754 2.20698C53.7114 1.24783 55.4553 1.59661 54.9321 0.899041Z" fill="#9F461E"/>
<path d="M48.2181 15.112C47.5205 16.4199 46.2126 17.1175 45.3406 16.6815C44.4686 16.2455 44.2943 14.7632 44.9918 13.4553C45.6894 12.1473 46.9973 11.4498 47.8693 11.8857C48.7413 12.3217 48.9157 13.7169 48.2181 15.112Z" fill="#F25451"/>
<path d="M10.6367 82.4276C10.6367 82.4276 5.92806 42.6661 7.14881 28.6276H94.8681L91.9034 82.4276H10.6367Z" fill="url(#paint0_linear)"/>
<path d="M93.0369 61.9365L93.3857 55.484H8.02069C8.19508 57.6639 8.36951 59.8438 8.5439 61.9365H93.0369Z" fill="#FCC8DA"/>
<path d="M10.6365 82.4276H91.9033L94.7808 29.1508L90.5082 30.4587C90.5082 30.4587 96.6991 89.1417 9.93896 76.2367C10.3749 80.0733 10.6365 82.4276 10.6365 82.4276Z" fill="url(#paint1_linear)"/>
<path d="M92.4266 24.1807H82.7478H74.4642H55.3682H9.41592C9.41592 24.1807 2.35299 24.7038 4.3585 35.5162C6.27681 46.3285 14.5605 43.451 16.8276 38.7424C17.9611 36.4753 19.9666 34.6442 22.5825 34.2954C27.1167 33.7722 28.2503 38.3064 29.471 41.7943C30.0814 43.5382 30.6917 45.5437 32.2612 46.6773C34.7027 48.5956 38.0162 47.462 39.9346 45.1949C42.2888 42.4046 42.376 38.568 45.4279 36.3009C49.0029 33.5978 53.9731 33.8594 56.5018 37.8705C57.5482 39.5272 58.0713 41.3583 59.0305 43.1022C60.5128 45.8053 62.7799 47.6364 65.919 46.8517C72.3715 45.1077 72.6331 33.5106 80.4807 34.9058C84.9277 35.6906 85.6253 41.4455 89.8979 42.7534C93.9089 43.9742 96.5248 40.5735 97.484 36.9985C97.5712 36.5625 97.6584 36.0393 97.7456 35.6034C99.4023 24.7038 92.4266 24.1807 92.4266 24.1807Z" fill="#DA132A"/>
<path d="M86.2355 25.4885C86.2355 25.4885 14.9091 24.7909 9.93896 25.4885C7.75905 25.8373 6.45113 27.494 5.92796 29.4995C5.49198 31.069 5.40476 32.6386 6.01513 34.2081C6.10233 34.4697 6.18955 34.6441 6.36394 34.8185C9.06702 37.7832 12.4677 35.1673 15.9555 32.9002C19.5305 30.6331 23.8903 30.7203 23.8903 30.7203C24.8495 30.7203 25.8087 30.8075 26.6806 30.8947C28.7733 31.1562 30.866 31.941 32.8715 32.5514C35.4874 33.3361 38.1905 33.8593 40.7192 32.7258C42.9863 31.7666 45.2534 30.8947 47.6949 30.4587C48.9156 30.1971 50.1364 30.1099 51.3571 30.1971C52.4907 30.2843 53.6242 30.6331 54.8449 30.6331C59.8151 30.8075 64.6109 30.1099 69.4067 28.9763C70.0171 28.8019 70.7147 28.6276 71.325 28.4532C76.9056 26.9708 82.8349 30.1099 84.666 30.4587C86.4971 30.8075 88.2411 28.6276 89.2002 27.2324C90.2466 25.7501 86.2355 25.4885 86.2355 25.4885Z" fill="url(#paint2_linear)"/>
</g>
<defs>
<filter id="filter0_d" x="0" y="-0.000244141" width="102" height="90.4278" filterUnits="userSpaceOnUse" color-interpolation-filters="sRGB">
<feFlood flood-opacity="0" result="BackgroundImageFix"/>
<feColorMatrix in="SourceAlpha" type="matrix" values="0 0 0 0 0 0 0 0 0 0 0 0 0 0 0 0 0 0 127 0"/>
<feOffset dy="4"/>
<feGaussianBlur stdDeviation="2"/>
<feColorMatrix type="matrix" values="0 0 0 0 0 0 0 0 0 0 0 0 0 0 0 0 0 0 0.25 0"/>
<feBlend mode="normal" in2="BackgroundImageFix" result="effect1_dropShadow"/>
<feBlend mode="normal" in="SourceGraphic" in2="effect1_dropShadow" result="shape"/>
</filter>
<linearGradient id="paint0_linear" x1="50.9074" y1="28.6276" x2="50.9074" y2="82.4276" gradientUnits="userSpaceOnUse">
<stop stop-color="#641F00"/>
<stop offset="1" stop-color="#FF4F00"/>
</linearGradient>
<linearGradient id="paint1_linear" x1="52.3599" y1="29.1508" x2="52.3599" y2="82.4276" gradientUnits="userSpaceOnUse">
<stop stop-color="#FDD55D"/>
<stop offset="1" stop-color="#FF8C00"/>
</linearGradient>
<linearGradient id="paint2_linear" x1="47.4768" y1="25.1785" x2="47.4768" y2="36.1445" gradientUnits="userSpaceOnUse">
<stop stop-color="#DA132A"/>
<stop offset="1" stop-color="#BC071C"/>
</linearGradient>
</defs>
</svg>
