<svg width="76" height="127" viewBox="0 0 76 127" fill="none" xmlns="http://www.w3.org/2000/svg">
<g filter="url(#filter0_d)">
<path d="M49.8773 113.515V74.9513C49.8773 71.0224 47.8827 66.066 44.256 64.0713C43.5911 63.7086 42.624 63.4064 42.2009 62.802C41.4756 61.7744 41.6569 58.6313 41.6569 58.6313V53.7957C41.6569 50.1691 41.6569 46.5424 41.6569 42.8553C41.6569 42.2508 41.6569 41.5859 41.6569 40.9815C41.6569 40.4375 39.904 40.0144 37.7884 40.0144C35.6729 40.0144 33.92 40.4375 33.92 40.9815C33.92 46.0588 33.92 51.1362 33.92 56.2135C33.92 57.362 33.92 58.5104 33.92 59.6589C33.92 60.9886 34.2222 62.3789 32.9529 63.2855C31.5627 64.3131 30.1724 64.7966 28.9635 66.1264C27.8151 67.5166 26.9689 69.0882 26.3644 70.7807C25.9413 72.1104 25.6391 73.5611 25.6391 74.8909V113.454C25.6391 113.454 26.304 118.29 37.728 118.109C50.1191 117.988 49.8773 113.515 49.8773 113.515Z" fill="url(#paint0_linear)"/>
<path d="M29.024 113.515V74.9514C29.024 73.5612 29.3262 72.1105 29.7493 70.8412C30.2933 69.1488 31.2 67.5168 32.3484 66.187C33.4969 64.7968 34.8871 64.3132 36.3378 63.3461C37.6071 62.4394 37.3049 61.0492 37.3049 59.7194C37.3049 58.571 37.3049 57.4225 37.3049 56.2741C37.3049 51.1967 37.3049 46.1194 37.3049 41.0421C37.3049 40.6794 38.2116 40.3167 39.4809 40.1958C38.9973 40.1354 38.3929 40.075 37.7884 40.075C35.6729 40.075 33.92 40.4981 33.92 41.0421C33.92 46.1194 33.92 51.1967 33.92 56.2741C33.92 57.4225 33.92 58.571 33.92 59.7194C33.92 61.0492 34.2222 62.4394 32.9529 63.3461C31.5627 64.3736 30.1724 64.8572 28.9635 66.187C27.8151 67.5772 26.9689 69.1488 26.3644 70.8412C25.9413 72.171 25.6391 73.6217 25.6391 74.9514V113.515C25.6391 113.515 26.304 118.351 37.728 118.169C38.0907 118.169 38.5138 118.169 38.816 118.109C29.6284 117.746 29.024 113.515 29.024 113.515Z" fill="url(#paint1_linear)"/>
<path d="M41.5964 58.1478V53.7957C41.5964 50.1691 41.5964 46.5424 41.5964 42.8553V40.9815C41.5964 40.4375 39.8435 40.0144 37.7279 40.0144C35.6124 40.0144 33.8595 40.4375 33.8595 40.9815C33.8595 46.0588 33.8595 51.1362 33.8595 56.2135C33.8595 56.8784 33.8595 57.4829 33.8595 58.1478C33.9199 58.1478 37.0026 60.082 41.5964 58.1478Z" fill="#001600"/>
<path d="M33.799 45.3334V47.0863C33.799 47.0863 39.6017 48.3556 41.8381 46.7841V45.2729L33.799 45.3334Z" fill="#D8D9D9"/>
<path d="M42.1402 45.1521V40.8H33.3757V45.2125C33.3757 45.152 37.4255 46.8445 42.1402 45.1521Z" fill="#180400"/>
<path d="M42.1402 40.8002C42.1402 41.4046 40.1455 41.8881 37.7278 41.8881C35.31 41.8881 33.3153 41.4046 33.3153 40.8002C33.3153 40.1957 35.31 39.7122 37.7278 39.7122C40.206 39.7122 42.1402 40.1957 42.1402 40.8002Z" fill="#181716"/>
<path opacity="0.5" d="M35.9749 47.449V60.0215C35.9749 60.0215 36.3376 65.2801 33.0131 65.8846C33.0131 65.8846 37.0025 66.489 37.0025 60.0819V47.3281L35.9749 47.449Z" fill="#D8D9D9"/>
<path opacity="0.5" d="M35.3705 41.7068L35.7937 45.7566L37.0025 45.8775L37.3652 41.8881L35.3705 41.7068Z" fill="#D8D9D9"/>
<path opacity="0.2" d="M39.1182 58.9941V64.7968C39.1182 64.7968 39.4808 68.0003 42.6239 67.9399C42.6239 67.9399 40.8711 66.4288 40.8711 64.4341V58.3896L39.1182 58.9941Z" fill="white"/>
<g opacity="0.2">
<path opacity="0.2" d="M47.7617 116.235V76.1604V76.0999C47.4595 66.8519 42.3821 66.9728 42.2008 66.9124C42.2613 66.9124 45.4044 68.4235 45.7066 76.1604V117.142C45.7066 117.142 47.0968 116.658 47.7617 116.235Z" fill="white"/>
</g>
<path d="M40.9315 40.6189V33.0029H34.6453V40.6189C34.6453 40.6189 37.607 41.8883 40.9315 40.6189Z" fill="#412614"/>
<path d="M40.9316 33.0028C40.9316 33.4259 39.5413 33.7886 37.7884 33.7886C36.0355 33.7886 34.6453 33.4259 34.6453 33.0028C34.6453 32.5797 36.0355 32.217 37.7884 32.217C39.5413 32.217 40.9316 32.5797 40.9316 33.0028Z" fill="#200C00"/>
<path d="M39.3587 18.3752L38.0289 17.3476L39.4192 16.32C39.4796 16.32 39.4796 16.2596 39.5401 16.1992C39.7214 16.0178 39.661 15.7156 39.4192 15.5343L37.6058 14.144L37.0014 14.9903L38.3312 15.9574L37.0014 16.9849L36.9409 17.0454C36.8201 17.2267 36.8805 17.5289 37.0618 17.6498L38.4521 18.6169L37.1223 19.4632L37.0618 19.5236C36.9409 19.6445 36.9409 19.8863 37.1223 20.0072L38.6938 21.3974L37.1827 22.4249C37.1827 22.4249 37.1223 22.425 37.1223 22.4854C37.0014 22.6063 37.0014 22.7876 37.1223 22.848L38.7543 24.3592L37.1827 25.3867L37.1223 25.4472C37.0618 25.5076 37.0618 25.6285 37.1827 25.6889L38.8752 26.8374L37.2432 28.0463C37.2432 28.0463 37.2432 28.0463 37.2432 28.1067C37.1827 28.1672 37.2432 28.2276 37.3036 28.2881L38.9961 29.3156C38.9356 29.3156 38.9356 29.3761 38.8752 29.3761C38.8147 29.4365 38.6938 29.4969 38.6334 29.5574C38.5125 29.6783 38.3916 29.8596 38.3312 30.041L38.2103 30.2827L38.1498 30.5245C38.0894 30.5849 38.0894 30.7058 38.0894 30.8267C38.0894 30.9476 38.0289 31.0081 38.0289 31.129C37.9685 31.3103 37.9685 31.4916 37.9685 31.6729C37.9685 31.8543 37.9081 32.0356 37.9081 32.2169C37.8476 32.5796 37.8476 32.9423 37.8476 33.3654C37.8476 33.0027 37.9081 32.6401 37.9081 32.2774C37.9081 32.0961 37.9685 31.9147 37.9685 31.7334C37.9685 31.5521 38.0289 31.3707 38.0894 31.1894C38.0894 31.0685 38.1498 31.0081 38.1498 30.9476C38.1498 30.8872 38.2103 30.7663 38.2103 30.7058L38.3312 30.4641L38.4521 30.2223C38.5125 30.0409 38.6334 29.9201 38.7543 29.7992C38.8147 29.7387 38.8752 29.6783 38.9356 29.6178C38.9961 29.5574 39.1169 29.5574 39.1774 29.4969C39.1774 29.4969 39.2378 29.497 39.2378 29.4365C39.2378 29.3761 39.2378 29.3761 39.2378 29.3156L37.5454 28.2276L39.2378 27.0792C39.2378 27.0792 39.2378 27.0792 39.2983 27.0187C39.3587 26.9583 39.3587 26.8374 39.2378 26.8374L37.6663 25.6889L39.2983 24.7218C39.2983 24.7218 39.3587 24.7218 39.3587 24.6614C39.4192 24.6009 39.4192 24.4196 39.3587 24.3592L37.7872 22.848L39.3587 21.8205C39.3587 21.8205 39.4192 21.8205 39.4192 21.7601C39.5401 21.6392 39.5401 21.4578 39.4192 21.3369L37.9685 19.9467L39.4192 19.0401C39.4796 19.0401 39.4796 18.9796 39.5401 18.9192C39.6005 18.7983 39.5401 18.5565 39.3587 18.3752Z" fill="#C5C5C6"/>
<path d="M37.7882 33.3048C37.7882 33.3048 37.1837 30.9474 38.3322 28.8923L39.118 29.3759C39.118 29.3759 37.7882 30.1617 37.7882 33.3048Z" fill="#C5C5C6"/>
<path d="M38.8156 29.0738L37.4858 28.2275L39.1783 27.0791C39.1783 27.0791 39.1783 27.0791 39.2387 27.0187C39.2992 26.9582 39.2992 26.8373 39.1783 26.8373H39.1178L37.6672 25.8702C37.6067 25.8098 37.6067 25.8098 37.6067 25.7493C37.6067 25.6889 37.6067 25.6889 37.6067 25.6284L37.6672 25.568L39.2387 24.5404L37.6067 23.0293C37.4858 22.9084 37.4858 22.7875 37.6067 22.6666C37.6067 22.6666 37.6067 22.6666 37.6672 22.6062L39.1783 21.5787L37.6067 20.1884C37.4858 20.0675 37.4254 19.8258 37.5463 19.7049L37.6067 19.6444L38.9365 18.7982L37.5463 17.8311C37.3649 17.7102 37.3045 17.408 37.4254 17.2266C37.4254 17.1662 37.4858 17.1662 37.4858 17.1662L38.8156 16.1386L37.4858 15.1715L37.9089 14.6275L37.5463 14.3857L36.9418 15.232L38.2716 16.1991L36.9418 17.2266L36.8814 17.2871C36.7605 17.4684 36.8209 17.7706 37.0023 17.8915L38.3925 18.8586L37.0627 19.7049L37.0023 19.7653C36.8814 19.8862 36.8814 20.128 37.0627 20.2489L38.6343 21.6391L37.1232 22.6666C37.1232 22.6666 37.0627 22.6666 37.0627 22.7271C36.9418 22.848 36.9418 23.0293 37.0627 23.0898L38.6947 24.6009L37.1232 25.6284L37.0627 25.6889C37.0023 25.7493 37.0023 25.8702 37.1232 25.9306L38.8156 27.0791L37.1836 28.288C37.1836 28.288 37.1836 28.288 37.1836 28.3484C37.1232 28.4089 37.1836 28.4693 37.244 28.5298L38.332 29.1946C37.244 31.1893 37.788 33.5467 37.788 33.5467C37.788 33.6071 37.788 33.6071 37.788 33.6676C37.788 33.3049 37.8485 32.9422 37.8485 32.5795C37.8485 32.3982 37.9089 32.2169 37.9089 32.0355C37.9089 31.8542 37.9694 31.6729 38.0298 31.4915C38.0298 31.3707 38.0903 31.3102 38.0903 31.2498C38.1507 31.008 38.2716 30.8267 38.332 30.6453C38.4529 29.92 38.5738 29.4969 38.8156 29.0738Z" fill="#B0B1B2"/>
<path d="M39.6016 4.17065H36.5793V15.1111H39.6016V4.17065Z" fill="#D8D9D9"/>
<path d="M37.1838 4.17065H36.5793V15.1111H37.1838V4.17065Z" fill="#B0B1B2"/>
<path d="M38.8761 4.17065H37.7881V15.1111H38.8761V4.17065Z" fill="#ECECEC"/>
<path d="M48.7892 2.65868C48.7892 4.10934 48.1243 5.25779 47.3385 5.25779H29.1447C28.3589 5.25779 27.694 4.10934 27.694 2.65868C27.694 1.20801 28.3589 0.0595703 29.1447 0.0595703H47.3385C48.1243 0.0595703 48.7892 1.20801 48.7892 2.65868Z" fill="#412614"/>
<path d="M28.4799 3.14311C28.4799 1.69244 29.1448 0.543997 29.9305 0.543997H48.1243H48.1848C47.943 0.241774 47.6408 0 47.3386 0H29.1448C28.359 0 27.6941 1.14845 27.6941 2.59912C27.6941 3.98934 28.2985 5.13779 29.0239 5.19823C28.7216 4.77512 28.4799 3.98934 28.4799 3.14311Z" fill="#200C00"/>
<path d="M39.4804 2.78042C39.4804 3.44531 38.9968 3.98931 38.3319 3.98931C37.7275 3.98931 37.1835 3.44531 37.1835 2.78042C37.1835 2.11553 37.667 1.57153 38.3319 1.57153C38.9364 1.57153 39.4804 2.11553 39.4804 2.78042Z" fill="#C5C5C6"/>
<path d="M39.2991 2.78023C39.2991 3.32423 38.876 3.80779 38.2716 3.80779C37.7276 3.80779 37.244 3.32423 37.244 2.78023C37.244 2.23623 37.6671 1.75267 38.2716 1.75267C38.876 1.69223 39.2991 2.17579 39.2991 2.78023Z" fill="#D8D9D9"/>
<path d="M38.8156 2.78019C38.8156 3.02197 38.5738 3.26374 38.332 3.26374C38.0902 3.26374 37.8484 3.02197 37.8484 2.78019C37.8484 2.53841 38.0902 2.29663 38.332 2.29663C38.5738 2.29663 38.8156 2.47797 38.8156 2.78019Z" fill="#B0B1B2"/>
<path d="M38.6945 2.7804C38.6945 2.96173 38.5132 3.14306 38.3318 3.14306C38.1505 3.14306 37.9692 2.96173 37.9692 2.7804C37.9692 2.59906 38.1505 2.41772 38.3318 2.41772C38.5132 2.41772 38.6945 2.53862 38.6945 2.7804Z" fill="#F5F5F5"/>
<path d="M37.1236 32.5798C37.1236 32.5798 37.6676 32.7612 38.5138 32.5798V33.4261C38.5138 33.4261 37.9094 33.7887 37.1236 33.4865V32.5798Z" fill="#200C00"/>
<path d="M23.6445 116.356C23.6445 117.444 19.8365 118.35 15.1218 118.35C10.4071 118.35 6.59912 117.444 6.59912 116.356C6.59912 115.267 10.4071 114.361 15.1218 114.361C19.8365 114.361 23.6445 115.267 23.6445 116.356Z" fill="#ECECEC"/>
<path d="M22.2542 115.268C20.7431 115.812 18.0836 116.174 15.1218 116.174C12.16 116.174 9.50046 115.812 7.98934 115.268C7.08268 115.57 6.59912 115.932 6.59912 116.356C6.59912 117.444 10.4071 118.35 15.1218 118.35C19.8365 118.35 23.6445 117.444 23.6445 116.356C23.7049 115.932 23.1609 115.57 22.2542 115.268Z" fill="#C5C5C6"/>
<path d="M15.1218 114.361C10.4071 114.361 6.59912 115.267 6.59912 116.356C6.59912 117.444 10.4071 118.35 15.1218 118.35C19.8365 118.35 23.6445 117.444 23.6445 116.356C23.6445 115.267 19.8365 114.361 15.1218 114.361ZM15.1218 118.229C10.7093 118.229 7.14312 117.383 7.14312 116.356C7.14312 115.328 10.7093 114.482 15.1218 114.482C19.5342 114.482 23.1005 115.328 23.1005 116.356C23.1005 117.383 19.5342 118.229 15.1218 118.229Z" fill="#9B9B9B"/>
<path d="M15.1215 116.96C17.0243 116.96 18.5669 116.635 18.5669 116.235C18.5669 115.834 17.0243 115.509 15.1215 115.509C13.2187 115.509 11.6762 115.834 11.6762 116.235C11.6762 116.635 13.2187 116.96 15.1215 116.96Z" fill="#B0B1B2"/>
<path d="M14.0339 115.993C14.0339 115.993 14.8802 116.537 15.9682 115.993V97.6177H14.0339V115.993Z" fill="#C5C5C6"/>
<path d="M14.6384 97.6177H14.0339V115.993C14.0339 115.993 14.2757 116.114 14.6384 116.174V97.6177Z" fill="#D8D9D9"/>
<path d="M15.001 116.235C14.5175 116.235 14.0944 116.114 14.0339 115.872V115.933C14.0339 116.174 14.457 116.295 15.001 116.295C15.545 116.295 15.9682 116.114 15.9682 115.933V115.872C15.9077 116.114 15.545 116.235 15.001 116.235Z" fill="#9B9B9B"/>
<path d="M15.001 98.8268C15.001 98.8268 15.4845 112.608 14.2756 116.114C14.2756 116.114 14.457 116.295 15.2427 116.295C15.2427 116.295 15.7263 116.356 15.9681 115.993C15.9681 115.993 14.8801 107.773 15.3032 98.7664L15.001 98.8268Z" fill="#D8D9D9"/>
<path d="M24.8533 79.0613C24.5511 79.5448 20.2596 79.9075 15.0613 79.9075C9.86312 79.9075 5.632 79.5448 5.26933 79.0613C4.48356 80.9955 4 83.1715 4 85.5288C4 93.1449 15.0613 99.3706 15.0613 99.3706C15.0613 99.3706 26.1227 93.2053 26.1227 85.5288C26.1227 83.1715 25.6996 80.9955 24.8533 79.0613Z" fill="white"/>
<path d="M25.0349 79.4844C25.0349 79.847 25.0953 80.2097 25.0953 80.5724C25.0953 87.463 15.122 93.0844 15.122 93.0844C15.122 93.0844 5.14865 87.463 5.14865 80.5724C5.14865 80.2097 5.14865 79.847 5.20909 79.4844C4.48376 81.2977 4.12109 83.3528 4.12109 85.5288C4.12109 93.1448 15.1824 99.3706 15.1824 99.3706C15.1824 99.3706 26.2438 93.2053 26.2438 85.5288C26.1229 83.3528 25.7602 81.2977 25.0349 79.4844Z" fill="#D8D9D9"/>
<path d="M24.8534 79.0613C25.3369 80.6933 25.6996 82.5066 25.6996 84.3804C25.6996 91.6942 15.1218 97.6177 15.1218 97.6177C15.1218 97.6177 4.54404 91.6942 4.54404 84.3804C4.54404 82.5066 4.84626 80.7537 5.39027 79.1217L5.32982 79.0613C4.54404 80.9955 4.06049 83.1715 4.06049 85.5288C4.06049 93.1449 15.1218 99.3706 15.1218 99.3706C15.1218 99.3706 26.1832 93.2053 26.1832 85.5288C26.1227 83.1715 25.6996 80.9955 24.8534 79.0613Z" fill="#B0B1B2"/>
<path d="M25.4576 84.5014C25.4576 84.9849 20.8034 85.4081 15.0612 85.4081C9.31896 85.4081 4.66473 84.9849 4.66473 84.5014C4.66473 84.0178 9.31896 83.5947 15.0612 83.5947C20.8034 83.5947 25.4576 84.0178 25.4576 84.5014Z" fill="#B7002E"/>
<path d="M15.1219 85.4684C9.62141 85.4684 5.08807 85.0453 4.7254 84.5618C4.7254 84.864 4.7254 85.1662 4.7254 85.4684C4.7254 92.6613 15.1219 98.5244 15.1219 98.5244C15.1219 98.5244 25.5183 92.6613 25.5183 85.4684C25.5183 85.1662 25.5183 84.864 25.5183 84.5618C25.0952 85.0453 20.6223 85.4684 15.1219 85.4684Z" fill="#88011D"/>
<path d="M10.8907 85.3475C7.4454 85.2266 4.96718 84.8639 4.7254 84.5012C4.7254 84.8034 4.7254 85.1057 4.7254 85.4079C4.7254 92.6008 15.1219 98.4639 15.1219 98.4639C15.1219 98.4639 18.0836 96.7715 20.6223 94.3537C15.9681 94.8372 11.3743 89.9412 10.8907 85.3475Z" fill="#5F0C11"/>
<path d="M5.32971 79.0009C5.32971 79.0009 5.39016 79.0613 5.51104 79.0613C5.63193 79.1218 5.87371 79.1218 6.11549 79.1822C6.35727 79.2426 6.71993 79.3031 7.0826 79.3031C7.44527 79.3635 7.86838 79.3635 8.35194 79.424C8.83549 79.424 9.31905 79.4844 9.86305 79.4844C10.407 79.4844 10.951 79.5449 11.495 79.5449C12.0995 79.5449 12.6435 79.5449 13.2479 79.5449C13.8524 79.5449 14.4568 79.5449 15.0613 79.5449C16.2702 79.5449 17.5395 79.424 18.6879 79.424C19.8364 79.3635 20.9244 79.3635 21.8311 79.3031C22.3146 79.3031 22.7377 79.2427 23.1004 79.2427C23.2817 79.2427 23.4631 79.2426 23.6444 79.1822C23.8257 79.1822 23.9466 79.1822 24.0675 79.1218C24.3093 79.0613 24.5511 79.0613 24.672 79.0009C24.7928 78.9404 24.8533 78.9404 24.8533 78.9404L24.9137 79.0009C24.9137 79.0009 24.8533 79.0613 24.7324 79.1218C24.6115 79.1822 24.4302 79.2426 24.128 79.3635C23.8862 79.424 23.5235 79.5449 23.1608 79.6053C22.7982 79.6658 22.3751 79.7262 21.8915 79.8471C21.4079 79.9075 20.9244 79.968 20.3804 80.0284C19.8364 80.0889 19.2924 80.0889 18.6879 80.1493C17.5395 80.2098 16.2702 80.1493 15.0613 80.1493C14.4568 80.1493 13.8524 80.0889 13.2479 80.0889C12.6435 80.0889 12.039 80.0284 11.495 80.0284C10.8906 79.968 10.3466 79.968 9.8026 79.9075C9.2586 79.8471 8.77505 79.7866 8.29149 79.7262C7.80793 79.6658 7.38482 79.6053 7.02216 79.5449C6.65949 79.4844 6.35727 79.424 6.05504 79.3635C5.81327 79.3031 5.57149 79.2426 5.4506 79.1822C5.39015 79.1218 5.32971 79.0613 5.32971 79.0009Z" fill="#B0B1B2"/>
<path opacity="0.5" d="M25.3368 84.6223C25.3368 84.6223 24.7928 90.0019 20.6221 93.8099C20.6221 93.8099 24.0675 88.1281 22.375 85.1663C22.375 85.1663 24.6719 85.0454 25.3368 84.6223Z" fill="white"/>
<path d="M19.2925 85.4684C21.5894 85.4684 23.7654 85.408 25.5183 85.2871C25.5183 85.0453 25.5183 84.8035 25.5183 84.5618C25.2161 84.9849 21.7708 85.3475 17.2374 85.4684C17.9023 85.4684 18.5672 85.4684 19.2925 85.4684Z" fill="#5F0C11"/>
<path d="M8.89607 85.4684C8.89607 85.408 8.89607 85.3476 8.89607 85.2871C6.53874 85.1058 4.90674 84.864 4.7254 84.5618C4.7254 84.864 4.7254 85.1662 4.7254 85.4684C4.7254 92.6613 15.1219 98.5244 15.1219 98.5244C15.1219 98.5244 15.9681 98.0409 17.2374 97.1947C14.1547 95.0187 8.89607 90.5458 8.89607 85.4684Z" fill="#3A0000"/>
<path d="M24.6718 78.8197C24.6718 79.1823 20.3802 79.545 15.0611 79.545C9.742 79.545 5.45044 79.1823 5.45044 78.8197C5.45044 78.457 9.742 78.1548 15.0611 78.1548C20.3802 78.2152 24.6718 78.5175 24.6718 78.8197Z" fill="#ECECEC"/>
<path d="M5.45058 78.9404C6.05503 78.6382 10.1048 78.3964 15.0008 78.3964C19.8968 78.3964 23.9466 78.6382 24.551 78.9404C24.6115 78.9404 24.6115 78.88 24.6115 78.88C24.6115 78.5173 20.3199 78.2151 15.0008 78.2151C9.6817 78.2151 5.39014 78.5173 5.39014 78.88C5.39014 78.88 5.45058 78.88 5.45058 78.9404Z" fill="#D8D9D9"/>
<path opacity="0.5" d="M6.59904 79.4844L8.95638 79.7866C8.95638 79.7866 5.93415 85.3475 10.951 93.1448C10.951 93.1448 9.56082 93.2657 7.86838 91.5128C7.86838 91.5128 3.87904 87.463 6.59904 79.4844Z" fill="white"/>
<path d="M69.4006 115.691C69.4006 116.779 65.5926 117.685 60.8779 117.685C56.1632 117.685 52.3552 116.779 52.3552 115.691C52.3552 114.603 56.1632 113.696 60.8779 113.696C65.5321 113.696 69.4006 114.603 69.4006 115.691Z" fill="#ECECEC"/>
<path d="M68.0104 114.603C66.4992 115.147 63.8397 115.509 60.8779 115.509C57.9161 115.509 55.2566 115.147 53.7454 114.603C52.8388 114.905 52.3552 115.268 52.3552 115.691C52.3552 116.779 56.1632 117.685 60.8779 117.685C65.5926 117.685 69.4006 116.779 69.4006 115.691C69.4006 115.268 68.917 114.905 68.0104 114.603Z" fill="#C5C5C6"/>
<path d="M60.8175 113.696C56.1028 113.696 52.2948 114.603 52.2948 115.691C52.2948 116.779 56.1028 117.685 60.8175 117.685C65.5321 117.685 69.3402 116.779 69.3402 115.691C69.4006 114.603 65.5321 113.696 60.8175 113.696ZM60.8175 117.564C56.405 117.564 52.8388 116.718 52.8388 115.691C52.8388 114.663 56.405 113.817 60.8175 113.817C65.2299 113.817 68.7961 114.663 68.7961 115.691C68.7961 116.718 65.2299 117.564 60.8175 117.564Z" fill="#9B9B9B"/>
<path d="M64.2627 115.57C64.2627 115.993 62.7516 116.295 60.8174 116.295C58.9436 116.295 57.3721 115.993 57.3721 115.57C57.3721 115.147 58.8832 114.844 60.8174 114.844C62.7516 114.844 64.2627 115.147 64.2627 115.57Z" fill="#B0B1B2"/>
<path d="M59.7899 115.328C59.7899 115.328 60.6361 115.872 61.7241 115.328V96.9529H59.7899V115.328Z" fill="#C5C5C6"/>
<path d="M60.3944 96.9529H59.7899V115.328C59.7899 115.328 60.0317 115.449 60.3944 115.509V96.9529Z" fill="#D8D9D9"/>
<path d="M60.757 115.57C60.2735 115.57 59.8504 115.449 59.7899 115.207V115.268C59.7899 115.51 60.213 115.63 60.757 115.63C61.301 115.63 61.7241 115.449 61.7241 115.268V115.207C61.6637 115.389 61.2406 115.57 60.757 115.57Z" fill="#9B9B9B"/>
<path d="M60.6966 98.1014C60.6966 98.1014 61.1802 111.883 59.9713 115.389C59.9713 115.389 60.1526 115.57 60.9384 115.57C60.9384 115.57 61.422 115.63 61.6638 115.268C61.6638 115.268 60.5758 107.047 60.9989 98.041L60.6966 98.1014Z" fill="#D8D9D9"/>
<path d="M70.6095 78.3965C70.3073 78.88 66.0157 79.2427 60.8175 79.2427C55.6193 79.2427 51.3882 78.88 51.0255 78.3965C50.2397 80.3307 49.7562 82.5067 49.7562 84.864C49.7562 92.48 60.8175 98.7058 60.8175 98.7058C60.8175 98.7058 71.8788 92.5405 71.8788 84.864C71.8788 82.5067 71.3953 80.3307 70.6095 78.3965Z" fill="white"/>
<path d="M70.7911 78.8196C70.7911 79.1822 70.8515 79.5449 70.8515 79.9076C70.8515 86.7983 60.8782 92.4196 60.8782 92.4196C60.8782 92.4196 50.9048 86.7983 50.9048 79.9076C50.9048 79.5449 50.9048 79.1822 50.9653 78.8196C50.2399 80.6329 49.8773 82.688 49.8773 84.864C49.8773 92.48 60.9386 98.7058 60.9386 98.7058C60.9386 98.7058 71.9999 92.5405 71.9999 84.864C71.8791 82.688 71.4559 80.6329 70.7911 78.8196Z" fill="#D8D9D9"/>
<path d="M70.6097 78.3965C70.6097 78.3965 70.5492 78.3965 70.6097 78.3965C71.0932 80.0285 71.4559 81.8418 71.4559 83.7156C71.4559 91.0294 60.8781 96.9529 60.8781 96.9529C60.8781 96.9529 50.3003 91.0294 50.3003 83.7156C50.3003 81.8418 50.6025 80.0889 51.1465 78.4569L51.0861 78.3965C50.3003 80.3307 49.8168 82.5067 49.8168 84.864C49.8168 92.48 60.8781 98.7058 60.8781 98.7058C60.8781 98.7058 71.9395 92.5405 71.9395 84.864C71.879 82.5067 71.3955 80.3307 70.6097 78.3965Z" fill="#B0B1B2"/>
<path d="M71.2142 83.8366C71.2142 84.3202 66.5599 84.7433 60.8177 84.7433C55.0755 84.7433 50.4213 84.3202 50.4213 83.8366C50.4213 83.353 55.0755 82.9299 60.8177 82.9299C66.5599 82.9299 71.2142 83.353 71.2142 83.8366Z" fill="#B7002E"/>
<path d="M60.8177 84.8036C55.3173 84.8036 50.7839 84.3805 50.4213 83.897C50.4213 84.1992 50.4213 84.5014 50.4213 84.8036C50.4213 91.9965 60.8177 97.8597 60.8177 97.8597C60.8177 97.8597 71.2142 91.9965 71.2142 84.8036C71.2142 84.5014 71.2142 84.1992 71.2142 83.897C70.8515 84.3805 66.3182 84.8036 60.8177 84.8036Z" fill="#88011D"/>
<path d="M56.6469 84.6826C53.2016 84.5618 50.7233 84.1991 50.4816 83.8364C50.4816 84.1386 50.4816 84.4409 50.4816 84.7431C50.4816 91.936 60.878 97.7991 60.878 97.7991C60.878 97.7991 63.8398 96.1067 66.3785 93.6889C61.7242 94.1724 57.1305 89.2764 56.6469 84.6826Z" fill="#5F0C11"/>
<path d="M51.0861 78.3361C51.0861 78.3361 51.1465 78.3965 51.2674 78.3965C51.3883 78.457 51.6301 78.457 51.8718 78.5174C52.1136 78.5779 52.4763 78.6383 52.8389 78.6383C53.2016 78.6987 53.6247 78.6987 54.1083 78.7592C54.5918 78.7592 55.0754 78.8196 55.6194 78.8196C56.1634 78.8196 56.7074 78.8801 57.2514 78.8801C57.8558 78.8801 58.3998 78.8801 59.0043 78.8801C59.6087 78.8801 60.2132 78.8801 60.8176 78.8801C62.0265 78.8801 63.2958 78.7592 64.4443 78.7592C65.5927 78.6987 66.6807 78.6987 67.5874 78.6383C68.071 78.6383 68.4941 78.5779 68.8567 78.5779C69.0381 78.5779 69.2194 78.5779 69.4007 78.5174C69.5821 78.5174 69.703 78.5174 69.8239 78.457C70.0656 78.3965 70.3074 78.3965 70.4283 78.3361C70.5492 78.2756 70.6096 78.2756 70.6096 78.2756L70.6701 78.3361C70.6701 78.3361 70.6096 78.3965 70.4887 78.457C70.3678 78.5174 70.1865 78.5779 69.8843 78.6988C69.6425 78.7592 69.2799 78.8801 68.9172 78.9405C68.5545 79.001 68.1314 79.0614 67.6478 79.1823C67.1643 79.2427 66.6807 79.3032 66.1367 79.3636C65.5927 79.4241 65.0487 79.4241 64.4443 79.4845C63.2958 79.545 62.0265 79.4845 60.8176 79.4845C60.2132 79.4845 59.6087 79.4241 59.0043 79.4241C58.3998 79.4241 57.7954 79.3636 57.2514 79.3636C56.647 79.3032 56.1029 79.3032 55.5589 79.2428C55.0149 79.1823 54.5314 79.1219 54.0478 79.0614C53.5643 79.001 53.1412 78.9405 52.7785 78.8801C52.4158 78.8196 52.1136 78.7592 51.8114 78.6988C51.5696 78.6383 51.3278 78.5779 51.2069 78.5174C51.1465 78.457 51.0256 78.3965 51.0861 78.3361Z" fill="#B0B1B2"/>
<path opacity="0.5" d="M71.093 83.9575C71.093 83.9575 70.549 89.3371 66.3783 93.1451C66.3783 93.1451 69.8236 87.4633 68.1312 84.5015C68.1312 84.5015 70.3676 84.3806 71.093 83.9575Z" fill="white"/>
<path d="M65.0486 84.8036C67.3455 84.8036 69.5215 84.7432 71.2744 84.6223C71.2744 84.3805 71.2744 84.1388 71.2744 83.897C70.9721 84.3201 67.5268 84.6828 62.9935 84.8036C63.5979 84.7432 64.3232 84.8036 65.0486 84.8036Z" fill="#5F0C11"/>
<path d="M54.6522 84.8036C54.6522 84.7432 54.6522 84.6828 54.6522 84.6223C52.2949 84.441 50.6629 84.1992 50.4816 83.897C50.4816 84.1992 50.4816 84.5014 50.4816 84.8036C50.4816 91.9965 60.878 97.8597 60.878 97.8597C60.878 97.8597 61.7242 97.3761 62.9936 96.5299C59.9109 94.3539 54.6522 89.881 54.6522 84.8036Z" fill="#3A0000"/>
<path d="M70.4283 78.1546C70.4283 78.5173 66.1368 78.88 60.8176 78.88C55.4985 78.88 51.207 78.5173 51.207 78.1546C51.207 77.792 55.4985 77.4897 60.8176 77.4897C66.1368 77.5502 70.4283 77.792 70.4283 78.1546Z" fill="#ECECEC"/>
<path d="M51.2072 78.2756C51.8116 77.9734 55.8614 77.7316 60.7574 77.7316C65.6534 77.7316 69.7032 77.9734 70.3076 78.2756C70.3681 78.2756 70.3681 78.2152 70.3681 78.2152C70.3681 77.8525 66.0765 77.5503 60.7574 77.5503C55.4383 77.5503 51.1467 77.8525 51.1467 78.2152C51.1467 78.2152 51.1467 78.2152 51.2072 78.2756Z" fill="#D8D9D9"/>
<path opacity="0.5" d="M52.295 78.8196L54.6523 79.1218C54.6523 79.1218 51.6301 84.6827 56.647 92.48C56.647 92.48 55.2568 92.6009 53.5643 90.848C53.6248 90.848 49.6354 86.7983 52.295 78.8196Z" fill="white"/>
</g>
<defs>
<filter id="filter0_d" x="0" y="0" width="75.9999" height="126.35" filterUnits="userSpaceOnUse" color-interpolation-filters="sRGB">
<feFlood flood-opacity="0" result="BackgroundImageFix"/>
<feColorMatrix in="SourceAlpha" type="matrix" values="0 0 0 0 0 0 0 0 0 0 0 0 0 0 0 0 0 0 127 0"/>
<feOffset dy="4"/>
<feGaussianBlur stdDeviation="2"/>
<feColorMatrix type="matrix" values="0 0 0 0 0 0 0 0 0 0 0 0 0 0 0 0 0 0 0.25 0"/>
<feBlend mode="normal" in2="BackgroundImageFix" result="effect1_dropShadow"/>
<feBlend mode="normal" in="SourceGraphic" in2="effect1_dropShadow" result="shape"/>
</filter>
<linearGradient id="paint0_linear" x1="37.7584" y1="40.0144" x2="37.7584" y2="118.114" gradientUnits="userSpaceOnUse">
<stop stop-color="#B2DC59"/>
<stop offset="1" stop-color="#2A6110"/>
</linearGradient>
<linearGradient id="paint1_linear" x1="32.56" y1="40.075" x2="32.56" y2="118.174" gradientUnits="userSpaceOnUse">
<stop stop-color="#1DB954"/>
<stop offset="1" stop-color="#265B0D"/>
</linearGradient>
</defs>
</svg>
