<svg width="105" height="72" viewBox="0 0 105 72" fill="none" xmlns="http://www.w3.org/2000/svg">
<g filter="url(#filter0_d)">
<path d="M5.51868 47.7159C5.51868 47.7159 4.05212 49.1824 4.05212 54.8042C4.05212 60.426 2.39003 61.2571 17.8377 61.2571C33.2854 61.2571 31.4278 61.0615 31.4278 55.6353C31.4278 55.6353 38.1251 55.8308 49.1731 59.3994C60.2212 62.968 90.6277 62.2348 97.4716 52.6533C104.316 43.1207 97.4228 45.4183 97.4228 45.4183C97.4228 45.4183 17.0067 39.992 5.51868 47.7159Z" fill="#A67C52"/>
<path d="M9.72305 20.7801C9.72305 20.7801 5.56781 24.3487 5.56781 47.7158C5.56781 47.7158 28.9349 45.2227 47.3157 50.4045C65.6965 55.6352 89.8947 50.8444 97.423 45.4182C97.423 45.4182 98.8895 33.7346 88.2326 32.9036C77.5756 32.0725 60.0747 32.7081 53.3775 25.8152C46.6313 18.9224 46.8758 11.8341 46.8758 6.40784C46.8758 0.981592 40.1785 -2.78257 34.1656 2.64369L9.72305 20.7801Z" fill="url(#paint0_linear)"/>
<path d="M39.543 16.6249C39.543 18.9226 37.6854 20.7802 35.3878 20.7802H9.72305C7.42545 20.7802 5.56781 18.9226 5.56781 16.6249V6.79904C5.56781 4.50143 7.42545 2.6438 9.72305 2.6438H35.3878C37.6854 2.6438 39.543 4.50143 39.543 6.79904V16.6249Z" fill="#4E2B09"/>
<path d="M7.81615 62.3326C7.81615 62.7726 7.42507 63.1637 6.98511 63.1637H4.83416C4.39419 63.1637 4.00311 62.7726 4.00311 62.3326V58.3729C4.00311 57.933 4.39419 57.5419 4.83416 57.5419H6.98511C7.42507 57.5419 7.81615 57.933 7.81615 58.3729V62.3326Z" fill="#A67C52"/>
<path d="M13.7315 62.3326C13.7315 62.7726 13.3404 63.1637 12.9005 63.1637H10.7495C10.3095 63.1637 9.91846 62.7726 9.91846 62.3326V58.3729C9.91846 57.933 10.3095 57.5419 10.7495 57.5419H12.9005C13.3404 57.5419 13.7315 57.933 13.7315 58.3729V62.3326Z" fill="#A67C52"/>
<path d="M19.6956 62.3326C19.6956 62.7726 19.3045 63.1637 18.8646 63.1637H16.7136C16.2736 63.1637 15.8826 62.7726 15.8826 62.3326V58.3729C15.8826 57.933 16.2736 57.5419 16.7136 57.5419H18.8646C19.3045 57.5419 19.6956 57.933 19.6956 58.3729V62.3326Z" fill="#A67C52"/>
<path d="M25.6106 62.3326C25.6106 62.7726 25.2196 63.1637 24.7796 63.1637H22.6287C22.1887 63.1637 21.7976 62.7726 21.7976 62.3326V58.3729C21.7976 57.933 22.1887 57.5419 22.6287 57.5419H24.7796C25.2196 57.5419 25.6106 57.933 25.6106 58.3729V62.3326Z" fill="#A67C52"/>
<path d="M31.5256 62.3326C31.5256 62.7726 31.1345 63.1637 30.6946 63.1637H28.5436C28.1037 63.1637 27.7126 62.7726 27.7126 62.3326V58.3729C27.7126 57.933 28.1037 57.5419 28.5436 57.5419H30.6946C31.1345 57.5419 31.5256 57.933 31.5256 58.3729V62.3326Z" fill="#A67C52"/>
<path d="M52.4974 62.3326C52.4974 62.7726 52.1063 63.1637 51.6663 63.1637H49.5154C49.0754 63.1637 48.6843 62.7726 48.6843 62.3326V58.3729C48.6843 57.933 49.0754 57.5419 49.5154 57.5419H51.6663C52.1063 57.5419 52.4974 57.933 52.4974 58.3729V62.3326Z" fill="#A67C52"/>
<path d="M58.4612 62.3326C58.4612 62.7726 58.0701 63.1637 57.6301 63.1637H55.4792C55.0392 63.1637 54.6481 62.7726 54.6481 62.3326V58.3729C54.6481 57.933 55.0392 57.5419 55.4792 57.5419H57.6301C58.0701 57.5419 58.4612 57.933 58.4612 58.3729V62.3326Z" fill="#A67C52"/>
<path d="M64.3762 62.3326C64.3762 62.7726 63.9851 63.1637 63.5452 63.1637H61.3942C60.9543 63.1637 60.5632 62.7726 60.5632 62.3326V58.3729C60.5632 57.933 60.9543 57.5419 61.3942 57.5419H63.5452C63.9851 57.5419 64.3762 57.933 64.3762 58.3729V62.3326Z" fill="#A67C52"/>
<path d="M70.2912 62.3326C70.2912 62.7726 69.9002 63.1637 69.4602 63.1637H67.3093C66.8693 63.1637 66.4782 62.7726 66.4782 62.3326V58.3729C66.4782 57.933 66.8693 57.5419 67.3093 57.5419H69.4602C69.9002 57.5419 70.2912 57.933 70.2912 58.3729V62.3326Z" fill="#A67C52"/>
<path d="M76.2068 62.3326C76.2068 62.7726 75.8158 63.1637 75.3758 63.1637H73.2248C72.7849 63.1637 72.3938 62.7726 72.3938 62.3326V58.3729C72.3938 57.933 72.7849 57.5419 73.2248 57.5419H75.3758C75.8158 57.5419 76.2068 57.933 76.2068 58.3729V62.3326Z" fill="#A67C52"/>
<path d="M76.2068 62.3326C76.2068 62.7726 75.8158 63.1637 75.3758 63.1637H73.2248C72.7849 63.1637 72.3938 62.7726 72.3938 62.3326V58.3729C72.3938 57.933 72.7849 57.5419 73.2248 57.5419H75.3758C75.8158 57.5419 76.2068 57.933 76.2068 58.3729V62.3326Z" fill="#A67C52"/>
<path d="M82.1218 62.3326C82.1218 62.7726 81.7307 63.1637 81.2908 63.1637H79.1398C78.6999 63.1637 78.3088 62.7726 78.3088 62.3326V58.3729C78.3088 57.933 78.6999 57.5419 79.1398 57.5419H81.2908C81.7307 57.5419 82.1218 57.933 82.1218 58.3729V62.3326Z" fill="#A67C52"/>
<path d="M88.0369 61.208C88.0369 61.6479 87.6458 62.039 87.2058 62.039H85.0549C84.6149 62.039 84.2238 61.6479 84.2238 61.208V57.2483C84.2238 56.8083 84.6149 56.4172 85.0549 56.4172H87.2058C87.6458 56.4172 88.0369 56.8083 88.0369 57.2483V61.208Z" fill="#A67C52"/>
<path d="M94.0007 59.4972C94.0007 59.9371 93.6096 60.3282 93.1696 60.3282H91.0187C90.5787 60.3282 90.1876 59.9371 90.1876 59.4972V55.5375C90.1876 55.0975 90.5787 54.7064 91.0187 54.7064H93.1696C93.6096 54.7064 94.0007 55.0975 94.0007 55.5375V59.4972Z" fill="#A67C52"/>
<path d="M98.0095 55.5863C98.0095 56.0262 97.6184 56.4173 97.1785 56.4173H95.0275C94.5876 56.4173 94.1965 56.0262 94.1965 55.5863V51.6266C94.1965 51.1866 94.5876 50.7955 95.0275 50.7955H97.1785C97.6184 50.7955 98.0095 51.1866 98.0095 51.6266V55.5863Z" fill="#A67C52"/>
<path d="M47.6574 9.19443H42.1822C41.2534 9.19443 40.5201 8.46115 40.5201 7.53233C40.5201 6.60352 41.2534 5.87024 42.1822 5.87024H47.6574C48.5862 5.87024 49.3195 6.60352 49.3195 7.53233C49.3195 8.46115 48.5373 9.19443 47.6574 9.19443Z" fill="#333333"/>
<path d="M80.2152 38.5252C80.0196 38.5252 79.8241 38.4763 79.6285 38.4274C78.7486 38.0852 78.3575 37.1075 78.6997 36.2764L80.704 31.1924C81.0462 30.3125 82.0239 29.9214 82.855 30.2636C83.7349 30.6058 84.126 31.5835 83.7838 32.4145L81.7795 37.4986C81.5351 38.1341 80.8996 38.5252 80.2152 38.5252Z" fill="#333333"/>
<path d="M51.9596 33.1969C51.7641 33.148 51.5685 33.0992 51.373 32.9525C50.5908 32.4636 50.3953 31.4371 50.8841 30.6549L53.8661 26.0597C54.355 25.2775 55.3816 25.082 56.1637 25.5708C56.9459 26.0597 57.1414 27.0863 56.6526 27.8684L53.6706 32.4636C53.2795 33.0503 52.5951 33.2947 51.9596 33.1969Z" fill="#333333"/>
<path d="M45.849 26.7441C45.6535 26.6464 45.5068 26.4997 45.3602 26.353C44.7736 25.6686 44.8224 24.5932 45.5557 24.0066L49.711 20.4379C50.3954 19.8513 51.4708 19.9002 52.0574 20.6335C52.6441 21.3179 52.5952 22.3933 51.8619 22.98L47.7067 26.5486C47.1689 26.9885 46.4357 27.0374 45.849 26.7441Z" fill="#333333"/>
<path d="M41.6938 17.7493C41.5471 17.6026 41.4493 17.4071 41.4005 17.2115C41.1071 16.3316 41.596 15.4028 42.4759 15.1095L47.6578 13.3985C48.5377 13.1052 49.4665 13.594 49.7598 14.474C50.0531 15.3539 49.5643 16.2827 48.6843 16.576L43.5025 18.2381C42.8181 18.4826 42.0848 18.2381 41.6938 17.7493Z" fill="#333333"/>
<path d="M62.3719 37.2544C62.1764 37.2544 61.9808 37.2544 61.7364 37.2055C60.8565 36.9611 60.3187 36.0323 60.6121 35.1524L62.1275 29.8728C62.3719 28.9928 63.3007 28.4551 64.1807 28.7484C65.0606 28.9928 65.5983 29.9217 65.305 30.8016L63.7896 36.0812C63.6429 36.7167 63.0563 37.1567 62.3719 37.2544Z" fill="#333333"/>
<path d="M72.1001 37.841C71.9046 37.841 71.7091 37.841 71.4646 37.7921C70.5847 37.5477 70.047 36.6188 70.3403 35.7389L71.8557 30.4593C72.1001 29.5794 73.029 29.0416 73.9089 29.335C74.7888 29.5794 75.3266 30.5082 75.0332 31.3881L73.5178 36.6677C73.3711 37.3032 72.7845 37.7921 72.1001 37.841Z" fill="#333333"/>
<g opacity="0.3">
<path opacity="0.3" d="M9.13603 18.3357C8.20722 18.3357 7.47394 17.6024 7.47394 16.6736V6.06554C7.47394 5.13672 8.20722 4.40344 9.13603 4.40344H19.3041C20.233 4.40344 20.9662 5.13672 20.9662 6.06554C20.9662 6.99435 20.233 7.72763 19.3041 7.72763H10.7981V16.6247C10.7981 17.5535 10.0649 18.3357 9.13603 18.3357Z" fill="#F2F2F2"/>
</g>
<g opacity="0.3">
<path opacity="0.3" d="M9.96723 45.9561C9.08729 45.9561 8.35402 45.2717 8.30513 44.3918C7.32743 28.0641 11.4827 23.8111 11.9715 23.3712C12.6559 22.7357 13.7314 22.8334 14.318 23.5178C14.9046 24.2022 14.8557 25.2288 14.2202 25.8643C14.0736 26.011 10.7494 29.824 11.6293 44.2451C11.6782 45.174 10.9938 45.9561 10.065 46.005C10.0161 45.9561 9.96723 45.9561 9.96723 45.9561Z" fill="#F2F2F2"/>
</g>
</g>
<defs>
<filter id="filter0_d" x="0" y="0" width="104.501" height="71.1637" filterUnits="userSpaceOnUse" color-interpolation-filters="sRGB">
<feFlood flood-opacity="0" result="BackgroundImageFix"/>
<feColorMatrix in="SourceAlpha" type="matrix" values="0 0 0 0 0 0 0 0 0 0 0 0 0 0 0 0 0 0 127 0"/>
<feOffset dy="4"/>
<feGaussianBlur stdDeviation="2"/>
<feColorMatrix type="matrix" values="0 0 0 0 0 0 0 0 0 0 0 0 0 0 0 0 0 0 0.25 0"/>
<feBlend mode="normal" in2="BackgroundImageFix" result="effect1_dropShadow"/>
<feBlend mode="normal" in="SourceGraphic" in2="effect1_dropShadow" result="shape"/>
</filter>
<linearGradient id="paint0_linear" x1="51.5296" y1="0" x2="51.5296" y2="52.6602" gradientUnits="userSpaceOnUse">
<stop stop-color="#FF8701"/>
<stop offset="1" stop-color="#6A3800"/>
</linearGradient>
</defs>
</svg>
