<svg width="271" height="271" viewBox="0 0 271 271" fill="none" xmlns="http://www.w3.org/2000/svg">
<path d="M79.7854 36.6367C83.926 36.6367 87.217 37.7988 89.6584 40.123C92.1194 42.4473 93.3499 45.6309 93.3499 49.6738C93.3499 54.459 91.8752 58.1406 88.926 60.7188C85.9768 63.2969 81.7581 64.5859 76.2698 64.5859C71.5042 64.5859 67.6565 63.8145 64.7268 62.2715V54.4492C66.2698 55.2695 68.0667 55.9434 70.1174 56.4707C72.1682 56.9785 74.1116 57.2324 75.9475 57.2324C81.4749 57.2324 84.2385 54.9668 84.2385 50.4355C84.2385 46.1191 81.3772 43.9609 75.6545 43.9609C74.6194 43.9609 73.4768 44.0684 72.2268 44.2832C70.9768 44.4785 69.9612 44.6934 69.1799 44.9277L65.5764 42.9941L67.1877 21.168H90.4202V28.8438H75.1272L74.3362 37.252L75.3616 37.0469C76.553 36.7734 78.0276 36.6367 79.7854 36.6367ZM128.184 42.584C128.184 50.0645 126.953 55.6016 124.492 59.1953C122.051 62.7891 118.281 64.5859 113.184 64.5859C108.242 64.5859 104.512 62.7305 101.992 59.0195C99.4924 55.3086 98.2424 49.8301 98.2424 42.584C98.2424 35.0254 99.4631 29.459 101.905 25.8848C104.346 22.291 108.106 20.4941 113.184 20.4941C118.125 20.4941 121.856 22.3691 124.375 26.1191C126.914 29.8691 128.184 35.3574 128.184 42.584ZM107.237 42.584C107.237 47.8379 107.686 51.6074 108.584 53.8926C109.502 56.1582 111.035 57.291 113.184 57.291C115.293 57.291 116.817 56.1387 117.754 53.834C118.692 51.5293 119.16 47.7793 119.16 42.584C119.16 37.3301 118.682 33.5605 117.725 31.2754C116.787 28.9707 115.274 27.8184 113.184 27.8184C111.055 27.8184 109.531 28.9707 108.614 31.2754C107.696 33.5605 107.237 37.3301 107.237 42.584ZM170.196 64H159.883L148.662 45.9531L144.824 48.707V64H135.742V21.168H144.824V40.7676L148.399 35.7285L160 21.168H170.078L155.137 40.123L170.196 64Z" fill="url(#paint0_linear)"/>
<path d="M182.996 179H45.9963V102H182.996V179Z" fill="#380000"/>
<path d="M131.996 102H182.996V179H131.996V102Z" fill="#380000"/>
<path d="M183.22 185.696C158.512 185.696 138.411 165.595 138.411 140.887C138.411 116.179 158.512 96.0781 183.22 96.0781C186.755 96.0781 189.621 98.9442 189.621 102.479V179.295C189.621 182.83 186.755 185.696 183.22 185.696Z" fill="#4F2424"/>
<path d="M45.8053 185.696C21.0977 185.696 0.996338 165.595 0.996338 140.887C0.996338 116.179 21.0977 96.0781 45.8053 96.0781C49.3405 96.0781 52.2066 98.9442 52.2066 102.479V179.295C52.2066 182.83 49.3405 185.696 45.8053 185.696Z" fill="url(#paint1_linear)"/>
<path d="M183.22 185.696H45.8053C42.2701 185.696 39.4041 182.83 39.4041 179.295V102.479C39.4041 98.9442 42.2701 96.0781 45.8053 96.0781H183.22C186.755 96.0781 189.621 98.9442 189.621 102.479V179.295C189.621 182.83 186.755 185.696 183.22 185.696ZM52.2066 172.894H176.818V108.881H52.2066V172.894Z" fill="url(#paint2_linear)"/>
<path d="M183.552 96H131.996V108.857H177.107V173.143H131.996V186H183.552C187.111 186 189.996 183.122 189.996 179.571V102.429C189.996 98.8783 187.111 96 183.552 96Z" fill="url(#paint3_linear)"/>
<path d="M195.633 186H68.36C66.2002 186 64.1876 184.881 63.0154 183.028C61.8428 181.175 61.671 178.841 62.5581 176.829C68.1054 164.255 77.5308 153.555 89.8156 145.885C102.268 138.11 116.854 134 131.996 134C147.138 134 161.724 138.11 174.177 145.885C186.462 153.555 195.887 164.255 201.435 176.829C202.322 178.841 202.15 181.175 200.977 183.028C199.805 184.881 197.793 186 195.633 186Z" fill="url(#paint4_linear)"/>
<path d="M201.435 176.829C195.887 164.255 186.462 153.555 174.177 145.885C161.724 138.11 147.138 134 131.996 134V186H195.633C197.793 186 199.805 184.881 200.977 183.028C202.15 181.175 202.322 178.841 201.435 176.829Z" fill="url(#paint5_linear)"/>
<path d="M102.515 271H45.4778C41.8983 271 38.9963 268.138 38.9963 264.609V179.391C38.9963 175.862 41.8983 173 45.4778 173H102.515C106.094 173 108.996 175.862 108.996 179.391V264.609C108.996 268.138 106.094 271 102.515 271Z" fill="url(#paint6_linear)"/>
<path d="M101.996 173H212.615C216.139 173 218.996 175.862 218.996 179.391V264.609C218.996 268.138 216.139 271 212.615 271H101.996V173Z" fill="url(#paint7_linear)"/>
<path d="M212.63 173H131.996V271H212.63C216.146 271 218.996 268.138 218.996 264.609V179.391C218.996 175.862 216.146 173 212.63 173Z" fill="url(#paint8_linear)"/>
<path d="M157.835 210.997C146.926 211.179 137.996 202.295 137.996 191.663V173H176.996V192C176.996 202.367 168.432 210.82 157.835 210.997Z" fill="url(#paint9_linear)"/>
<path d="M150.996 173V191.75C150.996 195.196 153.912 198 157.496 198C161.08 198 163.996 195.196 163.996 191.75V173H150.996Z" fill="#FFD34F"/>
<path d="M227.636 210.216C240.377 210.216 250.707 199.886 250.707 187.145C250.707 174.403 240.377 164.074 227.636 164.074C214.894 164.074 204.565 174.403 204.565 187.145C204.565 199.886 214.894 210.216 227.636 210.216Z" fill="#341212"/>
<path d="M222.275 204.818C235.017 204.818 245.346 194.489 245.346 181.747C245.346 169.005 235.017 158.676 222.275 158.676C209.534 158.676 199.204 169.005 199.204 181.747C199.204 194.489 209.534 204.818 222.275 204.818Z" fill="url(#paint10_linear)"/>
<path d="M226.97 181.119L227.081 181.23C227.451 181.599 227.377 182.265 226.933 182.561L223.532 184.594C223.458 184.631 223.347 184.705 223.31 184.816L218.984 190.473C218.651 190.917 218.836 191.582 219.354 191.767C220.315 192.137 221.239 192.322 222.164 192.322C223.975 192.322 225.713 191.619 227.377 190.177C228.671 189.068 229.706 187.737 230.483 186.147C230.667 185.777 231.074 185.593 231.444 185.703L233.145 186.147C233.551 186.258 233.81 186.628 233.773 187.034L233.181 195.279C233.145 195.723 232.775 196.056 232.331 196.056L211.479 196.093C211.146 196.093 210.85 195.908 210.739 195.612L208.89 191.915C208.743 191.619 208.78 191.249 209.001 191.028L214.695 183.966C214.954 183.633 214.954 183.152 214.658 182.857C214.289 182.45 214.362 181.821 214.843 181.526L218.023 179.751C218.134 179.714 218.208 179.64 218.282 179.529L223.31 173.318C223.717 172.837 223.458 172.097 222.829 171.95C222.312 171.839 221.794 171.802 221.313 171.802C219.65 171.802 218.134 172.393 216.729 173.65C215.656 174.575 214.843 175.721 214.215 177.089C214.03 177.495 213.586 177.68 213.179 177.532L212.033 177.126C211.7 177.015 211.479 176.682 211.479 176.349L211.331 168.807C211.331 168.326 211.7 167.957 212.181 167.957L233.847 168.104C234.513 168.104 234.919 168.881 234.513 169.435L226.933 180.084C226.637 180.342 226.674 180.823 226.97 181.119Z" fill="#2E5A56"/>
<path d="M247.925 147.788C260.666 147.788 270.996 137.459 270.996 124.717C270.996 111.975 260.666 101.646 247.925 101.646C235.183 101.646 224.854 111.975 224.854 124.717C224.854 137.459 235.183 147.788 247.925 147.788Z" fill="#341212"/>
<path d="M242.564 142.39C255.306 142.39 265.635 132.061 265.635 119.319C265.635 106.578 255.306 96.2485 242.564 96.2485C229.823 96.2485 219.493 106.578 219.493 119.319C219.493 132.061 229.823 142.39 242.564 142.39Z" fill="url(#paint11_linear)"/>
<path d="M247.259 118.691L247.37 118.802C247.74 119.172 247.666 119.837 247.222 120.133L243.821 122.167C243.747 122.203 243.636 122.277 243.599 122.388L239.273 128.045C238.94 128.489 239.125 129.154 239.643 129.339C240.604 129.709 241.528 129.894 242.453 129.894C244.264 129.894 246.002 129.191 247.666 127.749C248.96 126.64 249.995 125.309 250.772 123.719C250.956 123.35 251.363 123.165 251.733 123.276L253.434 123.719C253.84 123.83 254.099 124.2 254.062 124.607L253.471 132.852C253.434 133.295 253.064 133.628 252.62 133.628L231.768 133.665C231.435 133.665 231.139 133.48 231.028 133.184L229.18 129.487C229.032 129.191 229.069 128.822 229.29 128.6L234.984 121.538C235.243 121.205 235.243 120.725 234.947 120.429C234.578 120.022 234.651 119.394 235.132 119.098L238.312 117.323C238.423 117.286 238.497 117.212 238.571 117.101L243.599 110.89C244.006 110.409 243.747 109.67 243.118 109.522C242.601 109.411 242.083 109.374 241.602 109.374C239.939 109.374 238.423 109.966 237.018 111.223C235.946 112.147 235.132 113.293 234.504 114.661C234.319 115.068 233.875 115.253 233.468 115.105L232.322 114.698C231.989 114.587 231.768 114.254 231.768 113.922L231.62 106.379C231.62 105.899 231.989 105.529 232.47 105.529L254.136 105.677C254.802 105.677 255.208 106.453 254.802 107.008L247.222 117.656C246.926 117.915 246.963 118.395 247.259 118.691Z" fill="#2E5A56"/>
<path d="M35.0602 44.6763H18.9963" stroke="url(#paint12_linear)" stroke-width="3" stroke-miterlimit="10"/>
<path d="M42.0274 23.5804L29.8344 17" stroke="url(#paint13_linear)" stroke-width="3" stroke-miterlimit="10"/>
<path d="M40.8661 64.6108L29.2537 75.4491" stroke="url(#paint14_linear)" stroke-width="3" stroke-miterlimit="10"/>
<path d="M197.158 42.6763H213.222" stroke="url(#paint15_linear)" stroke-width="3" stroke-miterlimit="10"/>
<path d="M189.996 21.3868L202.189 15" stroke="url(#paint16_linear)" stroke-width="3" stroke-miterlimit="10"/>
<path d="M191.351 62.4175L202.964 73.4493" stroke="url(#paint17_linear)" stroke-width="3" stroke-miterlimit="10"/>
<defs>
<linearGradient id="paint0_linear" x1="115.996" y1="0" x2="115.996" y2="106" gradientUnits="userSpaceOnUse">
<stop stop-color="#FFC700"/>
<stop offset="1" stop-color="#FC9517"/>
</linearGradient>
<linearGradient id="paint1_linear" x1="26.6015" y1="96.0781" x2="26.6015" y2="185.696" gradientUnits="userSpaceOnUse">
<stop stop-color="#8F5A2D"/>
<stop offset="1" stop-color="#351B06"/>
</linearGradient>
<linearGradient id="paint2_linear" x1="114.512" y1="96.0781" x2="114.512" y2="185.696" gradientUnits="userSpaceOnUse">
<stop stop-color="#73431B"/>
<stop offset="1" stop-color="#351B06"/>
</linearGradient>
<linearGradient id="paint3_linear" x1="160.996" y1="96" x2="160.996" y2="186" gradientUnits="userSpaceOnUse">
<stop stop-color="#6C4220"/>
<stop offset="1" stop-color="#351B06"/>
</linearGradient>
<linearGradient id="paint4_linear" x1="131.996" y1="134" x2="131.996" y2="186" gradientUnits="userSpaceOnUse">
<stop stop-color="#FFC700"/>
<stop offset="1" stop-color="#FC9517"/>
</linearGradient>
<linearGradient id="paint5_linear" x1="166.996" y1="134" x2="166.996" y2="186" gradientUnits="userSpaceOnUse">
<stop stop-color="#FFC700"/>
<stop offset="1" stop-color="#FC9517"/>
</linearGradient>
<linearGradient id="paint6_linear" x1="73.9963" y1="173" x2="73.9963" y2="271" gradientUnits="userSpaceOnUse">
<stop stop-color="#8F5A2D"/>
<stop offset="1" stop-color="#351B06"/>
</linearGradient>
<linearGradient id="paint7_linear" x1="160.496" y1="173" x2="160.496" y2="271" gradientUnits="userSpaceOnUse">
<stop stop-color="#8F5A2D"/>
<stop offset="1" stop-color="#351B06"/>
</linearGradient>
<linearGradient id="paint8_linear" x1="175.496" y1="173" x2="175.496" y2="271" gradientUnits="userSpaceOnUse">
<stop stop-color="#8F5A2D"/>
<stop offset="1" stop-color="#351B06"/>
</linearGradient>
<linearGradient id="paint9_linear" x1="157.496" y1="173" x2="157.496" y2="211" gradientUnits="userSpaceOnUse">
<stop stop-color="#FFC700"/>
<stop offset="1" stop-color="#FC9517"/>
</linearGradient>
<linearGradient id="paint10_linear" x1="222.275" y1="158.676" x2="222.275" y2="204.818" gradientUnits="userSpaceOnUse">
<stop stop-color="#FFC700"/>
<stop offset="1" stop-color="#FC9517"/>
</linearGradient>
<linearGradient id="paint11_linear" x1="242.564" y1="96.2485" x2="242.564" y2="142.39" gradientUnits="userSpaceOnUse">
<stop stop-color="#FFC700"/>
<stop offset="1" stop-color="#FC9517"/>
</linearGradient>
<linearGradient id="paint12_linear" x1="27.0283" y1="44.6763" x2="27.0283" y2="45.6763" gradientUnits="userSpaceOnUse">
<stop stop-color="#FFC700"/>
<stop offset="1" stop-color="#FC9517"/>
</linearGradient>
<linearGradient id="paint13_linear" x1="35.9309" y1="17" x2="35.9309" y2="23.5804" gradientUnits="userSpaceOnUse">
<stop stop-color="#FFC700"/>
<stop offset="1" stop-color="#FC9517"/>
</linearGradient>
<linearGradient id="paint14_linear" x1="35.0599" y1="64.6108" x2="35.0599" y2="75.4491" gradientUnits="userSpaceOnUse">
<stop stop-color="#FFC700"/>
<stop offset="1" stop-color="#FC9517"/>
</linearGradient>
<linearGradient id="paint15_linear" x1="205.19" y1="42.6763" x2="205.19" y2="43.6763" gradientUnits="userSpaceOnUse">
<stop stop-color="#FFC700"/>
<stop offset="1" stop-color="#FC9517"/>
</linearGradient>
<linearGradient id="paint16_linear" x1="196.093" y1="15" x2="196.093" y2="21.3868" gradientUnits="userSpaceOnUse">
<stop stop-color="#FFC700"/>
<stop offset="1" stop-color="#FC9517"/>
</linearGradient>
<linearGradient id="paint17_linear" x1="197.158" y1="62.4175" x2="197.158" y2="73.4493" gradientUnits="userSpaceOnUse">
<stop stop-color="#FFC700"/>
<stop offset="1" stop-color="#FC9517"/>
</linearGradient>
</defs>
</svg>
