<svg width="271" height="271" viewBox="0 0 271 271" fill="none" xmlns="http://www.w3.org/2000/svg">
<path d="M94.9263 36.6367C99.0669 36.6367 102.358 37.7988 104.799 40.123C107.26 42.4473 108.491 45.6309 108.491 49.6738C108.491 54.459 107.016 58.1406 104.067 60.7188C101.118 63.2969 96.8989 64.5859 91.4106 64.5859C86.645 64.5859 82.7974 63.8145 79.8677 62.2715V54.4492C81.4106 55.2695 83.2075 55.9434 85.2583 56.4707C87.3091 56.9785 89.2524 57.2324 91.0884 57.2324C96.6157 57.2324 99.3794 54.9668 99.3794 50.4355C99.3794 46.1191 96.5181 43.9609 90.7954 43.9609C89.7603 43.9609 88.6177 44.0684 87.3677 44.2832C86.1177 44.4785 85.1021 44.6934 84.3208 44.9277L80.7173 42.9941L82.3286 21.168H105.561V28.8438H90.2681L89.4771 37.252L90.5024 37.0469C91.6938 36.7734 93.1685 36.6367 94.9263 36.6367ZM151.059 64H140.747L129.526 45.9531L125.688 48.707V64H116.606V21.168H125.688V40.7676L129.262 35.7285L140.864 21.168H150.942L136 40.123L151.059 64Z" fill="url(#paint0_linear)"/>
<path d="M182.999 179H45.9985V102H182.999V179Z" fill="#380000"/>
<path d="M131.999 102H182.999V179H131.999V102Z" fill="#380000"/>
<path d="M183.222 185.696C158.514 185.696 138.413 165.595 138.413 140.887C138.413 116.179 158.514 96.0781 183.222 96.0781C186.757 96.0781 189.623 98.9442 189.623 102.479V179.295C189.623 182.83 186.757 185.696 183.222 185.696Z" fill="#4F2424"/>
<path d="M45.8075 185.696C21.0998 185.696 0.998535 165.595 0.998535 140.887C0.998535 116.179 21.0998 96.0781 45.8075 96.0781C49.3427 96.0781 52.2088 98.9442 52.2088 102.479V179.295C52.2088 182.83 49.3427 185.696 45.8075 185.696Z" fill="url(#paint1_linear)"/>
<path d="M183.222 185.696H45.8075C42.2723 185.696 39.4062 182.83 39.4062 179.295V102.479C39.4062 98.9442 42.2723 96.0781 45.8075 96.0781H183.222C186.757 96.0781 189.623 98.9442 189.623 102.479V179.295C189.623 182.83 186.757 185.696 183.222 185.696ZM52.2088 172.894H176.82V108.881H52.2088V172.894Z" fill="url(#paint2_linear)"/>
<path d="M183.554 96H131.999V108.857H177.11V173.143H131.999V186H183.554C187.113 186 189.999 183.122 189.999 179.571V102.429C189.999 98.8783 187.113 96 183.554 96Z" fill="url(#paint3_linear)"/>
<path d="M195.635 186H68.3622C66.2024 186 64.1898 184.881 63.0176 183.028C61.845 181.175 61.6732 178.841 62.5602 176.829C68.1076 164.255 77.533 153.555 89.8178 145.885C102.271 138.11 116.856 134 131.999 134C147.141 134 161.726 138.11 174.179 145.885C186.464 153.555 195.889 164.255 201.437 176.829C202.324 178.841 202.152 181.175 200.979 183.028C199.807 184.881 197.795 186 195.635 186Z" fill="url(#paint4_linear)"/>
<path d="M201.437 176.829C195.889 164.255 186.464 153.555 174.179 145.885C161.726 138.11 147.141 134 131.999 134V186H195.635C197.795 186 199.807 184.881 200.979 183.028C202.152 181.175 202.324 178.841 201.437 176.829Z" fill="url(#paint5_linear)"/>
<path d="M102.517 271H45.48C41.9005 271 38.9985 268.138 38.9985 264.609V179.391C38.9985 175.862 41.9005 173 45.48 173H102.517C106.097 173 108.999 175.862 108.999 179.391V264.609C108.999 268.138 106.097 271 102.517 271Z" fill="url(#paint6_linear)"/>
<path d="M101.999 173H212.617C216.141 173 218.999 175.862 218.999 179.391V264.609C218.999 268.138 216.141 271 212.617 271H101.999V173Z" fill="url(#paint7_linear)"/>
<path d="M212.633 173H131.999V271H212.633C216.148 271 218.999 268.138 218.999 264.609V179.391C218.999 175.862 216.148 173 212.633 173Z" fill="url(#paint8_linear)"/>
<path d="M157.837 210.997C146.928 211.179 137.999 202.295 137.999 191.663V173H176.999V192C176.999 202.367 168.434 210.82 157.837 210.997Z" fill="url(#paint9_linear)"/>
<path d="M150.999 173V191.75C150.999 195.196 153.914 198 157.499 198C161.083 198 163.999 195.196 163.999 191.75V173H150.999Z" fill="#FFD34F"/>
<path d="M227.638 210.216C240.38 210.216 250.709 199.886 250.709 187.145C250.709 174.403 240.38 164.074 227.638 164.074C214.896 164.074 204.567 174.403 204.567 187.145C204.567 199.886 214.896 210.216 227.638 210.216Z" fill="#341212"/>
<path d="M222.277 204.818C235.019 204.818 245.348 194.489 245.348 181.747C245.348 169.005 235.019 158.676 222.277 158.676C209.536 158.676 199.207 169.005 199.207 181.747C199.207 194.489 209.536 204.818 222.277 204.818Z" fill="url(#paint10_linear)"/>
<path d="M226.972 181.119L227.083 181.23C227.453 181.599 227.379 182.265 226.935 182.561L223.534 184.594C223.46 184.631 223.349 184.705 223.312 184.816L218.986 190.473C218.653 190.917 218.838 191.582 219.356 191.767C220.317 192.137 221.242 192.322 222.166 192.322C223.978 192.322 225.715 191.619 227.379 190.177C228.673 189.068 229.708 187.737 230.485 186.147C230.67 185.777 231.076 185.593 231.446 185.703L233.147 186.147C233.553 186.258 233.812 186.628 233.775 187.034L233.184 195.279C233.147 195.723 232.777 196.056 232.333 196.056L211.481 196.093C211.148 196.093 210.852 195.908 210.741 195.612L208.893 191.915C208.745 191.619 208.782 191.249 209.004 191.028L214.697 183.966C214.956 183.633 214.956 183.152 214.66 182.857C214.291 182.45 214.365 181.821 214.845 181.526L218.025 179.751C218.136 179.714 218.21 179.64 218.284 179.529L223.312 173.318C223.719 172.837 223.46 172.097 222.831 171.95C222.314 171.839 221.796 171.802 221.315 171.802C219.652 171.802 218.136 172.393 216.731 173.65C215.659 174.575 214.845 175.721 214.217 177.089C214.032 177.495 213.588 177.68 213.182 177.532L212.035 177.126C211.703 177.015 211.481 176.682 211.481 176.349L211.333 168.807C211.333 168.326 211.703 167.957 212.183 167.957L233.849 168.104C234.515 168.104 234.921 168.881 234.515 169.435L226.935 180.084C226.64 180.342 226.677 180.823 226.972 181.119Z" fill="#2E5A56"/>
<path d="M247.927 147.788C260.669 147.788 270.998 137.459 270.998 124.717C270.998 111.975 260.669 101.646 247.927 101.646C235.185 101.646 224.856 111.975 224.856 124.717C224.856 137.459 235.185 147.788 247.927 147.788Z" fill="#341212"/>
<path d="M242.567 142.39C255.308 142.39 265.637 132.061 265.637 119.319C265.637 106.578 255.308 96.2485 242.567 96.2485C229.825 96.2485 219.496 106.578 219.496 119.319C219.496 132.061 229.825 142.39 242.567 142.39Z" fill="url(#paint11_linear)"/>
<path d="M247.261 118.691L247.372 118.802C247.742 119.172 247.668 119.837 247.224 120.133L243.823 122.167C243.749 122.203 243.638 122.277 243.601 122.388L239.275 128.045C238.943 128.489 239.127 129.154 239.645 129.339C240.606 129.709 241.531 129.894 242.455 129.894C244.267 129.894 246.004 129.191 247.668 127.749C248.962 126.64 249.997 125.309 250.774 123.719C250.959 123.35 251.365 123.165 251.735 123.276L253.436 123.719C253.842 123.83 254.101 124.2 254.064 124.607L253.473 132.852C253.436 133.295 253.066 133.628 252.622 133.628L231.77 133.665C231.437 133.665 231.141 133.48 231.03 133.184L229.182 129.487C229.034 129.191 229.071 128.822 229.293 128.6L234.986 121.538C235.245 121.205 235.245 120.725 234.949 120.429C234.58 120.022 234.654 119.394 235.134 119.098L238.314 117.323C238.425 117.286 238.499 117.212 238.573 117.101L243.601 110.89C244.008 110.409 243.749 109.67 243.12 109.522C242.603 109.411 242.085 109.374 241.605 109.374C239.941 109.374 238.425 109.966 237.02 111.223C235.948 112.147 235.134 113.293 234.506 114.661C234.321 115.068 233.877 115.253 233.471 115.105L232.324 114.698C231.992 114.587 231.77 114.254 231.77 113.922L231.622 106.379C231.622 105.899 231.992 105.529 232.472 105.529L254.138 105.677C254.804 105.677 255.21 106.453 254.804 107.008L247.224 117.656C246.929 117.915 246.966 118.395 247.261 118.691Z" fill="#2E5A56"/>
<path d="M49.8368 43.543H33.7729" stroke="url(#paint12_linear)" stroke-width="3" stroke-miterlimit="10"/>
<path d="M56.8039 22.4471L44.6108 15.8667" stroke="url(#paint13_linear)" stroke-width="3" stroke-miterlimit="10"/>
<path d="M55.6427 63.4775L44.0303 74.3158" stroke="url(#paint14_linear)" stroke-width="3" stroke-miterlimit="10"/>
<path d="M178.932 42.7686H194.996" stroke="url(#paint15_linear)" stroke-width="3" stroke-miterlimit="10"/>
<path d="M171.77 21.4791L183.963 15.0923" stroke="url(#paint16_linear)" stroke-width="3" stroke-miterlimit="10"/>
<path d="M173.125 62.5098L184.737 73.5416" stroke="url(#paint17_linear)" stroke-width="3" stroke-miterlimit="10"/>
<defs>
<linearGradient id="paint0_linear" x1="113.999" y1="0" x2="113.999" y2="106" gradientUnits="userSpaceOnUse">
<stop stop-color="#FFC700"/>
<stop offset="1" stop-color="#FC9517"/>
</linearGradient>
<linearGradient id="paint1_linear" x1="26.6037" y1="96.0781" x2="26.6037" y2="185.696" gradientUnits="userSpaceOnUse">
<stop stop-color="#8F5A2D"/>
<stop offset="1" stop-color="#351B06"/>
</linearGradient>
<linearGradient id="paint2_linear" x1="114.515" y1="96.0781" x2="114.515" y2="185.696" gradientUnits="userSpaceOnUse">
<stop stop-color="#73431B"/>
<stop offset="1" stop-color="#351B06"/>
</linearGradient>
<linearGradient id="paint3_linear" x1="160.999" y1="96" x2="160.999" y2="186" gradientUnits="userSpaceOnUse">
<stop stop-color="#6C4220"/>
<stop offset="1" stop-color="#351B06"/>
</linearGradient>
<linearGradient id="paint4_linear" x1="131.999" y1="134" x2="131.999" y2="186" gradientUnits="userSpaceOnUse">
<stop stop-color="#FFC700"/>
<stop offset="1" stop-color="#FC9517"/>
</linearGradient>
<linearGradient id="paint5_linear" x1="166.999" y1="134" x2="166.999" y2="186" gradientUnits="userSpaceOnUse">
<stop stop-color="#FFC700"/>
<stop offset="1" stop-color="#FC9517"/>
</linearGradient>
<linearGradient id="paint6_linear" x1="73.9985" y1="173" x2="73.9985" y2="271" gradientUnits="userSpaceOnUse">
<stop stop-color="#8F5A2D"/>
<stop offset="1" stop-color="#351B06"/>
</linearGradient>
<linearGradient id="paint7_linear" x1="160.499" y1="173" x2="160.499" y2="271" gradientUnits="userSpaceOnUse">
<stop stop-color="#8F5A2D"/>
<stop offset="1" stop-color="#351B06"/>
</linearGradient>
<linearGradient id="paint8_linear" x1="175.499" y1="173" x2="175.499" y2="271" gradientUnits="userSpaceOnUse">
<stop stop-color="#8F5A2D"/>
<stop offset="1" stop-color="#351B06"/>
</linearGradient>
<linearGradient id="paint9_linear" x1="157.499" y1="173" x2="157.499" y2="211" gradientUnits="userSpaceOnUse">
<stop stop-color="#FFC700"/>
<stop offset="1" stop-color="#FC9517"/>
</linearGradient>
<linearGradient id="paint10_linear" x1="222.277" y1="158.676" x2="222.277" y2="204.818" gradientUnits="userSpaceOnUse">
<stop stop-color="#FFC700"/>
<stop offset="1" stop-color="#FC9517"/>
</linearGradient>
<linearGradient id="paint11_linear" x1="242.567" y1="96.2485" x2="242.567" y2="142.39" gradientUnits="userSpaceOnUse">
<stop stop-color="#FFC700"/>
<stop offset="1" stop-color="#FC9517"/>
</linearGradient>
<linearGradient id="paint12_linear" x1="41.8049" y1="43.543" x2="41.8049" y2="44.543" gradientUnits="userSpaceOnUse">
<stop stop-color="#FFC700"/>
<stop offset="1" stop-color="#FC9517"/>
</linearGradient>
<linearGradient id="paint13_linear" x1="50.7074" y1="15.8667" x2="50.7074" y2="22.4471" gradientUnits="userSpaceOnUse">
<stop stop-color="#FFC700"/>
<stop offset="1" stop-color="#FC9517"/>
</linearGradient>
<linearGradient id="paint14_linear" x1="49.8365" y1="63.4775" x2="49.8365" y2="74.3158" gradientUnits="userSpaceOnUse">
<stop stop-color="#FFC700"/>
<stop offset="1" stop-color="#FC9517"/>
</linearGradient>
<linearGradient id="paint15_linear" x1="186.964" y1="42.7686" x2="186.964" y2="43.7686" gradientUnits="userSpaceOnUse">
<stop stop-color="#FFC700"/>
<stop offset="1" stop-color="#FC9517"/>
</linearGradient>
<linearGradient id="paint16_linear" x1="177.867" y1="15.0923" x2="177.867" y2="21.4791" gradientUnits="userSpaceOnUse">
<stop stop-color="#FFC700"/>
<stop offset="1" stop-color="#FC9517"/>
</linearGradient>
<linearGradient id="paint17_linear" x1="178.931" y1="62.5098" x2="178.931" y2="73.5416" gradientUnits="userSpaceOnUse">
<stop stop-color="#FFC700"/>
<stop offset="1" stop-color="#FC9517"/>
</linearGradient>
</defs>
</svg>
