<svg width="271" height="271" viewBox="0 0 271 271" fill="none" xmlns="http://www.w3.org/2000/svg">
<path d="M99.2266 30.748C99.2266 33.4238 98.416 35.6992 96.7949 37.5742C95.1738 39.4492 92.8984 40.7383 89.9688 41.4414V41.6172C93.4258 42.0469 96.043 43.1016 97.8203 44.7812C99.5977 46.4414 100.486 48.6875 100.486 51.5195C100.486 55.6406 98.9922 58.8535 96.0039 61.1582C93.0156 63.4434 88.748 64.5859 83.2012 64.5859C78.5527 64.5859 74.4316 63.8145 70.8379 62.2715V54.5664C72.498 55.4062 74.3242 56.0898 76.3164 56.6172C78.3086 57.1445 80.2812 57.4082 82.2344 57.4082C85.2227 57.4082 87.4297 56.9004 88.8555 55.8848C90.2812 54.8691 90.9941 53.2383 90.9941 50.9922C90.9941 48.9805 90.1738 47.5547 88.5332 46.7148C86.8926 45.875 84.2754 45.4551 80.6816 45.4551H77.4297V38.5117H80.7402C84.0605 38.5117 86.4824 38.082 88.0059 37.2227C89.5488 36.3438 90.3203 34.8496 90.3203 32.7402C90.3203 29.498 88.2891 27.877 84.2266 27.877C82.8203 27.877 81.3848 28.1113 79.9199 28.5801C78.4746 29.0488 76.8633 29.8594 75.0859 31.0117L70.8965 24.7715C74.8027 21.959 79.4609 20.5527 84.8711 20.5527C89.3047 20.5527 92.8008 21.4512 95.3594 23.248C97.9375 25.0449 99.2266 27.5449 99.2266 30.748ZM126.355 64L116.043 30.3965H115.779C116.15 37.2324 116.336 41.793 116.336 44.0781V64H108.221V21.168H120.584L130.721 53.9219H130.896L141.648 21.168H154.012V64H145.545V43.7266C145.545 42.7695 145.555 41.666 145.574 40.416C145.613 39.166 145.75 35.8457 145.984 30.4551H145.721L134.676 64H126.355Z" fill="url(#paint0_linear)"/>
<path d="M182.992 179H45.9922V102H182.992V179Z" fill="#380000"/>
<path d="M131.992 102H182.992V179H131.992V102Z" fill="#380000"/>
<path d="M183.215 185.696C158.508 185.696 138.406 165.595 138.406 140.887C138.406 116.179 158.508 96.0781 183.215 96.0781C186.75 96.0781 189.617 98.9442 189.617 102.479V179.295C189.617 182.83 186.75 185.696 183.215 185.696Z" fill="#4F2424"/>
<path d="M45.8012 185.696C21.0935 185.696 0.992188 165.595 0.992188 140.887C0.992188 116.179 21.0935 96.0781 45.8012 96.0781C49.3364 96.0781 52.2025 98.9442 52.2025 102.479V179.295C52.2025 182.83 49.3364 185.696 45.8012 185.696Z" fill="url(#paint1_linear)"/>
<path d="M183.215 185.696H45.8012C42.266 185.696 39.3999 182.83 39.3999 179.295V102.479C39.3999 98.9442 42.266 96.0781 45.8012 96.0781H183.215C186.751 96.0781 189.617 98.9442 189.617 102.479V179.295C189.617 182.83 186.751 185.696 183.215 185.696ZM52.2025 172.894H176.814V108.881H52.2025V172.894Z" fill="url(#paint2_linear)"/>
<path d="M183.548 96H131.992V108.857H177.103V173.143H131.992V186H183.548C187.107 186 189.992 183.122 189.992 179.571V102.429C189.992 98.8783 187.107 96 183.548 96Z" fill="url(#paint3_linear)"/>
<path d="M195.629 186H68.3558C66.196 186 64.1834 184.881 63.0112 183.028C61.8386 181.175 61.6668 178.841 62.5539 176.829C68.1013 164.255 77.5267 153.555 89.8115 145.885C102.264 138.11 116.85 134 131.992 134C147.134 134 161.72 138.11 174.173 145.885C186.458 153.555 195.883 164.255 201.43 176.829C202.318 178.841 202.146 181.175 200.973 183.028C199.801 184.881 197.788 186 195.629 186Z" fill="url(#paint4_linear)"/>
<path d="M201.43 176.829C195.883 164.255 186.458 153.555 174.173 145.885C161.72 138.11 147.134 134 131.992 134V186H195.629C197.788 186 199.801 184.881 200.973 183.028C202.146 181.175 202.318 178.841 201.43 176.829Z" fill="url(#paint5_linear)"/>
<path d="M102.511 271H45.4737C41.8942 271 38.9922 268.138 38.9922 264.609V179.391C38.9922 175.862 41.8942 173 45.4737 173H102.511C106.09 173 108.992 175.862 108.992 179.391V264.609C108.992 268.138 106.09 271 102.511 271Z" fill="url(#paint6_linear)"/>
<path d="M101.992 173H212.61C216.135 173 218.992 175.862 218.992 179.391V264.609C218.992 268.138 216.135 271 212.61 271H101.992V173Z" fill="url(#paint7_linear)"/>
<path d="M212.626 173H131.992V271H212.626C216.142 271 218.992 268.138 218.992 264.609V179.391C218.992 175.862 216.142 173 212.626 173Z" fill="url(#paint8_linear)"/>
<path d="M157.831 210.997C146.921 211.179 137.992 202.295 137.992 191.663V173H176.992V192C176.992 202.367 168.428 210.82 157.831 210.997Z" fill="url(#paint9_linear)"/>
<path d="M150.992 173V191.75C150.992 195.196 153.908 198 157.492 198C161.076 198 163.992 195.196 163.992 191.75V173H150.992Z" fill="#FFD34F"/>
<path d="M227.631 210.216C240.373 210.216 250.702 199.886 250.702 187.145C250.702 174.403 240.373 164.074 227.631 164.074C214.89 164.074 204.561 174.403 204.561 187.145C204.561 199.886 214.89 210.216 227.631 210.216Z" fill="#341212"/>
<path d="M222.271 204.818C235.013 204.818 245.342 194.489 245.342 181.747C245.342 169.005 235.013 158.676 222.271 158.676C209.529 158.676 199.2 169.005 199.2 181.747C199.2 194.489 209.529 204.818 222.271 204.818Z" fill="url(#paint10_linear)"/>
<path d="M226.966 181.119L227.077 181.23C227.446 181.599 227.372 182.265 226.929 182.561L223.527 184.594C223.453 184.631 223.342 184.705 223.305 184.816L218.98 190.473C218.647 190.917 218.832 191.582 219.349 191.767C220.311 192.137 221.235 192.322 222.159 192.322C223.971 192.322 225.709 191.619 227.372 190.177C228.666 189.068 229.702 187.737 230.478 186.147C230.663 185.777 231.07 185.593 231.439 185.703L233.14 186.147C233.547 186.258 233.806 186.628 233.769 187.034L233.177 195.279C233.14 195.723 232.77 196.056 232.327 196.056L211.474 196.093C211.141 196.093 210.846 195.908 210.735 195.612L208.886 191.915C208.738 191.619 208.775 191.249 208.997 191.028L214.691 183.966C214.95 183.633 214.95 183.152 214.654 182.857C214.284 182.45 214.358 181.821 214.839 181.526L218.018 179.751C218.129 179.714 218.203 179.64 218.277 179.529L223.305 173.318C223.712 172.837 223.453 172.097 222.825 171.95C222.307 171.839 221.79 171.802 221.309 171.802C219.645 171.802 218.129 172.393 216.724 173.65C215.652 174.575 214.839 175.721 214.21 177.089C214.025 177.495 213.582 177.68 213.175 177.532L212.029 177.126C211.696 177.015 211.474 176.682 211.474 176.349L211.326 168.807C211.326 168.326 211.696 167.957 212.177 167.957L233.843 168.104C234.508 168.104 234.915 168.881 234.508 169.435L226.929 180.084C226.633 180.342 226.67 180.823 226.966 181.119Z" fill="#2E5A56"/>
<path d="M247.921 147.788C260.662 147.788 270.992 137.459 270.992 124.717C270.992 111.975 260.662 101.646 247.921 101.646C235.179 101.646 224.85 111.975 224.85 124.717C224.85 137.459 235.179 147.788 247.921 147.788Z" fill="#341212"/>
<path d="M242.56 142.39C255.302 142.39 265.631 132.061 265.631 119.319C265.631 106.578 255.302 96.2485 242.56 96.2485C229.818 96.2485 219.489 106.578 219.489 119.319C219.489 132.061 229.818 142.39 242.56 142.39Z" fill="url(#paint11_linear)"/>
<path d="M247.255 118.691L247.366 118.802C247.735 119.172 247.661 119.837 247.218 120.133L243.816 122.167C243.742 122.203 243.631 122.277 243.594 122.388L239.269 128.045C238.936 128.489 239.121 129.154 239.638 129.339C240.6 129.709 241.524 129.894 242.448 129.894C244.26 129.894 245.998 129.191 247.661 127.749C248.955 126.64 249.991 125.309 250.767 123.719C250.952 123.35 251.359 123.165 251.728 123.276L253.429 123.719C253.836 123.83 254.095 124.2 254.058 124.607L253.466 132.852C253.429 133.295 253.059 133.628 252.616 133.628L231.763 133.665C231.43 133.665 231.135 133.48 231.024 133.184L229.175 129.487C229.027 129.191 229.064 128.822 229.286 128.6L234.98 121.538C235.239 121.205 235.239 120.725 234.943 120.429C234.573 120.022 234.647 119.394 235.128 119.098L238.307 117.323C238.418 117.286 238.492 117.212 238.566 117.101L243.594 110.89C244.001 110.409 243.742 109.67 243.114 109.522C242.596 109.411 242.079 109.374 241.598 109.374C239.934 109.374 238.418 109.966 237.013 111.223C235.941 112.147 235.128 113.293 234.499 114.661C234.314 115.068 233.871 115.253 233.464 115.105L232.318 114.698C231.985 114.587 231.763 114.254 231.763 113.922L231.615 106.379C231.615 105.899 231.985 105.529 232.466 105.529L254.132 105.677C254.797 105.677 255.204 106.453 254.797 107.008L247.218 117.656C246.922 117.915 246.959 118.395 247.255 118.691Z" fill="#2E5A56"/>
<path d="M49.8305 43.543H33.7666" stroke="url(#paint12_linear)" stroke-width="3" stroke-miterlimit="10"/>
<path d="M56.7975 22.4471L44.6045 15.8667" stroke="url(#paint13_linear)" stroke-width="3" stroke-miterlimit="10"/>
<path d="M55.6364 63.4775L44.0239 74.3158" stroke="url(#paint14_linear)" stroke-width="3" stroke-miterlimit="10"/>
<path d="M178.926 42.7686H194.99" stroke="url(#paint15_linear)" stroke-width="3" stroke-miterlimit="10"/>
<path d="M171.764 21.4791L183.957 15.0923" stroke="url(#paint16_linear)" stroke-width="3" stroke-miterlimit="10"/>
<path d="M173.119 62.5098L184.731 73.5416" stroke="url(#paint17_linear)" stroke-width="3" stroke-miterlimit="10"/>
<defs>
<linearGradient id="paint0_linear" x1="113.992" y1="0" x2="113.992" y2="106" gradientUnits="userSpaceOnUse">
<stop stop-color="#FFC700"/>
<stop offset="1" stop-color="#FC9517"/>
</linearGradient>
<linearGradient id="paint1_linear" x1="26.5973" y1="96.0781" x2="26.5973" y2="185.696" gradientUnits="userSpaceOnUse">
<stop stop-color="#8F5A2D"/>
<stop offset="1" stop-color="#351B06"/>
</linearGradient>
<linearGradient id="paint2_linear" x1="114.508" y1="96.0781" x2="114.508" y2="185.696" gradientUnits="userSpaceOnUse">
<stop stop-color="#73431B"/>
<stop offset="1" stop-color="#351B06"/>
</linearGradient>
<linearGradient id="paint3_linear" x1="160.992" y1="96" x2="160.992" y2="186" gradientUnits="userSpaceOnUse">
<stop stop-color="#6C4220"/>
<stop offset="1" stop-color="#351B06"/>
</linearGradient>
<linearGradient id="paint4_linear" x1="131.992" y1="134" x2="131.992" y2="186" gradientUnits="userSpaceOnUse">
<stop stop-color="#FFC700"/>
<stop offset="1" stop-color="#FC9517"/>
</linearGradient>
<linearGradient id="paint5_linear" x1="166.992" y1="134" x2="166.992" y2="186" gradientUnits="userSpaceOnUse">
<stop stop-color="#FFC700"/>
<stop offset="1" stop-color="#FC9517"/>
</linearGradient>
<linearGradient id="paint6_linear" x1="73.9922" y1="173" x2="73.9922" y2="271" gradientUnits="userSpaceOnUse">
<stop stop-color="#8F5A2D"/>
<stop offset="1" stop-color="#351B06"/>
</linearGradient>
<linearGradient id="paint7_linear" x1="160.492" y1="173" x2="160.492" y2="271" gradientUnits="userSpaceOnUse">
<stop stop-color="#8F5A2D"/>
<stop offset="1" stop-color="#351B06"/>
</linearGradient>
<linearGradient id="paint8_linear" x1="175.492" y1="173" x2="175.492" y2="271" gradientUnits="userSpaceOnUse">
<stop stop-color="#8F5A2D"/>
<stop offset="1" stop-color="#351B06"/>
</linearGradient>
<linearGradient id="paint9_linear" x1="157.492" y1="173" x2="157.492" y2="211" gradientUnits="userSpaceOnUse">
<stop stop-color="#FFC700"/>
<stop offset="1" stop-color="#FC9517"/>
</linearGradient>
<linearGradient id="paint10_linear" x1="222.271" y1="158.676" x2="222.271" y2="204.818" gradientUnits="userSpaceOnUse">
<stop stop-color="#FFC700"/>
<stop offset="1" stop-color="#FC9517"/>
</linearGradient>
<linearGradient id="paint11_linear" x1="242.56" y1="96.2485" x2="242.56" y2="142.39" gradientUnits="userSpaceOnUse">
<stop stop-color="#FFC700"/>
<stop offset="1" stop-color="#FC9517"/>
</linearGradient>
<linearGradient id="paint12_linear" x1="41.7985" y1="43.543" x2="41.7985" y2="44.543" gradientUnits="userSpaceOnUse">
<stop stop-color="#FFC700"/>
<stop offset="1" stop-color="#FC9517"/>
</linearGradient>
<linearGradient id="paint13_linear" x1="50.701" y1="15.8667" x2="50.701" y2="22.4471" gradientUnits="userSpaceOnUse">
<stop stop-color="#FFC700"/>
<stop offset="1" stop-color="#FC9517"/>
</linearGradient>
<linearGradient id="paint14_linear" x1="49.8301" y1="63.4775" x2="49.8301" y2="74.3158" gradientUnits="userSpaceOnUse">
<stop stop-color="#FFC700"/>
<stop offset="1" stop-color="#FC9517"/>
</linearGradient>
<linearGradient id="paint15_linear" x1="186.958" y1="42.7686" x2="186.958" y2="43.7686" gradientUnits="userSpaceOnUse">
<stop stop-color="#FFC700"/>
<stop offset="1" stop-color="#FC9517"/>
</linearGradient>
<linearGradient id="paint16_linear" x1="177.86" y1="15.0923" x2="177.86" y2="21.4791" gradientUnits="userSpaceOnUse">
<stop stop-color="#FFC700"/>
<stop offset="1" stop-color="#FC9517"/>
</linearGradient>
<linearGradient id="paint17_linear" x1="178.925" y1="62.5098" x2="178.925" y2="73.5416" gradientUnits="userSpaceOnUse">
<stop stop-color="#FFC700"/>
<stop offset="1" stop-color="#FC9517"/>
</linearGradient>
</defs>
</svg>
