<svg width="270" height="271" viewBox="0 0 270 271" fill="none" xmlns="http://www.w3.org/2000/svg">
<path d="M100.725 64H91.6719V39.2148L91.7598 35.1426L91.9062 30.6895C90.4023 32.1934 89.3574 33.1797 88.7715 33.6484L83.8496 37.6035L79.4844 32.1543L93.2832 21.168H100.725V64ZM150.061 64H139.748L128.527 45.9531L124.689 48.707V64H115.607V21.168H124.689V40.7676L128.264 35.7285L139.865 21.168H149.943L135.002 40.123L150.061 64Z" fill="url(#paint0_linear)"/>
<path d="M182 179H45V102H182V179Z" fill="#380000"/>
<path d="M131 102H182V179H131V102Z" fill="#380000"/>
<path d="M182.223 185.696C157.516 185.696 137.414 165.595 137.414 140.887C137.414 116.179 157.516 96.0781 182.223 96.0781C185.759 96.0781 188.625 98.9442 188.625 102.479V179.295C188.625 182.83 185.759 185.696 182.223 185.696Z" fill="#4F2424"/>
<path d="M44.809 185.696C20.1013 185.696 0 165.595 0 140.887C0 116.179 20.1013 96.0781 44.809 96.0781C48.3442 96.0781 51.2103 98.9442 51.2103 102.479V179.295C51.2103 182.83 48.3442 185.696 44.809 185.696Z" fill="url(#paint1_linear)"/>
<path d="M182.223 185.696H44.809C41.2738 185.696 38.4077 182.83 38.4077 179.295V102.479C38.4077 98.9442 41.2738 96.0781 44.809 96.0781H182.223C185.758 96.0781 188.625 98.9442 188.625 102.479V179.295C188.625 182.83 185.758 185.696 182.223 185.696ZM51.2103 172.894H175.822V108.881H51.2103V172.894Z" fill="url(#paint2_linear)"/>
<path d="M182.556 96H131V108.857H176.111V173.143H131V186H182.556C186.115 186 189 183.122 189 179.571V102.429C189 98.8783 186.115 96 182.556 96Z" fill="url(#paint3_linear)"/>
<path d="M194.636 186H67.3636C65.2038 186 63.1912 184.881 62.019 183.028C60.8464 181.175 60.6746 178.841 61.5617 176.829C67.1091 164.255 76.5345 153.555 88.8193 145.885C101.272 138.11 115.858 134 131 134C146.142 134 160.728 138.11 173.181 145.885C185.466 153.555 194.891 164.255 200.438 176.829C201.325 178.841 201.154 181.175 199.981 183.028C198.809 184.881 196.796 186 194.636 186Z" fill="url(#paint4_linear)"/>
<path d="M200.438 176.829C194.891 164.255 185.466 153.555 173.181 145.885C160.728 138.11 146.142 134 131 134V186H194.636C196.796 186 198.809 184.881 199.981 183.028C201.154 181.175 201.325 178.841 200.438 176.829Z" fill="url(#paint5_linear)"/>
<path d="M101.519 271H44.4815C40.902 271 38 268.138 38 264.609V179.391C38 175.862 40.902 173 44.4815 173H101.519C105.098 173 108 175.862 108 179.391V264.609C108 268.138 105.098 271 101.519 271Z" fill="url(#paint6_linear)"/>
<path d="M101 173H211.618C215.143 173 218 175.862 218 179.391V264.609C218 268.138 215.143 271 211.618 271H101V173Z" fill="url(#paint7_linear)"/>
<path d="M211.634 173H131V271H211.634C215.15 271 218 268.138 218 264.609V179.391C218 175.862 215.15 173 211.634 173Z" fill="url(#paint8_linear)"/>
<path d="M156.839 210.997C145.929 211.179 137 202.295 137 191.663V173H176V192C176 202.367 167.436 210.82 156.839 210.997Z" fill="url(#paint9_linear)"/>
<path d="M150 173V191.75C150 195.196 152.916 198 156.5 198C160.084 198 163 195.196 163 191.75V173H150Z" fill="#FFD34F"/>
<path d="M226.639 210.216C239.381 210.216 249.71 199.886 249.71 187.145C249.71 174.403 239.381 164.074 226.639 164.074C213.898 164.074 203.568 174.403 203.568 187.145C203.568 199.886 213.898 210.216 226.639 210.216Z" fill="#341212"/>
<path d="M221.279 204.818C234.021 204.818 244.35 194.489 244.35 181.747C244.35 169.005 234.021 158.676 221.279 158.676C208.537 158.676 198.208 169.005 198.208 181.747C198.208 194.489 208.537 204.818 221.279 204.818Z" fill="url(#paint10_linear)"/>
<path d="M225.974 181.119L226.085 181.23C226.454 181.599 226.38 182.265 225.937 182.561L222.535 184.594C222.461 184.631 222.35 184.705 222.313 184.816L217.988 190.473C217.655 190.917 217.84 191.582 218.357 191.767C219.319 192.137 220.243 192.322 221.167 192.322C222.979 192.322 224.717 191.619 226.38 190.177C227.674 189.068 228.71 187.737 229.486 186.147C229.671 185.777 230.078 185.593 230.447 185.703L232.148 186.147C232.555 186.258 232.814 186.628 232.777 187.034L232.185 195.279C232.148 195.723 231.778 196.056 231.335 196.056L210.482 196.093C210.149 196.093 209.854 195.908 209.743 195.612L207.894 191.915C207.746 191.619 207.783 191.249 208.005 191.028L213.699 183.966C213.958 183.633 213.958 183.152 213.662 182.857C213.292 182.45 213.366 181.821 213.847 181.526L217.026 179.751C217.137 179.714 217.211 179.64 217.285 179.529L222.313 173.318C222.72 172.837 222.461 172.097 221.833 171.95C221.315 171.839 220.798 171.802 220.317 171.802C218.653 171.802 217.137 172.393 215.732 173.65C214.66 174.575 213.847 175.721 213.218 177.089C213.033 177.495 212.59 177.68 212.183 177.532L211.037 177.126C210.704 177.015 210.482 176.682 210.482 176.349L210.334 168.807C210.334 168.326 210.704 167.957 211.185 167.957L232.851 168.104C233.516 168.104 233.923 168.881 233.516 169.435L225.937 180.084C225.641 180.342 225.678 180.823 225.974 181.119Z" fill="#2E5A56"/>
<path d="M246.928 147.788C259.67 147.788 269.999 137.459 269.999 124.717C269.999 111.975 259.67 101.646 246.928 101.646C234.187 101.646 223.857 111.975 223.857 124.717C223.857 137.459 234.187 147.788 246.928 147.788Z" fill="#341212"/>
<path d="M241.568 142.39C254.31 142.39 264.639 132.061 264.639 119.319C264.639 106.578 254.31 96.2485 241.568 96.2485C228.826 96.2485 218.497 106.578 218.497 119.319C218.497 132.061 228.826 142.39 241.568 142.39Z" fill="url(#paint11_linear)"/>
<path d="M246.263 118.691L246.374 118.802C246.743 119.172 246.67 119.837 246.226 120.133L242.824 122.167C242.75 122.203 242.64 122.277 242.603 122.388L238.277 128.045C237.944 128.489 238.129 129.154 238.646 129.339C239.608 129.709 240.532 129.894 241.456 129.894C243.268 129.894 245.006 129.191 246.67 127.749C247.964 126.64 248.999 125.309 249.775 123.719C249.96 123.35 250.367 123.165 250.737 123.276L252.437 123.719C252.844 123.83 253.103 124.2 253.066 124.607L252.474 132.852C252.437 133.295 252.068 133.628 251.624 133.628L230.771 133.665C230.439 133.665 230.143 133.48 230.032 133.184L228.183 129.487C228.035 129.191 228.072 128.822 228.294 128.6L233.988 121.538C234.247 121.205 234.247 120.725 233.951 120.429C233.581 120.022 233.655 119.394 234.136 119.098L237.315 117.323C237.426 117.286 237.5 117.212 237.574 117.101L242.603 110.89C243.009 110.409 242.75 109.67 242.122 109.522C241.604 109.411 241.087 109.374 240.606 109.374C238.942 109.374 237.426 109.966 236.021 111.223C234.949 112.147 234.136 113.293 233.507 114.661C233.322 115.068 232.879 115.253 232.472 115.105L231.326 114.698C230.993 114.587 230.771 114.254 230.771 113.922L230.623 106.379C230.623 105.899 230.993 105.529 231.474 105.529L253.14 105.677C253.805 105.677 254.212 106.453 253.805 107.008L246.226 117.656C245.93 117.915 245.967 118.395 246.263 118.691Z" fill="#2E5A56"/>
<path d="M48.8383 43.543H32.7744" stroke="url(#paint12_linear)" stroke-width="3" stroke-miterlimit="10"/>
<path d="M55.8053 22.4471L43.6123 15.8667" stroke="url(#paint13_linear)" stroke-width="3" stroke-miterlimit="10"/>
<path d="M54.6442 63.4775L43.0317 74.3158" stroke="url(#paint14_linear)" stroke-width="3" stroke-miterlimit="10"/>
<path d="M177.933 42.7686H193.997" stroke="url(#paint15_linear)" stroke-width="3" stroke-miterlimit="10"/>
<path d="M170.771 21.4791L182.965 15.0923" stroke="url(#paint16_linear)" stroke-width="3" stroke-miterlimit="10"/>
<path d="M172.126 62.5098L183.739 73.5416" stroke="url(#paint17_linear)" stroke-width="3" stroke-miterlimit="10"/>
<defs>
<linearGradient id="paint0_linear" x1="113" y1="0" x2="113" y2="106" gradientUnits="userSpaceOnUse">
<stop stop-color="#FFC700"/>
<stop offset="1" stop-color="#FC9517"/>
</linearGradient>
<linearGradient id="paint1_linear" x1="25.6051" y1="96.0781" x2="25.6051" y2="185.696" gradientUnits="userSpaceOnUse">
<stop stop-color="#8F5A2D"/>
<stop offset="1" stop-color="#351B06"/>
</linearGradient>
<linearGradient id="paint2_linear" x1="113.516" y1="96.0781" x2="113.516" y2="185.696" gradientUnits="userSpaceOnUse">
<stop stop-color="#73431B"/>
<stop offset="1" stop-color="#351B06"/>
</linearGradient>
<linearGradient id="paint3_linear" x1="160" y1="96" x2="160" y2="186" gradientUnits="userSpaceOnUse">
<stop stop-color="#6C4220"/>
<stop offset="1" stop-color="#351B06"/>
</linearGradient>
<linearGradient id="paint4_linear" x1="131" y1="134" x2="131" y2="186" gradientUnits="userSpaceOnUse">
<stop stop-color="#FFC700"/>
<stop offset="1" stop-color="#FC9517"/>
</linearGradient>
<linearGradient id="paint5_linear" x1="166" y1="134" x2="166" y2="186" gradientUnits="userSpaceOnUse">
<stop stop-color="#FFC700"/>
<stop offset="1" stop-color="#FC9517"/>
</linearGradient>
<linearGradient id="paint6_linear" x1="73" y1="173" x2="73" y2="271" gradientUnits="userSpaceOnUse">
<stop stop-color="#8F5A2D"/>
<stop offset="1" stop-color="#351B06"/>
</linearGradient>
<linearGradient id="paint7_linear" x1="159.5" y1="173" x2="159.5" y2="271" gradientUnits="userSpaceOnUse">
<stop stop-color="#8F5A2D"/>
<stop offset="1" stop-color="#351B06"/>
</linearGradient>
<linearGradient id="paint8_linear" x1="174.5" y1="173" x2="174.5" y2="271" gradientUnits="userSpaceOnUse">
<stop stop-color="#8F5A2D"/>
<stop offset="1" stop-color="#351B06"/>
</linearGradient>
<linearGradient id="paint9_linear" x1="156.5" y1="173" x2="156.5" y2="211" gradientUnits="userSpaceOnUse">
<stop stop-color="#FFC700"/>
<stop offset="1" stop-color="#FC9517"/>
</linearGradient>
<linearGradient id="paint10_linear" x1="221.279" y1="158.676" x2="221.279" y2="204.818" gradientUnits="userSpaceOnUse">
<stop stop-color="#FFC700"/>
<stop offset="1" stop-color="#FC9517"/>
</linearGradient>
<linearGradient id="paint11_linear" x1="241.568" y1="96.2485" x2="241.568" y2="142.39" gradientUnits="userSpaceOnUse">
<stop stop-color="#FFC700"/>
<stop offset="1" stop-color="#FC9517"/>
</linearGradient>
<linearGradient id="paint12_linear" x1="40.8063" y1="43.543" x2="40.8063" y2="44.543" gradientUnits="userSpaceOnUse">
<stop stop-color="#FFC700"/>
<stop offset="1" stop-color="#FC9517"/>
</linearGradient>
<linearGradient id="paint13_linear" x1="49.7088" y1="15.8667" x2="49.7088" y2="22.4471" gradientUnits="userSpaceOnUse">
<stop stop-color="#FFC700"/>
<stop offset="1" stop-color="#FC9517"/>
</linearGradient>
<linearGradient id="paint14_linear" x1="48.838" y1="63.4775" x2="48.838" y2="74.3158" gradientUnits="userSpaceOnUse">
<stop stop-color="#FFC700"/>
<stop offset="1" stop-color="#FC9517"/>
</linearGradient>
<linearGradient id="paint15_linear" x1="185.965" y1="42.7686" x2="185.965" y2="43.7686" gradientUnits="userSpaceOnUse">
<stop stop-color="#FFC700"/>
<stop offset="1" stop-color="#FC9517"/>
</linearGradient>
<linearGradient id="paint16_linear" x1="176.868" y1="15.0923" x2="176.868" y2="21.4791" gradientUnits="userSpaceOnUse">
<stop stop-color="#FFC700"/>
<stop offset="1" stop-color="#FC9517"/>
</linearGradient>
<linearGradient id="paint17_linear" x1="177.933" y1="62.5098" x2="177.933" y2="73.5416" gradientUnits="userSpaceOnUse">
<stop stop-color="#FFC700"/>
<stop offset="1" stop-color="#FC9517"/>
</linearGradient>
</defs>
</svg>
