<svg width="271" height="271" viewBox="0 0 271 271" fill="none" xmlns="http://www.w3.org/2000/svg">
<path d="M93.3384 64H84.2856V39.2148L84.3735 35.1426L84.52 30.6895C83.0161 32.1934 81.9712 33.1797 81.3853 33.6484L76.4634 37.6035L72.0981 32.1543L85.897 21.168H93.3384V64ZM126.356 64L116.043 30.3965H115.78C116.151 37.2324 116.336 41.793 116.336 44.0781V64H108.221V21.168H120.584L130.721 53.9219H130.897L141.649 21.168H154.012V64H145.545V43.7266C145.545 42.7695 145.555 41.666 145.575 40.416C145.614 39.166 145.75 35.8457 145.985 30.4551H145.721L134.676 64H126.356Z" fill="url(#paint0_linear)"/>
<path d="M182.993 179H45.9927V102H182.993V179Z" fill="#380000"/>
<path d="M131.993 102H182.993V179H131.993V102Z" fill="#380000"/>
<path d="M183.216 185.696C158.508 185.696 138.407 165.595 138.407 140.887C138.407 116.179 158.508 96.0781 183.216 96.0781C186.751 96.0781 189.617 98.9442 189.617 102.479V179.295C189.617 182.83 186.751 185.696 183.216 185.696Z" fill="#4F2424"/>
<path d="M45.8017 185.696C21.094 185.696 0.992676 165.595 0.992676 140.887C0.992676 116.179 21.094 96.0781 45.8017 96.0781C49.3369 96.0781 52.203 98.9442 52.203 102.479V179.295C52.203 182.83 49.3369 185.696 45.8017 185.696Z" fill="url(#paint1_linear)"/>
<path d="M183.216 185.696H45.8017C42.2665 185.696 39.4004 182.83 39.4004 179.295V102.479C39.4004 98.9442 42.2665 96.0781 45.8017 96.0781H183.216C186.751 96.0781 189.617 98.9442 189.617 102.479V179.295C189.617 182.83 186.751 185.696 183.216 185.696ZM52.203 172.894H176.815V108.881H52.203V172.894Z" fill="url(#paint2_linear)"/>
<path d="M183.548 96H131.993V108.857H177.104V173.143H131.993V186H183.548C187.107 186 189.993 183.122 189.993 179.571V102.429C189.993 98.8783 187.107 96 183.548 96Z" fill="url(#paint3_linear)"/>
<path d="M195.629 186H68.3563C66.1965 186 64.1839 184.881 63.0117 183.028C61.8391 181.175 61.6673 178.841 62.5544 176.829C68.1018 164.255 77.5272 153.555 89.812 145.885C102.265 138.11 116.851 134 131.993 134C147.135 134 161.721 138.11 174.173 145.885C186.458 153.555 195.884 164.255 201.431 176.829C202.318 178.841 202.146 181.175 200.974 183.028C199.801 184.881 197.789 186 195.629 186Z" fill="url(#paint4_linear)"/>
<path d="M201.431 176.829C195.884 164.255 186.458 153.555 174.173 145.885C161.721 138.11 147.135 134 131.993 134V186H195.629C197.789 186 199.801 184.881 200.974 183.028C202.146 181.175 202.318 178.841 201.431 176.829Z" fill="url(#paint5_linear)"/>
<path d="M102.511 271H45.4742C41.8947 271 38.9927 268.138 38.9927 264.609V179.391C38.9927 175.862 41.8947 173 45.4742 173H102.511C106.091 173 108.993 175.862 108.993 179.391V264.609C108.993 268.138 106.091 271 102.511 271Z" fill="url(#paint6_linear)"/>
<path d="M101.993 173H212.611C216.135 173 218.993 175.862 218.993 179.391V264.609C218.993 268.138 216.135 271 212.611 271H101.993V173Z" fill="url(#paint7_linear)"/>
<path d="M212.627 173H131.993V271H212.627C216.142 271 218.993 268.138 218.993 264.609V179.391C218.993 175.862 216.142 173 212.627 173Z" fill="url(#paint8_linear)"/>
<path d="M157.832 210.997C146.922 211.179 137.993 202.295 137.993 191.663V173H176.993V192C176.993 202.367 168.428 210.82 157.832 210.997Z" fill="url(#paint9_linear)"/>
<path d="M150.993 173V191.75C150.993 195.196 153.909 198 157.493 198C161.077 198 163.993 195.196 163.993 191.75V173H150.993Z" fill="#FFD34F"/>
<path d="M227.632 210.216C240.374 210.216 250.703 199.886 250.703 187.145C250.703 174.403 240.374 164.074 227.632 164.074C214.89 164.074 204.561 174.403 204.561 187.145C204.561 199.886 214.89 210.216 227.632 210.216Z" fill="#341212"/>
<path d="M222.272 204.818C235.013 204.818 245.343 194.489 245.343 181.747C245.343 169.005 235.013 158.676 222.272 158.676C209.53 158.676 199.201 169.005 199.201 181.747C199.201 194.489 209.53 204.818 222.272 204.818Z" fill="url(#paint10_linear)"/>
<path d="M226.966 181.119L227.077 181.23C227.447 181.599 227.373 182.265 226.929 182.561L223.528 184.594C223.454 184.631 223.343 184.705 223.306 184.816L218.98 190.473C218.648 190.917 218.832 191.582 219.35 191.767C220.311 192.137 221.236 192.322 222.16 192.322C223.972 192.322 225.709 191.619 227.373 190.177C228.667 189.068 229.702 187.737 230.479 186.147C230.664 185.777 231.07 185.593 231.44 185.703L233.141 186.147C233.548 186.258 233.806 186.628 233.769 187.034L233.178 195.279C233.141 195.723 232.771 196.056 232.327 196.056L211.475 196.093C211.142 196.093 210.846 195.908 210.735 195.612L208.887 191.915C208.739 191.619 208.776 191.249 208.998 191.028L214.692 183.966C214.95 183.633 214.95 183.152 214.655 182.857C214.285 182.45 214.359 181.821 214.839 181.526L218.019 179.751C218.13 179.714 218.204 179.64 218.278 179.529L223.306 173.318C223.713 172.837 223.454 172.097 222.826 171.95C222.308 171.839 221.79 171.802 221.31 171.802C219.646 171.802 218.13 172.393 216.725 173.65C215.653 174.575 214.839 175.721 214.211 177.089C214.026 177.495 213.582 177.68 213.176 177.532L212.03 177.126C211.697 177.015 211.475 176.682 211.475 176.349L211.327 168.807C211.327 168.326 211.697 167.957 212.177 167.957L233.843 168.104C234.509 168.104 234.916 168.881 234.509 169.435L226.929 180.084C226.634 180.342 226.671 180.823 226.966 181.119Z" fill="#2E5A56"/>
<path d="M247.921 147.788C260.663 147.788 270.992 137.459 270.992 124.717C270.992 111.975 260.663 101.646 247.921 101.646C235.179 101.646 224.85 111.975 224.85 124.717C224.85 137.459 235.179 147.788 247.921 147.788Z" fill="#341212"/>
<path d="M242.561 142.39C255.302 142.39 265.632 132.061 265.632 119.319C265.632 106.578 255.302 96.2485 242.561 96.2485C229.819 96.2485 219.49 106.578 219.49 119.319C219.49 132.061 229.819 142.39 242.561 142.39Z" fill="url(#paint11_linear)"/>
<path d="M247.256 118.691L247.366 118.802C247.736 119.172 247.662 119.837 247.219 120.133L243.817 122.167C243.743 122.203 243.632 122.277 243.595 122.388L239.269 128.045C238.937 128.489 239.122 129.154 239.639 129.339C240.6 129.709 241.525 129.894 242.449 129.894C244.261 129.894 245.998 129.191 247.662 127.749C248.956 126.64 249.991 125.309 250.768 123.719C250.953 123.35 251.359 123.165 251.729 123.276L253.43 123.719C253.837 123.83 254.095 124.2 254.058 124.607L253.467 132.852C253.43 133.295 253.06 133.628 252.617 133.628L231.764 133.665C231.431 133.665 231.135 133.48 231.025 133.184L229.176 129.487C229.028 129.191 229.065 128.822 229.287 128.6L234.981 121.538C235.239 121.205 235.239 120.725 234.944 120.429C234.574 120.022 234.648 119.394 235.128 119.098L238.308 117.323C238.419 117.286 238.493 117.212 238.567 117.101L243.595 110.89C244.002 110.409 243.743 109.67 243.115 109.522C242.597 109.411 242.079 109.374 241.599 109.374C239.935 109.374 238.419 109.966 237.014 111.223C235.942 112.147 235.128 113.293 234.5 114.661C234.315 115.068 233.871 115.253 233.465 115.105L232.319 114.698C231.986 114.587 231.764 114.254 231.764 113.922L231.616 106.379C231.616 105.899 231.986 105.529 232.466 105.529L254.132 105.677C254.798 105.677 255.205 106.453 254.798 107.008L247.219 117.656C246.923 117.915 246.96 118.395 247.256 118.691Z" fill="#2E5A56"/>
<path d="M49.8309 43.543H33.7671" stroke="url(#paint12_linear)" stroke-width="3" stroke-miterlimit="10"/>
<path d="M56.798 22.4471L44.605 15.8667" stroke="url(#paint13_linear)" stroke-width="3" stroke-miterlimit="10"/>
<path d="M55.6369 63.4775L44.0244 74.3158" stroke="url(#paint14_linear)" stroke-width="3" stroke-miterlimit="10"/>
<path d="M178.926 42.7686H194.99" stroke="url(#paint15_linear)" stroke-width="3" stroke-miterlimit="10"/>
<path d="M171.764 21.4791L183.957 15.0923" stroke="url(#paint16_linear)" stroke-width="3" stroke-miterlimit="10"/>
<path d="M173.119 62.5098L184.732 73.5416" stroke="url(#paint17_linear)" stroke-width="3" stroke-miterlimit="10"/>
<defs>
<linearGradient id="paint0_linear" x1="113.993" y1="0" x2="113.993" y2="106" gradientUnits="userSpaceOnUse">
<stop stop-color="#FFC700"/>
<stop offset="1" stop-color="#FC9517"/>
</linearGradient>
<linearGradient id="paint1_linear" x1="26.5978" y1="96.0781" x2="26.5978" y2="185.696" gradientUnits="userSpaceOnUse">
<stop stop-color="#8F5A2D"/>
<stop offset="1" stop-color="#351B06"/>
</linearGradient>
<linearGradient id="paint2_linear" x1="114.509" y1="96.0781" x2="114.509" y2="185.696" gradientUnits="userSpaceOnUse">
<stop stop-color="#73431B"/>
<stop offset="1" stop-color="#351B06"/>
</linearGradient>
<linearGradient id="paint3_linear" x1="160.993" y1="96" x2="160.993" y2="186" gradientUnits="userSpaceOnUse">
<stop stop-color="#6C4220"/>
<stop offset="1" stop-color="#351B06"/>
</linearGradient>
<linearGradient id="paint4_linear" x1="131.993" y1="134" x2="131.993" y2="186" gradientUnits="userSpaceOnUse">
<stop stop-color="#FFC700"/>
<stop offset="1" stop-color="#FC9517"/>
</linearGradient>
<linearGradient id="paint5_linear" x1="166.993" y1="134" x2="166.993" y2="186" gradientUnits="userSpaceOnUse">
<stop stop-color="#FFC700"/>
<stop offset="1" stop-color="#FC9517"/>
</linearGradient>
<linearGradient id="paint6_linear" x1="73.9927" y1="173" x2="73.9927" y2="271" gradientUnits="userSpaceOnUse">
<stop stop-color="#8F5A2D"/>
<stop offset="1" stop-color="#351B06"/>
</linearGradient>
<linearGradient id="paint7_linear" x1="160.493" y1="173" x2="160.493" y2="271" gradientUnits="userSpaceOnUse">
<stop stop-color="#8F5A2D"/>
<stop offset="1" stop-color="#351B06"/>
</linearGradient>
<linearGradient id="paint8_linear" x1="175.493" y1="173" x2="175.493" y2="271" gradientUnits="userSpaceOnUse">
<stop stop-color="#8F5A2D"/>
<stop offset="1" stop-color="#351B06"/>
</linearGradient>
<linearGradient id="paint9_linear" x1="157.493" y1="173" x2="157.493" y2="211" gradientUnits="userSpaceOnUse">
<stop stop-color="#FFC700"/>
<stop offset="1" stop-color="#FC9517"/>
</linearGradient>
<linearGradient id="paint10_linear" x1="222.272" y1="158.676" x2="222.272" y2="204.818" gradientUnits="userSpaceOnUse">
<stop stop-color="#FFC700"/>
<stop offset="1" stop-color="#FC9517"/>
</linearGradient>
<linearGradient id="paint11_linear" x1="242.561" y1="96.2485" x2="242.561" y2="142.39" gradientUnits="userSpaceOnUse">
<stop stop-color="#FFC700"/>
<stop offset="1" stop-color="#FC9517"/>
</linearGradient>
<linearGradient id="paint12_linear" x1="41.799" y1="43.543" x2="41.799" y2="44.543" gradientUnits="userSpaceOnUse">
<stop stop-color="#FFC700"/>
<stop offset="1" stop-color="#FC9517"/>
</linearGradient>
<linearGradient id="paint13_linear" x1="50.7015" y1="15.8667" x2="50.7015" y2="22.4471" gradientUnits="userSpaceOnUse">
<stop stop-color="#FFC700"/>
<stop offset="1" stop-color="#FC9517"/>
</linearGradient>
<linearGradient id="paint14_linear" x1="49.8306" y1="63.4775" x2="49.8306" y2="74.3158" gradientUnits="userSpaceOnUse">
<stop stop-color="#FFC700"/>
<stop offset="1" stop-color="#FC9517"/>
</linearGradient>
<linearGradient id="paint15_linear" x1="186.958" y1="42.7686" x2="186.958" y2="43.7686" gradientUnits="userSpaceOnUse">
<stop stop-color="#FFC700"/>
<stop offset="1" stop-color="#FC9517"/>
</linearGradient>
<linearGradient id="paint16_linear" x1="177.861" y1="15.0923" x2="177.861" y2="21.4791" gradientUnits="userSpaceOnUse">
<stop stop-color="#FFC700"/>
<stop offset="1" stop-color="#FC9517"/>
</linearGradient>
<linearGradient id="paint17_linear" x1="178.925" y1="62.5098" x2="178.925" y2="73.5416" gradientUnits="userSpaceOnUse">
<stop stop-color="#FFC700"/>
<stop offset="1" stop-color="#FC9517"/>
</linearGradient>
</defs>
</svg>
