<svg width="270" height="271" viewBox="0 0 270 271" fill="none" xmlns="http://www.w3.org/2000/svg">
<path d="M84.4426 64H54.5012V57.7012L65.2532 46.832C68.4368 43.5703 70.5168 41.3145 71.4934 40.0645C72.47 38.7949 73.1731 37.623 73.6028 36.5488C74.0325 35.4746 74.2473 34.3613 74.2473 33.209C74.2473 31.4902 73.7688 30.2109 72.8118 29.3711C71.8743 28.5312 70.6145 28.1113 69.0325 28.1113C67.3723 28.1113 65.761 28.4922 64.1985 29.2539C62.636 30.0156 61.0051 31.0996 59.3059 32.5059L54.384 26.6758C56.4934 24.8789 58.2415 23.6094 59.6282 22.8672C61.0149 22.125 62.5286 21.5586 64.1692 21.168C65.8098 20.7578 67.6458 20.5527 69.677 20.5527C72.3528 20.5527 74.7161 21.041 76.7668 22.0176C78.8176 22.9941 80.4094 24.3613 81.5422 26.1191C82.675 27.877 83.2415 29.8887 83.2415 32.1543C83.2415 34.127 82.8899 35.9824 82.1868 37.7207C81.5032 39.4395 80.429 41.207 78.9641 43.0234C77.5188 44.8398 74.9602 47.4277 71.2883 50.7871L65.7805 55.9727V56.3828H84.4426V64ZM99.8235 57.7012C98.8079 61.6465 97.0891 66.3242 94.6672 71.7344H88.2219C89.4915 66.5391 90.4778 61.6367 91.1809 57.0273H99.384L99.8235 57.7012ZM121.767 36.6367C125.907 36.6367 129.198 37.7988 131.64 40.123C134.101 42.4473 135.331 45.6309 135.331 49.6738C135.331 54.459 133.857 58.1406 130.907 60.7188C127.958 63.2969 123.74 64.5859 118.251 64.5859C113.486 64.5859 109.638 63.8145 106.708 62.2715V54.4492C108.251 55.2695 110.048 55.9434 112.099 56.4707C114.15 56.9785 116.093 57.2324 117.929 57.2324C123.456 57.2324 126.22 54.9668 126.22 50.4355C126.22 46.1191 123.359 43.9609 117.636 43.9609C116.601 43.9609 115.458 44.0684 114.208 44.2832C112.958 44.4785 111.943 44.6934 111.161 44.9277L107.558 42.9941L109.169 21.168H132.402V28.8438H117.109L116.318 37.252L117.343 37.0469C118.534 36.7734 120.009 36.6367 121.767 36.6367ZM177.9 64H167.587L156.366 45.9531L152.529 48.707V64H143.447V21.168H152.529V40.7676L156.103 35.7285L167.704 21.168H177.782L162.841 40.123L177.9 64Z" fill="url(#paint0_linear)"/>
<path d="M181.999 179H44.9993V102H181.999V179Z" fill="#380000"/>
<path d="M130.999 102H181.999V179H130.999V102Z" fill="#380000"/>
<path d="M182.223 185.696C157.515 185.696 137.414 165.595 137.414 140.887C137.414 116.179 157.515 96.0781 182.223 96.0781C185.758 96.0781 188.624 98.9442 188.624 102.479V179.295C188.624 182.83 185.758 185.696 182.223 185.696Z" fill="#4F2424"/>
<path d="M44.8083 185.696C20.1006 185.696 -0.000732422 165.595 -0.000732422 140.887C-0.000732422 116.179 20.1006 96.0781 44.8083 96.0781C48.3435 96.0781 51.2095 98.9442 51.2095 102.479V179.295C51.2095 182.83 48.3435 185.696 44.8083 185.696Z" fill="url(#paint1_linear)"/>
<path d="M182.223 185.696H44.8083C41.2731 185.696 38.407 182.83 38.407 179.295V102.479C38.407 98.9442 41.2731 96.0781 44.8083 96.0781H182.223C185.758 96.0781 188.624 98.9442 188.624 102.479V179.295C188.624 182.83 185.758 185.696 182.223 185.696ZM51.2096 172.894H175.821V108.881H51.2096V172.894Z" fill="url(#paint2_linear)"/>
<path d="M182.555 96H130.999V108.857H176.11V173.143H130.999V186H182.555C186.114 186 188.999 183.122 188.999 179.571V102.429C188.999 98.8783 186.114 96 182.555 96Z" fill="url(#paint3_linear)"/>
<path d="M194.636 186H67.3629C65.2031 186 63.1905 184.881 62.0183 183.028C60.8457 181.175 60.6739 178.841 61.561 176.829C67.1084 164.255 76.5338 153.555 88.8186 145.885C101.271 138.11 115.857 134 130.999 134C146.141 134 160.727 138.11 173.18 145.885C185.465 153.555 194.89 164.255 200.438 176.829C201.325 178.841 201.153 181.175 199.98 183.028C198.808 184.881 196.795 186 194.636 186Z" fill="url(#paint4_linear)"/>
<path d="M200.438 176.829C194.89 164.255 185.465 153.555 173.18 145.885C160.727 138.11 146.141 134 130.999 134V186H194.636C196.795 186 198.808 184.881 199.98 183.028C201.153 181.175 201.325 178.841 200.438 176.829Z" fill="url(#paint5_linear)"/>
<path d="M101.518 271H44.4807C40.9012 271 37.9993 268.138 37.9993 264.609V179.391C37.9993 175.862 40.9012 173 44.4807 173H101.518C105.097 173 107.999 175.862 107.999 179.391V264.609C107.999 268.138 105.097 271 101.518 271Z" fill="url(#paint6_linear)"/>
<path d="M100.999 173H211.617C215.142 173 217.999 175.862 217.999 179.391V264.609C217.999 268.138 215.142 271 211.617 271H100.999V173Z" fill="url(#paint7_linear)"/>
<path d="M211.633 173H130.999V271H211.633C215.149 271 217.999 268.138 217.999 264.609V179.391C217.999 175.862 215.149 173 211.633 173Z" fill="url(#paint8_linear)"/>
<path d="M156.838 210.997C145.929 211.179 136.999 202.295 136.999 191.663V173H175.999V192C175.999 202.367 167.435 210.82 156.838 210.997Z" fill="url(#paint9_linear)"/>
<path d="M149.999 173V191.75C149.999 195.196 152.915 198 156.499 198C160.083 198 162.999 195.196 162.999 191.75V173H149.999Z" fill="#FFD34F"/>
<path d="M226.639 210.216C239.38 210.216 249.71 199.886 249.71 187.145C249.71 174.403 239.38 164.074 226.639 164.074C213.897 164.074 203.568 174.403 203.568 187.145C203.568 199.886 213.897 210.216 226.639 210.216Z" fill="#341212"/>
<path d="M221.278 204.818C234.02 204.818 244.349 194.489 244.349 181.747C244.349 169.005 234.02 158.676 221.278 158.676C208.536 158.676 198.207 169.005 198.207 181.747C198.207 194.489 208.536 204.818 221.278 204.818Z" fill="url(#paint10_linear)"/>
<path d="M225.973 181.119L226.084 181.23C226.454 181.599 226.38 182.265 225.936 182.561L222.535 184.594C222.461 184.631 222.35 184.705 222.313 184.816L217.987 190.473C217.654 190.917 217.839 191.582 218.357 191.767C219.318 192.137 220.242 192.322 221.167 192.322C222.978 192.322 224.716 191.619 226.38 190.177C227.674 189.068 228.709 187.737 229.485 186.147C229.67 185.777 230.077 185.593 230.447 185.703L232.147 186.147C232.554 186.258 232.813 186.628 232.776 187.034L232.184 195.279C232.147 195.723 231.778 196.056 231.334 196.056L210.482 196.093C210.149 196.093 209.853 195.908 209.742 195.612L207.893 191.915C207.746 191.619 207.783 191.249 208.004 191.028L213.698 183.966C213.957 183.633 213.957 183.152 213.661 182.857C213.291 182.45 213.365 181.821 213.846 181.526L217.026 179.751C217.137 179.714 217.211 179.64 217.284 179.529L222.313 173.318C222.719 172.837 222.461 172.097 221.832 171.95C221.314 171.839 220.797 171.802 220.316 171.802C218.652 171.802 217.137 172.393 215.732 173.65C214.659 174.575 213.846 175.721 213.217 177.089C213.033 177.495 212.589 177.68 212.182 177.532L211.036 177.126C210.703 177.015 210.482 176.682 210.482 176.349L210.334 168.807C210.334 168.326 210.703 167.957 211.184 167.957L232.85 168.104C233.515 168.104 233.922 168.881 233.515 169.435L225.936 180.084C225.64 180.342 225.677 180.823 225.973 181.119Z" fill="#2E5A56"/>
<path d="M246.928 147.788C259.669 147.788 269.999 137.459 269.999 124.717C269.999 111.975 259.669 101.646 246.928 101.646C234.186 101.646 223.857 111.975 223.857 124.717C223.857 137.459 234.186 147.788 246.928 147.788Z" fill="#341212"/>
<path d="M241.567 142.39C254.309 142.39 264.638 132.061 264.638 119.319C264.638 106.578 254.309 96.2485 241.567 96.2485C228.826 96.2485 218.496 106.578 218.496 119.319C218.496 132.061 228.826 142.39 241.567 142.39Z" fill="url(#paint11_linear)"/>
<path d="M246.262 118.691L246.373 118.802C246.743 119.172 246.669 119.837 246.225 120.133L242.824 122.167C242.75 122.203 242.639 122.277 242.602 122.388L238.276 128.045C237.943 128.489 238.128 129.154 238.646 129.339C239.607 129.709 240.531 129.894 241.456 129.894C243.267 129.894 245.005 129.191 246.669 127.749C247.963 126.64 248.998 125.309 249.774 123.719C249.959 123.35 250.366 123.165 250.736 123.276L252.437 123.719C252.843 123.83 253.102 124.2 253.065 124.607L252.473 132.852C252.437 133.295 252.067 133.628 251.623 133.628L230.771 133.665C230.438 133.665 230.142 133.48 230.031 133.184L228.182 129.487C228.035 129.191 228.072 128.822 228.293 128.6L233.987 121.538C234.246 121.205 234.246 120.725 233.95 120.429C233.58 120.022 233.654 119.394 234.135 119.098L237.315 117.323C237.426 117.286 237.5 117.212 237.574 117.101L242.602 110.89C243.009 110.409 242.75 109.67 242.121 109.522C241.604 109.411 241.086 109.374 240.605 109.374C238.942 109.374 237.426 109.966 236.021 111.223C234.948 112.147 234.135 113.293 233.507 114.661C233.322 115.068 232.878 115.253 232.471 115.105L231.325 114.698C230.992 114.587 230.771 114.254 230.771 113.922L230.623 106.379C230.623 105.899 230.992 105.529 231.473 105.529L253.139 105.677C253.804 105.677 254.211 106.453 253.804 107.008L246.225 117.656C245.929 117.915 245.966 118.395 246.262 118.691Z" fill="#2E5A56"/>
<path d="M34.0631 44.6763H17.9993" stroke="url(#paint12_linear)" stroke-width="3" stroke-miterlimit="10"/>
<path d="M41.0304 23.5804L28.8374 17" stroke="url(#paint13_linear)" stroke-width="3" stroke-miterlimit="10"/>
<path d="M39.869 64.6108L28.2566 75.4491" stroke="url(#paint14_linear)" stroke-width="3" stroke-miterlimit="10"/>
<path d="M196.161 42.6763H212.225" stroke="url(#paint15_linear)" stroke-width="3" stroke-miterlimit="10"/>
<path d="M188.999 21.3868L201.192 15" stroke="url(#paint16_linear)" stroke-width="3" stroke-miterlimit="10"/>
<path d="M190.354 62.4175L201.967 73.4493" stroke="url(#paint17_linear)" stroke-width="3" stroke-miterlimit="10"/>
<defs>
<linearGradient id="paint0_linear" x1="114.999" y1="0" x2="114.999" y2="106" gradientUnits="userSpaceOnUse">
<stop stop-color="#FFC700"/>
<stop offset="1" stop-color="#FC9517"/>
</linearGradient>
<linearGradient id="paint1_linear" x1="25.6044" y1="96.0781" x2="25.6044" y2="185.696" gradientUnits="userSpaceOnUse">
<stop stop-color="#8F5A2D"/>
<stop offset="1" stop-color="#351B06"/>
</linearGradient>
<linearGradient id="paint2_linear" x1="113.515" y1="96.0781" x2="113.515" y2="185.696" gradientUnits="userSpaceOnUse">
<stop stop-color="#73431B"/>
<stop offset="1" stop-color="#351B06"/>
</linearGradient>
<linearGradient id="paint3_linear" x1="159.999" y1="96" x2="159.999" y2="186" gradientUnits="userSpaceOnUse">
<stop stop-color="#6C4220"/>
<stop offset="1" stop-color="#351B06"/>
</linearGradient>
<linearGradient id="paint4_linear" x1="130.999" y1="134" x2="130.999" y2="186" gradientUnits="userSpaceOnUse">
<stop stop-color="#FFC700"/>
<stop offset="1" stop-color="#FC9517"/>
</linearGradient>
<linearGradient id="paint5_linear" x1="165.999" y1="134" x2="165.999" y2="186" gradientUnits="userSpaceOnUse">
<stop stop-color="#FFC700"/>
<stop offset="1" stop-color="#FC9517"/>
</linearGradient>
<linearGradient id="paint6_linear" x1="72.9993" y1="173" x2="72.9993" y2="271" gradientUnits="userSpaceOnUse">
<stop stop-color="#8F5A2D"/>
<stop offset="1" stop-color="#351B06"/>
</linearGradient>
<linearGradient id="paint7_linear" x1="159.499" y1="173" x2="159.499" y2="271" gradientUnits="userSpaceOnUse">
<stop stop-color="#8F5A2D"/>
<stop offset="1" stop-color="#351B06"/>
</linearGradient>
<linearGradient id="paint8_linear" x1="174.499" y1="173" x2="174.499" y2="271" gradientUnits="userSpaceOnUse">
<stop stop-color="#8F5A2D"/>
<stop offset="1" stop-color="#351B06"/>
</linearGradient>
<linearGradient id="paint9_linear" x1="156.499" y1="173" x2="156.499" y2="211" gradientUnits="userSpaceOnUse">
<stop stop-color="#FFC700"/>
<stop offset="1" stop-color="#FC9517"/>
</linearGradient>
<linearGradient id="paint10_linear" x1="221.278" y1="158.676" x2="221.278" y2="204.818" gradientUnits="userSpaceOnUse">
<stop stop-color="#FFC700"/>
<stop offset="1" stop-color="#FC9517"/>
</linearGradient>
<linearGradient id="paint11_linear" x1="241.567" y1="96.2485" x2="241.567" y2="142.39" gradientUnits="userSpaceOnUse">
<stop stop-color="#FFC700"/>
<stop offset="1" stop-color="#FC9517"/>
</linearGradient>
<linearGradient id="paint12_linear" x1="26.0312" y1="44.6763" x2="26.0312" y2="45.6763" gradientUnits="userSpaceOnUse">
<stop stop-color="#FFC700"/>
<stop offset="1" stop-color="#FC9517"/>
</linearGradient>
<linearGradient id="paint13_linear" x1="34.9339" y1="17" x2="34.9339" y2="23.5804" gradientUnits="userSpaceOnUse">
<stop stop-color="#FFC700"/>
<stop offset="1" stop-color="#FC9517"/>
</linearGradient>
<linearGradient id="paint14_linear" x1="34.0628" y1="64.6108" x2="34.0628" y2="75.4491" gradientUnits="userSpaceOnUse">
<stop stop-color="#FFC700"/>
<stop offset="1" stop-color="#FC9517"/>
</linearGradient>
<linearGradient id="paint15_linear" x1="204.193" y1="42.6763" x2="204.193" y2="43.6763" gradientUnits="userSpaceOnUse">
<stop stop-color="#FFC700"/>
<stop offset="1" stop-color="#FC9517"/>
</linearGradient>
<linearGradient id="paint16_linear" x1="195.096" y1="15" x2="195.096" y2="21.3868" gradientUnits="userSpaceOnUse">
<stop stop-color="#FFC700"/>
<stop offset="1" stop-color="#FC9517"/>
</linearGradient>
<linearGradient id="paint17_linear" x1="196.16" y1="62.4175" x2="196.16" y2="73.4493" gradientUnits="userSpaceOnUse">
<stop stop-color="#FFC700"/>
<stop offset="1" stop-color="#FC9517"/>
</linearGradient>
</defs>
</svg>
