<svg width="271" height="271" viewBox="0 0 271 271" fill="none" xmlns="http://www.w3.org/2000/svg">
<path d="M65.9421 64.5H56.8894V39.7148L56.9773 35.6426L57.1238 31.1895C55.6199 32.6934 54.575 33.6797 53.989 34.1484L49.0671 38.1035L44.7019 32.6543L58.5007 21.668H65.9421V64.5ZM107.544 43.084C107.544 50.5645 106.313 56.1016 103.852 59.6953C101.411 63.2891 97.6414 65.0859 92.5437 65.0859C87.6023 65.0859 83.8718 63.2305 81.3523 59.5195C78.8523 55.8086 77.6023 50.3301 77.6023 43.084C77.6023 35.5254 78.823 29.959 81.2644 26.3848C83.7058 22.791 87.4656 20.9941 92.5437 20.9941C97.4851 20.9941 101.216 22.8691 103.735 26.6191C106.274 30.3691 107.544 35.8574 107.544 43.084ZM86.5964 43.084C86.5964 48.3379 87.0457 52.1074 87.9441 54.3926C88.8621 56.6582 90.3953 57.791 92.5437 57.791C94.6531 57.791 96.1765 56.6387 97.114 54.334C98.0515 52.0293 98.5203 48.2793 98.5203 43.084C98.5203 37.8301 98.0417 34.0605 97.0847 31.7754C96.1472 29.4707 94.6335 28.3184 92.5437 28.3184C90.4148 28.3184 88.8914 29.4707 87.9734 31.7754C87.0554 34.0605 86.5964 37.8301 86.5964 43.084ZM141.821 43.084C141.821 50.5645 140.591 56.1016 138.13 59.6953C135.688 63.2891 131.919 65.0859 126.821 65.0859C121.88 65.0859 118.149 63.2305 115.63 59.5195C113.13 55.8086 111.88 50.3301 111.88 43.084C111.88 35.5254 113.1 29.959 115.542 26.3848C117.983 22.791 121.743 20.9941 126.821 20.9941C131.762 20.9941 135.493 22.8691 138.012 26.6191C140.552 30.3691 141.821 35.8574 141.821 43.084ZM120.874 43.084C120.874 48.3379 121.323 52.1074 122.221 54.3926C123.139 56.6582 124.673 57.791 126.821 57.791C128.93 57.791 130.454 56.6387 131.391 54.334C132.329 52.0293 132.798 48.2793 132.798 43.084C132.798 37.8301 132.319 34.0605 131.362 31.7754C130.425 29.4707 128.911 28.3184 126.821 28.3184C124.692 28.3184 123.169 29.4707 122.251 31.7754C121.333 34.0605 120.874 37.8301 120.874 43.084ZM183.833 64.5H173.52L162.3 46.4531L158.462 49.207V64.5H149.38V21.668H158.462V41.2676L162.036 36.2285L173.637 21.668H183.716L168.774 40.623L183.833 64.5Z" fill="url(#paint0_linear)"/>
<path d="M182.995 178.5H45.9949V101.5H182.995V178.5Z" fill="#380000"/>
<path d="M131.995 101.5H182.995V178.5H131.995V101.5Z" fill="#380000"/>
<path d="M183.218 185.196C158.51 185.196 138.409 165.095 138.409 140.387C138.409 115.679 158.51 95.5781 183.218 95.5781C186.753 95.5781 189.619 98.4442 189.619 101.979V178.795C189.619 182.33 186.753 185.196 183.218 185.196Z" fill="#4F2424"/>
<path d="M45.8039 185.196C21.0962 185.196 0.994873 165.095 0.994873 140.387C0.994873 115.679 21.0962 95.5781 45.8039 95.5781C49.3391 95.5781 52.2052 98.4442 52.2052 101.979V178.795C52.2052 182.33 49.3391 185.196 45.8039 185.196Z" fill="url(#paint1_linear)"/>
<path d="M183.218 185.196H45.8039C42.2687 185.196 39.4026 182.33 39.4026 178.795V101.979C39.4026 98.4442 42.2687 95.5781 45.8039 95.5781H183.218C186.753 95.5781 189.619 98.4442 189.619 101.979V178.795C189.619 182.33 186.753 185.196 183.218 185.196ZM52.2052 172.394H176.817V108.381H52.2052V172.394Z" fill="url(#paint2_linear)"/>
<path d="M183.55 95.5H131.995V108.357H177.106V172.643H131.995V185.5H183.55C187.109 185.5 189.995 182.622 189.995 179.071V101.929C189.995 98.3783 187.109 95.5 183.55 95.5Z" fill="url(#paint3_linear)"/>
<path d="M195.631 185.5H68.3585C66.1987 185.5 64.1861 184.381 63.0139 182.528C61.8413 180.675 61.6695 178.341 62.5566 176.329C68.104 163.755 77.5294 153.055 89.8142 145.385C102.267 137.61 116.853 133.5 131.995 133.5C147.137 133.5 161.723 137.61 174.176 145.385C186.46 153.055 195.886 163.755 201.433 176.329C202.32 178.341 202.148 180.675 200.976 182.528C199.804 184.381 197.791 185.5 195.631 185.5Z" fill="url(#paint4_linear)"/>
<path d="M201.433 176.329C195.886 163.755 186.46 153.055 174.176 145.385C161.723 137.61 147.137 133.5 131.995 133.5V185.5H195.631C197.791 185.5 199.804 184.381 200.976 182.528C202.148 180.675 202.32 178.341 201.433 176.329Z" fill="url(#paint5_linear)"/>
<path d="M102.513 270.5H45.4764C41.8968 270.5 38.9949 267.638 38.9949 264.109V178.891C38.9949 175.362 41.8968 172.5 45.4764 172.5H102.513C106.093 172.5 108.995 175.362 108.995 178.891V264.109C108.995 267.638 106.093 270.5 102.513 270.5Z" fill="url(#paint6_linear)"/>
<path d="M101.995 172.5H212.613C216.138 172.5 218.995 175.362 218.995 178.891V264.109C218.995 267.638 216.138 270.5 212.613 270.5H101.995V172.5Z" fill="url(#paint7_linear)"/>
<path d="M212.629 172.5H131.995V270.5H212.629C216.145 270.5 218.995 267.638 218.995 264.109V178.891C218.995 175.362 216.145 172.5 212.629 172.5Z" fill="url(#paint8_linear)"/>
<path d="M157.834 210.497C146.924 210.679 137.995 201.795 137.995 191.163V172.5H176.995V191.5C176.995 201.867 168.43 210.32 157.834 210.497Z" fill="url(#paint9_linear)"/>
<path d="M150.995 172.5V191.25C150.995 194.696 153.911 197.5 157.495 197.5C161.079 197.5 163.995 194.696 163.995 191.25V172.5H150.995Z" fill="#FFD34F"/>
<path d="M227.634 209.716C240.376 209.716 250.705 199.386 250.705 186.645C250.705 173.903 240.376 163.574 227.634 163.574C214.892 163.574 204.563 173.903 204.563 186.645C204.563 199.386 214.892 209.716 227.634 209.716Z" fill="#341212"/>
<path d="M222.274 204.318C235.016 204.318 245.345 193.989 245.345 181.247C245.345 168.505 235.016 158.176 222.274 158.176C209.532 158.176 199.203 168.505 199.203 181.247C199.203 193.989 209.532 204.318 222.274 204.318Z" fill="url(#paint10_linear)"/>
<path d="M226.969 180.619L227.08 180.73C227.449 181.099 227.375 181.765 226.932 182.061L223.53 184.094C223.456 184.131 223.345 184.205 223.308 184.316L218.983 189.973C218.65 190.417 218.835 191.082 219.352 191.267C220.314 191.637 221.238 191.822 222.162 191.822C223.974 191.822 225.712 191.119 227.375 189.677C228.669 188.568 229.705 187.237 230.481 185.647C230.666 185.277 231.073 185.093 231.442 185.203L233.143 185.647C233.55 185.758 233.809 186.128 233.772 186.534L233.18 194.779C233.143 195.223 232.773 195.556 232.33 195.556L211.477 195.593C211.144 195.593 210.849 195.408 210.738 195.112L208.889 191.415C208.741 191.119 208.778 190.749 209 190.528L214.694 183.466C214.953 183.133 214.953 182.652 214.657 182.357C214.287 181.95 214.361 181.321 214.842 181.026L218.021 179.251C218.132 179.214 218.206 179.14 218.28 179.029L223.308 172.818C223.715 172.337 223.456 171.597 222.828 171.45C222.31 171.339 221.792 171.302 221.312 171.302C219.648 171.302 218.132 171.893 216.727 173.15C215.655 174.075 214.842 175.221 214.213 176.589C214.028 176.995 213.585 177.18 213.178 177.032L212.032 176.626C211.699 176.515 211.477 176.182 211.477 175.849L211.329 168.307C211.329 167.826 211.699 167.457 212.18 167.457L233.846 167.604C234.511 167.604 234.918 168.381 234.511 168.935L226.932 179.584C226.636 179.842 226.673 180.323 226.969 180.619Z" fill="#2E5A56"/>
<path d="M247.923 147.288C260.665 147.288 270.994 136.959 270.994 124.217C270.994 111.475 260.665 101.146 247.923 101.146C235.182 101.146 224.852 111.475 224.852 124.217C224.852 136.959 235.182 147.288 247.923 147.288Z" fill="#341212"/>
<path d="M242.563 141.89C255.305 141.89 265.634 131.561 265.634 118.819C265.634 106.078 255.305 95.7485 242.563 95.7485C229.821 95.7485 219.492 106.078 219.492 118.819C219.492 131.561 229.821 141.89 242.563 141.89Z" fill="url(#paint11_linear)"/>
<path d="M247.258 118.191L247.369 118.302C247.738 118.672 247.664 119.337 247.221 119.633L243.819 121.667C243.745 121.703 243.634 121.777 243.597 121.888L239.272 127.545C238.939 127.989 239.124 128.654 239.641 128.839C240.603 129.209 241.527 129.394 242.451 129.394C244.263 129.394 246.001 128.691 247.664 127.249C248.958 126.14 249.994 124.809 250.77 123.219C250.955 122.85 251.362 122.665 251.731 122.776L253.432 123.219C253.839 123.33 254.098 123.7 254.061 124.107L253.469 132.352C253.432 132.795 253.062 133.128 252.619 133.128L231.766 133.165C231.433 133.165 231.138 132.98 231.027 132.684L229.178 128.987C229.03 128.691 229.067 128.322 229.289 128.1L234.983 121.038C235.242 120.705 235.242 120.225 234.946 119.929C234.576 119.522 234.65 118.894 235.131 118.598L238.31 116.823C238.421 116.786 238.495 116.712 238.569 116.601L243.597 110.39C244.004 109.909 243.745 109.17 243.117 109.022C242.599 108.911 242.082 108.874 241.601 108.874C239.937 108.874 238.421 109.466 237.016 110.723C235.944 111.647 235.131 112.793 234.502 114.161C234.317 114.568 233.874 114.753 233.467 114.605L232.321 114.198C231.988 114.087 231.766 113.754 231.766 113.422L231.618 105.879C231.618 105.399 231.988 105.029 232.469 105.029L254.135 105.177C254.8 105.177 255.207 105.953 254.8 106.508L247.221 117.156C246.925 117.415 246.962 117.895 247.258 118.191Z" fill="#2E5A56"/>
<path d="M32.0587 45.1763H15.9949" stroke="url(#paint12_linear)" stroke-width="3" stroke-miterlimit="10"/>
<path d="M39.0258 24.0804L26.8328 17.5" stroke="url(#paint13_linear)" stroke-width="3" stroke-miterlimit="10"/>
<path d="M37.8646 65.1108L26.2522 75.9491" stroke="url(#paint14_linear)" stroke-width="3" stroke-miterlimit="10"/>
<path d="M198.157 43.1763H214.221" stroke="url(#paint15_linear)" stroke-width="3" stroke-miterlimit="10"/>
<path d="M190.995 21.8868L203.188 15.5" stroke="url(#paint16_linear)" stroke-width="3" stroke-miterlimit="10"/>
<path d="M192.35 62.9175L203.962 73.9493" stroke="url(#paint17_linear)" stroke-width="3" stroke-miterlimit="10"/>
<defs>
<linearGradient id="paint0_linear" x1="112.495" y1="0.5" x2="112.495" y2="106.5" gradientUnits="userSpaceOnUse">
<stop stop-color="#FFC700"/>
<stop offset="1" stop-color="#FC9517"/>
</linearGradient>
<linearGradient id="paint1_linear" x1="26.6" y1="95.5781" x2="26.6" y2="185.196" gradientUnits="userSpaceOnUse">
<stop stop-color="#8F5A2D"/>
<stop offset="1" stop-color="#351B06"/>
</linearGradient>
<linearGradient id="paint2_linear" x1="114.511" y1="95.5781" x2="114.511" y2="185.196" gradientUnits="userSpaceOnUse">
<stop stop-color="#73431B"/>
<stop offset="1" stop-color="#351B06"/>
</linearGradient>
<linearGradient id="paint3_linear" x1="160.995" y1="95.5" x2="160.995" y2="185.5" gradientUnits="userSpaceOnUse">
<stop stop-color="#6C4220"/>
<stop offset="1" stop-color="#351B06"/>
</linearGradient>
<linearGradient id="paint4_linear" x1="131.995" y1="133.5" x2="131.995" y2="185.5" gradientUnits="userSpaceOnUse">
<stop stop-color="#FFC700"/>
<stop offset="1" stop-color="#FC9517"/>
</linearGradient>
<linearGradient id="paint5_linear" x1="166.995" y1="133.5" x2="166.995" y2="185.5" gradientUnits="userSpaceOnUse">
<stop stop-color="#FFC700"/>
<stop offset="1" stop-color="#FC9517"/>
</linearGradient>
<linearGradient id="paint6_linear" x1="73.9949" y1="172.5" x2="73.9949" y2="270.5" gradientUnits="userSpaceOnUse">
<stop stop-color="#8F5A2D"/>
<stop offset="1" stop-color="#351B06"/>
</linearGradient>
<linearGradient id="paint7_linear" x1="160.495" y1="172.5" x2="160.495" y2="270.5" gradientUnits="userSpaceOnUse">
<stop stop-color="#8F5A2D"/>
<stop offset="1" stop-color="#351B06"/>
</linearGradient>
<linearGradient id="paint8_linear" x1="175.495" y1="172.5" x2="175.495" y2="270.5" gradientUnits="userSpaceOnUse">
<stop stop-color="#8F5A2D"/>
<stop offset="1" stop-color="#351B06"/>
</linearGradient>
<linearGradient id="paint9_linear" x1="157.495" y1="172.5" x2="157.495" y2="210.5" gradientUnits="userSpaceOnUse">
<stop stop-color="#FFC700"/>
<stop offset="1" stop-color="#FC9517"/>
</linearGradient>
<linearGradient id="paint10_linear" x1="222.274" y1="158.176" x2="222.274" y2="204.318" gradientUnits="userSpaceOnUse">
<stop stop-color="#FFC700"/>
<stop offset="1" stop-color="#FC9517"/>
</linearGradient>
<linearGradient id="paint11_linear" x1="242.563" y1="95.7485" x2="242.563" y2="141.89" gradientUnits="userSpaceOnUse">
<stop stop-color="#FFC700"/>
<stop offset="1" stop-color="#FC9517"/>
</linearGradient>
<linearGradient id="paint12_linear" x1="24.0268" y1="45.1763" x2="24.0268" y2="46.1763" gradientUnits="userSpaceOnUse">
<stop stop-color="#FFC700"/>
<stop offset="1" stop-color="#FC9517"/>
</linearGradient>
<linearGradient id="paint13_linear" x1="32.9293" y1="17.5" x2="32.9293" y2="24.0804" gradientUnits="userSpaceOnUse">
<stop stop-color="#FFC700"/>
<stop offset="1" stop-color="#FC9517"/>
</linearGradient>
<linearGradient id="paint14_linear" x1="32.0584" y1="65.1108" x2="32.0584" y2="75.9491" gradientUnits="userSpaceOnUse">
<stop stop-color="#FFC700"/>
<stop offset="1" stop-color="#FC9517"/>
</linearGradient>
<linearGradient id="paint15_linear" x1="206.189" y1="43.1763" x2="206.189" y2="44.1763" gradientUnits="userSpaceOnUse">
<stop stop-color="#FFC700"/>
<stop offset="1" stop-color="#FC9517"/>
</linearGradient>
<linearGradient id="paint16_linear" x1="197.091" y1="15.5" x2="197.091" y2="21.8868" gradientUnits="userSpaceOnUse">
<stop stop-color="#FFC700"/>
<stop offset="1" stop-color="#FC9517"/>
</linearGradient>
<linearGradient id="paint17_linear" x1="198.156" y1="62.9175" x2="198.156" y2="73.9493" gradientUnits="userSpaceOnUse">
<stop stop-color="#FFC700"/>
<stop offset="1" stop-color="#FC9517"/>
</linearGradient>
</defs>
</svg>
