<svg width="271" height="271" viewBox="0 0 271 271" fill="none" xmlns="http://www.w3.org/2000/svg">
<path d="M78.1978 64H69.145V39.2148L69.2329 35.1426L69.3794 30.6895C67.8755 32.1934 66.8306 33.1797 66.2446 33.6484L61.3228 37.6035L56.9575 32.1543L70.7563 21.168H78.1978V64ZM119.799 42.584C119.799 50.0645 118.569 55.6016 116.108 59.1953C113.667 62.7891 109.897 64.5859 104.799 64.5859C99.8579 64.5859 96.1274 62.7305 93.6079 59.0195C91.1079 55.3086 89.8579 49.8301 89.8579 42.584C89.8579 35.0254 91.0786 29.459 93.52 25.8848C95.9614 22.291 99.7212 20.4941 104.799 20.4941C109.741 20.4941 113.471 22.3691 115.991 26.1191C118.53 29.8691 119.799 35.3574 119.799 42.584ZM98.8521 42.584C98.8521 47.8379 99.3013 51.6074 100.2 53.8926C101.118 56.1582 102.651 57.291 104.799 57.291C106.909 57.291 108.432 56.1387 109.37 53.834C110.307 51.5293 110.776 47.7793 110.776 42.584C110.776 37.3301 110.297 33.5605 109.34 31.2754C108.403 28.9707 106.889 27.8184 104.799 27.8184C102.67 27.8184 101.147 28.9707 100.229 31.2754C99.311 33.5605 98.8521 37.3301 98.8521 42.584ZM145.493 64L135.18 30.3965H134.917C135.288 37.2324 135.473 41.793 135.473 44.0781V64H127.358V21.168H139.721L149.858 53.9219H150.034L160.786 21.168H173.149V64H164.682V43.7266C164.682 42.7695 164.692 41.666 164.711 40.416C164.75 39.166 164.887 35.8457 165.122 30.4551H164.858L153.813 64H145.493Z" fill="url(#paint0_linear)"/>
<path d="M182.991 179H45.9907V102H182.991V179Z" fill="#380000"/>
<path d="M131.991 102H182.991V179H131.991V102Z" fill="#380000"/>
<path d="M183.214 185.696C158.506 185.696 138.405 165.595 138.405 140.887C138.405 116.179 158.506 96.0781 183.214 96.0781C186.749 96.0781 189.615 98.9442 189.615 102.479V179.295C189.615 182.83 186.749 185.696 183.214 185.696Z" fill="#4F2424"/>
<path d="M45.7997 185.696C21.092 185.696 0.990723 165.595 0.990723 140.887C0.990723 116.179 21.092 96.0781 45.7997 96.0781C49.3349 96.0781 52.201 98.9442 52.201 102.479V179.295C52.201 182.83 49.3349 185.696 45.7997 185.696Z" fill="url(#paint1_linear)"/>
<path d="M183.214 185.696H45.7997C42.2645 185.696 39.3984 182.83 39.3984 179.295V102.479C39.3984 98.9442 42.2645 96.0781 45.7997 96.0781H183.214C186.749 96.0781 189.615 98.9442 189.615 102.479V179.295C189.615 182.83 186.749 185.696 183.214 185.696ZM52.201 172.894H176.813V108.881H52.201V172.894Z" fill="url(#paint2_linear)"/>
<path d="M183.546 96H131.991V108.857H177.102V173.143H131.991V186H183.546C187.105 186 189.991 183.122 189.991 179.571V102.429C189.991 98.8783 187.105 96 183.546 96Z" fill="url(#paint3_linear)"/>
<path d="M195.627 186H68.3544C66.1946 186 64.1819 184.881 63.0098 183.028C61.8372 181.175 61.6653 178.841 62.5524 176.829C68.0998 164.255 77.5252 153.555 89.81 145.885C102.263 138.11 116.849 134 131.991 134C147.133 134 161.719 138.11 174.171 145.885C186.456 153.555 195.882 164.255 201.429 176.829C202.316 178.841 202.144 181.175 200.972 183.028C199.799 184.881 197.787 186 195.627 186Z" fill="url(#paint4_linear)"/>
<path d="M201.429 176.829C195.882 164.255 186.456 153.555 174.171 145.885C161.719 138.11 147.133 134 131.991 134V186H195.627C197.787 186 199.799 184.881 200.972 183.028C202.144 181.175 202.316 178.841 201.429 176.829Z" fill="url(#paint5_linear)"/>
<path d="M102.509 271H45.4722C41.8927 271 38.9907 268.138 38.9907 264.609V179.391C38.9907 175.862 41.8927 173 45.4722 173H102.509C106.089 173 108.991 175.862 108.991 179.391V264.609C108.991 268.138 106.089 271 102.509 271Z" fill="url(#paint6_linear)"/>
<path d="M101.991 173H212.609C216.133 173 218.991 175.862 218.991 179.391V264.609C218.991 268.138 216.133 271 212.609 271H101.991V173Z" fill="url(#paint7_linear)"/>
<path d="M212.625 173H131.991V271H212.625C216.141 271 218.991 268.138 218.991 264.609V179.391C218.991 175.862 216.141 173 212.625 173Z" fill="url(#paint8_linear)"/>
<path d="M157.83 210.997C146.92 211.179 137.991 202.295 137.991 191.663V173H176.991V192C176.991 202.367 168.426 210.82 157.83 210.997Z" fill="url(#paint9_linear)"/>
<path d="M150.991 173V191.75C150.991 195.196 153.907 198 157.491 198C161.075 198 163.991 195.196 163.991 191.75V173H150.991Z" fill="#FFD34F"/>
<path d="M38.9907 233H108.991V245H38.9907V233Z" fill="url(#paint10_linear)"/>
<path d="M101.991 233H218.991V245H101.991V233Z" fill="url(#paint11_linear)"/>
<path d="M131.991 233H218.991V245H131.991V233Z" fill="url(#paint12_linear)"/>
<path d="M227.63 210.216C240.372 210.216 250.701 199.886 250.701 187.145C250.701 174.403 240.372 164.074 227.63 164.074C214.888 164.074 204.559 174.403 204.559 187.145C204.559 199.886 214.888 210.216 227.63 210.216Z" fill="#341212"/>
<path d="M222.27 204.818C235.011 204.818 245.341 194.489 245.341 181.747C245.341 169.005 235.011 158.676 222.27 158.676C209.528 158.676 199.199 169.005 199.199 181.747C199.199 194.489 209.528 204.818 222.27 204.818Z" fill="url(#paint13_linear)"/>
<path d="M226.964 181.119L227.075 181.23C227.445 181.599 227.371 182.265 226.927 182.561L223.526 184.594C223.452 184.631 223.341 184.705 223.304 184.816L218.978 190.473C218.645 190.917 218.83 191.582 219.348 191.767C220.309 192.137 221.233 192.322 222.158 192.322C223.969 192.322 225.707 191.619 227.371 190.177C228.665 189.068 229.7 187.737 230.477 186.147C230.662 185.777 231.068 185.593 231.438 185.703L233.139 186.147C233.545 186.258 233.804 186.628 233.767 187.034L233.176 195.279C233.139 195.723 232.769 196.056 232.325 196.056L211.473 196.093C211.14 196.093 210.844 195.908 210.733 195.612L208.885 191.915C208.737 191.619 208.774 191.249 208.996 191.028L214.689 183.966C214.948 183.633 214.948 183.152 214.652 182.857C214.283 182.45 214.357 181.821 214.837 181.526L218.017 179.751C218.128 179.714 218.202 179.64 218.276 179.529L223.304 173.318C223.711 172.837 223.452 172.097 222.823 171.95C222.306 171.839 221.788 171.802 221.307 171.802C219.644 171.802 218.128 172.393 216.723 173.65C215.651 174.575 214.837 175.721 214.209 177.089C214.024 177.495 213.58 177.68 213.173 177.532L212.027 177.126C211.695 177.015 211.473 176.682 211.473 176.349L211.325 168.807C211.325 168.326 211.695 167.957 212.175 167.957L233.841 168.104C234.507 168.104 234.913 168.881 234.507 169.435L226.927 180.084C226.631 180.342 226.668 180.823 226.964 181.119Z" fill="#2E5A56"/>
<path d="M247.919 147.788C260.661 147.788 270.99 137.459 270.99 124.717C270.99 111.975 260.661 101.646 247.919 101.646C235.177 101.646 224.848 111.975 224.848 124.717C224.848 137.459 235.177 147.788 247.919 147.788Z" fill="#341212"/>
<path d="M242.559 142.39C255.3 142.39 265.63 132.061 265.63 119.319C265.63 106.578 255.3 96.2485 242.559 96.2485C229.817 96.2485 219.488 106.578 219.488 119.319C219.488 132.061 229.817 142.39 242.559 142.39Z" fill="url(#paint14_linear)"/>
<path d="M247.253 118.691L247.364 118.802C247.734 119.172 247.66 119.837 247.216 120.133L243.815 122.167C243.741 122.203 243.63 122.277 243.593 122.388L239.267 128.045C238.934 128.489 239.119 129.154 239.637 129.339C240.598 129.709 241.523 129.894 242.447 129.894C244.259 129.894 245.996 129.191 247.66 127.749C248.954 126.64 249.989 125.309 250.766 123.719C250.951 123.35 251.357 123.165 251.727 123.276L253.428 123.719C253.834 123.83 254.093 124.2 254.056 124.607L253.465 132.852C253.428 133.295 253.058 133.628 252.614 133.628L231.762 133.665C231.429 133.665 231.133 133.48 231.022 133.184L229.174 129.487C229.026 129.191 229.063 128.822 229.285 128.6L234.978 121.538C235.237 121.205 235.237 120.725 234.941 120.429C234.572 120.022 234.646 119.394 235.126 119.098L238.306 117.323C238.417 117.286 238.491 117.212 238.565 117.101L243.593 110.89C244 110.409 243.741 109.67 243.112 109.522C242.595 109.411 242.077 109.374 241.596 109.374C239.933 109.374 238.417 109.966 237.012 111.223C235.94 112.147 235.126 113.293 234.498 114.661C234.313 115.068 233.869 115.253 233.463 115.105L232.316 114.698C231.984 114.587 231.762 114.254 231.762 113.922L231.614 106.379C231.614 105.899 231.984 105.529 232.464 105.529L254.13 105.677C254.796 105.677 255.202 106.453 254.796 107.008L247.216 117.656C246.921 117.915 246.958 118.395 247.253 118.691Z" fill="#2E5A56"/>
<path d="M35.0546 44.6763H18.9907" stroke="url(#paint15_linear)" stroke-width="3" stroke-miterlimit="10"/>
<path d="M42.0217 23.5804L29.8286 17" stroke="url(#paint16_linear)" stroke-width="3" stroke-miterlimit="10"/>
<path d="M40.8605 64.6108L29.248 75.4491" stroke="url(#paint17_linear)" stroke-width="3" stroke-miterlimit="10"/>
<path d="M197.152 42.6763H213.216" stroke="url(#paint18_linear)" stroke-width="3" stroke-miterlimit="10"/>
<path d="M189.991 21.3868L202.184 15" stroke="url(#paint19_linear)" stroke-width="3" stroke-miterlimit="10"/>
<path d="M191.346 62.4175L202.958 73.4493" stroke="url(#paint20_linear)" stroke-width="3" stroke-miterlimit="10"/>
<defs>
<linearGradient id="paint0_linear" x1="115.991" y1="0" x2="115.991" y2="106" gradientUnits="userSpaceOnUse">
<stop stop-color="#FFC700"/>
<stop offset="1" stop-color="#FC9517"/>
</linearGradient>
<linearGradient id="paint1_linear" x1="26.5959" y1="96.0781" x2="26.5959" y2="185.696" gradientUnits="userSpaceOnUse">
<stop stop-color="#8F5A2D"/>
<stop offset="1" stop-color="#351B06"/>
</linearGradient>
<linearGradient id="paint2_linear" x1="114.507" y1="96.0781" x2="114.507" y2="185.696" gradientUnits="userSpaceOnUse">
<stop stop-color="#73431B"/>
<stop offset="1" stop-color="#351B06"/>
</linearGradient>
<linearGradient id="paint3_linear" x1="160.991" y1="96" x2="160.991" y2="186" gradientUnits="userSpaceOnUse">
<stop stop-color="#6C4220"/>
<stop offset="1" stop-color="#351B06"/>
</linearGradient>
<linearGradient id="paint4_linear" x1="131.991" y1="134" x2="131.991" y2="186" gradientUnits="userSpaceOnUse">
<stop stop-color="#FFC700"/>
<stop offset="1" stop-color="#FC9517"/>
</linearGradient>
<linearGradient id="paint5_linear" x1="166.991" y1="134" x2="166.991" y2="186" gradientUnits="userSpaceOnUse">
<stop stop-color="#FFC700"/>
<stop offset="1" stop-color="#FC9517"/>
</linearGradient>
<linearGradient id="paint6_linear" x1="73.9907" y1="173" x2="73.9907" y2="271" gradientUnits="userSpaceOnUse">
<stop stop-color="#8F5A2D"/>
<stop offset="1" stop-color="#351B06"/>
</linearGradient>
<linearGradient id="paint7_linear" x1="160.491" y1="173" x2="160.491" y2="271" gradientUnits="userSpaceOnUse">
<stop stop-color="#8F5A2D"/>
<stop offset="1" stop-color="#351B06"/>
</linearGradient>
<linearGradient id="paint8_linear" x1="175.491" y1="173" x2="175.491" y2="271" gradientUnits="userSpaceOnUse">
<stop stop-color="#8F5A2D"/>
<stop offset="1" stop-color="#351B06"/>
</linearGradient>
<linearGradient id="paint9_linear" x1="157.491" y1="173" x2="157.491" y2="211" gradientUnits="userSpaceOnUse">
<stop stop-color="#FFC700"/>
<stop offset="1" stop-color="#FC9517"/>
</linearGradient>
<linearGradient id="paint10_linear" x1="73.9907" y1="233" x2="73.9907" y2="245" gradientUnits="userSpaceOnUse">
<stop stop-color="#FFC700"/>
<stop offset="1" stop-color="#FC9517"/>
</linearGradient>
<linearGradient id="paint11_linear" x1="160.491" y1="233" x2="160.491" y2="245" gradientUnits="userSpaceOnUse">
<stop stop-color="#FFC700"/>
<stop offset="1" stop-color="#FC9517"/>
</linearGradient>
<linearGradient id="paint12_linear" x1="175.491" y1="233" x2="175.491" y2="245" gradientUnits="userSpaceOnUse">
<stop stop-color="#FFC700"/>
<stop offset="1" stop-color="#FC9517"/>
</linearGradient>
<linearGradient id="paint13_linear" x1="222.27" y1="158.676" x2="222.27" y2="204.818" gradientUnits="userSpaceOnUse">
<stop stop-color="#FFC700"/>
<stop offset="1" stop-color="#FC9517"/>
</linearGradient>
<linearGradient id="paint14_linear" x1="242.559" y1="96.2485" x2="242.559" y2="142.39" gradientUnits="userSpaceOnUse">
<stop stop-color="#FFC700"/>
<stop offset="1" stop-color="#FC9517"/>
</linearGradient>
<linearGradient id="paint15_linear" x1="27.0227" y1="44.6763" x2="27.0227" y2="45.6763" gradientUnits="userSpaceOnUse">
<stop stop-color="#FFC700"/>
<stop offset="1" stop-color="#FC9517"/>
</linearGradient>
<linearGradient id="paint16_linear" x1="35.9251" y1="17" x2="35.9251" y2="23.5804" gradientUnits="userSpaceOnUse">
<stop stop-color="#FFC700"/>
<stop offset="1" stop-color="#FC9517"/>
</linearGradient>
<linearGradient id="paint17_linear" x1="35.0543" y1="64.6108" x2="35.0543" y2="75.4491" gradientUnits="userSpaceOnUse">
<stop stop-color="#FFC700"/>
<stop offset="1" stop-color="#FC9517"/>
</linearGradient>
<linearGradient id="paint18_linear" x1="205.184" y1="42.6763" x2="205.184" y2="43.6763" gradientUnits="userSpaceOnUse">
<stop stop-color="#FFC700"/>
<stop offset="1" stop-color="#FC9517"/>
</linearGradient>
<linearGradient id="paint19_linear" x1="196.087" y1="15" x2="196.087" y2="21.3868" gradientUnits="userSpaceOnUse">
<stop stop-color="#FFC700"/>
<stop offset="1" stop-color="#FC9517"/>
</linearGradient>
<linearGradient id="paint20_linear" x1="197.152" y1="62.4175" x2="197.152" y2="73.4493" gradientUnits="userSpaceOnUse">
<stop stop-color="#FFC700"/>
<stop offset="1" stop-color="#FC9517"/>
</linearGradient>
</defs>
</svg>
