<svg width="271" height="271" viewBox="0 0 271 271" fill="none" xmlns="http://www.w3.org/2000/svg">
<path d="M73.5 64H43.5586V57.7012L54.3105 46.832C57.4941 43.5703 59.5742 41.3145 60.5508 40.0645C61.5273 38.7949 62.2305 37.623 62.6602 36.5488C63.0898 35.4746 63.3047 34.3613 63.3047 33.209C63.3047 31.4902 62.8262 30.2109 61.8691 29.3711C60.9316 28.5312 59.6719 28.1113 58.0898 28.1113C56.4297 28.1113 54.8184 28.4922 53.2559 29.2539C51.6934 30.0156 50.0625 31.0996 48.3633 32.5059L43.4414 26.6758C45.5508 24.8789 47.2988 23.6094 48.6855 22.8672C50.0723 22.125 51.5859 21.5586 53.2266 21.168C54.8672 20.7578 56.7031 20.5527 58.7344 20.5527C61.4102 20.5527 63.7734 21.041 65.8242 22.0176C67.875 22.9941 69.4668 24.3613 70.5996 26.1191C71.7324 27.877 72.2988 29.8887 72.2988 32.1543C72.2988 34.127 71.9473 35.9824 71.2441 37.7207C70.5605 39.4395 69.4863 41.207 68.0215 43.0234C66.5762 44.8398 64.0176 47.4277 60.3457 50.7871L54.8379 55.9727V56.3828H73.5V64ZM93.4219 36.6367C97.5625 36.6367 100.854 37.7988 103.295 40.123C105.756 42.4473 106.986 45.6309 106.986 49.6738C106.986 54.459 105.512 58.1406 102.562 60.7188C99.6133 63.2969 95.3945 64.5859 89.9062 64.5859C85.1406 64.5859 81.293 63.8145 78.3633 62.2715V54.4492C79.9062 55.2695 81.7031 55.9434 83.7539 56.4707C85.8047 56.9785 87.748 57.2324 89.584 57.2324C95.1113 57.2324 97.875 54.9668 97.875 50.4355C97.875 46.1191 95.0137 43.9609 89.291 43.9609C88.2559 43.9609 87.1133 44.0684 85.8633 44.2832C84.6133 44.4785 83.5977 44.6934 82.8164 44.9277L79.2129 42.9941L80.8242 21.168H104.057V28.8438H88.7637L87.9727 37.252L88.998 37.0469C90.1895 36.7734 91.6641 36.6367 93.4219 36.6367ZM141.82 42.584C141.82 50.0645 140.59 55.6016 138.129 59.1953C135.688 62.7891 131.918 64.5859 126.82 64.5859C121.879 64.5859 118.148 62.7305 115.629 59.0195C113.129 55.3086 111.879 49.8301 111.879 42.584C111.879 35.0254 113.1 29.459 115.541 25.8848C117.982 22.291 121.742 20.4941 126.82 20.4941C131.762 20.4941 135.492 22.3691 138.012 26.1191C140.551 29.8691 141.82 35.3574 141.82 42.584ZM120.873 42.584C120.873 47.8379 121.322 51.6074 122.221 53.8926C123.139 56.1582 124.672 57.291 126.82 57.291C128.93 57.291 130.453 56.1387 131.391 53.834C132.328 51.5293 132.797 47.7793 132.797 42.584C132.797 37.3301 132.318 33.5605 131.361 31.2754C130.424 28.9707 128.91 27.8184 126.82 27.8184C124.691 27.8184 123.168 28.9707 122.25 31.2754C121.332 33.5605 120.873 37.3301 120.873 42.584ZM183.832 64H173.52L162.299 45.9531L158.461 48.707V64H149.379V21.168H158.461V40.7676L162.035 35.7285L173.637 21.168H183.715L168.773 40.123L183.832 64Z" fill="url(#paint0_linear)"/>
<path d="M182.994 179H45.9941V102H182.994V179Z" fill="#380000"/>
<path d="M131.994 102H182.994V179H131.994V102Z" fill="#380000"/>
<path d="M183.217 185.696C158.51 185.696 138.408 165.595 138.408 140.887C138.408 116.179 158.51 96.0781 183.217 96.0781C186.753 96.0781 189.619 98.9442 189.619 102.479V179.295C189.619 182.83 186.753 185.696 183.217 185.696Z" fill="#4F2424"/>
<path d="M45.8031 185.696C21.0955 185.696 0.994141 165.595 0.994141 140.887C0.994141 116.179 21.0955 96.0781 45.8031 96.0781C49.3383 96.0781 52.2044 98.9442 52.2044 102.479V179.295C52.2044 182.83 49.3383 185.696 45.8031 185.696Z" fill="url(#paint1_linear)"/>
<path d="M183.217 185.696H45.8031C42.2679 185.696 39.4019 182.83 39.4019 179.295V102.479C39.4019 98.9442 42.2679 96.0781 45.8031 96.0781H183.217C186.753 96.0781 189.619 98.9442 189.619 102.479V179.295C189.619 182.83 186.753 185.696 183.217 185.696ZM52.2044 172.894H176.816V108.881H52.2044V172.894Z" fill="url(#paint2_linear)"/>
<path d="M183.55 96H131.994V108.857H177.105V173.143H131.994V186H183.55C187.109 186 189.994 183.122 189.994 179.571V102.429C189.994 98.8783 187.109 96 183.55 96Z" fill="url(#paint3_linear)"/>
<path d="M195.63 186H68.3578C66.198 186 64.1854 184.881 63.0132 183.028C61.8406 181.175 61.6688 178.841 62.5559 176.829C68.1032 164.255 77.5286 153.555 89.8134 145.885C102.266 138.11 116.852 134 131.994 134C147.136 134 161.722 138.11 174.175 145.885C186.46 153.555 195.885 164.255 201.432 176.829C202.32 178.841 202.148 181.175 200.975 183.028C199.803 184.881 197.79 186 195.63 186Z" fill="url(#paint4_linear)"/>
<path d="M201.432 176.829C195.885 164.255 186.46 153.555 174.175 145.885C161.722 138.11 147.136 134 131.994 134V186H195.63C197.79 186 199.803 184.881 200.975 183.028C202.148 181.175 202.32 178.841 201.432 176.829Z" fill="url(#paint5_linear)"/>
<path d="M102.513 271H45.4756C41.8961 271 38.9941 268.138 38.9941 264.609V179.391C38.9941 175.862 41.8961 173 45.4756 173H102.513C106.092 173 108.994 175.862 108.994 179.391V264.609C108.994 268.138 106.092 271 102.513 271Z" fill="url(#paint6_linear)"/>
<path d="M101.994 173H212.612C216.137 173 218.994 175.862 218.994 179.391V264.609C218.994 268.138 216.137 271 212.612 271H101.994V173Z" fill="url(#paint7_linear)"/>
<path d="M212.628 173H131.994V271H212.628C216.144 271 218.994 268.138 218.994 264.609V179.391C218.994 175.862 216.144 173 212.628 173Z" fill="url(#paint8_linear)"/>
<path d="M157.833 210.997C146.923 211.179 137.994 202.295 137.994 191.663V173H176.994V192C176.994 202.367 168.43 210.82 157.833 210.997Z" fill="url(#paint9_linear)"/>
<path d="M150.994 173V191.75C150.994 195.196 153.91 198 157.494 198C161.078 198 163.994 195.196 163.994 191.75V173H150.994Z" fill="#FFD34F"/>
<path d="M227.633 210.216C240.375 210.216 250.704 199.886 250.704 187.145C250.704 174.403 240.375 164.074 227.633 164.074C214.892 164.074 204.562 174.403 204.562 187.145C204.562 199.886 214.892 210.216 227.633 210.216Z" fill="#341212"/>
<path d="M222.273 204.818C235.015 204.818 245.344 194.489 245.344 181.747C245.344 169.005 235.015 158.676 222.273 158.676C209.531 158.676 199.202 169.005 199.202 181.747C199.202 194.489 209.531 204.818 222.273 204.818Z" fill="url(#paint10_linear)"/>
<path d="M226.968 181.119L227.079 181.23C227.449 181.599 227.375 182.265 226.931 182.561L223.529 184.594C223.456 184.631 223.345 184.705 223.308 184.816L218.982 190.473C218.649 190.917 218.834 191.582 219.352 191.767C220.313 192.137 221.237 192.322 222.161 192.322C223.973 192.322 225.711 191.619 227.375 190.177C228.669 189.068 229.704 187.737 230.48 186.147C230.665 185.777 231.072 185.593 231.442 185.703L233.142 186.147C233.549 186.258 233.808 186.628 233.771 187.034L233.179 195.279C233.142 195.723 232.773 196.056 232.329 196.056L211.476 196.093C211.144 196.093 210.848 195.908 210.737 195.612L208.888 191.915C208.74 191.619 208.777 191.249 208.999 191.028L214.693 183.966C214.952 183.633 214.952 183.152 214.656 182.857C214.286 182.45 214.36 181.821 214.841 181.526L218.021 179.751C218.131 179.714 218.205 179.64 218.279 179.529L223.308 173.318C223.714 172.837 223.456 172.097 222.827 171.95C222.309 171.839 221.792 171.802 221.311 171.802C219.647 171.802 218.131 172.393 216.726 173.65C215.654 174.575 214.841 175.721 214.212 177.089C214.027 177.495 213.584 177.68 213.177 177.532L212.031 177.126C211.698 177.015 211.476 176.682 211.476 176.349L211.328 168.807C211.328 168.326 211.698 167.957 212.179 167.957L233.845 168.104C234.51 168.104 234.917 168.881 234.51 169.435L226.931 180.084C226.635 180.342 226.672 180.823 226.968 181.119Z" fill="#2E5A56"/>
<path d="M247.923 147.788C260.664 147.788 270.993 137.459 270.993 124.717C270.993 111.975 260.664 101.646 247.923 101.646C235.181 101.646 224.852 111.975 224.852 124.717C224.852 137.459 235.181 147.788 247.923 147.788Z" fill="#341212"/>
<path d="M242.562 142.39C255.304 142.39 265.633 132.061 265.633 119.319C265.633 106.578 255.304 96.2485 242.562 96.2485C229.82 96.2485 219.491 106.578 219.491 119.319C219.491 132.061 229.82 142.39 242.562 142.39Z" fill="url(#paint11_linear)"/>
<path d="M247.257 118.691L247.368 118.802C247.738 119.172 247.664 119.837 247.22 120.133L243.819 122.167C243.745 122.203 243.634 122.277 243.597 122.388L239.271 128.045C238.938 128.489 239.123 129.154 239.641 129.339C240.602 129.709 241.526 129.894 242.451 129.894C244.262 129.894 246 129.191 247.664 127.749C248.958 126.64 249.993 125.309 250.769 123.719C250.954 123.35 251.361 123.165 251.731 123.276L253.431 123.719C253.838 123.83 254.097 124.2 254.06 124.607L253.468 132.852C253.431 133.295 253.062 133.628 252.618 133.628L231.765 133.665C231.433 133.665 231.137 133.48 231.026 133.184L229.177 129.487C229.029 129.191 229.066 128.822 229.288 128.6L234.982 121.538C235.241 121.205 235.241 120.725 234.945 120.429C234.575 120.022 234.649 119.394 235.13 119.098L238.31 117.323C238.421 117.286 238.494 117.212 238.568 117.101L243.597 110.89C244.003 110.409 243.745 109.67 243.116 109.522C242.598 109.411 242.081 109.374 241.6 109.374C239.936 109.374 238.421 109.966 237.016 111.223C235.943 112.147 235.13 113.293 234.501 114.661C234.317 115.068 233.873 115.253 233.466 115.105L232.32 114.698C231.987 114.587 231.765 114.254 231.765 113.922L231.618 106.379C231.618 105.899 231.987 105.529 232.468 105.529L254.134 105.677C254.799 105.677 255.206 106.453 254.799 107.008L247.22 117.656C246.924 117.915 246.961 118.395 247.257 118.691Z" fill="#2E5A56"/>
<path d="M32.058 44.6763H15.9941" stroke="url(#paint12_linear)" stroke-width="3" stroke-miterlimit="10"/>
<path d="M39.0251 23.5804L26.832 17" stroke="url(#paint13_linear)" stroke-width="3" stroke-miterlimit="10"/>
<path d="M37.8639 64.6108L26.2515 75.4491" stroke="url(#paint14_linear)" stroke-width="3" stroke-miterlimit="10"/>
<path d="M198.156 42.6763H214.22" stroke="url(#paint15_linear)" stroke-width="3" stroke-miterlimit="10"/>
<path d="M190.994 21.3868L203.187 15" stroke="url(#paint16_linear)" stroke-width="3" stroke-miterlimit="10"/>
<path d="M192.349 62.4175L203.962 73.4493" stroke="url(#paint17_linear)" stroke-width="3" stroke-miterlimit="10"/>
<defs>
<linearGradient id="paint0_linear" x1="112.494" y1="0" x2="112.494" y2="106" gradientUnits="userSpaceOnUse">
<stop stop-color="#FFC700"/>
<stop offset="1" stop-color="#FC9517"/>
</linearGradient>
<linearGradient id="paint1_linear" x1="26.5993" y1="96.0781" x2="26.5993" y2="185.696" gradientUnits="userSpaceOnUse">
<stop stop-color="#8F5A2D"/>
<stop offset="1" stop-color="#351B06"/>
</linearGradient>
<linearGradient id="paint2_linear" x1="114.51" y1="96.0781" x2="114.51" y2="185.696" gradientUnits="userSpaceOnUse">
<stop stop-color="#73431B"/>
<stop offset="1" stop-color="#351B06"/>
</linearGradient>
<linearGradient id="paint3_linear" x1="160.994" y1="96" x2="160.994" y2="186" gradientUnits="userSpaceOnUse">
<stop stop-color="#6C4220"/>
<stop offset="1" stop-color="#351B06"/>
</linearGradient>
<linearGradient id="paint4_linear" x1="131.994" y1="134" x2="131.994" y2="186" gradientUnits="userSpaceOnUse">
<stop stop-color="#FFC700"/>
<stop offset="1" stop-color="#FC9517"/>
</linearGradient>
<linearGradient id="paint5_linear" x1="166.994" y1="134" x2="166.994" y2="186" gradientUnits="userSpaceOnUse">
<stop stop-color="#FFC700"/>
<stop offset="1" stop-color="#FC9517"/>
</linearGradient>
<linearGradient id="paint6_linear" x1="73.9941" y1="173" x2="73.9941" y2="271" gradientUnits="userSpaceOnUse">
<stop stop-color="#8F5A2D"/>
<stop offset="1" stop-color="#351B06"/>
</linearGradient>
<linearGradient id="paint7_linear" x1="160.494" y1="173" x2="160.494" y2="271" gradientUnits="userSpaceOnUse">
<stop stop-color="#8F5A2D"/>
<stop offset="1" stop-color="#351B06"/>
</linearGradient>
<linearGradient id="paint8_linear" x1="175.494" y1="173" x2="175.494" y2="271" gradientUnits="userSpaceOnUse">
<stop stop-color="#8F5A2D"/>
<stop offset="1" stop-color="#351B06"/>
</linearGradient>
<linearGradient id="paint9_linear" x1="157.494" y1="173" x2="157.494" y2="211" gradientUnits="userSpaceOnUse">
<stop stop-color="#FFC700"/>
<stop offset="1" stop-color="#FC9517"/>
</linearGradient>
<linearGradient id="paint10_linear" x1="222.273" y1="158.676" x2="222.273" y2="204.818" gradientUnits="userSpaceOnUse">
<stop stop-color="#FFC700"/>
<stop offset="1" stop-color="#FC9517"/>
</linearGradient>
<linearGradient id="paint11_linear" x1="242.562" y1="96.2485" x2="242.562" y2="142.39" gradientUnits="userSpaceOnUse">
<stop stop-color="#FFC700"/>
<stop offset="1" stop-color="#FC9517"/>
</linearGradient>
<linearGradient id="paint12_linear" x1="24.0261" y1="44.6763" x2="24.0261" y2="45.6763" gradientUnits="userSpaceOnUse">
<stop stop-color="#FFC700"/>
<stop offset="1" stop-color="#FC9517"/>
</linearGradient>
<linearGradient id="paint13_linear" x1="32.9286" y1="17" x2="32.9286" y2="23.5804" gradientUnits="userSpaceOnUse">
<stop stop-color="#FFC700"/>
<stop offset="1" stop-color="#FC9517"/>
</linearGradient>
<linearGradient id="paint14_linear" x1="32.0577" y1="64.6108" x2="32.0577" y2="75.4491" gradientUnits="userSpaceOnUse">
<stop stop-color="#FFC700"/>
<stop offset="1" stop-color="#FC9517"/>
</linearGradient>
<linearGradient id="paint15_linear" x1="206.188" y1="42.6763" x2="206.188" y2="43.6763" gradientUnits="userSpaceOnUse">
<stop stop-color="#FFC700"/>
<stop offset="1" stop-color="#FC9517"/>
</linearGradient>
<linearGradient id="paint16_linear" x1="197.091" y1="15" x2="197.091" y2="21.3868" gradientUnits="userSpaceOnUse">
<stop stop-color="#FFC700"/>
<stop offset="1" stop-color="#FC9517"/>
</linearGradient>
<linearGradient id="paint17_linear" x1="198.155" y1="62.4175" x2="198.155" y2="73.4493" gradientUnits="userSpaceOnUse">
<stop stop-color="#FFC700"/>
<stop offset="1" stop-color="#FC9517"/>
</linearGradient>
</defs>
</svg>
