<svg width="271" height="271" viewBox="0 0 271 271" fill="none" xmlns="http://www.w3.org/2000/svg">
<path d="M68.4468 64L84.5308 28.8438H63.4077V21.2266H94.1401V26.9102L77.939 64H68.4468ZM114.062 36.6367C118.203 36.6367 121.494 37.7988 123.935 40.123C126.396 42.4473 127.626 45.6309 127.626 49.6738C127.626 54.459 126.152 58.1406 123.203 60.7188C120.253 63.2969 116.035 64.5859 110.546 64.5859C105.781 64.5859 101.933 63.8145 99.0034 62.2715V54.4492C100.546 55.2695 102.343 55.9434 104.394 56.4707C106.445 56.9785 108.388 57.2324 110.224 57.2324C115.751 57.2324 118.515 54.9668 118.515 50.4355C118.515 46.1191 115.654 43.9609 109.931 43.9609C108.896 43.9609 107.753 44.0684 106.503 44.2832C105.253 44.4785 104.238 44.6934 103.457 44.9277L99.853 42.9941L101.464 21.168H124.697V28.8438H109.404L108.613 37.252L109.638 37.0469C110.83 36.7734 112.304 36.6367 114.062 36.6367ZM170.195 64H159.882L148.662 45.9531L144.824 48.707V64H135.742V21.168H144.824V40.7676L148.398 35.7285L160 21.168H170.078L155.136 40.123L170.195 64Z" fill="url(#paint0_linear)"/>
<path d="M182.996 179H45.9956V102H182.996V179Z" fill="#380000"/>
<path d="M131.996 102H182.996V179H131.996V102Z" fill="#380000"/>
<path d="M183.219 185.696C158.511 185.696 138.41 165.595 138.41 140.887C138.41 116.179 158.511 96.0781 183.219 96.0781C186.754 96.0781 189.62 98.9442 189.62 102.479V179.295C189.62 182.83 186.754 185.696 183.219 185.696Z" fill="#4F2424"/>
<path d="M45.8046 185.696C21.0969 185.696 0.995605 165.595 0.995605 140.887C0.995605 116.179 21.0969 96.0781 45.8046 96.0781C49.3398 96.0781 52.2059 98.9442 52.2059 102.479V179.295C52.2059 182.83 49.3398 185.696 45.8046 185.696Z" fill="url(#paint1_linear)"/>
<path d="M183.219 185.696H45.8046C42.2694 185.696 39.4033 182.83 39.4033 179.295V102.479C39.4033 98.9442 42.2694 96.0781 45.8046 96.0781H183.219C186.754 96.0781 189.62 98.9442 189.62 102.479V179.295C189.62 182.83 186.754 185.696 183.219 185.696ZM52.2059 172.894H176.818V108.881H52.2059V172.894Z" fill="url(#paint2_linear)"/>
<path d="M183.551 96H131.996V108.857H177.107V173.143H131.996V186H183.551C187.11 186 189.996 183.122 189.996 179.571V102.429C189.996 98.8783 187.11 96 183.551 96Z" fill="url(#paint3_linear)"/>
<path d="M195.632 186H68.3593C66.1994 186 64.1868 184.881 63.0146 183.028C61.842 181.175 61.6702 178.841 62.5573 176.829C68.1047 164.255 77.5301 153.555 89.8149 145.885C102.268 138.11 116.854 134 131.996 134C147.138 134 161.724 138.11 174.176 145.885C186.461 153.555 195.887 164.255 201.434 176.829C202.321 178.841 202.149 181.175 200.977 183.028C199.804 184.881 197.792 186 195.632 186Z" fill="url(#paint4_linear)"/>
<path d="M201.434 176.829C195.887 164.255 186.461 153.555 174.176 145.885C161.724 138.11 147.138 134 131.996 134V186H195.632C197.792 186 199.804 184.881 200.977 183.028C202.149 181.175 202.321 178.841 201.434 176.829Z" fill="url(#paint5_linear)"/>
<path d="M102.514 271H45.4771C41.8976 271 38.9956 268.138 38.9956 264.609V179.391C38.9956 175.862 41.8976 173 45.4771 173H102.514C106.094 173 108.996 175.862 108.996 179.391V264.609C108.996 268.138 106.094 271 102.514 271Z" fill="url(#paint6_linear)"/>
<path d="M101.996 173H212.614C216.138 173 218.996 175.862 218.996 179.391V264.609C218.996 268.138 216.138 271 212.614 271H101.996V173Z" fill="url(#paint7_linear)"/>
<path d="M212.63 173H131.996V271H212.63C216.145 271 218.996 268.138 218.996 264.609V179.391C218.996 175.862 216.145 173 212.63 173Z" fill="url(#paint8_linear)"/>
<path d="M157.834 210.997C146.925 211.179 137.996 202.295 137.996 191.663V173H176.996V192C176.996 202.367 168.431 210.82 157.834 210.997Z" fill="url(#paint9_linear)"/>
<path d="M150.996 173V191.75C150.996 195.196 153.912 198 157.496 198C161.08 198 163.996 195.196 163.996 191.75V173H150.996Z" fill="#FFD34F"/>
<path d="M227.635 210.216C240.377 210.216 250.706 199.886 250.706 187.145C250.706 174.403 240.377 164.074 227.635 164.074C214.893 164.074 204.564 174.403 204.564 187.145C204.564 199.886 214.893 210.216 227.635 210.216Z" fill="#341212"/>
<path d="M222.275 204.818C235.016 204.818 245.345 194.489 245.345 181.747C245.345 169.005 235.016 158.676 222.275 158.676C209.533 158.676 199.204 169.005 199.204 181.747C199.204 194.489 209.533 204.818 222.275 204.818Z" fill="url(#paint10_linear)"/>
<path d="M226.969 181.119L227.08 181.23C227.45 181.599 227.376 182.265 226.932 182.561L223.531 184.594C223.457 184.631 223.346 184.705 223.309 184.816L218.983 190.473C218.651 190.917 218.835 191.582 219.353 191.767C220.314 192.137 221.239 192.322 222.163 192.322C223.975 192.322 225.712 191.619 227.376 190.177C228.67 189.068 229.705 187.737 230.482 186.147C230.667 185.777 231.073 185.593 231.443 185.703L233.144 186.147C233.551 186.258 233.809 186.628 233.772 187.034L233.181 195.279C233.144 195.723 232.774 196.056 232.33 196.056L211.478 196.093C211.145 196.093 210.849 195.908 210.738 195.612L208.89 191.915C208.742 191.619 208.779 191.249 209.001 191.028L214.694 183.966C214.953 183.633 214.953 183.152 214.657 182.857C214.288 182.45 214.362 181.821 214.842 181.526L218.022 179.751C218.133 179.714 218.207 179.64 218.281 179.529L223.309 173.318C223.716 172.837 223.457 172.097 222.828 171.95C222.311 171.839 221.793 171.802 221.313 171.802C219.649 171.802 218.133 172.393 216.728 173.65C215.656 174.575 214.842 175.721 214.214 177.089C214.029 177.495 213.585 177.68 213.179 177.532L212.032 177.126C211.7 177.015 211.478 176.682 211.478 176.349L211.33 168.807C211.33 168.326 211.7 167.957 212.18 167.957L233.846 168.104C234.512 168.104 234.918 168.881 234.512 169.435L226.932 180.084C226.637 180.342 226.674 180.823 226.969 181.119Z" fill="#2E5A56"/>
<path d="M247.924 147.788C260.666 147.788 270.995 137.459 270.995 124.717C270.995 111.975 260.666 101.646 247.924 101.646C235.182 101.646 224.853 111.975 224.853 124.717C224.853 137.459 235.182 147.788 247.924 147.788Z" fill="#341212"/>
<path d="M242.564 142.39C255.305 142.39 265.635 132.061 265.635 119.319C265.635 106.578 255.305 96.2485 242.564 96.2485C229.822 96.2485 219.493 106.578 219.493 119.319C219.493 132.061 229.822 142.39 242.564 142.39Z" fill="url(#paint11_linear)"/>
<path d="M247.258 118.691L247.369 118.802C247.739 119.172 247.665 119.837 247.221 120.133L243.82 122.167C243.746 122.203 243.635 122.277 243.598 122.388L239.272 128.045C238.94 128.489 239.124 129.154 239.642 129.339C240.603 129.709 241.528 129.894 242.452 129.894C244.264 129.894 246.001 129.191 247.665 127.749C248.959 126.64 249.994 125.309 250.771 123.719C250.956 123.35 251.362 123.165 251.732 123.276L253.433 123.719C253.84 123.83 254.098 124.2 254.061 124.607L253.47 132.852C253.433 133.295 253.063 133.628 252.619 133.628L231.767 133.665C231.434 133.665 231.138 133.48 231.027 133.184L229.179 129.487C229.031 129.191 229.068 128.822 229.29 128.6L234.984 121.538C235.242 121.205 235.242 120.725 234.947 120.429C234.577 120.022 234.651 119.394 235.131 119.098L238.311 117.323C238.422 117.286 238.496 117.212 238.57 117.101L243.598 110.89C244.005 110.409 243.746 109.67 243.118 109.522C242.6 109.411 242.082 109.374 241.602 109.374C239.938 109.374 238.422 109.966 237.017 111.223C235.945 112.147 235.131 113.293 234.503 114.661C234.318 115.068 233.874 115.253 233.468 115.105L232.322 114.698C231.989 114.587 231.767 114.254 231.767 113.922L231.619 106.379C231.619 105.899 231.989 105.529 232.469 105.529L254.135 105.677C254.801 105.677 255.208 106.453 254.801 107.008L247.221 117.656C246.926 117.915 246.963 118.395 247.258 118.691Z" fill="#2E5A56"/>
<path d="M35.0595 44.6763H18.9956" stroke="url(#paint12_linear)" stroke-width="3" stroke-miterlimit="10"/>
<path d="M42.0265 23.5804L29.8335 17" stroke="url(#paint13_linear)" stroke-width="3" stroke-miterlimit="10"/>
<path d="M40.8654 64.6108L29.2529 75.4491" stroke="url(#paint14_linear)" stroke-width="3" stroke-miterlimit="10"/>
<path d="M197.157 42.6763H213.221" stroke="url(#paint15_linear)" stroke-width="3" stroke-miterlimit="10"/>
<path d="M189.996 21.3868L202.189 15" stroke="url(#paint16_linear)" stroke-width="3" stroke-miterlimit="10"/>
<path d="M191.351 62.4175L202.963 73.4493" stroke="url(#paint17_linear)" stroke-width="3" stroke-miterlimit="10"/>
<defs>
<linearGradient id="paint0_linear" x1="115.996" y1="0" x2="115.996" y2="106" gradientUnits="userSpaceOnUse">
<stop stop-color="#FFC700"/>
<stop offset="1" stop-color="#FC9517"/>
</linearGradient>
<linearGradient id="paint1_linear" x1="26.6007" y1="96.0781" x2="26.6007" y2="185.696" gradientUnits="userSpaceOnUse">
<stop stop-color="#8F5A2D"/>
<stop offset="1" stop-color="#351B06"/>
</linearGradient>
<linearGradient id="paint2_linear" x1="114.512" y1="96.0781" x2="114.512" y2="185.696" gradientUnits="userSpaceOnUse">
<stop stop-color="#73431B"/>
<stop offset="1" stop-color="#351B06"/>
</linearGradient>
<linearGradient id="paint3_linear" x1="160.996" y1="96" x2="160.996" y2="186" gradientUnits="userSpaceOnUse">
<stop stop-color="#6C4220"/>
<stop offset="1" stop-color="#351B06"/>
</linearGradient>
<linearGradient id="paint4_linear" x1="131.996" y1="134" x2="131.996" y2="186" gradientUnits="userSpaceOnUse">
<stop stop-color="#FFC700"/>
<stop offset="1" stop-color="#FC9517"/>
</linearGradient>
<linearGradient id="paint5_linear" x1="166.996" y1="134" x2="166.996" y2="186" gradientUnits="userSpaceOnUse">
<stop stop-color="#FFC700"/>
<stop offset="1" stop-color="#FC9517"/>
</linearGradient>
<linearGradient id="paint6_linear" x1="73.9956" y1="173" x2="73.9956" y2="271" gradientUnits="userSpaceOnUse">
<stop stop-color="#8F5A2D"/>
<stop offset="1" stop-color="#351B06"/>
</linearGradient>
<linearGradient id="paint7_linear" x1="160.496" y1="173" x2="160.496" y2="271" gradientUnits="userSpaceOnUse">
<stop stop-color="#8F5A2D"/>
<stop offset="1" stop-color="#351B06"/>
</linearGradient>
<linearGradient id="paint8_linear" x1="175.496" y1="173" x2="175.496" y2="271" gradientUnits="userSpaceOnUse">
<stop stop-color="#8F5A2D"/>
<stop offset="1" stop-color="#351B06"/>
</linearGradient>
<linearGradient id="paint9_linear" x1="157.496" y1="173" x2="157.496" y2="211" gradientUnits="userSpaceOnUse">
<stop stop-color="#FFC700"/>
<stop offset="1" stop-color="#FC9517"/>
</linearGradient>
<linearGradient id="paint10_linear" x1="222.275" y1="158.676" x2="222.275" y2="204.818" gradientUnits="userSpaceOnUse">
<stop stop-color="#FFC700"/>
<stop offset="1" stop-color="#FC9517"/>
</linearGradient>
<linearGradient id="paint11_linear" x1="242.564" y1="96.2485" x2="242.564" y2="142.39" gradientUnits="userSpaceOnUse">
<stop stop-color="#FFC700"/>
<stop offset="1" stop-color="#FC9517"/>
</linearGradient>
<linearGradient id="paint12_linear" x1="27.0275" y1="44.6763" x2="27.0275" y2="45.6763" gradientUnits="userSpaceOnUse">
<stop stop-color="#FFC700"/>
<stop offset="1" stop-color="#FC9517"/>
</linearGradient>
<linearGradient id="paint13_linear" x1="35.93" y1="17" x2="35.93" y2="23.5804" gradientUnits="userSpaceOnUse">
<stop stop-color="#FFC700"/>
<stop offset="1" stop-color="#FC9517"/>
</linearGradient>
<linearGradient id="paint14_linear" x1="35.0592" y1="64.6108" x2="35.0592" y2="75.4491" gradientUnits="userSpaceOnUse">
<stop stop-color="#FFC700"/>
<stop offset="1" stop-color="#FC9517"/>
</linearGradient>
<linearGradient id="paint15_linear" x1="205.189" y1="42.6763" x2="205.189" y2="43.6763" gradientUnits="userSpaceOnUse">
<stop stop-color="#FFC700"/>
<stop offset="1" stop-color="#FC9517"/>
</linearGradient>
<linearGradient id="paint16_linear" x1="196.092" y1="15" x2="196.092" y2="21.3868" gradientUnits="userSpaceOnUse">
<stop stop-color="#FFC700"/>
<stop offset="1" stop-color="#FC9517"/>
</linearGradient>
<linearGradient id="paint17_linear" x1="197.157" y1="62.4175" x2="197.157" y2="73.4493" gradientUnits="userSpaceOnUse">
<stop stop-color="#FFC700"/>
<stop offset="1" stop-color="#FC9517"/>
</linearGradient>
</defs>
</svg>
