<svg width="271" height="271" viewBox="0 0 271 271" fill="none" xmlns="http://www.w3.org/2000/svg">
<path d="M86.54 36.6367C90.6807 36.6367 93.9717 37.7988 96.4131 40.123C98.874 42.4473 100.104 45.6309 100.104 49.6738C100.104 54.459 98.6299 58.1406 95.6807 60.7188C92.7314 63.2969 88.5127 64.5859 83.0244 64.5859C78.2588 64.5859 74.4111 63.8145 71.4814 62.2715V54.4492C73.0244 55.2695 74.8213 55.9434 76.8721 56.4707C78.9229 56.9785 80.8662 57.2324 82.7021 57.2324C88.2295 57.2324 90.9932 54.9668 90.9932 50.4355C90.9932 46.1191 88.1318 43.9609 82.4092 43.9609C81.374 43.9609 80.2314 44.0684 78.9814 44.2832C77.7314 44.4785 76.7158 44.6934 75.9346 44.9277L72.3311 42.9941L73.9424 21.168H97.1748V28.8438H81.8818L81.0908 37.252L82.1162 37.0469C83.3076 36.7734 84.7822 36.6367 86.54 36.6367ZM126.354 64L116.042 30.3965H115.778C116.149 37.2324 116.335 41.793 116.335 44.0781V64H108.22V21.168H120.583L130.72 53.9219H130.896L141.647 21.168H154.011V64H145.544V43.7266C145.544 42.7695 145.554 41.666 145.573 40.416C145.612 39.166 145.749 35.8457 145.983 30.4551H145.72L134.675 64H126.354Z" fill="url(#paint0_linear)"/>
<path d="M182.991 179H45.9912V102H182.991V179Z" fill="#380000"/>
<path d="M131.991 102H182.991V179H131.991V102Z" fill="#380000"/>
<path d="M183.214 185.696C158.507 185.696 138.405 165.595 138.405 140.887C138.405 116.179 158.507 96.0781 183.214 96.0781C186.749 96.0781 189.616 98.9442 189.616 102.479V179.295C189.616 182.83 186.749 185.696 183.214 185.696Z" fill="#4F2424"/>
<path d="M45.8002 185.696C21.0925 185.696 0.991211 165.595 0.991211 140.887C0.991211 116.179 21.0925 96.0781 45.8002 96.0781C49.3354 96.0781 52.2015 98.9442 52.2015 102.479V179.295C52.2015 182.83 49.3354 185.696 45.8002 185.696Z" fill="url(#paint1_linear)"/>
<path d="M183.214 185.696H45.8002C42.265 185.696 39.3989 182.83 39.3989 179.295V102.479C39.3989 98.9442 42.265 96.0781 45.8002 96.0781H183.214C186.75 96.0781 189.616 98.9442 189.616 102.479V179.295C189.616 182.83 186.75 185.696 183.214 185.696ZM52.2015 172.894H176.813V108.881H52.2015V172.894Z" fill="url(#paint2_linear)"/>
<path d="M183.547 96H131.991V108.857H177.102V173.143H131.991V186H183.547C187.106 186 189.991 183.122 189.991 179.571V102.429C189.991 98.8783 187.106 96 183.547 96Z" fill="url(#paint3_linear)"/>
<path d="M195.628 186H68.3549C66.195 186 64.1824 184.881 63.0103 183.028C61.8376 181.175 61.6658 178.841 62.5529 176.829C68.1003 164.255 77.5257 153.555 89.8105 145.885C102.263 138.11 116.849 134 131.991 134C147.133 134 161.719 138.11 174.172 145.885C186.457 153.555 195.882 164.255 201.43 176.829C202.317 178.841 202.145 181.175 200.972 183.028C199.8 184.881 197.787 186 195.628 186Z" fill="url(#paint4_linear)"/>
<path d="M201.43 176.829C195.882 164.255 186.457 153.555 174.172 145.885C161.719 138.11 147.133 134 131.991 134V186H195.628C197.787 186 199.8 184.881 200.972 183.028C202.145 181.175 202.317 178.841 201.43 176.829Z" fill="url(#paint5_linear)"/>
<path d="M102.51 271H45.4727C41.8932 271 38.9912 268.138 38.9912 264.609V179.391C38.9912 175.862 41.8932 173 45.4727 173H102.51C106.089 173 108.991 175.862 108.991 179.391V264.609C108.991 268.138 106.089 271 102.51 271Z" fill="url(#paint6_linear)"/>
<path d="M101.991 173H212.609C216.134 173 218.991 175.862 218.991 179.391V264.609C218.991 268.138 216.134 271 212.609 271H101.991V173Z" fill="url(#paint7_linear)"/>
<path d="M212.625 173H131.991V271H212.625C216.141 271 218.991 268.138 218.991 264.609V179.391C218.991 175.862 216.141 173 212.625 173Z" fill="url(#paint8_linear)"/>
<path d="M157.83 210.997C146.92 211.179 137.991 202.295 137.991 191.663V173H176.991V192C176.991 202.367 168.427 210.82 157.83 210.997Z" fill="url(#paint9_linear)"/>
<path d="M150.991 173V191.75C150.991 195.196 153.907 198 157.491 198C161.075 198 163.991 195.196 163.991 191.75V173H150.991Z" fill="#FFD34F"/>
<path d="M227.631 210.216C240.372 210.216 250.701 199.886 250.701 187.145C250.701 174.403 240.372 164.074 227.631 164.074C214.889 164.074 204.56 174.403 204.56 187.145C204.56 199.886 214.889 210.216 227.631 210.216Z" fill="#341212"/>
<path d="M222.27 204.818C235.012 204.818 245.341 194.489 245.341 181.747C245.341 169.005 235.012 158.676 222.27 158.676C209.528 158.676 199.199 169.005 199.199 181.747C199.199 194.489 209.528 204.818 222.27 204.818Z" fill="url(#paint10_linear)"/>
<path d="M226.965 181.119L227.076 181.23C227.445 181.599 227.371 182.265 226.928 182.561L223.526 184.594C223.452 184.631 223.341 184.705 223.304 184.816L218.979 190.473C218.646 190.917 218.831 191.582 219.348 191.767C220.31 192.137 221.234 192.322 222.158 192.322C223.97 192.322 225.708 191.619 227.371 190.177C228.665 189.068 229.701 187.737 230.477 186.147C230.662 185.777 231.069 185.593 231.438 185.703L233.139 186.147C233.546 186.258 233.805 186.628 233.768 187.034L233.176 195.279C233.139 195.723 232.769 196.056 232.326 196.056L211.473 196.093C211.14 196.093 210.845 195.908 210.734 195.612L208.885 191.915C208.737 191.619 208.774 191.249 208.996 191.028L214.69 183.966C214.949 183.633 214.949 183.152 214.653 182.857C214.283 182.45 214.357 181.821 214.838 181.526L218.017 179.751C218.128 179.714 218.202 179.64 218.276 179.529L223.304 173.318C223.711 172.837 223.452 172.097 222.824 171.95C222.306 171.839 221.789 171.802 221.308 171.802C219.644 171.802 218.128 172.393 216.723 173.65C215.651 174.575 214.838 175.721 214.209 177.089C214.024 177.495 213.581 177.68 213.174 177.532L212.028 177.126C211.695 177.015 211.473 176.682 211.473 176.349L211.325 168.807C211.325 168.326 211.695 167.957 212.176 167.957L233.842 168.104C234.507 168.104 234.914 168.881 234.507 169.435L226.928 180.084C226.632 180.342 226.669 180.823 226.965 181.119Z" fill="#2E5A56"/>
<path d="M247.92 147.788C260.661 147.788 270.991 137.459 270.991 124.717C270.991 111.975 260.661 101.646 247.92 101.646C235.178 101.646 224.849 111.975 224.849 124.717C224.849 137.459 235.178 147.788 247.92 147.788Z" fill="#341212"/>
<path d="M242.559 142.39C255.301 142.39 265.63 132.061 265.63 119.319C265.63 106.578 255.301 96.2485 242.559 96.2485C229.817 96.2485 219.488 106.578 219.488 119.319C219.488 132.061 229.817 142.39 242.559 142.39Z" fill="url(#paint11_linear)"/>
<path d="M247.254 118.691L247.365 118.802C247.734 119.172 247.66 119.837 247.217 120.133L243.815 122.167C243.741 122.203 243.63 122.277 243.594 122.388L239.268 128.045C238.935 128.489 239.12 129.154 239.637 129.339C240.599 129.709 241.523 129.894 242.447 129.894C244.259 129.894 245.997 129.191 247.66 127.749C248.955 126.64 249.99 125.309 250.766 123.719C250.951 123.35 251.358 123.165 251.727 123.276L253.428 123.719C253.835 123.83 254.094 124.2 254.057 124.607L253.465 132.852C253.428 133.295 253.058 133.628 252.615 133.628L231.762 133.665C231.43 133.665 231.134 133.48 231.023 133.184L229.174 129.487C229.026 129.191 229.063 128.822 229.285 128.6L234.979 121.538C235.238 121.205 235.238 120.725 234.942 120.429C234.572 120.022 234.646 119.394 235.127 119.098L238.306 117.323C238.417 117.286 238.491 117.212 238.565 117.101L243.594 110.89C244 110.409 243.741 109.67 243.113 109.522C242.595 109.411 242.078 109.374 241.597 109.374C239.933 109.374 238.417 109.966 237.012 111.223C235.94 112.147 235.127 113.293 234.498 114.661C234.313 115.068 233.87 115.253 233.463 115.105L232.317 114.698C231.984 114.587 231.762 114.254 231.762 113.922L231.614 106.379C231.614 105.899 231.984 105.529 232.465 105.529L254.131 105.677C254.796 105.677 255.203 106.453 254.796 107.008L247.217 117.656C246.921 117.915 246.958 118.395 247.254 118.691Z" fill="#2E5A56"/>
<path d="M49.8295 43.543H33.7656" stroke="url(#paint12_linear)" stroke-width="3" stroke-miterlimit="10"/>
<path d="M56.7966 22.4471L44.6035 15.8667" stroke="url(#paint13_linear)" stroke-width="3" stroke-miterlimit="10"/>
<path d="M55.6354 63.4775L44.0229 74.3158" stroke="url(#paint14_linear)" stroke-width="3" stroke-miterlimit="10"/>
<path d="M178.924 42.7686H194.988" stroke="url(#paint15_linear)" stroke-width="3" stroke-miterlimit="10"/>
<path d="M171.763 21.4791L183.956 15.0923" stroke="url(#paint16_linear)" stroke-width="3" stroke-miterlimit="10"/>
<path d="M173.118 62.5098L184.73 73.5416" stroke="url(#paint17_linear)" stroke-width="3" stroke-miterlimit="10"/>
<defs>
<linearGradient id="paint0_linear" x1="113.991" y1="0" x2="113.991" y2="106" gradientUnits="userSpaceOnUse">
<stop stop-color="#FFC700"/>
<stop offset="1" stop-color="#FC9517"/>
</linearGradient>
<linearGradient id="paint1_linear" x1="26.5963" y1="96.0781" x2="26.5963" y2="185.696" gradientUnits="userSpaceOnUse">
<stop stop-color="#8F5A2D"/>
<stop offset="1" stop-color="#351B06"/>
</linearGradient>
<linearGradient id="paint2_linear" x1="114.507" y1="96.0781" x2="114.507" y2="185.696" gradientUnits="userSpaceOnUse">
<stop stop-color="#73431B"/>
<stop offset="1" stop-color="#351B06"/>
</linearGradient>
<linearGradient id="paint3_linear" x1="160.991" y1="96" x2="160.991" y2="186" gradientUnits="userSpaceOnUse">
<stop stop-color="#6C4220"/>
<stop offset="1" stop-color="#351B06"/>
</linearGradient>
<linearGradient id="paint4_linear" x1="131.991" y1="134" x2="131.991" y2="186" gradientUnits="userSpaceOnUse">
<stop stop-color="#FFC700"/>
<stop offset="1" stop-color="#FC9517"/>
</linearGradient>
<linearGradient id="paint5_linear" x1="166.991" y1="134" x2="166.991" y2="186" gradientUnits="userSpaceOnUse">
<stop stop-color="#FFC700"/>
<stop offset="1" stop-color="#FC9517"/>
</linearGradient>
<linearGradient id="paint6_linear" x1="73.9912" y1="173" x2="73.9912" y2="271" gradientUnits="userSpaceOnUse">
<stop stop-color="#8F5A2D"/>
<stop offset="1" stop-color="#351B06"/>
</linearGradient>
<linearGradient id="paint7_linear" x1="160.491" y1="173" x2="160.491" y2="271" gradientUnits="userSpaceOnUse">
<stop stop-color="#8F5A2D"/>
<stop offset="1" stop-color="#351B06"/>
</linearGradient>
<linearGradient id="paint8_linear" x1="175.491" y1="173" x2="175.491" y2="271" gradientUnits="userSpaceOnUse">
<stop stop-color="#8F5A2D"/>
<stop offset="1" stop-color="#351B06"/>
</linearGradient>
<linearGradient id="paint9_linear" x1="157.491" y1="173" x2="157.491" y2="211" gradientUnits="userSpaceOnUse">
<stop stop-color="#FFC700"/>
<stop offset="1" stop-color="#FC9517"/>
</linearGradient>
<linearGradient id="paint10_linear" x1="222.27" y1="158.676" x2="222.27" y2="204.818" gradientUnits="userSpaceOnUse">
<stop stop-color="#FFC700"/>
<stop offset="1" stop-color="#FC9517"/>
</linearGradient>
<linearGradient id="paint11_linear" x1="242.559" y1="96.2485" x2="242.559" y2="142.39" gradientUnits="userSpaceOnUse">
<stop stop-color="#FFC700"/>
<stop offset="1" stop-color="#FC9517"/>
</linearGradient>
<linearGradient id="paint12_linear" x1="41.7976" y1="43.543" x2="41.7976" y2="44.543" gradientUnits="userSpaceOnUse">
<stop stop-color="#FFC700"/>
<stop offset="1" stop-color="#FC9517"/>
</linearGradient>
<linearGradient id="paint13_linear" x1="50.7" y1="15.8667" x2="50.7" y2="22.4471" gradientUnits="userSpaceOnUse">
<stop stop-color="#FFC700"/>
<stop offset="1" stop-color="#FC9517"/>
</linearGradient>
<linearGradient id="paint14_linear" x1="49.8292" y1="63.4775" x2="49.8292" y2="74.3158" gradientUnits="userSpaceOnUse">
<stop stop-color="#FFC700"/>
<stop offset="1" stop-color="#FC9517"/>
</linearGradient>
<linearGradient id="paint15_linear" x1="186.956" y1="42.7686" x2="186.956" y2="43.7686" gradientUnits="userSpaceOnUse">
<stop stop-color="#FFC700"/>
<stop offset="1" stop-color="#FC9517"/>
</linearGradient>
<linearGradient id="paint16_linear" x1="177.859" y1="15.0923" x2="177.859" y2="21.4791" gradientUnits="userSpaceOnUse">
<stop stop-color="#FFC700"/>
<stop offset="1" stop-color="#FC9517"/>
</linearGradient>
<linearGradient id="paint17_linear" x1="178.924" y1="62.5098" x2="178.924" y2="73.5416" gradientUnits="userSpaceOnUse">
<stop stop-color="#FFC700"/>
<stop offset="1" stop-color="#FC9517"/>
</linearGradient>
</defs>
</svg>
