<svg width="271" height="271" viewBox="0 0 271 271" fill="none" xmlns="http://www.w3.org/2000/svg">
<path d="M94.1416 64H64.2002V57.7012L74.9521 46.832C78.1357 43.5703 80.2158 41.3145 81.1924 40.0645C82.1689 38.7949 82.8721 37.623 83.3018 36.5488C83.7314 35.4746 83.9463 34.3613 83.9463 33.209C83.9463 31.4902 83.4678 30.2109 82.5107 29.3711C81.5732 28.5312 80.3135 28.1113 78.7314 28.1113C77.0713 28.1113 75.46 28.4922 73.8975 29.2539C72.335 30.0156 70.7041 31.0996 69.0049 32.5059L64.083 26.6758C66.1924 24.8789 67.9404 23.6094 69.3271 22.8672C70.7139 22.125 72.2275 21.5586 73.8682 21.168C75.5088 20.7578 77.3447 20.5527 79.376 20.5527C82.0518 20.5527 84.415 21.041 86.4658 22.0176C88.5166 22.9941 90.1084 24.3613 91.2412 26.1191C92.374 27.877 92.9404 29.8887 92.9404 32.1543C92.9404 34.127 92.5889 35.9824 91.8857 37.7207C91.2021 39.4395 90.1279 41.207 88.6631 43.0234C87.2178 44.8398 84.6592 47.4277 80.9873 50.7871L75.4795 55.9727V56.3828H94.1416V64ZM114.063 36.6367C118.204 36.6367 121.495 37.7988 123.937 40.123C126.397 42.4473 127.628 45.6309 127.628 49.6738C127.628 54.459 126.153 58.1406 123.204 60.7188C120.255 63.2969 116.036 64.5859 110.548 64.5859C105.782 64.5859 101.935 63.8145 99.0049 62.2715V54.4492C100.548 55.2695 102.345 55.9434 104.396 56.4707C106.446 56.9785 108.39 57.2324 110.226 57.2324C115.753 57.2324 118.517 54.9668 118.517 50.4355C118.517 46.1191 115.655 43.9609 109.933 43.9609C108.897 43.9609 107.755 44.0684 106.505 44.2832C105.255 44.4785 104.239 44.6934 103.458 44.9277L99.8545 42.9941L101.466 21.168H124.698V28.8438H109.405L108.614 37.252L109.64 37.0469C110.831 36.7734 112.306 36.6367 114.063 36.6367ZM170.196 64H159.884L148.663 45.9531L144.825 48.707V64H135.743V21.168H144.825V40.7676L148.399 35.7285L160.001 21.168H170.079L155.138 40.123L170.196 64Z" fill="url(#paint0_linear)"/>
<path d="M182.997 179H45.9971V102H182.997V179Z" fill="#380000"/>
<path d="M131.997 102H182.997V179H131.997V102Z" fill="#380000"/>
<path d="M183.22 185.696C158.513 185.696 138.411 165.595 138.411 140.887C138.411 116.179 158.513 96.0781 183.22 96.0781C186.756 96.0781 189.622 98.9442 189.622 102.479V179.295C189.622 182.83 186.756 185.696 183.22 185.696Z" fill="#4F2424"/>
<path d="M45.8061 185.696C21.0984 185.696 0.99707 165.595 0.99707 140.887C0.99707 116.179 21.0984 96.0781 45.8061 96.0781C49.3413 96.0781 52.2073 98.9442 52.2073 102.479V179.295C52.2073 182.83 49.3413 185.696 45.8061 185.696Z" fill="url(#paint1_linear)"/>
<path d="M183.22 185.696H45.8061C42.2709 185.696 39.4048 182.83 39.4048 179.295V102.479C39.4048 98.9442 42.2709 96.0781 45.8061 96.0781H183.22C186.756 96.0781 189.622 98.9442 189.622 102.479V179.295C189.622 182.83 186.756 185.696 183.22 185.696ZM52.2074 172.894H176.819V108.881H52.2074V172.894Z" fill="url(#paint2_linear)"/>
<path d="M183.553 96H131.997V108.857H177.108V173.143H131.997V186H183.553C187.112 186 189.997 183.122 189.997 179.571V102.429C189.997 98.8783 187.112 96 183.553 96Z" fill="url(#paint3_linear)"/>
<path d="M195.633 186H68.3607C66.2009 186 64.1883 184.881 63.0161 183.028C61.8435 181.175 61.6717 178.841 62.5588 176.829C68.1062 164.255 77.5316 153.555 89.8164 145.885C102.269 138.11 116.855 134 131.997 134C147.139 134 161.725 138.11 174.178 145.885C186.463 153.555 195.888 164.255 201.435 176.829C202.322 178.841 202.151 181.175 200.978 183.028C199.806 184.881 197.793 186 195.633 186Z" fill="url(#paint4_linear)"/>
<path d="M201.435 176.829C195.888 164.255 186.463 153.555 174.178 145.885C161.725 138.11 147.139 134 131.997 134V186H195.633C197.793 186 199.806 184.881 200.978 183.028C202.151 181.175 202.322 178.841 201.435 176.829Z" fill="url(#paint5_linear)"/>
<path d="M102.516 271H45.4786C41.899 271 38.9971 268.138 38.9971 264.609V179.391C38.9971 175.862 41.899 173 45.4786 173H102.516C106.095 173 108.997 175.862 108.997 179.391V264.609C108.997 268.138 106.095 271 102.516 271Z" fill="url(#paint6_linear)"/>
<path d="M101.997 173H212.615C216.14 173 218.997 175.862 218.997 179.391V264.609C218.997 268.138 216.14 271 212.615 271H101.997V173Z" fill="url(#paint7_linear)"/>
<path d="M212.631 173H131.997V271H212.631C216.147 271 218.997 268.138 218.997 264.609V179.391C218.997 175.862 216.147 173 212.631 173Z" fill="url(#paint8_linear)"/>
<path d="M157.836 210.997C146.926 211.179 137.997 202.295 137.997 191.663V173H176.997V192C176.997 202.367 168.433 210.82 157.836 210.997Z" fill="url(#paint9_linear)"/>
<path d="M150.997 173V191.75C150.997 195.196 153.913 198 157.497 198C161.081 198 163.997 195.196 163.997 191.75V173H150.997Z" fill="#FFD34F"/>
<path d="M227.636 210.216C240.378 210.216 250.707 199.886 250.707 187.145C250.707 174.403 240.378 164.074 227.636 164.074C214.895 164.074 204.565 174.403 204.565 187.145C204.565 199.886 214.895 210.216 227.636 210.216Z" fill="#341212"/>
<path d="M222.276 204.818C235.018 204.818 245.347 194.489 245.347 181.747C245.347 169.005 235.018 158.676 222.276 158.676C209.534 158.676 199.205 169.005 199.205 181.747C199.205 194.489 209.534 204.818 222.276 204.818Z" fill="url(#paint10_linear)"/>
<path d="M226.971 181.119L227.082 181.23C227.451 181.599 227.378 182.265 226.934 182.561L223.532 184.594C223.458 184.631 223.348 184.705 223.311 184.816L218.985 190.473C218.652 190.917 218.837 191.582 219.354 191.767C220.316 192.137 221.24 192.322 222.164 192.322C223.976 192.322 225.714 191.619 227.378 190.177C228.672 189.068 229.707 187.737 230.483 186.147C230.668 185.777 231.075 185.593 231.445 185.703L233.145 186.147C233.552 186.258 233.811 186.628 233.774 187.034L233.182 195.279C233.145 195.723 232.776 196.056 232.332 196.056L211.479 196.093C211.147 196.093 210.851 195.908 210.74 195.612L208.891 191.915C208.743 191.619 208.78 191.249 209.002 191.028L214.696 183.966C214.955 183.633 214.955 183.152 214.659 182.857C214.289 182.45 214.363 181.821 214.844 181.526L218.023 179.751C218.134 179.714 218.208 179.64 218.282 179.529L223.311 173.318C223.717 172.837 223.458 172.097 222.83 171.95C222.312 171.839 221.795 171.802 221.314 171.802C219.65 171.802 218.134 172.393 216.729 173.65C215.657 174.575 214.844 175.721 214.215 177.089C214.03 177.495 213.587 177.68 213.18 177.532L212.034 177.126C211.701 177.015 211.479 176.682 211.479 176.349L211.331 168.807C211.331 168.326 211.701 167.957 212.182 167.957L233.848 168.104C234.513 168.104 234.92 168.881 234.513 169.435L226.934 180.084C226.638 180.342 226.675 180.823 226.971 181.119Z" fill="#2E5A56"/>
<path d="M247.925 147.788C260.667 147.788 270.996 137.459 270.996 124.717C270.996 111.975 260.667 101.646 247.925 101.646C235.184 101.646 224.854 111.975 224.854 124.717C224.854 137.459 235.184 147.788 247.925 147.788Z" fill="#341212"/>
<path d="M242.565 142.39C255.307 142.39 265.636 132.061 265.636 119.319C265.636 106.578 255.307 96.2485 242.565 96.2485C229.823 96.2485 219.494 106.578 219.494 119.319C219.494 132.061 229.823 142.39 242.565 142.39Z" fill="url(#paint11_linear)"/>
<path d="M247.26 118.691L247.371 118.802C247.741 119.172 247.667 119.837 247.223 120.133L243.821 122.167C243.748 122.203 243.637 122.277 243.6 122.388L239.274 128.045C238.941 128.489 239.126 129.154 239.644 129.339C240.605 129.709 241.529 129.894 242.453 129.894C244.265 129.894 246.003 129.191 247.667 127.749C248.961 126.64 249.996 125.309 250.772 123.719C250.957 123.35 251.364 123.165 251.734 123.276L253.434 123.719C253.841 123.83 254.1 124.2 254.063 124.607L253.471 132.852C253.434 133.295 253.065 133.628 252.621 133.628L231.768 133.665C231.436 133.665 231.14 133.48 231.029 133.184L229.18 129.487C229.032 129.191 229.069 128.822 229.291 128.6L234.985 121.538C235.244 121.205 235.244 120.725 234.948 120.429C234.578 120.022 234.652 119.394 235.133 119.098L238.313 117.323C238.423 117.286 238.497 117.212 238.571 117.101L243.6 110.89C244.006 110.409 243.748 109.67 243.119 109.522C242.601 109.411 242.084 109.374 241.603 109.374C239.939 109.374 238.423 109.966 237.018 111.223C235.946 112.147 235.133 113.293 234.504 114.661C234.319 115.068 233.876 115.253 233.469 115.105L232.323 114.698C231.99 114.587 231.768 114.254 231.768 113.922L231.62 106.379C231.62 105.899 231.99 105.529 232.471 105.529L254.137 105.677C254.802 105.677 255.209 106.453 254.802 107.008L247.223 117.656C246.927 117.915 246.964 118.395 247.26 118.691Z" fill="#2E5A56"/>
<path d="M35.0609 44.6763H18.9971" stroke="url(#paint12_linear)" stroke-width="3" stroke-miterlimit="10"/>
<path d="M42.028 23.5804L29.835 17" stroke="url(#paint13_linear)" stroke-width="3" stroke-miterlimit="10"/>
<path d="M40.8668 64.6108L29.2544 75.4491" stroke="url(#paint14_linear)" stroke-width="3" stroke-miterlimit="10"/>
<path d="M197.159 42.6763H213.223" stroke="url(#paint15_linear)" stroke-width="3" stroke-miterlimit="10"/>
<path d="M189.997 21.3868L202.19 15" stroke="url(#paint16_linear)" stroke-width="3" stroke-miterlimit="10"/>
<path d="M191.352 62.4175L202.964 73.4493" stroke="url(#paint17_linear)" stroke-width="3" stroke-miterlimit="10"/>
<defs>
<linearGradient id="paint0_linear" x1="115.997" y1="0" x2="115.997" y2="106" gradientUnits="userSpaceOnUse">
<stop stop-color="#FFC700"/>
<stop offset="1" stop-color="#FC9517"/>
</linearGradient>
<linearGradient id="paint1_linear" x1="26.6022" y1="96.0781" x2="26.6022" y2="185.696" gradientUnits="userSpaceOnUse">
<stop stop-color="#8F5A2D"/>
<stop offset="1" stop-color="#351B06"/>
</linearGradient>
<linearGradient id="paint2_linear" x1="114.513" y1="96.0781" x2="114.513" y2="185.696" gradientUnits="userSpaceOnUse">
<stop stop-color="#73431B"/>
<stop offset="1" stop-color="#351B06"/>
</linearGradient>
<linearGradient id="paint3_linear" x1="160.997" y1="96" x2="160.997" y2="186" gradientUnits="userSpaceOnUse">
<stop stop-color="#6C4220"/>
<stop offset="1" stop-color="#351B06"/>
</linearGradient>
<linearGradient id="paint4_linear" x1="131.997" y1="134" x2="131.997" y2="186" gradientUnits="userSpaceOnUse">
<stop stop-color="#FFC700"/>
<stop offset="1" stop-color="#FC9517"/>
</linearGradient>
<linearGradient id="paint5_linear" x1="166.997" y1="134" x2="166.997" y2="186" gradientUnits="userSpaceOnUse">
<stop stop-color="#FFC700"/>
<stop offset="1" stop-color="#FC9517"/>
</linearGradient>
<linearGradient id="paint6_linear" x1="73.9971" y1="173" x2="73.9971" y2="271" gradientUnits="userSpaceOnUse">
<stop stop-color="#8F5A2D"/>
<stop offset="1" stop-color="#351B06"/>
</linearGradient>
<linearGradient id="paint7_linear" x1="160.497" y1="173" x2="160.497" y2="271" gradientUnits="userSpaceOnUse">
<stop stop-color="#8F5A2D"/>
<stop offset="1" stop-color="#351B06"/>
</linearGradient>
<linearGradient id="paint8_linear" x1="175.497" y1="173" x2="175.497" y2="271" gradientUnits="userSpaceOnUse">
<stop stop-color="#8F5A2D"/>
<stop offset="1" stop-color="#351B06"/>
</linearGradient>
<linearGradient id="paint9_linear" x1="157.497" y1="173" x2="157.497" y2="211" gradientUnits="userSpaceOnUse">
<stop stop-color="#FFC700"/>
<stop offset="1" stop-color="#FC9517"/>
</linearGradient>
<linearGradient id="paint10_linear" x1="222.276" y1="158.676" x2="222.276" y2="204.818" gradientUnits="userSpaceOnUse">
<stop stop-color="#FFC700"/>
<stop offset="1" stop-color="#FC9517"/>
</linearGradient>
<linearGradient id="paint11_linear" x1="242.565" y1="96.2485" x2="242.565" y2="142.39" gradientUnits="userSpaceOnUse">
<stop stop-color="#FFC700"/>
<stop offset="1" stop-color="#FC9517"/>
</linearGradient>
<linearGradient id="paint12_linear" x1="27.029" y1="44.6763" x2="27.029" y2="45.6763" gradientUnits="userSpaceOnUse">
<stop stop-color="#FFC700"/>
<stop offset="1" stop-color="#FC9517"/>
</linearGradient>
<linearGradient id="paint13_linear" x1="35.9315" y1="17" x2="35.9315" y2="23.5804" gradientUnits="userSpaceOnUse">
<stop stop-color="#FFC700"/>
<stop offset="1" stop-color="#FC9517"/>
</linearGradient>
<linearGradient id="paint14_linear" x1="35.0606" y1="64.6108" x2="35.0606" y2="75.4491" gradientUnits="userSpaceOnUse">
<stop stop-color="#FFC700"/>
<stop offset="1" stop-color="#FC9517"/>
</linearGradient>
<linearGradient id="paint15_linear" x1="205.191" y1="42.6763" x2="205.191" y2="43.6763" gradientUnits="userSpaceOnUse">
<stop stop-color="#FFC700"/>
<stop offset="1" stop-color="#FC9517"/>
</linearGradient>
<linearGradient id="paint16_linear" x1="196.094" y1="15" x2="196.094" y2="21.3868" gradientUnits="userSpaceOnUse">
<stop stop-color="#FFC700"/>
<stop offset="1" stop-color="#FC9517"/>
</linearGradient>
<linearGradient id="paint17_linear" x1="197.158" y1="62.4175" x2="197.158" y2="73.4493" gradientUnits="userSpaceOnUse">
<stop stop-color="#FFC700"/>
<stop offset="1" stop-color="#FC9517"/>
</linearGradient>
</defs>
</svg>
