<svg width="271" height="271" viewBox="0 0 271 271" fill="none" xmlns="http://www.w3.org/2000/svg">
<path d="M59.1438 36.6367C63.2844 36.6367 66.5754 37.7988 69.0168 40.123C71.4778 42.4473 72.7083 45.6309 72.7083 49.6738C72.7083 54.459 71.2336 58.1406 68.2844 60.7188C65.3352 63.2969 61.1165 64.5859 55.6282 64.5859C50.8625 64.5859 47.0149 63.8145 44.0852 62.2715V54.4492C45.6282 55.2695 47.425 55.9434 49.4758 56.4707C51.5266 56.9785 53.47 57.2324 55.3059 57.2324C60.8333 57.2324 63.5969 54.9668 63.5969 50.4355C63.5969 46.1191 60.7356 43.9609 55.0129 43.9609C53.9778 43.9609 52.8352 44.0684 51.5852 44.2832C50.3352 44.4785 49.3196 44.6934 48.5383 44.9277L44.9348 42.9941L46.5461 21.168H69.7786V28.8438H54.4856L53.6946 37.252L54.72 37.0469C55.9114 36.7734 57.386 36.6367 59.1438 36.6367ZM107.542 42.584C107.542 50.0645 106.312 55.6016 103.851 59.1953C101.409 62.7891 97.6399 64.5859 92.5422 64.5859C87.6008 64.5859 83.8704 62.7305 81.3508 59.0195C78.8508 55.3086 77.6008 49.8301 77.6008 42.584C77.6008 35.0254 78.8215 29.459 81.2629 25.8848C83.7043 22.291 87.4641 20.4941 92.5422 20.4941C97.4836 20.4941 101.214 22.3691 103.734 26.1191C106.273 29.8691 107.542 35.3574 107.542 42.584ZM86.595 42.584C86.595 47.8379 87.0442 51.6074 87.9426 53.8926C88.8606 56.1582 90.3938 57.291 92.5422 57.291C94.6516 57.291 96.175 56.1387 97.1125 53.834C98.05 51.5293 98.5188 47.7793 98.5188 42.584C98.5188 37.3301 98.0403 33.5605 97.0833 31.2754C96.1458 28.9707 94.6321 27.8184 92.5422 27.8184C90.4133 27.8184 88.8899 28.9707 87.9719 31.2754C87.054 33.5605 86.595 37.3301 86.595 42.584ZM141.82 42.584C141.82 50.0645 140.589 55.6016 138.128 59.1953C135.687 62.7891 131.917 64.5859 126.82 64.5859C121.878 64.5859 118.148 62.7305 115.628 59.0195C113.128 55.3086 111.878 49.8301 111.878 42.584C111.878 35.0254 113.099 29.459 115.54 25.8848C117.982 22.291 121.741 20.4941 126.82 20.4941C131.761 20.4941 135.491 22.3691 138.011 26.1191C140.55 29.8691 141.82 35.3574 141.82 42.584ZM120.872 42.584C120.872 47.8379 121.322 51.6074 122.22 53.8926C123.138 56.1582 124.671 57.291 126.82 57.291C128.929 57.291 130.452 56.1387 131.39 53.834C132.327 51.5293 132.796 47.7793 132.796 42.584C132.796 37.3301 132.318 33.5605 131.361 31.2754C130.423 28.9707 128.909 27.8184 126.82 27.8184C124.691 27.8184 123.167 28.9707 122.249 31.2754C121.331 33.5605 120.872 37.3301 120.872 42.584ZM183.831 64H173.519L162.298 45.9531L158.46 48.707V64H149.378V21.168H158.46V40.7676L162.034 35.7285L173.636 21.168H183.714L168.773 40.123L183.831 64Z" fill="url(#paint0_linear)"/>
<path d="M182.993 179H45.9934V102H182.993V179Z" fill="#380000"/>
<path d="M131.993 102H182.993V179H131.993V102Z" fill="#380000"/>
<path d="M183.217 185.696C158.509 185.696 138.408 165.595 138.408 140.887C138.408 116.179 158.509 96.0781 183.217 96.0781C186.752 96.0781 189.618 98.9442 189.618 102.479V179.295C189.618 182.83 186.752 185.696 183.217 185.696Z" fill="#4F2424"/>
<path d="M45.8024 185.696C21.0947 185.696 0.993408 165.595 0.993408 140.887C0.993408 116.179 21.0947 96.0781 45.8024 96.0781C49.3376 96.0781 52.2037 98.9442 52.2037 102.479V179.295C52.2037 182.83 49.3376 185.696 45.8024 185.696Z" fill="url(#paint1_linear)"/>
<path d="M183.217 185.696H45.8024C42.2672 185.696 39.4011 182.83 39.4011 179.295V102.479C39.4011 98.9442 42.2672 96.0781 45.8024 96.0781H183.217C186.752 96.0781 189.618 98.9442 189.618 102.479V179.295C189.618 182.83 186.752 185.696 183.217 185.696ZM52.2037 172.894H176.815V108.881H52.2037V172.894Z" fill="url(#paint2_linear)"/>
<path d="M183.549 96H131.993V108.857H177.105V173.143H131.993V186H183.549C187.108 186 189.993 183.122 189.993 179.571V102.429C189.993 98.8783 187.108 96 183.549 96Z" fill="url(#paint3_linear)"/>
<path d="M195.63 186H68.3571C66.1972 186 64.1846 184.881 63.0124 183.028C61.8398 181.175 61.668 178.841 62.5551 176.829C68.1025 164.255 77.5279 153.555 89.8127 145.885C102.265 138.11 116.851 134 131.993 134C147.135 134 161.721 138.11 174.174 145.885C186.459 153.555 195.884 164.255 201.432 176.829C202.319 178.841 202.147 181.175 200.974 183.028C199.802 184.881 197.79 186 195.63 186Z" fill="url(#paint4_linear)"/>
<path d="M201.432 176.829C195.884 164.255 186.459 153.555 174.174 145.885C161.721 138.11 147.135 134 131.993 134V186H195.63C197.79 186 199.802 184.881 200.974 183.028C202.147 181.175 202.319 178.841 201.432 176.829Z" fill="url(#paint5_linear)"/>
<path d="M102.512 271H45.4749C41.8954 271 38.9934 268.138 38.9934 264.609V179.391C38.9934 175.862 41.8954 173 45.4749 173H102.512C106.091 173 108.993 175.862 108.993 179.391V264.609C108.993 268.138 106.091 271 102.512 271Z" fill="url(#paint6_linear)"/>
<path d="M101.993 173H212.612C216.136 173 218.993 175.862 218.993 179.391V264.609C218.993 268.138 216.136 271 212.612 271H101.993V173Z" fill="url(#paint7_linear)"/>
<path d="M212.628 173H131.993V271H212.628C216.143 271 218.993 268.138 218.993 264.609V179.391C218.993 175.862 216.143 173 212.628 173Z" fill="url(#paint8_linear)"/>
<path d="M157.832 210.997C146.923 211.179 137.993 202.295 137.993 191.663V173H176.993V192C176.993 202.367 168.429 210.82 157.832 210.997Z" fill="url(#paint9_linear)"/>
<path d="M150.993 173V191.75C150.993 195.196 153.909 198 157.493 198C161.078 198 163.993 195.196 163.993 191.75V173H150.993Z" fill="#FFD34F"/>
<path d="M227.633 210.216C240.374 210.216 250.704 199.886 250.704 187.145C250.704 174.403 240.374 164.074 227.633 164.074C214.891 164.074 204.562 174.403 204.562 187.145C204.562 199.886 214.891 210.216 227.633 210.216Z" fill="#341212"/>
<path d="M222.272 204.818C235.014 204.818 245.343 194.489 245.343 181.747C245.343 169.005 235.014 158.676 222.272 158.676C209.531 158.676 199.201 169.005 199.201 181.747C199.201 194.489 209.531 204.818 222.272 204.818Z" fill="url(#paint10_linear)"/>
<path d="M226.967 181.119L227.078 181.23C227.448 181.599 227.374 182.265 226.93 182.561L223.529 184.594C223.455 184.631 223.344 184.705 223.307 184.816L218.981 190.473C218.648 190.917 218.833 191.582 219.351 191.767C220.312 192.137 221.236 192.322 222.161 192.322C223.972 192.322 225.71 191.619 227.374 190.177C228.668 189.068 229.703 187.737 230.48 186.147C230.664 185.777 231.071 185.593 231.441 185.703L233.142 186.147C233.548 186.258 233.807 186.628 233.77 187.034L233.179 195.279C233.142 195.723 232.772 196.056 232.328 196.056L211.476 196.093C211.143 196.093 210.847 195.908 210.736 195.612L208.888 191.915C208.74 191.619 208.777 191.249 208.998 191.028L214.692 183.966C214.951 183.633 214.951 183.152 214.655 182.857C214.286 182.45 214.36 181.821 214.84 181.526L218.02 179.751C218.131 179.714 218.205 179.64 218.279 179.529L223.307 173.318C223.714 172.837 223.455 172.097 222.826 171.95C222.309 171.839 221.791 171.802 221.31 171.802C219.647 171.802 218.131 172.393 216.726 173.65C215.654 174.575 214.84 175.721 214.212 177.089C214.027 177.495 213.583 177.68 213.176 177.532L212.03 177.126C211.697 177.015 211.476 176.682 211.476 176.349L211.328 168.807C211.328 168.326 211.697 167.957 212.178 167.957L233.844 168.104C234.51 168.104 234.916 168.881 234.51 169.435L226.93 180.084C226.634 180.342 226.671 180.823 226.967 181.119Z" fill="#2E5A56"/>
<path d="M247.922 147.788C260.664 147.788 270.993 137.459 270.993 124.717C270.993 111.975 260.664 101.646 247.922 101.646C235.18 101.646 224.851 111.975 224.851 124.717C224.851 137.459 235.18 147.788 247.922 147.788Z" fill="#341212"/>
<path d="M242.561 142.39C255.303 142.39 265.632 132.061 265.632 119.319C265.632 106.578 255.303 96.2485 242.561 96.2485C229.82 96.2485 219.49 106.578 219.49 119.319C219.49 132.061 229.82 142.39 242.561 142.39Z" fill="url(#paint11_linear)"/>
<path d="M247.256 118.691L247.367 118.802C247.737 119.172 247.663 119.837 247.219 120.133L243.818 122.167C243.744 122.203 243.633 122.277 243.596 122.388L239.27 128.045C238.937 128.489 239.122 129.154 239.64 129.339C240.601 129.709 241.525 129.894 242.45 129.894C244.261 129.894 245.999 129.191 247.663 127.749C248.957 126.64 249.992 125.309 250.769 123.719C250.954 123.35 251.36 123.165 251.73 123.276L253.431 123.719C253.837 123.83 254.096 124.2 254.059 124.607L253.468 132.852C253.431 133.295 253.061 133.628 252.617 133.628L231.765 133.665C231.432 133.665 231.136 133.48 231.025 133.184L229.177 129.487C229.029 129.191 229.066 128.822 229.288 128.6L234.981 121.538C235.24 121.205 235.24 120.725 234.944 120.429C234.575 120.022 234.649 119.394 235.129 119.098L238.309 117.323C238.42 117.286 238.494 117.212 238.568 117.101L243.596 110.89C244.003 110.409 243.744 109.67 243.115 109.522C242.598 109.411 242.08 109.374 241.599 109.374C239.936 109.374 238.42 109.966 237.015 111.223C235.943 112.147 235.129 113.293 234.501 114.661C234.316 115.068 233.872 115.253 233.465 115.105L232.319 114.698C231.987 114.587 231.765 114.254 231.765 113.922L231.617 106.379C231.617 105.899 231.987 105.529 232.467 105.529L254.133 105.677C254.799 105.677 255.205 106.453 254.799 107.008L247.219 117.656C246.923 117.915 246.96 118.395 247.256 118.691Z" fill="#2E5A56"/>
<path d="M32.0573 44.6763H15.9934" stroke="url(#paint12_linear)" stroke-width="3" stroke-miterlimit="10"/>
<path d="M39.0243 23.5804L26.8313 17" stroke="url(#paint13_linear)" stroke-width="3" stroke-miterlimit="10"/>
<path d="M37.8632 64.6108L26.2507 75.4491" stroke="url(#paint14_linear)" stroke-width="3" stroke-miterlimit="10"/>
<path d="M198.155 42.6763H214.219" stroke="url(#paint15_linear)" stroke-width="3" stroke-miterlimit="10"/>
<path d="M190.993 21.3868L203.187 15" stroke="url(#paint16_linear)" stroke-width="3" stroke-miterlimit="10"/>
<path d="M192.348 62.4175L203.961 73.4493" stroke="url(#paint17_linear)" stroke-width="3" stroke-miterlimit="10"/>
<defs>
<linearGradient id="paint0_linear" x1="112.493" y1="0" x2="112.493" y2="106" gradientUnits="userSpaceOnUse">
<stop stop-color="#FFC700"/>
<stop offset="1" stop-color="#FC9517"/>
</linearGradient>
<linearGradient id="paint1_linear" x1="26.5985" y1="96.0781" x2="26.5985" y2="185.696" gradientUnits="userSpaceOnUse">
<stop stop-color="#8F5A2D"/>
<stop offset="1" stop-color="#351B06"/>
</linearGradient>
<linearGradient id="paint2_linear" x1="114.51" y1="96.0781" x2="114.51" y2="185.696" gradientUnits="userSpaceOnUse">
<stop stop-color="#73431B"/>
<stop offset="1" stop-color="#351B06"/>
</linearGradient>
<linearGradient id="paint3_linear" x1="160.993" y1="96" x2="160.993" y2="186" gradientUnits="userSpaceOnUse">
<stop stop-color="#6C4220"/>
<stop offset="1" stop-color="#351B06"/>
</linearGradient>
<linearGradient id="paint4_linear" x1="131.993" y1="134" x2="131.993" y2="186" gradientUnits="userSpaceOnUse">
<stop stop-color="#FFC700"/>
<stop offset="1" stop-color="#FC9517"/>
</linearGradient>
<linearGradient id="paint5_linear" x1="166.993" y1="134" x2="166.993" y2="186" gradientUnits="userSpaceOnUse">
<stop stop-color="#FFC700"/>
<stop offset="1" stop-color="#FC9517"/>
</linearGradient>
<linearGradient id="paint6_linear" x1="73.9934" y1="173" x2="73.9934" y2="271" gradientUnits="userSpaceOnUse">
<stop stop-color="#8F5A2D"/>
<stop offset="1" stop-color="#351B06"/>
</linearGradient>
<linearGradient id="paint7_linear" x1="160.493" y1="173" x2="160.493" y2="271" gradientUnits="userSpaceOnUse">
<stop stop-color="#8F5A2D"/>
<stop offset="1" stop-color="#351B06"/>
</linearGradient>
<linearGradient id="paint8_linear" x1="175.493" y1="173" x2="175.493" y2="271" gradientUnits="userSpaceOnUse">
<stop stop-color="#8F5A2D"/>
<stop offset="1" stop-color="#351B06"/>
</linearGradient>
<linearGradient id="paint9_linear" x1="157.493" y1="173" x2="157.493" y2="211" gradientUnits="userSpaceOnUse">
<stop stop-color="#FFC700"/>
<stop offset="1" stop-color="#FC9517"/>
</linearGradient>
<linearGradient id="paint10_linear" x1="222.272" y1="158.676" x2="222.272" y2="204.818" gradientUnits="userSpaceOnUse">
<stop stop-color="#FFC700"/>
<stop offset="1" stop-color="#FC9517"/>
</linearGradient>
<linearGradient id="paint11_linear" x1="242.561" y1="96.2485" x2="242.561" y2="142.39" gradientUnits="userSpaceOnUse">
<stop stop-color="#FFC700"/>
<stop offset="1" stop-color="#FC9517"/>
</linearGradient>
<linearGradient id="paint12_linear" x1="24.0253" y1="44.6763" x2="24.0253" y2="45.6763" gradientUnits="userSpaceOnUse">
<stop stop-color="#FFC700"/>
<stop offset="1" stop-color="#FC9517"/>
</linearGradient>
<linearGradient id="paint13_linear" x1="32.9278" y1="17" x2="32.9278" y2="23.5804" gradientUnits="userSpaceOnUse">
<stop stop-color="#FFC700"/>
<stop offset="1" stop-color="#FC9517"/>
</linearGradient>
<linearGradient id="paint14_linear" x1="32.057" y1="64.6108" x2="32.057" y2="75.4491" gradientUnits="userSpaceOnUse">
<stop stop-color="#FFC700"/>
<stop offset="1" stop-color="#FC9517"/>
</linearGradient>
<linearGradient id="paint15_linear" x1="206.187" y1="42.6763" x2="206.187" y2="43.6763" gradientUnits="userSpaceOnUse">
<stop stop-color="#FFC700"/>
<stop offset="1" stop-color="#FC9517"/>
</linearGradient>
<linearGradient id="paint16_linear" x1="197.09" y1="15" x2="197.09" y2="21.3868" gradientUnits="userSpaceOnUse">
<stop stop-color="#FFC700"/>
<stop offset="1" stop-color="#FC9517"/>
</linearGradient>
<linearGradient id="paint17_linear" x1="198.155" y1="62.4175" x2="198.155" y2="73.4493" gradientUnits="userSpaceOnUse">
<stop stop-color="#FFC700"/>
<stop offset="1" stop-color="#FC9517"/>
</linearGradient>
</defs>
</svg>
