<svg width="271" height="271" viewBox="0 0 271 271" fill="none" xmlns="http://www.w3.org/2000/svg">
<path d="M86.5837 64H77.531V39.2148L77.6189 35.1426L77.7654 30.6895C76.2615 32.1934 75.2166 33.1797 74.6306 33.6484L69.7087 37.6035L65.3435 32.1543L79.1423 21.168H86.5837V64ZM128.185 42.584C128.185 50.0645 126.955 55.6016 124.494 59.1953C122.052 62.7891 118.283 64.5859 113.185 64.5859C108.244 64.5859 104.513 62.7305 101.994 59.0195C99.4939 55.3086 98.2439 49.8301 98.2439 42.584C98.2439 35.0254 99.4646 29.459 101.906 25.8848C104.347 22.291 108.107 20.4941 113.185 20.4941C118.127 20.4941 121.857 22.3691 124.377 26.1191C126.916 29.8691 128.185 35.3574 128.185 42.584ZM107.238 42.584C107.238 47.8379 107.687 51.6074 108.586 53.8926C109.504 56.1582 111.037 57.291 113.185 57.291C115.295 57.291 116.818 56.1387 117.756 53.834C118.693 51.5293 119.162 47.7793 119.162 42.584C119.162 37.3301 118.683 33.5605 117.726 31.2754C116.789 28.9707 115.275 27.8184 113.185 27.8184C111.056 27.8184 109.533 28.9707 108.615 31.2754C107.697 33.5605 107.238 37.3301 107.238 42.584ZM170.197 64H159.885L148.664 45.9531L144.826 48.707V64H135.744V21.168H144.826V40.7676L148.4 35.7285L160.002 21.168H170.08L155.138 40.123L170.197 64Z" fill="url(#paint0_linear)"/>
<path d="M182.998 179H45.9978V102H182.998V179Z" fill="#380000"/>
<path d="M131.998 102H182.998V179H131.998V102Z" fill="#380000"/>
<path d="M183.221 185.696C158.513 185.696 138.412 165.595 138.412 140.887C138.412 116.179 158.513 96.0781 183.221 96.0781C186.756 96.0781 189.622 98.9442 189.622 102.479V179.295C189.622 182.83 186.756 185.696 183.221 185.696Z" fill="#4F2424"/>
<path d="M45.8068 185.696C21.0991 185.696 0.997803 165.595 0.997803 140.887C0.997803 116.179 21.0991 96.0781 45.8068 96.0781C49.342 96.0781 52.2081 98.9442 52.2081 102.479V179.295C52.2081 182.83 49.342 185.696 45.8068 185.696Z" fill="url(#paint1_linear)"/>
<path d="M183.221 185.696H45.8068C42.2716 185.696 39.4055 182.83 39.4055 179.295V102.479C39.4055 98.9442 42.2716 96.0781 45.8068 96.0781H183.221C186.756 96.0781 189.622 98.9442 189.622 102.479V179.295C189.622 182.83 186.756 185.696 183.221 185.696ZM52.2081 172.894H176.82V108.881H52.2081V172.894Z" fill="url(#paint2_linear)"/>
<path d="M183.553 96H131.998V108.857H177.109V173.143H131.998V186H183.553C187.112 186 189.998 183.122 189.998 179.571V102.429C189.998 98.8783 187.112 96 183.553 96Z" fill="url(#paint3_linear)"/>
<path d="M195.634 186H68.3615C66.2016 186 64.189 184.881 63.0168 183.028C61.8442 181.175 61.6724 178.841 62.5595 176.829C68.1069 164.255 77.5323 153.555 89.8171 145.885C102.27 138.11 116.856 134 131.998 134C147.14 134 161.726 138.11 174.179 145.885C186.463 153.555 195.889 164.255 201.436 176.829C202.323 178.841 202.151 181.175 200.979 183.028C199.807 184.881 197.794 186 195.634 186Z" fill="url(#paint4_linear)"/>
<path d="M201.436 176.829C195.889 164.255 186.463 153.555 174.179 145.885C161.726 138.11 147.14 134 131.998 134V186H195.634C197.794 186 199.807 184.881 200.979 183.028C202.151 181.175 202.323 178.841 201.436 176.829Z" fill="url(#paint5_linear)"/>
<path d="M102.516 271H45.4793C41.8998 271 38.9978 268.138 38.9978 264.609V179.391C38.9978 175.862 41.8998 173 45.4793 173H102.516C106.096 173 108.998 175.862 108.998 179.391V264.609C108.998 268.138 106.096 271 102.516 271Z" fill="url(#paint6_linear)"/>
<path d="M101.998 173H212.616C216.14 173 218.998 175.862 218.998 179.391V264.609C218.998 268.138 216.14 271 212.616 271H101.998V173Z" fill="url(#paint7_linear)"/>
<path d="M212.632 173H131.998V271H212.632C216.148 271 218.998 268.138 218.998 264.609V179.391C218.998 175.862 216.148 173 212.632 173Z" fill="url(#paint8_linear)"/>
<path d="M157.837 210.997C146.927 211.179 137.998 202.295 137.998 191.663V173H176.998V192C176.998 202.367 168.433 210.82 157.837 210.997Z" fill="url(#paint9_linear)"/>
<path d="M150.998 173V191.75C150.998 195.196 153.914 198 157.498 198C161.082 198 163.998 195.196 163.998 191.75V173H150.998Z" fill="#FFD34F"/>
<path d="M227.637 210.216C240.379 210.216 250.708 199.886 250.708 187.145C250.708 174.403 240.379 164.074 227.637 164.074C214.895 164.074 204.566 174.403 204.566 187.145C204.566 199.886 214.895 210.216 227.637 210.216Z" fill="#341212"/>
<path d="M222.277 204.818C235.018 204.818 245.348 194.489 245.348 181.747C245.348 169.005 235.018 158.676 222.277 158.676C209.535 158.676 199.206 169.005 199.206 181.747C199.206 194.489 209.535 204.818 222.277 204.818Z" fill="url(#paint10_linear)"/>
<path d="M226.972 181.119L227.082 181.23C227.452 181.599 227.378 182.265 226.935 182.561L223.533 184.594C223.459 184.631 223.348 184.705 223.311 184.816L218.985 190.473C218.653 190.917 218.838 191.582 219.355 191.767C220.316 192.137 221.241 192.322 222.165 192.322C223.977 192.322 225.714 191.619 227.378 190.177C228.672 189.068 229.708 187.737 230.484 186.147C230.669 185.777 231.076 185.593 231.445 185.703L233.146 186.147C233.553 186.258 233.812 186.628 233.775 187.034L233.183 195.279C233.146 195.723 232.776 196.056 232.333 196.056L211.48 196.093C211.147 196.093 210.851 195.908 210.741 195.612L208.892 191.915C208.744 191.619 208.781 191.249 209.003 191.028L214.697 183.966C214.955 183.633 214.955 183.152 214.66 182.857C214.29 182.45 214.364 181.821 214.845 181.526L218.024 179.751C218.135 179.714 218.209 179.64 218.283 179.529L223.311 173.318C223.718 172.837 223.459 172.097 222.831 171.95C222.313 171.839 221.795 171.802 221.315 171.802C219.651 171.802 218.135 172.393 216.73 173.65C215.658 174.575 214.845 175.721 214.216 177.089C214.031 177.495 213.587 177.68 213.181 177.532L212.035 177.126C211.702 177.015 211.48 176.682 211.48 176.349L211.332 168.807C211.332 168.326 211.702 167.957 212.183 167.957L233.848 168.104C234.514 168.104 234.921 168.881 234.514 169.435L226.935 180.084C226.639 180.342 226.676 180.823 226.972 181.119Z" fill="#2E5A56"/>
<path d="M247.926 147.788C260.668 147.788 270.997 137.459 270.997 124.717C270.997 111.975 260.668 101.646 247.926 101.646C235.184 101.646 224.855 111.975 224.855 124.717C224.855 137.459 235.184 147.788 247.926 147.788Z" fill="#341212"/>
<path d="M242.566 142.39C255.308 142.39 265.637 132.061 265.637 119.319C265.637 106.578 255.308 96.2485 242.566 96.2485C229.824 96.2485 219.495 106.578 219.495 119.319C219.495 132.061 229.824 142.39 242.566 142.39Z" fill="url(#paint11_linear)"/>
<path d="M247.261 118.691L247.372 118.802C247.741 119.172 247.667 119.837 247.224 120.133L243.822 122.167C243.748 122.203 243.637 122.277 243.6 122.388L239.275 128.045C238.942 128.489 239.127 129.154 239.644 129.339C240.606 129.709 241.53 129.894 242.454 129.894C244.266 129.894 246.004 129.191 247.667 127.749C248.961 126.64 249.997 125.309 250.773 123.719C250.958 123.35 251.365 123.165 251.734 123.276L253.435 123.719C253.842 123.83 254.101 124.2 254.064 124.607L253.472 132.852C253.435 133.295 253.065 133.628 252.622 133.628L231.769 133.665C231.436 133.665 231.141 133.48 231.03 133.184L229.181 129.487C229.033 129.191 229.07 128.822 229.292 128.6L234.986 121.538C235.245 121.205 235.245 120.725 234.949 120.429C234.579 120.022 234.653 119.394 235.134 119.098L238.313 117.323C238.424 117.286 238.498 117.212 238.572 117.101L243.6 110.89C244.007 110.409 243.748 109.67 243.12 109.522C242.602 109.411 242.084 109.374 241.604 109.374C239.94 109.374 238.424 109.966 237.019 111.223C235.947 112.147 235.134 113.293 234.505 114.661C234.32 115.068 233.877 115.253 233.47 115.105L232.324 114.698C231.991 114.587 231.769 114.254 231.769 113.922L231.621 106.379C231.621 105.899 231.991 105.529 232.472 105.529L254.138 105.677C254.803 105.677 255.21 106.453 254.803 107.008L247.224 117.656C246.928 117.915 246.965 118.395 247.261 118.691Z" fill="#2E5A56"/>
<path d="M35.0617 44.6763H18.9978" stroke="url(#paint12_linear)" stroke-width="3" stroke-miterlimit="10"/>
<path d="M42.029 23.5804L29.8359 17" stroke="url(#paint13_linear)" stroke-width="3" stroke-miterlimit="10"/>
<path d="M40.8676 64.6108L29.2551 75.4491" stroke="url(#paint14_linear)" stroke-width="3" stroke-miterlimit="10"/>
<path d="M197.16 42.6763H213.224" stroke="url(#paint15_linear)" stroke-width="3" stroke-miterlimit="10"/>
<path d="M189.998 21.3868L202.191 15" stroke="url(#paint16_linear)" stroke-width="3" stroke-miterlimit="10"/>
<path d="M191.353 62.4175L202.965 73.4493" stroke="url(#paint17_linear)" stroke-width="3" stroke-miterlimit="10"/>
<defs>
<linearGradient id="paint0_linear" x1="115.998" y1="0" x2="115.998" y2="106" gradientUnits="userSpaceOnUse">
<stop stop-color="#FFC700"/>
<stop offset="1" stop-color="#FC9517"/>
</linearGradient>
<linearGradient id="paint1_linear" x1="26.6029" y1="96.0781" x2="26.6029" y2="185.696" gradientUnits="userSpaceOnUse">
<stop stop-color="#8F5A2D"/>
<stop offset="1" stop-color="#351B06"/>
</linearGradient>
<linearGradient id="paint2_linear" x1="114.514" y1="96.0781" x2="114.514" y2="185.696" gradientUnits="userSpaceOnUse">
<stop stop-color="#73431B"/>
<stop offset="1" stop-color="#351B06"/>
</linearGradient>
<linearGradient id="paint3_linear" x1="160.998" y1="96" x2="160.998" y2="186" gradientUnits="userSpaceOnUse">
<stop stop-color="#6C4220"/>
<stop offset="1" stop-color="#351B06"/>
</linearGradient>
<linearGradient id="paint4_linear" x1="131.998" y1="134" x2="131.998" y2="186" gradientUnits="userSpaceOnUse">
<stop stop-color="#FFC700"/>
<stop offset="1" stop-color="#FC9517"/>
</linearGradient>
<linearGradient id="paint5_linear" x1="166.998" y1="134" x2="166.998" y2="186" gradientUnits="userSpaceOnUse">
<stop stop-color="#FFC700"/>
<stop offset="1" stop-color="#FC9517"/>
</linearGradient>
<linearGradient id="paint6_linear" x1="73.9978" y1="173" x2="73.9978" y2="271" gradientUnits="userSpaceOnUse">
<stop stop-color="#8F5A2D"/>
<stop offset="1" stop-color="#351B06"/>
</linearGradient>
<linearGradient id="paint7_linear" x1="160.498" y1="173" x2="160.498" y2="271" gradientUnits="userSpaceOnUse">
<stop stop-color="#8F5A2D"/>
<stop offset="1" stop-color="#351B06"/>
</linearGradient>
<linearGradient id="paint8_linear" x1="175.498" y1="173" x2="175.498" y2="271" gradientUnits="userSpaceOnUse">
<stop stop-color="#8F5A2D"/>
<stop offset="1" stop-color="#351B06"/>
</linearGradient>
<linearGradient id="paint9_linear" x1="157.498" y1="173" x2="157.498" y2="211" gradientUnits="userSpaceOnUse">
<stop stop-color="#FFC700"/>
<stop offset="1" stop-color="#FC9517"/>
</linearGradient>
<linearGradient id="paint10_linear" x1="222.277" y1="158.676" x2="222.277" y2="204.818" gradientUnits="userSpaceOnUse">
<stop stop-color="#FFC700"/>
<stop offset="1" stop-color="#FC9517"/>
</linearGradient>
<linearGradient id="paint11_linear" x1="242.566" y1="96.2485" x2="242.566" y2="142.39" gradientUnits="userSpaceOnUse">
<stop stop-color="#FFC700"/>
<stop offset="1" stop-color="#FC9517"/>
</linearGradient>
<linearGradient id="paint12_linear" x1="27.0297" y1="44.6763" x2="27.0297" y2="45.6763" gradientUnits="userSpaceOnUse">
<stop stop-color="#FFC700"/>
<stop offset="1" stop-color="#FC9517"/>
</linearGradient>
<linearGradient id="paint13_linear" x1="35.9325" y1="17" x2="35.9325" y2="23.5804" gradientUnits="userSpaceOnUse">
<stop stop-color="#FFC700"/>
<stop offset="1" stop-color="#FC9517"/>
</linearGradient>
<linearGradient id="paint14_linear" x1="35.0613" y1="64.6108" x2="35.0613" y2="75.4491" gradientUnits="userSpaceOnUse">
<stop stop-color="#FFC700"/>
<stop offset="1" stop-color="#FC9517"/>
</linearGradient>
<linearGradient id="paint15_linear" x1="205.192" y1="42.6763" x2="205.192" y2="43.6763" gradientUnits="userSpaceOnUse">
<stop stop-color="#FFC700"/>
<stop offset="1" stop-color="#FC9517"/>
</linearGradient>
<linearGradient id="paint16_linear" x1="196.094" y1="15" x2="196.094" y2="21.3868" gradientUnits="userSpaceOnUse">
<stop stop-color="#FFC700"/>
<stop offset="1" stop-color="#FC9517"/>
</linearGradient>
<linearGradient id="paint17_linear" x1="197.159" y1="62.4175" x2="197.159" y2="73.4493" gradientUnits="userSpaceOnUse">
<stop stop-color="#FFC700"/>
<stop offset="1" stop-color="#FC9517"/>
</linearGradient>
</defs>
</svg>
