<svg width="170" height="183" viewBox="0 0 170 183" fill="none" xmlns="http://www.w3.org/2000/svg">
<path fill-rule="evenodd" clip-rule="evenodd" d="M71.1025 141.595H90.5224V172H121.212C122.316 172 123.212 172.895 123.212 174V181C123.212 182.105 122.316 183 121.212 183H41.2119C40.1073 183 39.2119 182.105 39.2119 181V174C39.2119 172.895 40.1073 172 41.2119 172H71.1025V141.595Z" fill="url(#paint0_linear)"/>
<path d="M81.0963 161.769C125.768 161.769 161.981 125.556 161.981 80.8844C161.981 36.2132 125.768 0 81.0963 0C36.4251 0 0.211914 36.2132 0.211914 80.8844C0.211914 125.556 36.4251 161.769 81.0963 161.769Z" fill="url(#paint1_linear)"/>
<path d="M81.0956 154.039C121.498 154.039 154.25 121.287 154.25 80.8847C154.25 40.4827 121.498 7.73047 81.0956 7.73047C40.6936 7.73047 7.94141 40.4827 7.94141 80.8847C7.94141 121.287 40.6936 154.039 81.0956 154.039Z" fill="#FFD34F" stroke="#D2780A" stroke-miterlimit="10"/>
<path d="M81.0967 8.48438V153.473" stroke="#FFAA2E" stroke-miterlimit="10"/>
<path d="M153.497 80.8843H8.5083" stroke="#FFAA2E" stroke-miterlimit="10"/>
<path d="M132.38 29.6008L29.813 132.167" stroke="#FFAA2E" stroke-miterlimit="10"/>
<path d="M132.38 132.167L29.813 29.6008" stroke="#FFAA2E" stroke-miterlimit="10"/>
<path d="M80.7185 128.397C106.855 128.397 128.042 107.209 128.042 81.0727C128.042 54.9364 106.855 33.7488 80.7185 33.7488C54.5822 33.7488 33.3945 54.9364 33.3945 81.0727C33.3945 107.209 54.5822 128.397 80.7185 128.397Z" fill="url(#paint2_linear)"/>
<path d="M141.052 87.1063L159.34 97.6646C163.865 100.304 169.333 97.099 169.333 91.8198V70.7032C169.333 65.6126 163.677 62.4073 159.34 64.8584L141.052 75.4167C136.715 78.2448 136.715 84.6552 141.052 87.1063Z" fill="url(#paint3_linear)"/>
<path d="M50.4165 104L67.8408 65.9141H44.9575V57.6621H78.251V63.8193L60.6997 104H50.4165ZM99.833 74.3564C104.319 74.3564 107.884 75.6154 110.529 78.1333C113.195 80.6512 114.528 84.1001 114.528 88.48C114.528 93.6639 112.93 97.6523 109.735 100.445C106.54 103.238 101.97 104.635 96.0244 104.635C90.8617 104.635 86.6934 103.799 83.5195 102.127V93.6533C85.1911 94.542 87.1377 95.272 89.3594 95.8433C91.5811 96.3934 93.6864 96.6685 95.6753 96.6685C101.663 96.6685 104.657 94.214 104.657 89.3052C104.657 84.6291 101.557 82.291 95.3579 82.291C94.2365 82.291 92.9987 82.4074 91.6445 82.6401C90.2904 82.8517 89.1901 83.0845 88.3438 83.3384L84.4399 81.2437L86.1855 57.5986H111.354V65.9141H94.7866L93.9297 75.0229L95.0405 74.8008C96.3312 74.5046 97.9287 74.3564 99.833 74.3564Z" fill="url(#paint4_linear)"/>
<defs>
<linearGradient id="paint0_linear" x1="81.2119" y1="141.595" x2="81.2119" y2="183" gradientUnits="userSpaceOnUse">
<stop stop-color="#FFC700"/>
<stop offset="1" stop-color="#FC9517"/>
</linearGradient>
<linearGradient id="paint1_linear" x1="81.0963" y1="0" x2="81.0963" y2="161.769" gradientUnits="userSpaceOnUse">
<stop stop-color="#FFC700"/>
<stop offset="1" stop-color="#FC9517"/>
</linearGradient>
<linearGradient id="paint2_linear" x1="80.7185" y1="33.7488" x2="80.7185" y2="128.397" gradientUnits="userSpaceOnUse">
<stop stop-color="#FFC700"/>
<stop offset="1" stop-color="#FC9517"/>
</linearGradient>
<linearGradient id="paint3_linear" x1="153.566" y1="64.0186" x2="153.566" y2="98.6077" gradientUnits="userSpaceOnUse">
<stop stop-color="#FFC700"/>
<stop offset="1" stop-color="#FF4070"/>
</linearGradient>
<linearGradient id="paint4_linear" x1="81.0634" y1="23.3049" x2="81.0634" y2="115.885" gradientUnits="userSpaceOnUse">
<stop stop-color="#ED00D5"/>
<stop offset="1" stop-color="#0009E3"/>
</linearGradient>
</defs>
</svg>
