<svg width="170" height="183" viewBox="0 0 170 183" fill="none" xmlns="http://www.w3.org/2000/svg">
<path fill-rule="evenodd" clip-rule="evenodd" d="M70.9812 141.595H90.401V172H121.091C122.195 172 123.091 172.895 123.091 174V181C123.091 182.105 122.195 183 121.091 183H41.0906C39.986 183 39.0906 182.105 39.0906 181V174C39.0906 172.895 39.986 172 41.0906 172H70.9812V141.595Z" fill="url(#paint0_linear)"/>
<path d="M80.975 161.769C125.646 161.769 161.859 125.556 161.859 80.8844C161.859 36.2132 125.646 0 80.975 0C36.3038 0 0.0905762 36.2132 0.0905762 80.8844C0.0905762 125.556 36.3038 161.769 80.975 161.769Z" fill="url(#paint1_linear)"/>
<path d="M80.9742 154.039C121.376 154.039 154.128 121.287 154.128 80.8847C154.128 40.4827 121.376 7.73047 80.9742 7.73047C40.5723 7.73047 7.82007 40.4827 7.82007 80.8847C7.82007 121.287 40.5723 154.039 80.9742 154.039Z" fill="#FFD34F" stroke="#D2780A" stroke-miterlimit="10"/>
<path d="M80.9753 8.48438V153.473" stroke="#FFAA2E" stroke-miterlimit="10"/>
<path d="M153.375 80.8843H8.38696" stroke="#FFAA2E" stroke-miterlimit="10"/>
<path d="M132.258 29.6008L29.6917 132.167" stroke="#FFAA2E" stroke-miterlimit="10"/>
<path d="M132.258 132.167L29.6917 29.6008" stroke="#FFAA2E" stroke-miterlimit="10"/>
<path d="M80.5971 128.397C106.733 128.397 127.921 107.209 127.921 81.0727C127.921 54.9364 106.733 33.7488 80.5971 33.7488C54.4608 33.7488 33.2732 54.9364 33.2732 81.0727C33.2732 107.209 54.4608 128.397 80.5971 128.397Z" fill="url(#paint2_linear)"/>
<path d="M140.931 87.1063L159.219 97.6646C163.744 100.304 169.212 97.099 169.212 91.8198V70.7032C169.212 65.6126 163.556 62.4073 159.219 64.8584L140.931 75.4167C136.594 78.2448 136.594 84.6552 140.931 87.1063Z" fill="url(#paint3_linear)"/>
<path d="M62.5779 74.3564C67.0636 74.3564 70.6288 75.6154 73.2737 78.1333C75.9397 80.6512 77.2727 84.1001 77.2727 88.48C77.2727 93.6639 75.6752 97.6523 72.4802 100.445C69.2852 103.238 64.7149 104.635 58.7693 104.635C53.6065 104.635 49.4382 103.799 46.2644 102.127V93.6533C47.936 94.542 49.8826 95.272 52.1042 95.8433C54.3259 96.3934 56.4312 96.6685 58.4202 96.6685C64.4081 96.6685 67.4021 94.214 67.4021 89.3052C67.4021 84.6291 64.3023 82.291 58.1028 82.291C56.9814 82.291 55.7436 82.4074 54.3894 82.6401C53.0352 82.8517 51.935 83.0845 51.0886 83.3384L47.1848 81.2437L48.9304 57.5986H74.0989V65.9141H57.5315L56.6746 75.0229L57.7854 74.8008C59.0761 74.5046 60.6736 74.3564 62.5779 74.3564ZM115.01 80.7993C115.01 88.9032 113.677 94.9017 111.01 98.7949C108.366 102.688 104.282 104.635 98.7595 104.635C93.4063 104.635 89.365 102.625 86.6355 98.6045C83.9272 94.5843 82.573 88.6493 82.573 80.7993C82.573 72.6108 83.8954 66.5806 86.5403 62.7085C89.1851 58.8153 93.2582 56.8687 98.7595 56.8687C104.113 56.8687 108.154 58.8999 110.884 62.9624C113.634 67.0249 115.01 72.9705 115.01 80.7993ZM92.3167 80.7993C92.3167 86.491 92.8033 90.5747 93.7766 93.0503C94.7711 95.5047 96.432 96.7319 98.7595 96.7319C101.045 96.7319 102.695 95.4836 103.711 92.9868C104.726 90.4901 105.234 86.4276 105.234 80.7993C105.234 75.1076 104.716 71.0239 103.679 68.5483C102.663 66.0516 101.024 64.8032 98.7595 64.8032C96.4532 64.8032 94.8028 66.0516 93.8083 68.5483C92.8139 71.0239 92.3167 75.1076 92.3167 80.7993Z" fill="url(#paint4_linear)"/>
<defs>
<linearGradient id="paint0_linear" x1="81.0906" y1="141.595" x2="81.0906" y2="183" gradientUnits="userSpaceOnUse">
<stop stop-color="#FFC700"/>
<stop offset="1" stop-color="#FC9517"/>
</linearGradient>
<linearGradient id="paint1_linear" x1="80.975" y1="0" x2="80.975" y2="161.769" gradientUnits="userSpaceOnUse">
<stop stop-color="#FFC700"/>
<stop offset="1" stop-color="#FC9517"/>
</linearGradient>
<linearGradient id="paint2_linear" x1="80.5971" y1="33.7488" x2="80.5971" y2="128.397" gradientUnits="userSpaceOnUse">
<stop stop-color="#FFC700"/>
<stop offset="1" stop-color="#FC9517"/>
</linearGradient>
<linearGradient id="paint3_linear" x1="153.445" y1="64.0186" x2="153.445" y2="98.6077" gradientUnits="userSpaceOnUse">
<stop stop-color="#FFC700"/>
<stop offset="1" stop-color="#FF4070"/>
</linearGradient>
<linearGradient id="paint4_linear" x1="80.9421" y1="23.3049" x2="80.9421" y2="115.885" gradientUnits="userSpaceOnUse">
<stop stop-color="#ED00D5"/>
<stop offset="1" stop-color="#0009E3"/>
</linearGradient>
</defs>
</svg>
