<svg width="170" height="183" viewBox="0 0 170 183" fill="none" xmlns="http://www.w3.org/2000/svg">
<path fill-rule="evenodd" clip-rule="evenodd" d="M71.7385 141.595H91.1584V172H121.848C122.952 172 123.848 172.895 123.848 174V181C123.848 182.105 122.952 183 121.848 183H41.8479C40.7433 183 39.8479 182.105 39.8479 181V174C39.8479 172.895 40.7433 172 41.8479 172H71.7385V141.595Z" fill="url(#paint0_linear)"/>
<path d="M81.7323 161.769C126.404 161.769 162.617 125.556 162.617 80.8844C162.617 36.2132 126.404 0 81.7323 0C37.0611 0 0.8479 36.2132 0.8479 80.8844C0.8479 125.556 37.0611 161.769 81.7323 161.769Z" fill="url(#paint1_linear)"/>
<path d="M81.7316 154.039C122.133 154.039 154.886 121.287 154.886 80.8847C154.886 40.4827 122.133 7.73047 81.7316 7.73047C41.3296 7.73047 8.57739 40.4827 8.57739 80.8847C8.57739 121.287 41.3296 154.039 81.7316 154.039Z" fill="#FFD34F" stroke="#D2780A" stroke-miterlimit="10"/>
<path d="M81.7327 8.48438V153.473" stroke="#FFAA2E" stroke-miterlimit="10"/>
<path d="M154.133 80.8843H9.14429" stroke="#FFAA2E" stroke-miterlimit="10"/>
<path d="M133.016 29.6008L30.449 132.167" stroke="#FFAA2E" stroke-miterlimit="10"/>
<path d="M133.016 132.167L30.449 29.6008" stroke="#FFAA2E" stroke-miterlimit="10"/>
<path d="M81.3545 128.397C107.491 128.397 128.678 107.209 128.678 81.0727C128.678 54.9364 107.491 33.7488 81.3545 33.7488C55.2182 33.7488 34.0305 54.9364 34.0305 81.0727C34.0305 107.209 55.2182 128.397 81.3545 128.397Z" fill="url(#paint2_linear)"/>
<path d="M141.688 87.1063L159.976 97.6646C164.501 100.304 169.969 97.099 169.969 91.8198V70.7032C169.969 65.6126 164.313 62.4073 159.976 64.8584L141.688 75.4167C137.351 78.2448 137.351 84.6552 141.688 87.1063Z" fill="url(#paint3_linear)"/>
<path d="M77.0779 67.9771C77.0779 70.8758 76.1998 73.3408 74.4436 75.3721C72.6874 77.4033 70.2224 78.7998 67.0486 79.5615V79.752C70.7937 80.2174 73.629 81.36 75.5544 83.1797C77.4799 84.9782 78.4426 87.4115 78.4426 90.4795C78.4426 94.944 76.824 98.4246 73.5867 100.921C70.3494 103.397 65.7262 104.635 59.717 104.635C54.6812 104.635 50.2167 103.799 46.3235 102.127V93.7803C48.122 94.6901 50.1003 95.4307 52.2585 96.002C54.4167 96.5732 56.5538 96.8589 58.6697 96.8589C61.907 96.8589 64.2979 96.3088 65.8425 95.2085C67.3871 94.1082 68.1594 92.3415 68.1594 89.9082C68.1594 87.7288 67.2708 86.1842 65.4934 85.2744C63.7161 84.3646 60.8808 83.9097 56.9875 83.9097H53.4646V76.3877H57.051C60.648 76.3877 63.2717 75.9222 64.9221 74.9912C66.5937 74.0391 67.4294 72.4204 67.4294 70.1353C67.4294 66.6229 65.2289 64.8667 60.8279 64.8667C59.3044 64.8667 57.7493 65.1206 56.1624 65.6284C54.5966 66.1362 52.851 67.0143 50.9255 68.2627L46.387 61.5024C50.6187 58.4556 55.6651 56.9321 61.5261 56.9321C66.3292 56.9321 70.1166 57.9054 72.8884 59.8521C75.6814 61.7987 77.0779 64.507 77.0779 67.9771ZM115.767 80.7993C115.767 88.9032 114.434 94.9017 111.768 98.7949C109.123 102.688 105.039 104.635 99.5168 104.635C94.1637 104.635 90.1223 102.625 87.3928 98.6045C84.6845 94.5843 83.3303 88.6493 83.3303 80.7993C83.3303 72.6108 84.6528 66.5806 87.2976 62.7085C89.9425 58.8153 94.0155 56.8687 99.5168 56.8687C104.87 56.8687 108.911 58.8999 111.641 62.9624C114.392 67.0249 115.767 72.9705 115.767 80.7993ZM93.074 80.7993C93.074 86.491 93.5606 90.5747 94.5339 93.0503C95.5284 95.5047 97.1894 96.7319 99.5168 96.7319C101.802 96.7319 103.452 95.4836 104.468 92.9868C105.484 90.4901 105.991 86.4276 105.991 80.7993C105.991 75.1076 105.473 71.0239 104.436 68.5483C103.421 66.0516 101.781 64.8032 99.5168 64.8032C97.2105 64.8032 95.5601 66.0516 94.5657 68.5483C93.5712 71.0239 93.074 75.1076 93.074 80.7993Z" fill="url(#paint4_linear)"/>
<defs>
<linearGradient id="paint0_linear" x1="81.8479" y1="141.595" x2="81.8479" y2="183" gradientUnits="userSpaceOnUse">
<stop stop-color="#FFC700"/>
<stop offset="1" stop-color="#FC9517"/>
</linearGradient>
<linearGradient id="paint1_linear" x1="81.7323" y1="0" x2="81.7323" y2="161.769" gradientUnits="userSpaceOnUse">
<stop stop-color="#FFC700"/>
<stop offset="1" stop-color="#FC9517"/>
</linearGradient>
<linearGradient id="paint2_linear" x1="81.3545" y1="33.7488" x2="81.3545" y2="128.397" gradientUnits="userSpaceOnUse">
<stop stop-color="#FFC700"/>
<stop offset="1" stop-color="#FC9517"/>
</linearGradient>
<linearGradient id="paint3_linear" x1="154.202" y1="64.0186" x2="154.202" y2="98.6077" gradientUnits="userSpaceOnUse">
<stop stop-color="#FFC700"/>
<stop offset="1" stop-color="#FF4070"/>
</linearGradient>
<linearGradient id="paint4_linear" x1="81.6994" y1="23.3049" x2="81.6994" y2="115.885" gradientUnits="userSpaceOnUse">
<stop stop-color="#ED00D5"/>
<stop offset="1" stop-color="#0009E3"/>
</linearGradient>
</defs>
</svg>
