<svg width="171" height="183" viewBox="0 0 171 183" fill="none" xmlns="http://www.w3.org/2000/svg">
<path fill-rule="evenodd" clip-rule="evenodd" d="M71.8599 141.595H91.2797V172H121.969C123.074 172 123.969 172.895 123.969 174V181C123.969 182.105 123.074 183 121.969 183H41.9692C40.8647 183 39.9692 182.105 39.9692 181V174C39.9692 172.895 40.8647 172 41.9692 172H71.8599V141.595Z" fill="url(#paint0_linear)"/>
<path d="M81.8536 161.769C126.525 161.769 162.738 125.556 162.738 80.8844C162.738 36.2132 126.525 0 81.8536 0C37.1824 0 0.969238 36.2132 0.969238 80.8844C0.969238 125.556 37.1824 161.769 81.8536 161.769Z" fill="url(#paint1_linear)"/>
<path d="M81.8529 154.039C122.255 154.039 155.007 121.287 155.007 80.8847C155.007 40.4827 122.255 7.73047 81.8529 7.73047C41.451 7.73047 8.69873 40.4827 8.69873 80.8847C8.69873 121.287 41.451 154.039 81.8529 154.039Z" fill="#FFD34F" stroke="#D2780A" stroke-miterlimit="10"/>
<path d="M81.854 8.48438V153.473" stroke="#FFAA2E" stroke-miterlimit="10"/>
<path d="M154.254 80.8843H9.26562" stroke="#FFAA2E" stroke-miterlimit="10"/>
<path d="M133.137 29.6008L30.5703 132.167" stroke="#FFAA2E" stroke-miterlimit="10"/>
<path d="M133.137 132.167L30.5703 29.6008" stroke="#FFAA2E" stroke-miterlimit="10"/>
<path d="M81.4758 128.397C107.612 128.397 128.8 107.209 128.8 81.0727C128.8 54.9364 107.612 33.7488 81.4758 33.7488C55.3395 33.7488 34.1519 54.9364 34.1519 81.0727C34.1519 107.209 55.3395 128.397 81.4758 128.397Z" fill="url(#paint2_linear)"/>
<path d="M141.809 87.1063L160.098 97.6646C164.623 100.304 170.09 97.099 170.09 91.8198V70.7032C170.09 65.6126 164.434 62.4073 160.098 64.8584L141.809 75.4167C137.473 78.2448 137.473 84.6552 141.809 87.1063Z" fill="url(#paint3_linear)"/>
<path d="M80.0557 94.3833H74.4697V104H64.8848V94.3833H45.0801V87.5596L65.4243 57.5986H74.4697V86.7661H80.0557V94.3833ZM64.8848 86.7661V78.895C64.8848 77.5832 64.9377 75.6789 65.0435 73.1821C65.1493 70.6854 65.2339 69.236 65.2974 68.834H65.0435C64.2606 70.569 63.319 72.2617 62.2188 73.9121L53.7129 86.7661H64.8848ZM115.888 80.7993C115.888 88.9032 114.555 94.9017 111.889 98.7949C109.244 102.688 105.161 104.635 99.6382 104.635C94.285 104.635 90.2437 102.625 87.5142 98.6045C84.8058 94.5843 83.4517 88.6493 83.4517 80.7993C83.4517 72.6108 84.7741 66.5806 87.4189 62.7085C90.0638 58.8153 94.1369 56.8687 99.6382 56.8687C104.991 56.8687 109.033 58.8999 111.762 62.9624C114.513 67.0249 115.888 72.9705 115.888 80.7993ZM93.1953 80.7993C93.1953 86.491 93.682 90.5747 94.6553 93.0503C95.6497 95.5047 97.3107 96.7319 99.6382 96.7319C101.923 96.7319 103.574 95.4836 104.589 92.9868C105.605 90.4901 106.113 86.4276 106.113 80.7993C106.113 75.1076 105.594 71.0239 104.558 68.5483C103.542 66.0516 101.902 64.8032 99.6382 64.8032C97.3319 64.8032 95.6815 66.0516 94.687 68.5483C93.6925 71.0239 93.1953 75.1076 93.1953 80.7993Z" fill="url(#paint4_linear)"/>
<defs>
<linearGradient id="paint0_linear" x1="81.9692" y1="141.595" x2="81.9692" y2="183" gradientUnits="userSpaceOnUse">
<stop stop-color="#FFC700"/>
<stop offset="1" stop-color="#FC9517"/>
</linearGradient>
<linearGradient id="paint1_linear" x1="81.8536" y1="0" x2="81.8536" y2="161.769" gradientUnits="userSpaceOnUse">
<stop stop-color="#FFC700"/>
<stop offset="1" stop-color="#FC9517"/>
</linearGradient>
<linearGradient id="paint2_linear" x1="81.4758" y1="33.7488" x2="81.4758" y2="128.397" gradientUnits="userSpaceOnUse">
<stop stop-color="#FFC700"/>
<stop offset="1" stop-color="#FC9517"/>
</linearGradient>
<linearGradient id="paint3_linear" x1="154.324" y1="64.0186" x2="154.324" y2="98.6077" gradientUnits="userSpaceOnUse">
<stop stop-color="#FFC700"/>
<stop offset="1" stop-color="#FF4070"/>
</linearGradient>
<linearGradient id="paint4_linear" x1="81.8207" y1="23.3049" x2="81.8207" y2="115.885" gradientUnits="userSpaceOnUse">
<stop stop-color="#ED00D5"/>
<stop offset="1" stop-color="#0009E3"/>
</linearGradient>
</defs>
</svg>
