<svg width="170" height="183" viewBox="0 0 170 183" fill="none" xmlns="http://www.w3.org/2000/svg">
<path fill-rule="evenodd" clip-rule="evenodd" d="M71.6172 141.595H91.037V172H121.727C122.831 172 123.727 172.895 123.727 174V181C123.727 182.105 122.831 183 121.727 183H41.7266C40.622 183 39.7266 182.105 39.7266 181V174C39.7266 172.895 40.622 172 41.7266 172H71.6172V141.595Z" fill="url(#paint0_linear)"/>
<path d="M81.611 161.769C126.282 161.769 162.495 125.556 162.495 80.8844C162.495 36.2132 126.282 0 81.611 0C36.9397 0 0.726562 36.2132 0.726562 80.8844C0.726562 125.556 36.9397 161.769 81.611 161.769Z" fill="url(#paint1_linear)"/>
<path d="M81.6102 154.039C122.012 154.039 154.764 121.287 154.764 80.8847C154.764 40.4827 122.012 7.73047 81.6102 7.73047C41.2083 7.73047 8.45605 40.4827 8.45605 80.8847C8.45605 121.287 41.2083 154.039 81.6102 154.039Z" fill="#FFD34F" stroke="#D2780A" stroke-miterlimit="10"/>
<path d="M81.6113 8.48438V153.473" stroke="#FFAA2E" stroke-miterlimit="10"/>
<path d="M154.011 80.8843H9.02295" stroke="#FFAA2E" stroke-miterlimit="10"/>
<path d="M132.894 29.6008L30.3276 132.167" stroke="#FFAA2E" stroke-miterlimit="10"/>
<path d="M132.894 132.167L30.3276 29.6008" stroke="#FFAA2E" stroke-miterlimit="10"/>
<path d="M81.2331 128.397C107.369 128.397 128.557 107.209 128.557 81.0727C128.557 54.9364 107.369 33.7488 81.2331 33.7488C55.0968 33.7488 33.9092 54.9364 33.9092 81.0727C33.9092 107.209 55.0968 128.397 81.2331 128.397Z" fill="url(#paint2_linear)"/>
<path d="M141.567 87.1063L159.855 97.6646C164.38 100.304 169.848 97.099 169.848 91.8198V70.7032C169.848 65.6126 164.192 62.4073 159.855 64.8584L141.567 75.4167C137.23 78.2448 137.23 84.6552 141.567 87.1063Z" fill="url(#paint3_linear)"/>
<path d="M78.7656 104H46.3291V97.1763L57.9771 85.4014C61.4259 81.8678 63.6794 79.424 64.7373 78.0698C65.7952 76.6945 66.557 75.425 67.0225 74.2612C67.488 73.0975 67.7207 71.8914 67.7207 70.6431C67.7207 68.7811 67.2023 67.3952 66.1655 66.4854C65.1499 65.5755 63.7852 65.1206 62.0713 65.1206C60.2728 65.1206 58.5272 65.5332 56.8345 66.3584C55.1418 67.1836 53.375 68.3579 51.5342 69.8813L46.2021 63.5654C48.4873 61.6188 50.381 60.2435 51.8833 59.4395C53.3856 58.6354 55.0254 58.0218 56.8027 57.5986C58.5801 57.1543 60.569 56.9321 62.7695 56.9321C65.6683 56.9321 68.2285 57.4611 70.4502 58.519C72.6719 59.577 74.3963 61.0581 75.6235 62.9624C76.8507 64.8667 77.4644 67.0461 77.4644 69.5005C77.4644 71.6375 77.0835 73.6476 76.3218 75.5308C75.5812 77.3927 74.4175 79.3076 72.8306 81.2754C71.2648 83.2432 68.493 86.0467 64.5151 89.686L58.5483 95.3037V95.748H78.7656V104ZM100.348 74.3564C104.833 74.3564 108.399 75.6154 111.043 78.1333C113.709 80.6512 115.042 84.1001 115.042 88.48C115.042 93.6639 113.445 97.6523 110.25 100.445C107.055 103.238 102.485 104.635 96.5391 104.635C91.3763 104.635 87.208 103.799 84.0342 102.127V93.6533C85.7057 94.542 87.6523 95.272 89.874 95.8433C92.0957 96.3934 94.201 96.6685 96.1899 96.6685C102.178 96.6685 105.172 94.214 105.172 89.3052C105.172 84.6291 102.072 82.291 95.8726 82.291C94.7511 82.291 93.5133 82.4074 92.1592 82.6401C90.805 82.8517 89.7048 83.0845 88.8584 83.3384L84.9546 81.2437L86.7002 57.5986H111.869V65.9141H95.3013L94.4443 75.0229L95.5552 74.8008C96.8459 74.5046 98.4434 74.3564 100.348 74.3564Z" fill="url(#paint4_linear)"/>
<defs>
<linearGradient id="paint0_linear" x1="81.7266" y1="141.595" x2="81.7266" y2="183" gradientUnits="userSpaceOnUse">
<stop stop-color="#FFC700"/>
<stop offset="1" stop-color="#FC9517"/>
</linearGradient>
<linearGradient id="paint1_linear" x1="81.6109" y1="0" x2="81.6109" y2="161.769" gradientUnits="userSpaceOnUse">
<stop stop-color="#FFC700"/>
<stop offset="1" stop-color="#FC9517"/>
</linearGradient>
<linearGradient id="paint2_linear" x1="81.2331" y1="33.7488" x2="81.2331" y2="128.397" gradientUnits="userSpaceOnUse">
<stop stop-color="#FFC700"/>
<stop offset="1" stop-color="#FC9517"/>
</linearGradient>
<linearGradient id="paint3_linear" x1="154.081" y1="64.0186" x2="154.081" y2="98.6077" gradientUnits="userSpaceOnUse">
<stop stop-color="#FFC700"/>
<stop offset="1" stop-color="#FF4070"/>
</linearGradient>
<linearGradient id="paint4_linear" x1="81.5781" y1="23.3049" x2="81.5781" y2="115.885" gradientUnits="userSpaceOnUse">
<stop stop-color="#ED00D5"/>
<stop offset="1" stop-color="#0009E3"/>
</linearGradient>
</defs>
</svg>
