<svg width="170" height="183" viewBox="0 0 170 183" fill="none" xmlns="http://www.w3.org/2000/svg">
<path fill-rule="evenodd" clip-rule="evenodd" d="M71.4668 141.595H90.8866V172H121.576C122.681 172 123.576 172.895 123.576 174V181C123.576 182.105 122.681 183 121.576 183H41.5762C40.4716 183 39.5762 182.105 39.5762 181V174C39.5762 172.895 40.4716 172 41.5762 172H71.4668V141.595Z" fill="url(#paint0_linear)"/>
<path d="M81.4606 161.769C126.132 161.769 162.345 125.556 162.345 80.8844C162.345 36.2132 126.132 0 81.4606 0C36.7894 0 0.576172 36.2132 0.576172 80.8844C0.576172 125.556 36.7894 161.769 81.4606 161.769Z" fill="url(#paint1_linear)"/>
<path d="M81.4598 154.039C121.862 154.039 154.614 121.287 154.614 80.8847C154.614 40.4827 121.862 7.73047 81.4598 7.73047C41.0579 7.73047 8.30566 40.4827 8.30566 80.8847C8.30566 121.287 41.0579 154.039 81.4598 154.039Z" fill="#FFD34F" stroke="#D2780A" stroke-miterlimit="10"/>
<path d="M81.4609 8.48438V153.473" stroke="#FFAA2E" stroke-miterlimit="10"/>
<path d="M153.861 80.8843H8.87256" stroke="#FFAA2E" stroke-miterlimit="10"/>
<path d="M132.744 29.6008L30.1772 132.167" stroke="#FFAA2E" stroke-miterlimit="10"/>
<path d="M132.744 132.167L30.1772 29.6008" stroke="#FFAA2E" stroke-miterlimit="10"/>
<path d="M81.0827 128.397C107.219 128.397 128.407 107.209 128.407 81.0727C128.407 54.9364 107.219 33.7488 81.0827 33.7488C54.9464 33.7488 33.7588 54.9364 33.7588 81.0727C33.7588 107.209 54.9464 128.397 81.0827 128.397Z" fill="url(#paint2_linear)"/>
<path d="M141.416 87.1063L159.704 97.6646C164.229 100.304 169.697 97.099 169.697 91.8198V70.7032C169.697 65.6126 164.041 62.4073 159.704 64.8584L141.416 75.4167C137.079 78.2448 137.079 84.6552 141.416 87.1063Z" fill="url(#paint3_linear)"/>
<path d="M46.0635 74.3564C50.5492 74.3564 54.1144 75.6154 56.7593 78.1333C59.4253 80.6512 60.7583 84.1001 60.7583 88.48C60.7583 93.6639 59.1608 97.6523 55.9658 100.445C52.7708 103.238 48.2005 104.635 42.2549 104.635C37.0921 104.635 32.9238 103.799 29.75 102.127V93.6533C31.4215 94.542 33.3682 95.272 35.5898 95.8433C37.8115 96.3934 39.9168 96.6685 41.9058 96.6685C47.8937 96.6685 50.8877 94.214 50.8877 89.3052C50.8877 84.6291 47.7879 82.291 41.5884 82.291C40.467 82.291 39.2292 82.4074 37.875 82.6401C36.5208 82.8517 35.4206 83.0845 34.5742 83.3384L30.6704 81.2437L32.416 57.5986H57.5845V65.9141H41.0171L40.1602 75.0229L41.271 74.8008C42.5617 74.5046 44.1592 74.3564 46.0635 74.3564ZM98.4951 80.7993C98.4951 88.9032 97.1621 94.9017 94.4961 98.7949C91.8512 102.688 87.7676 104.635 82.2451 104.635C76.8919 104.635 72.8506 102.625 70.1211 98.6045C67.4128 94.5843 66.0586 88.6493 66.0586 80.7993C66.0586 72.6108 67.381 66.5806 70.0259 62.7085C72.6707 58.8153 76.7438 56.8687 82.2451 56.8687C87.5983 56.8687 91.6396 58.8999 94.3691 62.9624C97.1198 67.0249 98.4951 72.9705 98.4951 80.7993ZM75.8022 80.7993C75.8022 86.491 76.2889 90.5747 77.2622 93.0503C78.2567 95.5047 79.9176 96.7319 82.2451 96.7319C84.5303 96.7319 86.1807 95.4836 87.1963 92.9868C88.2119 90.4901 88.7197 86.4276 88.7197 80.7993C88.7197 75.1076 88.2013 71.0239 87.1646 68.5483C86.1489 66.0516 84.5091 64.8032 82.2451 64.8032C79.9388 64.8032 78.2884 66.0516 77.2939 68.5483C76.2995 71.0239 75.8022 75.1076 75.8022 80.7993ZM135.629 80.7993C135.629 88.9032 134.296 94.9017 131.63 98.7949C128.985 102.688 124.901 104.635 119.379 104.635C114.026 104.635 109.984 102.625 107.255 98.6045C104.547 94.5843 103.192 88.6493 103.192 80.7993C103.192 72.6108 104.515 66.5806 107.16 62.7085C109.805 58.8153 113.878 56.8687 119.379 56.8687C124.732 56.8687 128.773 58.8999 131.503 62.9624C134.254 67.0249 135.629 72.9705 135.629 80.7993ZM112.936 80.7993C112.936 86.491 113.423 90.5747 114.396 93.0503C115.39 95.5047 117.051 96.7319 119.379 96.7319C121.664 96.7319 123.314 95.4836 124.33 92.9868C125.346 90.4901 125.854 86.4276 125.854 80.7993C125.854 75.1076 125.335 71.0239 124.298 68.5483C123.283 66.0516 121.643 64.8032 119.379 64.8032C117.073 64.8032 115.422 66.0516 114.428 68.5483C113.433 71.0239 112.936 75.1076 112.936 80.7993Z" fill="url(#paint4_linear)"/>
<defs>
<linearGradient id="paint0_linear" x1="81.5762" y1="141.595" x2="81.5762" y2="183" gradientUnits="userSpaceOnUse">
<stop stop-color="#FFC700"/>
<stop offset="1" stop-color="#FC9517"/>
</linearGradient>
<linearGradient id="paint1_linear" x1="81.4605" y1="0" x2="81.4605" y2="161.769" gradientUnits="userSpaceOnUse">
<stop stop-color="#FFC700"/>
<stop offset="1" stop-color="#FC9517"/>
</linearGradient>
<linearGradient id="paint2_linear" x1="81.0827" y1="33.7488" x2="81.0827" y2="128.397" gradientUnits="userSpaceOnUse">
<stop stop-color="#FFC700"/>
<stop offset="1" stop-color="#FC9517"/>
</linearGradient>
<linearGradient id="paint3_linear" x1="153.93" y1="64.0186" x2="153.93" y2="98.6077" gradientUnits="userSpaceOnUse">
<stop stop-color="#FFC700"/>
<stop offset="1" stop-color="#FF4070"/>
</linearGradient>
<linearGradient id="paint4_linear" x1="83.1011" y1="23.3049" x2="83.1011" y2="115.885" gradientUnits="userSpaceOnUse">
<stop stop-color="#ED00D5"/>
<stop offset="1" stop-color="#0009E3"/>
</linearGradient>
</defs>
</svg>
