<svg width="170" height="183" viewBox="0 0 170 183" fill="none" xmlns="http://www.w3.org/2000/svg">
<path fill-rule="evenodd" clip-rule="evenodd" d="M71.2236 141.595H90.6435V172H121.333C122.438 172 123.333 172.895 123.333 174V181C123.333 182.105 122.438 183 121.333 183H41.333C40.2284 183 39.333 182.105 39.333 181V174C39.333 172.895 40.2284 172 41.333 172H71.2236V141.595Z" fill="url(#paint0_linear)"/>
<path d="M81.2174 161.769C125.889 161.769 162.102 125.556 162.102 80.8844C162.102 36.2132 125.889 0 81.2174 0C36.5462 0 0.333008 36.2132 0.333008 80.8844C0.333008 125.556 36.5462 161.769 81.2174 161.769Z" fill="url(#paint1_linear)"/>
<path d="M81.2167 154.039C121.619 154.039 154.371 121.287 154.371 80.8847C154.371 40.4827 121.619 7.73047 81.2167 7.73047C40.8147 7.73047 8.0625 40.4827 8.0625 80.8847C8.0625 121.287 40.8147 154.039 81.2167 154.039Z" fill="#FFD34F" stroke="#D2780A" stroke-miterlimit="10"/>
<path d="M81.2178 8.48438V153.473" stroke="#FFAA2E" stroke-miterlimit="10"/>
<path d="M153.618 80.8843H8.62939" stroke="#FFAA2E" stroke-miterlimit="10"/>
<path d="M132.501 29.6008L29.9341 132.167" stroke="#FFAA2E" stroke-miterlimit="10"/>
<path d="M132.501 132.167L29.9341 29.6008" stroke="#FFAA2E" stroke-miterlimit="10"/>
<path d="M80.8396 128.397C106.976 128.397 128.164 107.209 128.164 81.0727C128.164 54.9364 106.976 33.7488 80.8396 33.7488C54.7033 33.7488 33.5156 54.9364 33.5156 81.0727C33.5156 107.209 54.7033 128.397 80.8396 128.397Z" fill="url(#paint2_linear)"/>
<path d="M141.173 87.1063L159.462 97.6646C163.987 100.304 169.454 97.099 169.454 91.8198V70.7032C169.454 65.6126 163.798 62.4073 159.462 64.8584L141.173 75.4167C136.837 78.2448 136.837 84.6552 141.173 87.1063Z" fill="url(#paint3_linear)"/>
<path d="M49.1836 104H39.3765V77.1494L39.4717 72.7378L39.6304 67.9136C38.0011 69.5428 36.8691 70.6113 36.2344 71.1191L30.9023 75.4038L26.1733 69.5005L41.1221 57.5986H49.1836V104ZM94.252 80.7993C94.252 88.9032 92.9189 94.9017 90.2529 98.7949C87.6081 102.688 83.5244 104.635 78.002 104.635C72.6488 104.635 68.6074 102.625 65.8779 98.6045C63.1696 94.5843 61.8154 88.6493 61.8154 80.7993C61.8154 72.6108 63.1379 66.5806 65.7827 62.7085C68.4276 58.8153 72.5007 56.8687 78.002 56.8687C83.3551 56.8687 87.3965 58.8999 90.126 62.9624C92.8766 67.0249 94.252 72.9705 94.252 80.7993ZM71.5591 80.7993C71.5591 86.491 72.0457 90.5747 73.019 93.0503C74.0135 95.5047 75.6745 96.7319 78.002 96.7319C80.2871 96.7319 81.9375 95.4836 82.9531 92.9868C83.9688 90.4901 84.4766 86.4276 84.4766 80.7993C84.4766 75.1076 83.9582 71.0239 82.9214 68.5483C81.9058 66.0516 80.266 64.8032 78.002 64.8032C75.6956 64.8032 74.0452 66.0516 73.0508 68.5483C72.0563 71.0239 71.5591 75.1076 71.5591 80.7993ZM131.386 80.7993C131.386 88.9032 130.053 94.9017 127.387 98.7949C124.742 102.688 120.658 104.635 115.136 104.635C109.783 104.635 105.741 102.625 103.012 98.6045C100.303 94.5843 98.9492 88.6493 98.9492 80.7993C98.9492 72.6108 100.272 66.5806 102.917 62.7085C105.561 58.8153 109.634 56.8687 115.136 56.8687C120.489 56.8687 124.53 58.8999 127.26 62.9624C130.01 67.0249 131.386 72.9705 131.386 80.7993ZM108.693 80.7993C108.693 86.491 109.18 90.5747 110.153 93.0503C111.147 95.5047 112.808 96.7319 115.136 96.7319C117.421 96.7319 119.071 95.4836 120.087 92.9868C121.103 90.4901 121.61 86.4276 121.61 80.7993C121.61 75.1076 121.092 71.0239 120.055 68.5483C119.04 66.0516 117.4 64.8032 115.136 64.8032C112.829 64.8032 111.179 66.0516 110.185 68.5483C109.19 71.0239 108.693 75.1076 108.693 80.7993Z" fill="url(#paint4_linear)"/>
<defs>
<linearGradient id="paint0_linear" x1="81.333" y1="141.595" x2="81.333" y2="183" gradientUnits="userSpaceOnUse">
<stop stop-color="#FFC700"/>
<stop offset="1" stop-color="#FC9517"/>
</linearGradient>
<linearGradient id="paint1_linear" x1="81.2174" y1="0" x2="81.2174" y2="161.769" gradientUnits="userSpaceOnUse">
<stop stop-color="#FFC700"/>
<stop offset="1" stop-color="#FC9517"/>
</linearGradient>
<linearGradient id="paint2_linear" x1="80.8396" y1="33.7488" x2="80.8396" y2="128.397" gradientUnits="userSpaceOnUse">
<stop stop-color="#FFC700"/>
<stop offset="1" stop-color="#FC9517"/>
</linearGradient>
<linearGradient id="paint3_linear" x1="153.687" y1="64.0186" x2="153.687" y2="98.6077" gradientUnits="userSpaceOnUse">
<stop stop-color="#FFC700"/>
<stop offset="1" stop-color="#FF4070"/>
</linearGradient>
<linearGradient id="paint4_linear" x1="78.8579" y1="23.3049" x2="78.8579" y2="115.885" gradientUnits="userSpaceOnUse">
<stop stop-color="#ED00D5"/>
<stop offset="1" stop-color="#0009E3"/>
</linearGradient>
</defs>
</svg>
