<svg width="170" height="183" viewBox="0 0 170 183" fill="none" xmlns="http://www.w3.org/2000/svg">
<path fill-rule="evenodd" clip-rule="evenodd" d="M71.3452 141.595H90.765V172H121.455C122.559 172 123.455 172.895 123.455 174V181C123.455 182.105 122.559 183 121.455 183H41.4546C40.35 183 39.4546 182.105 39.4546 181V174C39.4546 172.895 40.35 172 41.4546 172H71.3452V141.595Z" fill="url(#paint0_linear)"/>
<path d="M81.339 161.769C126.01 161.769 162.223 125.556 162.223 80.8844C162.223 36.2132 126.01 0 81.339 0C36.6678 0 0.45459 36.2132 0.45459 80.8844C0.45459 125.556 36.6678 161.769 81.339 161.769Z" fill="url(#paint1_linear)"/>
<path d="M81.3383 154.039C121.74 154.039 154.492 121.287 154.492 80.8847C154.492 40.4827 121.74 7.73047 81.3383 7.73047C40.9363 7.73047 8.18408 40.4827 8.18408 80.8847C8.18408 121.287 40.9363 154.039 81.3383 154.039Z" fill="#FFD34F" stroke="#D2780A" stroke-miterlimit="10"/>
<path d="M81.3394 8.48438V153.473" stroke="#FFAA2E" stroke-miterlimit="10"/>
<path d="M153.74 80.8843H8.75098" stroke="#FFAA2E" stroke-miterlimit="10"/>
<path d="M132.622 29.6008L30.0557 132.167" stroke="#FFAA2E" stroke-miterlimit="10"/>
<path d="M132.622 132.167L30.0557 29.6008" stroke="#FFAA2E" stroke-miterlimit="10"/>
<path d="M80.9611 128.397C107.097 128.397 128.285 107.209 128.285 81.0727C128.285 54.9364 107.097 33.7488 80.9611 33.7488C54.8248 33.7488 33.6372 54.9364 33.6372 81.0727C33.6372 107.209 54.8248 128.397 80.9611 128.397Z" fill="url(#paint2_linear)"/>
<path d="M141.294 87.1063L159.583 97.6646C164.108 100.304 169.576 97.099 169.576 91.8198V70.7032C169.576 65.6126 163.919 62.4073 159.583 64.8584L141.294 75.4167C136.958 78.2448 136.958 84.6552 141.294 87.1063Z" fill="url(#paint3_linear)"/>
<path d="M61.4937 104H29.0571V97.1763L40.7051 85.4014C44.154 81.8678 46.4074 79.424 47.4653 78.0698C48.5233 76.6945 49.285 75.425 49.7505 74.2612C50.216 73.0975 50.4487 71.8914 50.4487 70.6431C50.4487 68.7811 49.9303 67.3952 48.8936 66.4854C47.8779 65.5755 46.5132 65.1206 44.7993 65.1206C43.0008 65.1206 41.2552 65.5332 39.5625 66.3584C37.8698 67.1836 36.103 68.3579 34.2622 69.8813L28.9302 63.5654C31.2153 61.6188 33.109 60.2435 34.6113 59.4395C36.1136 58.6354 37.7534 58.0218 39.5308 57.5986C41.3081 57.1543 43.297 56.9321 45.4976 56.9321C48.3963 56.9321 50.9565 57.4611 53.1782 58.519C55.3999 59.577 57.1243 61.0581 58.3516 62.9624C59.5788 64.8667 60.1924 67.0461 60.1924 69.5005C60.1924 71.6375 59.8115 73.6476 59.0498 75.5308C58.3092 77.3927 57.1455 79.3076 55.5586 81.2754C53.9928 83.2432 51.221 86.0467 47.2432 89.686L41.2764 95.3037V95.748H61.4937V104ZM83.0757 74.3564C87.5614 74.3564 91.1266 75.6154 93.7715 78.1333C96.4375 80.6512 97.7705 84.1001 97.7705 88.48C97.7705 93.6639 96.173 97.6523 92.978 100.445C89.783 103.238 85.2127 104.635 79.2671 104.635C74.1043 104.635 69.936 103.799 66.7622 102.127V93.6533C68.4338 94.542 70.3804 95.272 72.6021 95.8433C74.8237 96.3934 76.929 96.6685 78.918 96.6685C84.9059 96.6685 87.8999 94.214 87.8999 89.3052C87.8999 84.6291 84.8001 82.291 78.6006 82.291C77.4792 82.291 76.2414 82.4074 74.8872 82.6401C73.533 82.8517 72.4328 83.0845 71.5864 83.3384L67.6826 81.2437L69.4282 57.5986H94.5967V65.9141H78.0293L77.1724 75.0229L78.2832 74.8008C79.5739 74.5046 81.1714 74.3564 83.0757 74.3564ZM135.507 80.7993C135.507 88.9032 134.174 94.9017 131.508 98.7949C128.863 102.688 124.78 104.635 119.257 104.635C113.904 104.635 109.863 102.625 107.133 98.6045C104.425 94.5843 103.071 88.6493 103.071 80.7993C103.071 72.6108 104.393 66.5806 107.038 62.7085C109.683 58.8153 113.756 56.8687 119.257 56.8687C124.611 56.8687 128.652 58.8999 131.381 62.9624C134.132 67.0249 135.507 72.9705 135.507 80.7993ZM112.814 80.7993C112.814 86.491 113.301 90.5747 114.274 93.0503C115.269 95.5047 116.93 96.7319 119.257 96.7319C121.542 96.7319 123.193 95.4836 124.208 92.9868C125.224 90.4901 125.732 86.4276 125.732 80.7993C125.732 75.1076 125.214 71.0239 124.177 68.5483C123.161 66.0516 121.521 64.8032 119.257 64.8032C116.951 64.8032 115.301 66.0516 114.306 68.5483C113.312 71.0239 112.814 75.1076 112.814 80.7993Z" fill="url(#paint4_linear)"/>
<defs>
<linearGradient id="paint0_linear" x1="81.4546" y1="141.595" x2="81.4546" y2="183" gradientUnits="userSpaceOnUse">
<stop stop-color="#FFC700"/>
<stop offset="1" stop-color="#FC9517"/>
</linearGradient>
<linearGradient id="paint1_linear" x1="81.339" y1="0" x2="81.339" y2="161.769" gradientUnits="userSpaceOnUse">
<stop stop-color="#FFC700"/>
<stop offset="1" stop-color="#FC9517"/>
</linearGradient>
<linearGradient id="paint2_linear" x1="80.9612" y1="33.7488" x2="80.9612" y2="128.397" gradientUnits="userSpaceOnUse">
<stop stop-color="#FFC700"/>
<stop offset="1" stop-color="#FC9517"/>
</linearGradient>
<linearGradient id="paint3_linear" x1="153.809" y1="64.0186" x2="153.809" y2="98.6077" gradientUnits="userSpaceOnUse">
<stop stop-color="#FFC700"/>
<stop offset="1" stop-color="#FF4070"/>
</linearGradient>
<linearGradient id="paint4_linear" x1="82.9795" y1="23.3049" x2="82.9795" y2="115.885" gradientUnits="userSpaceOnUse">
<stop stop-color="#ED00D5"/>
<stop offset="1" stop-color="#0009E3"/>
</linearGradient>
</defs>
</svg>
