<svg width="170" height="183" viewBox="0 0 170 183" fill="none" xmlns="http://www.w3.org/2000/svg">
<path fill-rule="evenodd" clip-rule="evenodd" d="M71.4961 141.595H90.9159V172H121.605C122.71 172 123.605 172.895 123.605 174V181C123.605 182.105 122.71 183 121.605 183H41.6055C40.5009 183 39.6055 182.105 39.6055 181V174C39.6055 172.895 40.5009 172 41.6055 172H71.4961V141.595Z" fill="url(#paint0_linear)"/>
<path d="M81.4899 161.769C126.161 161.769 162.374 125.556 162.374 80.8844C162.374 36.2132 126.161 0 81.4899 0C36.8187 0 0.605469 36.2132 0.605469 80.8844C0.605469 125.556 36.8187 161.769 81.4899 161.769Z" fill="url(#paint1_linear)"/>
<path d="M81.4891 154.039C121.891 154.039 154.643 121.287 154.643 80.8847C154.643 40.4827 121.891 7.73047 81.4891 7.73047C41.0872 7.73047 8.33496 40.4827 8.33496 80.8847C8.33496 121.287 41.0872 154.039 81.4891 154.039Z" fill="#FFD34F" stroke="#D2780A" stroke-miterlimit="10"/>
<path d="M81.4902 8.48438V153.473" stroke="#FFAA2E" stroke-miterlimit="10"/>
<path d="M153.89 80.8843H8.90173" stroke="#FFAA2E" stroke-miterlimit="10"/>
<path d="M132.773 29.6008L30.2065 132.167" stroke="#FFAA2E" stroke-miterlimit="10"/>
<path d="M132.773 132.167L30.2065 29.6008" stroke="#FFAA2E" stroke-miterlimit="10"/>
<path d="M81.112 128.397C107.248 128.397 128.436 107.209 128.436 81.0727C128.436 54.9364 107.248 33.7488 81.112 33.7488C54.9757 33.7488 33.7881 54.9364 33.7881 81.0727C33.7881 107.209 54.9757 128.397 81.112 128.397Z" fill="url(#paint2_linear)"/>
<path d="M141.445 87.1063L159.734 97.6646C164.259 100.304 169.727 97.099 169.727 91.8198V70.7032C169.727 65.6126 164.07 62.4073 159.734 64.8584L141.445 75.4167C137.109 78.2448 137.109 84.6552 141.445 87.1063Z" fill="url(#paint3_linear)"/>
<path d="M78.6445 104H46.208V97.1763L57.856 85.4014C61.3049 81.8678 63.5583 79.424 64.6162 78.0698C65.6742 76.6945 66.4359 75.425 66.9014 74.2612C67.3669 73.0975 67.5996 71.8914 67.5996 70.6431C67.5996 68.7811 67.0812 67.3952 66.0444 66.4854C65.0288 65.5755 63.6641 65.1206 61.9502 65.1206C60.1517 65.1206 58.4061 65.5332 56.7134 66.3584C55.0207 67.1836 53.2539 68.3579 51.4131 69.8813L46.0811 63.5654C48.3662 61.6188 50.2599 60.2435 51.7622 59.4395C53.2645 58.6354 54.9043 58.0218 56.6816 57.5986C58.459 57.1543 60.4479 56.9321 62.6484 56.9321C65.5472 56.9321 68.1074 57.4611 70.3291 58.519C72.5508 59.577 74.2752 61.0581 75.5024 62.9624C76.7297 64.8667 77.3433 67.0461 77.3433 69.5005C77.3433 71.6375 76.9624 73.6476 76.2007 75.5308C75.4601 77.3927 74.2964 79.3076 72.7095 81.2754C71.1437 83.2432 68.3719 86.0467 64.394 89.686L58.4272 95.3037V95.748H78.6445V104ZM115.524 80.7993C115.524 88.9032 114.191 94.9017 111.525 98.7949C108.881 102.688 104.797 104.635 99.2744 104.635C93.9212 104.635 89.8799 102.625 87.1504 98.6045C84.4421 94.5843 83.0879 88.6493 83.0879 80.7993C83.0879 72.6108 84.4103 66.5806 87.0552 62.7085C89.7 58.8153 93.7731 56.8687 99.2744 56.8687C104.628 56.8687 108.669 58.8999 111.398 62.9624C114.149 67.0249 115.524 72.9705 115.524 80.7993ZM92.8315 80.7993C92.8315 86.491 93.3182 90.5747 94.2915 93.0503C95.286 95.5047 96.9469 96.7319 99.2744 96.7319C101.56 96.7319 103.21 95.4836 104.226 92.9868C105.241 90.4901 105.749 86.4276 105.749 80.7993C105.749 75.1076 105.231 71.0239 104.194 68.5483C103.178 66.0516 101.538 64.8032 99.2744 64.8032C96.9681 64.8032 95.3177 66.0516 94.3232 68.5483C93.3288 71.0239 92.8315 75.1076 92.8315 80.7993Z" fill="url(#paint4_linear)"/>
<defs>
<linearGradient id="paint0_linear" x1="81.6055" y1="141.595" x2="81.6055" y2="183" gradientUnits="userSpaceOnUse">
<stop stop-color="#FFC700"/>
<stop offset="1" stop-color="#FC9517"/>
</linearGradient>
<linearGradient id="paint1_linear" x1="81.4898" y1="0" x2="81.4898" y2="161.769" gradientUnits="userSpaceOnUse">
<stop stop-color="#FFC700"/>
<stop offset="1" stop-color="#FC9517"/>
</linearGradient>
<linearGradient id="paint2_linear" x1="81.112" y1="33.7488" x2="81.112" y2="128.397" gradientUnits="userSpaceOnUse">
<stop stop-color="#FFC700"/>
<stop offset="1" stop-color="#FC9517"/>
</linearGradient>
<linearGradient id="paint3_linear" x1="153.96" y1="64.0186" x2="153.96" y2="98.6077" gradientUnits="userSpaceOnUse">
<stop stop-color="#FFC700"/>
<stop offset="1" stop-color="#FF4070"/>
</linearGradient>
<linearGradient id="paint4_linear" x1="81.457" y1="23.3049" x2="81.457" y2="115.885" gradientUnits="userSpaceOnUse">
<stop stop-color="#ED00D5"/>
<stop offset="1" stop-color="#0009E3"/>
</linearGradient>
</defs>
</svg>
