<svg width="170" height="183" viewBox="0 0 170 183" fill="none" xmlns="http://www.w3.org/2000/svg">
<path fill-rule="evenodd" clip-rule="evenodd" d="M71.2539 141.595H90.6737V172H121.363C122.468 172 123.363 172.895 123.363 174V181C123.363 182.105 122.468 183 121.363 183H41.3633C40.2587 183 39.3633 182.105 39.3633 181V174C39.3633 172.895 40.2587 172 41.3633 172H71.2539V141.595Z" fill="url(#paint0_linear)"/>
<path d="M81.2477 161.769C125.919 161.769 162.132 125.556 162.132 80.8844C162.132 36.2132 125.919 0 81.2477 0C36.5765 0 0.363281 36.2132 0.363281 80.8844C0.363281 125.556 36.5765 161.769 81.2477 161.769Z" fill="url(#paint1_linear)"/>
<path d="M81.2469 154.039C121.649 154.039 154.401 121.287 154.401 80.8847C154.401 40.4827 121.649 7.73047 81.2469 7.73047C40.845 7.73047 8.09277 40.4827 8.09277 80.8847C8.09277 121.287 40.845 154.039 81.2469 154.039Z" fill="#FFD34F" stroke="#D2780A" stroke-miterlimit="10"/>
<path d="M81.248 8.48438V153.473" stroke="#FFAA2E" stroke-miterlimit="10"/>
<path d="M153.648 80.8843H8.65967" stroke="#FFAA2E" stroke-miterlimit="10"/>
<path d="M132.531 29.6008L29.9644 132.167" stroke="#FFAA2E" stroke-miterlimit="10"/>
<path d="M132.531 132.167L29.9644 29.6008" stroke="#FFAA2E" stroke-miterlimit="10"/>
<path d="M80.8698 128.397C107.006 128.397 128.194 107.209 128.194 81.0727C128.194 54.9364 107.006 33.7488 80.8698 33.7488C54.7335 33.7488 33.5459 54.9364 33.5459 81.0727C33.5459 107.209 54.7335 128.397 80.8698 128.397Z" fill="url(#paint2_linear)"/>
<path d="M141.203 87.1063L159.492 97.6646C164.017 100.304 169.484 97.099 169.484 91.8198V70.7032C169.484 65.6126 163.828 62.4073 159.492 64.8584L141.203 75.4167C136.867 78.2448 136.867 84.6552 141.203 87.1063Z" fill="url(#paint3_linear)"/>
<path d="M70.2139 104H60.4067V77.1494L60.502 72.7378L60.6606 67.9136C59.0314 69.5428 57.8994 70.6113 57.2646 71.1191L51.9326 75.4038L47.2036 69.5005L62.1523 57.5986H70.2139V104ZM115.282 80.7993C115.282 88.9032 113.949 94.9017 111.283 98.7949C108.638 102.688 104.555 104.635 99.0322 104.635C93.679 104.635 89.6377 102.625 86.9082 98.6045C84.1999 94.5843 82.8457 88.6493 82.8457 80.7993C82.8457 72.6108 84.1681 66.5806 86.813 62.7085C89.4578 58.8153 93.5309 56.8687 99.0322 56.8687C104.385 56.8687 108.427 58.8999 111.156 62.9624C113.907 67.0249 115.282 72.9705 115.282 80.7993ZM92.5894 80.7993C92.5894 86.491 93.076 90.5747 94.0493 93.0503C95.0438 95.5047 96.7048 96.7319 99.0322 96.7319C101.317 96.7319 102.968 95.4836 103.983 92.9868C104.999 90.4901 105.507 86.4276 105.507 80.7993C105.507 75.1076 104.988 71.0239 103.952 68.5483C102.936 66.0516 101.296 64.8032 99.0322 64.8032C96.7259 64.8032 95.0755 66.0516 94.0811 68.5483C93.0866 71.0239 92.5894 75.1076 92.5894 80.7993Z" fill="url(#paint4_linear)"/>
<defs>
<linearGradient id="paint0_linear" x1="81.3633" y1="141.595" x2="81.3633" y2="183" gradientUnits="userSpaceOnUse">
<stop stop-color="#FFC700"/>
<stop offset="1" stop-color="#FC9517"/>
</linearGradient>
<linearGradient id="paint1_linear" x1="81.2477" y1="0" x2="81.2477" y2="161.769" gradientUnits="userSpaceOnUse">
<stop stop-color="#FFC700"/>
<stop offset="1" stop-color="#FC9517"/>
</linearGradient>
<linearGradient id="paint2_linear" x1="80.8699" y1="33.7488" x2="80.8699" y2="128.397" gradientUnits="userSpaceOnUse">
<stop stop-color="#FFC700"/>
<stop offset="1" stop-color="#FC9517"/>
</linearGradient>
<linearGradient id="paint3_linear" x1="153.717" y1="64.0186" x2="153.717" y2="98.6077" gradientUnits="userSpaceOnUse">
<stop stop-color="#FFC700"/>
<stop offset="1" stop-color="#FF4070"/>
</linearGradient>
<linearGradient id="paint4_linear" x1="81.2148" y1="23.3049" x2="81.2148" y2="115.885" gradientUnits="userSpaceOnUse">
<stop stop-color="#ED00D5"/>
<stop offset="1" stop-color="#0009E3"/>
</linearGradient>
</defs>
</svg>
