<svg width="170" height="183" viewBox="0 0 170 183" fill="none" xmlns="http://www.w3.org/2000/svg">
<path fill-rule="evenodd" clip-rule="evenodd" d="M70.8906 141.595H90.3105V172H121C122.105 172 123 172.895 123 174V181C123 182.105 122.105 183 121 183H41C39.8954 183 39 182.105 39 181V174C39 172.895 39.8954 172 41 172H70.8906V141.595Z" fill="url(#paint0_linear)"/>
<path d="M80.8844 161.769C125.556 161.769 161.769 125.556 161.769 80.8844C161.769 36.2132 125.556 0 80.8844 0C36.2132 0 0 36.2132 0 80.8844C0 125.556 36.2132 161.769 80.8844 161.769Z" fill="url(#paint1_linear)"/>
<path d="M80.8837 154.039C121.286 154.039 154.038 121.287 154.038 80.8847C154.038 40.4827 121.286 7.73047 80.8837 7.73047C40.4817 7.73047 7.72949 40.4827 7.72949 80.8847C7.72949 121.287 40.4817 154.039 80.8837 154.039Z" fill="#FFD34F" stroke="#D2780A" stroke-miterlimit="10"/>
<path d="M80.885 8.48438V153.473" stroke="#FFAA2E" stroke-miterlimit="10"/>
<path d="M153.285 80.8843H8.29639" stroke="#FFAA2E" stroke-miterlimit="10"/>
<path d="M132.168 29.6008L29.6013 132.167" stroke="#FFAA2E" stroke-miterlimit="10"/>
<path d="M132.168 132.167L29.6013 29.6008" stroke="#FFAA2E" stroke-miterlimit="10"/>
<path d="M80.5066 128.397C106.643 128.397 127.831 107.209 127.831 81.0727C127.831 54.9364 106.643 33.7488 80.5066 33.7488C54.3703 33.7488 33.1826 54.9364 33.1826 81.0727C33.1826 107.209 54.3703 128.397 80.5066 128.397Z" fill="url(#paint2_linear)"/>
<path d="M140.84 87.1063L159.128 97.6646C163.653 100.304 169.121 97.099 169.121 91.8198V70.7032C169.121 65.6126 163.465 62.4073 159.128 64.8584L140.84 75.4167C136.503 78.2448 136.503 84.6552 140.84 87.1063Z" fill="url(#paint3_linear)"/>
<path d="M94.23 67.9771C94.23 70.8758 93.3519 73.3408 91.5957 75.3721C89.8395 77.4033 87.3745 78.7998 84.2007 79.5615V79.752C87.9458 80.2174 90.7811 81.36 92.7065 83.1797C94.632 84.9782 95.5947 87.4115 95.5947 90.4795C95.5947 94.944 93.9761 98.4246 90.7388 100.921C87.5015 103.397 82.8783 104.635 76.8691 104.635C71.8333 104.635 67.3688 103.799 63.4756 102.127V93.7803C65.2741 94.6901 67.2524 95.4307 69.4106 96.002C71.5688 96.5732 73.7059 96.8589 75.8218 96.8589C79.0591 96.8589 81.45 96.3088 82.9946 95.2085C84.5392 94.1082 85.3115 92.3415 85.3115 89.9082C85.3115 87.7288 84.4229 86.1842 82.6455 85.2744C80.8682 84.3646 78.0329 83.9097 74.1396 83.9097H70.6167V76.3877H74.2031C77.8001 76.3877 80.4238 75.9222 82.0742 74.9912C83.7458 74.0391 84.5815 72.4204 84.5815 70.1353C84.5815 66.6229 82.381 64.8667 77.98 64.8667C76.4565 64.8667 74.9014 65.1206 73.3145 65.6284C71.7487 66.1362 70.0031 67.0143 68.0776 68.2627L63.5391 61.5024C67.7708 58.4556 72.8172 56.9321 78.6782 56.9321C83.4813 56.9321 87.2687 57.9054 90.0405 59.8521C92.8335 61.7987 94.23 64.507 94.23 67.9771Z" fill="url(#paint4_linear)"/>
<defs>
<linearGradient id="paint0_linear" x1="81" y1="141.595" x2="81" y2="183" gradientUnits="userSpaceOnUse">
<stop stop-color="#FFC700"/>
<stop offset="1" stop-color="#FC9517"/>
</linearGradient>
<linearGradient id="paint1_linear" x1="80.8844" y1="0" x2="80.8844" y2="161.769" gradientUnits="userSpaceOnUse">
<stop stop-color="#FFC700"/>
<stop offset="1" stop-color="#FC9517"/>
</linearGradient>
<linearGradient id="paint2_linear" x1="80.5066" y1="33.7488" x2="80.5066" y2="128.397" gradientUnits="userSpaceOnUse">
<stop stop-color="#FFC700"/>
<stop offset="1" stop-color="#FC9517"/>
</linearGradient>
<linearGradient id="paint3_linear" x1="153.354" y1="64.0186" x2="153.354" y2="98.6077" gradientUnits="userSpaceOnUse">
<stop stop-color="#FFC700"/>
<stop offset="1" stop-color="#FF4070"/>
</linearGradient>
<linearGradient id="paint4_linear" x1="80.1781" y1="23.3049" x2="80.1781" y2="115.885" gradientUnits="userSpaceOnUse">
<stop stop-color="#ED00D5"/>
<stop offset="1" stop-color="#0009E3"/>
</linearGradient>
</defs>
</svg>
