<svg width="170" height="183" viewBox="0 0 170 183" fill="none" xmlns="http://www.w3.org/2000/svg">
<path fill-rule="evenodd" clip-rule="evenodd" d="M71.375 141.595H90.7948V172H121.484C122.589 172 123.484 172.895 123.484 174V181C123.484 182.105 122.589 183 121.484 183H41.4844C40.3798 183 39.4844 182.105 39.4844 181V174C39.4844 172.895 40.3798 172 41.4844 172H71.375V141.595Z" fill="url(#paint0_linear)"/>
<path d="M81.3688 161.769C126.04 161.769 162.253 125.556 162.253 80.8844C162.253 36.2132 126.04 0 81.3688 0C36.6976 0 0.484375 36.2132 0.484375 80.8844C0.484375 125.556 36.6976 161.769 81.3688 161.769Z" fill="url(#paint1_linear)"/>
<path d="M81.368 154.039C121.77 154.039 154.522 121.287 154.522 80.8847C154.522 40.4827 121.77 7.73047 81.368 7.73047C40.9661 7.73047 8.21387 40.4827 8.21387 80.8847C8.21387 121.287 40.9661 154.039 81.368 154.039Z" fill="#FFD34F" stroke="#D2780A" stroke-miterlimit="10"/>
<path d="M81.3691 8.48438V153.473" stroke="#FFAA2E" stroke-miterlimit="10"/>
<path d="M153.769 80.8843H8.78076" stroke="#FFAA2E" stroke-miterlimit="10"/>
<path d="M132.652 29.6008L30.0854 132.167" stroke="#FFAA2E" stroke-miterlimit="10"/>
<path d="M132.652 132.167L30.0854 29.6008" stroke="#FFAA2E" stroke-miterlimit="10"/>
<path d="M80.9909 128.397C107.127 128.397 128.315 107.209 128.315 81.0727C128.315 54.9364 107.127 33.7488 80.9909 33.7488C54.8546 33.7488 33.667 54.9364 33.667 81.0727C33.667 107.209 54.8546 128.397 80.9909 128.397Z" fill="url(#paint2_linear)"/>
<path d="M141.324 87.1063L159.613 97.6646C164.138 100.304 169.605 97.099 169.605 91.8198V70.7032C169.605 65.6126 163.949 62.4073 159.613 64.8584L141.324 75.4167C136.988 78.2448 136.988 84.6552 141.324 87.1063Z" fill="url(#paint3_linear)"/>
<path d="M70.335 104H60.5278V77.1494L60.623 72.7378L60.7817 67.9136C59.1525 69.5428 58.0205 70.6113 57.3857 71.1191L52.0537 75.4038L47.3247 69.5005L62.2734 57.5986H70.335V104ZM100.105 74.3564C104.591 74.3564 108.156 75.6154 110.801 78.1333C113.467 80.6512 114.8 84.1001 114.8 88.48C114.8 93.6639 113.203 97.6523 110.008 100.445C106.813 103.238 102.243 104.635 96.2969 104.635C91.1341 104.635 86.9658 103.799 83.792 102.127V93.6533C85.4635 94.542 87.4102 95.272 89.6318 95.8433C91.8535 96.3934 93.9588 96.6685 95.9478 96.6685C101.936 96.6685 104.93 94.214 104.93 89.3052C104.93 84.6291 101.83 82.291 95.6304 82.291C94.509 82.291 93.2712 82.4074 91.917 82.6401C90.5628 82.8517 89.4626 83.0845 88.6162 83.3384L84.7124 81.2437L86.458 57.5986H111.626V65.9141H95.0591L94.2021 75.0229L95.313 74.8008C96.6037 74.5046 98.2012 74.3564 100.105 74.3564Z" fill="url(#paint4_linear)"/>
<defs>
<linearGradient id="paint0_linear" x1="81.4844" y1="141.595" x2="81.4844" y2="183" gradientUnits="userSpaceOnUse">
<stop stop-color="#FFC700"/>
<stop offset="1" stop-color="#FC9517"/>
</linearGradient>
<linearGradient id="paint1_linear" x1="81.3688" y1="0" x2="81.3688" y2="161.769" gradientUnits="userSpaceOnUse">
<stop stop-color="#FFC700"/>
<stop offset="1" stop-color="#FC9517"/>
</linearGradient>
<linearGradient id="paint2_linear" x1="80.9909" y1="33.7488" x2="80.9909" y2="128.397" gradientUnits="userSpaceOnUse">
<stop stop-color="#FFC700"/>
<stop offset="1" stop-color="#FC9517"/>
</linearGradient>
<linearGradient id="paint3_linear" x1="153.839" y1="64.0186" x2="153.839" y2="98.6077" gradientUnits="userSpaceOnUse">
<stop stop-color="#FFC700"/>
<stop offset="1" stop-color="#FF4070"/>
</linearGradient>
<linearGradient id="paint4_linear" x1="81.3359" y1="23.3049" x2="81.3359" y2="115.885" gradientUnits="userSpaceOnUse">
<stop stop-color="#ED00D5"/>
<stop offset="1" stop-color="#0009E3"/>
</linearGradient>
</defs>
</svg>
