<svg width="229" height="340" viewBox="0 0 229 340" fill="none" xmlns="http://www.w3.org/2000/svg">
<path d="M187.315 131.801H61.8153C49.9153 131.801 40.2153 141.501 40.2153 153.401C40.2153 162.501 44.8153 171.001 52.5153 175.801L72.2153 188.301H176.915L196.615 175.801C204.315 170.901 208.915 162.501 208.915 153.401C208.915 141.501 199.315 131.801 187.315 131.801Z" fill="url(#paint0_linear)"/>
<path d="M149.415 120.801C149.415 130.201 141.815 137.801 132.415 137.801C123.015 137.801 115.415 130.201 115.415 120.801C115.415 111.401 123.015 103.801 132.415 103.801C141.815 103.801 149.415 111.401 149.415 120.801Z" fill="url(#paint1_linear)"/>
<path d="M178.915 209.901C191.915 202.401 195.615 177.001 195.715 176.501C195.415 174.101 195.415 171.601 195.415 168.901C195.415 156.701 183.115 148.101 170.215 148.101H77.6153C66.2153 148.101 55.8153 156.901 53.9153 168.901C51.0153 187.001 44.3153 186.001 34.2153 199.601L40.3153 209.901C40.2153 209.901 165.715 217.501 178.915 209.901Z" fill="url(#paint2_linear)"/>
<path d="M137.115 206.501C102.615 206.501 57.1154 204.101 44.2154 203.401L42.3154 200.201C44.2154 198.001 46.0154 196.201 47.7154 194.501C53.3154 189.001 58.2154 184.301 60.5154 170.001C61.9154 161.401 69.2154 154.901 77.5154 154.901H170.115C179.015 154.901 188.515 160.601 188.515 169.001C188.515 171.901 188.615 174.301 188.815 176.401C187.415 185.301 182.715 200.001 175.515 204.101C174.715 204.401 168.815 206.501 137.115 206.501Z" fill="url(#paint3_linear)"/>
<path d="M210.515 208.501C199.815 193.001 196.615 185.101 195.715 176.501C195.615 177.001 191.915 202.501 178.915 209.901C165.715 217.401 40.2153 209.901 40.2153 209.901L34.1153 199.601C33.6153 200.301 33.1153 201.001 32.5153 201.801C23.1153 215.501 21.1153 232.901 27.1153 248.401C33.6153 265.001 48.4153 276.901 65.9153 279.701L71.4153 280.601C106.615 286.201 142.415 286.201 177.515 280.601L183.015 279.701L195.515 310.901C217.815 280.101 226.015 231.101 210.515 208.501Z" fill="#411E09"/>
<path d="M130.412 187.089C160.348 187.089 184.616 162.822 184.616 132.886C184.616 102.95 160.348 78.6826 130.412 78.6826C100.477 78.6826 76.209 102.95 76.209 132.886C76.209 162.822 100.477 187.089 130.412 187.089Z" fill="#341212"/>
<path d="M117.819 174.408C147.754 174.408 172.022 150.14 172.022 120.204C172.022 90.2686 147.754 66.001 117.819 66.001C87.8831 66.001 63.6155 90.2686 63.6155 120.204C63.6155 150.14 87.8831 174.408 117.819 174.408Z" fill="url(#paint4_linear)"/>
<path d="M128.849 118.728L129.109 118.989C129.978 119.858 129.804 121.421 128.762 122.116L120.77 126.894C120.597 126.981 120.336 127.154 120.249 127.415L110.086 140.705C109.304 141.747 109.739 143.311 110.955 143.745C113.213 144.614 115.385 145.048 117.556 145.048C121.813 145.048 125.895 143.398 129.804 140.01C132.844 137.404 135.277 134.277 137.101 130.542C137.535 129.673 138.491 129.239 139.359 129.5L143.355 130.542C144.311 130.803 144.919 131.671 144.832 132.627L143.442 151.997C143.355 153.04 142.486 153.822 141.444 153.822L92.4526 153.908C91.6708 153.908 90.9758 153.474 90.7152 152.779L86.372 144.093C86.0246 143.398 86.1115 142.529 86.6327 142.008L100.01 125.417C100.618 124.635 100.618 123.506 99.9229 122.811C99.0543 121.856 99.2279 120.379 100.357 119.684L107.828 115.514C108.088 115.428 108.262 115.254 108.436 114.993L120.249 100.4C121.205 99.2708 120.597 97.5335 119.12 97.1861C117.904 96.9255 116.688 96.8387 115.558 96.8387C111.65 96.8387 108.088 98.2285 104.787 101.182C102.268 103.353 100.357 106.046 98.8805 109.26C98.4462 110.216 97.4038 110.65 96.4483 110.303L93.7555 109.347C92.9738 109.086 92.4526 108.305 92.4526 107.523L92.1051 89.8025C92.1051 88.6733 92.9738 87.8047 94.103 87.8047L145.005 88.1522C146.569 88.1522 147.524 89.9762 146.569 91.2792L128.762 116.296C128.067 116.904 128.154 118.033 128.849 118.728Z" fill="#2E5A56"/>
<path d="M193.227 79.0581C212.772 79.0581 228.616 63.2139 228.616 43.6692C228.616 24.1244 212.772 8.28027 193.227 8.28027C173.682 8.28027 157.838 24.1244 157.838 43.6692C157.838 63.2139 173.682 79.0581 193.227 79.0581Z" fill="#341212"/>
<path d="M185.004 70.7778C204.549 70.7778 220.393 54.9336 220.393 35.3888C220.393 15.8441 204.549 0 185.004 0C165.46 0 149.615 15.8441 149.615 35.3888C149.615 54.9336 165.46 70.7778 185.004 70.7778Z" fill="url(#paint5_linear)"/>
<path d="M192.206 34.4251L192.376 34.5953C192.943 35.1624 192.83 36.1832 192.149 36.637L186.932 39.7562C186.818 39.8129 186.648 39.9263 186.591 40.0964L179.956 48.7735C179.445 49.4541 179.729 50.4749 180.523 50.7585C181.998 51.3256 183.415 51.6092 184.833 51.6092C187.612 51.6092 190.278 50.5316 192.83 48.3198C194.815 46.6184 196.403 44.5768 197.594 42.1381C197.877 41.571 198.501 41.2874 199.068 41.4576L201.677 42.1381C202.301 42.3083 202.698 42.8754 202.641 43.4993L201.734 56.1462C201.677 56.8268 201.11 57.3372 200.429 57.3372L168.443 57.3939C167.933 57.3939 167.479 57.1103 167.309 56.6566L164.473 50.9853C164.246 50.5316 164.303 49.9645 164.643 49.6243L173.377 38.7921C173.774 38.2817 173.774 37.5444 173.32 37.0907C172.753 36.4668 172.867 35.5027 173.604 35.049L178.481 32.3268C178.651 32.2701 178.765 32.1567 178.878 31.9865L186.591 22.4587C187.215 21.7214 186.818 20.5872 185.854 20.3604C185.06 20.1902 184.266 20.1335 183.529 20.1335C180.977 20.1335 178.651 21.041 176.496 22.9692C174.852 24.387 173.604 26.1451 172.64 28.2435C172.356 28.8673 171.676 29.1508 171.052 28.924L169.294 28.3001C168.783 28.13 168.443 27.6196 168.443 27.1092L168.216 15.5397C168.216 14.8025 168.783 14.2354 169.521 14.2354L202.754 14.4623C203.775 14.4623 204.399 15.6531 203.775 16.5038L192.149 32.8372C191.695 33.2342 191.752 33.9714 192.206 34.4251Z" fill="#2E5A56"/>
<path d="M164.515 162.501H38.9152C27.0152 162.501 17.3152 172.201 17.3152 184.101C17.3152 193.201 21.9152 201.701 29.6152 206.501L49.3152 219.001H154.015L173.715 206.501C181.415 201.601 186.015 193.201 186.015 184.101C186.115 172.201 176.415 162.501 164.515 162.501Z" fill="url(#paint6_linear)"/>
<path fill-rule="evenodd" clip-rule="evenodd" d="M202.294 259.201H202.316V260.065C202.325 260.618 202.325 261.17 202.316 261.723V286.401C202.216 292.201 201.116 298.001 198.916 303.601C192.516 320.201 177.716 332.101 160.116 334.901L154.616 335.801C119.516 341.401 83.7157 341.401 48.5157 335.801L43.0157 334.901C25.5157 332.101 10.7157 320.201 4.21567 303.601C2.01567 298.101 0.915674 292.201 0.815674 286.401V261.78C0.805252 261.189 0.805262 260.599 0.815674 260.008V259.201H0.836411C1.15408 249.782 4.12029 240.509 9.61519 232.501C13.621 226.674 17.1228 223.248 20.1062 220.329C23.5149 216.994 26.2468 214.321 28.2804 209.487C29.3548 205.41 30.2343 201.277 30.9157 197.101C32.9157 185.101 43.2157 176.301 55.4157 176.301H148.016C160.216 176.301 170.616 185.101 172.516 197.101C173.286 201.82 174.309 206.485 175.58 211.075C177.522 214.945 180.008 217.378 183.024 220.329C186.008 223.248 189.509 226.674 193.515 232.501C199.01 240.509 201.976 249.782 202.294 259.201Z" fill="url(#paint7_linear)"/>
<path d="M104.229 163.524C110.868 156.885 110.868 146.121 104.229 139.482C97.5901 132.843 86.8265 132.843 80.1877 139.482C73.5488 146.121 73.5488 156.885 80.1876 163.524C86.8265 170.163 97.5901 170.163 104.229 163.524Z" fill="url(#paint8_linear)"/>
<path d="M87.6584 283H77.8513V256.149L77.9465 251.738L78.1052 246.914C76.476 248.543 75.344 249.611 74.7092 250.119L69.3772 254.404L64.6482 248.5L79.5969 236.599H87.6584V283ZM141.106 283H129.934L117.778 263.449L113.62 266.433V283H103.781V236.599H113.62V257.832L117.492 252.373L130.061 236.599H140.979L124.792 257.133L141.106 283Z" fill="url(#paint9_linear)"/>
<defs>
<linearGradient id="paint0_linear" x1="209.57" y1="136.168" x2="36.7601" y2="161.949" gradientUnits="userSpaceOnUse">
<stop stop-color="#FFE591"/>
<stop offset="0.3151" stop-color="#DDBC6E"/>
<stop offset="1" stop-color="#8B5917"/>
</linearGradient>
<linearGradient id="paint1_linear" x1="149.547" y1="106.429" x2="114.032" y2="108.203" gradientUnits="userSpaceOnUse">
<stop stop-color="#FFE591"/>
<stop offset="0.3151" stop-color="#DDBC6E"/>
<stop offset="1" stop-color="#8B5917"/>
</linearGradient>
<linearGradient id="paint2_linear" x1="114.965" y1="148.101" x2="114.965" y2="213.278" gradientUnits="userSpaceOnUse">
<stop stop-color="#8F5A2D"/>
<stop offset="1" stop-color="#351B06"/>
</linearGradient>
<linearGradient id="paint3_linear" x1="115.565" y1="154.901" x2="115.565" y2="206.501" gradientUnits="userSpaceOnUse">
<stop stop-color="#4E2D13"/>
<stop offset="1" stop-color="#351B06"/>
</linearGradient>
<linearGradient id="paint4_linear" x1="117.819" y1="66.001" x2="117.819" y2="174.408" gradientUnits="userSpaceOnUse">
<stop stop-color="#FFC700"/>
<stop offset="1" stop-color="#FC9517"/>
</linearGradient>
<linearGradient id="paint5_linear" x1="185.004" y1="0" x2="185.004" y2="70.7778" gradientUnits="userSpaceOnUse">
<stop stop-color="#FFC700"/>
<stop offset="1" stop-color="#FC9517"/>
</linearGradient>
<linearGradient id="paint6_linear" x1="186.671" y1="166.868" x2="13.8599" y2="192.649" gradientUnits="userSpaceOnUse">
<stop stop-color="#FFE591"/>
<stop offset="0.3151" stop-color="#DDBC6E"/>
<stop offset="1" stop-color="#8B5917"/>
</linearGradient>
<linearGradient id="paint7_linear" x1="101.565" y1="176.301" x2="101.565" y2="340.001" gradientUnits="userSpaceOnUse">
<stop stop-color="#8F5A2D"/>
<stop offset="1" stop-color="#351B06"/>
</linearGradient>
<linearGradient id="paint8_linear" x1="94.1598" y1="129.226" x2="70.3019" y2="155.594" gradientUnits="userSpaceOnUse">
<stop stop-color="#FFE591"/>
<stop offset="0.3151" stop-color="#DDBC6E"/>
<stop offset="1" stop-color="#8B5917"/>
</linearGradient>
<linearGradient id="paint9_linear" x1="101.308" y1="213" x2="101.308" y2="302" gradientUnits="userSpaceOnUse">
<stop stop-color="#FFC700"/>
<stop offset="1" stop-color="#FC9517"/>
</linearGradient>
</defs>
</svg>
