<svg width="229" height="340" viewBox="0 0 229 340" fill="none" xmlns="http://www.w3.org/2000/svg">
<path d="M187.201 131.801H61.7006C49.8006 131.801 40.1006 141.501 40.1006 153.401C40.1006 162.501 44.7006 171.001 52.4006 175.801L72.1006 188.301H176.801L196.501 175.801C204.201 170.901 208.801 162.501 208.801 153.401C208.801 141.501 199.201 131.801 187.201 131.801Z" fill="url(#paint0_linear)"/>
<path d="M149.301 120.801C149.301 130.201 141.701 137.801 132.301 137.801C122.901 137.801 115.301 130.201 115.301 120.801C115.301 111.401 122.901 103.801 132.301 103.801C141.701 103.801 149.301 111.401 149.301 120.801Z" fill="url(#paint1_linear)"/>
<path d="M178.801 209.901C191.801 202.401 195.501 177.001 195.601 176.501C195.301 174.101 195.301 171.601 195.301 168.901C195.301 156.701 183.001 148.101 170.101 148.101H77.5006C66.1006 148.101 55.7006 156.901 53.8006 168.901C50.9006 187.001 44.2006 186.001 34.1006 199.601L40.2006 209.901C40.1006 209.901 165.601 217.501 178.801 209.901Z" fill="url(#paint2_linear)"/>
<path d="M137.001 206.501C102.501 206.501 57.0007 204.101 44.1007 203.401L42.2007 200.201C44.1007 198.001 45.9007 196.201 47.6007 194.501C53.2007 189.001 58.1007 184.301 60.4007 170.001C61.8007 161.401 69.1007 154.901 77.4007 154.901H170.001C178.901 154.901 188.401 160.601 188.401 169.001C188.401 171.901 188.501 174.301 188.701 176.401C187.301 185.301 182.601 200.001 175.401 204.101C174.601 204.401 168.701 206.501 137.001 206.501Z" fill="url(#paint3_linear)"/>
<path d="M210.401 208.501C199.701 193.001 196.501 185.101 195.601 176.501C195.501 177.001 191.801 202.501 178.801 209.901C165.601 217.401 40.1006 209.901 40.1006 209.901L34.0006 199.601C33.5006 200.301 33.0006 201.001 32.4006 201.801C23.0006 215.501 21.0006 232.901 27.0006 248.401C33.5006 265.001 48.3006 276.901 65.8006 279.701L71.3006 280.601C106.501 286.201 142.301 286.201 177.401 280.601L182.901 279.701L195.401 310.901C217.701 280.101 225.901 231.101 210.401 208.501Z" fill="#411E09"/>
<path d="M130.298 187.089C160.234 187.089 184.502 162.822 184.502 132.886C184.502 102.95 160.234 78.6826 130.298 78.6826C100.362 78.6826 76.0947 102.95 76.0947 132.886C76.0947 162.822 100.362 187.089 130.298 187.089Z" fill="#341212"/>
<path d="M117.704 174.408C147.64 174.408 171.908 150.14 171.908 120.204C171.908 90.2686 147.64 66.001 117.704 66.001C87.7686 66.001 63.501 90.2686 63.501 120.204C63.501 150.14 87.7686 174.408 117.704 174.408Z" fill="url(#paint4_linear)"/>
<path d="M128.734 118.728L128.995 118.989C129.863 119.858 129.689 121.421 128.647 122.116L120.656 126.894C120.482 126.981 120.221 127.154 120.134 127.415L109.971 140.705C109.189 141.747 109.624 143.311 110.84 143.745C113.098 144.614 115.27 145.048 117.442 145.048C121.698 145.048 125.781 143.398 129.689 140.01C132.73 137.404 135.162 134.277 136.986 130.542C137.42 129.673 138.376 129.239 139.245 129.5L143.24 130.542C144.196 130.803 144.804 131.671 144.717 132.627L143.327 151.997C143.24 153.04 142.372 153.822 141.329 153.822L92.3378 153.908C91.556 153.908 90.8611 153.474 90.6005 152.779L86.2573 144.093C85.9098 143.398 85.9967 142.529 86.5179 142.008L99.895 125.417C100.503 124.635 100.503 123.506 99.8082 122.811C98.9395 121.856 99.1132 120.379 100.242 119.684L107.713 115.514C107.973 115.428 108.147 115.254 108.321 114.993L120.134 100.4C121.09 99.2708 120.482 97.5335 119.005 97.1861C117.789 96.9255 116.573 96.8387 115.444 96.8387C111.535 96.8387 107.973 98.2285 104.673 101.182C102.153 103.353 100.242 106.046 98.7658 109.26C98.3314 110.216 97.2891 110.65 96.3336 110.303L93.6408 109.347C92.859 109.086 92.3378 108.305 92.3378 107.523L91.9904 89.8025C91.9904 88.6733 92.859 87.8047 93.9883 87.8047L144.891 88.1522C146.454 88.1522 147.41 89.9762 146.454 91.2792L128.647 116.296C127.952 116.904 128.039 118.033 128.734 118.728Z" fill="#2E5A56"/>
<path d="M193.113 79.0581C212.657 79.0581 228.501 63.2139 228.501 43.6692C228.501 24.1244 212.657 8.28027 193.113 8.28027C173.568 8.28027 157.724 24.1244 157.724 43.6692C157.724 63.2139 173.568 79.0581 193.113 79.0581Z" fill="#341212"/>
<path d="M184.89 70.7778C204.435 70.7778 220.279 54.9336 220.279 35.3888C220.279 15.8441 204.435 0 184.89 0C165.345 0 149.501 15.8441 149.501 35.3888C149.501 54.9336 165.345 70.7778 184.89 70.7778Z" fill="url(#paint5_linear)"/>
<path d="M192.091 34.4251L192.262 34.5953C192.829 35.1624 192.715 36.1832 192.035 36.637L186.817 39.7562C186.704 39.8129 186.533 39.9263 186.477 40.0964L179.841 48.7735C179.331 49.4541 179.615 50.4749 180.409 50.7585C181.883 51.3256 183.301 51.6092 184.719 51.6092C187.498 51.6092 190.163 50.5316 192.715 48.3198C194.7 46.6184 196.288 44.5768 197.479 42.1381C197.763 41.571 198.387 41.2874 198.954 41.4576L201.562 42.1381C202.186 42.3083 202.583 42.8754 202.527 43.4993L201.619 56.1462C201.562 56.8268 200.995 57.3372 200.315 57.3372L168.329 57.3939C167.818 57.3939 167.365 57.1103 167.194 56.6566L164.359 50.9853C164.132 50.5316 164.189 49.9645 164.529 49.6243L173.263 38.7921C173.66 38.2817 173.66 37.5444 173.206 37.0907C172.639 36.4668 172.752 35.5027 173.49 35.049L178.367 32.3268C178.537 32.2701 178.65 32.1567 178.764 31.9865L186.477 22.4587C187.101 21.7214 186.704 20.5872 185.74 20.3604C184.946 20.1902 184.152 20.1335 183.414 20.1335C180.862 20.1335 178.537 21.041 176.382 22.9692C174.737 24.387 173.49 26.1451 172.525 28.2435C172.242 28.8673 171.561 29.1508 170.937 28.924L169.179 28.3001C168.669 28.13 168.329 27.6196 168.329 27.1092L168.102 15.5397C168.102 14.8025 168.669 14.2354 169.406 14.2354L202.64 14.4623C203.661 14.4623 204.285 15.6531 203.661 16.5038L192.035 32.8372C191.581 33.2342 191.638 33.9714 192.091 34.4251Z" fill="#2E5A56"/>
<path d="M164.401 162.501H38.8007C26.9007 162.501 17.2007 172.201 17.2007 184.101C17.2007 193.201 21.8007 201.701 29.5007 206.501L49.2007 219.001H153.901L173.601 206.501C181.301 201.601 185.901 193.201 185.901 184.101C186.001 172.201 176.301 162.501 164.401 162.501Z" fill="url(#paint6_linear)"/>
<path fill-rule="evenodd" clip-rule="evenodd" d="M202.179 259.201H202.201V260.065C202.21 260.618 202.21 261.17 202.201 261.723V286.401C202.101 292.201 201.001 298.001 198.801 303.601C192.401 320.201 177.601 332.101 160.001 334.901L154.501 335.801C119.401 341.401 83.6012 341.401 48.4012 335.801L42.9012 334.901C25.4012 332.101 10.6012 320.201 4.10117 303.601C1.90117 298.101 0.801172 292.201 0.701172 286.401V261.78C0.69075 261.189 0.69076 260.599 0.701172 260.008V259.201H0.721909C1.03958 249.782 4.00579 240.509 9.50069 232.501C13.5065 226.674 17.0083 223.248 19.9917 220.329C23.4004 216.994 26.1323 214.321 28.1659 209.487C29.2403 205.41 30.1198 201.277 30.8012 197.101C32.8012 185.101 43.1012 176.301 55.3012 176.301H147.901C160.101 176.301 170.501 185.101 172.401 197.101C173.171 201.82 174.194 206.485 175.466 211.075C177.407 214.945 179.893 217.378 182.91 220.329C185.893 223.248 189.395 226.674 193.401 232.501C198.896 240.509 201.862 249.782 202.179 259.201Z" fill="url(#paint7_linear)"/>
<path d="M104.115 163.524C110.753 156.885 110.753 146.121 104.115 139.482C97.4758 132.843 86.7122 132.843 80.0734 139.482C73.4346 146.121 73.4346 156.885 80.0734 163.524C86.7122 170.163 97.4758 170.163 104.115 163.524Z" fill="url(#paint8_linear)"/>
<path d="M54.5439 283H44.7368V256.149L44.832 251.738L44.9907 246.914C43.3615 248.543 42.2295 249.611 41.5947 250.119L36.2627 254.404L31.5337 248.5L46.4824 236.599H54.5439V283ZM99.6123 259.799C99.6123 267.903 98.2793 273.902 95.6133 277.795C92.9684 281.688 88.8848 283.635 83.3623 283.635C78.0091 283.635 73.9678 281.625 71.2383 277.604C68.5299 273.584 67.1758 267.649 67.1758 259.799C67.1758 251.611 68.4982 245.581 71.1431 241.708C73.7879 237.815 77.861 235.869 83.3623 235.869C88.7155 235.869 92.7568 237.9 95.4863 241.962C98.237 246.025 99.6123 251.971 99.6123 259.799ZM76.9194 259.799C76.9194 265.491 77.4061 269.575 78.3794 272.05C79.3739 274.505 81.0348 275.732 83.3623 275.732C85.6475 275.732 87.2979 274.484 88.3135 271.987C89.3291 269.49 89.8369 265.428 89.8369 259.799C89.8369 254.108 89.3185 250.024 88.2817 247.548C87.2661 245.052 85.6263 243.803 83.3623 243.803C81.056 243.803 79.4056 245.052 78.4111 247.548C77.4167 250.024 76.9194 254.108 76.9194 259.799ZM136.746 259.799C136.746 267.903 135.413 273.902 132.747 277.795C130.102 281.688 126.019 283.635 120.496 283.635C115.143 283.635 111.102 281.625 108.372 277.604C105.664 273.584 104.31 267.649 104.31 259.799C104.31 251.611 105.632 245.581 108.277 241.708C110.922 237.815 114.995 235.869 120.496 235.869C125.849 235.869 129.891 237.9 132.62 241.962C135.371 246.025 136.746 251.971 136.746 259.799ZM114.053 259.799C114.053 265.491 114.54 269.575 115.513 272.05C116.508 274.505 118.169 275.732 120.496 275.732C122.781 275.732 124.432 274.484 125.447 271.987C126.463 269.49 126.971 265.428 126.971 259.799C126.971 254.108 126.452 250.024 125.416 247.548C124.4 245.052 122.76 243.803 120.496 243.803C118.19 243.803 116.539 245.052 115.545 247.548C114.55 250.024 114.053 254.108 114.053 259.799ZM182.259 283H171.087L158.931 263.449L154.773 266.433V283H144.935V236.599H154.773V257.832L158.646 252.373L171.214 236.599H182.132L165.945 257.133L182.259 283Z" fill="url(#paint9_linear)"/>
<defs>
<linearGradient id="paint0_linear" x1="209.455" y1="136.168" x2="36.6453" y2="161.949" gradientUnits="userSpaceOnUse">
<stop stop-color="#FFE591"/>
<stop offset="0.3151" stop-color="#DDBC6E"/>
<stop offset="1" stop-color="#8B5917"/>
</linearGradient>
<linearGradient id="paint1_linear" x1="149.433" y1="106.429" x2="113.918" y2="108.203" gradientUnits="userSpaceOnUse">
<stop stop-color="#FFE591"/>
<stop offset="0.3151" stop-color="#DDBC6E"/>
<stop offset="1" stop-color="#8B5917"/>
</linearGradient>
<linearGradient id="paint2_linear" x1="114.851" y1="148.101" x2="114.851" y2="213.278" gradientUnits="userSpaceOnUse">
<stop stop-color="#8F5A2D"/>
<stop offset="1" stop-color="#351B06"/>
</linearGradient>
<linearGradient id="paint3_linear" x1="115.451" y1="154.901" x2="115.451" y2="206.501" gradientUnits="userSpaceOnUse">
<stop stop-color="#4E2D13"/>
<stop offset="1" stop-color="#351B06"/>
</linearGradient>
<linearGradient id="paint4_linear" x1="117.704" y1="66.001" x2="117.704" y2="174.408" gradientUnits="userSpaceOnUse">
<stop stop-color="#FFC700"/>
<stop offset="1" stop-color="#FC9517"/>
</linearGradient>
<linearGradient id="paint5_linear" x1="184.89" y1="0" x2="184.89" y2="70.7778" gradientUnits="userSpaceOnUse">
<stop stop-color="#FFC700"/>
<stop offset="1" stop-color="#FC9517"/>
</linearGradient>
<linearGradient id="paint6_linear" x1="186.556" y1="166.868" x2="13.7454" y2="192.649" gradientUnits="userSpaceOnUse">
<stop stop-color="#FFE591"/>
<stop offset="0.3151" stop-color="#DDBC6E"/>
<stop offset="1" stop-color="#8B5917"/>
</linearGradient>
<linearGradient id="paint7_linear" x1="101.451" y1="176.301" x2="101.451" y2="340.001" gradientUnits="userSpaceOnUse">
<stop stop-color="#8F5A2D"/>
<stop offset="1" stop-color="#351B06"/>
</linearGradient>
<linearGradient id="paint8_linear" x1="94.0455" y1="129.226" x2="70.1876" y2="155.594" gradientUnits="userSpaceOnUse">
<stop stop-color="#FFE591"/>
<stop offset="0.3151" stop-color="#DDBC6E"/>
<stop offset="1" stop-color="#8B5917"/>
</linearGradient>
<linearGradient id="paint9_linear" x1="105.193" y1="213" x2="105.193" y2="302" gradientUnits="userSpaceOnUse">
<stop stop-color="#FFC700"/>
<stop offset="1" stop-color="#FC9517"/>
</linearGradient>
</defs>
</svg>
