<svg width="229" height="340" viewBox="0 0 229 340" fill="none" xmlns="http://www.w3.org/2000/svg">
<path d="M187.393 131.801H61.893C49.993 131.801 40.293 141.501 40.293 153.401C40.293 162.501 44.893 171.001 52.593 175.801L72.293 188.301H176.993L196.693 175.801C204.393 170.901 208.993 162.501 208.993 153.401C208.993 141.501 199.393 131.801 187.393 131.801Z" fill="url(#paint0_linear)"/>
<path d="M149.493 120.801C149.493 130.201 141.893 137.801 132.493 137.801C123.093 137.801 115.493 130.201 115.493 120.801C115.493 111.401 123.093 103.801 132.493 103.801C141.893 103.801 149.493 111.401 149.493 120.801Z" fill="url(#paint1_linear)"/>
<path d="M178.993 209.901C191.993 202.401 195.693 177.001 195.793 176.501C195.493 174.101 195.493 171.601 195.493 168.901C195.493 156.701 183.193 148.101 170.293 148.101H77.693C66.293 148.101 55.893 156.901 53.993 168.901C51.093 187.001 44.393 186.001 34.293 199.601L40.393 209.901C40.293 209.901 165.793 217.501 178.993 209.901Z" fill="url(#paint2_linear)"/>
<path d="M137.193 206.501C102.693 206.501 57.1931 204.101 44.2931 203.401L42.3931 200.201C44.2931 198.001 46.0931 196.201 47.7931 194.501C53.3931 189.001 58.2931 184.301 60.5931 170.001C61.9931 161.401 69.2931 154.901 77.5931 154.901H170.193C179.093 154.901 188.593 160.601 188.593 169.001C188.593 171.901 188.693 174.301 188.893 176.401C187.493 185.301 182.793 200.001 175.593 204.101C174.793 204.401 168.893 206.501 137.193 206.501Z" fill="url(#paint3_linear)"/>
<path d="M210.593 208.501C199.893 193.001 196.693 185.101 195.793 176.501C195.693 177.001 191.993 202.501 178.993 209.901C165.793 217.401 40.293 209.901 40.293 209.901L34.193 199.601C33.693 200.301 33.193 201.001 32.593 201.801C23.193 215.501 21.193 232.901 27.193 248.401C33.693 265.001 48.493 276.901 65.993 279.701L71.493 280.601C106.693 286.201 142.493 286.201 177.593 280.601L183.093 279.701L195.593 310.901C217.893 280.101 226.093 231.101 210.593 208.501Z" fill="#411E09"/>
<path d="M130.49 187.089C160.426 187.089 184.694 162.822 184.694 132.886C184.694 102.95 160.426 78.6826 130.49 78.6826C100.555 78.6826 76.2869 102.95 76.2869 132.886C76.2869 162.822 100.555 187.089 130.49 187.089Z" fill="#341212"/>
<path d="M117.897 174.408C147.832 174.408 172.1 150.14 172.1 120.204C172.1 90.2686 147.832 66.001 117.897 66.001C87.961 66.001 63.6934 90.2686 63.6934 120.204C63.6934 150.14 87.961 174.408 117.897 174.408Z" fill="url(#paint4_linear)"/>
<path d="M128.927 118.728L129.187 118.989C130.056 119.858 129.882 121.421 128.84 122.116L120.848 126.894C120.674 126.981 120.414 127.154 120.327 127.415L110.164 140.705C109.382 141.747 109.816 143.311 111.033 143.745C113.291 144.614 115.463 145.048 117.634 145.048C121.891 145.048 125.973 143.398 129.882 140.01C132.922 137.404 135.355 134.277 137.179 130.542C137.613 129.673 138.569 129.239 139.437 129.5L143.433 130.542C144.388 130.803 144.996 131.671 144.91 132.627L143.52 151.997C143.433 153.04 142.564 153.822 141.522 153.822L92.5304 153.908C91.7487 153.908 91.0537 153.474 90.7931 152.779L86.4499 144.093C86.1025 143.398 86.1894 142.529 86.7106 142.008L100.088 125.417C100.696 124.635 100.696 123.506 100.001 122.811C99.1321 121.856 99.3058 120.379 100.435 119.684L107.905 115.514C108.166 115.428 108.34 115.254 108.513 114.993L120.327 100.4C121.282 99.2708 120.674 97.5335 119.198 97.1861C117.982 96.9255 116.766 96.8387 115.636 96.8387C111.727 96.8387 108.166 98.2285 104.865 101.182C102.346 103.353 100.435 106.046 98.9584 109.26C98.5241 110.216 97.4817 110.65 96.5262 110.303L93.8334 109.347C93.0516 109.086 92.5304 108.305 92.5304 107.523L92.183 89.8025C92.183 88.6733 93.0517 87.8047 94.1809 87.8047L145.083 88.1522C146.647 88.1522 147.602 89.9762 146.647 91.2792L128.84 116.296C128.145 116.904 128.232 118.033 128.927 118.728Z" fill="#2E5A56"/>
<path d="M193.305 79.0581C212.849 79.0581 228.694 63.2139 228.694 43.6692C228.694 24.1244 212.849 8.28027 193.305 8.28027C173.76 8.28027 157.916 24.1244 157.916 43.6692C157.916 63.2139 173.76 79.0581 193.305 79.0581Z" fill="#341212"/>
<path d="M185.082 70.7778C204.627 70.7778 220.471 54.9336 220.471 35.3888C220.471 15.8441 204.627 0 185.082 0C165.537 0 149.693 15.8441 149.693 35.3888C149.693 54.9336 165.537 70.7778 185.082 70.7778Z" fill="url(#paint5_linear)"/>
<path d="M192.284 34.4251L192.454 34.5953C193.021 35.1624 192.908 36.1832 192.227 36.637L187.009 39.7562C186.896 39.8129 186.726 39.9263 186.669 40.0964L180.034 48.7735C179.523 49.4541 179.807 50.4749 180.601 50.7585C182.075 51.3256 183.493 51.6092 184.911 51.6092C187.69 51.6092 190.355 50.5316 192.908 48.3198C194.893 46.6184 196.481 44.5768 197.671 42.1381C197.955 41.571 198.579 41.2874 199.146 41.4576L201.755 42.1381C202.379 42.3083 202.776 42.8754 202.719 43.4993L201.811 56.1462C201.755 56.8268 201.188 57.3372 200.507 57.3372L168.521 57.3939C168.011 57.3939 167.557 57.1103 167.387 56.6566L164.551 50.9853C164.324 50.5316 164.381 49.9645 164.721 49.6243L173.455 38.7921C173.852 38.2817 173.852 37.5444 173.398 37.0907C172.831 36.4668 172.945 35.5027 173.682 35.049L178.559 32.3268C178.729 32.2701 178.843 32.1567 178.956 31.9865L186.669 22.4587C187.293 21.7214 186.896 20.5872 185.932 20.3604C185.138 20.1902 184.344 20.1335 183.607 20.1335C181.055 20.1335 178.729 21.041 176.574 22.9692C174.93 24.387 173.682 26.1451 172.718 28.2435C172.434 28.8673 171.754 29.1508 171.13 28.924L169.372 28.3001C168.861 28.13 168.521 27.6196 168.521 27.1092L168.294 15.5397C168.294 14.8025 168.861 14.2354 169.599 14.2354L202.832 14.4623C203.853 14.4623 204.477 15.6531 203.853 16.5038L192.227 32.8372C191.773 33.2342 191.83 33.9714 192.284 34.4251Z" fill="#2E5A56"/>
<path d="M164.593 162.501H38.9931C27.0931 162.501 17.3931 172.201 17.3931 184.101C17.3931 193.201 21.9931 201.701 29.6931 206.501L49.3931 219.001H154.093L173.793 206.501C181.493 201.601 186.093 193.201 186.093 184.101C186.193 172.201 176.493 162.501 164.593 162.501Z" fill="url(#paint6_linear)"/>
<path fill-rule="evenodd" clip-rule="evenodd" d="M202.372 259.201H202.394V260.065C202.403 260.618 202.403 261.17 202.394 261.723V286.401C202.294 292.201 201.194 298.001 198.994 303.601C192.594 320.201 177.794 332.101 160.194 334.901L154.694 335.801C119.594 341.401 83.7936 341.401 48.5936 335.801L43.0936 334.901C25.5936 332.101 10.7936 320.201 4.29355 303.601C2.09355 298.101 0.993555 292.201 0.893555 286.401V261.78C0.883133 261.189 0.883143 260.599 0.893555 260.008V259.201H0.914292C1.23196 249.782 4.19817 240.509 9.69307 232.501C13.6988 226.674 17.2007 223.248 20.1841 220.329C23.5928 216.994 26.3247 214.321 28.3583 209.487C29.4327 205.41 30.3122 201.277 30.9936 197.101C32.9936 185.101 43.2936 176.301 55.4936 176.301H148.094C160.294 176.301 170.694 185.101 172.594 197.101C173.364 201.82 174.387 206.485 175.658 211.075C177.6 214.945 180.086 217.378 183.102 220.329C186.085 223.248 189.587 226.674 193.593 232.501C199.088 240.509 202.054 249.782 202.372 259.201Z" fill="url(#paint7_linear)"/>
<path d="M104.307 163.524C110.946 156.885 110.946 146.121 104.307 139.482C97.6681 132.843 86.9044 132.843 80.2655 139.482C73.6267 146.121 73.6267 156.885 80.2655 163.524C86.9044 170.163 97.6681 170.163 104.307 163.524Z" fill="url(#paint8_linear)"/>
<path d="M55.0903 283L72.5146 244.914H49.6313V236.662H82.9248V242.819L65.3735 283H55.0903ZM104.507 253.356C108.993 253.356 112.558 254.615 115.203 257.133C117.869 259.651 119.202 263.1 119.202 267.48C119.202 272.664 117.604 276.652 114.409 279.445C111.214 282.238 106.644 283.635 100.698 283.635C95.5355 283.635 91.3672 282.799 88.1934 281.127V272.653C89.8649 273.542 91.8115 274.272 94.0332 274.843C96.2549 275.393 98.3602 275.668 100.349 275.668C106.337 275.668 109.331 273.214 109.331 268.305C109.331 263.629 106.231 261.291 100.032 261.291C98.9103 261.291 97.6725 261.407 96.3184 261.64C94.9642 261.852 93.8639 262.084 93.0176 262.338L89.1138 260.244L90.8594 236.599H116.028V244.914H99.4604L98.6035 254.023L99.7144 253.801C101.005 253.505 102.603 253.356 104.507 253.356ZM165.317 283H154.146L141.99 263.449L137.832 266.433V283H127.993V236.599H137.832V257.832L141.704 252.373L154.272 236.599H165.19L149.004 257.133L165.317 283Z" fill="url(#paint9_linear)"/>
<defs>
<linearGradient id="paint0_linear" x1="209.648" y1="136.168" x2="36.8377" y2="161.949" gradientUnits="userSpaceOnUse">
<stop stop-color="#FFE591"/>
<stop offset="0.3151" stop-color="#DDBC6E"/>
<stop offset="1" stop-color="#8B5917"/>
</linearGradient>
<linearGradient id="paint1_linear" x1="149.625" y1="106.429" x2="114.11" y2="108.203" gradientUnits="userSpaceOnUse">
<stop stop-color="#FFE591"/>
<stop offset="0.3151" stop-color="#DDBC6E"/>
<stop offset="1" stop-color="#8B5917"/>
</linearGradient>
<linearGradient id="paint2_linear" x1="115.043" y1="148.101" x2="115.043" y2="213.278" gradientUnits="userSpaceOnUse">
<stop stop-color="#8F5A2D"/>
<stop offset="1" stop-color="#351B06"/>
</linearGradient>
<linearGradient id="paint3_linear" x1="115.643" y1="154.901" x2="115.643" y2="206.501" gradientUnits="userSpaceOnUse">
<stop stop-color="#4E2D13"/>
<stop offset="1" stop-color="#351B06"/>
</linearGradient>
<linearGradient id="paint4_linear" x1="117.897" y1="66.001" x2="117.897" y2="174.408" gradientUnits="userSpaceOnUse">
<stop stop-color="#FFC700"/>
<stop offset="1" stop-color="#FC9517"/>
</linearGradient>
<linearGradient id="paint5_linear" x1="185.082" y1="0" x2="185.082" y2="70.7778" gradientUnits="userSpaceOnUse">
<stop stop-color="#FFC700"/>
<stop offset="1" stop-color="#FC9517"/>
</linearGradient>
<linearGradient id="paint6_linear" x1="186.748" y1="166.868" x2="13.9378" y2="192.649" gradientUnits="userSpaceOnUse">
<stop stop-color="#FFE591"/>
<stop offset="0.3151" stop-color="#DDBC6E"/>
<stop offset="1" stop-color="#8B5917"/>
</linearGradient>
<linearGradient id="paint7_linear" x1="101.643" y1="176.301" x2="101.643" y2="340.001" gradientUnits="userSpaceOnUse">
<stop stop-color="#8F5A2D"/>
<stop offset="1" stop-color="#351B06"/>
</linearGradient>
<linearGradient id="paint8_linear" x1="94.2377" y1="129.226" x2="70.3798" y2="155.594" gradientUnits="userSpaceOnUse">
<stop stop-color="#FFE591"/>
<stop offset="0.3151" stop-color="#DDBC6E"/>
<stop offset="1" stop-color="#8B5917"/>
</linearGradient>
<linearGradient id="paint9_linear" x1="106.886" y1="213" x2="106.886" y2="302" gradientUnits="userSpaceOnUse">
<stop stop-color="#FFC700"/>
<stop offset="1" stop-color="#FC9517"/>
</linearGradient>
</defs>
</svg>
