<svg width="228" height="340" viewBox="0 0 228 340" fill="none" xmlns="http://www.w3.org/2000/svg">
<path d="M186.546 131.801H61.0462C49.1462 131.801 39.4462 141.501 39.4462 153.401C39.4462 162.501 44.0462 171.001 51.7462 175.801L71.4462 188.301H176.146L195.846 175.801C203.546 170.901 208.146 162.501 208.146 153.401C208.146 141.501 198.546 131.801 186.546 131.801Z" fill="url(#paint0_linear)"/>
<path d="M148.646 120.801C148.646 130.201 141.046 137.801 131.646 137.801C122.246 137.801 114.646 130.201 114.646 120.801C114.646 111.401 122.246 103.801 131.646 103.801C141.046 103.801 148.646 111.401 148.646 120.801Z" fill="url(#paint1_linear)"/>
<path d="M178.146 209.901C191.146 202.401 194.846 177.001 194.946 176.501C194.646 174.101 194.646 171.601 194.646 168.901C194.646 156.701 182.346 148.101 169.446 148.101H76.8462C65.4462 148.101 55.0462 156.901 53.1462 168.901C50.2462 187.001 43.5462 186.001 33.4462 199.601L39.5462 209.901C39.4462 209.901 164.946 217.501 178.146 209.901Z" fill="url(#paint2_linear)"/>
<path d="M136.346 206.501C101.846 206.501 56.3461 204.101 43.4461 203.401L41.5461 200.201C43.4461 198.001 45.2461 196.201 46.9461 194.501C52.5461 189.001 57.4461 184.301 59.7461 170.001C61.1461 161.401 68.4461 154.901 76.7461 154.901H169.346C178.246 154.901 187.746 160.601 187.746 169.001C187.746 171.901 187.846 174.301 188.046 176.401C186.646 185.301 181.946 200.001 174.746 204.101C173.946 204.401 168.046 206.501 136.346 206.501Z" fill="url(#paint3_linear)"/>
<path d="M209.746 208.501C199.046 193.001 195.846 185.101 194.946 176.501C194.846 177.001 191.146 202.501 178.146 209.901C164.946 217.401 39.4462 209.901 39.4462 209.901L33.3462 199.601C32.8462 200.301 32.3462 201.001 31.7462 201.801C22.3462 215.501 20.3462 232.901 26.3462 248.401C32.8462 265.001 47.6462 276.901 65.1462 279.701L70.6462 280.601C105.846 286.201 141.646 286.201 176.746 280.601L182.246 279.701L194.746 310.901C217.046 280.101 225.246 231.101 209.746 208.501Z" fill="#411E09"/>
<path d="M129.643 187.089C159.579 187.089 183.847 162.822 183.847 132.886C183.847 102.95 159.579 78.6826 129.643 78.6826C99.7076 78.6826 75.4399 102.95 75.4399 132.886C75.4399 162.822 99.7076 187.089 129.643 187.089Z" fill="#341212"/>
<path d="M117.05 174.408C146.985 174.408 171.253 150.14 171.253 120.204C171.253 90.2686 146.985 66.001 117.05 66.001C87.1141 66.001 62.8464 90.2686 62.8464 120.204C62.8464 150.14 87.1141 174.408 117.05 174.408Z" fill="url(#paint4_linear)"/>
<path d="M128.08 118.728L128.34 118.989C129.209 119.858 129.035 121.421 127.993 122.116L120.001 126.894C119.828 126.981 119.567 127.154 119.48 127.415L109.317 140.705C108.535 141.747 108.969 143.311 110.186 143.745C112.444 144.614 114.616 145.048 116.787 145.048C121.044 145.048 125.126 143.398 129.035 140.01C132.075 137.404 134.508 134.277 136.332 130.542C136.766 129.673 137.722 129.239 138.59 129.5L142.586 130.542C143.541 130.803 144.15 131.671 144.063 132.627L142.673 151.997C142.586 153.04 141.717 153.822 140.675 153.822L91.6835 153.908C90.9017 153.908 90.2068 153.474 89.9462 152.779L85.603 144.093C85.2555 143.398 85.3424 142.529 85.8636 142.008L99.2407 125.417C99.8487 124.635 99.8488 123.506 99.1539 122.811C98.2852 121.856 98.4589 120.379 99.5881 119.684L107.058 115.514C107.319 115.428 107.493 115.254 107.667 114.993L119.48 100.4C120.436 99.2708 119.828 97.5335 118.351 97.1861C117.135 96.9255 115.919 96.8387 114.789 96.8387C110.88 96.8387 107.319 98.2285 104.018 101.182C101.499 103.353 99.5882 106.046 98.1115 109.26C97.6771 110.216 96.6348 110.65 95.6793 110.303L92.9865 109.347C92.2047 109.086 91.6835 108.305 91.6835 107.523L91.3361 89.8025C91.3361 88.6733 92.2047 87.8047 93.334 87.8047L144.236 88.1522C145.8 88.1522 146.755 89.9762 145.8 91.2792L127.993 116.296C127.298 116.904 127.385 118.033 128.08 118.728Z" fill="#2E5A56"/>
<path d="M192.458 79.0581C212.002 79.0581 227.847 63.2139 227.847 43.6692C227.847 24.1244 212.002 8.28027 192.458 8.28027C172.913 8.28027 157.069 24.1244 157.069 43.6692C157.069 63.2139 172.913 79.0581 192.458 79.0581Z" fill="#341212"/>
<path d="M184.235 70.7778C203.78 70.7778 219.624 54.9336 219.624 35.3888C219.624 15.8441 203.78 0 184.235 0C164.691 0 148.846 15.8441 148.846 35.3888C148.846 54.9336 164.691 70.7778 184.235 70.7778Z" fill="url(#paint5_linear)"/>
<path d="M191.437 34.4251L191.607 34.5953C192.174 35.1624 192.061 36.1832 191.38 36.637L186.163 39.7562C186.049 39.8129 185.879 39.9263 185.822 40.0964L179.187 48.7735C178.676 49.4541 178.96 50.4749 179.754 50.7585C181.229 51.3256 182.646 51.6092 184.064 51.6092C186.843 51.6092 189.509 50.5316 192.061 48.3198C194.046 46.6184 195.634 44.5768 196.825 42.1381C197.108 41.571 197.732 41.2874 198.299 41.4576L200.908 42.1381C201.532 42.3083 201.929 42.8754 201.872 43.4993L200.965 56.1462C200.908 56.8268 200.341 57.3372 199.66 57.3372L167.674 57.3939C167.164 57.3939 166.71 57.1103 166.54 56.6566L163.704 50.9853C163.477 50.5316 163.534 49.9645 163.874 49.6243L172.608 38.7921C173.005 38.2817 173.005 37.5444 172.551 37.0907C171.984 36.4668 172.098 35.5027 172.835 35.049L177.712 32.3268C177.882 32.2701 177.996 32.1567 178.109 31.9865L185.822 22.4587C186.446 21.7214 186.049 20.5872 185.085 20.3604C184.291 20.1902 183.497 20.1335 182.76 20.1335C180.208 20.1335 177.882 21.041 175.727 22.9692C174.083 24.387 172.835 26.1451 171.871 28.2435C171.587 28.8673 170.907 29.1508 170.283 28.924L168.525 28.3001C168.014 28.13 167.674 27.6196 167.674 27.1092L167.447 15.5397C167.447 14.8025 168.014 14.2354 168.752 14.2354L201.985 14.4623C203.006 14.4623 203.63 15.6531 203.006 16.5038L191.38 32.8372C190.926 33.2342 190.983 33.9714 191.437 34.4251Z" fill="#2E5A56"/>
<path d="M163.746 162.501H38.1461C26.2461 162.501 16.5461 172.201 16.5461 184.101C16.5461 193.201 21.1461 201.701 28.8461 206.501L48.5461 219.001H153.246L172.946 206.501C180.646 201.601 185.246 193.201 185.246 184.101C185.346 172.201 175.646 162.501 163.746 162.501Z" fill="url(#paint6_linear)"/>
<path fill-rule="evenodd" clip-rule="evenodd" d="M201.525 259.201H201.547V260.065C201.556 260.618 201.556 261.17 201.547 261.723V286.401C201.447 292.201 200.347 298.001 198.147 303.601C191.747 320.201 176.947 332.101 159.347 334.901L153.847 335.801C118.747 341.401 82.9466 341.401 47.7466 335.801L42.2466 334.901C24.7466 332.101 9.94663 320.201 3.44663 303.601C1.24663 298.101 0.146631 292.201 0.0466309 286.401V261.78C0.0362093 261.189 0.0362191 260.599 0.0466309 260.008V259.201H0.0673682C0.385035 249.782 3.35125 240.509 8.84615 232.501C12.8519 226.674 16.3538 223.248 19.3372 220.329C22.7458 216.994 25.4778 214.321 27.5113 209.487C28.5857 205.41 29.4652 201.277 30.1466 197.101C32.1466 185.101 42.4466 176.301 54.6466 176.301H147.247C159.447 176.301 169.847 185.101 171.747 197.101C172.517 201.82 173.54 206.485 174.811 211.075C176.753 214.945 179.239 217.378 182.255 220.329C185.239 223.248 188.74 226.674 192.746 232.501C198.241 240.509 201.207 249.782 201.525 259.201Z" fill="url(#paint7_linear)"/>
<path d="M103.46 163.524C110.099 156.885 110.099 146.121 103.46 139.482C96.821 132.843 86.0573 132.843 79.4185 139.482C72.7797 146.121 72.7797 156.885 79.4185 163.524C86.0573 170.163 96.821 170.163 103.46 163.524Z" fill="url(#paint8_linear)"/>
<path d="M81.5261 253.356C86.0118 253.356 89.5771 254.615 92.2219 257.133C94.8879 259.651 96.2209 263.1 96.2209 267.48C96.2209 272.664 94.6235 276.652 91.4285 279.445C88.2335 282.238 83.6632 283.635 77.7175 283.635C72.5548 283.635 68.3865 282.799 65.2126 281.127V272.653C66.8842 273.542 68.8308 274.272 71.0525 274.843C73.2742 275.393 75.3795 275.668 77.3684 275.668C83.3564 275.668 86.3503 273.214 86.3503 268.305C86.3503 263.629 83.2506 261.291 77.051 261.291C75.9296 261.291 74.6918 261.407 73.3376 261.64C71.9835 261.852 70.8832 262.084 70.0369 262.338L66.1331 260.244L67.8787 236.599H93.0471V244.914H76.4797L75.6228 254.023L76.7336 253.801C78.0243 253.505 79.6218 253.356 81.5261 253.356ZM142.337 283H131.165L119.009 263.449L114.851 266.433V283H105.012V236.599H114.851V257.832L118.723 252.373L131.292 236.599H142.21L126.023 257.133L142.337 283Z" fill="url(#paint9_linear)"/>
<defs>
<linearGradient id="paint0_linear" x1="208.801" y1="136.168" x2="35.9909" y2="161.949" gradientUnits="userSpaceOnUse">
<stop stop-color="#FFE591"/>
<stop offset="0.3151" stop-color="#DDBC6E"/>
<stop offset="1" stop-color="#8B5917"/>
</linearGradient>
<linearGradient id="paint1_linear" x1="148.778" y1="106.429" x2="113.263" y2="108.203" gradientUnits="userSpaceOnUse">
<stop stop-color="#FFE591"/>
<stop offset="0.3151" stop-color="#DDBC6E"/>
<stop offset="1" stop-color="#8B5917"/>
</linearGradient>
<linearGradient id="paint2_linear" x1="114.196" y1="148.101" x2="114.196" y2="213.278" gradientUnits="userSpaceOnUse">
<stop stop-color="#8F5A2D"/>
<stop offset="1" stop-color="#351B06"/>
</linearGradient>
<linearGradient id="paint3_linear" x1="114.796" y1="154.901" x2="114.796" y2="206.501" gradientUnits="userSpaceOnUse">
<stop stop-color="#4E2D13"/>
<stop offset="1" stop-color="#351B06"/>
</linearGradient>
<linearGradient id="paint4_linear" x1="117.05" y1="66.001" x2="117.05" y2="174.408" gradientUnits="userSpaceOnUse">
<stop stop-color="#FFC700"/>
<stop offset="1" stop-color="#FC9517"/>
</linearGradient>
<linearGradient id="paint5_linear" x1="184.235" y1="0" x2="184.235" y2="70.7778" gradientUnits="userSpaceOnUse">
<stop stop-color="#FFC700"/>
<stop offset="1" stop-color="#FC9517"/>
</linearGradient>
<linearGradient id="paint6_linear" x1="185.901" y1="166.868" x2="13.0909" y2="192.649" gradientUnits="userSpaceOnUse">
<stop stop-color="#FFE591"/>
<stop offset="0.3151" stop-color="#DDBC6E"/>
<stop offset="1" stop-color="#8B5917"/>
</linearGradient>
<linearGradient id="paint7_linear" x1="100.796" y1="176.301" x2="100.796" y2="340.001" gradientUnits="userSpaceOnUse">
<stop stop-color="#8F5A2D"/>
<stop offset="1" stop-color="#351B06"/>
</linearGradient>
<linearGradient id="paint8_linear" x1="93.3906" y1="129.226" x2="69.5327" y2="155.594" gradientUnits="userSpaceOnUse">
<stop stop-color="#FFE591"/>
<stop offset="0.3151" stop-color="#DDBC6E"/>
<stop offset="1" stop-color="#8B5917"/>
</linearGradient>
<linearGradient id="paint9_linear" x1="102.539" y1="213" x2="102.539" y2="302" gradientUnits="userSpaceOnUse">
<stop stop-color="#FFC700"/>
<stop offset="1" stop-color="#FC9517"/>
</linearGradient>
</defs>
</svg>
