<svg width="229" height="340" viewBox="0 0 229 340" fill="none" xmlns="http://www.w3.org/2000/svg">
<path d="M187.354 131.801H61.8539C49.9539 131.801 40.2539 141.501 40.2539 153.401C40.2539 162.501 44.8539 171.001 52.5539 175.801L72.2539 188.301H176.954L196.654 175.801C204.354 170.901 208.954 162.501 208.954 153.401C208.954 141.501 199.354 131.801 187.354 131.801Z" fill="url(#paint0_linear)"/>
<path d="M149.454 120.801C149.454 130.201 141.854 137.801 132.454 137.801C123.054 137.801 115.454 130.201 115.454 120.801C115.454 111.401 123.054 103.801 132.454 103.801C141.854 103.801 149.454 111.401 149.454 120.801Z" fill="url(#paint1_linear)"/>
<path d="M178.954 209.901C191.954 202.401 195.654 177.001 195.754 176.501C195.454 174.101 195.454 171.601 195.454 168.901C195.454 156.701 183.154 148.101 170.254 148.101H77.6539C66.2539 148.101 55.8539 156.901 53.9539 168.901C51.0539 187.001 44.3539 186.001 34.2539 199.601L40.3539 209.901C40.2539 209.901 165.754 217.501 178.954 209.901Z" fill="url(#paint2_linear)"/>
<path d="M137.154 206.501C102.654 206.501 57.154 204.101 44.254 203.401L42.354 200.201C44.254 198.001 46.054 196.201 47.754 194.501C53.354 189.001 58.254 184.301 60.554 170.001C61.954 161.401 69.254 154.901 77.554 154.901H170.154C179.054 154.901 188.554 160.601 188.554 169.001C188.554 171.901 188.654 174.301 188.854 176.401C187.454 185.301 182.754 200.001 175.554 204.101C174.754 204.401 168.854 206.501 137.154 206.501Z" fill="url(#paint3_linear)"/>
<path d="M210.554 208.501C199.854 193.001 196.654 185.101 195.754 176.501C195.654 177.001 191.954 202.501 178.954 209.901C165.754 217.401 40.2539 209.901 40.2539 209.901L34.1539 199.601C33.6539 200.301 33.1539 201.001 32.5539 201.801C23.1539 215.501 21.1539 232.901 27.1539 248.401C33.6539 265.001 48.4539 276.901 65.9539 279.701L71.4539 280.601C106.654 286.201 142.454 286.201 177.554 280.601L183.054 279.701L195.554 310.901C217.854 280.101 226.054 231.101 210.554 208.501Z" fill="#411E09"/>
<path d="M130.451 187.089C160.387 187.089 184.655 162.822 184.655 132.886C184.655 102.95 160.387 78.6826 130.451 78.6826C100.515 78.6826 76.2478 102.95 76.2478 132.886C76.2478 162.822 100.515 187.089 130.451 187.089Z" fill="#341212"/>
<path d="M117.858 174.408C147.793 174.408 172.061 150.14 172.061 120.204C172.061 90.2686 147.793 66.001 117.858 66.001C87.9219 66.001 63.6543 90.2686 63.6543 120.204C63.6543 150.14 87.9219 174.408 117.858 174.408Z" fill="url(#paint4_linear)"/>
<path d="M128.888 118.728L129.148 118.989C130.017 119.858 129.843 121.421 128.801 122.116L120.809 126.894C120.635 126.981 120.375 127.154 120.288 127.415L110.125 140.705C109.343 141.747 109.777 143.311 110.993 143.745C113.252 144.614 115.424 145.048 117.595 145.048C121.852 145.048 125.934 143.398 129.843 140.01C132.883 137.404 135.315 134.277 137.14 130.542C137.574 129.673 138.529 129.239 139.398 129.5L143.394 130.542C144.349 130.803 144.957 131.671 144.871 132.627L143.481 151.997C143.394 153.04 142.525 153.822 141.483 153.822L92.4914 153.908C91.7096 153.908 91.0147 153.474 90.7541 152.779L86.4108 144.093C86.0634 143.398 86.1503 142.529 86.6715 142.008L100.049 125.417C100.657 124.635 100.657 123.506 99.9617 122.811C99.0931 121.856 99.2668 120.379 100.396 119.684L107.866 115.514C108.127 115.428 108.301 115.254 108.474 114.993L120.288 100.4C121.243 99.2708 120.635 97.5335 119.159 97.1861C117.943 96.9255 116.726 96.8387 115.597 96.8387C111.688 96.8387 108.127 98.2285 104.826 101.182C102.307 103.353 100.396 106.046 98.9193 109.26C98.485 110.216 97.4426 110.65 96.4871 110.303L93.7944 109.347C93.0126 109.086 92.4914 108.305 92.4914 107.523L92.1439 89.8025C92.1439 88.6733 93.0126 87.8047 94.1418 87.8047L145.044 88.1522C146.608 88.1522 147.563 89.9762 146.608 91.2792L128.801 116.296C128.106 116.904 128.193 118.033 128.888 118.728Z" fill="#2E5A56"/>
<path d="M193.266 79.0581C212.81 79.0581 228.655 63.2139 228.655 43.6692C228.655 24.1244 212.81 8.28027 193.266 8.28027C173.721 8.28027 157.877 24.1244 157.877 43.6692C157.877 63.2139 173.721 79.0581 193.266 79.0581Z" fill="#341212"/>
<path d="M185.043 70.7778C204.588 70.7778 220.432 54.9336 220.432 35.3888C220.432 15.8441 204.588 0 185.043 0C165.498 0 149.654 15.8441 149.654 35.3888C149.654 54.9336 165.498 70.7778 185.043 70.7778Z" fill="url(#paint5_linear)"/>
<path d="M192.245 34.4251L192.415 34.5953C192.982 35.1624 192.869 36.1832 192.188 36.637L186.97 39.7562C186.857 39.8129 186.687 39.9263 186.63 40.0964L179.995 48.7735C179.484 49.4541 179.768 50.4749 180.562 50.7585C182.036 51.3256 183.454 51.6092 184.872 51.6092C187.651 51.6092 190.316 50.5316 192.869 48.3198C194.853 46.6184 196.441 44.5768 197.632 42.1381C197.916 41.571 198.54 41.2874 199.107 41.4576L201.716 42.1381C202.34 42.3083 202.737 42.8754 202.68 43.4993L201.772 56.1462C201.716 56.8268 201.149 57.3372 200.468 57.3372L168.482 57.3939C167.972 57.3939 167.518 57.1103 167.348 56.6566L164.512 50.9853C164.285 50.5316 164.342 49.9645 164.682 49.6243L173.416 38.7921C173.813 38.2817 173.813 37.5444 173.359 37.0907C172.792 36.4668 172.906 35.5027 173.643 35.049L178.52 32.3268C178.69 32.2701 178.804 32.1567 178.917 31.9865L186.63 22.4587C187.254 21.7214 186.857 20.5872 185.893 20.3604C185.099 20.1902 184.305 20.1335 183.568 20.1335C181.016 20.1335 178.69 21.041 176.535 22.9692C174.891 24.387 173.643 26.1451 172.679 28.2435C172.395 28.8673 171.715 29.1508 171.091 28.924L169.333 28.3001C168.822 28.13 168.482 27.6196 168.482 27.1092L168.255 15.5397C168.255 14.8025 168.822 14.2354 169.56 14.2354L202.793 14.4623C203.814 14.4623 204.438 15.6531 203.814 16.5038L192.188 32.8372C191.734 33.2342 191.791 33.9714 192.245 34.4251Z" fill="#2E5A56"/>
<path d="M164.554 162.501H38.954C27.054 162.501 17.354 172.201 17.354 184.101C17.354 193.201 21.954 201.701 29.654 206.501L49.354 219.001H154.054L173.754 206.501C181.454 201.601 186.054 193.201 186.054 184.101C186.154 172.201 176.454 162.501 164.554 162.501Z" fill="url(#paint6_linear)"/>
<path fill-rule="evenodd" clip-rule="evenodd" d="M202.333 259.201H202.354V260.065C202.364 260.618 202.364 261.17 202.354 261.723V286.401C202.254 292.201 201.154 298.001 198.954 303.601C192.555 320.201 177.755 332.101 160.154 334.901L154.654 335.801C119.554 341.401 83.7545 341.401 48.5545 335.801L43.0545 334.901C25.5545 332.101 10.7545 320.201 4.25449 303.601C2.05449 298.101 0.954492 292.201 0.854492 286.401V261.78C0.844071 261.189 0.84408 260.599 0.854492 260.008V259.201H0.87523C1.1929 249.782 4.15911 240.509 9.65401 232.501C13.6598 226.674 17.1616 223.248 20.145 220.329C23.5537 216.994 26.2856 214.321 28.3192 209.487C29.3936 205.41 30.2731 201.277 30.9545 197.101C32.9545 185.101 43.2545 176.301 55.4545 176.301H148.054C160.254 176.301 170.654 185.101 172.554 197.101C173.325 201.82 174.348 206.485 175.619 211.075C177.561 214.945 180.047 217.378 183.063 220.329C186.046 223.248 189.548 226.674 193.554 232.501C199.049 240.509 202.015 249.782 202.333 259.201Z" fill="url(#paint7_linear)"/>
<path d="M104.268 163.524C110.907 156.885 110.907 146.121 104.268 139.482C97.629 132.843 86.8653 132.843 80.2265 139.482C73.5877 146.121 73.5876 156.885 80.2265 163.524C86.8653 170.163 97.629 170.163 104.268 163.524Z" fill="url(#paint8_linear)"/>
<path d="M47.0513 283L64.4756 244.914H41.5923V236.662H74.8857V242.819L57.3345 283H47.0513ZM91.5483 276.176C90.4481 280.45 88.5861 285.518 85.9624 291.379H78.98C80.3553 285.751 81.4238 280.44 82.1855 275.446H91.0723L91.5483 276.176ZM115.32 253.356C119.806 253.356 123.371 254.615 126.016 257.133C128.682 259.651 130.015 263.1 130.015 267.48C130.015 272.664 128.418 276.652 125.223 279.445C122.028 282.238 117.457 283.635 111.512 283.635C106.349 283.635 102.181 282.799 99.0068 281.127V272.653C100.678 273.542 102.625 274.272 104.847 274.843C107.068 275.393 109.174 275.668 111.163 275.668C117.151 275.668 120.145 273.214 120.145 268.305C120.145 263.629 117.045 261.291 110.845 261.291C109.724 261.291 108.486 261.407 107.132 261.64C105.778 261.852 104.677 262.084 103.831 262.338L99.9272 260.244L101.673 236.599H126.841V244.914H110.274L109.417 254.023L110.528 253.801C111.819 253.505 113.416 253.356 115.32 253.356ZM176.131 283H164.959L152.803 263.449L148.646 266.433V283H138.807V236.599H148.646V257.832L152.518 252.373L165.086 236.599H176.004L159.817 257.133L176.131 283Z" fill="url(#paint9_linear)"/>
<defs>
<linearGradient id="paint0_linear" x1="209.608" y1="136.168" x2="36.7987" y2="161.949" gradientUnits="userSpaceOnUse">
<stop stop-color="#FFE591"/>
<stop offset="0.3151" stop-color="#DDBC6E"/>
<stop offset="1" stop-color="#8B5917"/>
</linearGradient>
<linearGradient id="paint1_linear" x1="149.586" y1="106.429" x2="114.071" y2="108.203" gradientUnits="userSpaceOnUse">
<stop stop-color="#FFE591"/>
<stop offset="0.3151" stop-color="#DDBC6E"/>
<stop offset="1" stop-color="#8B5917"/>
</linearGradient>
<linearGradient id="paint2_linear" x1="115.004" y1="148.101" x2="115.004" y2="213.278" gradientUnits="userSpaceOnUse">
<stop stop-color="#8F5A2D"/>
<stop offset="1" stop-color="#351B06"/>
</linearGradient>
<linearGradient id="paint3_linear" x1="115.604" y1="154.901" x2="115.604" y2="206.501" gradientUnits="userSpaceOnUse">
<stop stop-color="#4E2D13"/>
<stop offset="1" stop-color="#351B06"/>
</linearGradient>
<linearGradient id="paint4_linear" x1="117.858" y1="66.001" x2="117.858" y2="174.408" gradientUnits="userSpaceOnUse">
<stop stop-color="#FFC700"/>
<stop offset="1" stop-color="#FC9517"/>
</linearGradient>
<linearGradient id="paint5_linear" x1="185.043" y1="0" x2="185.043" y2="70.7778" gradientUnits="userSpaceOnUse">
<stop stop-color="#FFC700"/>
<stop offset="1" stop-color="#FC9517"/>
</linearGradient>
<linearGradient id="paint6_linear" x1="186.709" y1="166.868" x2="13.8988" y2="192.649" gradientUnits="userSpaceOnUse">
<stop stop-color="#FFE591"/>
<stop offset="0.3151" stop-color="#DDBC6E"/>
<stop offset="1" stop-color="#8B5917"/>
</linearGradient>
<linearGradient id="paint7_linear" x1="101.604" y1="176.301" x2="101.604" y2="340.001" gradientUnits="userSpaceOnUse">
<stop stop-color="#8F5A2D"/>
<stop offset="1" stop-color="#351B06"/>
</linearGradient>
<linearGradient id="paint8_linear" x1="94.1986" y1="129.226" x2="70.3408" y2="155.594" gradientUnits="userSpaceOnUse">
<stop stop-color="#FFE591"/>
<stop offset="0.3151" stop-color="#DDBC6E"/>
<stop offset="1" stop-color="#8B5917"/>
</linearGradient>
<linearGradient id="paint9_linear" x1="108.347" y1="213" x2="108.347" y2="302" gradientUnits="userSpaceOnUse">
<stop stop-color="#FFC700"/>
<stop offset="1" stop-color="#FC9517"/>
</linearGradient>
</defs>
</svg>
