<svg width="229" height="340" viewBox="0 0 229 340" fill="none" xmlns="http://www.w3.org/2000/svg">
<path d="M187.009 131.801H61.5087C49.6087 131.801 39.9087 141.501 39.9087 153.401C39.9087 162.501 44.5087 171.001 52.2087 175.801L71.9087 188.301H176.609L196.309 175.801C204.009 170.901 208.609 162.501 208.609 153.401C208.609 141.501 199.009 131.801 187.009 131.801Z" fill="url(#paint0_linear)"/>
<path d="M149.109 120.801C149.109 130.201 141.509 137.801 132.109 137.801C122.709 137.801 115.109 130.201 115.109 120.801C115.109 111.401 122.709 103.801 132.109 103.801C141.509 103.801 149.109 111.401 149.109 120.801Z" fill="url(#paint1_linear)"/>
<path d="M178.609 209.901C191.609 202.401 195.309 177.001 195.409 176.501C195.109 174.101 195.109 171.601 195.109 168.901C195.109 156.701 182.809 148.101 169.909 148.101H77.3087C65.9087 148.101 55.5087 156.901 53.6087 168.901C50.7087 187.001 44.0087 186.001 33.9087 199.601L40.0087 209.901C39.9087 209.901 165.409 217.501 178.609 209.901Z" fill="url(#paint2_linear)"/>
<path d="M136.809 206.501C102.309 206.501 56.8088 204.101 43.9088 203.401L42.0088 200.201C43.9088 198.001 45.7088 196.201 47.4088 194.501C53.0088 189.001 57.9088 184.301 60.2088 170.001C61.6088 161.401 68.9088 154.901 77.2088 154.901H169.809C178.709 154.901 188.209 160.601 188.209 169.001C188.209 171.901 188.309 174.301 188.509 176.401C187.109 185.301 182.409 200.001 175.209 204.101C174.409 204.401 168.509 206.501 136.809 206.501Z" fill="url(#paint3_linear)"/>
<path d="M210.209 208.501C199.509 193.001 196.309 185.101 195.409 176.501C195.309 177.001 191.609 202.501 178.609 209.901C165.409 217.401 39.9087 209.901 39.9087 209.901L33.8087 199.601C33.3087 200.301 32.8087 201.001 32.2087 201.801C22.8087 215.501 20.8087 232.901 26.8087 248.401C33.3087 265.001 48.1087 276.901 65.6087 279.701L71.1087 280.601C106.309 286.201 142.109 286.201 177.209 280.601L182.709 279.701L195.209 310.901C217.509 280.101 225.709 231.101 210.209 208.501Z" fill="#411E09"/>
<path d="M130.106 187.089C160.042 187.089 184.31 162.822 184.31 132.886C184.31 102.95 160.042 78.6826 130.106 78.6826C100.17 78.6826 75.9028 102.95 75.9028 132.886C75.9028 162.822 100.17 187.089 130.106 187.089Z" fill="#341212"/>
<path d="M117.512 174.408C147.448 174.408 171.716 150.14 171.716 120.204C171.716 90.2686 147.448 66.001 117.512 66.001C87.5767 66.001 63.3091 90.2686 63.3091 120.204C63.3091 150.14 87.5767 174.408 117.512 174.408Z" fill="url(#paint4_linear)"/>
<path d="M128.542 118.728L128.803 118.989C129.671 119.858 129.498 121.421 128.455 122.116L120.464 126.894C120.29 126.981 120.029 127.154 119.942 127.415L109.779 140.705C108.998 141.747 109.432 143.311 110.648 143.745C112.906 144.614 115.078 145.048 117.25 145.048C121.506 145.048 125.589 143.398 129.498 140.01C132.538 137.404 134.97 134.277 136.794 130.542C137.228 129.673 138.184 129.239 139.053 129.5L143.048 130.542C144.004 130.803 144.612 131.671 144.525 132.627L143.135 151.997C143.048 153.04 142.18 153.822 141.137 153.822L92.1459 153.908C91.3641 153.908 90.6692 153.474 90.4086 152.779L86.0654 144.093C85.7179 143.398 85.8049 142.529 86.326 142.008L99.7031 125.417C100.311 124.635 100.311 123.506 99.6163 122.811C98.7476 121.856 98.9213 120.379 100.051 119.684L107.521 115.514C107.781 115.428 107.955 115.254 108.129 114.993L119.942 100.4C120.898 99.2708 120.29 97.5335 118.813 97.1861C117.597 96.9255 116.381 96.8387 115.252 96.8387C111.343 96.8387 107.781 98.2285 104.481 101.182C101.962 103.353 100.051 106.046 98.5739 109.26C98.1395 110.216 97.0972 110.65 96.1417 110.303L93.4489 109.347C92.6671 109.086 92.1459 108.305 92.1459 107.523L91.7985 89.8025C91.7985 88.6733 92.6671 87.8047 93.7964 87.8047L144.699 88.1522C146.262 88.1522 147.218 89.9762 146.262 91.2792L128.455 116.296C127.76 116.904 127.847 118.033 128.542 118.728Z" fill="#2E5A56"/>
<path d="M192.92 79.0581C212.465 79.0581 228.309 63.2139 228.309 43.6692C228.309 24.1244 212.465 8.28027 192.92 8.28027C173.375 8.28027 157.531 24.1244 157.531 43.6692C157.531 63.2139 173.375 79.0581 192.92 79.0581Z" fill="#341212"/>
<path d="M184.698 70.7778C204.243 70.7778 220.087 54.9336 220.087 35.3888C220.087 15.8441 204.243 0 184.698 0C165.153 0 149.309 15.8441 149.309 35.3888C149.309 54.9336 165.153 70.7778 184.698 70.7778Z" fill="url(#paint5_linear)"/>
<path d="M191.899 34.4251L192.07 34.5953C192.637 35.1624 192.523 36.1832 191.843 36.637L186.625 39.7562C186.512 39.8129 186.342 39.9263 186.285 40.0964L179.649 48.7735C179.139 49.4541 179.423 50.4749 180.217 50.7585C181.691 51.3256 183.109 51.6092 184.527 51.6092C187.306 51.6092 189.971 50.5316 192.523 48.3198C194.508 46.6184 196.096 44.5768 197.287 42.1381C197.571 41.571 198.195 41.2874 198.762 41.4576L201.371 42.1381C201.994 42.3083 202.391 42.8754 202.335 43.4993L201.427 56.1462C201.371 56.8268 200.803 57.3372 200.123 57.3372L168.137 57.3939C167.626 57.3939 167.173 57.1103 167.003 56.6566L164.167 50.9853C163.94 50.5316 163.997 49.9645 164.337 49.6243L173.071 38.7921C173.468 38.2817 173.468 37.5444 173.014 37.0907C172.447 36.4668 172.56 35.5027 173.298 35.049L178.175 32.3268C178.345 32.2701 178.459 32.1567 178.572 31.9865L186.285 22.4587C186.909 21.7214 186.512 20.5872 185.548 20.3604C184.754 20.1902 183.96 20.1335 183.222 20.1335C180.67 20.1335 178.345 21.041 176.19 22.9692C174.545 24.387 173.298 26.1451 172.334 28.2435C172.05 28.8673 171.369 29.1508 170.746 28.924L168.987 28.3001C168.477 28.13 168.137 27.6196 168.137 27.1092L167.91 15.5397C167.91 14.8025 168.477 14.2354 169.214 14.2354L202.448 14.4623C203.469 14.4623 204.093 15.6531 203.469 16.5038L191.843 32.8372C191.389 33.2342 191.446 33.9714 191.899 34.4251Z" fill="#2E5A56"/>
<path d="M164.209 162.501H38.6088C26.7088 162.501 17.0088 172.201 17.0088 184.101C17.0088 193.201 21.6088 201.701 29.3088 206.501L49.0088 219.001H153.709L173.409 206.501C181.109 201.601 185.709 193.201 185.709 184.101C185.809 172.201 176.109 162.501 164.209 162.501Z" fill="url(#paint6_linear)"/>
<path fill-rule="evenodd" clip-rule="evenodd" d="M201.988 259.201H202.009V260.065C202.018 260.618 202.018 261.17 202.009 261.723V286.401C201.909 292.201 200.809 298.001 198.609 303.601C192.209 320.201 177.409 332.101 159.809 334.901L154.309 335.801C119.209 341.401 83.4093 341.401 48.2093 335.801L42.7093 334.901C25.2093 332.101 10.4093 320.201 3.90928 303.601C1.70928 298.101 0.609277 292.201 0.509277 286.401V261.78C0.498856 261.189 0.498866 260.599 0.509277 260.008V259.201H0.530015C0.847681 249.782 3.81389 240.509 9.30879 232.501C13.3146 226.674 16.8164 223.248 19.7998 220.329C23.2085 216.994 25.9404 214.321 27.974 209.487C29.0484 205.41 29.9279 201.277 30.6093 197.101C32.6093 185.101 42.9093 176.301 55.1093 176.301H147.709C159.909 176.301 170.309 185.101 172.209 197.101C172.979 201.82 174.002 206.485 175.274 211.075C177.215 214.945 179.702 217.378 182.718 220.329C185.701 223.248 189.203 226.674 193.209 232.501C198.704 240.509 201.67 249.782 201.988 259.201Z" fill="url(#paint7_linear)"/>
<path d="M103.922 163.524C110.561 156.885 110.561 146.121 103.922 139.482C97.2836 132.843 86.5199 132.843 79.8811 139.482C73.2422 146.121 73.2422 156.885 79.8811 163.524C86.5199 170.162 97.2836 170.162 103.922 163.524Z" fill="url(#paint8_linear)"/>
<path d="M62.5405 283H30.104V276.176L41.752 264.401C45.2008 260.868 47.4543 258.424 48.5122 257.07C49.5701 255.694 50.3319 254.425 50.7974 253.261C51.2629 252.097 51.4956 250.891 51.4956 249.643C51.4956 247.781 50.9772 246.395 49.9404 245.485C48.9248 244.576 47.5601 244.121 45.8462 244.121C44.0477 244.121 42.3021 244.533 40.6094 245.358C38.9167 246.184 37.1499 247.358 35.3091 248.881L29.9771 242.565C32.2622 240.619 34.1559 239.243 35.6582 238.439C37.1605 237.635 38.8003 237.022 40.5776 236.599C42.355 236.154 44.3439 235.932 46.5444 235.932C49.4432 235.932 52.0034 236.461 54.2251 237.519C56.4468 238.577 58.1712 240.058 59.3984 241.962C60.6257 243.867 61.2393 246.046 61.2393 248.5C61.2393 250.638 60.8584 252.648 60.0967 254.531C59.3561 256.393 58.1924 258.308 56.6055 260.275C55.0397 262.243 52.2679 265.047 48.29 268.686L42.3232 274.304V274.748H62.5405V283ZM84.1226 253.356C88.6082 253.356 92.1735 254.615 94.8184 257.133C97.4844 259.651 98.8174 263.1 98.8174 267.48C98.8174 272.664 97.2199 276.652 94.0249 279.445C90.8299 282.238 86.2596 283.635 80.314 283.635C75.1512 283.635 70.9829 282.799 67.8091 281.127V272.653C69.4806 273.542 71.4272 274.272 73.6489 274.843C75.8706 275.393 77.9759 275.668 79.9648 275.668C85.9528 275.668 88.9468 273.214 88.9468 268.305C88.9468 263.629 85.847 261.291 79.6475 261.291C78.526 261.291 77.2882 261.407 75.9341 261.64C74.5799 261.852 73.4797 262.084 72.6333 262.338L68.7295 260.244L70.4751 236.599H95.6436V244.914H79.0762L78.2192 254.023L79.3301 253.801C80.6208 253.505 82.2183 253.356 84.1226 253.356ZM136.554 259.799C136.554 267.903 135.221 273.902 132.555 277.795C129.91 281.688 125.827 283.635 120.304 283.635C114.951 283.635 110.91 281.625 108.18 277.604C105.472 273.584 104.118 267.649 104.118 259.799C104.118 251.611 105.44 245.581 108.085 241.708C110.73 237.815 114.803 235.869 120.304 235.869C125.657 235.869 129.699 237.9 132.428 241.962C135.179 246.025 136.554 251.971 136.554 259.799ZM113.861 259.799C113.861 265.491 114.348 269.575 115.321 272.05C116.316 274.505 117.977 275.732 120.304 275.732C122.589 275.732 124.24 274.484 125.255 271.987C126.271 269.49 126.779 265.428 126.779 259.799C126.779 254.108 126.26 250.024 125.224 247.548C124.208 245.052 122.568 243.803 120.304 243.803C117.998 243.803 116.347 245.052 115.353 247.548C114.359 250.024 113.861 254.108 113.861 259.799ZM182.067 283H170.895L158.739 263.449L154.582 266.433V283H144.743V236.599H154.582V257.832L158.454 252.373L171.022 236.599H181.94L165.753 257.133L182.067 283Z" fill="url(#paint9_linear)"/>
<defs>
<linearGradient id="paint0_linear" x1="209.263" y1="136.168" x2="36.4534" y2="161.949" gradientUnits="userSpaceOnUse">
<stop stop-color="#FFE591"/>
<stop offset="0.3151" stop-color="#DDBC6E"/>
<stop offset="1" stop-color="#8B5917"/>
</linearGradient>
<linearGradient id="paint1_linear" x1="149.241" y1="106.429" x2="113.726" y2="108.203" gradientUnits="userSpaceOnUse">
<stop stop-color="#FFE591"/>
<stop offset="0.3151" stop-color="#DDBC6E"/>
<stop offset="1" stop-color="#8B5917"/>
</linearGradient>
<linearGradient id="paint2_linear" x1="114.659" y1="148.101" x2="114.659" y2="213.278" gradientUnits="userSpaceOnUse">
<stop stop-color="#8F5A2D"/>
<stop offset="1" stop-color="#351B06"/>
</linearGradient>
<linearGradient id="paint3_linear" x1="115.259" y1="154.901" x2="115.259" y2="206.501" gradientUnits="userSpaceOnUse">
<stop stop-color="#4E2D13"/>
<stop offset="1" stop-color="#351B06"/>
</linearGradient>
<linearGradient id="paint4_linear" x1="117.512" y1="66.001" x2="117.512" y2="174.408" gradientUnits="userSpaceOnUse">
<stop stop-color="#FFC700"/>
<stop offset="1" stop-color="#FC9517"/>
</linearGradient>
<linearGradient id="paint5_linear" x1="184.698" y1="0" x2="184.698" y2="70.7778" gradientUnits="userSpaceOnUse">
<stop stop-color="#FFC700"/>
<stop offset="1" stop-color="#FC9517"/>
</linearGradient>
<linearGradient id="paint6_linear" x1="186.364" y1="166.868" x2="13.5536" y2="192.649" gradientUnits="userSpaceOnUse">
<stop stop-color="#FFE591"/>
<stop offset="0.3151" stop-color="#DDBC6E"/>
<stop offset="1" stop-color="#8B5917"/>
</linearGradient>
<linearGradient id="paint7_linear" x1="101.259" y1="176.301" x2="101.259" y2="340.001" gradientUnits="userSpaceOnUse">
<stop stop-color="#8F5A2D"/>
<stop offset="1" stop-color="#351B06"/>
</linearGradient>
<linearGradient id="paint8_linear" x1="93.8532" y1="129.226" x2="69.9955" y2="155.594" gradientUnits="userSpaceOnUse">
<stop stop-color="#FFE591"/>
<stop offset="0.3151" stop-color="#DDBC6E"/>
<stop offset="1" stop-color="#8B5917"/>
</linearGradient>
<linearGradient id="paint9_linear" x1="105.001" y1="213" x2="105.001" y2="302" gradientUnits="userSpaceOnUse">
<stop stop-color="#FFC700"/>
<stop offset="1" stop-color="#FC9517"/>
</linearGradient>
</defs>
</svg>
