<svg width="228" height="340" viewBox="0 0 228 340" fill="none" xmlns="http://www.w3.org/2000/svg">
<path d="M186.507 131.801H61.0072C49.1072 131.801 39.4072 141.501 39.4072 153.401C39.4072 162.501 44.0072 171.001 51.7072 175.801L71.4072 188.301H176.107L195.807 175.801C203.507 170.901 208.107 162.501 208.107 153.401C208.107 141.501 198.507 131.801 186.507 131.801Z" fill="url(#paint0_linear)"/>
<path d="M148.607 120.801C148.607 130.201 141.007 137.801 131.607 137.801C122.207 137.801 114.607 130.201 114.607 120.801C114.607 111.401 122.207 103.801 131.607 103.801C141.007 103.801 148.607 111.401 148.607 120.801Z" fill="url(#paint1_linear)"/>
<path d="M178.107 209.901C191.107 202.401 194.807 177.001 194.907 176.501C194.607 174.101 194.607 171.601 194.607 168.901C194.607 156.701 182.307 148.101 169.407 148.101H76.8072C65.4072 148.101 55.0072 156.901 53.1072 168.901C50.2072 187.001 43.5072 186.001 33.4072 199.601L39.5072 209.901C39.4072 209.901 164.907 217.501 178.107 209.901Z" fill="url(#paint2_linear)"/>
<path d="M136.307 206.501C101.807 206.501 56.3073 204.101 43.4073 203.401L41.5073 200.201C43.4073 198.001 45.2073 196.201 46.9073 194.501C52.5073 189.001 57.4073 184.301 59.7073 170.001C61.1073 161.401 68.4073 154.901 76.7073 154.901H169.307C178.207 154.901 187.707 160.601 187.707 169.001C187.707 171.901 187.807 174.301 188.007 176.401C186.607 185.301 181.907 200.001 174.707 204.101C173.907 204.401 168.007 206.501 136.307 206.501Z" fill="url(#paint3_linear)"/>
<path d="M209.707 208.501C199.007 193.001 195.807 185.101 194.907 176.501C194.807 177.001 191.107 202.501 178.107 209.901C164.907 217.401 39.4072 209.901 39.4072 209.901L33.3072 199.601C32.8072 200.301 32.3072 201.001 31.7072 201.801C22.3072 215.501 20.3072 232.901 26.3072 248.401C32.8072 265.001 47.6072 276.901 65.1072 279.701L70.6072 280.601C105.807 286.201 141.607 286.201 176.707 280.601L182.207 279.701L194.707 310.901C217.007 280.101 225.207 231.101 209.707 208.501Z" fill="#411E09"/>
<path d="M129.604 187.089C159.54 187.089 183.808 162.822 183.808 132.886C183.808 102.95 159.54 78.6826 129.604 78.6826C99.6688 78.6826 75.4011 102.95 75.4011 132.886C75.4011 162.822 99.6688 187.089 129.604 187.089Z" fill="#341212"/>
<path d="M117.011 174.408C146.947 174.408 171.214 150.14 171.214 120.204C171.214 90.2686 146.947 66.001 117.011 66.001C87.0753 66.001 62.8076 90.2686 62.8076 120.204C62.8076 150.14 87.0753 174.408 117.011 174.408Z" fill="url(#paint4_linear)"/>
<path d="M128.041 118.728L128.301 118.989C129.17 119.858 128.996 121.421 127.954 122.116L119.962 126.894C119.789 126.981 119.528 127.154 119.441 127.415L109.278 140.705C108.496 141.747 108.931 143.311 110.147 143.745C112.405 144.614 114.577 145.048 116.748 145.048C121.005 145.048 125.087 143.398 128.996 140.01C132.037 137.404 134.469 134.277 136.293 130.542C136.727 129.673 137.683 129.239 138.551 129.5L142.547 130.542C143.503 130.803 144.111 131.671 144.024 132.627L142.634 151.997C142.547 153.04 141.679 153.822 140.636 153.822L91.6447 153.908C90.8629 153.908 90.168 153.474 89.9074 152.779L85.5642 144.093C85.2167 143.398 85.3036 142.529 85.8248 142.008L99.2019 125.417C99.8099 124.635 99.81 123.506 99.115 122.811C98.2464 121.856 98.4201 120.379 99.5493 119.684L107.02 115.514C107.28 115.428 107.454 115.254 107.628 114.993L119.441 100.4C120.397 99.2708 119.789 97.5335 118.312 97.1861C117.096 96.9255 115.88 96.8387 114.751 96.8387C110.842 96.8387 107.28 98.2285 103.979 101.182C101.46 103.353 99.5493 106.046 98.0726 109.26C97.6383 110.216 96.596 110.65 95.6405 110.303L92.9477 109.347C92.1659 109.086 91.6447 108.305 91.6447 107.523L91.2972 89.8025C91.2972 88.6733 92.1659 87.8047 93.2951 87.8047L144.198 88.1522C145.761 88.1522 146.717 89.9762 145.761 91.2792L127.954 116.296C127.259 116.904 127.346 118.033 128.041 118.728Z" fill="#2E5A56"/>
<path d="M192.419 79.0581C211.964 79.0581 227.808 63.2139 227.808 43.6692C227.808 24.1244 211.964 8.28027 192.419 8.28027C172.874 8.28027 157.03 24.1244 157.03 43.6692C157.03 63.2139 172.874 79.0581 192.419 79.0581Z" fill="#341212"/>
<path d="M184.196 70.7778C203.741 70.7778 219.585 54.9336 219.585 35.3888C219.585 15.8441 203.741 0 184.196 0C164.652 0 148.808 15.8441 148.808 35.3888C148.808 54.9336 164.652 70.7778 184.196 70.7778Z" fill="url(#paint5_linear)"/>
<path d="M191.398 34.4251L191.568 34.5953C192.135 35.1624 192.022 36.1832 191.341 36.637L186.124 39.7562C186.01 39.8129 185.84 39.9263 185.783 40.0964L179.148 48.7735C178.638 49.4541 178.921 50.4749 179.715 50.7585C181.19 51.3256 182.608 51.6092 184.025 51.6092C186.804 51.6092 189.47 50.5316 192.022 48.3198C194.007 46.6184 195.595 44.5768 196.786 42.1381C197.069 41.571 197.693 41.2874 198.26 41.4576L200.869 42.1381C201.493 42.3083 201.89 42.8754 201.833 43.4993L200.926 56.1462C200.869 56.8268 200.302 57.3372 199.621 57.3372L167.635 57.3939C167.125 57.3939 166.671 57.1103 166.501 56.6566L163.665 50.9853C163.439 50.5316 163.495 49.9645 163.836 49.6243L172.569 38.7921C172.966 38.2817 172.966 37.5444 172.513 37.0907C171.946 36.4668 172.059 35.5027 172.796 35.049L177.673 32.3268C177.844 32.2701 177.957 32.1567 178.07 31.9865L185.783 22.4587C186.407 21.7214 186.01 20.5872 185.046 20.3604C184.252 20.1902 183.458 20.1335 182.721 20.1335C180.169 20.1335 177.844 21.041 175.689 22.9692C174.044 24.387 172.796 26.1451 171.832 28.2435C171.548 28.8673 170.868 29.1508 170.244 28.924L168.486 28.3001C167.976 28.13 167.635 27.6196 167.635 27.1092L167.408 15.5397C167.408 14.8025 167.976 14.2354 168.713 14.2354L201.947 14.4623C202.967 14.4623 203.591 15.6531 202.967 16.5038L191.341 32.8372C190.888 33.2342 190.944 33.9714 191.398 34.4251Z" fill="#2E5A56"/>
<path d="M163.707 162.501H38.1073C26.2073 162.501 16.5073 172.201 16.5073 184.101C16.5073 193.201 21.1073 201.701 28.8073 206.501L48.5073 219.001H153.207L172.907 206.501C180.607 201.601 185.207 193.201 185.207 184.101C185.307 172.201 175.607 162.501 163.707 162.501Z" fill="url(#paint6_linear)"/>
<path fill-rule="evenodd" clip-rule="evenodd" d="M201.486 259.201H201.508V260.065C201.517 260.618 201.517 261.17 201.508 261.723V286.401C201.408 292.201 200.308 298.001 198.108 303.601C191.708 320.201 176.908 332.101 159.308 334.901L153.808 335.801C118.708 341.401 82.9078 341.401 47.7078 335.801L42.2078 334.901C24.7078 332.101 9.90781 320.201 3.40781 303.601C1.20781 298.101 0.107813 292.201 0.0078125 286.401V261.78C-0.00260907 261.189 -0.00259926 260.599 0.0078125 260.008V259.201H0.0285499C0.346216 249.782 3.31243 240.509 8.80733 232.501C12.8131 226.674 16.3149 223.248 19.2984 220.329C22.707 216.994 25.4389 214.321 27.4725 209.487C28.5469 205.41 29.4264 201.277 30.1078 197.101C32.1078 185.101 42.4078 176.301 54.6078 176.301H147.208C159.408 176.301 169.808 185.101 171.708 197.101C172.478 201.82 173.501 206.485 174.772 211.075C176.714 214.945 179.2 217.378 182.216 220.329C185.2 223.248 188.702 226.674 192.707 232.501C198.202 240.509 201.168 249.782 201.486 259.201Z" fill="url(#paint7_linear)"/>
<path d="M103.421 163.524C110.06 156.885 110.06 146.121 103.421 139.482C96.7823 132.843 86.0186 132.843 79.3798 139.482C72.741 146.121 72.741 156.885 79.3798 163.524C86.0186 170.163 96.7823 170.163 103.421 163.524Z" fill="url(#paint8_linear)"/>
<path d="M54.2046 283L71.6289 244.914H48.7456V236.662H82.0391V242.819L64.4878 283H54.2046ZM103.621 253.356C108.107 253.356 111.672 254.615 114.317 257.133C116.983 259.651 118.316 263.1 118.316 267.48C118.316 272.664 116.718 276.652 113.523 279.445C110.328 282.238 105.758 283.635 99.8125 283.635C94.6497 283.635 90.4814 282.799 87.3076 281.127V272.653C88.9792 273.542 90.9258 274.272 93.1475 274.843C95.3691 275.393 97.4744 275.668 99.4634 275.668C105.451 275.668 108.445 273.214 108.445 268.305C108.445 263.629 105.346 261.291 99.146 261.291C98.0246 261.291 96.7868 261.407 95.4326 261.64C94.0785 261.852 92.9782 262.084 92.1318 262.338L88.228 260.244L89.9736 236.599H115.142V244.914H98.5747L97.7178 254.023L98.8286 253.801C100.119 253.505 101.717 253.356 103.621 253.356ZM156.053 259.799C156.053 267.903 154.72 273.902 152.054 277.795C149.409 281.688 145.325 283.635 139.803 283.635C134.45 283.635 130.408 281.625 127.679 277.604C124.97 273.584 123.616 267.649 123.616 259.799C123.616 251.611 124.939 245.581 127.583 241.708C130.228 237.815 134.301 235.869 139.803 235.869C145.156 235.869 149.197 237.9 151.927 241.962C154.677 246.025 156.053 251.971 156.053 259.799ZM133.36 259.799C133.36 265.491 133.847 269.575 134.82 272.05C135.814 274.505 137.475 275.732 139.803 275.732C142.088 275.732 143.738 274.484 144.754 271.987C145.77 269.49 146.277 265.428 146.277 259.799C146.277 254.108 145.759 250.024 144.722 247.548C143.707 245.052 142.067 243.803 139.803 243.803C137.496 243.803 135.846 245.052 134.852 247.548C133.857 250.024 133.36 254.108 133.36 259.799Z" fill="url(#paint9_linear)"/>
<defs>
<linearGradient id="paint0_linear" x1="208.762" y1="136.168" x2="35.952" y2="161.949" gradientUnits="userSpaceOnUse">
<stop stop-color="#FFE591"/>
<stop offset="0.3151" stop-color="#DDBC6E"/>
<stop offset="1" stop-color="#8B5917"/>
</linearGradient>
<linearGradient id="paint1_linear" x1="148.739" y1="106.429" x2="113.224" y2="108.203" gradientUnits="userSpaceOnUse">
<stop stop-color="#FFE591"/>
<stop offset="0.3151" stop-color="#DDBC6E"/>
<stop offset="1" stop-color="#8B5917"/>
</linearGradient>
<linearGradient id="paint2_linear" x1="114.157" y1="148.101" x2="114.157" y2="213.278" gradientUnits="userSpaceOnUse">
<stop stop-color="#8F5A2D"/>
<stop offset="1" stop-color="#351B06"/>
</linearGradient>
<linearGradient id="paint3_linear" x1="114.757" y1="154.901" x2="114.757" y2="206.501" gradientUnits="userSpaceOnUse">
<stop stop-color="#4E2D13"/>
<stop offset="1" stop-color="#351B06"/>
</linearGradient>
<linearGradient id="paint4_linear" x1="117.011" y1="66.001" x2="117.011" y2="174.408" gradientUnits="userSpaceOnUse">
<stop stop-color="#FFC700"/>
<stop offset="1" stop-color="#FC9517"/>
</linearGradient>
<linearGradient id="paint5_linear" x1="184.196" y1="0" x2="184.196" y2="70.7778" gradientUnits="userSpaceOnUse">
<stop stop-color="#FFC700"/>
<stop offset="1" stop-color="#FC9517"/>
</linearGradient>
<linearGradient id="paint6_linear" x1="185.863" y1="166.868" x2="13.0521" y2="192.649" gradientUnits="userSpaceOnUse">
<stop stop-color="#FFE591"/>
<stop offset="0.3151" stop-color="#DDBC6E"/>
<stop offset="1" stop-color="#8B5917"/>
</linearGradient>
<linearGradient id="paint7_linear" x1="100.757" y1="176.301" x2="100.757" y2="340.001" gradientUnits="userSpaceOnUse">
<stop stop-color="#8F5A2D"/>
<stop offset="1" stop-color="#351B06"/>
</linearGradient>
<linearGradient id="paint8_linear" x1="93.3519" y1="129.226" x2="69.494" y2="155.594" gradientUnits="userSpaceOnUse">
<stop stop-color="#FFE591"/>
<stop offset="0.3151" stop-color="#DDBC6E"/>
<stop offset="1" stop-color="#8B5917"/>
</linearGradient>
<linearGradient id="paint9_linear" x1="103" y1="213" x2="103" y2="302" gradientUnits="userSpaceOnUse">
<stop stop-color="#FFC700"/>
<stop offset="1" stop-color="#FC9517"/>
</linearGradient>
</defs>
</svg>
