<svg width="228" height="340" viewBox="0 0 228 340" fill="none" xmlns="http://www.w3.org/2000/svg">
<path d="M186.585 131.801H61.0851C49.1851 131.801 39.4851 141.501 39.4851 153.401C39.4851 162.501 44.0851 171.001 51.7851 175.801L71.4851 188.301H176.185L195.885 175.801C203.585 170.901 208.185 162.501 208.185 153.401C208.185 141.501 198.585 131.801 186.585 131.801Z" fill="url(#paint0_linear)"/>
<path d="M148.685 120.801C148.685 130.201 141.085 137.801 131.685 137.801C122.285 137.801 114.685 130.201 114.685 120.801C114.685 111.401 122.285 103.801 131.685 103.801C141.085 103.801 148.685 111.401 148.685 120.801Z" fill="url(#paint1_linear)"/>
<path d="M178.185 209.901C191.185 202.401 194.885 177.001 194.985 176.501C194.685 174.101 194.685 171.601 194.685 168.901C194.685 156.701 182.385 148.101 169.485 148.101H76.8851C65.4851 148.101 55.0851 156.901 53.1851 168.901C50.2851 187.001 43.5851 186.001 33.4851 199.601L39.5851 209.901C39.4851 209.901 164.985 217.501 178.185 209.901Z" fill="url(#paint2_linear)"/>
<path d="M136.385 206.501C101.885 206.501 56.3852 204.101 43.4852 203.401L41.5852 200.201C43.4852 198.001 45.2852 196.201 46.9852 194.501C52.5852 189.001 57.4852 184.301 59.7852 170.001C61.1852 161.401 68.4852 154.901 76.7852 154.901H169.385C178.285 154.901 187.785 160.601 187.785 169.001C187.785 171.901 187.885 174.301 188.085 176.401C186.685 185.301 181.985 200.001 174.785 204.101C173.985 204.401 168.085 206.501 136.385 206.501Z" fill="url(#paint3_linear)"/>
<path d="M209.785 208.501C199.085 193.001 195.885 185.101 194.985 176.501C194.885 177.001 191.185 202.501 178.185 209.901C164.985 217.401 39.4851 209.901 39.4851 209.901L33.3851 199.601C32.8851 200.301 32.3851 201.001 31.7851 201.801C22.3851 215.501 20.3851 232.901 26.3851 248.401C32.8851 265.001 47.6851 276.901 65.1851 279.701L70.6851 280.601C105.885 286.201 141.685 286.201 176.785 280.601L182.285 279.701L194.785 310.901C217.085 280.101 225.285 231.101 209.785 208.501Z" fill="#411E09"/>
<path d="M129.682 187.089C159.618 187.089 183.886 162.822 183.886 132.886C183.886 102.95 159.618 78.6826 129.682 78.6826C99.7467 78.6826 75.479 102.95 75.479 132.886C75.479 162.822 99.7467 187.089 129.682 187.089Z" fill="#341212"/>
<path d="M117.089 174.408C147.024 174.408 171.292 150.14 171.292 120.204C171.292 90.2686 147.024 66.001 117.089 66.001C87.1531 66.001 62.8855 90.2686 62.8855 120.204C62.8855 150.14 87.1531 174.408 117.089 174.408Z" fill="url(#paint4_linear)"/>
<path d="M128.119 118.728L128.379 118.989C129.248 119.858 129.074 121.421 128.032 122.116L120.04 126.894C119.867 126.981 119.606 127.154 119.519 127.415L109.356 140.705C108.574 141.747 109.009 143.311 110.225 143.745C112.483 144.614 114.655 145.048 116.826 145.048C121.083 145.048 125.165 143.398 129.074 140.01C132.114 137.404 134.547 134.277 136.371 130.542C136.805 129.673 137.761 129.239 138.629 129.5L142.625 130.542C143.581 130.803 144.189 131.671 144.102 132.627L142.712 151.997C142.625 153.04 141.756 153.822 140.714 153.822L91.7226 153.908C90.9408 153.908 90.2459 153.474 89.9853 152.779L85.642 144.093C85.2946 143.398 85.3815 142.529 85.9027 142.008L99.2797 125.417C99.8878 124.635 99.8878 123.506 99.1929 122.811C98.3243 121.856 98.498 120.379 99.6272 119.684L107.098 115.514C107.358 115.428 107.532 115.254 107.706 114.993L119.519 100.4C120.475 99.2708 119.867 97.5335 118.39 97.1861C117.174 96.9255 115.958 96.8387 114.828 96.8387C110.92 96.8387 107.358 98.2285 104.057 101.182C101.538 103.353 99.6272 106.046 98.1505 109.26C97.7162 110.216 96.6738 110.65 95.7183 110.303L93.0256 109.347C92.2438 109.086 91.7226 108.305 91.7226 107.523L91.3751 89.8025C91.3751 88.6733 92.2438 87.8047 93.373 87.8047L144.275 88.1522C145.839 88.1522 146.794 89.9762 145.839 91.2792L128.032 116.296C127.337 116.904 127.424 118.033 128.119 118.728Z" fill="#2E5A56"/>
<path d="M192.497 79.0581C212.042 79.0581 227.886 63.2139 227.886 43.6692C227.886 24.1244 212.042 8.28027 192.497 8.28027C172.952 8.28027 157.108 24.1244 157.108 43.6692C157.108 63.2139 172.952 79.0581 192.497 79.0581Z" fill="#341212"/>
<path d="M184.274 70.7778C203.819 70.7778 219.663 54.9336 219.663 35.3888C219.663 15.8441 203.819 0 184.274 0C164.73 0 148.885 15.8441 148.885 35.3888C148.885 54.9336 164.73 70.7778 184.274 70.7778Z" fill="url(#paint5_linear)"/>
<path d="M191.476 34.4251L191.646 34.5953C192.213 35.1624 192.1 36.1832 191.419 36.637L186.202 39.7562C186.088 39.8129 185.918 39.9263 185.861 40.0964L179.226 48.7735C178.715 49.4541 178.999 50.4749 179.793 50.7585C181.268 51.3256 182.685 51.6092 184.103 51.6092C186.882 51.6092 189.548 50.5316 192.1 48.3198C194.085 46.6184 195.673 44.5768 196.864 42.1381C197.147 41.571 197.771 41.2874 198.338 41.4576L200.947 42.1381C201.571 42.3083 201.968 42.8754 201.911 43.4993L201.004 56.1462C200.947 56.8268 200.38 57.3372 199.699 57.3372L167.713 57.3939C167.203 57.3939 166.749 57.1103 166.579 56.6566L163.743 50.9853C163.516 50.5316 163.573 49.9645 163.913 49.6243L172.647 38.7921C173.044 38.2817 173.044 37.5444 172.591 37.0907C172.023 36.4668 172.137 35.5027 172.874 35.049L177.751 32.3268C177.922 32.2701 178.035 32.1567 178.148 31.9865L185.861 22.4587C186.485 21.7214 186.088 20.5872 185.124 20.3604C184.33 20.1902 183.536 20.1335 182.799 20.1335C180.247 20.1335 177.922 21.041 175.766 22.9692C174.122 24.387 172.874 26.1451 171.91 28.2435C171.626 28.8673 170.946 29.1508 170.322 28.924L168.564 28.3001C168.053 28.13 167.713 27.6196 167.713 27.1092L167.486 15.5397C167.486 14.8025 168.053 14.2354 168.791 14.2354L202.024 14.4623C203.045 14.4623 203.669 15.6531 203.045 16.5038L191.419 32.8372C190.965 33.2342 191.022 33.9714 191.476 34.4251Z" fill="#2E5A56"/>
<path d="M163.785 162.501H38.1852C26.2852 162.501 16.5852 172.201 16.5852 184.101C16.5852 193.201 21.1852 201.701 28.8852 206.501L48.5852 219.001H153.285L172.985 206.501C180.685 201.601 185.285 193.201 185.285 184.101C185.385 172.201 175.685 162.501 163.785 162.501Z" fill="url(#paint6_linear)"/>
<path fill-rule="evenodd" clip-rule="evenodd" d="M201.564 259.201H201.586V260.065C201.595 260.618 201.595 261.17 201.586 261.723V286.401C201.486 292.201 200.386 298.001 198.186 303.601C191.786 320.201 176.986 332.101 159.386 334.901L153.886 335.801C118.786 341.401 82.9857 341.401 47.7857 335.801L42.2857 334.901C24.7857 332.101 9.98569 320.201 3.48569 303.601C1.28569 298.101 0.185693 292.201 0.0856934 286.401V261.78C0.0752718 261.189 0.0752816 260.599 0.0856934 260.008V259.201H0.106431C0.424097 249.782 3.39031 240.509 8.88521 232.501C12.891 226.674 16.3928 223.248 19.3762 220.329C22.7849 216.994 25.5168 214.321 27.5504 209.487C28.6248 205.41 29.5043 201.277 30.1857 197.101C32.1857 185.101 42.4857 176.301 54.6857 176.301H147.286C159.486 176.301 169.886 185.101 171.786 197.101C172.556 201.82 173.579 206.485 174.85 211.075C176.792 214.945 179.278 217.378 182.294 220.329C185.278 223.248 188.779 226.674 192.785 232.501C198.28 240.509 201.246 249.782 201.564 259.201Z" fill="url(#paint7_linear)"/>
<path d="M103.499 163.524C110.138 156.885 110.138 146.121 103.499 139.482C96.8602 132.843 86.0965 132.843 79.4577 139.482C72.8189 146.121 72.8188 156.885 79.4577 163.524C86.0965 170.163 96.8602 170.163 103.499 163.524Z" fill="url(#paint8_linear)"/>
<path d="M66.5652 253.356C71.0509 253.356 74.6161 254.615 77.261 257.133C79.927 259.651 81.26 263.1 81.26 267.48C81.26 272.664 79.6625 276.652 76.4675 279.445C73.2725 282.238 68.7022 283.635 62.7566 283.635C57.5938 283.635 53.4255 282.799 50.2517 281.127V272.653C51.9233 273.542 53.8699 274.272 56.0916 274.843C58.3132 275.393 60.4185 275.668 62.4075 275.668C68.3954 275.668 71.3894 273.214 71.3894 268.305C71.3894 263.629 68.2896 261.291 62.0901 261.291C60.9687 261.291 59.7309 261.407 58.3767 261.64C57.0225 261.852 55.9223 262.084 55.0759 262.338L51.1721 260.244L52.9177 236.599H78.0862V244.914H61.5188L60.6619 254.023L61.7727 253.801C63.0634 253.505 64.6609 253.356 66.5652 253.356ZM118.997 259.799C118.997 267.903 117.664 273.902 114.998 277.795C112.353 281.688 108.269 283.635 102.747 283.635C97.3936 283.635 93.3523 281.625 90.6228 277.604C87.9145 273.584 86.5603 267.649 86.5603 259.799C86.5603 251.611 87.8827 245.581 90.5276 241.708C93.1724 237.815 97.2455 235.869 102.747 235.869C108.1 235.869 112.141 237.9 114.871 241.962C117.622 246.025 118.997 251.971 118.997 259.799ZM96.304 259.799C96.304 265.491 96.7906 269.575 97.7639 272.05C98.7584 274.505 100.419 275.732 102.747 275.732C105.032 275.732 106.682 274.484 107.698 271.987C108.714 269.49 109.221 265.428 109.221 259.799C109.221 254.108 108.703 250.024 107.666 247.548C106.651 245.052 105.011 243.803 102.747 243.803C100.441 243.803 98.7901 245.052 97.7957 247.548C96.8012 250.024 96.304 254.108 96.304 259.799ZM164.51 283H153.338L141.182 263.449L137.024 266.433V283H127.185V236.599H137.024V257.832L140.896 252.373L153.465 236.599H164.383L148.196 257.133L164.51 283Z" fill="url(#paint9_linear)"/>
<defs>
<linearGradient id="paint0_linear" x1="208.84" y1="136.168" x2="36.0299" y2="161.949" gradientUnits="userSpaceOnUse">
<stop stop-color="#FFE591"/>
<stop offset="0.3151" stop-color="#DDBC6E"/>
<stop offset="1" stop-color="#8B5917"/>
</linearGradient>
<linearGradient id="paint1_linear" x1="148.817" y1="106.429" x2="113.302" y2="108.203" gradientUnits="userSpaceOnUse">
<stop stop-color="#FFE591"/>
<stop offset="0.3151" stop-color="#DDBC6E"/>
<stop offset="1" stop-color="#8B5917"/>
</linearGradient>
<linearGradient id="paint2_linear" x1="114.235" y1="148.101" x2="114.235" y2="213.278" gradientUnits="userSpaceOnUse">
<stop stop-color="#8F5A2D"/>
<stop offset="1" stop-color="#351B06"/>
</linearGradient>
<linearGradient id="paint3_linear" x1="114.835" y1="154.901" x2="114.835" y2="206.501" gradientUnits="userSpaceOnUse">
<stop stop-color="#4E2D13"/>
<stop offset="1" stop-color="#351B06"/>
</linearGradient>
<linearGradient id="paint4_linear" x1="117.089" y1="66.001" x2="117.089" y2="174.408" gradientUnits="userSpaceOnUse">
<stop stop-color="#FFC700"/>
<stop offset="1" stop-color="#FC9517"/>
</linearGradient>
<linearGradient id="paint5_linear" x1="184.274" y1="0" x2="184.274" y2="70.7778" gradientUnits="userSpaceOnUse">
<stop stop-color="#FFC700"/>
<stop offset="1" stop-color="#FC9517"/>
</linearGradient>
<linearGradient id="paint6_linear" x1="185.941" y1="166.868" x2="13.13" y2="192.649" gradientUnits="userSpaceOnUse">
<stop stop-color="#FFE591"/>
<stop offset="0.3151" stop-color="#DDBC6E"/>
<stop offset="1" stop-color="#8B5917"/>
</linearGradient>
<linearGradient id="paint7_linear" x1="100.835" y1="176.301" x2="100.835" y2="340.001" gradientUnits="userSpaceOnUse">
<stop stop-color="#8F5A2D"/>
<stop offset="1" stop-color="#351B06"/>
</linearGradient>
<linearGradient id="paint8_linear" x1="93.4298" y1="129.226" x2="69.572" y2="155.594" gradientUnits="userSpaceOnUse">
<stop stop-color="#FFE591"/>
<stop offset="0.3151" stop-color="#DDBC6E"/>
<stop offset="1" stop-color="#8B5917"/>
</linearGradient>
<linearGradient id="paint9_linear" x1="106.078" y1="213" x2="106.078" y2="302" gradientUnits="userSpaceOnUse">
<stop stop-color="#FFC700"/>
<stop offset="1" stop-color="#FC9517"/>
</linearGradient>
</defs>
</svg>
