<svg width="229" height="340" viewBox="0 0 229 340" fill="none" xmlns="http://www.w3.org/2000/svg">
<path d="M186.777 131.801H61.2772C49.3772 131.801 39.6772 141.501 39.6772 153.401C39.6772 162.501 44.2772 171.001 51.9772 175.801L71.6772 188.301H176.377L196.077 175.801C203.777 170.901 208.377 162.501 208.377 153.401C208.377 141.501 198.777 131.801 186.777 131.801Z" fill="url(#paint0_linear)"/>
<path d="M148.877 120.801C148.877 130.201 141.277 137.801 131.877 137.801C122.477 137.801 114.877 130.201 114.877 120.801C114.877 111.401 122.477 103.801 131.877 103.801C141.277 103.801 148.877 111.401 148.877 120.801Z" fill="url(#paint1_linear)"/>
<path d="M178.377 209.901C191.377 202.401 195.077 177.001 195.177 176.501C194.877 174.101 194.877 171.601 194.877 168.901C194.877 156.701 182.577 148.101 169.677 148.101H77.0772C65.6772 148.101 55.2773 156.901 53.3773 168.901C50.4773 187.001 43.7772 186.001 33.6772 199.601L39.7772 209.901C39.6772 209.901 165.177 217.501 178.377 209.901Z" fill="url(#paint2_linear)"/>
<path d="M136.577 206.501C102.077 206.501 56.5773 204.101 43.6773 203.401L41.7773 200.201C43.6773 198.001 45.4773 196.201 47.1773 194.501C52.7773 189.001 57.6773 184.301 59.9773 170.001C61.3773 161.401 68.6773 154.901 76.9773 154.901H169.577C178.477 154.901 187.977 160.601 187.977 169.001C187.977 171.901 188.077 174.301 188.277 176.401C186.877 185.301 182.177 200.001 174.977 204.101C174.177 204.401 168.277 206.501 136.577 206.501Z" fill="url(#paint3_linear)"/>
<path d="M209.977 208.501C199.277 193.001 196.077 185.101 195.177 176.501C195.077 177.001 191.377 202.501 178.377 209.901C165.177 217.401 39.6772 209.901 39.6772 209.901L33.5772 199.601C33.0772 200.301 32.5773 201.001 31.9773 201.801C22.5773 215.501 20.5772 232.901 26.5772 248.401C33.0772 265.001 47.8773 276.901 65.3773 279.701L70.8773 280.601C106.077 286.201 141.877 286.201 176.977 280.601L182.477 279.701L194.977 310.901C217.277 280.101 225.477 231.101 209.977 208.501Z" fill="#411E09"/>
<path d="M129.875 187.089C159.81 187.089 184.078 162.822 184.078 132.886C184.078 102.95 159.81 78.6826 129.875 78.6826C99.9388 78.6826 75.6711 102.95 75.6711 132.886C75.6711 162.822 99.9388 187.089 129.875 187.089Z" fill="#341212"/>
<path d="M117.281 174.408C147.217 174.408 171.484 150.14 171.484 120.204C171.484 90.2686 147.217 66.001 117.281 66.001C87.3453 66.001 63.0776 90.2686 63.0776 120.204C63.0776 150.14 87.3453 174.408 117.281 174.408Z" fill="url(#paint4_linear)"/>
<path d="M128.311 118.728L128.571 118.989C129.44 119.858 129.266 121.421 128.224 122.116L120.232 126.894C120.059 126.981 119.798 127.154 119.711 127.415L109.548 140.705C108.766 141.747 109.201 143.311 110.417 143.745C112.675 144.614 114.847 145.048 117.018 145.048C121.275 145.048 125.357 143.398 129.266 140.01C132.307 137.404 134.739 134.277 136.563 130.542C136.997 129.673 137.953 129.239 138.821 129.5L142.817 130.542C143.773 130.803 144.381 131.671 144.294 132.627L142.904 151.997C142.817 153.04 141.949 153.822 140.906 153.822L91.9147 153.908C91.1329 153.908 90.438 153.474 90.1774 152.779L85.8342 144.093C85.4867 143.398 85.5736 142.529 86.0948 142.008L99.4719 125.417C100.08 124.635 100.08 123.506 99.3851 122.811C98.5164 121.856 98.6901 120.379 99.8193 119.684L107.29 115.514C107.55 115.428 107.724 115.254 107.898 114.993L119.711 100.4C120.667 99.2708 120.059 97.5335 118.582 97.1861C117.366 96.9255 116.15 96.8387 115.021 96.8387C111.112 96.8387 107.55 98.2285 104.249 101.182C101.73 103.353 99.8194 106.046 98.3427 109.26C97.9083 110.216 96.866 110.65 95.9105 110.303L93.2177 109.347C92.4359 109.086 91.9147 108.305 91.9147 107.523L91.5673 89.8025C91.5673 88.6733 92.4359 87.8047 93.5652 87.8047L144.468 88.1522C146.031 88.1522 146.987 89.9762 146.031 91.2792L128.224 116.296C127.529 116.904 127.616 118.033 128.311 118.728Z" fill="#2E5A56"/>
<path d="M192.689 79.0581C212.234 79.0581 228.078 63.2139 228.078 43.6692C228.078 24.1244 212.234 8.28027 192.689 8.28027C173.144 8.28027 157.3 24.1244 157.3 43.6692C157.3 63.2139 173.144 79.0581 192.689 79.0581Z" fill="#341212"/>
<path d="M184.466 70.7778C204.011 70.7778 219.855 54.9336 219.855 35.3888C219.855 15.8441 204.011 0 184.466 0C164.922 0 149.078 15.8441 149.078 35.3888C149.078 54.9336 164.922 70.7778 184.466 70.7778Z" fill="url(#paint5_linear)"/>
<path d="M191.668 34.4251L191.838 34.5953C192.405 35.1624 192.292 36.1832 191.611 36.637L186.394 39.7562C186.28 39.8129 186.11 39.9263 186.053 40.0964L179.418 48.7735C178.908 49.4541 179.191 50.4749 179.985 50.7585C181.46 51.3256 182.878 51.6092 184.295 51.6092C187.074 51.6092 189.74 50.5316 192.292 48.3198C194.277 46.6184 195.865 44.5768 197.056 42.1381C197.339 41.571 197.963 41.2874 198.53 41.4576L201.139 42.1381C201.763 42.3083 202.16 42.8754 202.103 43.4993L201.196 56.1462C201.139 56.8268 200.572 57.3372 199.891 57.3372L167.905 57.3939C167.395 57.3939 166.941 57.1103 166.771 56.6566L163.935 50.9853C163.709 50.5316 163.765 49.9645 164.106 49.6243L172.839 38.7921C173.236 38.2817 173.236 37.5444 172.783 37.0907C172.216 36.4668 172.329 35.5027 173.066 35.049L177.944 32.3268C178.114 32.2701 178.227 32.1567 178.34 31.9865L186.053 22.4587C186.677 21.7214 186.28 20.5872 185.316 20.3604C184.522 20.1902 183.728 20.1335 182.991 20.1335C180.439 20.1335 178.114 21.041 175.959 22.9692C174.314 24.387 173.066 26.1451 172.102 28.2435C171.819 28.8673 171.138 29.1508 170.514 28.924L168.756 28.3001C168.246 28.13 167.905 27.6196 167.905 27.1092L167.678 15.5397C167.678 14.8025 168.246 14.2354 168.983 14.2354L202.217 14.4623C203.237 14.4623 203.861 15.6531 203.237 16.5038L191.611 32.8372C191.158 33.2342 191.214 33.9714 191.668 34.4251Z" fill="#2E5A56"/>
<path d="M163.977 162.501H38.3773C26.4773 162.501 16.7773 172.201 16.7773 184.101C16.7773 193.201 21.3773 201.701 29.0773 206.501L48.7773 219.001H153.477L173.177 206.501C180.877 201.601 185.477 193.201 185.477 184.101C185.577 172.201 175.877 162.501 163.977 162.501Z" fill="url(#paint6_linear)"/>
<path fill-rule="evenodd" clip-rule="evenodd" d="M201.756 259.201H201.778V260.065C201.787 260.618 201.787 261.17 201.778 261.723V286.401C201.678 292.201 200.578 298.001 198.378 303.601C191.978 320.201 177.178 332.101 159.578 334.901L154.078 335.801C118.978 341.401 83.1778 341.401 47.9778 335.801L42.4778 334.901C24.9778 332.101 10.1778 320.201 3.67783 303.601C1.47783 298.101 0.377832 292.201 0.277832 286.401V261.78C0.26741 261.189 0.26742 260.599 0.277832 260.008V259.201H0.298569C0.616236 249.782 3.58245 240.509 9.07735 232.501C13.0831 226.674 16.585 223.248 19.5684 220.329C22.977 216.994 25.709 214.321 27.7425 209.487C28.8169 205.41 29.6964 201.277 30.3778 197.101C32.3778 185.101 42.6778 176.301 54.8778 176.301H147.478C159.678 176.301 170.078 185.101 171.978 197.101C172.748 201.82 173.771 206.485 175.042 211.075C176.984 214.945 179.47 217.378 182.486 220.329C185.47 223.248 188.972 226.674 192.977 232.501C198.472 240.509 201.438 249.782 201.756 259.201Z" fill="url(#paint7_linear)"/>
<path d="M103.691 163.524C110.33 156.885 110.33 146.121 103.691 139.482C97.0523 132.843 86.2887 132.843 79.6498 139.482C73.011 146.121 73.011 156.885 79.6498 163.524C86.2887 170.163 97.0523 170.163 103.691 163.524Z" fill="url(#paint8_linear)"/>
<path d="M82.3091 283H49.8726V276.176L61.5205 264.401C64.9694 260.868 67.2228 258.424 68.2808 257.07C69.3387 255.694 70.1004 254.425 70.5659 253.261C71.0314 252.097 71.2642 250.891 71.2642 249.643C71.2642 247.781 70.7458 246.395 69.709 245.485C68.6934 244.576 67.3286 244.121 65.6147 244.121C63.8162 244.121 62.0706 244.533 60.3779 245.358C58.6852 246.184 56.9185 247.358 55.0776 248.881L49.7456 242.565C52.0308 240.619 53.9245 239.243 55.4268 238.439C56.929 237.635 58.5688 237.022 60.3462 236.599C62.1235 236.154 64.1125 235.932 66.313 235.932C69.2118 235.932 71.772 236.461 73.9937 237.519C76.2153 238.577 77.9398 240.058 79.167 241.962C80.3942 243.867 81.0078 246.046 81.0078 248.5C81.0078 250.638 80.627 252.648 79.8652 254.531C79.1247 256.393 77.9609 258.308 76.374 260.275C74.8083 262.243 72.0365 265.047 68.0586 268.686L62.0918 274.304V274.748H82.3091V283ZM103.891 253.356C108.377 253.356 111.942 254.615 114.587 257.133C117.253 259.651 118.586 263.1 118.586 267.48C118.586 272.664 116.988 276.652 113.793 279.445C110.598 282.238 106.028 283.635 100.083 283.635C94.9198 283.635 90.7515 282.799 87.5776 281.127V272.653C89.2492 273.542 91.1958 274.272 93.4175 274.843C95.6392 275.393 97.7445 275.668 99.7334 275.668C105.721 275.668 108.715 273.214 108.715 268.305C108.715 263.629 105.616 261.291 99.416 261.291C98.2946 261.291 97.0568 261.407 95.7026 261.64C94.3485 261.852 93.2482 262.084 92.4019 262.338L88.498 260.244L90.2437 236.599H115.412V244.914H98.8447L97.9878 254.023L99.0986 253.801C100.389 253.505 101.987 253.356 103.891 253.356ZM164.702 283H153.53L141.374 263.449L137.216 266.433V283H127.377V236.599H137.216V257.832L141.088 252.373L153.657 236.599H164.575L148.388 257.133L164.702 283Z" fill="url(#paint9_linear)"/>
<defs>
<linearGradient id="paint0_linear" x1="209.032" y1="136.168" x2="36.222" y2="161.949" gradientUnits="userSpaceOnUse">
<stop stop-color="#FFE591"/>
<stop offset="0.3151" stop-color="#DDBC6E"/>
<stop offset="1" stop-color="#8B5917"/>
</linearGradient>
<linearGradient id="paint1_linear" x1="149.009" y1="106.429" x2="113.495" y2="108.203" gradientUnits="userSpaceOnUse">
<stop stop-color="#FFE591"/>
<stop offset="0.3151" stop-color="#DDBC6E"/>
<stop offset="1" stop-color="#8B5917"/>
</linearGradient>
<linearGradient id="paint2_linear" x1="114.427" y1="148.101" x2="114.427" y2="213.278" gradientUnits="userSpaceOnUse">
<stop stop-color="#8F5A2D"/>
<stop offset="1" stop-color="#351B06"/>
</linearGradient>
<linearGradient id="paint3_linear" x1="115.027" y1="154.901" x2="115.027" y2="206.501" gradientUnits="userSpaceOnUse">
<stop stop-color="#4E2D13"/>
<stop offset="1" stop-color="#351B06"/>
</linearGradient>
<linearGradient id="paint4_linear" x1="117.281" y1="66.001" x2="117.281" y2="174.408" gradientUnits="userSpaceOnUse">
<stop stop-color="#FFC700"/>
<stop offset="1" stop-color="#FC9517"/>
</linearGradient>
<linearGradient id="paint5_linear" x1="184.466" y1="0" x2="184.466" y2="70.7778" gradientUnits="userSpaceOnUse">
<stop stop-color="#FFC700"/>
<stop offset="1" stop-color="#FC9517"/>
</linearGradient>
<linearGradient id="paint6_linear" x1="186.133" y1="166.868" x2="13.3221" y2="192.649" gradientUnits="userSpaceOnUse">
<stop stop-color="#FFE591"/>
<stop offset="0.3151" stop-color="#DDBC6E"/>
<stop offset="1" stop-color="#8B5917"/>
</linearGradient>
<linearGradient id="paint7_linear" x1="101.027" y1="176.301" x2="101.027" y2="340.001" gradientUnits="userSpaceOnUse">
<stop stop-color="#8F5A2D"/>
<stop offset="1" stop-color="#351B06"/>
</linearGradient>
<linearGradient id="paint8_linear" x1="93.622" y1="129.226" x2="69.7641" y2="155.594" gradientUnits="userSpaceOnUse">
<stop stop-color="#FFE591"/>
<stop offset="0.3151" stop-color="#DDBC6E"/>
<stop offset="1" stop-color="#8B5917"/>
</linearGradient>
<linearGradient id="paint9_linear" x1="106.27" y1="213" x2="106.27" y2="302" gradientUnits="userSpaceOnUse">
<stop stop-color="#FFC700"/>
<stop offset="1" stop-color="#FC9517"/>
</linearGradient>
</defs>
</svg>
