<svg width="229" height="340" viewBox="0 0 229 340" fill="none" xmlns="http://www.w3.org/2000/svg">
<path d="M186.931 131.801H61.4306C49.5306 131.801 39.8306 141.501 39.8306 153.401C39.8306 162.501 44.4306 171.001 52.1306 175.801L71.8306 188.301H176.531L196.231 175.801C203.931 170.901 208.531 162.501 208.531 153.401C208.531 141.501 198.931 131.801 186.931 131.801Z" fill="url(#paint0_linear)"/>
<path d="M149.031 120.801C149.031 130.201 141.431 137.801 132.031 137.801C122.631 137.801 115.031 130.201 115.031 120.801C115.031 111.401 122.631 103.801 132.031 103.801C141.431 103.801 149.031 111.401 149.031 120.801Z" fill="url(#paint1_linear)"/>
<path d="M178.531 209.901C191.531 202.401 195.231 177.001 195.331 176.501C195.031 174.101 195.031 171.601 195.031 168.901C195.031 156.701 182.731 148.101 169.831 148.101H77.2306C65.8306 148.101 55.4306 156.901 53.5306 168.901C50.6306 187.001 43.9306 186.001 33.8306 199.601L39.9306 209.901C39.8306 209.901 165.331 217.501 178.531 209.901Z" fill="url(#paint2_linear)"/>
<path d="M136.731 206.501C102.231 206.501 56.7307 204.101 43.8307 203.401L41.9307 200.201C43.8307 198.001 45.6307 196.201 47.3307 194.501C52.9307 189.001 57.8307 184.301 60.1307 170.001C61.5307 161.401 68.8307 154.901 77.1307 154.901H169.731C178.631 154.901 188.131 160.601 188.131 169.001C188.131 171.901 188.231 174.301 188.431 176.401C187.031 185.301 182.331 200.001 175.131 204.101C174.331 204.401 168.431 206.501 136.731 206.501Z" fill="url(#paint3_linear)"/>
<path d="M210.131 208.501C199.431 193.001 196.231 185.101 195.331 176.501C195.231 177.001 191.531 202.501 178.531 209.901C165.331 217.401 39.8306 209.901 39.8306 209.901L33.7306 199.601C33.2306 200.301 32.7306 201.001 32.1306 201.801C22.7306 215.501 20.7306 232.901 26.7306 248.401C33.2306 265.001 48.0306 276.901 65.5306 279.701L71.0306 280.601C106.231 286.201 142.031 286.201 177.131 280.601L182.631 279.701L195.131 310.901C217.431 280.101 225.631 231.101 210.131 208.501Z" fill="#411E09"/>
<path d="M130.028 187.089C159.964 187.089 184.231 162.822 184.231 132.886C184.231 102.95 159.964 78.6826 130.028 78.6826C100.092 78.6826 75.8245 102.95 75.8245 132.886C75.8245 162.822 100.092 187.089 130.028 187.089Z" fill="#341212"/>
<path d="M117.434 174.408C147.37 174.408 171.638 150.14 171.638 120.204C171.638 90.2686 147.37 66.001 117.434 66.001C87.4986 66.001 63.231 90.2686 63.231 120.204C63.231 150.14 87.4986 174.408 117.434 174.408Z" fill="url(#paint4_linear)"/>
<path d="M128.464 118.728L128.725 118.989C129.593 119.858 129.42 121.421 128.377 122.116L120.386 126.894C120.212 126.981 119.951 127.154 119.865 127.415L109.701 140.705C108.92 141.747 109.354 143.311 110.57 143.745C112.829 144.614 115 145.048 117.172 145.048C121.428 145.048 125.511 143.398 129.42 140.01C132.46 137.404 134.892 134.277 136.716 130.542C137.151 129.673 138.106 129.239 138.975 129.5L142.971 130.542C143.926 130.803 144.534 131.671 144.447 132.627L143.057 151.997C142.97 153.04 142.102 153.822 141.059 153.822L92.068 153.908C91.2863 153.908 90.5913 153.474 90.3307 152.779L85.9875 144.093C85.6401 143.398 85.727 142.529 86.2482 142.008L99.6252 125.417C100.233 124.635 100.233 123.506 99.5384 122.811C98.6697 121.856 98.8434 120.379 99.9727 119.684L107.443 115.514C107.704 115.428 107.877 115.254 108.051 114.993L119.865 100.4C120.82 99.2708 120.212 97.5335 118.735 97.1861C117.519 96.9255 116.303 96.8387 115.174 96.8387C111.265 96.8387 107.704 98.2285 104.403 101.182C101.884 103.353 99.9727 106.046 98.496 109.26C98.0617 110.216 97.0193 110.65 96.0638 110.303L93.371 109.347C92.5892 109.086 92.068 108.305 92.068 107.523L91.7206 89.8025C91.7206 88.6733 92.5893 87.8047 93.7185 87.8047L144.621 88.1522C146.184 88.1522 147.14 89.9762 146.184 91.2792L128.377 116.296C127.682 116.904 127.769 118.033 128.464 118.728Z" fill="#2E5A56"/>
<path d="M192.842 79.0581C212.387 79.0581 228.231 63.2139 228.231 43.6692C228.231 24.1244 212.387 8.28027 192.842 8.28027C173.297 8.28027 157.453 24.1244 157.453 43.6692C157.453 63.2139 173.297 79.0581 192.842 79.0581Z" fill="#341212"/>
<path d="M184.62 70.7778C204.165 70.7778 220.009 54.9336 220.009 35.3888C220.009 15.8441 204.165 0 184.62 0C165.075 0 149.231 15.8441 149.231 35.3888C149.231 54.9336 165.075 70.7778 184.62 70.7778Z" fill="url(#paint5_linear)"/>
<path d="M191.821 34.4251L191.992 34.5953C192.559 35.1624 192.445 36.1832 191.765 36.637L186.547 39.7562C186.434 39.8129 186.263 39.9263 186.207 40.0964L179.571 48.7735C179.061 49.4541 179.345 50.4749 180.138 50.7585C181.613 51.3256 183.031 51.6092 184.449 51.6092C187.228 51.6092 189.893 50.5316 192.445 48.3198C194.43 46.6184 196.018 44.5768 197.209 42.1381C197.493 41.571 198.116 41.2874 198.684 41.4576L201.292 42.1381C201.916 42.3083 202.313 42.8754 202.257 43.4993L201.349 56.1462C201.292 56.8268 200.725 57.3372 200.045 57.3372L168.059 57.3939C167.548 57.3939 167.095 57.1103 166.924 56.6566L164.089 50.9853C163.862 50.5316 163.919 49.9645 164.259 49.6243L172.993 38.7921C173.39 38.2817 173.39 37.5444 172.936 37.0907C172.369 36.4668 172.482 35.5027 173.22 35.049L178.097 32.3268C178.267 32.2701 178.38 32.1567 178.494 31.9865L186.207 22.4587C186.831 21.7214 186.434 20.5872 185.47 20.3604C184.676 20.1902 183.882 20.1335 183.144 20.1335C180.592 20.1335 178.267 21.041 176.112 22.9692C174.467 24.387 173.22 26.1451 172.255 28.2435C171.972 28.8673 171.291 29.1508 170.667 28.924L168.909 28.3001C168.399 28.13 168.059 27.6196 168.059 27.1092L167.832 15.5397C167.832 14.8025 168.399 14.2354 169.136 14.2354L202.37 14.4623C203.391 14.4623 204.015 15.6531 203.391 16.5038L191.765 32.8372C191.311 33.2342 191.368 33.9714 191.821 34.4251Z" fill="#2E5A56"/>
<path d="M164.131 162.501H38.5307C26.6307 162.501 16.9307 172.201 16.9307 184.101C16.9307 193.201 21.5307 201.701 29.2307 206.501L48.9307 219.001H153.631L173.331 206.501C181.031 201.601 185.631 193.201 185.631 184.101C185.731 172.201 176.031 162.501 164.131 162.501Z" fill="url(#paint6_linear)"/>
<path fill-rule="evenodd" clip-rule="evenodd" d="M201.909 259.201H201.931V260.065C201.94 260.618 201.94 261.17 201.931 261.723V286.401C201.831 292.201 200.731 298.001 198.531 303.601C192.131 320.201 177.331 332.101 159.731 334.901L154.231 335.801C119.131 341.401 83.3312 341.401 48.1312 335.801L42.6312 334.901C25.1312 332.101 10.3312 320.201 3.83115 303.601C1.63115 298.101 0.531152 292.201 0.431152 286.401V261.78C0.420731 261.189 0.420741 260.599 0.431152 260.008V259.201H0.45189C0.769556 249.782 3.73577 240.509 9.23067 232.501C13.2364 226.674 16.7383 223.248 19.7217 220.329C23.1304 216.994 25.8623 214.321 27.8959 209.487C28.9703 205.41 29.8498 201.277 30.5312 197.101C32.5312 185.101 42.8312 176.301 55.0312 176.301H147.631C159.831 176.301 170.231 185.101 172.131 197.101C172.901 201.82 173.924 206.485 175.196 211.075C177.137 214.945 179.623 217.378 182.64 220.329C185.623 223.248 189.125 226.674 193.131 232.501C198.626 240.509 201.592 249.782 201.909 259.201Z" fill="url(#paint7_linear)"/>
<path d="M103.844 163.524C110.483 156.885 110.483 146.121 103.844 139.482C97.2054 132.843 86.4417 132.843 79.8029 139.482C73.1641 146.121 73.1641 156.885 79.8029 163.524C86.4417 170.163 97.2054 170.163 103.844 163.524Z" fill="url(#paint8_linear)"/>
<path d="M97.4624 283H65.0259V276.176L76.6738 264.401C80.1227 260.868 82.3761 258.424 83.4341 257.07C84.492 255.694 85.2537 254.425 85.7192 253.261C86.1847 252.097 86.4175 250.891 86.4175 249.643C86.4175 247.781 85.8991 246.395 84.8623 245.485C83.8467 244.576 82.4819 244.121 80.7681 244.121C78.9696 244.121 77.224 244.533 75.5312 245.358C73.8385 246.184 72.0718 247.358 70.231 248.881L64.8989 242.565C67.1841 240.619 69.0778 239.243 70.5801 238.439C72.0824 237.635 73.7222 237.022 75.4995 236.599C77.2769 236.154 79.2658 235.932 81.4663 235.932C84.3651 235.932 86.9253 236.461 89.147 237.519C91.3687 238.577 93.0931 240.058 94.3203 241.962C95.5475 243.867 96.1611 246.046 96.1611 248.5C96.1611 250.638 95.7803 252.648 95.0186 254.531C94.278 256.393 93.1143 258.308 91.5273 260.275C89.9616 262.243 87.1898 265.047 83.2119 268.686L77.2451 274.304V274.748H97.4624V283ZM142.721 283H131.549L119.394 263.449L115.236 266.433V283H105.397V236.599H115.236V257.832L119.108 252.373L131.676 236.599H142.594L126.408 257.133L142.721 283Z" fill="url(#paint9_linear)"/>
<defs>
<linearGradient id="paint0_linear" x1="209.185" y1="136.168" x2="36.3753" y2="161.949" gradientUnits="userSpaceOnUse">
<stop stop-color="#FFE591"/>
<stop offset="0.3151" stop-color="#DDBC6E"/>
<stop offset="1" stop-color="#8B5917"/>
</linearGradient>
<linearGradient id="paint1_linear" x1="149.162" y1="106.429" x2="113.648" y2="108.203" gradientUnits="userSpaceOnUse">
<stop stop-color="#FFE591"/>
<stop offset="0.3151" stop-color="#DDBC6E"/>
<stop offset="1" stop-color="#8B5917"/>
</linearGradient>
<linearGradient id="paint2_linear" x1="114.581" y1="148.101" x2="114.581" y2="213.278" gradientUnits="userSpaceOnUse">
<stop stop-color="#8F5A2D"/>
<stop offset="1" stop-color="#351B06"/>
</linearGradient>
<linearGradient id="paint3_linear" x1="115.181" y1="154.901" x2="115.181" y2="206.501" gradientUnits="userSpaceOnUse">
<stop stop-color="#4E2D13"/>
<stop offset="1" stop-color="#351B06"/>
</linearGradient>
<linearGradient id="paint4_linear" x1="117.434" y1="66.001" x2="117.434" y2="174.408" gradientUnits="userSpaceOnUse">
<stop stop-color="#FFC700"/>
<stop offset="1" stop-color="#FC9517"/>
</linearGradient>
<linearGradient id="paint5_linear" x1="184.62" y1="0" x2="184.62" y2="70.7778" gradientUnits="userSpaceOnUse">
<stop stop-color="#FFC700"/>
<stop offset="1" stop-color="#FC9517"/>
</linearGradient>
<linearGradient id="paint6_linear" x1="186.286" y1="166.868" x2="13.4754" y2="192.649" gradientUnits="userSpaceOnUse">
<stop stop-color="#FFE591"/>
<stop offset="0.3151" stop-color="#DDBC6E"/>
<stop offset="1" stop-color="#8B5917"/>
</linearGradient>
<linearGradient id="paint7_linear" x1="101.181" y1="176.301" x2="101.181" y2="340.001" gradientUnits="userSpaceOnUse">
<stop stop-color="#8F5A2D"/>
<stop offset="1" stop-color="#351B06"/>
</linearGradient>
<linearGradient id="paint8_linear" x1="93.775" y1="129.226" x2="69.9171" y2="155.594" gradientUnits="userSpaceOnUse">
<stop stop-color="#FFE591"/>
<stop offset="0.3151" stop-color="#DDBC6E"/>
<stop offset="1" stop-color="#8B5917"/>
</linearGradient>
<linearGradient id="paint9_linear" x1="102.923" y1="213" x2="102.923" y2="302" gradientUnits="userSpaceOnUse">
<stop stop-color="#FFC700"/>
<stop offset="1" stop-color="#FC9517"/>
</linearGradient>
</defs>
</svg>
