<svg width="229" height="340" viewBox="0 0 229 340" fill="none" xmlns="http://www.w3.org/2000/svg">
<path d="M187.123 131.801H61.6229C49.7229 131.801 40.0229 141.501 40.0229 153.401C40.0229 162.501 44.623 171.001 52.323 175.801L72.0229 188.301H176.723L196.423 175.801C204.123 170.901 208.723 162.501 208.723 153.401C208.723 141.501 199.123 131.801 187.123 131.801Z" fill="url(#paint0_linear)"/>
<path d="M149.223 120.801C149.223 130.201 141.623 137.801 132.223 137.801C122.823 137.801 115.223 130.201 115.223 120.801C115.223 111.401 122.823 103.801 132.223 103.801C141.623 103.801 149.223 111.401 149.223 120.801Z" fill="url(#paint1_linear)"/>
<path d="M178.723 209.901C191.723 202.401 195.423 177.001 195.523 176.501C195.223 174.101 195.223 171.601 195.223 168.901C195.223 156.701 182.923 148.101 170.023 148.101H77.423C66.0229 148.101 55.623 156.901 53.723 168.901C50.823 187.001 44.1229 186.001 34.0229 199.601L40.1229 209.901C40.0229 209.901 165.523 217.501 178.723 209.901Z" fill="url(#paint2_linear)"/>
<path d="M136.923 206.501C102.423 206.501 56.923 204.101 44.023 203.401L42.123 200.201C44.023 198.001 45.823 196.201 47.523 194.501C53.123 189.001 58.0231 184.301 60.3231 170.001C61.7231 161.401 69.0231 154.901 77.3231 154.901H169.923C178.823 154.901 188.323 160.601 188.323 169.001C188.323 171.901 188.423 174.301 188.623 176.401C187.223 185.301 182.523 200.001 175.323 204.101C174.523 204.401 168.623 206.501 136.923 206.501Z" fill="url(#paint3_linear)"/>
<path d="M210.323 208.501C199.623 193.001 196.423 185.101 195.523 176.501C195.423 177.001 191.723 202.501 178.723 209.901C165.523 217.401 40.023 209.901 40.023 209.901L33.923 199.601C33.423 200.301 32.923 201.001 32.323 201.801C22.923 215.501 20.923 232.901 26.923 248.401C33.423 265.001 48.223 276.901 65.723 279.701L71.223 280.601C106.423 286.201 142.223 286.201 177.323 280.601L182.823 279.701L195.323 310.901C217.623 280.101 225.823 231.101 210.323 208.501Z" fill="#411E09"/>
<path d="M130.22 187.089C160.156 187.089 184.423 162.822 184.423 132.886C184.423 102.95 160.156 78.6826 130.22 78.6826C100.284 78.6826 76.0166 102.95 76.0166 132.886C76.0166 162.822 100.284 187.089 130.22 187.089Z" fill="#341212"/>
<path d="M117.626 174.408C147.562 174.408 171.83 150.14 171.83 120.204C171.83 90.2686 147.562 66.001 117.626 66.001C87.6907 66.001 63.4231 90.2686 63.4231 120.204C63.4231 150.14 87.6907 174.408 117.626 174.408Z" fill="url(#paint4_linear)"/>
<path d="M128.656 118.728L128.917 118.989C129.786 119.858 129.612 121.421 128.569 122.116L120.578 126.894C120.404 126.981 120.144 127.154 120.057 127.415L109.894 140.705C109.112 141.747 109.546 143.311 110.762 143.745C113.021 144.614 115.192 145.048 117.364 145.048C121.62 145.048 125.703 143.398 129.612 140.01C132.652 137.404 135.084 134.277 136.908 130.542C137.343 129.673 138.298 129.239 139.167 129.5L143.163 130.542C144.118 130.803 144.726 131.671 144.639 132.627L143.249 151.997C143.163 153.04 142.294 153.822 141.252 153.822L92.2602 153.908C91.4784 153.908 90.7835 153.474 90.5229 152.779L86.1796 144.093C85.8322 143.398 85.9191 142.529 86.4403 142.008L99.8173 125.417C100.425 124.635 100.425 123.506 99.7305 122.811C98.8619 121.856 99.0356 120.379 100.165 119.684L107.635 115.514C107.896 115.428 108.069 115.254 108.243 114.993L120.057 100.4C121.012 99.2708 120.404 97.5335 118.928 97.1861C117.711 96.9255 116.495 96.8387 115.366 96.8387C111.457 96.8387 107.896 98.2285 104.595 101.182C102.076 103.353 100.165 106.046 98.6881 109.26C98.2538 110.216 97.2114 110.65 96.2559 110.303L93.5632 109.347C92.7814 109.086 92.2602 108.305 92.2602 107.523L91.9127 89.8025C91.9127 88.6733 92.7814 87.8047 93.9106 87.8047L144.813 88.1522C146.377 88.1522 147.332 89.9762 146.377 91.2792L128.569 116.296C127.875 116.904 127.961 118.033 128.656 118.728Z" fill="#2E5A56"/>
<path d="M193.034 79.0581C212.579 79.0581 228.423 63.2139 228.423 43.6692C228.423 24.1244 212.579 8.28027 193.034 8.28027C173.49 8.28027 157.646 24.1244 157.646 43.6692C157.646 63.2139 173.49 79.0581 193.034 79.0581Z" fill="#341212"/>
<path d="M184.812 70.7778C204.357 70.7778 220.201 54.9336 220.201 35.3888C220.201 15.8441 204.357 0 184.812 0C165.267 0 149.423 15.8441 149.423 35.3888C149.423 54.9336 165.267 70.7778 184.812 70.7778Z" fill="url(#paint5_linear)"/>
<path d="M192.014 34.4251L192.184 34.5953C192.751 35.1624 192.637 36.1832 191.957 36.637L186.739 39.7562C186.626 39.8129 186.456 39.9263 186.399 40.0964L179.764 48.7735C179.253 49.4541 179.537 50.4749 180.331 50.7585C181.805 51.3256 183.223 51.6092 184.641 51.6092C187.42 51.6092 190.085 50.5316 192.637 48.3198C194.622 46.6184 196.21 44.5768 197.401 42.1381C197.685 41.571 198.309 41.2874 198.876 41.4576L201.485 42.1381C202.108 42.3083 202.505 42.8754 202.449 43.4993L201.541 56.1462C201.485 56.8268 200.917 57.3372 200.237 57.3372L168.251 57.3939C167.74 57.3939 167.287 57.1103 167.117 56.6566L164.281 50.9853C164.054 50.5316 164.111 49.9645 164.451 49.6243L173.185 38.7921C173.582 38.2817 173.582 37.5444 173.128 37.0907C172.561 36.4668 172.674 35.5027 173.412 35.049L178.289 32.3268C178.459 32.2701 178.573 32.1567 178.686 31.9865L186.399 22.4587C187.023 21.7214 186.626 20.5872 185.662 20.3604C184.868 20.1902 184.074 20.1335 183.336 20.1335C180.784 20.1335 178.459 21.041 176.304 22.9692C174.659 24.387 173.412 26.1451 172.448 28.2435C172.164 28.8673 171.483 29.1508 170.86 28.924L169.102 28.3001C168.591 28.13 168.251 27.6196 168.251 27.1092L168.024 15.5397C168.024 14.8025 168.591 14.2354 169.328 14.2354L202.562 14.4623C203.583 14.4623 204.207 15.6531 203.583 16.5038L191.957 32.8372C191.503 33.2342 191.56 33.9714 192.014 34.4251Z" fill="#2E5A56"/>
<path d="M164.323 162.501H38.7228C26.8228 162.501 17.1228 172.201 17.1228 184.101C17.1228 193.201 21.7228 201.701 29.4228 206.501L49.1228 219.001H153.823L173.523 206.501C181.223 201.601 185.823 193.201 185.823 184.101C185.923 172.201 176.223 162.501 164.323 162.501Z" fill="url(#paint6_linear)"/>
<path fill-rule="evenodd" clip-rule="evenodd" d="M202.102 259.201H202.123V260.065C202.132 260.618 202.132 261.17 202.123 261.723V286.401C202.023 292.201 200.923 298.001 198.723 303.601C192.323 320.201 177.523 332.101 159.923 334.901L154.423 335.801C119.323 341.401 83.5233 341.401 48.3233 335.801L42.8233 334.901C25.3233 332.101 10.5233 320.201 4.02329 303.601C1.82329 298.101 0.723291 292.201 0.623291 286.401V261.78C0.612869 261.189 0.612879 260.599 0.623291 260.008V259.201H0.644028C0.961695 249.782 3.92791 240.509 9.42281 232.501C13.4286 226.674 16.9304 223.248 19.9138 220.329C23.3225 216.994 26.0544 214.321 28.088 209.487C29.1624 205.41 30.0419 201.277 30.7233 197.101C32.7233 185.101 43.0233 176.301 55.2233 176.301H147.823C160.023 176.301 170.423 185.101 172.323 197.101C173.093 201.82 174.116 206.485 175.388 211.075C177.329 214.945 179.816 217.378 182.832 220.329C185.815 223.248 189.317 226.674 193.323 232.501C198.818 240.509 201.784 249.782 202.102 259.201Z" fill="url(#paint7_linear)"/>
<path d="M104.037 163.524C110.675 156.885 110.675 146.121 104.037 139.482C97.3978 132.843 86.6341 132.843 79.9953 139.482C73.3564 146.121 73.3564 156.885 79.9953 163.524C86.6341 170.163 97.3978 170.163 104.037 163.524Z" fill="url(#paint8_linear)"/>
<path d="M61.4661 283H51.6589V256.149L51.7542 251.738L51.9128 246.914C50.2836 248.543 49.1516 249.611 48.5168 250.119L43.1848 254.404L38.4558 248.5L53.4045 236.599H61.4661V283ZM86.3171 276.176C85.2169 280.45 83.3549 285.518 80.7312 291.379H73.7488C75.1241 285.751 76.1926 280.44 76.9543 275.446H85.8411L86.3171 276.176ZM110.089 253.356C114.575 253.356 118.14 254.615 120.785 257.133C123.451 259.651 124.784 263.1 124.784 267.48C124.784 272.664 123.186 276.652 119.991 279.445C116.796 282.238 112.226 283.635 106.281 283.635C101.118 283.635 96.9495 282.799 93.7756 281.127V272.653C95.4472 273.542 97.3938 274.272 99.6155 274.843C101.837 275.393 103.942 275.668 105.931 275.668C111.919 275.668 114.913 273.214 114.913 268.305C114.913 263.629 111.814 261.291 105.614 261.291C104.493 261.291 103.255 261.407 101.901 261.64C100.546 261.852 99.4462 262.084 98.5999 262.338L94.696 260.244L96.4417 236.599H121.61V244.914H105.043L104.186 254.023L105.297 253.801C106.587 253.505 108.185 253.356 110.089 253.356ZM170.9 283H159.728L147.572 263.449L143.414 266.433V283H133.575V236.599H143.414V257.832L147.286 252.373L159.855 236.599H170.773L154.586 257.133L170.9 283Z" fill="url(#paint9_linear)"/>
<defs>
<linearGradient id="paint0_linear" x1="209.378" y1="136.168" x2="36.5677" y2="161.949" gradientUnits="userSpaceOnUse">
<stop stop-color="#FFE591"/>
<stop offset="0.3151" stop-color="#DDBC6E"/>
<stop offset="1" stop-color="#8B5917"/>
</linearGradient>
<linearGradient id="paint1_linear" x1="149.355" y1="106.429" x2="113.84" y2="108.203" gradientUnits="userSpaceOnUse">
<stop stop-color="#FFE591"/>
<stop offset="0.3151" stop-color="#DDBC6E"/>
<stop offset="1" stop-color="#8B5917"/>
</linearGradient>
<linearGradient id="paint2_linear" x1="114.773" y1="148.101" x2="114.773" y2="213.278" gradientUnits="userSpaceOnUse">
<stop stop-color="#8F5A2D"/>
<stop offset="1" stop-color="#351B06"/>
</linearGradient>
<linearGradient id="paint3_linear" x1="115.373" y1="154.901" x2="115.373" y2="206.501" gradientUnits="userSpaceOnUse">
<stop stop-color="#4E2D13"/>
<stop offset="1" stop-color="#351B06"/>
</linearGradient>
<linearGradient id="paint4_linear" x1="117.626" y1="66.001" x2="117.626" y2="174.408" gradientUnits="userSpaceOnUse">
<stop stop-color="#FFC700"/>
<stop offset="1" stop-color="#FC9517"/>
</linearGradient>
<linearGradient id="paint5_linear" x1="184.812" y1="0" x2="184.812" y2="70.7778" gradientUnits="userSpaceOnUse">
<stop stop-color="#FFC700"/>
<stop offset="1" stop-color="#FC9517"/>
</linearGradient>
<linearGradient id="paint6_linear" x1="186.478" y1="166.868" x2="13.6676" y2="192.649" gradientUnits="userSpaceOnUse">
<stop stop-color="#FFE591"/>
<stop offset="0.3151" stop-color="#DDBC6E"/>
<stop offset="1" stop-color="#8B5917"/>
</linearGradient>
<linearGradient id="paint7_linear" x1="101.373" y1="176.301" x2="101.373" y2="340.001" gradientUnits="userSpaceOnUse">
<stop stop-color="#8F5A2D"/>
<stop offset="1" stop-color="#351B06"/>
</linearGradient>
<linearGradient id="paint8_linear" x1="93.9674" y1="129.226" x2="70.1095" y2="155.594" gradientUnits="userSpaceOnUse">
<stop stop-color="#FFE591"/>
<stop offset="0.3151" stop-color="#DDBC6E"/>
<stop offset="1" stop-color="#8B5917"/>
</linearGradient>
<linearGradient id="paint9_linear" x1="103.115" y1="213" x2="103.115" y2="302" gradientUnits="userSpaceOnUse">
<stop stop-color="#FFC700"/>
<stop offset="1" stop-color="#FC9517"/>
</linearGradient>
</defs>
</svg>
