<svg width="229" height="340" viewBox="0 0 229 340" fill="none" xmlns="http://www.w3.org/2000/svg">
<path d="M186.969 131.801H61.4694C49.5694 131.801 39.8694 141.501 39.8694 153.401C39.8694 162.501 44.4694 171.001 52.1694 175.801L71.8694 188.301H176.569L196.269 175.801C203.969 170.901 208.569 162.501 208.569 153.401C208.569 141.501 198.969 131.801 186.969 131.801Z" fill="url(#paint0_linear)"/>
<path d="M149.07 120.801C149.07 130.201 141.47 137.801 132.07 137.801C122.67 137.801 115.07 130.201 115.07 120.801C115.07 111.401 122.67 103.801 132.07 103.801C141.47 103.801 149.07 111.401 149.07 120.801Z" fill="url(#paint1_linear)"/>
<path d="M178.569 209.901C191.569 202.401 195.269 177.001 195.369 176.501C195.069 174.101 195.069 171.601 195.069 168.901C195.069 156.701 182.769 148.101 169.869 148.101H77.2694C65.8694 148.101 55.4694 156.901 53.5694 168.901C50.6694 187.001 43.9694 186.001 33.8694 199.601L39.9694 209.901C39.8694 209.901 165.369 217.501 178.569 209.901Z" fill="url(#paint2_linear)"/>
<path d="M136.769 206.501C102.269 206.501 56.7695 204.101 43.8695 203.401L41.9695 200.201C43.8695 198.001 45.6695 196.201 47.3695 194.501C52.9695 189.001 57.8695 184.301 60.1695 170.001C61.5695 161.401 68.8695 154.901 77.1695 154.901H169.769C178.669 154.901 188.169 160.601 188.169 169.001C188.169 171.901 188.269 174.301 188.469 176.401C187.069 185.301 182.369 200.001 175.169 204.101C174.369 204.401 168.469 206.501 136.769 206.501Z" fill="url(#paint3_linear)"/>
<path d="M210.169 208.501C199.469 193.001 196.269 185.101 195.369 176.501C195.269 177.001 191.569 202.501 178.569 209.901C165.369 217.401 39.8694 209.901 39.8694 209.901L33.7694 199.601C33.2694 200.301 32.7694 201.001 32.1694 201.801C22.7694 215.501 20.7694 232.901 26.7694 248.401C33.2694 265.001 48.0694 276.901 65.5694 279.701L71.0694 280.601C106.269 286.201 142.069 286.201 177.169 280.601L182.669 279.701L195.169 310.901C217.469 280.101 225.669 231.101 210.169 208.501Z" fill="#411E09"/>
<path d="M130.067 187.089C160.002 187.089 184.27 162.822 184.27 132.886C184.27 102.95 160.002 78.6826 130.067 78.6826C100.131 78.6826 75.8633 102.95 75.8633 132.886C75.8633 162.822 100.131 187.089 130.067 187.089Z" fill="#341212"/>
<path d="M117.473 174.408C147.409 174.408 171.676 150.14 171.676 120.204C171.676 90.2686 147.409 66.001 117.473 66.001C87.5374 66.001 63.2698 90.2686 63.2698 120.204C63.2698 150.14 87.5374 174.408 117.473 174.408Z" fill="url(#paint4_linear)"/>
<path d="M128.503 118.728L128.764 118.989C129.632 119.858 129.458 121.421 128.416 122.116L120.425 126.894C120.251 126.981 119.99 127.154 119.903 127.415L109.74 140.705C108.959 141.747 109.393 143.311 110.609 143.745C112.867 144.614 115.039 145.048 117.211 145.048C121.467 145.048 125.55 143.398 129.458 140.01C132.499 137.404 134.931 134.277 136.755 130.542C137.189 129.673 138.145 129.239 139.014 129.5L143.009 130.542C143.965 130.803 144.573 131.671 144.486 132.627L143.096 151.997C143.009 153.04 142.141 153.822 141.098 153.822L92.1069 153.908C91.3251 153.908 90.6301 153.474 90.3695 152.779L86.0263 144.093C85.6789 143.398 85.7658 142.529 86.287 142.008L99.664 125.417C100.272 124.635 100.272 123.506 99.5772 122.811C98.7086 121.856 98.8822 120.379 100.011 119.684L107.482 115.514C107.742 115.428 107.916 115.254 108.09 114.993L119.903 100.4C120.859 99.2708 120.251 97.5335 118.774 97.1861C117.558 96.9255 116.342 96.8387 115.213 96.8387C111.304 96.8387 107.742 98.2285 104.442 101.182C101.923 103.353 100.011 106.046 98.5348 109.26C98.1005 110.216 97.0581 110.65 96.1026 110.303L93.4098 109.347C92.6281 109.086 92.1069 108.305 92.1069 107.523L91.7594 89.8025C91.7594 88.6733 92.6281 87.8047 93.7573 87.8047L144.66 88.1522C146.223 88.1522 147.179 89.9762 146.223 91.2792L128.416 116.296C127.721 116.904 127.808 118.033 128.503 118.728Z" fill="#2E5A56"/>
<path d="M192.881 79.0581C212.426 79.0581 228.27 63.2139 228.27 43.6692C228.27 24.1244 212.426 8.28027 192.881 8.28027C173.336 8.28027 157.492 24.1244 157.492 43.6692C157.492 63.2139 173.336 79.0581 192.881 79.0581Z" fill="#341212"/>
<path d="M184.659 70.7778C204.203 70.7778 220.047 54.9336 220.047 35.3888C220.047 15.8441 204.203 0 184.659 0C165.114 0 149.27 15.8441 149.27 35.3888C149.27 54.9336 165.114 70.7778 184.659 70.7778Z" fill="url(#paint5_linear)"/>
<path d="M191.86 34.4251L192.03 34.5953C192.597 35.1624 192.484 36.1832 191.803 36.637L186.586 39.7562C186.472 39.8129 186.302 39.9263 186.246 40.0964L179.61 48.7735C179.1 49.4541 179.383 50.4749 180.177 50.7585C181.652 51.3256 183.07 51.6092 184.487 51.6092C187.266 51.6092 189.932 50.5316 192.484 48.3198C194.469 46.6184 196.057 44.5768 197.248 42.1381C197.531 41.571 198.155 41.2874 198.722 41.4576L201.331 42.1381C201.955 42.3083 202.352 42.8754 202.295 43.4993L201.388 56.1462C201.331 56.8268 200.764 57.3372 200.084 57.3372L168.097 57.3939C167.587 57.3939 167.133 57.1103 166.963 56.6566L164.128 50.9853C163.901 50.5316 163.957 49.9645 164.298 49.6243L173.031 38.7921C173.428 38.2817 173.428 37.5444 172.975 37.0907C172.408 36.4668 172.521 35.5027 173.258 35.049L178.136 32.3268C178.306 32.2701 178.419 32.1567 178.533 31.9865L186.246 22.4587C186.869 21.7214 186.472 20.5872 185.508 20.3604C184.714 20.1902 183.92 20.1335 183.183 20.1335C180.631 20.1335 178.306 21.041 176.151 22.9692C174.506 24.387 173.258 26.1451 172.294 28.2435C172.011 28.8673 171.33 29.1508 170.706 28.924L168.948 28.3001C168.438 28.13 168.097 27.6196 168.097 27.1092L167.871 15.5397C167.871 14.8025 168.438 14.2354 169.175 14.2354L202.409 14.4623C203.43 14.4623 204.053 15.6531 203.43 16.5038L191.803 32.8372C191.35 33.2342 191.406 33.9714 191.86 34.4251Z" fill="#2E5A56"/>
<path d="M164.169 162.501H38.5695C26.6695 162.501 16.9695 172.201 16.9695 184.101C16.9695 193.201 21.5695 201.701 29.2695 206.501L48.9695 219.001H153.669L173.369 206.501C181.069 201.601 185.669 193.201 185.669 184.101C185.769 172.201 176.069 162.501 164.169 162.501Z" fill="url(#paint6_linear)"/>
<path fill-rule="evenodd" clip-rule="evenodd" d="M201.948 259.201H201.97V260.065C201.979 260.618 201.979 261.17 201.97 261.723V286.401C201.87 292.201 200.77 298.001 198.57 303.601C192.17 320.201 177.37 332.101 159.77 334.901L154.27 335.801C119.17 341.401 83.37 341.401 48.17 335.801L42.67 334.901C25.17 332.101 10.37 320.201 3.86997 303.601C1.66997 298.101 0.569971 292.201 0.469971 286.401V261.78C0.459549 261.189 0.459559 260.599 0.469971 260.008V259.201H0.490708C0.808374 249.782 3.77459 240.509 9.26949 232.501C13.2753 226.674 16.7771 223.248 19.7605 220.329C23.1692 216.994 25.9011 214.321 27.9347 209.487C29.0091 205.41 29.8886 201.277 30.57 197.101C32.57 185.101 42.87 176.301 55.07 176.301H147.67C159.87 176.301 170.27 185.101 172.17 197.101C172.94 201.82 173.963 206.485 175.234 211.075C177.176 214.945 179.662 217.378 182.678 220.329C185.662 223.248 189.164 226.674 193.169 232.501C198.664 240.509 201.631 249.782 201.948 259.201Z" fill="url(#paint7_linear)"/>
<path d="M103.883 163.524C110.522 156.885 110.522 146.121 103.883 139.482C97.2445 132.843 86.4808 132.843 79.842 139.482C73.2031 146.121 73.2031 156.885 79.842 163.524C86.4808 170.163 97.2445 170.163 103.883 163.524Z" fill="url(#paint8_linear)"/>
<path d="M74.3127 283H64.5056V256.149L64.6008 251.738L64.7595 246.914C63.1303 248.543 61.9983 249.611 61.3635 250.119L56.0315 254.404L51.3025 248.5L66.2512 236.599H74.3127V283ZM104.083 253.356C108.569 253.356 112.134 254.615 114.779 257.133C117.445 259.651 118.778 263.1 118.778 267.48C118.778 272.664 117.181 276.652 113.986 279.445C110.791 282.238 106.22 283.635 100.275 283.635C95.1119 283.635 90.9436 282.799 87.7698 281.127V272.653C89.4413 273.542 91.3879 274.272 93.6096 274.843C95.8313 275.393 97.9366 275.668 99.9255 275.668C105.913 275.668 108.907 273.214 108.907 268.305C108.907 263.629 105.808 261.291 99.6082 261.291C98.4867 261.291 97.2489 261.407 95.8948 261.64C94.5406 261.852 93.4403 262.084 92.594 262.338L88.6902 260.244L90.4358 236.599H115.604V244.914H99.0369L98.1799 254.023L99.2908 253.801C100.581 253.505 102.179 253.356 104.083 253.356ZM164.894 283H153.722L141.566 263.449L137.408 266.433V283H127.57V236.599H137.408V257.832L141.281 252.373L153.849 236.599H164.767L148.58 257.133L164.894 283Z" fill="url(#paint9_linear)"/>
<defs>
<linearGradient id="paint0_linear" x1="209.224" y1="136.168" x2="36.4141" y2="161.949" gradientUnits="userSpaceOnUse">
<stop stop-color="#FFE591"/>
<stop offset="0.3151" stop-color="#DDBC6E"/>
<stop offset="1" stop-color="#8B5917"/>
</linearGradient>
<linearGradient id="paint1_linear" x1="149.201" y1="106.429" x2="113.687" y2="108.203" gradientUnits="userSpaceOnUse">
<stop stop-color="#FFE591"/>
<stop offset="0.3151" stop-color="#DDBC6E"/>
<stop offset="1" stop-color="#8B5917"/>
</linearGradient>
<linearGradient id="paint2_linear" x1="114.619" y1="148.101" x2="114.619" y2="213.278" gradientUnits="userSpaceOnUse">
<stop stop-color="#8F5A2D"/>
<stop offset="1" stop-color="#351B06"/>
</linearGradient>
<linearGradient id="paint3_linear" x1="115.219" y1="154.901" x2="115.219" y2="206.501" gradientUnits="userSpaceOnUse">
<stop stop-color="#4E2D13"/>
<stop offset="1" stop-color="#351B06"/>
</linearGradient>
<linearGradient id="paint4_linear" x1="117.473" y1="66.001" x2="117.473" y2="174.408" gradientUnits="userSpaceOnUse">
<stop stop-color="#FFC700"/>
<stop offset="1" stop-color="#FC9517"/>
</linearGradient>
<linearGradient id="paint5_linear" x1="184.659" y1="0" x2="184.659" y2="70.7778" gradientUnits="userSpaceOnUse">
<stop stop-color="#FFC700"/>
<stop offset="1" stop-color="#FC9517"/>
</linearGradient>
<linearGradient id="paint6_linear" x1="186.325" y1="166.868" x2="13.5142" y2="192.649" gradientUnits="userSpaceOnUse">
<stop stop-color="#FFE591"/>
<stop offset="0.3151" stop-color="#DDBC6E"/>
<stop offset="1" stop-color="#8B5917"/>
</linearGradient>
<linearGradient id="paint7_linear" x1="101.219" y1="176.301" x2="101.219" y2="340.001" gradientUnits="userSpaceOnUse">
<stop stop-color="#8F5A2D"/>
<stop offset="1" stop-color="#351B06"/>
</linearGradient>
<linearGradient id="paint8_linear" x1="93.8141" y1="129.226" x2="69.9563" y2="155.594" gradientUnits="userSpaceOnUse">
<stop stop-color="#FFE591"/>
<stop offset="0.3151" stop-color="#DDBC6E"/>
<stop offset="1" stop-color="#8B5917"/>
</linearGradient>
<linearGradient id="paint9_linear" x1="106.462" y1="213" x2="106.462" y2="302" gradientUnits="userSpaceOnUse">
<stop stop-color="#FFC700"/>
<stop offset="1" stop-color="#FC9517"/>
</linearGradient>
</defs>
</svg>
