<svg width="229" height="340" viewBox="0 0 229 340" fill="none" xmlns="http://www.w3.org/2000/svg">
<path d="M186.738 131.801H61.2382C49.3382 131.801 39.6382 141.501 39.6382 153.401C39.6382 162.501 44.2382 171.001 51.9382 175.801L71.6382 188.301H176.338L196.038 175.801C203.738 170.901 208.338 162.501 208.338 153.401C208.338 141.501 198.738 131.801 186.738 131.801Z" fill="url(#paint0_linear)"/>
<path d="M148.838 120.801C148.838 130.201 141.238 137.801 131.838 137.801C122.438 137.801 114.838 130.201 114.838 120.801C114.838 111.401 122.438 103.801 131.838 103.801C141.238 103.801 148.838 111.401 148.838 120.801Z" fill="url(#paint1_linear)"/>
<path d="M178.338 209.901C191.338 202.401 195.038 177.001 195.138 176.501C194.838 174.101 194.838 171.601 194.838 168.901C194.838 156.701 182.538 148.101 169.638 148.101H77.0382C65.6382 148.101 55.2382 156.901 53.3382 168.901C50.4382 187.001 43.7382 186.001 33.6382 199.601L39.7382 209.901C39.6382 209.901 165.138 217.501 178.338 209.901Z" fill="url(#paint2_linear)"/>
<path d="M136.538 206.501C102.038 206.501 56.5383 204.101 43.6383 203.401L41.7383 200.201C43.6383 198.001 45.4383 196.201 47.1383 194.501C52.7383 189.001 57.6383 184.301 59.9383 170.001C61.3383 161.401 68.6383 154.901 76.9383 154.901H169.538C178.438 154.901 187.938 160.601 187.938 169.001C187.938 171.901 188.038 174.301 188.238 176.401C186.838 185.301 182.138 200.001 174.938 204.101C174.138 204.401 168.238 206.501 136.538 206.501Z" fill="url(#paint3_linear)"/>
<path d="M209.938 208.501C199.238 193.001 196.038 185.101 195.138 176.501C195.038 177.001 191.338 202.501 178.338 209.901C165.138 217.401 39.6382 209.901 39.6382 209.901L33.5382 199.601C33.0382 200.301 32.5382 201.001 31.9382 201.801C22.5382 215.501 20.5382 232.901 26.5382 248.401C33.0382 265.001 47.8382 276.901 65.3382 279.701L70.8382 280.601C106.038 286.201 141.838 286.201 176.938 280.601L182.438 279.701L194.938 310.901C217.238 280.101 225.438 231.101 209.938 208.501Z" fill="#411E09"/>
<path d="M129.835 187.089C159.771 187.089 184.039 162.822 184.039 132.886C184.039 102.95 159.771 78.6826 129.835 78.6826C99.8997 78.6826 75.6321 102.95 75.6321 132.886C75.6321 162.822 99.8997 187.089 129.835 187.089Z" fill="#341212"/>
<path d="M117.242 174.408C147.178 174.408 171.445 150.14 171.445 120.204C171.445 90.2686 147.178 66.001 117.242 66.001C87.3062 66.001 63.0386 90.2686 63.0386 120.204C63.0386 150.14 87.3062 174.408 117.242 174.408Z" fill="url(#paint4_linear)"/>
<path d="M128.272 118.728L128.532 118.989C129.401 119.858 129.227 121.421 128.185 122.116L120.193 126.894C120.02 126.981 119.759 127.154 119.672 127.415L109.509 140.705C108.727 141.747 109.162 143.311 110.378 143.745C112.636 144.614 114.808 145.048 116.979 145.048C121.236 145.048 125.318 143.398 129.227 140.01C132.268 137.404 134.7 134.277 136.524 130.542C136.958 129.673 137.914 129.239 138.782 129.5L142.778 130.542C143.734 130.803 144.342 131.671 144.255 132.627L142.865 151.997C142.778 153.04 141.909 153.822 140.867 153.822L91.8757 153.908C91.0939 153.908 90.3989 153.474 90.1383 152.779L85.7951 144.093C85.4477 143.398 85.5346 142.529 86.0558 142.008L99.4328 125.417C100.041 124.635 100.041 123.506 99.346 122.811C98.4774 121.856 98.651 120.379 99.7803 119.684L107.251 115.514C107.511 115.428 107.685 115.254 107.859 114.993L119.672 100.4C120.628 99.2708 120.02 97.5335 118.543 97.1861C117.327 96.9255 116.111 96.8387 114.982 96.8387C111.073 96.8387 107.511 98.2285 104.21 101.182C101.691 103.353 99.7803 106.046 98.3036 109.26C97.8693 110.216 96.8269 110.65 95.8714 110.303L93.1786 109.347C92.3969 109.086 91.8757 108.305 91.8757 107.523L91.5282 89.8025C91.5282 88.6733 92.3969 87.8047 93.5261 87.8047L144.429 88.1522C145.992 88.1522 146.948 89.9762 145.992 91.2792L128.185 116.296C127.49 116.904 127.577 118.033 128.272 118.728Z" fill="#2E5A56"/>
<path d="M192.65 79.0581C212.194 79.0581 228.039 63.2139 228.039 43.6692C228.039 24.1244 212.194 8.28027 192.65 8.28027C173.105 8.28027 157.261 24.1244 157.261 43.6692C157.261 63.2139 173.105 79.0581 192.65 79.0581Z" fill="#341212"/>
<path d="M184.427 70.7778C203.972 70.7778 219.816 54.9336 219.816 35.3888C219.816 15.8441 203.972 0 184.427 0C164.883 0 149.039 15.8441 149.039 35.3888C149.039 54.9336 164.883 70.7778 184.427 70.7778Z" fill="url(#paint5_linear)"/>
<path d="M191.629 34.4251L191.799 34.5953C192.366 35.1624 192.253 36.1832 191.572 36.637L186.355 39.7562C186.241 39.8129 186.071 39.9263 186.014 40.0964L179.379 48.7735C178.869 49.4541 179.152 50.4749 179.946 50.7585C181.421 51.3256 182.838 51.6092 184.256 51.6092C187.035 51.6092 189.701 50.5316 192.253 48.3198C194.238 46.6184 195.826 44.5768 197.017 42.1381C197.3 41.571 197.924 41.2874 198.491 41.4576L201.1 42.1381C201.724 42.3083 202.121 42.8754 202.064 43.4993L201.157 56.1462C201.1 56.8268 200.533 57.3372 199.852 57.3372L167.866 57.3939C167.356 57.3939 166.902 57.1103 166.732 56.6566L163.896 50.9853C163.67 50.5316 163.726 49.9645 164.067 49.6243L172.8 38.7921C173.197 38.2817 173.197 37.5444 172.744 37.0907C172.176 36.4668 172.29 35.5027 173.027 35.049L177.904 32.3268C178.075 32.2701 178.188 32.1567 178.301 31.9865L186.014 22.4587C186.638 21.7214 186.241 20.5872 185.277 20.3604C184.483 20.1902 183.689 20.1335 182.952 20.1335C180.4 20.1335 178.075 21.041 175.919 22.9692C174.275 24.387 173.027 26.1451 172.063 28.2435C171.779 28.8673 171.099 29.1508 170.475 28.924L168.717 28.3001C168.207 28.13 167.866 27.6196 167.866 27.1092L167.639 15.5397C167.639 14.8025 168.207 14.2354 168.944 14.2354L202.178 14.4623C203.198 14.4623 203.822 15.6531 203.198 16.5038L191.572 32.8372C191.119 33.2342 191.175 33.9714 191.629 34.4251Z" fill="#2E5A56"/>
<path d="M163.938 162.501H38.3383C26.4383 162.501 16.7383 172.201 16.7383 184.101C16.7383 193.201 21.3383 201.701 29.0383 206.501L48.7383 219.001H153.438L173.138 206.501C180.838 201.601 185.438 193.201 185.438 184.101C185.538 172.201 175.838 162.501 163.938 162.501Z" fill="url(#paint6_linear)"/>
<path fill-rule="evenodd" clip-rule="evenodd" d="M201.717 259.201H201.739V260.065C201.748 260.618 201.748 261.17 201.739 261.723V286.401C201.639 292.201 200.539 298.001 198.339 303.601C191.939 320.201 177.139 332.101 159.539 334.901L154.039 335.801C118.939 341.401 83.1388 341.401 47.9388 335.801L42.4388 334.901C24.9388 332.101 10.1388 320.201 3.63877 303.601C1.43877 298.101 0.33877 292.201 0.23877 286.401V261.78C0.228348 261.189 0.228358 260.599 0.23877 260.008V259.201H0.259507C0.577173 249.782 3.54338 240.509 9.03829 232.501C13.0441 226.674 16.5459 223.248 19.5293 220.329C22.938 216.994 25.6699 214.321 27.7035 209.487C28.7779 205.41 29.6574 201.277 30.3388 197.101C32.3388 185.101 42.6388 176.301 54.8388 176.301H147.439C159.639 176.301 170.039 185.101 171.939 197.101C172.709 201.82 173.732 206.485 175.003 211.075C176.945 214.945 179.431 217.378 182.447 220.329C185.431 223.248 188.933 226.674 192.938 232.501C198.433 240.509 201.399 249.782 201.717 259.201Z" fill="url(#paint7_linear)"/>
<path d="M103.652 163.524C110.291 156.885 110.291 146.121 103.652 139.482C97.013 132.843 86.2493 132.843 79.6105 139.482C72.9717 146.121 72.9717 156.885 79.6105 163.524C86.2493 170.163 97.013 170.163 103.652 163.524Z" fill="url(#paint8_linear)"/>
<path d="M95.4609 246.977C95.4609 249.876 94.5828 252.341 92.8267 254.372C91.0705 256.403 88.6055 257.8 85.4316 258.562V258.752C89.1768 259.217 92.012 260.36 93.9375 262.18C95.863 263.978 96.8257 266.411 96.8257 269.479C96.8257 273.944 95.207 277.425 91.9697 279.921C88.7324 282.397 84.1092 283.635 78.1001 283.635C73.0643 283.635 68.5998 282.799 64.7065 281.127V272.78C66.505 273.69 68.4834 274.431 70.6416 275.002C72.7998 275.573 74.9368 275.859 77.0527 275.859C80.29 275.859 82.681 275.309 84.2256 274.208C85.7702 273.108 86.5425 271.341 86.5425 268.908C86.5425 266.729 85.6538 265.184 83.8765 264.274C82.0991 263.365 79.2638 262.91 75.3706 262.91H71.8477V255.388H75.4341C79.0311 255.388 81.6548 254.922 83.3052 253.991C84.9767 253.039 85.8125 251.42 85.8125 249.135C85.8125 245.623 83.612 243.867 79.2109 243.867C77.6875 243.867 76.1323 244.121 74.5454 244.628C72.9797 245.136 71.234 246.014 69.3086 247.263L64.77 240.502C69.0018 237.456 74.0482 235.932 79.9092 235.932C84.7122 235.932 88.4997 236.905 91.2715 238.852C94.0645 240.799 95.4609 243.507 95.4609 246.977ZM142.529 283H131.357L119.201 263.449L115.043 266.433V283H105.205V236.599H115.043V257.832L118.916 252.373L131.484 236.599H142.402L126.215 257.133L142.529 283Z" fill="url(#paint9_linear)"/>
<defs>
<linearGradient id="paint0_linear" x1="208.993" y1="136.168" x2="36.1829" y2="161.949" gradientUnits="userSpaceOnUse">
<stop stop-color="#FFE591"/>
<stop offset="0.3151" stop-color="#DDBC6E"/>
<stop offset="1" stop-color="#8B5917"/>
</linearGradient>
<linearGradient id="paint1_linear" x1="148.97" y1="106.429" x2="113.455" y2="108.203" gradientUnits="userSpaceOnUse">
<stop stop-color="#FFE591"/>
<stop offset="0.3151" stop-color="#DDBC6E"/>
<stop offset="1" stop-color="#8B5917"/>
</linearGradient>
<linearGradient id="paint2_linear" x1="114.388" y1="148.101" x2="114.388" y2="213.278" gradientUnits="userSpaceOnUse">
<stop stop-color="#8F5A2D"/>
<stop offset="1" stop-color="#351B06"/>
</linearGradient>
<linearGradient id="paint3_linear" x1="114.988" y1="154.901" x2="114.988" y2="206.501" gradientUnits="userSpaceOnUse">
<stop stop-color="#4E2D13"/>
<stop offset="1" stop-color="#351B06"/>
</linearGradient>
<linearGradient id="paint4_linear" x1="117.242" y1="66.001" x2="117.242" y2="174.408" gradientUnits="userSpaceOnUse">
<stop stop-color="#FFC700"/>
<stop offset="1" stop-color="#FC9517"/>
</linearGradient>
<linearGradient id="paint5_linear" x1="184.427" y1="0" x2="184.427" y2="70.7778" gradientUnits="userSpaceOnUse">
<stop stop-color="#FFC700"/>
<stop offset="1" stop-color="#FC9517"/>
</linearGradient>
<linearGradient id="paint6_linear" x1="186.094" y1="166.868" x2="13.283" y2="192.649" gradientUnits="userSpaceOnUse">
<stop stop-color="#FFE591"/>
<stop offset="0.3151" stop-color="#DDBC6E"/>
<stop offset="1" stop-color="#8B5917"/>
</linearGradient>
<linearGradient id="paint7_linear" x1="100.988" y1="176.301" x2="100.988" y2="340.001" gradientUnits="userSpaceOnUse">
<stop stop-color="#8F5A2D"/>
<stop offset="1" stop-color="#351B06"/>
</linearGradient>
<linearGradient id="paint8_linear" x1="93.5826" y1="129.226" x2="69.7247" y2="155.594" gradientUnits="userSpaceOnUse">
<stop stop-color="#FFE591"/>
<stop offset="0.3151" stop-color="#DDBC6E"/>
<stop offset="1" stop-color="#8B5917"/>
</linearGradient>
<linearGradient id="paint9_linear" x1="102.731" y1="213" x2="102.731" y2="302" gradientUnits="userSpaceOnUse">
<stop stop-color="#FFC700"/>
<stop offset="1" stop-color="#FC9517"/>
</linearGradient>
</defs>
</svg>
