<svg width="229" height="340" viewBox="0 0 229 340" fill="none" xmlns="http://www.w3.org/2000/svg">
<path d="M187.162 131.801H61.6615C49.7615 131.801 40.0615 141.501 40.0615 153.401C40.0615 162.501 44.6615 171.001 52.3615 175.801L72.0615 188.301H176.762L196.462 175.801C204.162 170.901 208.762 162.501 208.762 153.401C208.762 141.501 199.162 131.801 187.162 131.801Z" fill="url(#paint0_linear)"/>
<path d="M149.262 120.801C149.262 130.201 141.662 137.801 132.262 137.801C122.862 137.801 115.262 130.201 115.262 120.801C115.262 111.401 122.862 103.801 132.262 103.801C141.662 103.801 149.262 111.401 149.262 120.801Z" fill="url(#paint1_linear)"/>
<path d="M178.762 209.901C191.762 202.401 195.462 177.001 195.562 176.501C195.262 174.101 195.262 171.601 195.262 168.901C195.262 156.701 182.962 148.101 170.062 148.101H77.4615C66.0615 148.101 55.6615 156.901 53.7615 168.901C50.8615 187.001 44.1615 186.001 34.0615 199.601L40.1615 209.901C40.0615 209.901 165.562 217.501 178.762 209.901Z" fill="url(#paint2_linear)"/>
<path d="M136.962 206.501C102.462 206.501 56.9616 204.101 44.0616 203.401L42.1616 200.201C44.0616 198.001 45.8616 196.201 47.5616 194.501C53.1616 189.001 58.0616 184.301 60.3616 170.001C61.7616 161.401 69.0616 154.901 77.3616 154.901H169.962C178.862 154.901 188.362 160.601 188.362 169.001C188.362 171.901 188.462 174.301 188.662 176.401C187.262 185.301 182.562 200.001 175.362 204.101C174.562 204.401 168.662 206.501 136.962 206.501Z" fill="url(#paint3_linear)"/>
<path d="M210.362 208.501C199.662 193.001 196.462 185.101 195.562 176.501C195.462 177.001 191.762 202.501 178.762 209.901C165.562 217.401 40.0615 209.901 40.0615 209.901L33.9615 199.601C33.4615 200.301 32.9615 201.001 32.3615 201.801C22.9615 215.501 20.9615 232.901 26.9615 248.401C33.4615 265.001 48.2615 276.901 65.7615 279.701L71.2615 280.601C106.462 286.201 142.262 286.201 177.362 280.601L182.862 279.701L195.362 310.901C217.662 280.101 225.862 231.101 210.362 208.501Z" fill="#411E09"/>
<path d="M130.259 187.089C160.195 187.089 184.462 162.822 184.462 132.886C184.462 102.95 160.195 78.6826 130.259 78.6826C100.323 78.6826 76.0554 102.95 76.0554 132.886C76.0554 162.822 100.323 187.089 130.259 187.089Z" fill="#341212"/>
<path d="M117.665 174.408C147.601 174.408 171.869 150.14 171.869 120.204C171.869 90.2686 147.601 66.001 117.665 66.001C87.7296 66.001 63.4619 90.2686 63.4619 120.204C63.4619 150.14 87.7296 174.408 117.665 174.408Z" fill="url(#paint4_linear)"/>
<path d="M128.695 118.728L128.956 118.989C129.824 119.858 129.651 121.421 128.608 122.116L120.617 126.894C120.443 126.981 120.182 127.154 120.096 127.415L109.932 140.705C109.151 141.747 109.585 143.311 110.801 143.745C113.06 144.614 115.231 145.048 117.403 145.048C121.659 145.048 125.742 143.398 129.651 140.01C132.691 137.404 135.123 134.277 136.947 130.542C137.382 129.673 138.337 129.239 139.206 129.5L143.201 130.542C144.157 130.803 144.765 131.671 144.678 132.627L143.288 151.997C143.201 153.04 142.333 153.822 141.29 153.822L92.299 153.908C91.5172 153.908 90.8223 153.474 90.5617 152.779L86.2185 144.093C85.871 143.398 85.9579 142.529 86.4791 142.008L99.8562 125.417C100.464 124.635 100.464 123.506 99.7693 122.811C98.9007 121.856 99.0744 120.379 100.204 119.684L107.674 115.514C107.935 115.428 108.108 115.254 108.282 114.993L120.096 100.4C121.051 99.2708 120.443 97.5335 118.966 97.1861C117.75 96.9255 116.534 96.8387 115.405 96.8387C111.496 96.8387 107.935 98.2285 104.634 101.182C102.115 103.353 100.204 106.046 98.7269 109.26C98.2926 110.216 97.2503 110.65 96.2948 110.303L93.602 109.347C92.8202 109.086 92.299 108.305 92.299 107.523L91.9515 89.8025C91.9515 88.6733 92.8202 87.8047 93.9494 87.8047L144.852 88.1522C146.415 88.1522 147.371 89.9762 146.415 91.2792L128.608 116.296C127.913 116.904 128 118.033 128.695 118.728Z" fill="#2E5A56"/>
<path d="M193.073 79.0581C212.618 79.0581 228.462 63.2139 228.462 43.6692C228.462 24.1244 212.618 8.28027 193.073 8.28027C173.528 8.28027 157.684 24.1244 157.684 43.6692C157.684 63.2139 173.528 79.0581 193.073 79.0581Z" fill="#341212"/>
<path d="M184.851 70.7778C204.395 70.7778 220.24 54.9336 220.24 35.3888C220.24 15.8441 204.395 0 184.851 0C165.306 0 149.462 15.8441 149.462 35.3888C149.462 54.9336 165.306 70.7778 184.851 70.7778Z" fill="url(#paint5_linear)"/>
<path d="M192.052 34.4251L192.222 34.5953C192.79 35.1624 192.676 36.1832 191.996 36.637L186.778 39.7562C186.665 39.8129 186.494 39.9263 186.438 40.0964L179.802 48.7735C179.292 49.4541 179.575 50.4749 180.369 50.7585C181.844 51.3256 183.262 51.6092 184.68 51.6092C187.459 51.6092 190.124 50.5316 192.676 48.3198C194.661 46.6184 196.249 44.5768 197.44 42.1381C197.724 41.571 198.347 41.2874 198.915 41.4576L201.523 42.1381C202.147 42.3083 202.544 42.8754 202.487 43.4993L201.58 56.1462C201.523 56.8268 200.956 57.3372 200.276 57.3372L168.29 57.3939C167.779 57.3939 167.325 57.1103 167.155 56.6566L164.32 50.9853C164.093 50.5316 164.15 49.9645 164.49 49.6243L173.224 38.7921C173.621 38.2817 173.621 37.5444 173.167 37.0907C172.6 36.4668 172.713 35.5027 173.45 35.049L178.328 32.3268C178.498 32.2701 178.611 32.1567 178.725 31.9865L186.438 22.4587C187.062 21.7214 186.665 20.5872 185.7 20.3604C184.906 20.1902 184.112 20.1335 183.375 20.1335C180.823 20.1335 178.498 21.041 176.343 22.9692C174.698 24.387 173.45 26.1451 172.486 28.2435C172.203 28.8673 171.522 29.1508 170.898 28.924L169.14 28.3001C168.63 28.13 168.29 27.6196 168.29 27.1092L168.063 15.5397C168.063 14.8025 168.63 14.2354 169.367 14.2354L202.601 14.4623C203.622 14.4623 204.246 15.6531 203.622 16.5038L191.996 32.8372C191.542 33.2342 191.599 33.9714 192.052 34.4251Z" fill="#2E5A56"/>
<path d="M164.362 162.501H38.7616C26.8616 162.501 17.1616 172.201 17.1616 184.101C17.1616 193.201 21.7616 201.701 29.4616 206.501L49.1616 219.001H153.862L173.562 206.501C181.262 201.601 185.862 193.201 185.862 184.101C185.962 172.201 176.262 162.501 164.362 162.501Z" fill="url(#paint6_linear)"/>
<path fill-rule="evenodd" clip-rule="evenodd" d="M202.14 259.201H202.162V260.065C202.171 260.618 202.171 261.17 202.162 261.723V286.401C202.062 292.201 200.962 298.001 198.762 303.601C192.362 320.201 177.562 332.101 159.962 334.901L154.462 335.801C119.362 341.401 83.5621 341.401 48.3621 335.801L42.8621 334.901C25.3621 332.101 10.5621 320.201 4.06211 303.601C1.86211 298.101 0.762109 292.201 0.662109 286.401V261.78C0.651688 261.189 0.651698 260.599 0.662109 260.008V259.201H0.682847C1.00051 249.782 3.96672 240.509 9.46163 232.501C13.4674 226.674 16.9692 223.248 19.9527 220.329C23.3613 216.994 26.0932 214.321 28.1268 209.487C29.2012 205.41 30.0807 201.277 30.7621 197.101C32.7621 185.101 43.0621 176.301 55.2621 176.301H147.862C160.062 176.301 170.462 185.101 172.362 197.101C173.132 201.82 174.155 206.485 175.427 211.075C177.368 214.945 179.854 217.378 182.871 220.329C185.854 223.248 189.356 226.674 193.362 232.501C198.857 240.509 201.823 249.782 202.14 259.201Z" fill="url(#paint7_linear)"/>
<path d="M104.075 163.524C110.714 156.885 110.714 146.121 104.075 139.482C97.4366 132.843 86.6729 132.843 80.0341 139.482C73.3953 146.121 73.3953 156.885 80.0341 163.524C86.6729 170.163 97.4366 170.163 104.075 163.524Z" fill="url(#paint8_linear)"/>
<path d="M74.5049 283H64.6978V256.149L64.793 251.738L64.9517 246.914C63.3224 248.543 62.1904 249.611 61.5557 250.119L56.2236 254.404L51.4946 248.5L66.4434 236.599H74.5049V283ZM119.573 259.799C119.573 267.903 118.24 273.902 115.574 277.795C112.929 281.688 108.846 283.635 103.323 283.635C97.9701 283.635 93.9287 281.625 91.1992 277.604C88.4909 273.584 87.1367 267.649 87.1367 259.799C87.1367 251.611 88.4591 245.581 91.104 241.708C93.7489 237.815 97.8219 235.869 103.323 235.869C108.676 235.869 112.718 237.9 115.447 241.962C118.198 246.025 119.573 251.971 119.573 259.799ZM96.8804 259.799C96.8804 265.491 97.367 269.575 98.3403 272.05C99.3348 274.505 100.996 275.732 103.323 275.732C105.608 275.732 107.259 274.484 108.274 271.987C109.29 269.49 109.798 265.428 109.798 259.799C109.798 254.108 109.279 250.024 108.243 247.548C107.227 245.052 105.587 243.803 103.323 243.803C101.017 243.803 99.3665 245.052 98.3721 247.548C97.3776 250.024 96.8804 254.108 96.8804 259.799ZM165.086 283H153.914L141.758 263.449L137.601 266.433V283H127.762V236.599H137.601V257.832L141.473 252.373L154.041 236.599H164.959L148.772 257.133L165.086 283Z" fill="url(#paint9_linear)"/>
<defs>
<linearGradient id="paint0_linear" x1="209.416" y1="136.168" x2="36.6063" y2="161.949" gradientUnits="userSpaceOnUse">
<stop stop-color="#FFE591"/>
<stop offset="0.3151" stop-color="#DDBC6E"/>
<stop offset="1" stop-color="#8B5917"/>
</linearGradient>
<linearGradient id="paint1_linear" x1="149.394" y1="106.429" x2="113.879" y2="108.203" gradientUnits="userSpaceOnUse">
<stop stop-color="#FFE591"/>
<stop offset="0.3151" stop-color="#DDBC6E"/>
<stop offset="1" stop-color="#8B5917"/>
</linearGradient>
<linearGradient id="paint2_linear" x1="114.812" y1="148.101" x2="114.812" y2="213.278" gradientUnits="userSpaceOnUse">
<stop stop-color="#8F5A2D"/>
<stop offset="1" stop-color="#351B06"/>
</linearGradient>
<linearGradient id="paint3_linear" x1="115.412" y1="154.901" x2="115.412" y2="206.501" gradientUnits="userSpaceOnUse">
<stop stop-color="#4E2D13"/>
<stop offset="1" stop-color="#351B06"/>
</linearGradient>
<linearGradient id="paint4_linear" x1="117.665" y1="66.001" x2="117.665" y2="174.408" gradientUnits="userSpaceOnUse">
<stop stop-color="#FFC700"/>
<stop offset="1" stop-color="#FC9517"/>
</linearGradient>
<linearGradient id="paint5_linear" x1="184.851" y1="0" x2="184.851" y2="70.7778" gradientUnits="userSpaceOnUse">
<stop stop-color="#FFC700"/>
<stop offset="1" stop-color="#FC9517"/>
</linearGradient>
<linearGradient id="paint6_linear" x1="186.517" y1="166.868" x2="13.7064" y2="192.649" gradientUnits="userSpaceOnUse">
<stop stop-color="#FFE591"/>
<stop offset="0.3151" stop-color="#DDBC6E"/>
<stop offset="1" stop-color="#8B5917"/>
</linearGradient>
<linearGradient id="paint7_linear" x1="101.412" y1="176.301" x2="101.412" y2="340.001" gradientUnits="userSpaceOnUse">
<stop stop-color="#8F5A2D"/>
<stop offset="1" stop-color="#351B06"/>
</linearGradient>
<linearGradient id="paint8_linear" x1="94.0062" y1="129.226" x2="70.1484" y2="155.594" gradientUnits="userSpaceOnUse">
<stop stop-color="#FFE591"/>
<stop offset="0.3151" stop-color="#DDBC6E"/>
<stop offset="1" stop-color="#8B5917"/>
</linearGradient>
<linearGradient id="paint9_linear" x1="106.654" y1="213" x2="106.654" y2="302" gradientUnits="userSpaceOnUse">
<stop stop-color="#FFC700"/>
<stop offset="1" stop-color="#FC9517"/>
</linearGradient>
</defs>
</svg>
