<svg width="229" height="340" viewBox="0 0 229 340" fill="none" xmlns="http://www.w3.org/2000/svg">
<path d="M186.816 131.801H61.3163C49.4163 131.801 39.7163 141.501 39.7163 153.401C39.7163 162.501 44.3163 171.001 52.0163 175.801L71.7163 188.301H176.416L196.116 175.801C203.816 170.901 208.416 162.501 208.416 153.401C208.416 141.501 198.816 131.801 186.816 131.801Z" fill="url(#paint0_linear)"/>
<path d="M148.917 120.801C148.917 130.201 141.317 137.801 131.917 137.801C122.517 137.801 114.917 130.201 114.917 120.801C114.917 111.401 122.517 103.801 131.917 103.801C141.317 103.801 148.917 111.401 148.917 120.801Z" fill="url(#paint1_linear)"/>
<path d="M178.416 209.901C191.416 202.401 195.116 177.001 195.216 176.501C194.916 174.101 194.916 171.601 194.916 168.901C194.916 156.701 182.616 148.101 169.716 148.101H77.1163C65.7163 148.101 55.3163 156.901 53.4163 168.901C50.5163 187.001 43.8163 186.001 33.7163 199.601L39.8163 209.901C39.7163 209.901 165.216 217.501 178.416 209.901Z" fill="url(#paint2_linear)"/>
<path d="M136.616 206.501C102.116 206.501 56.6164 204.101 43.7164 203.401L41.8164 200.201C43.7164 198.001 45.5164 196.201 47.2164 194.501C52.8164 189.001 57.7164 184.301 60.0164 170.001C61.4164 161.401 68.7164 154.901 77.0164 154.901H169.616C178.516 154.901 188.016 160.601 188.016 169.001C188.016 171.901 188.116 174.301 188.316 176.401C186.916 185.301 182.216 200.001 175.016 204.101C174.216 204.401 168.316 206.501 136.616 206.501Z" fill="url(#paint3_linear)"/>
<path d="M210.016 208.501C199.316 193.001 196.116 185.101 195.216 176.501C195.116 177.001 191.416 202.501 178.416 209.901C165.216 217.401 39.7163 209.901 39.7163 209.901L33.6163 199.601C33.1163 200.301 32.6163 201.001 32.0163 201.801C22.6163 215.501 20.6163 232.901 26.6163 248.401C33.1163 265.001 47.9163 276.901 65.4163 279.701L70.9163 280.601C106.116 286.201 141.916 286.201 177.016 280.601L182.516 279.701L195.016 310.901C217.316 280.101 225.516 231.101 210.016 208.501Z" fill="#411E09"/>
<path d="M129.914 187.089C159.85 187.089 184.117 162.822 184.117 132.886C184.117 102.95 159.85 78.6826 129.914 78.6826C99.9781 78.6826 75.7104 102.95 75.7104 132.886C75.7104 162.822 99.9781 187.089 129.914 187.089Z" fill="#341212"/>
<path d="M117.32 174.408C147.256 174.408 171.523 150.14 171.523 120.204C171.523 90.2686 147.256 66.001 117.32 66.001C87.3843 66.001 63.1167 90.2686 63.1167 120.204C63.1167 150.14 87.3843 174.408 117.32 174.408Z" fill="url(#paint4_linear)"/>
<path d="M128.35 118.728L128.61 118.989C129.479 119.858 129.305 121.421 128.263 122.116L120.271 126.894C120.098 126.981 119.837 127.154 119.75 127.415L109.587 140.705C108.805 141.747 109.24 143.311 110.456 143.745C112.714 144.614 114.886 145.048 117.057 145.048C121.314 145.048 125.396 143.398 129.305 140.01C132.345 137.404 134.778 134.277 136.602 130.542C137.036 129.673 137.992 129.239 138.86 129.5L142.856 130.542C143.812 130.803 144.42 131.671 144.333 132.627L142.943 151.997C142.856 153.04 141.987 153.822 140.945 153.822L91.9535 153.908C91.1718 153.908 90.4768 153.474 90.2162 152.779L85.873 144.093C85.5255 143.398 85.6125 142.529 86.1337 142.008L99.5107 125.417C100.119 124.635 100.119 123.506 99.4239 122.811C98.5552 121.856 98.7289 120.379 99.8582 119.684L107.328 115.514C107.589 115.428 107.763 115.254 107.937 114.993L119.75 100.4C120.706 99.2708 120.098 97.5335 118.621 97.1861C117.405 96.9255 116.189 96.8387 115.059 96.8387C111.151 96.8387 107.589 98.2285 104.288 101.182C101.769 103.353 99.8582 106.046 98.3815 109.26C97.9472 110.216 96.9048 110.65 95.9493 110.303L93.2565 109.347C92.4747 109.086 91.9535 108.305 91.9535 107.523L91.6061 89.8025C91.6061 88.6733 92.4748 87.8047 93.604 87.8047L144.506 88.1522C146.07 88.1522 147.025 89.9762 146.07 91.2792L128.263 116.296C127.568 116.904 127.655 118.033 128.35 118.728Z" fill="#2E5A56"/>
<path d="M192.728 79.0581C212.272 79.0581 228.117 63.2139 228.117 43.6692C228.117 24.1244 212.272 8.28027 192.728 8.28027C173.183 8.28027 157.339 24.1244 157.339 43.6692C157.339 63.2139 173.183 79.0581 192.728 79.0581Z" fill="#341212"/>
<path d="M184.506 70.7778C204.05 70.7778 219.894 54.9336 219.894 35.3888C219.894 15.8441 204.05 0 184.506 0C164.961 0 149.117 15.8441 149.117 35.3888C149.117 54.9336 164.961 70.7778 184.506 70.7778Z" fill="url(#paint5_linear)"/>
<path d="M191.707 34.4251L191.877 34.5953C192.444 35.1624 192.331 36.1832 191.65 36.637L186.433 39.7562C186.319 39.8129 186.149 39.9263 186.093 40.0964L179.457 48.7735C178.947 49.4541 179.23 50.4749 180.024 50.7585C181.499 51.3256 182.917 51.6092 184.334 51.6092C187.113 51.6092 189.779 50.5316 192.331 48.3198C194.316 46.6184 195.904 44.5768 197.095 42.1381C197.378 41.571 198.002 41.2874 198.569 41.4576L201.178 42.1381C201.802 42.3083 202.199 42.8754 202.142 43.4993L201.235 56.1462C201.178 56.8268 200.611 57.3372 199.93 57.3372L167.944 57.3939C167.434 57.3939 166.98 57.1103 166.81 56.6566L163.974 50.9853C163.748 50.5316 163.804 49.9645 164.145 49.6243L172.878 38.7921C173.275 38.2817 173.275 37.5444 172.822 37.0907C172.255 36.4668 172.368 35.5027 173.105 35.049L177.983 32.3268C178.153 32.2701 178.266 32.1567 178.38 31.9865L186.093 22.4587C186.716 21.7214 186.319 20.5872 185.355 20.3604C184.561 20.1902 183.767 20.1335 183.03 20.1335C180.478 20.1335 178.153 21.041 175.998 22.9692C174.353 24.387 173.105 26.1451 172.141 28.2435C171.858 28.8673 171.177 29.1508 170.553 28.924L168.795 28.3001C168.285 28.13 167.944 27.6196 167.944 27.1092L167.718 15.5397C167.718 14.8025 168.285 14.2354 169.022 14.2354L202.256 14.4623C203.277 14.4623 203.9 15.6531 203.277 16.5038L191.65 32.8372C191.197 33.2342 191.253 33.9714 191.707 34.4251Z" fill="#2E5A56"/>
<path d="M164.016 162.501H38.4164C26.5164 162.501 16.8164 172.201 16.8164 184.101C16.8164 193.201 21.4164 201.701 29.1164 206.501L48.8164 219.001H153.516L173.216 206.501C180.916 201.601 185.516 193.201 185.516 184.101C185.616 172.201 175.916 162.501 164.016 162.501Z" fill="url(#paint6_linear)"/>
<path fill-rule="evenodd" clip-rule="evenodd" d="M201.795 259.201H201.817V260.065C201.826 260.618 201.826 261.17 201.817 261.723V286.401C201.717 292.201 200.617 298.001 198.417 303.601C192.017 320.201 177.217 332.101 159.617 334.901L154.117 335.801C119.017 341.401 83.2169 341.401 48.0169 335.801L42.5169 334.901C25.0169 332.101 10.2169 320.201 3.71689 303.601C1.51689 298.101 0.416895 292.201 0.316895 286.401V261.78C0.306473 261.189 0.306483 260.599 0.316895 260.008V259.201H0.337632C0.655298 249.782 3.62151 240.509 9.11641 232.501C13.1222 226.674 16.624 223.248 19.6074 220.329C23.0161 216.994 25.748 214.321 27.7816 209.487C28.856 205.41 29.7355 201.277 30.4169 197.101C32.4169 185.101 42.7169 176.301 54.9169 176.301H147.517C159.717 176.301 170.117 185.101 172.017 197.101C172.787 201.82 173.81 206.485 175.081 211.075C177.023 214.945 179.509 217.378 182.525 220.329C185.509 223.248 189.011 226.674 193.016 232.501C198.511 240.509 201.478 249.782 201.795 259.201Z" fill="url(#paint7_linear)"/>
<path d="M103.73 163.524C110.369 156.885 110.369 146.121 103.73 139.482C97.0912 132.843 86.3275 132.843 79.6887 139.482C73.0498 146.121 73.0498 156.885 79.6887 163.524C86.3275 170.162 97.0912 170.162 103.73 163.524Z" fill="url(#paint8_linear)"/>
<path d="M46.7964 253.356C51.2821 253.356 54.8473 254.615 57.4922 257.133C60.1582 259.651 61.4912 263.1 61.4912 267.48C61.4912 272.664 59.8937 276.652 56.6987 279.445C53.5037 282.238 48.9334 283.635 42.9878 283.635C37.825 283.635 33.6567 282.799 30.4829 281.127V272.653C32.1545 273.542 34.1011 274.272 36.3228 274.843C38.5444 275.393 40.6497 275.668 42.6387 275.668C48.6266 275.668 51.6206 273.214 51.6206 268.305C51.6206 263.629 48.5208 261.291 42.3213 261.291C41.1999 261.291 39.9621 261.407 38.6079 261.64C37.2537 261.852 36.1535 262.084 35.3071 262.338L31.4033 260.244L33.1489 236.599H58.3174V244.914H41.75L40.8931 254.023L42.0039 253.801C43.2946 253.505 44.8921 253.356 46.7964 253.356ZM99.228 259.799C99.228 267.903 97.895 273.902 95.229 277.795C92.5841 281.688 88.5005 283.635 82.978 283.635C77.6248 283.635 73.5835 281.625 70.854 277.604C68.1457 273.584 66.7915 267.649 66.7915 259.799C66.7915 251.611 68.1139 245.581 70.7588 241.708C73.4036 237.815 77.4767 235.869 82.978 235.869C88.3312 235.869 92.3726 237.9 95.1021 241.962C97.8527 246.025 99.228 251.971 99.228 259.799ZM76.5352 259.799C76.5352 265.491 77.0218 269.575 77.9951 272.05C78.9896 274.505 80.6506 275.732 82.978 275.732C85.2632 275.732 86.9136 274.484 87.9292 271.987C88.9448 269.49 89.4526 265.428 89.4526 259.799C89.4526 254.108 88.9342 250.024 87.8975 247.548C86.8818 245.052 85.242 243.803 82.978 243.803C80.6717 243.803 79.0213 245.052 78.0269 247.548C77.0324 250.024 76.5352 254.108 76.5352 259.799ZM136.362 259.799C136.362 267.903 135.029 273.902 132.363 277.795C129.718 281.688 125.634 283.635 120.112 283.635C114.759 283.635 110.717 281.625 107.988 277.604C105.279 273.584 103.925 267.649 103.925 259.799C103.925 251.611 105.248 245.581 107.893 241.708C110.537 237.815 114.611 235.869 120.112 235.869C125.465 235.869 129.506 237.9 132.236 241.962C134.986 246.025 136.362 251.971 136.362 259.799ZM113.669 259.799C113.669 265.491 114.156 269.575 115.129 272.05C116.123 274.505 117.784 275.732 120.112 275.732C122.397 275.732 124.047 274.484 125.063 271.987C126.079 269.49 126.586 265.428 126.586 259.799C126.586 254.108 126.068 250.024 125.031 247.548C124.016 245.052 122.376 243.803 120.112 243.803C117.806 243.803 116.155 245.052 115.161 247.548C114.166 250.024 113.669 254.108 113.669 259.799ZM181.875 283H170.703L158.547 263.449L154.389 266.433V283H144.55V236.599H154.389V257.832L158.261 252.373L170.83 236.599H181.748L165.561 257.133L181.875 283Z" fill="url(#paint9_linear)"/>
<defs>
<linearGradient id="paint0_linear" x1="209.071" y1="136.168" x2="36.2611" y2="161.949" gradientUnits="userSpaceOnUse">
<stop stop-color="#FFE591"/>
<stop offset="0.3151" stop-color="#DDBC6E"/>
<stop offset="1" stop-color="#8B5917"/>
</linearGradient>
<linearGradient id="paint1_linear" x1="149.048" y1="106.429" x2="113.534" y2="108.203" gradientUnits="userSpaceOnUse">
<stop stop-color="#FFE591"/>
<stop offset="0.3151" stop-color="#DDBC6E"/>
<stop offset="1" stop-color="#8B5917"/>
</linearGradient>
<linearGradient id="paint2_linear" x1="114.466" y1="148.101" x2="114.466" y2="213.278" gradientUnits="userSpaceOnUse">
<stop stop-color="#8F5A2D"/>
<stop offset="1" stop-color="#351B06"/>
</linearGradient>
<linearGradient id="paint3_linear" x1="115.066" y1="154.901" x2="115.066" y2="206.501" gradientUnits="userSpaceOnUse">
<stop stop-color="#4E2D13"/>
<stop offset="1" stop-color="#351B06"/>
</linearGradient>
<linearGradient id="paint4_linear" x1="117.32" y1="66.001" x2="117.32" y2="174.408" gradientUnits="userSpaceOnUse">
<stop stop-color="#FFC700"/>
<stop offset="1" stop-color="#FC9517"/>
</linearGradient>
<linearGradient id="paint5_linear" x1="184.506" y1="0" x2="184.506" y2="70.7778" gradientUnits="userSpaceOnUse">
<stop stop-color="#FFC700"/>
<stop offset="1" stop-color="#FC9517"/>
</linearGradient>
<linearGradient id="paint6_linear" x1="186.172" y1="166.868" x2="13.3612" y2="192.649" gradientUnits="userSpaceOnUse">
<stop stop-color="#FFE591"/>
<stop offset="0.3151" stop-color="#DDBC6E"/>
<stop offset="1" stop-color="#8B5917"/>
</linearGradient>
<linearGradient id="paint7_linear" x1="101.066" y1="176.301" x2="101.066" y2="340.001" gradientUnits="userSpaceOnUse">
<stop stop-color="#8F5A2D"/>
<stop offset="1" stop-color="#351B06"/>
</linearGradient>
<linearGradient id="paint8_linear" x1="93.6609" y1="129.226" x2="69.8031" y2="155.594" gradientUnits="userSpaceOnUse">
<stop stop-color="#FFE591"/>
<stop offset="0.3151" stop-color="#DDBC6E"/>
<stop offset="1" stop-color="#8B5917"/>
</linearGradient>
<linearGradient id="paint9_linear" x1="104.809" y1="213" x2="104.809" y2="302" gradientUnits="userSpaceOnUse">
<stop stop-color="#FFC700"/>
<stop offset="1" stop-color="#FC9517"/>
</linearGradient>
</defs>
</svg>
