<svg width="180" height="193" viewBox="0 0 180 193" fill="none" xmlns="http://www.w3.org/2000/svg">
<path d="M113.3 0.268066C99.1999 0.268066 87.7 11.6681 87.7 25.8681C87.7 39.9681 99.0999 51.4681 113.3 51.4681C127.4 51.4681 138.9 40.0681 138.9 25.8681C138.8 11.7681 127.4 0.268066 113.3 0.268066ZM113.3 43.6681C103.5 43.6681 95.4999 35.6681 95.4999 25.8681C95.4999 16.0681 103.5 8.06807 113.3 8.06807C123.1 8.06807 131.1 16.0681 131.1 25.8681C131.1 35.6681 123.1 43.6681 113.3 43.6681Z" fill="#B30E38"/>
<path d="M143.089 60.9734L140.004 66.8079L148.844 71.4829L151.929 65.6485L143.089 60.9734Z" fill="#9C9B9B"/>
<path d="M147.6 67.7681C146 67.0681 144.7 66.0681 143.2 65.3681C142.6 65.0681 142 64.5681 141.6 64.0681L140.1 66.8681L149 71.5681L150.4 68.9681C149.4 68.4681 148.5 68.1681 147.6 67.7681Z" fill="#ECECEC"/>
<path d="M157.6 65.568C156.5 67.668 153.9 68.468 151.8 67.368L141.7 61.968C139.6 60.868 138.8 58.2681 139.9 56.1681C141 54.0681 143.6 53.268 145.7 54.368L155.8 59.768C158 60.968 158.8 63.568 157.6 65.568Z" fill="#B1B1B1"/>
<path d="M147.9 62.668C144.6 60.768 142 58.468 141 54.968C140.6 55.268 140.2 55.768 140 56.268C138.9 58.368 139.7 60.968 141.8 62.068L151.9 67.468C153.5 68.268 155.3 68.068 156.6 67.068C153.5 66.068 150.8 64.368 147.9 62.668Z" fill="#ECECEC"/>
<path d="M141.2 59.768C141.1 59.968 140.8 60.068 140.6 59.968C140.4 59.868 140.3 59.568 140.4 59.368L142.7 54.968C142.8 54.768 143.1 54.668 143.3 54.768C143.5 54.868 143.6 55.168 143.5 55.368L141.2 59.768Z" fill="#5E5E5E"/>
<path d="M142.6 60.4682C142.5 60.6682 142.2 60.7682 142 60.6682C141.8 60.5682 141.7 60.2682 141.8 60.0682L144.1 55.6682C144.2 55.4682 144.5 55.3682 144.7 55.4682C144.9 55.5682 145 55.8682 144.9 56.0682L142.6 60.4682Z" fill="#5E5E5E"/>
<path d="M143.9 61.1681C143.8 61.3681 143.5 61.4681 143.3 61.3681C143.1 61.2681 143 60.9681 143.1 60.7681L145.4 56.3681C145.5 56.1681 145.8 56.0681 146 56.1681C146.2 56.2681 146.3 56.5681 146.2 56.7681L143.9 61.1681Z" fill="#5E5E5E"/>
<path d="M145.3 61.8681C145.2 62.0681 144.9 62.1681 144.7 62.0681C144.5 61.9681 144.4 61.6681 144.5 61.4681L146.8 57.0681C146.9 56.8681 147.2 56.7681 147.4 56.8681C147.6 56.9681 147.7 57.2681 147.6 57.4681L145.3 61.8681Z" fill="#5E5E5E"/>
<path d="M146.7 62.6681C146.6 62.8681 146.3 62.9681 146.1 62.8681C145.9 62.7681 145.8 62.4681 145.9 62.2681L148.2 57.8681C148.3 57.6681 148.6 57.5681 148.8 57.6681C149 57.7681 149.1 58.0681 149 58.2681L146.7 62.6681Z" fill="#5E5E5E"/>
<path d="M148.1 63.3681C148 63.5681 147.7 63.6681 147.5 63.5681C147.3 63.4681 147.2 63.1681 147.3 62.9681L149.6 58.5681C149.7 58.3681 150 58.2681 150.2 58.3681C150.4 58.4681 150.5 58.7681 150.4 58.9681L148.1 63.3681Z" fill="#5E5E5E"/>
<path d="M149.4 64.068C149.3 64.268 149 64.368 148.8 64.268C148.6 64.168 148.5 63.868 148.6 63.668L150.9 59.268C151 59.068 151.3 58.968 151.5 59.068C151.7 59.168 151.8 59.468 151.7 59.668L149.4 64.068Z" fill="#5E5E5E"/>
<path d="M150.8 64.768C150.7 64.968 150.4 65.068 150.2 64.968C150 64.868 149.9 64.568 150 64.368L152.3 59.968C152.4 59.768 152.7 59.668 152.9 59.768C153.1 59.868 153.2 60.168 153.1 60.368L150.8 64.768Z" fill="#5E5E5E"/>
<path d="M152.2 65.568C152.1 65.768 151.8 65.868 151.6 65.768C151.4 65.668 151.3 65.368 151.4 65.168L153.7 60.768C153.8 60.568 154.1 60.468 154.3 60.568C154.5 60.668 154.6 60.968 154.5 61.168L152.2 65.568Z" fill="#5E5E5E"/>
<path d="M153.6 66.268C153.5 66.468 153.2 66.568 153 66.468C152.8 66.368 152.7 66.068 152.8 65.868L155.1 61.468C155.2 61.268 155.5 61.168 155.7 61.268C155.9 61.368 156 61.668 155.9 61.868L153.6 66.268Z" fill="#5E5E5E"/>
<path d="M154.9 66.9682C154.8 67.1682 154.5 67.2682 154.3 67.1682C154.1 67.0682 154 66.7682 154.1 66.5682L156.4 62.1682C156.5 61.9682 156.8 61.8682 157 61.9682C157.2 62.0682 157.3 62.3682 157.2 62.5682L154.9 66.9682Z" fill="#5E5E5E"/>
<path d="M83.4562 60.928L74.6162 65.6021L77.701 71.4365L86.541 66.7624L83.4562 60.928Z" fill="#9C9B9B"/>
<path d="M85.4999 66.3682C83.7999 67.1682 82.7999 67.5682 80.8999 67.6682C78.6999 67.7682 76.9999 66.7682 75.3999 65.4682L75.2999 65.3682L74.7 65.6682L77.7999 71.5682L86.7 66.8682L86.2999 66.0682C85.9 66.0682 85.6999 66.2682 85.4999 66.3682Z" fill="#ECECEC"/>
<path d="M68.9999 65.568C70.0999 67.668 72.6999 68.468 74.7999 67.368L84.8999 61.968C86.9999 60.868 87.7999 58.2681 86.6999 56.1681C85.5999 54.0681 82.9999 53.268 80.8999 54.368L70.7999 59.768C68.6999 60.968 67.8999 63.568 68.9999 65.568Z" fill="#B1B1B1"/>
<path d="M68.9 61.8682C68.4 63.0682 68.3 64.4682 69 65.6682C70.1 67.7682 72.7 68.5682 74.8 67.4682L84.9 62.0682C86.6 61.1682 87.5 59.2682 87.1 57.3682C81.8 61.7682 75.2 65.2682 68.9 61.8682Z" fill="#ECECEC"/>
<path d="M85.4999 59.768C85.5999 59.968 85.8999 60.068 86.0999 59.968C86.2999 59.868 86.3999 59.568 86.2999 59.368L83.9999 54.968C83.8999 54.768 83.5999 54.668 83.3999 54.768C83.1999 54.868 83.0999 55.168 83.1999 55.368L85.4999 59.768Z" fill="#5E5E5E"/>
<path d="M84.1 60.4682C84.2 60.6682 84.5 60.7682 84.7 60.6682C84.9 60.5682 85 60.2682 84.9 60.0682L82.6 55.6682C82.5 55.4682 82.2 55.3682 82 55.4682C81.8 55.5682 81.7 55.8682 81.8 56.0682L84.1 60.4682Z" fill="#5E5E5E"/>
<path d="M82.6998 61.1681C82.7998 61.3681 83.0998 61.4681 83.2998 61.3681C83.4998 61.2681 83.5998 60.9681 83.4998 60.7681L81.1998 56.3681C81.0998 56.1681 80.7998 56.0681 80.5998 56.1681C80.3998 56.2681 80.2998 56.5681 80.3998 56.7681L82.6998 61.1681Z" fill="#5E5E5E"/>
<path d="M81.3998 61.8681C81.4998 62.0681 81.7998 62.1681 81.9998 62.0681C82.1998 61.9681 82.2998 61.6681 82.1998 61.4681L79.8998 57.0681C79.7998 56.8681 79.4998 56.7681 79.2998 56.8681C79.0998 56.9681 78.9998 57.2681 79.0998 57.4681L81.3998 61.8681Z" fill="#5E5E5E"/>
<path d="M79.9999 62.6681C80.0999 62.8681 80.3999 62.9681 80.5999 62.8681C80.7999 62.7681 80.8999 62.4681 80.7999 62.2681L78.4999 57.8681C78.3999 57.6681 78.0999 57.5681 77.8999 57.6681C77.6999 57.7681 77.5999 58.0681 77.6999 58.2681L79.9999 62.6681Z" fill="#5E5E5E"/>
<path d="M78.6 63.3681C78.7 63.5681 79 63.6681 79.2 63.5681C79.4 63.4681 79.5 63.1681 79.4 62.9681L77.1 58.5681C77 58.3681 76.7 58.2681 76.5 58.3681C76.3 58.4681 76.2 58.7681 76.3 58.9681L78.6 63.3681Z" fill="#5E5E5E"/>
<path d="M77.1998 64.068C77.2998 64.268 77.5998 64.368 77.7998 64.268C77.9998 64.168 78.0998 63.868 77.9998 63.668L75.6998 59.268C75.5998 59.068 75.2998 58.968 75.0998 59.068C74.8998 59.168 74.7998 59.468 74.8998 59.668L77.1998 64.068Z" fill="#5E5E5E"/>
<path d="M75.7999 64.768C75.8999 64.968 76.1999 65.068 76.3999 64.968C76.5999 64.868 76.6999 64.568 76.5999 64.368L74.2999 59.968C74.1999 59.768 73.8999 59.668 73.6999 59.768C73.4999 59.868 73.3999 60.168 73.4999 60.368L75.7999 64.768Z" fill="#5E5E5E"/>
<path d="M74.4999 65.568C74.5999 65.768 74.8999 65.868 75.0999 65.768C75.2999 65.668 75.3999 65.368 75.2999 65.168L72.9999 60.768C72.8999 60.568 72.5999 60.468 72.3999 60.568C72.1999 60.668 72.0999 60.968 72.1999 61.168L74.4999 65.568Z" fill="#5E5E5E"/>
<path d="M73.1 66.268C73.2 66.468 73.5 66.568 73.7 66.468C73.9 66.368 74 66.068 73.9 65.868L71.6 61.468C71.5 61.268 71.2 61.168 71 61.268C70.8 61.368 70.7 61.668 70.8 61.868L73.1 66.268Z" fill="#5E5E5E"/>
<path d="M71.6998 66.9682C71.7998 67.1682 72.0998 67.2682 72.2998 67.1682C72.4998 67.0682 72.5998 66.7682 72.4998 66.5682L70.1998 62.1682C70.0998 61.9682 69.7998 61.8682 69.5998 61.9682C69.3998 62.0682 69.2998 62.3682 69.3998 62.5682L71.6998 66.9682Z" fill="#5E5E5E"/>
<path d="M122.3 50.8682H104.3V62.7682H122.3V50.8682Z" fill="#9C9B9B"/>
<path d="M109.3 50.8682H104.3V62.7682H109.3V50.8682Z" fill="#ECECEC"/>
<path d="M179.2 126.568C179.2 162.968 149.7 192.468 113.3 192.468C76.8999 192.468 47.3999 162.968 47.3999 126.568C47.3999 90.168 76.8999 60.668 113.3 60.668C149.7 60.668 179.2 90.168 179.2 126.568Z" fill="url(#paint0_linear)"/>
<path opacity="0.5" d="M97.8 67.568C97.2 67.768 96.6 67.868 96 68.068C128.4 60.668 161.1 80.368 169.5 112.768C177.9 145.168 159 178.268 127.1 187.568C127.7 187.468 128.3 187.268 128.9 187.168C161.9 178.568 181.7 144.868 173.2 111.768C164.6 78.768 130.8 58.968 97.8 67.568Z" fill="white"/>
<path d="M168.8 126.568C168.8 157.268 144 182.068 113.3 182.068C82.5998 182.068 57.7998 157.168 57.7998 126.568C57.7998 95.8681 82.6998 71.0681 113.3 71.0681C143.9 71.0681 168.8 95.8681 168.8 126.568Z" fill="#6F6F6E"/>
<path d="M165.8 126.568C165.8 155.568 142.3 179.068 113.3 179.068C84.2998 179.068 60.7998 155.568 60.7998 126.568C60.7998 97.5681 84.2998 74.0681 113.3 74.0681C142.3 74.0681 165.8 97.5681 165.8 126.568Z" fill="white"/>
<path d="M116.2 161.668H110.3V175.068H116.2V161.668Z" fill="#EA69FF"/>
<path d="M116.2 78.0681H110.3V91.4681H116.2V78.0681Z" fill="#EA69FF"/>
<path d="M161.8 123.568H148.4V129.468H161.8V123.568Z" fill="#EA69FF"/>
<path d="M78.1998 123.568H64.7998V129.468H78.1998V123.568Z" fill="#EA69FF"/>
<path d="M90.0188 83.9739L86.5908 86.0352L92.0014 95.0337L95.4294 92.9725L90.0188 83.9739Z" fill="#B1B1B1"/>
<path d="M134.549 157.998L131.123 160.062L136.541 169.056L139.968 166.992L134.549 157.998Z" fill="#B1B1B1"/>
<path d="M71.4204 102.067L69.5481 105.602L78.9152 110.564L80.7876 107.029L71.4204 102.067Z" fill="#B1B1B1"/>
<path d="M147.809 142.566L145.933 146.098L155.206 151.024L157.083 147.491L147.809 142.566Z" fill="#B1B1B1"/>
<path d="M136.585 84.0374L131.175 93.0359L134.603 95.0971L140.013 86.0986L136.585 84.0374Z" fill="#B1B1B1"/>
<path d="M91.9656 158.081L86.5454 167.074L89.9714 169.139L95.3917 160.146L91.9656 158.081Z" fill="#B1B1B1"/>
<path d="M155.241 102.006L145.875 106.972L147.75 110.506L157.115 105.54L155.241 102.006Z" fill="#B1B1B1"/>
<path d="M78.7214 142.553L69.4468 147.475L71.3216 151.008L80.5962 146.086L78.7214 142.553Z" fill="#B1B1B1"/>
<path d="M131.2 46.168C131.2 50.368 127.8 53.868 123.5 53.868H103C98.7998 53.868 95.2998 50.468 95.2998 46.168C95.2998 41.968 98.6998 38.468 103 38.468H123.6C127.8 38.468 131.2 41.868 131.2 46.168Z" fill="#B1B1B1"/>
<path d="M111.4 48.8681C105.3 47.6681 100.3 45.7681 99.0999 39.5681C96.8999 40.8681 95.3999 43.3681 95.3999 46.1681C95.3999 50.3681 98.7999 53.8681 103.1 53.8681H123.7C127 53.8681 129.8 51.7681 130.9 48.8681C124.4 50.7681 117.8 50.1681 111.4 48.8681Z" fill="#ECECEC"/>
<path d="M100.2 50.5682C100.2 51.0682 99.7999 51.3682 99.3999 51.3682C98.8999 51.3682 98.5999 50.9682 98.5999 50.5682V41.6682C98.5999 41.1682 98.9999 40.8682 99.3999 40.8682C99.8999 40.8682 100.2 41.2682 100.2 41.6682V50.5682Z" fill="#5E5E5E"/>
<path d="M103 50.5682C103 51.0682 102.6 51.3682 102.2 51.3682C101.7 51.3682 101.4 50.9682 101.4 50.5682V41.6682C101.4 41.1682 101.8 40.8682 102.2 40.8682C102.7 40.8682 103 41.2682 103 41.6682V50.5682Z" fill="#5E5E5E"/>
<path d="M105.7 50.5682C105.7 51.0682 105.3 51.3682 104.9 51.3682C104.4 51.3682 104.1 50.9682 104.1 50.5682V41.6682C104.1 41.1682 104.5 40.8682 104.9 40.8682C105.4 40.8682 105.7 41.2682 105.7 41.6682V50.5682Z" fill="#5E5E5E"/>
<path d="M108.5 50.5682C108.5 51.0682 108.1 51.3682 107.7 51.3682C107.2 51.3682 106.9 50.9682 106.9 50.5682V41.6682C106.9 41.1682 107.3 40.8682 107.7 40.8682C108.2 40.8682 108.5 41.2682 108.5 41.6682V50.5682Z" fill="#5E5E5E"/>
<path d="M111.3 50.5682C111.3 51.0682 110.9 51.3682 110.5 51.3682C110 51.3682 109.7 50.9682 109.7 50.5682V41.6682C109.7 41.1682 110.1 40.8682 110.5 40.8682C111 40.8682 111.3 41.2682 111.3 41.6682V50.5682Z" fill="#5E5E5E"/>
<path d="M114.1 50.5682C114.1 51.0682 113.7 51.3682 113.3 51.3682C112.8 51.3682 112.5 50.9682 112.5 50.5682V41.6682C112.5 41.1682 112.9 40.8682 113.3 40.8682C113.8 40.8682 114.1 41.2682 114.1 41.6682V50.5682Z" fill="#5E5E5E"/>
<path d="M116.9 50.5682C116.9 51.0682 116.5 51.3682 116.1 51.3682C115.6 51.3682 115.3 50.9682 115.3 50.5682V41.6682C115.3 41.1682 115.7 40.8682 116.1 40.8682C116.6 40.8682 116.9 41.2682 116.9 41.6682V50.5682Z" fill="#5E5E5E"/>
<path d="M119.7 50.5682C119.7 51.0682 119.3 51.3682 118.9 51.3682C118.4 51.3682 118.1 50.9682 118.1 50.5682V41.6682C118.1 41.1682 118.5 40.8682 118.9 40.8682C119.4 40.8682 119.7 41.2682 119.7 41.6682V50.5682Z" fill="#5E5E5E"/>
<path d="M122.5 50.5682C122.5 51.0682 122.1 51.3682 121.7 51.3682C121.2 51.3682 120.9 50.9682 120.9 50.5682V41.6682C120.9 41.1682 121.3 40.8682 121.7 40.8682C122.2 40.8682 122.5 41.2682 122.5 41.6682V50.5682Z" fill="#5E5E5E"/>
<path d="M125.3 50.5682C125.3 51.0682 124.9 51.3682 124.5 51.3682C124 51.3682 123.7 50.9682 123.7 50.5682V41.6682C123.7 41.1682 124.1 40.8682 124.5 40.8682C125 40.8682 125.3 41.2682 125.3 41.6682V50.5682Z" fill="#5E5E5E"/>
<path d="M128.1 50.5682C128.1 51.0682 127.7 51.3682 127.3 51.3682C126.8 51.3682 126.5 50.9682 126.5 50.5682V41.6682C126.5 41.1682 126.9 40.8682 127.3 40.8682C127.8 40.8682 128.1 41.2682 128.1 41.6682V50.5682Z" fill="#5E5E5E"/>
<path d="M25.5823 126.655H0.399902" stroke="white" stroke-width="10" stroke-miterlimit="10"/>
<path d="M36.5038 93.5838L17.3894 83.2681" stroke="white" stroke-width="10" stroke-miterlimit="10"/>
<path d="M34.6839 157.906L16.4797 174.897" stroke="white" stroke-width="10" stroke-miterlimit="10"/>
<path d="M105.989 141.268H99.1992V122.679L99.2651 119.625L99.375 116.285C98.2471 117.413 97.4634 118.153 97.0239 118.504L93.3325 121.471L90.0586 117.384L100.408 109.144H105.989V141.268ZM137.19 125.206C137.19 130.816 136.267 134.969 134.421 137.665C132.59 140.36 129.763 141.708 125.94 141.708C122.234 141.708 119.436 140.316 117.546 137.533C115.671 134.75 114.734 130.641 114.734 125.206C114.734 119.537 115.649 115.362 117.48 112.682C119.312 109.986 122.131 108.639 125.94 108.639C129.646 108.639 132.444 110.045 134.333 112.857C136.238 115.67 137.19 119.786 137.19 125.206ZM121.479 125.206C121.479 129.146 121.816 131.974 122.49 133.688C123.179 135.387 124.329 136.236 125.94 136.236C127.522 136.236 128.665 135.372 129.368 133.644C130.071 131.915 130.422 129.103 130.422 125.206C130.422 121.266 130.063 118.438 129.346 116.725C128.643 114.996 127.507 114.132 125.94 114.132C124.343 114.132 123.201 114.996 122.512 116.725C121.824 118.438 121.479 121.266 121.479 125.206Z" fill="#EA69FF"/>
<defs>
<linearGradient id="paint0_linear" x1="113.3" y1="60.668" x2="113.3" y2="192.468" gradientUnits="userSpaceOnUse">
<stop stop-color="#FF8BB3"/>
<stop offset="1" stop-color="#AF0732"/>
</linearGradient>
</defs>
</svg>
