<svg width="180" height="193" viewBox="0 0 180 193" fill="none" xmlns="http://www.w3.org/2000/svg">
<path d="M113.5 0.268066C99.4001 0.268066 87.9001 11.6681 87.9001 25.8681C87.9001 39.9681 99.3001 51.4681 113.5 51.4681C127.6 51.4681 139.1 40.0681 139.1 25.8681C139 11.7681 127.6 0.268066 113.5 0.268066ZM113.5 43.6681C103.7 43.6681 95.7001 35.6681 95.7001 25.8681C95.7001 16.0681 103.7 8.06807 113.5 8.06807C123.3 8.06807 131.3 16.0681 131.3 25.8681C131.3 35.6681 123.3 43.6681 113.5 43.6681Z" fill="#B30E38"/>
<path d="M143.289 60.9734L140.204 66.8079L149.044 71.4829L152.129 65.6485L143.289 60.9734Z" fill="#9C9B9B"/>
<path d="M147.8 67.7681C146.2 67.0681 144.9 66.0681 143.4 65.3681C142.8 65.0681 142.2 64.5681 141.8 64.0681L140.3 66.8681L149.2 71.5681L150.6 68.9681C149.6 68.4681 148.7 68.1681 147.8 67.7681Z" fill="#ECECEC"/>
<path d="M157.8 65.568C156.7 67.668 154.1 68.468 152 67.368L141.9 61.968C139.8 60.868 139 58.2681 140.1 56.1681C141.2 54.0681 143.8 53.268 145.9 54.368L156 59.768C158.2 60.968 159 63.568 157.8 65.568Z" fill="#B1B1B1"/>
<path d="M148.1 62.668C144.8 60.768 142.2 58.468 141.2 54.968C140.8 55.268 140.4 55.768 140.2 56.268C139.1 58.368 139.9 60.968 142 62.068L152.1 67.468C153.7 68.268 155.5 68.068 156.8 67.068C153.7 66.068 151 64.368 148.1 62.668Z" fill="#ECECEC"/>
<path d="M141.4 59.768C141.3 59.968 141 60.068 140.8 59.968C140.6 59.868 140.5 59.568 140.6 59.368L142.9 54.968C143 54.768 143.3 54.668 143.5 54.768C143.7 54.868 143.8 55.168 143.7 55.368L141.4 59.768Z" fill="#5E5E5E"/>
<path d="M142.8 60.4682C142.7 60.6682 142.4 60.7682 142.2 60.6682C142 60.5682 141.9 60.2682 142 60.0682L144.3 55.6682C144.4 55.4682 144.7 55.3682 144.9 55.4682C145.1 55.5682 145.2 55.8682 145.1 56.0682L142.8 60.4682Z" fill="#5E5E5E"/>
<path d="M144.1 61.1681C144 61.3681 143.7 61.4681 143.5 61.3681C143.3 61.2681 143.2 60.9681 143.3 60.7681L145.6 56.3681C145.7 56.1681 146 56.0681 146.2 56.1681C146.4 56.2681 146.5 56.5681 146.4 56.7681L144.1 61.1681Z" fill="#5E5E5E"/>
<path d="M145.5 61.8681C145.4 62.0681 145.1 62.1681 144.9 62.0681C144.7 61.9681 144.6 61.6681 144.7 61.4681L147 57.0681C147.1 56.8681 147.4 56.7681 147.6 56.8681C147.8 56.9681 147.9 57.2681 147.8 57.4681L145.5 61.8681Z" fill="#5E5E5E"/>
<path d="M146.9 62.6681C146.8 62.8681 146.5 62.9681 146.3 62.8681C146.1 62.7681 146 62.4681 146.1 62.2681L148.4 57.8681C148.5 57.6681 148.8 57.5681 149 57.6681C149.2 57.7681 149.3 58.0681 149.2 58.2681L146.9 62.6681Z" fill="#5E5E5E"/>
<path d="M148.3 63.3681C148.2 63.5681 147.9 63.6681 147.7 63.5681C147.5 63.4681 147.4 63.1681 147.5 62.9681L149.8 58.5681C149.9 58.3681 150.2 58.2681 150.4 58.3681C150.6 58.4681 150.7 58.7681 150.6 58.9681L148.3 63.3681Z" fill="#5E5E5E"/>
<path d="M149.6 64.068C149.5 64.268 149.2 64.368 149 64.268C148.8 64.168 148.7 63.868 148.8 63.668L151.1 59.268C151.2 59.068 151.5 58.968 151.7 59.068C151.9 59.168 152 59.468 151.9 59.668L149.6 64.068Z" fill="#5E5E5E"/>
<path d="M151 64.768C150.9 64.968 150.6 65.068 150.4 64.968C150.2 64.868 150.1 64.568 150.2 64.368L152.5 59.968C152.6 59.768 152.9 59.668 153.1 59.768C153.3 59.868 153.4 60.168 153.3 60.368L151 64.768Z" fill="#5E5E5E"/>
<path d="M152.4 65.568C152.3 65.768 152 65.868 151.8 65.768C151.6 65.668 151.5 65.368 151.6 65.168L153.9 60.768C154 60.568 154.3 60.468 154.5 60.568C154.7 60.668 154.8 60.968 154.7 61.168L152.4 65.568Z" fill="#5E5E5E"/>
<path d="M153.8 66.268C153.7 66.468 153.4 66.568 153.2 66.468C153 66.368 152.9 66.068 153 65.868L155.3 61.468C155.4 61.268 155.7 61.168 155.9 61.268C156.1 61.368 156.2 61.668 156.1 61.868L153.8 66.268Z" fill="#5E5E5E"/>
<path d="M155.1 66.9682C155 67.1682 154.7 67.2682 154.5 67.1682C154.3 67.0682 154.2 66.7682 154.3 66.5682L156.6 62.1682C156.7 61.9682 157 61.8682 157.2 61.9682C157.4 62.0682 157.5 62.3682 157.4 62.5682L155.1 66.9682Z" fill="#5E5E5E"/>
<path d="M83.6564 60.928L74.8164 65.6021L77.9012 71.4365L86.7411 66.7624L83.6564 60.928Z" fill="#9C9B9B"/>
<path d="M85.7001 66.3682C84.0001 67.1682 83.0001 67.5682 81.1001 67.6682C78.9001 67.7682 77.2001 66.7682 75.6001 65.4682L75.5001 65.3682L74.9001 65.6682L78.0001 71.5682L86.9001 66.8682L86.5001 66.0682C86.1001 66.0682 85.9001 66.2682 85.7001 66.3682Z" fill="#ECECEC"/>
<path d="M69.2001 65.568C70.3001 67.668 72.9001 68.468 75.0001 67.368L85.1001 61.968C87.2001 60.868 88.0001 58.2681 86.9001 56.1681C85.8001 54.0681 83.2001 53.268 81.1001 54.368L71.0001 59.768C68.9001 60.968 68.1001 63.568 69.2001 65.568Z" fill="#B1B1B1"/>
<path d="M69.1002 61.8682C68.6002 63.0682 68.5002 64.4682 69.2002 65.6682C70.3002 67.7682 72.9002 68.5682 75.0002 67.4682L85.1002 62.0682C86.8002 61.1682 87.7002 59.2682 87.3002 57.3682C82.0002 61.7682 75.4002 65.2682 69.1002 61.8682Z" fill="#ECECEC"/>
<path d="M85.7001 59.768C85.8001 59.968 86.1001 60.068 86.3001 59.968C86.5001 59.868 86.6001 59.568 86.5001 59.368L84.2001 54.968C84.1001 54.768 83.8001 54.668 83.6001 54.768C83.4001 54.868 83.3001 55.168 83.4001 55.368L85.7001 59.768Z" fill="#5E5E5E"/>
<path d="M84.3002 60.4682C84.4002 60.6682 84.7002 60.7682 84.9002 60.6682C85.1002 60.5682 85.2002 60.2682 85.1002 60.0682L82.8002 55.6682C82.7002 55.4682 82.4002 55.3682 82.2002 55.4682C82.0002 55.5682 81.9002 55.8682 82.0002 56.0682L84.3002 60.4682Z" fill="#5E5E5E"/>
<path d="M82.9 61.1681C83 61.3681 83.3 61.4681 83.5 61.3681C83.7 61.2681 83.8 60.9681 83.7 60.7681L81.4 56.3681C81.3 56.1681 81 56.0681 80.8 56.1681C80.6 56.2681 80.5 56.5681 80.6 56.7681L82.9 61.1681Z" fill="#5E5E5E"/>
<path d="M81.6 61.8681C81.7 62.0681 82 62.1681 82.2 62.0681C82.4 61.9681 82.5 61.6681 82.4 61.4681L80.1 57.0681C80 56.8681 79.7 56.7681 79.5 56.8681C79.3 56.9681 79.2 57.2681 79.3 57.4681L81.6 61.8681Z" fill="#5E5E5E"/>
<path d="M80.2001 62.6681C80.3001 62.8681 80.6001 62.9681 80.8001 62.8681C81.0001 62.7681 81.1001 62.4681 81.0001 62.2681L78.7001 57.8681C78.6001 57.6681 78.3001 57.5681 78.1001 57.6681C77.9001 57.7681 77.8001 58.0681 77.9001 58.2681L80.2001 62.6681Z" fill="#5E5E5E"/>
<path d="M78.8002 63.3681C78.9002 63.5681 79.2002 63.6681 79.4002 63.5681C79.6002 63.4681 79.7002 63.1681 79.6002 62.9681L77.3002 58.5681C77.2002 58.3681 76.9002 58.2681 76.7002 58.3681C76.5002 58.4681 76.4002 58.7681 76.5002 58.9681L78.8002 63.3681Z" fill="#5E5E5E"/>
<path d="M77.4 64.068C77.5 64.268 77.8 64.368 78 64.268C78.2 64.168 78.3 63.868 78.2 63.668L75.9 59.268C75.8 59.068 75.5 58.968 75.3 59.068C75.1 59.168 75 59.468 75.1 59.668L77.4 64.068Z" fill="#5E5E5E"/>
<path d="M75.9999 64.768C76.0999 64.968 76.3999 65.068 76.5999 64.968C76.7999 64.868 76.8999 64.568 76.7999 64.368L74.4999 59.968C74.3999 59.768 74.0999 59.668 73.8999 59.768C73.6999 59.868 73.5999 60.168 73.6999 60.368L75.9999 64.768Z" fill="#5E5E5E"/>
<path d="M74.7001 65.568C74.8001 65.768 75.1001 65.868 75.3001 65.768C75.5001 65.668 75.6001 65.368 75.5001 65.168L73.2001 60.768C73.1001 60.568 72.8001 60.468 72.6001 60.568C72.4001 60.668 72.3001 60.968 72.4001 61.168L74.7001 65.568Z" fill="#5E5E5E"/>
<path d="M73.3002 66.268C73.4002 66.468 73.7002 66.568 73.9002 66.468C74.1002 66.368 74.2002 66.068 74.1002 65.868L71.8002 61.468C71.7002 61.268 71.4002 61.168 71.2002 61.268C71.0002 61.368 70.9002 61.668 71.0002 61.868L73.3002 66.268Z" fill="#5E5E5E"/>
<path d="M71.9 66.9682C72 67.1682 72.3 67.2682 72.5 67.1682C72.7 67.0682 72.8 66.7682 72.7 66.5682L70.4 62.1682C70.3 61.9682 70 61.8682 69.8 61.9682C69.6 62.0682 69.5 62.3682 69.6 62.5682L71.9 66.9682Z" fill="#5E5E5E"/>
<path d="M122.5 50.8682H104.5V62.7682H122.5V50.8682Z" fill="#9C9B9B"/>
<path d="M109.5 50.8682H104.5V62.7682H109.5V50.8682Z" fill="#ECECEC"/>
<path d="M179.4 126.568C179.4 162.968 149.9 192.468 113.5 192.468C77.1001 192.468 47.6001 162.968 47.6001 126.568C47.6001 90.168 77.1001 60.668 113.5 60.668C149.9 60.668 179.4 90.168 179.4 126.568Z" fill="url(#paint0_linear)"/>
<path opacity="0.5" d="M98.0002 67.568C97.4002 67.768 96.8002 67.868 96.2002 68.068C128.6 60.668 161.3 80.368 169.7 112.768C178.1 145.168 159.2 178.268 127.3 187.568C127.9 187.468 128.5 187.268 129.1 187.168C162.1 178.568 181.9 144.868 173.4 111.768C164.8 78.768 131 58.968 98.0002 67.568Z" fill="white"/>
<path d="M169 126.568C169 157.268 144.2 182.068 113.5 182.068C82.8 182.068 58 157.168 58 126.568C58 95.8681 82.9 71.0681 113.5 71.0681C144.1 71.0681 169 95.8681 169 126.568Z" fill="#6F6F6E"/>
<path d="M166 126.568C166 155.568 142.5 179.068 113.5 179.068C84.5 179.068 61 155.568 61 126.568C61 97.5681 84.5 74.0681 113.5 74.0681C142.5 74.0681 166 97.5681 166 126.568Z" fill="white"/>
<path d="M116.4 161.668H110.5V175.068H116.4V161.668Z" fill="#EA69FF"/>
<path d="M116.4 78.0681H110.5V91.4681H116.4V78.0681Z" fill="#EA69FF"/>
<path d="M162 123.568H148.6V129.468H162V123.568Z" fill="#EA69FF"/>
<path d="M78.4 123.568H65V129.468H78.4V123.568Z" fill="#EA69FF"/>
<path d="M90.219 83.9739L86.791 86.0352L92.2016 95.0337L95.6296 92.9725L90.219 83.9739Z" fill="#B1B1B1"/>
<path d="M134.75 157.998L131.323 160.062L136.741 169.056L140.168 166.992L134.75 157.998Z" fill="#B1B1B1"/>
<path d="M71.6206 102.067L69.7483 105.602L79.1154 110.564L80.9878 107.029L71.6206 102.067Z" fill="#B1B1B1"/>
<path d="M148.009 142.566L146.133 146.098L155.406 151.024L157.282 147.491L148.009 142.566Z" fill="#B1B1B1"/>
<path d="M136.785 84.0373L131.375 93.0359L134.803 95.0971L140.213 86.0986L136.785 84.0373Z" fill="#B1B1B1"/>
<path d="M92.1661 158.081L86.7458 167.074L90.1719 169.139L95.5922 160.146L92.1661 158.081Z" fill="#B1B1B1"/>
<path d="M155.441 102.006L146.076 106.972L147.95 110.506L157.315 105.54L155.441 102.006Z" fill="#B1B1B1"/>
<path d="M78.9216 142.553L69.647 147.475L71.5218 151.008L80.7964 146.086L78.9216 142.553Z" fill="#B1B1B1"/>
<path d="M131.4 46.168C131.4 50.368 128 53.868 123.7 53.868H103.2C99 53.868 95.5 50.468 95.5 46.168C95.5 41.968 98.9 38.468 103.2 38.468H123.8C128 38.468 131.4 41.868 131.4 46.168Z" fill="#B1B1B1"/>
<path d="M111.6 48.8681C105.5 47.6681 100.5 45.7681 99.3001 39.5681C97.1001 40.8681 95.6001 43.3681 95.6001 46.1681C95.6001 50.3681 99.0001 53.8681 103.3 53.8681H123.9C127.2 53.8681 130 51.7681 131.1 48.8681C124.6 50.7681 118 50.1681 111.6 48.8681Z" fill="#ECECEC"/>
<path d="M100.4 50.5682C100.4 51.0682 100 51.3682 99.6001 51.3682C99.1001 51.3682 98.8 50.9682 98.8 50.5682V41.6682C98.8 41.1682 99.2001 40.8682 99.6001 40.8682C100.1 40.8682 100.4 41.2682 100.4 41.6682V50.5682Z" fill="#5E5E5E"/>
<path d="M103.2 50.5682C103.2 51.0682 102.8 51.3682 102.4 51.3682C101.9 51.3682 101.6 50.9682 101.6 50.5682V41.6682C101.6 41.1682 102 40.8682 102.4 40.8682C102.9 40.8682 103.2 41.2682 103.2 41.6682V50.5682Z" fill="#5E5E5E"/>
<path d="M105.9 50.5682C105.9 51.0682 105.5 51.3682 105.1 51.3682C104.6 51.3682 104.3 50.9682 104.3 50.5682V41.6682C104.3 41.1682 104.7 40.8682 105.1 40.8682C105.6 40.8682 105.9 41.2682 105.9 41.6682V50.5682Z" fill="#5E5E5E"/>
<path d="M108.7 50.5682C108.7 51.0682 108.3 51.3682 107.9 51.3682C107.4 51.3682 107.1 50.9682 107.1 50.5682V41.6682C107.1 41.1682 107.5 40.8682 107.9 40.8682C108.4 40.8682 108.7 41.2682 108.7 41.6682V50.5682Z" fill="#5E5E5E"/>
<path d="M111.5 50.5682C111.5 51.0682 111.1 51.3682 110.7 51.3682C110.2 51.3682 109.9 50.9682 109.9 50.5682V41.6682C109.9 41.1682 110.3 40.8682 110.7 40.8682C111.2 40.8682 111.5 41.2682 111.5 41.6682V50.5682Z" fill="#5E5E5E"/>
<path d="M114.3 50.5682C114.3 51.0682 113.9 51.3682 113.5 51.3682C113 51.3682 112.7 50.9682 112.7 50.5682V41.6682C112.7 41.1682 113.1 40.8682 113.5 40.8682C114 40.8682 114.3 41.2682 114.3 41.6682V50.5682Z" fill="#5E5E5E"/>
<path d="M117.1 50.5682C117.1 51.0682 116.7 51.3682 116.3 51.3682C115.8 51.3682 115.5 50.9682 115.5 50.5682V41.6682C115.5 41.1682 115.9 40.8682 116.3 40.8682C116.8 40.8682 117.1 41.2682 117.1 41.6682V50.5682Z" fill="#5E5E5E"/>
<path d="M119.9 50.5682C119.9 51.0682 119.5 51.3682 119.1 51.3682C118.6 51.3682 118.3 50.9682 118.3 50.5682V41.6682C118.3 41.1682 118.7 40.8682 119.1 40.8682C119.6 40.8682 119.9 41.2682 119.9 41.6682V50.5682Z" fill="#5E5E5E"/>
<path d="M122.7 50.5682C122.7 51.0682 122.3 51.3682 121.9 51.3682C121.4 51.3682 121.1 50.9682 121.1 50.5682V41.6682C121.1 41.1682 121.5 40.8682 121.9 40.8682C122.4 40.8682 122.7 41.2682 122.7 41.6682V50.5682Z" fill="#5E5E5E"/>
<path d="M125.5 50.5682C125.5 51.0682 125.1 51.3682 124.7 51.3682C124.2 51.3682 123.9 50.9682 123.9 50.5682V41.6682C123.9 41.1682 124.3 40.8682 124.7 40.8682C125.2 40.8682 125.5 41.2682 125.5 41.6682V50.5682Z" fill="#5E5E5E"/>
<path d="M128.3 50.5682C128.3 51.0682 127.9 51.3682 127.5 51.3682C127 51.3682 126.7 50.9682 126.7 50.5682V41.6682C126.7 41.1682 127.1 40.8682 127.5 40.8682C128 40.8682 128.3 41.2682 128.3 41.6682V50.5682Z" fill="#5E5E5E"/>
<path d="M25.7825 126.655H0.600098" stroke="white" stroke-width="10" stroke-miterlimit="10"/>
<path d="M36.704 93.5838L17.5896 83.2681" stroke="white" stroke-width="10" stroke-miterlimit="10"/>
<path d="M34.8841 157.906L16.6799 174.897" stroke="white" stroke-width="10" stroke-miterlimit="10"/>
<path d="M111.091 120.746C114.197 120.746 116.665 121.617 118.496 123.36C120.342 125.104 121.265 127.491 121.265 130.523C121.265 134.112 120.159 136.874 117.947 138.807C115.735 140.741 112.571 141.708 108.455 141.708C104.88 141.708 101.995 141.129 99.7974 139.972V134.105C100.955 134.72 102.302 135.226 103.84 135.621C105.378 136.002 106.836 136.192 108.213 136.192C112.358 136.192 114.431 134.493 114.431 131.095C114.431 127.857 112.285 126.239 107.993 126.239C107.217 126.239 106.36 126.319 105.422 126.48C104.485 126.627 103.723 126.788 103.137 126.964L100.435 125.514L101.643 109.144H119.067V114.901H107.598L107.004 121.207L107.773 121.053C108.667 120.848 109.773 120.746 111.091 120.746Z" fill="#EA69FF"/>
<defs>
<linearGradient id="paint0_linear" x1="113.5" y1="60.668" x2="113.5" y2="192.468" gradientUnits="userSpaceOnUse">
<stop stop-color="#FF8BB3"/>
<stop offset="1" stop-color="#AF0732"/>
</linearGradient>
</defs>
</svg>
