<svg width="251" height="269" viewBox="0 0 251 269" fill="none" xmlns="http://www.w3.org/2000/svg">
<path d="M158.055 0C138.341 0 122.261 15.9396 122.261 35.7942C122.261 55.509 138.201 71.5885 158.055 71.5885C177.77 71.5885 193.85 55.6488 193.85 35.7942C193.71 16.0794 177.77 0 158.055 0ZM158.055 60.6824C144.353 60.6824 133.167 49.4967 133.167 35.7942C133.167 22.0917 144.353 10.9061 158.055 10.9061C171.758 10.9061 182.944 22.0917 182.944 35.7942C182.944 49.4967 171.758 60.6824 158.055 60.6824Z" fill="#B30E38"/>
<path d="M199.708 84.8791L195.394 93.0369L207.754 99.5735L212.068 91.4158L199.708 84.8791Z" fill="#9C9B9B"/>
<path d="M206.015 94.3794C203.778 93.4007 201.96 92.0025 199.863 91.0237C199.024 90.6042 198.185 89.9052 197.626 89.2061L195.528 93.121L207.972 99.6926L209.93 96.0573C208.532 95.3582 207.273 94.9387 206.015 94.3794Z" fill="#ECECEC"/>
<path d="M219.997 91.3033C218.459 94.2396 214.824 95.3581 211.888 93.8201L197.766 86.2697C194.829 84.7317 193.711 81.0964 195.249 78.1601C196.787 75.2239 200.422 74.1053 203.358 75.6433L217.48 83.1937C220.556 84.8715 221.675 88.5069 219.997 91.3033Z" fill="#B1B1B1"/>
<path d="M206.433 87.2484C201.819 84.5918 198.184 81.3759 196.786 76.4822C196.226 76.9016 195.667 77.6007 195.387 78.2998C193.849 81.2361 194.968 84.8715 197.904 86.4095L212.026 93.9598C214.263 95.0784 216.78 94.7988 218.598 93.4006C214.263 92.0023 210.488 89.6254 206.433 87.2484Z" fill="#ECECEC"/>
<path d="M197.066 83.1936C196.927 83.4733 196.507 83.6131 196.228 83.4733C195.948 83.3335 195.808 82.914 195.948 82.6343L199.164 76.4822C199.304 76.2026 199.723 76.0627 200.003 76.2026C200.282 76.3424 200.422 76.7618 200.282 77.0415L197.066 83.1936Z" fill="#5E5E5E"/>
<path d="M199.024 84.1724C198.885 84.452 198.465 84.5919 198.186 84.452C197.906 84.3122 197.766 83.8927 197.906 83.6131L201.122 77.461C201.262 77.1813 201.681 77.0415 201.961 77.1813C202.24 77.3211 202.38 77.7406 202.24 78.0203L199.024 84.1724Z" fill="#5E5E5E"/>
<path d="M200.841 85.1511C200.701 85.4308 200.282 85.5706 200.002 85.4308C199.722 85.2909 199.583 84.8715 199.722 84.5918L202.938 78.4397C203.078 78.1601 203.498 78.0203 203.777 78.1601C204.057 78.2999 204.197 78.7193 204.057 78.999L200.841 85.1511Z" fill="#5E5E5E"/>
<path d="M202.799 86.1297C202.659 86.4093 202.24 86.5491 201.96 86.4093C201.68 86.2695 201.541 85.85 201.68 85.5704L204.896 79.4182C205.036 79.1386 205.456 78.9988 205.735 79.1386C206.015 79.2784 206.155 79.6979 206.015 79.9775L202.799 86.1297Z" fill="#5E5E5E"/>
<path d="M204.756 87.2486C204.617 87.5282 204.197 87.668 203.917 87.5282C203.638 87.3884 203.498 86.9689 203.638 86.6892L206.854 80.5371C206.994 80.2575 207.413 80.1177 207.693 80.2575C207.972 80.3973 208.112 80.8167 207.972 81.0964L204.756 87.2486Z" fill="#5E5E5E"/>
<path d="M206.714 88.2271C206.574 88.5067 206.155 88.6465 205.875 88.5067C205.595 88.3669 205.456 87.9474 205.595 87.6678L208.811 81.5157C208.951 81.236 209.371 81.0962 209.65 81.236C209.93 81.3758 210.07 81.7953 209.93 82.0749L206.714 88.2271Z" fill="#5E5E5E"/>
<path d="M208.532 89.2058C208.392 89.4855 207.973 89.6253 207.693 89.4854C207.413 89.3456 207.273 88.9262 207.413 88.6466L210.629 82.4944C210.769 82.2147 211.188 82.0749 211.468 82.2148C211.748 82.3546 211.888 82.7741 211.748 83.0537L208.532 89.2058Z" fill="#5E5E5E"/>
<path d="M210.489 90.1848C210.349 90.4645 209.93 90.6043 209.65 90.4645C209.37 90.3247 209.23 89.9052 209.37 89.6256L212.586 83.4734C212.726 83.1938 213.145 83.0539 213.425 83.1938C213.705 83.3336 213.845 83.7531 213.705 84.0327L210.489 90.1848Z" fill="#5E5E5E"/>
<path d="M212.446 91.3032C212.307 91.5829 211.887 91.7227 211.607 91.5829C211.328 91.443 211.188 91.0236 211.328 90.744L214.544 84.5918C214.684 84.3122 215.103 84.1724 215.383 84.3122C215.662 84.452 215.802 84.8715 215.662 85.1511L212.446 91.3032Z" fill="#5E5E5E"/>
<path d="M214.404 92.282C214.264 92.5616 213.845 92.7015 213.565 92.5617C213.285 92.4218 213.145 92.0024 213.285 91.7227L216.501 85.5706C216.641 85.291 217.061 85.1511 217.34 85.2909C217.62 85.4308 217.76 85.8502 217.62 86.1299L214.404 92.282Z" fill="#5E5E5E"/>
<path d="M216.222 93.2608C216.082 93.5404 215.662 93.6802 215.383 93.5404C215.103 93.4006 214.963 92.9811 215.103 92.7015L218.319 86.5494C218.459 86.2697 218.878 86.1299 219.158 86.2697C219.438 86.4095 219.577 86.829 219.438 87.1086L216.222 93.2608Z" fill="#5E5E5E"/>
<path d="M116.328 84.8153L103.968 91.3506L108.281 99.5083L120.641 92.9731L116.328 84.8153Z" fill="#9C9B9B"/>
<path d="M119.185 92.4219C116.808 93.5405 115.41 94.0998 112.753 94.2396C109.677 94.3794 107.3 92.9812 105.063 91.1635L104.923 91.0237L104.084 91.4432L108.419 99.6926L120.863 93.121L120.304 92.0024C119.744 92.0024 119.465 92.2821 119.185 92.4219Z" fill="#ECECEC"/>
<path d="M96.1145 91.3033C97.6526 94.2396 101.288 95.3581 104.224 93.8201L118.346 86.2697C121.282 84.7317 122.401 81.0964 120.863 78.1601C119.325 75.2239 115.689 74.1053 112.753 75.6433L98.6313 83.1937C95.6951 84.8715 94.5765 88.5069 96.1145 91.3033Z" fill="#B1B1B1"/>
<path d="M95.9753 86.1298C95.2762 87.8077 95.1364 89.7652 96.1151 91.4431C97.6532 94.3793 101.289 95.4979 104.225 93.9598L118.347 86.4095C120.724 85.1511 121.982 82.4945 121.423 79.8379C114.012 85.99 104.784 90.8838 95.9753 86.1298Z" fill="#ECECEC"/>
<path d="M119.185 83.1936C119.325 83.4733 119.745 83.6131 120.024 83.4733C120.304 83.3335 120.444 82.914 120.304 82.6343L117.088 76.4822C116.948 76.2026 116.529 76.0627 116.249 76.2026C115.969 76.3424 115.83 76.7618 115.969 77.0415L119.185 83.1936Z" fill="#5E5E5E"/>
<path d="M117.229 84.1724C117.369 84.452 117.788 84.5919 118.068 84.452C118.347 84.3122 118.487 83.8927 118.347 83.6131L115.131 77.461C114.992 77.1813 114.572 77.0415 114.292 77.1813C114.013 77.3211 113.873 77.7406 114.013 78.0203L117.229 84.1724Z" fill="#5E5E5E"/>
<path d="M115.271 85.1511C115.411 85.4308 115.83 85.5706 116.11 85.4308C116.389 85.2909 116.529 84.8715 116.389 84.5918L113.173 78.4397C113.034 78.1601 112.614 78.0203 112.334 78.1601C112.055 78.2999 111.915 78.7193 112.055 78.999L115.271 85.1511Z" fill="#5E5E5E"/>
<path d="M113.453 86.1297C113.593 86.4093 114.012 86.5491 114.292 86.4093C114.571 86.2695 114.711 85.85 114.571 85.5704L111.356 79.4182C111.216 79.1386 110.796 78.9988 110.517 79.1386C110.237 79.2784 110.097 79.6979 110.237 79.9775L113.453 86.1297Z" fill="#5E5E5E"/>
<path d="M111.495 87.2486C111.635 87.5282 112.055 87.668 112.334 87.5282C112.614 87.3884 112.754 86.9689 112.614 86.6892L109.398 80.5371C109.258 80.2575 108.839 80.1177 108.559 80.2575C108.279 80.3973 108.14 80.8167 108.279 81.0964L111.495 87.2486Z" fill="#5E5E5E"/>
<path d="M109.539 88.2271C109.679 88.5067 110.098 88.6465 110.378 88.5067C110.657 88.3669 110.797 87.9474 110.657 87.6678L107.441 81.5157C107.302 81.236 106.882 81.0962 106.603 81.236C106.323 81.3758 106.183 81.7953 106.323 82.0749L109.539 88.2271Z" fill="#5E5E5E"/>
<path d="M107.58 89.2058C107.72 89.4855 108.139 89.6253 108.419 89.4854C108.698 89.3456 108.838 88.9262 108.698 88.6466L105.483 82.4944C105.343 82.2147 104.923 82.0749 104.644 82.2148C104.364 82.3546 104.224 82.7741 104.364 83.0537L107.58 89.2058Z" fill="#5E5E5E"/>
<path d="M105.622 90.1848C105.762 90.4645 106.182 90.6043 106.461 90.4645C106.741 90.3247 106.881 89.9052 106.741 89.6256L103.525 83.4734C103.385 83.1938 102.966 83.0539 102.686 83.1938C102.406 83.3336 102.267 83.7531 102.406 84.0327L105.622 90.1848Z" fill="#5E5E5E"/>
<path d="M103.804 91.3032C103.944 91.5829 104.364 91.7227 104.643 91.5829C104.923 91.443 105.063 91.0236 104.923 90.744L101.707 84.5918C101.567 84.3122 101.148 84.1724 100.868 84.3122C100.589 84.452 100.449 84.8715 100.589 85.1511L103.804 91.3032Z" fill="#5E5E5E"/>
<path d="M101.848 92.282C101.988 92.5616 102.407 92.7015 102.687 92.5617C102.966 92.4218 103.106 92.0024 102.966 91.7227L99.7506 85.5706C99.6107 85.291 99.1913 85.1511 98.9116 85.2909C98.632 85.4308 98.4922 85.8502 98.632 86.1299L101.848 92.282Z" fill="#5E5E5E"/>
<path d="M99.8899 93.2608C100.03 93.5404 100.449 93.6802 100.729 93.5404C101.008 93.4006 101.148 92.9811 101.008 92.7015L97.7926 86.5494C97.6527 86.2697 97.2333 86.1299 96.9536 86.2697C96.674 86.4095 96.5342 86.829 96.674 87.1086L99.8899 93.2608Z" fill="#5E5E5E"/>
<path d="M170.64 70.7495H145.473V87.3882H170.64V70.7495Z" fill="#9C9B9B"/>
<path d="M152.464 70.7495H145.473V87.3882H152.464V70.7495Z" fill="#ECECEC"/>
<path d="M250.198 176.594C250.198 227.489 208.951 268.736 158.056 268.736C107.161 268.736 65.9136 227.489 65.9136 176.594C65.9136 125.699 107.161 84.4519 158.056 84.4519C208.951 84.4519 250.198 125.699 250.198 176.594Z" fill="url(#paint0_linear)"/>
<path opacity="0.5" d="M136.383 94.0996C135.544 94.3793 134.705 94.5191 133.866 94.7987C179.168 84.452 224.89 111.997 236.635 157.299C248.38 202.601 221.954 248.882 177.351 261.885C178.19 261.745 179.028 261.466 179.867 261.326C226.008 249.301 253.693 202.181 241.808 155.901C229.784 109.76 182.524 82.075 136.383 94.0996Z" fill="white"/>
<path d="M235.657 176.594C235.657 219.519 200.981 254.195 158.056 254.195C115.131 254.195 80.4556 219.379 80.4556 176.594C80.4556 133.669 115.271 98.9934 158.056 98.9934C200.842 98.9934 235.657 133.669 235.657 176.594Z" fill="#6F6F6E"/>
<path d="M231.463 176.594C231.463 217.142 198.605 250 158.057 250C117.509 250 84.6509 217.142 84.6509 176.594C84.6509 136.046 117.509 103.188 158.057 103.188C198.605 103.188 231.463 136.046 231.463 176.594Z" fill="white"/>
<path d="M162.111 225.671H153.862V244.407H162.111V225.671Z" fill="#EA69FF"/>
<path d="M162.112 108.781H153.863V127.517H162.112V108.781Z" fill="#EA69FF"/>
<path d="M225.868 172.4H207.132V180.649H225.868V172.4Z" fill="#EA69FF"/>
<path d="M108.979 172.4H90.2432V180.649H108.979V172.4Z" fill="#EA69FF"/>
<path d="M125.504 117.038L120.711 119.92L128.276 132.502L133.069 129.62L125.504 117.038Z" fill="#B1B1B1"/>
<path d="M187.767 220.539L182.976 223.425L190.551 236.001L195.342 233.115L187.767 220.539Z" fill="#B1B1B1"/>
<path d="M99.4994 142.337L96.8813 147.28L109.979 154.217L112.597 149.275L99.4994 142.337Z" fill="#B1B1B1"/>
<path d="M206.307 198.962L203.684 203.902L216.65 210.789L219.274 205.85L206.307 198.962Z" fill="#B1B1B1"/>
<path d="M190.613 117.127L183.048 129.709L187.841 132.591L195.406 120.009L190.613 117.127Z" fill="#B1B1B1"/>
<path d="M128.226 220.656L120.647 233.231L125.438 236.118L133.016 223.543L128.226 220.656Z" fill="#B1B1B1"/>
<path d="M216.698 142.251L203.604 149.194L206.224 154.135L219.318 147.192L216.698 142.251Z" fill="#B1B1B1"/>
<path d="M109.708 198.944L96.7397 205.825L99.3612 210.766L112.329 203.885L109.708 198.944Z" fill="#B1B1B1"/>
<path d="M183.084 64.1779C183.084 70.0504 178.331 74.9441 172.318 74.9441H143.655C137.782 74.9441 132.889 70.1902 132.889 64.1779C132.889 58.3054 137.643 53.4116 143.655 53.4116H172.458C178.331 53.4116 183.084 58.1656 183.084 64.1779Z" fill="#B1B1B1"/>
<path d="M155.4 67.9531C146.871 66.2752 139.88 63.6186 138.202 54.9497C135.126 56.7674 133.028 60.2629 133.028 64.1779C133.028 70.0504 137.782 74.9441 143.795 74.9441H172.598C177.212 74.9441 181.127 72.0079 182.665 67.9531C173.576 70.6097 164.348 69.7707 155.4 67.9531Z" fill="#ECECEC"/>
<path d="M139.739 70.33C139.739 71.0291 139.18 71.4486 138.621 71.4486C137.921 71.4486 137.502 70.8893 137.502 70.33V57.8859C137.502 57.1868 138.061 56.7673 138.621 56.7673C139.32 56.7673 139.739 57.3266 139.739 57.8859V70.33Z" fill="#5E5E5E"/>
<path d="M143.653 70.33C143.653 71.0291 143.094 71.4486 142.535 71.4486C141.835 71.4486 141.416 70.8893 141.416 70.33V57.8859C141.416 57.1868 141.975 56.7673 142.535 56.7673C143.234 56.7673 143.653 57.3266 143.653 57.8859V70.33Z" fill="#5E5E5E"/>
<path d="M147.429 70.33C147.429 71.0291 146.87 71.4486 146.31 71.4486C145.611 71.4486 145.192 70.8893 145.192 70.33V57.8859C145.192 57.1868 145.751 56.7673 146.31 56.7673C147.01 56.7673 147.429 57.3266 147.429 57.8859V70.33Z" fill="#5E5E5E"/>
<path d="M151.345 70.33C151.345 71.0291 150.785 71.4486 150.226 71.4486C149.527 71.4486 149.107 70.8893 149.107 70.33V57.8859C149.107 57.1868 149.667 56.7673 150.226 56.7673C150.925 56.7673 151.345 57.3266 151.345 57.8859V70.33Z" fill="#5E5E5E"/>
<path d="M155.259 70.33C155.259 71.0291 154.699 71.4486 154.14 71.4486C153.441 71.4486 153.021 70.8893 153.021 70.33V57.8859C153.021 57.1868 153.581 56.7673 154.14 56.7673C154.839 56.7673 155.259 57.3266 155.259 57.8859V70.33Z" fill="#5E5E5E"/>
<path d="M159.175 70.33C159.175 71.0291 158.616 71.4486 158.057 71.4486C157.357 71.4486 156.938 70.8893 156.938 70.33V57.8859C156.938 57.1868 157.497 56.7673 158.057 56.7673C158.756 56.7673 159.175 57.3266 159.175 57.8859V70.33Z" fill="#5E5E5E"/>
<path d="M163.09 70.33C163.09 71.0291 162.53 71.4486 161.971 71.4486C161.272 71.4486 160.853 70.8893 160.853 70.33V57.8859C160.853 57.1868 161.412 56.7673 161.971 56.7673C162.67 56.7673 163.09 57.3266 163.09 57.8859V70.33Z" fill="#5E5E5E"/>
<path d="M167.004 70.33C167.004 71.0291 166.444 71.4486 165.885 71.4486C165.186 71.4486 164.767 70.8893 164.767 70.33V57.8859C164.767 57.1868 165.326 56.7673 165.885 56.7673C166.584 56.7673 167.004 57.3266 167.004 57.8859V70.33Z" fill="#5E5E5E"/>
<path d="M170.919 70.33C170.919 71.0291 170.36 71.4486 169.801 71.4486C169.102 71.4486 168.682 70.8893 168.682 70.33V57.8859C168.682 57.1868 169.241 56.7673 169.801 56.7673C170.5 56.7673 170.919 57.3266 170.919 57.8859V70.33Z" fill="#5E5E5E"/>
<path d="M174.833 70.33C174.833 71.0291 174.274 71.4486 173.715 71.4486C173.016 71.4486 172.596 70.8893 172.596 70.33V57.8859C172.596 57.1868 173.155 56.7673 173.715 56.7673C174.414 56.7673 174.833 57.3266 174.833 57.8859V70.33Z" fill="#5E5E5E"/>
<path d="M178.75 70.33C178.75 71.0291 178.191 71.4486 177.631 71.4486C176.932 71.4486 176.513 70.8893 176.513 70.33V57.8859C176.513 57.1868 177.072 56.7673 177.631 56.7673C178.33 56.7673 178.75 57.3266 178.75 57.8859V70.33Z" fill="#5E5E5E"/>
<path d="M35.4087 176.716H0.198242" stroke="white" stroke-width="10" stroke-miterlimit="10"/>
<path d="M50.6791 130.475L23.9531 116.052" stroke="white" stroke-width="10" stroke-miterlimit="10"/>
<path d="M48.1355 220.412L22.6821 244.169" stroke="white" stroke-width="10" stroke-miterlimit="10"/>
<path d="M132.702 190.773H112.741V186.574L119.909 179.328C122.032 177.154 123.418 175.65 124.069 174.816C124.72 173.97 125.189 173.189 125.476 172.473C125.762 171.757 125.905 171.014 125.905 170.246C125.905 169.1 125.586 168.247 124.948 167.688C124.323 167.128 123.483 166.848 122.429 166.848C121.322 166.848 120.248 167.102 119.206 167.609C118.164 168.117 117.077 168.84 115.944 169.777L112.663 165.891C114.069 164.693 115.235 163.846 116.159 163.352C117.084 162.857 118.093 162.479 119.187 162.219C120.28 161.945 121.504 161.809 122.858 161.809C124.642 161.809 126.218 162.134 127.585 162.785C128.952 163.436 130.013 164.348 130.769 165.52C131.524 166.691 131.901 168.033 131.901 169.543C131.901 170.858 131.667 172.095 131.198 173.254C130.743 174.4 130.026 175.578 129.05 176.789C128.086 178 126.381 179.725 123.933 181.965L120.261 185.422V185.695H132.702V190.773ZM145.983 172.531C148.744 172.531 150.938 173.306 152.565 174.855C154.206 176.405 155.026 178.527 155.026 181.223C155.026 184.413 154.043 186.867 152.077 188.586C150.111 190.305 147.299 191.164 143.64 191.164C140.463 191.164 137.897 190.65 135.944 189.621V184.406C136.973 184.953 138.171 185.402 139.538 185.754C140.905 186.092 142.201 186.262 143.425 186.262C147.11 186.262 148.952 184.751 148.952 181.73C148.952 178.853 147.045 177.414 143.229 177.414C142.539 177.414 141.778 177.486 140.944 177.629C140.111 177.759 139.434 177.902 138.913 178.059L136.511 176.77L137.585 162.219H153.073V167.336H142.878L142.351 172.941L143.034 172.805C143.828 172.622 144.812 172.531 145.983 172.531ZM178.249 176.496C178.249 181.483 177.429 185.174 175.788 187.57C174.16 189.966 171.647 191.164 168.249 191.164C164.955 191.164 162.468 189.927 160.788 187.453C159.121 184.979 158.288 181.327 158.288 176.496C158.288 171.457 159.102 167.746 160.729 165.363C162.357 162.967 164.864 161.77 168.249 161.77C171.543 161.77 174.03 163.02 175.71 165.52C177.403 168.02 178.249 171.678 178.249 176.496ZM164.284 176.496C164.284 179.999 164.584 182.512 165.183 184.035C165.795 185.546 166.817 186.301 168.249 186.301C169.655 186.301 170.671 185.533 171.296 183.996C171.921 182.46 172.233 179.96 172.233 176.496C172.233 172.993 171.914 170.48 171.276 168.957C170.651 167.421 169.642 166.652 168.249 166.652C166.83 166.652 165.814 167.421 165.202 168.957C164.59 170.48 164.284 172.993 164.284 176.496ZM206.257 190.773H199.382L191.901 178.742L189.343 180.578V190.773H183.288V162.219H189.343V175.285L191.726 171.926L199.46 162.219H206.179L196.218 174.855L206.257 190.773Z" fill="#EA69FF"/>
<defs>
<linearGradient id="paint0_linear" x1="158.056" y1="84.4519" x2="158.056" y2="268.736" gradientUnits="userSpaceOnUse">
<stop stop-color="#FF8BB3"/>
<stop offset="1" stop-color="#AF0732"/>
</linearGradient>
</defs>
</svg>
