<svg width="214" height="230" viewBox="0 0 214 230" fill="none" xmlns="http://www.w3.org/2000/svg">
<path d="M134.694 0.886475C117.897 0.886475 104.197 14.467 104.197 31.3831C104.197 48.1801 117.778 61.8798 134.694 61.8798C151.491 61.8798 165.191 48.2992 165.191 31.3831C165.071 14.5861 151.491 0.886475 134.694 0.886475ZM134.694 52.5878C123.019 52.5878 113.489 43.0576 113.489 31.3831C113.489 19.7086 123.019 10.1784 134.694 10.1784C146.368 10.1784 155.899 19.7086 155.899 31.3831C155.899 43.0576 146.368 52.5878 134.694 52.5878Z" fill="#B30E38"/>
<path d="M170.181 73.2034L166.505 80.1538L177.036 85.723L180.712 78.7726L170.181 73.2034Z" fill="#9C9B9B"/>
<path d="M175.555 81.2976C173.649 80.4637 172.1 79.2724 170.314 78.4385C169.599 78.0812 168.884 77.4855 168.408 76.8899L166.621 80.2254L177.223 85.8245L178.891 82.7271C177.699 82.1315 176.627 81.7741 175.555 81.2976Z" fill="#ECECEC"/>
<path d="M187.468 78.6768C186.157 81.1784 183.06 82.1314 180.558 80.821L168.527 74.3882C166.025 73.0778 165.072 69.9805 166.382 67.4788C167.693 64.9771 170.79 64.0241 173.292 65.3345L185.324 71.7673C187.944 73.1969 188.897 76.2942 187.468 78.6768Z" fill="#B1B1B1"/>
<path d="M175.912 75.2219C171.981 72.9585 168.884 70.2185 167.692 66.0491C167.216 66.4065 166.739 67.0021 166.501 67.5977C165.191 70.0994 166.144 73.1967 168.645 74.5071L180.677 80.94C182.583 81.893 184.727 81.6548 186.276 80.4635C182.583 79.2722 179.367 77.2471 175.912 75.2219Z" fill="#ECECEC"/>
<path d="M167.931 71.7675C167.812 72.0058 167.454 72.1249 167.216 72.0058C166.978 71.8867 166.859 71.5293 166.978 71.291L169.718 66.0494C169.837 65.8112 170.194 65.692 170.433 65.8111C170.671 65.9303 170.79 66.2877 170.671 66.5259L167.931 71.7675Z" fill="#5E5E5E"/>
<path d="M169.599 72.6013C169.48 72.8395 169.122 72.9586 168.884 72.8395C168.646 72.7204 168.526 72.363 168.646 72.1247L171.386 66.8831C171.505 66.6449 171.862 66.5257 172.1 66.6449C172.339 66.764 172.458 67.1214 172.339 67.3596L169.599 72.6013Z" fill="#5E5E5E"/>
<path d="M171.147 73.4352C171.028 73.6735 170.671 73.7926 170.432 73.6735C170.194 73.5543 170.075 73.197 170.194 72.9587L172.934 67.7171C173.053 67.4788 173.411 67.3597 173.649 67.4789C173.887 67.598 174.006 67.9553 173.887 68.1936L171.147 73.4352Z" fill="#5E5E5E"/>
<path d="M172.814 74.269C172.695 74.5072 172.338 74.6264 172.099 74.5072C171.861 74.3881 171.742 74.0307 171.861 73.7925L174.601 68.5509C174.72 68.3126 175.078 68.1935 175.316 68.3126C175.554 68.4317 175.673 68.7891 175.554 69.0274L172.814 74.269Z" fill="#5E5E5E"/>
<path d="M174.482 75.2221C174.363 75.4604 174.006 75.5795 173.768 75.4603C173.529 75.3412 173.41 74.9838 173.529 74.7456L176.269 69.504C176.388 69.2657 176.746 69.1466 176.984 69.2657C177.222 69.3849 177.341 69.7422 177.222 69.9805L174.482 75.2221Z" fill="#5E5E5E"/>
<path d="M176.151 76.0558C176.032 76.2941 175.674 76.4132 175.436 76.2941C175.198 76.175 175.078 75.8176 175.198 75.5793L177.938 70.3377C178.057 70.0995 178.414 69.9803 178.652 70.0995C178.891 70.2186 179.01 70.576 178.891 70.8142L176.151 76.0558Z" fill="#5E5E5E"/>
<path d="M177.699 76.8898C177.58 77.1281 177.223 77.2472 176.984 77.1281C176.746 77.0089 176.627 76.6516 176.746 76.4133L179.486 71.1717C179.605 70.9334 179.963 70.8143 180.201 70.9335C180.439 71.0526 180.558 71.41 180.439 71.6482L177.699 76.8898Z" fill="#5E5E5E"/>
<path d="M179.366 77.7238C179.247 77.9621 178.89 78.0812 178.651 77.9621C178.413 77.843 178.294 77.4856 178.413 77.2473L181.153 72.0057C181.272 71.7674 181.63 71.6483 181.868 71.7674C182.106 71.8866 182.225 72.244 182.106 72.4822L179.366 77.7238Z" fill="#5E5E5E"/>
<path d="M181.034 78.6767C180.915 78.915 180.558 79.0341 180.32 78.9149C180.081 78.7958 179.962 78.4384 180.081 78.2002L182.821 72.9586C182.94 72.7203 183.298 72.6012 183.536 72.7203C183.774 72.8394 183.893 73.1968 183.774 73.4351L181.034 78.6767Z" fill="#5E5E5E"/>
<path d="M182.703 79.5107C182.584 79.7489 182.226 79.8681 181.988 79.7489C181.75 79.6298 181.63 79.2724 181.75 79.0342L184.49 73.7926C184.609 73.5543 184.966 73.4352 185.204 73.5543C185.443 73.6734 185.562 74.0308 185.443 74.2691L182.703 79.5107Z" fill="#5E5E5E"/>
<path d="M184.251 80.3447C184.132 80.5829 183.775 80.7021 183.536 80.5829C183.298 80.4638 183.179 80.1064 183.298 79.8682L186.038 74.6266C186.157 74.3883 186.515 74.2692 186.753 74.3883C186.991 74.5074 187.11 74.8648 186.991 75.1031L184.251 80.3447Z" fill="#5E5E5E"/>
<path d="M99.1415 73.1491L88.6106 78.717L92.2855 85.6674L102.816 80.0994L99.1415 73.1491Z" fill="#9C9B9B"/>
<path d="M101.576 79.6298C99.5513 80.5828 98.36 81.0593 96.0966 81.1784C93.4758 81.2976 91.4506 80.1063 89.5446 78.5576L89.4255 78.4385L88.7107 78.7959L92.4036 85.8244L103.006 80.2254L102.529 79.2724C102.053 79.2724 101.815 79.5106 101.576 79.6298Z" fill="#ECECEC"/>
<path d="M81.9204 78.6768C83.2308 81.1784 86.3281 82.1314 88.8298 80.821L100.862 74.3882C103.363 73.0778 104.316 69.9805 103.006 67.4788C101.696 64.9771 98.5983 64.0241 96.0966 65.3345L84.0647 71.7673C81.563 73.1969 80.61 76.2942 81.9204 78.6768Z" fill="#B1B1B1"/>
<path d="M81.801 74.2689C81.2053 75.6985 81.0862 77.3663 81.9201 78.7958C83.2305 81.2975 86.3278 82.2505 88.8295 80.9401L100.861 74.5072C102.887 73.4351 103.959 71.1716 103.482 68.9082C97.1684 74.1498 89.306 78.3193 81.801 74.2689Z" fill="#ECECEC"/>
<path d="M101.577 71.7673C101.696 72.0055 102.053 72.1247 102.291 72.0055C102.53 71.8864 102.649 71.529 102.53 71.2908L99.7898 66.0492C99.6707 65.8109 99.3133 65.6918 99.075 65.8109C98.8368 65.93 98.7176 66.2874 98.8368 66.5257L101.577 71.7673Z" fill="#5E5E5E"/>
<path d="M99.9097 72.6013C100.029 72.8395 100.386 72.9586 100.624 72.8395C100.863 72.7204 100.982 72.363 100.863 72.1247L98.1228 66.8831C98.0037 66.6449 97.6463 66.5257 97.408 66.6449C97.1698 66.764 97.0507 67.1214 97.1698 67.3596L99.9097 72.6013Z" fill="#5E5E5E"/>
<path d="M98.2415 73.4352C98.3606 73.6735 98.718 73.7926 98.9563 73.6735C99.1945 73.5543 99.3136 73.197 99.1945 72.9587L96.4546 67.7171C96.3355 67.4788 95.9781 67.3597 95.7398 67.4789C95.5016 67.598 95.3824 67.9553 95.5016 68.1936L98.2415 73.4352Z" fill="#5E5E5E"/>
<path d="M96.6929 74.269C96.812 74.5072 97.1694 74.6264 97.4077 74.5072C97.6459 74.3881 97.7651 74.0307 97.6459 73.7925L94.906 68.5509C94.7869 68.3126 94.4295 68.1935 94.1912 68.3126C93.953 68.4317 93.8339 68.7891 93.953 69.0274L96.6929 74.269Z" fill="#5E5E5E"/>
<path d="M95.0247 75.2221C95.1438 75.4604 95.5012 75.5795 95.7395 75.4603C95.9777 75.3412 96.0969 74.9838 95.9777 74.7456L93.2378 69.504C93.1187 69.2657 92.7613 69.1466 92.523 69.2657C92.2848 69.3849 92.1656 69.7422 92.2848 69.9805L95.0247 75.2221Z" fill="#5E5E5E"/>
<path d="M93.3577 76.0558C93.4768 76.2941 93.8342 76.4132 94.0725 76.2941C94.3107 76.175 94.4299 75.8176 94.3107 75.5793L91.5708 70.3377C91.4517 70.0995 91.0943 69.9803 90.856 70.0995C90.6178 70.2186 90.4987 70.576 90.6178 70.8142L93.3577 76.0558Z" fill="#5E5E5E"/>
<path d="M91.6895 76.8898C91.8086 77.1281 92.166 77.2472 92.4043 77.1281C92.6425 77.0089 92.7616 76.6516 92.6425 76.4133L89.9026 71.1717C89.7835 70.9334 89.4261 70.8143 89.1878 70.9335C88.9496 71.0526 88.8304 71.41 88.9496 71.6482L91.6895 76.8898Z" fill="#5E5E5E"/>
<path d="M90.021 77.7238C90.1402 77.9621 90.4976 78.0812 90.7358 77.9621C90.9741 77.843 91.0932 77.4856 90.9741 77.2473L88.2341 72.0057C88.115 71.7674 87.7576 71.6483 87.5194 71.7674C87.2811 71.8866 87.162 72.244 87.2811 72.4822L90.021 77.7238Z" fill="#5E5E5E"/>
<path d="M88.4727 78.6767C88.5918 78.915 88.9492 79.0341 89.1875 78.9149C89.4257 78.7958 89.5448 78.4384 89.4257 78.2002L86.6858 72.9586C86.5667 72.7203 86.2093 72.6012 85.971 72.7203C85.7328 72.8394 85.6136 73.1968 85.7328 73.4351L88.4727 78.6767Z" fill="#5E5E5E"/>
<path d="M86.8057 79.5107C86.9248 79.7489 87.2822 79.8681 87.5205 79.7489C87.7587 79.6298 87.8779 79.2724 87.7587 79.0342L85.0188 73.7926C84.8997 73.5543 84.5423 73.4352 84.304 73.5543C84.0658 73.6734 83.9467 74.0308 84.0658 74.2691L86.8057 79.5107Z" fill="#5E5E5E"/>
<path d="M85.1373 80.3447C85.2564 80.5829 85.6138 80.7021 85.852 80.5829C86.0903 80.4638 86.2094 80.1064 86.0903 79.8682L83.3503 74.6266C83.2312 74.3883 82.8738 74.2692 82.6356 74.3883C82.3973 74.5074 82.2782 74.8648 82.3973 75.1031L85.1373 80.3447Z" fill="#5E5E5E"/>
<path d="M145.416 61.165H123.973V75.3412H145.416V61.165Z" fill="#9C9B9B"/>
<path d="M129.93 61.165H123.973V75.3412H129.93V61.165Z" fill="#ECECEC"/>
<path d="M213.199 151.345C213.199 194.707 178.057 229.85 134.694 229.85C91.3318 229.85 56.1892 194.707 56.1892 151.345C56.1892 107.982 91.3318 72.8396 134.694 72.8396C178.057 72.8396 213.199 107.982 213.199 151.345Z" fill="url(#paint0_linear)"/>
<path opacity="0.5" d="M116.229 81.0593C115.514 81.2976 114.799 81.4167 114.085 81.6549C152.682 72.8395 191.637 96.3076 201.643 134.905C211.65 173.502 189.135 212.933 151.133 224.012C151.848 223.893 152.563 223.655 153.278 223.536C192.59 213.291 216.177 173.145 206.051 133.714C195.806 94.4016 155.541 70.8143 116.229 81.0593Z" fill="white"/>
<path d="M200.81 151.345C200.81 187.917 171.267 217.46 134.695 217.46C98.1225 217.46 68.5789 187.798 68.5789 151.345C68.5789 114.772 98.2416 85.2288 134.695 85.2288C171.148 85.2288 200.81 114.772 200.81 151.345Z" fill="#6F6F6E"/>
<path d="M197.236 151.345C197.236 185.892 169.242 213.887 134.695 213.887C100.148 213.887 72.1526 185.892 72.1526 151.345C72.1526 116.798 100.148 88.8027 134.695 88.8027C169.242 88.8027 197.236 116.798 197.236 151.345Z" fill="white"/>
<path d="M138.149 193.158H131.121V209.121H138.149V193.158Z" fill="#EA69FF"/>
<path d="M138.15 93.5676H131.121V109.531H138.15V93.5676Z" fill="#EA69FF"/>
<path d="M192.471 147.771H176.508V154.799H192.471V147.771Z" fill="#EA69FF"/>
<path d="M92.8808 147.771H76.9177V154.799H92.8808V147.771Z" fill="#EA69FF"/>
<path d="M106.96 100.603L102.877 103.058L109.322 113.778L113.406 111.323L106.96 100.603Z" fill="#B1B1B1"/>
<path d="M160.009 188.785L155.927 191.244L162.381 201.959L166.463 199.5L160.009 188.785Z" fill="#B1B1B1"/>
<path d="M84.8043 122.158L82.5737 126.369L93.7327 132.28L95.9632 128.069L84.8043 122.158Z" fill="#B1B1B1"/>
<path d="M175.804 170.402L173.569 174.611L184.617 180.479L186.852 176.27L175.804 170.402Z" fill="#B1B1B1"/>
<path d="M162.433 100.679L155.987 111.398L160.071 113.854L166.517 103.134L162.433 100.679Z" fill="#B1B1B1"/>
<path d="M109.279 188.885L102.822 199.599L106.903 202.058L113.36 191.345L109.279 188.885Z" fill="#B1B1B1"/>
<path d="M184.657 122.084L173.5 128L175.733 132.21L186.889 126.294L184.657 122.084Z" fill="#B1B1B1"/>
<path d="M93.5016 170.387L82.4529 176.25L84.6863 180.459L95.7351 174.596L93.5016 170.387Z" fill="#B1B1B1"/>
<path d="M156.018 55.5659C156.018 60.5693 151.968 64.7387 146.846 64.7387H122.425C117.421 64.7387 113.252 60.6884 113.252 55.5659C113.252 50.5625 117.302 46.3931 122.425 46.3931H146.965C151.968 46.3931 156.018 50.4434 156.018 55.5659Z" fill="#B1B1B1"/>
<path d="M132.431 58.7825C125.164 57.3529 119.208 55.0895 117.778 47.7036C115.157 49.2523 113.37 52.2305 113.37 55.566C113.37 60.5694 117.421 64.7388 122.543 64.7388H147.083C151.015 64.7388 154.35 62.2372 155.661 58.7825C147.917 61.0459 140.055 60.3311 132.431 58.7825Z" fill="#ECECEC"/>
<path d="M119.089 60.8076C119.089 61.4032 118.612 61.7606 118.136 61.7606C117.54 61.7606 117.183 61.2841 117.183 60.8076V50.2052C117.183 49.6096 117.659 49.2522 118.136 49.2522C118.731 49.2522 119.089 49.7287 119.089 50.2052V60.8076Z" fill="#5E5E5E"/>
<path d="M122.424 60.8076C122.424 61.4032 121.948 61.7606 121.471 61.7606C120.875 61.7606 120.518 61.2841 120.518 60.8076V50.2052C120.518 49.6096 120.995 49.2522 121.471 49.2522C122.067 49.2522 122.424 49.7287 122.424 50.2052V60.8076Z" fill="#5E5E5E"/>
<path d="M125.641 60.8076C125.641 61.4032 125.164 61.7606 124.688 61.7606C124.092 61.7606 123.735 61.2841 123.735 60.8076V50.2052C123.735 49.6096 124.211 49.2522 124.688 49.2522C125.283 49.2522 125.641 49.7287 125.641 50.2052V60.8076Z" fill="#5E5E5E"/>
<path d="M128.976 60.8076C128.976 61.4032 128.5 61.7606 128.023 61.7606C127.427 61.7606 127.07 61.2841 127.07 60.8076V50.2052C127.07 49.6096 127.547 49.2522 128.023 49.2522C128.619 49.2522 128.976 49.7287 128.976 50.2052V60.8076Z" fill="#5E5E5E"/>
<path d="M132.311 60.8076C132.311 61.4032 131.835 61.7606 131.358 61.7606C130.763 61.7606 130.405 61.2841 130.405 60.8076V50.2052C130.405 49.6096 130.882 49.2522 131.358 49.2522C131.954 49.2522 132.311 49.7287 132.311 50.2052V60.8076Z" fill="#5E5E5E"/>
<path d="M135.648 60.8076C135.648 61.4032 135.171 61.7606 134.695 61.7606C134.099 61.7606 133.742 61.2841 133.742 60.8076V50.2052C133.742 49.6096 134.218 49.2522 134.695 49.2522C135.291 49.2522 135.648 49.7287 135.648 50.2052V60.8076Z" fill="#5E5E5E"/>
<path d="M138.983 60.8076C138.983 61.4032 138.507 61.7606 138.03 61.7606C137.435 61.7606 137.077 61.2841 137.077 60.8076V50.2052C137.077 49.6096 137.554 49.2522 138.03 49.2522C138.626 49.2522 138.983 49.7287 138.983 50.2052V60.8076Z" fill="#5E5E5E"/>
<path d="M142.319 60.8076C142.319 61.4032 141.842 61.7606 141.366 61.7606C140.77 61.7606 140.413 61.2841 140.413 60.8076V50.2052C140.413 49.6096 140.889 49.2522 141.366 49.2522C141.961 49.2522 142.319 49.7287 142.319 50.2052V60.8076Z" fill="#5E5E5E"/>
<path d="M145.654 60.8076C145.654 61.4032 145.177 61.7606 144.701 61.7606C144.105 61.7606 143.748 61.2841 143.748 60.8076V50.2052C143.748 49.6096 144.224 49.2522 144.701 49.2522C145.296 49.2522 145.654 49.7287 145.654 50.2052V60.8076Z" fill="#5E5E5E"/>
<path d="M148.989 60.8076C148.989 61.4032 148.513 61.7606 148.036 61.7606C147.441 61.7606 147.083 61.2841 147.083 60.8076V50.2052C147.083 49.6096 147.56 49.2522 148.036 49.2522C148.632 49.2522 148.989 49.7287 148.989 50.2052V60.8076Z" fill="#5E5E5E"/>
<path d="M152.326 60.8076C152.326 61.4032 151.849 61.7606 151.373 61.7606C150.777 61.7606 150.42 61.2841 150.42 60.8076V50.2052C150.42 49.6096 150.896 49.2522 151.373 49.2522C151.968 49.2522 152.326 49.7287 152.326 50.2052V60.8076Z" fill="#5E5E5E"/>
<path d="M30.1987 151.448H0.199463" stroke="white" stroke-width="10" stroke-miterlimit="10"/>
<path d="M43.209 112.051L20.4385 99.7622" stroke="white" stroke-width="10" stroke-miterlimit="10"/>
<path d="M41.0414 188.677L19.3552 208.918" stroke="white" stroke-width="10" stroke-miterlimit="10"/>
<path d="M108.091 146.276C111.059 146.276 113.417 147.109 115.167 148.775C116.93 150.44 117.812 152.722 117.812 155.619C117.812 159.049 116.755 161.687 114.642 163.535C112.528 165.383 109.505 166.306 105.572 166.306C102.156 166.306 99.3987 165.753 97.2991 164.648V159.042C98.4049 159.63 99.6926 160.113 101.162 160.49C102.632 160.854 104.025 161.036 105.341 161.036C109.302 161.036 111.282 159.413 111.282 156.165C111.282 153.072 109.232 151.525 105.131 151.525C104.389 151.525 103.57 151.602 102.674 151.756C101.778 151.896 101.05 152.05 100.49 152.218L97.908 150.832L99.0627 135.19H115.713V140.691H104.753L104.186 146.717L104.921 146.57C105.774 146.374 106.831 146.276 108.091 146.276ZM142.777 150.538C142.777 155.899 141.895 159.868 140.131 162.443C138.381 165.019 135.68 166.306 132.027 166.306C128.485 166.306 125.812 164.977 124.006 162.317C122.214 159.658 121.319 155.731 121.319 150.538C121.319 145.121 122.193 141.132 123.943 138.571C125.693 135.995 128.387 134.707 132.027 134.707C135.568 134.707 138.241 136.051 140.047 138.739C141.867 141.426 142.777 145.359 142.777 150.538ZM127.764 150.538C127.764 154.304 128.086 157.005 128.73 158.643C129.388 160.267 130.487 161.078 132.027 161.078C133.538 161.078 134.63 160.253 135.302 158.601C135.974 156.949 136.31 154.262 136.31 150.538C136.31 146.773 135.967 144.072 135.281 142.434C134.609 140.782 133.524 139.956 132.027 139.956C130.501 139.956 129.409 140.782 128.751 142.434C128.093 144.072 127.764 146.773 127.764 150.538ZM167.342 150.538C167.342 155.899 166.46 159.868 164.697 162.443C162.947 165.019 160.245 166.306 156.592 166.306C153.051 166.306 150.377 164.977 148.572 162.317C146.78 159.658 145.884 155.731 145.884 150.538C145.884 145.121 146.759 141.132 148.509 138.571C150.258 135.995 152.953 134.707 156.592 134.707C160.133 134.707 162.807 136.051 164.613 138.739C166.432 141.426 167.342 145.359 167.342 150.538ZM152.33 150.538C152.33 154.304 152.652 157.005 153.296 158.643C153.954 160.267 155.052 161.078 156.592 161.078C158.104 161.078 159.196 160.253 159.867 158.601C160.539 156.949 160.875 154.262 160.875 150.538C160.875 146.773 160.532 144.072 159.846 142.434C159.175 140.782 158.09 139.956 156.592 139.956C155.066 139.956 153.975 140.782 153.317 142.434C152.659 144.072 152.33 146.773 152.33 150.538Z" fill="#EA69FF"/>
<defs>
<linearGradient id="paint0_linear" x1="134.694" y1="72.8396" x2="134.694" y2="229.85" gradientUnits="userSpaceOnUse">
<stop stop-color="#FF8BB3"/>
<stop offset="1" stop-color="#AF0732"/>
</linearGradient>
</defs>
</svg>
