<svg width="214" height="230" viewBox="0 0 214 230" fill="none" xmlns="http://www.w3.org/2000/svg">
<path d="M134.693 0.886475C117.896 0.886475 104.197 14.467 104.197 31.3831C104.197 48.1801 117.777 61.8798 134.693 61.8798C151.49 61.8798 165.19 48.2992 165.19 31.3831C165.071 14.5861 151.49 0.886475 134.693 0.886475ZM134.693 52.5878C123.019 52.5878 113.489 43.0576 113.489 31.3831C113.489 19.7086 123.019 10.1784 134.693 10.1784C146.368 10.1784 155.898 19.7086 155.898 31.3831C155.898 43.0576 146.368 52.5878 134.693 52.5878Z" fill="#B30E38"/>
<path d="M170.181 73.2034L166.505 80.1538L177.036 85.723L180.711 78.7726L170.181 73.2034Z" fill="#9C9B9B"/>
<path d="M175.555 81.2976C173.649 80.4637 172.1 79.2724 170.313 78.4385C169.598 78.0812 168.884 77.4855 168.407 76.8899L166.62 80.2254L177.222 85.8245L178.89 82.7271C177.699 82.1315 176.627 81.7741 175.555 81.2976Z" fill="#ECECEC"/>
<path d="M187.467 78.6768C186.157 81.1784 183.06 82.1314 180.558 80.821L168.526 74.3882C166.024 73.0778 165.071 69.9805 166.382 67.4788C167.692 64.9771 170.79 64.0241 173.291 65.3345L185.323 71.7673C187.944 73.1969 188.897 76.2942 187.467 78.6768Z" fill="#B1B1B1"/>
<path d="M175.912 75.2219C171.98 72.9585 168.883 70.2185 167.692 66.0491C167.215 66.4065 166.739 67.0021 166.5 67.5977C165.19 70.0994 166.143 73.1967 168.645 74.5071L180.677 80.94C182.583 81.893 184.727 81.6548 186.276 80.4635C182.583 79.2722 179.366 77.2471 175.912 75.2219Z" fill="#ECECEC"/>
<path d="M167.93 71.7675C167.811 72.0058 167.454 72.1249 167.216 72.0058C166.977 71.8867 166.858 71.5293 166.977 71.291L169.717 66.0494C169.836 65.8112 170.194 65.692 170.432 65.8111C170.67 65.9303 170.789 66.2877 170.67 66.5259L167.93 71.7675Z" fill="#5E5E5E"/>
<path d="M169.598 72.6013C169.479 72.8395 169.122 72.9586 168.883 72.8395C168.645 72.7204 168.526 72.363 168.645 72.1247L171.385 66.8831C171.504 66.6449 171.862 66.5257 172.1 66.6449C172.338 66.764 172.457 67.1214 172.338 67.3596L169.598 72.6013Z" fill="#5E5E5E"/>
<path d="M171.147 73.4352C171.028 73.6735 170.67 73.7926 170.432 73.6735C170.194 73.5543 170.075 73.197 170.194 72.9587L172.934 67.7171C173.053 67.4788 173.41 67.3597 173.648 67.4789C173.887 67.598 174.006 67.9553 173.887 68.1936L171.147 73.4352Z" fill="#5E5E5E"/>
<path d="M172.814 74.269C172.695 74.5072 172.337 74.6264 172.099 74.5072C171.861 74.3881 171.742 74.0307 171.861 73.7925L174.601 68.5509C174.72 68.3126 175.077 68.1935 175.315 68.3126C175.554 68.4317 175.673 68.7891 175.554 69.0274L172.814 74.269Z" fill="#5E5E5E"/>
<path d="M174.482 75.2221C174.363 75.4604 174.005 75.5795 173.767 75.4603C173.529 75.3412 173.41 74.9838 173.529 74.7456L176.269 69.504C176.388 69.2657 176.745 69.1466 176.984 69.2657C177.222 69.3849 177.341 69.7422 177.222 69.9805L174.482 75.2221Z" fill="#5E5E5E"/>
<path d="M176.15 76.0558C176.031 76.2941 175.674 76.4132 175.435 76.2941C175.197 76.175 175.078 75.8176 175.197 75.5793L177.937 70.3377C178.056 70.0995 178.414 69.9803 178.652 70.0995C178.89 70.2186 179.009 70.576 178.89 70.8142L176.15 76.0558Z" fill="#5E5E5E"/>
<path d="M177.699 76.8898C177.58 77.1281 177.222 77.2472 176.984 77.1281C176.746 77.0089 176.627 76.6516 176.746 76.4133L179.486 71.1717C179.605 70.9334 179.962 70.8143 180.2 70.9335C180.439 71.0526 180.558 71.41 180.439 71.6482L177.699 76.8898Z" fill="#5E5E5E"/>
<path d="M179.366 77.7238C179.247 77.9621 178.889 78.0812 178.651 77.9621C178.413 77.843 178.294 77.4856 178.413 77.2473L181.153 72.0057C181.272 71.7674 181.629 71.6483 181.867 71.7674C182.106 71.8866 182.225 72.244 182.106 72.4822L179.366 77.7238Z" fill="#5E5E5E"/>
<path d="M181.034 78.6767C180.915 78.915 180.557 79.0341 180.319 78.9149C180.081 78.7958 179.962 78.4384 180.081 78.2002L182.821 72.9586C182.94 72.7203 183.297 72.6012 183.536 72.7203C183.774 72.8394 183.893 73.1968 183.774 73.4351L181.034 78.6767Z" fill="#5E5E5E"/>
<path d="M182.702 79.5107C182.583 79.7489 182.226 79.8681 181.987 79.7489C181.749 79.6298 181.63 79.2724 181.749 79.0342L184.489 73.7926C184.608 73.5543 184.966 73.4352 185.204 73.5543C185.442 73.6734 185.561 74.0308 185.442 74.2691L182.702 79.5107Z" fill="#5E5E5E"/>
<path d="M184.251 80.3447C184.132 80.5829 183.774 80.7021 183.536 80.5829C183.298 80.4638 183.179 80.1064 183.298 79.8682L186.038 74.6266C186.157 74.3883 186.514 74.2692 186.752 74.3883C186.991 74.5074 187.11 74.8648 186.991 75.1031L184.251 80.3447Z" fill="#5E5E5E"/>
<path d="M99.141 73.1491L88.6101 78.717L92.285 85.6674L102.816 80.0994L99.141 73.1491Z" fill="#9C9B9B"/>
<path d="M101.576 79.6298C99.5508 80.5828 98.3595 81.0593 96.0961 81.1784C93.4753 81.2976 91.4501 80.1063 89.5441 78.5576L89.425 78.4385L88.7102 78.7959L92.4032 85.8244L103.006 80.2254L102.529 79.2724C102.052 79.2724 101.814 79.5106 101.576 79.6298Z" fill="#ECECEC"/>
<path d="M81.9199 78.6768C83.2303 81.1784 86.3276 82.1314 88.8293 80.821L100.861 74.3882C103.363 73.0778 104.316 69.9805 103.005 67.4788C101.695 64.9771 98.5978 64.0241 96.0961 65.3345L84.0642 71.7673C81.5625 73.1969 80.6095 76.2942 81.9199 78.6768Z" fill="#B1B1B1"/>
<path d="M81.8005 74.2689C81.2048 75.6985 81.0857 77.3663 81.9196 78.7958C83.23 81.2975 86.3273 82.2505 88.829 80.9401L100.861 74.5072C102.886 73.4351 103.958 71.1716 103.482 68.9082C97.1679 74.1498 89.3055 78.3193 81.8005 74.2689Z" fill="#ECECEC"/>
<path d="M101.576 71.7673C101.695 72.0055 102.053 72.1247 102.291 72.0055C102.529 71.8864 102.648 71.529 102.529 71.2908L99.7893 66.0492C99.6702 65.8109 99.3128 65.6918 99.0745 65.8109C98.8363 65.93 98.7172 66.2874 98.8363 66.5257L101.576 71.7673Z" fill="#5E5E5E"/>
<path d="M99.9092 72.6013C100.028 72.8395 100.386 72.9586 100.624 72.8395C100.862 72.7204 100.981 72.363 100.862 72.1247L98.1223 66.8831C98.0032 66.6449 97.6458 66.5257 97.4075 66.6449C97.1693 66.764 97.0502 67.1214 97.1693 67.3596L99.9092 72.6013Z" fill="#5E5E5E"/>
<path d="M98.241 73.4352C98.3601 73.6735 98.7175 73.7926 98.9558 73.6735C99.194 73.5543 99.3132 73.197 99.194 72.9587L96.4541 67.7171C96.335 67.4788 95.9776 67.3597 95.7393 67.4789C95.5011 67.598 95.382 67.9553 95.5011 68.1936L98.241 73.4352Z" fill="#5E5E5E"/>
<path d="M96.6924 74.269C96.8116 74.5072 97.1689 74.6264 97.4072 74.5072C97.6454 74.3881 97.7646 74.0307 97.6455 73.7925L94.9055 68.5509C94.7864 68.3126 94.429 68.1935 94.1908 68.3126C93.9525 68.4317 93.8334 68.7891 93.9525 69.0274L96.6924 74.269Z" fill="#5E5E5E"/>
<path d="M95.0242 75.2221C95.1433 75.4604 95.5007 75.5795 95.739 75.4603C95.9772 75.3412 96.0964 74.9838 95.9772 74.7456L93.2373 69.504C93.1182 69.2657 92.7608 69.1466 92.5225 69.2657C92.2843 69.3849 92.1652 69.7422 92.2843 69.9805L95.0242 75.2221Z" fill="#5E5E5E"/>
<path d="M93.3572 76.0558C93.4763 76.2941 93.8337 76.4132 94.072 76.2941C94.3102 76.175 94.4294 75.8176 94.3102 75.5793L91.5703 70.3377C91.4512 70.0995 91.0938 69.9803 90.8555 70.0995C90.6173 70.2186 90.4982 70.576 90.6173 70.8142L93.3572 76.0558Z" fill="#5E5E5E"/>
<path d="M91.689 76.8898C91.8081 77.1281 92.1655 77.2472 92.4038 77.1281C92.642 77.0089 92.7612 76.6516 92.642 76.4133L89.9021 71.1717C89.783 70.9334 89.4256 70.8143 89.1873 70.9335C88.9491 71.0526 88.83 71.41 88.9491 71.6482L91.689 76.8898Z" fill="#5E5E5E"/>
<path d="M90.0206 77.7238C90.1397 77.9621 90.4971 78.0812 90.7353 77.9621C90.9736 77.843 91.0927 77.4856 90.9736 77.2473L88.2336 72.0057C88.1145 71.7674 87.7571 71.6483 87.5189 71.7674C87.2806 71.8866 87.1615 72.244 87.2806 72.4822L90.0206 77.7238Z" fill="#5E5E5E"/>
<path d="M88.4722 78.6767C88.5913 78.915 88.9487 79.0341 89.187 78.9149C89.4252 78.7958 89.5444 78.4384 89.4252 78.2002L86.6853 72.9586C86.5662 72.7203 86.2088 72.6012 85.9705 72.7203C85.7323 72.8394 85.6132 73.1968 85.7323 73.4351L88.4722 78.6767Z" fill="#5E5E5E"/>
<path d="M86.8052 79.5107C86.9243 79.7489 87.2817 79.8681 87.52 79.7489C87.7582 79.6298 87.8774 79.2724 87.7582 79.0342L85.0183 73.7926C84.8992 73.5543 84.5418 73.4352 84.3035 73.5543C84.0653 73.6734 83.9462 74.0308 84.0653 74.2691L86.8052 79.5107Z" fill="#5E5E5E"/>
<path d="M85.1368 80.3447C85.2559 80.5829 85.6133 80.7021 85.8515 80.5829C86.0898 80.4638 86.2089 80.1064 86.0898 79.8682L83.3499 74.6266C83.2307 74.3883 82.8733 74.2692 82.6351 74.3883C82.3968 74.5074 82.2777 74.8648 82.3968 75.1031L85.1368 80.3447Z" fill="#5E5E5E"/>
<path d="M145.416 61.165H123.973V75.3412H145.416V61.165Z" fill="#9C9B9B"/>
<path d="M129.929 61.165H123.973V75.3412H129.929V61.165Z" fill="#ECECEC"/>
<path d="M213.199 151.345C213.199 194.707 178.056 229.85 134.694 229.85C91.3313 229.85 56.1887 194.707 56.1887 151.345C56.1887 107.982 91.3313 72.8396 134.694 72.8396C178.056 72.8396 213.199 107.982 213.199 151.345Z" fill="url(#paint0_linear)"/>
<path opacity="0.5" d="M116.229 81.0593C115.514 81.2976 114.799 81.4167 114.084 81.6549C152.682 72.8395 191.636 96.3076 201.643 134.905C211.65 173.502 189.135 212.933 151.133 224.012C151.848 223.893 152.562 223.655 153.277 223.536C192.589 213.291 216.177 173.145 206.051 133.714C195.806 94.4016 155.541 70.8143 116.229 81.0593Z" fill="white"/>
<path d="M200.81 151.345C200.81 187.917 171.266 217.46 134.694 217.46C98.122 217.46 68.5784 187.798 68.5784 151.345C68.5784 114.772 98.2411 85.2288 134.694 85.2288C171.147 85.2288 200.81 114.772 200.81 151.345Z" fill="#6F6F6E"/>
<path d="M197.236 151.345C197.236 185.892 169.241 213.887 134.694 213.887C100.147 213.887 72.1521 185.892 72.1521 151.345C72.1521 116.798 100.147 88.8027 134.694 88.8027C169.241 88.8027 197.236 116.798 197.236 151.345Z" fill="white"/>
<path d="M138.149 193.158H131.12V209.121H138.149V193.158Z" fill="#EA69FF"/>
<path d="M138.149 93.5676H131.121V109.531H138.149V93.5676Z" fill="#EA69FF"/>
<path d="M192.47 147.771H176.507V154.799H192.47V147.771Z" fill="#EA69FF"/>
<path d="M92.8803 147.771H76.9172V154.799H92.8803V147.771Z" fill="#EA69FF"/>
<path d="M106.96 100.603L102.876 103.058L109.322 113.778L113.406 111.323L106.96 100.603Z" fill="#B1B1B1"/>
<path d="M160.008 188.785L155.926 191.244L162.381 201.959L166.462 199.5L160.008 188.785Z" fill="#B1B1B1"/>
<path d="M84.8038 122.158L82.5732 126.369L93.7322 132.28L95.9627 128.069L84.8038 122.158Z" fill="#B1B1B1"/>
<path d="M175.804 170.402L173.569 174.611L184.616 180.479L186.851 176.27L175.804 170.402Z" fill="#B1B1B1"/>
<path d="M162.432 100.679L155.987 111.398L160.07 113.854L166.516 103.134L162.432 100.679Z" fill="#B1B1B1"/>
<path d="M109.278 188.885L102.822 199.599L106.903 202.058L113.36 191.345L109.278 188.885Z" fill="#B1B1B1"/>
<path d="M184.656 122.084L173.5 128L175.732 132.21L186.889 126.294L184.656 122.084Z" fill="#B1B1B1"/>
<path d="M93.5011 170.387L82.4524 176.25L84.6859 180.459L95.7346 174.596L93.5011 170.387Z" fill="#B1B1B1"/>
<path d="M156.018 55.5659C156.018 60.5693 151.968 64.7387 146.845 64.7387H122.424C117.421 64.7387 113.251 60.6884 113.251 55.5659C113.251 50.5625 117.302 46.3931 122.424 46.3931H146.964C151.968 46.3931 156.018 50.4434 156.018 55.5659Z" fill="#B1B1B1"/>
<path d="M132.43 58.7825C125.163 57.3529 119.207 55.0895 117.778 47.7036C115.157 49.2523 113.37 52.2305 113.37 55.566C113.37 60.5694 117.42 64.7388 122.543 64.7388H147.083C151.014 64.7388 154.35 62.2372 155.66 58.7825C147.917 61.0459 140.054 60.3311 132.43 58.7825Z" fill="#ECECEC"/>
<path d="M119.088 60.8076C119.088 61.4032 118.612 61.7606 118.135 61.7606C117.54 61.7606 117.182 61.2841 117.182 60.8076V50.2052C117.182 49.6096 117.659 49.2522 118.135 49.2522C118.731 49.2522 119.088 49.7287 119.088 50.2052V60.8076Z" fill="#5E5E5E"/>
<path d="M122.424 60.8076C122.424 61.4032 121.947 61.7606 121.471 61.7606C120.875 61.7606 120.518 61.2841 120.518 60.8076V50.2052C120.518 49.6096 120.994 49.2522 121.471 49.2522C122.066 49.2522 122.424 49.7287 122.424 50.2052V60.8076Z" fill="#5E5E5E"/>
<path d="M125.64 60.8076C125.64 61.4032 125.164 61.7606 124.687 61.7606C124.092 61.7606 123.734 61.2841 123.734 60.8076V50.2052C123.734 49.6096 124.211 49.2522 124.687 49.2522C125.283 49.2522 125.64 49.7287 125.64 50.2052V60.8076Z" fill="#5E5E5E"/>
<path d="M128.976 60.8076C128.976 61.4032 128.499 61.7606 128.023 61.7606C127.427 61.7606 127.07 61.2841 127.07 60.8076V50.2052C127.07 49.6096 127.546 49.2522 128.023 49.2522C128.618 49.2522 128.976 49.7287 128.976 50.2052V60.8076Z" fill="#5E5E5E"/>
<path d="M132.311 60.8076C132.311 61.4032 131.834 61.7606 131.358 61.7606C130.762 61.7606 130.405 61.2841 130.405 60.8076V50.2052C130.405 49.6096 130.881 49.2522 131.358 49.2522C131.953 49.2522 132.311 49.7287 132.311 50.2052V60.8076Z" fill="#5E5E5E"/>
<path d="M135.647 60.8076C135.647 61.4032 135.171 61.7606 134.694 61.7606C134.099 61.7606 133.741 61.2841 133.741 60.8076V50.2052C133.741 49.6096 134.218 49.2522 134.694 49.2522C135.29 49.2522 135.647 49.7287 135.647 50.2052V60.8076Z" fill="#5E5E5E"/>
<path d="M138.983 60.8076C138.983 61.4032 138.506 61.7606 138.03 61.7606C137.434 61.7606 137.077 61.2841 137.077 60.8076V50.2052C137.077 49.6096 137.553 49.2522 138.03 49.2522C138.625 49.2522 138.983 49.7287 138.983 50.2052V60.8076Z" fill="#5E5E5E"/>
<path d="M142.318 60.8076C142.318 61.4032 141.842 61.7606 141.365 61.7606C140.769 61.7606 140.412 61.2841 140.412 60.8076V50.2052C140.412 49.6096 140.889 49.2522 141.365 49.2522C141.961 49.2522 142.318 49.7287 142.318 50.2052V60.8076Z" fill="#5E5E5E"/>
<path d="M145.653 60.8076C145.653 61.4032 145.177 61.7606 144.7 61.7606C144.105 61.7606 143.747 61.2841 143.747 60.8076V50.2052C143.747 49.6096 144.224 49.2522 144.7 49.2522C145.296 49.2522 145.653 49.7287 145.653 50.2052V60.8076Z" fill="#5E5E5E"/>
<path d="M148.989 60.8076C148.989 61.4032 148.512 61.7606 148.036 61.7606C147.44 61.7606 147.083 61.2841 147.083 60.8076V50.2052C147.083 49.6096 147.559 49.2522 148.036 49.2522C148.631 49.2522 148.989 49.7287 148.989 50.2052V60.8076Z" fill="#5E5E5E"/>
<path d="M152.325 60.8076C152.325 61.4032 151.849 61.7606 151.372 61.7606C150.777 61.7606 150.419 61.2841 150.419 60.8076V50.2052C150.419 49.6096 150.896 49.2522 151.372 49.2522C151.968 49.2522 152.325 49.7287 152.325 50.2052V60.8076Z" fill="#5E5E5E"/>
<path d="M30.1982 151.448H0.198975" stroke="white" stroke-width="10" stroke-miterlimit="10"/>
<path d="M43.2082 112.051L20.4377 99.7622" stroke="white" stroke-width="10" stroke-miterlimit="10"/>
<path d="M41.041 188.677L19.3547 208.918" stroke="white" stroke-width="10" stroke-miterlimit="10"/>
<path d="M120.608 146.276C123.575 146.276 125.934 147.109 127.683 148.775C129.447 150.44 130.329 152.722 130.329 155.619C130.329 159.049 129.272 161.687 127.158 163.535C125.045 165.383 122.021 166.306 118.088 166.306C114.673 166.306 111.915 165.753 109.816 164.648V159.042C110.921 159.63 112.209 160.113 113.679 160.49C115.149 160.854 116.541 161.036 117.857 161.036C121.818 161.036 123.799 159.413 123.799 156.165C123.799 153.072 121.748 151.525 117.647 151.525C116.905 151.525 116.087 151.602 115.191 151.756C114.295 151.896 113.567 152.05 113.007 152.218L110.425 150.832L111.579 135.19H128.229V140.691H117.269L116.702 146.717L117.437 146.57C118.291 146.374 119.348 146.276 120.608 146.276ZM160.836 165.886H153.446L145.404 152.953L142.654 154.927V165.886H136.145V135.19H142.654V149.237L145.215 145.625L153.53 135.19H160.752L150.044 148.775L160.836 165.886Z" fill="#EA69FF"/>
<defs>
<linearGradient id="paint0_linear" x1="134.694" y1="72.8396" x2="134.694" y2="229.85" gradientUnits="userSpaceOnUse">
<stop stop-color="#FF8BB3"/>
<stop offset="1" stop-color="#AF0732"/>
</linearGradient>
</defs>
</svg>
