<svg width="251" height="269" viewBox="0 0 251 269" fill="none" xmlns="http://www.w3.org/2000/svg">
<path d="M158.054 0C138.34 0 122.26 15.9396 122.26 35.7942C122.26 55.509 138.2 71.5885 158.054 71.5885C177.769 71.5885 193.849 55.6488 193.849 35.7942C193.709 16.0794 177.769 0 158.054 0ZM158.054 60.6824C144.352 60.6824 133.166 49.4967 133.166 35.7942C133.166 22.0917 144.352 10.9061 158.054 10.9061C171.757 10.9061 182.943 22.0917 182.943 35.7942C182.943 49.4967 171.757 60.6824 158.054 60.6824Z" fill="#B30E38"/>
<path d="M199.707 84.8791L195.393 93.0369L207.753 99.5735L212.067 91.4158L199.707 84.8791Z" fill="#9C9B9B"/>
<path d="M206.014 94.3794C203.777 93.4007 201.959 92.0025 199.862 91.0237C199.023 90.6042 198.184 89.9052 197.625 89.2061L195.527 93.121L207.971 99.6926L209.929 96.0573C208.531 95.3582 207.272 94.9387 206.014 94.3794Z" fill="#ECECEC"/>
<path d="M219.996 91.3033C218.458 94.2396 214.823 95.3581 211.887 93.8201L197.765 86.2697C194.828 84.7317 193.71 81.0964 195.248 78.1601C196.786 75.2239 200.421 74.1053 203.357 75.6433L217.479 83.1937C220.555 84.8715 221.674 88.5069 219.996 91.3033Z" fill="#B1B1B1"/>
<path d="M206.432 87.2484C201.818 84.5918 198.183 81.3759 196.785 76.4822C196.225 76.9016 195.666 77.6007 195.386 78.2998C193.848 81.2361 194.967 84.8715 197.903 86.4095L212.025 93.9598C214.262 95.0784 216.779 94.7988 218.597 93.4006C214.262 92.0023 210.487 89.6254 206.432 87.2484Z" fill="#ECECEC"/>
<path d="M197.066 83.1936C196.926 83.4733 196.506 83.6131 196.227 83.4733C195.947 83.3335 195.807 82.914 195.947 82.6343L199.163 76.4822C199.303 76.2026 199.722 76.0627 200.002 76.2026C200.281 76.3424 200.421 76.7618 200.281 77.0415L197.066 83.1936Z" fill="#5E5E5E"/>
<path d="M199.024 84.1724C198.884 84.452 198.464 84.5919 198.185 84.452C197.905 84.3122 197.765 83.8927 197.905 83.6131L201.121 77.461C201.261 77.1813 201.68 77.0415 201.96 77.1813C202.239 77.3211 202.379 77.7406 202.239 78.0203L199.024 84.1724Z" fill="#5E5E5E"/>
<path d="M200.84 85.1511C200.7 85.4308 200.281 85.5706 200.001 85.4308C199.721 85.2909 199.582 84.8715 199.721 84.5918L202.937 78.4397C203.077 78.1601 203.497 78.0203 203.776 78.1601C204.056 78.2999 204.196 78.7193 204.056 78.999L200.84 85.1511Z" fill="#5E5E5E"/>
<path d="M202.798 86.1297C202.658 86.4093 202.239 86.5491 201.959 86.4093C201.679 86.2695 201.54 85.85 201.679 85.5704L204.895 79.4182C205.035 79.1386 205.455 78.9988 205.734 79.1386C206.014 79.2784 206.154 79.6979 206.014 79.9775L202.798 86.1297Z" fill="#5E5E5E"/>
<path d="M204.755 87.2486C204.616 87.5282 204.196 87.668 203.917 87.5282C203.637 87.3884 203.497 86.9689 203.637 86.6892L206.853 80.5371C206.993 80.2575 207.412 80.1177 207.692 80.2575C207.971 80.3973 208.111 80.8167 207.971 81.0964L204.755 87.2486Z" fill="#5E5E5E"/>
<path d="M206.713 88.2271C206.573 88.5067 206.154 88.6465 205.874 88.5067C205.594 88.3669 205.455 87.9474 205.594 87.6678L208.81 81.5157C208.95 81.236 209.37 81.0962 209.649 81.236C209.929 81.3758 210.069 81.7953 209.929 82.0749L206.713 88.2271Z" fill="#5E5E5E"/>
<path d="M208.531 89.2058C208.391 89.4855 207.972 89.6253 207.692 89.4854C207.412 89.3456 207.272 88.9262 207.412 88.6466L210.628 82.4944C210.768 82.2147 211.187 82.0749 211.467 82.2148C211.747 82.3546 211.887 82.7741 211.747 83.0537L208.531 89.2058Z" fill="#5E5E5E"/>
<path d="M210.488 90.1848C210.348 90.4645 209.929 90.6043 209.649 90.4645C209.369 90.3247 209.229 89.9052 209.369 89.6256L212.585 83.4734C212.725 83.1938 213.144 83.0539 213.424 83.1938C213.704 83.3336 213.844 83.7531 213.704 84.0327L210.488 90.1848Z" fill="#5E5E5E"/>
<path d="M212.445 91.3032C212.306 91.5829 211.886 91.7227 211.606 91.5829C211.327 91.443 211.187 91.0236 211.327 90.744L214.543 84.5918C214.683 84.3122 215.102 84.1724 215.382 84.3122C215.661 84.452 215.801 84.8715 215.661 85.1511L212.445 91.3032Z" fill="#5E5E5E"/>
<path d="M214.403 92.282C214.263 92.5616 213.844 92.7015 213.564 92.5617C213.284 92.4218 213.145 92.0024 213.284 91.7227L216.5 85.5706C216.64 85.291 217.06 85.1511 217.339 85.2909C217.619 85.4308 217.759 85.8502 217.619 86.1299L214.403 92.282Z" fill="#5E5E5E"/>
<path d="M216.221 93.2608C216.081 93.5404 215.661 93.6802 215.382 93.5404C215.102 93.4006 214.962 92.9811 215.102 92.7015L218.318 86.5494C218.458 86.2697 218.877 86.1299 219.157 86.2697C219.437 86.4095 219.577 86.829 219.437 87.1086L216.221 93.2608Z" fill="#5E5E5E"/>
<path d="M116.327 84.8153L103.967 91.3506L108.28 99.5083L120.64 92.9731L116.327 84.8153Z" fill="#9C9B9B"/>
<path d="M119.184 92.4219C116.807 93.5405 115.409 94.0998 112.752 94.2396C109.676 94.3794 107.299 92.9812 105.062 91.1635L104.922 91.0237L104.083 91.4432L108.418 99.6926L120.862 93.121L120.303 92.0024C119.743 92.0024 119.464 92.2821 119.184 92.4219Z" fill="#ECECEC"/>
<path d="M96.1135 91.3033C97.6516 94.2396 101.287 95.3581 104.223 93.8201L118.345 86.2697C121.281 84.7317 122.4 81.0964 120.862 78.1601C119.324 75.2239 115.689 74.1053 112.752 75.6433L98.6303 83.1937C95.6941 84.8715 94.5755 88.5069 96.1135 91.3033Z" fill="#B1B1B1"/>
<path d="M95.9743 86.1298C95.2752 87.8077 95.1354 89.7652 96.1141 91.4431C97.6522 94.3793 101.288 95.4979 104.224 93.9598L118.346 86.4095C120.723 85.1511 121.981 82.4945 121.422 79.8379C114.011 85.99 104.783 90.8838 95.9743 86.1298Z" fill="#ECECEC"/>
<path d="M119.184 83.1936C119.324 83.4733 119.744 83.6131 120.023 83.4733C120.303 83.3335 120.443 82.914 120.303 82.6343L117.087 76.4822C116.947 76.2026 116.528 76.0627 116.248 76.2026C115.968 76.3424 115.829 76.7618 115.968 77.0415L119.184 83.1936Z" fill="#5E5E5E"/>
<path d="M117.228 84.1724C117.368 84.452 117.787 84.5919 118.067 84.452C118.346 84.3122 118.486 83.8927 118.346 83.6131L115.13 77.461C114.991 77.1813 114.571 77.0415 114.292 77.1813C114.012 77.3211 113.872 77.7406 114.012 78.0203L117.228 84.1724Z" fill="#5E5E5E"/>
<path d="M115.27 85.1511C115.41 85.4308 115.829 85.5706 116.109 85.4308C116.388 85.2909 116.528 84.8715 116.388 84.5918L113.172 78.4397C113.033 78.1601 112.613 78.0203 112.334 78.1601C112.054 78.2999 111.914 78.7193 112.054 78.999L115.27 85.1511Z" fill="#5E5E5E"/>
<path d="M113.452 86.1297C113.592 86.4093 114.011 86.5491 114.291 86.4093C114.57 86.2695 114.71 85.85 114.57 85.5704L111.355 79.4182C111.215 79.1386 110.795 78.9988 110.516 79.1386C110.236 79.2784 110.096 79.6979 110.236 79.9775L113.452 86.1297Z" fill="#5E5E5E"/>
<path d="M111.494 87.2486C111.634 87.5282 112.054 87.668 112.333 87.5282C112.613 87.3884 112.753 86.9689 112.613 86.6892L109.397 80.5371C109.257 80.2575 108.838 80.1177 108.558 80.2575C108.278 80.3973 108.139 80.8167 108.278 81.0964L111.494 87.2486Z" fill="#5E5E5E"/>
<path d="M109.538 88.2271C109.678 88.5067 110.097 88.6465 110.377 88.5067C110.656 88.3669 110.796 87.9474 110.656 87.6678L107.441 81.5157C107.301 81.236 106.881 81.0962 106.602 81.236C106.322 81.3758 106.182 81.7953 106.322 82.0749L109.538 88.2271Z" fill="#5E5E5E"/>
<path d="M107.579 89.2058C107.719 89.4855 108.138 89.6253 108.418 89.4854C108.697 89.3456 108.837 88.9262 108.697 88.6466L105.482 82.4944C105.342 82.2147 104.922 82.0749 104.643 82.2148C104.363 82.3546 104.223 82.7741 104.363 83.0537L107.579 89.2058Z" fill="#5E5E5E"/>
<path d="M105.621 90.1848C105.761 90.4645 106.181 90.6043 106.46 90.4645C106.74 90.3247 106.88 89.9052 106.74 89.6256L103.524 83.4734C103.384 83.1938 102.965 83.0539 102.685 83.1938C102.405 83.3336 102.266 83.7531 102.405 84.0327L105.621 90.1848Z" fill="#5E5E5E"/>
<path d="M103.803 91.3032C103.943 91.5829 104.363 91.7227 104.642 91.5829C104.922 91.443 105.062 91.0236 104.922 90.744L101.706 84.5918C101.566 84.3122 101.147 84.1724 100.867 84.3122C100.588 84.452 100.448 84.8715 100.588 85.1511L103.803 91.3032Z" fill="#5E5E5E"/>
<path d="M101.847 92.282C101.987 92.5616 102.406 92.7015 102.686 92.5617C102.965 92.4218 103.105 92.0024 102.965 91.7227L99.7496 85.5706C99.6098 85.291 99.1903 85.1511 98.9107 85.2909C98.631 85.4308 98.4912 85.8502 98.631 86.1299L101.847 92.282Z" fill="#5E5E5E"/>
<path d="M99.8889 93.2608C100.029 93.5404 100.448 93.6802 100.728 93.5404C101.007 93.4006 101.147 92.9811 101.007 92.7015L97.7916 86.5494C97.6518 86.2697 97.2323 86.1299 96.9527 86.2697C96.673 86.4095 96.5332 86.829 96.673 87.1086L99.8889 93.2608Z" fill="#5E5E5E"/>
<path d="M170.64 70.7495H145.472V87.3882H170.64V70.7495Z" fill="#9C9B9B"/>
<path d="M152.463 70.7495H145.472V87.3882H152.463V70.7495Z" fill="#ECECEC"/>
<path d="M250.197 176.594C250.197 227.489 208.95 268.736 158.055 268.736C107.16 268.736 65.9126 227.489 65.9126 176.594C65.9126 125.699 107.16 84.4519 158.055 84.4519C208.95 84.4519 250.197 125.699 250.197 176.594Z" fill="url(#paint0_linear)"/>
<path opacity="0.5" d="M136.382 94.0996C135.543 94.3793 134.704 94.5191 133.865 94.7987C179.167 84.452 224.889 111.997 236.634 157.299C248.379 202.601 221.953 248.882 177.35 261.885C178.189 261.745 179.027 261.466 179.866 261.326C226.007 249.301 253.692 202.181 241.807 155.901C229.783 109.76 182.523 82.075 136.382 94.0996Z" fill="white"/>
<path d="M235.656 176.594C235.656 219.519 200.98 254.195 158.055 254.195C115.13 254.195 80.4546 219.379 80.4546 176.594C80.4546 133.669 115.27 98.9934 158.055 98.9934C200.841 98.9934 235.656 133.669 235.656 176.594Z" fill="#6F6F6E"/>
<path d="M231.462 176.594C231.462 217.142 198.604 250 158.056 250C117.508 250 84.6499 217.142 84.6499 176.594C84.6499 136.046 117.508 103.188 158.056 103.188C198.604 103.188 231.462 136.046 231.462 176.594Z" fill="white"/>
<path d="M162.11 225.671H153.861V244.407H162.11V225.671Z" fill="#EA69FF"/>
<path d="M162.111 108.781H153.862V127.517H162.111V108.781Z" fill="#EA69FF"/>
<path d="M225.867 172.4H207.131V180.649H225.867V172.4Z" fill="#EA69FF"/>
<path d="M108.978 172.4H90.2422V180.649H108.978V172.4Z" fill="#EA69FF"/>
<path d="M125.503 117.038L120.71 119.92L128.275 132.502L133.068 129.62L125.503 117.038Z" fill="#B1B1B1"/>
<path d="M187.766 220.539L182.975 223.425L190.551 236.001L195.341 233.115L187.766 220.539Z" fill="#B1B1B1"/>
<path d="M99.4984 142.337L96.8804 147.28L109.978 154.217L112.596 149.275L99.4984 142.337Z" fill="#B1B1B1"/>
<path d="M206.306 198.962L203.683 203.902L216.649 210.789L219.273 205.85L206.306 198.962Z" fill="#B1B1B1"/>
<path d="M190.612 117.127L183.047 129.709L187.84 132.591L195.405 120.009L190.612 117.127Z" fill="#B1B1B1"/>
<path d="M128.225 220.656L120.646 233.231L125.437 236.118L133.015 223.543L128.225 220.656Z" fill="#B1B1B1"/>
<path d="M216.697 142.251L203.603 149.194L206.223 154.135L219.317 147.192L216.697 142.251Z" fill="#B1B1B1"/>
<path d="M109.707 198.944L96.7388 205.825L99.3602 210.766L112.328 203.885L109.707 198.944Z" fill="#B1B1B1"/>
<path d="M183.084 64.1779C183.084 70.0504 178.33 74.9441 172.317 74.9441H143.654C137.781 74.9441 132.888 70.1902 132.888 64.1779C132.888 58.3054 137.642 53.4116 143.654 53.4116H172.457C178.33 53.4116 183.084 58.1656 183.084 64.1779Z" fill="#B1B1B1"/>
<path d="M155.399 67.9531C146.87 66.2752 139.879 63.6186 138.201 54.9497C135.125 56.7674 133.027 60.2629 133.027 64.1779C133.027 70.0504 137.781 74.9441 143.794 74.9441H172.597C177.211 74.9441 181.126 72.0079 182.664 67.9531C173.576 70.6097 164.347 69.7707 155.399 67.9531Z" fill="#ECECEC"/>
<path d="M139.738 70.33C139.738 71.0291 139.179 71.4486 138.62 71.4486C137.92 71.4486 137.501 70.8893 137.501 70.33V57.8859C137.501 57.1868 138.06 56.7673 138.62 56.7673C139.319 56.7673 139.738 57.3266 139.738 57.8859V70.33Z" fill="#5E5E5E"/>
<path d="M143.652 70.33C143.652 71.0291 143.093 71.4486 142.534 71.4486C141.835 71.4486 141.415 70.8893 141.415 70.33V57.8859C141.415 57.1868 141.974 56.7673 142.534 56.7673C143.233 56.7673 143.652 57.3266 143.652 57.8859V70.33Z" fill="#5E5E5E"/>
<path d="M147.428 70.33C147.428 71.0291 146.869 71.4486 146.309 71.4486C145.61 71.4486 145.191 70.8893 145.191 70.33V57.8859C145.191 57.1868 145.75 56.7673 146.309 56.7673C147.009 56.7673 147.428 57.3266 147.428 57.8859V70.33Z" fill="#5E5E5E"/>
<path d="M151.344 70.33C151.344 71.0291 150.784 71.4486 150.225 71.4486C149.526 71.4486 149.106 70.8893 149.106 70.33V57.8859C149.106 57.1868 149.666 56.7673 150.225 56.7673C150.924 56.7673 151.344 57.3266 151.344 57.8859V70.33Z" fill="#5E5E5E"/>
<path d="M155.258 70.33C155.258 71.0291 154.698 71.4486 154.139 71.4486C153.44 71.4486 153.021 70.8893 153.021 70.33V57.8859C153.021 57.1868 153.58 56.7673 154.139 56.7673C154.838 56.7673 155.258 57.3266 155.258 57.8859V70.33Z" fill="#5E5E5E"/>
<path d="M159.174 70.33C159.174 71.0291 158.615 71.4486 158.056 71.4486C157.356 71.4486 156.937 70.8893 156.937 70.33V57.8859C156.937 57.1868 157.496 56.7673 158.056 56.7673C158.755 56.7673 159.174 57.3266 159.174 57.8859V70.33Z" fill="#5E5E5E"/>
<path d="M163.089 70.33C163.089 71.0291 162.529 71.4486 161.97 71.4486C161.271 71.4486 160.852 70.8893 160.852 70.33V57.8859C160.852 57.1868 161.411 56.7673 161.97 56.7673C162.669 56.7673 163.089 57.3266 163.089 57.8859V70.33Z" fill="#5E5E5E"/>
<path d="M167.003 70.33C167.003 71.0291 166.443 71.4486 165.884 71.4486C165.185 71.4486 164.766 70.8893 164.766 70.33V57.8859C164.766 57.1868 165.325 56.7673 165.884 56.7673C166.583 56.7673 167.003 57.3266 167.003 57.8859V70.33Z" fill="#5E5E5E"/>
<path d="M170.918 70.33C170.918 71.0291 170.359 71.4486 169.8 71.4486C169.101 71.4486 168.681 70.8893 168.681 70.33V57.8859C168.681 57.1868 169.24 56.7673 169.8 56.7673C170.499 56.7673 170.918 57.3266 170.918 57.8859V70.33Z" fill="#5E5E5E"/>
<path d="M174.832 70.33C174.832 71.0291 174.273 71.4486 173.714 71.4486C173.015 71.4486 172.595 70.8893 172.595 70.33V57.8859C172.595 57.1868 173.154 56.7673 173.714 56.7673C174.413 56.7673 174.832 57.3266 174.832 57.8859V70.33Z" fill="#5E5E5E"/>
<path d="M178.749 70.33C178.749 71.0291 178.19 71.4486 177.63 71.4486C176.931 71.4486 176.512 70.8893 176.512 70.33V57.8859C176.512 57.1868 177.071 56.7673 177.63 56.7673C178.329 56.7673 178.749 57.3266 178.749 57.8859V70.33Z" fill="#5E5E5E"/>
<path d="M35.4077 176.716H0.197266" stroke="white" stroke-width="10" stroke-miterlimit="10"/>
<path d="M50.6781 130.475L23.9521 116.052" stroke="white" stroke-width="10" stroke-miterlimit="10"/>
<path d="M48.1345 220.412L22.6812 244.169" stroke="white" stroke-width="10" stroke-miterlimit="10"/>
<path d="M141.207 192.773H134.417V174.185L134.483 171.13L134.593 167.791C133.465 168.918 132.681 169.658 132.242 170.01L128.55 172.976L125.276 168.889L135.625 160.649H141.207V192.773ZM165.97 192.773L158.235 167.571H158.038C158.316 172.698 158.455 176.118 158.455 177.832V192.773H152.369V160.649H161.641L169.244 185.215H169.375L177.439 160.649H186.712V192.773H180.362V177.568C180.362 176.851 180.369 176.023 180.384 175.085C180.413 174.148 180.516 171.658 180.691 167.615H180.494L172.21 192.773H165.97Z" fill="#EA69FF"/>
<defs>
<linearGradient id="paint0_linear" x1="158.055" y1="84.4519" x2="158.055" y2="268.736" gradientUnits="userSpaceOnUse">
<stop stop-color="#FF8BB3"/>
<stop offset="1" stop-color="#AF0732"/>
</linearGradient>
</defs>
</svg>
