<svg width="180" height="193" viewBox="0 0 180 193" fill="none" xmlns="http://www.w3.org/2000/svg">
<path d="M113.7 0.268066C99.6001 0.268066 88.1001 11.6681 88.1001 25.8681C88.1001 39.9681 99.5001 51.4681 113.7 51.4681C127.8 51.4681 139.3 40.0681 139.3 25.8681C139.2 11.7681 127.8 0.268066 113.7 0.268066ZM113.7 43.6681C103.9 43.6681 95.9001 35.6681 95.9001 25.8681C95.9001 16.0681 103.9 8.06807 113.7 8.06807C123.5 8.06807 131.5 16.0681 131.5 25.8681C131.5 35.6681 123.5 43.6681 113.7 43.6681Z" fill="#B30E38"/>
<path d="M143.489 60.9734L140.404 66.8079L149.244 71.4829L152.329 65.6485L143.489 60.9734Z" fill="#9C9B9B"/>
<path d="M148 67.7681C146.4 67.0681 145.1 66.0681 143.6 65.3681C143 65.0681 142.4 64.5681 142 64.0681L140.5 66.8681L149.4 71.5681L150.8 68.9681C149.8 68.4681 148.9 68.1681 148 67.7681Z" fill="#ECECEC"/>
<path d="M158 65.568C156.9 67.668 154.3 68.468 152.2 67.368L142.1 61.968C140 60.868 139.2 58.2681 140.3 56.1681C141.4 54.0681 144 53.268 146.1 54.368L156.2 59.768C158.4 60.968 159.2 63.568 158 65.568Z" fill="#B1B1B1"/>
<path d="M148.3 62.668C145 60.768 142.4 58.468 141.4 54.968C141 55.268 140.6 55.768 140.4 56.268C139.3 58.368 140.1 60.968 142.2 62.068L152.3 67.468C153.9 68.268 155.7 68.068 157 67.068C153.9 66.068 151.2 64.368 148.3 62.668Z" fill="#ECECEC"/>
<path d="M141.6 59.768C141.5 59.968 141.2 60.068 141 59.968C140.8 59.868 140.7 59.568 140.8 59.368L143.1 54.968C143.2 54.768 143.5 54.668 143.7 54.768C143.9 54.868 144 55.168 143.9 55.368L141.6 59.768Z" fill="#5E5E5E"/>
<path d="M143 60.4682C142.9 60.6682 142.6 60.7682 142.4 60.6682C142.2 60.5682 142.1 60.2682 142.2 60.0682L144.5 55.6682C144.6 55.4682 144.9 55.3682 145.1 55.4682C145.3 55.5682 145.4 55.8682 145.3 56.0682L143 60.4682Z" fill="#5E5E5E"/>
<path d="M144.3 61.1681C144.2 61.3681 143.9 61.4681 143.7 61.3681C143.5 61.2681 143.4 60.9681 143.5 60.7681L145.8 56.3681C145.9 56.1681 146.2 56.0681 146.4 56.1681C146.6 56.2681 146.7 56.5681 146.6 56.7681L144.3 61.1681Z" fill="#5E5E5E"/>
<path d="M145.7 61.8681C145.6 62.0681 145.3 62.1681 145.1 62.0681C144.9 61.9681 144.8 61.6681 144.9 61.4681L147.2 57.0681C147.3 56.8681 147.6 56.7681 147.8 56.8681C148 56.9681 148.1 57.2681 148 57.4681L145.7 61.8681Z" fill="#5E5E5E"/>
<path d="M147.1 62.6681C147 62.8681 146.7 62.9681 146.5 62.8681C146.3 62.7681 146.2 62.4681 146.3 62.2681L148.6 57.8681C148.7 57.6681 149 57.5681 149.2 57.6681C149.4 57.7681 149.5 58.0681 149.4 58.2681L147.1 62.6681Z" fill="#5E5E5E"/>
<path d="M148.5 63.3681C148.4 63.5681 148.1 63.6681 147.9 63.5681C147.7 63.4681 147.6 63.1681 147.7 62.9681L150 58.5681C150.1 58.3681 150.4 58.2681 150.6 58.3681C150.8 58.4681 150.9 58.7681 150.8 58.9681L148.5 63.3681Z" fill="#5E5E5E"/>
<path d="M149.8 64.068C149.7 64.268 149.4 64.368 149.2 64.268C149 64.168 148.9 63.868 149 63.668L151.3 59.268C151.4 59.068 151.7 58.968 151.9 59.068C152.1 59.168 152.2 59.468 152.1 59.668L149.8 64.068Z" fill="#5E5E5E"/>
<path d="M151.2 64.768C151.1 64.968 150.8 65.068 150.6 64.968C150.4 64.868 150.3 64.568 150.4 64.368L152.7 59.968C152.8 59.768 153.1 59.668 153.3 59.768C153.5 59.868 153.6 60.168 153.5 60.368L151.2 64.768Z" fill="#5E5E5E"/>
<path d="M152.6 65.568C152.5 65.768 152.2 65.868 152 65.768C151.8 65.668 151.7 65.368 151.8 65.168L154.1 60.768C154.2 60.568 154.5 60.468 154.7 60.568C154.9 60.668 155 60.968 154.9 61.168L152.6 65.568Z" fill="#5E5E5E"/>
<path d="M154 66.268C153.9 66.468 153.6 66.568 153.4 66.468C153.2 66.368 153.1 66.068 153.2 65.868L155.5 61.468C155.6 61.268 155.9 61.168 156.1 61.268C156.3 61.368 156.4 61.668 156.3 61.868L154 66.268Z" fill="#5E5E5E"/>
<path d="M155.3 66.9682C155.2 67.1682 154.9 67.2682 154.7 67.1682C154.5 67.0682 154.4 66.7682 154.5 66.5682L156.8 62.1682C156.9 61.9682 157.2 61.8682 157.4 61.9682C157.6 62.0682 157.7 62.3682 157.6 62.5682L155.3 66.9682Z" fill="#5E5E5E"/>
<path d="M83.8563 60.928L75.0164 65.6021L78.1011 71.4365L86.9411 66.7624L83.8563 60.928Z" fill="#9C9B9B"/>
<path d="M85.9001 66.3682C84.2001 67.1682 83.2001 67.5682 81.3001 67.6682C79.1001 67.7682 77.4001 66.7682 75.8001 65.4682L75.7001 65.3682L75.1001 65.6682L78.2001 71.5682L87.1001 66.8682L86.7001 66.0682C86.3001 66.0682 86.1001 66.2682 85.9001 66.3682Z" fill="#ECECEC"/>
<path d="M69.4 65.568C70.5 67.668 73.1 68.468 75.2 67.368L85.3 61.968C87.4 60.868 88.2 58.2681 87.1 56.1681C86 54.0681 83.4 53.268 81.3 54.368L71.2 59.768C69.1 60.968 68.3 63.568 69.4 65.568Z" fill="#B1B1B1"/>
<path d="M69.2999 61.8682C68.7999 63.0682 68.6999 64.4682 69.3999 65.6682C70.4999 67.7682 73.0999 68.5682 75.1999 67.4682L85.2999 62.0682C86.9999 61.1682 87.8999 59.2682 87.4999 57.3682C82.1999 61.7682 75.5999 65.2682 69.2999 61.8682Z" fill="#ECECEC"/>
<path d="M85.9 59.768C86 59.968 86.3 60.068 86.5 59.968C86.7 59.868 86.8 59.568 86.7 59.368L84.4 54.968C84.3 54.768 84 54.668 83.8 54.768C83.6 54.868 83.5 55.168 83.6 55.368L85.9 59.768Z" fill="#5E5E5E"/>
<path d="M84.4999 60.4682C84.5999 60.6682 84.8999 60.7682 85.0999 60.6682C85.2999 60.5682 85.3999 60.2682 85.2999 60.0682L82.9999 55.6682C82.8999 55.4682 82.5999 55.3682 82.3999 55.4682C82.1999 55.5682 82.0999 55.8682 82.1999 56.0682L84.4999 60.4682Z" fill="#5E5E5E"/>
<path d="M83.1 61.1681C83.2 61.3681 83.5 61.4681 83.7 61.3681C83.9 61.2681 84 60.9681 83.9 60.7681L81.6 56.3681C81.5 56.1681 81.2 56.0681 81 56.1681C80.8 56.2681 80.7 56.5681 80.8 56.7681L83.1 61.1681Z" fill="#5E5E5E"/>
<path d="M81.7999 61.8681C81.8999 62.0681 82.1999 62.1681 82.3999 62.0681C82.5999 61.9681 82.6999 61.6681 82.5999 61.4681L80.2999 57.0681C80.1999 56.8681 79.8999 56.7681 79.6999 56.8681C79.4999 56.9681 79.3999 57.2681 79.4999 57.4681L81.7999 61.8681Z" fill="#5E5E5E"/>
<path d="M80.4 62.6681C80.5 62.8681 80.8 62.9681 81 62.8681C81.2 62.7681 81.3 62.4681 81.2 62.2681L78.9 57.8681C78.8 57.6681 78.5 57.5681 78.3 57.6681C78.1 57.7681 78 58.0681 78.1 58.2681L80.4 62.6681Z" fill="#5E5E5E"/>
<path d="M78.9999 63.3681C79.0999 63.5681 79.3999 63.6681 79.5999 63.5681C79.7999 63.4681 79.8999 63.1681 79.7999 62.9681L77.4999 58.5681C77.3999 58.3681 77.0999 58.2681 76.8999 58.3681C76.6999 58.4681 76.5999 58.7681 76.6999 58.9681L78.9999 63.3681Z" fill="#5E5E5E"/>
<path d="M77.6 64.068C77.7 64.268 78 64.368 78.2 64.268C78.4 64.168 78.5 63.868 78.4 63.668L76.1 59.268C76 59.068 75.7 58.968 75.5 59.068C75.3 59.168 75.2 59.468 75.3 59.668L77.6 64.068Z" fill="#5E5E5E"/>
<path d="M76.2001 64.768C76.3001 64.968 76.6001 65.068 76.8001 64.968C77.0001 64.868 77.1001 64.568 77.0001 64.368L74.7001 59.968C74.6001 59.768 74.3001 59.668 74.1001 59.768C73.9001 59.868 73.8001 60.168 73.9001 60.368L76.2001 64.768Z" fill="#5E5E5E"/>
<path d="M74.9 65.568C75 65.768 75.3 65.868 75.5 65.768C75.7 65.668 75.8 65.368 75.7 65.168L73.4 60.768C73.3 60.568 73 60.468 72.8 60.568C72.6 60.668 72.5 60.968 72.6 61.168L74.9 65.568Z" fill="#5E5E5E"/>
<path d="M73.4999 66.268C73.5999 66.468 73.8999 66.568 74.0999 66.468C74.2999 66.368 74.3999 66.068 74.2999 65.868L71.9999 61.468C71.8999 61.268 71.5999 61.168 71.3999 61.268C71.1999 61.368 71.0999 61.668 71.1999 61.868L73.4999 66.268Z" fill="#5E5E5E"/>
<path d="M72.1 66.9682C72.2 67.1682 72.5 67.2682 72.7 67.1682C72.9 67.0682 73 66.7682 72.9 66.5682L70.6 62.1682C70.5 61.9682 70.2 61.8682 70 61.9682C69.8 62.0682 69.7 62.3682 69.8 62.5682L72.1 66.9682Z" fill="#5E5E5E"/>
<path d="M122.7 50.8682H104.7V62.7682H122.7V50.8682Z" fill="#9C9B9B"/>
<path d="M109.7 50.8682H104.7V62.7682H109.7V50.8682Z" fill="#ECECEC"/>
<path d="M179.6 126.568C179.6 162.968 150.1 192.468 113.7 192.468C77.3 192.468 47.8 162.968 47.8 126.568C47.8 90.168 77.3 60.668 113.7 60.668C150.1 60.668 179.6 90.168 179.6 126.568Z" fill="url(#paint0_linear)"/>
<path opacity="0.5" d="M98.1999 67.568C97.5999 67.768 96.9999 67.868 96.3999 68.068C128.8 60.668 161.5 80.368 169.9 112.768C178.3 145.168 159.4 178.268 127.5 187.568C128.1 187.468 128.7 187.268 129.3 187.168C162.3 178.568 182.1 144.868 173.6 111.768C165 78.768 131.2 58.968 98.1999 67.568Z" fill="white"/>
<path d="M169.2 126.568C169.2 157.268 144.4 182.068 113.7 182.068C83 182.068 58.2 157.168 58.2 126.568C58.2 95.8681 83.1 71.0681 113.7 71.0681C144.3 71.0681 169.2 95.8681 169.2 126.568Z" fill="#6F6F6E"/>
<path d="M166.2 126.568C166.2 155.568 142.7 179.068 113.7 179.068C84.7 179.068 61.2 155.568 61.2 126.568C61.2 97.5681 84.7 74.0681 113.7 74.0681C142.7 74.0681 166.2 97.5681 166.2 126.568Z" fill="white"/>
<path d="M116.6 161.668H110.7V175.068H116.6V161.668Z" fill="#EA69FF"/>
<path d="M116.6 78.0681H110.7V91.4681H116.6V78.0681Z" fill="#EA69FF"/>
<path d="M162.2 123.568H148.8V129.468H162.2V123.568Z" fill="#EA69FF"/>
<path d="M78.6 123.568H65.2V129.468H78.6V123.568Z" fill="#EA69FF"/>
<path d="M90.4189 83.9739L86.991 86.0352L92.4015 95.0337L95.8295 92.9725L90.4189 83.9739Z" fill="#B1B1B1"/>
<path d="M134.95 157.998L131.523 160.062L136.941 169.056L140.368 166.992L134.95 157.998Z" fill="#B1B1B1"/>
<path d="M71.8206 102.067L69.9482 105.602L79.3154 110.564L81.1877 107.029L71.8206 102.067Z" fill="#B1B1B1"/>
<path d="M148.209 142.566L146.333 146.098L155.606 151.024L157.482 147.491L148.209 142.566Z" fill="#B1B1B1"/>
<path d="M136.986 84.0373L131.575 93.0359L135.003 95.0971L140.413 86.0986L136.986 84.0373Z" fill="#B1B1B1"/>
<path d="M92.3663 158.081L86.946 167.074L90.3721 169.139L95.7924 160.146L92.3663 158.081Z" fill="#B1B1B1"/>
<path d="M155.641 102.006L146.276 106.972L148.15 110.506L157.515 105.54L155.641 102.006Z" fill="#B1B1B1"/>
<path d="M79.1218 142.553L69.8472 147.475L71.722 151.008L80.9966 146.086L79.1218 142.553Z" fill="#B1B1B1"/>
<path d="M131.6 46.168C131.6 50.368 128.2 53.868 123.9 53.868H103.4C99.2002 53.868 95.7002 50.468 95.7002 46.168C95.7002 41.968 99.1002 38.468 103.4 38.468H124C128.2 38.468 131.6 41.868 131.6 46.168Z" fill="#B1B1B1"/>
<path d="M111.8 48.8681C105.7 47.6681 100.7 45.7681 99.5 39.5681C97.3 40.8681 95.8 43.3681 95.8 46.1681C95.8 50.3681 99.2 53.8681 103.5 53.8681H124.1C127.4 53.8681 130.2 51.7681 131.3 48.8681C124.8 50.7681 118.2 50.1681 111.8 48.8681Z" fill="#ECECEC"/>
<path d="M100.6 50.5682C100.6 51.0682 100.2 51.3682 99.8 51.3682C99.3 51.3682 99 50.9682 99 50.5682V41.6682C99 41.1682 99.4 40.8682 99.8 40.8682C100.3 40.8682 100.6 41.2682 100.6 41.6682V50.5682Z" fill="#5E5E5E"/>
<path d="M103.4 50.5682C103.4 51.0682 103 51.3682 102.6 51.3682C102.1 51.3682 101.8 50.9682 101.8 50.5682V41.6682C101.8 41.1682 102.2 40.8682 102.6 40.8682C103.1 40.8682 103.4 41.2682 103.4 41.6682V50.5682Z" fill="#5E5E5E"/>
<path d="M106.1 50.5682C106.1 51.0682 105.7 51.3682 105.3 51.3682C104.8 51.3682 104.5 50.9682 104.5 50.5682V41.6682C104.5 41.1682 104.9 40.8682 105.3 40.8682C105.8 40.8682 106.1 41.2682 106.1 41.6682V50.5682Z" fill="#5E5E5E"/>
<path d="M108.9 50.5682C108.9 51.0682 108.5 51.3682 108.1 51.3682C107.6 51.3682 107.3 50.9682 107.3 50.5682V41.6682C107.3 41.1682 107.7 40.8682 108.1 40.8682C108.6 40.8682 108.9 41.2682 108.9 41.6682V50.5682Z" fill="#5E5E5E"/>
<path d="M111.7 50.5682C111.7 51.0682 111.3 51.3682 110.9 51.3682C110.4 51.3682 110.1 50.9682 110.1 50.5682V41.6682C110.1 41.1682 110.5 40.8682 110.9 40.8682C111.4 40.8682 111.7 41.2682 111.7 41.6682V50.5682Z" fill="#5E5E5E"/>
<path d="M114.5 50.5682C114.5 51.0682 114.1 51.3682 113.7 51.3682C113.2 51.3682 112.9 50.9682 112.9 50.5682V41.6682C112.9 41.1682 113.3 40.8682 113.7 40.8682C114.2 40.8682 114.5 41.2682 114.5 41.6682V50.5682Z" fill="#5E5E5E"/>
<path d="M117.3 50.5682C117.3 51.0682 116.9 51.3682 116.5 51.3682C116 51.3682 115.7 50.9682 115.7 50.5682V41.6682C115.7 41.1682 116.1 40.8682 116.5 40.8682C117 40.8682 117.3 41.2682 117.3 41.6682V50.5682Z" fill="#5E5E5E"/>
<path d="M120.1 50.5682C120.1 51.0682 119.7 51.3682 119.3 51.3682C118.8 51.3682 118.5 50.9682 118.5 50.5682V41.6682C118.5 41.1682 118.9 40.8682 119.3 40.8682C119.8 40.8682 120.1 41.2682 120.1 41.6682V50.5682Z" fill="#5E5E5E"/>
<path d="M122.9 50.5682C122.9 51.0682 122.5 51.3682 122.1 51.3682C121.6 51.3682 121.3 50.9682 121.3 50.5682V41.6682C121.3 41.1682 121.7 40.8682 122.1 40.8682C122.6 40.8682 122.9 41.2682 122.9 41.6682V50.5682Z" fill="#5E5E5E"/>
<path d="M125.7 50.5682C125.7 51.0682 125.3 51.3682 124.9 51.3682C124.4 51.3682 124.1 50.9682 124.1 50.5682V41.6682C124.1 41.1682 124.5 40.8682 124.9 40.8682C125.4 40.8682 125.7 41.2682 125.7 41.6682V50.5682Z" fill="#5E5E5E"/>
<path d="M128.5 50.5682C128.5 51.0682 128.1 51.3682 127.7 51.3682C127.2 51.3682 126.9 50.9682 126.9 50.5682V41.6682C126.9 41.1682 127.3 40.8682 127.7 40.8682C128.2 40.8682 128.5 41.2682 128.5 41.6682V50.5682Z" fill="#5E5E5E"/>
<path d="M25.9825 126.655H0.800049" stroke="white" stroke-width="10" stroke-miterlimit="10"/>
<path d="M36.9039 93.5838L17.7896 83.2681" stroke="white" stroke-width="10" stroke-miterlimit="10"/>
<path d="M35.0841 157.906L16.8799 174.897" stroke="white" stroke-width="10" stroke-miterlimit="10"/>
<path d="M120.805 116.329C120.805 118.336 120.198 120.042 118.982 121.449C117.766 122.855 116.059 123.822 113.862 124.349V124.481C116.455 124.803 118.418 125.594 119.751 126.854C121.084 128.099 121.75 129.784 121.75 131.908C121.75 134.999 120.63 137.408 118.388 139.137C116.147 140.851 112.947 141.708 108.786 141.708C105.3 141.708 102.209 141.129 99.5139 139.972V134.193C100.759 134.823 102.129 135.335 103.623 135.731C105.117 136.126 106.596 136.324 108.061 136.324C110.302 136.324 111.958 135.943 113.027 135.182C114.096 134.42 114.631 133.197 114.631 131.512C114.631 130.003 114.016 128.934 112.785 128.304C111.555 127.674 109.592 127.359 106.897 127.359H104.458V122.152H106.941C109.431 122.152 111.247 121.83 112.39 121.185C113.547 120.526 114.126 119.405 114.126 117.823C114.126 115.392 112.602 114.176 109.555 114.176C108.501 114.176 107.424 114.352 106.325 114.703C105.241 115.055 104.033 115.663 102.7 116.527L99.5579 111.847C102.488 109.737 105.981 108.683 110.039 108.683C113.364 108.683 115.986 109.356 117.905 110.704C119.839 112.052 120.805 113.927 120.805 116.329Z" fill="#EA69FF"/>
<defs>
<linearGradient id="paint0_linear" x1="113.7" y1="60.668" x2="113.7" y2="192.468" gradientUnits="userSpaceOnUse">
<stop stop-color="#FF8BB3"/>
<stop offset="1" stop-color="#AF0732"/>
</linearGradient>
</defs>
</svg>
