<svg width="251" height="269" viewBox="0 0 251 269" fill="none" xmlns="http://www.w3.org/2000/svg">
<path d="M158.055 0C138.34 0 122.261 15.9396 122.261 35.7942C122.261 55.509 138.2 71.5885 158.055 71.5885C177.77 71.5885 193.849 55.6488 193.849 35.7942C193.709 16.0794 177.77 0 158.055 0ZM158.055 60.6824C144.352 60.6824 133.167 49.4967 133.167 35.7942C133.167 22.0917 144.352 10.9061 158.055 10.9061C171.757 10.9061 182.943 22.0917 182.943 35.7942C182.943 49.4967 171.757 60.6824 158.055 60.6824Z" fill="#B30E38"/>
<path d="M199.707 84.8791L195.393 93.0369L207.753 99.5735L212.067 91.4158L199.707 84.8791Z" fill="#9C9B9B"/>
<path d="M206.014 94.3794C203.777 93.4007 201.96 92.0025 199.862 91.0237C199.023 90.6042 198.184 89.9052 197.625 89.2061L195.528 93.121L207.972 99.6926L209.929 96.0573C208.531 95.3582 207.273 94.9387 206.014 94.3794Z" fill="#ECECEC"/>
<path d="M219.997 91.3033C218.459 94.2396 214.823 95.3581 211.887 93.8201L197.765 86.2697C194.829 84.7317 193.71 81.0964 195.248 78.1601C196.786 75.2239 200.422 74.1053 203.358 75.6433L217.48 83.1937C220.556 84.8715 221.675 88.5069 219.997 91.3033Z" fill="#B1B1B1"/>
<path d="M206.433 87.2484C201.819 84.5918 198.183 81.3759 196.785 76.4822C196.226 76.9016 195.667 77.6007 195.387 78.2998C193.849 81.2361 194.968 84.8715 197.904 86.4095L212.026 93.9598C214.263 95.0784 216.78 94.7988 218.597 93.4006C214.263 92.0023 210.488 89.6254 206.433 87.2484Z" fill="#ECECEC"/>
<path d="M197.066 83.1936C196.926 83.4733 196.507 83.6131 196.227 83.4733C195.947 83.3335 195.808 82.914 195.947 82.6343L199.163 76.4822C199.303 76.2026 199.723 76.0627 200.002 76.2026C200.282 76.3424 200.422 76.7618 200.282 77.0415L197.066 83.1936Z" fill="#5E5E5E"/>
<path d="M199.024 84.1724C198.884 84.452 198.465 84.5919 198.185 84.452C197.905 84.3122 197.766 83.8927 197.905 83.6131L201.121 77.461C201.261 77.1813 201.681 77.0415 201.96 77.1813C202.24 77.3211 202.38 77.7406 202.24 78.0203L199.024 84.1724Z" fill="#5E5E5E"/>
<path d="M200.84 85.1511C200.701 85.4308 200.281 85.5706 200.001 85.4308C199.722 85.2909 199.582 84.8715 199.722 84.5918L202.938 78.4397C203.078 78.1601 203.497 78.0203 203.777 78.1601C204.056 78.2999 204.196 78.7193 204.056 78.999L200.84 85.1511Z" fill="#5E5E5E"/>
<path d="M202.798 86.1297C202.659 86.4093 202.239 86.5491 201.959 86.4093C201.68 86.2695 201.54 85.85 201.68 85.5704L204.896 79.4182C205.036 79.1386 205.455 78.9988 205.735 79.1386C206.014 79.2784 206.154 79.6979 206.014 79.9775L202.798 86.1297Z" fill="#5E5E5E"/>
<path d="M204.756 87.2486C204.616 87.5282 204.197 87.668 203.917 87.5282C203.637 87.3884 203.498 86.9689 203.637 86.6892L206.853 80.5371C206.993 80.2575 207.413 80.1177 207.692 80.2575C207.972 80.3973 208.112 80.8167 207.972 81.0964L204.756 87.2486Z" fill="#5E5E5E"/>
<path d="M206.713 88.2271C206.574 88.5067 206.154 88.6465 205.875 88.5067C205.595 88.3669 205.455 87.9474 205.595 87.6678L208.811 81.5157C208.951 81.236 209.37 81.0962 209.65 81.236C209.929 81.3758 210.069 81.7953 209.929 82.0749L206.713 88.2271Z" fill="#5E5E5E"/>
<path d="M208.531 89.2058C208.392 89.4855 207.972 89.6253 207.692 89.4854C207.413 89.3456 207.273 88.9262 207.413 88.6466L210.629 82.4944C210.768 82.2147 211.188 82.0749 211.468 82.2148C211.747 82.3546 211.887 82.7741 211.747 83.0537L208.531 89.2058Z" fill="#5E5E5E"/>
<path d="M210.488 90.1848C210.349 90.4645 209.929 90.6043 209.649 90.4645C209.37 90.3247 209.23 89.9052 209.37 89.6256L212.586 83.4734C212.725 83.1938 213.145 83.0539 213.425 83.1938C213.704 83.3336 213.844 83.7531 213.704 84.0327L210.488 90.1848Z" fill="#5E5E5E"/>
<path d="M212.446 91.3032C212.306 91.5829 211.887 91.7227 211.607 91.5829C211.327 91.443 211.187 91.0236 211.327 90.744L214.543 84.5918C214.683 84.3122 215.102 84.1724 215.382 84.3122C215.662 84.452 215.802 84.8715 215.662 85.1511L212.446 91.3032Z" fill="#5E5E5E"/>
<path d="M214.403 92.282C214.264 92.5616 213.844 92.7015 213.564 92.5617C213.285 92.4218 213.145 92.0024 213.285 91.7227L216.501 85.5706C216.641 85.291 217.06 85.1511 217.34 85.2909C217.619 85.4308 217.759 85.8502 217.619 86.1299L214.403 92.282Z" fill="#5E5E5E"/>
<path d="M216.221 93.2608C216.081 93.5404 215.662 93.6802 215.382 93.5404C215.103 93.4006 214.963 92.9811 215.103 92.7015L218.319 86.5494C218.458 86.2697 218.878 86.1299 219.158 86.2697C219.437 86.4095 219.577 86.829 219.437 87.1086L216.221 93.2608Z" fill="#5E5E5E"/>
<path d="M116.327 84.8153L103.967 91.3506L108.281 99.5083L120.641 92.9731L116.327 84.8153Z" fill="#9C9B9B"/>
<path d="M119.185 92.4219C116.808 93.5405 115.41 94.0998 112.753 94.2396C109.677 94.3794 107.3 92.9812 105.063 91.1635L104.923 91.0237L104.084 91.4432L108.418 99.6926L120.863 93.121L120.303 92.0024C119.744 92.0024 119.464 92.2821 119.185 92.4219Z" fill="#ECECEC"/>
<path d="M96.114 91.3033C97.6521 94.2396 101.287 95.3581 104.224 93.8201L118.346 86.2697C121.282 84.7317 122.4 81.0964 120.862 78.1601C119.324 75.2239 115.689 74.1053 112.753 75.6433L98.6308 83.1937C95.6946 84.8715 94.576 88.5069 96.114 91.3033Z" fill="#B1B1B1"/>
<path d="M95.9748 86.1298C95.2757 87.8077 95.1359 89.7652 96.1146 91.4431C97.6527 94.3793 101.288 95.4979 104.224 93.9598L118.346 86.4095C120.723 85.1511 121.982 82.4945 121.422 79.8379C114.012 85.99 104.784 90.8838 95.9748 86.1298Z" fill="#ECECEC"/>
<path d="M119.185 83.1936C119.325 83.4733 119.744 83.6131 120.024 83.4733C120.303 83.3335 120.443 82.914 120.303 82.6343L117.087 76.4822C116.948 76.2026 116.528 76.0627 116.249 76.2026C115.969 76.3424 115.829 76.7618 115.969 77.0415L119.185 83.1936Z" fill="#5E5E5E"/>
<path d="M117.228 84.1724C117.368 84.452 117.788 84.5919 118.067 84.452C118.347 84.3122 118.487 83.8927 118.347 83.6131L115.131 77.461C114.991 77.1813 114.572 77.0415 114.292 77.1813C114.012 77.3211 113.873 77.7406 114.012 78.0203L117.228 84.1724Z" fill="#5E5E5E"/>
<path d="M115.27 85.1511C115.41 85.4308 115.83 85.5706 116.109 85.4308C116.389 85.2909 116.529 84.8715 116.389 84.5918L113.173 78.4397C113.033 78.1601 112.614 78.0203 112.334 78.1601C112.054 78.2999 111.915 78.7193 112.054 78.999L115.27 85.1511Z" fill="#5E5E5E"/>
<path d="M113.452 86.1297C113.592 86.4093 114.012 86.5491 114.291 86.4093C114.571 86.2695 114.711 85.85 114.571 85.5704L111.355 79.4182C111.215 79.1386 110.796 78.9988 110.516 79.1386C110.236 79.2784 110.097 79.6979 110.236 79.9775L113.452 86.1297Z" fill="#5E5E5E"/>
<path d="M111.495 87.2486C111.635 87.5282 112.054 87.668 112.334 87.5282C112.613 87.3884 112.753 86.9689 112.613 86.6892L109.398 80.5371C109.258 80.2575 108.838 80.1177 108.559 80.2575C108.279 80.3973 108.139 80.8167 108.279 81.0964L111.495 87.2486Z" fill="#5E5E5E"/>
<path d="M109.538 88.2271C109.678 88.5067 110.098 88.6465 110.377 88.5067C110.657 88.3669 110.797 87.9474 110.657 87.6678L107.441 81.5157C107.301 81.236 106.882 81.0962 106.602 81.236C106.322 81.3758 106.183 81.7953 106.322 82.0749L109.538 88.2271Z" fill="#5E5E5E"/>
<path d="M107.579 89.2058C107.719 89.4855 108.139 89.6253 108.418 89.4854C108.698 89.3456 108.838 88.9262 108.698 88.6466L105.482 82.4944C105.342 82.2147 104.923 82.0749 104.643 82.2148C104.363 82.3546 104.224 82.7741 104.363 83.0537L107.579 89.2058Z" fill="#5E5E5E"/>
<path d="M105.622 90.1848C105.762 90.4645 106.181 90.6043 106.461 90.4645C106.74 90.3247 106.88 89.9052 106.74 89.6256L103.524 83.4734C103.385 83.1938 102.965 83.0539 102.686 83.1938C102.406 83.3336 102.266 83.7531 102.406 84.0327L105.622 90.1848Z" fill="#5E5E5E"/>
<path d="M103.804 91.3032C103.944 91.5829 104.363 91.7227 104.643 91.5829C104.923 91.443 105.062 91.0236 104.923 90.744L101.707 84.5918C101.567 84.3122 101.147 84.1724 100.868 84.3122C100.588 84.452 100.448 84.8715 100.588 85.1511L103.804 91.3032Z" fill="#5E5E5E"/>
<path d="M101.847 92.282C101.987 92.5616 102.407 92.7015 102.686 92.5617C102.966 92.4218 103.106 92.0024 102.966 91.7227L99.7501 85.5706C99.6103 85.291 99.1908 85.1511 98.9112 85.2909C98.6315 85.4308 98.4917 85.8502 98.6315 86.1299L101.847 92.282Z" fill="#5E5E5E"/>
<path d="M99.8894 93.2608C100.029 93.5404 100.449 93.6802 100.728 93.5404C101.008 93.4006 101.148 92.9811 101.008 92.7015L97.7921 86.5494C97.6523 86.2697 97.2328 86.1299 96.9531 86.2697C96.6735 86.4095 96.5337 86.829 96.6735 87.1086L99.8894 93.2608Z" fill="#5E5E5E"/>
<path d="M170.64 70.7495H145.472V87.3882H170.64V70.7495Z" fill="#9C9B9B"/>
<path d="M152.463 70.7495H145.472V87.3882H152.463V70.7495Z" fill="#ECECEC"/>
<path d="M250.197 176.594C250.197 227.489 208.95 268.736 158.055 268.736C107.16 268.736 65.9131 227.489 65.9131 176.594C65.9131 125.699 107.16 84.4519 158.055 84.4519C208.95 84.4519 250.197 125.699 250.197 176.594Z" fill="url(#paint0_linear)"/>
<path opacity="0.5" d="M136.383 94.0996C135.544 94.3793 134.705 94.5191 133.866 94.7987C179.168 84.452 224.889 111.997 236.634 157.299C248.379 202.601 221.953 248.882 177.35 261.885C178.189 261.745 179.028 261.466 179.867 261.326C226.008 249.301 253.693 202.181 241.808 155.901C229.783 109.76 182.524 82.075 136.383 94.0996Z" fill="white"/>
<path d="M235.657 176.594C235.657 219.519 200.981 254.195 158.056 254.195C115.131 254.195 80.4551 219.379 80.4551 176.594C80.4551 133.669 115.271 98.9934 158.056 98.9934C200.841 98.9934 235.657 133.669 235.657 176.594Z" fill="#6F6F6E"/>
<path d="M231.463 176.594C231.463 217.142 198.605 250 158.057 250C117.508 250 84.6504 217.142 84.6504 176.594C84.6504 136.046 117.508 103.188 158.057 103.188C198.605 103.188 231.463 136.046 231.463 176.594Z" fill="white"/>
<path d="M162.111 225.671H153.861V244.407H162.111V225.671Z" fill="#EA69FF"/>
<path d="M162.112 108.781H153.862V127.517H162.112V108.781Z" fill="#EA69FF"/>
<path d="M225.868 172.4H207.132V180.649H225.868V172.4Z" fill="#EA69FF"/>
<path d="M108.979 172.4H90.2427V180.649H108.979V172.4Z" fill="#EA69FF"/>
<path d="M125.504 117.038L120.71 119.92L128.276 132.502L133.069 129.62L125.504 117.038Z" fill="#B1B1B1"/>
<path d="M187.766 220.539L182.976 223.425L190.551 236.001L195.342 233.115L187.766 220.539Z" fill="#B1B1B1"/>
<path d="M99.4989 142.337L96.8809 147.28L109.978 154.217L112.596 149.275L99.4989 142.337Z" fill="#B1B1B1"/>
<path d="M206.307 198.962L203.683 203.902L216.649 210.789L219.273 205.85L206.307 198.962Z" fill="#B1B1B1"/>
<path d="M190.612 117.127L183.047 129.709L187.84 132.591L195.405 120.009L190.612 117.127Z" fill="#B1B1B1"/>
<path d="M128.225 220.656L120.647 233.231L125.437 236.118L133.016 223.543L128.225 220.656Z" fill="#B1B1B1"/>
<path d="M216.698 142.251L203.603 149.194L206.223 154.135L219.318 147.192L216.698 142.251Z" fill="#B1B1B1"/>
<path d="M109.707 198.944L96.7393 205.825L99.3607 210.766L112.329 203.885L109.707 198.944Z" fill="#B1B1B1"/>
<path d="M183.084 64.1779C183.084 70.0504 178.33 74.9441 172.318 74.9441H143.654C137.782 74.9441 132.888 70.1902 132.888 64.1779C132.888 58.3054 137.642 53.4116 143.654 53.4116H172.458C178.33 53.4116 183.084 58.1656 183.084 64.1779Z" fill="#B1B1B1"/>
<path d="M155.399 67.9531C146.87 66.2752 139.879 63.6186 138.201 54.9497C135.125 56.7674 133.028 60.2629 133.028 64.1779C133.028 70.0504 137.782 74.9441 143.794 74.9441H172.597C177.211 74.9441 181.126 72.0079 182.664 67.9531C173.576 70.6097 164.348 69.7707 155.399 67.9531Z" fill="#ECECEC"/>
<path d="M139.739 70.33C139.739 71.0291 139.179 71.4486 138.62 71.4486C137.921 71.4486 137.501 70.8893 137.501 70.33V57.8859C137.501 57.1868 138.061 56.7673 138.62 56.7673C139.319 56.7673 139.739 57.3266 139.739 57.8859V70.33Z" fill="#5E5E5E"/>
<path d="M143.653 70.33C143.653 71.0291 143.093 71.4486 142.534 71.4486C141.835 71.4486 141.416 70.8893 141.416 70.33V57.8859C141.416 57.1868 141.975 56.7673 142.534 56.7673C143.233 56.7673 143.653 57.3266 143.653 57.8859V70.33Z" fill="#5E5E5E"/>
<path d="M147.429 70.33C147.429 71.0291 146.869 71.4486 146.31 71.4486C145.611 71.4486 145.191 70.8893 145.191 70.33V57.8859C145.191 57.1868 145.751 56.7673 146.31 56.7673C147.009 56.7673 147.429 57.3266 147.429 57.8859V70.33Z" fill="#5E5E5E"/>
<path d="M151.344 70.33C151.344 71.0291 150.785 71.4486 150.226 71.4486C149.526 71.4486 149.107 70.8893 149.107 70.33V57.8859C149.107 57.1868 149.666 56.7673 150.226 56.7673C150.925 56.7673 151.344 57.3266 151.344 57.8859V70.33Z" fill="#5E5E5E"/>
<path d="M155.258 70.33C155.258 71.0291 154.699 71.4486 154.14 71.4486C153.44 71.4486 153.021 70.8893 153.021 70.33V57.8859C153.021 57.1868 153.58 56.7673 154.14 56.7673C154.839 56.7673 155.258 57.3266 155.258 57.8859V70.33Z" fill="#5E5E5E"/>
<path d="M159.175 70.33C159.175 71.0291 158.615 71.4486 158.056 71.4486C157.357 71.4486 156.938 70.8893 156.938 70.33V57.8859C156.938 57.1868 157.497 56.7673 158.056 56.7673C158.755 56.7673 159.175 57.3266 159.175 57.8859V70.33Z" fill="#5E5E5E"/>
<path d="M163.089 70.33C163.089 71.0291 162.53 71.4486 161.971 71.4486C161.272 71.4486 160.852 70.8893 160.852 70.33V57.8859C160.852 57.1868 161.411 56.7673 161.971 56.7673C162.67 56.7673 163.089 57.3266 163.089 57.8859V70.33Z" fill="#5E5E5E"/>
<path d="M167.003 70.33C167.003 71.0291 166.444 71.4486 165.885 71.4486C165.186 71.4486 164.766 70.8893 164.766 70.33V57.8859C164.766 57.1868 165.325 56.7673 165.885 56.7673C166.584 56.7673 167.003 57.3266 167.003 57.8859V70.33Z" fill="#5E5E5E"/>
<path d="M170.919 70.33C170.919 71.0291 170.359 71.4486 169.8 71.4486C169.101 71.4486 168.682 70.8893 168.682 70.33V57.8859C168.682 57.1868 169.241 56.7673 169.8 56.7673C170.499 56.7673 170.919 57.3266 170.919 57.8859V70.33Z" fill="#5E5E5E"/>
<path d="M174.833 70.33C174.833 71.0291 174.274 71.4486 173.714 71.4486C173.015 71.4486 172.596 70.8893 172.596 70.33V57.8859C172.596 57.1868 173.155 56.7673 173.714 56.7673C174.413 56.7673 174.833 57.3266 174.833 57.8859V70.33Z" fill="#5E5E5E"/>
<path d="M178.749 70.33C178.749 71.0291 178.19 71.4486 177.631 71.4486C176.932 71.4486 176.512 70.8893 176.512 70.33V57.8859C176.512 57.1868 177.071 56.7673 177.631 56.7673C178.33 56.7673 178.749 57.3266 178.749 57.8859V70.33Z" fill="#5E5E5E"/>
<path d="M35.4082 176.716H0.197754" stroke="white" stroke-width="10" stroke-miterlimit="10"/>
<path d="M50.6786 130.475L23.9526 116.052" stroke="white" stroke-width="10" stroke-miterlimit="10"/>
<path d="M48.135 220.412L22.6816 244.169" stroke="white" stroke-width="10" stroke-miterlimit="10"/>
<path d="M123.131 172.531C125.892 172.531 128.086 173.306 129.713 174.855C131.354 176.405 132.174 178.527 132.174 181.223C132.174 184.413 131.191 186.867 129.225 188.586C127.259 190.305 124.446 191.164 120.788 191.164C117.611 191.164 115.045 190.65 113.092 189.621V184.406C114.121 184.953 115.319 185.402 116.686 185.754C118.053 186.092 119.349 186.262 120.573 186.262C124.258 186.262 126.1 184.751 126.1 181.73C126.1 178.853 124.193 177.414 120.377 177.414C119.687 177.414 118.926 177.486 118.092 177.629C117.259 177.759 116.582 177.902 116.061 178.059L113.659 176.77L114.733 162.219H130.221V167.336H120.026L119.499 172.941L120.182 172.805C120.976 172.622 121.959 172.531 123.131 172.531ZM155.397 176.496C155.397 181.483 154.577 185.174 152.936 187.57C151.308 189.966 148.795 191.164 145.397 191.164C142.103 191.164 139.616 189.927 137.936 187.453C136.269 184.979 135.436 181.327 135.436 176.496C135.436 171.457 136.25 167.746 137.877 165.363C139.505 162.967 142.012 161.77 145.397 161.77C148.691 161.77 151.178 163.02 152.858 165.52C154.551 168.02 155.397 171.678 155.397 176.496ZM141.432 176.496C141.432 179.999 141.732 182.512 142.331 184.035C142.943 185.546 143.965 186.301 145.397 186.301C146.803 186.301 147.819 185.533 148.444 183.996C149.069 182.46 149.381 179.96 149.381 176.496C149.381 172.993 149.062 170.48 148.424 168.957C147.799 167.421 146.79 166.652 145.397 166.652C143.978 166.652 142.962 167.421 142.35 168.957C141.738 170.48 141.432 172.993 141.432 176.496ZM178.249 176.496C178.249 181.483 177.428 185.174 175.788 187.57C174.16 189.966 171.647 191.164 168.249 191.164C164.954 191.164 162.467 189.927 160.788 187.453C159.121 184.979 158.288 181.327 158.288 176.496C158.288 171.457 159.101 167.746 160.729 165.363C162.357 162.967 164.863 161.77 168.249 161.77C171.543 161.77 174.03 163.02 175.709 165.52C177.402 168.02 178.249 171.678 178.249 176.496ZM164.284 176.496C164.284 179.999 164.583 182.512 165.182 184.035C165.794 185.546 166.816 186.301 168.249 186.301C169.655 186.301 170.67 185.533 171.295 183.996C171.92 182.46 172.233 179.96 172.233 176.496C172.233 172.993 171.914 170.48 171.276 168.957C170.651 167.421 169.642 166.652 168.249 166.652C166.829 166.652 165.814 167.421 165.202 168.957C164.59 170.48 164.284 172.993 164.284 176.496ZM206.256 190.773H199.381L191.901 178.742L189.342 180.578V190.773H183.288V162.219H189.342V175.285L191.725 171.926L199.459 162.219H206.178L196.217 174.855L206.256 190.773Z" fill="#EA69FF"/>
<defs>
<linearGradient id="paint0_linear" x1="158.055" y1="84.4519" x2="158.055" y2="268.736" gradientUnits="userSpaceOnUse">
<stop stop-color="#FF8BB3"/>
<stop offset="1" stop-color="#AF0732"/>
</linearGradient>
</defs>
</svg>
