<svg width="214" height="230" viewBox="0 0 214 230" fill="none" xmlns="http://www.w3.org/2000/svg">
<path d="M134.693 0.886475C117.896 0.886475 104.197 14.467 104.197 31.3831C104.197 48.1801 117.777 61.8798 134.693 61.8798C151.49 61.8798 165.19 48.2992 165.19 31.3831C165.071 14.5861 151.49 0.886475 134.693 0.886475ZM134.693 52.5878C123.019 52.5878 113.488 43.0576 113.488 31.3831C113.488 19.7086 123.019 10.1784 134.693 10.1784C146.368 10.1784 155.898 19.7086 155.898 31.3831C155.898 43.0576 146.368 52.5878 134.693 52.5878Z" fill="#B30E38"/>
<path d="M170.18 73.2034L166.505 80.1538L177.036 85.723L180.711 78.7726L170.18 73.2034Z" fill="#9C9B9B"/>
<path d="M175.554 81.2976C173.648 80.4637 172.1 79.2724 170.313 78.4385C169.598 78.0812 168.883 77.4855 168.407 76.8899L166.62 80.2254L177.222 85.8245L178.89 82.7271C177.699 82.1315 176.627 81.7741 175.554 81.2976Z" fill="#ECECEC"/>
<path d="M187.467 78.6768C186.157 81.1784 183.059 82.1314 180.558 80.821L168.526 74.3882C166.024 73.0778 165.071 69.9805 166.382 67.4788C167.692 64.9771 170.789 64.0241 173.291 65.3345L185.323 71.7673C187.944 73.1969 188.897 76.2942 187.467 78.6768Z" fill="#B1B1B1"/>
<path d="M175.911 75.2219C171.98 72.9585 168.883 70.2185 167.692 66.0491C167.215 66.4065 166.738 67.0021 166.5 67.5977C165.19 70.0994 166.143 73.1967 168.645 74.5071L180.676 80.94C182.582 81.893 184.727 81.6548 186.275 80.4635C182.582 79.2722 179.366 77.2471 175.911 75.2219Z" fill="#ECECEC"/>
<path d="M167.93 71.7675C167.811 72.0058 167.454 72.1249 167.215 72.0058C166.977 71.8867 166.858 71.5293 166.977 71.291L169.717 66.0494C169.836 65.8112 170.194 65.692 170.432 65.8111C170.67 65.9303 170.789 66.2877 170.67 66.5259L167.93 71.7675Z" fill="#5E5E5E"/>
<path d="M169.598 72.6013C169.479 72.8395 169.121 72.9586 168.883 72.8395C168.645 72.7204 168.526 72.363 168.645 72.1247L171.385 66.8831C171.504 66.6449 171.861 66.5257 172.1 66.6449C172.338 66.764 172.457 67.1214 172.338 67.3596L169.598 72.6013Z" fill="#5E5E5E"/>
<path d="M171.146 73.4352C171.027 73.6735 170.67 73.7926 170.432 73.6735C170.193 73.5543 170.074 73.197 170.193 72.9587L172.933 67.7171C173.053 67.4788 173.41 67.3597 173.648 67.4789C173.886 67.598 174.006 67.9553 173.886 68.1936L171.146 73.4352Z" fill="#5E5E5E"/>
<path d="M172.813 74.269C172.694 74.5072 172.337 74.6264 172.099 74.5072C171.86 74.3881 171.741 74.0307 171.86 73.7925L174.6 68.5509C174.72 68.3126 175.077 68.1935 175.315 68.3126C175.553 68.4317 175.673 68.7891 175.553 69.0274L172.813 74.269Z" fill="#5E5E5E"/>
<path d="M174.482 75.2221C174.363 75.4604 174.005 75.5795 173.767 75.4603C173.529 75.3412 173.41 74.9838 173.529 74.7456L176.269 69.504C176.388 69.2657 176.745 69.1466 176.983 69.2657C177.222 69.3849 177.341 69.7422 177.222 69.9805L174.482 75.2221Z" fill="#5E5E5E"/>
<path d="M176.15 76.0558C176.031 76.2941 175.673 76.4132 175.435 76.2941C175.197 76.175 175.078 75.8176 175.197 75.5793L177.937 70.3377C178.056 70.0995 178.413 69.9803 178.652 70.0995C178.89 70.2186 179.009 70.576 178.89 70.8142L176.15 76.0558Z" fill="#5E5E5E"/>
<path d="M177.698 76.8898C177.579 77.1281 177.222 77.2472 176.984 77.1281C176.745 77.0089 176.626 76.6516 176.745 76.4133L179.485 71.1717C179.605 70.9334 179.962 70.8143 180.2 70.9335C180.438 71.0526 180.558 71.41 180.438 71.6482L177.698 76.8898Z" fill="#5E5E5E"/>
<path d="M179.365 77.7238C179.246 77.9621 178.889 78.0812 178.651 77.9621C178.412 77.843 178.293 77.4856 178.412 77.2473L181.152 72.0057C181.272 71.7674 181.629 71.6483 181.867 71.7674C182.105 71.8866 182.225 72.244 182.105 72.4822L179.365 77.7238Z" fill="#5E5E5E"/>
<path d="M181.034 78.6767C180.915 78.915 180.557 79.0341 180.319 78.9149C180.081 78.7958 179.962 78.4384 180.081 78.2002L182.821 72.9586C182.94 72.7203 183.297 72.6012 183.535 72.7203C183.774 72.8394 183.893 73.1968 183.774 73.4351L181.034 78.6767Z" fill="#5E5E5E"/>
<path d="M182.702 79.5107C182.583 79.7489 182.225 79.8681 181.987 79.7489C181.749 79.6298 181.63 79.2724 181.749 79.0342L184.489 73.7926C184.608 73.5543 184.965 73.4352 185.204 73.5543C185.442 73.6734 185.561 74.0308 185.442 74.2691L182.702 79.5107Z" fill="#5E5E5E"/>
<path d="M184.25 80.3447C184.131 80.5829 183.774 80.7021 183.536 80.5829C183.297 80.4638 183.178 80.1064 183.297 79.8682L186.037 74.6266C186.157 74.3883 186.514 74.2692 186.752 74.3883C186.99 74.5074 187.11 74.8648 186.99 75.1031L184.25 80.3447Z" fill="#5E5E5E"/>
<path d="M99.1408 73.1491L88.6099 78.717L92.2848 85.6674L102.816 80.0994L99.1408 73.1491Z" fill="#9C9B9B"/>
<path d="M101.576 79.6298C99.5506 80.5828 98.3593 81.0593 96.0959 81.1784C93.4751 81.2976 91.4499 80.1063 89.5438 78.5576L89.4247 78.4385L88.71 78.7959L92.4029 85.8244L103.005 80.2254L102.529 79.2724C102.052 79.2724 101.814 79.5106 101.576 79.6298Z" fill="#ECECEC"/>
<path d="M81.9197 78.6768C83.2301 81.1784 86.3274 82.1314 88.8291 80.821L100.861 74.3882C103.363 73.0778 104.316 69.9805 103.005 67.4788C101.695 64.9771 98.5975 64.0241 96.0958 65.3345L84.064 71.7673C81.5623 73.1969 80.6093 76.2942 81.9197 78.6768Z" fill="#B1B1B1"/>
<path d="M81.8002 74.2689C81.2046 75.6985 81.0855 77.3663 81.9194 78.7958C83.2298 81.2975 86.3271 82.2505 88.8288 80.9401L100.861 74.5072C102.886 73.4351 103.958 71.1716 103.481 68.9082C97.1677 74.1498 89.3053 78.3193 81.8002 74.2689Z" fill="#ECECEC"/>
<path d="M101.576 71.7673C101.695 72.0055 102.052 72.1247 102.291 72.0055C102.529 71.8864 102.648 71.529 102.529 71.2908L99.7891 66.0492C99.6699 65.8109 99.3125 65.6918 99.0743 65.8109C98.836 65.93 98.7169 66.2874 98.836 66.5257L101.576 71.7673Z" fill="#5E5E5E"/>
<path d="M99.909 72.6013C100.028 72.8395 100.385 72.9586 100.624 72.8395C100.862 72.7204 100.981 72.363 100.862 72.1247L98.1221 66.8831C98.0029 66.6449 97.6456 66.5257 97.4073 66.6449C97.169 66.764 97.0499 67.1214 97.169 67.3596L99.909 72.6013Z" fill="#5E5E5E"/>
<path d="M98.2408 73.4352C98.3599 73.6735 98.7173 73.7926 98.9555 73.6735C99.1938 73.5543 99.3129 73.197 99.1938 72.9587L96.4539 67.7171C96.3347 67.4788 95.9773 67.3597 95.7391 67.4789C95.5008 67.598 95.3817 67.9553 95.5008 68.1936L98.2408 73.4352Z" fill="#5E5E5E"/>
<path d="M96.6922 74.269C96.8113 74.5072 97.1687 74.6264 97.407 74.5072C97.6452 74.3881 97.7643 74.0307 97.6452 73.7925L94.9053 68.5509C94.7861 68.3126 94.4288 68.1935 94.1905 68.3126C93.9523 68.4317 93.8331 68.7891 93.9523 69.0274L96.6922 74.269Z" fill="#5E5E5E"/>
<path d="M95.024 75.2221C95.1431 75.4604 95.5005 75.5795 95.7387 75.4603C95.977 75.3412 96.0961 74.9838 95.977 74.7456L93.2371 69.504C93.1179 69.2657 92.7605 69.1466 92.5223 69.2657C92.284 69.3849 92.1649 69.7422 92.284 69.9805L95.024 75.2221Z" fill="#5E5E5E"/>
<path d="M93.357 76.0558C93.4761 76.2941 93.8335 76.4132 94.0717 76.2941C94.31 76.175 94.4291 75.8176 94.31 75.5793L91.5701 70.3377C91.4509 70.0995 91.0936 69.9803 90.8553 70.0995C90.617 70.2186 90.4979 70.576 90.617 70.8142L93.357 76.0558Z" fill="#5E5E5E"/>
<path d="M91.6888 76.8898C91.8079 77.1281 92.1653 77.2472 92.4035 77.1281C92.6418 77.0089 92.7609 76.6516 92.6418 76.4133L89.9019 71.1717C89.7827 70.9334 89.4253 70.8143 89.1871 70.9335C88.9488 71.0526 88.8297 71.41 88.9488 71.6482L91.6888 76.8898Z" fill="#5E5E5E"/>
<path d="M90.0203 77.7238C90.1394 77.9621 90.4968 78.0812 90.7351 77.9621C90.9733 77.843 91.0925 77.4856 90.9733 77.2473L88.2334 72.0057C88.1143 71.7674 87.7569 71.6483 87.5186 71.7674C87.2804 71.8866 87.1612 72.244 87.2804 72.4822L90.0203 77.7238Z" fill="#5E5E5E"/>
<path d="M88.472 78.6767C88.5911 78.915 88.9485 79.0341 89.1867 78.9149C89.425 78.7958 89.5441 78.4384 89.425 78.2002L86.6851 72.9586C86.5659 72.7203 86.2085 72.6012 85.9703 72.7203C85.732 72.8394 85.6129 73.1968 85.732 73.4351L88.472 78.6767Z" fill="#5E5E5E"/>
<path d="M86.805 79.5107C86.9241 79.7489 87.2815 79.8681 87.5197 79.7489C87.758 79.6298 87.8771 79.2724 87.758 79.0342L85.0181 73.7926C84.8989 73.5543 84.5416 73.4352 84.3033 73.5543C84.065 73.6734 83.9459 74.0308 84.065 74.2691L86.805 79.5107Z" fill="#5E5E5E"/>
<path d="M85.1365 80.3447C85.2556 80.5829 85.613 80.7021 85.8513 80.5829C86.0895 80.4638 86.2087 80.1064 86.0895 79.8682L83.3496 74.6266C83.2305 74.3883 82.8731 74.2692 82.6348 74.3883C82.3966 74.5074 82.2775 74.8648 82.3966 75.1031L85.1365 80.3447Z" fill="#5E5E5E"/>
<path d="M145.415 61.165H123.972V75.3412H145.415V61.165Z" fill="#9C9B9B"/>
<path d="M129.929 61.165H123.972V75.3412H129.929V61.165Z" fill="#ECECEC"/>
<path d="M213.199 151.345C213.199 194.707 178.056 229.85 134.694 229.85C91.3311 229.85 56.1885 194.707 56.1885 151.345C56.1885 107.982 91.3311 72.8396 134.694 72.8396C178.056 72.8396 213.199 107.982 213.199 151.345Z" fill="url(#paint0_linear)"/>
<path opacity="0.5" d="M116.228 81.0593C115.514 81.2976 114.799 81.4167 114.084 81.6549C152.681 72.8395 191.636 96.3076 201.643 134.905C211.649 173.502 189.134 212.933 151.133 224.012C151.847 223.893 152.562 223.655 153.277 223.536C192.589 213.291 216.176 173.145 206.05 133.714C195.805 94.4016 155.54 70.8143 116.228 81.0593Z" fill="white"/>
<path d="M200.81 151.345C200.81 187.917 171.266 217.46 134.694 217.46C98.1217 217.46 68.5781 187.798 68.5781 151.345C68.5781 114.772 98.2409 85.2288 134.694 85.2288C171.147 85.2288 200.81 114.772 200.81 151.345Z" fill="#6F6F6E"/>
<path d="M197.236 151.345C197.236 185.892 169.241 213.887 134.694 213.887C100.147 213.887 72.1519 185.892 72.1519 151.345C72.1519 116.798 100.147 88.8027 134.694 88.8027C169.241 88.8027 197.236 116.798 197.236 151.345Z" fill="white"/>
<path d="M138.148 193.158H131.12V209.121H138.148V193.158Z" fill="#EA69FF"/>
<path d="M138.149 93.5676H131.121V109.531H138.149V93.5676Z" fill="#EA69FF"/>
<path d="M192.47 147.771H176.507V154.799H192.47V147.771Z" fill="#EA69FF"/>
<path d="M92.8801 147.771H76.917V154.799H92.8801V147.771Z" fill="#EA69FF"/>
<path d="M106.96 100.603L102.876 103.058L109.322 113.778L113.405 111.323L106.96 100.603Z" fill="#B1B1B1"/>
<path d="M160.008 188.785L155.926 191.244L162.38 201.959L166.462 199.5L160.008 188.785Z" fill="#B1B1B1"/>
<path d="M84.8035 122.158L82.573 126.369L93.7319 132.28L95.9625 128.069L84.8035 122.158Z" fill="#B1B1B1"/>
<path d="M175.804 170.402L173.568 174.611L184.616 180.479L186.851 176.27L175.804 170.402Z" fill="#B1B1B1"/>
<path d="M162.432 100.679L155.987 111.398L160.07 113.854L166.516 103.134L162.432 100.679Z" fill="#B1B1B1"/>
<path d="M109.278 188.885L102.821 199.599L106.903 202.058L113.359 191.345L109.278 188.885Z" fill="#B1B1B1"/>
<path d="M184.656 122.084L173.5 128L175.732 132.21L186.889 126.294L184.656 122.084Z" fill="#B1B1B1"/>
<path d="M93.5009 170.387L82.4521 176.25L84.6856 180.459L95.7343 174.596L93.5009 170.387Z" fill="#B1B1B1"/>
<path d="M156.018 55.5659C156.018 60.5693 151.967 64.7387 146.845 64.7387H122.424C117.42 64.7387 113.251 60.6884 113.251 55.5659C113.251 50.5625 117.301 46.3931 122.424 46.3931H146.964C151.967 46.3931 156.018 50.4434 156.018 55.5659Z" fill="#B1B1B1"/>
<path d="M132.43 58.7825C125.163 57.3529 119.207 55.0895 117.777 47.7036C115.157 49.2523 113.37 52.2305 113.37 55.566C113.37 60.5694 117.42 64.7388 122.542 64.7388H147.083C151.014 64.7388 154.349 62.2372 155.66 58.7825C147.917 61.0459 140.054 60.3311 132.43 58.7825Z" fill="#ECECEC"/>
<path d="M119.088 60.8076C119.088 61.4032 118.611 61.7606 118.135 61.7606C117.539 61.7606 117.182 61.2841 117.182 60.8076V50.2052C117.182 49.6096 117.658 49.2522 118.135 49.2522C118.731 49.2522 119.088 49.7287 119.088 50.2052V60.8076Z" fill="#5E5E5E"/>
<path d="M122.423 60.8076C122.423 61.4032 121.947 61.7606 121.47 61.7606C120.875 61.7606 120.517 61.2841 120.517 60.8076V50.2052C120.517 49.6096 120.994 49.2522 121.47 49.2522C122.066 49.2522 122.423 49.7287 122.423 50.2052V60.8076Z" fill="#5E5E5E"/>
<path d="M125.64 60.8076C125.64 61.4032 125.163 61.7606 124.687 61.7606C124.091 61.7606 123.734 61.2841 123.734 60.8076V50.2052C123.734 49.6096 124.21 49.2522 124.687 49.2522C125.283 49.2522 125.64 49.7287 125.64 50.2052V60.8076Z" fill="#5E5E5E"/>
<path d="M128.975 60.8076C128.975 61.4032 128.499 61.7606 128.022 61.7606C127.427 61.7606 127.069 61.2841 127.069 60.8076V50.2052C127.069 49.6096 127.546 49.2522 128.022 49.2522C128.618 49.2522 128.975 49.7287 128.975 50.2052V60.8076Z" fill="#5E5E5E"/>
<path d="M132.311 60.8076C132.311 61.4032 131.834 61.7606 131.358 61.7606C130.762 61.7606 130.405 61.2841 130.405 60.8076V50.2052C130.405 49.6096 130.881 49.2522 131.358 49.2522C131.953 49.2522 132.311 49.7287 132.311 50.2052V60.8076Z" fill="#5E5E5E"/>
<path d="M135.647 60.8076C135.647 61.4032 135.171 61.7606 134.694 61.7606C134.099 61.7606 133.741 61.2841 133.741 60.8076V50.2052C133.741 49.6096 134.218 49.2522 134.694 49.2522C135.29 49.2522 135.647 49.7287 135.647 50.2052V60.8076Z" fill="#5E5E5E"/>
<path d="M138.982 60.8076C138.982 61.4032 138.506 61.7606 138.029 61.7606C137.434 61.7606 137.076 61.2841 137.076 60.8076V50.2052C137.076 49.6096 137.553 49.2522 138.029 49.2522C138.625 49.2522 138.982 49.7287 138.982 50.2052V60.8076Z" fill="#5E5E5E"/>
<path d="M142.318 60.8076C142.318 61.4032 141.841 61.7606 141.365 61.7606C140.769 61.7606 140.412 61.2841 140.412 60.8076V50.2052C140.412 49.6096 140.888 49.2522 141.365 49.2522C141.961 49.2522 142.318 49.7287 142.318 50.2052V60.8076Z" fill="#5E5E5E"/>
<path d="M145.653 60.8076C145.653 61.4032 145.177 61.7606 144.7 61.7606C144.104 61.7606 143.747 61.2841 143.747 60.8076V50.2052C143.747 49.6096 144.224 49.2522 144.7 49.2522C145.296 49.2522 145.653 49.7287 145.653 50.2052V60.8076Z" fill="#5E5E5E"/>
<path d="M148.989 60.8076C148.989 61.4032 148.512 61.7606 148.036 61.7606C147.44 61.7606 147.083 61.2841 147.083 60.8076V50.2052C147.083 49.6096 147.559 49.2522 148.036 49.2522C148.631 49.2522 148.989 49.7287 148.989 50.2052V60.8076Z" fill="#5E5E5E"/>
<path d="M152.325 60.8076C152.325 61.4032 151.848 61.7606 151.372 61.7606C150.776 61.7606 150.419 61.2841 150.419 60.8076V50.2052C150.419 49.6096 150.895 49.2522 151.372 49.2522C151.968 49.2522 152.325 49.7287 152.325 50.2052V60.8076Z" fill="#5E5E5E"/>
<path d="M30.198 151.448H0.19873" stroke="white" stroke-width="10" stroke-miterlimit="10"/>
<path d="M43.208 112.051L20.4375 99.7622" stroke="white" stroke-width="10" stroke-miterlimit="10"/>
<path d="M41.0407 188.677L19.3545 208.918" stroke="white" stroke-width="10" stroke-miterlimit="10"/>
<path d="M113.196 165.886H106.708V148.124L106.771 145.205L106.876 142.014C105.798 143.092 105.049 143.799 104.629 144.135L101.102 146.969L97.9737 143.064L107.863 135.19H113.196V165.886ZM143.01 150.538C143.01 155.899 142.128 159.868 140.365 162.443C138.615 165.019 135.914 166.306 132.26 166.306C128.719 166.306 126.045 164.977 124.24 162.317C122.448 159.658 121.552 155.731 121.552 150.538C121.552 145.121 122.427 141.132 124.177 138.571C125.926 135.995 128.621 134.707 132.26 134.707C135.802 134.707 138.475 136.051 140.281 138.739C142.1 141.426 143.01 145.359 143.01 150.538ZM127.998 150.538C127.998 154.304 128.32 157.005 128.964 158.643C129.622 160.267 130.721 161.078 132.26 161.078C133.772 161.078 134.864 160.253 135.536 158.601C136.208 156.949 136.543 154.262 136.543 150.538C136.543 146.773 136.201 144.072 135.515 142.434C134.843 140.782 133.758 139.956 132.26 139.956C130.735 139.956 129.643 140.782 128.985 142.434C128.327 144.072 127.998 146.773 127.998 150.538ZM173.119 165.886H165.728L157.687 152.953L154.936 154.927V165.886H148.427V135.19H154.936V149.237L157.498 145.625L165.812 135.19H173.035L162.327 148.775L173.119 165.886Z" fill="#EA69FF"/>
<defs>
<linearGradient id="paint0_linear" x1="134.694" y1="72.8396" x2="134.694" y2="229.85" gradientUnits="userSpaceOnUse">
<stop stop-color="#FF8BB3"/>
<stop offset="1" stop-color="#AF0732"/>
</linearGradient>
</defs>
</svg>
