<svg width="179" height="193" viewBox="0 0 179 193" fill="none" xmlns="http://www.w3.org/2000/svg">
<path d="M112.9 0.268066C98.8 0.268066 87.3 11.6681 87.3 25.8681C87.3 39.9681 98.7 51.4681 112.9 51.4681C127 51.4681 138.5 40.0681 138.5 25.8681C138.4 11.7681 127 0.268066 112.9 0.268066ZM112.9 43.6681C103.1 43.6681 95.1 35.6681 95.1 25.8681C95.1 16.0681 103.1 8.06807 112.9 8.06807C122.7 8.06807 130.7 16.0681 130.7 25.8681C130.7 35.6681 122.7 43.6681 112.9 43.6681Z" fill="#B30E38"/>
<path d="M142.689 60.9734L139.604 66.8079L148.444 71.483L151.529 65.6485L142.689 60.9734Z" fill="#9C9B9B"/>
<path d="M147.2 67.7681C145.6 67.0681 144.3 66.0681 142.8 65.3681C142.2 65.0681 141.6 64.5681 141.2 64.0681L139.7 66.8681L148.6 71.5681L150 68.9681C149 68.4681 148.1 68.1681 147.2 67.7681Z" fill="#ECECEC"/>
<path d="M157.2 65.568C156.1 67.668 153.5 68.468 151.4 67.368L141.3 61.968C139.2 60.868 138.4 58.2681 139.5 56.1681C140.6 54.0681 143.2 53.268 145.3 54.368L155.4 59.768C157.6 60.968 158.4 63.568 157.2 65.568Z" fill="#B1B1B1"/>
<path d="M147.5 62.668C144.2 60.768 141.6 58.468 140.6 54.968C140.2 55.268 139.8 55.768 139.6 56.268C138.5 58.368 139.3 60.968 141.4 62.068L151.5 67.468C153.1 68.268 154.9 68.068 156.2 67.068C153.1 66.068 150.4 64.368 147.5 62.668Z" fill="#ECECEC"/>
<path d="M140.8 59.768C140.7 59.968 140.4 60.068 140.2 59.968C140 59.868 139.9 59.568 140 59.368L142.3 54.968C142.4 54.768 142.7 54.668 142.9 54.768C143.1 54.868 143.2 55.168 143.1 55.368L140.8 59.768Z" fill="#5E5E5E"/>
<path d="M142.2 60.4682C142.1 60.6682 141.8 60.7682 141.6 60.6682C141.4 60.5682 141.3 60.2682 141.4 60.0682L143.7 55.6682C143.8 55.4682 144.1 55.3682 144.3 55.4682C144.5 55.5682 144.6 55.8682 144.5 56.0682L142.2 60.4682Z" fill="#5E5E5E"/>
<path d="M143.5 61.1681C143.4 61.3681 143.1 61.4681 142.9 61.3681C142.7 61.2681 142.6 60.9681 142.7 60.7681L145 56.3681C145.1 56.1681 145.4 56.0681 145.6 56.1681C145.8 56.2681 145.9 56.5681 145.8 56.7681L143.5 61.1681Z" fill="#5E5E5E"/>
<path d="M144.9 61.8681C144.8 62.0681 144.5 62.1681 144.3 62.0681C144.1 61.9681 144 61.6681 144.1 61.4681L146.4 57.0681C146.5 56.8681 146.8 56.7681 147 56.8681C147.2 56.9681 147.3 57.2681 147.2 57.4681L144.9 61.8681Z" fill="#5E5E5E"/>
<path d="M146.3 62.6681C146.2 62.8681 145.9 62.9681 145.7 62.8681C145.5 62.7681 145.4 62.4681 145.5 62.2681L147.8 57.8681C147.9 57.6681 148.2 57.5681 148.4 57.6681C148.6 57.7681 148.7 58.0681 148.6 58.2681L146.3 62.6681Z" fill="#5E5E5E"/>
<path d="M147.7 63.3681C147.6 63.5681 147.3 63.6681 147.1 63.5681C146.9 63.4681 146.8 63.1681 146.9 62.9681L149.2 58.5681C149.3 58.3681 149.6 58.2681 149.8 58.3681C150 58.4681 150.1 58.7681 150 58.9681L147.7 63.3681Z" fill="#5E5E5E"/>
<path d="M149 64.068C148.9 64.268 148.6 64.368 148.4 64.268C148.2 64.168 148.1 63.868 148.2 63.668L150.5 59.268C150.6 59.068 150.9 58.968 151.1 59.068C151.3 59.168 151.4 59.468 151.3 59.668L149 64.068Z" fill="#5E5E5E"/>
<path d="M150.4 64.768C150.3 64.968 150 65.068 149.8 64.968C149.6 64.868 149.5 64.568 149.6 64.368L151.9 59.968C152 59.768 152.3 59.668 152.5 59.768C152.7 59.868 152.8 60.168 152.7 60.368L150.4 64.768Z" fill="#5E5E5E"/>
<path d="M151.8 65.568C151.7 65.768 151.4 65.868 151.2 65.768C151 65.668 150.9 65.368 151 65.168L153.3 60.768C153.4 60.568 153.7 60.468 153.9 60.568C154.1 60.668 154.2 60.968 154.1 61.168L151.8 65.568Z" fill="#5E5E5E"/>
<path d="M153.2 66.268C153.1 66.468 152.8 66.568 152.6 66.468C152.4 66.368 152.3 66.068 152.4 65.868L154.7 61.468C154.8 61.268 155.1 61.168 155.3 61.268C155.5 61.368 155.6 61.668 155.5 61.868L153.2 66.268Z" fill="#5E5E5E"/>
<path d="M154.5 66.9682C154.4 67.1682 154.1 67.2682 153.9 67.1682C153.7 67.0682 153.6 66.7682 153.7 66.5682L156 62.1682C156.1 61.9682 156.4 61.8682 156.6 61.9682C156.8 62.0682 156.9 62.3682 156.8 62.5682L154.5 66.9682Z" fill="#5E5E5E"/>
<path d="M83.0563 60.928L74.2163 65.6021L77.3011 71.4365L86.141 66.7624L83.0563 60.928Z" fill="#9C9B9B"/>
<path d="M85.1 66.3682C83.4 67.1682 82.4 67.5682 80.5 67.6682C78.3 67.7682 76.6 66.7682 75 65.4682L74.9 65.3682L74.3 65.6682L77.4 71.5682L86.3 66.8682L85.9 66.0682C85.5 66.0682 85.3 66.2682 85.1 66.3682Z" fill="#ECECEC"/>
<path d="M68.6 65.568C69.7 67.668 72.3 68.468 74.4 67.368L84.5 61.968C86.6 60.868 87.4 58.2681 86.3 56.1681C85.2 54.0681 82.6 53.268 80.5 54.368L70.4 59.768C68.3 60.968 67.5 63.568 68.6 65.568Z" fill="#B1B1B1"/>
<path d="M68.5001 61.8682C68.0001 63.0682 67.9001 64.4682 68.6001 65.6682C69.7001 67.7682 72.3001 68.5682 74.4001 67.4682L84.5001 62.0682C86.2001 61.1682 87.1001 59.2682 86.7001 57.3682C81.4001 61.7682 74.8001 65.2682 68.5001 61.8682Z" fill="#ECECEC"/>
<path d="M85.1 59.768C85.2 59.968 85.5 60.068 85.7 59.968C85.9 59.868 86 59.568 85.9 59.368L83.6 54.968C83.5 54.768 83.2 54.668 83 54.768C82.8 54.868 82.7 55.168 82.8 55.368L85.1 59.768Z" fill="#5E5E5E"/>
<path d="M83.6998 60.4682C83.7998 60.6682 84.0998 60.7682 84.2998 60.6682C84.4998 60.5682 84.5998 60.2682 84.4998 60.0682L82.1998 55.6682C82.0998 55.4682 81.7998 55.3682 81.5998 55.4682C81.3998 55.5682 81.2998 55.8682 81.3998 56.0682L83.6998 60.4682Z" fill="#5E5E5E"/>
<path d="M82.2999 61.1681C82.3999 61.3681 82.6999 61.4681 82.8999 61.3681C83.0999 61.2681 83.1999 60.9681 83.0999 60.7681L80.7999 56.3681C80.6999 56.1681 80.3999 56.0681 80.1999 56.1681C79.9999 56.2681 79.8999 56.5681 79.9999 56.7681L82.2999 61.1681Z" fill="#5E5E5E"/>
<path d="M80.9999 61.8681C81.0999 62.0681 81.3999 62.1681 81.5999 62.0681C81.7999 61.9681 81.8999 61.6681 81.7999 61.4681L79.4999 57.0681C79.3999 56.8681 79.0999 56.7681 78.8999 56.8681C78.6999 56.9681 78.5999 57.2681 78.6999 57.4681L80.9999 61.8681Z" fill="#5E5E5E"/>
<path d="M79.6 62.6681C79.7 62.8681 80 62.9681 80.2 62.8681C80.4 62.7681 80.5 62.4681 80.4 62.2681L78.1 57.8681C78 57.6681 77.7 57.5681 77.5 57.6681C77.3 57.7681 77.2 58.0681 77.3 58.2681L79.6 62.6681Z" fill="#5E5E5E"/>
<path d="M78.1998 63.3681C78.2998 63.5681 78.5998 63.6681 78.7998 63.5681C78.9998 63.4681 79.0998 63.1681 78.9998 62.9681L76.6998 58.5681C76.5998 58.3681 76.2998 58.2681 76.0998 58.3681C75.8998 58.4681 75.7998 58.7681 75.8998 58.9681L78.1998 63.3681Z" fill="#5E5E5E"/>
<path d="M76.7999 64.068C76.8999 64.268 77.1999 64.368 77.3999 64.268C77.5999 64.168 77.6999 63.868 77.5999 63.668L75.2999 59.268C75.1999 59.068 74.8999 58.968 74.6999 59.068C74.4999 59.168 74.3999 59.468 74.4999 59.668L76.7999 64.068Z" fill="#5E5E5E"/>
<path d="M75.4 64.768C75.5 64.968 75.8 65.068 76 64.968C76.2 64.868 76.3 64.568 76.2 64.368L73.9 59.968C73.8 59.768 73.5 59.668 73.3 59.768C73.1 59.868 73 60.168 73.1 60.368L75.4 64.768Z" fill="#5E5E5E"/>
<path d="M74.1 65.568C74.2 65.768 74.5 65.868 74.7 65.768C74.9 65.668 75 65.368 74.9 65.168L72.6 60.768C72.5 60.568 72.2 60.468 72 60.568C71.8 60.668 71.7 60.968 71.8 61.168L74.1 65.568Z" fill="#5E5E5E"/>
<path d="M72.6998 66.268C72.7998 66.468 73.0998 66.568 73.2998 66.468C73.4998 66.368 73.5998 66.068 73.4998 65.868L71.1998 61.468C71.0998 61.268 70.7998 61.168 70.5998 61.268C70.3998 61.368 70.2998 61.668 70.3998 61.868L72.6998 66.268Z" fill="#5E5E5E"/>
<path d="M71.2999 66.9682C71.3999 67.1682 71.6999 67.2682 71.8999 67.1682C72.0999 67.0682 72.1999 66.7682 72.0999 66.5682L69.7999 62.1682C69.6999 61.9682 69.3999 61.8682 69.1999 61.9682C68.9999 62.0682 68.8999 62.3682 68.9999 62.5682L71.2999 66.9682Z" fill="#5E5E5E"/>
<path d="M121.9 50.8682H103.9V62.7682H121.9V50.8682Z" fill="#9C9B9B"/>
<path d="M108.9 50.8682H103.9V62.7682H108.9V50.8682Z" fill="#ECECEC"/>
<path d="M178.8 126.568C178.8 162.968 149.3 192.468 112.9 192.468C76.5 192.468 47 162.968 47 126.568C47 90.168 76.5 60.668 112.9 60.668C149.3 60.668 178.8 90.168 178.8 126.568Z" fill="url(#paint0_linear)"/>
<path opacity="0.5" d="M97.4001 67.568C96.8001 67.768 96.2001 67.868 95.6001 68.068C128 60.668 160.7 80.368 169.1 112.768C177.5 145.168 158.6 178.268 126.7 187.568C127.3 187.468 127.9 187.268 128.5 187.168C161.5 178.568 181.3 144.868 172.8 111.768C164.2 78.768 130.4 58.968 97.4001 67.568Z" fill="white"/>
<path d="M168.4 126.568C168.4 157.268 143.6 182.068 112.9 182.068C82.1999 182.068 57.3999 157.168 57.3999 126.568C57.3999 95.8681 82.2999 71.0681 112.9 71.0681C143.5 71.0681 168.4 95.8681 168.4 126.568Z" fill="#6F6F6E"/>
<path d="M165.4 126.568C165.4 155.568 141.9 179.068 112.9 179.068C83.8999 179.068 60.3999 155.568 60.3999 126.568C60.3999 97.5681 83.8999 74.0681 112.9 74.0681C141.9 74.0681 165.4 97.5681 165.4 126.568Z" fill="white"/>
<path d="M115.8 161.668H109.9V175.068H115.8V161.668Z" fill="#EA69FF"/>
<path d="M115.8 78.0681H109.9V91.4681H115.8V78.0681Z" fill="#EA69FF"/>
<path d="M161.4 123.568H148V129.468H161.4V123.568Z" fill="#EA69FF"/>
<path d="M77.7999 123.568H64.3999V129.468H77.7999V123.568Z" fill="#EA69FF"/>
<path d="M89.6189 83.9739L86.1909 86.0352L91.6015 95.0337L95.0294 92.9725L89.6189 83.9739Z" fill="#B1B1B1"/>
<path d="M134.15 157.998L130.723 160.062L136.141 169.056L139.568 166.992L134.15 157.998Z" fill="#B1B1B1"/>
<path d="M71.0205 102.067L69.1482 105.602L78.5153 110.564L80.3877 107.029L71.0205 102.067Z" fill="#B1B1B1"/>
<path d="M147.409 142.566L145.532 146.098L154.806 151.024L156.682 147.491L147.409 142.566Z" fill="#B1B1B1"/>
<path d="M136.185 84.0373L130.775 93.0359L134.203 95.0971L139.613 86.0986L136.185 84.0373Z" fill="#B1B1B1"/>
<path d="M91.566 158.081L86.1458 167.074L89.5718 169.139L94.9921 160.146L91.566 158.081Z" fill="#B1B1B1"/>
<path d="M154.841 102.006L145.476 106.972L147.35 110.506L156.715 105.54L154.841 102.006Z" fill="#B1B1B1"/>
<path d="M78.3215 142.553L69.0469 147.475L70.9217 151.008L80.1963 146.086L78.3215 142.553Z" fill="#B1B1B1"/>
<path d="M130.8 46.168C130.8 50.368 127.4 53.868 123.1 53.868H102.6C98.3999 53.868 94.8999 50.468 94.8999 46.168C94.8999 41.968 98.2999 38.468 102.6 38.468H123.2C127.4 38.468 130.8 41.868 130.8 46.168Z" fill="#B1B1B1"/>
<path d="M111 48.8681C104.9 47.6681 99.9 45.7681 98.7 39.5681C96.5 40.8681 95 43.3681 95 46.1681C95 50.3681 98.4 53.8681 102.7 53.8681H123.3C126.6 53.8681 129.4 51.7681 130.5 48.8681C124 50.7681 117.4 50.1681 111 48.8681Z" fill="#ECECEC"/>
<path d="M99.8 50.5682C99.8 51.0682 99.4 51.3682 99 51.3682C98.5 51.3682 98.2 50.9682 98.2 50.5682V41.6682C98.2 41.1682 98.6 40.8682 99 40.8682C99.5 40.8682 99.8 41.2682 99.8 41.6682V50.5682Z" fill="#5E5E5E"/>
<path d="M102.6 50.5682C102.6 51.0682 102.2 51.3682 101.8 51.3682C101.3 51.3682 101 50.9682 101 50.5682V41.6682C101 41.1682 101.4 40.8682 101.8 40.8682C102.3 40.8682 102.6 41.2682 102.6 41.6682V50.5682Z" fill="#5E5E5E"/>
<path d="M105.3 50.5682C105.3 51.0682 104.9 51.3682 104.5 51.3682C104 51.3682 103.7 50.9682 103.7 50.5682V41.6682C103.7 41.1682 104.1 40.8682 104.5 40.8682C105 40.8682 105.3 41.2682 105.3 41.6682V50.5682Z" fill="#5E5E5E"/>
<path d="M108.1 50.5682C108.1 51.0682 107.7 51.3682 107.3 51.3682C106.8 51.3682 106.5 50.9682 106.5 50.5682V41.6682C106.5 41.1682 106.9 40.8682 107.3 40.8682C107.8 40.8682 108.1 41.2682 108.1 41.6682V50.5682Z" fill="#5E5E5E"/>
<path d="M110.9 50.5682C110.9 51.0682 110.5 51.3682 110.1 51.3682C109.6 51.3682 109.3 50.9682 109.3 50.5682V41.6682C109.3 41.1682 109.7 40.8682 110.1 40.8682C110.6 40.8682 110.9 41.2682 110.9 41.6682V50.5682Z" fill="#5E5E5E"/>
<path d="M113.7 50.5682C113.7 51.0682 113.3 51.3682 112.9 51.3682C112.4 51.3682 112.1 50.9682 112.1 50.5682V41.6682C112.1 41.1682 112.5 40.8682 112.9 40.8682C113.4 40.8682 113.7 41.2682 113.7 41.6682V50.5682Z" fill="#5E5E5E"/>
<path d="M116.5 50.5682C116.5 51.0682 116.1 51.3682 115.7 51.3682C115.2 51.3682 114.9 50.9682 114.9 50.5682V41.6682C114.9 41.1682 115.3 40.8682 115.7 40.8682C116.2 40.8682 116.5 41.2682 116.5 41.6682V50.5682Z" fill="#5E5E5E"/>
<path d="M119.3 50.5682C119.3 51.0682 118.9 51.3682 118.5 51.3682C118 51.3682 117.7 50.9682 117.7 50.5682V41.6682C117.7 41.1682 118.1 40.8682 118.5 40.8682C119 40.8682 119.3 41.2682 119.3 41.6682V50.5682Z" fill="#5E5E5E"/>
<path d="M122.1 50.5682C122.1 51.0682 121.7 51.3682 121.3 51.3682C120.8 51.3682 120.5 50.9682 120.5 50.5682V41.6682C120.5 41.1682 120.9 40.8682 121.3 40.8682C121.8 40.8682 122.1 41.2682 122.1 41.6682V50.5682Z" fill="#5E5E5E"/>
<path d="M124.9 50.5682C124.9 51.0682 124.5 51.3682 124.1 51.3682C123.6 51.3682 123.3 50.9682 123.3 50.5682V41.6682C123.3 41.1682 123.7 40.8682 124.1 40.8682C124.6 40.8682 124.9 41.2682 124.9 41.6682V50.5682Z" fill="#5E5E5E"/>
<path d="M127.7 50.5682C127.7 51.0682 127.3 51.3682 126.9 51.3682C126.4 51.3682 126.1 50.9682 126.1 50.5682V41.6682C126.1 41.1682 126.5 40.8682 126.9 40.8682C127.4 40.8682 127.7 41.2682 127.7 41.6682V50.5682Z" fill="#5E5E5E"/>
<path d="M25.1824 126.655H0" stroke="white" stroke-width="10" stroke-miterlimit="10"/>
<path d="M36.1039 93.5838L16.9895 83.2681" stroke="white" stroke-width="10" stroke-miterlimit="10"/>
<path d="M34.284 157.906L16.0798 174.897" stroke="white" stroke-width="10" stroke-miterlimit="10"/>
<path d="M115.589 141.268H108.799V122.679L108.865 119.625L108.975 116.285C107.847 117.413 107.063 118.153 106.624 118.504L102.933 121.471L99.6587 117.384L110.008 109.144H115.589V141.268Z" fill="#EA69FF"/>
<defs>
<linearGradient id="paint0_linear" x1="112.9" y1="60.668" x2="112.9" y2="192.468" gradientUnits="userSpaceOnUse">
<stop stop-color="#FF8BB3"/>
<stop offset="1" stop-color="#AF0732"/>
</linearGradient>
</defs>
</svg>
