<svg width="214" height="230" viewBox="0 0 214 230" fill="none" xmlns="http://www.w3.org/2000/svg">
<path d="M134.694 0.886475C117.897 0.886475 104.198 14.467 104.198 31.3831C104.198 48.1801 117.778 61.8798 134.694 61.8798C151.491 61.8798 165.191 48.2992 165.191 31.3831C165.072 14.5861 151.491 0.886475 134.694 0.886475ZM134.694 52.5878C123.02 52.5878 113.489 43.0576 113.489 31.3831C113.489 19.7086 123.02 10.1784 134.694 10.1784C146.369 10.1784 155.899 19.7086 155.899 31.3831C155.899 43.0576 146.369 52.5878 134.694 52.5878Z" fill="#B30E38"/>
<path d="M170.181 73.2034L166.506 80.1538L177.036 85.723L180.712 78.7726L170.181 73.2034Z" fill="#9C9B9B"/>
<path d="M175.555 81.2976C173.649 80.4637 172.101 79.2724 170.314 78.4385C169.599 78.0812 168.884 77.4855 168.408 76.8899L166.621 80.2254L177.223 85.8245L178.891 82.7271C177.7 82.1315 176.627 81.7741 175.555 81.2976Z" fill="#ECECEC"/>
<path d="M187.468 78.6768C186.158 81.1784 183.06 82.1314 180.559 80.821L168.527 74.3882C166.025 73.0778 165.072 69.9805 166.382 67.4788C167.693 64.9771 170.79 64.0241 173.292 65.3345L185.324 71.7673C187.945 73.1969 188.898 76.2942 187.468 78.6768Z" fill="#B1B1B1"/>
<path d="M175.912 75.2219C171.981 72.9585 168.884 70.2185 167.692 66.0491C167.216 66.4065 166.739 67.0021 166.501 67.5977C165.191 70.0994 166.144 73.1967 168.645 74.5071L180.677 80.94C182.583 81.893 184.728 81.6548 186.276 80.4635C182.583 79.2722 179.367 77.2471 175.912 75.2219Z" fill="#ECECEC"/>
<path d="M167.931 71.7675C167.812 72.0058 167.455 72.1249 167.216 72.0058C166.978 71.8867 166.859 71.5293 166.978 71.291L169.718 66.0494C169.837 65.8112 170.195 65.692 170.433 65.8111C170.671 65.9303 170.79 66.2877 170.671 66.5259L167.931 71.7675Z" fill="#5E5E5E"/>
<path d="M169.599 72.6013C169.48 72.8395 169.122 72.9586 168.884 72.8395C168.646 72.7204 168.527 72.363 168.646 72.1247L171.386 66.8831C171.505 66.6449 171.862 66.5257 172.101 66.6449C172.339 66.764 172.458 67.1214 172.339 67.3596L169.599 72.6013Z" fill="#5E5E5E"/>
<path d="M171.147 73.4352C171.028 73.6735 170.671 73.7926 170.433 73.6735C170.194 73.5543 170.075 73.197 170.194 72.9587L172.934 67.7171C173.053 67.4788 173.411 67.3597 173.649 67.4789C173.887 67.598 174.006 67.9553 173.887 68.1936L171.147 73.4352Z" fill="#5E5E5E"/>
<path d="M172.814 74.269C172.695 74.5072 172.338 74.6264 172.1 74.5072C171.861 74.3881 171.742 74.0307 171.861 73.7925L174.601 68.5509C174.72 68.3126 175.078 68.1935 175.316 68.3126C175.554 68.4317 175.674 68.7891 175.554 69.0274L172.814 74.269Z" fill="#5E5E5E"/>
<path d="M174.483 75.2221C174.364 75.4604 174.006 75.5795 173.768 75.4603C173.53 75.3412 173.411 74.9838 173.53 74.7456L176.27 69.504C176.389 69.2657 176.746 69.1466 176.984 69.2657C177.223 69.3849 177.342 69.7422 177.223 69.9805L174.483 75.2221Z" fill="#5E5E5E"/>
<path d="M176.151 76.0558C176.032 76.2941 175.675 76.4132 175.436 76.2941C175.198 76.175 175.079 75.8176 175.198 75.5793L177.938 70.3377C178.057 70.0995 178.414 69.9803 178.653 70.0995C178.891 70.2186 179.01 70.576 178.891 70.8142L176.151 76.0558Z" fill="#5E5E5E"/>
<path d="M177.699 76.8898C177.58 77.1281 177.223 77.2472 176.985 77.1281C176.746 77.0089 176.627 76.6516 176.746 76.4133L179.486 71.1717C179.606 70.9334 179.963 70.8143 180.201 70.9335C180.439 71.0526 180.559 71.41 180.439 71.6482L177.699 76.8898Z" fill="#5E5E5E"/>
<path d="M179.366 77.7238C179.247 77.9621 178.89 78.0812 178.652 77.9621C178.413 77.843 178.294 77.4856 178.413 77.2473L181.153 72.0057C181.272 71.7674 181.63 71.6483 181.868 71.7674C182.106 71.8866 182.226 72.244 182.106 72.4822L179.366 77.7238Z" fill="#5E5E5E"/>
<path d="M181.035 78.6767C180.916 78.915 180.558 79.0341 180.32 78.9149C180.082 78.7958 179.963 78.4384 180.082 78.2002L182.822 72.9586C182.941 72.7203 183.298 72.6012 183.536 72.7203C183.775 72.8394 183.894 73.1968 183.775 73.4351L181.035 78.6767Z" fill="#5E5E5E"/>
<path d="M182.703 79.5107C182.584 79.7489 182.227 79.8681 181.988 79.7489C181.75 79.6298 181.631 79.2724 181.75 79.0342L184.49 73.7926C184.609 73.5543 184.966 73.4352 185.205 73.5543C185.443 73.6734 185.562 74.0308 185.443 74.2691L182.703 79.5107Z" fill="#5E5E5E"/>
<path d="M184.251 80.3447C184.132 80.5829 183.775 80.7021 183.537 80.5829C183.298 80.4638 183.179 80.1064 183.298 79.8682L186.038 74.6266C186.158 74.3883 186.515 74.2692 186.753 74.3883C186.991 74.5074 187.111 74.8648 186.991 75.1031L184.251 80.3447Z" fill="#5E5E5E"/>
<path d="M99.1417 73.1491L88.6108 78.717L92.2858 85.6674L102.817 80.0994L99.1417 73.1491Z" fill="#9C9B9B"/>
<path d="M101.577 79.6298C99.5515 80.5828 98.3603 81.0593 96.0968 81.1784C93.476 81.2976 91.4509 80.1063 89.5448 78.5576L89.4257 78.4385L88.7109 78.7959L92.4039 85.8244L103.006 80.2254L102.53 79.2724C102.053 79.2724 101.815 79.5106 101.577 79.6298Z" fill="#ECECEC"/>
<path d="M81.9205 78.6768C83.2309 81.1784 86.3282 82.1314 88.8299 80.821L100.862 74.3882C103.363 73.0778 104.317 69.9805 103.006 67.4788C101.696 64.9771 98.5984 64.0241 96.0967 65.3345L84.0648 71.7673C81.5631 73.1969 80.6101 76.2942 81.9205 78.6768Z" fill="#B1B1B1"/>
<path d="M81.8013 74.2689C81.2057 75.6985 81.0866 77.3663 81.9205 78.7958C83.2309 81.2975 86.3282 82.2505 88.8299 80.9401L100.862 74.5072C102.887 73.4351 103.959 71.1716 103.483 68.9082C97.1688 74.1498 89.3064 78.3193 81.8013 74.2689Z" fill="#ECECEC"/>
<path d="M101.577 71.7673C101.696 72.0055 102.053 72.1247 102.292 72.0055C102.53 71.8864 102.649 71.529 102.53 71.2908L99.79 66.0492C99.6709 65.8109 99.3135 65.6918 99.0753 65.8109C98.837 65.93 98.7179 66.2874 98.837 66.5257L101.577 71.7673Z" fill="#5E5E5E"/>
<path d="M99.9098 72.6013C100.029 72.8395 100.386 72.9586 100.625 72.8395C100.863 72.7204 100.982 72.363 100.863 72.1247L98.1229 66.8831C98.0038 66.6449 97.6464 66.5257 97.4082 66.6449C97.1699 66.764 97.0508 67.1214 97.1699 67.3596L99.9098 72.6013Z" fill="#5E5E5E"/>
<path d="M98.2416 73.4352C98.3608 73.6735 98.7181 73.7926 98.9564 73.6735C99.1946 73.5543 99.3138 73.197 99.1946 72.9587L96.4547 67.7171C96.3356 67.4788 95.9782 67.3597 95.7399 67.4789C95.5017 67.598 95.3826 67.9553 95.5017 68.1936L98.2416 73.4352Z" fill="#5E5E5E"/>
<path d="M96.6932 74.269C96.8123 74.5072 97.1697 74.6264 97.4079 74.5072C97.6462 74.3881 97.7653 74.0307 97.6462 73.7925L94.9063 68.5509C94.7871 68.3126 94.4297 68.1935 94.1915 68.3126C93.9532 68.4317 93.8341 68.7891 93.9532 69.0274L96.6932 74.269Z" fill="#5E5E5E"/>
<path d="M95.0249 75.2221C95.1441 75.4604 95.5015 75.5795 95.7397 75.4603C95.978 75.3412 96.0971 74.9838 95.978 74.7456L93.238 69.504C93.1189 69.2657 92.7615 69.1466 92.5233 69.2657C92.285 69.3849 92.1659 69.7422 92.285 69.9805L95.0249 75.2221Z" fill="#5E5E5E"/>
<path d="M93.3578 76.0558C93.477 76.2941 93.8343 76.4132 94.0726 76.2941C94.3109 76.175 94.43 75.8176 94.3109 75.5793L91.5709 70.3377C91.4518 70.0995 91.0944 69.9803 90.8562 70.0995C90.6179 70.2186 90.4988 70.576 90.6179 70.8142L93.3578 76.0558Z" fill="#5E5E5E"/>
<path d="M91.6896 76.8898C91.8088 77.1281 92.1661 77.2472 92.4044 77.1281C92.6426 77.0089 92.7618 76.6516 92.6426 76.4133L89.9027 71.1717C89.7836 70.9334 89.4262 70.8143 89.1879 70.9335C88.9497 71.0526 88.8306 71.41 88.9497 71.6482L91.6896 76.8898Z" fill="#5E5E5E"/>
<path d="M90.0214 77.7238C90.1405 77.9621 90.4979 78.0812 90.7362 77.9621C90.9744 77.843 91.0936 77.4856 90.9744 77.2473L88.2345 72.0057C88.1154 71.7674 87.758 71.6483 87.5197 71.7674C87.2815 71.8866 87.1623 72.244 87.2815 72.4822L90.0214 77.7238Z" fill="#5E5E5E"/>
<path d="M88.4729 78.6767C88.5921 78.915 88.9494 79.0341 89.1877 78.9149C89.426 78.7958 89.5451 78.4384 89.426 78.2002L86.686 72.9586C86.5669 72.7203 86.2095 72.6012 85.9713 72.7203C85.733 72.8394 85.6139 73.1968 85.733 73.4351L88.4729 78.6767Z" fill="#5E5E5E"/>
<path d="M86.8058 79.5107C86.925 79.7489 87.2823 79.8681 87.5206 79.7489C87.7589 79.6298 87.878 79.2724 87.7589 79.0342L85.0189 73.7926C84.8998 73.5543 84.5424 73.4352 84.3042 73.5543C84.0659 73.6734 83.9468 74.0308 84.0659 74.2691L86.8058 79.5107Z" fill="#5E5E5E"/>
<path d="M85.1376 80.3447C85.2567 80.5829 85.6141 80.7021 85.8524 80.5829C86.0906 80.4638 86.2098 80.1064 86.0906 79.8682L83.3507 74.6266C83.2316 74.3883 82.8742 74.2692 82.6359 74.3883C82.3977 74.5074 82.2786 74.8648 82.3977 75.1031L85.1376 80.3447Z" fill="#5E5E5E"/>
<path d="M145.416 61.165H123.973V75.3412H145.416V61.165Z" fill="#9C9B9B"/>
<path d="M129.93 61.165H123.973V75.3412H129.93V61.165Z" fill="#ECECEC"/>
<path d="M213.199 151.345C213.199 194.707 178.057 229.85 134.694 229.85C91.3319 229.85 56.1893 194.707 56.1893 151.345C56.1893 107.982 91.3319 72.8396 134.694 72.8396C178.057 72.8396 213.199 107.982 213.199 151.345Z" fill="url(#paint0_linear)"/>
<path opacity="0.5" d="M116.229 81.0593C115.514 81.2976 114.8 81.4167 114.085 81.6549C152.682 72.8395 191.637 96.3076 201.644 134.905C211.65 173.502 189.135 212.933 151.133 224.012C151.848 223.893 152.563 223.655 153.278 223.536C192.59 213.291 216.177 173.145 206.051 133.714C195.806 94.4016 155.541 70.8143 116.229 81.0593Z" fill="white"/>
<path d="M200.811 151.345C200.811 187.917 171.267 217.46 134.695 217.46C98.1227 217.46 68.5791 187.798 68.5791 151.345C68.5791 114.772 98.2419 85.2288 134.695 85.2288C171.148 85.2288 200.811 114.772 200.811 151.345Z" fill="#6F6F6E"/>
<path d="M197.237 151.345C197.237 185.892 169.242 213.887 134.695 213.887C100.148 213.887 72.1528 185.892 72.1528 151.345C72.1528 116.798 100.148 88.8027 134.695 88.8027C169.242 88.8027 197.237 116.798 197.237 151.345Z" fill="white"/>
<path d="M138.149 193.158H131.121V209.121H138.149V193.158Z" fill="#EA69FF"/>
<path d="M138.15 93.5676H131.122V109.531H138.15V93.5676Z" fill="#EA69FF"/>
<path d="M192.471 147.771H176.508V154.799H192.471V147.771Z" fill="#EA69FF"/>
<path d="M92.8811 147.771H76.918V154.799H92.8811V147.771Z" fill="#EA69FF"/>
<path d="M106.961 100.603L102.877 103.058L109.323 113.778L113.406 111.322L106.961 100.603Z" fill="#B1B1B1"/>
<path d="M160.009 188.785L155.927 191.244L162.381 201.959L166.463 199.5L160.009 188.785Z" fill="#B1B1B1"/>
<path d="M84.8047 122.157L82.5741 126.368L93.7331 132.279L95.9636 128.068L84.8047 122.157Z" fill="#B1B1B1"/>
<path d="M175.805 170.402L173.569 174.611L184.617 180.478L186.852 176.27L175.805 170.402Z" fill="#B1B1B1"/>
<path d="M162.433 100.679L155.988 111.398L160.071 113.854L166.517 103.134L162.433 100.679Z" fill="#B1B1B1"/>
<path d="M109.279 188.885L102.822 199.599L106.904 202.059L113.361 191.345L109.279 188.885Z" fill="#B1B1B1"/>
<path d="M184.657 122.084L173.501 128L175.733 132.21L186.89 126.294L184.657 122.084Z" fill="#B1B1B1"/>
<path d="M93.5018 170.387L82.4531 176.25L84.6866 180.459L95.7353 174.596L93.5018 170.387Z" fill="#B1B1B1"/>
<path d="M156.019 55.5659C156.019 60.5693 151.968 64.7387 146.846 64.7387H122.425C117.421 64.7387 113.252 60.6884 113.252 55.5659C113.252 50.5625 117.302 46.3931 122.425 46.3931H146.965C151.968 46.3931 156.019 50.4434 156.019 55.5659Z" fill="#B1B1B1"/>
<path d="M132.431 58.7825C125.164 57.3529 119.208 55.0895 117.778 47.7036C115.158 49.2523 113.371 52.2305 113.371 55.566C113.371 60.5694 117.421 64.7388 122.543 64.7388H147.084C151.015 64.7388 154.35 62.2372 155.661 58.7825C147.918 61.0459 140.055 60.3311 132.431 58.7825Z" fill="#ECECEC"/>
<path d="M119.089 60.8076C119.089 61.4032 118.612 61.7606 118.136 61.7606C117.54 61.7606 117.183 61.2841 117.183 60.8076V50.2052C117.183 49.6096 117.659 49.2522 118.136 49.2522C118.732 49.2522 119.089 49.7287 119.089 50.2052V60.8076Z" fill="#5E5E5E"/>
<path d="M122.424 60.8076C122.424 61.4032 121.948 61.7606 121.471 61.7606C120.876 61.7606 120.518 61.2841 120.518 60.8076V50.2052C120.518 49.6096 120.995 49.2522 121.471 49.2522C122.067 49.2522 122.424 49.7287 122.424 50.2052V60.8076Z" fill="#5E5E5E"/>
<path d="M125.641 60.8076C125.641 61.4032 125.164 61.7606 124.688 61.7606C124.092 61.7606 123.735 61.2841 123.735 60.8076V50.2052C123.735 49.6096 124.211 49.2522 124.688 49.2522C125.284 49.2522 125.641 49.7287 125.641 50.2052V60.8076Z" fill="#5E5E5E"/>
<path d="M128.976 60.8076C128.976 61.4032 128.5 61.7606 128.023 61.7606C127.428 61.7606 127.07 61.2841 127.07 60.8076V50.2052C127.07 49.6096 127.547 49.2522 128.023 49.2522C128.619 49.2522 128.976 49.7287 128.976 50.2052V60.8076Z" fill="#5E5E5E"/>
<path d="M132.312 60.8076C132.312 61.4032 131.835 61.7606 131.359 61.7606C130.763 61.7606 130.406 61.2841 130.406 60.8076V50.2052C130.406 49.6096 130.882 49.2522 131.359 49.2522C131.954 49.2522 132.312 49.7287 132.312 50.2052V60.8076Z" fill="#5E5E5E"/>
<path d="M135.648 60.8076C135.648 61.4032 135.172 61.7606 134.695 61.7606C134.099 61.7606 133.742 61.2841 133.742 60.8076V50.2052C133.742 49.6096 134.219 49.2522 134.695 49.2522C135.291 49.2522 135.648 49.7287 135.648 50.2052V60.8076Z" fill="#5E5E5E"/>
<path d="M138.983 60.8076C138.983 61.4032 138.507 61.7606 138.03 61.7606C137.435 61.7606 137.077 61.2841 137.077 60.8076V50.2052C137.077 49.6096 137.554 49.2522 138.03 49.2522C138.626 49.2522 138.983 49.7287 138.983 50.2052V60.8076Z" fill="#5E5E5E"/>
<path d="M142.319 60.8076C142.319 61.4032 141.842 61.7606 141.366 61.7606C140.77 61.7606 140.413 61.2841 140.413 60.8076V50.2052C140.413 49.6096 140.889 49.2522 141.366 49.2522C141.961 49.2522 142.319 49.7287 142.319 50.2052V60.8076Z" fill="#5E5E5E"/>
<path d="M145.654 60.8076C145.654 61.4032 145.178 61.7606 144.701 61.7606C144.106 61.7606 143.748 61.2841 143.748 60.8076V50.2052C143.748 49.6096 144.225 49.2522 144.701 49.2522C145.297 49.2522 145.654 49.7287 145.654 50.2052V60.8076Z" fill="#5E5E5E"/>
<path d="M148.99 60.8076C148.99 61.4032 148.513 61.7606 148.037 61.7606C147.441 61.7606 147.083 61.2841 147.083 60.8076V50.2052C147.083 49.6096 147.56 49.2522 148.037 49.2522C148.632 49.2522 148.99 49.7287 148.99 50.2052V60.8076Z" fill="#5E5E5E"/>
<path d="M152.326 60.8076C152.326 61.4032 151.849 61.7606 151.373 61.7606C150.777 61.7606 150.42 61.2841 150.42 60.8076V50.2052C150.42 49.6096 150.896 49.2522 151.373 49.2522C151.969 49.2522 152.326 49.7287 152.326 50.2052V60.8076Z" fill="#5E5E5E"/>
<path d="M30.1989 151.448H0.199707" stroke="white" stroke-width="10" stroke-miterlimit="10"/>
<path d="M43.2091 112.051L20.4386 99.7622" stroke="white" stroke-width="10" stroke-miterlimit="10"/>
<path d="M41.0417 188.677L19.3555 208.918" stroke="white" stroke-width="10" stroke-miterlimit="10"/>
<path d="M118.379 165.886H96.9214V161.372L104.627 153.583C106.909 151.245 108.399 149.628 109.099 148.733C109.799 147.823 110.303 146.983 110.611 146.213C110.919 145.443 111.073 144.645 111.073 143.82C111.073 142.588 110.73 141.671 110.044 141.069C109.372 140.467 108.469 140.166 107.335 140.166C106.146 140.166 104.991 140.439 103.871 140.985C102.751 141.531 101.583 142.308 100.365 143.316L96.8374 139.137C98.3491 137.85 99.6019 136.94 100.596 136.408C101.59 135.876 102.674 135.47 103.85 135.19C105.026 134.896 106.342 134.749 107.797 134.749C109.715 134.749 111.409 135.099 112.878 135.799C114.348 136.499 115.489 137.479 116.301 138.739C117.113 139.998 117.519 141.44 117.519 143.064C117.519 144.477 117.267 145.807 116.763 147.053C116.273 148.285 115.503 149.552 114.453 150.853C113.417 152.155 111.584 154.01 108.952 156.417L105.005 160.134V160.427H118.379V165.886ZM132.657 146.276C135.624 146.276 137.983 147.109 139.732 148.775C141.496 150.44 142.378 152.722 142.378 155.619C142.378 159.049 141.321 161.687 139.208 163.535C137.094 165.383 134.07 166.306 130.137 166.306C126.722 166.306 123.964 165.753 121.865 164.648V159.042C122.971 159.63 124.258 160.113 125.728 160.49C127.198 160.854 128.59 161.036 129.906 161.036C133.868 161.036 135.848 159.413 135.848 156.165C135.848 153.072 133.798 151.525 129.696 151.525C128.954 151.525 128.136 151.602 127.24 151.756C126.344 151.896 125.616 152.05 125.056 152.218L122.474 150.832L123.628 135.19H140.278V140.691H129.318L128.751 146.717L129.486 146.57C130.34 146.374 131.397 146.276 132.657 146.276ZM167.342 150.538C167.342 155.899 166.46 159.868 164.697 162.443C162.947 165.019 160.246 166.306 156.592 166.306C153.051 166.306 150.377 164.977 148.572 162.317C146.78 159.658 145.884 155.731 145.884 150.538C145.884 145.121 146.759 141.132 148.509 138.571C150.258 135.995 152.953 134.707 156.592 134.707C160.134 134.707 162.807 136.051 164.613 138.739C166.432 141.426 167.342 145.359 167.342 150.538ZM152.33 150.538C152.33 154.304 152.652 157.005 153.296 158.643C153.954 160.267 155.053 161.078 156.592 161.078C158.104 161.078 159.196 160.253 159.868 158.601C160.54 156.949 160.875 154.262 160.875 150.538C160.875 146.773 160.533 144.072 159.847 142.434C159.175 140.782 158.09 139.956 156.592 139.956C155.067 139.956 153.975 140.782 153.317 142.434C152.659 144.072 152.33 146.773 152.33 150.538Z" fill="#EA69FF"/>
<defs>
<linearGradient id="paint0_linear" x1="134.694" y1="72.8396" x2="134.694" y2="229.85" gradientUnits="userSpaceOnUse">
<stop stop-color="#FF8BB3"/>
<stop offset="1" stop-color="#AF0732"/>
</linearGradient>
</defs>
</svg>
