<svg width="267" height="267" viewBox="0 0 267 267" fill="none" xmlns="http://www.w3.org/2000/svg">
<circle cx="133.5" cy="133.5" r="133.5" fill="url(#paint0_linear)"/>
<rect x="195.71" y="195.826" width="8.92017" height="35.0199" rx="4.46009" fill="#2E0303"/>
<rect x="63.8896" y="195.826" width="8.92017" height="35.0199" rx="4.46009" fill="url(#paint1_linear)"/>
<path d="M132.672 210.241C125.268 210.241 117.884 209.803 110.519 208.909C99.5003 207.539 88.6907 205.218 78.2046 201.526C70.9918 198.996 64.0454 195.856 57.5368 191.842C53.0455 189.064 48.8396 185.924 45.0905 182.195C40.8846 178.028 37.4019 173.328 35.2133 167.791C33.3673 163.091 32.6061 158.239 33.1961 153.216C33.748 148.497 35.3656 144.14 37.7825 140.049C40.1995 135.958 43.2635 132.419 46.7462 129.204C52.3984 123.971 58.8119 119.899 65.6821 116.494C73.9606 112.365 82.6578 109.377 91.6024 107.113C97.8256 105.534 104.144 104.373 110.5 103.536C115.163 102.927 119.864 102.49 124.564 102.261C129.322 102.014 134.08 101.938 138.838 102.052C145.822 102.223 152.768 102.794 159.677 103.764C167.898 104.925 175.967 106.656 183.903 109.092C192.791 111.832 201.317 115.39 209.253 120.261C214.239 123.305 218.863 126.825 222.898 131.049C226.837 135.159 230.054 139.764 232.052 145.13C233.898 150.077 234.45 155.138 233.631 160.351C232.87 165.184 230.986 169.561 228.322 173.651C225.543 177.895 222.118 181.567 218.254 184.839C212.602 189.634 206.322 193.421 199.661 196.579C191.268 200.575 182.495 203.467 173.455 205.617C166.756 207.216 160 208.357 153.168 209.118C146.355 209.86 139.523 210.222 132.672 210.241Z" fill="url(#paint2_linear)"/>
<path d="M232.661 164.773C232.375 166.676 231.824 168.483 231.157 170.234C229.311 175.029 226.609 179.31 223.279 183.21C218.121 189.261 211.936 194.037 205.161 198.109C197.32 202.789 188.947 206.271 180.249 208.973C173.322 211.123 166.261 212.703 159.087 213.844C153.644 214.7 148.163 215.29 142.644 215.595C136.554 215.937 130.464 215.956 124.374 215.652C118.684 215.366 113.032 214.815 107.398 213.958C94.343 211.942 81.7254 208.479 69.7549 202.789C63.1891 199.669 56.985 195.921 51.3899 191.24C46.2895 186.978 41.8933 182.107 38.639 176.246C37.1927 173.64 36.0318 170.919 35.2325 168.046C35.1944 167.912 35.1563 167.76 35.2134 167.589C35.2896 167.703 35.3657 167.817 35.4228 167.931C37.8588 172.841 41.2082 177.065 45.1477 180.832C50.3622 185.817 56.2999 189.756 62.6563 193.105C70.5351 197.233 78.8327 200.297 87.3967 202.618C94.1146 204.445 100.909 205.796 107.798 206.728C113.698 207.527 119.597 208.041 125.554 208.269C131.701 208.498 137.829 208.441 143.976 208.06C156.841 207.28 169.478 205.225 181.829 201.553C190.526 198.965 198.881 195.616 206.779 191.126C212.431 187.91 217.683 184.162 222.327 179.595C226.247 175.733 229.559 171.413 231.9 166.39C232.166 165.877 232.414 165.325 232.661 164.773Z" fill="#2E0303"/>
<path d="M142.676 184H131.812V154.258L131.918 149.371L132.094 144.027C130.289 145.832 129.035 147.016 128.332 147.578L122.426 152.324L117.188 145.785L133.746 132.602H142.676V184Z" fill="white"/>
<path d="M181 69.731C181 65.4254 177.519 61.9442 173.213 61.9442H155.166L147.104 61.9442C146.921 61.1197 146.829 60.2036 147.013 59.1959C147.471 56.7224 149.12 51.7755 151.685 47.195C153.609 43.8054 154.433 27.7737 150.86 25.3918C147.288 22.9184 142.432 23.8344 140.05 27.4072L135.653 43.5306L126.859 56.2644C125.301 58.5546 117.056 68.0821 117.056 68.0821V110.589L130.706 114.528H155.166H160.937C165.243 114.528 168.724 111.047 168.724 106.741C168.724 105.734 168.541 104.818 168.175 103.902C171.564 103.077 174.129 100.054 174.129 96.3895C174.129 94.0993 173.122 92.0839 171.564 90.7097C175.137 89.9768 177.885 86.8621 177.885 83.1061C177.885 80.8158 176.878 78.8004 175.32 77.3347C178.527 76.2354 181 73.3038 181 69.731Z" fill="#F3CAA5"/>
<path d="M96.0003 114.528H104.399C109.922 114.528 114.399 110.051 114.399 104.528V74.2344C114.399 68.7116 109.922 64.2344 104.399 64.2344H96.0003C90.4775 64.2344 86.0003 68.7116 86.0003 74.2345V104.528C86.0003 110.051 90.4775 114.528 96.0003 114.528Z" fill="#2E5A56"/>
<defs>
<linearGradient id="paint0_linear" x1="133.5" y1="0" x2="133.5" y2="267" gradientUnits="userSpaceOnUse">
<stop stop-color="#F7B900"/>
<stop offset="0.552083" stop-color="#F28017"/>
<stop offset="1" stop-color="#FF5C00"/>
</linearGradient>
<linearGradient id="paint1_linear" x1="68.3497" y1="195.826" x2="68.3497" y2="230.846" gradientUnits="userSpaceOnUse">
<stop offset="0.9999" stop-color="#2E0303"/>
<stop offset="1" stop-color="#DADADA" stop-opacity="0.2"/>
</linearGradient>
<linearGradient id="paint2_linear" x1="133.5" y1="102" x2="133.5" y2="210.241" gradientUnits="userSpaceOnUse">
<stop offset="0.630208" stop-color="#C54D4D"/>
<stop offset="1" stop-color="#B34343"/>
</linearGradient>
</defs>
</svg>
