<svg width="267" height="267" viewBox="0 0 267 267" fill="none" xmlns="http://www.w3.org/2000/svg">
<circle cx="133.5" cy="133.5" r="133.5" fill="url(#paint0_linear)"/>
<rect x="195.71" y="196.826" width="8.92017" height="35.0199" rx="4.46009" fill="#2E0303"/>
<rect x="63.8897" y="196.826" width="8.92017" height="35.0199" rx="4.46009" fill="url(#paint1_linear)"/>
<path d="M132.672 211.241C125.268 211.241 117.884 210.803 110.519 209.909C99.5003 208.539 88.6907 206.218 78.2046 202.526C70.9918 199.996 64.0454 196.856 57.5368 192.842C53.0455 190.064 48.8396 186.924 45.0905 183.195C40.8846 179.028 37.4019 174.328 35.2133 168.791C33.3673 164.091 32.6061 159.239 33.1961 154.216C33.748 149.497 35.3656 145.14 37.7825 141.049C40.1995 136.958 43.2635 133.419 46.7462 130.204C52.3984 124.971 58.8119 120.899 65.6821 117.494C73.9606 113.365 82.6578 110.377 91.6024 108.113C97.8256 106.534 104.144 105.373 110.5 104.536C115.163 103.927 119.864 103.49 124.564 103.261C129.322 103.014 134.08 102.938 138.838 103.052C145.822 103.223 152.768 103.794 159.677 104.764C167.898 105.925 175.967 107.656 183.903 110.092C192.791 112.832 201.317 116.39 209.253 121.261C214.239 124.305 218.863 127.825 222.898 132.049C226.837 136.159 230.054 140.764 232.052 146.13C233.898 151.077 234.45 156.138 233.631 161.351C232.87 166.184 230.986 170.561 228.322 174.651C225.543 178.895 222.118 182.567 218.254 185.839C212.602 190.634 206.322 194.421 199.661 197.579C191.268 201.575 182.495 204.467 173.455 206.617C166.756 208.216 160 209.357 153.168 210.118C146.355 210.86 139.523 211.222 132.672 211.241Z" fill="url(#paint2_linear)"/>
<path d="M232.661 165.773C232.375 167.676 231.823 169.483 231.157 171.234C229.311 176.029 226.609 180.31 223.279 184.21C218.121 190.261 211.936 195.037 205.161 199.109C197.32 203.789 188.946 207.271 180.249 209.973C173.322 212.123 166.261 213.703 159.087 214.844C153.644 215.7 148.163 216.29 142.644 216.595C136.554 216.937 130.464 216.956 124.374 216.652C118.684 216.366 113.031 215.815 107.398 214.958C94.3429 212.942 81.7253 209.479 69.7548 203.789C63.1891 200.669 56.9849 196.921 51.3898 192.24C46.2895 187.978 41.8933 183.107 38.639 177.246C37.1926 174.64 36.0317 171.919 35.2324 169.046C35.1943 168.912 35.1563 168.76 35.2134 168.589C35.2895 168.703 35.3656 168.817 35.4227 168.931C37.8587 173.841 41.2082 178.065 45.1476 181.832C50.3621 186.817 56.2998 190.756 62.6562 194.105C70.5351 198.233 78.8326 201.297 87.3966 203.618C94.1146 205.445 100.909 206.796 107.798 207.728C113.698 208.527 119.597 209.041 125.554 209.269C131.701 209.498 137.829 209.441 143.976 209.06C156.841 208.28 169.478 206.225 181.829 202.553C190.526 199.965 198.881 196.616 206.779 192.126C212.431 188.91 217.683 185.162 222.327 180.595C226.247 176.733 229.559 172.413 231.9 167.39C232.166 166.877 232.413 166.325 232.661 165.773Z" fill="#2E0303"/>
<path d="M98.832 182H62.9023V174.441L75.8047 161.398C79.625 157.484 82.1211 154.777 83.293 153.277C84.4648 151.754 85.3086 150.348 85.8242 149.059C86.3398 147.77 86.5977 146.434 86.5977 145.051C86.5977 142.988 86.0234 141.453 84.875 140.445C83.75 139.438 82.2383 138.934 80.3398 138.934C78.3477 138.934 76.4141 139.391 74.5391 140.305C72.6641 141.219 70.707 142.52 68.668 144.207L62.7617 137.211C65.293 135.055 67.3906 133.531 69.0547 132.641C70.7188 131.75 72.5352 131.07 74.5039 130.602C76.4727 130.109 78.6758 129.863 81.1133 129.863C84.3242 129.863 87.1602 130.449 89.6211 131.621C92.082 132.793 93.9922 134.434 95.3516 136.543C96.7109 138.652 97.3906 141.066 97.3906 143.785C97.3906 146.152 96.9688 148.379 96.125 150.465C95.3047 152.527 94.0156 154.648 92.2578 156.828C90.5234 159.008 87.4531 162.113 83.0469 166.145L76.4375 172.367V172.859H98.832V182ZM117.289 174.441C116.07 179.176 114.008 184.789 111.102 191.281H103.367C104.891 185.047 106.074 179.164 106.918 173.633H116.762L117.289 174.441ZM143.621 149.164C148.59 149.164 152.539 150.559 155.469 153.348C158.422 156.137 159.898 159.957 159.898 164.809C159.898 170.551 158.129 174.969 154.59 178.062C151.051 181.156 145.988 182.703 139.402 182.703C133.684 182.703 129.066 181.777 125.551 179.926V170.539C127.402 171.523 129.559 172.332 132.02 172.965C134.48 173.574 136.812 173.879 139.016 173.879C145.648 173.879 148.965 171.16 148.965 165.723C148.965 160.543 145.531 157.953 138.664 157.953C137.422 157.953 136.051 158.082 134.551 158.34C133.051 158.574 131.832 158.832 130.895 159.113L126.57 156.793L128.504 130.602H156.383V139.812H138.031L137.082 149.902L138.312 149.656C139.742 149.328 141.512 149.164 143.621 149.164ZM210.98 182H198.605L185.141 160.344L180.535 163.648V182H169.637V130.602H180.535V154.121L184.824 148.074L198.746 130.602H210.84L192.91 153.348L210.98 182Z" fill="white"/>
<path d="M98.2001 87.1996C99.8001 86.8996 98.3001 85.5996 99.0001 84.6996C99.6001 83.6996 100.6 83.6996 101.5 83.8996L96.5001 74.0996C96.8001 75.0996 94.1001 76.9996 93.1001 77.7996C93.1001 80.6996 94.3001 83.3996 95.5001 86.2996C96.6001 85.7996 97.1001 87.5996 98.2001 87.1996Z" fill="#E9A0F6"/>
<path d="M101.5 83.9004C100.5 83.7004 99.6001 83.7004 99.0001 84.7004C98.3001 85.6004 99.8001 86.9004 98.2001 87.2004C97.0001 87.5004 96.6001 85.7004 95.6001 86.2004C96.1001 87.4004 96.6001 88.7004 97.0001 90.0004C100.4 90.7004 102.1 92.9004 104.2 89.3004L101.5 83.9004Z" fill="#D881EA"/>
<path d="M171.1 87.1996C169.5 86.8996 171 85.5996 170.3 84.6996C169.7 83.6996 168.7 83.6996 167.8 83.8996L172.8 74.0996C172.5 75.0996 175.2 76.9996 176.2 77.7996C176.2 80.6996 175 83.3996 173.8 86.2996C172.7 85.7996 172.3 87.5996 171.1 87.1996Z" fill="#E9A0F6"/>
<path d="M167.8 83.9004C168.8 83.7004 169.7 83.7004 170.3 84.7004C171 85.6004 169.5 86.9004 171.1 87.2004C172.3 87.5004 172.7 85.7004 173.7 86.2004C173.2 87.4004 172.7 88.7004 172.3 90.0004C168.9 90.7004 167.2 92.9004 165.1 89.3004L167.8 83.9004Z" fill="#D881EA"/>
<path d="M131.5 117.2H164.4V115.1V104.3L182.8 38.2C182.8 38.2 155.2 61.6 154.6 61.8C154.1 62 134.6 27.5 134.6 27.5C134.6 27.5 115.3 61.9 114.8 61.8C114.3 61.6 86.6001 38.2 86.6001 38.2L105 104.3V115.1V117.2H137.8" fill="url(#paint3_linear)"/>
<path d="M136.3 71.8996C135.7 70.9996 134.3 69.9996 133.4 69.0996C131.4 70.0996 129.8 71.9996 128.3 73.7996C126.1 76.3996 127.4 79.1996 127.6 82.5996C127.7 85.3996 127.6 87.8996 129.8 89.2996C131.4 90.2996 134.5 92.4996 136.4 93.0996C137.6 91.2996 139.2 89.4996 139.9 87.5996C140.8 84.7996 139.5 81.8996 138.7 79.0996L136.3 71.8996Z" fill="#D8AA39"/>
<path d="M151.5 75.9004C149.9 76.3004 147.7 78.7004 149 80.7004C151.3 84.2004 157.2 79.1004 152.4 76.3004L151.5 75.9004Z" fill="#D8AA39"/>
<path d="M160 77.2996C158.2 78.1996 157.5 81.3996 160 82.0996C163.6 83.2996 163.5 77.9996 160.7 77.0996L160 77.2996Z" fill="#D8AA39"/>
<path d="M117.8 76.2002C114.9 76.6002 114.9 81.2002 118.1 81.5002C121.5 81.6002 121.2 77.1002 118.2 76.4002L117.8 76.2002Z" fill="#D8AA39"/>
<path d="M108.6 77.5C106.1 78.1 105.5 83.2 108.7 83C111.5 82.9 111.5 78 109 77.5H108.6Z" fill="#D8AA39"/>
<path d="M106.6 77.8998C105.2 78.8998 104.5 81.1999 106.3 82.2999C108.6 83.6999 111.4 80.7999 109.9 78.5999C109 77.0999 107.6 77.1998 106.6 77.8998Z" fill="#CD68D8"/>
<path d="M116.6 76.4003C116 76.6003 115.5 77.0003 115.2 77.6003C114.4 79.2003 115.6 81.8003 117.6 81.7003C119.4 81.6003 120.2 79.2003 119.7 77.7003C119.3 76.5003 117.8 76.0003 116.6 76.4003Z" fill="#CD68D8"/>
<path d="M138.7 76.5999C135.9 75.0999 138.7 80.6999 137.9 81.9999C136.3 84.5999 134.7 79.7999 133.7 79.0999C133.7 79.8999 134.4 83.6999 133.8 84.1999C132.5 85.2999 131.6 82.7999 130.9 82.0999C130.2 80.9999 129.5 80.6999 128.8 80.8999C128.8 83.0999 128.9 84.9999 129 85.2999C129.4 85.8999 133.8 89.5999 135.4 90.9999C138.1 89.1999 141.1 84.7999 141.1 84.3999C141.1 82.3999 141.1 80.7999 141.1 79.1999C140.4 77.9999 139.6 76.9999 138.7 76.5999Z" fill="#D881EA"/>
<path d="M134.9 68.7002C133.2 70.6002 130.7 72.4002 128.9 74.3002C128.9 75.8002 128.9 78.5002 128.9 80.9002C129.5 80.7002 130.2 81.1002 131 82.1002C131.7 82.8002 132.6 85.3002 133.9 84.2002C134.4 83.7002 133.8 79.9002 133.8 79.1002C134.9 79.8002 136.4 84.6002 138 82.0002C138.8 80.7002 136 75.1002 138.8 76.6002C139.7 77.0002 140.5 78.0002 141.1 79.2002C141.1 77.6002 141.1 76.0002 141.1 74.1002L134.9 68.7002Z" fill="#E9A0F6"/>
<path d="M134.3 71.4004C133.1 71.4004 129.3 75.7004 130.5 76.4004C131.7 76.9004 131.4 75.3004 131.9 75.1004C132.2 74.8004 133.1 75.2004 133.2 75.1004C133.3 75.0004 133.9 74.2004 133.9 74.2004C134.4 73.8004 136.9 72.4004 135.2 71.6004L134.3 71.4004Z" fill="#F1C5FF"/>
<path d="M162.7 77.8998C164.1 78.8998 164.8 81.1999 163 82.2999C160.7 83.6999 157.9 80.7999 159.4 78.5999C160.3 77.0999 161.7 77.1998 162.7 77.8998Z" fill="#CD68D8"/>
<path d="M152.7 76.4003C153.3 76.6003 153.8 77.0003 154.1 77.6003C154.9 79.2003 153.7 81.8003 151.7 81.7003C149.9 81.6003 149.1 79.2003 149.6 77.7003C150 76.5003 151.5 76.0003 152.7 76.4003Z" fill="#CD68D8"/>
<path d="M133.9 25.4C132.2 25.3 131.1 23.2 129.2 23.8C129.4 26.7 131.7 28.9 134.6 28.9C137.6 28.9 140.1 26.5 140.1 23.4C140.1 22.9 140 22.4 139.9 22C138.8 22 137.8 22.2 136.9 22.8C135.7 23.7 135.7 25.5 133.9 25.4Z" fill="#D881EA"/>
<path d="M134.7 18C131.7 18 129.2 20.4 129.2 23.5C129.2 23.6 129.2 23.7 129.2 23.8C131.1 23.2 132.2 25.3 133.9 25.4C135.7 25.5 135.7 23.7 137 22.8C137.8 22.2 138.9 22 140 22C139.3 19.7 137.2 18 134.7 18Z" fill="#E9A0F6"/>
<path d="M185 35.9C184.2 35.6 184.1 36 183.6 35.1C183.3 34.4 183.7 33.5 183.2 32.7C182 31.1 179.4 32.7 178.1 31.2C177.9 31 177.8 30.8 177.7 30.5C177.4 31.2 177.2 31.9 177.2 32.7C177.2 35.7 179.6 38.2 182.7 38.2C184.1 38.2 185.4 37.6 186.4 36.8C186.1 36.1 185.8 36.3 185 35.9Z" fill="#D881EA"/>
<path d="M188.2 32.7002C188.2 29.7002 185.8 27.2002 182.7 27.2002C180.5 27.2002 178.6 28.5002 177.7 30.4002C177.8 30.6002 177.9 30.9002 178.1 31.1002C179.4 32.6002 182 31.0002 183.2 32.6002C183.7 33.4002 183.3 34.3002 183.6 35.0002C184.1 35.9002 184.2 35.4002 185 35.8002C185.7 36.2002 186.1 36.1002 186.4 36.7002C187.5 35.7002 188.2 34.3002 188.2 32.7002Z" fill="#E9A0F6"/>
<path d="M85.5 28.9004C82.5 28.9004 80 31.3004 80 34.4004C80 35.6004 80.4 36.7004 81 37.6004C81.1 37.3004 81.2 37.0004 81.3 36.8004C82.5 34.7004 83.4 36.1004 85.2 36.4004C87.5 36.7004 87.4 34.5004 88.2 32.9004C88.5 32.0004 89.1 31.4004 89.7 31.0004C88.7 29.7004 87.2 28.9004 85.5 28.9004Z" fill="#E9A0F6"/>
<path d="M88.2 32.8004C87.4 34.4004 87.5 36.6004 85.2 36.3004C83.4 36.0004 82.5 34.6004 81.3 36.7004C81.2 36.9004 81.1 37.2004 81 37.5004C82 38.9004 83.6 39.8004 85.4 39.8004C88.4 39.8004 90.9 37.4004 90.9 34.3004C90.9 33.0004 90.4 31.8004 89.6 30.9004C89.1 31.3004 88.6 32.0004 88.2 32.8004Z" fill="#D881EA"/>
<path d="M168.2 117.4C168.2 118.7 166.8 119.8 165.1 119.8H104.5C102.8 119.8 101.4 118.7 101.4 117.4C101.4 116.1 102.8 115 104.5 115H165.1C166.8 115 168.2 116.1 168.2 117.4Z" fill="#EBB33A"/>
<path d="M168.2 104.7C168.2 106 166.8 107.1 165.1 107.1H104.5C102.8 107.1 101.4 106 101.4 104.7C101.4 103.4 102.8 102.3 104.5 102.3H165.1C166.8 102.4 168.2 103.4 168.2 104.7Z" fill="#EBB33A"/>
<path d="M104.5 115C104.5 115 105.4 115 107.1 114.9C108.8 114.9 111.1 114.8 114 114.7C116.8 114.7 120.2 114.6 123.7 114.5C127.2 114.5 131 114.5 134.8 114.4C138.6 114.4 142.4 114.4 145.9 114.5C149.4 114.5 152.8 114.6 155.6 114.7C158.4 114.7 160.8 114.8 162.5 114.9C164.2 115 165.1 115 165.1 115C165.1 115 164.2 115 162.5 115.1C160.8 115.1 158.5 115.2 155.6 115.3C152.8 115.3 149.4 115.4 145.9 115.5C142.4 115.5 138.6 115.5 134.8 115.6C131 115.6 127.2 115.6 123.7 115.5C120.2 115.5 116.8 115.4 114 115.3C111.2 115.3 108.8 115.2 107.1 115.1C105.5 115.1 104.5 115 104.5 115Z" fill="#FF9600"/>
<path d="M162.9 107.1C162.9 107.1 162 107.1 160.4 107.2C158.8 107.2 156.5 107.3 153.8 107.4C151.1 107.4 147.9 107.5 144.5 107.6C141.1 107.6 137.4 107.6 133.8 107.7C130.2 107.7 126.5 107.7 123.1 107.6C119.7 107.6 116.5 107.5 113.8 107.4C111.1 107.4 108.8 107.3 107.2 107.2C105.6 107.1 104.7 107.1 104.7 107.1C104.7 107.1 105.6 107.1 107.2 107C108.8 107 111.1 106.9 113.8 106.8C116.5 106.8 119.7 106.7 123.1 106.6C126.5 106.6 130.2 106.6 133.8 106.5C137.4 106.5 141.1 106.5 144.5 106.6C147.9 106.6 151.1 106.7 153.8 106.8C156.5 106.8 158.8 106.9 160.4 107C162 107.1 162.9 107.1 162.9 107.1Z" fill="#CE8A29"/>
<path d="M104.5 102.4C104.5 102.4 105.4 102.4 107.1 102.3C108.8 102.3 111.1 102.2 114 102.1C116.8 102.1 120.2 102 123.7 101.9C127.2 101.9 131 101.9 134.8 101.8C138.6 101.8 142.4 101.8 145.9 101.9C149.4 101.9 152.8 102 155.6 102.1C158.4 102.1 160.8 102.2 162.5 102.3C164.2 102.4 165.1 102.4 165.1 102.4C165.1 102.4 164.2 102.4 162.5 102.5C160.8 102.5 158.5 102.6 155.6 102.7C152.8 102.7 149.4 102.8 145.9 102.9C142.4 102.9 138.6 102.9 134.8 103C131 103 127.2 103 123.7 102.9C120.2 102.9 116.8 102.8 114 102.7C111.2 102.7 108.8 102.6 107.1 102.5C105.5 102.4 104.5 102.4 104.5 102.4Z" fill="#FF9600"/>
<path d="M107.4 78.1998C107.3 79.0998 107.4 79.9998 108.3 80.0998C110.6 80.6998 109.2 76.2998 107.4 78.4998V78.1998Z" fill="#E9A0F6"/>
<path d="M116.3 77.1997C116 78.0997 116.2 78.6997 117 78.7997C118.6 78.8997 117.9 75.8997 116.3 77.2997V77.1997Z" fill="#E9A0F6"/>
<path d="M151.6 77.2002C151.3 77.2002 150.7 77.5002 150.7 78.4002C150.8 81.3002 154.8 77.4002 151.7 77.5002L151.6 77.2002Z" fill="#E9A0F6"/>
<path d="M161.1 78.2002C160.8 78.6002 160.5 79.5002 160.8 80.1002C162 81.9002 164 78.6002 161.2 78.3002L161.1 78.2002Z" fill="#E9A0F6"/>
<path d="M91 46.2002L103.5 57.5002L115.9 68.9002L115.3 69.0002C118.4 63.3002 121.6 57.7002 124.8 52.1002L134.3 35.2002C134.4 35.0002 134.7 34.9002 135 35.0002C135.1 35.0002 135.1 35.1002 135.2 35.2002L144.9 52.1002C148.1 57.7002 151.4 63.4002 154.6 69.0002L154 68.9002L165.7 57.5002L177.5 46.2002L166 57.8002L154.4 69.4002C154.3 69.5002 154 69.5002 153.9 69.4002C153.9 69.4002 153.9 69.4002 153.8 69.3002C150.5 63.7002 147.2 58.1002 144 52.5002L134.2 35.6002H135.1L125.5 52.5002C122.3 58.1002 119.1 63.7002 115.8 69.3002C115.7 69.5002 115.5 69.5002 115.3 69.4002C115.3 69.4002 115.3 69.4002 115.2 69.4002L103 57.8002L91 46.2002Z" fill="#CE8A29"/>
<path d="M102.6 95.6996C102.6 95.6996 103.6 95.6996 105.3 95.5996C107 95.5996 109.5 95.4996 112.5 95.3996C115.5 95.3996 119 95.2996 122.7 95.1996C126.4 95.1996 130.4 95.1996 134.4 95.0996C138.4 95.0996 142.4 95.0996 146.1 95.1996C149.8 95.1996 153.3 95.2996 156.3 95.3996C159.3 95.3996 161.8 95.4996 163.5 95.5996C165.2 95.6996 166.2 95.6996 166.2 95.6996C166.2 95.6996 165.2 95.6996 163.5 95.7996C161.8 95.7996 159.3 95.8996 156.3 95.9996C153.3 95.9996 149.8 96.0996 146.1 96.1996C142.4 96.1996 138.4 96.1996 134.4 96.2996C130.4 96.2996 126.4 96.2996 122.7 96.1996C119 96.1996 115.5 96.0996 112.5 95.9996C109.5 95.9996 107 95.8996 105.3 95.7996C103.6 95.7996 102.6 95.6996 102.6 95.6996Z" fill="#CE8A29"/>
<defs>
<linearGradient id="paint0_linear" x1="133.5" y1="0" x2="133.5" y2="267" gradientUnits="userSpaceOnUse">
<stop stop-color="#FFC700"/>
<stop offset="1" stop-color="#FC9517"/>
</linearGradient>
<linearGradient id="paint1_linear" x1="68.3498" y1="196.826" x2="68.3498" y2="231.846" gradientUnits="userSpaceOnUse">
<stop offset="0.9999" stop-color="#2E0303"/>
<stop offset="1" stop-color="#DADADA" stop-opacity="0.2"/>
</linearGradient>
<linearGradient id="paint2_linear" x1="133.5" y1="103" x2="133.5" y2="211.241" gradientUnits="userSpaceOnUse">
<stop offset="0.630208" stop-color="#C54D4D"/>
<stop offset="1" stop-color="#B34343"/>
</linearGradient>
<linearGradient id="paint3_linear" x1="134.7" y1="27.5" x2="134.7" y2="117.2" gradientUnits="userSpaceOnUse">
<stop stop-color="#FF9700"/>
<stop offset="1" stop-color="#FF4070"/>
</linearGradient>
</defs>
</svg>
