<svg width="267" height="267" viewBox="0 0 267 267" fill="none" xmlns="http://www.w3.org/2000/svg">
<circle cx="133.5" cy="133.5" r="133.5" fill="url(#paint0_linear)"/>
<rect x="195.71" y="196.826" width="8.92017" height="35.0199" rx="4.46009" fill="#2E0303"/>
<rect x="63.8897" y="196.826" width="8.92017" height="35.0199" rx="4.46009" fill="url(#paint1_linear)"/>
<path d="M132.672 211.241C125.268 211.241 117.884 210.803 110.519 209.909C99.5003 208.539 88.6907 206.218 78.2046 202.526C70.9918 199.996 64.0454 196.856 57.5368 192.842C53.0455 190.064 48.8396 186.924 45.0905 183.195C40.8846 179.028 37.4019 174.328 35.2133 168.791C33.3673 164.091 32.6061 159.239 33.1961 154.216C33.748 149.497 35.3656 145.14 37.7825 141.049C40.1995 136.958 43.2635 133.419 46.7462 130.204C52.3984 124.971 58.8119 120.899 65.6821 117.494C73.9606 113.365 82.6578 110.377 91.6024 108.113C97.8256 106.534 104.144 105.373 110.5 104.536C115.163 103.927 119.864 103.49 124.564 103.261C129.322 103.014 134.08 102.938 138.838 103.052C145.822 103.223 152.768 103.794 159.677 104.764C167.898 105.925 175.967 107.656 183.903 110.092C192.791 112.832 201.317 116.39 209.253 121.261C214.239 124.305 218.863 127.825 222.898 132.049C226.837 136.159 230.054 140.764 232.052 146.13C233.898 151.077 234.45 156.138 233.631 161.351C232.87 166.184 230.986 170.561 228.322 174.651C225.543 178.895 222.118 182.567 218.254 185.839C212.602 190.634 206.322 194.421 199.661 197.579C191.268 201.575 182.495 204.467 173.455 206.617C166.756 208.216 160 209.357 153.168 210.118C146.355 210.86 139.523 211.222 132.672 211.241Z" fill="url(#paint2_linear)"/>
<path d="M232.661 165.773C232.375 167.676 231.823 169.483 231.157 171.234C229.311 176.029 226.609 180.31 223.279 184.21C218.121 190.261 211.936 195.037 205.161 199.109C197.32 203.789 188.946 207.271 180.249 209.973C173.322 212.123 166.261 213.703 159.087 214.844C153.644 215.7 148.163 216.29 142.644 216.595C136.554 216.937 130.464 216.956 124.374 216.652C118.684 216.366 113.031 215.815 107.398 214.958C94.3429 212.942 81.7253 209.479 69.7548 203.789C63.1891 200.669 56.9849 196.921 51.3898 192.24C46.2895 187.978 41.8933 183.107 38.639 177.246C37.1926 174.64 36.0317 171.919 35.2324 169.046C35.1943 168.912 35.1563 168.76 35.2134 168.589C35.2895 168.703 35.3656 168.817 35.4227 168.931C37.8587 173.841 41.2082 178.065 45.1476 181.832C50.3621 186.817 56.2998 190.756 62.6562 194.105C70.5351 198.233 78.8326 201.297 87.3966 203.618C94.1146 205.445 100.909 206.796 107.798 207.728C113.698 208.527 119.597 209.041 125.554 209.269C131.701 209.498 137.829 209.441 143.976 209.06C156.841 208.28 169.478 206.225 181.829 202.553C190.526 199.965 198.881 196.616 206.779 192.126C212.431 188.91 217.683 185.162 222.327 180.595C226.247 176.733 229.559 172.413 231.9 167.39C232.166 166.877 232.413 166.325 232.661 165.773Z" fill="#2E0303"/>
<path d="M99.832 182H63.9023V174.441L76.8047 161.398C80.625 157.484 83.1211 154.777 84.293 153.277C85.4648 151.754 86.3086 150.348 86.8242 149.059C87.3398 147.77 87.5977 146.434 87.5977 145.051C87.5977 142.988 87.0234 141.453 85.875 140.445C84.75 139.438 83.2383 138.934 81.3398 138.934C79.3477 138.934 77.4141 139.391 75.5391 140.305C73.6641 141.219 71.707 142.52 69.668 144.207L63.7617 137.211C66.293 135.055 68.3906 133.531 70.0547 132.641C71.7188 131.75 73.5352 131.07 75.5039 130.602C77.4727 130.109 79.6758 129.863 82.1133 129.863C85.3242 129.863 88.1602 130.449 90.6211 131.621C93.082 132.793 94.9922 134.434 96.3516 136.543C97.7109 138.652 98.3906 141.066 98.3906 143.785C98.3906 146.152 97.9688 148.379 97.125 150.465C96.3047 152.527 95.0156 154.648 93.2578 156.828C91.5234 159.008 88.4531 162.113 84.0469 166.145L77.4375 172.367V172.859H99.832V182ZM118.289 174.441C117.07 179.176 115.008 184.789 112.102 191.281H104.367C105.891 185.047 107.074 179.164 107.918 173.633H117.762L118.289 174.441ZM144.621 149.164C149.59 149.164 153.539 150.559 156.469 153.348C159.422 156.137 160.898 159.957 160.898 164.809C160.898 170.551 159.129 174.969 155.59 178.062C152.051 181.156 146.988 182.703 140.402 182.703C134.684 182.703 130.066 181.777 126.551 179.926V170.539C128.402 171.523 130.559 172.332 133.02 172.965C135.48 173.574 137.812 173.879 140.016 173.879C146.648 173.879 149.965 171.16 149.965 165.723C149.965 160.543 146.531 157.953 139.664 157.953C138.422 157.953 137.051 158.082 135.551 158.34C134.051 158.574 132.832 158.832 131.895 159.113L127.57 156.793L129.504 130.602H157.383V139.812H139.031L138.082 149.902L139.312 149.656C140.742 149.328 142.512 149.164 144.621 149.164ZM211.98 182H199.605L186.141 160.344L181.535 163.648V182H170.637V130.602H181.535V154.121L185.824 148.074L199.746 130.602H211.84L193.91 153.348L211.98 182Z" fill="white"/>
<path d="M129.989 113C152.627 113 170.979 94.6434 170.979 71.9998C170.979 49.3563 152.627 31 129.989 31C107.352 31 89 49.3563 89 71.9998C89 94.6434 107.352 113 129.989 113Z" fill="url(#paint3_radial)"/>
<path opacity="0.5" d="M161.159 62.1774C161.159 79.4105 147.218 93.3548 129.99 93.3548C112.761 93.3548 98.8201 79.4105 98.8201 62.1774C98.8201 44.9443 112.761 31 129.99 31C147.218 31 161.159 44.9882 161.159 62.1774Z" fill="url(#paint4_linear)"/>
<path d="M125.081 65.3349C125.081 71.8247 119.82 77.0429 113.376 77.0429C106.888 77.0429 101.671 71.7809 101.671 65.3349C101.671 58.8451 106.932 53.627 113.376 53.627C119.864 53.627 125.081 58.8451 125.081 65.3349Z" fill="#FFE549"/>
<path d="M124.292 65.3361C124.292 71.3435 119.426 76.2109 113.42 76.2109C107.414 76.2109 102.548 71.3435 102.548 65.3361C102.548 59.3286 107.414 54.4612 113.42 54.4612C119.382 54.4174 124.292 59.2847 124.292 65.3361Z" fill="url(#paint5_radial)"/>
<path d="M117.588 66.3059C118.131 63.9955 116.698 61.6823 114.388 61.1393C112.079 60.5963 109.766 62.0291 109.223 64.3396C108.68 66.65 110.113 68.9631 112.422 69.5061C114.732 70.0491 117.045 68.6163 117.588 66.3059Z" fill="black"/>
<path d="M114.34 65.3348C114.34 65.861 113.902 66.2995 113.376 66.2995C112.85 66.2995 112.411 65.861 112.411 65.3348C112.411 64.8086 112.85 64.3701 113.376 64.3701C113.902 64.3701 114.34 64.8086 114.34 65.3348Z" fill="white"/>
<path d="M156.645 65.3349C156.645 71.8247 151.384 77.0429 144.94 77.0429C138.451 77.0429 133.235 71.7809 133.235 65.3349C133.235 58.8451 138.495 53.627 144.94 53.627C151.384 53.627 156.645 58.8451 156.645 65.3349Z" fill="#FFE549"/>
<path d="M155.812 65.3361C155.812 71.3435 150.946 76.2109 144.94 76.2109C138.934 76.2109 134.068 71.3435 134.068 65.3361C134.068 59.3286 138.934 54.4612 144.94 54.4612C150.946 54.4174 155.812 59.2847 155.812 65.3361Z" fill="url(#paint6_radial)"/>
<path d="M149.192 65.3354C149.192 67.7033 147.263 69.6327 144.895 69.6327C142.528 69.6327 140.599 67.7033 140.599 65.3354C140.599 62.9675 142.528 61.0381 144.895 61.0381C147.263 61.0381 149.192 62.9675 149.192 65.3354Z" fill="black"/>
<path d="M145.861 65.3348C145.861 65.861 145.422 66.2995 144.896 66.2995C144.37 66.2995 143.932 65.861 143.932 65.3348C143.932 64.8086 144.37 64.3701 144.896 64.3701C145.422 64.3701 145.861 64.8086 145.861 65.3348Z" fill="white"/>
<path d="M138.143 47.6181C138.143 47.6181 138.494 47.3988 139.108 47.1357C139.722 46.8726 140.686 46.5657 141.826 46.3903C142.396 46.3026 143.053 46.2587 143.711 46.2587C144.368 46.2149 145.114 46.3026 145.815 46.3903C146.56 46.5218 147.306 46.6095 148.051 46.8726C148.796 47.0919 149.541 47.355 150.287 47.7496C151.032 48.1004 151.69 48.4951 152.347 48.9774C153.005 49.3721 153.575 49.9421 154.145 50.4683C154.714 50.9507 155.109 51.5646 155.547 52.0908C155.986 52.617 156.293 53.1871 156.556 53.7133C156.819 54.2395 157.082 54.7218 157.213 55.1603C157.389 55.5988 157.476 56.0373 157.564 56.3443C157.739 57.002 157.783 57.3967 157.783 57.3967C157.783 57.3967 157.432 57.1774 156.906 56.7828C156.643 56.5635 156.337 56.3443 155.986 56.0373C155.679 55.7304 155.197 55.5111 154.802 55.1603C154.364 54.8534 153.969 54.5026 153.443 54.1956C152.961 53.8887 152.479 53.494 151.953 53.187C151.427 52.8801 150.9 52.4854 150.331 52.2223C149.761 51.9154 149.235 51.5646 148.621 51.3453C148.051 51.0384 147.437 50.8191 146.867 50.556C146.297 50.2929 145.684 50.1175 145.07 49.8544C144.456 49.679 143.886 49.4159 143.36 49.2405C142.79 49.0651 142.264 48.8459 141.738 48.7143C140.73 48.3635 139.853 48.1004 139.195 47.925C138.538 47.7058 138.143 47.6181 138.143 47.6181Z" fill="url(#paint7_linear)"/>
<path d="M138.406 47.1796C138.406 47.1796 138.757 46.9604 139.37 46.6973C139.984 46.4342 140.949 46.1272 142.088 45.9518C142.658 45.8641 143.316 45.8203 143.974 45.8203C144.631 45.7764 145.376 45.8641 146.078 45.9518C146.823 46.0834 147.568 46.1711 148.314 46.4342C149.059 46.6534 149.804 46.9165 150.549 47.3112C151.295 47.662 151.952 48.0566 152.61 48.539C153.267 48.9336 153.837 49.5037 154.407 50.0299C154.977 50.5122 155.372 51.1261 155.81 51.6523C156.248 52.1785 156.555 52.7486 156.818 53.2748C157.081 53.801 157.344 54.2833 157.476 54.7218C157.651 55.1603 157.739 55.5988 157.827 55.9058C158.002 56.5635 158.046 56.9582 158.046 56.9582C158.046 56.9582 157.695 56.7389 157.169 56.3443C156.906 56.125 156.599 55.9058 156.248 55.5988C155.942 55.2919 155.459 55.0726 155.065 54.7218C154.626 54.4149 154.232 54.0641 153.706 53.7571C153.224 53.4502 152.741 53.0555 152.215 52.7486C151.689 52.4416 151.163 52.047 150.593 51.7839C150.023 51.4769 149.497 51.1261 148.883 50.9069C148.314 50.5999 147.7 50.3807 147.13 50.1176C146.56 49.8545 145.946 49.6791 145.333 49.416C144.719 49.2406 144.149 48.9775 143.623 48.8021C143.053 48.6267 142.527 48.4074 142.001 48.2759C140.992 47.9251 140.116 47.662 139.458 47.4866C138.801 47.2673 138.406 47.1796 138.406 47.1796Z" fill="url(#paint8_linear)"/>
<path d="M120.258 47.6181C120.258 47.6181 119.907 47.3988 119.294 47.1357C118.68 46.8726 117.715 46.5657 116.576 46.3903C116.006 46.3026 115.348 46.2587 114.69 46.2587C114.033 46.2149 113.288 46.3026 112.586 46.3903C111.841 46.5218 111.096 46.6095 110.35 46.8726C109.605 47.0919 108.86 47.355 108.115 47.7496C107.369 48.1004 106.712 48.4951 106.054 48.9774C105.397 49.3721 104.827 49.9421 104.257 50.4683C103.687 50.9507 103.292 51.5646 102.854 52.0908C102.416 52.617 102.109 53.1871 101.846 53.7133C101.583 54.2395 101.32 54.7218 101.188 55.1603C101.013 55.5988 100.925 56.0373 100.837 56.3443C100.662 57.002 100.618 57.3967 100.618 57.3967C100.618 57.3967 100.969 57.1774 101.495 56.7828C101.758 56.5635 102.065 56.3443 102.416 56.0373C102.722 55.7304 103.205 55.5111 103.599 55.1603C104.038 54.8534 104.432 54.5026 104.958 54.1956C105.44 53.8887 105.923 53.494 106.449 53.187C106.975 52.8801 107.501 52.4854 108.071 52.2223C108.641 51.9154 109.167 51.5646 109.781 51.3453C110.35 51.0384 110.964 50.8191 111.534 50.556C112.104 50.2929 112.718 50.1175 113.331 49.8544C113.945 49.679 114.515 49.4159 115.085 49.2405C115.655 49.0651 116.181 48.8459 116.707 48.7143C117.715 48.3635 118.592 48.1004 119.25 47.925C119.907 47.7058 120.258 47.6181 120.258 47.6181Z" fill="url(#paint9_linear)"/>
<path d="M119.995 47.1806C119.995 47.1806 119.644 46.9613 119.03 46.6982C118.416 46.4351 117.452 46.1282 116.312 45.9528C115.742 45.8651 115.085 45.8212 114.427 45.8212C113.769 45.7774 113.024 45.8651 112.323 45.9528C111.578 46.0843 110.832 46.172 110.087 46.4351C109.342 46.6544 108.596 46.9175 107.851 47.3121C107.106 47.6629 106.448 48.0576 105.791 48.5399C105.133 48.9346 104.563 49.5046 103.993 50.0308C103.423 50.5132 103.029 51.1271 102.591 51.6533C102.152 52.1795 101.845 52.7496 101.582 53.2758C101.319 53.802 101.056 54.2843 100.925 54.7228C100.749 55.1613 100.662 55.5998 100.574 55.9068C100.399 56.5645 100.355 56.9592 100.355 56.9592C100.355 56.9592 100.705 56.7399 101.232 56.3453C101.495 56.126 101.801 55.9068 102.152 55.5998C102.459 55.2929 102.941 55.0736 103.336 54.7228C103.774 54.4159 104.169 54.0651 104.695 53.7581C105.177 53.4512 105.659 53.0565 106.185 52.7495C106.711 52.4426 107.237 52.0479 107.807 51.7848C108.377 51.4779 108.903 51.1271 109.517 50.9078C110.087 50.6009 110.701 50.3816 111.271 50.1185C111.841 49.8554 112.454 49.68 113.068 49.4169C113.682 49.2415 114.252 48.9784 114.822 48.803C115.392 48.6276 115.918 48.4084 116.444 48.2768C117.452 47.926 118.329 47.6629 118.986 47.4875C119.644 47.2683 119.995 47.1806 119.995 47.1806Z" fill="url(#paint10_linear)"/>
<path d="M144.56 97.2616C144.558 97.2608 144.557 97.26 144.555 97.2592C143.815 96.8267 142.739 96.2521 141.384 95.678C138.678 94.5306 134.852 93.38 130.383 93.38C125.914 93.38 122.088 94.5306 119.381 95.678C118.027 96.2521 116.951 96.8267 116.21 97.2592C116.209 97.26 116.208 97.2608 116.206 97.2616C116.274 97.0647 116.353 96.8489 116.442 96.6172C116.886 95.4691 117.6 93.9409 118.685 92.4159C120.849 89.3744 124.471 86.3555 130.383 86.3555C136.295 86.3555 139.917 89.3744 142.081 92.4159C143.165 93.9409 143.88 95.4691 144.324 96.6172C144.413 96.8489 144.492 97.0647 144.56 97.2616Z" fill="#FFE549" stroke="url(#paint11_linear)"/>
<path d="M144.56 96.2977C144.559 96.2969 144.557 96.2961 144.556 96.2953C143.816 95.8628 142.739 95.2882 141.385 94.7141C138.679 93.5667 134.852 92.4162 130.383 92.4162C125.915 92.4162 122.088 93.5667 119.382 94.7141C118.028 95.2882 116.951 95.8628 116.211 96.2953C116.21 96.2961 116.208 96.2969 116.207 96.2977C116.275 96.1009 116.353 95.885 116.443 95.6533C116.886 94.5052 117.601 92.9771 118.686 91.452C120.849 88.4105 124.471 85.3916 130.383 85.3916C136.296 85.3916 139.917 88.4105 142.081 91.452C143.166 92.9771 143.881 94.5052 144.324 95.6533C144.414 95.885 144.492 96.1009 144.56 96.2977Z" fill="#542C0B" stroke="url(#paint12_linear)"/>
<path d="M118.504 93.4863C118.329 93.0478 118.153 92.6532 117.934 92.3024L109.473 74.5869L101.275 91.6884C100.179 93.3986 99.5654 95.4596 99.5654 97.6521C99.5654 103.484 103.993 108.22 109.429 108.22C114.865 108.22 119.293 103.44 119.249 97.6082C119.249 96.1612 118.986 94.758 118.504 93.4863Z" fill="url(#paint13_linear)"/>
<path opacity="0.5" d="M117.618 92.5396C117.486 92.1888 117.311 91.838 117.136 91.531L109.99 76.5781L103.107 91.0048C102.186 92.4519 101.66 94.162 101.66 96.0476C101.66 100.959 105.387 104.949 109.99 104.949C114.593 104.949 118.275 100.915 118.275 96.0037C118.275 94.7759 118.056 93.592 117.618 92.5396Z" fill="url(#paint14_linear)"/>
<defs>
<linearGradient id="paint0_linear" x1="133.5" y1="0" x2="133.5" y2="267" gradientUnits="userSpaceOnUse">
<stop stop-color="#8F5A2D"/>
<stop offset="1" stop-color="#351B06"/>
</linearGradient>
<linearGradient id="paint1_linear" x1="68.3498" y1="196.826" x2="68.3498" y2="231.846" gradientUnits="userSpaceOnUse">
<stop offset="0.9999" stop-color="#2E0303"/>
<stop offset="1" stop-color="#DADADA" stop-opacity="0.2"/>
</linearGradient>
<linearGradient id="paint2_linear" x1="133.5" y1="103" x2="133.5" y2="211.241" gradientUnits="userSpaceOnUse">
<stop offset="0.630208" stop-color="#C54D4D"/>
<stop offset="1" stop-color="#B34343"/>
</linearGradient>
<radialGradient id="paint3_radial" cx="0" cy="0" r="1" gradientUnits="userSpaceOnUse" gradientTransform="translate(129.999 72.0189) scale(40.9895 40.9998)">
<stop offset="0.0168539" stop-color="#FDCA00"/>
<stop offset="0.5597" stop-color="#FDC800"/>
<stop offset="0.7553" stop-color="#FDC100"/>
<stop offset="0.8942" stop-color="#FEB600"/>
<stop offset="1" stop-color="#FFA600"/>
</radialGradient>
<linearGradient id="paint4_linear" x1="129.999" y1="29.9598" x2="129.999" y2="89.6024" gradientUnits="userSpaceOnUse">
<stop stop-color="white"/>
<stop offset="1" stop-color="white" stop-opacity="0"/>
</linearGradient>
<radialGradient id="paint5_radial" cx="0" cy="0" r="1" gradientUnits="userSpaceOnUse" gradientTransform="translate(113.39 65.321) scale(10.8893 10.8921)">
<stop offset="0.0168539" stop-color="white"/>
<stop offset="0.4716" stop-color="#FDFDFD"/>
<stop offset="0.6353" stop-color="#F6F6F6"/>
<stop offset="0.7521" stop-color="#EBEBEB"/>
<stop offset="0.8464" stop-color="#DADADA"/>
<stop offset="0.9263" stop-color="#C4C4C4"/>
<stop offset="0.9968" stop-color="#A9A9A9"/>
<stop offset="1" stop-color="#A8A8A8"/>
</radialGradient>
<radialGradient id="paint6_radial" cx="0" cy="0" r="1" gradientUnits="userSpaceOnUse" gradientTransform="translate(144.915 65.321) scale(10.8892 10.892)">
<stop offset="0.0168539" stop-color="white"/>
<stop offset="0.4716" stop-color="#FDFDFD"/>
<stop offset="0.6353" stop-color="#F6F6F6"/>
<stop offset="0.7521" stop-color="#EBEBEB"/>
<stop offset="0.8464" stop-color="#DADADA"/>
<stop offset="0.9263" stop-color="#C4C4C4"/>
<stop offset="0.9968" stop-color="#A9A9A9"/>
<stop offset="1" stop-color="#A8A8A8"/>
</radialGradient>
<linearGradient id="paint7_linear" x1="147.963" y1="46.2471" x2="147.963" y2="57.3967" gradientUnits="userSpaceOnUse">
<stop stop-color="#8F5A2D"/>
<stop offset="1" stop-color="#351B06"/>
</linearGradient>
<linearGradient id="paint8_linear" x1="148.226" y1="45.8086" x2="148.226" y2="56.9582" gradientUnits="userSpaceOnUse">
<stop stop-color="#8F5A2D"/>
<stop offset="1" stop-color="#351B06"/>
</linearGradient>
<linearGradient id="paint9_linear" x1="110.438" y1="46.2471" x2="110.438" y2="57.3967" gradientUnits="userSpaceOnUse">
<stop stop-color="#8F5A2D"/>
<stop offset="1" stop-color="#351B06"/>
</linearGradient>
<linearGradient id="paint10_linear" x1="110.175" y1="45.8096" x2="110.175" y2="56.9592" gradientUnits="userSpaceOnUse">
<stop stop-color="#8F5A2D"/>
<stop offset="1" stop-color="#351B06"/>
</linearGradient>
<linearGradient id="paint11_linear" x1="130.383" y1="85.8555" x2="130.383" y2="98.3966" gradientUnits="userSpaceOnUse">
<stop stop-color="#8F5A2D"/>
<stop offset="1" stop-color="#351B06"/>
</linearGradient>
<linearGradient id="paint12_linear" x1="130.383" y1="84.8916" x2="130.383" y2="97.4327" gradientUnits="userSpaceOnUse">
<stop stop-color="#8F5A2D"/>
<stop offset="1" stop-color="#351B06"/>
</linearGradient>
<linearGradient id="paint13_linear" x1="99.5511" y1="91.3883" x2="119.269" y2="91.3883" gradientUnits="userSpaceOnUse">
<stop stop-color="#00B1FF"/>
<stop offset="0.5298" stop-color="#00DEFF"/>
<stop offset="0.6435" stop-color="#02DDFF"/>
<stop offset="0.7645" stop-color="#00D7FF"/>
<stop offset="0.8883" stop-color="#00C9FF"/>
<stop offset="1" stop-color="#00B1FF"/>
</linearGradient>
<linearGradient id="paint14_linear" x1="109.971" y1="76.2717" x2="109.971" y2="94.3612" gradientUnits="userSpaceOnUse">
<stop stop-color="white"/>
<stop offset="1" stop-color="white" stop-opacity="0"/>
</linearGradient>
</defs>
</svg>
