<svg width="117" height="235" viewBox="0 0 117 235" fill="none" xmlns="http://www.w3.org/2000/svg">
<path d="M62.0904 96.3809H55.9082V134.042H62.0904V96.3809Z" fill="#FFB10F"/>
<path d="M68.9169 138.347H49.1338C49.1338 135.972 51.0626 133.992 53.4861 133.992H64.5646C66.988 134.042 68.9169 135.972 68.9169 138.347Z" fill="#FFDC01"/>
<path d="M102.794 218.421H15.2539L20.1997 142.653H98.3428L102.794 218.421Z" fill="url(#paint0_linear)"/>
<path d="M99.3328 138.348H18.7168V142.653H99.3328V138.348Z" fill="#FFB10F"/>
<path d="M110.807 230.397H7.19336V222.38C7.19336 220.203 8.97384 218.421 11.15 218.421H106.851C109.027 218.421 110.807 220.203 110.807 222.38V230.397Z" fill="#FFB10F"/>
<path d="M106.85 218.421H89.9355C92.1117 218.421 93.8922 220.203 93.8922 222.38V230.397H110.807V222.38C110.807 220.203 109.076 218.421 106.85 218.421Z" fill="#FFA30F"/>
<path d="M116 230.298H2V235H116V230.298Z" fill="#D67205"/>
<path d="M116 233.515H2V234.95H116V233.515Z" fill="#BD6504"/>
<path d="M55.9082 105.041L59.4692 103.557L62.0904 104.646V96.3809H55.9082V105.041Z" fill="#E09C0D"/>
<path d="M95.2462 111.41L58.9703 96.7756L22.9296 112L25.5166 72.8767L0 43.1359L37.9221 33.5764L58.1473 0L78.9603 33.2223L117 42.1918L91.9538 72.2866L95.2462 111.41Z" fill="#FFDC01"/>
<path d="M28.8593 109.64C49.6 86.862 63.2889 50.1581 64 8.55637L58.6074 0L38.2222 33.5764L0 43.1949L25.7778 72.8767L23.1111 112L28.8593 109.64Z" fill="#FFDC01"/>
<path d="M58.147 86.7499L41.4748 63.4647C41.2981 63.229 41.357 62.8163 41.5927 62.6394C41.8283 62.4626 42.2407 62.5216 42.4174 62.7574L59.0896 86.0425C59.2663 86.2783 59.2074 86.6909 58.9718 86.8678C58.6772 87.0446 58.3237 86.9857 58.147 86.7499Z" fill="#FFF8A4"/>
<path d="M75.6432 94.9433L38.5285 45.3666C38.3518 45.1308 38.4107 44.7182 38.6464 44.5413C38.882 44.3645 39.2944 44.4234 39.4711 44.6592L76.5858 94.2359C76.7625 94.4717 76.7036 94.8843 76.468 95.0612C76.1734 95.238 75.82 95.1791 75.6432 94.9433Z" fill="#FFF8A4"/>
<path d="M87.5442 100.072L49.7815 46.4867C49.6047 46.2509 49.6637 45.8383 49.8993 45.6614C50.135 45.4846 50.5474 45.5435 50.7241 45.7793L88.4868 99.3646C88.6635 99.6004 88.6046 100.013 88.369 100.19C88.0744 100.426 87.721 100.367 87.5442 100.072Z" fill="#FFF8A4"/>
<path d="M77.1163 67.8856L51.4895 31.3368C51.3127 31.101 51.3717 30.6884 51.6073 30.5115C51.843 30.3347 52.2553 30.3936 52.4321 30.6294L78.0589 67.1782C78.2356 67.414 78.1767 67.8267 77.941 68.0035C77.6465 68.1804 77.293 68.1214 77.1163 67.8856Z" fill="#FFF8A4"/>
<path d="M75.6439 48.8448L66.3357 34.9917C66.159 34.6969 66.2179 34.3432 66.5125 34.1664C66.807 33.9895 67.1605 34.0485 67.3372 34.3432L76.6454 48.1964C76.8221 48.4911 76.7632 48.8448 76.4686 49.0217C76.1741 49.1985 75.8206 49.1396 75.6439 48.8448Z" fill="#FFF8A4"/>
<path d="M80.4892 183.828H43.1487C43.1487 185.214 42.0606 186.303 40.6758 186.303V204.317C42.0606 204.317 43.1487 205.405 43.1487 206.791H80.4892C80.4892 205.405 81.5773 204.317 82.9621 204.317V186.253C81.6268 186.303 80.4892 185.164 80.4892 183.828Z" fill="#FFCC00"/>
<path d="M43.1509 183.828C43.1509 183.878 43.1509 183.977 43.1509 184.026L61.2029 206.841H63.7253L45.4754 183.828H43.1509Z" fill="#F9C569"/>
<path d="M40.6777 186.303V187.54L55.9601 206.841H57.2461L40.9745 186.303C40.8756 186.253 40.7766 186.303 40.6777 186.303Z" fill="#F9C569"/>
<path d="M50.2229 183.828L68.4233 206.791H69.7092L51.4593 183.828H50.2229Z" fill="#F9C569"/>
<path d="M55.0696 183.828L73.27 206.791H75.1989L56.949 183.828H55.0696Z" fill="#F9C569"/>
<path d="M86.5723 221.638H75.1971C74.5541 221.638 74.5541 220.648 75.1971 220.648H86.5723C86.8691 220.648 87.0669 220.846 87.0669 221.143C87.0669 221.44 86.8196 221.638 86.5723 221.638Z" fill="#F9C569"/>
<path d="M69.9541 221.638H59.9637C59.3207 221.638 59.3207 220.648 59.9637 220.648H69.9541C70.2509 220.648 70.4487 220.846 70.4487 221.143C70.4487 221.44 70.2509 221.638 69.9541 221.638Z" fill="#F9C569"/>
<path d="M49.8467 79H43.8116V62.4766L43.8701 59.7617L43.9678 56.793C42.9652 57.7956 42.2686 58.4531 41.878 58.7656L38.5967 61.4023L35.6866 57.7695L44.8858 50.4453H49.8467V79ZM82.7373 79H75.8623L68.3819 66.9688L65.8233 68.8047V79H59.7686V50.4453H65.8233V63.5117L68.2061 60.1523L75.9405 50.4453H82.6592L72.6983 63.082L82.7373 79Z" fill="#CB5F00"/>
<defs>
<linearGradient id="paint0_linear" x1="53.3071" y1="131.937" x2="54.094" y2="229.134" gradientUnits="userSpaceOnUse">
<stop stop-color="#D91B24"/>
<stop offset="1" stop-color="#393C5A"/>
</linearGradient>
</defs>
</svg>
