<svg width="114" height="219" viewBox="0 0 114 219" fill="none" xmlns="http://www.w3.org/2000/svg">
<path d="M60.0908 79.8804H53.9086V117.542H60.0908V79.8804Z" fill="#FFB10F"/>
<path d="M66.9166 121.847H47.1335C47.1335 119.472 49.0624 117.492 51.4858 117.492H62.5644C64.9878 117.542 66.9166 119.472 66.9166 121.847Z" fill="#FFDC01"/>
<path d="M100.794 201.921H13.2542L18.1999 126.153H96.3431L100.794 201.921Z" fill="url(#paint0_linear)"/>
<path d="M97.3332 121.848H16.7172V126.153H97.3332V121.848Z" fill="#FFB10F"/>
<path d="M108.808 213.897H5.19373V205.88C5.19373 203.703 6.9742 201.921 9.15034 201.921H104.851C107.027 201.921 108.808 203.703 108.808 205.88V213.897Z" fill="#FFB10F"/>
<path d="M104.85 201.921H87.9358C90.1119 201.921 91.8924 203.703 91.8924 205.88V213.897H108.807V205.88C108.807 203.703 107.076 201.921 104.85 201.921Z" fill="#FFA30F"/>
<path d="M114 213.798H0V218.5H114V213.798Z" fill="#D67205"/>
<path d="M114 217.015H0V218.45H114V217.015Z" fill="#BD6504"/>
<path d="M53.9086 88.541L57.4695 87.0563L60.0908 88.1451V79.8804H53.9086V88.541Z" fill="#E09C0D"/>
<path d="M87.9361 93.9854L57.4206 81.7121L27.1031 94.4803L29.2792 61.6689L7.81458 36.7264L39.7148 28.7091L56.7283 0.549805L74.2363 28.4122L106.235 35.9346L85.1664 61.1741L87.9361 93.9854Z" fill="#FFDC01"/>
<path d="M31.9005 92.4509C49.2107 73.3481 60.6354 42.5658 61.2289 7.67593L56.7283 0.5L39.7148 28.6593L7.81458 36.7261L29.3287 61.6191L27.1031 94.4305L31.9005 92.4509Z" fill="#FFDC01"/>
<path d="M56.6293 73.2991L42.6328 53.7509C42.4844 53.5529 42.5339 53.2065 42.7317 53.058C42.9295 52.9095 43.2757 52.959 43.4241 53.157L57.4206 72.7052C57.569 72.9032 57.5196 73.2496 57.3217 73.3981C57.0744 73.5465 56.7777 73.497 56.6293 73.2991Z" fill="#FFF8A4"/>
<path d="M71.3181 80.1779L40.1598 38.5575C40.0114 38.3595 40.0608 38.0131 40.2587 37.8646C40.4565 37.7162 40.8027 37.7657 40.9511 37.9636L72.1094 79.584C72.2578 79.782 72.2083 80.1284 72.0105 80.2769C71.7632 80.4253 71.4665 80.3758 71.3181 80.1779Z" fill="#FFF8A4"/>
<path d="M81.3093 84.4831L49.6069 39.4974C49.4585 39.2995 49.508 38.9531 49.7058 38.8046C49.9037 38.6561 50.2499 38.7056 50.3982 38.9036L82.1006 83.8892C82.249 84.0872 82.1995 84.4336 82.0017 84.5821C81.7544 84.78 81.4577 84.7305 81.3093 84.4831Z" fill="#FFF8A4"/>
<path d="M72.5545 57.462L51.0404 26.7787C50.892 26.5807 50.9415 26.2343 51.1393 26.0858C51.3371 25.9374 51.6833 25.9869 51.8317 26.1848L73.3458 56.8681C73.4942 57.0661 73.4447 57.4125 73.2469 57.561C72.9996 57.7094 72.7028 57.6599 72.5545 57.462Z" fill="#FFF8A4"/>
<path d="M71.3184 41.4771L63.5041 29.8472C63.3557 29.5997 63.4052 29.3028 63.6525 29.1543C63.8998 29.0058 64.1965 29.0553 64.3449 29.3028L72.1592 40.9327C72.3076 41.1802 72.2581 41.4771 72.0108 41.6256C71.7635 41.7741 71.4668 41.7246 71.3184 41.4771Z" fill="#FFF8A4"/>
<path d="M78.4896 167.328H41.149C41.149 168.714 40.061 169.803 38.6761 169.803V187.817C40.061 187.817 41.149 188.905 41.149 190.291H78.4896C78.4896 188.905 79.5777 187.817 80.9625 187.817V169.753C79.6271 169.803 78.4896 168.664 78.4896 167.328Z" fill="#FFCC00"/>
<path d="M41.1503 167.328C41.1503 167.378 41.1503 167.477 41.1503 167.526L59.2023 190.341H61.7247L43.4748 167.328H41.1503Z" fill="#F9C569"/>
<path d="M38.6772 169.803V171.04L53.9597 190.341H55.2456L38.974 169.803C38.8751 169.753 38.7762 169.803 38.6772 169.803Z" fill="#F9C569"/>
<path d="M48.2225 167.328L66.423 190.291H67.7089L49.459 167.328H48.2225Z" fill="#F9C569"/>
<path d="M53.0691 167.328L71.2695 190.291H73.1984L54.9485 167.328H53.0691Z" fill="#F9C569"/>
<path d="M84.5729 205.138H73.1977C72.5547 205.138 72.5547 204.148 73.1977 204.148H84.5729C84.8697 204.148 85.0675 204.346 85.0675 204.643C85.0675 204.94 84.8202 205.138 84.5729 205.138Z" fill="#F9C569"/>
<path d="M67.9542 205.138H57.9638C57.3208 205.138 57.3208 204.148 57.9638 204.148H67.9542C68.251 204.148 68.4488 204.346 68.4488 204.643C68.4488 204.94 68.251 205.138 67.9542 205.138Z" fill="#F9C569"/>
<path d="M53.0683 205.138H9.89176C9.24881 205.138 9.24881 204.148 9.89176 204.148H53.0683C53.3651 204.148 53.5629 204.346 53.5629 204.643C53.5629 204.94 53.3156 205.138 53.0683 205.138Z" fill="#F9C569"/>
<path d="M39.6065 66.5449H34.4766V52.5L34.5264 50.1924L34.6094 47.6689C33.7572 48.5212 33.1651 49.0801 32.833 49.3457L30.044 51.5869L27.5703 48.499L35.3897 42.2734H39.6065V66.5449ZM63.1807 54.4092C63.1807 58.6481 62.4834 61.7858 61.0889 63.8223C59.7054 65.8587 57.5694 66.877 54.6807 66.877C51.8806 66.877 49.7666 65.8255 48.3389 63.7227C46.9222 61.6198 46.2139 58.5153 46.2139 54.4092C46.2139 50.126 46.9056 46.9717 48.2891 44.9463C49.6726 42.9098 51.8031 41.8916 54.6807 41.8916C57.4808 41.8916 59.5948 42.9541 61.0225 45.0791C62.4613 47.2041 63.1807 50.3141 63.1807 54.4092ZM51.3106 54.4092C51.3106 57.3864 51.5651 59.5225 52.0742 60.8174C52.5944 62.1012 53.4632 62.7432 54.6807 62.7432C55.876 62.7432 56.7393 62.0902 57.2705 60.7842C57.8018 59.4782 58.0674 57.3532 58.0674 54.4092C58.0674 51.432 57.7963 49.2959 57.2539 48.001C56.7227 46.695 55.8649 46.042 54.6807 46.042C53.4743 46.042 52.611 46.695 52.0909 48.001C51.5707 49.2959 51.3106 51.432 51.3106 54.4092ZM82.6045 54.4092C82.6045 58.6481 81.9073 61.7858 80.5127 63.8223C79.1293 65.8587 76.9932 66.877 74.1045 66.877C71.3044 66.877 69.1905 65.8255 67.7627 63.7227C66.3461 61.6198 65.6377 58.5153 65.6377 54.4092C65.6377 50.126 66.3295 46.9717 67.7129 44.9463C69.0964 42.9098 71.2269 41.8916 74.1045 41.8916C76.9047 41.8916 79.0186 42.9541 80.4463 45.0791C81.8851 47.2041 82.6045 50.3141 82.6045 54.4092ZM70.7344 54.4092C70.7344 57.3864 70.989 59.5225 71.4981 60.8174C72.0183 62.1012 72.8871 62.7432 74.1045 62.7432C75.2998 62.7432 76.1631 62.0902 76.6944 60.7842C77.2256 59.4782 77.4912 57.3532 77.4912 54.4092C77.4912 51.432 77.2201 49.2959 76.6778 48.001C76.1465 46.695 75.2888 46.042 74.1045 46.042C72.8981 46.042 72.0349 46.695 71.5147 48.001C70.9945 49.2959 70.7344 51.432 70.7344 54.4092Z" fill="#CB5F00"/>
<defs>
<linearGradient id="paint0_linear" x1="51.3073" y1="115.437" x2="52.0942" y2="212.634" gradientUnits="userSpaceOnUse">
<stop stop-color="#D91B24"/>
<stop offset="1" stop-color="#393C5A"/>
</linearGradient>
</defs>
</svg>
