<svg width="162" height="221" viewBox="0 0 162 221" fill="none" xmlns="http://www.w3.org/2000/svg">
<path d="M150.827 213.317L126.976 193.391L110.673 220.11L85.7646 70.21L125.919 63.5679L150.827 213.317Z" fill="#EB00FF"/>
<path d="M5.30518 205.92L31.2698 188.56L44.5539 216.638L84.8594 70.2097L45.4597 59.3408L5.30518 205.92Z" fill="#EB00FF"/>
<path d="M21.6074 146.745C32.0234 155.954 44.5529 162.898 58.4409 166.521L84.8583 70.2101L45.6096 59.4922L21.6074 146.745Z" fill="#D100E3"/>
<path d="M125.919 63.5679L85.7646 70.21L101.917 166.671C116.258 163.199 129.24 156.104 139.807 146.594L125.919 63.5679Z" fill="#D100E3"/>
<path d="M80.6102 161.22C125.13 161.22 161.22 125.13 161.22 80.6102C161.22 36.0904 125.13 0 80.6102 0C36.0904 0 0 36.0904 0 80.6102C0 125.13 36.0904 161.22 80.6102 161.22Z" fill="#FFCF03"/>
<path d="M136.335 22.3564C150.223 36.8483 158.676 56.4727 158.676 78.0595C158.676 122.592 122.598 158.67 78.0654 158.67C56.4785 158.67 36.8542 150.217 22.3623 136.329C37.0051 151.726 57.8372 161.237 80.7826 161.237C125.315 161.237 161.394 125.158 161.394 80.6258C161.243 57.6803 151.732 36.9993 136.335 22.3564Z" fill="#FFA506"/>
<path d="M130.296 80.626C130.296 85.7585 125.767 90.1362 124.258 94.8159C122.748 99.6465 123.805 105.836 120.786 109.912C117.767 113.987 111.577 114.893 107.502 117.761C103.426 120.63 100.709 126.366 95.8779 127.875C91.1982 129.385 85.6128 126.517 80.4803 126.517C75.3478 126.517 69.7624 129.385 65.0827 127.875C60.2521 126.366 57.5349 120.63 53.459 117.761C49.3832 114.742 43.194 113.987 40.1748 109.912C37.3067 105.836 38.3633 99.6465 36.7028 94.8159C35.1933 90.1362 30.6646 85.7585 30.6646 80.626C30.6646 75.4934 35.1933 71.1157 36.7028 66.436C38.2124 61.6054 37.1557 55.4162 40.1748 51.3403C43.194 47.2645 49.3832 46.3588 53.459 43.4906C57.5349 40.6224 60.2521 34.886 65.0827 33.3765C69.7624 31.8669 75.3478 34.7351 80.4803 34.7351C85.6128 34.7351 91.1982 31.8669 95.8779 33.3765C100.709 34.886 103.426 40.6224 107.502 43.4906C111.577 46.5097 117.767 47.2645 120.786 51.3403C123.654 55.4162 122.597 61.6054 124.258 66.436C125.767 71.1157 130.296 75.4934 130.296 80.626Z" fill="#FFEC03"/>
<path d="M87.725 123.951C81.5357 122.592 79.7243 122.592 73.535 123.951C71.4216 124.404 68.4025 125.158 66.44 124.555C62.968 123.347 60.0999 118.063 55.8731 114.893C51.6463 111.723 45.608 110.667 43.4946 107.798C41.3812 104.93 42.287 98.8919 40.6264 93.7594C39.8716 91.495 38.664 89.5326 37.6073 87.7211C33.8334 81.3809 33.8334 80.1733 37.6073 73.8331C38.815 71.8706 39.8716 69.9082 40.6264 67.7948C42.287 62.6623 41.3812 56.624 43.4946 53.7558C45.608 50.8876 51.6463 49.8309 55.8731 46.6609C60.0999 43.4908 62.968 38.2073 66.44 36.9996C68.4025 36.3958 71.4216 37.1506 73.535 37.6034C79.7243 38.9621 81.5357 38.9621 87.725 37.6034C89.9893 37.1506 92.8575 36.3958 94.8199 36.9996C98.2919 38.2073 101.16 43.4908 105.387 46.6609C109.765 49.8309 115.652 50.8876 117.765 53.7558C119.879 56.624 118.973 62.6623 120.634 67.7948C121.388 70.0592 122.596 72.0216 123.653 73.8331C127.427 80.1733 127.427 81.3809 123.653 87.7211C120.634 92.8536 120.03 94.5142 119.426 100.703C118.671 107.949 118.218 108.704 111.425 111.723C109.312 112.629 107.198 113.535 105.236 115.044C101.009 118.214 98.141 123.498 94.669 124.706C94.3671 124.706 89.9893 124.404 87.725 123.951Z" fill="#FFDC01"/>
<path d="M68.4058 134.518C71.5758 137.084 72.4816 141.311 72.4816 141.311C72.4816 141.311 68.1038 141.462 64.9337 138.895C61.7636 136.329 60.8579 132.102 60.8579 132.102C60.8579 132.102 65.0847 131.951 68.4058 134.518Z" fill="#FFAA2E"/>
<path d="M64.4802 141.16C68.4051 139.801 72.4809 141.311 72.4809 141.311C72.4809 141.311 70.2166 145.085 66.2917 146.443C62.3668 147.802 58.291 146.292 58.291 146.292C58.291 146.292 60.5554 142.518 64.4802 141.16Z" fill="#FFAA2E"/>
<path d="M55.7254 131.045C58.5936 134.064 58.8955 138.291 58.8955 138.291C58.8955 138.291 54.5178 137.838 51.6496 134.819C48.7814 131.8 48.4795 127.573 48.4795 127.573C48.4795 127.573 52.8572 128.177 55.7254 131.045Z" fill="#FFAA2E"/>
<path d="M50.8946 137.083C54.9705 136.329 58.7444 138.291 58.7444 138.291C58.7444 138.291 56.0271 141.612 51.9513 142.518C47.8755 143.273 44.1016 141.31 44.1016 141.31C44.1016 141.31 46.8188 137.989 50.8946 137.083Z" fill="#FFAA2E"/>
<path d="M45.7623 126.215C48.0267 129.536 47.7248 133.914 47.7248 133.914C47.7248 133.914 43.498 132.706 41.2336 129.385C38.9693 126.064 39.2712 121.686 39.2712 121.686C39.2712 121.686 43.498 122.743 45.7623 126.215Z" fill="#FFAA2E"/>
<path d="M40.0263 131.347C44.1021 131.196 47.5741 133.763 47.5741 133.763C47.5741 133.763 44.404 136.631 40.1772 136.782C36.1014 136.933 32.6294 134.366 32.6294 134.366C32.6294 134.366 35.9504 131.498 40.0263 131.347Z" fill="#FFAA2E"/>
<path d="M36.553 118.667C38.0626 122.441 36.553 126.516 36.553 126.516C36.553 126.516 32.7791 124.403 31.2696 120.629C29.76 116.855 31.2696 112.779 31.2696 112.779C31.2696 112.779 35.0435 114.893 36.553 118.667Z" fill="#FFAA2E"/>
<path d="M29.6105 122.441C33.6863 123.196 36.4036 126.668 36.4036 126.668C36.4036 126.668 32.4787 128.781 28.5538 127.875C24.478 127.121 21.7607 123.649 21.7607 123.649C21.7607 123.649 25.6856 121.535 29.6105 122.441Z" fill="#FFAA2E"/>
<path d="M29.4593 110.062C29.9122 114.138 27.4969 117.761 27.4969 117.761C27.4969 117.761 24.3268 114.742 23.8739 110.817C23.4211 106.741 25.8364 103.118 25.8364 103.118C25.8364 103.118 29.0065 105.986 29.4593 110.062Z" fill="#FFAA2E"/>
<path d="M21.9109 112.025C25.6848 113.836 27.4963 117.61 27.4963 117.61C27.4963 117.61 23.2695 118.667 19.4956 117.006C15.7216 115.195 13.9102 111.421 13.9102 111.421C13.9102 111.421 18.2879 110.213 21.9109 112.025Z" fill="#FFAA2E"/>
<path d="M23.4207 99.042C23.1188 103.118 19.9487 106.137 19.9487 106.137C19.9487 106.137 17.3825 102.665 17.8353 98.5891C18.1372 94.5133 21.3073 91.4941 21.3073 91.4941C21.3073 91.4941 23.8736 94.9661 23.4207 99.042Z" fill="#FFAA2E"/>
<path d="M15.7232 99.6457C19.0443 102.061 20.101 106.288 20.101 106.288C20.101 106.288 15.7232 106.59 12.4022 104.174C9.08111 101.759 8.02441 97.5323 8.02441 97.5323C8.02441 97.5323 12.4022 97.0794 15.7232 99.6457Z" fill="#FFAA2E"/>
<path d="M20.4017 88.6256C19.345 92.5505 15.873 95.1168 15.873 95.1168C15.873 95.1168 13.9105 91.1919 14.9672 87.267C16.0239 83.3421 19.4959 80.7759 19.4959 80.7759C19.4959 80.7759 21.4584 84.7008 20.4017 88.6256Z" fill="#FFAA2E"/>
<path d="M12.7034 88.0222C15.5716 90.8904 15.8735 95.2681 15.8735 95.2681C15.8735 95.2681 11.4958 94.8153 8.62762 91.9471C5.75944 89.0789 5.45752 84.7012 5.45752 84.7012C5.45752 84.7012 9.83527 85.0031 12.7034 88.0222Z" fill="#FFAA2E"/>
<path d="M20.1 77.153C18.1375 80.7759 14.0617 82.4365 14.0617 82.4365C14.0617 82.4365 13.156 78.2097 15.1184 74.5867C17.0808 70.9637 21.1567 69.3032 21.1567 69.3032C21.1567 69.3032 22.0624 73.53 20.1 77.153Z" fill="#FFAA2E"/>
<path d="M12.7036 74.587C14.817 78.059 14.0622 82.2858 14.0622 82.2858C14.0622 82.2858 9.98635 80.7763 7.87295 77.3043C5.75956 73.8323 6.51434 69.6055 6.51434 69.6055C6.51434 69.6055 10.5902 70.9641 12.7036 74.587Z" fill="#FFAA2E"/>
<path d="M22.0623 65.3783C19.345 68.3975 14.9673 69.0013 14.9673 69.0013C14.9673 69.0013 15.1182 64.6235 17.8355 61.6044C20.5527 58.5853 24.9304 57.9814 24.9304 57.9814C24.9304 57.9814 24.9304 62.3592 22.0623 65.3783Z" fill="#FFAA2E"/>
<path d="M15.5717 61.1517C16.7794 65.0766 14.9679 69.0015 14.9679 69.0015C14.9679 69.0015 11.345 66.5862 10.1373 62.6613C8.92965 58.7364 10.7411 54.8115 10.7411 54.8115C10.7411 54.8115 14.515 57.2268 15.5717 61.1517Z" fill="#FFAA2E"/>
<path d="M26.44 55.7182C23.119 58.1335 18.7412 57.6806 18.7412 57.6806C18.7412 57.6806 19.7979 53.4538 23.2699 51.1895C26.591 48.7742 30.9687 49.227 30.9687 49.227C30.9687 49.227 29.7611 53.4538 26.44 55.7182Z" fill="#FFAA2E"/>
<path d="M21.0059 50.2835C21.3078 54.3594 18.5906 57.8314 18.5906 57.8314C18.5906 57.8314 15.5714 54.6613 15.2695 50.5854C14.9676 46.5096 17.6848 43.0376 17.6848 43.0376C17.6848 43.0376 20.704 46.2077 21.0059 50.2835Z" fill="#FFAA2E"/>
<path d="M31.7229 47.1131C27.949 48.9245 23.7222 47.8678 23.7222 47.8678C23.7222 47.8678 25.5336 43.943 29.1566 42.1315C32.9305 40.32 37.1573 41.3767 37.1573 41.3767C37.1573 41.3767 35.3458 45.3016 31.7229 47.1131Z" fill="#FFAA2E"/>
<path d="M27.1961 40.7729C26.7432 44.8488 23.5731 47.8679 23.5731 47.8679C23.5731 47.8679 21.1578 44.2449 21.4597 40.3201C21.9126 36.2442 25.0827 33.2251 25.0827 33.2251C25.0827 33.2251 27.6489 36.6971 27.1961 40.7729Z" fill="#FFAA2E"/>
<path d="M90.7482 133.913C87.5781 136.479 86.6724 140.706 86.6724 140.706C86.6724 140.706 91.0501 140.857 94.2202 138.291C97.3903 135.725 98.296 131.498 98.296 131.498C98.296 131.498 94.0693 131.347 90.7482 133.913Z" fill="#FFAA2E"/>
<path d="M94.6736 140.556C90.7487 139.197 86.6729 140.707 86.6729 140.707C86.6729 140.707 88.9372 144.481 92.8621 145.839C96.787 147.198 100.863 145.688 100.863 145.688C100.863 145.688 98.5984 141.914 94.6736 140.556Z" fill="#FFAA2E"/>
<path d="M101.768 131.045C98.8996 134.064 98.5977 138.291 98.5977 138.291C98.5977 138.291 102.975 137.838 105.844 134.819C108.712 131.8 109.014 127.573 109.014 127.573C109.014 127.573 104.636 128.177 101.768 131.045Z" fill="#FFAA2E"/>
<path d="M106.598 137.083C102.522 136.329 98.7485 138.291 98.7485 138.291C98.7485 138.291 101.466 141.612 105.542 142.518C109.617 143.273 113.391 141.31 113.391 141.31C113.391 141.31 110.674 137.989 106.598 137.083Z" fill="#FFAA2E"/>
<path d="M111.731 125.762C109.467 129.083 109.769 133.461 109.769 133.461C109.769 133.461 113.996 132.253 116.26 128.932C118.524 125.611 118.222 121.233 118.222 121.233C118.222 121.233 114.146 122.441 111.731 125.762Z" fill="#FFAA2E"/>
<path d="M117.467 130.894C113.391 130.743 109.919 133.309 109.919 133.309C109.919 133.309 113.089 136.178 117.316 136.329C121.392 136.48 124.864 133.913 124.864 133.913C124.864 133.913 121.543 131.196 117.467 130.894Z" fill="#FFAA2E"/>
<path d="M120.637 118.515C119.128 122.289 120.637 126.365 120.637 126.365C120.637 126.365 124.411 124.252 125.921 120.478C127.43 116.704 125.921 112.628 125.921 112.628C125.921 112.628 122.147 114.59 120.637 118.515Z" fill="#FFAA2E"/>
<path d="M127.582 122.139C123.506 122.893 120.789 126.365 120.789 126.365C120.789 126.365 124.713 128.479 128.638 127.573C132.714 126.818 135.431 123.346 135.431 123.346C135.431 123.346 131.657 121.384 127.582 122.139Z" fill="#FFAA2E"/>
<path d="M128.185 109.156C127.732 113.232 130.147 116.855 130.147 116.855C130.147 116.855 133.318 113.836 133.77 109.911C134.223 105.835 131.808 102.212 131.808 102.212C131.808 102.212 128.638 105.232 128.185 109.156Z" fill="#FFAA2E"/>
<path d="M135.582 111.27C131.808 113.082 129.997 116.856 129.997 116.856C129.997 116.856 134.223 117.912 137.997 116.252C141.771 114.44 143.583 110.666 143.583 110.666C143.583 110.666 139.356 109.459 135.582 111.27Z" fill="#FFAA2E"/>
<path d="M133.468 98.8921C133.77 102.968 136.94 105.987 136.94 105.987C136.94 105.987 139.506 102.515 139.054 98.4392C138.752 94.3634 135.582 91.3442 135.582 91.3442C135.582 91.3442 133.015 94.8162 133.468 98.8921Z" fill="#FFAA2E"/>
<path d="M141.166 99.3447C137.845 101.76 136.789 105.987 136.789 105.987C136.789 105.987 141.166 106.289 144.487 103.873C147.808 101.458 148.865 97.2313 148.865 97.2313C148.865 97.2313 144.487 96.9294 141.166 99.3447Z" fill="#FFAA2E"/>
<path d="M136.487 88.4757C137.543 92.4006 141.015 94.9669 141.015 94.9669C141.015 94.9669 142.978 91.042 141.921 87.1171C140.864 83.1922 137.392 80.626 137.392 80.626C137.392 80.626 135.581 84.5509 136.487 88.4757Z" fill="#FFAA2E"/>
<path d="M144.185 87.721C141.317 90.5891 141.015 94.9669 141.015 94.9669C141.015 94.9669 145.393 94.514 148.261 91.6458C151.129 88.7777 151.431 84.3999 151.431 84.3999C151.431 84.3999 147.204 84.8528 144.185 87.721Z" fill="#FFAA2E"/>
<path d="M136.79 77.3048C138.752 80.9278 142.828 82.5883 142.828 82.5883C142.828 82.5883 143.734 78.3615 141.771 74.7386C139.809 71.1156 135.733 69.4551 135.733 69.4551C135.733 69.4551 134.827 73.6819 136.79 77.3048Z" fill="#FFAA2E"/>
<path d="M144.185 74.7389C142.072 78.2109 142.826 82.4377 142.826 82.4377C142.826 82.4377 146.902 80.9281 149.016 77.4561C151.129 73.9841 150.374 69.7573 150.374 69.7573C150.374 69.7573 146.147 71.1159 144.185 74.7389Z" fill="#FFAA2E"/>
<path d="M134.676 65.5307C137.393 68.5498 141.771 69.1536 141.771 69.1536C141.771 69.1536 141.62 64.7759 138.903 61.7567C136.185 58.7376 131.808 58.1338 131.808 58.1338C131.808 58.1338 131.808 62.5115 134.676 65.5307Z" fill="#FFAA2E"/>
<path d="M141.167 61.3036C139.959 65.2284 141.77 69.1533 141.77 69.1533C141.77 69.1533 145.393 66.738 146.601 62.8131C147.809 58.8883 145.997 54.9634 145.997 54.9634C145.997 54.9634 142.374 57.5297 141.167 61.3036Z" fill="#FFAA2E"/>
<path d="M130.449 56.0199C133.77 58.4353 138.148 57.9824 138.148 57.9824C138.148 57.9824 137.091 53.7556 133.619 51.4912C130.298 49.0759 125.92 49.5288 125.92 49.5288C125.92 49.5288 127.128 53.7556 130.449 56.0199Z" fill="#FFAA2E"/>
<path d="M135.885 50.5858C135.583 54.6616 138.301 58.1336 138.301 58.1336C138.301 58.1336 141.32 54.9635 141.622 50.8877C141.924 46.8119 139.206 43.3398 139.206 43.3398C139.206 43.3398 136.187 46.5099 135.885 50.5858Z" fill="#FFAA2E"/>
<path d="M124.864 47.4153C128.638 49.2268 132.864 48.1701 132.864 48.1701C132.864 48.1701 131.053 44.2452 127.43 42.4337C123.656 40.6222 119.429 41.6789 119.429 41.6789C119.429 41.6789 121.241 45.6038 124.864 47.4153Z" fill="#FFAA2E"/>
<path d="M129.393 41.0752C129.846 45.151 133.016 48.1701 133.016 48.1701C133.016 48.1701 135.431 44.5472 135.129 40.6223C134.676 36.5465 131.506 33.5273 131.506 33.5273C131.506 33.5273 128.94 37.1503 129.393 41.0752Z" fill="#FFAA2E"/>
<path d="M121.845 35.0371C121.695 35.1881 121.544 35.339 121.242 35.49L121.091 35.6409C134.073 46.6608 142.225 62.6622 142.225 80.4751C142.225 113.686 113.543 140.858 78.3699 140.858C43.197 140.858 14.5152 113.837 14.5152 80.4751C14.5152 63.417 21.9121 48.1704 33.9886 37.1505C33.6867 36.9996 33.2338 36.8486 32.9319 36.6976C20.8554 47.8684 13.4585 63.266 13.4585 80.4751C13.4585 114.289 42.5932 141.764 78.3699 141.764C114.147 141.764 143.281 114.289 143.281 80.4751C143.281 62.5112 134.979 46.2079 121.845 35.0371Z" fill="#FF9912"/>
<path d="M40.3292 39.4145C36.2534 40.3202 32.4795 38.2068 32.4795 38.2068C32.4795 38.2068 35.1967 34.7348 39.2725 33.98C43.3484 33.0743 47.1223 35.1877 47.1223 35.1877C47.1223 35.1877 44.2541 38.5087 40.3292 39.4145Z" fill="#FFAA2E"/>
<path d="M37.6117 32.1686C36.2531 35.9425 32.4792 38.2069 32.4792 38.2069C32.4792 38.2069 30.9696 34.131 32.3283 30.3571C33.6869 26.5832 37.4608 24.3188 37.4608 24.3188C37.4608 24.3188 38.9704 28.3947 37.6117 32.1686Z" fill="#FFAA2E"/>
<path d="M116.712 39.4145C120.788 40.3202 124.562 38.2068 124.562 38.2068C124.562 38.2068 121.845 34.7348 117.769 33.98C113.693 33.0743 109.919 35.1877 109.919 35.1877C109.919 35.1877 112.637 38.5087 116.712 39.4145Z" fill="#FFAA2E"/>
<path d="M119.43 32.1686C120.788 35.9425 124.562 38.2069 124.562 38.2069C124.562 38.2069 126.072 34.131 124.713 30.3571C123.355 26.5832 119.581 24.3188 119.581 24.3188C119.581 24.3188 118.071 28.3947 119.43 32.1686Z" fill="#FFAA2E"/>
<path d="M65.3861 26.2815L59.8007 24.621L54.8192 27.4892L54.6682 21.7528L50.4414 17.677L55.8758 15.7146L58.2912 10.582L61.7632 15.1107L67.4995 15.8655L64.3294 20.5452L65.3861 26.2815Z" fill="#FFEC03"/>
<path d="M102.069 26.7342L106.9 30.0553L107.654 24.3189L112.183 20.6959L107.051 18.2806L105.088 12.8462L101.163 17.073L95.2759 17.2239L98.144 22.2055L96.4835 27.7909L102.069 26.7342Z" fill="#FFEC03"/>
<path d="M86.0676 25.5266L80.7841 23.1113L75.3496 25.0738L76.1044 19.3374L72.4814 14.8087L78.2178 13.601L81.3879 8.92139L84.2561 13.903L89.6905 15.5635L85.7656 19.7903L86.0676 25.5266Z" fill="#FFEC03"/>
<path d="M41.1016 77.0879C44.207 77.0879 46.6753 77.9595 48.5063 79.7026C50.3521 81.4458 51.2749 83.8335 51.2749 86.8657C51.2749 90.4546 50.1689 93.2158 47.957 95.1494C45.7451 97.083 42.5811 98.0498 38.4648 98.0498C34.8906 98.0498 32.0049 97.4712 29.8076 96.314V90.4473C30.9648 91.0625 32.3125 91.5679 33.8506 91.9634C35.3887 92.3442 36.8462 92.5347 38.2231 92.5347C42.3687 92.5347 44.4414 90.8354 44.4414 87.437C44.4414 84.1997 42.2954 82.5811 38.0034 82.5811C37.2271 82.5811 36.3701 82.6616 35.4326 82.8228C34.4951 82.9692 33.7334 83.1304 33.1475 83.3062L30.4448 81.856L31.6533 65.4863H49.0776V71.2432H37.6079L37.0146 77.5493L37.7837 77.3955C38.6772 77.1904 39.7832 77.0879 41.1016 77.0879ZM77.4004 81.5483C77.4004 87.1587 76.4775 91.3115 74.6318 94.0068C72.8008 96.7021 69.9736 98.0498 66.1504 98.0498C62.4443 98.0498 59.6465 96.6582 57.7568 93.875C55.8818 91.0918 54.9443 86.9829 54.9443 81.5483C54.9443 75.8794 55.8599 71.7046 57.6909 69.0239C59.522 66.3286 62.3418 64.981 66.1504 64.981C69.8564 64.981 72.6543 66.3872 74.5439 69.1997C76.4482 72.0122 77.4004 76.1284 77.4004 81.5483ZM61.6899 81.5483C61.6899 85.4888 62.0269 88.3159 62.7007 90.0298C63.3892 91.729 64.5391 92.5786 66.1504 92.5786C67.7324 92.5786 68.875 91.7144 69.5781 89.9858C70.2812 88.2573 70.6328 85.4448 70.6328 81.5483C70.6328 77.6079 70.2739 74.7808 69.5562 73.0669C68.853 71.3384 67.7178 70.4741 66.1504 70.4741C64.5537 70.4741 63.4111 71.3384 62.7227 73.0669C62.0342 74.7808 61.6899 77.6079 61.6899 81.5483ZM103.108 81.5483C103.108 87.1587 102.186 91.3115 100.34 94.0068C98.5088 96.7021 95.6816 98.0498 91.8584 98.0498C88.1523 98.0498 85.3545 96.6582 83.4648 93.875C81.5898 91.0918 80.6523 86.9829 80.6523 81.5483C80.6523 75.8794 81.5679 71.7046 83.3989 69.0239C85.23 66.3286 88.0498 64.981 91.8584 64.981C95.5645 64.981 98.3623 66.3872 100.252 69.1997C102.156 72.0122 103.108 76.1284 103.108 81.5483ZM87.3979 81.5483C87.3979 85.4888 87.7349 88.3159 88.4087 90.0298C89.0972 91.729 90.2471 92.5786 91.8584 92.5786C93.4404 92.5786 94.583 91.7144 95.2861 89.9858C95.9893 88.2573 96.3408 85.4448 96.3408 81.5483C96.3408 77.6079 95.9819 74.7808 95.2642 73.0669C94.561 71.3384 93.4258 70.4741 91.8584 70.4741C90.2617 70.4741 89.1191 71.3384 88.4307 73.0669C87.7422 74.7808 87.3979 77.6079 87.3979 81.5483ZM134.617 97.6104H126.883L118.467 84.0752L115.589 86.1406V97.6104H108.777V65.4863H115.589V80.186L118.27 76.4067L126.971 65.4863H134.529L123.323 79.7026L134.617 97.6104Z" fill="#EB00FF"/>
</svg>
