<svg width="162" height="221" viewBox="0 0 162 221" fill="none" xmlns="http://www.w3.org/2000/svg">
<path d="M150.827 213.317L126.976 193.391L110.672 220.11L85.7644 70.21L125.919 63.5679L150.827 213.317Z" fill="#00A023"/>
<path d="M5.30518 205.92L31.2698 188.56L44.5539 216.638L84.8594 70.2097L45.4597 59.3408L5.30518 205.92Z" fill="#00A023"/>
<path d="M21.6074 146.745C32.0234 155.954 44.5529 162.898 58.4409 166.521L84.8583 70.2101L45.6096 59.4922L21.6074 146.745Z" fill="#008E1F"/>
<path d="M125.919 63.5679L85.7644 70.21L101.917 166.671C116.258 163.199 129.24 156.104 139.807 146.594L125.919 63.5679Z" fill="#008E1F"/>
<path d="M80.6102 161.22C125.13 161.22 161.22 125.13 161.22 80.6102C161.22 36.0904 125.13 0 80.6102 0C36.0904 0 0 36.0904 0 80.6102C0 125.13 36.0904 161.22 80.6102 161.22Z" fill="#FFCF03"/>
<path d="M136.334 22.3564C150.222 36.8483 158.676 56.4727 158.676 78.0595C158.676 122.592 122.597 158.67 78.0651 158.67C56.4783 158.67 36.8539 150.217 22.3621 136.329C37.0049 151.726 57.8369 161.237 80.7823 161.237C125.315 161.237 161.393 125.158 161.393 80.6258C161.242 57.6803 151.732 36.9993 136.334 22.3564Z" fill="#FFA506"/>
<path d="M130.296 80.626C130.296 85.7585 125.767 90.1362 124.258 94.8159C122.748 99.6465 123.805 105.836 120.786 109.912C117.767 113.987 111.577 114.893 107.502 117.761C103.426 120.63 100.709 126.366 95.8779 127.875C91.1982 129.385 85.6128 126.517 80.4803 126.517C75.3478 126.517 69.7624 129.385 65.0827 127.875C60.2521 126.366 57.5349 120.63 53.459 117.761C49.3832 114.742 43.194 113.987 40.1748 109.912C37.3067 105.836 38.3633 99.6465 36.7028 94.8159C35.1933 90.1362 30.6646 85.7585 30.6646 80.626C30.6646 75.4934 35.1933 71.1157 36.7028 66.436C38.2124 61.6054 37.1557 55.4162 40.1748 51.3403C43.194 47.2645 49.3832 46.3588 53.459 43.4906C57.5349 40.6224 60.2521 34.886 65.0827 33.3765C69.7624 31.8669 75.3478 34.7351 80.4803 34.7351C85.6128 34.7351 91.1982 31.8669 95.8779 33.3765C100.709 34.886 103.426 40.6224 107.502 43.4906C111.577 46.5097 117.767 47.2645 120.786 51.3403C123.654 55.4162 122.597 61.6054 124.258 66.436C125.767 71.1157 130.296 75.4934 130.296 80.626Z" fill="#FFEC03"/>
<path d="M87.725 123.95C81.5357 122.592 79.7243 122.592 73.535 123.95C71.4216 124.403 68.4025 125.158 66.44 124.554C62.968 123.346 60.0999 118.063 55.8731 114.893C51.6463 111.723 45.608 110.666 43.4946 107.798C41.3812 104.93 42.287 98.8914 40.6264 93.7589C39.8716 91.4945 38.664 89.5321 37.6073 87.7206C33.8334 81.3804 33.8334 80.1728 37.6073 73.8326C38.815 71.8702 39.8716 69.9077 40.6264 67.7943C42.287 62.6618 41.3812 56.6235 43.4946 53.7553C45.608 50.8872 51.6463 49.8305 55.8731 46.6604C60.0999 43.4903 62.968 38.2068 66.44 36.9991C68.4025 36.3953 71.4216 37.1501 73.535 37.603C79.7243 38.9616 81.5357 38.9616 87.725 37.603C89.9893 37.1501 92.8575 36.3953 94.8199 36.9991C98.2919 38.2068 101.16 43.4903 105.387 46.6604C109.765 49.8305 115.652 50.8872 117.765 53.7553C119.879 56.6235 118.973 62.6618 120.634 67.7943C121.388 70.0587 122.596 72.0211 123.653 73.8326C127.427 80.1728 127.427 81.3804 123.653 87.7206C120.634 92.8532 120.03 94.5137 119.426 100.703C118.671 107.949 118.218 108.704 111.425 111.723C109.312 112.629 107.198 113.534 105.236 115.044C101.009 118.214 98.141 123.497 94.669 124.705C94.3671 124.705 89.9893 124.403 87.725 123.95Z" fill="#FFDC01"/>
<path d="M68.4058 134.518C71.5758 137.084 72.4816 141.311 72.4816 141.311C72.4816 141.311 68.1038 141.462 64.9337 138.895C61.7636 136.329 60.8579 132.102 60.8579 132.102C60.8579 132.102 65.0847 131.951 68.4058 134.518Z" fill="#FFAA2E"/>
<path d="M64.48 141.16C68.4049 139.801 72.4807 141.311 72.4807 141.311C72.4807 141.311 70.2164 145.085 66.2915 146.443C62.3666 147.802 58.2908 146.292 58.2908 146.292C58.2908 146.292 60.5551 142.518 64.48 141.16Z" fill="#FFAA2E"/>
<path d="M55.7257 131.046C58.5938 134.065 58.8957 138.292 58.8957 138.292C58.8957 138.292 54.518 137.839 51.6498 134.82C48.7816 131.801 48.4797 127.574 48.4797 127.574C48.4797 127.574 52.8575 128.178 55.7257 131.046Z" fill="#FFAA2E"/>
<path d="M50.8946 137.084C54.9705 136.329 58.7444 138.292 58.7444 138.292C58.7444 138.292 56.0271 141.613 51.9513 142.518C47.8755 143.273 44.1016 141.311 44.1016 141.311C44.1016 141.311 46.8188 137.99 50.8946 137.084Z" fill="#FFAA2E"/>
<path d="M45.7623 126.215C48.0267 129.536 47.7248 133.914 47.7248 133.914C47.7248 133.914 43.498 132.706 41.2336 129.385C38.9693 126.064 39.2712 121.687 39.2712 121.687C39.2712 121.687 43.498 122.743 45.7623 126.215Z" fill="#FFAA2E"/>
<path d="M40.0263 131.348C44.1021 131.197 47.5741 133.763 47.5741 133.763C47.5741 133.763 44.404 136.631 40.1772 136.782C36.1014 136.933 32.6294 134.367 32.6294 134.367C32.6294 134.367 35.9504 131.499 40.0263 131.348Z" fill="#FFAA2E"/>
<path d="M36.553 118.667C38.0626 122.441 36.553 126.517 36.553 126.517C36.553 126.517 32.7791 124.403 31.2696 120.63C29.76 116.856 31.2696 112.78 31.2696 112.78C31.2696 112.78 35.0435 114.893 36.553 118.667Z" fill="#FFAA2E"/>
<path d="M29.6107 122.441C33.6866 123.196 36.4038 126.668 36.4038 126.668C36.4038 126.668 32.4789 128.782 28.554 127.876C24.4782 127.121 21.761 123.649 21.761 123.649C21.761 123.649 25.6859 121.536 29.6107 122.441Z" fill="#FFAA2E"/>
<path d="M29.4593 110.063C29.9122 114.138 27.4969 117.761 27.4969 117.761C27.4969 117.761 24.3268 114.742 23.8739 110.817C23.4211 106.742 25.8364 103.119 25.8364 103.119C25.8364 103.119 29.0065 105.987 29.4593 110.063Z" fill="#FFAA2E"/>
<path d="M21.9109 112.025C25.6848 113.837 27.4963 117.61 27.4963 117.61C27.4963 117.61 23.2695 118.667 19.4956 117.007C15.7216 115.195 13.9102 111.421 13.9102 111.421C13.9102 111.421 18.2879 110.214 21.9109 112.025Z" fill="#FFAA2E"/>
<path d="M23.4205 99.0425C23.1186 103.118 19.9485 106.137 19.9485 106.137C19.9485 106.137 17.3822 102.665 17.8351 98.5896C18.137 94.5138 21.3071 91.4946 21.3071 91.4946C21.3071 91.4946 23.8734 94.9666 23.4205 99.0425Z" fill="#FFAA2E"/>
<path d="M15.7232 99.6462C19.0443 102.061 20.101 106.288 20.101 106.288C20.101 106.288 15.7232 106.59 12.4022 104.175C9.08111 101.76 8.02441 97.5328 8.02441 97.5328C8.02441 97.5328 12.4022 97.0799 15.7232 99.6462Z" fill="#FFAA2E"/>
<path d="M20.4017 88.6261C19.345 92.551 15.873 95.1173 15.873 95.1173C15.873 95.1173 13.9105 91.1924 14.9672 87.2675C16.0239 83.3426 19.4959 80.7764 19.4959 80.7764C19.4959 80.7764 21.4584 84.7012 20.4017 88.6261Z" fill="#FFAA2E"/>
<path d="M12.7032 88.0227C15.5714 90.8909 15.8733 95.2686 15.8733 95.2686C15.8733 95.2686 11.4956 94.8158 8.62737 91.9476C5.75919 89.0794 5.45728 84.7017 5.45728 84.7017C5.45728 84.7017 9.83502 85.0036 12.7032 88.0227Z" fill="#FFAA2E"/>
<path d="M20.1 77.1535C18.1375 80.7764 14.0617 82.437 14.0617 82.437C14.0617 82.437 13.156 78.2102 15.1184 74.5872C17.0808 70.9642 21.1567 69.3037 21.1567 69.3037C21.1567 69.3037 22.0624 73.5305 20.1 77.1535Z" fill="#FFAA2E"/>
<path d="M12.7036 74.5875C14.817 78.0595 14.0622 82.2863 14.0622 82.2863C14.0622 82.2863 9.98635 80.7768 7.87295 77.3048C5.75956 73.8327 6.51434 69.606 6.51434 69.606C6.51434 69.606 10.5902 70.9646 12.7036 74.5875Z" fill="#FFAA2E"/>
<path d="M22.0623 65.3793C19.345 68.3984 14.9673 69.0023 14.9673 69.0023C14.9673 69.0023 15.1182 64.6245 17.8355 61.6054C20.5527 58.5863 24.9304 57.9824 24.9304 57.9824C24.9304 57.9824 24.9304 62.3602 22.0623 65.3793Z" fill="#FFAA2E"/>
<path d="M15.5717 61.1522C16.7794 65.0771 14.9679 69.002 14.9679 69.002C14.9679 69.002 11.345 66.5866 10.1373 62.6618C8.92965 58.7369 10.7411 54.812 10.7411 54.812C10.7411 54.812 14.515 57.2273 15.5717 61.1522Z" fill="#FFAA2E"/>
<path d="M26.44 55.7187C23.119 58.134 18.7412 57.6811 18.7412 57.6811C18.7412 57.6811 19.7979 53.4543 23.2699 51.19C26.591 48.7747 30.9687 49.2275 30.9687 49.2275C30.9687 49.2275 29.7611 53.4543 26.44 55.7187Z" fill="#FFAA2E"/>
<path d="M21.0059 50.284C21.3078 54.3598 18.5906 57.8318 18.5906 57.8318C18.5906 57.8318 15.5714 54.6618 15.2695 50.5859C14.9676 46.5101 17.6848 43.0381 17.6848 43.0381C17.6848 43.0381 20.704 46.2082 21.0059 50.284Z" fill="#FFAA2E"/>
<path d="M31.7229 47.1135C27.949 48.925 23.7222 47.8683 23.7222 47.8683C23.7222 47.8683 25.5336 43.9434 29.1566 42.132C32.9305 40.3205 37.1573 41.3772 37.1573 41.3772C37.1573 41.3772 35.3458 45.3021 31.7229 47.1135Z" fill="#FFAA2E"/>
<path d="M27.1961 40.7734C26.7432 44.8493 23.5731 47.8684 23.5731 47.8684C23.5731 47.8684 21.1578 44.2454 21.4597 40.3206C21.9126 36.2447 25.0827 33.2256 25.0827 33.2256C25.0827 33.2256 27.6489 36.6976 27.1961 40.7734Z" fill="#FFAA2E"/>
<path d="M90.748 133.914C87.5779 136.48 86.6721 140.707 86.6721 140.707C86.6721 140.707 91.0499 140.858 94.22 138.291C97.3901 135.725 98.2958 131.498 98.2958 131.498C98.2958 131.498 94.069 131.347 90.748 133.914Z" fill="#FFAA2E"/>
<path d="M94.6733 140.556C90.7484 139.198 86.6726 140.707 86.6726 140.707C86.6726 140.707 88.937 144.481 92.8618 145.84C96.7867 147.198 100.863 145.689 100.863 145.689C100.863 145.689 98.5982 141.915 94.6733 140.556Z" fill="#FFAA2E"/>
<path d="M101.768 131.046C98.8996 134.065 98.5977 138.292 98.5977 138.292C98.5977 138.292 102.975 137.839 105.844 134.82C108.712 131.801 109.014 127.574 109.014 127.574C109.014 127.574 104.636 128.178 101.768 131.046Z" fill="#FFAA2E"/>
<path d="M106.598 137.084C102.522 136.329 98.7485 138.292 98.7485 138.292C98.7485 138.292 101.466 141.613 105.542 142.518C109.617 143.273 113.391 141.311 113.391 141.311C113.391 141.311 110.674 137.99 106.598 137.084Z" fill="#FFAA2E"/>
<path d="M111.731 125.763C109.467 129.084 109.769 133.461 109.769 133.461C109.769 133.461 113.995 132.254 116.26 128.933C118.524 125.612 118.222 121.234 118.222 121.234C118.222 121.234 114.146 122.442 111.731 125.763Z" fill="#FFAA2E"/>
<path d="M117.467 130.895C113.391 130.744 109.919 133.31 109.919 133.31C109.919 133.31 113.089 136.179 117.316 136.33C121.392 136.48 124.864 133.914 124.864 133.914C124.864 133.914 121.543 131.197 117.467 130.895Z" fill="#FFAA2E"/>
<path d="M120.637 118.516C119.128 122.29 120.637 126.365 120.637 126.365C120.637 126.365 124.411 124.252 125.921 120.478C127.43 116.704 125.921 112.628 125.921 112.628C125.921 112.628 122.147 114.591 120.637 118.516Z" fill="#FFAA2E"/>
<path d="M127.581 122.139C123.506 122.894 120.788 126.366 120.788 126.366C120.788 126.366 124.713 128.479 128.638 127.574C132.714 126.819 135.431 123.347 135.431 123.347C135.431 123.347 131.657 121.384 127.581 122.139Z" fill="#FFAA2E"/>
<path d="M128.185 109.157C127.732 113.233 130.147 116.856 130.147 116.856C130.147 116.856 133.318 113.837 133.77 109.912C134.223 105.836 131.808 102.213 131.808 102.213C131.808 102.213 128.638 105.232 128.185 109.157Z" fill="#FFAA2E"/>
<path d="M135.582 111.271C131.808 113.082 129.997 116.856 129.997 116.856C129.997 116.856 134.223 117.913 137.997 116.252C141.771 114.441 143.583 110.667 143.583 110.667C143.583 110.667 139.356 109.459 135.582 111.271Z" fill="#FFAA2E"/>
<path d="M133.468 98.8926C133.77 102.968 136.94 105.988 136.94 105.988C136.94 105.988 139.506 102.516 139.053 98.4397C138.751 94.3639 135.581 91.3447 135.581 91.3447C135.581 91.3447 133.015 94.8167 133.468 98.8926Z" fill="#FFAA2E"/>
<path d="M141.166 99.3452C137.845 101.761 136.789 105.987 136.789 105.987C136.789 105.987 141.166 106.289 144.487 103.874C147.808 101.459 148.865 97.2318 148.865 97.2318C148.865 97.2318 144.487 96.9299 141.166 99.3452Z" fill="#FFAA2E"/>
<path d="M136.487 88.4762C137.543 92.4011 141.015 94.9674 141.015 94.9674C141.015 94.9674 142.978 91.0425 141.921 87.1176C140.864 83.1927 137.392 80.6265 137.392 80.6265C137.392 80.6265 135.581 84.5513 136.487 88.4762Z" fill="#FFAA2E"/>
<path d="M144.185 87.7214C141.317 90.5896 141.015 94.9674 141.015 94.9674C141.015 94.9674 145.392 94.5145 148.261 91.6463C151.129 88.7781 151.431 84.4004 151.431 84.4004C151.431 84.4004 147.204 84.8533 144.185 87.7214Z" fill="#FFAA2E"/>
<path d="M136.79 77.3053C138.752 80.9283 142.828 82.5888 142.828 82.5888C142.828 82.5888 143.734 78.362 141.771 74.7391C139.809 71.1161 135.733 69.4556 135.733 69.4556C135.733 69.4556 134.827 73.6824 136.79 77.3053Z" fill="#FFAA2E"/>
<path d="M144.185 74.7394C142.072 78.2114 142.826 82.4382 142.826 82.4382C142.826 82.4382 146.902 80.9286 149.016 77.4566C151.129 73.9846 150.374 69.7578 150.374 69.7578C150.374 69.7578 146.147 71.1164 144.185 74.7394Z" fill="#FFAA2E"/>
<path d="M134.676 65.5307C137.393 68.5498 141.771 69.1536 141.771 69.1536C141.771 69.1536 141.62 64.7759 138.903 61.7567C136.185 58.7376 131.808 58.1338 131.808 58.1338C131.808 58.1338 131.808 62.5115 134.676 65.5307Z" fill="#FFAA2E"/>
<path d="M141.166 61.3041C139.959 65.2289 141.77 69.1538 141.77 69.1538C141.77 69.1538 145.393 66.7385 146.601 62.8136C147.808 58.8888 145.997 54.9639 145.997 54.9639C145.997 54.9639 142.374 57.5301 141.166 61.3041Z" fill="#FFAA2E"/>
<path d="M130.449 56.0204C133.77 58.4357 138.148 57.9829 138.148 57.9829C138.148 57.9829 137.091 53.7561 133.619 51.4917C130.298 49.0764 125.92 49.5293 125.92 49.5293C125.92 49.5293 127.128 53.7561 130.449 56.0204Z" fill="#FFAA2E"/>
<path d="M135.885 50.5863C135.583 54.6621 138.301 58.1341 138.301 58.1341C138.301 58.1341 141.32 54.964 141.622 50.8882C141.924 46.8123 139.206 43.3403 139.206 43.3403C139.206 43.3403 136.187 46.5104 135.885 50.5863Z" fill="#FFAA2E"/>
<path d="M124.863 47.4158C128.637 49.2273 132.864 48.1706 132.864 48.1706C132.864 48.1706 131.053 44.2457 127.43 42.4342C123.656 40.6227 119.429 41.6794 119.429 41.6794C119.429 41.6794 121.24 45.6043 124.863 47.4158Z" fill="#FFAA2E"/>
<path d="M129.393 41.0757C129.846 45.1515 133.016 48.1706 133.016 48.1706C133.016 48.1706 135.431 44.5477 135.129 40.6228C134.676 36.547 131.506 33.5278 131.506 33.5278C131.506 33.5278 128.94 37.1508 129.393 41.0757Z" fill="#FFAA2E"/>
<path d="M121.845 35.0371C121.695 35.1881 121.544 35.339 121.242 35.49L121.091 35.6409C134.073 46.6608 142.225 62.6622 142.225 80.4751C142.225 113.686 113.543 140.858 78.3699 140.858C43.197 140.858 14.5152 113.837 14.5152 80.4751C14.5152 63.417 21.9121 48.1704 33.9886 37.1505C33.6867 36.9996 33.2338 36.8486 32.9319 36.6976C20.8554 47.8684 13.4585 63.266 13.4585 80.4751C13.4585 114.289 42.5932 141.764 78.3699 141.764C114.147 141.764 143.281 114.289 143.281 80.4751C143.281 62.5112 134.979 46.2079 121.845 35.0371Z" fill="#FF9912"/>
<path d="M40.3292 39.415C36.2534 40.3207 32.4795 38.2073 32.4795 38.2073C32.4795 38.2073 35.1967 34.7353 39.2725 33.9805C43.3484 33.0748 47.1223 35.1882 47.1223 35.1882C47.1223 35.1882 44.2541 38.5092 40.3292 39.415Z" fill="#FFAA2E"/>
<path d="M37.6117 32.1691C36.2531 35.943 32.4792 38.2074 32.4792 38.2074C32.4792 38.2074 30.9696 34.1315 32.3283 30.3576C33.6869 26.5837 37.4608 24.3193 37.4608 24.3193C37.4608 24.3193 38.9704 28.3952 37.6117 32.1691Z" fill="#FFAA2E"/>
<path d="M116.712 39.415C120.788 40.3207 124.562 38.2073 124.562 38.2073C124.562 38.2073 121.845 34.7353 117.769 33.9805C113.693 33.0748 109.919 35.1882 109.919 35.1882C109.919 35.1882 112.636 38.5092 116.712 39.415Z" fill="#FFAA2E"/>
<path d="M119.43 32.1691C120.788 35.943 124.562 38.2074 124.562 38.2074C124.562 38.2074 126.072 34.1315 124.713 30.3576C123.355 26.5837 119.581 24.3193 119.581 24.3193C119.581 24.3193 118.071 28.3952 119.43 32.1691Z" fill="#FFAA2E"/>
<path d="M65.3861 26.2815L59.8007 24.621L54.8192 27.4892L54.6682 21.7528L50.4414 17.677L55.8758 15.7146L58.2912 10.582L61.7632 15.1107L67.4995 15.8655L64.3294 20.5452L65.3861 26.2815Z" fill="#FFEC03"/>
<path d="M102.068 26.7342L106.899 30.0553L107.654 24.3189L112.183 20.6959L107.05 18.2806L105.088 12.8462L101.163 17.073L95.2754 17.2239L98.1436 22.2055L96.483 27.7909L102.068 26.7342Z" fill="#FFEC03"/>
<path d="M86.0671 25.5266L80.7836 23.1113L75.3491 25.0738L76.1039 19.3374L72.481 14.8087L78.2173 13.601L81.3874 8.92139L84.2556 13.903L89.69 15.5635L85.7652 19.7903L86.0671 25.5266Z" fill="#FFEC03"/>
<path d="M56.2646 100.61H48.7207V79.9561L48.7939 76.5625L48.916 72.8516C47.6628 74.1048 46.792 74.9268 46.3037 75.3174L42.2021 78.6133L38.5645 74.0723L50.0635 64.917H56.2646V100.61ZM90.9326 82.7637C90.9326 88.9974 89.9072 93.6117 87.8564 96.6064C85.8219 99.6012 82.6807 101.099 78.4326 101.099C74.3148 101.099 71.2061 99.5524 69.1064 96.46C67.0231 93.3675 65.9814 88.8021 65.9814 82.7637C65.9814 76.4648 66.9987 71.8262 69.0332 68.8477C71.0677 65.8529 74.2008 64.3555 78.4326 64.3555C82.5505 64.3555 85.6592 65.918 87.7588 69.043C89.8747 72.168 90.9326 76.7415 90.9326 82.7637ZM73.4766 82.7637C73.4766 87.1419 73.8509 90.2832 74.5996 92.1875C75.3646 94.0755 76.6423 95.0195 78.4326 95.0195C80.1904 95.0195 81.46 94.0592 82.2412 92.1387C83.0225 90.2181 83.4131 87.0931 83.4131 82.7637C83.4131 78.3854 83.0143 75.2441 82.2168 73.3398C81.4355 71.4193 80.1742 70.459 78.4326 70.459C76.6585 70.459 75.389 71.4193 74.624 73.3398C73.859 75.2441 73.4766 78.3854 73.4766 82.7637ZM119.497 82.7637C119.497 88.9974 118.472 93.6117 116.421 96.6064C114.386 99.6012 111.245 101.099 106.997 101.099C102.879 101.099 99.7705 99.5524 97.6709 96.46C95.5876 93.3675 94.5459 88.8021 94.5459 82.7637C94.5459 76.4648 95.5632 71.8262 97.5977 68.8477C99.6322 65.8529 102.765 64.3555 106.997 64.3555C111.115 64.3555 114.224 65.918 116.323 69.043C118.439 72.168 119.497 76.7415 119.497 82.7637ZM102.041 82.7637C102.041 87.1419 102.415 90.2832 103.164 92.1875C103.929 94.0755 105.207 95.0195 106.997 95.0195C108.755 95.0195 110.024 94.0592 110.806 92.1387C111.587 90.2181 111.978 87.0931 111.978 82.7637C111.978 78.3854 111.579 75.2441 110.781 73.3398C110 71.4193 108.739 70.459 106.997 70.459C105.223 70.459 103.953 71.4193 103.188 73.3398C102.424 75.2441 102.041 78.3854 102.041 82.7637Z" fill="#00A023"/>
</svg>
