<svg width="162" height="221" viewBox="0 0 162 221" fill="none" xmlns="http://www.w3.org/2000/svg">
<path d="M151.216 213.707L127.365 193.78L111.062 220.5L86.1541 70.5996L126.309 63.9575L151.216 213.707Z" fill="#ED1C24"/>
<path d="M5.69482 206.31L31.6594 188.95L44.9436 217.027L85.2491 70.5994L45.8493 59.7305L5.69482 206.31Z" fill="#ED1C24"/>
<path d="M21.9971 147.135C32.4131 156.343 44.9425 163.287 58.8305 166.91L85.248 70.5998L45.9992 59.8818L21.9971 147.135Z" fill="#ED1C24"/>
<path d="M126.309 63.9575L86.1541 70.5996L102.306 167.061C116.647 163.589 129.63 156.494 140.197 146.984L126.309 63.9575Z" fill="#ED1C24"/>
<path d="M80.9998 161.61C125.52 161.61 161.61 125.52 161.61 80.9998C161.61 36.48 125.52 0.389648 80.9998 0.389648C36.48 0.389648 0.389648 36.48 0.389648 80.9998C0.389648 125.52 36.48 161.61 80.9998 161.61Z" fill="#FFCF03"/>
<path d="M136.724 22.7461C150.612 37.2379 159.066 56.8623 159.066 78.4492C159.066 122.981 122.987 159.06 78.4548 159.06C56.868 159.06 37.2436 150.607 22.7517 136.718C37.3945 152.116 58.2266 161.626 81.172 161.626C125.704 161.626 161.783 125.548 161.783 81.0154C161.632 58.07 152.122 37.3889 136.724 22.7461Z" fill="#FFA506"/>
<path d="M130.686 81.0156C130.686 86.1481 126.157 90.5259 124.647 95.2056C123.138 100.036 124.195 106.225 121.175 110.301C118.156 114.377 111.967 115.283 107.891 118.151C103.815 121.019 101.098 126.756 96.2675 128.265C91.5879 129.775 86.0025 126.906 80.87 126.906C75.7374 126.906 70.152 129.775 65.4724 128.265C60.6417 126.756 57.9245 121.019 53.8487 118.151C49.7728 115.132 43.5836 114.377 40.5645 110.301C37.6963 106.225 38.753 100.036 37.0925 95.2056C35.5829 90.5259 31.0542 86.1481 31.0542 81.0156C31.0542 75.8831 35.5829 71.5053 37.0925 66.8257C38.602 61.9951 37.5453 55.8058 40.5645 51.73C43.5836 47.6542 49.7728 46.7484 53.8487 43.8802C57.9245 41.0121 60.6417 35.2757 65.4724 33.7661C70.152 32.2566 75.7374 35.1247 80.87 35.1247C86.0025 35.1247 91.5879 32.2566 96.2675 33.7661C101.098 35.2757 103.815 41.0121 107.891 43.8802C111.967 46.8994 118.156 47.6542 121.175 51.73C124.044 55.8058 122.987 61.9951 124.647 66.8257C126.157 71.5053 130.686 75.8831 130.686 81.0156Z" fill="#FFEC03"/>
<path d="M88.1147 124.34C81.9255 122.982 80.114 122.982 73.9248 124.34C71.8114 124.793 68.7923 125.548 66.8298 124.944C63.3578 123.737 60.4896 118.453 56.2628 115.283C52.036 112.113 45.9978 111.056 43.8844 108.188C41.771 105.32 42.6767 99.2816 41.0162 94.149C40.2614 91.8847 39.0538 89.9222 37.9971 88.1108C34.2231 81.7706 34.2231 80.5629 37.9971 74.2227C39.2047 72.2603 40.2614 70.2979 41.0162 68.1845C42.6767 63.0519 41.771 57.0137 43.8844 54.1455C45.9978 51.2773 52.036 50.2206 56.2628 47.0505C60.4896 43.8804 63.3578 38.5969 66.8298 37.3893C68.7923 36.7854 71.8114 37.5402 73.9248 37.9931C80.114 39.3517 81.9255 39.3517 88.1147 37.9931C90.3791 37.5402 93.2473 36.7854 95.2097 37.3893C98.6817 38.5969 101.55 43.8804 105.777 47.0505C110.154 50.2206 116.042 51.2773 118.155 54.1455C120.269 57.0137 119.363 63.0519 121.023 68.1845C121.778 70.4488 122.986 72.4112 124.042 74.2227C127.816 80.5629 127.816 81.7706 124.042 88.1108C121.023 93.2433 120.419 94.9038 119.816 101.093C119.061 108.339 118.608 109.094 111.815 112.113C109.702 113.019 107.588 113.924 105.626 115.434C101.399 118.604 98.5308 123.888 95.0588 125.095C94.7568 125.095 90.3791 124.793 88.1147 124.34Z" fill="#FFDC01"/>
<path d="M68.7953 134.907C71.9654 137.473 72.8711 141.7 72.8711 141.7C72.8711 141.7 68.4934 141.851 65.3233 139.285C62.1532 136.719 61.2474 132.492 61.2474 132.492C61.2474 132.492 65.4742 132.341 68.7953 134.907Z" fill="#FFAA2E"/>
<path d="M64.8698 141.549C68.7946 140.191 72.8705 141.7 72.8705 141.7C72.8705 141.7 70.6061 145.474 66.6812 146.833C62.7564 148.192 58.6805 146.682 58.6805 146.682C58.6805 146.682 60.9449 142.908 64.8698 141.549Z" fill="#FFAA2E"/>
<path d="M56.1152 131.435C58.9834 134.454 59.2853 138.681 59.2853 138.681C59.2853 138.681 54.9075 138.228 52.0394 135.209C49.1712 132.19 48.8693 127.963 48.8693 127.963C48.8693 127.963 53.247 128.567 56.1152 131.435Z" fill="#FFAA2E"/>
<path d="M51.2841 137.473C55.36 136.718 59.1339 138.681 59.1339 138.681C59.1339 138.681 56.4167 142.002 52.3408 142.908C48.265 143.662 44.4911 141.7 44.4911 141.7C44.4911 141.7 47.2083 138.379 51.2841 137.473Z" fill="#FFAA2E"/>
<path d="M46.1517 126.604C48.4161 129.925 48.1142 134.303 48.1142 134.303C48.1142 134.303 43.8874 133.096 41.623 129.774C39.3587 126.453 39.6606 122.076 39.6606 122.076C39.6606 122.076 43.8874 123.132 46.1517 126.604Z" fill="#FFAA2E"/>
<path d="M40.4158 131.737C44.4916 131.586 47.9636 134.152 47.9636 134.152C47.9636 134.152 44.7936 137.02 40.5668 137.171C36.4909 137.322 33.0189 134.756 33.0189 134.756C33.0189 134.756 36.34 131.888 40.4158 131.737Z" fill="#FFAA2E"/>
<path d="M36.9427 119.056C38.4523 122.83 36.9427 126.906 36.9427 126.906C36.9427 126.906 33.1688 124.793 31.6592 121.019C30.1496 117.245 31.6592 113.169 31.6592 113.169C31.6592 113.169 35.4331 115.282 36.9427 119.056Z" fill="#FFAA2E"/>
<path d="M30.0003 122.831C34.0761 123.585 36.7933 127.057 36.7933 127.057C36.7933 127.057 32.8684 129.171 28.9436 128.265C24.8677 127.51 22.1505 124.038 22.1505 124.038C22.1505 124.038 26.0754 121.925 30.0003 122.831Z" fill="#FFAA2E"/>
<path d="M29.8489 110.452C30.3017 114.528 27.8864 118.151 27.8864 118.151C27.8864 118.151 24.7163 115.131 24.2635 111.207C23.8106 107.131 26.2259 103.508 26.2259 103.508C26.2259 103.508 29.396 106.376 29.8489 110.452Z" fill="#FFAA2E"/>
<path d="M22.3005 112.414C26.0744 114.226 27.8859 118 27.8859 118C27.8859 118 23.6591 119.056 19.8852 117.396C16.1113 115.584 14.2998 111.81 14.2998 111.81C14.2998 111.81 18.6776 110.603 22.3005 112.414Z" fill="#FFAA2E"/>
<path d="M23.8103 99.4316C23.5083 103.507 20.3383 106.527 20.3383 106.527C20.3383 106.527 17.772 103.055 18.2249 98.9788C18.5268 94.9029 21.6969 91.8838 21.6969 91.8838C21.6969 91.8838 24.2631 95.3558 23.8103 99.4316Z" fill="#FFAA2E"/>
<path d="M16.1127 100.035C19.4338 102.451 20.4905 106.677 20.4905 106.677C20.4905 106.677 16.1127 106.979 12.7917 104.564C9.47064 102.149 8.41394 97.9219 8.41394 97.9219C8.41394 97.9219 12.7917 97.4691 16.1127 100.035Z" fill="#FFAA2E"/>
<path d="M20.7913 89.0153C19.7346 92.9402 16.2626 95.5064 16.2626 95.5064C16.2626 95.5064 14.3002 91.5815 15.3569 87.6567C16.4136 83.7318 19.8856 81.1655 19.8856 81.1655C19.8856 81.1655 21.848 85.0904 20.7913 89.0153Z" fill="#FFAA2E"/>
<path d="M13.0928 88.4119C15.961 91.28 16.2629 95.6578 16.2629 95.6578C16.2629 95.6578 11.8852 95.2049 9.01702 92.3367C6.14884 89.4686 5.84692 85.0908 5.84692 85.0908C5.84692 85.0908 10.2247 85.3927 13.0928 88.4119Z" fill="#FFAA2E"/>
<path d="M20.4895 77.5426C18.5271 81.1656 14.4512 82.8261 14.4512 82.8261C14.4512 82.8261 13.5455 78.5993 15.5079 74.9764C17.4704 71.3534 21.5462 69.6929 21.5462 69.6929C21.5462 69.6929 22.4519 73.9197 20.4895 77.5426Z" fill="#FFAA2E"/>
<path d="M13.0932 74.9767C15.2066 78.4487 14.4518 82.6755 14.4518 82.6755C14.4518 82.6755 10.376 81.1659 8.2626 77.6939C6.14921 74.2219 6.90399 69.9951 6.90399 69.9951C6.90399 69.9951 10.9798 71.3537 13.0932 74.9767Z" fill="#FFAA2E"/>
<path d="M22.4519 65.768C19.7347 68.7871 15.3569 69.3909 15.3569 69.3909C15.3569 69.3909 15.5079 65.0132 18.2251 61.9941C20.9423 58.9749 25.3201 58.3711 25.3201 58.3711C25.3201 58.3711 25.3201 62.7488 22.4519 65.768Z" fill="#FFAA2E"/>
<path d="M15.9613 61.5414C17.1689 65.4662 15.3574 69.3911 15.3574 69.3911C15.3574 69.3911 11.7345 66.9758 10.5268 63.0509C9.31917 59.1261 11.1306 55.2012 11.1306 55.2012C11.1306 55.2012 14.9046 57.6165 15.9613 61.5414Z" fill="#FFAA2E"/>
<path d="M26.8298 56.1078C23.5087 58.5231 19.131 58.0703 19.131 58.0703C19.131 58.0703 20.1877 53.8435 23.6597 51.5791C26.9807 49.1638 31.3585 49.6167 31.3585 49.6167C31.3585 49.6167 30.1508 53.8435 26.8298 56.1078Z" fill="#FFAA2E"/>
<path d="M21.3958 50.6732C21.6977 54.749 18.9805 58.221 18.9805 58.221C18.9805 58.221 15.9613 55.0509 15.6594 50.9751C15.3575 46.8993 18.0747 43.4272 18.0747 43.4272C18.0747 43.4272 21.0938 46.5973 21.3958 50.6732Z" fill="#FFAA2E"/>
<path d="M32.1125 47.5027C28.3386 49.3142 24.1118 48.2575 24.1118 48.2575C24.1118 48.2575 25.9233 44.3326 29.5463 42.5211C33.3202 40.7096 37.547 41.7663 37.547 41.7663C37.547 41.7663 35.7355 45.6912 32.1125 47.5027Z" fill="#FFAA2E"/>
<path d="M27.5857 41.1626C27.1328 45.2384 23.9628 48.2576 23.9628 48.2576C23.9628 48.2576 21.5474 44.6346 21.8494 40.7097C22.3022 36.6339 25.4723 33.6147 25.4723 33.6147C25.4723 33.6147 28.0386 37.0868 27.5857 41.1626Z" fill="#FFAA2E"/>
<path d="M91.1377 134.303C87.9676 136.869 87.0619 141.096 87.0619 141.096C87.0619 141.096 91.4396 141.247 94.6097 138.68C97.7798 136.114 98.6856 131.887 98.6856 131.887C98.6856 131.887 94.4588 131.736 91.1377 134.303Z" fill="#FFAA2E"/>
<path d="M95.063 140.945C91.1381 139.587 87.0623 141.096 87.0623 141.096C87.0623 141.096 89.3266 144.87 93.2515 146.229C97.1764 147.588 101.252 146.078 101.252 146.078C101.252 146.078 98.9878 142.304 95.063 140.945Z" fill="#FFAA2E"/>
<path d="M102.157 131.435C99.2892 134.454 98.9873 138.681 98.9873 138.681C98.9873 138.681 103.365 138.228 106.233 135.209C109.101 132.19 109.403 127.963 109.403 127.963C109.403 127.963 105.026 128.567 102.157 131.435Z" fill="#FFAA2E"/>
<path d="M106.988 137.473C102.912 136.718 99.1382 138.681 99.1382 138.681C99.1382 138.681 101.855 142.002 105.931 142.908C110.007 143.662 113.781 141.7 113.781 141.7C113.781 141.7 111.064 138.379 106.988 137.473Z" fill="#FFAA2E"/>
<path d="M112.12 126.152C109.856 129.473 110.158 133.851 110.158 133.851C110.158 133.851 114.385 132.643 116.649 129.322C118.914 126.001 118.612 121.623 118.612 121.623C118.612 121.623 114.536 122.831 112.12 126.152Z" fill="#FFAA2E"/>
<path d="M117.856 131.284C113.78 131.133 110.308 133.699 110.308 133.699C110.308 133.699 113.479 136.567 117.705 136.718C121.781 136.869 125.253 134.303 125.253 134.303C125.253 134.303 121.932 131.586 117.856 131.284Z" fill="#FFAA2E"/>
<path d="M121.027 118.905C119.517 122.679 121.027 126.755 121.027 126.755C121.027 126.755 124.801 124.641 126.31 120.867C127.82 117.093 126.31 113.018 126.31 113.018C126.31 113.018 122.536 114.98 121.027 118.905Z" fill="#FFAA2E"/>
<path d="M127.971 122.528C123.895 123.283 121.178 126.755 121.178 126.755C121.178 126.755 125.103 128.868 129.028 127.963C133.104 127.208 135.821 123.736 135.821 123.736C135.821 123.736 132.047 121.773 127.971 122.528Z" fill="#FFAA2E"/>
<path d="M128.575 109.546C128.122 113.622 130.537 117.245 130.537 117.245C130.537 117.245 133.707 114.226 134.16 110.301C134.613 106.225 132.198 102.602 132.198 102.602C132.198 102.602 129.027 105.621 128.575 109.546Z" fill="#FFAA2E"/>
<path d="M135.972 111.66C132.198 113.471 130.386 117.245 130.386 117.245C130.386 117.245 134.613 118.302 138.387 116.641C142.161 114.83 143.972 111.056 143.972 111.056C143.972 111.056 139.745 109.848 135.972 111.66Z" fill="#FFAA2E"/>
<path d="M133.858 99.2817C134.16 103.358 137.33 106.377 137.33 106.377C137.33 106.377 139.896 102.905 139.443 98.8289C139.141 94.753 135.971 91.7339 135.971 91.7339C135.971 91.7339 133.405 95.2059 133.858 99.2817Z" fill="#FFAA2E"/>
<path d="M141.556 99.7344C138.235 102.15 137.178 106.376 137.178 106.376C137.178 106.376 141.556 106.678 144.877 104.263C148.198 101.848 149.255 97.621 149.255 97.621C149.255 97.621 144.877 97.3191 141.556 99.7344Z" fill="#FFAA2E"/>
<path d="M136.876 88.8654C137.933 92.7903 141.405 95.3565 141.405 95.3565C141.405 95.3565 143.367 91.4317 142.311 87.5068C141.254 83.5819 137.782 81.0156 137.782 81.0156C137.782 81.0156 135.971 84.9405 136.876 88.8654Z" fill="#FFAA2E"/>
<path d="M144.574 88.1106C141.706 90.9788 141.404 95.3565 141.404 95.3565C141.404 95.3565 145.782 94.9037 148.65 92.0355C151.519 89.1673 151.82 84.7896 151.82 84.7896C151.82 84.7896 147.594 85.2424 144.574 88.1106Z" fill="#FFAA2E"/>
<path d="M137.179 77.6945C139.142 81.3174 143.218 82.978 143.218 82.978C143.218 82.978 144.123 78.7512 142.161 75.1282C140.199 71.5053 136.123 69.8447 136.123 69.8447C136.123 69.8447 135.217 74.0715 137.179 77.6945Z" fill="#FFAA2E"/>
<path d="M144.575 75.1286C142.461 78.6006 143.216 82.8273 143.216 82.8273C143.216 82.8273 147.292 81.3178 149.405 77.8458C151.519 74.3738 150.764 70.147 150.764 70.147C150.764 70.147 146.537 71.5056 144.575 75.1286Z" fill="#FFAA2E"/>
<path d="M135.066 65.9203C137.783 68.9394 142.161 69.5433 142.161 69.5433C142.161 69.5433 142.01 65.1655 139.292 62.1464C136.575 59.1273 132.197 58.5234 132.197 58.5234C132.197 58.5234 132.197 62.9012 135.066 65.9203Z" fill="#FFAA2E"/>
<path d="M141.556 61.6932C140.349 65.6181 142.16 69.543 142.16 69.543C142.16 69.543 145.783 67.1277 146.991 63.2028C148.198 59.2779 146.387 55.353 146.387 55.353C146.387 55.353 142.764 57.9193 141.556 61.6932Z" fill="#FFAA2E"/>
<path d="M130.839 56.4096C134.16 58.8249 138.537 58.372 138.537 58.372C138.537 58.372 137.481 54.1452 134.009 51.8809C130.688 49.4656 126.31 49.9184 126.31 49.9184C126.31 49.9184 127.518 54.1452 130.839 56.4096Z" fill="#FFAA2E"/>
<path d="M136.275 50.9754C135.973 55.0513 138.69 58.5233 138.69 58.5233C138.69 58.5233 141.709 55.3532 142.011 51.2773C142.313 47.2015 139.596 43.7295 139.596 43.7295C139.596 43.7295 136.577 46.8996 136.275 50.9754Z" fill="#FFAA2E"/>
<path d="M125.253 47.8049C129.027 49.6164 133.254 48.5597 133.254 48.5597C133.254 48.5597 131.442 44.6349 127.819 42.8234C124.046 41.0119 119.819 42.0686 119.819 42.0686C119.819 42.0686 121.63 45.9935 125.253 47.8049Z" fill="#FFAA2E"/>
<path d="M129.783 41.4648C130.235 45.5407 133.406 48.5598 133.406 48.5598C133.406 48.5598 135.821 44.9368 135.519 41.012C135.066 36.9361 131.896 33.917 131.896 33.917C131.896 33.917 129.33 37.54 129.783 41.4648Z" fill="#FFAA2E"/>
<path d="M122.235 35.4268C122.084 35.5777 121.933 35.7287 121.631 35.8796L121.48 36.0306C134.463 47.0504 142.614 63.0519 142.614 80.8648C142.614 114.075 113.933 141.247 78.7597 141.247C43.5868 141.247 14.905 114.226 14.905 80.8648C14.905 63.8066 22.3019 48.56 34.3784 37.5402C34.0765 37.3892 33.6236 37.2382 33.3217 37.0873C21.2452 48.2581 13.8483 63.6557 13.8483 80.8648C13.8483 114.679 42.9829 142.153 78.7597 142.153C114.536 142.153 143.671 114.679 143.671 80.8648C143.671 62.9009 135.369 46.5976 122.235 35.4268Z" fill="#FF9912"/>
<path d="M40.719 39.8041C36.6432 40.7099 32.8693 38.5965 32.8693 38.5965C32.8693 38.5965 35.5865 35.1245 39.6623 34.3697C43.7381 33.464 47.5121 35.5773 47.5121 35.5773C47.5121 35.5773 44.6439 38.8984 40.719 39.8041Z" fill="#FFAA2E"/>
<path d="M38.0015 32.5582C36.6429 36.3322 32.869 38.5965 32.869 38.5965C32.869 38.5965 31.3594 34.5207 32.718 30.7468C34.0766 26.9728 37.8506 24.7085 37.8506 24.7085C37.8506 24.7085 39.3601 28.7843 38.0015 32.5582Z" fill="#FFAA2E"/>
<path d="M117.102 39.8041C121.178 40.7099 124.952 38.5965 124.952 38.5965C124.952 38.5965 122.234 35.1245 118.158 34.3697C114.083 33.464 110.309 35.5773 110.309 35.5773C110.309 35.5773 113.026 38.8984 117.102 39.8041Z" fill="#FFAA2E"/>
<path d="M119.819 32.5582C121.178 36.3322 124.952 38.5965 124.952 38.5965C124.952 38.5965 126.462 34.5207 125.103 30.7468C123.744 26.9728 119.97 24.7085 119.97 24.7085C119.97 24.7085 118.461 28.7843 119.819 32.5582Z" fill="#FFAA2E"/>
<path d="M65.7758 26.6712L60.1904 25.0107L55.2088 27.8788L55.0579 22.1425L50.8311 18.0667L56.2655 16.1042L58.6808 10.9717L62.1528 15.5004L67.8892 16.2552L64.7191 20.9348L65.7758 26.6712Z" fill="#FFEC03"/>
<path d="M102.458 27.1239L107.289 30.4449L108.043 24.7086L112.572 21.0856L107.44 18.6703L105.477 13.2358L101.552 17.4626L95.665 17.6136L98.5332 22.5952L96.8727 28.1806L102.458 27.1239Z" fill="#FFEC03"/>
<path d="M86.4567 25.9163L81.1732 23.501L75.7388 25.4634L76.4936 19.7271L72.8706 15.1983L78.607 13.9907L81.7771 9.31104L84.6452 14.2926L90.0797 15.9531L86.1548 20.1799L86.4567 25.9163Z" fill="#FFEC03"/>
<path d="M67.2577 98H44.8016V93.2759L52.8656 85.124C55.2533 82.6777 56.8134 80.9858 57.5458 80.0483C58.2782 79.0962 58.8055 78.2173 59.1278 77.4116C59.4501 76.606 59.6112 75.771 59.6112 74.9067C59.6112 73.6177 59.2523 72.6582 58.5345 72.0283C57.8314 71.3984 56.8866 71.0835 55.7001 71.0835C54.455 71.0835 53.2465 71.3691 52.0746 71.9404C50.9027 72.5117 49.6796 73.3247 48.4052 74.3794L44.7137 70.0068C46.2958 68.6592 47.6068 67.707 48.6469 67.1504C49.6869 66.5938 50.8221 66.1689 52.0526 65.876C53.2831 65.5684 54.66 65.4146 56.1835 65.4146C58.1903 65.4146 59.9628 65.7808 61.5009 66.5132C63.0389 67.2456 64.2328 68.271 65.0824 69.5894C65.932 70.9077 66.3568 72.4165 66.3568 74.1157C66.3568 75.5952 66.0931 76.9868 65.5658 78.2905C65.0531 79.5796 64.2474 80.9053 63.1488 82.2676C62.0648 83.6299 60.1459 85.5708 57.392 88.0903L53.2611 91.9795V92.2871H67.2577V98ZM82.1991 77.4775C85.3046 77.4775 87.7728 78.3491 89.6039 80.0923C91.4496 81.8354 92.3724 84.2231 92.3724 87.2554C92.3724 90.8442 91.2665 93.6055 89.0546 95.5391C86.8427 97.4727 83.6786 98.4395 79.5624 98.4395C75.9882 98.4395 73.1024 97.8608 70.9052 96.7036V90.8369C72.0624 91.4521 73.41 91.9575 74.9481 92.353C76.4862 92.7339 77.9437 92.9243 79.3207 92.9243C83.4662 92.9243 85.5389 91.2251 85.5389 87.8267C85.5389 84.5894 83.3929 82.9707 79.101 82.9707C78.3246 82.9707 77.4677 83.0513 76.5302 83.2124C75.5927 83.3589 74.8309 83.52 74.245 83.6958L71.5424 82.2456L72.7509 65.876H90.1752V71.6328H78.7054L78.1122 77.939L78.8812 77.7852C79.7748 77.5801 80.8807 77.4775 82.1991 77.4775ZM118.498 81.938C118.498 87.5483 117.575 91.7012 115.729 94.3965C113.898 97.0918 111.071 98.4395 107.248 98.4395C103.542 98.4395 100.744 97.0479 98.8544 94.2646C96.9794 91.4814 96.0419 87.3726 96.0419 81.938C96.0419 76.269 96.9574 72.0942 98.7885 69.4136C100.62 66.7183 103.439 65.3706 107.248 65.3706C110.954 65.3706 113.752 66.7769 115.641 69.5894C117.546 72.4019 118.498 76.5181 118.498 81.938ZM102.787 81.938C102.787 85.8784 103.124 88.7056 103.798 90.4194C104.487 92.1187 105.637 92.9683 107.248 92.9683C108.83 92.9683 109.973 92.104 110.676 90.3755C111.379 88.647 111.73 85.8345 111.73 81.938C111.73 77.9976 111.371 75.1704 110.654 73.4565C109.951 71.728 108.815 70.8638 107.248 70.8638C105.651 70.8638 104.509 71.728 103.82 73.4565C103.132 75.1704 102.787 77.9976 102.787 81.938Z" fill="#ED1C24"/>
</svg>
