<svg width="99" height="191" viewBox="0 0 99 191" fill="none" xmlns="http://www.w3.org/2000/svg">
<path d="M52.1839 69.7944H46.8152V102.479H52.1839V69.7944Z" fill="#FFB10F"/>
<path d="M58.1117 106.216H40.9316C40.9316 104.155 42.6067 102.437 44.7112 102.437H54.3321C56.4366 102.479 58.1117 104.155 58.1117 106.216Z" fill="#FFDC01"/>
<path d="M87.532 175.709H11.5103L15.8053 109.953H83.6664L87.532 175.709Z" fill="url(#paint0_linear)"/>
<path d="M84.5263 106.216H14.5176V109.953H84.5263V106.216Z" fill="#FFB10F"/>
<path d="M94.4907 186.103H4.51025V179.145C4.51025 177.255 6.05646 175.709 7.94626 175.709H91.0547C92.9445 175.709 94.4907 177.255 94.4907 179.145V186.103Z" fill="#FFB10F"/>
<path d="M91.0542 175.709H76.3652C78.255 175.709 79.8012 177.255 79.8012 179.145V186.103H94.4902V179.145C94.4902 177.255 92.9869 175.709 91.0542 175.709Z" fill="#FFA30F"/>
<path d="M99 186.018H0V190.098H99V186.018Z" fill="#D67205"/>
<path d="M99 188.809H0V190.055H99V188.809Z" fill="#BD6504"/>
<path d="M46.8152 77.3107L49.9076 76.0222L52.1839 76.9671V69.7944H46.8152V77.3107Z" fill="#E09C0D"/>
<path d="M76.3656 82.0356L49.8653 71.384L23.5369 82.4651L25.4267 53.9892L6.78638 32.3423L34.4892 25.3844L49.264 0.945801L64.4684 25.1267L92.2571 31.6551L73.9604 53.5597L76.3656 82.0356Z" fill="#FFDC01"/>
<path d="M27.7031 80.7036C42.7356 64.1249 52.6571 37.4099 53.1725 7.13011L49.264 0.902344L34.4892 25.341L6.78638 32.3418L25.4697 53.9457L23.5369 82.4217L27.7031 80.7036Z" fill="#FFDC01"/>
<path d="M49.178 64.0819L37.0232 47.1167C36.8943 46.9449 36.9373 46.6442 37.1091 46.5153C37.2809 46.3865 37.5815 46.4295 37.7104 46.6013L49.8652 63.5665C49.9941 63.7383 49.9511 64.039 49.7793 64.1678C49.5646 64.2967 49.3069 64.2537 49.178 64.0819Z" fill="#FFF8A4"/>
<path d="M61.934 70.0521L34.8755 33.9311C34.7466 33.7593 34.7896 33.4587 34.9614 33.3298C35.1332 33.201 35.4338 33.2439 35.5626 33.4157L62.6212 69.5367C62.7501 69.7085 62.7071 70.0092 62.5353 70.138C62.3206 70.2669 62.0629 70.2239 61.934 70.0521Z" fill="#FFF8A4"/>
<path d="M70.6108 73.7887L43.0798 34.747C42.9509 34.5752 42.9939 34.2746 43.1657 34.1457C43.3375 34.0169 43.6382 34.0598 43.767 34.2316L71.298 73.2733C71.4269 73.4451 71.3839 73.7457 71.2121 73.8746C70.9974 74.0464 70.7397 74.0034 70.6108 73.7887Z" fill="#FFF8A4"/>
<path d="M63.0077 50.338L44.3244 23.7089C44.1956 23.5371 44.2385 23.2365 44.4103 23.1076C44.5821 22.9788 44.8828 23.0217 45.0116 23.1935L63.6949 49.8226C63.8238 49.9944 63.7808 50.2951 63.609 50.4239C63.3943 50.5528 63.1366 50.5098 63.0077 50.338Z" fill="#FFF8A4"/>
<path d="M61.9343 36.4653L55.1482 26.372C55.0193 26.1573 55.0623 25.8996 55.277 25.7707C55.4918 25.6419 55.7494 25.6848 55.8783 25.8996L62.6644 35.9928C62.7933 36.2076 62.7503 36.4653 62.5356 36.5941C62.3208 36.723 62.0631 36.68 61.9343 36.4653Z" fill="#FFF8A4"/>
<path d="M68.162 145.687H35.7347C35.7347 146.89 34.7898 147.835 33.5872 147.835V163.468C34.7898 163.468 35.7347 164.413 35.7347 165.616H68.162C68.162 164.413 69.1069 163.468 70.3095 163.468V147.792C69.1498 147.835 68.162 146.847 68.162 145.687Z" fill="#FFCC00"/>
<path d="M35.7358 145.688C35.7358 145.73 35.7358 145.816 35.7358 145.859L51.4126 165.659H53.6031L37.7545 145.688H35.7358Z" fill="#F9C569"/>
<path d="M33.5881 147.835V148.909L46.8597 165.659H47.9764L33.8458 147.835C33.7599 147.792 33.674 147.835 33.5881 147.835Z" fill="#F9C569"/>
<path d="M41.8774 145.688L57.6831 165.616H58.7998L42.9512 145.688H41.8774Z" fill="#F9C569"/>
<path d="M46.0864 145.688L61.8921 165.616H63.5671L47.7185 145.688H46.0864Z" fill="#F9C569"/>
<path d="M73.445 178.501H63.5665C63.0081 178.501 63.0081 177.642 63.5665 177.642H73.445C73.7027 177.642 73.8745 177.814 73.8745 178.072C73.8745 178.329 73.6597 178.501 73.445 178.501Z" fill="#F9C569"/>
<path d="M59.0129 178.501H50.337C49.7786 178.501 49.7786 177.642 50.337 177.642H59.0129C59.2706 177.642 59.4424 177.814 59.4424 178.072C59.4424 178.329 59.2706 178.501 59.0129 178.501Z" fill="#F9C569"/>
<path d="M46.0856 178.501H8.59015C8.0318 178.501 8.0318 177.642 8.59015 177.642H46.0856C46.3433 177.642 46.5151 177.814 46.5151 178.072C46.5151 178.329 46.3003 178.501 46.0856 178.501Z" fill="#F9C569"/>
<path d="M50.208 42.0996C53.6585 42.0996 56.401 43.068 58.4355 45.0049C60.4863 46.9417 61.5117 49.5947 61.5117 52.9639C61.5117 56.9515 60.2829 60.0195 57.8252 62.168C55.3675 64.3164 51.8519 65.3906 47.2783 65.3906C43.307 65.3906 40.1006 64.7477 37.6592 63.4619V56.9434C38.945 57.627 40.4424 58.1885 42.1514 58.6279C43.8604 59.0511 45.4798 59.2627 47.0098 59.2627C51.6159 59.2627 53.9189 57.3747 53.9189 53.5986C53.9189 50.0016 51.5345 48.2031 46.7656 48.2031C45.903 48.2031 44.9508 48.2926 43.9092 48.4717C42.8675 48.6344 42.0212 48.8135 41.3701 49.0088L38.3672 47.3975L39.71 29.209H59.0703V35.6055H46.3262L45.667 42.6123L46.5215 42.4414C47.5143 42.2135 48.7432 42.0996 50.208 42.0996Z" fill="#CB5F00"/>
<defs>
<linearGradient id="paint0_linear" x1="44.5564" y1="100.653" x2="45.2389" y2="185.007" gradientUnits="userSpaceOnUse">
<stop stop-color="#D91B24"/>
<stop offset="1" stop-color="#393C5A"/>
</linearGradient>
</defs>
</svg>
