<svg width="132" height="245" viewBox="0 0 132 245" fill="none" xmlns="http://www.w3.org/2000/svg">
<path d="M70.0904 106.381H63.9082V144.042H70.0904V106.381Z" fill="#FFB10F"/>
<path d="M76.9169 148.347H57.1338C57.1338 145.972 59.0626 143.992 61.4861 143.992H72.5646C74.988 144.042 76.9169 145.972 76.9169 148.347Z" fill="#FFDC01"/>
<path d="M110.794 228.421H23.2539L28.1997 152.653H106.343L110.794 228.421Z" fill="url(#paint0_linear)"/>
<path d="M107.333 148.348H26.7168V152.653H107.333V148.348Z" fill="#FFB10F"/>
<path d="M118.807 240.397H15.1934V232.38C15.1934 230.203 16.9738 228.421 19.15 228.421H114.851C117.027 228.421 118.807 230.203 118.807 232.38V240.397Z" fill="#FFB10F"/>
<path d="M114.85 228.421H97.9355C100.112 228.421 101.892 230.203 101.892 232.38V240.397H118.807V232.38C118.807 230.203 117.076 228.421 114.85 228.421Z" fill="#FFA30F"/>
<path d="M124 240.298H10V245H124V240.298Z" fill="#D67205"/>
<path d="M124 243.515H10V244.95H124V243.515Z" fill="#BD6504"/>
<path d="M63.9082 115.041L67.4692 113.557L70.0904 114.646V106.381H63.9082V115.041Z" fill="#E09C0D"/>
<path d="M107.643 124.341L67.0266 108.008L26.6734 125L29.5699 81.3356L1 48.1428L43.4598 37.4737L66.105 0L89.4085 37.0785L132 47.089L103.957 80.677L107.643 124.341Z" fill="#FFDC01"/>
<path d="M32.4667 122.366C55.8 96.9442 71.2 55.98 72 9.54953L65.9333 0L43 37.4737L0 48.2086L29 81.3356L26 125L32.4667 122.366Z" fill="#FFDC01"/>
<path d="M66.1044 96.7282L47.4373 70.6569C47.2394 70.3928 47.3054 69.9308 47.5693 69.7328C47.8331 69.5348 48.2948 69.6008 48.4927 69.8648L67.1598 95.9362C67.3577 96.2002 67.2917 96.6622 67.0279 96.8603C66.6981 97.0583 66.3023 96.9923 66.1044 96.7282Z" fill="#FFF8A4"/>
<path d="M85.6942 105.903L44.1385 50.3937C43.9406 50.1297 44.0066 49.6676 44.2704 49.4696C44.5343 49.2716 44.996 49.3376 45.1939 49.6016L86.7496 105.111C86.9475 105.375 86.8815 105.837 86.6177 106.035C86.2879 106.233 85.8921 106.167 85.6942 105.903Z" fill="#FFF8A4"/>
<path d="M99.0195 111.645L56.7381 51.6476C56.5402 51.3836 56.6062 50.9215 56.87 50.7235C57.1339 50.5255 57.5956 50.5915 57.7935 50.8555L100.075 110.853C100.273 111.117 100.207 111.579 99.9429 111.777C99.6131 112.041 99.2173 111.975 99.0195 111.645Z" fill="#FFF8A4"/>
<path d="M87.3435 75.6069L58.6502 34.6847C58.4523 34.4207 58.5183 33.9586 58.7821 33.7606C59.046 33.5626 59.5077 33.6286 59.7056 33.8926L88.3988 74.8148C88.5967 75.0788 88.5308 75.5409 88.2669 75.7389C87.9371 75.9369 87.5414 75.8709 87.3435 75.6069Z" fill="#FFF8A4"/>
<path d="M88.4892 193.828H51.1487C51.1487 195.214 50.0606 196.303 48.6758 196.303V214.317C50.0606 214.317 51.1487 215.405 51.1487 216.791H88.4892C88.4892 215.405 89.5773 214.317 90.9621 214.317V196.253C89.6268 196.303 88.4892 195.164 88.4892 193.828Z" fill="#FFCC00"/>
<path d="M51.1509 193.828C51.1509 193.878 51.1509 193.977 51.1509 194.026L69.2029 216.841H71.7253L53.4754 193.828H51.1509Z" fill="#F9C569"/>
<path d="M48.6777 196.303V197.54L63.9601 216.841H65.2461L48.9745 196.303C48.8756 196.253 48.7766 196.303 48.6777 196.303Z" fill="#F9C569"/>
<path d="M58.2229 193.828L76.4233 216.791H77.7092L59.4593 193.828H58.2229Z" fill="#F9C569"/>
<path d="M63.0696 193.828L81.27 216.791H83.1989L64.949 193.828H63.0696Z" fill="#F9C569"/>
<path d="M94.5723 231.638H83.1971C82.5541 231.638 82.5541 230.648 83.1971 230.648H94.5723C94.8691 230.648 95.0669 230.846 95.0669 231.143C95.0669 231.44 94.8196 231.638 94.5723 231.638Z" fill="#F9C569"/>
<path d="M77.9541 231.638H67.9637C67.3207 231.638 67.3207 230.648 67.9637 230.648H77.9541C78.2509 230.648 78.4487 230.846 78.4487 231.143C78.4487 231.44 78.2509 231.638 77.9541 231.638Z" fill="#F9C569"/>
<path d="M42.7539 81H38.2276V68.6074L38.2715 66.5713L38.3448 64.3447C37.5928 65.0967 37.0703 65.5898 36.7774 65.8242L34.3164 67.8018L32.1338 65.0771L39.0332 59.584H42.7539V81ZM63.5547 70.292C63.5547 74.0322 62.9395 76.8008 61.709 78.5977C60.4883 80.3945 58.6035 81.293 56.0547 81.293C53.584 81.293 51.7188 80.3652 50.459 78.5098C49.209 76.6543 48.584 73.915 48.584 70.292C48.584 66.5127 49.1944 63.7295 50.4151 61.9424C51.6358 60.1455 53.5157 59.2471 56.0547 59.2471C58.5254 59.2471 60.3907 60.1846 61.6504 62.0596C62.92 63.9346 63.5547 66.6787 63.5547 70.292ZM53.0811 70.292C53.0811 72.9189 53.3057 74.8037 53.7549 75.9463C54.2139 77.0791 54.9805 77.6455 56.0547 77.6455C57.1094 77.6455 57.8711 77.0693 58.3399 75.917C58.8086 74.7646 59.043 72.8896 59.043 70.292C59.043 67.665 58.8037 65.7803 58.3252 64.6377C57.8565 63.4854 57.0996 62.9092 56.0547 62.9092C54.9903 62.9092 54.2285 63.4854 53.7696 64.6377C53.3106 65.7803 53.0811 67.665 53.0811 70.292ZM80.6934 70.292C80.6934 74.0322 80.0782 76.8008 78.8477 78.5977C77.627 80.3945 75.7422 81.293 73.1934 81.293C70.7227 81.293 68.8575 80.3652 67.5977 78.5098C66.3477 76.6543 65.7227 73.915 65.7227 70.292C65.7227 66.5127 66.333 63.7295 67.5537 61.9424C68.7744 60.1455 70.6543 59.2471 73.1934 59.2471C75.6641 59.2471 77.5293 60.1846 78.7891 62.0596C80.0586 63.9346 80.6934 66.6787 80.6934 70.292ZM70.2198 70.292C70.2198 72.9189 70.4444 74.8037 70.8936 75.9463C71.3526 77.0791 72.1192 77.6455 73.1934 77.6455C74.2481 77.6455 75.0098 77.0693 75.4785 75.917C75.9473 74.7646 76.1817 72.8896 76.1817 70.292C76.1817 67.665 75.9424 65.7803 75.4639 64.6377C74.9951 63.4854 74.2383 62.9092 73.1934 62.9092C72.1289 62.9092 71.3672 63.4854 70.9082 64.6377C70.4492 65.7803 70.2198 67.665 70.2198 70.292ZM101.699 81H96.543L90.9326 71.9766L89.0137 73.3535V81H84.4727V59.584H89.0137V69.3838L90.8008 66.8643L96.6016 59.584H101.641L94.17 69.0615L101.699 81Z" fill="#CB5F00"/>
<defs>
<linearGradient id="paint0_linear" x1="61.3071" y1="141.937" x2="62.094" y2="239.134" gradientUnits="userSpaceOnUse">
<stop stop-color="#D91B24"/>
<stop offset="1" stop-color="#393C5A"/>
</linearGradient>
</defs>
</svg>
