<svg width="117" height="235" viewBox="0 0 117 235" fill="none" xmlns="http://www.w3.org/2000/svg">
<path d="M62.0904 96.3809H55.9082V134.042H62.0904V96.3809Z" fill="#FFB10F"/>
<path d="M68.9169 138.347H49.1338C49.1338 135.972 51.0626 133.992 53.4861 133.992H64.5646C66.988 134.042 68.9169 135.972 68.9169 138.347Z" fill="#FFDC01"/>
<path d="M102.794 218.421H15.2539L20.1997 142.653H98.3428L102.794 218.421Z" fill="url(#paint0_linear)"/>
<path d="M99.3328 138.348H18.7168V142.653H99.3328V138.348Z" fill="#FFB10F"/>
<path d="M110.807 230.397H7.19336V222.38C7.19336 220.203 8.97384 218.421 11.15 218.421H106.851C109.027 218.421 110.807 220.203 110.807 222.38V230.397Z" fill="#FFB10F"/>
<path d="M106.85 218.421H89.9355C92.1117 218.421 93.8922 220.203 93.8922 222.38V230.397H110.807V222.38C110.807 220.203 109.076 218.421 106.85 218.421Z" fill="#FFA30F"/>
<path d="M116 230.298H2V235H116V230.298Z" fill="#D67205"/>
<path d="M116 233.515H2V234.95H116V233.515Z" fill="#BD6504"/>
<path d="M55.9082 105.041L59.4692 103.557L62.0904 104.646V96.3809H55.9082V105.041Z" fill="#E09C0D"/>
<path d="M95.2462 111.41L58.9703 96.7756L22.9296 112L25.5166 72.8767L0 43.1359L37.9221 33.5764L58.1473 0L78.9603 33.2223L117 42.1918L91.9538 72.2866L95.2462 111.41Z" fill="#FFDC01"/>
<path d="M28.8593 109.64C49.6 86.862 63.2889 50.1581 64 8.55637L58.6074 0L38.2222 33.5764L0 43.1949L25.7778 72.8767L23.1111 112L28.8593 109.64Z" fill="#FFDC01"/>
<path d="M58.147 86.7499L41.4748 63.4647C41.2981 63.229 41.357 62.8163 41.5927 62.6394C41.8283 62.4626 42.2407 62.5216 42.4174 62.7574L59.0896 86.0425C59.2663 86.2783 59.2074 86.6909 58.9718 86.8678C58.6772 87.0446 58.3237 86.9857 58.147 86.7499Z" fill="#FFF8A4"/>
<path d="M75.6432 94.9433L38.5285 45.3666C38.3518 45.1308 38.4107 44.7182 38.6464 44.5413C38.882 44.3645 39.2944 44.4234 39.4711 44.6592L76.5858 94.2359C76.7625 94.4717 76.7036 94.8843 76.468 95.0612C76.1734 95.238 75.82 95.1791 75.6432 94.9433Z" fill="#FFF8A4"/>
<path d="M87.5442 100.072L49.7815 46.4867C49.6047 46.2509 49.6637 45.8383 49.8993 45.6614C50.135 45.4846 50.5474 45.5435 50.7241 45.7793L88.4868 99.3646C88.6635 99.6004 88.6046 100.013 88.369 100.19C88.0744 100.426 87.721 100.367 87.5442 100.072Z" fill="#FFF8A4"/>
<path d="M77.1163 67.8856L51.4895 31.3368C51.3127 31.101 51.3717 30.6884 51.6073 30.5115C51.843 30.3347 52.2553 30.3936 52.4321 30.6294L78.0589 67.1782C78.2356 67.414 78.1767 67.8267 77.941 68.0035C77.6465 68.1804 77.293 68.1214 77.1163 67.8856Z" fill="#FFF8A4"/>
<path d="M75.6439 48.8448L66.3357 34.9917C66.159 34.6969 66.2179 34.3432 66.5125 34.1664C66.807 33.9895 67.1605 34.0485 67.3372 34.3432L76.6454 48.1964C76.8221 48.4911 76.7632 48.8448 76.4686 49.0217C76.1741 49.1985 75.8206 49.1396 75.6439 48.8448Z" fill="#FFF8A4"/>
<path d="M80.4892 183.828H43.1487C43.1487 185.214 42.0606 186.303 40.6758 186.303V204.317C42.0606 204.317 43.1487 205.405 43.1487 206.791H80.4892C80.4892 205.405 81.5773 204.317 82.9621 204.317V186.253C81.6268 186.303 80.4892 185.164 80.4892 183.828Z" fill="#FFCC00"/>
<path d="M43.1509 183.828C43.1509 183.878 43.1509 183.977 43.1509 184.026L61.2029 206.841H63.7253L45.4754 183.828H43.1509Z" fill="#F9C569"/>
<path d="M40.6777 186.303V187.54L55.9601 206.841H57.2461L40.9745 186.303C40.8756 186.253 40.7766 186.303 40.6777 186.303Z" fill="#F9C569"/>
<path d="M50.2229 183.828L68.4233 206.791H69.7092L51.4593 183.828H50.2229Z" fill="#F9C569"/>
<path d="M55.0696 183.828L73.27 206.791H75.1989L56.949 183.828H55.0696Z" fill="#F9C569"/>
<path d="M86.5723 221.638H75.1971C74.5541 221.638 74.5541 220.648 75.1971 220.648H86.5723C86.8691 220.648 87.0669 220.846 87.0669 221.143C87.0669 221.44 86.8196 221.638 86.5723 221.638Z" fill="#F9C569"/>
<path d="M69.9541 221.638H59.9637C59.3207 221.638 59.3207 220.648 59.9637 220.648H69.9541C70.2509 220.648 70.4487 220.846 70.4487 221.143C70.4487 221.44 70.2509 221.638 69.9541 221.638Z" fill="#F9C569"/>
<path d="M55.068 221.638H11.8914C11.2484 221.638 11.2484 220.648 11.8914 220.648H55.068C55.3647 220.648 55.5625 220.846 55.5625 221.143C55.5625 221.44 55.3152 221.638 55.068 221.638Z" fill="#F9C569"/>
<path d="M47.5869 77H29.6221V73.2207L36.0733 66.6992C37.9834 64.7422 39.2315 63.3887 39.8174 62.6387C40.4034 61.877 40.8252 61.1738 41.083 60.5293C41.3409 59.8848 41.4698 59.2168 41.4698 58.5254C41.4698 57.4941 41.1826 56.7266 40.6084 56.2227C40.0459 55.7188 39.2901 55.4668 38.3409 55.4668C37.3448 55.4668 36.378 55.6953 35.4405 56.1523C34.503 56.6094 33.5244 57.2598 32.5049 58.1035L29.5518 54.6055C30.8174 53.5273 31.8662 52.7656 32.6983 52.3203C33.5303 51.875 34.4385 51.5352 35.4229 51.3008C36.4073 51.0547 37.5088 50.9316 38.7276 50.9316C40.333 50.9316 41.751 51.2246 42.9815 51.8105C44.2119 52.3965 45.167 53.2168 45.8467 54.2715C46.5264 55.3262 46.8662 56.5332 46.8662 57.8926C46.8662 59.0762 46.6553 60.1895 46.2334 61.2324C45.8233 62.2637 45.1787 63.3242 44.2998 64.4141C43.4326 65.5039 41.8975 67.0566 39.6944 69.0723L36.3897 72.1836V72.4297H47.5869V77ZM59.5401 60.582C62.0244 60.582 63.9991 61.2793 65.4639 62.6738C66.9405 64.0684 67.6787 65.9785 67.6787 68.4043C67.6787 71.2754 66.794 73.4844 65.0244 75.0312C63.2549 76.5781 60.7237 77.3516 57.4307 77.3516C54.5713 77.3516 52.2627 76.8887 50.5049 75.9629V71.2695C51.4307 71.7617 52.5088 72.166 53.7393 72.4824C54.9698 72.7871 56.1358 72.9395 57.2373 72.9395C60.5537 72.9395 62.2119 71.5801 62.2119 68.8613C62.2119 66.2715 60.4951 64.9766 57.0616 64.9766C56.4405 64.9766 55.7549 65.041 55.0049 65.1699C54.2549 65.2871 53.6455 65.416 53.1768 65.5566L51.0147 64.3965L51.9815 51.3008H65.9209V55.9062H56.7451L56.2705 60.9512L56.8858 60.8281C57.6006 60.6641 58.4854 60.582 59.5401 60.582ZM88.5791 64.1504C88.5791 68.6387 87.8409 71.9609 86.3643 74.1172C84.8994 76.2734 82.6377 77.3516 79.5791 77.3516C76.6143 77.3516 74.376 76.2383 72.8643 74.0117C71.3643 71.7852 70.6143 68.498 70.6143 64.1504C70.6143 59.6152 71.3467 56.2754 72.8116 54.1309C74.2764 51.9746 76.5323 50.8965 79.5791 50.8965C82.544 50.8965 84.7823 52.0215 86.294 54.2715C87.8174 56.5215 88.5791 59.8145 88.5791 64.1504ZM76.0108 64.1504C76.0108 67.3027 76.2803 69.5645 76.8194 70.9355C77.3701 72.2949 78.2901 72.9746 79.5791 72.9746C80.8448 72.9746 81.7588 72.2832 82.3213 70.9004C82.8838 69.5176 83.1651 67.2676 83.1651 64.1504C83.1651 60.998 82.878 58.7363 82.3037 57.3652C81.7412 55.9824 80.833 55.291 79.5791 55.291C78.3018 55.291 77.3877 55.9824 76.8369 57.3652C76.2862 58.7363 76.0108 60.998 76.0108 64.1504Z" fill="#CB5F00"/>
<defs>
<linearGradient id="paint0_linear" x1="53.3071" y1="131.937" x2="54.094" y2="229.134" gradientUnits="userSpaceOnUse">
<stop stop-color="#D91B24"/>
<stop offset="1" stop-color="#393C5A"/>
</linearGradient>
</defs>
</svg>
