<svg width="162" height="221" viewBox="0 0 162 221" fill="none" xmlns="http://www.w3.org/2000/svg">
<path d="M150.827 213.317L126.976 193.391L110.672 220.11L85.7644 70.21L125.919 63.5679L150.827 213.317Z" fill="#002ED1"/>
<path d="M5.3053 205.92L31.2699 188.56L44.5541 216.638L84.8595 70.2097L45.4598 59.3408L5.3053 205.92Z" fill="#002ED1"/>
<path d="M21.6073 146.745C32.0233 155.954 44.5527 162.898 58.4408 166.521L84.8582 70.2101L45.6094 59.4922L21.6073 146.745Z" fill="#0029BC"/>
<path d="M125.919 63.5679L85.7644 70.21L101.917 166.671C116.258 163.199 129.24 156.104 139.807 146.594L125.919 63.5679Z" fill="#0029BC"/>
<path d="M80.6102 161.22C125.13 161.22 161.22 125.13 161.22 80.6102C161.22 36.0904 125.13 0 80.6102 0C36.0904 0 0 36.0904 0 80.6102C0 125.13 36.0904 161.22 80.6102 161.22Z" fill="#FFCF03"/>
<path d="M136.334 22.3564C150.222 36.8483 158.676 56.4727 158.676 78.0595C158.676 122.592 122.597 158.67 78.0651 158.67C56.4783 158.67 36.8539 150.217 22.3621 136.329C37.0049 151.726 57.8369 161.237 80.7823 161.237C125.315 161.237 161.393 125.158 161.393 80.6258C161.242 57.6803 151.732 36.9993 136.334 22.3564Z" fill="#FFA506"/>
<path d="M130.296 80.626C130.296 85.7585 125.767 90.1362 124.258 94.8159C122.748 99.6465 123.805 105.836 120.786 109.912C117.767 113.987 111.577 114.893 107.502 117.761C103.426 120.63 100.709 126.366 95.8779 127.875C91.1982 129.385 85.6128 126.517 80.4803 126.517C75.3478 126.517 69.7624 129.385 65.0827 127.875C60.2521 126.366 57.5349 120.63 53.459 117.761C49.3832 114.742 43.194 113.987 40.1748 109.912C37.3067 105.836 38.3633 99.6465 36.7028 94.8159C35.1933 90.1362 30.6646 85.7585 30.6646 80.626C30.6646 75.4934 35.1933 71.1157 36.7028 66.436C38.2124 61.6054 37.1557 55.4162 40.1748 51.3403C43.194 47.2645 49.3832 46.3588 53.459 43.4906C57.5349 40.6224 60.2521 34.886 65.0827 33.3765C69.7624 31.8669 75.3478 34.7351 80.4803 34.7351C85.6128 34.7351 91.1982 31.8669 95.8779 33.3765C100.709 34.886 103.426 40.6224 107.502 43.4906C111.577 46.5097 117.767 47.2645 120.786 51.3403C123.654 55.4162 122.597 61.6054 124.258 66.436C125.767 71.1157 130.296 75.4934 130.296 80.626Z" fill="#FFEC03"/>
<path d="M87.725 123.95C81.5357 122.592 79.7243 122.592 73.535 123.95C71.4216 124.403 68.4025 125.158 66.44 124.554C62.968 123.346 60.0999 118.063 55.8731 114.893C51.6463 111.723 45.608 110.666 43.4946 107.798C41.3812 104.93 42.287 98.8914 40.6264 93.7589C39.8716 91.4945 38.664 89.5321 37.6073 87.7206C33.8334 81.3804 33.8334 80.1728 37.6073 73.8326C38.815 71.8702 39.8716 69.9077 40.6264 67.7943C42.287 62.6618 41.3812 56.6235 43.4946 53.7553C45.608 50.8872 51.6463 49.8305 55.8731 46.6604C60.0999 43.4903 62.968 38.2068 66.44 36.9991C68.4025 36.3953 71.4216 37.1501 73.535 37.603C79.7243 38.9616 81.5357 38.9616 87.725 37.603C89.9893 37.1501 92.8575 36.3953 94.8199 36.9991C98.2919 38.2068 101.16 43.4903 105.387 46.6604C109.765 49.8305 115.652 50.8872 117.765 53.7553C119.879 56.6235 118.973 62.6618 120.634 67.7943C121.388 70.0587 122.596 72.0211 123.653 73.8326C127.427 80.1728 127.427 81.3804 123.653 87.7206C120.634 92.8532 120.03 94.5137 119.426 100.703C118.671 107.949 118.218 108.704 111.425 111.723C109.312 112.629 107.198 113.534 105.236 115.044C101.009 118.214 98.141 123.497 94.669 124.705C94.3671 124.705 89.9893 124.403 87.725 123.95Z" fill="#FFDC01"/>
<path d="M68.4056 134.518C71.5757 137.084 72.4815 141.311 72.4815 141.311C72.4815 141.311 68.1037 141.462 64.9336 138.895C61.7635 136.329 60.8578 132.102 60.8578 132.102C60.8578 132.102 65.0846 131.951 68.4056 134.518Z" fill="#FFAA2E"/>
<path d="M64.48 141.16C68.4049 139.801 72.4807 141.311 72.4807 141.311C72.4807 141.311 70.2164 145.085 66.2915 146.443C62.3666 147.802 58.2908 146.292 58.2908 146.292C58.2908 146.292 60.5551 142.518 64.48 141.16Z" fill="#FFAA2E"/>
<path d="M55.7255 131.045C58.5937 134.064 58.8956 138.291 58.8956 138.291C58.8956 138.291 54.5179 137.838 51.6497 134.819C48.7815 131.8 48.4796 127.573 48.4796 127.573C48.4796 127.573 52.8574 128.177 55.7255 131.045Z" fill="#FFAA2E"/>
<path d="M50.8944 137.083C54.9702 136.329 58.7441 138.291 58.7441 138.291C58.7441 138.291 56.0269 141.612 51.9511 142.518C47.8752 143.273 44.1013 141.31 44.1013 141.31C44.1013 141.31 46.8185 137.989 50.8944 137.083Z" fill="#FFAA2E"/>
<path d="M45.7621 126.215C48.0264 129.536 47.7245 133.914 47.7245 133.914C47.7245 133.914 43.4977 132.706 41.2334 129.385C38.969 126.064 39.2709 121.686 39.2709 121.686C39.2709 121.686 43.4977 122.743 45.7621 126.215Z" fill="#FFAA2E"/>
<path d="M40.0262 131.347C44.102 131.196 47.574 133.763 47.574 133.763C47.574 133.763 44.4039 136.631 40.1771 136.782C36.1013 136.933 32.6293 134.366 32.6293 134.366C32.6293 134.366 35.9503 131.498 40.0262 131.347Z" fill="#FFAA2E"/>
<path d="M36.5529 118.667C38.0625 122.441 36.5529 126.516 36.5529 126.516C36.5529 126.516 32.779 124.403 31.2694 120.629C29.7599 116.855 31.2694 112.779 31.2694 112.779C31.2694 112.779 35.0434 114.893 36.5529 118.667Z" fill="#FFAA2E"/>
<path d="M29.6106 122.441C33.6865 123.196 36.4037 126.668 36.4037 126.668C36.4037 126.668 32.4788 128.781 28.5539 127.875C24.4781 127.121 21.7609 123.649 21.7609 123.649C21.7609 123.649 25.6857 121.535 29.6106 122.441Z" fill="#FFAA2E"/>
<path d="M29.4591 110.062C29.912 114.138 27.4967 117.761 27.4967 117.761C27.4967 117.761 24.3266 114.742 23.8737 110.817C23.4208 106.741 25.8361 103.118 25.8361 103.118C25.8361 103.118 29.0062 105.986 29.4591 110.062Z" fill="#FFAA2E"/>
<path d="M21.9107 112.025C25.6847 113.836 27.4961 117.61 27.4961 117.61C27.4961 117.61 23.2694 118.667 19.4954 117.006C15.7215 115.195 13.91 111.421 13.91 111.421C13.91 111.421 18.2878 110.213 21.9107 112.025Z" fill="#FFAA2E"/>
<path d="M23.4205 99.0425C23.1186 103.118 19.9485 106.137 19.9485 106.137C19.9485 106.137 17.3822 102.665 17.8351 98.5896C18.137 94.5138 21.3071 91.4946 21.3071 91.4946C21.3071 91.4946 23.8734 94.9666 23.4205 99.0425Z" fill="#FFAA2E"/>
<path d="M15.7231 99.6462C19.0441 102.061 20.1008 106.288 20.1008 106.288C20.1008 106.288 15.7231 106.59 12.402 104.175C9.08099 101.76 8.02429 97.5328 8.02429 97.5328C8.02429 97.5328 12.402 97.0799 15.7231 99.6462Z" fill="#FFAA2E"/>
<path d="M20.4016 88.6261C19.3449 92.551 15.8729 95.1173 15.8729 95.1173C15.8729 95.1173 13.9104 91.1924 14.9671 87.2675C16.0238 83.3426 19.4958 80.7764 19.4958 80.7764C19.4958 80.7764 21.4583 84.7012 20.4016 88.6261Z" fill="#FFAA2E"/>
<path d="M12.7032 88.0227C15.5714 90.8909 15.8733 95.2686 15.8733 95.2686C15.8733 95.2686 11.4956 94.8158 8.62737 91.9476C5.75919 89.0794 5.45728 84.7017 5.45728 84.7017C5.45728 84.7017 9.83502 85.0036 12.7032 88.0227Z" fill="#FFAA2E"/>
<path d="M20.0999 77.1535C18.1374 80.7764 14.0616 82.437 14.0616 82.437C14.0616 82.437 13.1558 78.2102 15.1183 74.5872C17.0807 70.9642 21.1566 69.3037 21.1566 69.3037C21.1566 69.3037 22.0623 73.5305 20.0999 77.1535Z" fill="#FFAA2E"/>
<path d="M12.7034 74.5875C14.8168 78.0595 14.0621 82.2863 14.0621 82.2863C14.0621 82.2863 9.98623 80.7768 7.87283 77.3048C5.75943 73.8327 6.51422 69.606 6.51422 69.606C6.51422 69.606 10.59 70.9646 12.7034 74.5875Z" fill="#FFAA2E"/>
<path d="M22.0623 65.3793C19.345 68.3984 14.9673 69.0023 14.9673 69.0023C14.9673 69.0023 15.1182 64.6245 17.8355 61.6054C20.5527 58.5863 24.9304 57.9824 24.9304 57.9824C24.9304 57.9824 24.9304 62.3602 22.0623 65.3793Z" fill="#FFAA2E"/>
<path d="M15.5716 61.1522C16.7793 65.0771 14.9678 69.002 14.9678 69.002C14.9678 69.002 11.3448 66.5866 10.1372 62.6618C8.92952 58.7369 10.741 54.812 10.741 54.812C10.741 54.812 14.5149 57.2273 15.5716 61.1522Z" fill="#FFAA2E"/>
<path d="M26.4401 55.7187C23.1191 58.134 18.7413 57.6811 18.7413 57.6811C18.7413 57.6811 19.798 53.4543 23.27 51.19C26.5911 48.7747 30.9688 49.2275 30.9688 49.2275C30.9688 49.2275 29.7612 53.4543 26.4401 55.7187Z" fill="#FFAA2E"/>
<path d="M21.006 50.284C21.3079 54.3598 18.5907 57.8318 18.5907 57.8318C18.5907 57.8318 15.5715 54.6618 15.2696 50.5859C14.9677 46.5101 17.6849 43.0381 17.6849 43.0381C17.6849 43.0381 20.7041 46.2082 21.006 50.284Z" fill="#FFAA2E"/>
<path d="M31.7229 47.1135C27.949 48.925 23.7222 47.8683 23.7222 47.8683C23.7222 47.8683 25.5336 43.9434 29.1566 42.132C32.9305 40.3205 37.1573 41.3772 37.1573 41.3772C37.1573 41.3772 35.3458 45.3021 31.7229 47.1135Z" fill="#FFAA2E"/>
<path d="M27.1959 40.7734C26.7431 44.8493 23.573 47.8684 23.573 47.8684C23.573 47.8684 21.1577 44.2454 21.4596 40.3206C21.9125 36.2447 25.0825 33.2256 25.0825 33.2256C25.0825 33.2256 27.6488 36.6976 27.1959 40.7734Z" fill="#FFAA2E"/>
<path d="M90.748 133.914C87.5779 136.48 86.6721 140.707 86.6721 140.707C86.6721 140.707 91.0499 140.858 94.22 138.291C97.3901 135.725 98.2958 131.498 98.2958 131.498C98.2958 131.498 94.069 131.347 90.748 133.914Z" fill="#FFAA2E"/>
<path d="M94.6733 140.556C90.7484 139.198 86.6726 140.707 86.6726 140.707C86.6726 140.707 88.937 144.481 92.8618 145.84C96.7867 147.198 100.863 145.689 100.863 145.689C100.863 145.689 98.5982 141.915 94.6733 140.556Z" fill="#FFAA2E"/>
<path d="M101.768 131.046C98.8994 134.065 98.5975 138.292 98.5975 138.292C98.5975 138.292 102.975 137.839 105.843 134.82C108.712 131.801 109.014 127.574 109.014 127.574C109.014 127.574 104.636 128.178 101.768 131.046Z" fill="#FFAA2E"/>
<path d="M106.598 137.084C102.522 136.329 98.7485 138.292 98.7485 138.292C98.7485 138.292 101.466 141.613 105.542 142.518C109.617 143.273 113.391 141.311 113.391 141.311C113.391 141.311 110.674 137.99 106.598 137.084Z" fill="#FFAA2E"/>
<path d="M111.731 125.763C109.466 129.084 109.768 133.461 109.768 133.461C109.768 133.461 113.995 132.254 116.26 128.933C118.524 125.612 118.222 121.234 118.222 121.234C118.222 121.234 114.146 122.442 111.731 125.763Z" fill="#FFAA2E"/>
<path d="M117.467 130.895C113.391 130.744 109.919 133.31 109.919 133.31C109.919 133.31 113.089 136.179 117.316 136.33C121.392 136.48 124.864 133.914 124.864 133.914C124.864 133.914 121.542 131.197 117.467 130.895Z" fill="#FFAA2E"/>
<path d="M120.637 118.516C119.128 122.29 120.637 126.365 120.637 126.365C120.637 126.365 124.411 124.252 125.921 120.478C127.43 116.704 125.921 112.628 125.921 112.628C125.921 112.628 122.147 114.591 120.637 118.516Z" fill="#FFAA2E"/>
<path d="M127.581 122.139C123.505 122.894 120.788 126.366 120.788 126.366C120.788 126.366 124.713 128.479 128.638 127.574C132.714 126.819 135.431 123.347 135.431 123.347C135.431 123.347 131.657 121.384 127.581 122.139Z" fill="#FFAA2E"/>
<path d="M128.185 109.157C127.732 113.233 130.147 116.856 130.147 116.856C130.147 116.856 133.318 113.837 133.77 109.912C134.223 105.836 131.808 102.213 131.808 102.213C131.808 102.213 128.638 105.232 128.185 109.157Z" fill="#FFAA2E"/>
<path d="M135.582 111.271C131.808 113.082 129.996 116.856 129.996 116.856C129.996 116.856 134.223 117.913 137.997 116.252C141.771 114.441 143.582 110.667 143.582 110.667C143.582 110.667 139.356 109.459 135.582 111.271Z" fill="#FFAA2E"/>
<path d="M133.468 98.8926C133.77 102.968 136.94 105.988 136.94 105.988C136.94 105.988 139.506 102.516 139.053 98.4397C138.752 94.3639 135.581 91.3447 135.581 91.3447C135.581 91.3447 133.015 94.8167 133.468 98.8926Z" fill="#FFAA2E"/>
<path d="M141.166 99.3452C137.845 101.761 136.789 105.987 136.789 105.987C136.789 105.987 141.166 106.289 144.487 103.874C147.808 101.459 148.865 97.2318 148.865 97.2318C148.865 97.2318 144.487 96.9299 141.166 99.3452Z" fill="#FFAA2E"/>
<path d="M136.487 88.4762C137.543 92.4011 141.015 94.9674 141.015 94.9674C141.015 94.9674 142.978 91.0425 141.921 87.1176C140.864 83.1927 137.392 80.6265 137.392 80.6265C137.392 80.6265 135.581 84.5513 136.487 88.4762Z" fill="#FFAA2E"/>
<path d="M144.185 87.7214C141.317 90.5896 141.015 94.9674 141.015 94.9674C141.015 94.9674 145.392 94.5145 148.261 91.6463C151.129 88.7781 151.431 84.4004 151.431 84.4004C151.431 84.4004 147.204 84.8533 144.185 87.7214Z" fill="#FFAA2E"/>
<path d="M136.79 77.3053C138.752 80.9283 142.828 82.5888 142.828 82.5888C142.828 82.5888 143.734 78.362 141.771 74.7391C139.809 71.1161 135.733 69.4556 135.733 69.4556C135.733 69.4556 134.827 73.6824 136.79 77.3053Z" fill="#FFAA2E"/>
<path d="M144.185 74.7394C142.072 78.2114 142.826 82.4382 142.826 82.4382C142.826 82.4382 146.902 80.9286 149.016 77.4566C151.129 73.9846 150.374 69.7578 150.374 69.7578C150.374 69.7578 146.147 71.1164 144.185 74.7394Z" fill="#FFAA2E"/>
<path d="M134.676 65.5312C137.393 68.5503 141.771 69.1541 141.771 69.1541C141.771 69.1541 141.62 64.7764 138.903 61.7572C136.185 58.7381 131.808 58.1343 131.808 58.1343C131.808 58.1343 131.808 62.512 134.676 65.5312Z" fill="#FFAA2E"/>
<path d="M141.166 61.3041C139.959 65.2289 141.77 69.1538 141.77 69.1538C141.77 69.1538 145.393 66.7385 146.601 62.8136C147.809 58.8888 145.997 54.9639 145.997 54.9639C145.997 54.9639 142.374 57.5301 141.166 61.3041Z" fill="#FFAA2E"/>
<path d="M130.449 56.0204C133.77 58.4357 138.148 57.9829 138.148 57.9829C138.148 57.9829 137.091 53.7561 133.619 51.4917C130.298 49.0764 125.92 49.5293 125.92 49.5293C125.92 49.5293 127.128 53.7561 130.449 56.0204Z" fill="#FFAA2E"/>
<path d="M135.885 50.5863C135.583 54.6621 138.3 58.1341 138.3 58.1341C138.3 58.1341 141.32 54.964 141.621 50.8882C141.923 46.8123 139.206 43.3403 139.206 43.3403C139.206 43.3403 136.187 46.5104 135.885 50.5863Z" fill="#FFAA2E"/>
<path d="M124.863 47.4158C128.637 49.2273 132.864 48.1706 132.864 48.1706C132.864 48.1706 131.053 44.2457 127.43 42.4342C123.656 40.6227 119.429 41.6794 119.429 41.6794C119.429 41.6794 121.24 45.6043 124.863 47.4158Z" fill="#FFAA2E"/>
<path d="M129.393 41.0757C129.846 45.1515 133.016 48.1706 133.016 48.1706C133.016 48.1706 135.431 44.5477 135.129 40.6228C134.676 36.547 131.506 33.5278 131.506 33.5278C131.506 33.5278 128.94 37.1508 129.393 41.0757Z" fill="#FFAA2E"/>
<path d="M121.846 35.0371C121.695 35.1881 121.544 35.339 121.242 35.49L121.091 35.6409C134.073 46.6608 142.225 62.6622 142.225 80.4751C142.225 113.686 113.543 140.858 78.37 140.858C43.1971 140.858 14.5153 113.837 14.5153 80.4751C14.5153 63.417 21.9122 48.1704 33.9887 37.1505C33.6868 36.9996 33.234 36.8486 32.9321 36.6976C20.8555 47.8684 13.4586 63.266 13.4586 80.4751C13.4586 114.289 42.5933 141.764 78.37 141.764C114.147 141.764 143.281 114.289 143.281 80.4751C143.281 62.5112 134.979 46.2079 121.846 35.0371Z" fill="#FF9912"/>
<path d="M40.3294 39.415C36.2535 40.3207 32.4796 38.2073 32.4796 38.2073C32.4796 38.2073 35.1968 34.7353 39.2727 33.9805C43.3485 33.0748 47.1224 35.1882 47.1224 35.1882C47.1224 35.1882 44.2542 38.5092 40.3294 39.415Z" fill="#FFAA2E"/>
<path d="M37.6119 32.1691C36.2533 35.943 32.4793 38.2074 32.4793 38.2074C32.4793 38.2074 30.9698 34.1315 32.3284 30.3576C33.687 26.5837 37.4609 24.3193 37.4609 24.3193C37.4609 24.3193 38.9705 28.3952 37.6119 32.1691Z" fill="#FFAA2E"/>
<path d="M116.712 39.415C120.788 40.3207 124.562 38.2073 124.562 38.2073C124.562 38.2073 121.845 34.7353 117.769 33.9805C113.693 33.0748 109.919 35.1882 109.919 35.1882C109.919 35.1882 112.636 38.5092 116.712 39.415Z" fill="#FFAA2E"/>
<path d="M119.43 32.1691C120.788 35.943 124.562 38.2074 124.562 38.2074C124.562 38.2074 126.072 34.1315 124.713 30.3576C123.355 26.5837 119.581 24.3193 119.581 24.3193C119.581 24.3193 118.071 28.3952 119.43 32.1691Z" fill="#FFAA2E"/>
<path d="M65.386 26.2815L59.8006 24.621L54.819 27.4892L54.6681 21.7528L50.4413 17.677L55.8757 15.7146L58.291 10.582L61.763 15.1107L67.4994 15.8655L64.3293 20.5452L65.386 26.2815Z" fill="#FFEC03"/>
<path d="M102.069 26.7342L106.899 30.0553L107.654 24.3189L112.183 20.6959L107.05 18.2806L105.088 12.8462L101.163 17.073L95.2755 17.2239L98.1437 22.2055L96.4832 27.7909L102.069 26.7342Z" fill="#FFEC03"/>
<path d="M86.0672 25.5266L80.7837 23.1113L75.3493 25.0738L76.104 19.3374L72.4811 14.8087L78.2174 13.601L81.3875 8.92139L84.2557 13.903L89.6902 15.5635L85.7653 19.7903L86.0672 25.5266Z" fill="#FFEC03"/>
<path d="M56.1016 78.0879C59.207 78.0879 61.6753 78.9595 63.5063 80.7026C65.3521 82.4458 66.2749 84.8335 66.2749 87.8657C66.2749 91.4546 65.1689 94.2158 62.957 96.1494C60.7451 98.083 57.5811 99.0498 53.4648 99.0498C49.8906 99.0498 47.0049 98.4712 44.8076 97.314V91.4473C45.9648 92.0625 47.3125 92.5679 48.8506 92.9634C50.3887 93.3442 51.8462 93.5347 53.2231 93.5347C57.3687 93.5347 59.4414 91.8354 59.4414 88.437C59.4414 85.1997 57.2954 83.5811 53.0034 83.5811C52.2271 83.5811 51.3701 83.6616 50.4326 83.8228C49.4951 83.9692 48.7334 84.1304 48.1475 84.3062L45.4448 82.856L46.6533 66.4863H64.0776V72.2432H52.6079L52.0146 78.5493L52.7837 78.3955C53.6772 78.1904 54.7832 78.0879 56.1016 78.0879ZM92.4004 82.5483C92.4004 88.1587 91.4775 92.3115 89.6318 95.0068C87.8008 97.7021 84.9736 99.0498 81.1504 99.0498C77.4443 99.0498 74.6465 97.6582 72.7568 94.875C70.8818 92.0918 69.9443 87.9829 69.9443 82.5483C69.9443 76.8794 70.8599 72.7046 72.6909 70.0239C74.522 67.3286 77.3418 65.981 81.1504 65.981C84.8564 65.981 87.6543 67.3872 89.5439 70.1997C91.4482 73.0122 92.4004 77.1284 92.4004 82.5483ZM76.6899 82.5483C76.6899 86.4888 77.0269 89.3159 77.7007 91.0298C78.3892 92.729 79.5391 93.5786 81.1504 93.5786C82.7324 93.5786 83.875 92.7144 84.5781 90.9858C85.2812 89.2573 85.6328 86.4448 85.6328 82.5483C85.6328 78.6079 85.2739 75.7808 84.5562 74.0669C83.853 72.3384 82.7178 71.4741 81.1504 71.4741C79.5537 71.4741 78.4111 72.3384 77.7227 74.0669C77.0342 75.7808 76.6899 78.6079 76.6899 82.5483ZM118.108 82.5483C118.108 88.1587 117.186 92.3115 115.34 95.0068C113.509 97.7021 110.682 99.0498 106.858 99.0498C103.152 99.0498 100.354 97.6582 98.4648 94.875C96.5898 92.0918 95.6523 87.9829 95.6523 82.5483C95.6523 76.8794 96.5679 72.7046 98.3989 70.0239C100.23 67.3286 103.05 65.981 106.858 65.981C110.564 65.981 113.362 67.3872 115.252 70.1997C117.156 73.0122 118.108 77.1284 118.108 82.5483ZM102.398 82.5483C102.398 86.4888 102.735 89.3159 103.409 91.0298C104.097 92.729 105.247 93.5786 106.858 93.5786C108.44 93.5786 109.583 92.7144 110.286 90.9858C110.989 89.2573 111.341 86.4448 111.341 82.5483C111.341 78.6079 110.982 75.7808 110.264 74.0669C109.561 72.3384 108.426 71.4741 106.858 71.4741C105.262 71.4741 104.119 72.3384 103.431 74.0669C102.742 75.7808 102.398 78.6079 102.398 82.5483Z" fill="#002ED1"/>
</svg>
