<svg width="121" height="165" viewBox="0 0 121 165" fill="none" xmlns="http://www.w3.org/2000/svg">
<path d="M112.458 159.052L94.6747 144.195L82.5187 164.117L63.947 52.3494L93.8868 47.397L112.458 159.052Z" fill="#ED1C24"/>
<path d="M3.95508 153.537L23.3146 140.593L33.2195 161.528L63.2718 52.3496L33.8949 44.2456L3.95508 153.537Z" fill="#ED1C24"/>
<path d="M16.1111 109.415C23.8774 116.281 33.2195 121.458 43.5746 124.16L63.2719 52.3494L34.0074 44.3579L16.1111 109.415Z" fill="#DB181F"/>
<path d="M93.8868 47.397L63.947 52.3494L75.9905 124.272C86.6832 121.684 96.363 116.394 104.242 109.303L93.8868 47.397Z" fill="#DB181F"/>
<path d="M60.1041 120.208C93.2986 120.208 120.208 93.2986 120.208 60.1041C120.208 26.9095 93.2986 0 60.1041 0C26.9095 0 0 26.9095 0 60.1041C0 93.2986 26.9095 120.208 60.1041 120.208Z" fill="#FFCF03"/>
<path d="M101.653 16.6694C112.008 27.4748 118.311 42.107 118.311 58.2024C118.311 91.4063 91.4107 118.307 58.2068 118.307C42.1114 118.307 27.4792 112.004 16.6738 101.649C27.5917 113.13 43.1244 120.221 60.2328 120.221C93.4367 120.221 120.337 93.3197 120.337 60.1159C120.225 43.0074 113.134 27.5873 101.653 16.6694Z" fill="#FFA506"/>
<path d="M97.1509 60.1158C97.1509 63.9427 93.7742 67.2068 92.6487 70.696C91.5231 74.2978 92.311 78.9126 90.0599 81.9516C87.8088 84.9906 83.194 85.6659 80.155 87.8044C77.116 89.943 75.09 94.2201 71.4882 95.3457C67.999 96.4712 63.8345 94.3327 60.0076 94.3327C56.1807 94.3327 52.0161 96.4712 48.5269 95.3457C44.9251 94.2201 42.8991 89.943 39.8601 87.8044C36.8211 85.5533 32.2064 84.9906 29.9553 81.9516C27.8167 78.9126 28.6046 74.2978 27.3665 70.696C26.2409 67.2068 22.8643 63.9427 22.8643 60.1158C22.8643 56.2889 26.2409 53.0248 27.3665 49.5356C28.492 45.9338 27.7041 41.319 29.9553 38.28C32.2064 35.241 36.8211 34.5657 39.8601 32.4271C42.8991 30.2886 44.9251 26.0115 48.5269 24.8859C52.0161 23.7603 56.1807 25.8989 60.0076 25.8989C63.8345 25.8989 67.999 23.7603 71.4882 24.8859C75.09 26.0115 77.116 30.2886 80.155 32.4271C83.194 34.6782 87.8088 35.241 90.0599 38.28C92.1985 41.319 91.4106 45.9338 92.6487 49.5356C93.7742 53.0248 97.1509 56.2889 97.1509 60.1158Z" fill="#FFEC03"/>
<path d="M65.4093 92.4195C60.7945 91.4065 59.4438 91.4065 54.8291 92.4195C53.2533 92.7571 51.0022 93.3199 49.5389 92.8697C46.9502 91.9692 44.8116 88.0298 41.6601 85.6661C38.5085 83.3025 34.0063 82.5146 32.4305 80.376C30.8547 78.2375 31.5301 73.7352 30.2919 69.9084C29.7292 68.22 28.8287 66.7568 28.0408 65.4061C25.2269 60.6788 25.2269 59.7784 28.0408 55.051C28.9413 53.5878 29.7292 52.1246 30.2919 50.5488C31.5301 46.7219 30.8547 42.2197 32.4305 40.0811C34.0063 37.9426 38.5085 37.1547 41.6601 34.791C44.8116 32.4274 46.9502 28.4879 49.5389 27.5875C51.0022 27.1373 53.2533 27.7 54.8291 28.0377C59.4438 29.0507 60.7945 29.0507 65.4093 28.0377C67.0976 27.7 69.2362 27.1373 70.6994 27.5875C73.2882 28.4879 75.4267 32.4274 78.5783 34.791C81.8424 37.1547 86.232 37.9426 87.8078 40.0811C89.3836 42.2197 88.7083 46.7219 89.9464 50.5488C90.5092 52.2371 91.4096 53.7004 92.1975 55.051C95.0114 59.7784 95.0114 60.6788 92.1975 65.4061C89.9464 69.233 89.4962 70.4711 89.0459 75.0859C88.4832 80.4886 88.1455 81.0514 83.0805 83.3025C81.5047 83.9778 79.9289 84.6531 78.4657 85.7787C75.3142 88.1424 73.1756 92.0818 70.5868 92.9822C70.3617 92.9822 67.0976 92.7571 65.4093 92.4195Z" fill="#FFDC01"/>
<path d="M51.0038 100.298C53.3674 102.212 54.0427 105.363 54.0427 105.363C54.0427 105.363 50.7786 105.476 48.415 103.562C46.0513 101.649 45.376 98.4973 45.376 98.4973C45.376 98.4973 48.5275 98.3848 51.0038 100.298Z" fill="#FFAA2E"/>
<path d="M48.0772 105.251C51.0036 104.238 54.0426 105.363 54.0426 105.363C54.0426 105.363 52.3543 108.177 49.4278 109.19C46.5014 110.203 43.4624 109.078 43.4624 109.078C43.4624 109.078 45.1507 106.264 48.0772 105.251Z" fill="#FFAA2E"/>
<path d="M41.5489 97.7094C43.6875 99.9605 43.9126 103.112 43.9126 103.112C43.9126 103.112 40.6485 102.774 38.5099 100.523C36.3713 98.2722 36.1462 95.1206 36.1462 95.1206C36.1462 95.1206 39.4103 95.5708 41.5489 97.7094Z" fill="#FFAA2E"/>
<path d="M37.9468 102.212C40.9858 101.649 43.7997 103.112 43.7997 103.112C43.7997 103.112 41.7737 105.589 38.7347 106.264C35.6957 106.827 32.8818 105.363 32.8818 105.363C32.8818 105.363 34.9078 102.887 37.9468 102.212Z" fill="#FFAA2E"/>
<path d="M34.1196 94.1076C35.808 96.5838 35.5829 99.848 35.5829 99.848C35.5829 99.848 32.4313 98.9475 30.743 96.4713C29.0546 93.9951 29.2798 90.731 29.2798 90.731C29.2798 90.731 32.4313 91.5188 34.1196 94.1076Z" fill="#FFAA2E"/>
<path d="M29.8431 97.9345C32.8821 97.8219 35.4709 99.7353 35.4709 99.7353C35.4709 99.7353 33.1072 101.874 29.9557 101.986C26.9167 102.099 24.3279 100.186 24.3279 100.186C24.3279 100.186 26.8041 98.047 29.8431 97.9345Z" fill="#FFAA2E"/>
<path d="M27.2541 88.48C28.3797 91.2939 27.2541 94.3329 27.2541 94.3329C27.2541 94.3329 24.4403 92.7571 23.3147 89.9432C22.1891 87.1293 23.3147 84.0903 23.3147 84.0903C23.3147 84.0903 26.1286 85.6661 27.2541 88.48Z" fill="#FFAA2E"/>
<path d="M22.0765 91.2937C25.1155 91.8565 27.1415 94.4453 27.1415 94.4453C27.1415 94.4453 24.2151 96.0211 21.2886 95.3457C18.2496 94.783 16.2236 92.1942 16.2236 92.1942C16.2236 92.1942 19.1501 90.6184 22.0765 91.2937Z" fill="#FFAA2E"/>
<path d="M21.9638 82.0643C22.3015 85.1033 20.5006 87.8046 20.5006 87.8046C20.5006 87.8046 18.1369 85.5535 17.7993 82.627C17.4616 79.588 19.2625 76.8867 19.2625 76.8867C19.2625 76.8867 21.6261 79.0253 21.9638 82.0643Z" fill="#FFAA2E"/>
<path d="M16.336 83.5274C19.1499 84.8781 20.5006 87.692 20.5006 87.692C20.5006 87.692 17.349 88.4799 14.5352 87.2418C11.7213 85.8911 10.3706 83.0772 10.3706 83.0772C10.3706 83.0772 13.6347 82.1768 16.336 83.5274Z" fill="#FFAA2E"/>
<path d="M17.4621 73.848C17.237 76.887 14.8733 79.1381 14.8733 79.1381C14.8733 79.1381 12.9599 76.5493 13.2975 73.5103C13.5226 70.4713 15.8863 68.2202 15.8863 68.2202C15.8863 68.2202 17.7997 70.809 17.4621 73.848Z" fill="#FFAA2E"/>
<path d="M11.7223 74.298C14.1985 76.0989 14.9864 79.2504 14.9864 79.2504C14.9864 79.2504 11.7223 79.4755 9.24605 77.6746C6.76982 75.8738 5.98193 72.7222 5.98193 72.7222C5.98193 72.7222 9.24604 72.3845 11.7223 74.298Z" fill="#FFAA2E"/>
<path d="M15.211 66.0814C14.4231 69.0078 11.8343 70.9213 11.8343 70.9213C11.8343 70.9213 10.3711 67.9948 11.159 65.0684C11.9469 62.142 14.5357 60.2285 14.5357 60.2285C14.5357 60.2285 15.9989 63.155 15.211 66.0814Z" fill="#FFAA2E"/>
<path d="M9.47102 65.6315C11.6096 67.77 11.8347 71.0342 11.8347 71.0342C11.8347 71.0342 8.57058 70.6965 6.43203 68.5579C4.29347 66.4194 4.06836 63.1553 4.06836 63.1553C4.06836 63.1553 7.33247 63.3804 9.47102 65.6315Z" fill="#FFAA2E"/>
<path d="M14.9859 57.5277C13.5227 60.229 10.4837 61.4671 10.4837 61.4671C10.4837 61.4671 9.80839 58.3156 11.2716 55.6142C12.7348 52.9129 15.7738 51.6748 15.7738 51.6748C15.7738 51.6748 16.4492 54.8264 14.9859 57.5277Z" fill="#FFAA2E"/>
<path d="M9.47102 55.6137C11.0468 58.2025 10.484 61.3541 10.484 61.3541C10.484 61.3541 7.44503 60.2285 5.86925 57.6397C4.29347 55.051 4.85625 51.8994 4.85625 51.8994C4.85625 51.8994 7.89525 52.9124 9.47102 55.6137Z" fill="#FFAA2E"/>
<path d="M16.4493 48.7481C14.4233 50.9992 11.1592 51.4495 11.1592 51.4495C11.1592 51.4495 11.2717 48.1854 13.2977 45.9342C15.3237 43.6831 18.5878 43.2329 18.5878 43.2329C18.5878 43.2329 18.5878 46.497 16.4493 48.7481Z" fill="#FFAA2E"/>
<path d="M11.6098 45.5965C12.5103 48.5229 11.1596 51.4494 11.1596 51.4494C11.1596 51.4494 8.45826 49.6485 7.55782 46.722C6.65737 43.7956 8.00804 40.8691 8.00804 40.8691C8.00804 40.8691 10.8219 42.67 11.6098 45.5965Z" fill="#FFAA2E"/>
<path d="M19.714 41.5447C17.2377 43.3456 13.9736 43.0079 13.9736 43.0079C13.9736 43.0079 14.7615 39.8564 17.3503 38.168C19.8265 36.3671 23.0906 36.7048 23.0906 36.7048C23.0906 36.7048 22.1902 39.8564 19.714 41.5447Z" fill="#FFAA2E"/>
<path d="M15.662 37.492C15.8871 40.531 13.8611 43.1198 13.8611 43.1198C13.8611 43.1198 11.61 40.7561 11.3849 37.7171C11.1598 34.6781 13.1858 32.0894 13.1858 32.0894C13.1858 32.0894 15.4369 34.453 15.662 37.492Z" fill="#FFAA2E"/>
<path d="M23.6529 35.1286C20.8391 36.4793 17.6875 35.6914 17.6875 35.6914C17.6875 35.6914 19.0382 32.7649 21.7395 31.4143C24.5534 30.0636 27.7049 30.8515 27.7049 30.8515C27.7049 30.8515 26.3543 33.7779 23.6529 35.1286Z" fill="#FFAA2E"/>
<path d="M20.2773 30.4012C19.9396 33.4402 17.576 35.6913 17.576 35.6913C17.576 35.6913 15.7751 32.99 16.0002 30.0635C16.3379 27.0245 18.7015 24.7734 18.7015 24.7734C18.7015 24.7734 20.615 27.3622 20.2773 30.4012Z" fill="#FFAA2E"/>
<path d="M67.6616 99.848C65.2979 101.761 64.6226 104.913 64.6226 104.913C64.6226 104.913 67.8867 105.026 70.2503 103.112C72.614 101.199 73.2893 98.0471 73.2893 98.0471C73.2893 98.0471 70.1378 97.9346 67.6616 99.848Z" fill="#FFAA2E"/>
<path d="M70.588 104.801C67.6616 103.788 64.6226 104.913 64.6226 104.913C64.6226 104.913 66.3109 107.727 69.2373 108.74C72.1638 109.753 75.2028 108.628 75.2028 108.628C75.2028 108.628 73.5144 105.814 70.588 104.801Z" fill="#FFAA2E"/>
<path d="M75.8786 97.7094C73.74 99.9605 73.5149 103.112 73.5149 103.112C73.5149 103.112 76.779 102.774 78.9176 100.523C81.0561 98.2722 81.2812 95.1206 81.2812 95.1206C81.2812 95.1206 78.0171 95.5708 75.8786 97.7094Z" fill="#FFAA2E"/>
<path d="M79.4798 102.212C76.4408 101.649 73.627 103.112 73.627 103.112C73.627 103.112 75.653 105.589 78.692 106.264C81.731 106.827 84.5448 105.363 84.5448 105.363C84.5448 105.363 82.5188 102.887 79.4798 102.212Z" fill="#FFAA2E"/>
<path d="M83.3077 93.7702C81.6193 96.2464 81.8445 99.5106 81.8445 99.5106C81.8445 99.5106 84.996 98.6101 86.6843 96.1339C88.3727 93.6577 88.1476 90.3936 88.1476 90.3936C88.1476 90.3936 85.1086 91.294 83.3077 93.7702Z" fill="#FFAA2E"/>
<path d="M87.5843 97.5971C84.5453 97.4845 81.9565 99.398 81.9565 99.398C81.9565 99.398 84.3202 101.537 87.4718 101.649C90.5108 101.762 93.0995 99.8482 93.0995 99.8482C93.0995 99.8482 90.6233 97.8222 87.5843 97.5971Z" fill="#FFAA2E"/>
<path d="M89.9478 88.3672C88.8222 91.1811 89.9478 94.2201 89.9478 94.2201C89.9478 94.2201 92.7616 92.6443 93.8872 89.8304C95.0128 87.0165 93.8872 83.9775 93.8872 83.9775C93.8872 83.9775 91.0733 85.4408 89.9478 88.3672Z" fill="#FFAA2E"/>
<path d="M95.1258 91.0688C92.0868 91.6316 90.0608 94.2203 90.0608 94.2203C90.0608 94.2203 92.9872 95.7961 95.9137 95.1208C98.9527 94.558 100.979 91.9692 100.979 91.9692C100.979 91.9692 98.1648 90.506 95.1258 91.0688Z" fill="#FFAA2E"/>
<path d="M95.5759 81.389C95.2382 84.428 97.0391 87.1293 97.0391 87.1293C97.0391 87.1293 99.4028 84.8782 99.7404 81.9518C100.078 78.9128 98.2772 76.2114 98.2772 76.2114C98.2772 76.2114 95.9135 78.4625 95.5759 81.389Z" fill="#FFAA2E"/>
<path d="M101.091 82.9649C98.2769 84.3156 96.9263 87.1295 96.9263 87.1295C96.9263 87.1295 100.078 87.9174 102.892 86.6793C105.706 85.3286 107.056 82.5147 107.056 82.5147C107.056 82.5147 103.905 81.6143 101.091 82.9649Z" fill="#FFAA2E"/>
<path d="M99.516 73.7357C99.7411 76.7747 102.105 79.0258 102.105 79.0258C102.105 79.0258 104.018 76.437 103.681 73.398C103.455 70.359 101.092 68.1079 101.092 68.1079C101.092 68.1079 99.1784 70.6967 99.516 73.7357Z" fill="#FFAA2E"/>
<path d="M105.256 74.0731C102.78 75.874 101.992 79.0255 101.992 79.0255C101.992 79.0255 105.256 79.2506 107.732 77.4497C110.208 75.6488 110.996 72.4973 110.996 72.4973C110.996 72.4973 107.732 72.2722 105.256 74.0731Z" fill="#FFAA2E"/>
<path d="M101.767 65.9691C102.555 68.8955 105.143 70.809 105.143 70.809C105.143 70.809 106.607 67.8825 105.819 64.9561C105.031 62.0297 102.442 60.1162 102.442 60.1162C102.442 60.1162 101.091 63.0427 101.767 65.9691Z" fill="#FFAA2E"/>
<path d="M107.507 65.4064C105.368 67.545 105.143 70.8091 105.143 70.8091C105.143 70.8091 108.407 70.4714 110.546 68.3328C112.685 66.1943 112.91 62.9302 112.91 62.9302C112.91 62.9302 109.758 63.2678 107.507 65.4064Z" fill="#FFAA2E"/>
<path d="M101.992 57.6405C103.456 60.3418 106.495 61.5799 106.495 61.5799C106.495 61.5799 107.17 58.4284 105.707 55.727C104.243 53.0257 101.204 51.7876 101.204 51.7876C101.204 51.7876 100.529 54.9391 101.992 57.6405Z" fill="#FFAA2E"/>
<path d="M107.507 55.7265C105.931 58.3153 106.494 61.4669 106.494 61.4669C106.494 61.4669 109.533 60.3413 111.109 57.7525C112.685 55.1638 112.122 52.0122 112.122 52.0122C112.122 52.0122 108.97 53.0252 107.507 55.7265Z" fill="#FFAA2E"/>
<path d="M100.416 48.8609C102.442 51.112 105.707 51.5623 105.707 51.5623C105.707 51.5623 105.594 48.2981 103.568 46.047C101.542 43.7959 98.2778 43.3457 98.2778 43.3457C98.2778 43.3457 98.2778 46.6098 100.416 48.8609Z" fill="#FFAA2E"/>
<path d="M105.256 45.7093C104.356 48.6357 105.706 51.5622 105.706 51.5622C105.706 51.5622 108.408 49.7613 109.308 46.8348C110.209 43.9084 108.858 40.9819 108.858 40.9819C108.858 40.9819 106.157 42.8954 105.256 45.7093Z" fill="#FFAA2E"/>
<path d="M97.2646 41.7693C99.7408 43.5702 103.005 43.2325 103.005 43.2325C103.005 43.2325 102.217 40.081 99.6283 38.3926C97.152 36.5917 93.8879 36.9294 93.8879 36.9294C93.8879 36.9294 94.7884 40.081 97.2646 41.7693Z" fill="#FFAA2E"/>
<path d="M101.317 37.7176C101.092 40.7566 103.118 43.3454 103.118 43.3454C103.118 43.3454 105.369 40.9817 105.594 37.9427C105.819 34.9037 103.793 32.3149 103.793 32.3149C103.793 32.3149 101.542 34.6786 101.317 37.7176Z" fill="#FFAA2E"/>
<path d="M93.1003 35.3537C95.9142 36.7044 99.0658 35.9165 99.0658 35.9165C99.0658 35.9165 97.7151 32.99 95.0138 31.6394C92.1999 30.2887 89.0483 31.0766 89.0483 31.0766C89.0483 31.0766 90.399 34.003 93.1003 35.3537Z" fill="#FFAA2E"/>
<path d="M96.477 30.6268C96.8146 33.6658 99.1783 35.9169 99.1783 35.9169C99.1783 35.9169 100.979 33.2156 100.754 30.2891C100.416 27.2501 98.0527 24.999 98.0527 24.999C98.0527 24.999 96.1393 27.7004 96.477 30.6268Z" fill="#FFAA2E"/>
<path d="M90.8491 26.1245C90.7365 26.2371 90.6239 26.3496 90.3988 26.4622L90.2863 26.5747C99.9661 34.7913 106.044 46.7222 106.044 60.0037C106.044 84.7659 84.6585 105.026 58.4331 105.026C32.2076 105.026 10.8221 84.8785 10.8221 60.0037C10.8221 47.285 16.3373 35.9168 25.3417 27.7003C25.1166 27.5877 24.779 27.4752 24.5538 27.3626C15.5494 35.6917 10.0342 47.1724 10.0342 60.0037C10.0342 85.2162 31.7574 105.701 58.4331 105.701C85.1087 105.701 106.832 85.2162 106.832 60.0037C106.832 46.6096 100.641 34.4536 90.8491 26.1245Z" fill="#FF9912"/>
<path d="M30.0697 29.3882C27.0307 30.0635 24.2168 28.4878 24.2168 28.4878C24.2168 28.4878 26.2428 25.899 29.2818 25.3362C32.3208 24.6609 35.1347 26.2367 35.1347 26.2367C35.1347 26.2367 32.9961 28.7129 30.0697 29.3882Z" fill="#FFAA2E"/>
<path d="M28.0436 23.9857C27.0306 26.7996 24.2167 28.4879 24.2167 28.4879C24.2167 28.4879 23.0912 25.4489 24.1042 22.635C25.1172 19.8211 27.9311 18.1328 27.9311 18.1328C27.9311 18.1328 29.0566 21.1718 28.0436 23.9857Z" fill="#FFAA2E"/>
<path d="M87.0225 29.3882C90.0615 30.0635 92.8754 28.4878 92.8754 28.4878C92.8754 28.4878 90.8494 25.899 87.8104 25.3362C84.7714 24.6609 81.9575 26.2367 81.9575 26.2367C81.9575 26.2367 83.9835 28.7129 87.0225 29.3882Z" fill="#FFAA2E"/>
<path d="M89.0478 23.9857C90.0608 26.7996 92.8747 28.4879 92.8747 28.4879C92.8747 28.4879 94.0002 25.4489 92.9872 22.635C91.9742 19.8211 89.1603 18.1328 89.1603 18.1328C89.1603 18.1328 88.0348 21.1718 89.0478 23.9857Z" fill="#FFAA2E"/>
<path d="M48.7529 19.5959L44.5883 18.3578L40.874 20.4964L40.7614 16.2192L37.6099 13.1802L41.6619 11.717L43.4628 7.89014L46.0515 11.2668L50.3286 11.8296L47.965 15.3188L48.7529 19.5959Z" fill="#FFEC03"/>
<path d="M76.1041 19.9332L79.7058 22.4095L80.2686 18.1323L83.6453 15.431L79.8184 13.6301L78.3552 9.57812L75.4287 12.7297L71.0391 12.8422L73.1776 16.5566L71.9395 20.7211L76.1041 19.9332Z" fill="#FFEC03"/>
<path d="M64.1725 19.033L60.233 17.2321L56.181 18.6953L56.7438 14.4182L54.0425 11.0415L58.3196 10.1411L60.6833 6.65186L62.8218 10.3662L66.8738 11.6043L63.9474 14.7559L64.1725 19.033Z" fill="#FFEC03"/>
<path d="M62.0928 54.7407C66.2334 54.7407 69.5244 55.9028 71.9658 58.2271C74.4268 60.5513 75.6572 63.7349 75.6572 67.7778C75.6572 72.563 74.1826 76.2446 71.2334 78.8228C68.2842 81.4009 64.0654 82.6899 58.5771 82.6899C53.8115 82.6899 49.9639 81.9185 47.0342 80.3755V72.5532C48.5771 73.3735 50.374 74.0474 52.4248 74.5747C54.4756 75.0825 56.4189 75.3364 58.2549 75.3364C63.7822 75.3364 66.5459 73.0708 66.5459 68.5396C66.5459 64.2231 63.6846 62.0649 57.9619 62.0649C56.9268 62.0649 55.7842 62.1724 54.5342 62.3872C53.2842 62.5825 52.2686 62.7974 51.4873 63.0317L47.8838 61.0981L49.4951 39.272H72.7275V46.9478H57.4346L56.6436 55.356L57.6689 55.1509C58.8604 54.8774 60.335 54.7407 62.0928 54.7407Z" fill="#ED1C24"/>
</svg>
