<svg width="101" height="142" viewBox="0 0 101 142" fill="none" xmlns="http://www.w3.org/2000/svg">
<path d="M90.2784 95.7124C92.9784 100.312 92.1784 105.212 89.7784 106.812L94.2784 114.012L59.2784 134.212L55.0784 126.812C52.1784 128.412 47.4784 126.112 44.9784 121.712L18.9784 76.5124C16.2784 71.9124 17.0784 67.0124 19.4784 65.4124L13.4784 55.8124L11.9784 56.7124L8.27838 50.3124L16.1784 45.8124L13.5784 40.9124C12.9784 39.8124 12.7784 38.8124 12.9784 37.6124C13.1784 36.5124 13.3784 35.4124 13.5784 34.3124C14.6784 28.5124 16.1784 20.6124 10.2784 13.8124C7.97838 11.2124 7.37839 9.11238 7.57839 8.11238C7.57839 7.91238 7.67839 7.31238 8.97839 6.61238C10.2784 5.91238 10.8784 6.11238 10.9784 6.11238C11.8784 6.51238 13.3784 8.01238 14.5784 11.3124C17.3784 19.8124 25.0784 22.5124 30.5784 24.5124C31.6784 24.9124 32.6784 25.2124 33.6784 25.6124C34.7784 26.1124 35.6784 26.7124 36.2784 27.8124L39.1784 32.5124L47.0784 27.9124L50.7784 34.3124L48.5784 35.6124L54.1784 45.4124C57.0784 43.8124 61.7784 46.1124 64.2784 50.5124L90.2784 95.7124Z" fill="#A5F9FF"/>
<path d="M88.4786 95.2124C91.1786 99.8124 90.3786 104.712 87.9786 106.312L92.4786 113.512L57.4786 133.712L53.2786 126.312C50.3786 127.912 45.6786 125.612 43.1786 121.212L17.1786 76.0124C14.4786 71.4124 15.2786 66.5124 17.6786 64.9124L11.6786 55.3124L10.1786 56.2124L6.47858 49.8124L14.3786 45.3124L11.7786 40.4124C11.1786 39.3124 10.9786 38.3124 11.1786 37.1124C11.3786 36.0124 11.5786 34.9124 11.7786 33.8124C12.8786 28.0124 14.3786 20.1124 8.47858 13.3124C6.17858 10.7124 5.57858 8.61238 5.77858 7.61238C5.77858 7.41238 5.87858 6.81238 7.17858 6.11238C8.47858 5.41238 9.07858 5.61238 9.17858 5.61238C10.0786 5.91238 11.5786 7.51238 12.7786 10.8124C15.6786 19.2124 23.2786 21.9124 28.8786 23.9124C29.9786 24.3124 30.9786 24.6124 31.9786 25.0124C33.0786 25.5124 33.9786 26.1124 34.5786 27.2124L37.4786 31.9124L45.3786 27.3124L49.0786 33.7124L46.8786 35.0124L52.4786 44.8124C55.3786 43.2124 60.0786 45.5124 62.5786 49.9124L88.4786 95.2124Z" fill="white"/>
<path d="M34.0786 19.9125C28.1786 17.5125 20.5786 16.2125 18.0786 9.1125C15.5786 1.9125 10.4786 -2.2875 4.27859 1.3125C-1.92141 4.9125 -0.821411 11.4125 4.07859 17.1125C9.07859 22.8125 6.37859 30.0125 5.47859 36.3125C4.47859 43.2125 9.97859 47.0125 9.97859 47.0125L24.4786 36.2125L41.0786 29.1125C41.0786 29.2125 40.5786 22.5125 34.0786 19.9125Z" fill="#FFE200"/>
<path opacity="0.1" d="M18.1787 9.1125C15.6787 1.9125 10.5787 -2.2875 4.37866 1.3125C4.37866 1.3125 10.0787 -1.38751 14.3787 6.41249C18.5787 14.2125 20.8787 17.8125 27.6787 20.4125C31.6787 21.9125 34.4787 27.3125 36.0787 31.4125L41.1787 29.2125C41.1787 29.2125 40.6787 22.6125 34.1787 19.9125C28.1787 17.5125 20.5787 16.2125 18.1787 9.1125Z" fill="#A64D16"/>
<path opacity="0.4" d="M5.77856 4.51244C7.37856 5.21244 8.17855 7.41243 7.57855 9.41243C6.97855 11.4124 5.17855 12.6124 3.57855 11.9124C1.97855 11.2124 1.17856 9.01244 1.77856 7.01244C2.37856 5.01244 4.17856 3.81244 5.77856 4.51244Z" fill="white"/>
<path d="M49.0785 22.5126C48.1785 21.0126 46.2785 20.5126 44.7785 21.3126L1.57847 46.2126C0.078472 47.1126 -0.421529 49.0126 0.378471 50.5126L6.57847 61.2126C7.47847 62.7126 9.37848 63.2125 10.8785 62.4125L54.0785 37.5126C55.5785 36.6126 56.0785 34.7126 55.2785 33.2126L49.0785 22.5126Z" fill="#FF8C00"/>
<path d="M11.7784 56.7125C12.1784 57.4125 11.9784 58.3125 11.2784 58.6125C10.5784 59.0125 9.67838 58.8125 9.37838 58.1125L4.07838 48.9125C3.67838 48.2125 3.87838 47.3125 4.57838 47.0125C5.27838 46.6125 6.17838 46.8125 6.47838 47.5125L11.7784 56.7125Z" fill="#FFF49F"/>
<path d="M17.2784 53.6124C17.6784 54.3124 17.4784 55.2124 16.7784 55.5124C16.0784 55.9124 15.1784 55.7124 14.8784 55.0124L9.57838 45.8124C9.17838 45.1124 9.37838 44.2124 10.0784 43.9124C10.7784 43.5124 11.6784 43.7124 11.9784 44.4124L17.2784 53.6124Z" fill="#FFF49F"/>
<path d="M22.7784 50.4126C23.1784 51.1126 22.9784 52.0126 22.2784 52.3126C21.5784 52.7126 20.6784 52.5126 20.3784 51.8126L15.0784 42.6127C14.6784 41.9127 14.8784 41.0127 15.5784 40.7127C16.2784 40.3127 17.1784 40.5127 17.4784 41.2127L22.7784 50.4126Z" fill="#FFF49F"/>
<path d="M28.2784 47.2125C28.6784 47.9125 28.4784 48.8125 27.7784 49.1125C27.0784 49.5125 26.1784 49.3125 25.8784 48.6125L20.5784 39.4125C20.1784 38.7125 20.3784 37.8125 21.0784 37.5125C21.7784 37.1125 22.6784 37.3125 22.9784 38.0125L28.2784 47.2125Z" fill="#FFF49F"/>
<path d="M33.7784 44.1129C34.1784 44.8129 33.9784 45.7129 33.2784 46.0129C32.5784 46.4129 31.6784 46.2129 31.3784 45.5129L26.0784 36.3128C25.6784 35.6128 25.8784 34.7129 26.5784 34.4129C27.2784 34.0129 28.1784 34.2129 28.4784 34.9129L33.7784 44.1129Z" fill="#FFF49F"/>
<path d="M39.1783 40.9126C39.5783 41.6126 39.3783 42.5126 38.6783 42.8126C37.9783 43.2126 37.0783 43.0126 36.7783 42.3126L31.4783 33.1127C31.0783 32.4127 31.2783 31.5127 31.9783 31.2127C32.6783 30.8127 33.5783 31.0127 33.8783 31.7127L39.1783 40.9126Z" fill="#FFF49F"/>
<path d="M44.6783 37.8125C45.0783 38.5125 44.8783 39.4126 44.1783 39.7126C43.4783 40.1126 42.5783 39.9126 42.2783 39.2126L36.9783 30.0126C36.5783 29.3126 36.7783 28.4126 37.4783 28.1126C38.1783 27.7126 39.0783 27.9126 39.3783 28.6126L44.6783 37.8125Z" fill="#FFF49F"/>
<path d="M50.1783 34.6124C50.5783 35.3124 50.3783 36.2124 49.6783 36.5124C48.9783 36.9124 48.0783 36.7124 47.7783 36.0124L42.4783 26.8124C42.0783 26.1124 42.2783 25.2124 42.9783 24.9124C43.6783 24.5124 44.5783 24.7124 44.8783 25.4124L50.1783 34.6124Z" fill="#FFF49F"/>
<path d="M99.7784 111.013C100.978 113.013 100.578 115.513 98.8784 116.513L56.7784 140.813C55.0784 141.813 52.7784 140.913 51.5784 138.913C50.3784 136.913 50.7784 134.413 52.4784 133.513L94.5784 109.213C96.2784 108.113 98.6784 109.013 99.7784 111.013Z" fill="#FF8C00"/>
<path d="M93.4784 92.4128C97.6784 99.6128 96.3784 108.213 90.6785 111.513L56.2784 131.313C50.5784 134.613 42.5784 131.413 38.3784 124.213L12.3784 79.0128C8.17845 71.8128 9.47844 63.2128 15.1784 59.9128L49.5784 40.1128C55.2784 36.8128 63.2784 40.0128 67.4784 47.2128L93.4784 92.4128Z" fill="url(#paint0_linear)"/>
<path d="M70.5295 103.9L60.9377 109L46.9746 82.7387L44.7736 78.3745L42.42 73.5737C41.6739 76.0144 41.1224 77.6481 40.7656 78.4749L37.7789 85.4382L30.0839 82.1238L38.5149 62.7096L46.3993 58.5174L70.5295 103.9Z" fill="#2F80ED"/>
<defs>
<linearGradient id="paint0_linear" x1="53.3317" y1="27.5399" x2="53.3317" y2="125.115" gradientUnits="userSpaceOnUse">
<stop stop-color="#8BDBFF"/>
<stop offset="1" stop-color="white"/>
</linearGradient>
</defs>
</svg>
