<svg width="99" height="191" viewBox="0 0 99 191" fill="none" xmlns="http://www.w3.org/2000/svg">
<path d="M52.1839 69.7944H46.8152V102.479H52.1839V69.7944Z" fill="#FFB10F"/>
<path d="M58.1117 106.216H40.9316C40.9316 104.155 42.6067 102.437 44.7112 102.437H54.3321C56.4366 102.479 58.1117 104.155 58.1117 106.216Z" fill="#FFDC01"/>
<path d="M87.532 175.709H11.5103L15.8053 109.953H83.6664L87.532 175.709Z" fill="url(#paint0_linear)"/>
<path d="M84.5263 106.216H14.5176V109.953H84.5263V106.216Z" fill="#FFB10F"/>
<path d="M94.4907 186.103H4.51025V179.145C4.51025 177.255 6.05646 175.709 7.94626 175.709H91.0547C92.9445 175.709 94.4907 177.255 94.4907 179.145V186.103Z" fill="#FFB10F"/>
<path d="M91.0542 175.709H76.3652C78.255 175.709 79.8012 177.255 79.8012 179.145V186.103H94.4902V179.145C94.4902 177.255 92.9869 175.709 91.0542 175.709Z" fill="#FFA30F"/>
<path d="M99 186.018H0V190.098H99V186.018Z" fill="#D67205"/>
<path d="M99 188.809H0V190.055H99V188.809Z" fill="#BD6504"/>
<path d="M46.8152 77.3107L49.9076 76.0222L52.1839 76.9671V69.7944H46.8152V77.3107Z" fill="#E09C0D"/>
<path d="M76.3656 82.0356L49.8653 71.384L23.5369 82.4651L25.4267 53.9892L6.78638 32.3423L34.4892 25.3844L49.264 0.945801L64.4684 25.1267L92.2571 31.6551L73.9604 53.5597L76.3656 82.0356Z" fill="#FFDC01"/>
<path d="M27.7031 80.7036C42.7356 64.1249 52.6571 37.4099 53.1725 7.13011L49.264 0.902344L34.4892 25.341L6.78638 32.3418L25.4697 53.9457L23.5369 82.4217L27.7031 80.7036Z" fill="#FFDC01"/>
<path d="M49.178 64.0819L37.0232 47.1167C36.8943 46.9449 36.9373 46.6442 37.1091 46.5153C37.2809 46.3865 37.5815 46.4295 37.7104 46.6013L49.8652 63.5665C49.9941 63.7383 49.9511 64.039 49.7793 64.1678C49.5646 64.2967 49.3069 64.2537 49.178 64.0819Z" fill="#FFF8A4"/>
<path d="M61.934 70.0521L34.8755 33.9311C34.7466 33.7593 34.7896 33.4587 34.9614 33.3298C35.1332 33.201 35.4338 33.2439 35.5626 33.4157L62.6212 69.5367C62.7501 69.7085 62.7071 70.0092 62.5353 70.138C62.3206 70.2669 62.0629 70.2239 61.934 70.0521Z" fill="#FFF8A4"/>
<path d="M70.6108 73.7887L43.0798 34.747C42.9509 34.5752 42.9939 34.2746 43.1657 34.1457C43.3375 34.0169 43.6382 34.0598 43.767 34.2316L71.298 73.2733C71.4269 73.4451 71.3839 73.7457 71.2121 73.8746C70.9974 74.0464 70.7397 74.0034 70.6108 73.7887Z" fill="#FFF8A4"/>
<path d="M63.0077 50.338L44.3244 23.7089C44.1956 23.5371 44.2385 23.2365 44.4103 23.1076C44.5821 22.9788 44.8828 23.0217 45.0116 23.1935L63.6949 49.8226C63.8238 49.9944 63.7808 50.2951 63.609 50.4239C63.3943 50.5528 63.1366 50.5098 63.0077 50.338Z" fill="#FFF8A4"/>
<path d="M61.9343 36.4653L55.1482 26.372C55.0193 26.1573 55.0623 25.8996 55.277 25.7707C55.4918 25.6419 55.7494 25.6848 55.8783 25.8996L62.6644 35.9928C62.7933 36.2076 62.7503 36.4653 62.5356 36.5941C62.3208 36.723 62.0631 36.68 61.9343 36.4653Z" fill="#FFF8A4"/>
<path d="M68.162 145.687H35.7347C35.7347 146.89 34.7898 147.835 33.5872 147.835V163.468C34.7898 163.468 35.7347 164.413 35.7347 165.616H68.162C68.162 164.413 69.1069 163.468 70.3095 163.468V147.792C69.1498 147.835 68.162 146.847 68.162 145.687Z" fill="#FFCC00"/>
<path d="M35.7358 145.688C35.7358 145.73 35.7358 145.816 35.7358 145.859L51.4126 165.659H53.6031L37.7545 145.688H35.7358Z" fill="#F9C569"/>
<path d="M33.5881 147.835V148.909L46.8597 165.659H47.9764L33.8458 147.835C33.7599 147.792 33.674 147.835 33.5881 147.835Z" fill="#F9C569"/>
<path d="M41.8774 145.688L57.6831 165.616H58.7998L42.9512 145.688H41.8774Z" fill="#F9C569"/>
<path d="M46.0864 145.688L61.8921 165.616H63.5671L47.7185 145.688H46.0864Z" fill="#F9C569"/>
<path d="M73.445 178.501H63.5665C63.0081 178.501 63.0081 177.642 63.5665 177.642H73.445C73.7027 177.642 73.8745 177.814 73.8745 178.072C73.8745 178.329 73.6597 178.501 73.445 178.501Z" fill="#F9C569"/>
<path d="M59.0129 178.501H50.337C49.7786 178.501 49.7786 177.642 50.337 177.642H59.0129C59.2706 177.642 59.4424 177.814 59.4424 178.072C59.4424 178.329 59.2706 178.501 59.0129 178.501Z" fill="#F9C569"/>
<path d="M46.0856 178.501H8.59015C8.0318 178.501 8.0318 177.642 8.59015 177.642H46.0856C46.3433 177.642 46.5151 177.814 46.5151 178.072C46.5151 178.329 46.3003 178.501 46.0856 178.501Z" fill="#F9C569"/>
<path d="M48.2754 61.9023H29.3125V57.9131L36.1221 51.0293C38.1383 48.9635 39.4557 47.5348 40.0742 46.7432C40.6927 45.9391 41.138 45.1969 41.4102 44.5166C41.6823 43.8363 41.8184 43.1312 41.8184 42.4014C41.8184 41.3128 41.5153 40.5026 40.9092 39.9707C40.3154 39.4388 39.5176 39.1729 38.5156 39.1729C37.4642 39.1729 36.4437 39.4141 35.4541 39.8965C34.4645 40.3789 33.4316 41.0654 32.3555 41.9561L29.2383 38.2637C30.5742 37.1257 31.6813 36.3216 32.5596 35.8516C33.4378 35.3815 34.3965 35.0228 35.4355 34.7754C36.4746 34.5156 37.6374 34.3857 38.9238 34.3857C40.6185 34.3857 42.1152 34.695 43.4141 35.3135C44.7129 35.932 45.721 36.7979 46.4385 37.9111C47.1559 39.0244 47.5146 40.2985 47.5146 41.7334C47.5146 42.9827 47.292 44.1579 46.8467 45.2588C46.4137 46.3473 45.7334 47.4668 44.8057 48.6172C43.8903 49.7676 42.2699 51.4066 39.9443 53.5342L36.4561 56.8184V57.0781H48.2754V61.9023ZM60.8926 44.5723C63.515 44.5723 65.5993 45.3083 67.1455 46.7803C68.7041 48.2523 69.4834 50.2686 69.4834 52.8291C69.4834 55.8597 68.5495 58.1914 66.6816 59.8242C64.8138 61.457 62.1419 62.2734 58.666 62.2734C55.6478 62.2734 53.2109 61.7848 51.3555 60.8076V55.8535C52.3327 56.373 53.4707 56.7998 54.7695 57.1338C56.0684 57.4554 57.2992 57.6162 58.4619 57.6162C61.9626 57.6162 63.7129 56.1813 63.7129 53.3115C63.7129 50.5778 61.9007 49.2109 58.2764 49.2109C57.6208 49.2109 56.8971 49.279 56.1055 49.415C55.3138 49.5387 54.6706 49.6748 54.1758 49.8232L51.8936 48.5986L52.9141 34.7754H67.6279V39.6367H57.9424L57.4414 44.9619L58.0908 44.832C58.8454 44.6589 59.7793 44.5723 60.8926 44.5723Z" fill="#CB5F00"/>
<defs>
<linearGradient id="paint0_linear" x1="44.5564" y1="100.653" x2="45.2389" y2="185.007" gradientUnits="userSpaceOnUse">
<stop stop-color="#D91B24"/>
<stop offset="1" stop-color="#393C5A"/>
</linearGradient>
</defs>
</svg>
