<svg width="132" height="245" viewBox="0 0 132 245" fill="none" xmlns="http://www.w3.org/2000/svg">
<path d="M70.0904 106.381H63.9082V144.042H70.0904V106.381Z" fill="#FFB10F"/>
<path d="M76.9169 148.347H57.1338C57.1338 145.972 59.0626 143.992 61.4861 143.992H72.5646C74.988 144.042 76.9169 145.972 76.9169 148.347Z" fill="#FFDC01"/>
<path d="M110.794 228.421H23.2539L28.1997 152.653H106.343L110.794 228.421Z" fill="url(#paint0_linear)"/>
<path d="M107.333 148.348H26.7168V152.653H107.333V148.348Z" fill="#FFB10F"/>
<path d="M118.807 240.397H15.1934V232.38C15.1934 230.203 16.9738 228.421 19.15 228.421H114.851C117.027 228.421 118.807 230.203 118.807 232.38V240.397Z" fill="#FFB10F"/>
<path d="M114.85 228.421H97.9355C100.112 228.421 101.892 230.203 101.892 232.38V240.397H118.807V232.38C118.807 230.203 117.076 228.421 114.85 228.421Z" fill="#FFA30F"/>
<path d="M124 240.298H10V245H124V240.298Z" fill="#D67205"/>
<path d="M124 243.515H10V244.95H124V243.515Z" fill="#BD6504"/>
<path d="M63.9082 115.041L67.4692 113.557L70.0904 114.646V106.381H63.9082V115.041Z" fill="#E09C0D"/>
<path d="M107.643 124.341L67.0266 108.008L26.6734 125L29.5699 81.3356L1 48.1428L43.4598 37.4737L66.105 0L89.4085 37.0785L132 47.089L103.957 80.677L107.643 124.341Z" fill="#FFDC01"/>
<path d="M32.4667 122.366C55.8 96.9442 71.2 55.98 72 9.54953L65.9333 0L43 37.4737L0 48.2086L29 81.3356L26 125L32.4667 122.366Z" fill="#FFDC01"/>
<path d="M66.1044 96.7282L47.4373 70.6569C47.2394 70.3928 47.3054 69.9308 47.5693 69.7328C47.8331 69.5348 48.2948 69.6008 48.4927 69.8648L67.1598 95.9362C67.3577 96.2002 67.2917 96.6622 67.0279 96.8603C66.6981 97.0583 66.3023 96.9923 66.1044 96.7282Z" fill="#FFF8A4"/>
<path d="M85.6942 105.903L44.1385 50.3937C43.9406 50.1297 44.0066 49.6676 44.2704 49.4696C44.5343 49.2716 44.996 49.3376 45.1939 49.6016L86.7496 105.111C86.9475 105.375 86.8815 105.837 86.6177 106.035C86.2879 106.233 85.8921 106.167 85.6942 105.903Z" fill="#FFF8A4"/>
<path d="M99.0195 111.645L56.7381 51.6476C56.5402 51.3836 56.6062 50.9215 56.87 50.7235C57.1339 50.5255 57.5956 50.5915 57.7935 50.8555L100.075 110.853C100.273 111.117 100.207 111.579 99.9429 111.777C99.6131 112.041 99.2173 111.975 99.0195 111.645Z" fill="#FFF8A4"/>
<path d="M87.3435 75.6069L58.6502 34.6847C58.4523 34.4207 58.5183 33.9586 58.7821 33.7606C59.046 33.5626 59.5077 33.6286 59.7056 33.8926L88.3988 74.8148C88.5967 75.0788 88.5308 75.5409 88.2669 75.7389C87.9371 75.9369 87.5414 75.8709 87.3435 75.6069Z" fill="#FFF8A4"/>
<path d="M85.6953 54.288L75.2734 38.7771C75.0755 38.4471 75.1415 38.0511 75.4713 37.8531C75.8011 37.6551 76.1969 37.7211 76.3947 38.0511L86.8167 53.5619C87.0146 53.8919 86.9486 54.288 86.6188 54.486C86.289 54.684 85.8932 54.618 85.6953 54.288Z" fill="#FFF8A4"/>
<path d="M88.4892 193.828H51.1487C51.1487 195.214 50.0606 196.303 48.6758 196.303V214.317C50.0606 214.317 51.1487 215.405 51.1487 216.791H88.4892C88.4892 215.405 89.5773 214.317 90.9621 214.317V196.253C89.6268 196.303 88.4892 195.164 88.4892 193.828Z" fill="#FFCC00"/>
<path d="M51.1509 193.828C51.1509 193.878 51.1509 193.977 51.1509 194.026L69.2029 216.841H71.7253L53.4754 193.828H51.1509Z" fill="#F9C569"/>
<path d="M48.6777 196.303V197.54L63.9601 216.841H65.2461L48.9745 196.303C48.8756 196.253 48.7766 196.303 48.6777 196.303Z" fill="#F9C569"/>
<path d="M58.2229 193.828L76.4233 216.791H77.7092L59.4593 193.828H58.2229Z" fill="#F9C569"/>
<path d="M63.0696 193.828L81.27 216.791H83.1989L64.949 193.828H63.0696Z" fill="#F9C569"/>
<path d="M94.5723 231.638H83.1971C82.5541 231.638 82.5541 230.648 83.1971 230.648H94.5723C94.8691 230.648 95.0669 230.846 95.0669 231.143C95.0669 231.44 94.8196 231.638 94.5723 231.638Z" fill="#F9C569"/>
<path d="M77.9541 231.638H67.9637C67.3207 231.638 67.3207 230.648 67.9637 230.648H77.9541C78.2509 230.648 78.4487 230.846 78.4487 231.143C78.4487 231.44 78.2509 231.638 77.9541 231.638Z" fill="#F9C569"/>
<path d="M53.1885 84H34.2256V80.0107L41.0352 73.127C43.0515 71.0612 44.3688 69.6325 44.9873 68.8408C45.6058 68.0368 46.0511 67.2946 46.3233 66.6143C46.5954 65.9339 46.7315 65.2288 46.7315 64.499C46.7315 63.4105 46.4284 62.6003 45.8223 62.0684C45.2285 61.5365 44.4307 61.2705 43.4287 61.2705C42.3773 61.2705 41.3568 61.5117 40.3672 61.9941C39.3776 62.4766 38.3448 63.1631 37.2686 64.0537L34.1514 60.3613C35.4873 59.2233 36.5944 58.4193 37.4727 57.9492C38.3509 57.4792 39.3096 57.1204 40.3487 56.873C41.3877 56.6133 42.5505 56.4834 43.8369 56.4834C45.5316 56.4834 47.0284 56.7926 48.3272 57.4111C49.626 58.0296 50.6341 58.8955 51.3516 60.0088C52.069 61.1221 52.4278 62.3962 52.4278 63.8311C52.4278 65.0804 52.2051 66.2555 51.7598 67.3564C51.3269 68.445 50.6465 69.5645 49.7188 70.7148C48.8034 71.8652 47.183 73.5042 44.8575 75.6318L41.3692 78.916V79.1758H53.1885V84ZM65.8057 66.6699C68.4281 66.6699 70.5124 67.4059 72.0586 68.8779C73.6172 70.3499 74.3965 72.3662 74.3965 74.9268C74.3965 77.9574 73.4626 80.2891 71.5948 81.9219C69.7269 83.5547 67.055 84.3711 63.5791 84.3711C60.5609 84.3711 58.1241 83.8825 56.2686 82.9053V77.9512C57.2458 78.4707 58.3838 78.8975 59.6826 79.2314C60.9815 79.5531 62.2123 79.7139 63.375 79.7139C66.8757 79.7139 68.626 78.279 68.626 75.4092C68.626 72.6755 66.8138 71.3086 63.1895 71.3086C62.5339 71.3086 61.8103 71.3766 61.0186 71.5127C60.2269 71.6364 59.5837 71.7725 59.0889 71.9209L56.8067 70.6963L57.8272 56.873H72.541V61.7344H62.8555L62.3545 67.0596L63.0039 66.9297C63.7585 66.7565 64.6924 66.6699 65.8057 66.6699ZM101.356 84H94.8252L87.7188 72.5703L85.2881 74.3145V84H79.5362V56.873H85.2881V69.2861L87.5518 66.0947L94.8994 56.873H101.282L91.8194 68.8779L101.356 84Z" fill="#CB5F00"/>
<defs>
<linearGradient id="paint0_linear" x1="61.3071" y1="141.937" x2="62.094" y2="239.134" gradientUnits="userSpaceOnUse">
<stop stop-color="#D91B24"/>
<stop offset="1" stop-color="#393C5A"/>
</linearGradient>
</defs>
</svg>
