<svg width="237" height="294" viewBox="0 0 237 294" fill="none" xmlns="http://www.w3.org/2000/svg">
<path d="M92.4875 245.356C96.9732 245.356 100.538 246.615 103.183 249.133C105.849 251.651 107.182 255.1 107.182 259.48C107.182 264.664 105.585 268.652 102.39 271.445C99.1949 274.238 94.6246 275.635 88.679 275.635C83.5162 275.635 79.3479 274.799 76.1741 273.127V264.653C77.8456 265.542 79.7922 266.272 82.0139 266.843C84.2356 267.393 86.3409 267.668 88.3298 267.668C94.3178 267.668 97.3118 265.214 97.3118 260.305C97.3118 255.629 94.212 253.291 88.0125 253.291C86.891 253.291 85.6532 253.407 84.2991 253.64C82.9449 253.852 81.8446 254.084 80.9983 254.338L77.0945 252.244L78.8401 228.599H104.009V236.914H87.4412L86.5842 246.023L87.6951 245.801C88.9858 245.505 90.5833 245.356 92.4875 245.356Z" fill="url(#paint0_linear)"/>
<path d="M121.132 235.719C121.4 236.36 122.025 236.779 122.718 236.779H141.521V279.678C141.521 280.625 142.29 281.394 143.237 281.394H170.693C171.64 281.394 172.409 280.625 172.409 279.678V236.779H191.284C191.977 236.779 192.602 236.36 192.87 235.722C193.134 235.08 192.99 234.342 192.499 233.851L158.266 199.505C157.943 199.182 157.507 199 157.051 199C156.594 199 156.158 199.182 155.836 199.501L121.503 233.848C121.012 234.339 120.865 235.077 121.132 235.719Z" fill="url(#paint1_linear)"/>
<path d="M237 164.461L55.8662 199.055V122.991L237 88.1826V164.461Z" fill="url(#paint2_linear)"/>
<path d="M166.738 177.782L126.128 185.517V109.454L166.738 101.719V177.782Z" fill="#FFD34F"/>
<path d="M0.000244141 118.265L55.8661 199.055V122.992L0.000244141 42.2012V118.265Z" fill="url(#paint3_linear)"/>
<path d="M21.7007 149.635L34.1631 167.684V91.6207L21.7007 73.5718V149.635Z" fill="#BA9527"/>
<path d="M237 88.1834L166.738 101.72L126.128 109.455L55.8661 122.992L34.1644 91.6213L21.702 73.5724L0.000244141 42.2016L72.411 29.5244L111.087 22.8634L166.094 13.1943L190.804 39.6231L206.059 55.5235L237 88.1834Z" fill="url(#paint4_linear)"/>
<path d="M166.739 101.72L126.129 109.455L104.212 76.7953L92.3944 59.3909L72.4116 29.5242L111.088 22.8633L131.286 51.4408L143.318 68.6302L166.739 101.72Z" fill="#FFE8A4"/>
<path d="M206.058 55.5234L143.316 68.6303L104.21 76.7953L34.1631 91.6213L21.7007 73.5723L92.3924 59.391L131.284 51.4408L190.802 39.623L206.058 55.5234Z" fill="#FFD34F"/>
<path d="M140.955 67.5565C132.575 66.0524 124.625 62.6146 117.964 57.4577C111.518 52.5157 106.361 46.2845 100.13 41.1277C93.899 35.9708 86.1637 31.8883 78.2136 32.533C70.2634 33.3924 62.5282 40.4831 63.6025 48.6481C64.462 55.0941 70.6932 59.6064 76.7095 61.97C82.9407 64.3335 89.6016 65.4078 95.1882 68.6308C104.642 74.0025 109.584 84.5311 117.105 92.4812C122.906 98.4976 130.427 103.01 138.806 103.654C147.186 104.299 155.996 100.646 160.078 93.3407C164.161 86.0352 162.442 75.7215 155.351 71.2093C151.269 68.6309 145.897 68.416 140.955 67.5565Z" fill="#FFD34F"/>
<path d="M156.854 95.059C153.846 94.6293 150.408 93.7697 146.97 92.2657C128.921 84.9601 116.029 62.399 116.029 62.399C116.029 62.399 179.63 41.5567 183.713 62.399C187.151 80.6628 176.192 97.6374 156.854 95.059Z" fill="#E8BD3E"/>
<path d="M156.854 95.0585C160.721 93.9841 164.804 91.6206 166.308 86.2489C170.176 73.5716 116.029 62.6133 116.029 62.6133C116.029 62.6133 179.63 41.7711 183.712 62.6133C187.15 80.6623 176.192 97.6369 156.854 95.0585Z" fill="#FFD34F"/>
<path d="M64.0311 36.3992C65.5352 38.7628 67.6839 41.3412 70.2623 43.7048C83.799 56.1672 109.368 57.8861 109.368 57.8861C109.368 57.8861 104.212 -4.85552 83.5842 0.301322C65.7501 4.59869 54.5769 20.7138 64.0311 36.3992Z" fill="#E8BD3E"/>
<path d="M64.0311 36.3992C63.3865 32.5316 64.246 28.2342 68.5434 24.7963C78.6422 16.4164 109.368 57.8861 109.368 57.8861C109.368 57.8861 104.212 -4.85552 83.5842 0.301322C65.7501 4.59869 54.5769 20.7138 64.0311 36.3992Z" fill="#FFD34F"/>
<path d="M120.326 62.8272C118.822 66.2651 114.309 67.3394 110.442 65.4055C106.574 63.4717 104.64 59.3892 106.144 55.9513C107.648 52.7283 112.161 51.4391 116.028 53.373C120.111 55.3068 122.045 59.3893 120.326 62.8272Z" fill="#E8BD3E"/>
<defs>
<linearGradient id="paint0_linear" x1="92.0002" y1="205" x2="92.0002" y2="294" gradientUnits="userSpaceOnUse">
<stop stop-color="#FFC700"/>
<stop offset="1" stop-color="#FC9517"/>
</linearGradient>
<linearGradient id="paint1_linear" x1="157" y1="281.394" x2="157" y2="199" gradientUnits="userSpaceOnUse">
<stop stop-color="#FFC700"/>
<stop offset="1" stop-color="#FC9517"/>
</linearGradient>
<linearGradient id="paint2_linear" x1="134.604" y1="72.5021" x2="135.419" y2="214.737" gradientUnits="userSpaceOnUse">
<stop stop-color="#D91B24"/>
<stop offset="1" stop-color="#393C5A"/>
</linearGradient>
<linearGradient id="paint3_linear" x1="24.2848" y1="20.0175" x2="29.5661" y2="221.109" gradientUnits="userSpaceOnUse">
<stop stop-color="#960E14"/>
<stop offset="1" stop-color="#393C5A"/>
</linearGradient>
<linearGradient id="paint4_linear" x1="103.023" y1="-2.33421" x2="103.633" y2="138.524" gradientUnits="userSpaceOnUse">
<stop stop-color="#F83740"/>
<stop offset="1" stop-color="#393C5A"/>
</linearGradient>
</defs>
</svg>
