<svg width="234" height="281" viewBox="0 0 234 281" fill="none" xmlns="http://www.w3.org/2000/svg">
<path d="M74.5566 40.6196C79.0423 40.6196 82.6076 41.8786 85.2524 44.3965C87.9185 46.9144 89.2515 50.3633 89.2515 54.7432C89.2515 59.9271 87.654 63.9155 84.459 66.7085C81.264 69.5015 76.6937 70.8979 70.748 70.8979C65.5853 70.8979 61.417 70.0622 58.2432 68.3906V59.9165C59.9147 60.8052 61.8613 61.5352 64.083 62.1064C66.3047 62.6566 68.41 62.9316 70.3989 62.9316C76.3869 62.9316 79.3809 60.4772 79.3809 55.5684C79.3809 50.8923 76.2811 48.5542 70.0815 48.5542C68.9601 48.5542 67.7223 48.6706 66.3682 48.9033C65.014 49.1149 63.9137 49.3477 63.0674 49.6016L59.1636 47.5068L60.9092 23.8618H86.0776V32.1772H69.5103L68.6533 41.2861L69.7642 41.064C71.0549 40.7677 72.6523 40.6196 74.5566 40.6196Z" fill="#B499FF"/>
<path d="M233.104 150.647V247.688L137.43 280.263V183.222L233.104 150.647Z" fill="#FABB22"/>
<path d="M146.769 199.168L139.252 205.091L137.429 214.203V186.412V185.956L139.479 197.574L146.769 199.168Z" fill="#CB851E"/>
<path d="M171.599 186.64L178.888 188.235L171.371 194.157L168.865 206.914L166.815 195.296L159.526 193.702L167.043 187.779L169.549 175.022L171.599 186.64Z" fill="#CB851E"/>
<path d="M203.717 175.706L211.006 177.301L203.489 183.224L200.756 195.98L198.933 184.363L191.644 182.768L199.161 176.845L201.667 164.089L203.717 175.706Z" fill="#CB851E"/>
<path d="M233.104 156.799V184.59L232.876 185.045L231.054 173.428L223.764 171.833L231.054 165.911L233.104 156.799Z" fill="#CB851E"/>
<path d="M155.882 244.044L163.171 245.866L155.654 251.561L153.148 264.089L151.326 252.7L144.037 251.105L151.326 245.41L154.06 232.654L155.882 244.044Z" fill="#CB851E"/>
<path d="M187.546 233.338L194.836 234.932L187.318 240.627L184.813 253.384L182.99 241.994L175.701 240.172L182.99 234.477L185.496 221.948L187.546 233.338Z" fill="#CB851E"/>
<path d="M219.208 222.631L226.498 224.226L218.981 229.92L216.475 242.449L214.425 231.287L207.363 229.465L214.652 223.77L217.158 211.241L219.208 222.631Z" fill="#CB851E"/>
<path d="M189.593 262.495L180.937 265.456V168.416L189.593 165.455V262.495Z" fill="#705EE4"/>
<path d="M0.0698242 144.042V241.31L137.43 280.263V183.223L0.0698242 144.042Z" fill="url(#paint0_linear)"/>
<path d="M123.99 198.713L134.696 204.863L137.43 214.203V186.412V185.957L134.469 197.346L123.99 198.713Z" fill="#CB851E"/>
<path d="M88.4536 184.361L77.9751 185.5L88.6814 191.879L92.3261 204.635L95.2875 193.245L105.766 192.106L94.8319 185.728L91.1872 172.972L88.4536 184.361Z" fill="#CB851E"/>
<path d="M42.4388 171.15L31.9602 172.289L42.6666 178.667L46.3113 191.651L49.0448 180.262L59.5234 178.895L48.817 172.745L45.1723 159.76L42.4388 171.15Z" fill="#CB851E"/>
<path d="M0.0693359 150.192V178.211L0.297144 178.439L3.03067 167.049L13.5092 165.91L2.8029 159.532L0.0693359 150.192Z" fill="#CB851E"/>
<path d="M111.007 242.904L100.528 244.043L111.234 250.194L114.879 262.95L117.613 251.788L127.863 250.649L117.385 244.271L113.74 231.515L111.007 242.904Z" fill="#CB851E"/>
<path d="M65.4468 229.921L55.196 231.06L65.6746 237.21L69.3193 250.194L72.0528 238.805L82.5314 237.666L71.825 231.515L68.1803 218.759L65.4468 229.921Z" fill="#CB851E"/>
<path d="M19.888 216.936L9.63721 218.075L20.1157 224.454L23.7605 237.21L26.7218 225.82L36.9725 224.681L26.494 218.531L22.8493 205.774L19.888 216.936Z" fill="#CB851E"/>
<path d="M62.4858 259.077L75.0145 262.494V165.454L62.4858 161.809V259.077Z" fill="#705EE4"/>
<path d="M233.104 150.648L189.595 165.454L180.939 168.416L137.43 183.222L75.0143 165.454L62.4856 161.81L0.0698242 144.042L60.4354 130.374L70.4584 128.096L100.527 121.262L147.453 131.513L159.982 134.474L233.104 150.648Z" fill="#F8D73A"/>
<path d="M189.595 165.455L180.939 168.416L60.4353 130.374L70.4583 128.096L189.595 165.455Z" fill="#B499FF"/>
<path d="M159.982 134.475L75.015 165.455L62.4863 161.81L147.454 131.513L159.982 134.475Z" fill="#B499FF"/>
<path d="M118.752 147.231C118.752 147.231 123.536 103.267 144.948 108.734C166.361 114.201 144.948 136.069 144.948 136.069C144.948 136.069 148.821 118.985 141.076 118.301C133.559 117.618 122.397 133.336 118.752 147.231Z" fill="#705EE4"/>
<path d="M161.122 151.104L148.365 160.215C148.365 160.215 129.23 156.343 118.752 147.459L130.597 141.992C130.369 141.764 146.315 150.42 161.122 151.104Z" fill="#705EE4"/>
<path d="M118.751 147.232C118.751 147.232 165.449 117.163 174.106 132.653C182.762 148.143 175.7 153.838 170.689 155.432C165.677 157.255 148.593 159.988 148.593 159.988C148.593 159.988 156.565 142.676 147.681 138.575C145.631 137.664 143.353 137.664 141.303 138.575L118.751 147.232Z" fill="#B499FF"/>
<path d="M76.1533 151.104L88.9098 160.215C88.9098 160.215 108.045 156.343 118.523 147.459L106.678 141.992C106.906 141.764 90.96 150.42 76.1533 151.104Z" fill="#B499FF"/>
<path d="M118.751 147.231C118.751 147.231 113.968 103.267 92.5551 108.734C71.1424 114.201 92.5551 136.069 92.5551 136.069C92.5551 136.069 88.6826 118.985 96.4276 118.301C104.173 117.618 114.879 133.336 118.751 147.231Z" fill="#B499FF"/>
<path d="M118.751 147.232C118.751 147.232 72.0533 117.163 63.3971 132.653C54.7409 148.143 61.8025 153.838 66.814 155.432C71.8255 157.255 88.9101 159.988 88.9101 159.988C88.9101 159.988 80.9373 142.676 89.8213 138.575C91.8714 137.664 94.1494 137.664 96.1995 138.575L118.751 147.232Z" fill="#705EE4"/>
<path d="M171.937 52.9386C171.67 52.2969 171.045 51.8782 170.352 51.8782H151.548V8.9792C151.548 8.03199 150.78 7.26318 149.832 7.26318H122.377C121.43 7.26318 120.661 8.03199 120.661 8.9792V51.8783H101.785C101.092 51.8783 100.467 52.2971 100.2 52.9354C99.9355 53.5771 100.08 54.315 100.57 54.8059L134.804 89.1526C135.126 89.4751 135.562 89.6571 136.019 89.6571C136.475 89.6571 136.911 89.4751 137.234 89.156L171.567 54.8092C172.058 54.3183 172.205 53.5805 171.937 52.9386Z" fill="#B499FF"/>
<defs>
<linearGradient id="paint0_linear" x1="68.7499" y1="144.042" x2="68.7499" y2="280.263" gradientUnits="userSpaceOnUse">
<stop stop-color="#FFC700"/>
<stop offset="1" stop-color="#FC9517"/>
</linearGradient>
</defs>
</svg>
