<svg width="199" height="320" viewBox="0 0 199 320" fill="none" xmlns="http://www.w3.org/2000/svg">
<path d="M64.2314 264.977C64.2314 267.876 63.3534 270.341 61.5972 272.372C59.841 274.403 57.376 275.8 54.2021 276.562V276.752C57.9473 277.217 60.7826 278.36 62.708 280.18C64.6335 281.978 65.5962 284.411 65.5962 287.479C65.5962 291.944 63.9775 295.425 60.7402 297.921C57.5029 300.397 52.8797 301.635 46.8706 301.635C41.8348 301.635 37.3703 300.799 33.4771 299.127V290.78C35.2756 291.69 37.2539 292.431 39.4121 293.002C41.5703 293.573 43.7074 293.859 45.8232 293.859C49.0605 293.859 51.4515 293.309 52.9961 292.208C54.5407 291.108 55.313 289.341 55.313 286.908C55.313 284.729 54.4243 283.184 52.647 282.274C50.8696 281.365 48.0343 280.91 44.1411 280.91H40.6182V273.388H44.2046C47.8016 273.388 50.4253 272.922 52.0757 271.991C53.7472 271.039 54.583 269.42 54.583 267.135C54.583 263.623 52.3825 261.867 47.9814 261.867C46.458 261.867 44.9028 262.121 43.3159 262.628C41.7502 263.136 40.0046 264.014 38.0791 265.263L33.5405 258.502C37.7723 255.456 42.8187 253.932 48.6797 253.932C53.4827 253.932 57.2702 254.905 60.042 256.852C62.835 258.799 64.2314 261.507 64.2314 264.977ZM111.299 301H100.127L87.9717 281.449L83.814 284.433V301H73.9751V254.599H83.814V275.832L87.686 270.373L100.254 254.599H111.172L94.9858 275.133L111.299 301Z" fill="url(#paint0_linear)"/>
<path d="M123.133 261.719C123.401 262.36 124.026 262.779 124.719 262.779H143.522V305.678C143.522 306.625 144.291 307.394 145.238 307.394H172.694C173.641 307.394 174.41 306.625 174.41 305.678V262.779H193.285C193.979 262.779 194.603 262.36 194.871 261.722C195.135 261.08 194.991 260.342 194.5 259.851L160.267 225.505C159.944 225.182 159.508 225 159.052 225C158.596 225 158.16 225.182 157.837 225.501L123.504 259.848C123.013 260.339 122.866 261.077 123.133 261.719Z" fill="url(#paint1_linear)"/>
<path d="M4.01416 187.333L42.7173 206.921V100.251L4.01416 80.6636V187.333Z" fill="url(#paint2_linear)"/>
<path d="M42.7173 103.319V115.355L4.01416 95.5313V83.4956L42.7173 103.319Z" fill="#CD8317"/>
<path d="M37.7613 116.771C37.7613 116.063 33.2774 113.467 27.1416 110.635C30.2095 108.747 32.3334 107.095 31.8615 106.623C31.6255 106.151 28.7935 106.859 25.7256 108.511C25.4896 102.376 25.0176 97.6557 24.3096 97.1837C23.6016 96.9477 23.1296 101.196 22.8937 107.095C19.5897 102.612 16.9938 99.3076 16.7578 99.5436C16.5218 99.7796 18.4097 103.32 21.4777 107.803C15.3418 105.208 10.8579 103.556 10.8579 104.264C10.8579 104.972 15.3418 107.567 21.4777 110.399C18.4097 112.287 16.2858 113.939 16.7578 114.411C16.9938 114.883 19.8257 114.175 22.8937 112.523C23.1296 118.659 23.6016 123.379 24.3096 123.851C25.0176 124.087 25.4896 119.839 25.7256 113.939C29.0295 118.423 31.6255 121.727 31.8615 121.491C32.0975 121.255 30.2095 117.715 27.1416 113.231C33.2774 115.827 37.7613 117.479 37.7613 116.771Z" fill="url(#paint3_linear)"/>
<path d="M37.7613 191.346C37.7613 190.638 33.2774 188.042 27.1416 185.21C30.2095 183.322 32.3334 181.67 31.8615 181.198C31.6255 180.726 28.7935 181.434 25.7256 183.086C25.4896 176.95 25.0176 172.23 24.3096 171.758C23.6016 171.522 23.1296 175.77 22.8937 181.67C19.5897 177.186 16.9938 173.882 16.7578 174.118C16.5218 174.354 18.4097 177.894 21.4777 182.378C15.3418 179.782 10.8579 178.13 10.8579 178.838C10.8579 179.546 15.3418 182.142 21.4777 184.974C18.4097 186.862 16.2858 188.514 16.7578 188.986C16.9938 189.458 19.8257 188.75 22.8937 187.098C23.1296 193.234 23.6016 197.954 24.3096 198.426C25.0176 198.662 25.4896 194.414 25.7256 188.514C29.0295 192.998 31.6255 196.302 31.8615 196.066C32.0975 195.83 30.2095 192.29 27.1416 187.806C33.2774 190.402 37.7613 192.054 37.7613 191.346Z" fill="url(#paint4_linear)"/>
<path d="M18.8809 145.563C18.8809 144.855 14.397 142.259 8.2611 139.427C11.329 137.539 13.453 135.887 12.981 135.415C12.745 134.943 9.91304 135.651 6.84511 137.303C6.60912 131.167 6.13711 126.447 5.42913 125.975C4.72115 125.739 4.24918 129.987 4.01318 135.887V141.551C4.24918 147.687 4.72115 152.407 5.42913 152.879C6.13711 153.115 6.60912 148.867 6.84511 142.967C10.149 147.451 12.745 150.755 12.981 150.519C13.217 150.283 11.329 146.743 8.2611 142.259C14.397 144.619 18.8809 146.271 18.8809 145.563Z" fill="url(#paint5_linear)"/>
<path d="M42.7161 142.967C42.0081 142.731 41.5361 146.979 41.3001 152.879C37.9962 148.395 35.4003 145.091 35.1643 145.327C34.9283 145.563 36.8162 149.103 39.8842 153.587C33.7483 150.991 29.2644 149.339 29.2644 150.047C29.2644 150.755 33.7483 153.351 39.8842 156.183C36.8162 158.071 34.6923 159.723 35.1643 160.195C35.4003 160.667 38.2322 159.959 41.3001 158.307C41.5361 164.443 42.0081 169.163 42.7161 169.635V142.967Z" fill="url(#paint6_linear)"/>
<path d="M193.28 100.251H42.7153V207.157H193.28V100.251Z" fill="url(#paint7_linear)"/>
<path d="M75.0489 119.131C75.0489 118.423 70.565 117.951 64.4291 117.715C67.4971 114.411 69.621 111.815 69.149 111.579C68.677 111.343 66.0811 113.231 63.0132 116.299C62.7772 110.163 62.3052 105.679 61.5972 105.679C60.8892 105.679 60.4172 110.163 60.1813 116.299C56.8773 113.231 54.2814 111.107 54.0454 111.579C53.8094 111.815 55.6973 114.647 58.7653 117.715C52.6294 117.951 48.1455 118.423 48.1455 119.131C48.1455 119.839 52.6294 120.311 58.7653 120.547C55.6973 123.851 53.5734 126.447 54.0454 126.683C54.2814 126.919 57.1133 125.031 60.1813 121.963C60.4172 128.099 60.8892 132.583 61.5972 132.583C62.3052 132.583 62.7772 128.099 63.0132 121.963C66.3171 125.031 68.913 127.155 69.149 126.683C69.385 126.447 67.4971 123.615 64.4291 120.547C70.565 120.311 75.0489 119.603 75.0489 119.131Z" fill="url(#paint8_linear)"/>
<path d="M112.807 119.131C112.807 118.423 108.324 117.951 102.188 117.715C105.256 114.411 107.38 111.815 106.908 111.579C106.672 111.343 103.84 113.231 100.772 116.299C100.536 110.163 100.064 105.679 99.3557 105.679C98.6478 105.679 98.1758 110.163 97.9398 116.299C94.6359 113.231 92.0399 111.107 91.8039 111.579C91.5679 111.815 93.4559 114.647 96.5238 117.715C90.388 117.951 85.9041 118.423 85.9041 119.131C85.9041 119.839 90.388 120.311 96.5238 120.547C93.4559 123.851 91.3319 126.447 91.8039 126.683C92.0399 126.919 94.8719 125.031 97.9398 121.963C98.1758 128.099 98.6478 132.583 99.3557 132.583C100.064 132.583 100.536 128.099 100.772 121.963C104.076 125.031 106.672 127.155 106.908 126.683C107.144 126.447 105.256 123.615 102.188 120.547C108.324 120.311 112.807 119.603 112.807 119.131Z" fill="url(#paint9_linear)"/>
<path d="M150.566 119.131C150.566 118.423 146.082 117.951 139.946 117.715C143.014 114.411 145.138 111.815 144.666 111.579C144.43 111.343 141.598 113.231 138.53 116.299C138.294 110.163 137.823 105.679 137.115 105.679C136.407 105.679 135.935 110.163 135.699 116.299C132.395 113.231 129.799 111.107 129.563 111.579C129.327 111.815 131.215 114.647 134.283 117.715C128.147 117.951 123.663 118.423 123.663 119.131C123.663 119.839 128.147 120.311 134.283 120.547C131.215 123.851 129.091 126.447 129.563 126.683C129.799 126.919 132.631 125.031 135.699 121.963C135.935 128.099 136.407 132.583 137.115 132.583C137.823 132.583 138.294 128.099 138.53 121.963C141.834 125.031 144.43 127.155 144.666 126.683C144.902 126.447 143.014 123.615 139.946 120.547C146.082 120.311 150.566 119.603 150.566 119.131Z" fill="url(#paint10_linear)"/>
<path d="M188.326 119.131C188.326 118.423 183.842 117.951 177.706 117.715C180.774 114.411 182.898 111.815 182.426 111.579C182.19 111.343 179.358 113.231 176.29 116.299C176.054 110.163 175.582 105.679 174.874 105.679C174.166 105.679 173.694 110.163 173.458 116.299C170.154 113.231 167.558 111.107 167.322 111.579C167.086 111.815 168.974 114.647 172.042 117.715C165.907 117.951 161.423 118.423 161.423 119.131C161.423 119.839 165.907 120.311 172.042 120.547C168.974 123.851 166.85 126.447 167.322 126.683C167.558 126.919 170.39 125.031 173.458 121.963C173.694 128.099 174.166 132.583 174.874 132.583C175.582 132.583 176.054 128.099 176.29 121.963C179.594 125.031 182.19 127.155 182.426 126.683C182.662 126.447 180.774 123.615 177.706 120.547C183.606 120.311 188.326 119.603 188.326 119.131Z" fill="url(#paint11_linear)"/>
<path d="M75.0489 193.469C75.0489 192.761 70.565 192.289 64.4291 192.053C67.4971 188.749 69.621 186.153 69.149 185.917C68.913 185.681 66.0811 187.569 63.0132 190.637C62.7772 184.501 62.3052 180.018 61.5972 180.018C60.8892 180.018 60.4172 184.501 60.1813 190.637C56.8773 187.569 54.2814 185.445 54.0454 185.917C53.8094 186.153 55.6973 188.985 58.7653 192.053C52.6294 192.289 48.1455 192.761 48.1455 193.469C48.1455 194.177 52.6294 194.649 58.7653 194.885C55.6973 198.189 53.5734 200.785 54.0454 201.021C54.2814 201.257 57.1133 199.369 60.1813 196.301C60.4172 202.437 60.8892 206.921 61.5972 206.921C62.3052 206.921 62.7772 202.437 63.0132 196.301C66.3171 199.369 68.913 201.493 69.149 201.021C69.385 200.785 67.4971 197.953 64.4291 194.885C70.565 194.885 75.0489 194.177 75.0489 193.469Z" fill="url(#paint12_linear)"/>
<path d="M112.807 193.469C112.807 192.761 108.324 192.289 102.188 192.053C105.256 188.749 107.38 186.153 106.908 185.917C106.672 185.681 103.84 187.569 100.772 190.637C100.536 184.501 100.064 180.018 99.3557 180.018C98.6478 180.018 98.1758 184.501 97.9398 190.637C94.6359 187.569 92.0399 185.445 91.8039 185.917C91.5679 186.153 93.4559 188.985 96.5238 192.053C90.388 192.289 85.9041 192.761 85.9041 193.469C85.9041 194.177 90.388 194.649 96.5238 194.885C93.4559 198.189 91.3319 200.785 91.8039 201.021C92.0399 201.257 94.8719 199.369 97.9398 196.301C98.1758 202.437 98.6478 206.921 99.3557 206.921C100.064 206.921 100.536 202.437 100.772 196.301C104.076 199.369 106.672 201.493 106.908 201.021C107.144 200.785 105.256 197.953 102.188 194.885C108.324 194.885 112.807 194.177 112.807 193.469Z" fill="url(#paint13_linear)"/>
<path d="M150.566 193.469C150.566 192.761 146.082 192.289 139.946 192.053C143.014 188.749 145.138 186.153 144.666 185.917C144.43 185.681 141.598 187.569 138.53 190.637C138.294 184.501 137.823 180.018 137.115 180.018C136.407 180.018 135.935 184.501 135.699 190.637C132.395 187.569 129.799 185.445 129.563 185.917C129.327 186.153 131.215 188.985 134.283 192.053C128.147 192.289 123.663 192.761 123.663 193.469C123.663 194.177 128.147 194.649 134.283 194.885C131.215 198.189 129.091 200.785 129.563 201.021C129.799 201.257 132.631 199.369 135.699 196.301C135.935 202.437 136.407 206.921 137.115 206.921C137.823 206.921 138.294 202.437 138.53 196.301C141.834 199.369 144.43 201.493 144.666 201.021C144.902 200.785 143.014 197.953 139.946 194.885C146.082 194.885 150.566 194.177 150.566 193.469Z" fill="url(#paint14_linear)"/>
<path d="M188.326 193.469C188.326 192.761 183.842 192.289 177.706 192.053C180.774 188.749 182.898 186.153 182.426 185.917C182.19 185.681 179.358 187.569 176.29 190.637C176.054 184.501 175.582 180.018 174.874 180.018C174.166 180.018 173.694 184.501 173.458 190.637C170.154 187.569 167.558 185.445 167.322 185.917C167.086 186.153 168.974 188.985 172.042 192.053C165.907 192.289 161.423 192.761 161.423 193.469C161.423 194.177 165.907 194.649 172.042 194.885C168.974 198.189 166.85 200.785 167.322 201.021C167.558 201.257 170.39 199.369 173.458 196.301C173.694 202.437 174.166 206.921 174.874 206.921C175.582 206.921 176.054 202.437 176.29 196.301C179.594 199.369 182.19 201.493 182.426 201.021C182.662 200.785 180.774 197.953 177.706 194.885C183.606 194.885 188.326 194.177 188.326 193.469Z" fill="url(#paint15_linear)"/>
<path d="M93.9295 156.418C93.9295 155.71 89.4456 155.238 83.3097 155.002C86.3777 151.698 88.5016 149.102 88.0296 148.866C87.7936 148.63 84.9617 150.518 81.8938 153.586C81.6578 147.45 81.1858 142.966 80.4778 142.966C79.7698 142.966 79.2979 147.45 79.0619 153.586C75.7579 150.518 73.162 148.394 72.926 148.866C72.69 149.102 74.578 151.934 77.6459 155.002C71.51 155.238 67.0261 155.71 67.0261 156.418C67.0261 157.125 71.51 157.597 77.6459 157.833C74.578 161.137 72.454 163.733 72.926 163.969C73.162 164.205 75.9939 162.317 79.0619 159.249C79.2979 165.385 79.7698 169.869 80.4778 169.869C81.1858 169.869 81.6578 165.385 81.8938 159.249C85.1977 162.317 87.7936 164.441 88.0296 163.969C88.2656 163.733 86.3777 160.901 83.3097 157.833C89.4456 157.597 93.9295 157.125 93.9295 156.418Z" fill="url(#paint16_linear)"/>
<path d="M131.688 156.418C131.688 155.71 127.204 155.238 121.069 155.002C124.136 151.698 126.26 149.102 125.788 148.866C125.316 148.63 122.72 150.518 119.653 153.586C119.417 147.45 118.945 142.966 118.237 142.966C117.529 142.966 117.057 147.45 116.821 153.586C113.517 150.518 110.921 148.394 110.685 148.866C110.449 149.102 112.337 151.934 115.405 155.002C109.269 155.238 104.785 155.71 104.785 156.418C104.785 157.125 109.269 157.597 115.405 157.833C112.337 161.137 110.213 163.733 110.685 163.969C110.921 164.205 113.753 162.317 116.821 159.249C117.057 165.385 117.529 169.869 118.237 169.869C118.945 169.869 119.417 165.385 119.653 159.249C122.956 162.317 125.552 164.441 125.788 163.969C126.024 163.733 124.136 160.901 121.069 157.833C127.204 157.597 131.688 157.125 131.688 156.418Z" fill="url(#paint17_linear)"/>
<path d="M169.447 156.418C169.447 155.71 164.963 155.238 158.827 155.002C161.895 151.698 164.019 149.102 163.547 148.866C163.075 148.63 160.479 150.518 157.411 153.586C157.175 147.45 156.703 142.966 155.995 142.966C155.287 142.966 154.815 147.45 154.579 153.586C151.276 150.518 148.68 148.394 148.444 148.866C148.208 149.102 150.096 151.934 153.163 155.002C147.028 155.238 142.544 155.71 142.544 156.418C142.544 157.125 147.028 157.597 153.163 157.833C150.096 161.137 147.972 163.733 148.444 163.969C148.68 164.205 151.512 162.317 154.579 159.249C154.815 165.385 155.287 169.869 155.995 169.869C156.703 169.869 157.175 165.385 157.411 159.249C160.715 162.317 163.311 164.441 163.547 163.969C163.783 163.733 161.895 160.901 158.827 157.833C164.963 157.597 169.447 157.125 169.447 156.418Z" fill="url(#paint18_linear)"/>
<path d="M193.283 142.966C192.575 142.966 192.103 147.45 191.867 153.586C188.563 150.518 185.967 148.394 185.731 148.866C185.495 149.102 187.383 151.934 190.451 155.002C184.315 155.238 179.831 155.71 179.831 156.418C179.831 157.125 184.315 157.597 190.451 157.833C187.383 161.137 185.259 163.733 185.731 163.969C185.967 164.205 188.799 162.317 191.867 159.249C192.103 165.385 192.575 169.869 193.283 169.869V142.966Z" fill="url(#paint19_linear)"/>
<path d="M56.1686 156.418C56.1686 155.71 51.6847 155.238 45.5489 155.002C48.6168 151.698 50.7407 149.102 50.2688 148.866C50.0328 148.63 47.2008 150.518 44.1329 153.586C43.8969 147.45 43.4249 142.966 42.7169 142.966C42.7169 142.966 42.717 142.966 42.481 143.202V169.869C42.481 169.869 42.4809 170.105 42.7169 170.105C43.4249 170.105 43.8969 165.621 44.1329 159.485C47.4368 162.553 50.0328 164.677 50.2688 164.205C50.5047 163.969 48.6168 161.137 45.5489 158.07C51.6847 157.598 56.1686 157.125 56.1686 156.418Z" fill="url(#paint20_linear)"/>
<path d="M131.687 100.251H116.111V207.157H131.687V100.251Z" fill="url(#paint21_linear)"/>
<path d="M23.8376 90.575V197.481L19.8257 195.357V88.687L23.8376 90.575Z" fill="url(#paint22_linear)"/>
<path d="M198.001 57.7723H40.5925L21.713 48.3325L17.7011 46.2085L0.00146484 37.2407H152.926L172.75 46.2085L176.997 48.3325L198.001 57.7723Z" fill="#FFD34F"/>
<path d="M176.997 48.332H21.7126L17.7007 46.208H172.749L176.997 48.332Z" fill="#8D36CA"/>
<path d="M84.0165 37.2407H68.4409L113.28 57.7723H128.856L84.0165 37.2407Z" fill="#601D8F"/>
<path d="M0.00146484 82.7877L40.5925 103.319V57.7723L0.00146484 37.2407V82.7877Z" fill="url(#paint23_linear)"/>
<path d="M21.7126 48.332V93.8789L17.7007 91.755V46.208L21.7126 48.332Z" fill="url(#paint24_linear)"/>
<path d="M168.03 40.3086C165.198 43.8485 159.535 47.8604 159.535 47.8604H98.4119C98.4119 47.8604 122.483 -8.54233 151.275 1.13345C152.691 1.60544 154.107 2.31343 155.523 3.02141C161.422 8.44929 154.815 18.3611 160.714 24.9689C166.378 31.8128 171.098 36.7686 168.03 40.3086Z" fill="#BB6BD9"/>
<path d="M128.619 28.509C118.236 39.6007 108.088 47.1526 105.964 45.2646C104.076 43.3767 110.92 32.9929 121.304 21.6651C131.687 10.5734 141.835 3.02155 143.959 4.90951C146.083 6.79746 139.003 17.1812 128.619 28.509Z" fill="#4C094E"/>
<path d="M99.5914 47.8603H38.4688C38.4688 47.8603 32.8049 43.8484 29.973 40.3085C27.141 36.7686 31.6249 31.8127 37.5248 24.9689C42.4807 19.305 38.4688 11.0452 40.8287 5.61729C41.3007 4.67331 41.7727 3.72934 42.7167 3.02135C72.924 -14.2063 99.5914 47.8603 99.5914 47.8603Z" fill="#BB6BD9"/>
<path d="M69.3842 28.5085C79.768 39.6002 89.9158 47.1521 92.0397 45.2641C93.9277 43.3762 87.0839 32.9924 76.7001 21.6647C66.3163 10.5729 56.1685 3.02106 54.0446 4.90902C51.9206 6.79697 58.7645 17.1807 69.3842 28.5085Z" fill="#4C094E"/>
<path d="M115.404 40.5444V43.3764C115.404 45.7363 113.516 47.8603 110.92 47.8603H86.8486C84.4887 47.8603 82.3647 45.9723 82.3647 43.3764V40.5444C82.3647 40.3085 82.3647 40.0725 82.3647 39.6005C82.8367 37.7125 84.4887 36.0605 86.6127 36.0605H110.684C112.808 36.0605 114.696 37.4765 114.932 39.6005C115.404 39.8365 115.404 40.0725 115.404 40.5444Z" fill="#591985"/>
<path d="M115.402 39.6005C114.93 41.7244 113.278 43.1404 111.154 43.1404H87.0826C84.9587 43.1404 83.0707 41.7244 82.8347 39.6005C83.3067 37.7125 84.9587 36.0605 87.0826 36.0605H111.154C113.042 36.0605 114.93 37.4765 115.402 39.6005Z" fill="#BB6BD9"/>
<path d="M168.029 40.3089C165.197 43.8488 159.533 47.8607 159.533 47.8607H119.178C120.122 46.6808 121.538 45.7368 122.718 45.0288C127.438 42.1969 133.102 41.4889 138.53 40.3089C144.666 38.8929 151.273 35.589 152.689 29.4532C153.161 27.3292 153.161 24.9692 152.925 22.6093C152.217 15.5295 151.745 8.21363 151.038 1.13379C152.453 1.60578 153.869 2.31377 155.285 3.02175C161.185 8.44963 154.577 18.3614 160.477 24.9692C166.377 31.8131 171.097 36.769 168.029 40.3089Z" fill="url(#paint25_linear)"/>
<path d="M85.6677 47.8607H38.4688C38.4688 47.8607 32.8049 43.8488 29.973 40.3089C27.141 36.769 31.6249 31.8131 37.5248 24.9692C42.4807 19.3054 38.4688 11.0456 40.8287 5.61768C41.7727 8.9216 42.4807 12.4615 43.4247 15.7655C44.6046 20.0134 45.5486 24.0253 47.4366 28.0372C52.6284 38.4209 63.9562 45.2648 75.52 45.2648C77.8799 45.2648 80.2398 45.0288 82.3638 45.7368C83.5438 45.9728 84.7237 46.6808 85.6677 47.8607Z" fill="url(#paint26_linear)"/>
<path d="M193.28 100.251H42.7153V115.355H193.28V100.251Z" fill="#DF901D"/>
<path d="M198.002 57.7725H40.5933V103.319H198.002V57.7725Z" fill="url(#paint27_linear)"/>
<path d="M128.854 57.7725H113.279V103.319H128.854V57.7725Z" fill="url(#paint28_linear)"/>
<defs>
<linearGradient id="paint0_linear" x1="71.5015" y1="231" x2="71.5015" y2="320" gradientUnits="userSpaceOnUse">
<stop stop-color="#FFC700"/>
<stop offset="1" stop-color="#FC9517"/>
</linearGradient>
<linearGradient id="paint1_linear" x1="159.001" y1="307.394" x2="159.001" y2="225" gradientUnits="userSpaceOnUse">
<stop stop-color="#FFC700"/>
<stop offset="1" stop-color="#FC9517"/>
</linearGradient>
<linearGradient id="paint2_linear" x1="23.3657" y1="80.6636" x2="23.3657" y2="206.921" gradientUnits="userSpaceOnUse">
<stop stop-color="#FFC700"/>
<stop offset="1" stop-color="#BF6A03"/>
</linearGradient>
<linearGradient id="paint3_linear" x1="24.3096" y1="97.1743" x2="24.3096" y2="123.86" gradientUnits="userSpaceOnUse">
<stop stop-color="#6A239B"/>
<stop offset="1" stop-color="#54167E"/>
</linearGradient>
<linearGradient id="paint4_linear" x1="24.3096" y1="171.749" x2="24.3096" y2="198.435" gradientUnits="userSpaceOnUse">
<stop stop-color="#6A239B"/>
<stop offset="1" stop-color="#54167E"/>
</linearGradient>
<linearGradient id="paint5_linear" x1="11.447" y1="125.966" x2="11.447" y2="152.888" gradientUnits="userSpaceOnUse">
<stop stop-color="#6A239B"/>
<stop offset="1" stop-color="#54167E"/>
</linearGradient>
<linearGradient id="paint6_linear" x1="35.9902" y1="142.958" x2="35.9902" y2="169.635" gradientUnits="userSpaceOnUse">
<stop stop-color="#6A239B"/>
<stop offset="1" stop-color="#54167E"/>
</linearGradient>
<linearGradient id="paint7_linear" x1="117.998" y1="100.251" x2="117.998" y2="207.157" gradientUnits="userSpaceOnUse">
<stop stop-color="#FFC700"/>
<stop offset="1" stop-color="#FC9517"/>
</linearGradient>
<linearGradient id="paint8_linear" x1="61.5972" y1="105.679" x2="61.5972" y2="132.583" gradientUnits="userSpaceOnUse">
<stop stop-color="#6A239B"/>
<stop offset="1" stop-color="#54167E"/>
</linearGradient>
<linearGradient id="paint9_linear" x1="99.3557" y1="105.679" x2="99.3557" y2="132.583" gradientUnits="userSpaceOnUse">
<stop stop-color="#6A239B"/>
<stop offset="1" stop-color="#54167E"/>
</linearGradient>
<linearGradient id="paint10_linear" x1="137.115" y1="105.679" x2="137.115" y2="132.583" gradientUnits="userSpaceOnUse">
<stop stop-color="#6A239B"/>
<stop offset="1" stop-color="#54167E"/>
</linearGradient>
<linearGradient id="paint11_linear" x1="174.874" y1="105.679" x2="174.874" y2="132.583" gradientUnits="userSpaceOnUse">
<stop stop-color="#6A239B"/>
<stop offset="1" stop-color="#54167E"/>
</linearGradient>
<linearGradient id="paint12_linear" x1="61.5972" y1="180.018" x2="61.5972" y2="206.921" gradientUnits="userSpaceOnUse">
<stop stop-color="#6A239B"/>
<stop offset="1" stop-color="#54167E"/>
</linearGradient>
<linearGradient id="paint13_linear" x1="99.3557" y1="180.018" x2="99.3557" y2="206.921" gradientUnits="userSpaceOnUse">
<stop stop-color="#6A239B"/>
<stop offset="1" stop-color="#54167E"/>
</linearGradient>
<linearGradient id="paint14_linear" x1="137.115" y1="180.018" x2="137.115" y2="206.921" gradientUnits="userSpaceOnUse">
<stop stop-color="#6A239B"/>
<stop offset="1" stop-color="#54167E"/>
</linearGradient>
<linearGradient id="paint15_linear" x1="174.874" y1="180.018" x2="174.874" y2="206.921" gradientUnits="userSpaceOnUse">
<stop stop-color="#6A239B"/>
<stop offset="1" stop-color="#54167E"/>
</linearGradient>
<linearGradient id="paint16_linear" x1="80.4778" y1="142.966" x2="80.4778" y2="169.869" gradientUnits="userSpaceOnUse">
<stop stop-color="#6A239B"/>
<stop offset="1" stop-color="#54167E"/>
</linearGradient>
<linearGradient id="paint17_linear" x1="118.237" y1="142.966" x2="118.237" y2="169.869" gradientUnits="userSpaceOnUse">
<stop stop-color="#6A239B"/>
<stop offset="1" stop-color="#54167E"/>
</linearGradient>
<linearGradient id="paint18_linear" x1="155.995" y1="142.966" x2="155.995" y2="169.869" gradientUnits="userSpaceOnUse">
<stop stop-color="#6A239B"/>
<stop offset="1" stop-color="#54167E"/>
</linearGradient>
<linearGradient id="paint19_linear" x1="186.557" y1="142.966" x2="186.557" y2="169.869" gradientUnits="userSpaceOnUse">
<stop stop-color="#6A239B"/>
<stop offset="1" stop-color="#54167E"/>
</linearGradient>
<linearGradient id="paint20_linear" x1="49.3248" y1="142.966" x2="49.3248" y2="170.105" gradientUnits="userSpaceOnUse">
<stop stop-color="#6A239B"/>
<stop offset="1" stop-color="#54167E"/>
</linearGradient>
<linearGradient id="paint21_linear" x1="123.899" y1="100.251" x2="123.899" y2="207.157" gradientUnits="userSpaceOnUse">
<stop stop-color="#6A239B"/>
<stop offset="1" stop-color="#54167E"/>
</linearGradient>
<linearGradient id="paint22_linear" x1="21.8316" y1="88.687" x2="21.8316" y2="197.481" gradientUnits="userSpaceOnUse">
<stop stop-color="#6A239B"/>
<stop offset="1" stop-color="#54167E"/>
</linearGradient>
<linearGradient id="paint23_linear" x1="20.297" y1="37.2407" x2="20.297" y2="103.319" gradientUnits="userSpaceOnUse">
<stop stop-color="#FFC700"/>
<stop offset="1" stop-color="#DB7D0A"/>
</linearGradient>
<linearGradient id="paint24_linear" x1="19.7066" y1="46.208" x2="19.7066" y2="93.8789" gradientUnits="userSpaceOnUse">
<stop stop-color="#6A239B"/>
<stop offset="1" stop-color="#54167E"/>
</linearGradient>
<linearGradient id="paint25_linear" x1="144.086" y1="1.13379" x2="144.086" y2="47.8607" gradientUnits="userSpaceOnUse">
<stop stop-color="#6A239B"/>
<stop offset="1" stop-color="#54167E"/>
</linearGradient>
<linearGradient id="paint26_linear" x1="57.3849" y1="5.61768" x2="57.3849" y2="47.8607" gradientUnits="userSpaceOnUse">
<stop stop-color="#6A239B"/>
<stop offset="1" stop-color="#54167E"/>
</linearGradient>
<linearGradient id="paint27_linear" x1="119.297" y1="57.7725" x2="119.297" y2="103.319" gradientUnits="userSpaceOnUse">
<stop stop-color="#FFC700"/>
<stop offset="1" stop-color="#FC9517"/>
</linearGradient>
<linearGradient id="paint28_linear" x1="121.067" y1="57.7725" x2="121.067" y2="103.319" gradientUnits="userSpaceOnUse">
<stop stop-color="#6A239B"/>
<stop offset="1" stop-color="#54167E"/>
</linearGradient>
</defs>
</svg>
