<svg width="234" height="281" viewBox="0 0 234 281" fill="none" xmlns="http://www.w3.org/2000/svg">
<path d="M54.1775 70.2632H21.741V63.4395L33.3889 51.6646C36.8378 48.131 39.0912 45.6872 40.1492 44.333C41.2071 42.9577 41.9688 41.6882 42.4343 40.5244C42.8998 39.3607 43.1326 38.1546 43.1326 36.9062C43.1326 35.0443 42.6142 33.6584 41.5774 32.7485C40.5618 31.8387 39.197 31.3838 37.4832 31.3838C35.6847 31.3838 33.939 31.7964 32.2463 32.6216C30.5536 33.4468 28.7869 34.6211 26.946 36.1445L21.614 29.8286C23.8992 27.882 25.7929 26.5067 27.2952 25.7026C28.7974 24.8986 30.4373 24.285 32.2146 23.8618C33.9919 23.4175 35.9809 23.1953 38.1814 23.1953C41.0802 23.1953 43.6404 23.7243 45.8621 24.7822C48.0837 25.8402 49.8082 27.3213 51.0354 29.2256C52.2626 31.1299 52.8762 33.3092 52.8762 35.7637C52.8762 37.9007 52.4954 39.9108 51.7336 41.7939C50.9931 43.6559 49.8293 45.5708 48.2424 47.5386C46.6767 49.5063 43.9049 52.3099 39.927 55.9492L33.9602 61.5669V62.0112H54.1775V70.2632ZM75.7595 40.6196C80.2452 40.6196 83.8105 41.8786 86.4553 44.3965C89.1213 46.9144 90.4543 50.3633 90.4543 54.7432C90.4543 59.9271 88.8569 63.9155 85.6619 66.7085C82.4669 69.5015 77.8966 70.8979 71.9509 70.8979C66.7882 70.8979 62.6199 70.0622 59.446 68.3906V59.9165C61.1176 60.8052 63.0642 61.5352 65.2859 62.1064C67.5076 62.6566 69.6129 62.9316 71.6018 62.9316C77.5898 62.9316 80.5837 60.4772 80.5837 55.5684C80.5837 50.8923 77.484 48.5542 71.2844 48.5542C70.163 48.5542 68.9252 48.6706 67.571 48.9033C66.2169 49.1149 65.1166 49.3477 64.2703 49.6016L60.3665 47.5068L62.1121 23.8618H87.2805V32.1772H70.7131L69.8562 41.2861L70.967 41.064C72.2577 40.7677 73.8552 40.6196 75.7595 40.6196Z" fill="#B499FF"/>
<path d="M233.173 150.647V247.688L137.499 280.263V183.222L233.173 150.647Z" fill="#FABB22"/>
<path d="M146.838 199.168L139.321 205.091L137.498 214.203V186.412V185.956L139.548 197.574L146.838 199.168Z" fill="#CB851E"/>
<path d="M171.668 186.64L178.957 188.235L171.44 194.157L168.934 206.914L166.884 195.296L159.595 193.702L167.112 187.779L169.618 175.022L171.668 186.64Z" fill="#CB851E"/>
<path d="M203.786 175.706L211.075 177.301L203.558 183.224L200.825 195.98L199.002 184.363L191.713 182.768L199.23 176.845L201.736 164.089L203.786 175.706Z" fill="#CB851E"/>
<path d="M233.173 156.799V184.59L232.945 185.045L231.123 173.428L223.833 171.833L231.123 165.911L233.173 156.799Z" fill="#CB851E"/>
<path d="M155.951 244.044L163.24 245.866L155.723 251.561L153.217 264.089L151.395 252.7L144.106 251.105L151.395 245.41L154.129 232.654L155.951 244.044Z" fill="#CB851E"/>
<path d="M187.615 233.338L194.905 234.932L187.388 240.627L184.882 253.384L183.059 241.994L175.77 240.172L183.059 234.477L185.565 221.948L187.615 233.338Z" fill="#CB851E"/>
<path d="M219.277 222.631L226.567 224.226L219.05 229.92L216.544 242.449L214.494 231.287L207.432 229.465L214.722 223.77L217.227 211.241L219.277 222.631Z" fill="#CB851E"/>
<path d="M189.662 262.495L181.006 265.456V168.416L189.662 165.455V262.495Z" fill="#705EE4"/>
<path d="M0.138916 144.042V241.31L137.499 280.263V183.223L0.138916 144.042Z" fill="url(#paint0_linear)"/>
<path d="M124.059 198.713L134.765 204.863L137.499 214.203V186.412V185.957L134.538 197.346L124.059 198.713Z" fill="#CB851E"/>
<path d="M88.5227 184.361L78.0442 185.5L88.7505 191.879L92.3952 204.635L95.3566 193.245L105.835 192.106L94.901 185.728L91.2562 172.972L88.5227 184.361Z" fill="#CB851E"/>
<path d="M42.5079 171.15L32.0293 172.289L42.7357 178.667L46.3804 191.651L49.1139 180.262L59.5925 178.895L48.8861 172.745L45.2414 159.76L42.5079 171.15Z" fill="#CB851E"/>
<path d="M0.138428 150.192V178.211L0.366236 178.439L3.09976 167.049L13.5783 165.91L2.87199 159.532L0.138428 150.192Z" fill="#CB851E"/>
<path d="M111.076 242.904L100.597 244.043L111.304 250.194L114.948 262.95L117.682 251.788L127.933 250.649L117.454 244.271L113.809 231.515L111.076 242.904Z" fill="#CB851E"/>
<path d="M65.5159 229.921L55.2651 231.06L65.7437 237.21L69.3884 250.194L72.1219 238.805L82.6005 237.666L71.8941 231.515L68.2494 218.759L65.5159 229.921Z" fill="#CB851E"/>
<path d="M19.9571 216.936L9.7063 218.075L20.1848 224.454L23.8296 237.21L26.7909 225.82L37.0416 224.681L26.5631 218.531L22.9184 205.774L19.9571 216.936Z" fill="#CB851E"/>
<path d="M62.5552 259.077L75.0839 262.494V165.454L62.5552 161.809V259.077Z" fill="#705EE4"/>
<path d="M233.173 150.648L189.664 165.454L181.008 168.416L137.499 183.222L75.0833 165.454L62.5546 161.81L0.138916 144.042L60.5045 130.374L70.5275 128.096L100.596 121.262L147.522 131.513L160.051 134.474L233.173 150.648Z" fill="#F8D73A"/>
<path d="M189.664 165.455L181.008 168.416L60.5044 130.374L70.5274 128.096L189.664 165.455Z" fill="#B499FF"/>
<path d="M160.051 134.475L75.0841 165.455L62.5554 161.81L147.523 131.513L160.051 134.475Z" fill="#B499FF"/>
<path d="M118.822 147.231C118.822 147.231 123.605 103.267 145.018 108.734C166.431 114.201 145.018 136.069 145.018 136.069C145.018 136.069 148.89 118.985 141.145 118.301C133.628 117.618 122.466 133.336 118.822 147.231Z" fill="#705EE4"/>
<path d="M161.191 151.104L148.434 160.215C148.434 160.215 129.3 156.343 118.821 147.459L130.666 141.992C130.439 141.764 146.384 150.42 161.191 151.104Z" fill="#705EE4"/>
<path d="M118.821 147.232C118.821 147.232 165.519 117.163 174.175 132.653C182.831 148.143 175.769 153.838 170.758 155.432C165.746 157.255 148.662 159.988 148.662 159.988C148.662 159.988 156.635 142.676 147.751 138.575C145.701 137.664 143.423 137.664 141.372 138.575L118.821 147.232Z" fill="#B499FF"/>
<path d="M76.2227 151.104L88.9791 160.215C88.9791 160.215 108.114 156.343 118.592 147.459L106.747 141.992C106.975 141.764 91.0293 150.42 76.2227 151.104Z" fill="#B499FF"/>
<path d="M118.821 147.231C118.821 147.231 114.037 103.267 92.6244 108.734C71.2117 114.201 92.6244 136.069 92.6244 136.069C92.6244 136.069 88.7519 118.985 96.4969 118.301C104.242 117.618 114.948 133.336 118.821 147.231Z" fill="#B499FF"/>
<path d="M118.82 147.232C118.82 147.232 72.1226 117.163 63.4664 132.653C54.8102 148.143 61.8719 153.838 66.8833 155.432C71.8948 157.255 88.9794 159.988 88.9794 159.988C88.9794 159.988 81.0066 142.676 89.8906 138.575C91.9407 137.664 94.2187 137.664 96.2688 138.575L118.82 147.232Z" fill="#705EE4"/>
<path d="M172.006 52.9386C171.739 52.2969 171.114 51.8782 170.421 51.8782H151.617V8.9792C151.617 8.03199 150.849 7.26318 149.901 7.26318H122.446C121.499 7.26318 120.73 8.03199 120.73 8.9792V51.8783H101.854C101.161 51.8783 100.537 52.2971 100.269 52.9354C100.005 53.5771 100.149 54.315 100.64 54.8059L134.873 89.1526C135.196 89.4751 135.631 89.6571 136.088 89.6571C136.544 89.6571 136.98 89.4751 137.303 89.156L171.636 54.8092C172.127 54.3183 172.274 53.5805 172.006 52.9386Z" fill="#B499FF"/>
<defs>
<linearGradient id="paint0_linear" x1="68.819" y1="144.042" x2="68.819" y2="280.263" gradientUnits="userSpaceOnUse">
<stop stop-color="#FFC700"/>
<stop offset="1" stop-color="#FC9517"/>
</linearGradient>
</defs>
</svg>
