<svg width="234" height="281" viewBox="0 0 234 281" fill="none" xmlns="http://www.w3.org/2000/svg">
<path d="M88.2646 34.2402C88.2646 37.139 87.3866 39.604 85.6304 41.6353C83.8742 43.6665 81.4092 45.063 78.2354 45.8247V46.0151C81.9805 46.4806 84.8158 47.6232 86.7412 49.4429C88.6667 51.2414 89.6294 53.6746 89.6294 56.7427C89.6294 61.2072 88.0107 64.6878 84.7734 67.1846C81.5361 69.6602 76.9129 70.8979 70.9038 70.8979C65.868 70.8979 61.4035 70.0622 57.5103 68.3906V60.0435C59.3088 60.9533 61.2871 61.6938 63.4453 62.2651C65.6035 62.8364 67.7406 63.1221 69.8564 63.1221C73.0938 63.1221 75.4847 62.5719 77.0293 61.4717C78.5739 60.3714 79.3462 58.6047 79.3462 56.1714C79.3462 53.992 78.4575 52.4474 76.6802 51.5376C74.9028 50.6278 72.0675 50.1729 68.1743 50.1729H64.6514V42.6509H68.2378C71.8348 42.6509 74.4585 42.1854 76.1089 41.2544C77.7804 40.3022 78.6162 38.6836 78.6162 36.3984C78.6162 32.8861 76.4157 31.1299 72.0146 31.1299C70.4912 31.1299 68.936 31.3838 67.3491 31.8916C65.7834 32.3994 64.0378 33.2775 62.1123 34.5259L57.5737 27.7656C61.8055 24.7188 66.8519 23.1953 72.7129 23.1953C77.516 23.1953 81.3034 24.1686 84.0752 26.1152C86.8682 28.0618 88.2646 30.7702 88.2646 34.2402Z" fill="#B499FF"/>
<path d="M233.069 150.647V247.688L137.396 280.263V183.222L233.069 150.647Z" fill="#FABB22"/>
<path d="M146.734 199.168L139.217 205.091L137.395 214.203V186.412V185.956L139.445 197.574L146.734 199.168Z" fill="#CB851E"/>
<path d="M171.564 186.64L178.854 188.235L171.336 194.157L168.831 206.914L166.78 195.296L159.491 193.702L167.008 187.779L169.514 175.022L171.564 186.64Z" fill="#CB851E"/>
<path d="M203.682 175.706L210.972 177.301L203.454 183.224L200.721 195.98L198.899 184.363L191.609 182.768L199.126 176.845L201.632 164.089L203.682 175.706Z" fill="#CB851E"/>
<path d="M233.069 156.799V184.59L232.841 185.045L231.019 173.428L223.729 171.833L231.019 165.911L233.069 156.799Z" fill="#CB851E"/>
<path d="M155.847 244.044L163.137 245.866L155.619 251.561L153.114 264.089L151.291 252.7L144.002 251.105L151.291 245.41L154.025 232.654L155.847 244.044Z" fill="#CB851E"/>
<path d="M187.512 233.338L194.801 234.932L187.284 240.627L184.778 253.384L182.956 241.994L175.666 240.172L182.956 234.477L185.461 221.948L187.512 233.338Z" fill="#CB851E"/>
<path d="M219.174 222.631L226.463 224.226L218.946 229.92L216.44 242.449L214.39 231.287L207.328 229.465L214.618 223.77L217.124 211.241L219.174 222.631Z" fill="#CB851E"/>
<path d="M189.559 262.495L180.903 265.456V168.416L189.559 165.455V262.495Z" fill="#705EE4"/>
<path d="M0.0351562 144.042V241.31L137.395 280.263V183.223L0.0351562 144.042Z" fill="url(#paint0_linear)"/>
<path d="M123.955 198.713L134.662 204.863L137.395 214.203V186.412V185.957L134.434 197.346L123.955 198.713Z" fill="#CB851E"/>
<path d="M88.419 184.361L77.9404 185.5L88.6468 191.879L92.2915 204.635L95.2528 193.245L105.731 192.106L94.7972 185.728L91.1525 172.972L88.419 184.361Z" fill="#CB851E"/>
<path d="M42.4041 171.15L31.9255 172.289L42.6319 178.667L46.2766 191.651L49.0101 180.262L59.4887 178.895L48.7824 172.745L45.1376 159.76L42.4041 171.15Z" fill="#CB851E"/>
<path d="M0.034668 150.192V178.211L0.262476 178.439L2.996 167.049L13.4746 165.91L2.76823 159.532L0.034668 150.192Z" fill="#CB851E"/>
<path d="M110.972 242.904L100.493 244.043L111.2 250.194L114.844 262.95L117.578 251.788L127.829 250.649L117.35 244.271L113.705 231.515L110.972 242.904Z" fill="#CB851E"/>
<path d="M65.4121 229.921L55.1614 231.06L65.6399 237.21L69.2846 250.194L72.0182 238.805L82.4967 237.666L71.7903 231.515L68.1457 218.759L65.4121 229.921Z" fill="#CB851E"/>
<path d="M19.8533 216.936L9.60254 218.075L20.0811 224.454L23.7258 237.21L26.6871 225.82L36.9379 224.681L26.4593 218.531L22.8146 205.774L19.8533 216.936Z" fill="#CB851E"/>
<path d="M62.4512 259.077L74.9799 262.494V165.454L62.4512 161.809V259.077Z" fill="#705EE4"/>
<path d="M233.069 150.648L189.56 165.454L180.904 168.416L137.395 183.222L74.9796 165.454L62.4509 161.81L0.0351562 144.042L60.4007 130.374L70.4237 128.096L100.493 121.262L147.418 131.513L159.947 134.474L233.069 150.648Z" fill="#F8D73A"/>
<path d="M189.56 165.455L180.904 168.416L60.4006 130.374L70.4236 128.096L189.56 165.455Z" fill="#B499FF"/>
<path d="M159.948 134.475L74.9804 165.455L62.4517 161.81L147.419 131.513L159.948 134.475Z" fill="#B499FF"/>
<path d="M118.718 147.231C118.718 147.231 123.501 103.267 144.914 108.734C166.327 114.201 144.914 136.069 144.914 136.069C144.914 136.069 148.786 118.985 141.041 118.301C133.524 117.618 122.362 133.336 118.718 147.231Z" fill="#705EE4"/>
<path d="M161.087 151.104L148.33 160.215C148.33 160.215 129.196 156.343 118.717 147.459L130.562 141.992C130.335 141.764 146.28 150.42 161.087 151.104Z" fill="#705EE4"/>
<path d="M118.717 147.232C118.717 147.232 165.415 117.163 174.071 132.653C182.727 148.143 175.665 153.838 170.654 155.432C165.642 157.255 148.558 159.988 148.558 159.988C148.558 159.988 156.531 142.676 147.647 138.575C145.597 137.664 143.319 137.664 141.268 138.575L118.717 147.232Z" fill="#B499FF"/>
<path d="M76.1187 151.104L88.8751 160.215C88.8751 160.215 108.01 156.343 118.488 147.459L106.643 141.992C106.871 141.764 90.9253 150.42 76.1187 151.104Z" fill="#B499FF"/>
<path d="M118.717 147.231C118.717 147.231 113.933 103.267 92.5204 108.734C71.1077 114.201 92.5204 136.069 92.5204 136.069C92.5204 136.069 88.6479 118.985 96.3929 118.301C104.138 117.618 114.844 133.336 118.717 147.231Z" fill="#B499FF"/>
<path d="M118.716 147.232C118.716 147.232 72.0186 117.163 63.3624 132.653C54.7062 148.143 61.7678 153.838 66.7793 155.432C71.7908 157.255 88.8754 159.988 88.8754 159.988C88.8754 159.988 80.9026 142.676 89.7866 138.575C91.8367 137.664 94.1147 137.664 96.1648 138.575L118.716 147.232Z" fill="#705EE4"/>
<path d="M171.903 52.9386C171.635 52.2969 171.01 51.8782 170.317 51.8782H151.514V8.9792C151.514 8.03199 150.745 7.26318 149.798 7.26318H122.342C121.395 7.26318 120.626 8.03199 120.626 8.9792V51.8783H101.751C101.057 51.8783 100.433 52.2971 100.165 52.9354C99.9008 53.5771 100.045 54.315 100.536 54.8059L134.769 89.1526C135.092 89.4751 135.528 89.6571 135.984 89.6571C136.441 89.6571 136.876 89.4751 137.199 89.156L171.532 54.8092C172.023 54.3183 172.17 53.5805 171.903 52.9386Z" fill="#B499FF"/>
<defs>
<linearGradient id="paint0_linear" x1="68.7152" y1="144.042" x2="68.7152" y2="280.263" gradientUnits="userSpaceOnUse">
<stop stop-color="#FFC700"/>
<stop offset="1" stop-color="#FC9517"/>
</linearGradient>
</defs>
</svg>
