<svg width="237" height="294" viewBox="0 0 237 294" fill="none" xmlns="http://www.w3.org/2000/svg">
<path d="M77.0396 275H44.603V268.176L56.251 256.401C59.6999 252.868 61.9533 250.424 63.0112 249.07C64.0692 247.694 64.8309 246.425 65.2964 245.261C65.7619 244.097 65.9946 242.891 65.9946 241.643C65.9946 239.781 65.4762 238.395 64.4395 237.485C63.4238 236.576 62.0591 236.121 60.3452 236.121C58.5467 236.121 56.8011 236.533 55.1084 237.358C53.4157 238.184 51.6489 239.358 49.8081 240.881L44.4761 234.565C46.7612 232.619 48.6549 231.243 50.1572 230.439C51.6595 229.635 53.2993 229.022 55.0767 228.599C56.854 228.154 58.8429 227.932 61.0435 227.932C63.9422 227.932 66.5024 228.461 68.7241 229.519C70.9458 230.577 72.6702 232.058 73.8975 233.962C75.1247 235.867 75.7383 238.046 75.7383 240.5C75.7383 242.638 75.3574 244.648 74.5957 246.531C73.8551 248.393 72.6914 250.308 71.1045 252.275C69.5387 254.243 66.7669 257.047 62.7891 260.686L56.8223 266.304V266.748H77.0396V275ZM98.6216 245.356C103.107 245.356 106.673 246.615 109.317 249.133C111.983 251.651 113.316 255.1 113.316 259.48C113.316 264.664 111.719 268.652 108.524 271.445C105.329 274.238 100.759 275.635 94.813 275.635C89.6502 275.635 85.4819 274.799 82.3081 273.127V264.653C83.9797 265.542 85.9263 266.272 88.1479 266.843C90.3696 267.393 92.4749 267.668 94.4639 267.668C100.452 267.668 103.446 265.214 103.446 260.305C103.446 255.629 100.346 253.291 94.1465 253.291C93.0251 253.291 91.7873 253.407 90.4331 253.64C89.0789 253.852 87.9787 254.084 87.1323 254.338L83.2285 252.244L84.9741 228.599H110.143V236.914H93.5752L92.7183 246.023L93.8291 245.801C95.1198 245.505 96.7173 245.356 98.6216 245.356Z" fill="url(#paint0_linear)"/>
<path d="M121.132 235.719C121.4 236.36 122.025 236.779 122.718 236.779H141.521V279.678C141.521 280.625 142.29 281.394 143.237 281.394H170.693C171.64 281.394 172.409 280.625 172.409 279.678V236.779H191.284C191.978 236.779 192.602 236.36 192.87 235.722C193.134 235.08 192.99 234.342 192.499 233.851L158.266 199.505C157.943 199.182 157.507 199 157.051 199C156.595 199 156.159 199.182 155.836 199.501L121.503 233.848C121.012 234.339 120.865 235.077 121.132 235.719Z" fill="url(#paint1_linear)"/>
<path d="M237.001 164.461L55.8665 199.055V122.991L237.001 88.1826V164.461Z" fill="url(#paint2_linear)"/>
<path d="M166.738 177.782L126.128 185.517V109.454L166.738 101.719V177.782Z" fill="#FFD34F"/>
<path d="M0.000488281 118.265L55.8663 199.055V122.992L0.000488281 42.2012V118.265Z" fill="url(#paint3_linear)"/>
<path d="M21.7012 149.635L34.1636 167.684V91.6207L21.7012 73.5718V149.635Z" fill="#BA9527"/>
<path d="M237 88.1834L166.738 101.72L126.128 109.455L55.8663 122.992L34.1646 91.6213L21.7022 73.5724L0.000488281 42.2016L72.4112 29.5244L111.088 22.8634L166.094 13.1943L190.804 39.6231L206.059 55.5235L237 88.1834Z" fill="url(#paint4_linear)"/>
<path d="M166.739 101.72L126.129 109.455L104.212 76.7953L92.3944 59.3909L72.4116 29.5242L111.088 22.8633L131.286 51.4408L143.318 68.6302L166.739 101.72Z" fill="#FFE8A4"/>
<path d="M206.058 55.5234L143.317 68.6303L104.211 76.7953L34.1636 91.6213L21.7012 73.5723L92.3929 59.391L131.284 51.4408L190.803 39.623L206.058 55.5234Z" fill="#FFD34F"/>
<path d="M140.955 67.5565C132.576 66.0524 124.625 62.6146 117.964 57.4577C111.518 52.5157 106.362 46.2845 100.13 41.1277C93.8992 35.9708 86.1639 31.8883 78.2138 32.533C70.2637 33.3924 62.5284 40.4831 63.6027 48.6481C64.4622 55.0941 70.6934 59.6064 76.7097 61.97C82.9409 64.3335 89.6018 65.4078 95.1884 68.6308C104.643 74.0025 109.585 84.5311 117.105 92.4812C122.906 98.4976 130.427 103.01 138.807 103.654C147.187 104.299 155.996 100.646 160.079 93.3407C164.161 86.0352 162.442 75.7215 155.352 71.2093C151.269 68.6309 145.897 68.416 140.955 67.5565Z" fill="#FFD34F"/>
<path d="M156.854 95.059C153.846 94.6293 150.408 93.7697 146.97 92.2657C128.921 84.9601 116.029 62.399 116.029 62.399C116.029 62.399 179.63 41.5567 183.713 62.399C187.151 80.6628 176.192 97.6374 156.854 95.059Z" fill="#E8BD3E"/>
<path d="M156.854 95.0585C160.721 93.9841 164.804 91.6206 166.308 86.2489C170.176 73.5716 116.029 62.6133 116.029 62.6133C116.029 62.6133 179.63 41.7711 183.712 62.6133C187.15 80.6623 176.192 97.6369 156.854 95.0585Z" fill="#FFD34F"/>
<path d="M64.0311 36.3992C65.5352 38.7628 67.6839 41.3412 70.2623 43.7048C83.799 56.1672 109.368 57.8861 109.368 57.8861C109.368 57.8861 104.212 -4.85552 83.5842 0.301322C65.7501 4.59869 54.5769 20.7138 64.0311 36.3992Z" fill="#E8BD3E"/>
<path d="M64.0311 36.3992C63.3865 32.5316 64.246 28.2342 68.5434 24.7963C78.6422 16.4164 109.368 57.8861 109.368 57.8861C109.368 57.8861 104.212 -4.85552 83.5842 0.301322C65.7501 4.59869 54.5769 20.7138 64.0311 36.3992Z" fill="#FFD34F"/>
<path d="M120.326 62.8272C118.822 66.2651 114.309 67.3394 110.442 65.4055C106.574 63.4717 104.64 59.3892 106.144 55.9513C107.648 52.7283 112.161 51.4391 116.028 53.373C120.111 55.3068 122.045 59.3893 120.326 62.8272Z" fill="#E8BD3E"/>
<defs>
<linearGradient id="paint0_linear" x1="79.5005" y1="205" x2="79.5005" y2="294" gradientUnits="userSpaceOnUse">
<stop stop-color="#FFC700"/>
<stop offset="1" stop-color="#FC9517"/>
</linearGradient>
<linearGradient id="paint1_linear" x1="157" y1="281.394" x2="157" y2="199" gradientUnits="userSpaceOnUse">
<stop stop-color="#FFC700"/>
<stop offset="1" stop-color="#FC9517"/>
</linearGradient>
<linearGradient id="paint2_linear" x1="134.604" y1="72.5021" x2="135.419" y2="214.737" gradientUnits="userSpaceOnUse">
<stop stop-color="#D91B24"/>
<stop offset="1" stop-color="#393C5A"/>
</linearGradient>
<linearGradient id="paint3_linear" x1="24.285" y1="20.0175" x2="29.5663" y2="221.109" gradientUnits="userSpaceOnUse">
<stop stop-color="#960E14"/>
<stop offset="1" stop-color="#393C5A"/>
</linearGradient>
<linearGradient id="paint4_linear" x1="103.023" y1="-2.33421" x2="103.633" y2="138.524" gradientUnits="userSpaceOnUse">
<stop stop-color="#F83740"/>
<stop offset="1" stop-color="#393C5A"/>
</linearGradient>
</defs>
</svg>
