<svg width="197" height="309" viewBox="0 0 197 309" fill="none" xmlns="http://www.w3.org/2000/svg">
<path d="M48.0947 70H38.2876V43.1494L38.3828 38.7378L38.5415 33.9136C36.9123 35.5428 35.7803 36.6113 35.1455 37.1191L29.8135 41.4038L25.0845 35.5005L40.0332 23.5986H48.0947V70ZM101.542 70H90.3701L78.2144 50.4492L74.0566 53.4326V70H64.2178V23.5986H74.0566V44.8315L77.9287 39.3726L90.4971 23.5986H101.415L85.2285 44.1333L101.542 70Z" fill="#FFAA2E"/>
<path d="M190.112 52.6754C189.844 52.0337 189.22 51.615 188.527 51.615H169.723V8.71602C169.723 7.7688 168.954 7 168.007 7H140.552C139.604 7 138.836 7.7688 138.836 8.71602V51.6151H119.96C119.267 51.6151 118.642 52.0339 118.375 52.6722C118.11 53.3139 118.254 54.0519 118.745 54.5427L152.979 88.8894C153.301 89.2119 153.737 89.3939 154.194 89.3939C154.65 89.3939 155.086 89.2119 155.409 88.8928L189.742 54.5461C190.232 54.0551 190.38 53.3173 190.112 52.6754Z" fill="#FFAA2E"/>
<path d="M191.522 202.691H42.5359V308.527H191.522V202.691Z" fill="url(#paint0_linear)"/>
<path d="M130.553 202.691H115.096V308.527H130.553V202.691Z" fill="url(#paint1_linear)"/>
<path d="M191.522 202.691H42.5359V213.854H191.522V202.691Z" fill="#DEDEDE"/>
<path d="M4.10791 288.991L42.5351 308.527V202.691L4.10791 183.155V288.991Z" fill="url(#paint2_linear)"/>
<path d="M42.5351 203.335V213.854L4.10791 194.533V184.014L42.5351 203.335Z" fill="#DEDEDE"/>
<path d="M23.8577 193.245V299.081L19.7788 296.934V191.313L23.8577 193.245Z" fill="url(#paint3_linear)"/>
<path d="M196.245 160.829H40.3892V205.911H196.245V160.829Z" fill="url(#paint4_linear)"/>
<path d="M127.977 160.829H112.52V205.911H127.977V160.829Z" fill="url(#paint5_linear)"/>
<path d="M0.244141 185.517L40.3887 205.911V160.829L0.244141 140.435V185.517Z" fill="url(#paint6_linear)"/>
<path d="M21.7123 151.383V196.465L17.8481 194.533V149.236L21.7123 151.383Z" fill="url(#paint7_linear)"/>
<path d="M196.244 160.829H40.3887L21.7118 151.383L17.8476 149.236L0.244141 140.435H151.591L171.127 149.236L175.635 151.383L196.244 160.829Z" fill="#A940E5"/>
<path d="M175.636 151.383H21.7123L17.8481 149.236H171.127L175.636 151.383Z" fill="url(#paint8_linear)"/>
<path d="M83.3242 140.435H67.8674L112.52 160.829H127.762L83.3242 140.435Z" fill="#FAD843"/>
<path d="M164.472 144.728C161.896 147.948 156.743 151.598 156.743 151.598H101.142C101.142 151.598 123.039 100.29 149.23 109.092C150.518 109.521 151.806 110.165 153.094 110.809C158.461 115.747 152.45 124.763 157.817 130.774C163.184 136.785 167.263 141.508 164.472 144.728Z" fill="#F7D245"/>
<path d="M128.621 133.779C119.175 143.869 109.944 150.739 108.012 149.021C106.294 147.304 112.52 137.858 121.966 127.554C131.411 117.249 140.642 110.594 142.575 112.312C144.507 114.244 138.281 123.689 128.621 133.779Z" fill="#EDA328"/>
<path d="M102.215 151.598H46.6141C46.6141 151.598 41.4619 147.948 38.8858 144.728C36.3096 141.508 40.3885 137 45.7554 130.774C50.2636 125.622 46.6141 118.108 48.7609 113.171C49.1902 112.312 49.6196 111.453 50.4783 110.809C77.957 94.9231 102.215 151.598 102.215 151.598Z" fill="#F7D245"/>
<path d="M74.7366 133.78C84.1824 143.87 93.4135 150.739 95.3456 149.022C97.063 147.304 90.8374 137.859 81.3916 127.554C71.9458 117.25 62.7147 110.595 60.7826 112.312C58.8505 114.244 65.2908 123.69 74.7366 133.78Z" fill="#EDA328"/>
<path d="M116.599 144.728V147.304C116.599 149.451 114.882 151.383 112.52 151.383H90.6233C88.4765 151.383 86.5444 149.665 86.5444 147.304V144.728C86.5444 144.513 86.5444 144.298 86.5444 143.869C86.9738 142.152 88.4765 140.649 90.4086 140.649H112.306C114.238 140.649 115.955 141.937 116.17 143.869C116.599 144.298 116.599 144.513 116.599 144.728Z" fill="#EDA328"/>
<path d="M116.6 144.084C116.17 146.017 114.668 147.305 112.736 147.305H90.8385C88.9064 147.305 87.189 146.017 86.9744 144.084C87.4037 142.367 88.9064 140.864 90.8385 140.864H112.736C114.668 140.864 116.17 142.152 116.6 144.084Z" fill="#F7D245"/>
<path d="M164.471 144.728C161.895 147.948 156.743 151.598 156.743 151.598H120.033C120.892 150.524 122.18 149.666 123.253 149.022C127.547 146.446 132.699 145.802 137.637 144.728C143.218 143.44 149.229 140.435 150.517 134.853C150.947 132.921 150.947 130.774 150.732 128.627C150.088 122.187 149.659 115.532 149.015 109.092C150.303 109.521 151.591 110.165 152.879 110.809C158.246 115.747 152.235 124.763 157.602 130.774C163.183 136.785 167.262 141.508 164.471 144.728Z" fill="url(#paint9_linear)"/>
<path d="M89.5493 151.598H46.6139C46.6139 151.598 41.4616 147.948 38.8855 144.728C36.3094 141.508 40.3882 137 45.7552 130.774C50.2634 125.622 46.6139 118.108 48.7606 113.17C49.6194 116.176 50.2634 119.396 51.1221 122.402C52.1955 126.266 53.0542 129.915 54.7716 133.565C59.4945 143.01 69.799 149.236 80.3182 149.236C82.4649 149.236 84.6117 149.021 86.5438 149.665C87.6172 149.665 88.6905 150.524 89.5493 151.598Z" fill="url(#paint10_linear)"/>
<defs>
<linearGradient id="paint0_linear" x1="117.029" y1="202.691" x2="117.029" y2="308.527" gradientUnits="userSpaceOnUse">
<stop stop-color="#6A239B"/>
<stop offset="1" stop-color="#54167E"/>
</linearGradient>
<linearGradient id="paint1_linear" x1="122.825" y1="202.691" x2="122.825" y2="308.527" gradientUnits="userSpaceOnUse">
<stop stop-color="#FFC700"/>
<stop offset="1" stop-color="#FC9517"/>
</linearGradient>
<linearGradient id="paint2_linear" x1="23.3215" y1="183.155" x2="23.3215" y2="308.527" gradientUnits="userSpaceOnUse">
<stop stop-color="#451168"/>
<stop offset="1" stop-color="#54167E"/>
</linearGradient>
<linearGradient id="paint3_linear" x1="21.8182" y1="191.313" x2="21.8182" y2="299.081" gradientUnits="userSpaceOnUse">
<stop stop-color="#FFC700"/>
<stop offset="1" stop-color="#FC9517"/>
</linearGradient>
<linearGradient id="paint4_linear" x1="118.317" y1="160.829" x2="118.317" y2="205.911" gradientUnits="userSpaceOnUse">
<stop stop-color="#6A239B"/>
<stop offset="1" stop-color="#54167E"/>
</linearGradient>
<linearGradient id="paint5_linear" x1="120.248" y1="160.829" x2="120.248" y2="205.911" gradientUnits="userSpaceOnUse">
<stop stop-color="#FFC700"/>
<stop offset="1" stop-color="#FC9517"/>
</linearGradient>
<linearGradient id="paint6_linear" x1="20.3164" y1="140.435" x2="20.3164" y2="205.911" gradientUnits="userSpaceOnUse">
<stop stop-color="#451168"/>
<stop offset="1" stop-color="#54167E"/>
</linearGradient>
<linearGradient id="paint7_linear" x1="19.7802" y1="149.236" x2="19.7802" y2="196.465" gradientUnits="userSpaceOnUse">
<stop stop-color="#FFC700"/>
<stop offset="1" stop-color="#FC9517"/>
</linearGradient>
<linearGradient id="paint8_linear" x1="96.7419" y1="149.236" x2="96.7419" y2="151.383" gradientUnits="userSpaceOnUse">
<stop stop-color="#FFC700"/>
<stop offset="1" stop-color="#FC9517"/>
</linearGradient>
<linearGradient id="paint9_linear" x1="142.703" y1="109.092" x2="142.703" y2="151.598" gradientUnits="userSpaceOnUse">
<stop stop-color="#FFC700"/>
<stop offset="1" stop-color="#FC9517"/>
</linearGradient>
<linearGradient id="paint10_linear" x1="63.8213" y1="113.17" x2="63.8213" y2="151.598" gradientUnits="userSpaceOnUse">
<stop stop-color="#FFC700"/>
<stop offset="1" stop-color="#FC9517"/>
</linearGradient>
</defs>
</svg>
