<svg width="234" height="281" viewBox="0 0 234 281" fill="none" xmlns="http://www.w3.org/2000/svg">
<path d="M26.4121 70.2632L43.8364 32.1772H20.9531V23.9253H54.2466V30.0825L36.6953 70.2632H26.4121ZM75.8286 40.6196C80.3143 40.6196 83.8796 41.8786 86.5244 44.3965C89.1904 46.9144 90.5234 50.3633 90.5234 54.7432C90.5234 59.9271 88.9259 63.9155 85.731 66.7085C82.536 69.5015 77.9657 70.8979 72.02 70.8979C66.8573 70.8979 62.689 70.0622 59.5151 68.3906V59.9165C61.1867 60.8052 63.1333 61.5352 65.355 62.1064C67.5767 62.6566 69.682 62.9316 71.6709 62.9316C77.6589 62.9316 80.6528 60.4772 80.6528 55.5684C80.6528 50.8923 77.5531 48.5542 71.3535 48.5542C70.2321 48.5542 68.9943 48.6706 67.6401 48.9033C66.286 49.1149 65.1857 49.3477 64.3394 49.6016L60.4355 47.5068L62.1812 23.8618H87.3496V32.1772H70.7822L69.9253 41.2861L71.0361 41.064C72.3268 40.7677 73.9243 40.6196 75.8286 40.6196Z" fill="#B499FF"/>
<path d="M233.242 150.647V247.688L137.568 280.263V183.222L233.242 150.647Z" fill="#FABB22"/>
<path d="M146.907 199.168L139.39 205.091L137.567 214.203V186.412V185.956L139.618 197.574L146.907 199.168Z" fill="#CB851E"/>
<path d="M171.737 186.64L179.026 188.235L171.509 194.157L169.003 206.914L166.953 195.296L159.664 193.702L167.181 187.779L169.687 175.022L171.737 186.64Z" fill="#CB851E"/>
<path d="M203.855 175.706L211.145 177.301L203.627 183.224L200.894 195.98L199.071 184.363L191.782 182.768L199.299 176.845L201.805 164.089L203.855 175.706Z" fill="#CB851E"/>
<path d="M233.242 156.799V184.59L233.014 185.045L231.192 173.428L223.902 171.833L231.192 165.911L233.242 156.799Z" fill="#CB851E"/>
<path d="M156.02 244.044L163.31 245.866L155.792 251.561L153.287 264.089L151.464 252.7L144.175 251.105L151.464 245.41L154.198 232.654L156.02 244.044Z" fill="#CB851E"/>
<path d="M187.684 233.338L194.974 234.932L187.457 240.627L184.951 253.384L183.129 241.994L175.839 240.172L183.129 234.477L185.634 221.948L187.684 233.338Z" fill="#CB851E"/>
<path d="M219.347 222.631L226.636 224.226L219.119 229.92L216.613 242.449L214.563 231.287L207.501 229.465L214.791 223.77L217.296 211.241L219.347 222.631Z" fill="#CB851E"/>
<path d="M189.731 262.495L181.075 265.456V168.416L189.731 165.455V262.495Z" fill="#705EE4"/>
<path d="M0.208008 144.042V241.31L137.568 280.263V183.223L0.208008 144.042Z" fill="url(#paint0_linear)"/>
<path d="M124.128 198.713L134.835 204.863L137.568 214.203V186.412V185.957L134.607 197.346L124.128 198.713Z" fill="#CB851E"/>
<path d="M88.5918 184.361L78.1133 185.5L88.8196 191.879L92.4643 204.635L95.4256 193.245L105.904 192.106L94.9701 185.728L91.3253 172.972L88.5918 184.361Z" fill="#CB851E"/>
<path d="M42.5767 171.15L32.0981 172.289L42.8045 178.667L46.4492 191.651L49.1827 180.262L59.6613 178.895L48.955 172.745L45.3102 159.76L42.5767 171.15Z" fill="#CB851E"/>
<path d="M0.20752 150.192V178.211L0.435328 178.439L3.16886 167.049L13.6474 165.91L2.94108 159.532L0.20752 150.192Z" fill="#CB851E"/>
<path d="M111.145 242.904L100.666 244.043L111.373 250.194L115.017 262.95L117.751 251.788L128.002 250.649L117.523 244.271L113.878 231.515L111.145 242.904Z" fill="#CB851E"/>
<path d="M65.585 229.921L55.3342 231.06L65.8128 237.21L69.4575 250.194L72.191 238.805L82.6696 237.666L71.9632 231.515L68.3185 218.759L65.585 229.921Z" fill="#CB851E"/>
<path d="M20.0261 216.936L9.77539 218.075L20.2539 224.454L23.8986 237.21L26.86 225.82L37.1107 224.681L26.6322 218.531L22.9874 205.774L20.0261 216.936Z" fill="#CB851E"/>
<path d="M62.624 259.077L75.1527 262.494V165.454L62.624 161.809V259.077Z" fill="#705EE4"/>
<path d="M233.242 150.648L189.733 165.454L181.077 168.416L137.568 183.222L75.1524 165.454L62.6237 161.81L0.208008 144.042L60.5736 130.374L70.5965 128.096L100.665 121.262L147.591 131.513L160.12 134.474L233.242 150.648Z" fill="#F8D73A"/>
<path d="M189.733 165.455L181.077 168.416L60.5735 130.374L70.5965 128.096L189.733 165.455Z" fill="#B499FF"/>
<path d="M160.121 134.475L75.1532 165.455L62.6245 161.81L147.592 131.513L160.121 134.475Z" fill="#B499FF"/>
<path d="M118.891 147.231C118.891 147.231 123.674 103.267 145.087 108.734C166.5 114.201 145.087 136.069 145.087 136.069C145.087 136.069 148.959 118.985 141.214 118.301C133.697 117.618 122.535 133.336 118.891 147.231Z" fill="#705EE4"/>
<path d="M161.26 151.104L148.503 160.215C148.503 160.215 129.369 156.343 118.89 147.459L130.735 141.992C130.508 141.764 146.453 150.42 161.26 151.104Z" fill="#705EE4"/>
<path d="M118.89 147.232C118.89 147.232 165.588 117.163 174.244 132.653C182.9 148.143 175.838 153.838 170.827 155.432C165.816 157.255 148.731 159.988 148.731 159.988C148.731 159.988 156.704 142.676 147.82 138.575C145.77 137.664 143.492 137.664 141.442 138.575L118.89 147.232Z" fill="#B499FF"/>
<path d="M76.2917 151.104L89.0482 160.215C89.0482 160.215 108.183 156.343 118.662 147.459L106.816 141.992C107.044 141.764 91.0984 150.42 76.2917 151.104Z" fill="#B499FF"/>
<path d="M118.89 147.231C118.89 147.231 114.106 103.267 92.6935 108.734C71.2808 114.201 92.6935 136.069 92.6935 136.069C92.6935 136.069 88.821 118.985 96.566 118.301C104.311 117.618 115.017 133.336 118.89 147.231Z" fill="#B499FF"/>
<path d="M118.889 147.232C118.889 147.232 72.1915 117.163 63.5353 132.653C54.8791 148.143 61.9407 153.838 66.9522 155.432C71.9637 157.255 89.0482 159.988 89.0482 159.988C89.0482 159.988 81.0755 142.676 89.9594 138.575C92.0096 137.664 94.2875 137.664 96.3377 138.575L118.889 147.232Z" fill="#705EE4"/>
<path d="M172.076 52.9386C171.808 52.2969 171.183 51.8782 170.49 51.8782H151.687V8.9792C151.687 8.03199 150.918 7.26318 149.971 7.26318H122.515C121.568 7.26318 120.799 8.03199 120.799 8.9792V51.8783H101.924C101.23 51.8783 100.606 52.2971 100.338 52.9354C100.074 53.5771 100.218 54.315 100.709 54.8059L134.942 89.1526C135.265 89.4751 135.701 89.6571 136.157 89.6571C136.613 89.6571 137.049 89.4751 137.372 89.156L171.705 54.8092C172.196 54.3183 172.343 53.5805 172.076 52.9386Z" fill="#B499FF"/>
<defs>
<linearGradient id="paint0_linear" x1="68.8881" y1="144.042" x2="68.8881" y2="280.263" gradientUnits="userSpaceOnUse">
<stop stop-color="#FFC700"/>
<stop offset="1" stop-color="#FC9517"/>
</linearGradient>
</defs>
</svg>
