<svg width="198" height="309" viewBox="0 0 198 309" fill="none" xmlns="http://www.w3.org/2000/svg">
<path d="M7.44824 70L24.8726 31.9141H1.98926V23.6621H35.2827V29.8193L17.7314 70H7.44824ZM56.8647 40.3564C61.3504 40.3564 64.9157 41.6154 67.5605 44.1333C70.2266 46.6512 71.5596 50.1001 71.5596 54.48C71.5596 59.6639 69.9621 63.6523 66.7671 66.4453C63.5721 69.2383 59.0018 70.6348 53.0562 70.6348C47.8934 70.6348 43.7251 69.799 40.5513 68.1274V59.6533C42.2228 60.542 44.1694 61.272 46.3911 61.8433C48.6128 62.3934 50.7181 62.6685 52.707 62.6685C58.695 62.6685 61.689 60.214 61.689 55.3052C61.689 50.6291 58.5892 48.291 52.3896 48.291C51.2682 48.291 50.0304 48.4074 48.6763 48.6401C47.3221 48.8517 46.2218 49.0845 45.3755 49.3384L41.4717 47.2437L43.2173 23.5986H68.3857V31.9141H51.8184L50.9614 41.0229L52.0723 40.8008C53.363 40.5046 54.9604 40.3564 56.8647 40.3564ZM109.296 46.7993C109.296 54.9032 107.963 60.9017 105.297 64.7949C102.653 68.6882 98.5688 70.6348 93.0464 70.6348C87.6932 70.6348 83.6519 68.6247 80.9224 64.6045C78.214 60.5843 76.8599 54.6493 76.8599 46.7993C76.8599 38.6108 78.1823 32.5806 80.8271 28.7085C83.472 24.8153 87.5451 22.8687 93.0464 22.8687C98.3996 22.8687 102.441 24.8999 105.17 28.9624C107.921 33.0249 109.296 38.9705 109.296 46.7993ZM86.6035 46.7993C86.6035 52.491 87.0902 56.5747 88.0635 59.0503C89.0579 61.5047 90.7189 62.7319 93.0464 62.7319C95.3315 62.7319 96.9819 61.4836 97.9976 58.9868C99.0132 56.4901 99.521 52.4276 99.521 46.7993C99.521 41.1076 99.0026 37.0239 97.9658 34.5483C96.9502 32.0516 95.3104 30.8032 93.0464 30.8032C90.7401 30.8032 89.0897 32.0516 88.0952 34.5483C87.1007 37.0239 86.6035 41.1076 86.6035 46.7993Z" fill="#FFAA2E"/>
<path d="M195.112 52.6754C194.844 52.0337 194.219 51.615 193.526 51.615H174.723V8.71602C174.723 7.7688 173.954 7 173.007 7H145.551C144.604 7 143.835 7.7688 143.835 8.71602V51.6151H124.96C124.266 51.6151 123.642 52.0339 123.374 52.6722C123.11 53.3139 123.254 54.0519 123.745 54.5427L157.978 88.8894C158.301 89.2119 158.737 89.3939 159.193 89.3939C159.65 89.3939 160.085 89.2119 160.408 88.8928L194.741 54.5461C195.232 54.0551 195.379 53.3173 195.112 52.6754Z" fill="#FFAA2E"/>
<path d="M192.521 202.691H43.5354V308.527H192.521V202.691Z" fill="url(#paint0_linear)"/>
<path d="M131.552 202.691H116.096V308.527H131.552V202.691Z" fill="url(#paint1_linear)"/>
<path d="M192.521 202.691H43.5354V213.854H192.521V202.691Z" fill="#DEDEDE"/>
<path d="M5.10742 288.991L43.5346 308.527V202.691L5.10742 183.155V288.991Z" fill="url(#paint2_linear)"/>
<path d="M43.5346 203.335V213.854L5.10742 194.533V184.014L43.5346 203.335Z" fill="#DEDEDE"/>
<path d="M24.8572 193.245V299.081L20.7783 296.934V191.313L24.8572 193.245Z" fill="url(#paint3_linear)"/>
<path d="M197.244 160.829H41.3887V205.911H197.244V160.829Z" fill="url(#paint4_linear)"/>
<path d="M128.976 160.829H113.519V205.911H128.976V160.829Z" fill="url(#paint5_linear)"/>
<path d="M1.24365 185.517L41.3882 205.911V160.829L1.24365 140.435V185.517Z" fill="url(#paint6_linear)"/>
<path d="M22.7118 151.383V196.465L18.8477 194.533V149.236L22.7118 151.383Z" fill="url(#paint7_linear)"/>
<path d="M197.244 160.829H41.3882L22.7113 151.383L18.8472 149.236L1.24365 140.435H152.591L172.126 149.236L176.635 151.383L197.244 160.829Z" fill="#A940E5"/>
<path d="M176.635 151.383H22.7118L18.8477 149.236H172.127L176.635 151.383Z" fill="url(#paint8_linear)"/>
<path d="M84.3237 140.435H68.8669L113.52 160.829H128.762L84.3237 140.435Z" fill="#FAD843"/>
<path d="M165.471 144.728C162.895 147.948 157.743 151.598 157.743 151.598H102.142C102.142 151.598 124.039 100.29 150.229 109.092C151.517 109.521 152.805 110.165 154.093 110.809C159.46 115.747 153.449 124.763 158.816 130.774C164.183 136.785 168.262 141.508 165.471 144.728Z" fill="#F7D245"/>
<path d="M129.62 133.779C120.174 143.869 110.943 150.739 109.011 149.021C107.294 147.304 113.519 137.858 122.965 127.554C132.411 117.249 141.642 110.594 143.574 112.312C145.506 114.244 139.281 123.689 129.62 133.779Z" fill="#EDA328"/>
<path d="M103.215 151.598H47.6136C47.6136 151.598 42.4614 147.948 39.8853 144.728C37.3091 141.508 41.388 137 46.7549 130.774C51.2631 125.622 47.6136 118.108 49.7604 113.171C50.1898 112.312 50.6191 111.453 51.4778 110.809C78.9565 94.9231 103.215 151.598 103.215 151.598Z" fill="#F7D245"/>
<path d="M75.7361 133.78C85.1819 143.87 94.413 150.739 96.3451 149.022C98.0625 147.304 91.8369 137.859 82.3911 127.554C72.9453 117.25 63.7142 110.595 61.7821 112.312C59.85 114.244 66.2903 123.69 75.7361 133.78Z" fill="#EDA328"/>
<path d="M117.599 144.728V147.304C117.599 149.451 115.881 151.383 113.52 151.383H91.6228C89.476 151.383 87.5439 149.665 87.5439 147.304V144.728C87.5439 144.513 87.5439 144.298 87.5439 143.869C87.9733 142.152 89.476 140.649 91.4081 140.649H113.305C115.237 140.649 116.955 141.937 117.169 143.869C117.599 144.298 117.599 144.513 117.599 144.728Z" fill="#EDA328"/>
<path d="M117.599 144.084C117.17 146.017 115.667 147.305 113.735 147.305H91.8381C89.906 147.305 88.1886 146.017 87.9739 144.084C88.4032 142.367 89.906 140.864 91.8381 140.864H113.735C115.667 140.864 117.17 142.152 117.599 144.084Z" fill="#F7D245"/>
<path d="M165.471 144.728C162.895 147.948 157.742 151.598 157.742 151.598H121.033C121.891 150.524 123.179 149.666 124.253 149.022C128.546 146.446 133.699 145.802 138.636 144.728C144.218 143.44 150.229 140.435 151.517 134.853C151.946 132.921 151.946 130.774 151.732 128.627C151.087 122.187 150.658 115.532 150.014 109.092C151.302 109.521 152.59 110.165 153.878 110.809C159.245 115.747 153.234 124.763 158.601 130.774C164.183 136.785 168.262 141.508 165.471 144.728Z" fill="url(#paint9_linear)"/>
<path d="M90.5488 151.598H47.6134C47.6134 151.598 42.4611 147.948 39.885 144.728C37.3089 141.508 41.3878 137 46.7547 130.774C51.2629 125.622 47.6134 118.108 49.7602 113.17C50.6189 116.176 51.2629 119.396 52.1216 122.402C53.195 126.266 54.0537 129.915 55.7711 133.565C60.494 143.01 70.7985 149.236 81.3177 149.236C83.4644 149.236 85.6112 149.021 87.5433 149.665C88.6167 149.665 89.6901 150.524 90.5488 151.598Z" fill="url(#paint10_linear)"/>
<defs>
<linearGradient id="paint0_linear" x1="118.028" y1="202.691" x2="118.028" y2="308.527" gradientUnits="userSpaceOnUse">
<stop stop-color="#6A239B"/>
<stop offset="1" stop-color="#54167E"/>
</linearGradient>
<linearGradient id="paint1_linear" x1="123.824" y1="202.691" x2="123.824" y2="308.527" gradientUnits="userSpaceOnUse">
<stop stop-color="#FFC700"/>
<stop offset="1" stop-color="#FC9517"/>
</linearGradient>
<linearGradient id="paint2_linear" x1="24.321" y1="183.155" x2="24.321" y2="308.527" gradientUnits="userSpaceOnUse">
<stop stop-color="#451168"/>
<stop offset="1" stop-color="#54167E"/>
</linearGradient>
<linearGradient id="paint3_linear" x1="22.8178" y1="191.313" x2="22.8178" y2="299.081" gradientUnits="userSpaceOnUse">
<stop stop-color="#FFC700"/>
<stop offset="1" stop-color="#FC9517"/>
</linearGradient>
<linearGradient id="paint4_linear" x1="119.316" y1="160.829" x2="119.316" y2="205.911" gradientUnits="userSpaceOnUse">
<stop stop-color="#6A239B"/>
<stop offset="1" stop-color="#54167E"/>
</linearGradient>
<linearGradient id="paint5_linear" x1="121.248" y1="160.829" x2="121.248" y2="205.911" gradientUnits="userSpaceOnUse">
<stop stop-color="#FFC700"/>
<stop offset="1" stop-color="#FC9517"/>
</linearGradient>
<linearGradient id="paint6_linear" x1="21.3159" y1="140.435" x2="21.3159" y2="205.911" gradientUnits="userSpaceOnUse">
<stop stop-color="#451168"/>
<stop offset="1" stop-color="#54167E"/>
</linearGradient>
<linearGradient id="paint7_linear" x1="20.7798" y1="149.236" x2="20.7798" y2="196.465" gradientUnits="userSpaceOnUse">
<stop stop-color="#FFC700"/>
<stop offset="1" stop-color="#FC9517"/>
</linearGradient>
<linearGradient id="paint8_linear" x1="97.7414" y1="149.236" x2="97.7414" y2="151.383" gradientUnits="userSpaceOnUse">
<stop stop-color="#FFC700"/>
<stop offset="1" stop-color="#FC9517"/>
</linearGradient>
<linearGradient id="paint9_linear" x1="143.703" y1="109.092" x2="143.703" y2="151.598" gradientUnits="userSpaceOnUse">
<stop stop-color="#FFC700"/>
<stop offset="1" stop-color="#FC9517"/>
</linearGradient>
<linearGradient id="paint10_linear" x1="64.8208" y1="113.17" x2="64.8208" y2="151.598" gradientUnits="userSpaceOnUse">
<stop stop-color="#FFC700"/>
<stop offset="1" stop-color="#FC9517"/>
</linearGradient>
</defs>
</svg>
