<svg width="197" height="309" viewBox="0 0 197 309" fill="none" xmlns="http://www.w3.org/2000/svg">
<path d="M56.2837 70H23.8472V63.1763L35.4951 51.4014C38.944 47.8678 41.1974 45.424 42.2554 44.0698C43.3133 42.6945 44.075 41.425 44.5405 40.2612C45.006 39.0975 45.2388 37.8914 45.2388 36.6431C45.2388 34.7811 44.7204 33.3952 43.6836 32.4854C42.668 31.5755 41.3032 31.1206 39.5894 31.1206C37.7909 31.1206 36.0452 31.5332 34.3525 32.3584C32.6598 33.1836 30.8931 34.3579 29.0522 35.8813L23.7202 29.5654C26.0054 27.6188 27.8991 26.2435 29.4014 25.4395C30.9036 24.6354 32.5435 24.0218 34.3208 23.5986C36.0981 23.1543 38.0871 22.9321 40.2876 22.9321C43.1864 22.9321 45.7466 23.4611 47.9683 24.519C50.1899 25.577 51.9144 27.0581 53.1416 28.9624C54.3688 30.8667 54.9824 33.0461 54.9824 35.5005C54.9824 37.6375 54.6016 39.6476 53.8398 41.5308C53.0993 43.3927 51.9355 45.3076 50.3486 47.2754C48.7829 49.2432 46.0111 52.0467 42.0332 55.686L36.0664 61.3037V61.748H56.2837V70ZM101.542 70H90.3706L78.2148 50.4492L74.0571 53.4326V70H64.2183V23.5986H74.0571V44.8315L77.9292 39.3726L90.4976 23.5986H101.416L85.229 44.1333L101.542 70Z" fill="#FFAA2E"/>
<path d="M190.113 52.6754C189.845 52.0337 189.22 51.615 188.527 51.615H169.724V8.71602C169.724 7.7688 168.955 7 168.008 7H140.552C139.605 7 138.836 7.7688 138.836 8.71602V51.6151H119.961C119.267 51.6151 118.643 52.0339 118.375 52.6722C118.111 53.3139 118.255 54.0519 118.746 54.5427L152.979 88.8894C153.302 89.2119 153.738 89.3939 154.194 89.3939C154.65 89.3939 155.086 89.2119 155.409 88.8928L189.742 54.5461C190.233 54.0551 190.38 53.3173 190.113 52.6754Z" fill="#FFAA2E"/>
<path d="M191.522 202.691H42.5364V308.527H191.522V202.691Z" fill="url(#paint0_linear)"/>
<path d="M130.553 202.691H115.097V308.527H130.553V202.691Z" fill="url(#paint1_linear)"/>
<path d="M191.522 202.691H42.5364V213.854H191.522V202.691Z" fill="#DEDEDE"/>
<path d="M4.1084 288.991L42.5355 308.527V202.691L4.1084 183.155V288.991Z" fill="url(#paint2_linear)"/>
<path d="M42.5355 203.335V213.854L4.1084 194.533V184.014L42.5355 203.335Z" fill="#DEDEDE"/>
<path d="M23.8582 193.245V299.081L19.7793 296.934V191.313L23.8582 193.245Z" fill="url(#paint3_linear)"/>
<path d="M196.245 160.829H40.3896V205.911H196.245V160.829Z" fill="url(#paint4_linear)"/>
<path d="M127.977 160.829H112.52V205.911H127.977V160.829Z" fill="url(#paint5_linear)"/>
<path d="M0.244629 185.517L40.3892 205.911V160.829L0.244629 140.435V185.517Z" fill="url(#paint6_linear)"/>
<path d="M21.7128 151.383V196.465L17.8486 194.533V149.236L21.7128 151.383Z" fill="url(#paint7_linear)"/>
<path d="M196.245 160.829H40.3892L21.7123 151.383L17.8481 149.236L0.244629 140.435H151.592L171.127 149.236L175.636 151.383L196.245 160.829Z" fill="#A940E5"/>
<path d="M175.636 151.383H21.7128L17.8486 149.236H171.128L175.636 151.383Z" fill="url(#paint8_linear)"/>
<path d="M83.3246 140.435H67.8679L112.521 160.829H127.763L83.3246 140.435Z" fill="#FAD843"/>
<path d="M164.472 144.728C161.896 147.948 156.744 151.598 156.744 151.598H101.143C101.143 151.598 123.04 100.29 149.23 109.092C150.518 109.521 151.806 110.165 153.094 110.809C158.461 115.747 152.45 124.763 157.817 130.774C163.184 136.785 167.263 141.508 164.472 144.728Z" fill="#F7D245"/>
<path d="M128.621 133.779C119.175 143.869 109.944 150.739 108.012 149.021C106.295 147.304 112.52 137.858 121.966 127.554C131.412 117.249 140.643 110.594 142.575 112.312C144.507 114.244 138.282 123.689 128.621 133.779Z" fill="#EDA328"/>
<path d="M102.216 151.598H46.6146C46.6146 151.598 41.4624 147.948 38.8862 144.728C36.3101 141.508 40.389 137 45.7559 130.774C50.2641 125.622 46.6146 118.108 48.7614 113.171C49.1907 112.312 49.6201 111.453 50.4788 110.809C77.9574 94.9231 102.216 151.598 102.216 151.598Z" fill="#F7D245"/>
<path d="M74.7371 133.78C84.1829 143.87 93.414 150.739 95.3461 149.022C97.0635 147.304 90.8379 137.859 81.3921 127.554C71.9463 117.25 62.7152 110.595 60.7831 112.312C58.851 114.244 65.2913 123.69 74.7371 133.78Z" fill="#EDA328"/>
<path d="M116.6 144.728V147.304C116.6 149.451 114.882 151.383 112.521 151.383H90.6238C88.477 151.383 86.5449 149.665 86.5449 147.304V144.728C86.5449 144.513 86.5449 144.298 86.5449 143.869C86.9743 142.152 88.477 140.649 90.4091 140.649H112.306C114.238 140.649 115.956 141.937 116.17 143.869C116.6 144.298 116.6 144.513 116.6 144.728Z" fill="#EDA328"/>
<path d="M116.6 144.084C116.171 146.017 114.668 147.305 112.736 147.305H90.839C88.9069 147.305 87.1895 146.017 86.9749 144.084C87.4042 142.367 88.9069 140.864 90.839 140.864H112.736C114.668 140.864 116.171 142.152 116.6 144.084Z" fill="#F7D245"/>
<path d="M164.472 144.728C161.896 147.948 156.743 151.598 156.743 151.598H120.034C120.892 150.524 122.18 149.666 123.254 149.022C127.547 146.446 132.7 145.802 137.637 144.728C143.219 143.44 149.23 140.435 150.518 134.853C150.947 132.921 150.947 130.774 150.732 128.627C150.088 122.187 149.659 115.532 149.015 109.092C150.303 109.521 151.591 110.165 152.879 110.809C158.246 115.747 152.235 124.763 157.602 130.774C163.184 136.785 167.263 141.508 164.472 144.728Z" fill="url(#paint9_linear)"/>
<path d="M89.5497 151.598H46.6144C46.6144 151.598 41.4621 147.948 38.886 144.728C36.3099 141.508 40.3887 137 45.7557 130.774C50.2639 125.622 46.6144 118.108 48.7611 113.17C49.6198 116.176 50.2639 119.396 51.1226 122.402C52.196 126.266 53.0547 129.915 54.7721 133.565C59.495 143.01 69.7995 149.236 80.3186 149.236C82.4654 149.236 84.6122 149.021 86.5443 149.665C87.6176 149.665 88.691 150.524 89.5497 151.598Z" fill="url(#paint10_linear)"/>
<defs>
<linearGradient id="paint0_linear" x1="117.029" y1="202.691" x2="117.029" y2="308.527" gradientUnits="userSpaceOnUse">
<stop stop-color="#6A239B"/>
<stop offset="1" stop-color="#54167E"/>
</linearGradient>
<linearGradient id="paint1_linear" x1="122.825" y1="202.691" x2="122.825" y2="308.527" gradientUnits="userSpaceOnUse">
<stop stop-color="#FFC700"/>
<stop offset="1" stop-color="#FC9517"/>
</linearGradient>
<linearGradient id="paint2_linear" x1="23.322" y1="183.155" x2="23.322" y2="308.527" gradientUnits="userSpaceOnUse">
<stop stop-color="#451168"/>
<stop offset="1" stop-color="#54167E"/>
</linearGradient>
<linearGradient id="paint3_linear" x1="21.8187" y1="191.313" x2="21.8187" y2="299.081" gradientUnits="userSpaceOnUse">
<stop stop-color="#FFC700"/>
<stop offset="1" stop-color="#FC9517"/>
</linearGradient>
<linearGradient id="paint4_linear" x1="118.317" y1="160.829" x2="118.317" y2="205.911" gradientUnits="userSpaceOnUse">
<stop stop-color="#6A239B"/>
<stop offset="1" stop-color="#54167E"/>
</linearGradient>
<linearGradient id="paint5_linear" x1="120.249" y1="160.829" x2="120.249" y2="205.911" gradientUnits="userSpaceOnUse">
<stop stop-color="#FFC700"/>
<stop offset="1" stop-color="#FC9517"/>
</linearGradient>
<linearGradient id="paint6_linear" x1="20.3169" y1="140.435" x2="20.3169" y2="205.911" gradientUnits="userSpaceOnUse">
<stop stop-color="#451168"/>
<stop offset="1" stop-color="#54167E"/>
</linearGradient>
<linearGradient id="paint7_linear" x1="19.7807" y1="149.236" x2="19.7807" y2="196.465" gradientUnits="userSpaceOnUse">
<stop stop-color="#FFC700"/>
<stop offset="1" stop-color="#FC9517"/>
</linearGradient>
<linearGradient id="paint8_linear" x1="96.7424" y1="149.236" x2="96.7424" y2="151.383" gradientUnits="userSpaceOnUse">
<stop stop-color="#FFC700"/>
<stop offset="1" stop-color="#FC9517"/>
</linearGradient>
<linearGradient id="paint9_linear" x1="142.704" y1="109.092" x2="142.704" y2="151.598" gradientUnits="userSpaceOnUse">
<stop stop-color="#FFC700"/>
<stop offset="1" stop-color="#FC9517"/>
</linearGradient>
<linearGradient id="paint10_linear" x1="63.8217" y1="113.17" x2="63.8217" y2="151.598" gradientUnits="userSpaceOnUse">
<stop stop-color="#FFC700"/>
<stop offset="1" stop-color="#FC9517"/>
</linearGradient>
</defs>
</svg>
