<svg width="199" height="320" viewBox="0 0 199 320" fill="none" xmlns="http://www.w3.org/2000/svg">
<path d="M50.4893 271.356C54.9749 271.356 58.5402 272.615 61.1851 275.133C63.8511 277.651 65.1841 281.1 65.1841 285.48C65.1841 290.664 63.5866 294.652 60.3916 297.445C57.1966 300.238 52.6263 301.635 46.6807 301.635C41.5179 301.635 37.3496 300.799 34.1758 299.127V290.653C35.8473 291.542 37.7939 292.272 40.0156 292.843C42.2373 293.393 44.3426 293.668 46.3315 293.668C52.3195 293.668 55.3135 291.214 55.3135 286.305C55.3135 281.629 52.2137 279.291 46.0142 279.291C44.8927 279.291 43.6549 279.407 42.3008 279.64C40.9466 279.852 39.8464 280.084 39 280.338L35.0962 278.244L36.8418 254.599H62.0103V262.914H45.4429L44.5859 272.023L45.6968 271.801C46.9875 271.505 48.585 271.356 50.4893 271.356ZM111.3 301H100.128L87.9722 281.449L83.8145 284.433V301H73.9756V254.599H83.8145V275.832L87.6865 270.373L100.255 254.599H111.173L94.9863 275.133L111.3 301Z" fill="url(#paint0_linear)"/>
<path d="M123.134 261.719C123.402 262.36 124.026 262.779 124.719 262.779H143.523V305.678C143.523 306.625 144.292 307.394 145.239 307.394H172.694C173.642 307.394 174.41 306.625 174.41 305.678V262.779H193.286C193.979 262.779 194.604 262.36 194.872 261.722C195.136 261.08 194.992 260.342 194.501 259.851L160.267 225.505C159.945 225.182 159.509 225 159.052 225C158.596 225 158.16 225.182 157.838 225.501L123.505 259.848C123.014 260.339 122.866 261.077 123.134 261.719Z" fill="url(#paint1_linear)"/>
<path d="M4.01465 187.333L42.7178 206.921V100.251L4.01465 80.6636V187.333Z" fill="url(#paint2_linear)"/>
<path d="M42.7178 103.319V115.355L4.01465 95.5313V83.4956L42.7178 103.319Z" fill="#CD8317"/>
<path d="M37.7618 116.771C37.7618 116.063 33.2779 113.467 27.1421 110.635C30.21 108.747 32.3339 107.095 31.8619 106.623C31.626 106.151 28.794 106.859 25.7261 108.511C25.4901 102.376 25.0181 97.6557 24.3101 97.1837C23.6021 96.9477 23.1301 101.196 22.8941 107.095C19.5902 102.612 16.9943 99.3076 16.7583 99.5436C16.5223 99.7796 18.4102 103.32 21.4782 107.803C15.3423 105.208 10.8584 103.556 10.8584 104.264C10.8584 104.972 15.3423 107.567 21.4782 110.399C18.4102 112.287 16.2863 113.939 16.7583 114.411C16.9943 114.883 19.8262 114.175 22.8941 112.523C23.1301 118.659 23.6021 123.379 24.3101 123.851C25.0181 124.087 25.4901 119.839 25.7261 113.939C29.03 118.423 31.626 121.727 31.8619 121.491C32.0979 121.255 30.21 117.715 27.1421 113.231C33.2779 115.827 37.7618 117.479 37.7618 116.771Z" fill="url(#paint3_linear)"/>
<path d="M37.7618 191.346C37.7618 190.638 33.2779 188.042 27.1421 185.21C30.21 183.322 32.3339 181.67 31.8619 181.198C31.626 180.726 28.794 181.434 25.7261 183.086C25.4901 176.95 25.0181 172.23 24.3101 171.758C23.6021 171.522 23.1301 175.77 22.8941 181.67C19.5902 177.186 16.9943 173.882 16.7583 174.118C16.5223 174.354 18.4102 177.894 21.4782 182.378C15.3423 179.782 10.8584 178.13 10.8584 178.838C10.8584 179.546 15.3423 182.142 21.4782 184.974C18.4102 186.862 16.2863 188.514 16.7583 188.986C16.9943 189.458 19.8262 188.75 22.8941 187.098C23.1301 193.234 23.6021 197.954 24.3101 198.426C25.0181 198.662 25.4901 194.414 25.7261 188.514C29.03 192.998 31.626 196.302 31.8619 196.066C32.0979 195.83 30.21 192.29 27.1421 187.806C33.2779 190.402 37.7618 192.054 37.7618 191.346Z" fill="url(#paint4_linear)"/>
<path d="M18.8813 145.563C18.8813 144.855 14.3974 142.259 8.26158 139.427C11.3295 137.539 13.4535 135.887 12.9815 135.415C12.7455 134.943 9.91353 135.651 6.8456 137.303C6.60961 131.167 6.1376 126.447 5.42962 125.975C4.72163 125.739 4.24967 129.987 4.01367 135.887V141.551C4.24967 147.687 4.72163 152.407 5.42962 152.879C6.1376 153.115 6.60961 148.867 6.8456 142.967C10.1495 147.451 12.7455 150.755 12.9815 150.519C13.2175 150.283 11.3295 146.743 8.26158 142.259C14.3974 144.619 18.8813 146.271 18.8813 145.563Z" fill="url(#paint5_linear)"/>
<path d="M42.7168 142.967C42.0088 142.731 41.5369 146.979 41.3009 152.879C37.997 148.395 35.401 145.091 35.165 145.327C34.929 145.563 36.817 149.103 39.8849 153.587C33.749 150.991 29.2651 149.339 29.2651 150.047C29.2651 150.755 33.749 153.351 39.8849 156.183C36.817 158.071 34.693 159.723 35.165 160.195C35.401 160.667 38.2329 159.959 41.3009 158.307C41.5369 164.443 42.0088 169.163 42.7168 169.635V142.967Z" fill="url(#paint6_linear)"/>
<path d="M193.28 100.251H42.7158V207.157H193.28V100.251Z" fill="url(#paint7_linear)"/>
<path d="M75.0494 119.131C75.0494 118.423 70.5655 117.951 64.4296 117.715C67.4975 114.411 69.6215 111.815 69.1495 111.579C68.6775 111.343 66.0816 113.231 63.0137 116.299C62.7777 110.163 62.3057 105.679 61.5977 105.679C60.8897 105.679 60.4177 110.163 60.1817 116.299C56.8778 113.231 54.2819 111.107 54.0459 111.579C53.8099 111.815 55.6978 114.647 58.7658 117.715C52.6299 117.951 48.146 118.423 48.146 119.131C48.146 119.839 52.6299 120.311 58.7658 120.547C55.6978 123.851 53.5739 126.447 54.0459 126.683C54.2819 126.919 57.1138 125.031 60.1817 121.963C60.4177 128.099 60.8897 132.583 61.5977 132.583C62.3057 132.583 62.7777 128.099 63.0137 121.963C66.3176 125.031 68.9135 127.155 69.1495 126.683C69.3855 126.447 67.4975 123.615 64.4296 120.547C70.5655 120.311 75.0494 119.603 75.0494 119.131Z" fill="url(#paint8_linear)"/>
<path d="M112.808 119.131C112.808 118.423 108.324 117.951 102.188 117.715C105.256 114.411 107.38 111.815 106.908 111.579C106.672 111.343 103.84 113.231 100.772 116.299C100.536 110.163 100.064 105.679 99.356 105.679C98.648 105.679 98.176 110.163 97.94 116.299C94.6361 113.231 92.0402 111.107 91.8042 111.579C91.5682 111.815 93.4561 114.647 96.5241 117.715C90.3882 117.951 85.9043 118.423 85.9043 119.131C85.9043 119.839 90.3882 120.311 96.5241 120.547C93.4561 123.851 91.3322 126.447 91.8042 126.683C92.0402 126.919 94.8721 125.031 97.94 121.963C98.176 128.099 98.648 132.583 99.356 132.583C100.064 132.583 100.536 128.099 100.772 121.963C104.076 125.031 106.672 127.155 106.908 126.683C107.144 126.447 105.256 123.615 102.188 120.547C108.324 120.311 112.808 119.603 112.808 119.131Z" fill="url(#paint9_linear)"/>
<path d="M150.566 119.131C150.566 118.423 146.083 117.951 139.947 117.715C143.015 114.411 145.139 111.815 144.667 111.579C144.431 111.343 141.599 113.231 138.531 116.299C138.295 110.163 137.823 105.679 137.115 105.679C136.407 105.679 135.935 110.163 135.699 116.299C132.395 113.231 129.799 111.107 129.563 111.579C129.327 111.815 131.215 114.647 134.283 117.715C128.147 117.951 123.663 118.423 123.663 119.131C123.663 119.839 128.147 120.311 134.283 120.547C131.215 123.851 129.091 126.447 129.563 126.683C129.799 126.919 132.631 125.031 135.699 121.963C135.935 128.099 136.407 132.583 137.115 132.583C137.823 132.583 138.295 128.099 138.531 121.963C141.835 125.031 144.431 127.155 144.667 126.683C144.903 126.447 143.015 123.615 139.947 120.547C146.083 120.311 150.566 119.603 150.566 119.131Z" fill="url(#paint10_linear)"/>
<path d="M188.326 119.131C188.326 118.423 183.842 117.951 177.706 117.715C180.774 114.411 182.898 111.815 182.426 111.579C182.19 111.343 179.358 113.231 176.29 116.299C176.054 110.163 175.583 105.679 174.875 105.679C174.167 105.679 173.695 110.163 173.459 116.299C170.155 113.231 167.559 111.107 167.323 111.579C167.087 111.815 168.975 114.647 172.043 117.715C165.907 117.951 161.423 118.423 161.423 119.131C161.423 119.839 165.907 120.311 172.043 120.547C168.975 123.851 166.851 126.447 167.323 126.683C167.559 126.919 170.391 125.031 173.459 121.963C173.695 128.099 174.167 132.583 174.875 132.583C175.583 132.583 176.054 128.099 176.29 121.963C179.594 125.031 182.19 127.155 182.426 126.683C182.662 126.447 180.774 123.615 177.706 120.547C183.606 120.311 188.326 119.603 188.326 119.131Z" fill="url(#paint11_linear)"/>
<path d="M75.0494 193.469C75.0494 192.761 70.5655 192.289 64.4296 192.053C67.4975 188.749 69.6215 186.153 69.1495 185.917C68.9135 185.681 66.0816 187.569 63.0137 190.637C62.7777 184.501 62.3057 180.018 61.5977 180.018C60.8897 180.018 60.4177 184.501 60.1817 190.637C56.8778 187.569 54.2819 185.445 54.0459 185.917C53.8099 186.153 55.6978 188.985 58.7658 192.053C52.6299 192.289 48.146 192.761 48.146 193.469C48.146 194.177 52.6299 194.649 58.7658 194.885C55.6978 198.189 53.5739 200.785 54.0459 201.021C54.2819 201.257 57.1138 199.369 60.1817 196.301C60.4177 202.437 60.8897 206.921 61.5977 206.921C62.3057 206.921 62.7777 202.437 63.0137 196.301C66.3176 199.369 68.9135 201.493 69.1495 201.021C69.3855 200.785 67.4975 197.953 64.4296 194.885C70.5655 194.885 75.0494 194.177 75.0494 193.469Z" fill="url(#paint12_linear)"/>
<path d="M112.808 193.469C112.808 192.761 108.324 192.289 102.188 192.053C105.256 188.749 107.38 186.153 106.908 185.917C106.672 185.681 103.84 187.569 100.772 190.637C100.536 184.501 100.064 180.018 99.356 180.018C98.648 180.018 98.176 184.501 97.94 190.637C94.6361 187.569 92.0402 185.445 91.8042 185.917C91.5682 186.153 93.4561 188.985 96.5241 192.053C90.3882 192.289 85.9043 192.761 85.9043 193.469C85.9043 194.177 90.3882 194.649 96.5241 194.885C93.4561 198.189 91.3322 200.785 91.8042 201.021C92.0402 201.257 94.8721 199.369 97.94 196.301C98.176 202.437 98.648 206.921 99.356 206.921C100.064 206.921 100.536 202.437 100.772 196.301C104.076 199.369 106.672 201.493 106.908 201.021C107.144 200.785 105.256 197.953 102.188 194.885C108.324 194.885 112.808 194.177 112.808 193.469Z" fill="url(#paint13_linear)"/>
<path d="M150.566 193.469C150.566 192.761 146.083 192.289 139.947 192.053C143.015 188.749 145.139 186.153 144.667 185.917C144.431 185.681 141.599 187.569 138.531 190.637C138.295 184.501 137.823 180.018 137.115 180.018C136.407 180.018 135.935 184.501 135.699 190.637C132.395 187.569 129.799 185.445 129.563 185.917C129.327 186.153 131.215 188.985 134.283 192.053C128.147 192.289 123.663 192.761 123.663 193.469C123.663 194.177 128.147 194.649 134.283 194.885C131.215 198.189 129.091 200.785 129.563 201.021C129.799 201.257 132.631 199.369 135.699 196.301C135.935 202.437 136.407 206.921 137.115 206.921C137.823 206.921 138.295 202.437 138.531 196.301C141.835 199.369 144.431 201.493 144.667 201.021C144.903 200.785 143.015 197.953 139.947 194.885C146.083 194.885 150.566 194.177 150.566 193.469Z" fill="url(#paint14_linear)"/>
<path d="M188.326 193.469C188.326 192.761 183.842 192.289 177.706 192.053C180.774 188.749 182.898 186.153 182.426 185.917C182.19 185.681 179.358 187.569 176.29 190.637C176.054 184.501 175.583 180.018 174.875 180.018C174.167 180.018 173.695 184.501 173.459 190.637C170.155 187.569 167.559 185.445 167.323 185.917C167.087 186.153 168.975 188.985 172.043 192.053C165.907 192.289 161.423 192.761 161.423 193.469C161.423 194.177 165.907 194.649 172.043 194.885C168.975 198.189 166.851 200.785 167.323 201.021C167.559 201.257 170.391 199.369 173.459 196.301C173.695 202.437 174.167 206.921 174.875 206.921C175.583 206.921 176.054 202.437 176.29 196.301C179.594 199.369 182.19 201.493 182.426 201.021C182.662 200.785 180.774 197.953 177.706 194.885C183.606 194.885 188.326 194.177 188.326 193.469Z" fill="url(#paint15_linear)"/>
<path d="M93.9297 156.418C93.9297 155.71 89.4458 155.238 83.31 155.002C86.3779 151.698 88.5019 149.102 88.0299 148.866C87.7939 148.63 84.962 150.518 81.894 153.586C81.658 147.45 81.186 142.966 80.4781 142.966C79.7701 142.966 79.2981 147.45 79.0621 153.586C75.7582 150.518 73.1622 148.394 72.9262 148.866C72.6902 149.102 74.5782 151.934 77.6461 155.002C71.5103 155.238 67.0264 155.71 67.0264 156.418C67.0264 157.125 71.5103 157.597 77.6461 157.833C74.5782 161.137 72.4542 163.733 72.9262 163.969C73.1622 164.205 75.9942 162.317 79.0621 159.249C79.2981 165.385 79.7701 169.869 80.4781 169.869C81.186 169.869 81.658 165.385 81.894 159.249C85.198 162.317 87.7939 164.441 88.0299 163.969C88.2659 163.733 86.3779 160.901 83.31 157.833C89.4458 157.597 93.9297 157.125 93.9297 156.418Z" fill="url(#paint16_linear)"/>
<path d="M131.689 156.418C131.689 155.71 127.205 155.238 121.069 155.002C124.137 151.698 126.261 149.102 125.789 148.866C125.317 148.63 122.721 150.518 119.653 153.586C119.417 147.45 118.945 142.966 118.237 142.966C117.529 142.966 117.057 147.45 116.821 153.586C113.517 150.518 110.921 148.394 110.685 148.866C110.449 149.102 112.337 151.934 115.405 155.002C109.269 155.238 104.785 155.71 104.785 156.418C104.785 157.125 109.269 157.597 115.405 157.833C112.337 161.137 110.213 163.733 110.685 163.969C110.921 164.205 113.753 162.317 116.821 159.249C117.057 165.385 117.529 169.869 118.237 169.869C118.945 169.869 119.417 165.385 119.653 159.249C122.957 162.317 125.553 164.441 125.789 163.969C126.025 163.733 124.137 160.901 121.069 157.833C127.205 157.597 131.689 157.125 131.689 156.418Z" fill="url(#paint17_linear)"/>
<path d="M169.448 156.418C169.448 155.71 164.964 155.238 158.828 155.002C161.896 151.698 164.02 149.102 163.548 148.866C163.076 148.63 160.48 150.518 157.412 153.586C157.176 147.45 156.704 142.966 155.996 142.966C155.288 142.966 154.816 147.45 154.58 153.586C151.276 150.518 148.68 148.394 148.444 148.866C148.208 149.102 150.096 151.934 153.164 155.002C147.028 155.238 142.544 155.71 142.544 156.418C142.544 157.125 147.028 157.597 153.164 157.833C150.096 161.137 147.972 163.733 148.444 163.969C148.68 164.205 151.512 162.317 154.58 159.249C154.816 165.385 155.288 169.869 155.996 169.869C156.704 169.869 157.176 165.385 157.412 159.249C160.716 162.317 163.312 164.441 163.548 163.969C163.784 163.733 161.896 160.901 158.828 157.833C164.964 157.597 169.448 157.125 169.448 156.418Z" fill="url(#paint18_linear)"/>
<path d="M193.283 142.966C192.575 142.966 192.103 147.45 191.867 153.586C188.563 150.518 185.967 148.394 185.731 148.866C185.495 149.102 187.383 151.934 190.451 155.002C184.315 155.238 179.832 155.71 179.832 156.418C179.832 157.125 184.315 157.597 190.451 157.833C187.383 161.137 185.259 163.733 185.731 163.969C185.967 164.205 188.799 162.317 191.867 159.249C192.103 165.385 192.575 169.869 193.283 169.869V142.966Z" fill="url(#paint19_linear)"/>
<path d="M56.1691 156.418C56.1691 155.71 51.6852 155.238 45.5493 155.002C48.6173 151.698 50.7412 149.102 50.2692 148.866C50.0332 148.63 47.2013 150.518 44.1334 153.586C43.8974 147.45 43.4254 142.966 42.7174 142.966C42.7174 142.966 42.7174 142.966 42.4814 143.202V169.869C42.4814 169.869 42.4814 170.105 42.7174 170.105C43.4254 170.105 43.8974 165.621 44.1334 159.485C47.4373 162.553 50.0332 164.677 50.2692 164.205C50.5052 163.969 48.6173 161.137 45.5493 158.07C51.6852 157.598 56.1691 157.125 56.1691 156.418Z" fill="url(#paint20_linear)"/>
<path d="M131.687 100.251H116.111V207.157H131.687V100.251Z" fill="url(#paint21_linear)"/>
<path d="M23.8381 90.575V197.481L19.8262 195.357V88.687L23.8381 90.575Z" fill="url(#paint22_linear)"/>
<path d="M198.001 57.7723H40.593L21.7135 48.3325L17.7016 46.2085L0.00195312 37.2407H152.926L172.75 46.2085L176.998 48.3325L198.001 57.7723Z" fill="#FFD34F"/>
<path d="M176.998 48.332H21.7131L17.7012 46.208H172.75L176.998 48.332Z" fill="#8D36CA"/>
<path d="M84.017 37.2407H68.4414L113.28 57.7723H128.856L84.017 37.2407Z" fill="#601D8F"/>
<path d="M0.00195312 82.7877L40.593 103.319V57.7723L0.00195312 37.2407V82.7877Z" fill="url(#paint23_linear)"/>
<path d="M21.7131 48.332V93.8789L17.7012 91.755V46.208L21.7131 48.332Z" fill="url(#paint24_linear)"/>
<path d="M168.031 40.3086C165.199 43.8485 159.535 47.8604 159.535 47.8604H98.4126C98.4126 47.8604 122.484 -8.54233 151.275 1.13345C152.691 1.60544 154.107 2.31343 155.523 3.02141C161.423 8.44929 154.815 18.3611 160.715 24.9689C166.379 31.8128 171.099 36.7686 168.031 40.3086Z" fill="#BB6BD9"/>
<path d="M128.62 28.509C118.236 39.6007 108.088 47.1526 105.964 45.2646C104.076 43.3767 110.92 32.9929 121.304 21.6651C131.688 10.5734 141.836 3.02155 143.96 4.90951C146.084 6.79746 139.004 17.1812 128.62 28.509Z" fill="#4C094E"/>
<path d="M99.5919 47.8603H38.4692C38.4692 47.8603 32.8054 43.8484 29.9735 40.3085C27.1415 36.7686 31.6254 31.8127 37.5253 24.9689C42.4812 19.305 38.4692 11.0452 40.8292 5.61729C41.3012 4.67331 41.7732 3.72934 42.7172 3.02135C72.9245 -14.2063 99.5919 47.8603 99.5919 47.8603Z" fill="#BB6BD9"/>
<path d="M69.3847 28.5085C79.7685 39.6002 89.9163 47.1521 92.0402 45.2641C93.9282 43.3762 87.0843 32.9924 76.7006 21.6647C66.3168 10.5729 56.169 3.02106 54.0451 4.90902C51.9211 6.79697 58.765 17.1807 69.3847 28.5085Z" fill="#4C094E"/>
<path d="M115.404 40.5444V43.3764C115.404 45.7363 113.517 47.8603 110.921 47.8603H86.8491C84.4892 47.8603 82.3652 45.9723 82.3652 43.3764V40.5444C82.3652 40.3085 82.3652 40.0725 82.3652 39.6005C82.8372 37.7125 84.4892 36.0605 86.6131 36.0605H110.685C112.809 36.0605 114.696 37.4765 114.932 39.6005C115.404 39.8365 115.404 40.0725 115.404 40.5444Z" fill="#591985"/>
<path d="M115.402 39.6005C114.93 41.7244 113.278 43.1404 111.154 43.1404H87.0829C84.9589 43.1404 83.071 41.7244 82.835 39.6005C83.307 37.7125 84.9589 36.0605 87.0829 36.0605H111.154C113.042 36.0605 114.93 37.4765 115.402 39.6005Z" fill="#BB6BD9"/>
<path d="M168.03 40.3089C165.198 43.8488 159.534 47.8607 159.534 47.8607H119.179C120.123 46.6808 121.539 45.7368 122.719 45.0288C127.439 42.1969 133.102 41.4889 138.53 40.3089C144.666 38.8929 151.274 35.589 152.69 29.4532C153.162 27.3292 153.162 24.9692 152.926 22.6093C152.218 15.5295 151.746 8.21363 151.038 1.13379C152.454 1.60578 153.87 2.31377 155.286 3.02175C161.186 8.44963 154.578 18.3614 160.478 24.9692C166.378 31.8131 171.097 36.769 168.03 40.3089Z" fill="url(#paint25_linear)"/>
<path d="M85.6682 47.8607H38.4692C38.4692 47.8607 32.8054 43.8488 29.9735 40.3089C27.1415 36.769 31.6254 31.8131 37.5253 24.9692C42.4812 19.3054 38.4692 11.0456 40.8292 5.61768C41.7732 8.9216 42.4812 12.4615 43.4252 15.7655C44.6051 20.0134 45.5491 24.0253 47.4371 28.0372C52.6289 38.4209 63.9567 45.2648 75.5204 45.2648C77.8804 45.2648 80.2403 45.0288 82.3643 45.7368C83.5443 45.9728 84.7242 46.6808 85.6682 47.8607Z" fill="url(#paint26_linear)"/>
<path d="M193.28 100.251H42.7158V115.355H193.28V100.251Z" fill="#DF901D"/>
<path d="M198.002 57.7725H40.5938V103.319H198.002V57.7725Z" fill="url(#paint27_linear)"/>
<path d="M128.855 57.7725H113.279V103.319H128.855V57.7725Z" fill="url(#paint28_linear)"/>
<defs>
<linearGradient id="paint0_linear" x1="71.502" y1="231" x2="71.502" y2="320" gradientUnits="userSpaceOnUse">
<stop stop-color="#FFC700"/>
<stop offset="1" stop-color="#FC9517"/>
</linearGradient>
<linearGradient id="paint1_linear" x1="159.002" y1="307.394" x2="159.002" y2="225" gradientUnits="userSpaceOnUse">
<stop stop-color="#FFC700"/>
<stop offset="1" stop-color="#FC9517"/>
</linearGradient>
<linearGradient id="paint2_linear" x1="23.3662" y1="80.6636" x2="23.3662" y2="206.921" gradientUnits="userSpaceOnUse">
<stop stop-color="#FFC700"/>
<stop offset="1" stop-color="#BF6A03"/>
</linearGradient>
<linearGradient id="paint3_linear" x1="24.3101" y1="97.1743" x2="24.3101" y2="123.86" gradientUnits="userSpaceOnUse">
<stop stop-color="#6A239B"/>
<stop offset="1" stop-color="#54167E"/>
</linearGradient>
<linearGradient id="paint4_linear" x1="24.3101" y1="171.749" x2="24.3101" y2="198.435" gradientUnits="userSpaceOnUse">
<stop stop-color="#6A239B"/>
<stop offset="1" stop-color="#54167E"/>
</linearGradient>
<linearGradient id="paint5_linear" x1="11.4475" y1="125.966" x2="11.4475" y2="152.888" gradientUnits="userSpaceOnUse">
<stop stop-color="#6A239B"/>
<stop offset="1" stop-color="#54167E"/>
</linearGradient>
<linearGradient id="paint6_linear" x1="35.991" y1="142.958" x2="35.991" y2="169.635" gradientUnits="userSpaceOnUse">
<stop stop-color="#6A239B"/>
<stop offset="1" stop-color="#54167E"/>
</linearGradient>
<linearGradient id="paint7_linear" x1="117.998" y1="100.251" x2="117.998" y2="207.157" gradientUnits="userSpaceOnUse">
<stop stop-color="#FFC700"/>
<stop offset="1" stop-color="#FC9517"/>
</linearGradient>
<linearGradient id="paint8_linear" x1="61.5977" y1="105.679" x2="61.5977" y2="132.583" gradientUnits="userSpaceOnUse">
<stop stop-color="#6A239B"/>
<stop offset="1" stop-color="#54167E"/>
</linearGradient>
<linearGradient id="paint9_linear" x1="99.356" y1="105.679" x2="99.356" y2="132.583" gradientUnits="userSpaceOnUse">
<stop stop-color="#6A239B"/>
<stop offset="1" stop-color="#54167E"/>
</linearGradient>
<linearGradient id="paint10_linear" x1="137.115" y1="105.679" x2="137.115" y2="132.583" gradientUnits="userSpaceOnUse">
<stop stop-color="#6A239B"/>
<stop offset="1" stop-color="#54167E"/>
</linearGradient>
<linearGradient id="paint11_linear" x1="174.875" y1="105.679" x2="174.875" y2="132.583" gradientUnits="userSpaceOnUse">
<stop stop-color="#6A239B"/>
<stop offset="1" stop-color="#54167E"/>
</linearGradient>
<linearGradient id="paint12_linear" x1="61.5977" y1="180.018" x2="61.5977" y2="206.921" gradientUnits="userSpaceOnUse">
<stop stop-color="#6A239B"/>
<stop offset="1" stop-color="#54167E"/>
</linearGradient>
<linearGradient id="paint13_linear" x1="99.356" y1="180.018" x2="99.356" y2="206.921" gradientUnits="userSpaceOnUse">
<stop stop-color="#6A239B"/>
<stop offset="1" stop-color="#54167E"/>
</linearGradient>
<linearGradient id="paint14_linear" x1="137.115" y1="180.018" x2="137.115" y2="206.921" gradientUnits="userSpaceOnUse">
<stop stop-color="#6A239B"/>
<stop offset="1" stop-color="#54167E"/>
</linearGradient>
<linearGradient id="paint15_linear" x1="174.875" y1="180.018" x2="174.875" y2="206.921" gradientUnits="userSpaceOnUse">
<stop stop-color="#6A239B"/>
<stop offset="1" stop-color="#54167E"/>
</linearGradient>
<linearGradient id="paint16_linear" x1="80.4781" y1="142.966" x2="80.4781" y2="169.869" gradientUnits="userSpaceOnUse">
<stop stop-color="#6A239B"/>
<stop offset="1" stop-color="#54167E"/>
</linearGradient>
<linearGradient id="paint17_linear" x1="118.237" y1="142.966" x2="118.237" y2="169.869" gradientUnits="userSpaceOnUse">
<stop stop-color="#6A239B"/>
<stop offset="1" stop-color="#54167E"/>
</linearGradient>
<linearGradient id="paint18_linear" x1="155.996" y1="142.966" x2="155.996" y2="169.869" gradientUnits="userSpaceOnUse">
<stop stop-color="#6A239B"/>
<stop offset="1" stop-color="#54167E"/>
</linearGradient>
<linearGradient id="paint19_linear" x1="186.557" y1="142.966" x2="186.557" y2="169.869" gradientUnits="userSpaceOnUse">
<stop stop-color="#6A239B"/>
<stop offset="1" stop-color="#54167E"/>
</linearGradient>
<linearGradient id="paint20_linear" x1="49.3253" y1="142.966" x2="49.3253" y2="170.105" gradientUnits="userSpaceOnUse">
<stop stop-color="#6A239B"/>
<stop offset="1" stop-color="#54167E"/>
</linearGradient>
<linearGradient id="paint21_linear" x1="123.899" y1="100.251" x2="123.899" y2="207.157" gradientUnits="userSpaceOnUse">
<stop stop-color="#6A239B"/>
<stop offset="1" stop-color="#54167E"/>
</linearGradient>
<linearGradient id="paint22_linear" x1="21.8321" y1="88.687" x2="21.8321" y2="197.481" gradientUnits="userSpaceOnUse">
<stop stop-color="#6A239B"/>
<stop offset="1" stop-color="#54167E"/>
</linearGradient>
<linearGradient id="paint23_linear" x1="20.2975" y1="37.2407" x2="20.2975" y2="103.319" gradientUnits="userSpaceOnUse">
<stop stop-color="#FFC700"/>
<stop offset="1" stop-color="#DB7D0A"/>
</linearGradient>
<linearGradient id="paint24_linear" x1="19.7071" y1="46.208" x2="19.7071" y2="93.8789" gradientUnits="userSpaceOnUse">
<stop stop-color="#6A239B"/>
<stop offset="1" stop-color="#54167E"/>
</linearGradient>
<linearGradient id="paint25_linear" x1="144.086" y1="1.13379" x2="144.086" y2="47.8607" gradientUnits="userSpaceOnUse">
<stop stop-color="#6A239B"/>
<stop offset="1" stop-color="#54167E"/>
</linearGradient>
<linearGradient id="paint26_linear" x1="57.3854" y1="5.61768" x2="57.3854" y2="47.8607" gradientUnits="userSpaceOnUse">
<stop stop-color="#6A239B"/>
<stop offset="1" stop-color="#54167E"/>
</linearGradient>
<linearGradient id="paint27_linear" x1="119.298" y1="57.7725" x2="119.298" y2="103.319" gradientUnits="userSpaceOnUse">
<stop stop-color="#FFC700"/>
<stop offset="1" stop-color="#FC9517"/>
</linearGradient>
<linearGradient id="paint28_linear" x1="121.067" y1="57.7725" x2="121.067" y2="103.319" gradientUnits="userSpaceOnUse">
<stop stop-color="#6A239B"/>
<stop offset="1" stop-color="#54167E"/>
</linearGradient>
</defs>
</svg>
