<svg width="198" height="309" viewBox="0 0 198 309" fill="none" xmlns="http://www.w3.org/2000/svg">
<path d="M27.0928 70H17.2856V43.1494L17.3809 38.7378L17.5396 33.9136C15.9103 35.5428 14.7783 36.6113 14.1436 37.1191L8.81152 41.4038L4.08252 35.5005L19.0312 23.5986H27.0928V70ZM72.1611 46.7993C72.1611 54.9032 70.8281 60.9017 68.1621 64.7949C65.5173 68.6882 61.4336 70.6348 55.9111 70.6348C50.5579 70.6348 46.5166 68.6247 43.7871 64.6045C41.0788 60.5843 39.7246 54.6493 39.7246 46.7993C39.7246 38.6108 41.047 32.5806 43.6919 28.7085C46.3368 24.8153 50.4098 22.8687 55.9111 22.8687C61.2643 22.8687 65.3057 24.8999 68.0352 28.9624C70.7858 33.0249 72.1611 38.9705 72.1611 46.7993ZM49.4683 46.7993C49.4683 52.491 49.9549 56.5747 50.9282 59.0503C51.9227 61.5047 53.5837 62.7319 55.9111 62.7319C58.1963 62.7319 59.8467 61.4836 60.8623 58.9868C61.8779 56.4901 62.3857 52.4276 62.3857 46.7993C62.3857 41.1076 61.8674 37.0239 60.8306 34.5483C59.8149 32.0516 58.1751 30.8032 55.9111 30.8032C53.6048 30.8032 51.9544 32.0516 50.96 34.5483C49.9655 37.0239 49.4683 41.1076 49.4683 46.7993ZM109.295 46.7993C109.295 54.9032 107.962 60.9017 105.296 64.7949C102.651 68.6882 98.5674 70.6348 93.0449 70.6348C87.6917 70.6348 83.6504 68.6247 80.9209 64.6045C78.2126 60.5843 76.8584 54.6493 76.8584 46.7993C76.8584 38.6108 78.1808 32.5806 80.8257 28.7085C83.4705 24.8153 87.5436 22.8687 93.0449 22.8687C98.3981 22.8687 102.439 24.8999 105.169 28.9624C107.92 33.0249 109.295 38.9705 109.295 46.7993ZM86.6021 46.7993C86.6021 52.491 87.0887 56.5747 88.062 59.0503C89.0565 61.5047 90.7174 62.7319 93.0449 62.7319C95.3301 62.7319 96.9805 61.4836 97.9961 58.9868C99.0117 56.4901 99.5195 52.4276 99.5195 46.7993C99.5195 41.1076 99.0011 37.0239 97.9644 34.5483C96.9487 32.0516 95.3089 30.8032 93.0449 30.8032C90.7386 30.8032 89.0882 32.0516 88.0938 34.5483C87.0993 37.0239 86.6021 41.1076 86.6021 46.7993Z" fill="#FFAA2E"/>
<path d="M195.11 52.6754C194.843 52.0337 194.218 51.615 193.525 51.615H174.721V8.71602C174.721 7.7688 173.952 7 173.005 7H145.55C144.603 7 143.834 7.7688 143.834 8.71602V51.6151H124.958C124.265 51.6151 123.64 52.0339 123.373 52.6722C123.108 53.3139 123.252 54.0519 123.743 54.5427L157.977 88.8894C158.299 89.2119 158.735 89.3939 159.192 89.3939C159.648 89.3939 160.084 89.2119 160.407 88.8928L194.74 54.5461C195.23 54.0551 195.378 53.3173 195.11 52.6754Z" fill="#FFAA2E"/>
<path d="M192.52 202.691H43.5339V308.527H192.52V202.691Z" fill="url(#paint0_linear)"/>
<path d="M131.551 202.691H116.094V308.527H131.551V202.691Z" fill="url(#paint1_linear)"/>
<path d="M192.52 202.691H43.5339V213.854H192.52V202.691Z" fill="#DEDEDE"/>
<path d="M5.10596 288.991L43.5331 308.527V202.691L5.10596 183.155V288.991Z" fill="url(#paint2_linear)"/>
<path d="M43.5331 203.335V213.854L5.10596 194.533V184.014L43.5331 203.335Z" fill="#DEDEDE"/>
<path d="M24.8557 193.245V299.081L20.7769 296.934V191.313L24.8557 193.245Z" fill="url(#paint3_linear)"/>
<path d="M197.243 160.829H41.3872V205.911H197.243V160.829Z" fill="url(#paint4_linear)"/>
<path d="M128.975 160.829H113.518V205.911H128.975V160.829Z" fill="url(#paint5_linear)"/>
<path d="M1.24219 185.517L41.3868 205.911V160.829L1.24219 140.435V185.517Z" fill="url(#paint6_linear)"/>
<path d="M22.7104 151.383V196.465L18.8462 194.533V149.236L22.7104 151.383Z" fill="url(#paint7_linear)"/>
<path d="M197.242 160.829H41.3868L22.7099 151.383L18.8457 149.236L1.24219 140.435H152.589L172.125 149.236L176.633 151.383L197.242 160.829Z" fill="#A940E5"/>
<path d="M176.634 151.383H22.7104L18.8462 149.236H172.126L176.634 151.383Z" fill="url(#paint8_linear)"/>
<path d="M84.3222 140.435H68.8655L113.518 160.829H128.76L84.3222 140.435Z" fill="#FAD843"/>
<path d="M165.47 144.728C162.894 147.948 157.741 151.598 157.741 151.598H102.14C102.14 151.598 124.037 100.29 150.228 109.092C151.516 109.521 152.804 110.165 154.092 110.809C159.459 115.747 153.448 124.763 158.815 130.774C164.182 136.785 168.261 141.508 165.47 144.728Z" fill="#F7D245"/>
<path d="M129.619 133.779C120.173 143.869 110.942 150.739 109.01 149.021C107.292 147.304 113.518 137.858 122.964 127.554C132.409 117.249 141.641 110.594 143.573 112.312C145.505 114.244 139.279 123.689 129.619 133.779Z" fill="#EDA328"/>
<path d="M103.213 151.598H47.6122C47.6122 151.598 42.4599 147.948 39.8838 144.728C37.3077 141.508 41.3865 137 46.7535 130.774C51.2617 125.622 47.6122 118.108 49.7589 113.171C50.1883 112.312 50.6177 111.453 51.4764 110.809C78.955 94.9231 103.213 151.598 103.213 151.598Z" fill="#F7D245"/>
<path d="M75.7346 133.78C85.1804 143.87 94.4115 150.739 96.3436 149.022C98.061 147.304 91.8354 137.859 82.3896 127.554C72.9438 117.25 63.7127 110.595 61.7806 112.312C59.8485 114.244 66.2889 123.69 75.7346 133.78Z" fill="#EDA328"/>
<path d="M117.597 144.728V147.304C117.597 149.451 115.88 151.383 113.518 151.383H91.6213C89.4746 151.383 87.5425 149.665 87.5425 147.304V144.728C87.5425 144.513 87.5425 144.298 87.5425 143.869C87.9718 142.152 89.4746 140.649 91.4067 140.649H113.304C115.236 140.649 116.953 141.937 117.168 143.869C117.597 144.298 117.597 144.513 117.597 144.728Z" fill="#EDA328"/>
<path d="M117.598 144.084C117.168 146.017 115.666 147.305 113.734 147.305H91.8366C89.9045 147.305 88.1871 146.017 87.9724 144.084C88.4018 142.367 89.9045 140.864 91.8366 140.864H113.734C115.666 140.864 117.168 142.152 117.598 144.084Z" fill="#F7D245"/>
<path d="M165.469 144.728C162.893 147.948 157.741 151.598 157.741 151.598H121.031C121.89 150.524 123.178 149.666 124.251 149.022C128.545 146.446 133.697 145.802 138.635 144.728C144.216 143.44 150.227 140.435 151.515 134.853C151.945 132.921 151.945 130.774 151.73 128.627C151.086 122.187 150.657 115.532 150.013 109.092C151.301 109.521 152.589 110.165 153.877 110.809C159.244 115.747 153.233 124.763 158.6 130.774C164.181 136.785 168.26 141.508 165.469 144.728Z" fill="url(#paint9_linear)"/>
<path d="M90.5473 151.598H47.6119C47.6119 151.598 42.4597 147.948 39.8836 144.728C37.3074 141.508 41.3863 137 46.7532 130.774C51.2614 125.622 47.6119 118.108 49.7587 113.17C50.6174 116.176 51.2614 119.396 52.1201 122.402C53.1935 126.266 54.0522 129.915 55.7697 133.565C60.4925 143.01 70.797 149.236 81.3162 149.236C83.463 149.236 85.6097 149.021 87.5418 149.665C88.6152 149.665 89.6886 150.524 90.5473 151.598Z" fill="url(#paint10_linear)"/>
<defs>
<linearGradient id="paint0_linear" x1="118.027" y1="202.691" x2="118.027" y2="308.527" gradientUnits="userSpaceOnUse">
<stop stop-color="#6A239B"/>
<stop offset="1" stop-color="#54167E"/>
</linearGradient>
<linearGradient id="paint1_linear" x1="123.823" y1="202.691" x2="123.823" y2="308.527" gradientUnits="userSpaceOnUse">
<stop stop-color="#FFC700"/>
<stop offset="1" stop-color="#FC9517"/>
</linearGradient>
<linearGradient id="paint2_linear" x1="24.3195" y1="183.155" x2="24.3195" y2="308.527" gradientUnits="userSpaceOnUse">
<stop stop-color="#451168"/>
<stop offset="1" stop-color="#54167E"/>
</linearGradient>
<linearGradient id="paint3_linear" x1="22.8163" y1="191.313" x2="22.8163" y2="299.081" gradientUnits="userSpaceOnUse">
<stop stop-color="#FFC700"/>
<stop offset="1" stop-color="#FC9517"/>
</linearGradient>
<linearGradient id="paint4_linear" x1="119.315" y1="160.829" x2="119.315" y2="205.911" gradientUnits="userSpaceOnUse">
<stop stop-color="#6A239B"/>
<stop offset="1" stop-color="#54167E"/>
</linearGradient>
<linearGradient id="paint5_linear" x1="121.246" y1="160.829" x2="121.246" y2="205.911" gradientUnits="userSpaceOnUse">
<stop stop-color="#FFC700"/>
<stop offset="1" stop-color="#FC9517"/>
</linearGradient>
<linearGradient id="paint6_linear" x1="21.3145" y1="140.435" x2="21.3145" y2="205.911" gradientUnits="userSpaceOnUse">
<stop stop-color="#451168"/>
<stop offset="1" stop-color="#54167E"/>
</linearGradient>
<linearGradient id="paint7_linear" x1="20.7783" y1="149.236" x2="20.7783" y2="196.465" gradientUnits="userSpaceOnUse">
<stop stop-color="#FFC700"/>
<stop offset="1" stop-color="#FC9517"/>
</linearGradient>
<linearGradient id="paint8_linear" x1="97.7399" y1="149.236" x2="97.7399" y2="151.383" gradientUnits="userSpaceOnUse">
<stop stop-color="#FFC700"/>
<stop offset="1" stop-color="#FC9517"/>
</linearGradient>
<linearGradient id="paint9_linear" x1="143.701" y1="109.092" x2="143.701" y2="151.598" gradientUnits="userSpaceOnUse">
<stop stop-color="#FFC700"/>
<stop offset="1" stop-color="#FC9517"/>
</linearGradient>
<linearGradient id="paint10_linear" x1="64.8193" y1="113.17" x2="64.8193" y2="151.598" gradientUnits="userSpaceOnUse">
<stop stop-color="#FFC700"/>
<stop offset="1" stop-color="#FC9517"/>
</linearGradient>
</defs>
</svg>
