<svg width="198" height="309" viewBox="0 0 198 309" fill="none" xmlns="http://www.w3.org/2000/svg">
<path d="M35.2817 70H2.84521V63.1763L14.4932 51.4014C17.9421 47.8678 20.1955 45.424 21.2534 44.0698C22.3114 42.6945 23.0731 41.425 23.5386 40.2612C24.0041 39.0975 24.2368 37.8914 24.2368 36.6431C24.2368 34.7811 23.7184 33.3952 22.6816 32.4854C21.666 31.5755 20.3013 31.1206 18.5874 31.1206C16.7889 31.1206 15.0433 31.5332 13.3506 32.3584C11.6579 33.1836 9.89111 34.3579 8.05029 35.8813L2.71826 29.5654C5.00342 27.6188 6.89714 26.2435 8.39941 25.4395C9.90169 24.6354 11.5415 24.0218 13.3188 23.5986C15.0962 23.1543 17.0851 22.9321 19.2856 22.9321C22.1844 22.9321 24.7446 23.4611 26.9663 24.519C29.188 25.577 30.9124 27.0581 32.1396 28.9624C33.3669 30.8667 33.9805 33.0461 33.9805 35.5005C33.9805 37.6375 33.5996 39.6476 32.8379 41.5308C32.0973 43.3927 30.9336 45.3076 29.3467 47.2754C27.7809 49.2432 25.0091 52.0467 21.0312 55.686L15.0645 61.3037V61.748H35.2817V70ZM56.8638 40.3564C61.3494 40.3564 64.9147 41.6154 67.5596 44.1333C70.2256 46.6512 71.5586 50.1001 71.5586 54.48C71.5586 59.6639 69.9611 63.6523 66.7661 66.4453C63.5711 69.2383 59.0008 70.6348 53.0552 70.6348C47.8924 70.6348 43.7241 69.799 40.5503 68.1274V59.6533C42.2218 60.542 44.1685 61.272 46.3901 61.8433C48.6118 62.3934 50.7171 62.6685 52.7061 62.6685C58.694 62.6685 61.688 60.214 61.688 55.3052C61.688 50.6291 58.5882 48.291 52.3887 48.291C51.2673 48.291 50.0295 48.4074 48.6753 48.6401C47.3211 48.8517 46.2209 49.0845 45.3745 49.3384L41.4707 47.2437L43.2163 23.5986H68.3848V31.9141H51.8174L50.9604 41.0229L52.0713 40.8008C53.362 40.5046 54.9595 40.3564 56.8638 40.3564ZM109.295 46.7993C109.295 54.9032 107.962 60.9017 105.296 64.7949C102.652 68.6882 98.5679 70.6348 93.0454 70.6348C87.6922 70.6348 83.6509 68.6247 80.9214 64.6045C78.2131 60.5843 76.8589 54.6493 76.8589 46.7993C76.8589 38.6108 78.1813 32.5806 80.8262 28.7085C83.471 24.8153 87.5441 22.8687 93.0454 22.8687C98.3986 22.8687 102.44 24.8999 105.169 28.9624C107.92 33.0249 109.295 38.9705 109.295 46.7993ZM86.6025 46.7993C86.6025 52.491 87.0892 56.5747 88.0625 59.0503C89.057 61.5047 90.7179 62.7319 93.0454 62.7319C95.3306 62.7319 96.981 61.4836 97.9966 58.9868C99.0122 56.4901 99.52 52.4276 99.52 46.7993C99.52 41.1076 99.0016 37.0239 97.9648 34.5483C96.9492 32.0516 95.3094 30.8032 93.0454 30.8032C90.7391 30.8032 89.0887 32.0516 88.0942 34.5483C87.0998 37.0239 86.6025 41.1076 86.6025 46.7993Z" fill="#FFAA2E"/>
<path d="M195.111 52.6754C194.843 52.0337 194.218 51.615 193.525 51.615H174.722V8.71602C174.722 7.7688 173.953 7 173.006 7H145.55C144.603 7 143.834 7.7688 143.834 8.71602V51.6151H124.959C124.265 51.6151 123.641 52.0339 123.373 52.6722C123.109 53.3139 123.253 54.0519 123.744 54.5427L157.977 88.8894C158.3 89.2119 158.736 89.3939 159.192 89.3939C159.649 89.3939 160.084 89.2119 160.407 88.8928L194.74 54.5461C195.231 54.0551 195.378 53.3173 195.111 52.6754Z" fill="#FFAA2E"/>
<path d="M192.52 202.691H43.5344V308.527H192.52V202.691Z" fill="url(#paint0_linear)"/>
<path d="M131.551 202.691H116.095V308.527H131.551V202.691Z" fill="url(#paint1_linear)"/>
<path d="M192.52 202.691H43.5344V213.854H192.52V202.691Z" fill="#DEDEDE"/>
<path d="M5.10645 288.991L43.5336 308.527V202.691L5.10645 183.155V288.991Z" fill="url(#paint2_linear)"/>
<path d="M43.5336 203.335V213.854L5.10645 194.533V184.014L43.5336 203.335Z" fill="#DEDEDE"/>
<path d="M24.8562 193.245V299.081L20.7773 296.934V191.313L24.8562 193.245Z" fill="url(#paint3_linear)"/>
<path d="M197.243 160.829H41.3877V205.911H197.243V160.829Z" fill="url(#paint4_linear)"/>
<path d="M128.975 160.829H113.518V205.911H128.975V160.829Z" fill="url(#paint5_linear)"/>
<path d="M1.24268 185.517L41.3872 205.911V160.829L1.24268 140.435V185.517Z" fill="url(#paint6_linear)"/>
<path d="M22.7109 151.383V196.465L18.8467 194.533V149.236L22.7109 151.383Z" fill="url(#paint7_linear)"/>
<path d="M197.243 160.829H41.3872L22.7104 151.383L18.8462 149.236L1.24268 140.435H152.59L172.125 149.236L176.634 151.383L197.243 160.829Z" fill="#A940E5"/>
<path d="M176.634 151.383H22.7109L18.8467 149.236H172.126L176.634 151.383Z" fill="url(#paint8_linear)"/>
<path d="M84.3227 140.435H68.866L113.519 160.829H128.761L84.3227 140.435Z" fill="#FAD843"/>
<path d="M165.47 144.728C162.894 147.948 157.742 151.598 157.742 151.598H102.141C102.141 151.598 124.038 100.29 150.228 109.092C151.516 109.521 152.804 110.165 154.092 110.809C159.459 115.747 153.448 124.763 158.815 130.774C164.182 136.785 168.261 141.508 165.47 144.728Z" fill="#F7D245"/>
<path d="M129.619 133.779C120.173 143.869 110.942 150.739 109.01 149.021C107.293 147.304 113.518 137.858 122.964 127.554C132.41 117.249 141.641 110.594 143.573 112.312C145.505 114.244 139.28 123.689 129.619 133.779Z" fill="#EDA328"/>
<path d="M103.214 151.598H47.6127C47.6127 151.598 42.4604 147.948 39.8843 144.728C37.3082 141.508 41.387 137 46.7539 130.774C51.2622 125.622 47.6127 118.108 49.7594 113.171C50.1888 112.312 50.6181 111.453 51.4768 110.809C78.9555 94.9231 103.214 151.598 103.214 151.598Z" fill="#F7D245"/>
<path d="M75.7351 133.78C85.1809 143.87 94.412 150.739 96.3441 149.022C98.0615 147.304 91.8359 137.859 82.3901 127.554C72.9443 117.25 63.7132 110.595 61.7811 112.312C59.849 114.244 66.2893 123.69 75.7351 133.78Z" fill="#EDA328"/>
<path d="M117.598 144.728V147.304C117.598 149.451 115.88 151.383 113.519 151.383H91.6218C89.4751 151.383 87.543 149.665 87.543 147.304V144.728C87.543 144.513 87.543 144.298 87.543 143.869C87.9723 142.152 89.4751 140.649 91.4072 140.649H113.304C115.236 140.649 116.954 141.937 117.168 143.869C117.598 144.298 117.598 144.513 117.598 144.728Z" fill="#EDA328"/>
<path d="M117.598 144.084C117.169 146.017 115.666 147.305 113.734 147.305H91.8371C89.905 147.305 88.1876 146.017 87.9729 144.084C88.4023 142.367 89.905 140.864 91.8371 140.864H113.734C115.666 140.864 117.169 142.152 117.598 144.084Z" fill="#F7D245"/>
<path d="M165.47 144.728C162.894 147.948 157.741 151.598 157.741 151.598H121.032C121.89 150.524 123.179 149.666 124.252 149.022C128.545 146.446 133.698 145.802 138.635 144.728C144.217 143.44 150.228 140.435 151.516 134.853C151.945 132.921 151.945 130.774 151.731 128.627C151.087 122.187 150.657 115.532 150.013 109.092C151.301 109.521 152.589 110.165 153.877 110.809C159.244 115.747 153.233 124.763 158.6 130.774C164.182 136.785 168.261 141.508 165.47 144.728Z" fill="url(#paint9_linear)"/>
<path d="M90.5478 151.598H47.6124C47.6124 151.598 42.4602 147.948 39.884 144.728C37.3079 141.508 41.3868 137 46.7537 130.774C51.2619 125.622 47.6124 118.108 49.7592 113.17C50.6179 116.176 51.2619 119.396 52.1206 122.402C53.194 126.266 54.0527 129.915 55.7701 133.565C60.493 143.01 70.7975 149.236 81.3167 149.236C83.4635 149.236 85.6102 149.021 87.5423 149.665C88.6157 149.665 89.6891 150.524 90.5478 151.598Z" fill="url(#paint10_linear)"/>
<defs>
<linearGradient id="paint0_linear" x1="118.027" y1="202.691" x2="118.027" y2="308.527" gradientUnits="userSpaceOnUse">
<stop stop-color="#6A239B"/>
<stop offset="1" stop-color="#54167E"/>
</linearGradient>
<linearGradient id="paint1_linear" x1="123.823" y1="202.691" x2="123.823" y2="308.527" gradientUnits="userSpaceOnUse">
<stop stop-color="#FFC700"/>
<stop offset="1" stop-color="#FC9517"/>
</linearGradient>
<linearGradient id="paint2_linear" x1="24.32" y1="183.155" x2="24.32" y2="308.527" gradientUnits="userSpaceOnUse">
<stop stop-color="#451168"/>
<stop offset="1" stop-color="#54167E"/>
</linearGradient>
<linearGradient id="paint3_linear" x1="22.8168" y1="191.313" x2="22.8168" y2="299.081" gradientUnits="userSpaceOnUse">
<stop stop-color="#FFC700"/>
<stop offset="1" stop-color="#FC9517"/>
</linearGradient>
<linearGradient id="paint4_linear" x1="119.315" y1="160.829" x2="119.315" y2="205.911" gradientUnits="userSpaceOnUse">
<stop stop-color="#6A239B"/>
<stop offset="1" stop-color="#54167E"/>
</linearGradient>
<linearGradient id="paint5_linear" x1="121.247" y1="160.829" x2="121.247" y2="205.911" gradientUnits="userSpaceOnUse">
<stop stop-color="#FFC700"/>
<stop offset="1" stop-color="#FC9517"/>
</linearGradient>
<linearGradient id="paint6_linear" x1="21.315" y1="140.435" x2="21.315" y2="205.911" gradientUnits="userSpaceOnUse">
<stop stop-color="#451168"/>
<stop offset="1" stop-color="#54167E"/>
</linearGradient>
<linearGradient id="paint7_linear" x1="20.7788" y1="149.236" x2="20.7788" y2="196.465" gradientUnits="userSpaceOnUse">
<stop stop-color="#FFC700"/>
<stop offset="1" stop-color="#FC9517"/>
</linearGradient>
<linearGradient id="paint8_linear" x1="97.7404" y1="149.236" x2="97.7404" y2="151.383" gradientUnits="userSpaceOnUse">
<stop stop-color="#FFC700"/>
<stop offset="1" stop-color="#FC9517"/>
</linearGradient>
<linearGradient id="paint9_linear" x1="143.702" y1="109.092" x2="143.702" y2="151.598" gradientUnits="userSpaceOnUse">
<stop stop-color="#FFC700"/>
<stop offset="1" stop-color="#FC9517"/>
</linearGradient>
<linearGradient id="paint10_linear" x1="64.8198" y1="113.17" x2="64.8198" y2="151.598" gradientUnits="userSpaceOnUse">
<stop stop-color="#FFC700"/>
<stop offset="1" stop-color="#FC9517"/>
</linearGradient>
</defs>
</svg>
