<svg width="198" height="309" viewBox="0 0 198 309" fill="none" xmlns="http://www.w3.org/2000/svg">
<path d="M19.7305 40.3564C24.2161 40.3564 27.7814 41.6154 30.4263 44.1333C33.0923 46.6512 34.4253 50.1001 34.4253 54.48C34.4253 59.6639 32.8278 63.6523 29.6328 66.4453C26.4378 69.2383 21.8675 70.6348 15.9219 70.6348C10.7591 70.6348 6.59082 69.799 3.41699 68.1274V59.6533C5.08854 60.542 7.03516 61.272 9.25684 61.8433C11.4785 62.3934 13.5838 62.6685 15.5728 62.6685C21.5607 62.6685 24.5547 60.214 24.5547 55.3052C24.5547 50.6291 21.4549 48.291 15.2554 48.291C14.134 48.291 12.8962 48.4074 11.542 48.6401C10.1878 48.8517 9.08757 49.0845 8.24121 49.3384L4.3374 47.2437L6.08301 23.5986H31.2515V31.9141H14.6841L13.8271 41.0229L14.938 40.8008C16.2287 40.5046 17.8262 40.3564 19.7305 40.3564ZM72.1621 46.7993C72.1621 54.9032 70.8291 60.9017 68.1631 64.7949C65.5182 68.6882 61.4346 70.6348 55.9121 70.6348C50.5589 70.6348 46.5176 68.6247 43.7881 64.6045C41.0798 60.5843 39.7256 54.6493 39.7256 46.7993C39.7256 38.6108 41.048 32.5806 43.6929 28.7085C46.3377 24.8153 50.4108 22.8687 55.9121 22.8687C61.2653 22.8687 65.3066 24.8999 68.0361 28.9624C70.7868 33.0249 72.1621 38.9705 72.1621 46.7993ZM49.4692 46.7993C49.4692 52.491 49.9559 56.5747 50.9292 59.0503C51.9237 61.5047 53.5846 62.7319 55.9121 62.7319C58.1973 62.7319 59.8477 61.4836 60.8633 58.9868C61.8789 56.4901 62.3867 52.4276 62.3867 46.7993C62.3867 41.1076 61.8683 37.0239 60.8315 34.5483C59.8159 32.0516 58.1761 30.8032 55.9121 30.8032C53.6058 30.8032 51.9554 32.0516 50.9609 34.5483C49.9665 37.0239 49.4692 41.1076 49.4692 46.7993ZM109.296 46.7993C109.296 54.9032 107.963 60.9017 105.297 64.7949C102.652 68.6882 98.5684 70.6348 93.0459 70.6348C87.6927 70.6348 83.6514 68.6247 80.9219 64.6045C78.2135 60.5843 76.8594 54.6493 76.8594 46.7993C76.8594 38.6108 78.1818 32.5806 80.8267 28.7085C83.4715 24.8153 87.5446 22.8687 93.0459 22.8687C98.3991 22.8687 102.44 24.8999 105.17 28.9624C107.921 33.0249 109.296 38.9705 109.296 46.7993ZM86.603 46.7993C86.603 52.491 87.0897 56.5747 88.063 59.0503C89.0575 61.5047 90.7184 62.7319 93.0459 62.7319C95.3311 62.7319 96.9814 61.4836 97.9971 58.9868C99.0127 56.4901 99.5205 52.4276 99.5205 46.7993C99.5205 41.1076 99.0021 37.0239 97.9653 34.5483C96.9497 32.0516 95.3099 30.8032 93.0459 30.8032C90.7396 30.8032 89.0892 32.0516 88.0947 34.5483C87.1003 37.0239 86.603 41.1076 86.603 46.7993Z" fill="#FFAA2E"/>
<path d="M195.111 52.6754C194.844 52.0337 194.219 51.615 193.526 51.615H174.722V8.71602C174.722 7.7688 173.953 7 173.006 7H145.551C144.604 7 143.835 7.7688 143.835 8.71602V51.6151H124.959C124.266 51.6151 123.641 52.0339 123.374 52.6722C123.109 53.3139 123.253 54.0519 123.744 54.5427L157.978 88.8894C158.3 89.2119 158.736 89.3939 159.193 89.3939C159.649 89.3939 160.085 89.2119 160.408 88.8928L194.741 54.5461C195.231 54.0551 195.379 53.3173 195.111 52.6754Z" fill="#FFAA2E"/>
<path d="M192.521 202.691H43.5349V308.527H192.521V202.691Z" fill="url(#paint0_linear)"/>
<path d="M131.552 202.691H116.095V308.527H131.552V202.691Z" fill="url(#paint1_linear)"/>
<path d="M192.521 202.691H43.5349V213.854H192.521V202.691Z" fill="#DEDEDE"/>
<path d="M5.10693 288.991L43.5341 308.527V202.691L5.10693 183.155V288.991Z" fill="url(#paint2_linear)"/>
<path d="M43.5341 203.335V213.854L5.10693 194.533V184.014L43.5341 203.335Z" fill="#DEDEDE"/>
<path d="M24.8567 193.245V299.081L20.7778 296.934V191.313L24.8567 193.245Z" fill="url(#paint3_linear)"/>
<path d="M197.244 160.829H41.3882V205.911H197.244V160.829Z" fill="url(#paint4_linear)"/>
<path d="M128.976 160.829H113.519V205.911H128.976V160.829Z" fill="url(#paint5_linear)"/>
<path d="M1.24316 185.517L41.3877 205.911V160.829L1.24316 140.435V185.517Z" fill="url(#paint6_linear)"/>
<path d="M22.7114 151.383V196.465L18.8472 194.533V149.236L22.7114 151.383Z" fill="url(#paint7_linear)"/>
<path d="M197.243 160.829H41.3877L22.7109 151.383L18.8467 149.236L1.24316 140.435H152.59L172.126 149.236L176.634 151.383L197.243 160.829Z" fill="#A940E5"/>
<path d="M176.635 151.383H22.7114L18.8472 149.236H172.126L176.635 151.383Z" fill="url(#paint8_linear)"/>
<path d="M84.3232 140.435H68.8665L113.519 160.829H128.761L84.3232 140.435Z" fill="#FAD843"/>
<path d="M165.471 144.728C162.895 147.948 157.742 151.598 157.742 151.598H102.141C102.141 151.598 124.038 100.29 150.229 109.092C151.517 109.521 152.805 110.165 154.093 110.809C159.46 115.747 153.449 124.763 158.816 130.774C164.183 136.785 168.262 141.508 165.471 144.728Z" fill="#F7D245"/>
<path d="M129.62 133.779C120.174 143.869 110.943 150.739 109.011 149.021C107.293 147.304 113.519 137.858 122.965 127.554C132.41 117.249 141.642 110.594 143.574 112.312C145.506 114.244 139.28 123.689 129.62 133.779Z" fill="#EDA328"/>
<path d="M103.214 151.598H47.6131C47.6131 151.598 42.4609 147.948 39.8848 144.728C37.3087 141.508 41.3875 137 46.7544 130.774C51.2626 125.622 47.6131 118.108 49.7599 113.171C50.1893 112.312 50.6186 111.453 51.4773 110.809C78.956 94.9231 103.214 151.598 103.214 151.598Z" fill="#F7D245"/>
<path d="M75.7356 133.78C85.1814 143.87 94.4125 150.739 96.3446 149.022C98.062 147.304 91.8364 137.859 82.3906 127.554C72.9448 117.25 63.7137 110.595 61.7816 112.312C59.8495 114.244 66.2898 123.69 75.7356 133.78Z" fill="#EDA328"/>
<path d="M117.598 144.728V147.304C117.598 149.451 115.881 151.383 113.519 151.383H91.6223C89.4756 151.383 87.5435 149.665 87.5435 147.304V144.728C87.5435 144.513 87.5435 144.298 87.5435 143.869C87.9728 142.152 89.4756 140.649 91.4076 140.649H113.305C115.237 140.649 116.954 141.937 117.169 143.869C117.598 144.298 117.598 144.513 117.598 144.728Z" fill="#EDA328"/>
<path d="M117.599 144.084C117.169 146.017 115.667 147.305 113.735 147.305H91.8376C89.9055 147.305 88.1881 146.017 87.9734 144.084C88.4027 142.367 89.9055 140.864 91.8376 140.864H113.735C115.667 140.864 117.169 142.152 117.599 144.084Z" fill="#F7D245"/>
<path d="M165.47 144.728C162.894 147.948 157.742 151.598 157.742 151.598H121.032C121.891 150.524 123.179 149.666 124.252 149.022C128.546 146.446 133.698 145.802 138.636 144.728C144.217 143.44 150.228 140.435 151.516 134.853C151.946 132.921 151.946 130.774 151.731 128.627C151.087 122.187 150.658 115.532 150.014 109.092C151.302 109.521 152.59 110.165 153.878 110.809C159.245 115.747 153.234 124.763 158.601 130.774C164.182 136.785 168.261 141.508 165.47 144.728Z" fill="url(#paint9_linear)"/>
<path d="M90.5483 151.598H47.6129C47.6129 151.598 42.4607 147.948 39.8845 144.728C37.3084 141.508 41.3873 137 46.7542 130.774C51.2624 125.622 47.6129 118.108 49.7597 113.17C50.6184 116.176 51.2624 119.396 52.1211 122.402C53.1945 126.266 54.0532 129.915 55.7706 133.565C60.4935 143.01 70.798 149.236 81.3172 149.236C83.464 149.236 85.6107 149.021 87.5428 149.665C88.6162 149.665 89.6896 150.524 90.5483 151.598Z" fill="url(#paint10_linear)"/>
<defs>
<linearGradient id="paint0_linear" x1="118.028" y1="202.691" x2="118.028" y2="308.527" gradientUnits="userSpaceOnUse">
<stop stop-color="#6A239B"/>
<stop offset="1" stop-color="#54167E"/>
</linearGradient>
<linearGradient id="paint1_linear" x1="123.824" y1="202.691" x2="123.824" y2="308.527" gradientUnits="userSpaceOnUse">
<stop stop-color="#FFC700"/>
<stop offset="1" stop-color="#FC9517"/>
</linearGradient>
<linearGradient id="paint2_linear" x1="24.3205" y1="183.155" x2="24.3205" y2="308.527" gradientUnits="userSpaceOnUse">
<stop stop-color="#451168"/>
<stop offset="1" stop-color="#54167E"/>
</linearGradient>
<linearGradient id="paint3_linear" x1="22.8173" y1="191.313" x2="22.8173" y2="299.081" gradientUnits="userSpaceOnUse">
<stop stop-color="#FFC700"/>
<stop offset="1" stop-color="#FC9517"/>
</linearGradient>
<linearGradient id="paint4_linear" x1="119.316" y1="160.829" x2="119.316" y2="205.911" gradientUnits="userSpaceOnUse">
<stop stop-color="#6A239B"/>
<stop offset="1" stop-color="#54167E"/>
</linearGradient>
<linearGradient id="paint5_linear" x1="121.247" y1="160.829" x2="121.247" y2="205.911" gradientUnits="userSpaceOnUse">
<stop stop-color="#FFC700"/>
<stop offset="1" stop-color="#FC9517"/>
</linearGradient>
<linearGradient id="paint6_linear" x1="21.3154" y1="140.435" x2="21.3154" y2="205.911" gradientUnits="userSpaceOnUse">
<stop stop-color="#451168"/>
<stop offset="1" stop-color="#54167E"/>
</linearGradient>
<linearGradient id="paint7_linear" x1="20.7793" y1="149.236" x2="20.7793" y2="196.465" gradientUnits="userSpaceOnUse">
<stop stop-color="#FFC700"/>
<stop offset="1" stop-color="#FC9517"/>
</linearGradient>
<linearGradient id="paint8_linear" x1="97.7409" y1="149.236" x2="97.7409" y2="151.383" gradientUnits="userSpaceOnUse">
<stop stop-color="#FFC700"/>
<stop offset="1" stop-color="#FC9517"/>
</linearGradient>
<linearGradient id="paint9_linear" x1="143.702" y1="109.092" x2="143.702" y2="151.598" gradientUnits="userSpaceOnUse">
<stop stop-color="#FFC700"/>
<stop offset="1" stop-color="#FC9517"/>
</linearGradient>
<linearGradient id="paint10_linear" x1="64.8203" y1="113.17" x2="64.8203" y2="151.598" gradientUnits="userSpaceOnUse">
<stop stop-color="#FFC700"/>
<stop offset="1" stop-color="#FC9517"/>
</linearGradient>
</defs>
</svg>
