<svg width="234" height="281" viewBox="0 0 234 281" fill="none" xmlns="http://www.w3.org/2000/svg">
<path d="M38.6602 40.6196C43.1458 40.6196 46.7111 41.8786 49.356 44.3965C52.022 46.9144 53.355 50.3633 53.355 54.7432C53.355 59.9271 51.7575 63.9155 48.5625 66.7085C45.3675 69.5015 40.7972 70.8979 34.8516 70.8979C29.6888 70.8979 25.5205 70.0622 22.3467 68.3906V59.9165C24.0182 60.8052 25.9648 61.5352 28.1865 62.1064C30.4082 62.6566 32.5135 62.9316 34.5024 62.9316C40.4904 62.9316 43.4844 60.4772 43.4844 55.5684C43.4844 50.8923 40.3846 48.5542 34.1851 48.5542C33.0636 48.5542 31.8258 48.6706 30.4717 48.9033C29.1175 49.1149 28.0173 49.3477 27.1709 49.6016L23.2671 47.5068L25.0127 23.8618H50.1812V32.1772H33.6138L32.7568 41.2861L33.8677 41.064C35.1584 40.7677 36.7559 40.6196 38.6602 40.6196ZM91.0918 47.0625C91.0918 55.1663 89.7588 61.1649 87.0928 65.0581C84.4479 68.9513 80.3643 70.8979 74.8418 70.8979C69.4886 70.8979 65.4473 68.8879 62.7178 64.8677C60.0094 60.8475 58.6553 54.9124 58.6553 47.0625C58.6553 38.874 59.9777 32.8438 62.6226 28.9717C65.2674 25.0785 69.3405 23.1318 74.8418 23.1318C80.195 23.1318 84.2363 25.1631 86.9658 29.2256C89.7165 33.2881 91.0918 39.2337 91.0918 47.0625ZM68.3989 47.0625C68.3989 52.7542 68.8856 56.8379 69.8589 59.3135C70.8534 61.7679 72.5143 62.9951 74.8418 62.9951C77.127 62.9951 78.7773 61.7467 79.793 59.25C80.8086 56.7533 81.3164 52.6908 81.3164 47.0625C81.3164 41.3708 80.798 37.2871 79.7612 34.8115C78.7456 32.3148 77.1058 31.0664 74.8418 31.0664C72.5355 31.0664 70.8851 32.3148 69.8906 34.8115C68.8962 37.2871 68.3989 41.3708 68.3989 47.0625Z" fill="#B499FF"/>
<path d="M233.207 150.647V247.688L137.534 280.263V183.222L233.207 150.647Z" fill="#FABB22"/>
<path d="M146.872 199.168L139.355 205.091L137.533 214.203V186.412V185.956L139.583 197.574L146.872 199.168Z" fill="#CB851E"/>
<path d="M171.702 186.64L178.992 188.235L171.474 194.157L168.969 206.914L166.919 195.296L159.629 193.702L167.146 187.779L169.652 175.022L171.702 186.64Z" fill="#CB851E"/>
<path d="M203.82 175.706L211.11 177.301L203.593 183.224L200.859 195.98L199.037 184.363L191.747 182.768L199.265 176.845L201.77 164.089L203.82 175.706Z" fill="#CB851E"/>
<path d="M233.207 156.799V184.59L232.979 185.045L231.157 173.428L223.868 171.833L231.157 165.911L233.207 156.799Z" fill="#CB851E"/>
<path d="M155.985 244.044L163.275 245.866L155.758 251.561L153.252 264.089L151.429 252.7L144.14 251.105L151.429 245.41L154.163 232.654L155.985 244.044Z" fill="#CB851E"/>
<path d="M187.65 233.338L194.939 234.932L187.422 240.627L184.916 253.384L183.094 241.994L175.804 240.172L183.094 234.477L185.6 221.948L187.65 233.338Z" fill="#CB851E"/>
<path d="M219.312 222.631L226.601 224.226L219.084 229.92L216.578 242.449L214.528 231.287L207.467 229.465L214.756 223.77L217.262 211.241L219.312 222.631Z" fill="#CB851E"/>
<path d="M189.697 262.495L181.041 265.456V168.416L189.697 165.455V262.495Z" fill="#705EE4"/>
<path d="M0.17334 144.042V241.31L137.533 280.263V183.223L0.17334 144.042Z" fill="url(#paint0_linear)"/>
<path d="M124.094 198.713L134.8 204.863L137.533 214.203V186.412V185.957L134.572 197.346L124.094 198.713Z" fill="#CB851E"/>
<path d="M88.5571 184.361L78.0786 185.5L88.785 191.879L92.4296 204.635L95.391 193.245L105.87 192.106L94.9354 185.728L91.2907 172.972L88.5571 184.361Z" fill="#CB851E"/>
<path d="M42.5422 171.15L32.0636 172.289L42.77 178.667L46.4147 191.651L49.1482 180.262L59.6268 178.895L48.9204 172.745L45.2757 159.76L42.5422 171.15Z" fill="#CB851E"/>
<path d="M0.172852 150.192V178.211L0.40066 178.439L3.13419 167.049L13.6127 165.91L2.90641 159.532L0.172852 150.192Z" fill="#CB851E"/>
<path d="M111.11 242.904L100.632 244.043L111.338 250.194L114.983 262.95L117.716 251.788L127.967 250.649L117.488 244.271L113.844 231.515L111.11 242.904Z" fill="#CB851E"/>
<path d="M65.5503 229.921L55.2996 231.06L65.7781 237.21L69.4228 250.194L72.1563 238.805L82.6349 237.666L71.9285 231.515L68.2838 218.759L65.5503 229.921Z" fill="#CB851E"/>
<path d="M19.9915 216.936L9.74072 218.075L20.2192 224.454L23.864 237.21L26.8253 225.82L37.0761 224.681L26.5975 218.531L22.9528 205.774L19.9915 216.936Z" fill="#CB851E"/>
<path d="M62.5895 259.077L75.1182 262.494V165.454L62.5895 161.809V259.077Z" fill="#705EE4"/>
<path d="M233.207 150.648L189.698 165.454L181.042 168.416L137.533 183.222L75.1178 165.454L62.5891 161.81L0.17334 144.042L60.5389 130.374L70.5619 128.096L100.631 121.262L147.556 131.513L160.085 134.474L233.207 150.648Z" fill="#F8D73A"/>
<path d="M189.698 165.455L181.042 168.416L60.5388 130.374L70.5618 128.096L189.698 165.455Z" fill="#B499FF"/>
<path d="M160.086 134.475L75.1185 165.455L62.5898 161.81L147.557 131.513L160.086 134.475Z" fill="#B499FF"/>
<path d="M118.856 147.231C118.856 147.231 123.64 103.267 145.052 108.734C166.465 114.201 145.052 136.069 145.052 136.069C145.052 136.069 148.925 118.985 141.18 118.301C133.663 117.618 122.501 133.336 118.856 147.231Z" fill="#705EE4"/>
<path d="M161.225 151.104L148.469 160.215C148.469 160.215 129.334 156.343 118.855 147.459L130.701 141.992C130.473 141.764 146.419 150.42 161.225 151.104Z" fill="#705EE4"/>
<path d="M118.855 147.232C118.855 147.232 165.553 117.163 174.209 132.653C182.865 148.143 175.804 153.838 170.792 155.432C165.781 157.255 148.696 159.988 148.696 159.988C148.696 159.988 156.669 142.676 147.785 138.575C145.735 137.664 143.457 137.664 141.407 138.575L118.855 147.232Z" fill="#B499FF"/>
<path d="M76.2571 151.104L89.0136 160.215C89.0136 160.215 108.148 156.343 118.627 147.459L106.782 141.992C107.009 141.764 91.0637 150.42 76.2571 151.104Z" fill="#B499FF"/>
<path d="M118.855 147.231C118.855 147.231 114.072 103.267 92.6588 108.734C71.2462 114.201 92.6588 136.069 92.6588 136.069C92.6588 136.069 88.7863 118.985 96.5313 118.301C104.276 117.618 114.983 133.336 118.855 147.231Z" fill="#B499FF"/>
<path d="M118.855 147.232C118.855 147.232 72.1569 117.163 63.5007 132.653C54.8445 148.143 61.9062 153.838 66.9176 155.432C71.9291 157.255 89.0137 159.988 89.0137 159.988C89.0137 159.988 81.0409 142.676 89.9249 138.575C91.975 137.664 94.253 137.664 96.3031 138.575L118.855 147.232Z" fill="#705EE4"/>
<path d="M172.041 52.9386C171.773 52.2969 171.149 51.8782 170.455 51.8782H151.652V8.9792C151.652 8.03199 150.883 7.26318 149.936 7.26318H122.48C121.533 7.26318 120.764 8.03199 120.764 8.9792V51.8783H101.889C101.196 51.8783 100.571 52.2971 100.303 52.9354C100.039 53.5771 100.183 54.315 100.674 54.8059L134.907 89.1526C135.23 89.4751 135.666 89.6571 136.122 89.6571C136.579 89.6571 137.015 89.4751 137.337 89.156L171.67 54.8092C172.161 54.3183 172.309 53.5805 172.041 52.9386Z" fill="#B499FF"/>
<defs>
<linearGradient id="paint0_linear" x1="68.8534" y1="144.042" x2="68.8534" y2="280.263" gradientUnits="userSpaceOnUse">
<stop stop-color="#FFC700"/>
<stop offset="1" stop-color="#FC9517"/>
</linearGradient>
</defs>
</svg>
