<svg width="234" height="281" viewBox="0 0 234 281" fill="none" xmlns="http://www.w3.org/2000/svg">
<path d="M81.8506 70.2632H72.0435V43.4126L72.1387 39.001L72.2974 34.1768C70.6681 35.806 69.5361 36.8745 68.9014 37.3823L63.5693 41.667L58.8403 35.7637L73.7891 23.8618H81.8506V70.2632Z" fill="#B499FF"/>
<path d="M233.035 150.647V247.688L137.361 280.263V183.222L233.035 150.647Z" fill="#FABB22"/>
<path d="M146.699 199.168L139.182 205.091L137.36 214.203V186.412V185.956L139.41 197.574L146.699 199.168Z" fill="#CB851E"/>
<path d="M171.529 186.64L178.819 188.235L171.302 194.157L168.796 206.914L166.746 195.296L159.456 193.702L166.974 187.779L169.479 175.022L171.529 186.64Z" fill="#CB851E"/>
<path d="M203.648 175.706L210.937 177.301L203.42 183.224L200.686 195.98L198.864 184.363L191.574 182.768L199.092 176.845L201.597 164.089L203.648 175.706Z" fill="#CB851E"/>
<path d="M233.034 156.799V184.59L232.807 185.045L230.984 173.428L223.695 171.833L230.984 165.911L233.034 156.799Z" fill="#CB851E"/>
<path d="M155.813 244.044L163.102 245.866L155.585 251.561L153.079 264.089L151.257 252.7L143.967 251.105L151.257 245.41L153.99 232.654L155.813 244.044Z" fill="#CB851E"/>
<path d="M187.477 233.338L194.766 234.932L187.249 240.627L184.743 253.384L182.921 241.994L175.632 240.172L182.921 234.477L185.427 221.948L187.477 233.338Z" fill="#CB851E"/>
<path d="M219.139 222.631L226.428 224.226L218.911 229.92L216.405 242.449L214.355 231.287L207.294 229.465L214.583 223.77L217.089 211.241L219.139 222.631Z" fill="#CB851E"/>
<path d="M189.524 262.495L180.868 265.456V168.416L189.524 165.455V262.495Z" fill="#705EE4"/>
<path d="M0.000488281 144.042V241.31L137.361 280.263V183.223L0.000488281 144.042Z" fill="url(#paint0_linear)"/>
<path d="M123.921 198.713L134.627 204.863L137.361 214.203V186.412V185.957L134.399 197.346L123.921 198.713Z" fill="#CB851E"/>
<path d="M88.3843 184.361L77.9058 185.5L88.6121 191.879L92.2568 204.635L95.2181 193.245L105.697 192.106L94.7625 185.728L91.1178 172.972L88.3843 184.361Z" fill="#CB851E"/>
<path d="M42.3694 171.15L31.8909 172.289L42.5972 178.667L46.2419 191.651L48.9755 180.262L59.454 178.895L48.7477 172.745L45.103 159.76L42.3694 171.15Z" fill="#CB851E"/>
<path d="M0 150.192V178.211L0.227808 178.439L2.96134 167.049L13.4399 165.91L2.73356 159.532L0 150.192Z" fill="#CB851E"/>
<path d="M110.937 242.904L100.459 244.043L111.165 250.194L114.81 262.95L117.543 251.788L127.794 250.649L117.316 244.271L113.671 231.515L110.937 242.904Z" fill="#CB851E"/>
<path d="M65.3775 229.921L55.1267 231.06L65.6052 237.21L69.25 250.194L71.9835 238.805L82.4621 237.666L71.7557 231.515L68.111 218.759L65.3775 229.921Z" fill="#CB851E"/>
<path d="M19.8186 216.936L9.56787 218.075L20.0464 224.454L23.6911 237.21L26.6525 225.82L36.9032 224.681L26.4247 218.531L22.7799 205.774L19.8186 216.936Z" fill="#CB851E"/>
<path d="M62.4165 259.077L74.9452 262.494V165.454L62.4165 161.809V259.077Z" fill="#705EE4"/>
<path d="M233.034 150.648L189.526 165.454L180.869 168.416L137.361 183.222L74.9449 165.454L62.4162 161.81L0.000488281 144.042L60.366 130.374L70.389 128.096L100.458 121.262L147.384 131.513L159.912 134.474L233.034 150.648Z" fill="#F8D73A"/>
<path d="M189.525 165.455L180.869 168.416L60.366 130.374L70.3889 128.096L189.525 165.455Z" fill="#B499FF"/>
<path d="M159.913 134.475L74.9457 165.455L62.417 161.81L147.384 131.513L159.913 134.475Z" fill="#B499FF"/>
<path d="M118.683 147.231C118.683 147.231 123.467 103.267 144.879 108.734C166.292 114.201 144.879 136.069 144.879 136.069C144.879 136.069 148.752 118.985 141.007 118.301C133.49 117.618 122.328 133.336 118.683 147.231Z" fill="#705EE4"/>
<path d="M161.052 151.104L148.296 160.215C148.296 160.215 129.161 156.343 118.683 147.459L130.528 141.992C130.3 141.764 146.246 150.42 161.052 151.104Z" fill="#705EE4"/>
<path d="M118.682 147.232C118.682 147.232 165.38 117.163 174.036 132.653C182.693 148.143 175.631 153.838 170.619 155.432C165.608 157.255 148.523 159.988 148.523 159.988C148.523 159.988 156.496 142.676 147.612 138.575C145.562 137.664 143.284 137.664 141.234 138.575L118.682 147.232Z" fill="#B499FF"/>
<path d="M76.0842 151.104L88.8407 160.215C88.8407 160.215 107.975 156.343 118.454 147.459L106.609 141.992C106.836 141.764 90.8909 150.42 76.0842 151.104Z" fill="#B499FF"/>
<path d="M118.682 147.231C118.682 147.231 113.899 103.267 92.486 108.734C71.0733 114.201 92.486 136.069 92.486 136.069C92.486 136.069 88.6135 118.985 96.3585 118.301C104.104 117.618 114.81 133.336 118.682 147.231Z" fill="#B499FF"/>
<path d="M118.682 147.232C118.682 147.232 71.9842 117.163 63.328 132.653C54.6718 148.143 61.7334 153.838 66.7449 155.432C71.7564 157.255 88.841 159.988 88.841 159.988C88.841 159.988 80.8682 142.676 89.7522 138.575C91.8023 137.664 94.0803 137.664 96.1304 138.575L118.682 147.232Z" fill="#705EE4"/>
<path d="M171.868 52.9386C171.6 52.2969 170.976 51.8782 170.283 51.8782H151.479V8.9792C151.479 8.03199 150.71 7.26318 149.763 7.26318H122.308C121.36 7.26318 120.592 8.03199 120.592 8.9792V51.8783H101.716C101.023 51.8783 100.398 52.2971 100.13 52.9354C99.8661 53.5771 100.01 54.315 100.501 54.8059L134.735 89.1526C135.057 89.4751 135.493 89.6571 135.949 89.6571C136.406 89.6571 136.842 89.4751 137.164 89.156L171.497 54.8092C171.988 54.3183 172.136 53.5805 171.868 52.9386Z" fill="#B499FF"/>
<defs>
<linearGradient id="paint0_linear" x1="68.6806" y1="144.042" x2="68.6806" y2="280.263" gradientUnits="userSpaceOnUse">
<stop stop-color="#FFC700"/>
<stop offset="1" stop-color="#FC9517"/>
</linearGradient>
</defs>
</svg>
