<svg width="197" height="309" viewBox="0 0 197 309" fill="none" xmlns="http://www.w3.org/2000/svg">
<path d="M40.7329 40.3564C45.2186 40.3564 48.7839 41.6154 51.4287 44.1333C54.0947 46.6512 55.4277 50.1001 55.4277 54.48C55.4277 59.6639 53.8302 63.6523 50.6353 66.4453C47.4403 69.2383 42.87 70.6348 36.9243 70.6348C31.7616 70.6348 27.5933 69.799 24.4194 68.1274V59.6533C26.091 60.542 28.0376 61.272 30.2593 61.8433C32.481 62.3934 34.5863 62.6685 36.5752 62.6685C42.5632 62.6685 45.5571 60.214 45.5571 55.3052C45.5571 50.6291 42.4574 48.291 36.2578 48.291C35.1364 48.291 33.8986 48.4074 32.5444 48.6401C31.1903 48.8517 30.09 49.0845 29.2437 49.3384L25.3398 47.2437L27.0854 23.5986H52.2539V31.9141H35.6865L34.8296 41.0229L35.9404 40.8008C37.2311 40.5046 38.8286 40.3564 40.7329 40.3564ZM101.543 70H90.3716L78.2158 50.4492L74.0581 53.4326V70H64.2192V23.5986H74.0581V44.8315L77.9302 39.3726L90.4985 23.5986H101.417L85.23 44.1333L101.543 70Z" fill="#FFAA2E"/>
<path d="M190.114 52.6754C189.846 52.0337 189.221 51.615 188.528 51.615H169.725V8.71602C169.725 7.7688 168.956 7 168.009 7H140.553C139.606 7 138.837 7.7688 138.837 8.71602V51.6151H119.962C119.268 51.6151 118.644 52.0339 118.376 52.6722C118.112 53.3139 118.256 54.0519 118.747 54.5427L152.98 88.8894C153.303 89.2119 153.739 89.3939 154.195 89.3939C154.651 89.3939 155.087 89.2119 155.41 88.8928L189.743 54.5461C190.234 54.0551 190.381 53.3173 190.114 52.6754Z" fill="#FFAA2E"/>
<path d="M191.523 202.691H42.5376V308.527H191.523V202.691Z" fill="url(#paint0_linear)"/>
<path d="M130.554 202.691H115.098V308.527H130.554V202.691Z" fill="url(#paint1_linear)"/>
<path d="M191.523 202.691H42.5376V213.854H191.523V202.691Z" fill="#DEDEDE"/>
<path d="M4.10938 288.991L42.5365 308.527V202.691L4.10938 183.155V288.991Z" fill="url(#paint2_linear)"/>
<path d="M42.5365 203.335V213.854L4.10938 194.533V184.014L42.5365 203.335Z" fill="#DEDEDE"/>
<path d="M23.8591 193.245V299.081L19.7803 296.934V191.313L23.8591 193.245Z" fill="url(#paint3_linear)"/>
<path d="M196.246 160.829H40.3906V205.911H196.246V160.829Z" fill="url(#paint4_linear)"/>
<path d="M127.978 160.829H112.521V205.911H127.978V160.829Z" fill="url(#paint5_linear)"/>
<path d="M0.245605 185.517L40.3902 205.911V160.829L0.245605 140.435V185.517Z" fill="url(#paint6_linear)"/>
<path d="M21.7138 151.383V196.465L17.8496 194.533V149.236L21.7138 151.383Z" fill="url(#paint7_linear)"/>
<path d="M196.246 160.829H40.3902L21.7133 151.383L17.8491 149.236L0.245605 140.435H151.593L171.128 149.236L175.637 151.383L196.246 160.829Z" fill="#A940E5"/>
<path d="M175.637 151.383H21.7138L17.8496 149.236H171.129L175.637 151.383Z" fill="url(#paint8_linear)"/>
<path d="M83.3254 140.435H67.8687L112.521 160.829H127.764L83.3254 140.435Z" fill="#FAD843"/>
<path d="M164.473 144.728C161.897 147.948 156.745 151.598 156.745 151.598H101.144C101.144 151.598 123.041 100.29 149.231 109.092C150.519 109.521 151.807 110.165 153.095 110.809C158.462 115.747 152.451 124.763 157.818 130.774C163.185 136.785 167.264 141.508 164.473 144.728Z" fill="#F7D245"/>
<path d="M128.622 133.779C119.176 143.869 109.945 150.739 108.013 149.021C106.295 147.304 112.521 137.858 121.967 127.554C131.413 117.249 140.644 110.594 142.576 112.312C144.508 114.244 138.282 123.689 128.622 133.779Z" fill="#EDA328"/>
<path d="M102.217 151.598H46.6158C46.6158 151.598 41.4636 147.948 38.8875 144.728C36.3113 141.508 40.3902 137 45.7571 130.774C50.2653 125.622 46.6158 118.108 48.7626 113.171C49.192 112.312 49.6213 111.453 50.48 110.809C77.9587 94.9231 102.217 151.598 102.217 151.598Z" fill="#F7D245"/>
<path d="M74.7381 133.78C84.1838 143.87 93.415 150.739 95.347 149.022C97.0645 147.304 90.8388 137.859 81.3931 127.554C71.9473 117.25 62.7161 110.595 60.7841 112.312C58.852 114.244 65.2923 123.69 74.7381 133.78Z" fill="#EDA328"/>
<path d="M116.601 144.728V147.304C116.601 149.451 114.883 151.383 112.522 151.383H90.6248C88.478 151.383 86.5459 149.665 86.5459 147.304V144.728C86.5459 144.513 86.5459 144.298 86.5459 143.869C86.9753 142.152 88.478 140.649 90.4101 140.649H112.307C114.239 140.649 115.957 141.937 116.171 143.869C116.601 144.298 116.601 144.513 116.601 144.728Z" fill="#EDA328"/>
<path d="M116.601 144.084C116.172 146.017 114.669 147.305 112.737 147.305H90.8398C88.9077 147.305 87.1903 146.017 86.9756 144.084C87.4049 142.367 88.9077 140.864 90.8398 140.864H112.737C114.669 140.864 116.172 142.152 116.601 144.084Z" fill="#F7D245"/>
<path d="M164.473 144.728C161.897 147.948 156.744 151.598 156.744 151.598H120.035C120.893 150.524 122.181 149.666 123.255 149.022C127.548 146.446 132.701 145.802 137.638 144.728C143.22 143.44 149.231 140.435 150.519 134.853C150.948 132.921 150.948 130.774 150.733 128.627C150.089 122.187 149.66 115.532 149.016 109.092C150.304 109.521 151.592 110.165 152.88 110.809C158.247 115.747 152.236 124.763 157.603 130.774C163.185 136.785 167.264 141.508 164.473 144.728Z" fill="url(#paint9_linear)"/>
<path d="M89.5507 151.598H46.6153C46.6153 151.598 41.4631 147.948 38.887 144.728C36.3109 141.508 40.3897 137 45.7566 130.774C50.2648 125.622 46.6153 118.108 48.7621 113.17C49.6208 116.176 50.2648 119.396 51.1236 122.402C52.1969 126.266 53.0557 129.915 54.7731 133.565C59.496 143.01 69.8005 149.236 80.3196 149.236C82.4664 149.236 84.6131 149.021 86.5452 149.665C87.6186 149.665 88.692 150.524 89.5507 151.598Z" fill="url(#paint10_linear)"/>
<defs>
<linearGradient id="paint0_linear" x1="117.03" y1="202.691" x2="117.03" y2="308.527" gradientUnits="userSpaceOnUse">
<stop stop-color="#6A239B"/>
<stop offset="1" stop-color="#54167E"/>
</linearGradient>
<linearGradient id="paint1_linear" x1="122.826" y1="202.691" x2="122.826" y2="308.527" gradientUnits="userSpaceOnUse">
<stop stop-color="#FFC700"/>
<stop offset="1" stop-color="#FC9517"/>
</linearGradient>
<linearGradient id="paint2_linear" x1="23.3229" y1="183.155" x2="23.3229" y2="308.527" gradientUnits="userSpaceOnUse">
<stop stop-color="#451168"/>
<stop offset="1" stop-color="#54167E"/>
</linearGradient>
<linearGradient id="paint3_linear" x1="21.8197" y1="191.313" x2="21.8197" y2="299.081" gradientUnits="userSpaceOnUse">
<stop stop-color="#FFC700"/>
<stop offset="1" stop-color="#FC9517"/>
</linearGradient>
<linearGradient id="paint4_linear" x1="118.318" y1="160.829" x2="118.318" y2="205.911" gradientUnits="userSpaceOnUse">
<stop stop-color="#6A239B"/>
<stop offset="1" stop-color="#54167E"/>
</linearGradient>
<linearGradient id="paint5_linear" x1="120.249" y1="160.829" x2="120.249" y2="205.911" gradientUnits="userSpaceOnUse">
<stop stop-color="#FFC700"/>
<stop offset="1" stop-color="#FC9517"/>
</linearGradient>
<linearGradient id="paint6_linear" x1="20.3179" y1="140.435" x2="20.3179" y2="205.911" gradientUnits="userSpaceOnUse">
<stop stop-color="#451168"/>
<stop offset="1" stop-color="#54167E"/>
</linearGradient>
<linearGradient id="paint7_linear" x1="19.7817" y1="149.236" x2="19.7817" y2="196.465" gradientUnits="userSpaceOnUse">
<stop stop-color="#FFC700"/>
<stop offset="1" stop-color="#FC9517"/>
</linearGradient>
<linearGradient id="paint8_linear" x1="96.7434" y1="149.236" x2="96.7434" y2="151.383" gradientUnits="userSpaceOnUse">
<stop stop-color="#FFC700"/>
<stop offset="1" stop-color="#FC9517"/>
</linearGradient>
<linearGradient id="paint9_linear" x1="142.705" y1="109.092" x2="142.705" y2="151.598" gradientUnits="userSpaceOnUse">
<stop stop-color="#FFC700"/>
<stop offset="1" stop-color="#FC9517"/>
</linearGradient>
<linearGradient id="paint10_linear" x1="63.8227" y1="113.17" x2="63.8227" y2="151.598" gradientUnits="userSpaceOnUse">
<stop stop-color="#FFC700"/>
<stop offset="1" stop-color="#FC9517"/>
</linearGradient>
</defs>
</svg>
