<svg width="237" height="294" viewBox="0 0 237 294" fill="none" xmlns="http://www.w3.org/2000/svg">
<path d="M61.4878 245.356C65.9735 245.356 69.5387 246.615 72.1836 249.133C74.8496 251.651 76.1826 255.1 76.1826 259.48C76.1826 264.664 74.5851 268.652 71.3901 271.445C68.1951 274.238 63.6248 275.635 57.6792 275.635C52.5164 275.635 48.3481 274.799 45.1743 273.127V264.653C46.8459 265.542 48.7925 266.272 51.0142 266.843C53.2358 267.393 55.3411 267.668 57.3301 267.668C63.318 267.668 66.312 265.214 66.312 260.305C66.312 255.629 63.2122 253.291 57.0127 253.291C55.8913 253.291 54.6535 253.407 53.2993 253.64C51.9451 253.852 50.8449 254.084 49.9985 254.338L46.0947 252.244L47.8403 228.599H73.0088V236.914H56.4414L55.5845 246.023L56.6953 245.801C57.986 245.505 59.5835 245.356 61.4878 245.356ZM113.919 251.799C113.919 259.903 112.586 265.902 109.92 269.795C107.276 273.688 103.192 275.635 97.6694 275.635C92.3162 275.635 88.2749 273.625 85.5454 269.604C82.8371 265.584 81.4829 259.649 81.4829 251.799C81.4829 243.611 82.8053 237.581 85.4502 233.708C88.0951 229.815 92.1681 227.869 97.6694 227.869C103.023 227.869 107.064 229.9 109.793 233.962C112.544 238.025 113.919 243.971 113.919 251.799ZM91.2266 251.799C91.2266 257.491 91.7132 261.575 92.6865 264.05C93.681 266.505 95.342 267.732 97.6694 267.732C99.9546 267.732 101.605 266.484 102.621 263.987C103.636 261.49 104.144 257.428 104.144 251.799C104.144 246.108 103.626 242.024 102.589 239.548C101.573 237.052 99.9334 235.803 97.6694 235.803C95.3631 235.803 93.7127 237.052 92.7183 239.548C91.7238 242.024 91.2266 246.108 91.2266 251.799Z" fill="url(#paint0_linear)"/>
<path d="M121.132 235.719C121.4 236.36 122.025 236.779 122.718 236.779H141.521V279.678C141.521 280.625 142.29 281.394 143.237 281.394H170.693C171.64 281.394 172.409 280.625 172.409 279.678V236.779H191.284C191.978 236.779 192.602 236.36 192.87 235.722C193.134 235.08 192.99 234.342 192.499 233.851L158.266 199.505C157.943 199.182 157.507 199 157.051 199C156.595 199 156.159 199.182 155.836 199.501L121.503 233.848C121.012 234.339 120.865 235.077 121.132 235.719Z" fill="url(#paint1_linear)"/>
<path d="M237.001 164.461L55.8665 199.055V122.991L237.001 88.1826V164.461Z" fill="url(#paint2_linear)"/>
<path d="M166.738 177.782L126.128 185.517V109.454L166.738 101.719V177.782Z" fill="#FFD34F"/>
<path d="M0.000488281 118.265L55.8663 199.055V122.992L0.000488281 42.2012V118.265Z" fill="url(#paint3_linear)"/>
<path d="M21.701 149.635L34.1634 167.684V91.6207L21.701 73.5718V149.635Z" fill="#BA9527"/>
<path d="M237 88.1834L166.738 101.72L126.128 109.455L55.8663 122.992L34.1646 91.6213L21.7022 73.5724L0.000488281 42.2016L72.4112 29.5244L111.088 22.8634L166.094 13.1943L190.804 39.6231L206.059 55.5235L237 88.1834Z" fill="url(#paint4_linear)"/>
<path d="M166.739 101.72L126.129 109.455L104.212 76.7953L92.3945 59.3909L72.4117 29.5242L111.088 22.8633L131.286 51.4408L143.318 68.6302L166.739 101.72Z" fill="#FFE8A4"/>
<path d="M206.058 55.5234L143.317 68.6303L104.211 76.7953L34.1634 91.6213L21.701 73.5723L92.3928 59.391L131.284 51.4408L190.803 39.623L206.058 55.5234Z" fill="#FFD34F"/>
<path d="M140.955 67.5565C132.576 66.0524 124.625 62.6146 117.964 57.4577C111.518 52.5157 106.362 46.2845 100.13 41.1277C93.8992 35.9708 86.1639 31.8883 78.2138 32.533C70.2637 33.3924 62.5284 40.4831 63.6027 48.6481C64.4622 55.0941 70.6934 59.6064 76.7097 61.97C82.9409 64.3335 89.6018 65.4078 95.1884 68.6308C104.643 74.0025 109.585 84.5311 117.105 92.4812C122.906 98.4976 130.427 103.01 138.807 103.654C147.187 104.299 155.996 100.646 160.079 93.3407C164.161 86.0352 162.442 75.7215 155.352 71.2093C151.269 68.6309 145.897 68.416 140.955 67.5565Z" fill="#FFD34F"/>
<path d="M156.854 95.059C153.846 94.6293 150.408 93.7697 146.97 92.2657C128.921 84.9601 116.029 62.399 116.029 62.399C116.029 62.399 179.63 41.5567 183.713 62.399C187.151 80.6628 176.192 97.6374 156.854 95.059Z" fill="#E8BD3E"/>
<path d="M156.854 95.0585C160.722 93.9841 164.804 91.6206 166.308 86.2489C170.176 73.5716 116.029 62.6133 116.029 62.6133C116.029 62.6133 179.63 41.7711 183.713 62.6133C187.15 80.6623 176.192 97.6369 156.854 95.0585Z" fill="#FFD34F"/>
<path d="M64.0312 36.3992C65.5353 38.7628 67.684 41.3412 70.2624 43.7048C83.7991 56.1672 109.368 57.8861 109.368 57.8861C109.368 57.8861 104.212 -4.85552 83.5843 0.301322C65.7502 4.59869 54.577 20.7138 64.0312 36.3992Z" fill="#E8BD3E"/>
<path d="M64.0312 36.3992C63.3866 32.5316 64.2461 28.2342 68.5435 24.7963C78.6423 16.4164 109.368 57.8861 109.368 57.8861C109.368 57.8861 104.212 -4.85552 83.5843 0.301322C65.7502 4.59869 54.577 20.7138 64.0312 36.3992Z" fill="#FFD34F"/>
<path d="M120.326 62.8272C118.822 66.2651 114.31 67.3394 110.442 65.4055C106.574 63.4717 104.64 59.3892 106.145 55.9513C107.649 52.7283 112.161 51.4391 116.028 53.373C120.111 55.3068 122.045 59.3893 120.326 62.8272Z" fill="#E8BD3E"/>
<defs>
<linearGradient id="paint0_linear" x1="79.5005" y1="205" x2="79.5005" y2="294" gradientUnits="userSpaceOnUse">
<stop stop-color="#FFC700"/>
<stop offset="1" stop-color="#FC9517"/>
</linearGradient>
<linearGradient id="paint1_linear" x1="157" y1="281.394" x2="157" y2="199" gradientUnits="userSpaceOnUse">
<stop stop-color="#FFC700"/>
<stop offset="1" stop-color="#FC9517"/>
</linearGradient>
<linearGradient id="paint2_linear" x1="134.604" y1="72.5021" x2="135.419" y2="214.737" gradientUnits="userSpaceOnUse">
<stop stop-color="#D91B24"/>
<stop offset="1" stop-color="#393C5A"/>
</linearGradient>
<linearGradient id="paint3_linear" x1="24.285" y1="20.0175" x2="29.5663" y2="221.109" gradientUnits="userSpaceOnUse">
<stop stop-color="#960E14"/>
<stop offset="1" stop-color="#393C5A"/>
</linearGradient>
<linearGradient id="paint4_linear" x1="103.023" y1="-2.33421" x2="103.633" y2="138.524" gradientUnits="userSpaceOnUse">
<stop stop-color="#F83740"/>
<stop offset="1" stop-color="#393C5A"/>
</linearGradient>
</defs>
</svg>
