<svg width="204" height="320" viewBox="0 0 204 320" fill="none" xmlns="http://www.w3.org/2000/svg">
<path d="M49.04 301H16.6035V294.176L28.2515 282.401C31.7004 278.868 33.9538 276.424 35.0117 275.07C36.0697 273.694 36.8314 272.425 37.2969 271.261C37.7624 270.097 37.9951 268.891 37.9951 267.643C37.9951 265.781 37.4767 264.395 36.4399 263.485C35.4243 262.576 34.0596 262.121 32.3457 262.121C30.5472 262.121 28.8016 262.533 27.1089 263.358C25.4162 264.184 23.6494 265.358 21.8086 266.881L16.4766 260.565C18.7617 258.619 20.6554 257.243 22.1577 256.439C23.66 255.635 25.2998 255.022 27.0771 254.599C28.8545 254.154 30.8434 253.932 33.0439 253.932C35.9427 253.932 38.5029 254.461 40.7246 255.519C42.9463 256.577 44.6707 258.058 45.8979 259.962C47.1252 261.867 47.7388 264.046 47.7388 266.5C47.7388 268.638 47.3579 270.648 46.5962 272.531C45.8556 274.393 44.6919 276.308 43.105 278.275C41.5392 280.243 38.7674 283.047 34.7896 286.686L28.8228 292.304V292.748H49.04V301ZM70.6221 271.356C75.1077 271.356 78.673 272.615 81.3179 275.133C83.9839 277.651 85.3169 281.1 85.3169 285.48C85.3169 290.664 83.7194 294.652 80.5244 297.445C77.3294 300.238 72.7591 301.635 66.8135 301.635C61.6507 301.635 57.4824 300.799 54.3086 299.127V290.653C55.9801 291.542 57.9268 292.272 60.1484 292.843C62.3701 293.393 64.4754 293.668 66.4644 293.668C72.4523 293.668 75.4463 291.214 75.4463 286.305C75.4463 281.629 72.3465 279.291 66.147 279.291C65.0256 279.291 63.7878 279.407 62.4336 279.64C61.0794 279.852 59.9792 280.084 59.1328 280.338L55.229 278.244L56.9746 254.599H82.1431V262.914H65.5757L64.7188 272.023L65.8296 271.801C67.1203 271.505 68.7178 271.356 70.6221 271.356ZM123.054 277.799C123.054 285.903 121.721 291.902 119.055 295.795C116.41 299.688 112.326 301.635 106.804 301.635C101.451 301.635 97.4092 299.625 94.6797 295.604C91.9714 291.584 90.6172 285.649 90.6172 277.799C90.6172 269.611 91.9396 263.581 94.5845 259.708C97.2293 255.815 101.302 253.869 106.804 253.869C112.157 253.869 116.198 255.9 118.928 259.962C121.678 264.025 123.054 269.971 123.054 277.799ZM100.361 277.799C100.361 283.491 100.847 287.575 101.821 290.05C102.815 292.505 104.476 293.732 106.804 293.732C109.089 293.732 110.739 292.484 111.755 289.987C112.771 287.49 113.278 283.428 113.278 277.799C113.278 272.108 112.76 268.024 111.723 265.548C110.708 263.052 109.068 261.803 106.804 261.803C104.497 261.803 102.847 263.052 101.853 265.548C100.858 268.024 100.361 272.108 100.361 277.799Z" fill="url(#paint0_linear)"/>
<path d="M132.133 261.719C132.401 262.36 133.025 262.779 133.718 262.779H152.522V305.678C152.522 306.625 153.291 307.394 154.238 307.394H181.693C182.641 307.394 183.409 306.625 183.409 305.678V262.779H202.285C202.978 262.779 203.603 262.36 203.871 261.722C204.135 261.08 203.991 260.342 203.5 259.851L169.266 225.505C168.944 225.182 168.508 225 168.052 225C167.595 225 167.159 225.182 166.837 225.501L132.504 259.848C132.013 260.339 131.865 261.077 132.133 261.719Z" fill="url(#paint1_linear)"/>
<path d="M4.01367 187.333L42.7168 206.921V100.251L4.01367 80.6636V187.333Z" fill="url(#paint2_linear)"/>
<path d="M42.7168 103.319V115.355L4.01367 95.5313V83.4956L42.7168 103.319Z" fill="#CD8317"/>
<path d="M37.7608 116.771C37.7608 116.063 33.2769 113.467 27.1411 110.635C30.209 108.747 32.333 107.095 31.861 106.623C31.625 106.151 28.793 106.859 25.7251 108.511C25.4891 102.376 25.0171 97.6557 24.3091 97.1837C23.6011 96.9477 23.1292 101.196 22.8932 107.095C19.5892 102.612 16.9933 99.3076 16.7573 99.5436C16.5213 99.7796 18.4093 103.32 21.4772 107.803C15.3413 105.208 10.8574 103.556 10.8574 104.264C10.8574 104.972 15.3413 107.567 21.4772 110.399C18.4093 112.287 16.2853 113.939 16.7573 114.411C16.9933 114.883 19.8252 114.175 22.8932 112.523C23.1292 118.659 23.6011 123.379 24.3091 123.851C25.0171 124.087 25.4891 119.839 25.7251 113.939C29.029 118.423 31.625 121.727 31.861 121.491C32.097 121.255 30.209 117.715 27.1411 113.231C33.2769 115.827 37.7608 117.479 37.7608 116.771Z" fill="url(#paint3_linear)"/>
<path d="M37.7608 191.346C37.7608 190.638 33.2769 188.042 27.1411 185.21C30.209 183.322 32.333 181.67 31.861 181.198C31.625 180.726 28.793 181.434 25.7251 183.086C25.4891 176.95 25.0171 172.23 24.3091 171.758C23.6011 171.522 23.1292 175.77 22.8932 181.67C19.5892 177.186 16.9933 173.882 16.7573 174.118C16.5213 174.354 18.4093 177.894 21.4772 182.378C15.3413 179.782 10.8574 178.13 10.8574 178.838C10.8574 179.546 15.3413 182.142 21.4772 184.974C18.4093 186.862 16.2853 188.514 16.7573 188.986C16.9933 189.458 19.8252 188.75 22.8932 187.098C23.1292 193.234 23.6011 197.954 24.3091 198.426C25.0171 198.662 25.4891 194.414 25.7251 188.514C29.029 192.998 31.625 196.302 31.861 196.066C32.097 195.83 30.209 192.29 27.1411 187.806C33.2769 190.402 37.7608 192.054 37.7608 191.346Z" fill="url(#paint4_linear)"/>
<path d="M18.8804 145.563C18.8804 144.855 14.3965 142.259 8.26061 139.427C11.3285 137.539 13.4525 135.887 12.9805 135.415C12.7445 134.943 9.91255 135.651 6.84462 137.303C6.60863 131.167 6.13663 126.447 5.42864 125.975C4.72066 125.739 4.24869 129.987 4.0127 135.887V141.551C4.24869 147.687 4.72066 152.407 5.42864 152.879C6.13663 153.115 6.60863 148.867 6.84462 142.967C10.1485 147.451 12.7445 150.755 12.9805 150.519C13.2165 150.283 11.3285 146.743 8.26061 142.259C14.3965 144.619 18.8804 146.271 18.8804 145.563Z" fill="url(#paint5_linear)"/>
<path d="M42.7156 142.967C42.0076 142.731 41.5357 146.979 41.2997 152.879C37.9957 148.395 35.3998 145.091 35.1638 145.327C34.9278 145.563 36.8157 149.103 39.8837 153.587C33.7478 150.991 29.2639 149.339 29.2639 150.047C29.2639 150.755 33.7478 153.351 39.8837 156.183C36.8157 158.071 34.6918 159.723 35.1638 160.195C35.3998 160.667 38.2317 159.959 41.2997 158.307C41.5357 164.443 42.0076 169.163 42.7156 169.635V142.967Z" fill="url(#paint6_linear)"/>
<path d="M193.279 100.251H42.7148V207.157H193.279V100.251Z" fill="url(#paint7_linear)"/>
<path d="M75.0484 119.131C75.0484 118.423 70.5645 117.951 64.4286 117.715C67.4966 114.411 69.6205 111.815 69.1485 111.579C68.6765 111.343 66.0806 113.231 63.0127 116.299C62.7767 110.163 62.3047 105.679 61.5967 105.679C60.8887 105.679 60.4168 110.163 60.1808 116.299C56.8768 113.231 54.2809 111.107 54.0449 111.579C53.8089 111.815 55.6968 114.647 58.7648 117.715C52.6289 117.951 48.145 118.423 48.145 119.131C48.145 119.839 52.6289 120.311 58.7648 120.547C55.6968 123.851 53.5729 126.447 54.0449 126.683C54.2809 126.919 57.1128 125.031 60.1808 121.963C60.4168 128.099 60.8887 132.583 61.5967 132.583C62.3047 132.583 62.7767 128.099 63.0127 121.963C66.3166 125.031 68.9125 127.155 69.1485 126.683C69.3845 126.447 67.4966 123.615 64.4286 120.547C70.5645 120.311 75.0484 119.603 75.0484 119.131Z" fill="url(#paint8_linear)"/>
<path d="M112.807 119.131C112.807 118.423 108.323 117.951 102.187 117.715C105.255 114.411 107.379 111.815 106.907 111.579C106.671 111.343 103.839 113.231 100.771 116.299C100.535 110.163 100.063 105.679 99.3553 105.679C98.6473 105.679 98.1753 110.163 97.9393 116.299C94.6354 113.231 92.0394 111.107 91.8034 111.579C91.5674 111.815 93.4554 114.647 96.5233 117.715C90.3875 117.951 85.9036 118.423 85.9036 119.131C85.9036 119.839 90.3875 120.311 96.5233 120.547C93.4554 123.851 91.3314 126.447 91.8034 126.683C92.0394 126.919 94.8714 125.031 97.9393 121.963C98.1753 128.099 98.6473 132.583 99.3553 132.583C100.063 132.583 100.535 128.099 100.771 121.963C104.075 125.031 106.671 127.155 106.907 126.683C107.143 126.447 105.255 123.615 102.187 120.547C108.323 120.311 112.807 119.603 112.807 119.131Z" fill="url(#paint9_linear)"/>
<path d="M150.566 119.131C150.566 118.423 146.082 117.951 139.946 117.715C143.014 114.411 145.138 111.815 144.666 111.579C144.43 111.343 141.598 113.231 138.53 116.299C138.294 110.163 137.822 105.679 137.114 105.679C136.406 105.679 135.934 110.163 135.698 116.299C132.394 113.231 129.798 111.107 129.562 111.579C129.326 111.815 131.214 114.647 134.282 117.715C128.146 117.951 123.662 118.423 123.662 119.131C123.662 119.839 128.146 120.311 134.282 120.547C131.214 123.851 129.09 126.447 129.562 126.683C129.798 126.919 132.63 125.031 135.698 121.963C135.934 128.099 136.406 132.583 137.114 132.583C137.822 132.583 138.294 128.099 138.53 121.963C141.834 125.031 144.43 127.155 144.666 126.683C144.902 126.447 143.014 123.615 139.946 120.547C146.082 120.311 150.566 119.603 150.566 119.131Z" fill="url(#paint10_linear)"/>
<path d="M188.326 119.131C188.326 118.423 183.842 117.951 177.706 117.715C180.774 114.411 182.898 111.815 182.426 111.579C182.19 111.343 179.358 113.231 176.29 116.299C176.054 110.163 175.582 105.679 174.874 105.679C174.166 105.679 173.694 110.163 173.458 116.299C170.154 113.231 167.558 111.107 167.322 111.579C167.086 111.815 168.974 114.647 172.042 117.715C165.906 117.951 161.422 118.423 161.422 119.131C161.422 119.839 165.906 120.311 172.042 120.547C168.974 123.851 166.85 126.447 167.322 126.683C167.558 126.919 170.39 125.031 173.458 121.963C173.694 128.099 174.166 132.583 174.874 132.583C175.582 132.583 176.054 128.099 176.29 121.963C179.594 125.031 182.19 127.155 182.426 126.683C182.662 126.447 180.774 123.615 177.706 120.547C183.606 120.311 188.326 119.603 188.326 119.131Z" fill="url(#paint11_linear)"/>
<path d="M75.0484 193.469C75.0484 192.761 70.5645 192.289 64.4286 192.053C67.4966 188.749 69.6205 186.153 69.1485 185.917C68.9125 185.681 66.0806 187.569 63.0127 190.637C62.7767 184.501 62.3047 180.018 61.5967 180.018C60.8887 180.018 60.4168 184.501 60.1808 190.637C56.8768 187.569 54.2809 185.445 54.0449 185.917C53.8089 186.153 55.6968 188.985 58.7648 192.053C52.6289 192.289 48.145 192.761 48.145 193.469C48.145 194.177 52.6289 194.649 58.7648 194.885C55.6968 198.189 53.5729 200.785 54.0449 201.021C54.2809 201.257 57.1128 199.369 60.1808 196.301C60.4168 202.437 60.8887 206.921 61.5967 206.921C62.3047 206.921 62.7767 202.437 63.0127 196.301C66.3166 199.369 68.9125 201.493 69.1485 201.021C69.3845 200.785 67.4966 197.953 64.4286 194.885C70.5645 194.885 75.0484 194.177 75.0484 193.469Z" fill="url(#paint12_linear)"/>
<path d="M112.807 193.469C112.807 192.761 108.323 192.289 102.187 192.053C105.255 188.749 107.379 186.153 106.907 185.917C106.671 185.681 103.839 187.569 100.771 190.637C100.535 184.501 100.063 180.018 99.3553 180.018C98.6473 180.018 98.1753 184.501 97.9393 190.637C94.6354 187.569 92.0394 185.445 91.8034 185.917C91.5674 186.153 93.4554 188.985 96.5233 192.053C90.3875 192.289 85.9036 192.761 85.9036 193.469C85.9036 194.177 90.3875 194.649 96.5233 194.885C93.4554 198.189 91.3314 200.785 91.8034 201.021C92.0394 201.257 94.8714 199.369 97.9393 196.301C98.1753 202.437 98.6473 206.921 99.3553 206.921C100.063 206.921 100.535 202.437 100.771 196.301C104.075 199.369 106.671 201.493 106.907 201.021C107.143 200.785 105.255 197.953 102.187 194.885C108.323 194.885 112.807 194.177 112.807 193.469Z" fill="url(#paint13_linear)"/>
<path d="M150.566 193.469C150.566 192.761 146.082 192.289 139.946 192.053C143.014 188.749 145.138 186.153 144.666 185.917C144.43 185.681 141.598 187.569 138.53 190.637C138.294 184.501 137.822 180.018 137.114 180.018C136.406 180.018 135.934 184.501 135.698 190.637C132.394 187.569 129.798 185.445 129.562 185.917C129.326 186.153 131.214 188.985 134.282 192.053C128.146 192.289 123.662 192.761 123.662 193.469C123.662 194.177 128.146 194.649 134.282 194.885C131.214 198.189 129.09 200.785 129.562 201.021C129.798 201.257 132.63 199.369 135.698 196.301C135.934 202.437 136.406 206.921 137.114 206.921C137.822 206.921 138.294 202.437 138.53 196.301C141.834 199.369 144.43 201.493 144.666 201.021C144.902 200.785 143.014 197.953 139.946 194.885C146.082 194.885 150.566 194.177 150.566 193.469Z" fill="url(#paint14_linear)"/>
<path d="M188.326 193.469C188.326 192.761 183.842 192.289 177.706 192.053C180.774 188.749 182.898 186.153 182.426 185.917C182.19 185.681 179.358 187.569 176.29 190.637C176.054 184.501 175.582 180.018 174.874 180.018C174.166 180.018 173.694 184.501 173.458 190.637C170.154 187.569 167.558 185.445 167.322 185.917C167.086 186.153 168.974 188.985 172.042 192.053C165.906 192.289 161.422 192.761 161.422 193.469C161.422 194.177 165.906 194.649 172.042 194.885C168.974 198.189 166.85 200.785 167.322 201.021C167.558 201.257 170.39 199.369 173.458 196.301C173.694 202.437 174.166 206.921 174.874 206.921C175.582 206.921 176.054 202.437 176.29 196.301C179.594 199.369 182.19 201.493 182.426 201.021C182.662 200.785 180.774 197.953 177.706 194.885C183.606 194.885 188.326 194.177 188.326 193.469Z" fill="url(#paint15_linear)"/>
<path d="M93.929 156.418C93.929 155.71 89.4451 155.238 83.3093 155.002C86.3772 151.698 88.5011 149.102 88.0291 148.866C87.7932 148.63 84.9612 150.518 81.8933 153.586C81.6573 147.45 81.1853 142.966 80.4773 142.966C79.7693 142.966 79.2974 147.45 79.0614 153.586C75.7575 150.518 73.1615 148.394 72.9255 148.866C72.6895 149.102 74.5775 151.934 77.6454 155.002C71.5095 155.238 67.0256 155.71 67.0256 156.418C67.0256 157.125 71.5095 157.597 77.6454 157.833C74.5775 161.137 72.4535 163.733 72.9255 163.969C73.1615 164.205 75.9934 162.317 79.0614 159.249C79.2974 165.385 79.7693 169.869 80.4773 169.869C81.1853 169.869 81.6573 165.385 81.8933 159.249C85.1972 162.317 87.7932 164.441 88.0291 163.969C88.2651 163.733 86.3772 160.901 83.3093 157.833C89.4451 157.597 93.929 157.125 93.929 156.418Z" fill="url(#paint16_linear)"/>
<path d="M131.688 156.418C131.688 155.71 127.204 155.238 121.068 155.002C124.136 151.698 126.26 149.102 125.788 148.866C125.316 148.63 122.72 150.518 119.652 153.586C119.416 147.45 118.944 142.966 118.236 142.966C117.528 142.966 117.056 147.45 116.82 153.586C113.516 150.518 110.92 148.394 110.684 148.866C110.448 149.102 112.336 151.934 115.404 155.002C109.268 155.238 104.784 155.71 104.784 156.418C104.784 157.125 109.268 157.597 115.404 157.833C112.336 161.137 110.212 163.733 110.684 163.969C110.92 164.205 113.752 162.317 116.82 159.249C117.056 165.385 117.528 169.869 118.236 169.869C118.944 169.869 119.416 165.385 119.652 159.249C122.956 162.317 125.552 164.441 125.788 163.969C126.024 163.733 124.136 160.901 121.068 157.833C127.204 157.597 131.688 157.125 131.688 156.418Z" fill="url(#paint17_linear)"/>
<path d="M169.447 156.418C169.447 155.71 164.963 155.238 158.827 155.002C161.895 151.698 164.019 149.102 163.547 148.866C163.075 148.63 160.479 150.518 157.411 153.586C157.175 147.45 156.703 142.966 155.995 142.966C155.287 142.966 154.815 147.45 154.579 153.586C151.275 150.518 148.679 148.394 148.443 148.866C148.207 149.102 150.095 151.934 153.163 155.002C147.027 155.238 142.543 155.71 142.543 156.418C142.543 157.125 147.027 157.597 153.163 157.833C150.095 161.137 147.971 163.733 148.443 163.969C148.679 164.205 151.511 162.317 154.579 159.249C154.815 165.385 155.287 169.869 155.995 169.869C156.703 169.869 157.175 165.385 157.411 159.249C160.715 162.317 163.311 164.441 163.547 163.969C163.783 163.733 161.895 160.901 158.827 157.833C164.963 157.597 169.447 157.125 169.447 156.418Z" fill="url(#paint18_linear)"/>
<path d="M193.282 142.966C192.574 142.966 192.102 147.45 191.866 153.586C188.562 150.518 185.966 148.394 185.73 148.866C185.494 149.102 187.382 151.934 190.45 155.002C184.314 155.238 179.83 155.71 179.83 156.418C179.83 157.125 184.314 157.597 190.45 157.833C187.382 161.137 185.258 163.733 185.73 163.969C185.966 164.205 188.798 162.317 191.866 159.249C192.102 165.385 192.574 169.869 193.282 169.869V142.966Z" fill="url(#paint19_linear)"/>
<path d="M56.1681 156.418C56.1681 155.71 51.6842 155.238 45.5484 155.002C48.6163 151.698 50.7403 149.102 50.2683 148.866C50.0323 148.63 47.2004 150.518 44.1324 153.586C43.8964 147.45 43.4244 142.966 42.7164 142.966C42.7164 142.966 42.7165 142.966 42.4805 143.202V169.869C42.4805 169.869 42.4804 170.105 42.7164 170.105C43.4244 170.105 43.8964 165.621 44.1324 159.485C47.4364 162.553 50.0323 164.677 50.2683 164.205C50.5043 163.969 48.6163 161.137 45.5484 158.07C51.6842 157.598 56.1681 157.125 56.1681 156.418Z" fill="url(#paint20_linear)"/>
<path d="M131.686 100.251H116.11V207.157H131.686V100.251Z" fill="url(#paint21_linear)"/>
<path d="M23.8371 90.575V197.481L19.8252 195.357V88.687L23.8371 90.575Z" fill="url(#paint22_linear)"/>
<path d="M198.001 57.7723H40.5921L21.7125 48.3325L17.7006 46.2085L0.000976562 37.2407H152.926L172.749 46.2085L176.997 48.3325L198.001 57.7723Z" fill="#FFD34F"/>
<path d="M176.997 48.332H21.7121L17.7002 46.208H172.749L176.997 48.332Z" fill="#8D36CA"/>
<path d="M84.0161 37.2407H68.4404L113.279 57.7723H128.855L84.0161 37.2407Z" fill="#601D8F"/>
<path d="M0.000976562 82.7877L40.5921 103.319V57.7723L0.000976562 37.2407V82.7877Z" fill="url(#paint23_linear)"/>
<path d="M21.7121 48.332V93.8789L17.7002 91.755V46.208L21.7121 48.332Z" fill="url(#paint24_linear)"/>
<path d="M168.03 40.3086C165.198 43.8485 159.534 47.8604 159.534 47.8604H98.4114C98.4114 47.8604 122.483 -8.54233 151.274 1.13345C152.69 1.60544 154.106 2.31343 155.522 3.02141C161.422 8.44929 154.814 18.3611 160.714 24.9689C166.378 31.8128 171.098 36.7686 168.03 40.3086Z" fill="#BB6BD9"/>
<path d="M128.619 28.509C118.235 39.6007 108.087 47.1526 105.963 45.2646C104.075 43.3767 110.919 32.9929 121.303 21.6651C131.687 10.5734 141.835 3.02155 143.959 4.90951C146.083 6.79746 139.003 17.1812 128.619 28.509Z" fill="#4C094E"/>
<path d="M99.5909 47.8603H38.4683C38.4683 47.8603 32.8044 43.8484 29.9725 40.3085C27.1405 36.7686 31.6244 31.8127 37.5243 24.9689C42.4802 19.305 38.4683 11.0452 40.8282 5.61729C41.3002 4.67331 41.7722 3.72934 42.7162 3.02135C72.9235 -14.2063 99.5909 47.8603 99.5909 47.8603Z" fill="#BB6BD9"/>
<path d="M69.3837 28.5085C79.7675 39.6002 89.9153 47.1521 92.0393 45.2641C93.9272 43.3762 87.0834 32.9924 76.6996 21.6647C66.3158 10.5729 56.168 3.02106 54.0441 4.90902C51.9201 6.79697 58.764 17.1807 69.3837 28.5085Z" fill="#4C094E"/>
<path d="M115.404 40.5444V43.3764C115.404 45.7363 113.516 47.8603 110.92 47.8603H86.8481C84.4882 47.8603 82.3643 45.9723 82.3643 43.3764V40.5444C82.3643 40.3085 82.3643 40.0725 82.3643 39.6005C82.8362 37.7125 84.4882 36.0605 86.6122 36.0605H110.684C112.808 36.0605 114.696 37.4765 114.931 39.6005C115.403 39.8365 115.404 40.0725 115.404 40.5444Z" fill="#591985"/>
<path d="M115.402 39.6005C114.93 41.7244 113.278 43.1404 111.154 43.1404H87.0821C84.9582 43.1404 83.0702 41.7244 82.8342 39.6005C83.3062 37.7125 84.9582 36.0605 87.0821 36.0605H111.154C113.042 36.0605 114.93 37.4765 115.402 39.6005Z" fill="#BB6BD9"/>
<path d="M168.029 40.3089C165.197 43.8488 159.533 47.8607 159.533 47.8607H119.178C120.122 46.6808 121.538 45.7368 122.718 45.0288C127.438 42.1969 133.101 41.4889 138.529 40.3089C144.665 38.8929 151.273 35.589 152.689 29.4532C153.161 27.3292 153.161 24.9692 152.925 22.6093C152.217 15.5295 151.745 8.21363 151.037 1.13379C152.453 1.60578 153.869 2.31377 155.285 3.02175C161.185 8.44963 154.577 18.3614 160.477 24.9692C166.377 31.8131 171.097 36.769 168.029 40.3089Z" fill="url(#paint25_linear)"/>
<path d="M85.6672 47.8607H38.4683C38.4683 47.8607 32.8044 43.8488 29.9725 40.3089C27.1405 36.769 31.6244 31.8131 37.5243 24.9692C42.4802 19.3054 38.4683 11.0456 40.8282 5.61768C41.7722 8.9216 42.4802 12.4615 43.4242 15.7655C44.6041 20.0134 45.5481 24.0253 47.4361 28.0372C52.628 38.4209 63.9557 45.2648 75.5195 45.2648C77.8794 45.2648 80.2393 45.0288 82.3633 45.7368C83.5433 45.9728 84.7232 46.6808 85.6672 47.8607Z" fill="url(#paint26_linear)"/>
<path d="M193.279 100.251H42.7148V115.355H193.279V100.251Z" fill="#DF901D"/>
<path d="M198.001 57.7725H40.5928V103.319H198.001V57.7725Z" fill="url(#paint27_linear)"/>
<path d="M128.854 57.7725H113.278V103.319H128.854V57.7725Z" fill="url(#paint28_linear)"/>
<defs>
<linearGradient id="paint0_linear" x1="70.001" y1="231" x2="70.001" y2="320" gradientUnits="userSpaceOnUse">
<stop stop-color="#FFC700"/>
<stop offset="1" stop-color="#FC9517"/>
</linearGradient>
<linearGradient id="paint1_linear" x1="168.001" y1="307.394" x2="168.001" y2="225" gradientUnits="userSpaceOnUse">
<stop stop-color="#FFC700"/>
<stop offset="1" stop-color="#FC9517"/>
</linearGradient>
<linearGradient id="paint2_linear" x1="23.3652" y1="80.6636" x2="23.3652" y2="206.921" gradientUnits="userSpaceOnUse">
<stop stop-color="#FFC700"/>
<stop offset="1" stop-color="#BF6A03"/>
</linearGradient>
<linearGradient id="paint3_linear" x1="24.3091" y1="97.1743" x2="24.3091" y2="123.86" gradientUnits="userSpaceOnUse">
<stop stop-color="#6A239B"/>
<stop offset="1" stop-color="#54167E"/>
</linearGradient>
<linearGradient id="paint4_linear" x1="24.3091" y1="171.749" x2="24.3091" y2="198.435" gradientUnits="userSpaceOnUse">
<stop stop-color="#6A239B"/>
<stop offset="1" stop-color="#54167E"/>
</linearGradient>
<linearGradient id="paint5_linear" x1="11.4465" y1="125.966" x2="11.4465" y2="152.888" gradientUnits="userSpaceOnUse">
<stop stop-color="#6A239B"/>
<stop offset="1" stop-color="#54167E"/>
</linearGradient>
<linearGradient id="paint6_linear" x1="35.9898" y1="142.958" x2="35.9898" y2="169.635" gradientUnits="userSpaceOnUse">
<stop stop-color="#6A239B"/>
<stop offset="1" stop-color="#54167E"/>
</linearGradient>
<linearGradient id="paint7_linear" x1="117.997" y1="100.251" x2="117.997" y2="207.157" gradientUnits="userSpaceOnUse">
<stop stop-color="#FFC700"/>
<stop offset="1" stop-color="#FC9517"/>
</linearGradient>
<linearGradient id="paint8_linear" x1="61.5967" y1="105.679" x2="61.5967" y2="132.583" gradientUnits="userSpaceOnUse">
<stop stop-color="#6A239B"/>
<stop offset="1" stop-color="#54167E"/>
</linearGradient>
<linearGradient id="paint9_linear" x1="99.3553" y1="105.679" x2="99.3553" y2="132.583" gradientUnits="userSpaceOnUse">
<stop stop-color="#6A239B"/>
<stop offset="1" stop-color="#54167E"/>
</linearGradient>
<linearGradient id="paint10_linear" x1="137.114" y1="105.679" x2="137.114" y2="132.583" gradientUnits="userSpaceOnUse">
<stop stop-color="#6A239B"/>
<stop offset="1" stop-color="#54167E"/>
</linearGradient>
<linearGradient id="paint11_linear" x1="174.874" y1="105.679" x2="174.874" y2="132.583" gradientUnits="userSpaceOnUse">
<stop stop-color="#6A239B"/>
<stop offset="1" stop-color="#54167E"/>
</linearGradient>
<linearGradient id="paint12_linear" x1="61.5967" y1="180.018" x2="61.5967" y2="206.921" gradientUnits="userSpaceOnUse">
<stop stop-color="#6A239B"/>
<stop offset="1" stop-color="#54167E"/>
</linearGradient>
<linearGradient id="paint13_linear" x1="99.3553" y1="180.018" x2="99.3553" y2="206.921" gradientUnits="userSpaceOnUse">
<stop stop-color="#6A239B"/>
<stop offset="1" stop-color="#54167E"/>
</linearGradient>
<linearGradient id="paint14_linear" x1="137.114" y1="180.018" x2="137.114" y2="206.921" gradientUnits="userSpaceOnUse">
<stop stop-color="#6A239B"/>
<stop offset="1" stop-color="#54167E"/>
</linearGradient>
<linearGradient id="paint15_linear" x1="174.874" y1="180.018" x2="174.874" y2="206.921" gradientUnits="userSpaceOnUse">
<stop stop-color="#6A239B"/>
<stop offset="1" stop-color="#54167E"/>
</linearGradient>
<linearGradient id="paint16_linear" x1="80.4773" y1="142.966" x2="80.4773" y2="169.869" gradientUnits="userSpaceOnUse">
<stop stop-color="#6A239B"/>
<stop offset="1" stop-color="#54167E"/>
</linearGradient>
<linearGradient id="paint17_linear" x1="118.236" y1="142.966" x2="118.236" y2="169.869" gradientUnits="userSpaceOnUse">
<stop stop-color="#6A239B"/>
<stop offset="1" stop-color="#54167E"/>
</linearGradient>
<linearGradient id="paint18_linear" x1="155.995" y1="142.966" x2="155.995" y2="169.869" gradientUnits="userSpaceOnUse">
<stop stop-color="#6A239B"/>
<stop offset="1" stop-color="#54167E"/>
</linearGradient>
<linearGradient id="paint19_linear" x1="186.556" y1="142.966" x2="186.556" y2="169.869" gradientUnits="userSpaceOnUse">
<stop stop-color="#6A239B"/>
<stop offset="1" stop-color="#54167E"/>
</linearGradient>
<linearGradient id="paint20_linear" x1="49.3243" y1="142.966" x2="49.3243" y2="170.105" gradientUnits="userSpaceOnUse">
<stop stop-color="#6A239B"/>
<stop offset="1" stop-color="#54167E"/>
</linearGradient>
<linearGradient id="paint21_linear" x1="123.898" y1="100.251" x2="123.898" y2="207.157" gradientUnits="userSpaceOnUse">
<stop stop-color="#6A239B"/>
<stop offset="1" stop-color="#54167E"/>
</linearGradient>
<linearGradient id="paint22_linear" x1="21.8311" y1="88.687" x2="21.8311" y2="197.481" gradientUnits="userSpaceOnUse">
<stop stop-color="#6A239B"/>
<stop offset="1" stop-color="#54167E"/>
</linearGradient>
<linearGradient id="paint23_linear" x1="20.2965" y1="37.2407" x2="20.2965" y2="103.319" gradientUnits="userSpaceOnUse">
<stop stop-color="#FFC700"/>
<stop offset="1" stop-color="#DB7D0A"/>
</linearGradient>
<linearGradient id="paint24_linear" x1="19.7061" y1="46.208" x2="19.7061" y2="93.8789" gradientUnits="userSpaceOnUse">
<stop stop-color="#6A239B"/>
<stop offset="1" stop-color="#54167E"/>
</linearGradient>
<linearGradient id="paint25_linear" x1="144.085" y1="1.13379" x2="144.085" y2="47.8607" gradientUnits="userSpaceOnUse">
<stop stop-color="#6A239B"/>
<stop offset="1" stop-color="#54167E"/>
</linearGradient>
<linearGradient id="paint26_linear" x1="57.3844" y1="5.61768" x2="57.3844" y2="47.8607" gradientUnits="userSpaceOnUse">
<stop stop-color="#6A239B"/>
<stop offset="1" stop-color="#54167E"/>
</linearGradient>
<linearGradient id="paint27_linear" x1="119.297" y1="57.7725" x2="119.297" y2="103.319" gradientUnits="userSpaceOnUse">
<stop stop-color="#FFC700"/>
<stop offset="1" stop-color="#FC9517"/>
</linearGradient>
<linearGradient id="paint28_linear" x1="121.066" y1="57.7725" x2="121.066" y2="103.319" gradientUnits="userSpaceOnUse">
<stop stop-color="#6A239B"/>
<stop offset="1" stop-color="#54167E"/>
</linearGradient>
</defs>
</svg>
