<svg width="197" height="309" viewBox="0 0 197 309" fill="none" xmlns="http://www.w3.org/2000/svg">
<path d="M54.4751 33.9771C54.4751 36.8758 53.597 39.3408 51.8408 41.3721C50.0846 43.4033 47.6196 44.7998 44.4458 45.5615V45.752C48.1909 46.2174 51.0262 47.36 52.9517 49.1797C54.8771 50.9782 55.8398 53.4115 55.8398 56.4795C55.8398 60.944 54.2212 64.4246 50.9839 66.9214C47.7466 69.397 43.1234 70.6348 37.1143 70.6348C32.0785 70.6348 27.6139 69.799 23.7207 68.1274V59.7803C25.5192 60.6901 27.4976 61.4307 29.6558 62.002C31.814 62.5732 33.951 62.8589 36.0669 62.8589C39.3042 62.8589 41.6951 62.3088 43.2397 61.2085C44.7843 60.1082 45.5566 58.3415 45.5566 55.9082C45.5566 53.7288 44.668 52.1842 42.8906 51.2744C41.1133 50.3646 38.278 49.9097 34.3848 49.9097H30.8618V42.3877H34.4482C38.0452 42.3877 40.6689 41.9222 42.3193 40.9912C43.9909 40.0391 44.8267 38.4204 44.8267 36.1353C44.8267 32.6229 42.6261 30.8667 38.2251 30.8667C36.7017 30.8667 35.1465 31.1206 33.5596 31.6284C31.9938 32.1362 30.2482 33.0143 28.3228 34.2627L23.7842 27.5024C28.016 24.4556 33.0623 22.9321 38.9233 22.9321C43.7264 22.9321 47.5138 23.9054 50.2856 25.8521C53.0786 27.7987 54.4751 30.507 54.4751 33.9771ZM101.543 70H90.3711L78.2153 50.4492L74.0576 53.4326V70H64.2188V23.5986H74.0576V44.8315L77.9297 39.3726L90.498 23.5986H101.416L85.2295 44.1333L101.543 70Z" fill="#FFAA2E"/>
<path d="M190.113 52.6754C189.845 52.0337 189.221 51.615 188.528 51.615H169.724V8.71602C169.724 7.7688 168.955 7 168.008 7H140.553C139.605 7 138.837 7.7688 138.837 8.71602V51.6151H119.961C119.268 51.6151 118.643 52.0339 118.376 52.6722C118.111 53.3139 118.255 54.0519 118.746 54.5427L152.98 88.8894C153.302 89.2119 153.738 89.3939 154.195 89.3939C154.651 89.3939 155.087 89.2119 155.409 88.8928L189.743 54.5461C190.233 54.0551 190.381 53.3173 190.113 52.6754Z" fill="#FFAA2E"/>
<path d="M191.523 202.691H42.5371V308.527H191.523V202.691Z" fill="url(#paint0_linear)"/>
<path d="M130.554 202.691H115.097V308.527H130.554V202.691Z" fill="url(#paint1_linear)"/>
<path d="M191.523 202.691H42.5371V213.854H191.523V202.691Z" fill="#DEDEDE"/>
<path d="M4.10889 288.991L42.536 308.527V202.691L4.10889 183.155V288.991Z" fill="url(#paint2_linear)"/>
<path d="M42.536 203.335V213.854L4.10889 194.533V184.014L42.536 203.335Z" fill="#DEDEDE"/>
<path d="M23.8586 193.245V299.081L19.7798 296.934V191.313L23.8586 193.245Z" fill="url(#paint3_linear)"/>
<path d="M196.246 160.829H40.3901V205.911H196.246V160.829Z" fill="url(#paint4_linear)"/>
<path d="M127.977 160.829H112.521V205.911H127.977V160.829Z" fill="url(#paint5_linear)"/>
<path d="M0.245117 185.517L40.3897 205.911V160.829L0.245117 140.435V185.517Z" fill="url(#paint6_linear)"/>
<path d="M21.7133 151.383V196.465L17.8491 194.533V149.236L21.7133 151.383Z" fill="url(#paint7_linear)"/>
<path d="M196.245 160.829H40.3897L21.7128 151.383L17.8486 149.236L0.245117 140.435H151.592L171.128 149.236L175.636 151.383L196.245 160.829Z" fill="#A940E5"/>
<path d="M175.637 151.383H21.7133L17.8491 149.236H171.128L175.637 151.383Z" fill="url(#paint8_linear)"/>
<path d="M83.3249 140.435H67.8682L112.521 160.829H127.763L83.3249 140.435Z" fill="#FAD843"/>
<path d="M164.473 144.728C161.897 147.948 156.744 151.598 156.744 151.598H101.143C101.143 151.598 123.04 100.29 149.231 109.092C150.519 109.521 151.807 110.165 153.095 110.809C158.462 115.747 152.451 124.763 157.818 130.774C163.185 136.785 167.264 141.508 164.473 144.728Z" fill="#F7D245"/>
<path d="M128.621 133.779C119.176 143.869 109.944 150.739 108.012 149.021C106.295 147.304 112.521 137.858 121.966 127.554C131.412 117.249 140.643 110.594 142.575 112.312C144.507 114.244 138.282 123.689 128.621 133.779Z" fill="#EDA328"/>
<path d="M102.217 151.598H46.6153C46.6153 151.598 41.4631 147.948 38.887 144.728C36.3109 141.508 40.3897 137 45.7566 130.774C50.2648 125.622 46.6153 118.108 48.7621 113.171C49.1915 112.312 49.6208 111.453 50.4795 110.809C77.9582 94.9231 102.217 151.598 102.217 151.598Z" fill="#F7D245"/>
<path d="M74.7376 133.78C84.1833 143.87 93.4145 150.739 95.3466 149.022C97.064 147.304 90.8383 137.859 81.3926 127.554C71.9468 117.25 62.7157 110.595 60.7836 112.312C58.8515 114.244 65.2918 123.69 74.7376 133.78Z" fill="#EDA328"/>
<path d="M116.6 144.728V147.304C116.6 149.451 114.883 151.383 112.521 151.383H90.6243C88.4775 151.383 86.5454 149.665 86.5454 147.304V144.728C86.5454 144.513 86.5454 144.298 86.5454 143.869C86.9748 142.152 88.4775 140.649 90.4096 140.649H112.307C114.239 140.649 115.956 141.937 116.171 143.869C116.6 144.298 116.6 144.513 116.6 144.728Z" fill="#EDA328"/>
<path d="M116.6 144.084C116.171 146.017 114.668 147.305 112.736 147.305H90.8393C88.9072 147.305 87.1898 146.017 86.9751 144.084C87.4045 142.367 88.9072 140.864 90.8393 140.864H112.736C114.668 140.864 116.171 142.152 116.6 144.084Z" fill="#F7D245"/>
<path d="M164.472 144.728C161.896 147.948 156.744 151.598 156.744 151.598H120.034C120.893 150.524 122.181 149.666 123.254 149.022C127.548 146.446 132.7 145.802 137.638 144.728C143.219 143.44 149.23 140.435 150.518 134.853C150.948 132.921 150.948 130.774 150.733 128.627C150.089 122.187 149.66 115.532 149.016 109.092C150.304 109.521 151.592 110.165 152.88 110.809C158.247 115.747 152.236 124.763 157.603 130.774C163.184 136.785 167.263 141.508 164.472 144.728Z" fill="url(#paint9_linear)"/>
<path d="M89.5502 151.598H46.6149C46.6149 151.598 41.4626 147.948 38.8865 144.728C36.3104 141.508 40.3892 137 45.7561 130.774C50.2644 125.622 46.6149 118.108 48.7616 113.17C49.6203 116.176 50.2644 119.396 51.1231 122.402C52.1964 126.266 53.0552 129.915 54.7726 133.565C59.4955 143.01 69.8 149.236 80.3191 149.236C82.4659 149.236 84.6127 149.021 86.5448 149.665C87.6181 149.665 88.6915 150.524 89.5502 151.598Z" fill="url(#paint10_linear)"/>
<defs>
<linearGradient id="paint0_linear" x1="117.03" y1="202.691" x2="117.03" y2="308.527" gradientUnits="userSpaceOnUse">
<stop stop-color="#6A239B"/>
<stop offset="1" stop-color="#54167E"/>
</linearGradient>
<linearGradient id="paint1_linear" x1="122.826" y1="202.691" x2="122.826" y2="308.527" gradientUnits="userSpaceOnUse">
<stop stop-color="#FFC700"/>
<stop offset="1" stop-color="#FC9517"/>
</linearGradient>
<linearGradient id="paint2_linear" x1="23.3225" y1="183.155" x2="23.3225" y2="308.527" gradientUnits="userSpaceOnUse">
<stop stop-color="#451168"/>
<stop offset="1" stop-color="#54167E"/>
</linearGradient>
<linearGradient id="paint3_linear" x1="21.8192" y1="191.313" x2="21.8192" y2="299.081" gradientUnits="userSpaceOnUse">
<stop stop-color="#FFC700"/>
<stop offset="1" stop-color="#FC9517"/>
</linearGradient>
<linearGradient id="paint4_linear" x1="118.318" y1="160.829" x2="118.318" y2="205.911" gradientUnits="userSpaceOnUse">
<stop stop-color="#6A239B"/>
<stop offset="1" stop-color="#54167E"/>
</linearGradient>
<linearGradient id="paint5_linear" x1="120.249" y1="160.829" x2="120.249" y2="205.911" gradientUnits="userSpaceOnUse">
<stop stop-color="#FFC700"/>
<stop offset="1" stop-color="#FC9517"/>
</linearGradient>
<linearGradient id="paint6_linear" x1="20.3174" y1="140.435" x2="20.3174" y2="205.911" gradientUnits="userSpaceOnUse">
<stop stop-color="#451168"/>
<stop offset="1" stop-color="#54167E"/>
</linearGradient>
<linearGradient id="paint7_linear" x1="19.7812" y1="149.236" x2="19.7812" y2="196.465" gradientUnits="userSpaceOnUse">
<stop stop-color="#FFC700"/>
<stop offset="1" stop-color="#FC9517"/>
</linearGradient>
<linearGradient id="paint8_linear" x1="96.7429" y1="149.236" x2="96.7429" y2="151.383" gradientUnits="userSpaceOnUse">
<stop stop-color="#FFC700"/>
<stop offset="1" stop-color="#FC9517"/>
</linearGradient>
<linearGradient id="paint9_linear" x1="142.704" y1="109.092" x2="142.704" y2="151.598" gradientUnits="userSpaceOnUse">
<stop stop-color="#FFC700"/>
<stop offset="1" stop-color="#FC9517"/>
</linearGradient>
<linearGradient id="paint10_linear" x1="63.8222" y1="113.17" x2="63.8222" y2="151.598" gradientUnits="userSpaceOnUse">
<stop stop-color="#FFC700"/>
<stop offset="1" stop-color="#FC9517"/>
</linearGradient>
</defs>
</svg>
