<svg width="237" height="294" viewBox="0 0 237 294" fill="none" xmlns="http://www.w3.org/2000/svg">
<path d="M49.2053 275L66.6296 236.914H43.7463V228.662H77.0398V234.819L59.4885 275H49.2053ZM98.6218 245.356C103.108 245.356 106.673 246.615 109.318 249.133C111.984 251.651 113.317 255.1 113.317 259.48C113.317 264.664 111.719 268.652 108.524 271.445C105.329 274.238 100.759 275.635 94.8132 275.635C89.6505 275.635 85.4822 274.799 82.3083 273.127V264.653C83.9799 265.542 85.9265 266.272 88.1482 266.843C90.3699 267.393 92.4752 267.668 94.4641 267.668C100.452 267.668 103.446 265.214 103.446 260.305C103.446 255.629 100.346 253.291 94.1467 253.291C93.0253 253.291 91.7875 253.407 90.4333 253.64C89.0792 253.852 87.9789 254.084 87.1326 254.338L83.2288 252.244L84.9744 228.599H110.143V236.914H93.5754L92.7185 246.023L93.8293 245.801C95.12 245.505 96.7175 245.356 98.6218 245.356Z" fill="url(#paint0_linear)"/>
<path d="M121.133 235.719C121.4 236.36 122.025 236.779 122.718 236.779H141.522V279.678C141.522 280.625 142.291 281.394 143.238 281.394H170.693C171.64 281.394 172.409 280.625 172.409 279.678V236.779H191.285C191.978 236.779 192.603 236.36 192.87 235.722C193.135 235.08 192.99 234.342 192.5 233.851L158.266 199.505C157.944 199.182 157.508 199 157.051 199C156.595 199 156.159 199.182 155.836 199.501L121.503 233.848C121.013 234.339 120.865 235.077 121.133 235.719Z" fill="url(#paint1_linear)"/>
<path d="M237.001 164.461L55.8667 199.055V122.991L237.001 88.1826V164.461Z" fill="url(#paint2_linear)"/>
<path d="M166.739 177.782L126.128 185.517V109.454L166.739 101.719V177.782Z" fill="#FFD34F"/>
<path d="M0.000732422 118.265L55.8665 199.055V122.992L0.000732422 42.2012V118.265Z" fill="url(#paint3_linear)"/>
<path d="M21.7013 149.635L34.1637 167.684V91.6207L21.7013 73.5718V149.635Z" fill="#BA9527"/>
<path d="M237.001 88.1834L166.739 101.72L126.129 109.455L55.8665 122.992L34.1648 91.6213L21.7025 73.5724L0.000732422 42.2016L72.4114 29.5244L111.088 22.8634L166.094 13.1943L190.804 39.6231L206.06 55.5235L237.001 88.1834Z" fill="url(#paint4_linear)"/>
<path d="M166.739 101.72L126.129 109.455L104.213 76.7953L92.3949 59.3909L72.4121 29.5242L111.088 22.8633L131.286 51.4408L143.319 68.6302L166.739 101.72Z" fill="#FFE8A4"/>
<path d="M206.058 55.5234L143.317 68.6303L104.211 76.7953L34.1637 91.6213L21.7013 73.5723L92.393 59.391L131.284 51.4408L190.803 39.623L206.058 55.5234Z" fill="#FFD34F"/>
<path d="M140.956 67.5565C132.576 66.0524 124.626 62.6146 117.965 57.4577C111.519 52.5157 106.362 46.2845 100.131 41.1277C93.8994 35.9708 86.1642 31.8883 78.2141 32.533C70.2639 33.3924 62.5286 40.4831 63.603 48.6481C64.4625 55.0941 70.6937 59.6064 76.71 61.97C82.9412 64.3335 89.6021 65.4078 95.1887 68.6308C104.643 74.0025 109.585 84.5311 117.105 92.4812C122.907 98.4976 130.427 103.01 138.807 103.654C147.187 104.299 155.996 100.646 160.079 93.3407C164.161 86.0352 162.443 75.7215 155.352 71.2093C151.269 68.6309 145.898 68.416 140.956 67.5565Z" fill="#FFD34F"/>
<path d="M156.854 95.059C153.846 94.6293 150.408 93.7697 146.97 92.2657C128.921 84.9601 116.029 62.399 116.029 62.399C116.029 62.399 179.63 41.5567 183.713 62.399C187.151 80.6628 176.192 97.6374 156.854 95.059Z" fill="#E8BD3E"/>
<path d="M156.854 95.0585C160.722 93.9841 164.804 91.6206 166.309 86.2489C170.176 73.5716 116.029 62.6133 116.029 62.6133C116.029 62.6133 179.63 41.7711 183.713 62.6133C187.151 80.6623 176.192 97.6369 156.854 95.0585Z" fill="#FFD34F"/>
<path d="M64.0315 36.3992C65.5355 38.7628 67.6843 41.3412 70.2627 43.7048C83.7994 56.1672 109.369 57.8861 109.369 57.8861C109.369 57.8861 104.212 -4.85552 83.5845 0.301322C65.7504 4.59869 54.5773 20.7138 64.0315 36.3992Z" fill="#E8BD3E"/>
<path d="M64.0315 36.3992C63.3869 32.5316 64.2464 28.2342 68.5437 24.7963C78.6425 16.4164 109.369 57.8861 109.369 57.8861C109.369 57.8861 104.212 -4.85552 83.5845 0.301322C65.7504 4.59869 54.5773 20.7138 64.0315 36.3992Z" fill="#FFD34F"/>
<path d="M120.326 62.8272C118.822 66.2651 114.31 67.3394 110.442 65.4055C106.575 63.4717 104.641 59.3892 106.145 55.9513C107.649 52.7283 112.161 51.4391 116.029 53.373C120.111 55.3068 122.045 59.3893 120.326 62.8272Z" fill="#E8BD3E"/>
<defs>
<linearGradient id="paint0_linear" x1="79.5007" y1="205" x2="79.5007" y2="294" gradientUnits="userSpaceOnUse">
<stop stop-color="#FFC700"/>
<stop offset="1" stop-color="#FC9517"/>
</linearGradient>
<linearGradient id="paint1_linear" x1="157.001" y1="281.394" x2="157.001" y2="199" gradientUnits="userSpaceOnUse">
<stop stop-color="#FFC700"/>
<stop offset="1" stop-color="#FC9517"/>
</linearGradient>
<linearGradient id="paint2_linear" x1="134.605" y1="72.5021" x2="135.419" y2="214.737" gradientUnits="userSpaceOnUse">
<stop stop-color="#D91B24"/>
<stop offset="1" stop-color="#393C5A"/>
</linearGradient>
<linearGradient id="paint3_linear" x1="24.2853" y1="20.0175" x2="29.5666" y2="221.109" gradientUnits="userSpaceOnUse">
<stop stop-color="#960E14"/>
<stop offset="1" stop-color="#393C5A"/>
</linearGradient>
<linearGradient id="paint4_linear" x1="103.023" y1="-2.33421" x2="103.634" y2="138.524" gradientUnits="userSpaceOnUse">
<stop stop-color="#F83740"/>
<stop offset="1" stop-color="#393C5A"/>
</linearGradient>
</defs>
</svg>
