<svg width="234" height="281" viewBox="0 0 234 281" fill="none" xmlns="http://www.w3.org/2000/svg">
<path d="M45.9543 70.2632H36.1472V43.4126L36.2424 39.001L36.4011 34.1768C34.7719 35.806 33.6399 36.8745 33.0051 37.3823L27.6731 41.667L22.9441 35.7637L37.8928 23.8618H45.9543V70.2632ZM91.0227 47.0625C91.0227 55.1663 89.6897 61.1649 87.0237 65.0581C84.3788 68.9513 80.2952 70.8979 74.7727 70.8979C69.4195 70.8979 65.3782 68.8879 62.6487 64.8677C59.9403 60.8475 58.5862 54.9124 58.5862 47.0625C58.5862 38.874 59.9086 32.8438 62.5535 28.9717C65.1983 25.0785 69.2714 23.1318 74.7727 23.1318C80.1259 23.1318 84.1672 25.1631 86.8967 29.2256C89.6474 33.2881 91.0227 39.2337 91.0227 47.0625ZM68.3298 47.0625C68.3298 52.7542 68.8165 56.8379 69.7898 59.3135C70.7843 61.7679 72.4452 62.9951 74.7727 62.9951C77.0579 62.9951 78.7083 61.7467 79.7239 59.25C80.7395 56.7533 81.2473 52.6908 81.2473 47.0625C81.2473 41.3708 80.7289 37.2871 79.6921 34.8115C78.6765 32.3148 77.0367 31.0664 74.7727 31.0664C72.4664 31.0664 70.816 32.3148 69.8215 34.8115C68.8271 37.2871 68.3298 41.3708 68.3298 47.0625Z" fill="#B499FF"/>
<path d="M233.138 150.647V247.688L137.465 280.263V183.222L233.138 150.647Z" fill="#FABB22"/>
<path d="M146.803 199.168L139.286 205.091L137.464 214.203V186.412V185.956L139.514 197.574L146.803 199.168Z" fill="#CB851E"/>
<path d="M171.633 186.64L178.923 188.235L171.405 194.157L168.9 206.914L166.85 195.296L159.56 193.702L167.077 187.779L169.583 175.022L171.633 186.64Z" fill="#CB851E"/>
<path d="M203.751 175.706L211.041 177.301L203.524 183.224L200.79 195.98L198.968 184.363L191.678 182.768L199.195 176.845L201.701 164.089L203.751 175.706Z" fill="#CB851E"/>
<path d="M233.138 156.799V184.59L232.91 185.045L231.088 173.428L223.799 171.833L231.088 165.911L233.138 156.799Z" fill="#CB851E"/>
<path d="M155.916 244.044L163.206 245.866L155.688 251.561L153.183 264.089L151.36 252.7L144.071 251.105L151.36 245.41L154.094 232.654L155.916 244.044Z" fill="#CB851E"/>
<path d="M187.581 233.338L194.87 234.932L187.353 240.627L184.847 253.384L183.025 241.994L175.735 240.172L183.025 234.477L185.53 221.948L187.581 233.338Z" fill="#CB851E"/>
<path d="M219.243 222.631L226.532 224.226L219.015 229.92L216.509 242.449L214.459 231.287L207.397 229.465L214.687 223.77L217.193 211.241L219.243 222.631Z" fill="#CB851E"/>
<path d="M189.628 262.495L180.972 265.456V168.416L189.628 165.455V262.495Z" fill="#705EE4"/>
<path d="M0.104248 144.042V241.31L137.464 280.263V183.223L0.104248 144.042Z" fill="url(#paint0_linear)"/>
<path d="M124.024 198.713L134.731 204.863L137.464 214.203V186.412V185.957L134.503 197.346L124.024 198.713Z" fill="#CB851E"/>
<path d="M88.4881 184.361L78.0095 185.5L88.7159 191.879L92.3606 204.635L95.3219 193.245L105.8 192.106L94.8663 185.728L91.2216 172.972L88.4881 184.361Z" fill="#CB851E"/>
<path d="M42.4732 171.15L31.9946 172.289L42.701 178.667L46.3457 191.651L49.0792 180.262L59.5578 178.895L48.8514 172.745L45.2067 159.76L42.4732 171.15Z" fill="#CB851E"/>
<path d="M0.10376 150.192V178.211L0.331568 178.439L3.0651 167.049L13.5437 165.91L2.83732 159.532L0.10376 150.192Z" fill="#CB851E"/>
<path d="M111.041 242.904L100.562 244.043L111.269 250.194L114.914 262.95L117.647 251.788L127.898 250.649L117.419 244.271L113.775 231.515L111.041 242.904Z" fill="#CB851E"/>
<path d="M65.4812 229.921L55.2305 231.06L65.709 237.21L69.3537 250.194L72.0872 238.805L82.5658 237.666L71.8594 231.515L68.2148 218.759L65.4812 229.921Z" fill="#CB851E"/>
<path d="M19.9224 216.936L9.67163 218.075L20.1502 224.454L23.7949 237.21L26.7562 225.82L37.007 224.681L26.5284 218.531L22.8837 205.774L19.9224 216.936Z" fill="#CB851E"/>
<path d="M62.5205 259.077L75.0492 262.494V165.454L62.5205 161.809V259.077Z" fill="#705EE4"/>
<path d="M233.138 150.648L189.629 165.454L180.973 168.416L137.464 183.222L75.0487 165.454L62.52 161.81L0.104248 144.042L60.4698 130.374L70.4928 128.096L100.562 121.262L147.487 131.513L160.016 134.474L233.138 150.648Z" fill="#F8D73A"/>
<path d="M189.629 165.455L180.973 168.416L60.4697 130.374L70.4927 128.096L189.629 165.455Z" fill="#B499FF"/>
<path d="M160.017 134.475L75.0495 165.455L62.5208 161.81L147.488 131.513L160.017 134.475Z" fill="#B499FF"/>
<path d="M118.787 147.231C118.787 147.231 123.571 103.267 144.983 108.734C166.396 114.201 144.983 136.069 144.983 136.069C144.983 136.069 148.856 118.985 141.111 118.301C133.593 117.618 122.432 133.336 118.787 147.231Z" fill="#705EE4"/>
<path d="M161.156 151.104L148.4 160.215C148.4 160.215 129.265 156.343 118.786 147.459L130.632 141.992C130.404 141.764 146.35 150.42 161.156 151.104Z" fill="#705EE4"/>
<path d="M118.786 147.232C118.786 147.232 165.484 117.163 174.14 132.653C182.796 148.143 175.735 153.838 170.723 155.432C165.712 157.255 148.627 159.988 148.627 159.988C148.627 159.988 156.6 142.676 147.716 138.575C145.666 137.664 143.388 137.664 141.338 138.575L118.786 147.232Z" fill="#B499FF"/>
<path d="M76.188 151.104L88.9445 160.215C88.9445 160.215 108.079 156.343 118.558 147.459L106.712 141.992C106.94 141.764 90.9946 150.42 76.188 151.104Z" fill="#B499FF"/>
<path d="M118.786 147.231C118.786 147.231 114.002 103.267 92.5897 108.734C71.1771 114.201 92.5897 136.069 92.5897 136.069C92.5897 136.069 88.7172 118.985 96.4622 118.301C104.207 117.618 114.914 133.336 118.786 147.231Z" fill="#B499FF"/>
<path d="M118.786 147.232C118.786 147.232 72.0879 117.163 63.4317 132.653C54.7756 148.143 61.8372 153.838 66.8487 155.432C71.8601 157.255 88.9447 159.988 88.9447 159.988C88.9447 159.988 80.9719 142.676 89.8559 138.575C91.9061 137.664 94.184 137.664 96.2342 138.575L118.786 147.232Z" fill="#705EE4"/>
<path d="M171.972 52.9386C171.704 52.2969 171.079 51.8782 170.386 51.8782H151.583V8.9792C151.583 8.03199 150.814 7.26318 149.867 7.26318H122.411C121.464 7.26318 120.695 8.03199 120.695 8.9792V51.8783H101.82C101.127 51.8783 100.502 52.2971 100.234 52.9354C99.9699 53.5771 100.114 54.315 100.605 54.8059L134.838 89.1526C135.161 89.4751 135.597 89.6571 136.053 89.6571C136.51 89.6571 136.946 89.4751 137.268 89.156L171.601 54.8092C172.092 54.3183 172.239 53.5805 171.972 52.9386Z" fill="#B499FF"/>
<defs>
<linearGradient id="paint0_linear" x1="68.7843" y1="144.042" x2="68.7843" y2="280.263" gradientUnits="userSpaceOnUse">
<stop stop-color="#FFC700"/>
<stop offset="1" stop-color="#FC9517"/>
</linearGradient>
</defs>
</svg>
