<svg width="267" height="268" viewBox="0 0 267 268" fill="none" xmlns="http://www.w3.org/2000/svg">
<circle cx="133.5" cy="134" r="133.5" fill="url(#paint0_linear)"/>
<path d="M122.109 97.5H111.246V67.7578L111.352 62.8711L111.527 57.5273C109.723 59.332 108.469 60.5156 107.766 61.0781L101.859 65.8242L96.6211 59.2852L113.18 46.1016H122.109V97.5ZM155.086 64.6641C160.055 64.6641 164.004 66.0586 166.934 68.8477C169.887 71.6367 171.363 75.457 171.363 80.3086C171.363 86.0508 169.594 90.4688 166.055 93.5625C162.516 96.6562 157.453 98.2031 150.867 98.2031C145.148 98.2031 140.531 97.2773 137.016 95.4258V86.0391C138.867 87.0234 141.023 87.832 143.484 88.4648C145.945 89.0742 148.277 89.3789 150.48 89.3789C157.113 89.3789 160.43 86.6602 160.43 81.2227C160.43 76.043 156.996 73.4531 150.129 73.4531C148.887 73.4531 147.516 73.582 146.016 73.8398C144.516 74.0742 143.297 74.332 142.359 74.6133L138.035 72.293L139.969 46.1016H167.848V55.3125H149.496L148.547 65.4023L149.777 65.1562C151.207 64.8281 152.977 64.6641 155.086 64.6641Z" fill="url(#paint1_linear)"/>
<path d="M84.9867 73.5H72" stroke="#0C166E" stroke-width="6" stroke-miterlimit="10"/>
<path d="M90.6194 56.4458L80.7621 51.126" stroke="#0C166E" stroke-width="6" stroke-miterlimit="10"/>
<path d="M89.68 89.6162L80.292 98.3783" stroke="#0C166E" stroke-width="6" stroke-miterlimit="10"/>
<path d="M182.762 72.875H195.748" stroke="#0C166E" stroke-width="6" stroke-miterlimit="10"/>
<path d="M176.973 55.6634L186.83 50.5" stroke="#0C166E" stroke-width="6" stroke-miterlimit="10"/>
<path d="M178.068 88.834L187.456 97.7526" stroke="#0C166E" stroke-width="6" stroke-miterlimit="10"/>
<path d="M116 171.554H156.109" stroke="#0C166E" stroke-width="8" stroke-miterlimit="10"/>
<path d="M136.054 191.609V151.5" stroke="#0C166E" stroke-width="8" stroke-miterlimit="10"/>
<path d="M75.4508 168.228C84.7646 168.228 92.3149 160.678 92.3149 151.364C92.3149 142.05 84.7646 134.5 75.4508 134.5C66.137 134.5 58.5867 142.05 58.5867 151.364C58.5867 160.678 66.137 168.228 75.4508 168.228Z" fill="#0C166F"/>
<path d="M106.899 206.286C106.899 188.966 92.7692 174.837 75.4493 174.837C58.1294 174.837 44 188.966 44 206.286" fill="#0C166F"/>
<path d="M195.552 168.228C204.866 168.228 212.416 160.678 212.416 151.364C212.416 142.05 204.866 134.5 195.552 134.5C186.239 134.5 178.688 142.05 178.688 151.364C178.688 160.678 186.239 168.228 195.552 168.228Z" fill="#0C166F"/>
<path d="M227 206.286C227 188.966 212.871 174.837 195.551 174.837C178.231 174.837 164.102 188.966 164.102 206.286" fill="#0C166F"/>
<defs>
<linearGradient id="paint0_linear" x1="133.5" y1="0.5" x2="133.5" y2="267.5" gradientUnits="userSpaceOnUse">
<stop stop-color="#FFC700"/>
<stop offset="1" stop-color="#FC9517"/>
</linearGradient>
<linearGradient id="paint1_linear" x1="133.945" y1="8.96366" x2="133.945" y2="108.825" gradientUnits="userSpaceOnUse">
<stop stop-color="#00A4ED"/>
<stop offset="1" stop-color="#0009E3"/>
</linearGradient>
</defs>
</svg>
