<svg width="267" height="268" viewBox="0 0 267 268" fill="none" xmlns="http://www.w3.org/2000/svg">
<circle cx="133.5" cy="134" r="133.5" fill="url(#paint0_linear)"/>
<path d="M150.809 57.5977C150.809 60.8086 149.836 63.5391 147.891 65.7891C145.945 68.0391 143.215 69.5859 139.699 70.4297V70.6406C143.848 71.1562 146.988 72.4219 149.121 74.4375C151.254 76.4297 152.32 79.125 152.32 82.5234C152.32 87.4688 150.527 91.3242 146.941 94.0898C143.355 96.832 138.234 98.2031 131.578 98.2031C126 98.2031 121.055 97.2773 116.742 95.4258V86.1797C118.734 87.1875 120.926 88.0078 123.316 88.6406C125.707 89.2734 128.074 89.5898 130.418 89.5898C134.004 89.5898 136.652 88.9805 138.363 87.7617C140.074 86.543 140.93 84.5859 140.93 81.8906C140.93 79.4766 139.945 77.7656 137.977 76.7578C136.008 75.75 132.867 75.2461 128.555 75.2461H124.652V66.9141H128.625C132.609 66.9141 135.516 66.3984 137.344 65.3672C139.195 64.3125 140.121 62.5195 140.121 59.9883C140.121 56.0977 137.684 54.1523 132.809 54.1523C131.121 54.1523 129.398 54.4336 127.641 54.9961C125.906 55.5586 123.973 56.5312 121.84 57.9141L116.812 50.4258C121.5 47.0508 127.09 45.3633 133.582 45.3633C138.902 45.3633 143.098 46.4414 146.168 48.5977C149.262 50.7539 150.809 53.7539 150.809 57.5977Z" fill="url(#paint1_linear)"/>
<path d="M99.9867 75.5H87" stroke="#0C166E" stroke-width="6" stroke-miterlimit="10"/>
<path d="M105.62 58.4458L95.7622 53.126" stroke="#0C166E" stroke-width="6" stroke-miterlimit="10"/>
<path d="M104.68 91.6162L95.292 100.378" stroke="#0C166E" stroke-width="6" stroke-miterlimit="10"/>
<path d="M167.762 74.875H180.748" stroke="#0C166E" stroke-width="6" stroke-miterlimit="10"/>
<path d="M161.973 57.6634L171.83 52.5" stroke="#0C166E" stroke-width="6" stroke-miterlimit="10"/>
<path d="M163.068 90.834L172.456 99.7526" stroke="#0C166E" stroke-width="6" stroke-miterlimit="10"/>
<path d="M116 171.554H156.109" stroke="#0C166E" stroke-width="8" stroke-miterlimit="10"/>
<path d="M136.054 191.609V151.5" stroke="#0C166E" stroke-width="8" stroke-miterlimit="10"/>
<path d="M75.4508 168.228C84.7646 168.228 92.3149 160.678 92.3149 151.364C92.3149 142.05 84.7646 134.5 75.4508 134.5C66.137 134.5 58.5867 142.05 58.5867 151.364C58.5867 160.678 66.137 168.228 75.4508 168.228Z" fill="#0C166F"/>
<path d="M106.899 206.286C106.899 188.966 92.7692 174.837 75.4493 174.837C58.1294 174.837 44 188.966 44 206.286" fill="#0C166F"/>
<path d="M195.552 168.228C204.866 168.228 212.416 160.678 212.416 151.364C212.416 142.05 204.866 134.5 195.552 134.5C186.239 134.5 178.688 142.05 178.688 151.364C178.688 160.678 186.239 168.228 195.552 168.228Z" fill="#0C166F"/>
<path d="M227 206.286C227 188.966 212.871 174.837 195.551 174.837C178.231 174.837 164.102 188.966 164.102 206.286" fill="#0C166F"/>
<defs>
<linearGradient id="paint0_linear" x1="133.5" y1="0.5" x2="133.5" y2="267.5" gradientUnits="userSpaceOnUse">
<stop stop-color="#FFC700"/>
<stop offset="1" stop-color="#FC9517"/>
</linearGradient>
<linearGradient id="paint1_linear" x1="134.608" y1="8.96192" x2="134.608" y2="108.839" gradientUnits="userSpaceOnUse">
<stop stop-color="#00A4ED"/>
<stop offset="1" stop-color="#0009E3"/>
</linearGradient>
</defs>
</svg>
