<svg width="267" height="268" viewBox="0 0 267 268" fill="none" xmlns="http://www.w3.org/2000/svg">
<circle cx="133.5" cy="134" r="133.5" fill="url(#paint0_linear)"/>
<path d="M135.586 64.6641C140.555 64.6641 144.504 66.0586 147.434 68.8477C150.387 71.6367 151.863 75.457 151.863 80.3086C151.863 86.0508 150.094 90.4688 146.555 93.5625C143.016 96.6562 137.953 98.2031 131.367 98.2031C125.648 98.2031 121.031 97.2773 117.516 95.4258V86.0391C119.367 87.0234 121.523 87.832 123.984 88.4648C126.445 89.0742 128.777 89.3789 130.98 89.3789C137.613 89.3789 140.93 86.6602 140.93 81.2227C140.93 76.043 137.496 73.4531 130.629 73.4531C129.387 73.4531 128.016 73.582 126.516 73.8398C125.016 74.0742 123.797 74.332 122.859 74.6133L118.535 72.293L120.469 46.1016H148.348V55.3125H129.996L129.047 65.4023L130.277 65.1562C131.707 64.8281 133.477 64.6641 135.586 64.6641Z" fill="url(#paint1_linear)"/>
<path d="M99.9867 75.5H87" stroke="#0C166E" stroke-width="6" stroke-miterlimit="10"/>
<path d="M105.62 58.4458L95.7622 53.126" stroke="#0C166E" stroke-width="6" stroke-miterlimit="10"/>
<path d="M104.68 91.6162L95.292 100.378" stroke="#0C166E" stroke-width="6" stroke-miterlimit="10"/>
<path d="M167.762 74.875H180.748" stroke="#0C166E" stroke-width="6" stroke-miterlimit="10"/>
<path d="M161.973 57.6634L171.83 52.5" stroke="#0C166E" stroke-width="6" stroke-miterlimit="10"/>
<path d="M163.068 90.834L172.456 99.7526" stroke="#0C166E" stroke-width="6" stroke-miterlimit="10"/>
<path d="M116 171.554H156.109" stroke="#0C166E" stroke-width="8" stroke-miterlimit="10"/>
<path d="M136.054 191.609V151.5" stroke="#0C166E" stroke-width="8" stroke-miterlimit="10"/>
<path d="M75.4508 168.228C84.7646 168.228 92.3149 160.678 92.3149 151.364C92.3149 142.05 84.7646 134.5 75.4508 134.5C66.137 134.5 58.5867 142.05 58.5867 151.364C58.5867 160.678 66.137 168.228 75.4508 168.228Z" fill="#0C166F"/>
<path d="M106.899 206.286C106.899 188.966 92.7692 174.837 75.4493 174.837C58.1294 174.837 44 188.966 44 206.286" fill="#0C166F"/>
<path d="M195.552 168.228C204.866 168.228 212.416 160.678 212.416 151.364C212.416 142.05 204.866 134.5 195.552 134.5C186.239 134.5 178.688 142.05 178.688 151.364C178.688 160.678 186.239 168.228 195.552 168.228Z" fill="#0C166F"/>
<path d="M227 206.286C227 188.966 212.871 174.837 195.551 174.837C178.231 174.837 164.102 188.966 164.102 206.286" fill="#0C166F"/>
<defs>
<linearGradient id="paint0_linear" x1="133.5" y1="0.5" x2="133.5" y2="267.5" gradientUnits="userSpaceOnUse">
<stop stop-color="#FFC700"/>
<stop offset="1" stop-color="#FC9517"/>
</linearGradient>
<linearGradient id="paint1_linear" x1="134.608" y1="8.96192" x2="134.608" y2="108.839" gradientUnits="userSpaceOnUse">
<stop stop-color="#00A4ED"/>
<stop offset="1" stop-color="#0009E3"/>
</linearGradient>
</defs>
</svg>
