<svg width="316" height="316" viewBox="0 0 316 316" fill="none" xmlns="http://www.w3.org/2000/svg">
<circle cx="158" cy="158" r="158" fill="url(#paint0_linear)"/>
<path d="M137.288 202.445H184.758" stroke="#0C166E" stroke-width="8" stroke-miterlimit="10"/>
<path d="M161.021 226.182V178.712" stroke="#0C166E" stroke-width="8" stroke-miterlimit="10"/>
<path d="M89.2969 198.51C100.32 198.51 109.256 189.574 109.256 178.551C109.256 167.528 100.32 158.592 89.2969 158.592C78.2738 158.592 69.3379 167.528 69.3379 178.551C69.3379 189.574 78.2738 198.51 89.2969 198.51Z" fill="#0C166F"/>
<path d="M126.516 243.552C126.516 223.053 109.794 206.331 89.2951 206.331C68.7967 206.331 52.0742 223.053 52.0742 243.552" fill="#0C166F"/>
<path d="M231.44 198.51C242.463 198.51 251.399 189.574 251.399 178.551C251.399 167.528 242.463 158.592 231.44 158.592C220.417 158.592 211.481 167.528 211.481 178.551C211.481 189.574 220.417 198.51 231.44 198.51Z" fill="#0C166F"/>
<path d="M268.659 243.552C268.659 223.053 251.936 206.331 231.438 206.331C210.939 206.331 194.217 223.053 194.217 243.552" fill="#0C166F"/>
<path d="M137.851 127H123.518V87.7568L123.657 81.3091L123.889 74.2583C121.507 76.6395 119.853 78.2012 118.925 78.9434L111.132 85.2056L104.221 76.5776L126.069 59.1826H137.851V127ZM215.966 127H199.638L181.872 98.4258L175.795 102.786V127H161.416V59.1826H175.795V90.2153L181.455 82.2368L199.824 59.1826H215.781L192.124 89.1948L215.966 127Z" fill="url(#paint1_linear)"/>
<path d="M81.37 94.3975H66" stroke="#0C166E" stroke-width="6" stroke-miterlimit="10"/>
<path d="M88.036 74.2131L76.3696 67.917" stroke="#0C166E" stroke-width="6" stroke-miterlimit="10"/>
<path d="M86.9248 113.471L75.814 123.841" stroke="#0C166E" stroke-width="6" stroke-miterlimit="10"/>
<path d="M237.087 93.6582H252.457" stroke="#0C166E" stroke-width="6" stroke-miterlimit="10"/>
<path d="M230.236 73.2877L241.903 67.1768" stroke="#0C166E" stroke-width="6" stroke-miterlimit="10"/>
<path d="M231.533 112.546L242.644 123.101" stroke="#0C166E" stroke-width="6" stroke-miterlimit="10"/>
<defs>
<linearGradient id="paint0_linear" x1="158" y1="0" x2="158" y2="316" gradientUnits="userSpaceOnUse">
<stop stop-color="#FFC700"/>
<stop offset="1" stop-color="#FC9517"/>
</linearGradient>
<linearGradient id="paint1_linear" x1="157.985" y1="12.4208" x2="157.985" y2="129.966" gradientUnits="userSpaceOnUse">
<stop stop-color="#00A4ED"/>
<stop offset="1" stop-color="#0009E3"/>
</linearGradient>
</defs>
</svg>
