<svg width="267" height="268" viewBox="0 0 267 268" fill="none" xmlns="http://www.w3.org/2000/svg">
<circle cx="133.5" cy="134" r="133.5" fill="url(#paint0_linear)"/>
<path d="M131.18 97.5H95.25V89.9414L108.152 76.8984C111.973 72.9844 114.469 70.2773 115.641 68.7773C116.812 67.2539 117.656 65.8477 118.172 64.5586C118.688 63.2695 118.945 61.9336 118.945 60.5508C118.945 58.4883 118.371 56.9531 117.223 55.9453C116.098 54.9375 114.586 54.4336 112.688 54.4336C110.695 54.4336 108.762 54.8906 106.887 55.8047C105.012 56.7188 103.055 58.0195 101.016 59.707L95.1094 52.7109C97.6406 50.5547 99.7383 49.0312 101.402 48.1406C103.066 47.25 104.883 46.5703 106.852 46.1016C108.82 45.6094 111.023 45.3633 113.461 45.3633C116.672 45.3633 119.508 45.9492 121.969 47.1211C124.43 48.293 126.34 49.9336 127.699 52.043C129.059 54.1523 129.738 56.5664 129.738 59.2852C129.738 61.6523 129.316 63.8789 128.473 65.9648C127.652 68.0273 126.363 70.1484 124.605 72.3281C122.871 74.5078 119.801 77.6133 115.395 81.6445L108.785 87.8672V88.3594H131.18V97.5ZM172.031 71.8008C172.031 80.7773 170.555 87.4219 167.602 91.7344C164.672 96.0469 160.148 98.2031 154.031 98.2031C148.102 98.2031 143.625 95.9766 140.602 91.5234C137.602 87.0703 136.102 80.4961 136.102 71.8008C136.102 62.7305 137.566 56.0508 140.496 51.7617C143.426 47.4492 147.938 45.293 154.031 45.293C159.961 45.293 164.438 47.543 167.461 52.043C170.508 56.543 172.031 63.1289 172.031 71.8008ZM146.895 71.8008C146.895 78.1055 147.434 82.6289 148.512 85.3711C149.613 88.0898 151.453 89.4492 154.031 89.4492C156.562 89.4492 158.391 88.0664 159.516 85.3008C160.641 82.5352 161.203 78.0352 161.203 71.8008C161.203 65.4961 160.629 60.9727 159.48 58.2305C158.355 55.4648 156.539 54.082 154.031 54.082C151.477 54.082 149.648 55.4648 148.547 58.2305C147.445 60.9727 146.895 65.4961 146.895 71.8008Z" fill="url(#paint1_linear)"/>
<path d="M84.9867 73.5H72" stroke="#0C166E" stroke-width="6" stroke-miterlimit="10"/>
<path d="M90.6196 56.4458L80.7622 51.126" stroke="#0C166E" stroke-width="6" stroke-miterlimit="10"/>
<path d="M89.68 89.6162L80.292 98.3783" stroke="#0C166E" stroke-width="6" stroke-miterlimit="10"/>
<path d="M182.761 72.875H195.748" stroke="#0C166E" stroke-width="6" stroke-miterlimit="10"/>
<path d="M176.973 55.6634L186.83 50.5" stroke="#0C166E" stroke-width="6" stroke-miterlimit="10"/>
<path d="M178.068 88.834L187.456 97.7526" stroke="#0C166E" stroke-width="6" stroke-miterlimit="10"/>
<path d="M116 171.554H156.109" stroke="#0C166E" stroke-width="8" stroke-miterlimit="10"/>
<path d="M136.054 191.609V151.5" stroke="#0C166E" stroke-width="8" stroke-miterlimit="10"/>
<path d="M75.4508 168.228C84.7646 168.228 92.3149 160.678 92.3149 151.364C92.3149 142.05 84.7646 134.5 75.4508 134.5C66.137 134.5 58.5867 142.05 58.5867 151.364C58.5867 160.678 66.137 168.228 75.4508 168.228Z" fill="#0C166F"/>
<path d="M106.899 206.286C106.899 188.966 92.7692 174.837 75.4493 174.837C58.1294 174.837 44 188.966 44 206.286" fill="#0C166F"/>
<path d="M195.552 168.228C204.866 168.228 212.416 160.678 212.416 151.364C212.416 142.05 204.866 134.5 195.552 134.5C186.239 134.5 178.688 142.05 178.688 151.364C178.688 160.678 186.239 168.228 195.552 168.228Z" fill="#0C166F"/>
<path d="M227 206.286C227 188.966 212.871 174.837 195.551 174.837C178.231 174.837 164.102 188.966 164.102 206.286" fill="#0C166F"/>
<defs>
<linearGradient id="paint0_linear" x1="133.5" y1="0.5" x2="133.5" y2="267.5" gradientUnits="userSpaceOnUse">
<stop stop-color="#FFC700"/>
<stop offset="1" stop-color="#FC9517"/>
</linearGradient>
<linearGradient id="paint1_linear" x1="133.945" y1="8.96366" x2="133.945" y2="108.825" gradientUnits="userSpaceOnUse">
<stop stop-color="#00A4ED"/>
<stop offset="1" stop-color="#0009E3"/>
</linearGradient>
</defs>
</svg>
