<svg width="267" height="268" viewBox="0 0 267 268" fill="none" xmlns="http://www.w3.org/2000/svg">
<circle cx="133.5" cy="134" r="133.5" fill="url(#paint0_linear)"/>
<path d="M122.109 97.5H111.246V67.7578L111.352 62.8711L111.527 57.5273C109.723 59.332 108.469 60.5156 107.766 61.0781L101.859 65.8242L96.6211 59.2852L113.18 46.1016H122.109V97.5ZM172.031 71.8008C172.031 80.7773 170.555 87.4219 167.602 91.7344C164.672 96.0469 160.148 98.2031 154.031 98.2031C148.102 98.2031 143.625 95.9766 140.602 91.5234C137.602 87.0703 136.102 80.4961 136.102 71.8008C136.102 62.7305 137.566 56.0508 140.496 51.7617C143.426 47.4492 147.938 45.293 154.031 45.293C159.961 45.293 164.438 47.543 167.461 52.043C170.508 56.543 172.031 63.1289 172.031 71.8008ZM146.895 71.8008C146.895 78.1055 147.434 82.6289 148.512 85.3711C149.613 88.0898 151.453 89.4492 154.031 89.4492C156.562 89.4492 158.391 88.0664 159.516 85.3008C160.641 82.5352 161.203 78.0352 161.203 71.8008C161.203 65.4961 160.629 60.9727 159.48 58.2305C158.355 55.4648 156.539 54.082 154.031 54.082C151.477 54.082 149.648 55.4648 148.547 58.2305C147.445 60.9727 146.895 65.4961 146.895 71.8008Z" fill="url(#paint1_linear)"/>
<path d="M84.9867 73.5H72" stroke="#0C166E" stroke-width="6" stroke-miterlimit="10"/>
<path d="M90.6196 56.4458L80.7622 51.126" stroke="#0C166E" stroke-width="6" stroke-miterlimit="10"/>
<path d="M89.68 89.6162L80.292 98.3783" stroke="#0C166E" stroke-width="6" stroke-miterlimit="10"/>
<path d="M182.762 72.875H195.748" stroke="#0C166E" stroke-width="6" stroke-miterlimit="10"/>
<path d="M176.973 55.6634L186.83 50.5" stroke="#0C166E" stroke-width="6" stroke-miterlimit="10"/>
<path d="M178.068 88.834L187.456 97.7526" stroke="#0C166E" stroke-width="6" stroke-miterlimit="10"/>
<path d="M116 171.554H156.109" stroke="#0C166E" stroke-width="8" stroke-miterlimit="10"/>
<path d="M136.054 191.609V151.5" stroke="#0C166E" stroke-width="8" stroke-miterlimit="10"/>
<path d="M75.4508 168.228C84.7646 168.228 92.3149 160.678 92.3149 151.364C92.3149 142.05 84.7646 134.5 75.4508 134.5C66.137 134.5 58.5867 142.05 58.5867 151.364C58.5867 160.678 66.137 168.228 75.4508 168.228Z" fill="#0C166F"/>
<path d="M106.899 206.286C106.899 188.966 92.7692 174.837 75.4493 174.837C58.1294 174.837 44 188.966 44 206.286" fill="#0C166F"/>
<path d="M195.552 168.228C204.866 168.228 212.416 160.678 212.416 151.364C212.416 142.05 204.866 134.5 195.552 134.5C186.239 134.5 178.688 142.05 178.688 151.364C178.688 160.678 186.239 168.228 195.552 168.228Z" fill="#0C166F"/>
<path d="M227 206.286C227 188.966 212.871 174.837 195.551 174.837C178.231 174.837 164.102 188.966 164.102 206.286" fill="#0C166F"/>
<defs>
<linearGradient id="paint0_linear" x1="133.5" y1="0.5" x2="133.5" y2="267.5" gradientUnits="userSpaceOnUse">
<stop stop-color="#FFC700"/>
<stop offset="1" stop-color="#FC9517"/>
</linearGradient>
<linearGradient id="paint1_linear" x1="133.945" y1="8.96366" x2="133.945" y2="108.825" gradientUnits="userSpaceOnUse">
<stop stop-color="#00A4ED"/>
<stop offset="1" stop-color="#0009E3"/>
</linearGradient>
</defs>
</svg>
