<svg width="316" height="316" viewBox="0 0 316 316" fill="none" xmlns="http://www.w3.org/2000/svg">
<circle cx="158" cy="158" r="158" fill="url(#paint0_linear)"/>
<path d="M137.288 202.445H184.758" stroke="#0C166E" stroke-width="8" stroke-miterlimit="10"/>
<path d="M161.021 226.182V178.712" stroke="#0C166E" stroke-width="8" stroke-miterlimit="10"/>
<path d="M89.2969 198.51C100.32 198.51 109.256 189.574 109.256 178.551C109.256 167.528 100.32 158.592 89.2969 158.592C78.2738 158.592 69.3379 167.528 69.3379 178.551C69.3379 189.574 78.2738 198.51 89.2969 198.51Z" fill="#0C166F"/>
<path d="M126.516 243.552C126.516 223.053 109.794 206.331 89.2951 206.331C68.7967 206.331 52.0742 223.053 52.0742 243.552" fill="#0C166F"/>
<path d="M231.44 198.51C242.463 198.51 251.399 189.574 251.399 178.551C251.399 167.528 242.463 158.592 231.44 158.592C220.417 158.592 211.481 167.528 211.481 178.551C211.481 189.574 220.417 198.51 231.44 198.51Z" fill="#0C166F"/>
<path d="M268.659 243.552C268.659 223.053 251.936 206.331 231.438 206.331C210.939 206.331 194.217 223.053 194.217 243.552" fill="#0C166F"/>
<path d="M99.0918 115L120.001 69.2969H92.541V59.3945H132.493V66.7832L111.432 115H99.0918ZM158.392 79.4277C163.774 79.4277 168.053 80.9385 171.227 83.96C174.426 86.9814 176.025 91.1201 176.025 96.376C176.025 102.597 174.108 107.383 170.274 110.734C166.44 114.086 160.956 115.762 153.821 115.762C147.626 115.762 142.624 114.759 138.815 112.753V102.584C140.821 103.65 143.157 104.526 145.823 105.212C148.489 105.872 151.016 106.202 153.402 106.202C160.588 106.202 164.181 103.257 164.181 97.3662C164.181 91.7549 160.461 88.9492 153.021 88.9492C151.676 88.9492 150.19 89.0889 148.565 89.3682C146.94 89.6221 145.62 89.9014 144.604 90.2061L139.92 87.6924L142.015 59.3184H172.217V69.2969H152.336L151.308 80.2275L152.641 79.9609C154.189 79.6055 156.106 79.4277 158.392 79.4277ZM221.31 87.1592C221.31 96.8838 219.71 104.082 216.511 108.754C213.337 113.426 208.437 115.762 201.81 115.762C195.386 115.762 190.536 113.35 187.261 108.525C184.011 103.701 182.386 96.5791 182.386 87.1592C182.386 77.333 183.973 70.0967 187.146 65.4502C190.32 60.7783 195.208 58.4424 201.81 58.4424C208.233 58.4424 213.083 60.8799 216.358 65.7549C219.659 70.6299 221.31 77.7646 221.31 87.1592ZM194.078 87.1592C194.078 93.9893 194.662 98.8896 195.83 101.86C197.023 104.806 199.017 106.278 201.81 106.278C204.552 106.278 206.532 104.78 207.751 101.784C208.97 98.7881 209.579 93.9131 209.579 87.1592C209.579 80.3291 208.957 75.4287 207.713 72.458C206.494 69.4619 204.526 67.9639 201.81 67.9639C199.042 67.9639 197.062 69.4619 195.868 72.458C194.675 75.4287 194.078 80.3291 194.078 87.1592Z" fill="url(#paint1_linear)"/>
<path d="M80.37 89.3975H65" stroke="#0C166E" stroke-width="6" stroke-miterlimit="10"/>
<path d="M87.036 69.2131L75.3696 62.917" stroke="#0C166E" stroke-width="6" stroke-miterlimit="10"/>
<path d="M85.9248 108.471L74.814 118.841" stroke="#0C166E" stroke-width="6" stroke-miterlimit="10"/>
<path d="M236.087 88.6582H251.457" stroke="#0C166E" stroke-width="6" stroke-miterlimit="10"/>
<path d="M229.236 68.2877L240.903 62.1768" stroke="#0C166E" stroke-width="6" stroke-miterlimit="10"/>
<path d="M230.533 107.546L241.644 118.101" stroke="#0C166E" stroke-width="6" stroke-miterlimit="10"/>
<defs>
<linearGradient id="paint0_linear" x1="158" y1="0" x2="158" y2="316" gradientUnits="userSpaceOnUse">
<stop stop-color="#FFC700"/>
<stop offset="1" stop-color="#FC9517"/>
</linearGradient>
<linearGradient id="paint1_linear" x1="157.985" y1="18.4208" x2="157.985" y2="135.966" gradientUnits="userSpaceOnUse">
<stop stop-color="#00A4ED"/>
<stop offset="1" stop-color="#0009E3"/>
</linearGradient>
</defs>
</svg>
