<svg width="379" height="274" viewBox="0 0 379 274" fill="none" xmlns="http://www.w3.org/2000/svg">
<path d="M378.002 205.905H251.979V270.883H378.002V205.905Z" fill="#FBB040"/>
<g opacity="0.75">
<g opacity="0.75">
<path opacity="0.75" d="M378.002 207.397H251.979V212.755H378.002V207.397Z" fill="#231F20"/>
</g>
</g>
<path d="M378.002 205.905H251.979V211.263H378.002V205.905Z" fill="#CC2B2B"/>
<path d="M378.002 205.905H251.979V206.854H378.002V205.905Z" fill="url(#paint0_linear)"/>
<path opacity="0.5" d="M378.002 205.905H251.979V270.883H378.002V205.905Z" fill="url(#paint1_linear)"/>
<path opacity="0.6" d="M288.606 205.905H251.979V270.883H288.606V205.905Z" fill="url(#paint2_linear)"/>
<path opacity="0.5" d="M255.37 205.905H251.979V270.883H255.37V205.905Z" fill="url(#paint3_linear)"/>
<path d="M126.024 192H0.00195312V270.883H126.024V192Z" fill="#FBB040"/>
<g opacity="0.75">
<g opacity="0.75">
<path opacity="0.75" d="M126.024 193.492H0.00195312V198.851H126.024V193.492Z" fill="#231F20"/>
</g>
</g>
<path d="M126.024 192H0.00195312V197.359H126.024V192Z" fill="#CC2B2B"/>
<path d="M126.024 192H0.00195312V192.95H126.024V192Z" fill="url(#paint4_linear)"/>
<path opacity="0.5" d="M126.024 192H0.00195312V270.883H126.024V192Z" fill="url(#paint5_linear)"/>
<path opacity="0.6" d="M125.957 192H83.9717V270.883H125.957V192Z" fill="url(#paint6_linear)"/>
<path opacity="0.5" d="M126.024 192H121.616V270.883H126.024V192Z" fill="url(#paint7_linear)"/>
<path d="M252.047 180.537H126.025V273.325H252.047V180.537Z" fill="#FBB040"/>
<g opacity="0.75">
<g opacity="0.75">
<path opacity="0.75" d="M252.046 182.03H126.023V187.388H252.046V182.03Z" fill="#CC2B2B"/>
</g>
</g>
<path d="M252.047 180.537H126.025V185.896H252.047V180.537Z" fill="#CC2B2B"/>
<path d="M252.047 180.537H126.025V181.487H252.047V180.537Z" fill="url(#paint8_linear)"/>
<path opacity="0.5" d="M252.047 180.537H126.025V273.325H252.047V180.537Z" fill="url(#paint9_linear)"/>
<path d="M171.342 235.037L158.861 214.391L140.314 229.905L159.327 114.078L190.354 119.21L171.342 235.037Z" fill="#C41919"/>
<path d="M230.595 240.286L212.049 224.889L199.568 245.418L180.322 129.708L211.349 124.459L230.595 240.286Z" fill="#C41919"/>
<path opacity="0.57" d="M190.353 119.21L159.326 114.078L148.478 179.865C152.327 183.597 156.41 190.246 163.642 192.579C168.774 194.212 173.79 193.162 178.339 192.229L190.353 119.21Z" fill="#AF2F2F"/>
<path opacity="0.57" d="M211.349 124.459L180.322 129.591L190.703 191.645C195.719 192.695 201.551 194.445 207.5 192.462C212.865 190.712 216.481 186.63 219.631 183.014C220.097 182.431 220.564 181.964 220.914 181.497L211.349 124.459Z" fill="#AF2F2F"/>
<path d="M250.075 125.392C250.075 132.041 244.126 137.756 242.26 143.822C240.277 150.12 241.56 158.169 237.827 163.301C233.978 168.55 225.93 169.717 220.681 173.566C215.432 177.298 211.933 184.764 205.634 186.746C199.568 188.729 192.336 184.88 185.688 184.88C179.039 184.88 171.807 188.613 165.742 186.746C159.443 184.764 155.944 177.298 150.695 173.566C145.446 169.717 137.281 168.55 133.548 163.301C129.816 158.052 131.099 150.004 129.116 143.822C127.133 137.756 121.301 132.157 121.301 125.392C121.301 118.743 127.25 113.028 129.116 106.963C131.099 100.664 129.816 92.6154 133.548 87.4831C137.398 82.2342 145.446 81.0677 150.695 77.2185C155.944 73.4859 159.443 66.0208 165.742 64.0378C171.807 62.0549 179.039 65.9041 185.688 65.9041C192.336 65.9041 199.568 62.1715 205.634 64.0378C211.933 66.0208 215.432 73.4859 220.681 77.2185C225.93 81.0677 234.095 82.2342 237.827 87.4831C241.56 92.7321 240.277 100.78 242.26 106.963C244.126 113.028 250.075 118.627 250.075 125.392Z" fill="#FFD34F"/>
<path d="M194.786 181.498C186.738 179.748 184.405 179.748 176.357 181.498C173.557 182.081 169.591 183.014 167.025 182.197C162.476 180.681 158.86 173.682 153.261 169.717C147.663 165.634 139.847 164.351 137.048 160.502C134.365 156.769 135.415 148.954 133.315 142.305C132.382 139.506 130.866 136.823 129.35 134.374C124.451 126.092 124.451 124.576 129.35 116.294C130.866 113.845 132.382 111.278 133.315 108.362C135.415 101.714 134.365 93.8985 137.048 90.166C139.847 86.3167 147.663 85.0337 153.261 80.9512C158.86 76.8686 162.476 69.8701 167.025 68.4703C169.591 67.6538 173.441 68.587 176.357 69.1702C184.405 70.9198 186.738 70.9198 194.786 69.1702C197.586 68.587 201.552 67.6538 204.118 68.4703C208.667 69.9867 212.283 76.9853 217.882 80.9512C223.481 85.0337 231.296 86.3167 234.095 90.166C236.778 93.8985 235.728 101.714 237.828 108.362C238.761 111.162 240.277 113.845 241.794 116.294C246.693 124.576 246.693 126.092 241.794 134.374C237.828 141.022 237.128 143.122 236.311 151.287C235.378 160.735 234.678 161.668 225.93 165.517C223.247 166.684 220.448 167.967 217.882 169.717C212.283 173.799 208.667 180.798 204.118 182.197C203.418 182.431 197.702 182.197 194.786 181.498Z" fill="url(#paint10_linear)"/>
<path fill-rule="evenodd" clip-rule="evenodd" d="M134.948 125.276C134.948 97.5145 157.343 75.0023 185.104 74.769C185.137 74.7954 185.17 74.8219 185.203 74.8483C188.337 74.8265 191.519 75.0976 194.716 75.6837C222.153 80.713 240.318 107.032 235.288 134.468C230.259 161.905 203.94 180.069 176.504 175.04C169.435 173.744 162.981 171.035 157.381 167.257C157.368 167.261 157.356 167.264 157.343 167.267C143.813 158.169 134.948 142.772 134.948 125.276Z" fill="url(#paint11_linear)"/>
<path d="M156.992 120.197C160.443 120.197 163.185 121.166 165.22 123.103C167.271 125.039 168.296 127.692 168.296 131.062C168.296 135.049 167.067 138.117 164.609 140.266C162.152 142.414 158.636 143.488 154.062 143.488C150.091 143.488 146.885 142.845 144.443 141.56V135.041C145.729 135.725 147.227 136.286 148.936 136.726C150.645 137.149 152.264 137.36 153.794 137.36C158.4 137.36 160.703 135.472 160.703 131.696C160.703 128.099 158.319 126.301 153.55 126.301C152.687 126.301 151.735 126.39 150.693 126.569C149.652 126.732 148.805 126.911 148.154 127.106L145.151 125.495L146.494 107.307H165.854V113.703H153.11L152.451 120.71L153.306 120.539C154.299 120.311 155.527 120.197 156.992 120.197ZM197.324 125.153C197.324 131.387 196.299 136.001 194.248 138.996C192.214 141.991 189.072 143.488 184.824 143.488C180.706 143.488 177.598 141.942 175.498 138.85C173.415 135.757 172.373 131.192 172.373 125.153C172.373 118.854 173.39 114.216 175.425 111.237C177.459 108.243 180.592 106.745 184.824 106.745C188.942 106.745 192.051 108.308 194.15 111.433C196.266 114.558 197.324 119.131 197.324 125.153ZM179.868 125.153C179.868 129.532 180.243 132.673 180.991 134.577C181.756 136.465 183.034 137.409 184.824 137.409C186.582 137.409 187.852 136.449 188.633 134.528C189.414 132.608 189.805 129.483 189.805 125.153C189.805 120.775 189.406 117.634 188.608 115.729C187.827 113.809 186.566 112.849 184.824 112.849C183.05 112.849 181.781 113.809 181.016 115.729C180.251 117.634 179.868 120.775 179.868 125.153ZM225.889 125.153C225.889 131.387 224.863 136.001 222.812 138.996C220.778 141.991 217.637 143.488 213.389 143.488C209.271 143.488 206.162 141.942 204.062 138.85C201.979 135.757 200.938 131.192 200.938 125.153C200.938 118.854 201.955 114.216 203.989 111.237C206.024 108.243 209.157 106.745 213.389 106.745C217.507 106.745 220.615 108.308 222.715 111.433C224.831 114.558 225.889 119.131 225.889 125.153ZM208.433 125.153C208.433 129.532 208.807 132.673 209.556 134.577C210.321 136.465 211.598 137.409 213.389 137.409C215.146 137.409 216.416 136.449 217.197 134.528C217.979 132.608 218.369 129.483 218.369 125.153C218.369 120.775 217.97 117.634 217.173 115.729C216.392 113.809 215.13 112.849 213.389 112.849C211.615 112.849 210.345 113.809 209.58 115.729C208.815 117.634 208.433 120.775 208.433 125.153Z" fill="#C31919"/>
<path d="M187.933 35.5185V0" stroke="#FFC700" stroke-width="10" stroke-miterlimit="10"/>
<path d="M234.578 50.9227L249.128 23.9629" stroke="#FFC700" stroke-width="10" stroke-miterlimit="10"/>
<path d="M143.854 48.3558L119.89 22.6797" stroke="#FFC700" stroke-width="10" stroke-miterlimit="10"/>
<defs>
<linearGradient id="paint0_linear" x1="251.994" y1="206.419" x2="377.989" y2="206.419" gradientUnits="userSpaceOnUse">
<stop stop-color="white" stop-opacity="0"/>
<stop offset="0.5" stop-color="white"/>
<stop offset="1" stop-color="white" stop-opacity="0"/>
</linearGradient>
<linearGradient id="paint1_linear" x1="314.992" y1="270.881" x2="314.992" y2="205.93" gradientUnits="userSpaceOnUse">
<stop/>
<stop offset="1" stop-opacity="0"/>
</linearGradient>
<linearGradient id="paint2_linear" x1="251.994" y1="238.406" x2="288.621" y2="238.406" gradientUnits="userSpaceOnUse">
<stop/>
<stop offset="1" stop-opacity="0"/>
</linearGradient>
<linearGradient id="paint3_linear" x1="251.994" y1="238.406" x2="255.413" y2="238.406" gradientUnits="userSpaceOnUse">
<stop/>
<stop offset="1" stop-opacity="0"/>
</linearGradient>
<linearGradient id="paint4_linear" x1="0.00351315" y1="192.501" x2="125.999" y2="192.501" gradientUnits="userSpaceOnUse">
<stop stop-color="white" stop-opacity="0"/>
<stop offset="0.5" stop-color="white"/>
<stop offset="1" stop-color="white" stop-opacity="0"/>
</linearGradient>
<linearGradient id="paint5_linear" x1="63.0011" y1="270.881" x2="63.0011" y2="192.012" gradientUnits="userSpaceOnUse">
<stop/>
<stop offset="1" stop-opacity="0"/>
</linearGradient>
<linearGradient id="paint6_linear" x1="84.0002" y1="231.447" x2="125.999" y2="231.447" gradientUnits="userSpaceOnUse">
<stop stop-opacity="0"/>
<stop offset="1"/>
</linearGradient>
<linearGradient id="paint7_linear" x1="121.603" y1="231.447" x2="125.999" y2="231.447" gradientUnits="userSpaceOnUse">
<stop stop-opacity="0"/>
<stop offset="1"/>
</linearGradient>
<linearGradient id="paint8_linear" x1="125.999" y1="181.024" x2="251.995" y2="181.024" gradientUnits="userSpaceOnUse">
<stop stop-color="white" stop-opacity="0"/>
<stop offset="0.5" stop-color="white"/>
<stop offset="1" stop-color="white" stop-opacity="0"/>
</linearGradient>
<linearGradient id="paint9_linear" x1="188.997" y1="273.323" x2="188.997" y2="180.536" gradientUnits="userSpaceOnUse">
<stop/>
<stop offset="1" stop-opacity="0"/>
</linearGradient>
<linearGradient id="paint10_linear" x1="185.572" y1="68.1499" x2="185.572" y2="182.518" gradientUnits="userSpaceOnUse">
<stop stop-color="#FF1D1D"/>
<stop offset="1" stop-color="#FF4172"/>
</linearGradient>
<linearGradient id="paint11_linear" x1="185.536" y1="74.769" x2="185.536" y2="175.877" gradientUnits="userSpaceOnUse">
<stop stop-color="#FFC700"/>
<stop offset="1" stop-color="#FC9517"/>
</linearGradient>
</defs>
</svg>
