<svg width="269" height="195" viewBox="0 0 269 195" fill="none" xmlns="http://www.w3.org/2000/svg">
<path d="M268.002 146.755H178.652V192.824H268.002V146.755Z" fill="#FBB040"/>
<g opacity="0.75">
<g opacity="0.75">
<path opacity="0.75" d="M268.002 147.813H178.652V151.612H268.002V147.813Z" fill="#231F20"/>
</g>
</g>
<path d="M268.002 146.755H178.652V150.554H268.002V146.755Z" fill="#CC2B2B"/>
<path d="M268.002 146.755H178.652V147.428H268.002V146.755Z" fill="url(#paint0_linear)"/>
<path opacity="0.5" d="M268.002 146.755H178.652V192.824H268.002V146.755Z" fill="url(#paint1_linear)"/>
<path opacity="0.6" d="M204.62 146.755H178.652V192.824H204.62V146.755Z" fill="url(#paint2_linear)"/>
<path opacity="0.5" d="M181.057 146.755H178.652V192.824H181.057V146.755Z" fill="url(#paint3_linear)"/>
<path d="M89.3508 136.896H0.00146484V192.824H89.3508V136.896Z" fill="#FBB040"/>
<g opacity="0.75">
<g opacity="0.75">
<path opacity="0.75" d="M89.3508 137.955H0.00146484V141.754H89.3508V137.955Z" fill="#231F20"/>
</g>
</g>
<path d="M89.3508 136.896H0.00146484V140.696H89.3508V136.896Z" fill="#CC2B2B"/>
<path d="M89.3508 136.896H0.00146484V137.57H89.3508V136.896Z" fill="url(#paint4_linear)"/>
<path opacity="0.5" d="M89.3508 136.897H0.00146484V192.824H89.3508V136.897Z" fill="url(#paint5_linear)"/>
<path opacity="0.6" d="M89.3027 136.897H59.5356V192.824H89.3027V136.897Z" fill="url(#paint6_linear)"/>
<path opacity="0.5" d="M89.3506 136.897H86.2249V192.824H89.3506V136.897Z" fill="url(#paint7_linear)"/>
<path d="M178.7 128.77H89.3511V194.555H178.7V128.77Z" fill="#FBB040"/>
<g opacity="0.75">
<g opacity="0.75">
<path opacity="0.75" d="M178.7 129.828H89.3503V133.627H178.7V129.828Z" fill="#CC2B2B"/>
</g>
</g>
<path d="M178.7 128.77H89.3511V132.569H178.7V128.77Z" fill="#CC2B2B"/>
<path d="M178.7 128.77H89.3511V129.443H178.7V128.77Z" fill="url(#paint8_linear)"/>
<path opacity="0.5" d="M178.7 128.77H89.3511V194.555H178.7V128.77Z" fill="url(#paint9_linear)"/>
<path d="M121.479 167.409L112.631 152.772L99.4814 163.771L112.961 81.6501L134.959 85.2889L121.479 167.409Z" fill="#C41919"/>
<path d="M163.49 171.131L150.34 160.215L141.492 174.77L127.846 92.732L149.844 89.0105L163.49 171.131Z" fill="#C41919"/>
<path opacity="0.57" d="M134.96 85.2889L112.962 81.6501L105.271 128.293C108 130.939 110.894 135.653 116.021 137.307C119.66 138.465 123.216 137.72 126.442 137.059L134.96 85.2889Z" fill="#AF2F2F"/>
<path opacity="0.57" d="M149.845 89.0103L127.847 92.649L135.207 136.645C138.763 137.389 142.898 138.63 147.116 137.224C150.92 135.984 153.484 133.089 155.716 130.525C156.047 130.112 156.378 129.781 156.626 129.45L149.845 89.0103Z" fill="#AF2F2F"/>
<path d="M177.302 89.6719C177.302 94.3857 173.084 98.438 171.761 102.738C170.355 107.204 171.265 112.91 168.618 116.549C165.889 120.271 160.183 121.098 156.461 123.827C152.74 126.473 150.259 131.766 145.793 133.172C141.493 134.578 136.365 131.849 131.652 131.849C126.938 131.849 121.81 134.495 117.51 133.172C113.044 131.766 110.563 126.473 106.842 123.827C103.12 121.098 97.3313 120.271 94.6849 116.549C92.0385 112.828 92.9482 107.121 91.5423 102.738C90.1364 98.438 86.0015 94.4684 86.0015 89.6719C86.0015 84.958 90.2191 80.9057 91.5423 76.6054C92.9482 72.1396 92.0385 66.4333 94.6849 62.7946C97.414 59.0731 103.12 58.2461 106.842 55.517C110.563 52.8706 113.044 47.5779 117.51 46.172C121.81 44.7661 126.938 47.4952 131.652 47.4952C136.365 47.4952 141.493 44.8488 145.793 46.172C150.259 47.5779 152.74 52.8706 156.461 55.517C160.183 58.2461 165.972 59.0731 168.618 62.7946C171.265 66.516 170.355 72.2223 171.761 76.6054C173.084 80.9057 177.302 84.8753 177.302 89.6719Z" fill="#FFD34F"/>
<path d="M138.102 129.45C132.396 128.21 130.742 128.21 125.036 129.45C123.051 129.864 120.239 130.525 118.42 129.947C115.194 128.871 112.631 123.909 108.661 121.098C104.692 118.203 99.1508 117.294 97.166 114.564C95.2639 111.918 96.0082 106.377 94.5196 101.663C93.858 99.6785 92.7829 97.7765 91.7078 96.0398C88.2344 90.1681 88.2344 89.093 91.7078 83.2214C92.7829 81.4847 93.858 79.6653 94.5196 77.5978C96.0082 72.8839 95.2639 67.3431 97.166 64.6967C99.1508 61.9676 104.692 61.0579 108.661 58.1634C112.631 55.2689 115.194 50.307 118.42 49.3146C120.239 48.7357 122.968 49.3973 125.036 49.8108C130.742 51.0513 132.396 51.0513 138.102 49.8108C140.087 49.3973 142.899 48.7357 144.718 49.3146C147.943 50.3897 150.507 55.3516 154.477 58.1634C158.446 61.0579 163.987 61.9676 165.972 64.6967C167.874 67.3431 167.13 72.8839 168.618 77.5978C169.28 79.5826 170.355 81.4847 171.43 83.2214C174.903 89.093 174.903 90.1681 171.43 96.0398C168.618 100.754 168.122 102.242 167.543 108.031C166.882 114.73 166.385 115.391 160.183 118.121C158.281 118.948 156.296 119.857 154.477 121.098C150.507 123.992 147.943 128.954 144.718 129.947C144.222 130.112 140.17 129.947 138.102 129.45Z" fill="url(#paint10_linear)"/>
<path fill-rule="evenodd" clip-rule="evenodd" d="M95.6772 89.5891C95.6772 69.9067 111.556 53.9457 131.238 53.7803C131.261 53.799 131.284 53.8177 131.308 53.8364C133.53 53.821 135.786 54.0132 138.053 54.4287C157.505 57.9944 170.384 76.6543 166.818 96.1066C163.252 115.559 144.592 128.438 125.14 124.872C120.128 123.953 115.552 122.032 111.582 119.354C111.573 119.356 111.564 119.359 111.556 119.361C101.962 112.91 95.6772 101.994 95.6772 89.5891Z" fill="url(#paint11_linear)"/>
<path d="M129.955 108.77H105.003V103.521L113.963 94.4629C116.616 91.7448 118.35 89.8649 119.164 88.8232C119.977 87.7653 120.563 86.7887 120.921 85.8936C121.279 84.9984 121.458 84.0706 121.458 83.1104C121.458 81.6781 121.06 80.612 120.262 79.9121C119.481 79.2122 118.431 78.8623 117.113 78.8623C115.729 78.8623 114.387 79.1797 113.084 79.8145C111.782 80.4492 110.423 81.3525 109.007 82.5244L104.906 77.666C106.664 76.1686 108.12 75.1107 109.276 74.4922C110.431 73.8737 111.693 73.4017 113.06 73.0762C114.427 72.7344 115.957 72.5635 117.65 72.5635C119.88 72.5635 121.849 72.9704 123.558 73.7842C125.267 74.598 126.594 75.7373 127.538 77.2021C128.482 78.667 128.954 80.3434 128.954 82.2314C128.954 83.8753 128.661 85.4215 128.075 86.8701C127.505 88.3024 126.61 89.7754 125.389 91.2891C124.185 92.8027 122.053 94.9593 118.993 97.7588L114.403 102.08V102.422H129.955V108.77ZM146.556 85.9668C150.007 85.9668 152.749 86.9352 154.784 88.8721C156.834 90.8089 157.86 93.4619 157.86 96.8311C157.86 100.819 156.631 103.887 154.173 106.035C151.716 108.184 148.2 109.258 143.626 109.258C139.655 109.258 136.449 108.615 134.007 107.329V100.811C135.293 101.494 136.791 102.056 138.5 102.495C140.208 102.918 141.828 103.13 143.358 103.13C147.964 103.13 150.267 101.242 150.267 97.4658C150.267 93.8688 147.883 92.0703 143.114 92.0703C142.251 92.0703 141.299 92.1598 140.257 92.3389C139.216 92.5016 138.369 92.6807 137.718 92.876L134.715 91.2646L136.058 73.0762H155.418V79.4727H142.674L142.015 86.4795L142.87 86.3086C143.862 86.0807 145.091 85.9668 146.556 85.9668Z" fill="#C31919"/>
<path d="M133.244 25.952V0.769531" stroke="#FFC700" stroke-width="10" stroke-miterlimit="10"/>
<path d="M166.315 36.8734L176.63 17.759" stroke="#FFC700" stroke-width="10" stroke-miterlimit="10"/>
<path d="M101.992 35.0536L85.0013 16.8494" stroke="#FFC700" stroke-width="10" stroke-miterlimit="10"/>
<defs>
<linearGradient id="paint0_linear" x1="178.663" y1="147.119" x2="267.993" y2="147.119" gradientUnits="userSpaceOnUse">
<stop stop-color="white" stop-opacity="0"/>
<stop offset="0.5" stop-color="white"/>
<stop offset="1" stop-color="white" stop-opacity="0"/>
</linearGradient>
<linearGradient id="paint1_linear" x1="223.328" y1="192.823" x2="223.328" y2="146.773" gradientUnits="userSpaceOnUse">
<stop/>
<stop offset="1" stop-opacity="0"/>
</linearGradient>
<linearGradient id="paint2_linear" x1="178.663" y1="169.798" x2="204.631" y2="169.798" gradientUnits="userSpaceOnUse">
<stop/>
<stop offset="1" stop-opacity="0"/>
</linearGradient>
<linearGradient id="paint3_linear" x1="178.663" y1="169.798" x2="181.087" y2="169.798" gradientUnits="userSpaceOnUse">
<stop/>
<stop offset="1" stop-opacity="0"/>
</linearGradient>
<linearGradient id="paint4_linear" x1="0.00257089" y1="137.251" x2="89.3326" y2="137.251" gradientUnits="userSpaceOnUse">
<stop stop-color="white" stop-opacity="0"/>
<stop offset="0.5" stop-color="white"/>
<stop offset="1" stop-color="white" stop-opacity="0"/>
</linearGradient>
<linearGradient id="paint5_linear" x1="44.6675" y1="192.823" x2="44.6675" y2="136.905" gradientUnits="userSpaceOnUse">
<stop/>
<stop offset="1" stop-opacity="0"/>
</linearGradient>
<linearGradient id="paint6_linear" x1="59.5559" y1="164.864" x2="89.3325" y2="164.864" gradientUnits="userSpaceOnUse">
<stop stop-opacity="0"/>
<stop offset="1"/>
</linearGradient>
<linearGradient id="paint7_linear" x1="86.2161" y1="164.864" x2="89.3324" y2="164.864" gradientUnits="userSpaceOnUse">
<stop stop-opacity="0"/>
<stop offset="1"/>
</linearGradient>
<linearGradient id="paint8_linear" x1="89.3328" y1="129.115" x2="178.663" y2="129.115" gradientUnits="userSpaceOnUse">
<stop stop-color="white" stop-opacity="0"/>
<stop offset="0.5" stop-color="white"/>
<stop offset="1" stop-color="white" stop-opacity="0"/>
</linearGradient>
<linearGradient id="paint9_linear" x1="133.998" y1="194.554" x2="133.998" y2="128.768" gradientUnits="userSpaceOnUse">
<stop/>
<stop offset="1" stop-opacity="0"/>
</linearGradient>
<linearGradient id="paint10_linear" x1="131.569" y1="49.0874" x2="131.569" y2="130.174" gradientUnits="userSpaceOnUse">
<stop stop-color="#FF1D1D"/>
<stop offset="1" stop-color="#FF4172"/>
</linearGradient>
<linearGradient id="paint11_linear" x1="131.544" y1="53.7803" x2="131.544" y2="125.465" gradientUnits="userSpaceOnUse">
<stop stop-color="#FFC700"/>
<stop offset="1" stop-color="#FC9517"/>
</linearGradient>
</defs>
</svg>
