<svg width="269" height="195" viewBox="0 0 269 195" fill="none" xmlns="http://www.w3.org/2000/svg">
<path d="M268.001 146.755H178.652V192.824H268.001V146.755Z" fill="#FBB040"/>
<g opacity="0.75">
<g opacity="0.75">
<path opacity="0.75" d="M268.001 147.813H178.652V151.612H268.001V147.813Z" fill="#231F20"/>
</g>
</g>
<path d="M268.001 146.755H178.652V150.554H268.001V146.755Z" fill="#CC2B2B"/>
<path d="M268.001 146.755H178.652V147.428H268.001V146.755Z" fill="url(#paint0_linear)"/>
<path opacity="0.5" d="M268.001 146.755H178.652V192.824H268.001V146.755Z" fill="url(#paint1_linear)"/>
<path opacity="0.6" d="M204.62 146.755H178.652V192.824H204.62V146.755Z" fill="url(#paint2_linear)"/>
<path opacity="0.5" d="M181.057 146.755H178.652V192.824H181.057V146.755Z" fill="url(#paint3_linear)"/>
<path d="M89.3506 136.896H0.0012207V192.824H89.3506V136.896Z" fill="#FBB040"/>
<g opacity="0.75">
<g opacity="0.75">
<path opacity="0.75" d="M89.3506 137.955H0.0012207V141.754H89.3506V137.955Z" fill="#231F20"/>
</g>
</g>
<path d="M89.3506 136.896H0.0012207V140.696H89.3506V136.896Z" fill="#CC2B2B"/>
<path d="M89.3506 136.896H0.0012207V137.57H89.3506V136.896Z" fill="url(#paint4_linear)"/>
<path opacity="0.5" d="M89.3506 136.897H0.0012207V192.824H89.3506V136.897Z" fill="url(#paint5_linear)"/>
<path opacity="0.6" d="M89.3023 136.897H59.5353V192.824H89.3023V136.897Z" fill="url(#paint6_linear)"/>
<path opacity="0.5" d="M89.3504 136.897H86.2246V192.824H89.3504V136.897Z" fill="url(#paint7_linear)"/>
<path d="M178.7 128.77H89.3507V194.555H178.7V128.77Z" fill="#FBB040"/>
<g opacity="0.75">
<g opacity="0.75">
<path opacity="0.75" d="M178.699 129.828H89.3501V133.627H178.699V129.828Z" fill="#CC2B2B"/>
</g>
</g>
<path d="M178.7 128.77H89.3507V132.569H178.7V128.77Z" fill="#CC2B2B"/>
<path d="M178.7 128.77H89.3507V129.443H178.7V128.77Z" fill="url(#paint8_linear)"/>
<path opacity="0.5" d="M178.7 128.77H89.3507V194.555H178.7V128.77Z" fill="url(#paint9_linear)"/>
<path d="M121.479 167.409L112.63 152.772L99.4812 163.771L112.961 81.6501L134.959 85.2889L121.479 167.409Z" fill="#C41919"/>
<path d="M163.49 171.131L150.34 160.215L141.491 174.77L127.846 92.732L149.844 89.0105L163.49 171.131Z" fill="#C41919"/>
<path opacity="0.57" d="M134.959 85.2889L112.961 81.6501L105.27 128.293C107.999 130.939 110.894 135.653 116.021 137.307C119.66 138.465 123.216 137.72 126.441 137.059L134.959 85.2889Z" fill="#AF2F2F"/>
<path opacity="0.57" d="M149.844 89.0103L127.846 92.649L135.207 136.645C138.763 137.389 142.898 138.63 147.115 137.224C150.92 135.984 153.483 133.089 155.716 130.525C156.047 130.112 156.378 129.781 156.626 129.45L149.844 89.0103Z" fill="#AF2F2F"/>
<path d="M177.301 89.6719C177.301 94.3857 173.084 98.438 171.761 102.738C170.355 107.204 171.264 112.91 168.618 116.549C165.889 120.271 160.183 121.098 156.461 123.827C152.74 126.473 150.259 131.766 145.793 133.172C141.493 134.578 136.365 131.849 131.651 131.849C126.937 131.849 121.81 134.495 117.51 133.172C113.044 131.766 110.563 126.473 106.841 123.827C103.12 121.098 97.331 120.271 94.6847 116.549C92.0383 112.828 92.948 107.121 91.5421 102.738C90.1362 98.438 86.0012 94.4684 86.0012 89.6719C86.0012 84.958 90.2189 80.9057 91.5421 76.6054C92.948 72.1396 92.0383 66.4333 94.6847 62.7946C97.4137 59.0731 103.12 58.2461 106.841 55.517C110.563 52.8706 113.044 47.5779 117.51 46.172C121.81 44.7661 126.937 47.4952 131.651 47.4952C136.365 47.4952 141.493 44.8488 145.793 46.172C150.259 47.5779 152.74 52.8706 156.461 55.517C160.183 58.2461 165.972 59.0731 168.618 62.7946C171.264 66.516 170.355 72.2223 171.761 76.6054C173.084 80.9057 177.301 84.8753 177.301 89.6719Z" fill="#FFD34F"/>
<path d="M138.102 129.45C132.396 128.21 130.742 128.21 125.035 129.45C123.051 129.864 120.239 130.525 118.419 129.947C115.194 128.871 112.63 123.909 108.661 121.098C104.691 118.203 99.1504 117.294 97.1656 114.564C95.2635 111.918 96.0078 106.377 94.5192 101.663C93.8576 99.6785 92.7825 97.7765 91.7074 96.0398C88.2341 90.1681 88.2341 89.093 91.7074 83.2214C92.7825 81.4847 93.8576 79.6653 94.5192 77.5978C96.0078 72.8839 95.2635 67.3431 97.1656 64.6967C99.1504 61.9676 104.691 61.0579 108.661 58.1634C112.63 55.2689 115.194 50.307 118.419 49.3146C120.239 48.7357 122.968 49.3973 125.035 49.8108C130.742 51.0513 132.396 51.0513 138.102 49.8108C140.087 49.3973 142.898 48.7357 144.718 49.3146C147.943 50.3897 150.507 55.3516 154.476 58.1634C158.446 61.0579 163.987 61.9676 165.972 64.6967C167.874 67.3431 167.129 72.8839 168.618 77.5978C169.28 79.5826 170.355 81.4847 171.43 83.2214C174.903 89.093 174.903 90.1681 171.43 96.0398C168.618 100.754 168.122 102.242 167.543 108.031C166.881 114.73 166.385 115.391 160.183 118.121C158.28 118.948 156.296 119.857 154.476 121.098C150.507 123.992 147.943 128.954 144.718 129.947C144.222 130.112 140.169 129.947 138.102 129.45Z" fill="url(#paint10_linear)"/>
<path fill-rule="evenodd" clip-rule="evenodd" d="M95.677 89.5891C95.677 69.9067 111.555 53.9457 131.238 53.7803C131.261 53.799 131.284 53.8177 131.307 53.8364C133.53 53.821 135.786 54.0132 138.052 54.4287C157.505 57.9944 170.383 76.6543 166.818 96.1066C163.252 115.559 144.592 128.438 125.14 124.872C120.128 123.953 115.552 122.032 111.582 119.354C111.573 119.356 111.564 119.359 111.555 119.361C101.962 112.91 95.677 101.994 95.677 89.5891Z" fill="url(#paint11_linear)"/>
<path d="M129.954 108.77H105.003V103.521L113.963 94.4629C116.616 91.7448 118.35 89.8649 119.163 88.8232C119.977 87.7653 120.563 86.7887 120.921 85.8936C121.279 84.9984 121.458 84.0706 121.458 83.1104C121.458 81.6781 121.059 80.612 120.262 79.9121C119.481 79.2122 118.431 78.8623 117.113 78.8623C115.729 78.8623 114.386 79.1797 113.084 79.8145C111.782 80.4492 110.423 81.3525 109.007 82.5244L104.906 77.666C106.663 76.1686 108.12 75.1107 109.276 74.4922C110.431 73.8737 111.693 73.4017 113.06 73.0762C114.427 72.7344 115.957 72.5635 117.65 72.5635C119.879 72.5635 121.849 72.9704 123.558 73.7842C125.267 74.598 126.593 75.7373 127.537 77.2021C128.481 78.667 128.953 80.3434 128.953 82.2314C128.953 83.8753 128.66 85.4215 128.074 86.8701C127.505 88.3024 126.61 89.7754 125.389 91.2891C124.184 92.8027 122.052 94.9593 118.992 97.7588L114.403 102.08V102.422H129.954V108.77ZM158.323 90.9229C158.323 97.1566 157.298 101.771 155.247 104.766C153.213 107.76 150.072 109.258 145.823 109.258C141.706 109.258 138.597 107.712 136.497 104.619C134.414 101.527 133.372 96.9613 133.372 90.9229C133.372 84.624 134.39 79.9854 136.424 77.0068C138.459 74.012 141.592 72.5146 145.823 72.5146C149.941 72.5146 153.05 74.0771 155.15 77.2021C157.266 80.3271 158.323 84.9007 158.323 90.9229ZM140.867 90.9229C140.867 95.3011 141.242 98.4424 141.99 100.347C142.755 102.235 144.033 103.179 145.823 103.179C147.581 103.179 148.851 102.218 149.632 100.298C150.413 98.3773 150.804 95.2523 150.804 90.9229C150.804 86.5446 150.405 83.4033 149.608 81.499C148.826 79.5785 147.565 78.6182 145.823 78.6182C144.049 78.6182 142.78 79.5785 142.015 81.499C141.25 83.4033 140.867 86.5446 140.867 90.9229Z" fill="#C31919"/>
<path d="M133.243 25.952V0.769531" stroke="#FFC700" stroke-width="10" stroke-miterlimit="10"/>
<path d="M166.314 36.8734L176.63 17.759" stroke="#FFC700" stroke-width="10" stroke-miterlimit="10"/>
<path d="M101.992 35.0536L85.001 16.8494" stroke="#FFC700" stroke-width="10" stroke-miterlimit="10"/>
<defs>
<linearGradient id="paint0_linear" x1="178.663" y1="147.119" x2="267.993" y2="147.119" gradientUnits="userSpaceOnUse">
<stop stop-color="white" stop-opacity="0"/>
<stop offset="0.5" stop-color="white"/>
<stop offset="1" stop-color="white" stop-opacity="0"/>
</linearGradient>
<linearGradient id="paint1_linear" x1="223.328" y1="192.823" x2="223.328" y2="146.773" gradientUnits="userSpaceOnUse">
<stop/>
<stop offset="1" stop-opacity="0"/>
</linearGradient>
<linearGradient id="paint2_linear" x1="178.663" y1="169.798" x2="204.631" y2="169.798" gradientUnits="userSpaceOnUse">
<stop/>
<stop offset="1" stop-opacity="0"/>
</linearGradient>
<linearGradient id="paint3_linear" x1="178.663" y1="169.798" x2="181.087" y2="169.798" gradientUnits="userSpaceOnUse">
<stop/>
<stop offset="1" stop-opacity="0"/>
</linearGradient>
<linearGradient id="paint4_linear" x1="0.00232675" y1="137.251" x2="89.3323" y2="137.251" gradientUnits="userSpaceOnUse">
<stop stop-color="white" stop-opacity="0"/>
<stop offset="0.5" stop-color="white"/>
<stop offset="1" stop-color="white" stop-opacity="0"/>
</linearGradient>
<linearGradient id="paint5_linear" x1="44.6673" y1="192.823" x2="44.6673" y2="136.905" gradientUnits="userSpaceOnUse">
<stop/>
<stop offset="1" stop-opacity="0"/>
</linearGradient>
<linearGradient id="paint6_linear" x1="59.5555" y1="164.864" x2="89.3322" y2="164.864" gradientUnits="userSpaceOnUse">
<stop stop-opacity="0"/>
<stop offset="1"/>
</linearGradient>
<linearGradient id="paint7_linear" x1="86.2159" y1="164.864" x2="89.3321" y2="164.864" gradientUnits="userSpaceOnUse">
<stop stop-opacity="0"/>
<stop offset="1"/>
</linearGradient>
<linearGradient id="paint8_linear" x1="89.3324" y1="129.115" x2="178.663" y2="129.115" gradientUnits="userSpaceOnUse">
<stop stop-color="white" stop-opacity="0"/>
<stop offset="0.5" stop-color="white"/>
<stop offset="1" stop-color="white" stop-opacity="0"/>
</linearGradient>
<linearGradient id="paint9_linear" x1="133.998" y1="194.554" x2="133.998" y2="128.768" gradientUnits="userSpaceOnUse">
<stop/>
<stop offset="1" stop-opacity="0"/>
</linearGradient>
<linearGradient id="paint10_linear" x1="131.569" y1="49.0874" x2="131.569" y2="130.174" gradientUnits="userSpaceOnUse">
<stop stop-color="#FF1D1D"/>
<stop offset="1" stop-color="#FF4172"/>
</linearGradient>
<linearGradient id="paint11_linear" x1="131.544" y1="53.7803" x2="131.544" y2="125.465" gradientUnits="userSpaceOnUse">
<stop stop-color="#FFC700"/>
<stop offset="1" stop-color="#FC9517"/>
</linearGradient>
</defs>
</svg>
