<svg width="269" height="195" viewBox="0 0 269 195" fill="none" xmlns="http://www.w3.org/2000/svg">
<path d="M268.003 146.755H178.653V192.824H268.003V146.755Z" fill="#FBB040"/>
<g opacity="0.75">
<g opacity="0.75">
<path opacity="0.75" d="M268.003 147.813H178.653V151.612H268.003V147.813Z" fill="#231F20"/>
</g>
</g>
<path d="M268.003 146.755H178.653V150.554H268.003V146.755Z" fill="#CC2B2B"/>
<path d="M268.003 146.755H178.653V147.428H268.003V146.755Z" fill="url(#paint0_linear)"/>
<path opacity="0.5" d="M268.003 146.755H178.653V192.824H268.003V146.755Z" fill="url(#paint1_linear)"/>
<path opacity="0.6" d="M204.621 146.755H178.653V192.824H204.621V146.755Z" fill="url(#paint2_linear)"/>
<path opacity="0.5" d="M181.058 146.755H178.653V192.824H181.058V146.755Z" fill="url(#paint3_linear)"/>
<path d="M89.3518 136.896H0.00244141V192.824H89.3518V136.896Z" fill="#FBB040"/>
<g opacity="0.75">
<g opacity="0.75">
<path opacity="0.75" d="M89.3518 137.955H0.00244141V141.754H89.3518V137.955Z" fill="#231F20"/>
</g>
</g>
<path d="M89.3518 136.896H0.00244141V140.696H89.3518V136.896Z" fill="#CC2B2B"/>
<path d="M89.3518 136.896H0.00244141V137.57H89.3518V136.896Z" fill="url(#paint4_linear)"/>
<path opacity="0.5" d="M89.3518 136.897H0.00244141V192.824H89.3518V136.897Z" fill="url(#paint5_linear)"/>
<path opacity="0.6" d="M89.3037 136.897H59.5366V192.824H89.3037V136.897Z" fill="url(#paint6_linear)"/>
<path opacity="0.5" d="M89.3516 136.897H86.2258V192.824H89.3516V136.897Z" fill="url(#paint7_linear)"/>
<path d="M178.701 128.77H89.3521V194.555H178.701V128.77Z" fill="#FBB040"/>
<g opacity="0.75">
<g opacity="0.75">
<path opacity="0.75" d="M178.701 129.828H89.3513V133.627H178.701V129.828Z" fill="#CC2B2B"/>
</g>
</g>
<path d="M178.701 128.77H89.3521V132.569H178.701V128.77Z" fill="#CC2B2B"/>
<path d="M178.701 128.77H89.3521V129.443H178.701V128.77Z" fill="url(#paint8_linear)"/>
<path opacity="0.5" d="M178.701 128.77H89.3521V194.555H178.701V128.77Z" fill="url(#paint9_linear)"/>
<path d="M121.48 167.409L112.632 152.772L99.4824 163.771L112.962 81.6501L134.96 85.2889L121.48 167.409Z" fill="#C41919"/>
<path d="M163.491 171.131L150.341 160.215L141.493 174.77L127.847 92.732L149.845 89.0105L163.491 171.131Z" fill="#C41919"/>
<path opacity="0.57" d="M134.961 85.2889L112.963 81.6501L105.271 128.293C108.001 130.939 110.895 135.653 116.022 137.307C119.661 138.465 123.217 137.72 126.443 137.059L134.961 85.2889Z" fill="#AF2F2F"/>
<path opacity="0.57" d="M149.846 89.0103L127.848 92.649L135.208 136.645C138.764 137.389 142.899 138.63 147.117 137.224C150.921 135.984 153.484 133.089 155.717 130.525C156.048 130.112 156.379 129.781 156.627 129.45L149.846 89.0103Z" fill="#AF2F2F"/>
<path d="M177.303 89.6719C177.303 94.3857 173.085 98.438 171.762 102.738C170.356 107.204 171.266 112.91 168.619 116.549C165.89 120.271 160.184 121.098 156.462 123.827C152.741 126.473 150.26 131.766 145.794 133.172C141.494 134.578 136.366 131.849 131.653 131.849C126.939 131.849 121.811 134.495 117.511 133.172C113.045 131.766 110.564 126.473 106.843 123.827C103.121 121.098 97.3323 120.271 94.6859 116.549C92.0395 112.828 92.9492 107.121 91.5433 102.738C90.1374 98.438 86.0024 94.4684 86.0024 89.6719C86.0024 84.958 90.2201 80.9057 91.5433 76.6054C92.9492 72.1396 92.0395 66.4333 94.6859 62.7946C97.415 59.0731 103.121 58.2461 106.843 55.517C110.564 52.8706 113.045 47.5779 117.511 46.172C121.811 44.7661 126.939 47.4952 131.653 47.4952C136.366 47.4952 141.494 44.8488 145.794 46.172C150.26 47.5779 152.741 52.8706 156.462 55.517C160.184 58.2461 165.973 59.0731 168.619 62.7946C171.266 66.516 170.356 72.2223 171.762 76.6054C173.085 80.9057 177.303 84.8753 177.303 89.6719Z" fill="#FFD34F"/>
<path d="M138.103 129.45C132.397 128.21 130.743 128.21 125.037 129.45C123.052 129.864 120.24 130.525 118.421 129.947C115.195 128.871 112.632 123.909 108.662 121.098C104.693 118.203 99.1517 117.294 97.167 114.564C95.2649 111.918 96.0092 106.377 94.5206 101.663C93.859 99.6785 92.7839 97.7765 91.7088 96.0398C88.2354 90.1681 88.2354 89.093 91.7088 83.2214C92.7839 81.4847 93.859 79.6653 94.5206 77.5978C96.0092 72.8839 95.2649 67.3431 97.167 64.6967C99.1517 61.9676 104.693 61.0579 108.662 58.1634C112.632 55.2689 115.195 50.307 118.421 49.3146C120.24 48.7357 122.969 49.3973 125.037 49.8108C130.743 51.0513 132.397 51.0513 138.103 49.8108C140.088 49.3973 142.9 48.7357 144.719 49.3146C147.944 50.3897 150.508 55.3516 154.478 58.1634C158.447 61.0579 163.988 61.9676 165.973 64.6967C167.875 67.3431 167.131 72.8839 168.619 77.5978C169.281 79.5826 170.356 81.4847 171.431 83.2214C174.904 89.093 174.904 90.1681 171.431 96.0398C168.619 100.754 168.123 102.242 167.544 108.031C166.883 114.73 166.386 115.391 160.184 118.121C158.282 118.948 156.297 119.857 154.478 121.098C150.508 123.992 147.944 128.954 144.719 129.947C144.223 130.112 140.171 129.947 138.103 129.45Z" fill="url(#paint10_linear)"/>
<path fill-rule="evenodd" clip-rule="evenodd" d="M95.6782 89.5891C95.6782 69.9067 111.557 53.9457 131.239 53.7803C131.262 53.799 131.285 53.8177 131.309 53.8364C133.531 53.821 135.787 54.0132 138.054 54.4287C157.506 57.9944 170.385 76.6543 166.819 96.1066C163.253 115.559 144.593 128.438 125.141 124.872C120.129 123.953 115.553 122.032 111.583 119.354C111.574 119.356 111.565 119.359 111.557 119.361C101.963 112.91 95.6782 101.994 95.6782 89.5891Z" fill="url(#paint11_linear)"/>
<path d="M108.544 108.77L121.948 79.4727H104.345V73.125H129.956V77.8613L116.455 108.77H108.544ZM146.557 85.9668C150.008 85.9668 152.75 86.9352 154.785 88.8721C156.835 90.8089 157.861 93.4619 157.861 96.8311C157.861 100.819 156.632 103.887 154.174 106.035C151.717 108.184 148.201 109.258 143.627 109.258C139.656 109.258 136.45 108.615 134.008 107.329V100.811C135.294 101.494 136.792 102.056 138.5 102.495C140.209 102.918 141.829 103.13 143.359 103.13C147.965 103.13 150.268 101.242 150.268 97.4658C150.268 93.8688 147.884 92.0703 143.115 92.0703C142.252 92.0703 141.3 92.1598 140.258 92.3389C139.217 92.5016 138.37 92.6807 137.719 92.876L134.716 91.2646L136.059 73.0762H155.419V79.4727H142.675L142.016 86.4795L142.871 86.3086C143.863 86.0807 145.092 85.9668 146.557 85.9668Z" fill="#C31919"/>
<path d="M133.245 25.952V0.769531" stroke="#FFC700" stroke-width="10" stroke-miterlimit="10"/>
<path d="M166.316 36.8734L176.631 17.759" stroke="#FFC700" stroke-width="10" stroke-miterlimit="10"/>
<path d="M101.993 35.0536L85.0023 16.8494" stroke="#FFC700" stroke-width="10" stroke-miterlimit="10"/>
<defs>
<linearGradient id="paint0_linear" x1="178.664" y1="147.119" x2="267.994" y2="147.119" gradientUnits="userSpaceOnUse">
<stop stop-color="white" stop-opacity="0"/>
<stop offset="0.5" stop-color="white"/>
<stop offset="1" stop-color="white" stop-opacity="0"/>
</linearGradient>
<linearGradient id="paint1_linear" x1="223.329" y1="192.823" x2="223.329" y2="146.773" gradientUnits="userSpaceOnUse">
<stop/>
<stop offset="1" stop-opacity="0"/>
</linearGradient>
<linearGradient id="paint2_linear" x1="178.664" y1="169.798" x2="204.632" y2="169.798" gradientUnits="userSpaceOnUse">
<stop/>
<stop offset="1" stop-opacity="0"/>
</linearGradient>
<linearGradient id="paint3_linear" x1="178.664" y1="169.798" x2="181.088" y2="169.798" gradientUnits="userSpaceOnUse">
<stop/>
<stop offset="1" stop-opacity="0"/>
</linearGradient>
<linearGradient id="paint4_linear" x1="0.00354745" y1="137.251" x2="89.3335" y2="137.251" gradientUnits="userSpaceOnUse">
<stop stop-color="white" stop-opacity="0"/>
<stop offset="0.5" stop-color="white"/>
<stop offset="1" stop-color="white" stop-opacity="0"/>
</linearGradient>
<linearGradient id="paint5_linear" x1="44.6685" y1="192.823" x2="44.6685" y2="136.905" gradientUnits="userSpaceOnUse">
<stop/>
<stop offset="1" stop-opacity="0"/>
</linearGradient>
<linearGradient id="paint6_linear" x1="59.5569" y1="164.864" x2="89.3335" y2="164.864" gradientUnits="userSpaceOnUse">
<stop stop-opacity="0"/>
<stop offset="1"/>
</linearGradient>
<linearGradient id="paint7_linear" x1="86.2171" y1="164.864" x2="89.3333" y2="164.864" gradientUnits="userSpaceOnUse">
<stop stop-opacity="0"/>
<stop offset="1"/>
</linearGradient>
<linearGradient id="paint8_linear" x1="89.3338" y1="129.115" x2="178.664" y2="129.115" gradientUnits="userSpaceOnUse">
<stop stop-color="white" stop-opacity="0"/>
<stop offset="0.5" stop-color="white"/>
<stop offset="1" stop-color="white" stop-opacity="0"/>
</linearGradient>
<linearGradient id="paint9_linear" x1="133.999" y1="194.554" x2="133.999" y2="128.768" gradientUnits="userSpaceOnUse">
<stop/>
<stop offset="1" stop-opacity="0"/>
</linearGradient>
<linearGradient id="paint10_linear" x1="131.57" y1="49.0874" x2="131.57" y2="130.174" gradientUnits="userSpaceOnUse">
<stop stop-color="#FF1D1D"/>
<stop offset="1" stop-color="#FF4172"/>
</linearGradient>
<linearGradient id="paint11_linear" x1="131.545" y1="53.7803" x2="131.545" y2="125.465" gradientUnits="userSpaceOnUse">
<stop stop-color="#FFC700"/>
<stop offset="1" stop-color="#FC9517"/>
</linearGradient>
</defs>
</svg>
