<svg width="269" height="195" viewBox="0 0 269 195" fill="none" xmlns="http://www.w3.org/2000/svg">
<path d="M268.002 146.755H178.653V192.824H268.002V146.755Z" fill="#FBB040"/>
<g opacity="0.75">
<g opacity="0.75">
<path opacity="0.75" d="M268.002 147.813H178.653V151.612H268.002V147.813Z" fill="#231F20"/>
</g>
</g>
<path d="M268.002 146.755H178.653V150.554H268.002V146.755Z" fill="#CC2B2B"/>
<path d="M268.002 146.755H178.653V147.428H268.002V146.755Z" fill="url(#paint0_linear)"/>
<path opacity="0.5" d="M268.002 146.755H178.653V192.824H268.002V146.755Z" fill="url(#paint1_linear)"/>
<path opacity="0.6" d="M204.621 146.755H178.653V192.824H204.621V146.755Z" fill="url(#paint2_linear)"/>
<path opacity="0.5" d="M181.058 146.755H178.653V192.824H181.058V146.755Z" fill="url(#paint3_linear)"/>
<path d="M89.3516 136.896H0.00219727V192.824H89.3516V136.896Z" fill="#FBB040"/>
<g opacity="0.75">
<g opacity="0.75">
<path opacity="0.75" d="M89.3516 137.955H0.00219727V141.754H89.3516V137.955Z" fill="#231F20"/>
</g>
</g>
<path d="M89.3516 136.896H0.00219727V140.696H89.3516V136.896Z" fill="#CC2B2B"/>
<path d="M89.3516 136.896H0.00219727V137.57H89.3516V136.896Z" fill="url(#paint4_linear)"/>
<path opacity="0.5" d="M89.3516 136.897H0.00219727V192.824H89.3516V136.897Z" fill="url(#paint5_linear)"/>
<path opacity="0.6" d="M89.3034 136.897H59.5364V192.824H89.3034V136.897Z" fill="url(#paint6_linear)"/>
<path opacity="0.5" d="M89.3514 136.897H86.2256V192.824H89.3514V136.897Z" fill="url(#paint7_linear)"/>
<path d="M178.701 128.77H89.3518V194.555H178.701V128.77Z" fill="#FBB040"/>
<g opacity="0.75">
<g opacity="0.75">
<path opacity="0.75" d="M178.7 129.828H89.3511V133.627H178.7V129.828Z" fill="#CC2B2B"/>
</g>
</g>
<path d="M178.701 128.77H89.3518V132.569H178.701V128.77Z" fill="#CC2B2B"/>
<path d="M178.701 128.77H89.3518V129.443H178.701V128.77Z" fill="url(#paint8_linear)"/>
<path opacity="0.5" d="M178.701 128.77H89.3518V194.555H178.701V128.77Z" fill="url(#paint9_linear)"/>
<path d="M121.48 167.409L112.631 152.772L99.4822 163.771L112.962 81.6501L134.96 85.2889L121.48 167.409Z" fill="#C41919"/>
<path d="M163.49 171.131L150.341 160.215L141.492 174.77L127.847 92.732L149.845 89.0105L163.49 171.131Z" fill="#C41919"/>
<path opacity="0.57" d="M134.96 85.2889L112.962 81.6501L105.271 128.293C108 130.939 110.895 135.653 116.022 137.307C119.661 138.465 123.217 137.72 126.442 137.059L134.96 85.2889Z" fill="#AF2F2F"/>
<path opacity="0.57" d="M149.845 89.0103L127.847 92.649L135.208 136.645C138.764 137.389 142.899 138.63 147.116 137.224C150.921 135.984 153.484 133.089 155.717 130.525C156.048 130.112 156.379 129.781 156.627 129.45L149.845 89.0103Z" fill="#AF2F2F"/>
<path d="M177.302 89.6719C177.302 94.3857 173.085 98.438 171.761 102.738C170.356 107.204 171.265 112.91 168.619 116.549C165.89 120.271 160.184 121.098 156.462 123.827C152.741 126.473 150.26 131.766 145.794 133.172C141.494 134.578 136.366 131.849 131.652 131.849C126.938 131.849 121.811 134.495 117.511 133.172C113.045 131.766 110.564 126.473 106.842 123.827C103.121 121.098 97.332 120.271 94.6856 116.549C92.0393 112.828 92.9489 107.121 91.5431 102.738C90.1372 98.438 86.0022 94.4684 86.0022 89.6719C86.0022 84.958 90.2199 80.9057 91.5431 76.6054C92.9489 72.1396 92.0393 66.4333 94.6856 62.7946C97.4147 59.0731 103.121 58.2461 106.842 55.517C110.564 52.8706 113.045 47.5779 117.511 46.172C121.811 44.7661 126.938 47.4952 131.652 47.4952C136.366 47.4952 141.494 44.8488 145.794 46.172C150.26 47.5779 152.741 52.8706 156.462 55.517C160.184 58.2461 165.973 59.0731 168.619 62.7946C171.265 66.516 170.356 72.2223 171.761 76.6054C173.085 80.9057 177.302 84.8753 177.302 89.6719Z" fill="#FFD34F"/>
<path d="M138.103 129.45C132.397 128.21 130.743 128.21 125.036 129.45C123.052 129.864 120.24 130.525 118.42 129.947C115.195 128.871 112.632 123.909 108.662 121.098C104.692 118.203 99.1515 117.294 97.1667 114.564C95.2646 111.918 96.0089 106.377 94.5203 101.663C93.8587 99.6785 92.7836 97.7765 91.7085 96.0398C88.2352 90.1681 88.2352 89.093 91.7085 83.2214C92.7836 81.4847 93.8587 79.6653 94.5203 77.5978C96.0089 72.8839 95.2646 67.3431 97.1667 64.6967C99.1515 61.9676 104.692 61.0579 108.662 58.1634C112.632 55.2689 115.195 50.307 118.42 49.3146C120.24 48.7357 122.969 49.3973 125.036 49.8108C130.743 51.0513 132.397 51.0513 138.103 49.8108C140.088 49.3973 142.899 48.7357 144.719 49.3146C147.944 50.3897 150.508 55.3516 154.477 58.1634C158.447 61.0579 163.988 61.9676 165.973 64.6967C167.875 67.3431 167.13 72.8839 168.619 77.5978C169.281 79.5826 170.356 81.4847 171.431 83.2214C174.904 89.093 174.904 90.1681 171.431 96.0398C168.619 100.754 168.123 102.242 167.544 108.031C166.882 114.73 166.386 115.391 160.184 118.121C158.282 118.948 156.297 119.857 154.477 121.098C150.508 123.992 147.944 128.954 144.719 129.947C144.223 130.112 140.17 129.947 138.103 129.45Z" fill="url(#paint10_linear)"/>
<path fill-rule="evenodd" clip-rule="evenodd" d="M95.678 89.5891C95.678 69.9067 111.556 53.9457 131.239 53.7803C131.262 53.799 131.285 53.8177 131.308 53.8364C133.531 53.821 135.787 54.0132 138.053 54.4287C157.506 57.9944 170.384 76.6543 166.819 96.1066C163.253 115.559 144.593 128.438 125.141 124.872C120.129 123.953 115.553 122.032 111.583 119.354C111.574 119.356 111.565 119.359 111.556 119.361C101.963 112.91 95.678 101.994 95.678 89.5891Z" fill="url(#paint11_linear)"/>
<path d="M117.992 85.9668C121.443 85.9668 124.185 86.9352 126.22 88.8721C128.271 90.8089 129.296 93.4619 129.296 96.8311C129.296 100.819 128.067 103.887 125.61 106.035C123.152 108.184 119.636 109.258 115.063 109.258C111.091 109.258 107.885 108.615 105.444 107.329V100.811C106.729 101.494 108.227 102.056 109.936 102.495C111.645 102.918 113.264 103.13 114.794 103.13C119.4 103.13 121.703 101.242 121.703 97.4658C121.703 93.8688 119.319 92.0703 114.55 92.0703C113.687 92.0703 112.735 92.1598 111.694 92.3389C110.652 92.5016 109.806 92.6807 109.155 92.876L106.152 91.2646L107.494 73.0762H126.855V79.4727H114.111L113.451 86.4795L114.306 86.3086C115.299 86.0807 116.528 85.9668 117.992 85.9668ZM158.324 90.9229C158.324 97.1566 157.299 101.771 155.248 104.766C153.214 107.76 150.073 109.258 145.824 109.258C141.707 109.258 138.598 107.712 136.498 104.619C134.415 101.527 133.373 96.9613 133.373 90.9229C133.373 84.624 134.391 79.9854 136.425 77.0068C138.46 74.012 141.593 72.5146 145.824 72.5146C149.942 72.5146 153.051 74.0771 155.151 77.2021C157.267 80.3271 158.324 84.9007 158.324 90.9229ZM140.868 90.9229C140.868 95.3011 141.243 98.4424 141.991 100.347C142.756 102.235 144.034 103.179 145.824 103.179C147.582 103.179 148.852 102.218 149.633 100.298C150.414 98.3773 150.805 95.2523 150.805 90.9229C150.805 86.5446 150.406 83.4033 149.609 81.499C148.827 79.5785 147.566 78.6182 145.824 78.6182C144.05 78.6182 142.781 79.5785 142.016 81.499C141.251 83.4033 140.868 86.5446 140.868 90.9229Z" fill="#C31919"/>
<path d="M133.244 25.952V0.769531" stroke="#FFC700" stroke-width="10" stroke-miterlimit="10"/>
<path d="M166.315 36.8734L176.631 17.759" stroke="#FFC700" stroke-width="10" stroke-miterlimit="10"/>
<path d="M101.993 35.0536L85.0021 16.8494" stroke="#FFC700" stroke-width="10" stroke-miterlimit="10"/>
<defs>
<linearGradient id="paint0_linear" x1="178.664" y1="147.119" x2="267.994" y2="147.119" gradientUnits="userSpaceOnUse">
<stop stop-color="white" stop-opacity="0"/>
<stop offset="0.5" stop-color="white"/>
<stop offset="1" stop-color="white" stop-opacity="0"/>
</linearGradient>
<linearGradient id="paint1_linear" x1="223.329" y1="192.823" x2="223.329" y2="146.773" gradientUnits="userSpaceOnUse">
<stop/>
<stop offset="1" stop-opacity="0"/>
</linearGradient>
<linearGradient id="paint2_linear" x1="178.664" y1="169.798" x2="204.632" y2="169.798" gradientUnits="userSpaceOnUse">
<stop/>
<stop offset="1" stop-opacity="0"/>
</linearGradient>
<linearGradient id="paint3_linear" x1="178.664" y1="169.798" x2="181.087" y2="169.798" gradientUnits="userSpaceOnUse">
<stop/>
<stop offset="1" stop-opacity="0"/>
</linearGradient>
<linearGradient id="paint4_linear" x1="0.00330331" y1="137.251" x2="89.3333" y2="137.251" gradientUnits="userSpaceOnUse">
<stop stop-color="white" stop-opacity="0"/>
<stop offset="0.5" stop-color="white"/>
<stop offset="1" stop-color="white" stop-opacity="0"/>
</linearGradient>
<linearGradient id="paint5_linear" x1="44.6683" y1="192.823" x2="44.6683" y2="136.905" gradientUnits="userSpaceOnUse">
<stop/>
<stop offset="1" stop-opacity="0"/>
</linearGradient>
<linearGradient id="paint6_linear" x1="59.5566" y1="164.864" x2="89.3333" y2="164.864" gradientUnits="userSpaceOnUse">
<stop stop-opacity="0"/>
<stop offset="1"/>
</linearGradient>
<linearGradient id="paint7_linear" x1="86.2169" y1="164.864" x2="89.3331" y2="164.864" gradientUnits="userSpaceOnUse">
<stop stop-opacity="0"/>
<stop offset="1"/>
</linearGradient>
<linearGradient id="paint8_linear" x1="89.3335" y1="129.115" x2="178.664" y2="129.115" gradientUnits="userSpaceOnUse">
<stop stop-color="white" stop-opacity="0"/>
<stop offset="0.5" stop-color="white"/>
<stop offset="1" stop-color="white" stop-opacity="0"/>
</linearGradient>
<linearGradient id="paint9_linear" x1="133.999" y1="194.554" x2="133.999" y2="128.768" gradientUnits="userSpaceOnUse">
<stop/>
<stop offset="1" stop-opacity="0"/>
</linearGradient>
<linearGradient id="paint10_linear" x1="131.57" y1="49.0874" x2="131.57" y2="130.174" gradientUnits="userSpaceOnUse">
<stop stop-color="#FF1D1D"/>
<stop offset="1" stop-color="#FF4172"/>
</linearGradient>
<linearGradient id="paint11_linear" x1="131.545" y1="53.7803" x2="131.545" y2="125.465" gradientUnits="userSpaceOnUse">
<stop stop-color="#FFC700"/>
<stop offset="1" stop-color="#FC9517"/>
</linearGradient>
</defs>
</svg>
