<svg width="268" height="195" viewBox="0 0 268 195" fill="none" xmlns="http://www.w3.org/2000/svg">
<path d="M268 146.755H178.651V192.824H268V146.755Z" fill="#FBB040"/>
<g opacity="0.75">
<g opacity="0.75">
<path opacity="0.75" d="M268 147.813H178.651V151.612H268V147.813Z" fill="#231F20"/>
</g>
</g>
<path d="M268 146.755H178.651V150.554H268V146.755Z" fill="#CC2B2B"/>
<path d="M268 146.755H178.651V147.428H268V146.755Z" fill="url(#paint0_linear)"/>
<path opacity="0.5" d="M268 146.755H178.651V192.824H268V146.755Z" fill="url(#paint1_linear)"/>
<path opacity="0.6" d="M204.619 146.755H178.651V192.824H204.619V146.755Z" fill="url(#paint2_linear)"/>
<path opacity="0.5" d="M181.056 146.755H178.651V192.824H181.056V146.755Z" fill="url(#paint3_linear)"/>
<path d="M89.3496 136.896H0.000244141V192.824H89.3496V136.896Z" fill="#FBB040"/>
<g opacity="0.75">
<g opacity="0.75">
<path opacity="0.75" d="M89.3496 137.955H0.000244141V141.754H89.3496V137.955Z" fill="#231F20"/>
</g>
</g>
<path d="M89.3496 136.896H0.000244141V140.696H89.3496V136.896Z" fill="#CC2B2B"/>
<path d="M89.3496 136.896H0.000244141V137.57H89.3496V136.896Z" fill="url(#paint4_linear)"/>
<path opacity="0.5" d="M89.3496 136.897H0.000244141V192.824H89.3496V136.897Z" fill="url(#paint5_linear)"/>
<path opacity="0.6" d="M89.3015 136.897H59.5344V192.824H89.3015V136.897Z" fill="url(#paint6_linear)"/>
<path opacity="0.5" d="M89.3494 136.897H86.2236V192.824H89.3494V136.897Z" fill="url(#paint7_linear)"/>
<path d="M178.699 128.77H89.3499V194.555H178.699V128.77Z" fill="#FBB040"/>
<g opacity="0.75">
<g opacity="0.75">
<path opacity="0.75" d="M178.698 129.828H89.3491V133.627H178.698V129.828Z" fill="#CC2B2B"/>
</g>
</g>
<path d="M178.699 128.77H89.3499V132.569H178.699V128.77Z" fill="#CC2B2B"/>
<path d="M178.699 128.77H89.3499V129.443H178.699V128.77Z" fill="url(#paint8_linear)"/>
<path opacity="0.5" d="M178.699 128.77H89.3499V194.555H178.699V128.77Z" fill="url(#paint9_linear)"/>
<path d="M121.478 167.409L112.629 152.772L99.4802 163.771L112.96 81.6501L134.958 85.2889L121.478 167.409Z" fill="#C41919"/>
<path d="M163.488 171.131L150.339 160.215L141.49 174.77L127.845 92.732L149.843 89.0105L163.488 171.131Z" fill="#C41919"/>
<path opacity="0.57" d="M134.958 85.2889L112.96 81.6501L105.269 128.293C107.998 130.939 110.893 135.653 116.02 137.307C119.659 138.465 123.215 137.72 126.44 137.059L134.958 85.2889Z" fill="#AF2F2F"/>
<path opacity="0.57" d="M149.844 89.0103L127.845 92.649L135.206 136.645C138.762 137.389 142.897 138.63 147.114 137.224C150.919 135.984 153.482 133.089 155.715 130.525C156.046 130.112 156.377 129.781 156.625 129.45L149.844 89.0103Z" fill="#AF2F2F"/>
<path d="M177.3 89.6719C177.3 94.3857 173.083 98.438 171.76 102.738C170.354 107.204 171.263 112.91 168.617 116.549C165.888 120.271 160.182 121.098 156.46 123.827C152.739 126.473 150.258 131.766 145.792 133.172C141.492 134.578 136.364 131.849 131.65 131.849C126.936 131.849 121.809 134.495 117.509 133.172C113.043 131.766 110.562 126.473 106.84 123.827C103.119 121.098 97.3301 120.271 94.6837 116.549C92.0373 112.828 92.947 107.121 91.5411 102.738C90.1352 98.438 86.0002 94.4684 86.0002 89.6719C86.0002 84.958 90.2179 80.9057 91.5411 76.6054C92.947 72.1396 92.0373 66.4333 94.6837 62.7946C97.4128 59.0731 103.119 58.2461 106.84 55.517C110.562 52.8706 113.043 47.5779 117.509 46.172C121.809 44.7661 126.936 47.4952 131.65 47.4952C136.364 47.4952 141.492 44.8488 145.792 46.172C150.258 47.5779 152.739 52.8706 156.46 55.517C160.182 58.2461 165.971 59.0731 168.617 62.7946C171.263 66.516 170.354 72.2223 171.76 76.6054C173.083 80.9057 177.3 84.8753 177.3 89.6719Z" fill="#FFD34F"/>
<path d="M138.101 129.45C132.395 128.21 130.741 128.21 125.034 129.45C123.05 129.864 120.238 130.525 118.419 129.947C115.193 128.871 112.63 123.909 108.66 121.098C104.69 118.203 99.1495 117.294 97.1648 114.564C95.2627 111.918 96.007 106.377 94.5184 101.663C93.8568 99.6785 92.7817 97.7765 91.7066 96.0398C88.2332 90.1681 88.2332 89.093 91.7066 83.2214C92.7817 81.4847 93.8568 79.6653 94.5184 77.5978C96.007 72.8839 95.2627 67.3431 97.1648 64.6967C99.1495 61.9676 104.69 61.0579 108.66 58.1634C112.63 55.2689 115.193 50.307 118.419 49.3146C120.238 48.7357 122.967 49.3973 125.034 49.8108C130.741 51.0513 132.395 51.0513 138.101 49.8108C140.086 49.3973 142.898 48.7357 144.717 49.3146C147.942 50.3897 150.506 55.3516 154.475 58.1634C158.445 61.0579 163.986 61.9676 165.971 64.6967C167.873 67.3431 167.128 72.8839 168.617 77.5978C169.279 79.5826 170.354 81.4847 171.429 83.2214C174.902 89.093 174.902 90.1681 171.429 96.0398C168.617 100.754 168.121 102.242 167.542 108.031C166.88 114.73 166.384 115.391 160.182 118.121C158.28 118.948 156.295 119.857 154.475 121.098C150.506 123.992 147.942 128.954 144.717 129.947C144.221 130.112 140.168 129.947 138.101 129.45Z" fill="url(#paint10_linear)"/>
<path fill-rule="evenodd" clip-rule="evenodd" d="M95.676 89.5891C95.676 69.9067 111.554 53.9457 131.237 53.7803C131.26 53.799 131.283 53.8177 131.306 53.8364C133.529 53.821 135.785 54.0132 138.051 54.4287C157.504 57.9944 170.382 76.6543 166.817 96.1066C163.251 115.559 144.591 128.438 125.139 124.872C120.127 123.953 115.551 122.032 111.581 119.354C111.572 119.356 111.563 119.359 111.554 119.361C101.961 112.91 95.676 101.994 95.676 89.5891Z" fill="url(#paint11_linear)"/>
<path d="M131.99 86.9668C135.441 86.9668 138.184 87.9352 140.218 89.8721C142.269 91.8089 143.294 94.4619 143.294 97.8311C143.294 101.819 142.065 104.887 139.608 107.035C137.15 109.184 133.634 110.258 129.061 110.258C125.089 110.258 121.883 109.615 119.442 108.329V101.811C120.727 102.494 122.225 103.056 123.934 103.495C125.643 103.918 127.262 104.13 128.792 104.13C133.398 104.13 135.701 102.242 135.701 98.4658C135.701 94.8688 133.317 93.0703 128.548 93.0703C127.685 93.0703 126.733 93.1598 125.692 93.3389C124.65 93.5016 123.804 93.6807 123.153 93.876L120.15 92.2646L121.492 74.0762H140.853V80.4727H128.109L127.449 87.4795L128.304 87.3086C129.297 87.0807 130.526 86.9668 131.99 86.9668Z" fill="#C31919"/>
<path d="M133.242 25.952V0.769531" stroke="#FFC700" stroke-width="10" stroke-miterlimit="10"/>
<path d="M166.313 36.8734L176.629 17.759" stroke="#FFC700" stroke-width="10" stroke-miterlimit="10"/>
<path d="M101.991 35.0536L85.0001 16.8494" stroke="#FFC700" stroke-width="10" stroke-miterlimit="10"/>
<defs>
<linearGradient id="paint0_linear" x1="178.662" y1="147.119" x2="267.992" y2="147.119" gradientUnits="userSpaceOnUse">
<stop stop-color="white" stop-opacity="0"/>
<stop offset="0.5" stop-color="white"/>
<stop offset="1" stop-color="white" stop-opacity="0"/>
</linearGradient>
<linearGradient id="paint1_linear" x1="223.327" y1="192.823" x2="223.327" y2="146.773" gradientUnits="userSpaceOnUse">
<stop/>
<stop offset="1" stop-opacity="0"/>
</linearGradient>
<linearGradient id="paint2_linear" x1="178.662" y1="169.798" x2="204.63" y2="169.798" gradientUnits="userSpaceOnUse">
<stop/>
<stop offset="1" stop-opacity="0"/>
</linearGradient>
<linearGradient id="paint3_linear" x1="178.662" y1="169.798" x2="181.086" y2="169.798" gradientUnits="userSpaceOnUse">
<stop/>
<stop offset="1" stop-opacity="0"/>
</linearGradient>
<linearGradient id="paint4_linear" x1="0.00135019" y1="137.251" x2="89.3313" y2="137.251" gradientUnits="userSpaceOnUse">
<stop stop-color="white" stop-opacity="0"/>
<stop offset="0.5" stop-color="white"/>
<stop offset="1" stop-color="white" stop-opacity="0"/>
</linearGradient>
<linearGradient id="paint5_linear" x1="44.6663" y1="192.823" x2="44.6663" y2="136.905" gradientUnits="userSpaceOnUse">
<stop/>
<stop offset="1" stop-opacity="0"/>
</linearGradient>
<linearGradient id="paint6_linear" x1="59.5547" y1="164.864" x2="89.3313" y2="164.864" gradientUnits="userSpaceOnUse">
<stop stop-opacity="0"/>
<stop offset="1"/>
</linearGradient>
<linearGradient id="paint7_linear" x1="86.2149" y1="164.864" x2="89.3311" y2="164.864" gradientUnits="userSpaceOnUse">
<stop stop-opacity="0"/>
<stop offset="1"/>
</linearGradient>
<linearGradient id="paint8_linear" x1="89.3316" y1="129.115" x2="178.662" y2="129.115" gradientUnits="userSpaceOnUse">
<stop stop-color="white" stop-opacity="0"/>
<stop offset="0.5" stop-color="white"/>
<stop offset="1" stop-color="white" stop-opacity="0"/>
</linearGradient>
<linearGradient id="paint9_linear" x1="133.997" y1="194.554" x2="133.997" y2="128.768" gradientUnits="userSpaceOnUse">
<stop/>
<stop offset="1" stop-opacity="0"/>
</linearGradient>
<linearGradient id="paint10_linear" x1="131.568" y1="49.0874" x2="131.568" y2="130.174" gradientUnits="userSpaceOnUse">
<stop stop-color="#FF1D1D"/>
<stop offset="1" stop-color="#FF4172"/>
</linearGradient>
<linearGradient id="paint11_linear" x1="131.543" y1="53.7803" x2="131.543" y2="125.465" gradientUnits="userSpaceOnUse">
<stop stop-color="#FFC700"/>
<stop offset="1" stop-color="#FC9517"/>
</linearGradient>
</defs>
</svg>
