<svg width="269" height="195" viewBox="0 0 269 195" fill="none" xmlns="http://www.w3.org/2000/svg">
<path d="M268.002 146.755H178.653V192.824H268.002V146.755Z" fill="#FBB040"/>
<g opacity="0.75">
<g opacity="0.75">
<path opacity="0.75" d="M268.002 147.813H178.653V151.612H268.002V147.813Z" fill="#231F20"/>
</g>
</g>
<path d="M268.002 146.755H178.653V150.554H268.002V146.755Z" fill="#CC2B2B"/>
<path d="M268.002 146.755H178.653V147.428H268.002V146.755Z" fill="url(#paint0_linear)"/>
<path opacity="0.5" d="M268.002 146.755H178.653V192.824H268.002V146.755Z" fill="url(#paint1_linear)"/>
<path opacity="0.6" d="M204.621 146.755H178.653V192.824H204.621V146.755Z" fill="url(#paint2_linear)"/>
<path opacity="0.5" d="M181.057 146.755H178.653V192.824H181.057V146.755Z" fill="url(#paint3_linear)"/>
<path d="M89.3513 136.896H0.00195312V192.824H89.3513V136.896Z" fill="#FBB040"/>
<g opacity="0.75">
<g opacity="0.75">
<path opacity="0.75" d="M89.3513 137.955H0.00195312V141.754H89.3513V137.955Z" fill="#231F20"/>
</g>
</g>
<path d="M89.3513 136.896H0.00195312V140.696H89.3513V136.896Z" fill="#CC2B2B"/>
<path d="M89.3513 136.896H0.00195312V137.57H89.3513V136.896Z" fill="url(#paint4_linear)"/>
<path opacity="0.5" d="M89.3513 136.897H0.00195312V192.824H89.3513V136.897Z" fill="url(#paint5_linear)"/>
<path opacity="0.6" d="M89.3032 136.897H59.5361V192.824H89.3032V136.897Z" fill="url(#paint6_linear)"/>
<path opacity="0.5" d="M89.3511 136.897H86.2253V192.824H89.3511V136.897Z" fill="url(#paint7_linear)"/>
<path d="M178.701 128.77H89.3516V194.555H178.701V128.77Z" fill="#FBB040"/>
<g opacity="0.75">
<g opacity="0.75">
<path opacity="0.75" d="M178.7 129.828H89.3508V133.627H178.7V129.828Z" fill="#CC2B2B"/>
</g>
</g>
<path d="M178.701 128.77H89.3516V132.569H178.701V128.77Z" fill="#CC2B2B"/>
<path d="M178.701 128.77H89.3516V129.443H178.701V128.77Z" fill="url(#paint8_linear)"/>
<path opacity="0.5" d="M178.701 128.77H89.3516V194.555H178.701V128.77Z" fill="url(#paint9_linear)"/>
<path d="M121.48 167.409L112.631 152.772L99.4819 163.771L112.962 81.6501L134.96 85.2889L121.48 167.409Z" fill="#C41919"/>
<path d="M163.49 171.131L150.341 160.215L141.492 174.77L127.847 92.732L149.845 89.0105L163.49 171.131Z" fill="#C41919"/>
<path opacity="0.57" d="M134.96 85.2889L112.962 81.6501L105.271 128.293C108 130.939 110.895 135.653 116.022 137.307C119.661 138.465 123.217 137.72 126.442 137.059L134.96 85.2889Z" fill="#AF2F2F"/>
<path opacity="0.57" d="M149.845 89.0103L127.847 92.649L135.207 136.645C138.763 137.389 142.898 138.63 147.116 137.224C150.92 135.984 153.484 133.089 155.717 130.525C156.048 130.112 156.378 129.781 156.627 129.45L149.845 89.0103Z" fill="#AF2F2F"/>
<path d="M177.302 89.6719C177.302 94.3857 173.084 98.438 171.761 102.738C170.355 107.204 171.265 112.91 168.619 116.549C165.89 120.271 160.183 121.098 156.462 123.827C152.74 126.473 150.259 131.766 145.794 133.172C141.493 134.578 136.366 131.849 131.652 131.849C126.938 131.849 121.811 134.495 117.51 133.172C113.045 131.766 110.564 126.473 106.842 123.827C103.121 121.098 97.3318 120.271 94.6854 116.549C92.039 112.828 92.9487 107.121 91.5428 102.738C90.1369 98.438 86.002 94.4684 86.002 89.6719C86.002 84.958 90.2196 80.9057 91.5428 76.6054C92.9487 72.1396 92.039 66.4333 94.6854 62.7946C97.4145 59.0731 103.121 58.2461 106.842 55.517C110.564 52.8706 113.045 47.5779 117.51 46.172C121.811 44.7661 126.938 47.4952 131.652 47.4952C136.366 47.4952 141.493 44.8488 145.794 46.172C150.259 47.5779 152.74 52.8706 156.462 55.517C160.183 58.2461 165.972 59.0731 168.619 62.7946C171.265 66.516 170.355 72.2223 171.761 76.6054C173.084 80.9057 177.302 84.8753 177.302 89.6719Z" fill="#FFD34F"/>
<path d="M138.103 129.45C132.396 128.21 130.742 128.21 125.036 129.45C123.051 129.864 120.24 130.525 118.42 129.947C115.195 128.871 112.631 123.909 108.662 121.098C104.692 118.203 99.1513 117.294 97.1665 114.564C95.2644 111.918 96.0087 106.377 94.5201 101.663C93.8585 99.6785 92.7834 97.7765 91.7083 96.0398C88.2349 90.1681 88.2349 89.093 91.7083 83.2214C92.7834 81.4847 93.8585 79.6653 94.5201 77.5978C96.0087 72.8839 95.2644 67.3431 97.1665 64.6967C99.1513 61.9676 104.692 61.0579 108.662 58.1634C112.631 55.2689 115.195 50.307 118.42 49.3146C120.24 48.7357 122.969 49.3973 125.036 49.8108C130.742 51.0513 132.396 51.0513 138.103 49.8108C140.087 49.3973 142.899 48.7357 144.719 49.3146C147.944 50.3897 150.508 55.3516 154.477 58.1634C158.447 61.0579 163.988 61.9676 165.972 64.6967C167.874 67.3431 167.13 72.8839 168.619 77.5978C169.28 79.5826 170.355 81.4847 171.431 83.2214C174.904 89.093 174.904 90.1681 171.431 96.0398C168.619 100.754 168.123 102.242 167.544 108.031C166.882 114.73 166.386 115.391 160.183 118.121C158.281 118.948 156.297 119.857 154.477 121.098C150.508 123.992 147.944 128.954 144.719 129.947C144.222 130.112 140.17 129.947 138.103 129.45Z" fill="url(#paint10_linear)"/>
<path fill-rule="evenodd" clip-rule="evenodd" d="M95.6777 89.5891C95.6777 69.9067 111.556 53.9457 131.238 53.7803C131.262 53.799 131.285 53.8177 131.308 53.8364C133.531 53.821 135.787 54.0132 138.053 54.4287C157.506 57.9944 170.384 76.6543 166.818 96.1066C163.253 115.559 144.593 128.438 125.141 124.872C120.129 123.953 115.553 122.032 111.583 119.354C111.574 119.356 111.565 119.359 111.556 119.361C101.963 112.91 95.6777 101.994 95.6777 89.5891Z" fill="url(#paint11_linear)"/>
<path d="M130.761 101.372H126.464V108.77H119.091V101.372H103.856V96.123L119.506 73.0762H126.464V95.5127H130.761V101.372ZM119.091 95.5127V89.458C119.091 88.4489 119.132 86.984 119.213 85.0635C119.294 83.1429 119.359 82.028 119.408 81.7188H119.213C118.611 83.0534 117.886 84.3555 117.04 85.625L110.497 95.5127H119.091ZM158.324 90.9229C158.324 97.1566 157.299 101.771 155.248 104.766C153.214 107.76 150.072 109.258 145.824 109.258C141.706 109.258 138.598 107.712 136.498 104.619C134.415 101.527 133.373 96.9613 133.373 90.9229C133.373 84.624 134.39 79.9854 136.425 77.0068C138.459 74.012 141.592 72.5146 145.824 72.5146C149.942 72.5146 153.051 74.0771 155.15 77.2021C157.266 80.3271 158.324 84.9007 158.324 90.9229ZM140.868 90.9229C140.868 95.3011 141.243 98.4424 141.991 100.347C142.756 102.235 144.034 103.179 145.824 103.179C147.582 103.179 148.852 102.218 149.633 100.298C150.414 98.3773 150.805 95.2523 150.805 90.9229C150.805 86.5446 150.406 83.4033 149.608 81.499C148.827 79.5785 147.566 78.6182 145.824 78.6182C144.05 78.6182 142.781 79.5785 142.016 81.499C141.251 83.4033 140.868 86.5446 140.868 90.9229Z" fill="#C31919"/>
<path d="M133.244 25.952V0.769531" stroke="#FFC700" stroke-width="10" stroke-miterlimit="10"/>
<path d="M166.315 36.8734L176.631 17.759" stroke="#FFC700" stroke-width="10" stroke-miterlimit="10"/>
<path d="M101.992 35.0536L85.0018 16.8494" stroke="#FFC700" stroke-width="10" stroke-miterlimit="10"/>
<defs>
<linearGradient id="paint0_linear" x1="178.664" y1="147.119" x2="267.993" y2="147.119" gradientUnits="userSpaceOnUse">
<stop stop-color="white" stop-opacity="0"/>
<stop offset="0.5" stop-color="white"/>
<stop offset="1" stop-color="white" stop-opacity="0"/>
</linearGradient>
<linearGradient id="paint1_linear" x1="223.329" y1="192.823" x2="223.329" y2="146.773" gradientUnits="userSpaceOnUse">
<stop/>
<stop offset="1" stop-opacity="0"/>
</linearGradient>
<linearGradient id="paint2_linear" x1="178.664" y1="169.798" x2="204.632" y2="169.798" gradientUnits="userSpaceOnUse">
<stop/>
<stop offset="1" stop-opacity="0"/>
</linearGradient>
<linearGradient id="paint3_linear" x1="178.664" y1="169.798" x2="181.087" y2="169.798" gradientUnits="userSpaceOnUse">
<stop/>
<stop offset="1" stop-opacity="0"/>
</linearGradient>
<linearGradient id="paint4_linear" x1="0.00305917" y1="137.251" x2="89.333" y2="137.251" gradientUnits="userSpaceOnUse">
<stop stop-color="white" stop-opacity="0"/>
<stop offset="0.5" stop-color="white"/>
<stop offset="1" stop-color="white" stop-opacity="0"/>
</linearGradient>
<linearGradient id="paint5_linear" x1="44.668" y1="192.823" x2="44.668" y2="136.905" gradientUnits="userSpaceOnUse">
<stop/>
<stop offset="1" stop-opacity="0"/>
</linearGradient>
<linearGradient id="paint6_linear" x1="59.5564" y1="164.864" x2="89.333" y2="164.864" gradientUnits="userSpaceOnUse">
<stop stop-opacity="0"/>
<stop offset="1"/>
</linearGradient>
<linearGradient id="paint7_linear" x1="86.2166" y1="164.864" x2="89.3329" y2="164.864" gradientUnits="userSpaceOnUse">
<stop stop-opacity="0"/>
<stop offset="1"/>
</linearGradient>
<linearGradient id="paint8_linear" x1="89.3333" y1="129.115" x2="178.664" y2="129.115" gradientUnits="userSpaceOnUse">
<stop stop-color="white" stop-opacity="0"/>
<stop offset="0.5" stop-color="white"/>
<stop offset="1" stop-color="white" stop-opacity="0"/>
</linearGradient>
<linearGradient id="paint9_linear" x1="133.998" y1="194.554" x2="133.998" y2="128.768" gradientUnits="userSpaceOnUse">
<stop/>
<stop offset="1" stop-opacity="0"/>
</linearGradient>
<linearGradient id="paint10_linear" x1="131.569" y1="49.0874" x2="131.569" y2="130.174" gradientUnits="userSpaceOnUse">
<stop stop-color="#FF1D1D"/>
<stop offset="1" stop-color="#FF4172"/>
</linearGradient>
<linearGradient id="paint11_linear" x1="131.545" y1="53.7803" x2="131.545" y2="125.465" gradientUnits="userSpaceOnUse">
<stop stop-color="#FFC700"/>
<stop offset="1" stop-color="#FC9517"/>
</linearGradient>
</defs>
</svg>
