<svg width="268" height="195" viewBox="0 0 268 195" fill="none" xmlns="http://www.w3.org/2000/svg">
<path d="M268.001 146.755H178.651V192.824H268.001V146.755Z" fill="#FBB040"/>
<g opacity="0.75">
<g opacity="0.75">
<path opacity="0.75" d="M268.001 147.813H178.651V151.612H268.001V147.813Z" fill="#231F20"/>
</g>
</g>
<path d="M268.001 146.755H178.651V150.554H268.001V146.755Z" fill="#CC2B2B"/>
<path d="M268.001 146.755H178.651V147.428H268.001V146.755Z" fill="url(#paint0_linear)"/>
<path opacity="0.5" d="M268.001 146.755H178.651V192.824H268.001V146.755Z" fill="url(#paint1_linear)"/>
<path opacity="0.6" d="M204.619 146.755H178.651V192.824H204.619V146.755Z" fill="url(#paint2_linear)"/>
<path opacity="0.5" d="M181.056 146.755H178.651V192.824H181.056V146.755Z" fill="url(#paint3_linear)"/>
<path d="M89.3499 136.896H0.000488281V192.824H89.3499V136.896Z" fill="#FBB040"/>
<g opacity="0.75">
<g opacity="0.75">
<path opacity="0.75" d="M89.3499 137.955H0.000488281V141.754H89.3499V137.955Z" fill="#231F20"/>
</g>
</g>
<path d="M89.3499 136.896H0.000488281V140.696H89.3499V136.896Z" fill="#CC2B2B"/>
<path d="M89.3499 136.896H0.000488281V137.57H89.3499V136.896Z" fill="url(#paint4_linear)"/>
<path opacity="0.5" d="M89.3499 136.897H0.000488281V192.824H89.3499V136.897Z" fill="url(#paint5_linear)"/>
<path opacity="0.6" d="M89.3017 136.897H59.5347V192.824H89.3017V136.897Z" fill="url(#paint6_linear)"/>
<path opacity="0.5" d="M89.3499 136.897H86.2241V192.824H89.3499V136.897Z" fill="url(#paint7_linear)"/>
<path d="M178.699 128.77H89.3501V194.555H178.699V128.77Z" fill="#FBB040"/>
<g opacity="0.75">
<g opacity="0.75">
<path opacity="0.75" d="M178.699 129.828H89.3494V133.627H178.699V129.828Z" fill="#CC2B2B"/>
</g>
</g>
<path d="M178.699 128.77H89.3501V132.569H178.699V128.77Z" fill="#CC2B2B"/>
<path d="M178.699 128.77H89.3501V129.443H178.699V128.77Z" fill="url(#paint8_linear)"/>
<path opacity="0.5" d="M178.699 128.77H89.3501V194.555H178.699V128.77Z" fill="url(#paint9_linear)"/>
<path d="M121.479 167.409L112.63 152.772L99.4807 163.771L112.961 81.6501L134.959 85.2889L121.479 167.409Z" fill="#C41919"/>
<path d="M163.489 171.131L150.34 160.215L141.491 174.77L127.845 92.732L149.844 89.0105L163.489 171.131Z" fill="#C41919"/>
<path opacity="0.57" d="M134.959 85.2889L112.961 81.6501L105.27 128.293C107.999 130.939 110.893 135.653 116.021 137.307C119.659 138.465 123.216 137.72 126.441 137.059L134.959 85.2889Z" fill="#AF2F2F"/>
<path opacity="0.57" d="M149.844 89.0103L127.846 92.649L135.206 136.645C138.762 137.389 142.897 138.63 147.115 137.224C150.919 135.984 153.483 133.089 155.716 130.525C156.046 130.112 156.377 129.781 156.625 129.45L149.844 89.0103Z" fill="#AF2F2F"/>
<path d="M177.301 89.6719C177.301 94.3857 173.083 98.438 171.76 102.738C170.354 107.204 171.264 112.91 168.617 116.549C165.888 120.271 160.182 121.098 156.461 123.827C152.739 126.473 150.258 131.766 145.792 133.172C141.492 134.578 136.365 131.849 131.651 131.849C126.937 131.849 121.81 134.495 117.509 133.172C113.043 131.766 110.562 126.473 106.841 123.827C103.12 121.098 97.3306 120.271 94.6842 116.549C92.0378 112.828 92.9475 107.121 91.5416 102.738C90.1357 98.438 86.0007 94.4684 86.0007 89.6719C86.0007 84.958 90.2184 80.9057 91.5416 76.6054C92.9475 72.1396 92.0378 66.4333 94.6842 62.7946C97.4133 59.0731 103.12 58.2461 106.841 55.517C110.562 52.8706 113.043 47.5779 117.509 46.172C121.81 44.7661 126.937 47.4952 131.651 47.4952C136.365 47.4952 141.492 44.8488 145.792 46.172C150.258 47.5779 152.739 52.8706 156.461 55.517C160.182 58.2461 165.971 59.0731 168.617 62.7946C171.264 66.516 170.354 72.2223 171.76 76.6054C173.083 80.9057 177.301 84.8753 177.301 89.6719Z" fill="#FFD34F"/>
<path d="M138.101 129.45C132.395 128.21 130.741 128.21 125.035 129.45C123.05 129.864 120.238 130.525 118.419 129.947C115.194 128.871 112.63 123.909 108.66 121.098C104.691 118.203 99.15 117.294 97.1652 114.564C95.2632 111.918 96.0075 106.377 94.5189 101.663C93.8573 99.6785 92.7822 97.7765 91.7071 96.0398C88.2337 90.1681 88.2337 89.093 91.7071 83.2214C92.7822 81.4847 93.8573 79.6653 94.5189 77.5978C96.0075 72.8839 95.2632 67.3431 97.1652 64.6967C99.15 61.9676 104.691 61.0579 108.66 58.1634C112.63 55.2689 115.194 50.307 118.419 49.3146C120.238 48.7357 122.967 49.3973 125.035 49.8108C130.741 51.0513 132.395 51.0513 138.101 49.8108C140.086 49.3973 142.898 48.7357 144.717 49.3146C147.943 50.3897 150.506 55.3516 154.476 58.1634C158.446 61.0579 163.986 61.9676 165.971 64.6967C167.873 67.3431 167.129 72.8839 168.618 77.5978C169.279 79.5826 170.354 81.4847 171.429 83.2214C174.903 89.093 174.903 90.1681 171.429 96.0398C168.618 100.754 168.121 102.242 167.542 108.031C166.881 114.73 166.385 115.391 160.182 118.121C158.28 118.948 156.295 119.857 154.476 121.098C150.506 123.992 147.943 128.954 144.717 129.947C144.221 130.112 140.169 129.947 138.101 129.45Z" fill="url(#paint10_linear)"/>
<path fill-rule="evenodd" clip-rule="evenodd" d="M95.6765 89.5891C95.6765 69.9067 111.555 53.9457 131.237 53.7803C131.26 53.799 131.284 53.8177 131.307 53.8364C133.529 53.821 135.785 54.0132 138.052 54.4287C157.504 57.9944 170.383 76.6543 166.817 96.1066C163.251 115.559 144.592 128.438 125.139 124.872C120.127 123.953 115.552 122.032 111.581 119.354C111.572 119.356 111.564 119.359 111.555 119.361C101.962 112.91 95.6765 101.994 95.6765 89.5891Z" fill="url(#paint11_linear)"/>
<path d="M122.543 108.77L135.946 79.4727H118.344V73.125H143.954V77.8613L130.453 108.77H122.543Z" fill="#C31919"/>
<path d="M133.243 25.952V0.769531" stroke="#FFC700" stroke-width="10" stroke-miterlimit="10"/>
<path d="M166.314 36.8734L176.63 17.759" stroke="#FFC700" stroke-width="10" stroke-miterlimit="10"/>
<path d="M101.991 35.0536L85.0006 16.8494" stroke="#FFC700" stroke-width="10" stroke-miterlimit="10"/>
<defs>
<linearGradient id="paint0_linear" x1="178.662" y1="147.119" x2="267.992" y2="147.119" gradientUnits="userSpaceOnUse">
<stop stop-color="white" stop-opacity="0"/>
<stop offset="0.5" stop-color="white"/>
<stop offset="1" stop-color="white" stop-opacity="0"/>
</linearGradient>
<linearGradient id="paint1_linear" x1="223.327" y1="192.823" x2="223.327" y2="146.773" gradientUnits="userSpaceOnUse">
<stop/>
<stop offset="1" stop-opacity="0"/>
</linearGradient>
<linearGradient id="paint2_linear" x1="178.662" y1="169.798" x2="204.63" y2="169.798" gradientUnits="userSpaceOnUse">
<stop/>
<stop offset="1" stop-opacity="0"/>
</linearGradient>
<linearGradient id="paint3_linear" x1="178.662" y1="169.798" x2="181.086" y2="169.798" gradientUnits="userSpaceOnUse">
<stop/>
<stop offset="1" stop-opacity="0"/>
</linearGradient>
<linearGradient id="paint4_linear" x1="0.00159433" y1="137.251" x2="89.3316" y2="137.251" gradientUnits="userSpaceOnUse">
<stop stop-color="white" stop-opacity="0"/>
<stop offset="0.5" stop-color="white"/>
<stop offset="1" stop-color="white" stop-opacity="0"/>
</linearGradient>
<linearGradient id="paint5_linear" x1="44.6666" y1="192.823" x2="44.6666" y2="136.905" gradientUnits="userSpaceOnUse">
<stop/>
<stop offset="1" stop-opacity="0"/>
</linearGradient>
<linearGradient id="paint6_linear" x1="59.5549" y1="164.864" x2="89.3316" y2="164.864" gradientUnits="userSpaceOnUse">
<stop stop-opacity="0"/>
<stop offset="1"/>
</linearGradient>
<linearGradient id="paint7_linear" x1="86.2154" y1="164.864" x2="89.3316" y2="164.864" gradientUnits="userSpaceOnUse">
<stop stop-opacity="0"/>
<stop offset="1"/>
</linearGradient>
<linearGradient id="paint8_linear" x1="89.3318" y1="129.115" x2="178.662" y2="129.115" gradientUnits="userSpaceOnUse">
<stop stop-color="white" stop-opacity="0"/>
<stop offset="0.5" stop-color="white"/>
<stop offset="1" stop-color="white" stop-opacity="0"/>
</linearGradient>
<linearGradient id="paint9_linear" x1="133.997" y1="194.554" x2="133.997" y2="128.768" gradientUnits="userSpaceOnUse">
<stop/>
<stop offset="1" stop-opacity="0"/>
</linearGradient>
<linearGradient id="paint10_linear" x1="131.568" y1="49.0874" x2="131.568" y2="130.174" gradientUnits="userSpaceOnUse">
<stop stop-color="#FF1D1D"/>
<stop offset="1" stop-color="#FF4172"/>
</linearGradient>
<linearGradient id="paint11_linear" x1="131.543" y1="53.7803" x2="131.543" y2="125.465" gradientUnits="userSpaceOnUse">
<stop stop-color="#FFC700"/>
<stop offset="1" stop-color="#FC9517"/>
</linearGradient>
</defs>
</svg>
