<svg width="268" height="195" viewBox="0 0 268 195" fill="none" xmlns="http://www.w3.org/2000/svg">
<path d="M268 146.755H178.651V192.824H268V146.755Z" fill="#FBB040"/>
<g opacity="0.75">
<g opacity="0.75">
<path opacity="0.75" d="M268 147.813H178.651V151.612H268V147.813Z" fill="#231F20"/>
</g>
</g>
<path d="M268 146.755H178.651V150.554H268V146.755Z" fill="#CC2B2B"/>
<path d="M268 146.755H178.651V147.428H268V146.755Z" fill="url(#paint0_linear)"/>
<path opacity="0.5" d="M268 146.755H178.651V192.824H268V146.755Z" fill="url(#paint1_linear)"/>
<path opacity="0.6" d="M204.619 146.755H178.651V192.824H204.619V146.755Z" fill="url(#paint2_linear)"/>
<path opacity="0.5" d="M181.055 146.755H178.651V192.824H181.055V146.755Z" fill="url(#paint3_linear)"/>
<path d="M89.3494 136.896H0V192.824H89.3494V136.896Z" fill="#FBB040"/>
<g opacity="0.75">
<g opacity="0.75">
<path opacity="0.75" d="M89.3494 137.955H0V141.754H89.3494V137.955Z" fill="#231F20"/>
</g>
</g>
<path d="M89.3494 136.896H0V140.696H89.3494V136.896Z" fill="#CC2B2B"/>
<path d="M89.3494 136.896H0V137.57H89.3494V136.896Z" fill="url(#paint4_linear)"/>
<path opacity="0.5" d="M89.3494 136.897H0V192.824H89.3494V136.897Z" fill="url(#paint5_linear)"/>
<path opacity="0.6" d="M89.3013 136.897H59.5342V192.824H89.3013V136.897Z" fill="url(#paint6_linear)"/>
<path opacity="0.5" d="M89.3492 136.897H86.2234V192.824H89.3492V136.897Z" fill="url(#paint7_linear)"/>
<path d="M178.699 128.77H89.3496V194.555H178.699V128.77Z" fill="#FBB040"/>
<g opacity="0.75">
<g opacity="0.75">
<path opacity="0.75" d="M178.698 129.828H89.3489V133.627H178.698V129.828Z" fill="#CC2B2B"/>
</g>
</g>
<path d="M178.699 128.77H89.3496V132.569H178.699V128.77Z" fill="#CC2B2B"/>
<path d="M178.699 128.77H89.3496V129.443H178.699V128.77Z" fill="url(#paint8_linear)"/>
<path opacity="0.5" d="M178.699 128.77H89.3496V194.555H178.699V128.77Z" fill="url(#paint9_linear)"/>
<path d="M121.478 167.409L112.629 152.772L99.48 163.771L112.96 81.6501L134.958 85.2889L121.478 167.409Z" fill="#C41919"/>
<path d="M163.488 171.131L150.339 160.215L141.49 174.77L127.845 92.732L149.843 89.0105L163.488 171.131Z" fill="#C41919"/>
<path opacity="0.57" d="M134.958 85.2889L112.96 81.6501L105.269 128.293C107.998 130.939 110.893 135.653 116.02 137.307C119.659 138.465 123.215 137.72 126.44 137.059L134.958 85.2889Z" fill="#AF2F2F"/>
<path opacity="0.57" d="M149.843 89.0103L127.845 92.649L135.205 136.645C138.762 137.389 142.897 138.63 147.114 137.224C150.918 135.984 153.482 133.089 155.715 130.525C156.046 130.112 156.377 129.781 156.625 129.45L149.843 89.0103Z" fill="#AF2F2F"/>
<path d="M177.3 89.6719C177.3 94.3857 173.082 98.438 171.759 102.738C170.353 107.204 171.263 112.91 168.617 116.549C165.888 120.271 160.181 121.098 156.46 123.827C152.738 126.473 150.257 131.766 145.792 133.172C141.491 134.578 136.364 131.849 131.65 131.849C126.936 131.849 121.809 134.495 117.508 133.172C113.043 131.766 110.562 126.473 106.84 123.827C103.119 121.098 97.3298 120.271 94.6834 116.549C92.0371 112.828 92.9467 107.121 91.5409 102.738C90.135 98.438 86 94.4684 86 89.6719C86 84.958 90.2177 80.9057 91.5409 76.6054C92.9467 72.1396 92.0371 66.4333 94.6834 62.7946C97.4125 59.0731 103.119 58.2461 106.84 55.517C110.562 52.8706 113.043 47.5779 117.508 46.172C121.809 44.7661 126.936 47.4952 131.65 47.4952C136.364 47.4952 141.491 44.8488 145.792 46.172C150.257 47.5779 152.738 52.8706 156.46 55.517C160.181 58.2461 165.97 59.0731 168.617 62.7946C171.263 66.516 170.353 72.2223 171.759 76.6054C173.082 80.9057 177.3 84.8753 177.3 89.6719Z" fill="#FFD34F"/>
<path d="M138.101 129.45C132.394 128.21 130.74 128.21 125.034 129.45C123.049 129.864 120.238 130.525 118.418 129.947C115.193 128.871 112.629 123.909 108.66 121.098C104.69 118.203 99.1493 117.294 97.1645 114.564C95.2624 111.918 96.0067 106.377 94.5181 101.663C93.8565 99.6785 92.7814 97.7765 91.7064 96.0398C88.233 90.1681 88.233 89.093 91.7064 83.2214C92.7814 81.4847 93.8565 79.6653 94.5181 77.5978C96.0067 72.8839 95.2624 67.3431 97.1645 64.6967C99.1493 61.9676 104.69 61.0579 108.66 58.1634C112.629 55.2689 115.193 50.307 118.418 49.3146C120.238 48.7357 122.967 49.3973 125.034 49.8108C130.74 51.0513 132.394 51.0513 138.101 49.8108C140.086 49.3973 142.897 48.7357 144.717 49.3146C147.942 50.3897 150.506 55.3516 154.475 58.1634C158.445 61.0579 163.986 61.9676 165.97 64.6967C167.873 67.3431 167.128 72.8839 168.617 77.5978C169.278 79.5826 170.354 81.4847 171.429 83.2214C174.902 89.093 174.902 90.1681 171.429 96.0398C168.617 100.754 168.121 102.242 167.542 108.031C166.88 114.73 166.384 115.391 160.181 118.121C158.279 118.948 156.295 119.857 154.475 121.098C150.506 123.992 147.942 128.954 144.717 129.947C144.22 130.112 140.168 129.947 138.101 129.45Z" fill="url(#paint10_linear)"/>
<path fill-rule="evenodd" clip-rule="evenodd" d="M95.6758 89.5891C95.6758 69.9067 111.554 53.9457 131.237 53.7803C131.26 53.799 131.283 53.8177 131.306 53.8364C133.529 53.821 135.785 54.0132 138.051 54.4287C157.504 57.9944 170.382 76.6543 166.816 96.1066C163.251 115.559 144.591 128.438 125.139 124.872C120.127 123.953 115.551 122.032 111.581 119.354C111.572 119.356 111.563 119.359 111.554 119.361C101.961 112.91 95.6758 101.994 95.6758 89.5891Z" fill="url(#paint11_linear)"/>
<path d="M142.562 82.0596C142.562 84.2894 141.886 86.1855 140.535 87.748C139.184 89.3105 137.288 90.3848 134.847 90.9707V91.1172C137.728 91.4753 139.909 92.3542 141.39 93.7539C142.871 95.1374 143.611 97.0091 143.611 99.3691C143.611 102.803 142.366 105.481 139.876 107.401C137.386 109.306 133.829 110.258 129.207 110.258C125.333 110.258 121.899 109.615 118.904 108.329V101.908C120.288 102.608 121.81 103.178 123.47 103.617C125.13 104.057 126.774 104.276 128.401 104.276C130.892 104.276 132.731 103.853 133.919 103.007C135.107 102.16 135.701 100.801 135.701 98.9297C135.701 97.2533 135.018 96.0651 133.65 95.3652C132.283 94.6654 130.102 94.3154 127.107 94.3154H124.397V88.5293H127.156C129.923 88.5293 131.941 88.1712 133.211 87.4551C134.497 86.7227 135.14 85.4775 135.14 83.7197C135.14 81.0179 133.447 79.667 130.062 79.667C128.89 79.667 127.693 79.8623 126.473 80.2529C125.268 80.6436 123.925 81.319 122.444 82.2793L118.953 77.0791C122.208 74.7354 126.09 73.5635 130.599 73.5635C134.293 73.5635 137.207 74.3122 139.339 75.8096C141.487 77.307 142.562 79.3903 142.562 82.0596Z" fill="#C31919"/>
<path d="M133.242 25.952V0.769531" stroke="#FFC700" stroke-width="10" stroke-miterlimit="10"/>
<path d="M166.313 36.8734L176.629 17.759" stroke="#FFC700" stroke-width="10" stroke-miterlimit="10"/>
<path d="M101.99 35.0536L84.9999 16.8494" stroke="#FFC700" stroke-width="10" stroke-miterlimit="10"/>
<defs>
<linearGradient id="paint0_linear" x1="178.662" y1="147.119" x2="267.992" y2="147.119" gradientUnits="userSpaceOnUse">
<stop stop-color="white" stop-opacity="0"/>
<stop offset="0.5" stop-color="white"/>
<stop offset="1" stop-color="white" stop-opacity="0"/>
</linearGradient>
<linearGradient id="paint1_linear" x1="223.327" y1="192.823" x2="223.327" y2="146.773" gradientUnits="userSpaceOnUse">
<stop/>
<stop offset="1" stop-opacity="0"/>
</linearGradient>
<linearGradient id="paint2_linear" x1="178.662" y1="169.798" x2="204.63" y2="169.798" gradientUnits="userSpaceOnUse">
<stop/>
<stop offset="1" stop-opacity="0"/>
</linearGradient>
<linearGradient id="paint3_linear" x1="178.662" y1="169.798" x2="181.085" y2="169.798" gradientUnits="userSpaceOnUse">
<stop/>
<stop offset="1" stop-opacity="0"/>
</linearGradient>
<linearGradient id="paint4_linear" x1="0.00110605" y1="137.251" x2="89.3311" y2="137.251" gradientUnits="userSpaceOnUse">
<stop stop-color="white" stop-opacity="0"/>
<stop offset="0.5" stop-color="white"/>
<stop offset="1" stop-color="white" stop-opacity="0"/>
</linearGradient>
<linearGradient id="paint5_linear" x1="44.6661" y1="192.823" x2="44.6661" y2="136.905" gradientUnits="userSpaceOnUse">
<stop/>
<stop offset="1" stop-opacity="0"/>
</linearGradient>
<linearGradient id="paint6_linear" x1="59.5544" y1="164.864" x2="89.3311" y2="164.864" gradientUnits="userSpaceOnUse">
<stop stop-opacity="0"/>
<stop offset="1"/>
</linearGradient>
<linearGradient id="paint7_linear" x1="86.2147" y1="164.864" x2="89.3309" y2="164.864" gradientUnits="userSpaceOnUse">
<stop stop-opacity="0"/>
<stop offset="1"/>
</linearGradient>
<linearGradient id="paint8_linear" x1="89.3313" y1="129.115" x2="178.662" y2="129.115" gradientUnits="userSpaceOnUse">
<stop stop-color="white" stop-opacity="0"/>
<stop offset="0.5" stop-color="white"/>
<stop offset="1" stop-color="white" stop-opacity="0"/>
</linearGradient>
<linearGradient id="paint9_linear" x1="133.996" y1="194.554" x2="133.996" y2="128.768" gradientUnits="userSpaceOnUse">
<stop/>
<stop offset="1" stop-opacity="0"/>
</linearGradient>
<linearGradient id="paint10_linear" x1="131.567" y1="49.0874" x2="131.567" y2="130.174" gradientUnits="userSpaceOnUse">
<stop stop-color="#FF1D1D"/>
<stop offset="1" stop-color="#FF4172"/>
</linearGradient>
<linearGradient id="paint11_linear" x1="131.543" y1="53.7803" x2="131.543" y2="125.465" gradientUnits="userSpaceOnUse">
<stop stop-color="#FFC700"/>
<stop offset="1" stop-color="#FC9517"/>
</linearGradient>
</defs>
</svg>
