<svg width="379" height="274" viewBox="0 0 379 274" fill="none" xmlns="http://www.w3.org/2000/svg">
<path d="M378.003 205.905H251.98V270.883H378.003V205.905Z" fill="#FBB040"/>
<g opacity="0.75">
<g opacity="0.75">
<path opacity="0.75" d="M378.002 207.397H251.98V212.755H378.002V207.397Z" fill="#231F20"/>
</g>
</g>
<path d="M378.003 205.905H251.98V211.263H378.003V205.905Z" fill="#CC2B2B"/>
<path d="M378.003 205.905H251.98V206.854H378.003V205.905Z" fill="url(#paint0_linear)"/>
<path opacity="0.5" d="M378.003 205.905H251.98V270.883H378.003V205.905Z" fill="url(#paint1_linear)"/>
<path opacity="0.6" d="M288.607 205.905H251.98V270.883H288.607V205.905Z" fill="url(#paint2_linear)"/>
<path opacity="0.5" d="M255.371 205.905H251.98V270.883H255.371V205.905Z" fill="url(#paint3_linear)"/>
<path d="M126.025 192H0.00292969V270.883H126.025V192Z" fill="#FBB040"/>
<g opacity="0.75">
<g opacity="0.75">
<path opacity="0.75" d="M126.025 193.492H0.00292969V198.851H126.025V193.492Z" fill="#231F20"/>
</g>
</g>
<path d="M126.025 192H0.00292969V197.359H126.025V192Z" fill="#CC2B2B"/>
<path d="M126.025 192H0.00292969V192.95H126.025V192Z" fill="url(#paint4_linear)"/>
<path opacity="0.5" d="M126.025 192H0.00292969V270.883H126.025V192Z" fill="url(#paint5_linear)"/>
<path opacity="0.6" d="M125.958 192H83.9727V270.883H125.958V192Z" fill="url(#paint6_linear)"/>
<path opacity="0.5" d="M126.026 192H121.617V270.883H126.026V192Z" fill="url(#paint7_linear)"/>
<path d="M252.048 180.537H126.026V273.325H252.048V180.537Z" fill="#FBB040"/>
<g opacity="0.75">
<g opacity="0.75">
<path opacity="0.75" d="M252.047 182.03H126.024V187.388H252.047V182.03Z" fill="#CC2B2B"/>
</g>
</g>
<path d="M252.048 180.537H126.026V185.896H252.048V180.537Z" fill="#CC2B2B"/>
<path d="M252.048 180.537H126.026V181.487H252.048V180.537Z" fill="url(#paint8_linear)"/>
<path opacity="0.5" d="M252.048 180.537H126.026V273.325H252.048V180.537Z" fill="url(#paint9_linear)"/>
<path d="M171.342 235.037L158.861 214.391L140.315 229.905L159.328 114.078L190.355 119.21L171.342 235.037Z" fill="#C41919"/>
<path d="M230.596 240.286L212.05 224.889L199.569 245.418L180.323 129.708L211.35 124.459L230.596 240.286Z" fill="#C41919"/>
<path opacity="0.57" d="M190.354 119.21L159.327 114.078L148.479 179.865C152.328 183.597 156.411 190.246 163.643 192.579C168.775 194.212 173.791 193.162 178.34 192.229L190.354 119.21Z" fill="#AF2F2F"/>
<path opacity="0.57" d="M211.35 124.459L180.323 129.591L190.704 191.645C195.72 192.695 201.552 194.445 207.501 192.462C212.866 190.712 216.482 186.63 219.632 183.014C220.098 182.431 220.565 181.964 220.915 181.497L211.35 124.459Z" fill="#AF2F2F"/>
<path d="M250.076 125.392C250.076 132.041 244.127 137.756 242.261 143.822C240.278 150.12 241.561 158.169 237.828 163.301C233.979 168.55 225.931 169.717 220.682 173.566C215.433 177.298 211.933 184.764 205.635 186.746C199.569 188.729 192.337 184.88 185.689 184.88C179.04 184.88 171.808 188.613 165.743 186.746C159.444 184.764 155.945 177.298 150.696 173.566C145.447 169.717 137.282 168.55 133.549 163.301C129.817 158.052 131.1 150.004 129.117 143.822C127.134 137.756 121.302 132.157 121.302 125.392C121.302 118.743 127.251 113.028 129.117 106.963C131.1 100.664 129.817 92.6154 133.549 87.4831C137.399 82.2342 145.447 81.0677 150.696 77.2185C155.945 73.4859 159.444 66.0208 165.743 64.0378C171.808 62.0549 179.04 65.9041 185.689 65.9041C192.337 65.9041 199.569 62.1715 205.635 64.0378C211.933 66.0208 215.433 73.4859 220.682 77.2185C225.931 81.0677 234.096 82.2342 237.828 87.4831C241.561 92.7321 240.278 100.78 242.261 106.963C244.127 113.028 250.076 118.627 250.076 125.392Z" fill="#FFD34F"/>
<path d="M194.787 181.498C186.739 179.748 184.406 179.748 176.358 181.498C173.558 182.081 169.592 183.014 167.026 182.197C162.477 180.681 158.861 173.682 153.262 169.717C147.664 165.634 139.848 164.351 137.049 160.502C134.366 156.769 135.416 148.954 133.316 142.305C132.383 139.506 130.867 136.823 129.351 134.374C124.452 126.092 124.452 124.576 129.351 116.294C130.867 113.845 132.383 111.278 133.316 108.362C135.416 101.714 134.366 93.8985 137.049 90.166C139.848 86.3167 147.664 85.0337 153.262 80.9512C158.861 76.8686 162.477 69.8701 167.026 68.4703C169.592 67.6538 173.442 68.587 176.358 69.1702C184.406 70.9198 186.739 70.9198 194.787 69.1702C197.587 68.587 201.553 67.6538 204.119 68.4703C208.668 69.9867 212.284 76.9853 217.883 80.9512C223.482 85.0337 231.297 86.3167 234.096 90.166C236.779 93.8985 235.729 101.714 237.829 108.362C238.762 111.162 240.278 113.845 241.795 116.294C246.694 124.576 246.694 126.092 241.795 134.374C237.829 141.022 237.129 143.122 236.312 151.287C235.379 160.735 234.679 161.668 225.931 165.517C223.248 166.684 220.449 167.967 217.883 169.717C212.284 173.799 208.668 180.798 204.119 182.197C203.419 182.431 197.703 182.197 194.787 181.498Z" fill="url(#paint10_linear)"/>
<path fill-rule="evenodd" clip-rule="evenodd" d="M134.949 125.276C134.949 97.5145 157.344 75.0023 185.106 74.769C185.138 74.7954 185.171 74.8219 185.204 74.8483C188.339 74.8265 191.521 75.0976 194.718 75.6837C222.154 80.713 240.319 107.032 235.289 134.468C230.26 161.905 203.941 180.069 176.505 175.04C169.436 173.744 162.982 171.035 157.382 167.257C157.369 167.261 157.357 167.264 157.344 167.267C143.814 158.169 134.949 142.772 134.949 125.276Z" fill="url(#paint11_linear)"/>
<path d="M162.657 143H155.113V122.346L155.187 118.952L155.309 115.241C154.055 116.494 153.185 117.316 152.696 117.707L148.595 121.003L144.957 116.462L156.456 107.307H162.657V143ZM197.325 125.153C197.325 131.387 196.3 136.001 194.249 138.996C192.215 141.991 189.073 143.488 184.825 143.488C180.707 143.488 177.599 141.942 175.499 138.85C173.416 135.757 172.374 131.192 172.374 125.153C172.374 118.854 173.391 114.216 175.426 111.237C177.46 108.243 180.593 106.745 184.825 106.745C188.943 106.745 192.052 108.308 194.151 111.433C196.267 114.558 197.325 119.131 197.325 125.153ZM179.869 125.153C179.869 129.532 180.243 132.673 180.992 134.577C181.757 136.465 183.035 137.409 184.825 137.409C186.583 137.409 187.853 136.449 188.634 134.528C189.415 132.608 189.806 129.483 189.806 125.153C189.806 120.775 189.407 117.634 188.609 115.729C187.828 113.809 186.567 112.849 184.825 112.849C183.051 112.849 181.782 113.809 181.017 115.729C180.252 117.634 179.869 120.775 179.869 125.153ZM225.89 125.153C225.89 131.387 224.864 136.001 222.813 138.996C220.779 141.991 217.638 143.488 213.39 143.488C209.272 143.488 206.163 141.942 204.063 138.85C201.98 135.757 200.938 131.192 200.938 125.153C200.938 118.854 201.956 114.216 203.99 111.237C206.025 108.243 209.158 106.745 213.39 106.745C217.507 106.745 220.616 108.308 222.716 111.433C224.832 114.558 225.89 119.131 225.89 125.153ZM208.434 125.153C208.434 129.532 208.808 132.673 209.557 134.577C210.322 136.465 211.599 137.409 213.39 137.409C215.147 137.409 216.417 136.449 217.198 134.528C217.979 132.608 218.37 129.483 218.37 125.153C218.37 120.775 217.971 117.634 217.174 115.729C216.393 113.809 215.131 112.849 213.39 112.849C211.616 112.849 210.346 113.809 209.581 115.729C208.816 117.634 208.434 120.775 208.434 125.153Z" fill="#C31919"/>
<path d="M187.934 35.5185V0" stroke="#FFC700" stroke-width="10" stroke-miterlimit="10"/>
<path d="M234.579 50.9227L249.129 23.9629" stroke="#FFC700" stroke-width="10" stroke-miterlimit="10"/>
<path d="M143.855 48.3558L119.891 22.6797" stroke="#FFC700" stroke-width="10" stroke-miterlimit="10"/>
<defs>
<linearGradient id="paint0_linear" x1="251.995" y1="206.419" x2="377.99" y2="206.419" gradientUnits="userSpaceOnUse">
<stop stop-color="white" stop-opacity="0"/>
<stop offset="0.5" stop-color="white"/>
<stop offset="1" stop-color="white" stop-opacity="0"/>
</linearGradient>
<linearGradient id="paint1_linear" x1="314.993" y1="270.881" x2="314.993" y2="205.93" gradientUnits="userSpaceOnUse">
<stop/>
<stop offset="1" stop-opacity="0"/>
</linearGradient>
<linearGradient id="paint2_linear" x1="251.995" y1="238.406" x2="288.622" y2="238.406" gradientUnits="userSpaceOnUse">
<stop/>
<stop offset="1" stop-opacity="0"/>
</linearGradient>
<linearGradient id="paint3_linear" x1="251.995" y1="238.406" x2="255.414" y2="238.406" gradientUnits="userSpaceOnUse">
<stop/>
<stop offset="1" stop-opacity="0"/>
</linearGradient>
<linearGradient id="paint4_linear" x1="0.00448971" y1="192.501" x2="126" y2="192.501" gradientUnits="userSpaceOnUse">
<stop stop-color="white" stop-opacity="0"/>
<stop offset="0.5" stop-color="white"/>
<stop offset="1" stop-color="white" stop-opacity="0"/>
</linearGradient>
<linearGradient id="paint5_linear" x1="63.0021" y1="270.881" x2="63.0021" y2="192.012" gradientUnits="userSpaceOnUse">
<stop/>
<stop offset="1" stop-opacity="0"/>
</linearGradient>
<linearGradient id="paint6_linear" x1="84.0012" y1="231.447" x2="126" y2="231.447" gradientUnits="userSpaceOnUse">
<stop stop-opacity="0"/>
<stop offset="1"/>
</linearGradient>
<linearGradient id="paint7_linear" x1="121.605" y1="231.447" x2="126" y2="231.447" gradientUnits="userSpaceOnUse">
<stop stop-opacity="0"/>
<stop offset="1"/>
</linearGradient>
<linearGradient id="paint8_linear" x1="126" y1="181.024" x2="251.996" y2="181.024" gradientUnits="userSpaceOnUse">
<stop stop-color="white" stop-opacity="0"/>
<stop offset="0.5" stop-color="white"/>
<stop offset="1" stop-color="white" stop-opacity="0"/>
</linearGradient>
<linearGradient id="paint9_linear" x1="188.998" y1="273.323" x2="188.998" y2="180.536" gradientUnits="userSpaceOnUse">
<stop/>
<stop offset="1" stop-opacity="0"/>
</linearGradient>
<linearGradient id="paint10_linear" x1="185.573" y1="68.1499" x2="185.573" y2="182.518" gradientUnits="userSpaceOnUse">
<stop stop-color="#FF1D1D"/>
<stop offset="1" stop-color="#FF4172"/>
</linearGradient>
<linearGradient id="paint11_linear" x1="185.538" y1="74.769" x2="185.538" y2="175.877" gradientUnits="userSpaceOnUse">
<stop stop-color="#FFC700"/>
<stop offset="1" stop-color="#FC9517"/>
</linearGradient>
</defs>
</svg>
