<svg width="246" height="235" viewBox="0 0 246 235" fill="none" xmlns="http://www.w3.org/2000/svg">
<path d="M0 116.002C0 127.151 9.01447 136.166 20.1639 136.166H66.8968H87.7724C88.2469 138.301 88.4841 140.673 88.0096 143.283C86.8235 149.688 82.5535 162.498 75.9113 174.359C70.9296 183.136 68.7946 224.65 78.0463 230.818C87.298 237.223 99.8708 234.851 106.039 225.599L117.425 183.848L140.199 150.874C144.231 144.943 165.581 120.272 165.581 120.272V10.2006L130.235 0H66.8968H51.9518C40.8023 0 31.7879 9.01446 31.7879 20.1639C31.7879 22.7734 32.2623 25.1456 33.2112 27.5178C24.4339 29.6528 17.7917 37.4812 17.7917 46.9701C17.7917 52.9007 20.4012 58.1196 24.4339 61.6779C15.1823 63.5757 8.06558 71.6413 8.06558 81.3674C8.06558 87.298 10.675 92.5169 14.7078 96.3124C6.40502 99.1591 0 106.75 0 116.002Z" fill="#F3CAA5"/>
<path d="M236 0H182.461C176.939 0 172.461 4.47715 172.461 10V120.235C172.461 125.758 176.939 130.235 182.461 130.235H236C241.523 130.235 246 125.758 246 120.235V10C246 4.47715 241.523 0 236 0Z" fill="url(#paint0_linear)"/>
<path d="M44.418 77.8242C44.418 67.8633 45.834 59.8066 48.666 53.6543C51.5306 47.4694 55.7298 42.9121 61.2637 39.9824C66.8301 37.0527 73.6823 35.5879 81.8203 35.5879C84.7174 35.5879 88.1029 35.8646 91.9766 36.418V51.5059C88.7214 50.8874 85.1895 50.5781 81.3809 50.5781C74.9355 50.5781 70.1341 51.9941 66.9766 54.8262C63.819 57.6582 62.0938 62.2806 61.8008 68.6934H62.3867C65.3164 63.1595 70.0202 60.3926 76.498 60.3926C82.8457 60.3926 87.7611 62.4434 91.2441 66.5449C94.7598 70.6139 96.5176 76.2943 96.5176 83.5859C96.5176 91.431 94.304 97.6322 89.877 102.189C85.4499 106.714 79.265 108.977 71.3223 108.977C62.8913 108.977 56.2995 106.242 51.5469 100.773C46.7943 95.3047 44.418 87.6549 44.418 77.8242ZM70.8828 93.6934C72.9336 93.6934 74.5938 92.9284 75.8633 91.3984C77.1654 89.8359 77.8164 87.362 77.8164 83.9766C77.8164 78.1823 75.5703 75.2852 71.0781 75.2852C68.8646 75.2852 67.0579 76.0339 65.6582 77.5312C64.291 79.0286 63.6074 80.8516 63.6074 83C63.6074 86.125 64.2747 88.6966 65.6094 90.7148C66.944 92.7005 68.7018 93.6934 70.8828 93.6934ZM149.672 72.4043C149.672 85.0345 147.556 94.2956 143.324 100.188C139.092 106.047 132.615 108.977 123.891 108.977C115.362 108.977 108.933 105.917 104.604 99.7969C100.274 93.6445 98.1094 84.5137 98.1094 72.4043C98.1094 59.709 100.225 50.3991 104.457 44.4746C108.689 38.5501 115.167 35.5879 123.891 35.5879C132.387 35.5879 138.799 38.6803 143.129 44.8652C147.491 51.0176 149.672 60.1973 149.672 72.4043ZM117.299 72.4043C117.299 80.4772 117.803 86.0273 118.812 89.0547C119.822 92.082 121.514 93.5957 123.891 93.5957C126.299 93.5957 127.992 92.0332 128.969 88.9082C129.978 85.7832 130.482 80.2819 130.482 72.4043C130.482 64.4941 129.978 58.9603 128.969 55.8027C127.96 52.6126 126.267 51.0176 123.891 51.0176C121.514 51.0176 119.822 52.5475 118.812 55.6074C117.803 58.6673 117.299 64.2663 117.299 72.4043Z" fill="url(#paint1_linear)"/>
<defs>
<linearGradient id="paint0_linear" x1="204.428" y1="-18.419" x2="207.195" y2="148.616" gradientUnits="userSpaceOnUse">
<stop stop-color="#D91B24"/>
<stop offset="1" stop-color="#393C5A"/>
</linearGradient>
<linearGradient id="paint1_linear" x1="97.5" y1="1" x2="97.5" y2="137" gradientUnits="userSpaceOnUse">
<stop stop-color="#FFC700"/>
<stop offset="1" stop-color="#FF4070"/>
</linearGradient>
</defs>
</svg>
