<svg width="246" height="238" viewBox="0 0 246 238" fill="none" xmlns="http://www.w3.org/2000/svg">
<path d="M0 119.002C0 130.151 9.01447 139.166 20.1639 139.166H66.8968H87.7724C88.2469 141.301 88.4841 143.673 88.0096 146.283C86.8235 152.688 82.5535 165.498 75.9113 177.359C70.9296 186.136 68.7946 227.65 78.0463 233.818C87.298 240.223 99.8708 237.851 106.039 228.599L117.425 186.848L140.199 153.874C144.231 147.943 165.581 123.272 165.581 123.272V13.2006L130.235 3H66.8968H51.9518C40.8023 3 31.7879 12.0145 31.7879 23.1639C31.7879 25.7734 32.2623 28.1456 33.2112 30.5178C24.4339 32.6528 17.7917 40.4812 17.7917 49.9701C17.7917 55.9007 20.4012 61.1196 24.4339 64.6779C15.1823 66.5757 8.06558 74.6413 8.06558 84.3674C8.06558 90.298 10.675 95.5169 14.7078 99.3124C6.40502 102.159 0 109.75 0 119.002Z" fill="#F3CAA5"/>
<path d="M236 3H182.461C176.939 3 172.461 7.47715 172.461 13V123.235C172.461 128.758 176.939 133.235 182.461 133.235H236C241.523 133.235 246 128.758 246 123.235V13C246 7.47715 241.523 3 236 3Z" fill="url(#paint0_linear)"/>
<path d="M122.281 71.4043C122.281 84.0345 120.165 93.2956 115.934 99.1875C111.702 105.047 105.224 107.977 96.5 107.977C87.9714 107.977 81.5423 104.917 77.2129 98.7969C72.8835 92.6445 70.7188 83.5137 70.7188 71.4043C70.7188 58.709 72.8346 49.3991 77.0664 43.4746C81.2982 37.5501 87.776 34.5879 96.5 34.5879C104.996 34.5879 111.409 37.6803 115.738 43.8652C120.1 50.0176 122.281 59.1973 122.281 71.4043ZM89.9082 71.4043C89.9082 79.4772 90.4128 85.0273 91.4219 88.0547C92.431 91.082 94.1237 92.5957 96.5 92.5957C98.9089 92.5957 100.602 91.0332 101.578 87.9082C102.587 84.7832 103.092 79.2819 103.092 71.4043C103.092 63.4941 102.587 57.9603 101.578 54.8027C100.569 51.6126 98.8763 50.0176 96.5 50.0176C94.1237 50.0176 92.431 51.5475 91.4219 54.6074C90.4128 57.6673 89.9082 63.2663 89.9082 71.4043Z" fill="url(#paint1_linear)"/>
<defs>
<linearGradient id="paint0_linear" x1="204.428" y1="-15.419" x2="207.195" y2="151.616" gradientUnits="userSpaceOnUse">
<stop stop-color="#D91B24"/>
<stop offset="1" stop-color="#393C5A"/>
</linearGradient>
<linearGradient id="paint1_linear" x1="96.5" y1="0" x2="96.5" y2="136" gradientUnits="userSpaceOnUse">
<stop stop-color="#FFC700"/>
<stop offset="1" stop-color="#FF4070"/>
</linearGradient>
</defs>
</svg>
