<svg width="246" height="235" viewBox="0 0 246 235" fill="none" xmlns="http://www.w3.org/2000/svg">
<path d="M0 116.002C0 127.151 9.01447 136.166 20.1639 136.166H66.8968H87.7724C88.2469 138.301 88.4841 140.673 88.0096 143.283C86.8235 149.688 82.5535 162.498 75.9113 174.359C70.9296 183.136 68.7946 224.65 78.0463 230.818C87.298 237.223 99.8708 234.851 106.039 225.599L117.425 183.848L140.199 150.874C144.231 144.943 165.581 120.272 165.581 120.272V10.2006L130.235 0H66.8968H51.9518C40.8023 0 31.7879 9.01446 31.7879 20.1639C31.7879 22.7734 32.2623 25.1456 33.2112 27.5178C24.4339 29.6528 17.7917 37.4812 17.7917 46.9701C17.7917 52.9007 20.4012 58.1196 24.4339 61.6779C15.1823 63.5757 8.06558 71.6413 8.06558 81.3674C8.06558 87.298 10.675 92.5169 14.7078 96.3124C6.40502 99.1591 0 106.75 0 116.002Z" fill="#F3CAA5"/>
<path d="M236 0H182.461C176.939 0 172.461 4.47715 172.461 10V120.235C172.461 125.758 176.939 130.235 182.461 130.235H236C241.523 130.235 246 125.758 246 120.235V10C246 4.47715 241.523 0 236 0Z" fill="url(#paint0_linear)"/>
<path d="M93.3926 52.0918C93.3926 56.5189 92.0417 60.3275 89.3398 63.5176C86.638 66.6751 82.7318 68.9701 77.6211 70.4023V70.6953C89.5352 72.1927 95.4922 77.8242 95.4922 87.5898C95.4922 94.2305 92.8555 99.4551 87.582 103.264C82.3411 107.072 75.0495 108.977 65.707 108.977C61.8659 108.977 58.3014 108.7 55.0137 108.146C51.7585 107.593 48.2266 106.584 44.418 105.119V89.1035C47.543 90.6986 50.7168 91.8867 53.9395 92.668C57.1947 93.4167 60.1895 93.791 62.9238 93.791C67.1556 93.791 70.2318 93.2051 72.1523 92.0332C74.1055 90.8288 75.082 88.957 75.082 86.418C75.082 84.4648 74.5775 82.9674 73.5684 81.9258C72.5592 80.8516 70.9316 80.054 68.6855 79.5332C66.4395 78.9798 63.5098 78.7031 59.8965 78.7031H55.502V64.2012H59.9941C69.7923 64.2012 74.6914 61.6947 74.6914 56.6816C74.6914 54.7936 73.959 53.3939 72.4941 52.4824C71.0618 51.571 69.125 51.1152 66.6836 51.1152C62.1263 51.1152 57.4062 52.6452 52.5234 55.7051L44.5156 42.8145C48.2917 40.2103 52.1491 38.3548 56.0879 37.248C60.0592 36.1413 64.6003 35.5879 69.7109 35.5879C77.1003 35.5879 82.8945 37.0527 87.0938 39.9824C91.293 42.9121 93.3926 46.9486 93.3926 52.0918ZM149.672 72.4043C149.672 85.0345 147.556 94.2956 143.324 100.188C139.092 106.047 132.615 108.977 123.891 108.977C115.362 108.977 108.933 105.917 104.604 99.7969C100.274 93.6445 98.1094 84.5137 98.1094 72.4043C98.1094 59.709 100.225 50.3991 104.457 44.4746C108.689 38.5501 115.167 35.5879 123.891 35.5879C132.387 35.5879 138.799 38.6803 143.129 44.8652C147.491 51.0176 149.672 60.1973 149.672 72.4043ZM117.299 72.4043C117.299 80.4772 117.803 86.0273 118.812 89.0547C119.822 92.082 121.514 93.5957 123.891 93.5957C126.299 93.5957 127.992 92.0332 128.969 88.9082C129.978 85.7832 130.482 80.2819 130.482 72.4043C130.482 64.4941 129.978 58.9603 128.969 55.8027C127.96 52.6126 126.267 51.0176 123.891 51.0176C121.514 51.0176 119.822 52.5475 118.812 55.6074C117.803 58.6673 117.299 64.2663 117.299 72.4043Z" fill="url(#paint1_linear)"/>
<defs>
<linearGradient id="paint0_linear" x1="204.428" y1="-18.419" x2="207.195" y2="148.616" gradientUnits="userSpaceOnUse">
<stop stop-color="#D91B24"/>
<stop offset="1" stop-color="#393C5A"/>
</linearGradient>
<linearGradient id="paint1_linear" x1="97.5" y1="1" x2="97.5" y2="137" gradientUnits="userSpaceOnUse">
<stop stop-color="#FFC700"/>
<stop offset="1" stop-color="#FF4070"/>
</linearGradient>
</defs>
</svg>
