<svg width="267" height="267" viewBox="0 0 267 267" fill="none" xmlns="http://www.w3.org/2000/svg">
<circle cx="133.5" cy="133.5" r="133.5" fill="url(#paint0_linear)"/>
<path d="M226 41H116.553V134.429H226V41Z" fill="#2C5955" stroke="white" stroke-width="3.9279" stroke-miterlimit="10" stroke-linecap="round" stroke-linejoin="round"/>
<path d="M150.447 134.429H41V227.858H150.447V134.429Z" fill="#2C5955" stroke="white" stroke-width="3.9279" stroke-miterlimit="10" stroke-linecap="round" stroke-linejoin="round"/>
<path d="M226 134.429C224.425 136.874 150.447 227.858 150.447 227.858H41L116.553 134.429H226Z" fill="#204542" stroke="white" stroke-width="3.9279" stroke-miterlimit="10" stroke-linecap="round" stroke-linejoin="round"/>
<path d="M116.554 41C116.554 41 115.847 132.039 116.554 134.429C117.26 136.874 41 227.859 41 227.859V134.429L116.554 41Z" fill="#2C5955" stroke="white" stroke-width="3.9279" stroke-miterlimit="10" stroke-linecap="round" stroke-linejoin="round"/>
<circle cx="133.5" cy="133.5" r="49.5" fill="#FFD34F"/>
<path d="M99.6538 159L118.038 117.508H94.8564V105.533H133.492V114.066L114.632 159H99.6538ZM156.512 123.917C159.588 123.917 162.359 124.637 164.825 126.078C167.315 127.494 169.244 129.508 170.611 132.12C172.002 134.732 172.698 137.748 172.698 141.166C172.698 147.147 170.892 151.737 167.278 154.935C163.689 158.133 158.245 159.732 150.945 159.732C144.695 159.732 139.593 158.768 135.638 156.839V144.974C137.762 145.951 140.154 146.756 142.815 147.391C145.501 148.026 147.808 148.343 149.737 148.343C152.422 148.343 154.485 147.782 155.926 146.659C157.366 145.511 158.086 143.827 158.086 141.605C158.086 139.554 157.354 137.955 155.889 136.808C154.424 135.66 152.203 135.086 149.224 135.086C146.954 135.086 144.5 135.514 141.863 136.368L136.553 133.731L138.567 105.46H169.109V117.508H150.872L150.213 124.576C152.117 124.21 153.472 124.015 154.278 123.99C155.083 123.941 155.828 123.917 156.512 123.917Z" fill="#2E5A56"/>
<defs>
<linearGradient id="paint0_linear" x1="133.5" y1="0" x2="133.5" y2="267" gradientUnits="userSpaceOnUse">
<stop stop-color="#FFC700"/>
<stop offset="1" stop-color="#FC9517"/>
</linearGradient>
</defs>
</svg>
