<svg width="267" height="267" viewBox="0 0 267 267" fill="none" xmlns="http://www.w3.org/2000/svg">
<circle cx="133.5" cy="133.5" r="133.5" fill="url(#paint0_linear)"/>
<path d="M226 41H116.553V134.429H226V41Z" fill="#2C5955" stroke="white" stroke-width="3.9279" stroke-miterlimit="10" stroke-linecap="round" stroke-linejoin="round"/>
<path d="M150.447 134.429H41V227.858H150.447V134.429Z" fill="#2C5955" stroke="white" stroke-width="3.9279" stroke-miterlimit="10" stroke-linecap="round" stroke-linejoin="round"/>
<path d="M226 134.429C224.425 136.874 150.447 227.858 150.447 227.858H41L116.553 134.429H226Z" fill="#204542" stroke="white" stroke-width="3.9279" stroke-miterlimit="10" stroke-linecap="round" stroke-linejoin="round"/>
<path d="M116.554 41C116.554 41 115.847 132.039 116.554 134.429C117.26 136.874 41 227.859 41 227.859V134.429L116.554 41Z" fill="#2C5955" stroke="white" stroke-width="3.9279" stroke-miterlimit="10" stroke-linecap="round" stroke-linejoin="round"/>
<circle cx="133.5" cy="133.5" r="49.5" fill="#FFD34F"/>
<path d="M133.089 159H94.2339V149.479L107.308 136.258C111.043 132.352 113.484 129.691 114.632 128.275C115.779 126.834 116.573 125.602 117.012 124.576C117.476 123.551 117.708 122.477 117.708 121.354C117.708 119.962 117.256 118.863 116.353 118.058C115.45 117.252 114.18 116.849 112.544 116.849C110.86 116.849 109.151 117.337 107.417 118.314C105.708 119.266 103.768 120.682 101.595 122.562L93.6479 113.26C96.4067 110.794 98.7261 109.037 100.606 107.987C102.486 106.913 104.524 106.095 106.722 105.533C108.943 104.972 111.434 104.691 114.192 104.691C117.659 104.691 120.748 105.301 123.458 106.522C126.192 107.743 128.304 109.488 129.793 111.759C131.307 114.005 132.063 116.532 132.063 119.339C132.063 121.439 131.795 123.38 131.258 125.162C130.745 126.944 129.939 128.702 128.841 130.436C127.742 132.145 126.277 133.951 124.446 135.855C122.64 137.76 118.77 141.373 112.837 146.695V147.062H133.089V159ZM173.504 132.303C173.504 141.776 171.917 148.722 168.743 153.141C165.569 157.535 160.711 159.732 154.168 159.732C147.771 159.732 142.95 157.438 139.703 152.848C136.456 148.233 134.832 141.385 134.832 132.303C134.832 122.782 136.419 115.799 139.593 111.356C142.767 106.913 147.625 104.691 154.168 104.691C160.54 104.691 165.35 107.01 168.597 111.649C171.868 116.263 173.504 123.148 173.504 132.303ZM149.224 132.303C149.224 138.358 149.603 142.521 150.359 144.791C151.116 147.062 152.386 148.197 154.168 148.197C155.975 148.197 157.244 147.025 157.977 144.681C158.733 142.337 159.112 138.211 159.112 132.303C159.112 126.371 158.733 122.22 157.977 119.852C157.22 117.459 155.95 116.263 154.168 116.263C152.386 116.263 151.116 117.411 150.359 119.706C149.603 122 149.224 126.2 149.224 132.303Z" fill="#2E5A56"/>
<defs>
<linearGradient id="paint0_linear" x1="133.5" y1="0" x2="133.5" y2="267" gradientUnits="userSpaceOnUse">
<stop stop-color="#FFC700"/>
<stop offset="1" stop-color="#FC9517"/>
</linearGradient>
</defs>
</svg>
