<svg width="267" height="267" viewBox="0 0 267 267" fill="none" xmlns="http://www.w3.org/2000/svg">
<circle cx="133.5" cy="133.5" r="133.5" fill="url(#paint0_linear)"/>
<path d="M226 41H116.553V134.429H226V41Z" fill="#2C5955" stroke="white" stroke-width="3.9279" stroke-miterlimit="10" stroke-linecap="round" stroke-linejoin="round"/>
<path d="M150.447 134.429H41V227.858H150.447V134.429Z" fill="#2C5955" stroke="white" stroke-width="3.9279" stroke-miterlimit="10" stroke-linecap="round" stroke-linejoin="round"/>
<path d="M226 134.429C224.425 136.874 150.447 227.858 150.447 227.858H41L116.553 134.429H226Z" fill="#204542" stroke="white" stroke-width="3.9279" stroke-miterlimit="10" stroke-linecap="round" stroke-linejoin="round"/>
<path d="M116.554 41C116.554 41 115.847 132.039 116.554 134.429C117.26 136.874 41 227.859 41 227.859V134.429L116.554 41Z" fill="#2C5955" stroke="white" stroke-width="3.9279" stroke-miterlimit="10" stroke-linecap="round" stroke-linejoin="round"/>
<circle cx="143" cy="124" r="59" fill="#FFD34F"/>
<path d="M116.277 149H102.963V123.301C102.963 120.18 103.029 117.324 103.162 114.734C102.343 115.73 101.325 116.771 100.107 117.855L94.5957 122.404L87.7891 114.037L104.457 100.457H116.277V149ZM143.491 117.191C146.28 117.191 148.792 117.844 151.028 119.15C153.286 120.434 155.034 122.26 156.274 124.629C157.536 126.997 158.166 129.731 158.166 132.83C158.166 138.253 156.528 142.415 153.252 145.314C149.998 148.214 145.062 149.664 138.444 149.664C132.777 149.664 128.151 148.79 124.565 147.041V136.283C126.491 137.169 128.66 137.899 131.073 138.475C133.508 139.05 135.599 139.338 137.348 139.338C139.783 139.338 141.653 138.829 142.959 137.811C144.265 136.77 144.918 135.243 144.918 133.229C144.918 131.369 144.254 129.919 142.926 128.879C141.598 127.839 139.584 127.318 136.883 127.318C134.825 127.318 132.6 127.706 130.209 128.48L125.395 126.09L127.221 100.457H154.912V111.381H138.377L137.78 117.789C139.506 117.457 140.735 117.28 141.465 117.258C142.196 117.214 142.871 117.191 143.491 117.191ZM195.341 124.795C195.341 133.383 193.902 139.681 191.024 143.688C188.147 147.672 183.742 149.664 177.809 149.664C172.01 149.664 167.638 147.583 164.694 143.422C161.75 139.238 160.278 133.029 160.278 124.795C160.278 116.162 161.717 109.831 164.595 105.803C167.472 101.774 171.877 99.7598 177.809 99.7598C183.587 99.7598 187.947 101.863 190.891 106.068C193.858 110.252 195.341 116.494 195.341 124.795ZM173.327 124.795C173.327 130.285 173.67 134.059 174.356 136.117C175.042 138.176 176.193 139.205 177.809 139.205C179.447 139.205 180.598 138.143 181.262 136.018C181.949 133.893 182.292 130.152 182.292 124.795C182.292 119.416 181.949 115.653 181.262 113.506C180.576 111.337 179.425 110.252 177.809 110.252C176.193 110.252 175.042 111.292 174.356 113.373C173.67 115.454 173.327 119.261 173.327 124.795Z" fill="#2E5A56"/>
<defs>
<linearGradient id="paint0_linear" x1="133.5" y1="0" x2="133.5" y2="267" gradientUnits="userSpaceOnUse">
<stop stop-color="#FFC700"/>
<stop offset="1" stop-color="#FC9517"/>
</linearGradient>
</defs>
</svg>
