<svg width="267" height="267" viewBox="0 0 267 267" fill="none" xmlns="http://www.w3.org/2000/svg">
<circle cx="133.5" cy="133.5" r="133.5" fill="url(#paint0_linear)"/>
<path d="M226 41H116.553V134.429H226V41Z" fill="#2C5955" stroke="white" stroke-width="3.9279" stroke-miterlimit="10" stroke-linecap="round" stroke-linejoin="round"/>
<path d="M150.447 134.429H41V227.858H150.447V134.429Z" fill="#2C5955" stroke="white" stroke-width="3.9279" stroke-miterlimit="10" stroke-linecap="round" stroke-linejoin="round"/>
<path d="M226 134.429C224.425 136.874 150.447 227.858 150.447 227.858H41L116.553 134.429H226Z" fill="#204542" stroke="white" stroke-width="3.9279" stroke-miterlimit="10" stroke-linecap="round" stroke-linejoin="round"/>
<path d="M116.554 41C116.554 41 115.847 132.039 116.554 134.429C117.26 136.874 41 227.859 41 227.859V134.429L116.554 41Z" fill="#2C5955" stroke="white" stroke-width="3.9279" stroke-miterlimit="10" stroke-linecap="round" stroke-linejoin="round"/>
<circle cx="133.5" cy="133.5" r="49.5" fill="#FFD34F"/>
<path d="M158.393 111.092C158.393 115.519 157.042 119.327 154.34 122.518C151.638 125.675 147.732 127.97 142.621 129.402V129.695C154.535 131.193 160.492 136.824 160.492 146.59C160.492 153.23 157.855 158.455 152.582 162.264C147.341 166.072 140.049 167.977 130.707 167.977C126.866 167.977 123.301 167.7 120.014 167.146C116.758 166.593 113.227 165.584 109.418 164.119V148.104C112.543 149.699 115.717 150.887 118.939 151.668C122.195 152.417 125.189 152.791 127.924 152.791C132.156 152.791 135.232 152.205 137.152 151.033C139.105 149.829 140.082 147.957 140.082 145.418C140.082 143.465 139.577 141.967 138.568 140.926C137.559 139.852 135.932 139.054 133.686 138.533C131.439 137.98 128.51 137.703 124.896 137.703H120.502V123.201H124.994C134.792 123.201 139.691 120.695 139.691 115.682C139.691 113.794 138.959 112.394 137.494 111.482C136.062 110.571 134.125 110.115 131.684 110.115C127.126 110.115 122.406 111.645 117.523 114.705L109.516 101.814C113.292 99.2103 117.149 97.3548 121.088 96.248C125.059 95.1413 129.6 94.5879 134.711 94.5879C142.1 94.5879 147.895 96.0527 152.094 98.9824C156.293 101.912 158.393 105.949 158.393 111.092Z" fill="#2E5A56"/>
<defs>
<linearGradient id="paint0_linear" x1="133.5" y1="0" x2="133.5" y2="267" gradientUnits="userSpaceOnUse">
<stop stop-color="#FFC700"/>
<stop offset="1" stop-color="#FC9517"/>
</linearGradient>
</defs>
</svg>
