<svg width="267" height="267" viewBox="0 0 267 267" fill="none" xmlns="http://www.w3.org/2000/svg">
<circle cx="133.5" cy="133.5" r="133.5" fill="url(#paint0_linear)"/>
<path d="M226 41H116.553V134.429H226V41Z" fill="#2C5955" stroke="white" stroke-width="3.9279" stroke-miterlimit="10" stroke-linecap="round" stroke-linejoin="round"/>
<path d="M150.447 134.429H41V227.858H150.447V134.429Z" fill="#2C5955" stroke="white" stroke-width="3.9279" stroke-miterlimit="10" stroke-linecap="round" stroke-linejoin="round"/>
<path d="M226 134.429C224.425 136.874 150.447 227.858 150.447 227.858H41L116.553 134.429H226Z" fill="#204542" stroke="white" stroke-width="3.9279" stroke-miterlimit="10" stroke-linecap="round" stroke-linejoin="round"/>
<path d="M116.554 41C116.554 41 115.847 132.039 116.554 134.429C117.26 136.874 41 227.859 41 227.859V134.429L116.554 41Z" fill="#2C5955" stroke="white" stroke-width="3.9279" stroke-miterlimit="10" stroke-linecap="round" stroke-linejoin="round"/>
<circle cx="133.5" cy="133.5" r="49.5" fill="#FFD34F"/>
<path d="M122.797 160H107.133V129.766C107.133 126.094 107.211 122.734 107.367 119.688C106.404 120.859 105.206 122.083 103.773 123.359L97.2891 128.711L89.2812 118.867L108.891 102.891H122.797V160ZM172.938 131.523C172.938 141.628 171.245 149.036 167.859 153.75C164.474 158.438 159.292 160.781 152.312 160.781C145.49 160.781 140.346 158.333 136.883 153.438C133.419 148.516 131.688 141.211 131.688 131.523C131.688 121.367 133.38 113.919 136.766 109.18C140.151 104.44 145.333 102.07 152.312 102.07C159.109 102.07 164.24 104.544 167.703 109.492C171.193 114.414 172.938 121.758 172.938 131.523ZM147.039 131.523C147.039 137.982 147.443 142.422 148.25 144.844C149.057 147.266 150.411 148.477 152.312 148.477C154.24 148.477 155.594 147.227 156.375 144.727C157.182 142.227 157.586 137.826 157.586 131.523C157.586 125.195 157.182 120.768 156.375 118.242C155.568 115.69 154.214 114.414 152.312 114.414C150.411 114.414 149.057 115.638 148.25 118.086C147.443 120.534 147.039 125.013 147.039 131.523Z" fill="#2E5A56"/>
<defs>
<linearGradient id="paint0_linear" x1="133.5" y1="0" x2="133.5" y2="267" gradientUnits="userSpaceOnUse">
<stop stop-color="#FFC700"/>
<stop offset="1" stop-color="#FC9517"/>
</linearGradient>
</defs>
</svg>
