<svg width="267" height="267" viewBox="0 0 267 267" fill="none" xmlns="http://www.w3.org/2000/svg">
<circle cx="133.5" cy="133.5" r="133.5" fill="url(#paint0_linear)"/>
<path d="M226 41H116.553V134.429H226V41Z" fill="#2C5955" stroke="white" stroke-width="3.9279" stroke-miterlimit="10" stroke-linecap="round" stroke-linejoin="round"/>
<path d="M150.447 134.429H41V227.858H150.447V134.429Z" fill="#2C5955" stroke="white" stroke-width="3.9279" stroke-miterlimit="10" stroke-linecap="round" stroke-linejoin="round"/>
<path d="M226 134.429C224.425 136.874 150.447 227.858 150.447 227.858H41L116.553 134.429H226Z" fill="#204542" stroke="white" stroke-width="3.9279" stroke-miterlimit="10" stroke-linecap="round" stroke-linejoin="round"/>
<path d="M116.554 41C116.554 41 115.847 132.039 116.554 134.429C117.26 136.874 41 227.859 41 227.859V134.429L116.554 41Z" fill="#2C5955" stroke="white" stroke-width="3.9279" stroke-miterlimit="10" stroke-linecap="round" stroke-linejoin="round"/>
<circle cx="133.5" cy="133.5" r="49.5" fill="#FFD34F"/>
<path d="M122.797 160H107.133V129.766C107.133 126.094 107.211 122.734 107.367 119.688C106.404 120.859 105.206 122.083 103.773 123.359L97.2891 128.711L89.2812 118.867L108.891 102.891H122.797V160ZM154.812 122.578C158.094 122.578 161.049 123.346 163.68 124.883C166.336 126.393 168.393 128.542 169.852 131.328C171.336 134.115 172.078 137.331 172.078 140.977C172.078 147.357 170.151 152.253 166.297 155.664C162.469 159.076 156.661 160.781 148.875 160.781C142.208 160.781 136.766 159.753 132.547 157.695V145.039C134.812 146.081 137.365 146.94 140.203 147.617C143.068 148.294 145.529 148.633 147.586 148.633C150.451 148.633 152.651 148.034 154.188 146.836C155.724 145.612 156.492 143.815 156.492 141.445C156.492 139.258 155.711 137.552 154.148 136.328C152.586 135.104 150.216 134.492 147.039 134.492C144.617 134.492 142 134.948 139.188 135.859L133.523 133.047L135.672 102.891H168.25V115.742H148.797L148.094 123.281C150.125 122.891 151.57 122.682 152.43 122.656C153.289 122.604 154.083 122.578 154.812 122.578Z" fill="#2E5A56"/>
<defs>
<linearGradient id="paint0_linear" x1="133.5" y1="0" x2="133.5" y2="267" gradientUnits="userSpaceOnUse">
<stop stop-color="#FFC700"/>
<stop offset="1" stop-color="#FC9517"/>
</linearGradient>
</defs>
</svg>
