<svg width="267" height="267" viewBox="0 0 267 267" fill="none" xmlns="http://www.w3.org/2000/svg">
<circle cx="133.5" cy="133.5" r="133.5" fill="url(#paint0_linear)"/>
<path d="M226 41H116.553V134.429H226V41Z" fill="#2C5955" stroke="white" stroke-width="3.9279" stroke-miterlimit="10" stroke-linecap="round" stroke-linejoin="round"/>
<path d="M150.447 134.429H41V227.858H150.447V134.429Z" fill="#2C5955" stroke="white" stroke-width="3.9279" stroke-miterlimit="10" stroke-linecap="round" stroke-linejoin="round"/>
<path d="M226 134.429C224.425 136.874 150.447 227.858 150.447 227.858H41L116.553 134.429H226Z" fill="#204542" stroke="white" stroke-width="3.9279" stroke-miterlimit="10" stroke-linecap="round" stroke-linejoin="round"/>
<path d="M116.554 41C116.554 41 115.847 132.039 116.554 134.429C117.26 136.874 41 227.859 41 227.859V134.429L116.554 41Z" fill="#2C5955" stroke="white" stroke-width="3.9279" stroke-miterlimit="10" stroke-linecap="round" stroke-linejoin="round"/>
<circle cx="143" cy="124" r="59" fill="#FFD34F"/>
<path d="M107.047 117.191C109.836 117.191 112.348 117.844 114.584 119.15C116.842 120.434 118.59 122.26 119.83 124.629C121.092 126.997 121.723 129.731 121.723 132.83C121.723 138.253 120.085 142.415 116.809 145.314C113.555 148.214 108.618 149.664 102 149.664C96.3333 149.664 91.707 148.79 88.1211 147.041V136.283C90.0469 137.169 92.2161 137.899 94.6289 138.475C97.0638 139.05 99.1556 139.338 100.904 139.338C103.339 139.338 105.21 138.829 106.516 137.811C107.822 136.77 108.475 135.243 108.475 133.229C108.475 131.369 107.811 129.919 106.482 128.879C105.154 127.839 103.14 127.318 100.439 127.318C98.3809 127.318 96.1562 127.706 93.7656 128.48L88.9512 126.09L90.7773 100.457H118.469V111.381H101.934L101.336 117.789C103.062 117.457 104.291 117.28 105.021 117.258C105.752 117.214 106.427 117.191 107.047 117.191ZM158.897 124.795C158.897 133.383 157.458 139.681 154.58 143.688C151.703 147.672 147.298 149.664 141.366 149.664C135.566 149.664 131.194 147.583 128.25 143.422C125.306 139.238 123.834 133.029 123.834 124.795C123.834 116.162 125.273 109.831 128.151 105.803C131.028 101.774 135.433 99.7598 141.366 99.7598C147.143 99.7598 151.504 101.863 154.448 106.068C157.414 110.252 158.897 116.494 158.897 124.795ZM136.883 124.795C136.883 130.285 137.226 134.059 137.912 136.117C138.599 138.176 139.75 139.205 141.366 139.205C143.004 139.205 144.155 138.143 144.819 136.018C145.505 133.893 145.848 130.152 145.848 124.795C145.848 119.416 145.505 115.653 144.819 113.506C144.133 111.337 142.982 110.252 141.366 110.252C139.75 110.252 138.599 111.292 137.912 113.373C137.226 115.454 136.883 119.261 136.883 124.795ZM195.341 124.795C195.341 133.383 193.902 139.681 191.024 143.688C188.147 147.672 183.742 149.664 177.809 149.664C172.01 149.664 167.638 147.583 164.694 143.422C161.75 139.238 160.278 133.029 160.278 124.795C160.278 116.162 161.717 109.831 164.595 105.803C167.472 101.774 171.877 99.7598 177.809 99.7598C183.587 99.7598 187.947 101.863 190.891 106.068C193.858 110.252 195.341 116.494 195.341 124.795ZM173.327 124.795C173.327 130.285 173.67 134.059 174.356 136.117C175.042 138.176 176.193 139.205 177.809 139.205C179.447 139.205 180.598 138.143 181.262 136.018C181.949 133.893 182.292 130.152 182.292 124.795C182.292 119.416 181.949 115.653 181.262 113.506C180.576 111.337 179.425 110.252 177.809 110.252C176.193 110.252 175.042 111.292 174.356 113.373C173.67 115.454 173.327 119.261 173.327 124.795Z" fill="#2E5A56"/>
<defs>
<linearGradient id="paint0_linear" x1="133.5" y1="0" x2="133.5" y2="267" gradientUnits="userSpaceOnUse">
<stop stop-color="#FFC700"/>
<stop offset="1" stop-color="#FC9517"/>
</linearGradient>
</defs>
</svg>
