<svg width="267" height="267" viewBox="0 0 267 267" fill="none" xmlns="http://www.w3.org/2000/svg">
<circle cx="133.5" cy="133.5" r="133.5" fill="url(#paint0_linear)"/>
<path d="M226 41H116.553V134.429H226V41Z" fill="#2C5955" stroke="white" stroke-width="3.9279" stroke-miterlimit="10" stroke-linecap="round" stroke-linejoin="round"/>
<path d="M150.447 134.429H41V227.858H150.447V134.429Z" fill="#2C5955" stroke="white" stroke-width="3.9279" stroke-miterlimit="10" stroke-linecap="round" stroke-linejoin="round"/>
<path d="M226 134.429C224.425 136.874 150.447 227.858 150.447 227.858H41L116.553 134.429H226Z" fill="#204542" stroke="white" stroke-width="3.9279" stroke-miterlimit="10" stroke-linecap="round" stroke-linejoin="round"/>
<path d="M116.554 41C116.554 41 115.847 132.039 116.554 134.429C117.26 136.874 41 227.859 41 227.859V134.429L116.554 41Z" fill="#2C5955" stroke="white" stroke-width="3.9279" stroke-miterlimit="10" stroke-linecap="round" stroke-linejoin="round"/>
<circle cx="143" cy="124" r="59" fill="#FFD34F"/>
<path d="M122.254 149H87.0254V140.367L98.8789 128.381C102.266 124.839 104.479 122.426 105.52 121.143C106.56 119.837 107.279 118.719 107.678 117.789C108.098 116.859 108.309 115.885 108.309 114.867C108.309 113.605 107.899 112.609 107.08 111.879C106.261 111.148 105.11 110.783 103.627 110.783C102.1 110.783 100.55 111.226 98.9785 112.111C97.429 112.975 95.6693 114.258 93.6992 115.963L86.4941 107.529C88.9954 105.294 91.0983 103.7 92.8027 102.748C94.5072 101.774 96.3555 101.033 98.3477 100.523C100.362 100.014 102.62 99.7598 105.121 99.7598C108.264 99.7598 111.064 100.313 113.521 101.42C116.001 102.527 117.915 104.109 119.266 106.168C120.638 108.204 121.324 110.495 121.324 113.041C121.324 114.945 121.081 116.704 120.594 118.32C120.129 119.936 119.398 121.53 118.402 123.102C117.406 124.651 116.078 126.289 114.418 128.016C112.78 129.742 109.271 133.018 103.893 137.844V138.176H122.254V149ZM158.897 124.795C158.897 133.383 157.458 139.681 154.58 143.688C151.703 147.672 147.298 149.664 141.366 149.664C135.566 149.664 131.194 147.583 128.25 143.422C125.306 139.238 123.834 133.029 123.834 124.795C123.834 116.162 125.273 109.831 128.151 105.803C131.028 101.774 135.433 99.7598 141.366 99.7598C147.143 99.7598 151.504 101.863 154.448 106.068C157.414 110.252 158.897 116.494 158.897 124.795ZM136.883 124.795C136.883 130.285 137.226 134.059 137.912 136.117C138.599 138.176 139.75 139.205 141.366 139.205C143.004 139.205 144.155 138.143 144.819 136.018C145.505 133.893 145.848 130.152 145.848 124.795C145.848 119.416 145.505 115.653 144.819 113.506C144.133 111.337 142.982 110.252 141.366 110.252C139.75 110.252 138.599 111.292 137.912 113.373C137.226 115.454 136.883 119.261 136.883 124.795ZM195.341 124.795C195.341 133.383 193.902 139.681 191.024 143.688C188.147 147.672 183.742 149.664 177.809 149.664C172.01 149.664 167.638 147.583 164.694 143.422C161.75 139.238 160.278 133.029 160.278 124.795C160.278 116.162 161.717 109.831 164.595 105.803C167.472 101.774 171.877 99.7598 177.809 99.7598C183.587 99.7598 187.947 101.863 190.891 106.068C193.858 110.252 195.341 116.494 195.341 124.795ZM173.327 124.795C173.327 130.285 173.67 134.059 174.356 136.117C175.042 138.176 176.193 139.205 177.809 139.205C179.447 139.205 180.598 138.143 181.262 136.018C181.949 133.893 182.292 130.152 182.292 124.795C182.292 119.416 181.949 115.653 181.262 113.506C180.576 111.337 179.425 110.252 177.809 110.252C176.193 110.252 175.042 111.292 174.356 113.373C173.67 115.454 173.327 119.261 173.327 124.795Z" fill="#2E5A56"/>
<defs>
<linearGradient id="paint0_linear" x1="133.5" y1="0" x2="133.5" y2="267" gradientUnits="userSpaceOnUse">
<stop stop-color="#FFC700"/>
<stop offset="1" stop-color="#FC9517"/>
</linearGradient>
</defs>
</svg>
