<svg width="267" height="267" viewBox="0 0 267 267" fill="none" xmlns="http://www.w3.org/2000/svg">
<circle cx="133.5" cy="133.5" r="133.5" fill="url(#paint0_linear)"/>
<path d="M226 41H116.553V134.429H226V41Z" fill="#2C5955" stroke="white" stroke-width="3.9279" stroke-miterlimit="10" stroke-linecap="round" stroke-linejoin="round"/>
<path d="M150.447 134.429H41V227.858H150.447V134.429Z" fill="#2C5955" stroke="white" stroke-width="3.9279" stroke-miterlimit="10" stroke-linecap="round" stroke-linejoin="round"/>
<path d="M226 134.429C224.425 136.874 150.447 227.858 150.447 227.858H41L116.553 134.429H226Z" fill="#204542" stroke="white" stroke-width="3.9279" stroke-miterlimit="10" stroke-linecap="round" stroke-linejoin="round"/>
<path d="M116.554 41C116.554 41 115.847 132.039 116.554 134.429C117.26 136.874 41 227.859 41 227.859V134.429L116.554 41Z" fill="#2C5955" stroke="white" stroke-width="3.9279" stroke-miterlimit="10" stroke-linecap="round" stroke-linejoin="round"/>
<circle cx="133.5" cy="133.5" r="49.5" fill="#FFD34F"/>
<path d="M116.316 123.917C119.393 123.917 122.164 124.637 124.629 126.078C127.12 127.494 129.048 129.508 130.416 132.12C131.807 134.732 132.503 137.748 132.503 141.166C132.503 147.147 130.696 151.737 127.083 154.935C123.494 158.133 118.05 159.732 110.75 159.732C104.5 159.732 99.3975 158.768 95.4424 156.839V144.974C97.5664 145.951 99.959 146.756 102.62 147.391C105.306 148.026 107.613 148.343 109.542 148.343C112.227 148.343 114.29 147.782 115.73 146.659C117.171 145.511 117.891 143.827 117.891 141.605C117.891 139.554 117.159 137.955 115.694 136.808C114.229 135.66 112.007 135.086 109.029 135.086C106.758 135.086 104.305 135.514 101.668 136.368L96.3579 133.731L98.3721 105.46H128.914V117.508H110.677L110.018 124.576C111.922 124.21 113.277 124.015 114.083 123.99C114.888 123.941 115.633 123.917 116.316 123.917ZM173.504 132.303C173.504 141.776 171.917 148.722 168.743 153.141C165.569 157.535 160.711 159.732 154.168 159.732C147.771 159.732 142.95 157.438 139.703 152.848C136.456 148.233 134.832 141.385 134.832 132.303C134.832 122.782 136.419 115.799 139.593 111.356C142.767 106.913 147.625 104.691 154.168 104.691C160.54 104.691 165.35 107.01 168.597 111.649C171.868 116.263 173.504 123.148 173.504 132.303ZM149.224 132.303C149.224 138.358 149.603 142.521 150.359 144.791C151.116 147.062 152.386 148.197 154.168 148.197C155.975 148.197 157.244 147.025 157.977 144.681C158.733 142.337 159.112 138.211 159.112 132.303C159.112 126.371 158.733 122.22 157.977 119.852C157.22 117.459 155.95 116.263 154.168 116.263C152.386 116.263 151.116 117.411 150.359 119.706C149.603 122 149.224 126.2 149.224 132.303Z" fill="#2E5A56"/>
<defs>
<linearGradient id="paint0_linear" x1="133.5" y1="0" x2="133.5" y2="267" gradientUnits="userSpaceOnUse">
<stop stop-color="#FFC700"/>
<stop offset="1" stop-color="#FC9517"/>
</linearGradient>
</defs>
</svg>
