<svg width="256" height="105" viewBox="0 0 256 105" fill="none" xmlns="http://www.w3.org/2000/svg">
<path d="M247.689 19.1877C247.436 19.1877 247.057 19.3139 246.805 19.3139C252.99 21.8386 248.951 24.237 242.134 25.4993C240.746 25.7517 239.231 26.0042 237.716 26.1304C246.048 28.7813 241.756 31.4321 234.561 32.8207C232.92 33.0731 231.152 33.3256 229.385 33.4518C234.813 35.8502 230.774 38.1224 224.21 39.3847C223.2 39.5109 222.19 39.7634 221.18 39.8896C225.219 41.9093 222.316 43.929 217.141 45.1913C217.014 48.0946 211.334 49.8619 208.304 50.493C205.149 51.1242 200.731 50.9979 193.535 52.3865C181.796 54.5324 174.979 58.5718 169.678 63.1161C162.23 69.3014 158.569 74.7294 146.83 78.1376L145.694 71.826C176.62 61.7276 170.94 11.8663 200.478 6.43838C211.208 4.41868 238.6 9.08923 250.213 12.4975C259.302 15.0221 255.01 17.7992 247.689 19.1877Z" fill="white"/>
<path d="M237.716 26.0051C237.842 26.6363 231.152 27.5199 224.461 26.8887C217.771 26.2576 211.46 24.7428 211.586 24.1117C211.712 23.4805 218.276 24.3641 224.714 24.9953C231.152 25.5002 237.589 25.374 237.716 26.0051Z" fill="#B3E4FF"/>
<path d="M229.386 33.3259C229.512 33.9571 223.2 34.7145 217.141 34.2096C210.956 33.7046 205.023 32.1899 205.149 31.5587C205.275 30.9276 211.335 31.6849 217.394 32.1899C223.326 32.821 229.386 32.6948 229.386 33.3259Z" fill="#B3E4FF"/>
<path d="M221.179 39.7634C221.306 40.3946 215.373 41.4044 209.314 41.0257C203.381 40.647 197.574 39.3847 197.701 38.7536C197.827 38.1224 203.633 38.7536 209.44 39.1322C215.247 39.3847 221.053 39.006 221.179 39.7634Z" fill="#B3E4FF"/>
<path d="M217.141 44.9388C217.267 45.1912 215.626 45.9486 212.975 46.3273C211.713 46.5798 210.072 46.8322 208.431 46.9585C206.79 46.9585 205.023 47.0847 203.255 47.0847C196.06 46.8322 189.244 45.4437 189.37 44.8125C189.496 44.1814 196.439 44.9388 203.255 45.1912C205.023 45.1912 206.664 45.1912 208.305 45.1912C209.946 45.1912 211.46 44.9388 212.723 44.9388C215.247 44.8125 217.014 44.6863 217.141 44.9388Z" fill="#B3E4FF"/>
<path d="M246.806 19.3141C246.806 19.5666 245.038 20.1977 242.135 20.5764C239.358 20.9551 235.445 21.0813 231.658 20.8289C224.084 20.324 216.763 18.5567 216.889 17.7993C217.015 17.1682 224.463 18.3043 231.784 18.8092C235.445 19.0616 239.232 19.1879 242.009 19.0616C244.786 19.0616 246.679 18.9354 246.806 19.3141Z" fill="#B3E4FF"/>
<path d="M9.49073 63.1156C9.7432 63.1156 10.1219 62.9894 10.3744 62.9894C5.45134 67.5337 10.1219 68.2911 16.9384 67.0288C18.3269 66.7763 19.8417 66.3976 21.2302 66.0189C14.4137 71.4469 19.3368 72.4567 26.5319 71.0682C28.1729 70.8157 29.9402 70.3108 31.5812 69.8059C27.4155 73.9715 31.9599 74.7289 38.5239 73.4666C39.5337 73.3403 40.5436 73.0879 41.5534 72.8354C38.5239 76.1174 41.9321 77.001 47.2338 76.2437C48.3699 78.8945 54.3027 78.642 57.3323 78.0109C60.4881 77.3797 64.6537 75.7387 71.7226 74.4764C83.4621 72.3305 91.2884 73.719 97.8525 75.9912C107.067 79.147 112.369 82.8077 124.613 81.9241L123.477 75.6125C90.9098 77.1273 78.5391 28.6546 48.8748 34.0825C38.2714 36.1022 14.2875 50.2401 4.69395 57.5615C-2.87991 63.3681 2.0431 64.5042 9.49073 63.1156Z" fill="white"/>
<path d="M44.9624 54.9106C45.3411 55.4155 39.9132 59.2025 33.8541 62.1058C27.795 65.0091 21.3572 66.5239 21.231 65.8927C20.9785 65.2615 27.2901 63.1156 32.9705 60.2123C38.9033 57.4352 44.5837 54.2794 44.9624 54.9106Z" fill="#B3E4FF"/>
<path d="M53.6724 59.5815C54.0511 60.0864 48.8756 63.6209 43.3214 66.398C37.641 69.175 31.7082 70.5636 31.4557 69.9324C31.2032 69.3013 37.0099 67.1553 42.4378 64.6307C47.992 61.8536 53.4199 58.9503 53.6724 59.5815Z" fill="#B3E4FF"/>
<path d="M63.1393 63.4946C63.518 63.9995 58.4687 67.2815 53.167 69.8061C47.6129 72.3308 41.9325 73.4668 41.68 72.8357C41.4275 72.2045 47.1079 70.3111 52.4096 68.0389C57.5851 65.6405 62.7606 62.9897 63.1393 63.4946Z" fill="#B3E4FF"/>
<path d="M73.2377 66.2718C73.6164 66.7767 67.6835 70.6899 61.1195 73.467C59.4785 74.0981 57.7113 74.7293 56.1965 75.2342C54.5555 75.7391 53.167 75.9916 51.7784 76.244C50.5161 76.4965 49.5063 76.749 48.6227 76.6227C47.8653 76.6227 47.3604 76.4965 47.3604 76.3703C47.3604 76.244 47.739 75.9916 48.4964 75.7391C49.1276 75.6129 50.2637 75.108 51.526 74.7293C52.7883 74.3506 54.3031 73.9719 55.8178 73.3407C57.3326 72.7096 58.8474 72.0784 60.4884 71.5735C66.6737 68.9226 72.859 65.6406 73.2377 66.2718Z" fill="#B3E4FF"/>
<path d="M37.7667 50.8714C38.1454 51.3763 31.8339 55.7944 25.0174 58.9502C21.6092 60.465 17.9485 61.8535 15.1714 62.4846C12.3943 63.1158 10.5008 63.242 10.3746 62.8633C10.2484 62.4847 12.1418 61.9797 14.6665 60.9699C17.3173 60.0863 20.7256 58.5715 24.1338 57.0567C30.9503 54.0272 37.3881 50.2402 37.7667 50.8714Z" fill="#B3E4FF"/>
<path d="M151.502 91.8963C152.007 94.5471 149.23 96.693 146.074 98.2078C143.802 99.3439 141.151 99.975 139.384 100.354C137.616 100.732 134.966 100.985 132.441 100.732C128.906 100.48 125.624 99.4701 125.119 96.693C124.867 95.557 125.498 94.2947 125.877 93.0323C129.033 94.9258 135.092 94.6733 138.248 94.0422C141.403 93.411 147.21 91.5176 149.482 88.6143C150.366 89.7503 151.376 90.7602 151.502 91.8963Z" fill="#622C00"/>
<path d="M150.365 85.711C150.617 86.847 150.239 87.8569 149.481 88.7405C147.209 91.6438 141.402 93.5373 138.247 94.1684C135.091 94.7996 128.906 95.0521 125.876 93.1586C124.866 92.5274 124.235 91.77 123.983 90.634C123.73 89.4979 124.361 88.2356 124.74 86.9733C127.896 88.8667 133.955 88.6143 137.111 87.9831C140.266 87.352 146.073 85.4585 148.345 82.5552C149.229 83.565 150.239 84.5749 150.365 85.711Z" fill="#914100"/>
<path d="M149.229 79.6514C149.482 80.7875 149.103 81.7973 148.346 82.6809C146.074 85.5842 140.267 87.4777 137.111 88.1089C133.955 88.74 127.77 88.9925 124.741 87.099C123.731 86.4678 123.099 85.7105 122.847 84.5744C122.595 83.4383 123.226 82.176 123.604 80.9137C126.76 82.8072 132.819 82.5547 135.975 81.9235C139.131 81.2924 144.937 79.3989 147.21 76.4956C148.093 77.5055 149.103 78.3891 149.229 79.6514Z" fill="#622C00"/>
<path d="M148.094 73.4663C148.346 74.6024 147.967 75.6123 147.21 76.4959C144.938 79.3992 139.131 81.2926 135.975 81.9238C132.82 82.555 126.634 82.8074 123.605 80.914C122.595 80.2828 121.964 79.5254 121.711 78.3893C121.459 77.2533 122.09 75.9909 122.469 74.7286C125.624 76.6221 131.684 76.3696 134.839 75.7385C137.995 75.1073 143.802 73.2139 146.074 70.3105C146.958 71.3204 147.841 72.3302 148.094 73.4663Z" fill="#914100"/>
<path d="M146.074 98.208C146.201 100.859 145.696 103.762 140.268 104.772C134.84 105.782 133.325 103.257 132.441 100.733C134.966 100.859 137.617 100.733 139.384 100.354C141.151 100.101 143.802 99.3441 146.074 98.208Z" fill="#1E1919"/>
<path d="M159.327 27.3924C163.114 47.968 143.801 57.0567 146.073 70.3109C143.801 73.2142 137.994 75.1077 134.839 75.7389C131.683 76.37 125.498 76.6225 122.468 74.729C119.817 61.601 98.4841 59.8338 94.6972 39.3843C92.5513 28.0235 96.9693 5.04949 120.953 0.631402C144.937 -3.78668 157.308 16.0316 159.327 27.3924Z" fill="url(#paint0_linear)"/>
<path d="M122.482 53.4439L130.784 25.6623L115.094 27.8523L114.304 22.1943L137.132 19.008L137.721 23.2297L129.532 52.4598L122.482 53.4439Z" fill="#FF012F"/>
<defs>
<linearGradient id="paint0_linear" x1="127.019" y1="0" x2="127.019" y2="76.2028" gradientUnits="userSpaceOnUse">
<stop stop-color="#F7E100"/>
<stop offset="1" stop-color="#FFAA2E"/>
</linearGradient>
</defs>
</svg>
