<svg width="256" height="105" viewBox="0 0 256 105" fill="none" xmlns="http://www.w3.org/2000/svg">
<path d="M247.408 19.1877C247.156 19.1877 246.777 19.3139 246.524 19.3139C252.71 21.8386 248.67 24.237 241.854 25.4993C240.465 25.7517 238.951 26.0042 237.436 26.1304C245.767 28.7813 241.475 31.4321 234.28 32.8207C232.639 33.0731 230.872 33.3256 229.105 33.4518C234.532 35.8502 230.493 38.1224 223.929 39.3847C222.919 39.5109 221.909 39.7634 220.899 39.8896C224.939 41.9093 222.036 43.929 216.86 45.1913C216.734 48.0946 211.053 49.8619 208.024 50.493C204.868 51.1242 200.45 50.9979 193.255 52.3865C181.515 54.5324 174.699 58.5718 169.397 63.1161C161.95 69.3014 158.289 74.7294 146.549 78.1376L145.413 71.826C176.34 61.7276 170.66 11.8663 200.198 6.43838C210.927 4.41868 238.319 9.08923 249.933 12.4975C259.021 15.0221 254.729 17.7992 247.408 19.1877Z" fill="white"/>
<path d="M237.435 26.0051C237.561 26.6363 230.871 27.5199 224.181 26.8887C217.49 26.2576 211.179 24.7428 211.305 24.1117C211.431 23.4805 217.995 24.3641 224.433 24.9953C230.871 25.5002 237.309 25.374 237.435 26.0051Z" fill="#B3E4FF"/>
<path d="M229.105 33.3259C229.231 33.9571 222.919 34.7145 216.86 34.2096C210.675 33.7046 204.742 32.1899 204.868 31.5587C204.995 30.9276 211.054 31.6849 217.113 32.1899C223.046 32.821 229.105 32.6948 229.105 33.3259Z" fill="#B3E4FF"/>
<path d="M220.899 39.7634C221.025 40.3946 215.092 41.4044 209.033 41.0257C203.1 40.647 197.294 39.3847 197.42 38.7536C197.546 38.1224 203.353 38.7536 209.159 39.1322C214.966 39.3847 220.773 39.006 220.899 39.7634Z" fill="#B3E4FF"/>
<path d="M216.86 44.9388C216.986 45.1912 215.345 45.9486 212.694 46.3273C211.432 46.5798 209.791 46.8322 208.15 46.9585C206.509 46.9585 204.742 47.0847 202.975 47.0847C195.779 46.8322 188.963 45.4437 189.089 44.8125C189.215 44.1814 196.158 44.9388 202.975 45.1912C204.742 45.1912 206.383 45.1912 208.024 45.1912C209.665 45.1912 211.18 44.9388 212.442 44.9388C214.966 44.8125 216.734 44.6863 216.86 44.9388Z" fill="#B3E4FF"/>
<path d="M246.525 19.3141C246.525 19.5666 244.758 20.1977 241.855 20.5764C239.077 20.9551 235.164 21.0813 231.377 20.8289C223.803 20.324 216.482 18.5567 216.608 17.7993C216.735 17.1682 224.182 18.3043 231.504 18.8092C235.164 19.0616 238.951 19.1879 241.728 19.0616C244.505 19.0616 246.399 18.9354 246.525 19.3141Z" fill="#B3E4FF"/>
<path d="M9.21022 63.1156C9.46268 63.1156 9.84137 62.9894 10.0938 62.9894C5.17082 67.5337 9.84137 68.2911 16.6578 67.0288C18.0464 66.7763 19.5612 66.3976 20.9497 66.0189C14.1332 71.4469 19.0562 72.4567 26.2514 71.0682C27.8924 70.8157 29.6596 70.3108 31.3006 69.8059C27.135 73.9715 31.6793 74.7289 38.2434 73.4666C39.2532 73.3403 40.2631 73.0879 41.2729 72.8354C38.2434 76.1174 41.6516 77.001 46.9533 76.2437C48.0894 78.8945 54.0222 78.642 57.0518 78.0109C60.2076 77.3797 64.3732 75.7387 71.4421 74.4764C83.1816 72.3305 91.0079 73.719 97.5719 75.9912C106.787 79.147 112.089 82.8077 124.333 81.9241L123.197 75.6125C90.6292 77.1273 78.2586 28.6546 48.5943 34.0825C37.9909 36.1022 14.007 50.2401 4.41344 57.5615C-3.16043 63.3681 1.76258 64.5042 9.21022 63.1156Z" fill="white"/>
<path d="M44.6819 54.9106C45.0606 55.4155 39.6326 59.2025 33.5736 62.1058C27.5145 65.0091 21.0767 66.5239 20.9504 65.8927C20.698 65.2615 27.0095 63.1156 32.6899 60.2123C38.6228 57.4352 44.3032 54.2794 44.6819 54.9106Z" fill="#B3E4FF"/>
<path d="M53.3916 59.5815C53.7703 60.0864 48.5948 63.6209 43.0407 66.398C37.3603 69.175 31.4274 70.5636 31.1749 69.9324C30.9225 69.3013 36.7291 67.1553 42.157 64.6307C47.7112 61.8536 53.1391 58.9503 53.3916 59.5815Z" fill="#B3E4FF"/>
<path d="M62.8585 63.4946C63.2372 63.9995 58.188 67.2815 52.8863 69.8061C47.3321 72.3308 41.6517 73.4668 41.3992 72.8357C41.1468 72.2045 46.8272 70.3111 52.1289 68.0389C57.3043 65.6405 62.4798 62.9897 62.8585 63.4946Z" fill="#B3E4FF"/>
<path d="M72.9572 66.2718C73.3359 66.7767 67.403 70.6899 60.839 73.467C59.198 74.0981 57.4308 74.7293 55.916 75.2342C54.275 75.7391 52.8865 75.9916 51.4979 76.244C50.2356 76.4965 49.2258 76.749 48.3421 76.6227C47.5848 76.6227 47.0798 76.4965 47.0798 76.3703C47.0798 76.244 47.4585 75.9916 48.2159 75.7391C48.8471 75.6129 49.9831 75.108 51.2455 74.7293C52.5078 74.3506 54.0225 73.9719 55.5373 73.3407C57.0521 72.7096 58.5669 72.0784 60.2079 71.5735C66.3932 68.9226 72.5785 65.6406 72.9572 66.2718Z" fill="#B3E4FF"/>
<path d="M37.4862 50.8714C37.8649 51.3763 31.5534 55.7944 24.7369 58.9502C21.3287 60.465 17.668 61.8535 14.8909 62.4846C12.1138 63.1158 10.2203 63.242 10.0941 62.8633C9.96786 62.4847 11.8613 61.9797 14.386 60.9699C17.0368 60.0863 20.445 58.5715 23.8533 57.0567C30.6698 54.0272 37.1075 50.2402 37.4862 50.8714Z" fill="#B3E4FF"/>
<path d="M151.221 91.8963C151.726 94.5471 148.949 96.693 145.793 98.2078C143.521 99.3439 140.87 99.975 139.103 100.354C137.336 100.732 134.685 100.985 132.16 100.732C128.626 100.48 125.344 99.4701 124.839 96.693C124.587 95.557 125.218 94.2947 125.596 93.0323C128.752 94.9258 134.811 94.6733 137.967 94.0422C141.123 93.411 146.929 91.5176 149.202 88.6143C150.085 89.7503 151.095 90.7602 151.221 91.8963Z" fill="#622C00"/>
<path d="M150.084 85.711C150.337 86.847 149.958 87.8569 149.201 88.7405C146.929 91.6438 141.122 93.5373 137.966 94.1684C134.81 94.7996 128.625 95.0521 125.595 93.1586C124.586 92.5274 123.954 91.77 123.702 90.634C123.45 89.4979 124.081 88.2356 124.459 86.9733C127.615 88.8667 133.674 88.6143 136.83 87.9831C139.986 87.352 145.792 85.4585 148.065 82.5552C148.948 83.565 149.958 84.5749 150.084 85.711Z" fill="#914100"/>
<path d="M148.949 79.6514C149.202 80.7875 148.823 81.7973 148.065 82.6809C145.793 85.5842 139.987 87.4777 136.831 88.1089C133.675 88.74 127.49 88.9925 124.46 87.099C123.45 86.4678 122.819 85.7105 122.567 84.5744C122.314 83.4383 122.945 82.176 123.324 80.9137C126.48 82.8072 132.539 82.5547 135.695 81.9235C138.851 81.2924 144.657 79.3989 146.929 76.4956C147.813 77.5055 148.823 78.3891 148.949 79.6514Z" fill="#622C00"/>
<path d="M147.813 73.4663C148.066 74.6024 147.687 75.6123 146.929 76.4959C144.657 79.3992 138.851 81.2926 135.695 81.9238C132.539 82.555 126.354 82.8074 123.324 80.914C122.314 80.2828 121.683 79.5254 121.431 78.3893C121.178 77.2533 121.809 75.9909 122.188 74.7286C125.344 76.6221 131.403 76.3696 134.559 75.7385C137.715 75.1073 143.521 73.2139 145.793 70.3105C146.677 71.3204 147.561 72.3302 147.813 73.4663Z" fill="#914100"/>
<path d="M145.794 98.208C145.92 100.859 145.415 103.762 139.987 104.772C134.559 105.782 133.044 103.257 132.161 100.733C134.685 100.859 137.336 100.733 139.103 100.354C140.871 100.101 143.521 99.3441 145.794 98.208Z" fill="#1E1919"/>
<path d="M159.047 27.3924C162.834 47.968 143.521 57.0567 145.793 70.3109C143.521 73.2142 137.714 75.1077 134.558 75.7389C131.402 76.37 125.217 76.6225 122.187 74.729C119.537 61.601 98.2036 59.8338 94.4167 39.3843C92.2707 28.0235 96.6888 5.04949 120.673 0.631402C144.657 -3.78668 157.027 16.0316 159.047 27.3924Z" fill="url(#paint0_linear)"/>
<path d="M128.084 44.6803L124.254 45.2149L125.174 51.8086L118.602 52.726L117.682 46.1322L104.102 48.0275L103.449 43.3488L114.531 20.8587L120.733 19.993L123.525 39.992L127.355 39.4575L128.084 44.6803ZM116.953 40.9094L116.199 35.5125C116.074 34.613 115.928 33.3022 115.762 31.5802C115.595 29.8581 115.514 28.8562 115.52 28.5745L115.345 28.5988C114.975 29.8634 114.491 31.1141 113.895 32.351L109.293 41.9785L116.953 40.9094ZM151.353 31.937C152.128 37.4935 151.788 41.734 150.333 44.6586C148.892 47.5811 146.278 49.3067 142.492 49.8352C138.821 50.3475 135.858 49.356 133.602 46.8608C131.36 44.3635 129.864 40.4236 129.112 35.0412C128.329 29.4267 128.658 25.1654 130.101 22.2574C131.542 19.3348 134.149 17.6103 137.921 17.0838C141.591 16.5715 144.556 17.5775 146.817 20.1018C149.092 22.624 150.604 26.5691 151.353 31.937ZM135.793 34.1088C136.338 38.0114 137.062 40.7648 137.967 42.369C138.883 43.9568 140.14 44.6393 141.736 44.4165C143.302 44.1978 144.315 43.1839 144.772 41.3748C145.229 39.5657 145.189 36.7316 144.65 32.8725C144.105 28.9699 143.359 26.2195 142.411 24.6213C141.476 23.0066 140.232 22.3076 138.68 22.5243C137.099 22.745 136.086 23.7589 135.644 25.566C135.199 27.3586 135.248 30.2062 135.793 34.1088Z" fill="#FF012F"/>
<defs>
<linearGradient id="paint0_linear" x1="126.739" y1="0" x2="126.739" y2="76.2028" gradientUnits="userSpaceOnUse">
<stop stop-color="#F7E100"/>
<stop offset="1" stop-color="#FFAA2E"/>
</linearGradient>
</defs>
</svg>
