<svg width="255" height="105" viewBox="0 0 255 105" fill="none" xmlns="http://www.w3.org/2000/svg">
<path d="M246.955 19.1877C246.702 19.1877 246.324 19.3139 246.071 19.3139C252.257 21.8386 248.217 24.237 241.401 25.4993C240.012 25.7517 238.497 26.0042 236.983 26.1304C245.314 28.7813 241.022 31.4321 233.827 32.8207C232.186 33.0731 230.419 33.3256 228.651 33.4518C234.079 35.8502 230.04 38.1224 223.476 39.3847C222.466 39.5109 221.456 39.7634 220.446 39.8896C224.486 41.9093 221.582 43.929 216.407 45.1913C216.281 48.0946 210.6 49.8619 207.571 50.493C204.415 51.1242 199.997 50.9979 192.802 52.3865C181.062 54.5324 174.246 58.5718 168.944 63.1161C161.496 69.3014 157.836 74.7294 146.096 78.1376L144.96 71.826C175.887 61.7276 170.206 11.8663 199.744 6.43838C210.474 4.41868 237.866 9.08923 249.48 12.4975C258.568 15.0221 254.276 17.7992 246.955 19.1877Z" fill="white"/>
<path d="M236.982 26.0051C237.108 26.6363 230.418 27.5199 223.728 26.8887C217.037 26.2576 210.726 24.7428 210.852 24.1117C210.978 23.4805 217.542 24.3641 223.98 24.9953C230.418 25.5002 236.856 25.374 236.982 26.0051Z" fill="#B3E4FF"/>
<path d="M228.652 33.3259C228.778 33.9571 222.466 34.7145 216.407 34.2096C210.222 33.7046 204.289 32.1899 204.415 31.5587C204.542 30.9276 210.601 31.6849 216.66 32.1899C222.593 32.821 228.652 32.6948 228.652 33.3259Z" fill="#B3E4FF"/>
<path d="M220.446 39.7634C220.572 40.3946 214.639 41.4044 208.58 41.0257C202.647 40.647 196.841 39.3847 196.967 38.7536C197.093 38.1224 202.9 38.7536 208.706 39.1322C214.513 39.3847 220.32 39.006 220.446 39.7634Z" fill="#B3E4FF"/>
<path d="M216.407 44.9388C216.533 45.1912 214.892 45.9486 212.241 46.3273C210.979 46.5798 209.338 46.8322 207.697 46.9585C206.056 46.9585 204.289 47.0847 202.521 47.0847C195.326 46.8322 188.51 45.4437 188.636 44.8125C188.762 44.1814 195.705 44.9388 202.521 45.1912C204.289 45.1912 205.93 45.1912 207.571 45.1912C209.212 45.1912 210.726 44.9388 211.989 44.9388C214.513 44.8125 216.281 44.6863 216.407 44.9388Z" fill="#B3E4FF"/>
<path d="M246.072 19.3141C246.072 19.5666 244.305 20.1977 241.401 20.5764C238.624 20.9551 234.711 21.0813 230.924 20.8289C223.35 20.324 216.029 18.5567 216.155 17.7993C216.281 17.1682 223.729 18.3043 231.05 18.8092C234.711 19.0616 238.498 19.1879 241.275 19.0616C244.052 19.0616 245.946 18.9354 246.072 19.3141Z" fill="#B3E4FF"/>
<path d="M8.75709 63.1156C9.00955 63.1156 9.38825 62.9894 9.64071 62.9894C4.7177 67.5337 9.38825 68.2911 16.2047 67.0288C17.5933 66.7763 19.108 66.3976 20.4966 66.0189C13.6801 71.4469 18.6031 72.4567 25.7983 71.0682C27.4393 70.8157 29.2065 70.3108 30.8475 69.8059C26.6819 73.9715 31.2262 74.7289 37.7902 73.4666C38.8001 73.3403 39.8099 73.0879 40.8198 72.8354C37.7902 76.1174 41.1985 77.001 46.5002 76.2437C47.6362 78.8945 53.5691 78.642 56.5987 78.0109C59.7544 77.3797 63.9201 75.7387 70.989 74.4764C82.7285 72.3305 90.5548 73.719 97.1188 75.9912C106.334 79.147 111.635 82.8077 123.88 81.9241L122.744 75.6125C90.1761 77.1273 77.8055 28.6546 48.1412 34.0825C37.5378 36.1022 13.5539 50.2401 3.96031 57.5615C-3.61355 63.3681 1.30946 64.5042 8.75709 63.1156Z" fill="white"/>
<path d="M44.2288 54.9106C44.6075 55.4155 39.1795 59.2025 33.1204 62.1058C27.0613 65.0091 20.6236 66.5239 20.4973 65.8927C20.2449 65.2615 26.5564 63.1156 32.2368 60.2123C38.1697 57.4352 43.8501 54.2794 44.2288 54.9106Z" fill="#B3E4FF"/>
<path d="M52.9385 59.5815C53.3172 60.0864 48.1417 63.6209 42.5875 66.398C36.9071 69.175 30.9743 70.5636 30.7218 69.9324C30.4694 69.3013 36.276 67.1553 41.7039 64.6307C47.2581 61.8536 52.686 58.9503 52.9385 59.5815Z" fill="#B3E4FF"/>
<path d="M62.4054 63.4946C62.7841 63.9995 57.7348 67.2815 52.4331 69.8061C46.879 72.3308 41.1986 73.4668 40.9461 72.8357C40.6936 72.2045 46.374 70.3111 51.6757 68.0389C56.8512 65.6405 62.0267 62.9897 62.4054 63.4946Z" fill="#B3E4FF"/>
<path d="M72.5041 66.2718C72.8828 66.7767 66.9499 70.6899 60.3859 73.467C58.7449 74.0981 56.9777 74.7293 55.4629 75.2342C53.8219 75.7391 52.4333 75.9916 51.0448 76.244C49.7825 76.4965 48.7726 76.749 47.889 76.6227C47.1316 76.6227 46.6267 76.4965 46.6267 76.3703C46.6267 76.244 47.0054 75.9916 47.7628 75.7391C48.3939 75.6129 49.53 75.108 50.7923 74.7293C52.0546 74.3506 53.5694 73.9719 55.0842 73.3407C56.599 72.7096 58.1137 72.0784 59.7547 71.5735C65.9401 68.9226 72.1254 65.6406 72.5041 66.2718Z" fill="#B3E4FF"/>
<path d="M37.0331 50.8714C37.4118 51.3763 31.1002 55.7944 24.2838 58.9502C20.8755 60.465 17.2148 61.8535 14.4377 62.4846C11.6607 63.1158 9.7672 63.242 9.64097 62.8633C9.51474 62.4847 11.4082 61.9797 13.9328 60.9699C16.5837 60.0863 19.9919 58.5715 23.4002 57.0567C30.2166 54.0272 36.6544 50.2402 37.0331 50.8714Z" fill="#B3E4FF"/>
<path d="M150.768 91.8963C151.273 94.5471 148.496 96.693 145.34 98.2078C143.068 99.3439 140.417 99.975 138.65 100.354C136.883 100.732 134.232 100.985 131.707 100.732C128.173 100.48 124.891 99.4701 124.386 96.693C124.133 95.557 124.765 94.2947 125.143 93.0323C128.299 94.9258 134.358 94.6733 137.514 94.0422C140.67 93.411 146.476 91.5176 148.748 88.6143C149.632 89.7503 150.642 90.7602 150.768 91.8963Z" fill="#622C00"/>
<path d="M149.631 85.711C149.884 86.847 149.505 87.8569 148.748 88.7405C146.475 91.6438 140.669 93.5373 137.513 94.1684C134.357 94.7996 128.172 95.0521 125.142 93.1586C124.133 92.5274 123.501 91.77 123.249 90.634C122.996 89.4979 123.628 88.2356 124.006 86.9733C127.162 88.8667 133.221 88.6143 136.377 87.9831C139.533 87.352 145.339 85.4585 147.611 82.5552C148.495 83.565 149.505 84.5749 149.631 85.711Z" fill="#914100"/>
<path d="M148.496 79.6514C148.748 80.7875 148.37 81.7973 147.612 82.6809C145.34 85.5842 139.534 87.4777 136.378 88.1089C133.222 88.74 127.037 88.9925 124.007 87.099C122.997 86.4678 122.366 85.7105 122.114 84.5744C121.861 83.4383 122.492 82.176 122.871 80.9137C126.027 82.8072 132.086 82.5547 135.242 81.9235C138.397 81.2924 144.204 79.3989 146.476 76.4956C147.36 77.5055 148.37 78.3891 148.496 79.6514Z" fill="#622C00"/>
<path d="M147.36 73.4663C147.612 74.6024 147.234 75.6123 146.476 76.4959C144.204 79.3992 138.398 81.2926 135.242 81.9238C132.086 82.555 125.901 82.8074 122.871 80.914C121.861 80.2828 121.23 79.5254 120.978 78.3893C120.725 77.2533 121.356 75.9909 121.735 74.7286C124.891 76.6221 130.95 76.3696 134.106 75.7385C137.261 75.1073 143.068 73.2139 145.34 70.3105C146.224 71.3204 147.107 72.3302 147.36 73.4663Z" fill="#914100"/>
<path d="M145.34 98.208C145.467 100.859 144.962 103.762 139.534 104.772C134.106 105.782 132.591 103.257 131.708 100.733C134.232 100.859 136.883 100.733 138.65 100.354C140.417 100.101 143.068 99.3441 145.34 98.208Z" fill="#1E1919"/>
<path d="M158.594 27.3924C162.381 47.968 143.067 57.0567 145.34 70.3109C143.067 73.2142 137.261 75.1077 134.105 75.7389C130.949 76.37 124.764 76.6225 121.734 74.729C119.084 61.601 97.7505 59.8338 93.9635 39.3843C91.8176 28.0235 96.2357 5.04949 120.22 0.631402C144.203 -3.78668 156.574 16.0316 158.594 27.3924Z" fill="url(#paint0_linear)"/>
<path d="M123.145 26.8479C123.422 28.8355 123.056 30.6097 122.047 32.1705C121.037 33.7313 119.48 34.9247 117.377 35.7508L117.395 35.8813C120.008 35.8421 122.061 36.3542 123.555 37.4176C125.048 38.4664 125.941 40.0427 126.234 42.1463C126.662 45.2075 125.885 47.7489 123.904 49.7707C121.921 51.7779 118.87 53.0691 114.75 53.6441C111.297 54.1261 108.156 53.9803 105.326 53.2068L104.527 47.4834C105.848 47.9352 107.275 48.2536 108.809 48.4388C110.344 48.6239 111.837 48.6153 113.287 48.4128C115.507 48.1029 117.094 47.4969 118.047 46.5947C119.001 45.6925 119.362 44.4072 119.129 42.7388C118.92 41.2445 118.163 40.2704 116.857 39.8167C115.552 39.363 113.564 39.3224 110.895 39.695L108.479 40.0321L107.759 34.8746L110.218 34.5314C112.685 34.1871 114.439 33.6169 115.482 32.8206C116.537 32.0078 116.955 30.8179 116.736 29.2511C116.4 26.8428 114.723 25.8492 111.705 26.2704C110.661 26.4162 109.619 26.7392 108.579 27.2392C107.554 27.7372 106.441 28.5064 105.241 29.5466L101.482 25.3457C104.092 22.8516 107.406 21.3241 111.425 20.7632C114.718 20.3035 117.408 20.6084 119.495 21.6778C121.596 22.7453 122.813 24.4686 123.145 26.8479ZM150.9 31.937C151.675 37.4935 151.335 41.734 149.88 44.6586C148.439 47.5811 145.825 49.3067 142.039 49.8352C138.368 50.3475 135.405 49.356 133.149 46.8608C130.907 44.3635 129.41 40.4236 128.659 35.0412C127.876 29.4267 128.205 25.1654 129.648 22.2574C131.089 19.3348 133.695 17.6103 137.467 17.0838C141.138 16.5715 144.103 17.5775 146.364 20.1018C148.638 22.624 150.15 26.5691 150.9 31.937ZM135.34 34.1088C135.885 38.0114 136.609 40.7648 137.514 42.369C138.43 43.9568 139.687 44.6393 141.282 44.4165C142.849 44.1978 143.861 43.1839 144.319 41.3748C144.776 39.5657 144.736 36.7316 144.197 32.8725C143.652 28.9699 142.906 26.2195 141.958 24.6213C141.023 23.0066 139.779 22.3076 138.227 22.5243C136.645 22.745 135.633 23.7589 135.19 25.566C134.745 27.3586 134.795 30.2062 135.34 34.1088Z" fill="#FF012F"/>
<defs>
<linearGradient id="paint0_linear" x1="126.286" y1="0" x2="126.286" y2="76.2028" gradientUnits="userSpaceOnUse">
<stop stop-color="#F7E100"/>
<stop offset="1" stop-color="#FFAA2E"/>
</linearGradient>
</defs>
</svg>
