<svg width="255" height="105" viewBox="0 0 255 105" fill="none" xmlns="http://www.w3.org/2000/svg">
<path d="M246.782 19.1877C246.53 19.1877 246.151 19.3139 245.899 19.3139C252.084 21.8386 248.045 24.237 241.228 25.4993C239.84 25.7517 238.325 26.0042 236.81 26.1304C245.141 28.7813 240.849 31.4321 233.654 32.8207C232.013 33.0731 230.246 33.3256 228.479 33.4518C233.907 35.8502 229.867 38.1224 223.303 39.3847C222.293 39.5109 221.284 39.7634 220.274 39.8896C224.313 41.9093 221.41 43.929 216.234 45.1913C216.108 48.0946 210.428 49.8619 207.398 50.493C204.242 51.1242 199.824 50.9979 192.629 52.3865C180.89 54.5324 174.073 58.5718 168.771 63.1161C161.324 69.3014 157.663 74.7294 145.924 78.1376L144.788 71.826C175.714 61.7276 170.034 11.8663 199.572 6.43838C210.302 4.41868 237.694 9.08923 249.307 12.4975C258.396 15.0221 254.104 17.7992 246.782 19.1877Z" fill="white"/>
<path d="M236.809 26.0051C236.936 26.6363 230.245 27.5199 223.555 26.8887C216.865 26.2576 210.553 24.7428 210.68 24.1117C210.806 23.4805 217.37 24.3641 223.808 24.9953C230.245 25.5002 236.683 25.374 236.809 26.0051Z" fill="#B3E4FF"/>
<path d="M228.479 33.3259C228.606 33.9571 222.294 34.7145 216.235 34.2096C210.05 33.7046 204.117 32.1899 204.243 31.5587C204.369 30.9276 210.428 31.6849 216.487 32.1899C222.42 32.821 228.479 32.6948 228.479 33.3259Z" fill="#B3E4FF"/>
<path d="M220.273 39.7634C220.399 40.3946 214.467 41.4044 208.408 41.0257C202.475 40.647 196.668 39.3847 196.794 38.7536C196.92 38.1224 202.727 38.7536 208.534 39.1322C214.34 39.3847 220.147 39.006 220.273 39.7634Z" fill="#B3E4FF"/>
<path d="M216.234 44.9388C216.361 45.1912 214.72 45.9486 212.069 46.3273C210.807 46.5798 209.166 46.8322 207.525 46.9585C205.884 46.9585 204.116 47.0847 202.349 47.0847C195.154 46.8322 188.337 45.4437 188.464 44.8125C188.59 44.1814 195.533 44.9388 202.349 45.1912C204.116 45.1912 205.757 45.1912 207.398 45.1912C209.039 45.1912 210.554 44.9388 211.816 44.9388C214.341 44.8125 216.108 44.6863 216.234 44.9388Z" fill="#B3E4FF"/>
<path d="M245.899 19.3141C245.899 19.5666 244.132 20.1977 241.229 20.5764C238.452 20.9551 234.539 21.0813 230.752 20.8289C223.178 20.324 215.856 18.5567 215.983 17.7993C216.109 17.1682 223.556 18.3043 230.878 18.8092C234.539 19.0616 238.325 19.1879 241.103 19.0616C243.88 19.0616 245.773 18.9354 245.899 19.3141Z" fill="#B3E4FF"/>
<path d="M8.58448 63.1156C8.83695 63.1156 9.21564 62.9894 9.4681 62.9894C4.54509 67.5337 9.21564 68.2911 16.0321 67.0288C17.4207 66.7763 18.9354 66.3976 20.324 66.0189C13.5075 71.4469 18.4305 72.4567 25.6257 71.0682C27.2667 70.8157 29.0339 70.3108 30.6749 69.8059C26.5093 73.9715 31.0536 74.7289 37.6176 73.4666C38.6275 73.3403 39.6373 73.0879 40.6472 72.8354C37.6176 76.1174 41.0259 77.001 46.3276 76.2437C47.4636 78.8945 53.3965 78.642 56.426 78.0109C59.5818 77.3797 63.7474 75.7387 70.8164 74.4764C82.5559 72.3305 90.3822 73.719 96.9462 75.9912C106.161 79.147 111.463 82.8077 123.707 81.9241L122.571 75.6125C90.0035 77.1273 77.6329 28.6546 47.9686 34.0825C37.3652 36.1022 13.3813 50.2401 3.7877 57.5615C-3.78616 63.3681 1.13685 64.5042 8.58448 63.1156Z" fill="white"/>
<path d="M44.0562 54.9106C44.4348 55.4155 39.0069 59.2025 32.9478 62.1058C26.8887 65.0091 20.4509 66.5239 20.3247 65.8927C20.0723 65.2615 26.3838 63.1156 32.0642 60.2123C37.9971 57.4352 43.6775 54.2794 44.0562 54.9106Z" fill="#B3E4FF"/>
<path d="M52.7661 59.5815C53.1448 60.0864 47.9693 63.6209 42.4152 66.398C36.7348 69.175 30.8019 70.5636 30.5495 69.9324C30.297 69.3013 36.1036 67.1553 41.5316 64.6307C47.0857 61.8536 52.5137 58.9503 52.7661 59.5815Z" fill="#B3E4FF"/>
<path d="M62.233 63.4946C62.6117 63.9995 57.5625 67.2815 52.2608 69.8061C46.7066 72.3308 41.0262 73.4668 40.7737 72.8357C40.5213 72.2045 46.2017 70.3111 51.5034 68.0389C56.6789 65.6405 61.8543 62.9897 62.233 63.4946Z" fill="#B3E4FF"/>
<path d="M72.3315 66.2718C72.7102 66.7767 66.7773 70.6899 60.2133 73.467C58.5723 74.0981 56.805 74.7293 55.2903 75.2342C53.6493 75.7391 52.2607 75.9916 50.8722 76.244C49.6099 76.4965 48.6 76.749 47.7164 76.6227C46.959 76.6227 46.4541 76.4965 46.4541 76.3703C46.4541 76.244 46.8328 75.9916 47.5902 75.7391C48.2213 75.6129 49.3574 75.108 50.6197 74.7293C51.882 74.3506 53.3968 73.9719 54.9116 73.3407C56.4263 72.7096 57.9411 72.0784 59.5821 71.5735C65.7674 68.9226 71.9528 65.6406 72.3315 66.2718Z" fill="#B3E4FF"/>
<path d="M36.8605 50.8714C37.2392 51.3763 30.9276 55.7944 24.1112 58.9502C20.7029 60.465 17.0422 61.8535 14.2651 62.4846C11.4881 63.1158 9.59459 63.242 9.46836 62.8633C9.34213 62.4847 11.2356 61.9797 13.7602 60.9699C16.4111 60.0863 19.8193 58.5715 23.2275 57.0567C30.044 54.0272 36.4818 50.2402 36.8605 50.8714Z" fill="#B3E4FF"/>
<path d="M150.596 91.8963C151.1 94.5471 148.323 96.693 145.168 98.2078C142.895 99.3439 140.245 99.975 138.477 100.354C136.71 100.732 134.059 100.985 131.535 100.732C128 100.48 124.718 99.4701 124.213 96.693C123.961 95.557 124.592 94.2947 124.971 93.0323C128.126 94.9258 134.186 94.6733 137.341 94.0422C140.497 93.411 146.304 91.5176 148.576 88.6143C149.459 89.7503 150.469 90.7602 150.596 91.8963Z" fill="#622C00"/>
<path d="M149.459 85.711C149.711 86.847 149.332 87.8569 148.575 88.7405C146.303 91.6438 140.496 93.5373 137.34 94.1684C134.185 94.7996 127.999 95.0521 124.97 93.1586C123.96 92.5274 123.329 91.77 123.076 90.634C122.824 89.4979 123.455 88.2356 123.834 86.9733C126.989 88.8667 133.049 88.6143 136.204 87.9831C139.36 87.352 145.167 85.4585 147.439 82.5552C148.322 83.565 149.332 84.5749 149.459 85.711Z" fill="#914100"/>
<path d="M148.323 79.6514C148.576 80.7875 148.197 81.7973 147.439 82.6809C145.167 85.5842 139.361 87.4777 136.205 88.1089C133.049 88.74 126.864 88.9925 123.834 87.099C122.824 86.4678 122.193 85.7105 121.941 84.5744C121.688 83.4383 122.319 82.176 122.698 80.9137C125.854 82.8072 131.913 82.5547 135.069 81.9235C138.225 81.2924 144.031 79.3989 146.303 76.4956C147.187 77.5055 148.197 78.3891 148.323 79.6514Z" fill="#622C00"/>
<path d="M147.187 73.4663C147.44 74.6024 147.061 75.6123 146.304 76.4959C144.032 79.3992 138.225 81.2926 135.069 81.9238C131.913 82.555 125.728 82.8074 122.699 80.914C121.689 80.2828 121.058 79.5254 120.805 78.3893C120.553 77.2533 121.184 75.9909 121.562 74.7286C124.718 76.6221 130.777 76.3696 133.933 75.7385C137.089 75.1073 142.895 73.2139 145.168 70.3105C146.051 71.3204 146.935 72.3302 147.187 73.4663Z" fill="#914100"/>
<path d="M145.168 98.208C145.294 100.859 144.789 103.762 139.361 104.772C133.934 105.782 132.419 103.257 131.535 100.733C134.06 100.859 136.711 100.733 138.478 100.354C140.245 100.101 142.896 99.3441 145.168 98.208Z" fill="#1E1919"/>
<path d="M158.421 27.3924C162.208 47.968 142.895 57.0567 145.167 70.3109C142.895 73.2142 137.088 75.1077 133.932 75.7389C130.777 76.37 124.591 76.6225 121.562 74.729C118.911 61.601 97.5779 59.8338 93.7909 39.3843C91.645 28.0235 96.0631 5.04949 120.047 0.631402C144.031 -3.78668 156.402 16.0316 158.421 27.3924Z" fill="url(#paint0_linear)"/>
<path d="M135.972 26.2537C136.25 28.2412 135.884 30.0154 134.874 31.5762C133.864 33.1371 132.308 34.3305 130.204 35.1565L130.223 35.2871C132.835 35.2478 134.888 35.7599 136.383 36.8233C137.875 37.8722 138.768 39.4485 139.062 41.5521C139.489 44.6132 138.712 47.1547 136.731 49.1764C134.749 51.1837 131.697 52.4748 127.577 53.0499C124.124 53.5318 120.983 53.3861 118.154 52.6125L117.355 46.8892C118.675 47.3409 120.102 47.6594 121.637 47.8445C123.171 48.0297 124.664 48.021 126.115 47.8185C128.334 47.5087 129.921 46.9027 130.875 46.0005C131.829 45.0982 132.189 43.8129 131.956 42.1445C131.748 40.6502 130.991 39.6762 129.685 39.2225C128.379 38.7687 126.391 38.7281 123.722 39.1007L121.306 39.4379L120.587 34.2804L123.046 33.9371C125.512 33.5929 127.266 33.0226 128.309 32.2263C129.364 31.4135 129.782 30.2237 129.563 28.6568C129.227 26.2485 127.55 25.255 124.533 25.6762C123.488 25.822 122.446 26.1449 121.407 26.645C120.382 27.143 119.269 27.9121 118.068 28.9524L114.309 24.7515C116.919 22.2574 120.233 20.7299 124.252 20.1689C127.545 19.7093 130.235 20.0142 132.322 21.0836C134.424 22.151 135.64 23.8744 135.972 26.2537Z" fill="#FF012F"/>
<defs>
<linearGradient id="paint0_linear" x1="126.113" y1="0" x2="126.113" y2="76.2028" gradientUnits="userSpaceOnUse">
<stop stop-color="#F7E100"/>
<stop offset="1" stop-color="#FFAA2E"/>
</linearGradient>
</defs>
</svg>
