<svg width="255" height="105" viewBox="0 0 255 105" fill="none" xmlns="http://www.w3.org/2000/svg">
<path d="M247.235 19.1877C246.983 19.1877 246.604 19.3139 246.352 19.3139C252.537 21.8386 248.498 24.237 241.681 25.4993C240.293 25.7517 238.778 26.0042 237.263 26.1304C245.594 28.7813 241.303 31.4321 234.107 32.8207C232.466 33.0731 230.699 33.3256 228.932 33.4518C234.36 35.8502 230.32 38.1224 223.756 39.3847C222.747 39.5109 221.737 39.7634 220.727 39.8896C224.766 41.9093 221.863 43.929 216.688 45.1913C216.561 48.0946 210.881 49.8619 207.851 50.493C204.696 51.1242 200.277 50.9979 193.082 52.3865C181.343 54.5324 174.526 58.5718 169.225 63.1161C161.777 69.3014 158.116 74.7294 146.377 78.1376L145.241 71.826C176.167 61.7276 170.487 11.8663 200.025 6.43838C210.755 4.41868 238.147 9.08923 249.76 12.4975C258.849 15.0221 254.557 17.7992 247.235 19.1877Z" fill="white"/>
<path d="M237.263 26.0051C237.389 26.6363 230.699 27.5199 224.008 26.8887C217.318 26.2576 211.006 24.7428 211.133 24.1117C211.259 23.4805 217.823 24.3641 224.261 24.9953C230.699 25.5002 237.136 25.374 237.263 26.0051Z" fill="#B3E4FF"/>
<path d="M228.932 33.3259C229.059 33.9571 222.747 34.7145 216.688 34.2096C210.503 33.7046 204.57 32.1899 204.696 31.5587C204.822 30.9276 210.881 31.6849 216.94 32.1899C222.873 32.821 228.932 32.6948 228.932 33.3259Z" fill="#B3E4FF"/>
<path d="M220.726 39.7634C220.853 40.3946 214.92 41.4044 208.861 41.0257C202.928 40.647 197.121 39.3847 197.247 38.7536C197.374 38.1224 203.18 38.7536 208.987 39.1322C214.793 39.3847 220.6 39.006 220.726 39.7634Z" fill="#B3E4FF"/>
<path d="M216.688 44.9388C216.814 45.1912 215.173 45.9486 212.522 46.3273C211.26 46.5798 209.619 46.8322 207.978 46.9585C206.337 46.9585 204.569 47.0847 202.802 47.0847C195.607 46.8322 188.791 45.4437 188.917 44.8125C189.043 44.1814 195.986 44.9388 202.802 45.1912C204.569 45.1912 206.21 45.1912 207.851 45.1912C209.492 45.1912 211.007 44.9388 212.27 44.9388C214.794 44.8125 216.561 44.6863 216.688 44.9388Z" fill="#B3E4FF"/>
<path d="M246.352 19.3141C246.352 19.5666 244.585 20.1977 241.682 20.5764C238.905 20.9551 234.992 21.0813 231.205 20.8289C223.631 20.324 216.309 18.5567 216.436 17.7993C216.562 17.1682 224.01 18.3043 231.331 18.8092C234.992 19.0616 238.779 19.1879 241.556 19.0616C244.333 19.0616 246.226 18.9354 246.352 19.3141Z" fill="#B3E4FF"/>
<path d="M9.03761 63.1156C9.29007 63.1156 9.66876 62.9894 9.92123 62.9894C4.99822 67.5337 9.66876 68.2911 16.4852 67.0288C17.8738 66.7763 19.3886 66.3976 20.7771 66.0189C13.9606 71.4469 18.8836 72.4567 26.0788 71.0682C27.7198 70.8157 29.487 70.3108 31.128 69.8059C26.9624 73.9715 31.5067 74.7289 38.0707 73.4666C39.0806 73.3403 40.0904 73.0879 41.1003 72.8354C38.0708 76.1174 41.479 77.001 46.7807 76.2437C47.9168 78.8945 53.8496 78.642 56.8792 78.0109C60.0349 77.3797 64.2006 75.7387 71.2695 74.4764C83.009 72.3305 90.8353 73.719 97.3993 75.9912C106.614 79.147 111.916 82.8077 124.16 81.9241L123.024 75.6125C90.4566 77.1273 78.086 28.6546 48.4217 34.0825C37.8183 36.1022 13.8344 50.2401 4.24083 57.5615C-3.33303 63.3681 1.58998 64.5042 9.03761 63.1156Z" fill="white"/>
<path d="M44.5093 54.9106C44.888 55.4155 39.46 59.2025 33.4009 62.1058C27.3419 65.0091 20.9041 66.5239 20.7778 65.8927C20.5254 65.2615 26.8369 63.1156 32.5173 60.2123C38.4502 57.4352 44.1306 54.2794 44.5093 54.9106Z" fill="#B3E4FF"/>
<path d="M53.2192 59.5815C53.5979 60.0864 48.4225 63.6209 42.8683 66.398C37.1879 69.175 31.255 70.5636 31.0026 69.9324C30.7501 69.3013 36.5567 67.1553 41.9847 64.6307C47.5388 61.8536 52.9668 58.9503 53.2192 59.5815Z" fill="#B3E4FF"/>
<path d="M62.6861 63.4946C63.0648 63.9995 58.0156 67.2815 52.7139 69.8061C47.1597 72.3308 41.4793 73.4668 41.2269 72.8357C40.9744 72.2045 46.6548 70.3111 51.9565 68.0389C57.132 65.6405 62.3075 62.9897 62.6861 63.4946Z" fill="#B3E4FF"/>
<path d="M72.7846 66.2718C73.1633 66.7767 67.2304 70.6899 60.6664 73.467C59.0254 74.0981 57.2582 74.7293 55.7434 75.2342C54.1024 75.7391 52.7139 75.9916 51.3253 76.244C50.063 76.4965 49.0532 76.749 48.1695 76.6227C47.4122 76.6227 46.9072 76.4965 46.9072 76.3703C46.9072 76.244 47.2859 75.9916 48.0433 75.7391C48.6745 75.6129 49.8105 75.108 51.0728 74.7293C52.3352 74.3506 53.8499 73.9719 55.3647 73.3407C56.8795 72.7096 58.3942 72.0784 60.0352 71.5735C66.2206 68.9226 72.4059 65.6406 72.7846 66.2718Z" fill="#B3E4FF"/>
<path d="M37.3136 50.8714C37.6923 51.3763 31.3808 55.7944 24.5643 58.9502C21.156 60.465 17.4953 61.8535 14.7183 62.4846C11.9412 63.1158 10.0477 63.242 9.92149 62.8633C9.79526 62.4847 11.6887 61.9797 14.2133 60.9699C16.8642 60.0863 20.2724 58.5715 23.6807 57.0567C30.4971 54.0272 36.9349 50.2402 37.3136 50.8714Z" fill="#B3E4FF"/>
<path d="M151.049 91.8963C151.554 94.5471 148.777 96.693 145.621 98.2078C143.349 99.3439 140.698 99.975 138.93 100.354C137.163 100.732 134.512 100.985 131.988 100.732C128.453 100.48 125.171 99.4701 124.666 96.693C124.414 95.557 125.045 94.2947 125.424 93.0323C128.58 94.9258 134.639 94.6733 137.794 94.0422C140.95 93.411 146.757 91.5176 149.029 88.6143C149.913 89.7503 150.922 90.7602 151.049 91.8963Z" fill="#622C00"/>
<path d="M149.912 85.711C150.164 86.847 149.785 87.8569 149.028 88.7405C146.756 91.6438 140.949 93.5373 137.794 94.1684C134.638 94.7996 128.452 95.0521 125.423 93.1586C124.413 92.5274 123.782 91.77 123.529 90.634C123.277 89.4979 123.908 88.2356 124.287 86.9733C127.443 88.8667 133.502 88.6143 136.657 87.9831C139.813 87.352 145.62 85.4585 147.892 82.5552C148.776 83.565 149.785 84.5749 149.912 85.711Z" fill="#914100"/>
<path d="M148.776 79.6514C149.029 80.7875 148.65 81.7973 147.893 82.6809C145.62 85.5842 139.814 87.4777 136.658 88.1089C133.502 88.74 127.317 88.9925 124.287 87.099C123.278 86.4678 122.646 85.7105 122.394 84.5744C122.141 83.4383 122.773 82.176 123.151 80.9137C126.307 82.8072 132.366 82.5547 135.522 81.9235C138.678 81.2924 144.484 79.3989 146.756 76.4956C147.64 77.5055 148.65 78.3891 148.776 79.6514Z" fill="#622C00"/>
<path d="M147.64 73.4663C147.893 74.6024 147.514 75.6123 146.757 76.4959C144.485 79.3992 138.678 81.2926 135.522 81.9238C132.367 82.555 126.181 82.8074 123.152 80.914C122.142 80.2828 121.511 79.5254 121.258 78.3893C121.006 77.2533 121.637 75.9909 122.016 74.7286C125.171 76.6221 131.23 76.3696 134.386 75.7385C137.542 75.1073 143.349 73.2139 145.621 70.3105C146.504 71.3204 147.388 72.3302 147.64 73.4663Z" fill="#914100"/>
<path d="M145.621 98.208C145.747 100.859 145.243 103.762 139.815 104.772C134.387 105.782 132.872 103.257 131.988 100.733C134.513 100.859 137.164 100.733 138.931 100.354C140.698 100.101 143.349 99.3441 145.621 98.208Z" fill="#1E1919"/>
<path d="M158.874 27.3924C162.661 47.968 143.348 57.0567 145.62 70.3109C143.348 73.2142 137.541 75.1077 134.386 75.7389C131.23 76.37 125.044 76.6225 122.015 74.729C119.364 61.601 98.031 59.8338 94.2441 39.3843C92.0981 28.0235 96.5162 5.04949 120.5 0.631402C144.484 -3.78668 156.855 16.0316 158.874 27.3924Z" fill="url(#paint0_linear)"/>
<path d="M127.613 31.943C130.689 31.5137 133.254 32.0357 135.308 33.509C137.377 34.9803 138.621 37.2175 139.041 40.2206C139.537 43.775 138.823 46.6626 136.9 48.8834C134.976 51.1042 131.976 52.4991 127.9 53.0681C124.36 53.5622 121.422 53.3881 119.085 52.5457L118.274 46.7353C119.506 47.1847 120.91 47.4989 122.488 47.678C124.064 47.8426 125.534 47.8297 126.898 47.6394C131.003 47.0663 132.821 45.0969 132.352 41.731C131.904 38.5248 129.555 37.2184 125.304 37.8117C124.535 37.919 123.698 38.1173 122.791 38.4064C121.883 38.6811 121.151 38.946 120.595 39.2011L117.718 38.1384L116.652 21.7589L133.909 19.3502L134.705 25.0518L123.345 26.6373L123.629 32.9649L124.37 32.7063C125.226 32.3797 126.308 32.1252 127.613 31.943Z" fill="#FF012F"/>
<defs>
<linearGradient id="paint0_linear" x1="126.566" y1="0" x2="126.566" y2="76.2028" gradientUnits="userSpaceOnUse">
<stop stop-color="#F7E100"/>
<stop offset="1" stop-color="#FFAA2E"/>
</linearGradient>
</defs>
</svg>
