<svg width="118" height="250" viewBox="0 0 118 250" fill="none" xmlns="http://www.w3.org/2000/svg">
<path d="M72.197 145.539C72.197 146.162 72.093 146.734 72.0411 147.357C69.9623 163.208 61.4915 179.318 46.5765 186.074L46.3167 185.606C56.6064 177.031 60.4521 164.403 59.7765 150.995C59.7245 149.696 59.3607 146.214 59.2048 146.058L72.197 145.539Z" fill="#FFDC01"/>
<path d="M32.2852 134.885C33.4805 147.461 40.912 178.278 54.7356 188.464L54.4758 188.932C38.9892 181.604 24.9577 152.606 20.2805 137.587L32.2852 134.885Z" fill="#E8BC03"/>
<path d="M64.5577 85.4633C63.5183 87.3861 59.3089 97.7279 55.8789 109.317C52.1892 121.841 49.6427 134.626 48.6553 147.566C48.3435 151.879 48.2915 156.244 48.3955 160.61C48.7593 170.536 50.1624 178.643 52.6569 186.646L52.1892 186.854C35.5593 157.388 35.5073 114.774 41.8994 81.8255L42.2632 80.0586C42.4191 79.435 42.523 78.9153 42.6789 78.1357L64.5577 85.4633Z" fill="#A97A00"/>
<path d="M62.0624 188.932C62.0624 196.208 56.1379 202.132 48.8624 202.132C41.5868 202.132 35.6624 196.208 35.6624 188.932C35.6624 181.657 41.5868 175.732 48.8624 175.732C56.1899 175.732 62.0624 181.657 62.0624 188.932Z" fill="#B50000"/>
<path d="M64.5571 85.463L42.6783 78.0835C41.7429 81.8772 39.6122 93.5701 38.6768 105.523L47.1476 103.392L56.0862 108.693C59.4642 97.4158 63.5177 87.3859 64.5571 85.463Z" fill="#8F6802"/>
<path d="M85.3288 118L51.035 97.6424L12.39 107.266L21.1662 68.2534L0 34.4228L39.6775 30.6474L65.2687 0L81.0513 36.7177L118 51.7453L88.0575 78.0991L85.3288 118Z" fill="#FFB600"/>
<path d="M51.4014 93.8198L17.0176 102.428L24.7817 67.6996L6 37.5724L41.2711 34.2332L64.0458 7L78.0951 39.6502L111 53.0071L84.3803 76.4558L81.9401 112L51.4014 93.8198Z" fill="#FFC536"/>
<path opacity="0.51" d="M25.4446 95C55.8313 95 80.8948 71.8108 84 42.0811L78.0853 39.7027L64.0379 7L41.2663 34.277L6 37.5473L24.7791 67.7973L18.7905 94.6284C21.0085 94.8513 23.2265 95 25.4446 95Z" fill="#FFC536"/>
<path d="M91.1645 202.132H9.88574V242.928H91.1645V202.132Z" fill="url(#paint0_linear)"/>
<path d="M9.88574 202.132C9.88574 202.132 58.5283 207.381 59.2558 213.306L72.144 232.43L73.3393 242.928H91.1645V202.132H9.88574Z" fill="url(#paint1_linear)"/>
<path d="M100 249.788H1V249.008C1 245.63 3.70236 242.928 7.08032 242.928H93.8677C97.2457 242.928 99.948 245.63 99.948 249.008V249.788H100Z" fill="#FFB10F"/>
<path d="M59.3095 161.389H60.2449L65.8575 167.053C69.6512 159.83 72.0418 150.579 72.1977 145.486L59.2056 146.058C59.4134 146.318 60.4528 153.593 59.3095 161.389Z" fill="#EABE06"/>
<path d="M61.7516 157.751L72.561 168.664L77.4461 154.113L91.1658 147.253L78.8492 138.107L76.5107 122.932L64.0382 131.819L48.9154 129.324L53.4886 143.979L46.4209 157.595L61.7516 157.751Z" fill="#FFD110"/>
<path d="M62.842 155.205L50.6814 155.049L56.294 144.239L52.6042 132.598L64.6609 134.573L74.5869 127.505L76.4578 139.562L86.2278 146.838L75.3145 152.294L71.4168 163.831L62.842 155.205Z" fill="#FDD013"/>
<path d="M72.1453 213.253H28.1279V232.378H72.1453V213.253Z" fill="#FFB10F"/>
<path d="M44.0296 232.378L28.9067 213.253H28.1272V215.644L41.3792 232.378H44.0296Z" fill="#FFB10F"/>
<path d="M37.1692 232.378L28.1267 220.945V222.608L35.87 232.378H37.1692Z" fill="#FFB10F"/>
<path d="M50.2645 232.378L35.1417 213.253H33.7905L48.9653 232.378H50.2645Z" fill="#FFB10F"/>
<path d="M56.0339 232.378L40.911 213.253H38.8843L54.0591 232.378H56.0339Z" fill="#FFB10F"/>
<path d="M85.9679 191.842H14.5112V202.08H85.9679V191.842Z" fill="#FFB10F"/>
<path d="M81.812 191.842H19.1899V190.595C19.1899 185.606 23.2435 181.604 28.1805 181.604H72.7695C77.7584 181.604 81.76 185.658 81.76 190.595V191.842H81.812Z" fill="#FFCF03"/>
<path d="M72.8202 181.604H65.3887C70.3776 181.604 74.3792 185.658 74.3792 190.595V191.842H81.8107V190.595C81.8107 185.606 77.8091 181.604 72.8202 181.604Z" fill="#E8BC03"/>
<path d="M32.2855 134.885L20.3328 137.587C21.58 141.641 23.5548 146.734 25.9973 152.138L30.1028 149.02L34.9359 149.696C33.5328 143.823 32.6493 138.575 32.2855 134.885Z" fill="#D3AB03"/>
<path d="M44.3416 147.253L29.1668 145.226L16.9023 154.425L14.1479 139.354L1.62354 130.571L15.1353 123.296L19.6046 108.641L30.6739 119.19L46.0046 118.982L39.3527 132.754L44.3416 147.253Z" fill="#FFCF03"/>
<path d="M16.5387 137.847L6.56079 130.831L17.2663 125.063L20.8521 113.422L29.6868 121.841L41.8474 121.633L36.5466 132.598L40.5482 144.135L28.4395 142.524L18.7214 149.852L16.5387 137.847Z" fill="#FFCF03"/>
<path d="M41.9209 60.6699C44.5433 60.6699 46.6276 61.4059 48.1738 62.8779C49.7324 64.3499 50.5117 66.3662 50.5117 68.9268C50.5117 71.9574 49.5778 74.2891 47.71 75.9219C45.8421 77.5547 43.1702 78.3711 39.6943 78.3711C36.6761 78.3711 34.2393 77.8825 32.3838 76.9053V71.9512C33.361 72.4707 34.499 72.8975 35.7979 73.2314C37.0967 73.5531 38.3275 73.7139 39.4902 73.7139C42.9909 73.7139 44.7412 72.279 44.7412 69.4092C44.7412 66.6755 42.929 65.3086 39.3047 65.3086C38.6491 65.3086 37.9255 65.3766 37.1338 65.5127C36.3421 65.6364 35.6989 65.7725 35.2041 65.9209L32.9219 64.6963L33.9424 50.873H48.6562V55.7344H38.9707L38.4697 61.0596L39.1191 60.9297C39.8737 60.7565 40.8076 60.6699 41.9209 60.6699ZM77.4717 78H70.9404L63.834 66.5703L61.4033 68.3145V78H55.6514V50.873H61.4033V63.2861L63.667 60.0947L71.0146 50.873H77.3975L67.9346 62.8779L77.4717 78Z" fill="#A97A00"/>
<defs>
<linearGradient id="paint0_linear" x1="50.5251" y1="202.132" x2="50.5251" y2="242.928" gradientUnits="userSpaceOnUse">
<stop stop-color="#FF1D1D"/>
<stop offset="1" stop-color="#FF4172"/>
</linearGradient>
<linearGradient id="paint1_linear" x1="50.5251" y1="202.132" x2="50.5251" y2="242.928" gradientUnits="userSpaceOnUse">
<stop stop-color="#FF1D1D"/>
<stop offset="1" stop-color="#FF4172"/>
</linearGradient>
</defs>
</svg>
