<svg width="118" height="250" viewBox="0 0 118 250" fill="none" xmlns="http://www.w3.org/2000/svg">
<path d="M72.197 145.539C72.197 146.162 72.093 146.734 72.0411 147.357C69.9623 163.208 61.4915 179.318 46.5765 186.074L46.3167 185.606C56.6064 177.031 60.4521 164.403 59.7765 150.995C59.7245 149.696 59.3607 146.214 59.2048 146.058L72.197 145.539Z" fill="#FFDC01"/>
<path d="M32.2852 134.885C33.4805 147.461 40.912 178.278 54.7356 188.464L54.4758 188.932C38.9892 181.604 24.9577 152.606 20.2805 137.587L32.2852 134.885Z" fill="#E8BC03"/>
<path d="M64.5576 85.4633C63.5182 87.3861 59.3087 97.7279 55.8788 109.317C52.1891 121.841 49.6426 134.626 48.6552 147.566C48.3434 151.879 48.2914 156.244 48.3953 160.61C48.7591 170.536 50.1623 178.643 52.6568 186.646L52.1891 186.854C35.5591 157.388 35.5072 114.774 41.8993 81.8255L42.2631 80.0586C42.419 79.435 42.5229 78.9153 42.6788 78.1357L64.5576 85.4633Z" fill="#A97A00"/>
<path d="M62.0624 188.932C62.0624 196.208 56.1379 202.132 48.8624 202.132C41.5868 202.132 35.6624 196.208 35.6624 188.932C35.6624 181.657 41.5868 175.732 48.8624 175.732C56.1899 175.732 62.0624 181.657 62.0624 188.932Z" fill="#B50000"/>
<path d="M64.5572 85.463L42.6785 78.0835C41.743 81.8772 39.6123 93.5701 38.6769 105.523L47.1477 103.392L56.0863 108.693C59.4643 97.4158 63.5178 87.3859 64.5572 85.463Z" fill="#8F6802"/>
<path d="M85.3288 118L51.035 97.6424L12.39 107.266L21.1662 68.2534L0 34.4228L39.6775 30.6474L65.2687 0L81.0513 36.7177L118 51.7453L88.0575 78.0991L85.3288 118Z" fill="#FFB600"/>
<path d="M51.4014 93.8198L17.0176 102.428L24.7817 67.6996L6 37.5724L41.2711 34.2332L64.0458 7L78.0951 39.6502L111 53.0071L84.3803 76.4558L81.9401 112L51.4014 93.8198Z" fill="#FFC536"/>
<path opacity="0.51" d="M25.4446 95C55.8313 95 80.8948 71.8108 84 42.0811L78.0853 39.7027L64.0379 7L41.2663 34.277L6 37.5473L24.7791 67.7973L18.7905 94.6284C21.0085 94.8513 23.2265 95 25.4446 95Z" fill="#FFC536"/>
<path d="M91.1646 202.132H9.88586V242.928H91.1646V202.132Z" fill="url(#paint0_linear)"/>
<path d="M9.88586 202.132C9.88586 202.132 58.5284 207.381 59.2559 213.306L72.1441 232.43L73.3394 242.928H91.1646V202.132H9.88586Z" fill="url(#paint1_linear)"/>
<path d="M100 249.788H1V249.008C1 245.63 3.70236 242.928 7.08032 242.928H93.8677C97.2457 242.928 99.948 245.63 99.948 249.008V249.788H100Z" fill="#FFB10F"/>
<path d="M59.3095 161.389H60.2449L65.8575 167.053C69.6512 159.83 72.0418 150.579 72.1977 145.486L59.2056 146.058C59.4134 146.318 60.4528 153.593 59.3095 161.389Z" fill="#EABE06"/>
<path d="M61.7517 157.751L72.5612 168.664L77.4462 154.113L91.1659 147.253L78.8494 138.107L76.5108 122.932L64.0383 131.819L48.9155 129.324L53.4887 143.979L46.421 157.595L61.7517 157.751Z" fill="#FFD110"/>
<path d="M62.842 155.205L50.6814 155.049L56.294 144.239L52.6042 132.598L64.6609 134.573L74.5869 127.505L76.4578 139.562L86.2278 146.838L75.3145 152.294L71.4168 163.831L62.842 155.205Z" fill="#FDD013"/>
<path d="M72.1453 213.253H28.1279V232.378H72.1453V213.253Z" fill="#FFB10F"/>
<path d="M44.0294 232.378L28.9066 213.253H28.1271V215.644L41.379 232.378H44.0294Z" fill="#FFB10F"/>
<path d="M37.1691 232.378L28.1266 220.945V222.608L35.8699 232.378H37.1691Z" fill="#FFB10F"/>
<path d="M50.2645 232.378L35.1417 213.253H33.7905L48.9653 232.378H50.2645Z" fill="#FFB10F"/>
<path d="M56.0338 232.378L40.9109 213.253H38.8842L54.059 232.378H56.0338Z" fill="#FFB10F"/>
<path d="M85.9679 191.842H14.5112V202.08H85.9679V191.842Z" fill="#FFB10F"/>
<path d="M81.812 191.842H19.1899V190.595C19.1899 185.606 23.2435 181.604 28.1805 181.604H72.7695C77.7584 181.604 81.76 185.658 81.76 190.595V191.842H81.812Z" fill="#FFCF03"/>
<path d="M72.8202 181.604H65.3887C70.3776 181.604 74.3792 185.658 74.3792 190.595V191.842H81.8107V190.595C81.8107 185.606 77.8091 181.604 72.8202 181.604Z" fill="#E8BC03"/>
<path d="M32.2854 134.885L20.3326 137.587C21.5799 141.641 23.5547 146.734 25.9972 152.138L30.1027 149.02L34.9358 149.696C33.5326 143.823 32.6492 138.575 32.2854 134.885Z" fill="#D3AB03"/>
<path d="M44.3416 147.253L29.1668 145.226L16.9023 154.425L14.1479 139.354L1.62354 130.571L15.1353 123.296L19.6046 108.641L30.6739 119.19L46.0046 118.982L39.3527 132.754L44.3416 147.253Z" fill="#FFCF03"/>
<path d="M16.5386 137.847L6.56067 130.831L17.2662 125.063L20.852 113.422L29.6867 121.841L41.8473 121.633L36.5465 132.598L40.5481 144.135L28.4394 142.524L18.7213 149.852L16.5386 137.847Z" fill="#FFCF03"/>
<path d="M43.9209 78H24.958V74.0107L31.7676 67.127C33.7839 65.0612 35.1012 63.6325 35.7197 62.8408C36.3382 62.0368 36.7835 61.2946 37.0557 60.6143C37.3278 59.9339 37.4639 59.2288 37.4639 58.499C37.4639 57.4105 37.1608 56.6003 36.5547 56.0684C35.9609 55.5365 35.1631 55.2705 34.1611 55.2705C33.1097 55.2705 32.0892 55.5117 31.0996 55.9941C30.11 56.4766 29.0771 57.1631 28.001 58.0537L24.8838 54.3613C26.2197 53.2233 27.3268 52.4193 28.2051 51.9492C29.0833 51.4792 30.042 51.1204 31.0811 50.873C32.1201 50.6133 33.2829 50.4834 34.5693 50.4834C36.264 50.4834 37.7607 50.7926 39.0596 51.4111C40.3584 52.0296 41.3665 52.8955 42.084 54.0088C42.8014 55.1221 43.1602 56.3962 43.1602 57.8311C43.1602 59.0804 42.9375 60.2555 42.4922 61.3564C42.0592 62.445 41.3789 63.5645 40.4512 64.7148C39.5358 65.8652 37.9154 67.5042 35.5898 69.6318L32.1016 72.916V73.1758H43.9209V78ZM56.5381 60.6699C59.1605 60.6699 61.2448 61.4059 62.791 62.8779C64.3496 64.3499 65.1289 66.3662 65.1289 68.9268C65.1289 71.9574 64.195 74.2891 62.3271 75.9219C60.4593 77.5547 57.7874 78.3711 54.3115 78.3711C51.2933 78.3711 48.8564 77.8825 47.001 76.9053V71.9512C47.9782 72.4707 49.1162 72.8975 50.415 73.2314C51.7139 73.5531 52.9447 73.7139 54.1074 73.7139C57.6081 73.7139 59.3584 72.279 59.3584 69.4092C59.3584 66.6755 57.5462 65.3086 53.9219 65.3086C53.2663 65.3086 52.5426 65.3766 51.751 65.5127C50.9593 65.6364 50.3161 65.7725 49.8213 65.9209L47.5391 64.6963L48.5596 50.873H63.2734V55.7344H53.5879L53.0869 61.0596L53.7363 60.9297C54.4909 60.7565 55.4248 60.6699 56.5381 60.6699ZM87.1904 64.4365C87.1904 69.1742 86.4111 72.681 84.8525 74.957C83.3063 77.2331 80.9189 78.3711 77.6904 78.3711C74.5609 78.3711 72.1982 77.196 70.6025 74.8457C69.0192 72.4954 68.2275 69.0257 68.2275 64.4365C68.2275 59.6494 69.0007 56.124 70.5469 53.8604C72.0931 51.5843 74.4743 50.4463 77.6904 50.4463C80.82 50.4463 83.1826 51.6338 84.7783 54.0088C86.3864 56.3838 87.1904 59.8597 87.1904 64.4365ZM73.9238 64.4365C73.9238 67.764 74.2083 70.1514 74.7773 71.5986C75.3587 73.0335 76.3298 73.751 77.6904 73.751C79.0264 73.751 79.9912 73.0212 80.585 71.5615C81.1787 70.1019 81.4756 67.7269 81.4756 64.4365C81.4756 61.109 81.1725 58.7217 80.5664 57.2744C79.9727 55.8148 79.014 55.085 77.6904 55.085C76.3421 55.085 75.3773 55.8148 74.7959 57.2744C74.2145 58.7217 73.9238 61.109 73.9238 64.4365Z" fill="#A97A00"/>
<defs>
<linearGradient id="paint0_linear" x1="50.5252" y1="202.132" x2="50.5252" y2="242.928" gradientUnits="userSpaceOnUse">
<stop stop-color="#FF1D1D"/>
<stop offset="1" stop-color="#FF4172"/>
</linearGradient>
<linearGradient id="paint1_linear" x1="50.5252" y1="202.132" x2="50.5252" y2="242.928" gradientUnits="userSpaceOnUse">
<stop stop-color="#FF1D1D"/>
<stop offset="1" stop-color="#FF4172"/>
</linearGradient>
</defs>
</svg>
