<svg width="256" height="105" viewBox="0 0 256 105" fill="none" xmlns="http://www.w3.org/2000/svg">
<path d="M247.502 19.1877C247.249 19.1877 246.87 19.3139 246.618 19.3139C252.803 21.8386 248.764 24.237 241.947 25.4993C240.559 25.7517 239.044 26.0042 237.529 26.1304C245.861 28.7813 241.569 31.4321 234.373 32.8207C232.732 33.0731 230.965 33.3256 229.198 33.4518C234.626 35.8502 230.587 38.1224 224.023 39.3847C223.013 39.5109 222.003 39.7634 220.993 39.8896C225.032 41.9093 222.129 43.929 216.954 45.1913C216.827 48.0946 211.147 49.8619 208.117 50.493C204.962 51.1242 200.544 50.9979 193.348 52.3865C181.609 54.5324 174.792 58.5718 169.491 63.1161C162.043 69.3014 158.382 74.7294 146.643 78.1376L145.507 71.826C176.433 61.7276 170.753 11.8663 200.291 6.43838C211.021 4.41868 238.413 9.08923 250.026 12.4975C259.115 15.0221 254.823 17.7992 247.502 19.1877Z" fill="white"/>
<path d="M237.528 26.0051C237.655 26.6363 230.964 27.5199 224.274 26.8887C217.584 26.2576 211.272 24.7428 211.399 24.1117C211.525 23.4805 218.089 24.3641 224.527 24.9953C230.964 25.5002 237.402 25.374 237.528 26.0051Z" fill="#B3E4FF"/>
<path d="M229.198 33.3259C229.325 33.9571 223.013 34.7145 216.954 34.2096C210.769 33.7046 204.836 32.1899 204.962 31.5587C205.088 30.9276 211.147 31.6849 217.206 32.1899C223.139 32.821 229.198 32.6948 229.198 33.3259Z" fill="#B3E4FF"/>
<path d="M220.992 39.7634C221.119 40.3946 215.186 41.4044 209.127 41.0257C203.194 40.647 197.387 39.3847 197.513 38.7536C197.64 38.1224 203.446 38.7536 209.253 39.1322C215.06 39.3847 220.866 39.006 220.992 39.7634Z" fill="#B3E4FF"/>
<path d="M216.953 44.9388C217.08 45.1912 215.439 45.9486 212.788 46.3273C211.526 46.5798 209.885 46.8322 208.244 46.9585C206.603 46.9585 204.835 47.0847 203.068 47.0847C195.873 46.8322 189.056 45.4437 189.183 44.8125C189.309 44.1814 196.252 44.9388 203.068 45.1912C204.835 45.1912 206.476 45.1912 208.117 45.1912C209.758 45.1912 211.273 44.9388 212.535 44.9388C215.06 44.8125 216.827 44.6863 216.953 44.9388Z" fill="#B3E4FF"/>
<path d="M246.619 19.3141C246.619 19.5666 244.851 20.1977 241.948 20.5764C239.171 20.9551 235.258 21.0813 231.471 20.8289C223.897 20.324 216.576 18.5567 216.702 17.7993C216.828 17.1682 224.276 18.3043 231.597 18.8092C235.258 19.0616 239.045 19.1879 241.822 19.0616C244.599 19.0616 246.492 18.9354 246.619 19.3141Z" fill="#B3E4FF"/>
<path d="M9.30372 63.1156C9.55618 63.1156 9.93488 62.9894 10.1873 62.9894C5.26433 67.5337 9.93488 68.2911 16.7514 67.0288C18.1399 66.7763 19.6547 66.3976 21.0432 66.0189C14.2267 71.4469 19.1497 72.4567 26.3449 71.0682C27.9859 70.8157 29.7531 70.3108 31.3942 69.8059C27.2285 73.9715 31.7728 74.7289 38.3369 73.4666C39.3467 73.3403 40.3566 73.0879 41.3664 72.8354C38.3369 76.1174 41.7451 77.001 47.0468 76.2437C48.1829 78.8945 54.1157 78.642 57.1453 78.0109C60.3011 77.3797 64.4667 75.7387 71.5356 74.4764C83.2751 72.3305 91.1014 73.719 97.6655 75.9912C106.88 79.147 112.182 82.8077 124.426 81.9241L123.29 75.6125C90.7227 77.1273 78.3521 28.6546 48.6878 34.0825C38.0844 36.1022 14.1005 50.2401 4.50694 57.5615C-3.06692 63.3681 1.85609 64.5042 9.30372 63.1156Z" fill="white"/>
<path d="M44.7754 54.9106C45.1541 55.4155 39.7262 59.2025 33.6671 62.1058C27.608 65.0091 21.1702 66.5239 21.044 65.8927C20.7915 65.2615 27.103 63.1156 32.7834 60.2123C38.7163 57.4352 44.3967 54.2794 44.7754 54.9106Z" fill="#B3E4FF"/>
<path d="M53.4852 59.5815C53.8639 60.0864 48.6884 63.6209 43.1343 66.398C37.4539 69.175 31.521 70.5636 31.2686 69.9324C31.0161 69.3013 36.8227 67.1553 42.2507 64.6307C47.8048 61.8536 53.2328 58.9503 53.4852 59.5815Z" fill="#B3E4FF"/>
<path d="M62.952 63.4946C63.3307 63.9995 58.2815 67.2815 52.9798 69.8061C47.4256 72.3308 41.7452 73.4668 41.4927 72.8357C41.2403 72.2045 46.9207 70.3111 52.2224 68.0389C57.3979 65.6405 62.5733 62.9897 62.952 63.4946Z" fill="#B3E4FF"/>
<path d="M73.0507 66.2718C73.4294 66.7767 67.4965 70.6899 60.9325 73.467C59.2915 74.0981 57.5243 74.7293 56.0095 75.2342C54.3685 75.7391 52.98 75.9916 51.5914 76.244C50.3291 76.4965 49.3193 76.749 48.4357 76.6227C47.6783 76.6227 47.1733 76.4965 47.1733 76.3703C47.1733 76.244 47.552 75.9916 48.3094 75.7391C48.9406 75.6129 50.0766 75.108 51.339 74.7293C52.6013 74.3506 54.116 73.9719 55.6308 73.3407C57.1456 72.7096 58.6604 72.0784 60.3014 71.5735C66.4867 68.9226 72.672 65.6406 73.0507 66.2718Z" fill="#B3E4FF"/>
<path d="M37.5796 50.8714C37.9583 51.3763 31.6468 55.7944 24.8303 58.9502C21.422 60.465 17.7613 61.8535 14.9843 62.4846C12.2072 63.1158 10.3137 63.242 10.1875 62.8633C10.0612 62.4847 11.9547 61.9797 14.4793 60.9699C17.1302 60.0863 20.5384 58.5715 23.9467 57.0567C30.7631 54.0272 37.2009 50.2402 37.5796 50.8714Z" fill="#B3E4FF"/>
<path d="M151.315 91.8963C151.82 94.5471 149.043 96.693 145.887 98.2078C143.615 99.3439 140.964 99.975 139.197 100.354C137.429 100.732 134.779 100.985 132.254 100.732C128.719 100.48 125.437 99.4701 124.932 96.693C124.68 95.557 125.311 94.2947 125.69 93.0323C128.846 94.9258 134.905 94.6733 138.061 94.0422C141.216 93.411 147.023 91.5176 149.295 88.6143C150.179 89.7503 151.189 90.7602 151.315 91.8963Z" fill="#622C00"/>
<path d="M150.178 85.711C150.43 86.847 150.052 87.8569 149.294 88.7405C147.022 91.6438 141.215 93.5373 138.06 94.1684C134.904 94.7996 128.719 95.0521 125.689 93.1586C124.679 92.5274 124.048 91.77 123.796 90.634C123.543 89.4979 124.174 88.2356 124.553 86.9733C127.709 88.8667 133.768 88.6143 136.924 87.9831C140.079 87.352 145.886 85.4585 148.158 82.5552C149.042 83.565 150.052 84.5749 150.178 85.711Z" fill="#914100"/>
<path d="M149.043 79.6514C149.295 80.7875 148.916 81.7973 148.159 82.6809C145.887 85.5842 140.08 87.4777 136.924 88.1089C133.769 88.74 127.583 88.9925 124.554 87.099C123.544 86.4678 122.913 85.7105 122.66 84.5744C122.408 83.4383 123.039 82.176 123.418 80.9137C126.573 82.8072 132.633 82.5547 135.788 81.9235C138.944 81.2924 144.751 79.3989 147.023 76.4956C147.906 77.5055 148.916 78.3891 149.043 79.6514Z" fill="#622C00"/>
<path d="M147.907 73.4663C148.159 74.6024 147.78 75.6123 147.023 76.4959C144.751 79.3992 138.944 81.2926 135.788 81.9238C132.633 82.555 126.447 82.8074 123.418 80.914C122.408 80.2828 121.777 79.5254 121.524 78.3893C121.272 77.2533 121.903 75.9909 122.282 74.7286C125.437 76.6221 131.497 76.3696 134.652 75.7385C137.808 75.1073 143.615 73.2139 145.887 70.3105C146.77 71.3204 147.654 72.3302 147.907 73.4663Z" fill="#914100"/>
<path d="M145.887 98.208C146.013 100.859 145.508 103.762 140.08 104.772C134.653 105.782 133.138 103.257 132.254 100.733C134.779 100.859 137.43 100.733 139.197 100.354C140.964 100.101 143.615 99.3441 145.887 98.208Z" fill="#1E1919"/>
<path d="M159.14 27.3924C162.927 47.968 143.614 57.0567 145.886 70.3109C143.614 73.2142 137.807 75.1077 134.652 75.7389C131.496 76.37 125.311 76.6225 122.281 74.729C119.63 61.601 98.2971 59.8338 94.5102 39.3843C92.3642 28.0235 96.7823 5.04949 120.766 0.631402C144.75 -3.78668 157.121 16.0316 159.14 27.3924Z" fill="url(#paint0_linear)"/>
<path d="M128.38 51.3743L106.139 54.4786L105.486 49.7998L112.346 40.6115C114.372 37.8586 115.683 35.9673 116.279 34.9375C116.873 33.8933 117.274 32.9499 117.482 32.1074C117.689 31.265 117.734 30.4157 117.614 29.5598C117.436 28.2831 116.948 27.3824 116.15 26.8578C115.366 26.3312 114.387 26.1499 113.212 26.3139C111.979 26.486 110.821 26.936 109.74 27.6638C108.658 28.3916 107.559 29.3659 106.443 30.5866L102.182 26.7663C103.563 25.2129 104.73 24.0887 105.683 23.3936C106.636 22.6985 107.702 22.1209 108.88 21.6606C110.056 21.1858 111.398 20.8432 112.907 20.6326C114.895 20.3551 116.701 20.4728 118.325 20.9856C119.95 21.4984 121.274 22.3489 122.298 23.5371C123.321 24.7254 123.951 26.161 124.186 27.8439C124.39 29.3092 124.321 30.7238 123.979 32.0879C123.65 33.4355 123.035 34.8598 122.135 36.3609C121.25 37.86 119.618 40.0475 117.239 42.9236L113.685 47.3464L113.728 47.6511L127.59 45.7163L128.38 51.3743ZM140.341 28.9834C143.416 28.5541 145.981 29.0761 148.036 30.5494C150.105 32.0207 151.349 34.2579 151.768 37.261C152.264 40.8154 151.55 43.703 149.627 45.9238C147.704 48.1446 144.704 49.5395 140.627 50.1086C137.087 50.6027 134.149 50.4285 131.813 49.5861L131.002 43.7758C132.233 44.2251 133.638 44.5393 135.216 44.7184C136.791 44.883 138.261 44.8701 139.625 44.6798C143.731 44.1067 145.549 42.1373 145.079 38.7715C144.631 35.5652 142.282 34.2588 138.031 34.8521C137.263 34.9594 136.425 35.1577 135.519 35.4469C134.611 35.7215 133.878 35.9864 133.322 36.2415L130.445 35.1789L129.379 18.7993L146.636 16.3906L147.432 22.0922L136.072 23.6777L136.357 30.0054L137.097 29.7467C137.954 29.4201 139.035 29.1657 140.341 28.9834Z" fill="#FF012F"/>
<defs>
<linearGradient id="paint0_linear" x1="126.832" y1="0" x2="126.832" y2="76.2028" gradientUnits="userSpaceOnUse">
<stop stop-color="#F7E100"/>
<stop offset="1" stop-color="#FFAA2E"/>
</linearGradient>
</defs>
</svg>
