<svg width="357" height="147" viewBox="0 0 357 147" fill="none" xmlns="http://www.w3.org/2000/svg">
<path d="M345.839 26.863C345.485 26.863 344.955 27.0397 344.602 27.0397C353.261 30.5742 347.606 33.9319 338.063 35.6992C336.119 36.0526 333.998 36.4061 331.878 36.5828C343.541 40.294 337.533 44.0052 327.46 45.9491C325.162 46.3026 322.688 46.656 320.214 46.8327C327.813 50.1905 322.158 53.3715 312.968 55.1387C311.555 55.3155 310.141 55.6689 308.727 55.8456C314.382 58.6732 310.317 61.5008 303.072 63.268C302.895 67.3326 294.943 69.8068 290.701 70.6904C286.283 71.574 280.098 71.3973 270.025 73.3412C253.589 76.3455 244.046 82.0007 236.624 88.3627C226.197 97.0222 221.072 104.621 204.637 109.393L203.046 100.557C246.344 86.4188 238.391 16.613 279.744 9.01393C294.766 6.18635 333.115 12.7251 349.373 17.4966C362.097 21.0311 356.089 24.919 345.839 26.863Z" fill="white"/>
<path d="M331.876 36.4065C332.053 37.2901 322.686 38.5272 313.32 37.6436C303.954 36.7599 295.117 34.6393 295.294 33.7556C295.471 32.872 304.66 34.1091 313.673 34.9927C322.686 35.6996 331.699 35.5229 331.876 36.4065Z" fill="#B3E4FF"/>
<path d="M320.214 46.6556C320.391 47.5393 311.554 48.5996 303.072 47.8927C294.412 47.1858 286.106 45.0651 286.283 44.1815C286.46 43.2979 294.942 44.3582 303.425 45.0651C311.731 45.9487 320.214 45.772 320.214 46.6556Z" fill="#B3E4FF"/>
<path d="M308.724 55.6682C308.901 56.5518 300.595 57.9656 292.112 57.4354C283.806 56.9052 275.677 55.138 275.854 54.2544C276.031 53.3708 284.16 54.2544 292.289 54.7846C300.418 55.138 308.548 54.6078 308.724 55.6682Z" fill="#B3E4FF"/>
<path d="M303.071 62.9145C303.247 63.2679 300.95 64.3283 297.239 64.8584C295.471 65.2119 293.174 65.5653 290.877 65.7421C288.579 65.7421 286.105 65.9188 283.631 65.9188C273.558 65.5653 264.015 63.6214 264.191 62.7377C264.368 61.8541 274.088 62.9145 283.631 63.2679C286.105 63.2679 288.402 63.2679 290.7 63.2679C292.997 63.2679 295.118 62.9145 296.885 62.9145C300.42 62.7378 302.894 62.561 303.071 62.9145Z" fill="#B3E4FF"/>
<path d="M344.602 27.0394C344.602 27.3928 342.128 28.2764 338.063 28.8066C334.175 29.3368 328.697 29.5135 323.395 29.16C312.792 28.4531 302.542 25.979 302.719 24.9187C302.895 24.0351 313.322 25.6256 323.572 26.3325C328.697 26.6859 333.999 26.8626 337.887 26.6859C341.774 26.6859 344.425 26.5092 344.602 27.0394Z" fill="#B3E4FF"/>
<path d="M12.363 88.362C12.7164 88.362 13.2466 88.1852 13.6001 88.1852C6.70785 94.5473 13.2466 95.6076 22.7897 93.8404C24.7336 93.4869 26.8543 92.9568 28.7983 92.4266C19.2552 100.026 26.1474 101.439 36.2207 99.4955C38.5181 99.1421 40.9922 98.4352 43.2896 97.7283C37.4577 103.56 43.8198 104.621 53.0094 102.853C54.4232 102.677 55.837 102.323 57.2507 101.97C53.0094 106.564 57.7809 107.802 65.2033 106.741C66.7938 110.452 75.0998 110.099 79.3412 109.215C83.7592 108.332 89.5911 106.034 99.4876 104.267C115.923 101.263 126.88 103.207 136.069 106.388C148.97 110.806 156.393 115.931 173.535 114.694L171.944 105.858C126.35 107.978 109.031 40.1165 67.5007 47.7156C52.6559 50.5432 19.0785 70.3362 5.64751 80.5861C-4.95589 88.7154 1.93632 90.3059 12.363 88.362Z" fill="white"/>
<path d="M62.0228 76.8748C62.553 77.5817 54.9539 82.8834 46.4712 86.9481C37.9885 91.0127 28.9756 93.1334 28.7988 92.2498C28.4454 91.3662 37.2816 88.3619 45.2341 84.2972C53.5401 80.4093 61.4927 75.9912 62.0228 76.8748Z" fill="#B3E4FF"/>
<path d="M74.216 83.4143C74.7462 84.1212 67.5005 89.0694 59.7247 92.9573C51.7721 96.8452 43.4661 98.7892 43.1127 97.9056C42.7592 97.022 50.8885 94.0177 58.4876 90.4832C66.2635 86.5953 73.8626 82.5306 74.216 83.4143Z" fill="#B3E4FF"/>
<path d="M87.4694 88.8926C87.9996 89.5995 80.9306 94.1943 73.5082 97.7288C65.7324 101.263 57.7799 102.854 57.4264 101.97C57.073 101.087 65.0255 98.4357 72.4479 95.2547C79.6936 91.8969 86.9392 88.1857 87.4694 88.8926Z" fill="#B3E4FF"/>
<path d="M101.608 92.7804C102.138 93.4873 93.8323 98.9657 84.6427 102.854C82.3453 103.737 79.8712 104.621 77.7505 105.328C75.4531 106.035 73.5092 106.388 71.5652 106.742C69.798 107.095 68.3842 107.448 67.1471 107.272C66.0868 107.272 65.3799 107.095 65.3799 106.918C65.3799 106.742 65.91 106.388 66.9704 106.035C67.854 105.858 69.4445 105.151 71.2117 104.621C72.979 104.091 75.0997 103.561 77.2203 102.677C79.341 101.793 81.4617 100.91 83.7591 100.203C92.4186 96.4916 101.078 91.8968 101.608 92.7804Z" fill="#B3E4FF"/>
<path d="M51.9486 71.2201C52.4788 71.9269 43.6426 78.1123 34.0996 82.5304C29.328 84.651 24.2031 86.595 20.3151 87.4786C16.4272 88.3622 13.7764 88.5389 13.5997 88.0088C13.4229 87.4786 16.0738 86.7717 19.6083 85.3579C23.3194 84.1209 28.091 82.0002 32.8625 79.8795C42.4056 75.6381 51.4185 70.3364 51.9486 71.2201Z" fill="#B3E4FF"/>
<path d="M211.178 128.655C211.885 132.366 207.997 135.37 203.579 137.491C200.398 139.082 196.687 139.965 194.213 140.495C191.739 141.025 188.028 141.379 184.493 141.026C179.545 140.672 174.95 139.258 174.243 135.37C173.89 133.78 174.773 132.013 175.304 130.245C179.722 132.896 188.204 132.543 192.623 131.659C197.041 130.776 205.17 128.125 208.351 124.06C209.588 125.651 211.002 127.064 211.178 128.655Z" fill="#622C00"/>
<path d="M209.587 119.996C209.94 121.586 209.41 123 208.35 124.237C205.169 128.302 197.039 130.953 192.621 131.836C188.203 132.72 179.544 133.073 175.302 130.422C173.889 129.539 173.005 128.478 172.651 126.888C172.298 125.297 173.182 123.53 173.712 121.763C178.13 124.414 186.613 124.06 191.031 123.177C195.449 122.293 203.578 119.642 206.759 115.578C207.996 116.991 209.41 118.405 209.587 119.996Z" fill="#914100"/>
<path d="M207.997 111.512C208.35 113.103 207.82 114.517 206.76 115.754C203.579 119.818 195.449 122.469 191.031 123.353C186.613 124.236 177.954 124.59 173.712 121.939C172.299 121.055 171.415 119.995 171.062 118.405C170.708 116.814 171.592 115.047 172.122 113.28C176.54 115.93 185.023 115.577 189.441 114.693C193.859 113.81 201.988 111.159 205.169 107.094C206.406 108.508 207.82 109.745 207.997 111.512Z" fill="#622C00"/>
<path d="M206.407 102.853C206.76 104.444 206.23 105.857 205.17 107.095C201.989 111.159 193.86 113.81 189.442 114.694C185.023 115.577 176.364 115.931 172.123 113.28C170.709 112.396 169.825 111.336 169.472 109.745C169.118 108.155 170.002 106.388 170.532 104.62C174.95 107.271 183.433 106.918 187.851 106.034C192.269 105.151 200.398 102.5 203.579 98.4351C204.816 99.8488 206.054 101.263 206.407 102.853Z" fill="#914100"/>
<path d="M203.579 137.491C203.756 141.202 203.049 145.267 195.45 146.681C187.85 148.095 185.73 144.56 184.493 141.026C188.027 141.202 191.738 141.026 194.212 140.496C196.687 140.142 200.398 139.082 203.579 137.491Z" fill="#1E1919"/>
<path d="M222.134 38.3493C227.435 67.1552 200.397 79.8793 203.578 98.4353C200.397 102.5 192.267 105.151 187.849 106.034C183.431 106.918 174.772 107.271 170.53 104.621C166.819 86.2414 136.953 83.7672 131.651 55.1381C128.647 39.2329 134.832 7.06928 168.41 0.883963C201.987 -5.30136 219.306 22.4442 222.134 38.3493Z" fill="url(#paint0_linear)"/>
<path d="M160.391 71.158L153.666 72.0965L151.096 53.6861L150.74 50.6521L150.387 47.3292C149.425 48.6022 148.752 49.4432 148.365 49.8521L145.119 53.3002L141.312 49.7051L150.422 40.1139L155.95 39.3424L160.391 71.158ZM189.072 50.937C189.847 56.4935 189.507 60.734 188.052 63.6586C186.611 66.5811 183.997 68.3067 180.211 68.8352C176.54 69.3475 173.577 68.356 171.321 65.8608C169.079 63.3635 167.583 59.4236 166.831 54.0412C166.048 48.4267 166.377 44.1654 167.82 41.2574C169.261 38.3348 171.868 36.6103 175.64 36.0838C179.31 35.5715 182.275 36.5775 184.536 39.1018C186.811 41.624 188.323 45.5691 189.072 50.937ZM173.512 53.1088C174.057 57.0114 174.781 59.7648 175.686 61.369C176.602 62.9568 177.859 63.6393 179.455 63.4165C181.021 63.1978 182.034 62.1839 182.491 60.3748C182.948 58.5657 182.908 55.7316 182.369 51.8725C181.824 47.9699 181.078 45.2195 180.13 43.6213C179.195 42.0066 177.951 41.3076 176.399 41.5243C174.818 41.745 173.805 42.7589 173.362 44.566C172.918 46.3586 172.967 49.2062 173.512 53.1088ZM214.533 47.3832C215.309 52.9397 214.969 57.1802 213.513 60.1048C212.072 63.0273 209.459 64.7529 205.672 65.2814C202.002 65.7937 199.038 64.8022 196.782 62.307C194.54 59.8097 193.044 55.8698 192.292 50.4874C191.509 44.8729 191.838 40.6116 193.281 37.7036C194.722 34.781 197.329 33.0565 201.101 32.53C204.771 32.0177 207.737 33.0237 209.997 35.548C212.272 38.0702 213.784 42.0153 214.533 47.3832ZM198.973 49.5549C199.518 53.4575 200.243 56.211 201.147 57.8152C202.064 59.403 203.32 60.0855 204.916 59.8627C206.483 59.644 207.495 58.6301 207.952 56.821C208.41 55.0119 208.369 52.1778 207.83 48.3187C207.286 44.4161 206.539 41.6657 205.592 40.0675C204.656 38.4528 203.412 37.7538 201.86 37.9704C200.279 38.1912 199.267 39.2051 198.824 41.0122C198.379 42.8048 198.429 45.6523 198.973 49.5549Z" fill="#FF012F"/>
<defs>
<linearGradient id="paint0_linear" x1="176.902" y1="0" x2="176.902" y2="106.684" gradientUnits="userSpaceOnUse">
<stop stop-color="#F7E100"/>
<stop offset="1" stop-color="#FFAA2E"/>
</linearGradient>
</defs>
</svg>
