<svg width="255" height="105" viewBox="0 0 255 105" fill="none" xmlns="http://www.w3.org/2000/svg">
<path d="M247.314 19.1877C247.062 19.1877 246.683 19.3139 246.431 19.3139C252.616 21.8386 248.577 24.237 241.76 25.4993C240.372 25.7517 238.857 26.0042 237.342 26.1304C245.673 28.7813 241.381 31.4321 234.186 32.8207C232.545 33.0731 230.778 33.3256 229.011 33.4518C234.439 35.8502 230.399 38.1224 223.835 39.3847C222.825 39.5109 221.816 39.7634 220.806 39.8896C224.845 41.9093 221.942 43.929 216.766 45.1913C216.64 48.0946 210.96 49.8619 207.93 50.493C204.774 51.1242 200.356 50.9979 193.161 52.3865C181.422 54.5324 174.605 58.5718 169.303 63.1161C161.856 69.3014 158.195 74.7294 146.456 78.1376L145.32 71.826C176.246 61.7276 170.566 11.8663 200.104 6.43838C210.834 4.41868 238.226 9.08923 249.839 12.4975C258.928 15.0221 254.636 17.7992 247.314 19.1877Z" fill="white"/>
<path d="M237.341 26.0051C237.467 26.6363 230.777 27.5199 224.087 26.8887C217.397 26.2576 211.085 24.7428 211.211 24.1117C211.338 23.4805 217.902 24.3641 224.339 24.9953C230.777 25.5002 237.215 25.374 237.341 26.0051Z" fill="#B3E4FF"/>
<path d="M229.011 33.3259C229.137 33.9571 222.826 34.7145 216.767 34.2096C210.581 33.7046 204.648 32.1899 204.775 31.5587C204.901 30.9276 210.96 31.6849 217.019 32.1899C222.952 32.821 229.011 32.6948 229.011 33.3259Z" fill="#B3E4FF"/>
<path d="M220.805 39.7634C220.931 40.3946 214.999 41.4044 208.94 41.0257C203.007 40.647 197.2 39.3847 197.326 38.7536C197.452 38.1224 203.259 38.7536 209.066 39.1322C214.872 39.3847 220.679 39.006 220.805 39.7634Z" fill="#B3E4FF"/>
<path d="M216.766 44.9388C216.892 45.1912 215.251 45.9486 212.601 46.3273C211.338 46.5798 209.697 46.8322 208.056 46.9585C206.415 46.9585 204.648 47.0847 202.881 47.0847C195.686 46.8322 188.869 45.4437 188.995 44.8125C189.122 44.1814 196.064 44.9388 202.881 45.1912C204.648 45.1912 206.289 45.1912 207.93 45.1912C209.571 45.1912 211.086 44.9388 212.348 44.9388C214.873 44.8125 216.64 44.6863 216.766 44.9388Z" fill="#B3E4FF"/>
<path d="M246.431 19.3141C246.431 19.5666 244.664 20.1977 241.761 20.5764C238.984 20.9551 235.071 21.0813 231.284 20.8289C223.71 20.324 216.388 18.5567 216.515 17.7993C216.641 17.1682 224.088 18.3043 231.41 18.8092C235.07 19.0616 238.857 19.1879 241.635 19.0616C244.412 19.0616 246.305 18.9354 246.431 19.3141Z" fill="#B3E4FF"/>
<path d="M9.11647 63.1156C9.36893 63.1156 9.74762 62.9894 10.0001 62.9894C5.07707 67.5337 9.74762 68.2911 16.5641 67.0288C17.9526 66.7763 19.4674 66.3976 20.856 66.0189C14.0395 71.4469 18.9625 72.4567 26.1577 71.0682C27.7987 70.8157 29.5659 70.3108 31.2069 69.8059C27.0413 73.9715 31.5856 74.7289 38.1496 73.4666C39.1595 73.3403 40.1693 73.0879 41.1792 72.8354C38.1496 76.1174 41.5578 77.001 46.8595 76.2437C47.9956 78.8945 53.9285 78.642 56.958 78.0109C60.1138 77.3797 64.2794 75.7387 71.3484 74.4764C83.0879 72.3305 90.9142 73.719 97.4782 75.9912C106.693 79.147 111.995 82.8077 124.239 81.9241L123.103 75.6125C90.5355 77.1273 78.1648 28.6546 48.5006 34.0825C37.8971 36.1022 13.9132 50.2401 4.31969 57.5615C-3.25418 63.3681 1.66883 64.5042 9.11647 63.1156Z" fill="white"/>
<path d="M44.5881 54.9106C44.9668 55.4155 39.5389 59.2025 33.4798 62.1058C27.4207 65.0091 20.9829 66.5239 20.8567 65.8927C20.6042 65.2615 26.9158 63.1156 32.5962 60.2123C38.529 57.4352 44.2094 54.2794 44.5881 54.9106Z" fill="#B3E4FF"/>
<path d="M53.2979 59.5815C53.6765 60.0864 48.5011 63.6209 42.9469 66.398C37.2665 69.175 31.3337 70.5636 31.0812 69.9324C30.8287 69.3013 36.6354 67.1553 42.0633 64.6307C47.6175 61.8536 53.0454 58.9503 53.2979 59.5815Z" fill="#B3E4FF"/>
<path d="M62.7648 63.4946C63.1435 63.9995 58.0942 67.2815 52.7925 69.8061C47.2383 72.3308 41.5579 73.4668 41.3055 72.8357C41.053 72.2045 46.7334 70.3111 52.0351 68.0389C57.2106 65.6405 62.3861 62.9897 62.7648 63.4946Z" fill="#B3E4FF"/>
<path d="M72.8634 66.2718C73.2421 66.7767 67.3093 70.6899 60.7453 73.467C59.1043 74.0981 57.337 74.7293 55.8223 75.2342C54.1813 75.7391 52.7927 75.9916 51.4042 76.244C50.1419 76.4965 49.132 76.749 48.2484 76.6227C47.491 76.6227 46.9861 76.4965 46.9861 76.3703C46.9861 76.244 47.3648 75.9916 48.1222 75.7391C48.7533 75.6129 49.8894 75.108 51.1517 74.7293C52.414 74.3506 53.9288 73.9719 55.4436 73.3407C56.9583 72.7096 58.4731 72.0784 60.1141 71.5735C66.2994 68.9226 72.4848 65.6406 72.8634 66.2718Z" fill="#B3E4FF"/>
<path d="M37.3925 50.8714C37.7712 51.3763 31.4596 55.7944 24.6431 58.9502C21.2349 60.465 17.5742 61.8535 14.7971 62.4846C12.02 63.1158 10.1266 63.242 10.0003 62.8633C9.87411 62.4847 11.7676 61.9797 14.2922 60.9699C16.9431 60.0863 20.3513 58.5715 23.7595 57.0567C30.576 54.0272 37.0138 50.2402 37.3925 50.8714Z" fill="#B3E4FF"/>
<path d="M151.128 91.8963C151.632 94.5471 148.855 96.693 145.7 98.2078C143.427 99.3439 140.777 99.975 139.009 100.354C137.242 100.732 134.591 100.985 132.067 100.732C128.532 100.48 125.25 99.4701 124.745 96.693C124.493 95.557 125.124 94.2947 125.503 93.0323C128.658 94.9258 134.717 94.6733 137.873 94.0422C141.029 93.411 146.836 91.5176 149.108 88.6143C149.991 89.7503 151.001 90.7602 151.128 91.8963Z" fill="#622C00"/>
<path d="M149.991 85.711C150.243 86.847 149.864 87.8569 149.107 88.7405C146.835 91.6438 141.028 93.5373 137.872 94.1684C134.717 94.7996 128.531 95.0521 125.502 93.1586C124.492 92.5274 123.861 91.77 123.608 90.634C123.356 89.4979 123.987 88.2356 124.366 86.9733C127.521 88.8667 133.581 88.6143 136.736 87.9831C139.892 87.352 145.699 85.4585 147.971 82.5552C148.854 83.565 149.864 84.5749 149.991 85.711Z" fill="#914100"/>
<path d="M148.855 79.6514C149.108 80.7875 148.729 81.7973 147.972 82.6809C145.7 85.5842 139.893 87.4777 136.737 88.1089C133.581 88.74 127.396 88.9925 124.366 87.099C123.357 86.4678 122.725 85.7105 122.473 84.5744C122.221 83.4383 122.852 82.176 123.23 80.9137C126.386 82.8072 132.445 82.5547 135.601 81.9235C138.757 81.2924 144.563 79.3989 146.836 76.4956C147.719 77.5055 148.729 78.3891 148.855 79.6514Z" fill="#622C00"/>
<path d="M147.719 73.4663C147.972 74.6024 147.593 75.6123 146.836 76.4959C144.564 79.3992 138.757 81.2926 135.601 81.9238C132.445 82.555 126.26 82.8074 123.23 80.914C122.221 80.2828 121.589 79.5254 121.337 78.3893C121.085 77.2533 121.716 75.9909 122.094 74.7286C125.25 76.6221 131.309 76.3696 134.465 75.7385C137.621 75.1073 143.427 73.2139 145.7 70.3105C146.583 71.3204 147.467 72.3302 147.719 73.4663Z" fill="#914100"/>
<path d="M145.7 98.208C145.826 100.859 145.321 103.762 139.893 104.772C134.465 105.782 132.951 103.257 132.067 100.733C134.592 100.859 137.242 100.733 139.01 100.354C140.777 100.101 143.428 99.3441 145.7 98.208Z" fill="#1E1919"/>
<path d="M158.953 27.3924C162.74 47.968 143.427 57.0567 145.699 70.3109C143.427 73.2142 137.62 75.1077 134.464 75.7389C131.309 76.37 125.123 76.6225 122.094 74.729C119.443 61.601 98.1099 59.8338 94.3229 39.3843C92.177 28.0235 96.5951 5.04949 120.579 0.631402C144.563 -3.78668 156.934 16.0316 158.953 27.3924Z" fill="url(#paint0_linear)"/>
<path d="M103.848 40.9949C102.969 34.6985 103.643 29.8272 105.868 26.381C108.108 22.9328 111.883 20.8381 117.193 20.0969C119.007 19.8438 120.444 19.7542 121.504 19.828L122.254 25.2032C120.923 25.0932 119.626 25.1263 118.363 25.3025C116.057 25.6245 114.219 26.2359 112.851 27.1368C111.498 28.0357 110.553 29.2176 110.018 30.6826C109.483 32.1476 109.326 34.1441 109.545 36.6722L109.828 36.6327C110.92 33.9659 113.048 32.4118 116.21 31.9703C119.054 31.5734 121.405 32.1548 123.265 33.7145C125.124 35.2742 126.274 37.6282 126.713 40.7763C127.187 44.1712 126.605 46.996 124.967 49.2509C123.328 51.4912 120.811 52.8483 117.416 53.3222C115.065 53.6502 112.937 53.3927 111.029 52.5496C109.137 51.7046 107.566 50.3043 106.316 48.3488C105.082 46.3913 104.259 43.94 103.848 40.9949ZM116.535 47.9653C117.971 47.7648 119.007 47.1321 119.642 46.0673C120.275 44.988 120.468 43.556 120.218 41.7716C120.002 40.2193 119.469 39.0512 118.62 38.2675C117.784 37.4672 116.64 37.1684 115.189 37.3709C113.826 37.5612 112.719 38.1667 111.871 39.1873C111.037 40.206 110.702 41.3028 110.866 42.478C111.107 44.2044 111.76 45.5997 112.826 46.6638C113.906 47.7258 115.142 48.1597 116.535 47.9653ZM151.259 31.937C152.035 37.4935 151.695 41.734 150.239 44.6586C148.798 47.5811 146.185 49.3067 142.398 49.8352C138.728 50.3475 135.764 49.356 133.508 46.8608C131.266 44.3635 129.77 40.4236 129.019 35.0412C128.235 29.4267 128.565 25.1654 130.007 22.2574C131.448 19.3348 134.055 17.6103 137.827 17.0838C141.497 16.5715 144.463 17.5775 146.723 20.1018C148.998 22.624 150.51 26.5691 151.259 31.937ZM135.699 34.1088C136.244 38.0114 136.969 40.7648 137.873 42.369C138.79 43.9568 140.046 44.6393 141.642 44.4165C143.209 44.1978 144.221 43.1839 144.678 41.3748C145.136 39.5657 145.095 36.7316 144.556 32.8725C144.012 28.9699 143.265 26.2195 142.318 24.6213C141.382 23.0066 140.138 22.3076 138.586 22.5243C137.005 22.745 135.993 23.7589 135.55 25.566C135.105 27.3586 135.155 30.2062 135.699 34.1088Z" fill="#FF012F"/>
<defs>
<linearGradient id="paint0_linear" x1="126.645" y1="0" x2="126.645" y2="76.2028" gradientUnits="userSpaceOnUse">
<stop stop-color="#F7E100"/>
<stop offset="1" stop-color="#FFAA2E"/>
</linearGradient>
</defs>
</svg>
