<svg width="139" height="264" viewBox="0 0 139 264" fill="none" xmlns="http://www.w3.org/2000/svg">
<path d="M86.1967 165.968C86.1967 166.592 86.0928 167.164 86.0408 167.787C83.9621 183.638 75.4912 199.748 60.5762 206.504L60.3164 206.036C70.6062 197.461 74.4518 184.833 73.7763 171.425C73.7243 170.126 73.3605 166.644 73.2046 166.488L86.1967 165.968Z" fill="#FFDC01"/>
<path d="M46.285 155.314C47.4803 167.891 54.9118 198.708 68.7354 208.894L68.4755 209.362C52.9889 202.034 38.9574 173.036 34.2803 158.017L46.285 155.314Z" fill="#E8BC03"/>
<path d="M78.5577 105.893C77.5183 107.816 73.3089 118.158 69.8789 129.747C66.1892 142.271 63.6427 155.055 62.6553 167.995C62.3435 172.309 62.2915 176.674 62.3955 181.039C62.7593 190.965 64.1624 199.073 66.6569 207.076L66.1892 207.284C49.5593 177.817 49.5073 135.203 55.8994 102.255L56.2632 100.488C56.4191 99.8646 56.523 99.345 56.6789 98.5654L78.5577 105.893Z" fill="#A97A00"/>
<path d="M76.0621 209.362C76.0621 216.638 70.1377 222.562 62.8621 222.562C55.5865 222.562 49.6621 216.638 49.6621 209.362C49.6621 202.087 55.5865 196.162 62.8621 196.162C70.1897 196.162 76.0621 202.087 76.0621 209.362Z" fill="#B50000"/>
<path d="M78.5571 105.893L56.6783 98.5132C55.7429 102.307 53.6122 114 52.6768 125.953L61.1476 123.822L70.0862 129.123C73.4642 117.845 77.5177 107.816 78.5571 105.893Z" fill="#8F6802"/>
<path d="M100.514 139.43L60.1175 115.449L14.595 126.785L24.9331 80.8299L0 40.9786L46.7387 36.5313L76.8844 0.429688L95.4756 43.6819L139 61.3839L103.729 92.4278L100.514 139.43Z" fill="#FFB600"/>
<path d="M60.6169 110.96L20.0113 121.125L29.1803 80.1131L7 44.5343L48.6535 40.5908L75.5493 8.42969L92.1408 46.988L131 62.7618L99.5634 90.4537L96.6817 132.43L60.6169 110.96Z" fill="#FFC536"/>
<path opacity="0.51" d="M29.9346 112.43C65.7754 112.43 95.3374 85.0243 99 49.8891L92.0237 47.0783L75.455 8.42969L48.5962 40.6662L7 44.531L29.1498 80.281L22.0863 111.991C24.7024 112.254 27.3185 112.43 29.9346 112.43Z" fill="#FFC536"/>
<path d="M105.164 222.562H23.8857V263.357H105.164V222.562Z" fill="url(#paint0_linear)"/>
<path d="M23.8857 222.562C23.8857 222.562 72.5283 227.811 73.2558 233.735L86.144 252.86L87.3393 263.357H105.164V222.562H23.8857Z" fill="url(#paint1_linear)"/>
<path d="M73.309 181.818H74.2444L79.857 187.483C83.6507 180.259 86.0413 171.009 86.1972 165.916L73.2051 166.488C73.413 166.748 74.4523 174.023 73.309 181.818Z" fill="#EABE06"/>
<path d="M75.7516 178.181L86.561 189.094L91.4461 174.543L105.166 167.683L92.8492 158.537L90.5107 143.362L78.0382 152.248L62.9154 149.754L67.4886 164.409L60.4209 178.025L75.7516 178.181Z" fill="#FFD110"/>
<path d="M76.8423 175.634L64.6816 175.478L70.2942 164.669L66.6045 153.028L78.6612 155.003L88.5872 147.935L90.458 159.992L100.228 167.267L89.3147 172.724L85.4171 184.261L76.8423 175.634Z" fill="#FDD013"/>
<path d="M86.1453 233.683H42.1279V252.808H86.1453V233.683Z" fill="#FFB10F"/>
<path d="M58.0298 252.808L42.907 233.683H42.1274V236.074L55.3794 252.808H58.0298Z" fill="#FFB10F"/>
<path d="M51.1695 252.808L42.127 241.375V243.038L49.8703 252.808H51.1695Z" fill="#FFB10F"/>
<path d="M64.2648 252.808L49.142 233.683H47.7908L62.9656 252.808H64.2648Z" fill="#FFB10F"/>
<path d="M70.0341 252.808L54.9113 233.683H52.8845L68.0593 252.808H70.0341Z" fill="#FFB10F"/>
<path d="M99.9684 212.272H28.5117V222.51H99.9684V212.272Z" fill="#FFB10F"/>
<path d="M95.8115 212.272H33.1895V211.025C33.1895 206.036 37.243 202.034 42.18 202.034H86.769C91.758 202.034 95.7595 206.088 95.7595 211.025V212.272H95.8115Z" fill="#FFCF03"/>
<path d="M86.8202 202.034H79.3887C84.3776 202.034 88.3792 206.088 88.3792 211.025V212.272H95.8107V211.025C95.8107 206.036 91.8091 202.034 86.8202 202.034Z" fill="#E8BC03"/>
<path d="M46.2858 155.314L34.333 158.017C35.5803 162.07 37.5551 167.163 39.9976 172.568L44.1031 169.45L48.9362 170.125C47.533 164.253 46.6495 159.004 46.2858 155.314Z" fill="#D3AB03"/>
<path d="M58.3412 167.683L43.1664 165.656L30.9018 174.855L28.1475 159.784L15.623 151.001L29.1349 143.725L33.6041 129.07L44.6734 139.62L60.0041 139.412L53.3522 153.184L58.3412 167.683Z" fill="#FFCF03"/>
<path d="M30.5385 158.277L20.5605 151.261L31.2661 145.493L34.8519 133.852L43.6865 142.27L55.8472 142.063L50.5464 153.028L54.5479 164.565L42.4393 162.954L32.7212 170.281L30.5385 158.277Z" fill="#FFCF03"/>
<path d="M36.7686 70.9238C39.1149 70.9238 40.9798 71.5824 42.3633 72.8994C43.7578 74.2165 44.4551 76.0205 44.4551 78.3115C44.4551 81.0231 43.6195 83.1094 41.9482 84.5703C40.277 86.0312 37.8864 86.7617 34.7764 86.7617C32.0758 86.7617 29.8955 86.3245 28.2354 85.4502V81.0176C29.1097 81.4824 30.1279 81.8643 31.29 82.1631C32.4521 82.4508 33.5534 82.5947 34.5938 82.5947C37.7259 82.5947 39.292 81.3109 39.292 78.7432C39.292 76.2972 37.6706 75.0742 34.4277 75.0742C33.8411 75.0742 33.1937 75.1351 32.4854 75.2568C31.777 75.3675 31.2015 75.4893 30.7588 75.6221L28.7168 74.5264L29.6299 62.1582H42.7949V66.5078H34.1289L33.6807 71.2725L34.2617 71.1562C34.9368 71.0013 35.7725 70.9238 36.7686 70.9238ZM64.1943 74.2939C64.1943 78.5329 63.4971 81.6706 62.1025 83.707C60.7191 85.7435 58.583 86.7617 55.6943 86.7617C52.8942 86.7617 50.7803 85.7103 49.3525 83.6074C47.9359 81.5046 47.2275 78.4001 47.2275 74.2939C47.2275 70.0107 47.9193 66.8564 49.3027 64.8311C50.6862 62.7946 52.8167 61.7764 55.6943 61.7764C58.4945 61.7764 60.6084 62.8389 62.0361 64.9639C63.4749 67.0889 64.1943 70.1989 64.1943 74.2939ZM52.3242 74.2939C52.3242 77.2712 52.5788 79.4072 53.0879 80.7021C53.6081 81.986 54.4769 82.6279 55.6943 82.6279C56.8896 82.6279 57.7529 81.9749 58.2842 80.6689C58.8154 79.363 59.0811 77.238 59.0811 74.2939C59.0811 71.3167 58.8099 69.1807 58.2676 67.8857C57.7363 66.5798 56.8786 65.9268 55.6943 65.9268C54.488 65.9268 53.6247 66.5798 53.1045 67.8857C52.5843 69.1807 52.3242 71.3167 52.3242 74.2939ZM83.6182 74.2939C83.6182 78.5329 82.9209 81.6706 81.5264 83.707C80.1429 85.7435 78.0068 86.7617 75.1182 86.7617C72.318 86.7617 70.2041 85.7103 68.7764 83.6074C67.3597 81.5046 66.6514 78.4001 66.6514 74.2939C66.6514 70.0107 67.3431 66.8564 68.7266 64.8311C70.11 62.7946 72.2406 61.7764 75.1182 61.7764C77.9183 61.7764 80.0322 62.8389 81.46 64.9639C82.8988 67.0889 83.6182 70.1989 83.6182 74.2939ZM71.748 74.2939C71.748 77.2712 72.0026 79.4072 72.5117 80.7021C73.0319 81.986 73.9007 82.6279 75.1182 82.6279C76.3135 82.6279 77.1768 81.9749 77.708 80.6689C78.2393 79.363 78.5049 77.238 78.5049 74.2939C78.5049 71.3167 78.2337 69.1807 77.6914 67.8857C77.1602 66.5798 76.3024 65.9268 75.1182 65.9268C73.9118 65.9268 73.0485 66.5798 72.5283 67.8857C72.0081 69.1807 71.748 71.3167 71.748 74.2939ZM107.425 86.4297H101.581L95.2227 76.2031L93.0479 77.7637V86.4297H87.9014V62.1582H93.0479V73.2646L95.0732 70.4092L101.647 62.1582H107.358L98.8916 72.8994L107.425 86.4297Z" fill="#A97A00"/>
<defs>
<linearGradient id="paint0_linear" x1="64.5251" y1="222.562" x2="64.5251" y2="263.357" gradientUnits="userSpaceOnUse">
<stop stop-color="#FF1D1D"/>
<stop offset="1" stop-color="#FF4172"/>
</linearGradient>
<linearGradient id="paint1_linear" x1="64.5251" y1="222.562" x2="64.5251" y2="263.357" gradientUnits="userSpaceOnUse">
<stop stop-color="#FF1D1D"/>
<stop offset="1" stop-color="#FF4172"/>
</linearGradient>
</defs>
</svg>
