<svg width="255" height="105" viewBox="0 0 255 105" fill="none" xmlns="http://www.w3.org/2000/svg">
<path d="M246.861 19.1877C246.609 19.1877 246.23 19.3139 245.978 19.3139C252.163 21.8386 248.123 24.237 241.307 25.4993C239.918 25.7517 238.404 26.0042 236.889 26.1304C245.22 28.7813 240.928 31.4321 233.733 32.8207C232.092 33.0731 230.325 33.3256 228.558 33.4518C233.986 35.8502 229.946 38.1224 223.382 39.3847C222.372 39.5109 221.362 39.7634 220.353 39.8896C224.392 41.9093 221.489 43.929 216.313 45.1913C216.187 48.0946 210.507 49.8619 207.477 50.493C204.321 51.1242 199.903 50.9979 192.708 52.3865C180.969 54.5324 174.152 58.5718 168.85 63.1161C161.403 69.3014 157.742 74.7294 146.003 78.1376L144.866 71.826C175.793 61.7276 170.113 11.8663 199.651 6.43838C210.38 4.41868 237.773 9.08923 249.386 12.4975C258.474 15.0221 254.183 17.7992 246.861 19.1877Z" fill="white"/>
<path d="M236.888 26.0051C237.014 26.6363 230.324 27.5199 223.634 26.8887C216.944 26.2576 210.632 24.7428 210.758 24.1117C210.884 23.4805 217.448 24.3641 223.886 24.9953C230.324 25.5002 236.762 25.374 236.888 26.0051Z" fill="#B3E4FF"/>
<path d="M228.558 33.3259C228.684 33.9571 222.373 34.7145 216.314 34.2096C210.128 33.7046 204.195 32.1899 204.322 31.5587C204.448 30.9276 210.507 31.6849 216.566 32.1899C222.499 32.821 228.558 32.6948 228.558 33.3259Z" fill="#B3E4FF"/>
<path d="M220.352 39.7634C220.478 40.3946 214.545 41.4044 208.486 41.0257C202.554 40.647 196.747 39.3847 196.873 38.7536C196.999 38.1224 202.806 38.7536 208.613 39.1322C214.419 39.3847 220.226 39.006 220.352 39.7634Z" fill="#B3E4FF"/>
<path d="M216.313 44.9388C216.439 45.1912 214.798 45.9486 212.147 46.3273C210.885 46.5798 209.244 46.8322 207.603 46.9585C205.962 46.9585 204.195 47.0847 202.428 47.0847C195.232 46.8322 188.416 45.4437 188.542 44.8125C188.668 44.1814 195.611 44.9388 202.428 45.1912C204.195 45.1912 205.836 45.1912 207.477 45.1912C209.118 45.1912 210.633 44.9388 211.895 44.9388C214.42 44.8125 216.187 44.6863 216.313 44.9388Z" fill="#B3E4FF"/>
<path d="M245.978 19.3141C245.978 19.5666 244.211 20.1977 241.308 20.5764C238.531 20.9551 234.617 21.0813 230.83 20.8289C223.257 20.324 215.935 18.5567 216.061 17.7993C216.188 17.1682 223.635 18.3043 230.957 18.8092C234.617 19.0616 238.404 19.1879 241.181 19.0616C243.958 19.0616 245.852 18.9354 245.978 19.3141Z" fill="#B3E4FF"/>
<path d="M8.66334 63.1156C8.9158 63.1156 9.2945 62.9894 9.54696 62.9894C4.62395 67.5337 9.2945 68.2911 16.111 67.0288C17.4995 66.7763 19.0143 66.3976 20.4028 66.0189C13.5863 71.4469 18.5094 72.4567 25.7045 71.0682C27.3455 70.8157 29.1128 70.3108 30.7538 69.8059C26.5881 73.9715 31.1325 74.7289 37.6965 73.4666C38.7063 73.3403 39.7162 73.0879 40.726 72.8354C37.6965 76.1174 41.1047 77.001 46.4064 76.2437C47.5425 78.8945 53.4754 78.642 56.5049 78.0109C59.6607 77.3797 63.8263 75.7387 70.8952 74.4764C82.6347 72.3305 90.4611 73.719 97.0251 75.9912C106.24 79.147 111.542 82.8077 123.786 81.9241L122.65 75.6125C90.0824 77.1273 77.7117 28.6546 48.0474 34.0825C37.444 36.1022 13.4601 50.2401 3.86656 57.5615C-3.7073 63.3681 1.21571 64.5042 8.66334 63.1156Z" fill="white"/>
<path d="M44.135 54.9106C44.5137 55.4155 39.0858 59.2025 33.0267 62.1058C26.9676 65.0091 20.5298 66.5239 20.4036 65.8927C20.1511 65.2615 26.4627 63.1156 32.1431 60.2123C38.0759 57.4352 43.7563 54.2794 44.135 54.9106Z" fill="#B3E4FF"/>
<path d="M52.8447 59.5815C53.2234 60.0864 48.0479 63.6209 42.4938 66.398C36.8134 69.175 30.8805 70.5636 30.6281 69.9324C30.3756 69.3013 36.1822 67.1553 41.6102 64.6307C47.1643 61.8536 52.5923 58.9503 52.8447 59.5815Z" fill="#B3E4FF"/>
<path d="M62.3116 63.4946C62.6903 63.9995 57.6411 67.2815 52.3394 69.8061C46.7852 72.3308 41.1048 73.4668 40.8524 72.8357C40.5999 72.2045 46.2803 70.3111 51.582 68.0389C56.7575 65.6405 61.9329 62.9897 62.3116 63.4946Z" fill="#B3E4FF"/>
<path d="M72.4103 66.2718C72.789 66.7767 66.8561 70.6899 60.2921 73.467C58.6511 74.0981 56.8839 74.7293 55.3691 75.2342C53.7281 75.7391 52.3396 75.9916 50.951 76.244C49.6887 76.4965 48.6789 76.749 47.7953 76.6227C47.0379 76.6227 46.533 76.4965 46.533 76.3703C46.533 76.244 46.9116 75.9916 47.669 75.7391C48.3002 75.6129 49.4363 75.108 50.6986 74.7293C51.9609 74.3506 53.4757 73.9719 54.9904 73.3407C56.5052 72.7096 58.02 72.0784 59.661 71.5735C65.8463 68.9226 72.0316 65.6406 72.4103 66.2718Z" fill="#B3E4FF"/>
<path d="M36.9394 50.8714C37.318 51.3763 31.0065 55.7944 24.19 58.9502C20.7818 60.465 17.1211 61.8535 14.344 62.4846C11.5669 63.1158 9.67345 63.242 9.54722 62.8633C9.42099 62.4847 11.3145 61.9797 13.8391 60.9699C16.4899 60.0863 19.8982 58.5715 23.3064 57.0567C30.1229 54.0272 36.5607 50.2402 36.9394 50.8714Z" fill="#B3E4FF"/>
<path d="M150.674 91.8963C151.179 94.5471 148.402 96.693 145.246 98.2078C142.974 99.3439 140.323 99.975 138.556 100.354C136.789 100.732 134.138 100.985 131.614 100.732C128.079 100.48 124.797 99.4701 124.292 96.693C124.04 95.557 124.671 94.2947 125.049 93.0323C128.205 94.9258 134.264 94.6733 137.42 94.0422C140.576 93.411 146.383 91.5176 148.655 88.6143C149.538 89.7503 150.548 90.7602 150.674 91.8963Z" fill="#622C00"/>
<path d="M149.537 85.711C149.79 86.847 149.411 87.8569 148.654 88.7405C146.382 91.6438 140.575 93.5373 137.419 94.1684C134.263 94.7996 128.078 95.0521 125.049 93.1586C124.039 92.5274 123.408 91.77 123.155 90.634C122.903 89.4979 123.534 88.2356 123.913 86.9733C127.068 88.8667 133.127 88.6143 136.283 87.9831C139.439 87.352 145.246 85.4585 147.518 82.5552C148.401 83.565 149.411 84.5749 149.537 85.711Z" fill="#914100"/>
<path d="M148.402 79.6514C148.655 80.7875 148.276 81.7973 147.519 82.6809C145.246 85.5842 139.44 87.4777 136.284 88.1089C133.128 88.74 126.943 88.9925 123.913 87.099C122.904 86.4678 122.272 85.7105 122.02 84.5744C121.767 83.4383 122.399 82.176 122.777 80.9137C125.933 82.8072 131.992 82.5547 135.148 81.9235C138.304 81.2924 144.11 79.3989 146.382 76.4956C147.266 77.5055 148.276 78.3891 148.402 79.6514Z" fill="#622C00"/>
<path d="M147.266 73.4663C147.519 74.6024 147.14 75.6123 146.383 76.4959C144.11 79.3992 138.304 81.2926 135.148 81.9238C131.992 82.555 125.807 82.8074 122.777 80.914C121.768 80.2828 121.136 79.5254 120.884 78.3893C120.631 77.2533 121.263 75.9909 121.641 74.7286C124.797 76.6221 130.856 76.3696 134.012 75.7385C137.168 75.1073 142.974 73.2139 145.246 70.3105C146.13 71.3204 147.014 72.3302 147.266 73.4663Z" fill="#914100"/>
<path d="M145.247 98.208C145.373 100.859 144.868 103.762 139.44 104.772C134.012 105.782 132.497 103.257 131.614 100.733C134.138 100.859 136.789 100.733 138.556 100.354C140.324 100.101 142.975 99.3441 145.247 98.208Z" fill="#1E1919"/>
<path d="M158.5 27.3924C162.287 47.968 142.974 57.0567 145.246 70.3109C142.974 73.2142 137.167 75.1077 134.011 75.7389C130.855 76.37 124.67 76.6225 121.641 74.729C118.99 61.601 97.6567 59.8338 93.8698 39.3843C91.7239 28.0235 96.1419 5.04949 120.126 0.631402C144.11 -3.78668 156.48 16.0316 158.5 27.3924Z" fill="url(#paint0_linear)"/>
<path d="M114.239 32.5372C117.315 32.1079 119.88 32.6299 121.934 34.1032C124.003 35.5745 125.247 37.8117 125.666 40.8148C126.162 44.3692 125.449 47.2569 123.525 49.4776C121.602 51.6984 118.602 53.0934 114.525 53.6624C110.985 54.1565 108.047 53.9823 105.711 53.1399L104.9 47.3296C106.131 47.7789 107.536 48.0932 109.114 48.2722C110.69 48.4368 112.16 48.4239 113.524 48.2336C117.629 47.6605 119.447 45.6911 118.977 42.3253C118.53 39.1191 116.181 37.8126 111.93 38.4059C111.161 38.5132 110.323 38.7115 109.417 39.0007C108.509 39.2754 107.777 39.5402 107.221 39.7953L104.344 38.7327L103.278 22.3531L120.535 19.9444L121.331 25.646L109.971 27.2316L110.255 33.5592L110.995 33.3005C111.852 32.9739 112.933 32.7195 114.239 32.5372ZM150.806 31.937C151.581 37.4935 151.242 41.734 149.786 44.6586C148.345 47.5811 145.732 49.3067 141.945 49.8352C138.275 50.3475 135.311 49.356 133.055 46.8608C130.813 44.3635 129.317 40.4236 128.565 35.0412C127.782 29.4267 128.111 25.1654 129.554 22.2574C130.995 19.3348 133.602 17.6103 137.374 17.0838C141.044 16.5715 144.01 17.5775 146.27 20.1018C148.545 22.624 150.057 26.5691 150.806 31.937ZM135.246 34.1088C135.791 38.0114 136.515 40.7648 137.42 42.369C138.337 43.9568 139.593 44.6393 141.189 44.4165C142.756 44.1978 143.768 43.1839 144.225 41.3748C144.683 39.5657 144.642 36.7316 144.103 32.8725C143.559 28.9699 142.812 26.2195 141.865 24.6213C140.929 23.0066 139.685 22.3076 138.133 22.5243C136.552 22.745 135.54 23.7589 135.097 25.566C134.652 27.3586 134.702 30.2062 135.246 34.1088Z" fill="#FF012F"/>
<defs>
<linearGradient id="paint0_linear" x1="126.192" y1="0" x2="126.192" y2="76.2028" gradientUnits="userSpaceOnUse">
<stop stop-color="#F7E100"/>
<stop offset="1" stop-color="#FFAA2E"/>
</linearGradient>
</defs>
</svg>
