<svg width="255" height="105" viewBox="0 0 255 105" fill="none" xmlns="http://www.w3.org/2000/svg">
<path d="M247.221 19.1877C246.968 19.1877 246.59 19.3139 246.337 19.3139C252.522 21.8386 248.483 24.237 241.667 25.4993C240.278 25.7517 238.763 26.0042 237.249 26.1304C245.58 28.7813 241.288 31.4321 234.093 32.8207C232.452 33.0731 230.684 33.3256 228.917 33.4518C234.345 35.8502 230.306 38.1224 223.742 39.3847C222.732 39.5109 221.722 39.7634 220.712 39.8896C224.752 41.9093 221.848 43.929 216.673 45.1913C216.547 48.0946 210.866 49.8619 207.837 50.493C204.681 51.1242 200.263 50.9979 193.068 52.3865C181.328 54.5324 174.512 58.5718 169.21 63.1161C161.762 69.3014 158.102 74.7294 146.362 78.1376L145.226 71.826C176.153 61.7276 170.472 11.8663 200.01 6.43838C210.74 4.41868 238.132 9.08923 249.745 12.4975C258.834 15.0221 254.542 17.7992 247.221 19.1877Z" fill="white"/>
<path d="M237.248 26.0051C237.374 26.6363 230.684 27.5199 223.993 26.8887C217.303 26.2576 210.992 24.7428 211.118 24.1117C211.244 23.4805 217.808 24.3641 224.246 24.9953C230.684 25.5002 237.121 25.374 237.248 26.0051Z" fill="#B3E4FF"/>
<path d="M228.918 33.3259C229.044 33.9571 222.732 34.7145 216.673 34.2096C210.488 33.7046 204.555 32.1899 204.681 31.5587C204.807 30.9276 210.866 31.6849 216.926 32.1899C222.858 32.821 228.918 32.6948 228.918 33.3259Z" fill="#B3E4FF"/>
<path d="M220.712 39.7634C220.838 40.3946 214.905 41.4044 208.846 41.0257C202.913 40.647 197.107 39.3847 197.233 38.7536C197.359 38.1224 203.166 38.7536 208.972 39.1322C214.779 39.3847 220.585 39.006 220.712 39.7634Z" fill="#B3E4FF"/>
<path d="M216.673 44.9388C216.799 45.1912 215.158 45.9486 212.507 46.3273C211.245 46.5798 209.604 46.8322 207.963 46.9585C206.322 46.9585 204.555 47.0847 202.787 47.0847C195.592 46.8322 188.776 45.4437 188.902 44.8125C189.028 44.1814 195.971 44.9388 202.787 45.1912C204.555 45.1912 206.196 45.1912 207.837 45.1912C209.478 45.1912 210.992 44.9388 212.255 44.9388C214.779 44.8125 216.546 44.6863 216.673 44.9388Z" fill="#B3E4FF"/>
<path d="M246.338 19.3141C246.338 19.5666 244.571 20.1977 241.667 20.5764C238.89 20.9551 234.977 21.0813 231.19 20.8289C223.616 20.324 216.295 18.5567 216.421 17.7993C216.547 17.1682 223.995 18.3043 231.316 18.8092C234.977 19.0616 238.764 19.1879 241.541 19.0616C244.318 19.0616 246.212 18.9354 246.338 19.3141Z" fill="#B3E4FF"/>
<path d="M9.02296 63.1156C9.27542 63.1156 9.65412 62.9894 9.90658 62.9894C4.98357 67.5337 9.65412 68.2911 16.4706 67.0288C17.8591 66.7763 19.3739 66.3976 20.7624 66.0189C13.946 71.4469 18.869 72.4567 26.0641 71.0682C27.7052 70.8157 29.4724 70.3108 31.1134 69.8059C26.9478 73.9715 31.4921 74.7289 38.0561 73.4666C39.0659 73.3403 40.0758 73.0879 41.0856 72.8354C38.0561 76.1174 41.4643 77.001 46.766 76.2437C47.9021 78.8945 53.835 78.642 56.8645 78.0109C60.0203 77.3797 64.1859 75.7387 71.2549 74.4764C82.9943 72.3305 90.8207 73.719 97.3847 75.9912C106.6 79.147 111.901 82.8077 124.146 81.9241L123.01 75.6125C90.442 77.1273 78.0713 28.6546 48.407 34.0825C37.8036 36.1022 13.8197 50.2401 4.22618 57.5615C-3.34768 63.3681 1.57533 64.5042 9.02296 63.1156Z" fill="white"/>
<path d="M44.4946 54.9106C44.8733 55.4155 39.4454 59.2025 33.3863 62.1058C27.3272 65.0091 20.8894 66.5239 20.7632 65.8927C20.5107 65.2615 26.8223 63.1156 32.5027 60.2123C38.4355 57.4352 44.1159 54.2794 44.4946 54.9106Z" fill="#B3E4FF"/>
<path d="M53.2043 59.5815C53.583 60.0864 48.4076 63.6209 42.8534 66.398C37.173 69.175 31.2401 70.5636 30.9877 69.9324C30.7352 69.3013 36.5419 67.1553 41.9698 64.6307C47.524 61.8536 52.9519 58.9503 53.2043 59.5815Z" fill="#B3E4FF"/>
<path d="M62.6713 63.4946C63.0499 63.9995 58.0007 67.2815 52.699 69.8061C47.1448 72.3308 41.4644 73.4668 41.212 72.8357C40.9595 72.2045 46.6399 70.3111 51.9416 68.0389C57.1171 65.6405 62.2926 62.9897 62.6713 63.4946Z" fill="#B3E4FF"/>
<path d="M72.7699 66.2718C73.1486 66.7767 67.2158 70.6899 60.6518 73.467C59.0107 74.0981 57.2435 74.7293 55.7288 75.2342C54.0877 75.7391 52.6992 75.9916 51.3107 76.244C50.0484 76.4965 49.0385 76.749 48.1549 76.6227C47.3975 76.6227 46.8926 76.4965 46.8926 76.3703C46.8926 76.244 47.2713 75.9916 48.0286 75.7391C48.6598 75.6129 49.7959 75.108 51.0582 74.7293C52.3205 74.3506 53.8353 73.9719 55.3501 73.3407C56.8648 72.7096 58.3796 72.0784 60.0206 71.5735C66.2059 68.9226 72.3912 65.6406 72.7699 66.2718Z" fill="#B3E4FF"/>
<path d="M37.299 50.8714C37.6777 51.3763 31.3661 55.7944 24.5496 58.9502C21.1414 60.465 17.4807 61.8535 14.7036 62.4846C11.9265 63.1158 10.0331 63.242 9.90684 62.8633C9.78061 62.4847 11.6741 61.9797 14.1987 60.9699C16.8495 60.0863 20.2578 58.5715 23.666 57.0567C30.4825 54.0272 36.9203 50.2402 37.299 50.8714Z" fill="#B3E4FF"/>
<path d="M151.034 91.8963C151.539 94.5471 148.762 96.693 145.606 98.2078C143.334 99.3439 140.683 99.975 138.916 100.354C137.149 100.732 134.498 100.985 131.973 100.732C128.439 100.48 125.157 99.4701 124.652 96.693C124.399 95.557 125.03 94.2947 125.409 93.0323C128.565 94.9258 134.624 94.6733 137.78 94.0422C140.936 93.411 146.742 91.5176 149.014 88.6143C149.898 89.7503 150.908 90.7602 151.034 91.8963Z" fill="#622C00"/>
<path d="M149.897 85.711C150.15 86.847 149.771 87.8569 149.013 88.7405C146.741 91.6438 140.935 93.5373 137.779 94.1684C134.623 94.7996 128.438 95.0521 125.408 93.1586C124.398 92.5274 123.767 91.77 123.515 90.634C123.262 89.4979 123.893 88.2356 124.272 86.9733C127.428 88.8667 133.487 88.6143 136.643 87.9831C139.799 87.352 145.605 85.4585 147.877 82.5552C148.761 83.565 149.771 84.5749 149.897 85.711Z" fill="#914100"/>
<path d="M148.762 79.6514C149.014 80.7875 148.636 81.7973 147.878 82.6809C145.606 85.5842 139.799 87.4777 136.644 88.1089C133.488 88.74 127.303 88.9925 124.273 87.099C123.263 86.4678 122.632 85.7105 122.38 84.5744C122.127 83.4383 122.758 82.176 123.137 80.9137C126.293 82.8072 132.352 82.5547 135.508 81.9235C138.663 81.2924 144.47 79.3989 146.742 76.4956C147.626 77.5055 148.636 78.3891 148.762 79.6514Z" fill="#622C00"/>
<path d="M147.626 73.4663C147.878 74.6024 147.5 75.6123 146.742 76.4959C144.47 79.3992 138.663 81.2926 135.508 81.9238C132.352 82.555 126.167 82.8074 123.137 80.914C122.127 80.2828 121.496 79.5254 121.244 78.3893C120.991 77.2533 121.622 75.9909 122.001 74.7286C125.157 76.6221 131.216 76.3696 134.372 75.7385C137.527 75.1073 143.334 73.2139 145.606 70.3105C146.49 71.3204 147.373 72.3302 147.626 73.4663Z" fill="#914100"/>
<path d="M145.606 98.208C145.733 100.859 145.228 103.762 139.8 104.772C134.372 105.782 132.857 103.257 131.973 100.733C134.498 100.859 137.149 100.733 138.916 100.354C140.683 100.101 143.334 99.3441 145.606 98.208Z" fill="#1E1919"/>
<path d="M158.86 27.3924C162.647 47.968 143.333 57.0567 145.605 70.3109C143.333 73.2142 137.527 75.1077 134.371 75.7389C131.215 76.37 125.03 76.6225 122 74.729C119.349 61.601 98.0163 59.8338 94.2294 39.3843C92.0835 28.0235 96.5016 5.04949 120.485 0.631402C144.469 -3.78668 156.84 16.0316 158.86 27.3924Z" fill="url(#paint0_linear)"/>
<path d="M112.328 20.7186C115.374 20.2934 117.923 20.6475 119.975 21.7811C122.039 22.8981 123.235 24.6317 123.563 26.982C123.79 28.6069 123.542 30.1204 122.821 31.5227C122.098 32.9104 120.805 34.2445 118.942 35.525C121.5 36.4696 123.391 37.5664 124.615 38.8153C125.852 40.0478 126.586 41.4909 126.817 43.1448C127.182 45.7562 126.452 48.0026 124.629 49.884C122.805 51.7509 120.224 52.9172 116.887 53.3829C113.405 53.8689 110.567 53.5107 108.373 52.3083C106.179 51.106 104.892 49.1483 104.514 46.4353C104.261 44.6219 104.515 42.9447 105.276 41.4038C106.051 39.8609 107.431 38.4038 109.413 37.0325C107.44 36.1395 105.963 35.0959 104.983 33.9015C104.003 32.7072 103.404 31.3339 103.188 29.7815C102.87 27.5038 103.556 25.5297 105.245 23.8592C106.935 22.1887 109.296 21.1418 112.328 20.7186ZM110.683 45.1749C110.857 46.4226 111.428 47.3339 112.396 47.9087C113.363 48.4836 114.602 48.6658 116.11 48.4552C117.779 48.2223 118.977 47.6927 119.705 46.8664C120.43 46.0256 120.711 45.0176 120.547 43.8425C120.411 42.8705 119.871 42.0214 118.927 41.2954C117.995 40.5528 116.541 39.8314 114.565 39.1311C111.673 40.9841 110.379 42.9988 110.683 45.1749ZM112.971 25.6428C111.825 25.8028 110.938 26.2298 110.31 26.9239C109.694 27.6014 109.456 28.4334 109.593 29.4199C109.715 30.2904 110.1 31.0353 110.748 31.6548C111.409 32.2577 112.523 32.8195 114.089 33.3404C115.418 32.4746 116.317 31.654 116.785 30.8787C117.254 30.1033 117.424 29.2587 117.297 28.3447C117.157 27.3436 116.684 26.6036 115.878 26.1245C115.071 25.6454 114.102 25.4849 112.971 25.6428ZM151.166 31.937C151.941 37.4935 151.601 41.734 150.146 44.6586C148.705 47.5811 146.091 49.3067 142.305 49.8352C138.634 50.3475 135.671 49.356 133.415 46.8608C131.173 44.3635 129.676 40.4236 128.925 35.0412C128.141 29.4267 128.471 25.1654 129.914 22.2574C131.355 19.3348 133.961 17.6103 137.733 17.0838C141.404 16.5715 144.369 17.5775 146.629 20.1018C148.904 22.624 150.416 26.5691 151.166 31.937ZM135.606 34.1088C136.151 38.0114 136.875 40.7648 137.779 42.369C138.696 43.9568 139.952 44.6393 141.548 44.4165C143.115 44.1978 144.127 43.1839 144.585 41.3748C145.042 39.5657 145.002 36.7316 144.463 32.8725C143.918 28.9699 143.172 26.2195 142.224 24.6213C141.289 23.0066 140.045 22.3076 138.493 22.5243C136.911 22.745 135.899 23.7589 135.456 25.566C135.011 27.3586 135.061 30.2062 135.606 34.1088Z" fill="#FF012F"/>
<defs>
<linearGradient id="paint0_linear" x1="126.551" y1="0" x2="126.551" y2="76.2028" gradientUnits="userSpaceOnUse">
<stop stop-color="#F7E100"/>
<stop offset="1" stop-color="#FFAA2E"/>
</linearGradient>
</defs>
</svg>
