<svg width="99" height="220" viewBox="0 0 99 220" fill="none" xmlns="http://www.w3.org/2000/svg">
<path d="M71.197 115.039C71.197 115.662 71.093 116.234 71.0411 116.857C68.9623 132.708 60.4915 148.818 45.5765 155.574L45.3167 155.106C55.6064 146.531 59.4521 133.903 58.7765 120.495C58.7245 119.196 58.3607 115.714 58.2048 115.558L71.197 115.039Z" fill="#FFDC01"/>
<path d="M31.2852 104.385C32.4805 116.961 39.912 147.778 53.7356 157.964L53.4758 158.432C37.9892 151.104 23.9577 122.106 19.2805 107.087L31.2852 104.385Z" fill="#E8BC03"/>
<path d="M63.5577 54.9633C62.5183 56.8861 58.3089 67.2279 54.8789 78.8168C51.1892 91.3413 48.6427 104.126 47.6553 117.066C47.3435 121.379 47.2915 125.744 47.3955 130.11C47.7593 140.036 49.1624 148.143 51.6569 156.146L51.1892 156.354C34.5593 126.888 34.5073 84.2735 40.8994 51.3255L41.2632 49.5586C41.4191 48.935 41.523 48.4153 41.6789 47.6357L63.5577 54.9633Z" fill="#A97A00"/>
<path d="M61.0624 158.432C61.0624 165.708 55.1379 171.632 47.8624 171.632C40.5868 171.632 34.6624 165.708 34.6624 158.432C34.6624 151.157 40.5868 145.232 47.8624 145.232C55.1899 145.232 61.0624 151.157 61.0624 158.432Z" fill="#B50000"/>
<path d="M63.5571 54.963L41.6783 47.5835C40.7429 51.3772 38.6122 63.0701 37.6768 75.0229L46.1476 72.8922L55.0862 78.1929C58.4642 66.9158 62.5177 56.8859 63.5571 54.963Z" fill="#8F6802"/>
<path d="M70.8851 83.3378L46.7198 69.0465L19.4883 75.8024L25.6725 48.415L10.7576 24.6654L38.7166 22.015L56.7497 0.5L67.8709 26.2764L93.9072 36.826L72.808 55.3268L70.8851 83.3378Z" fill="#FFB600"/>
<path d="M47.1352 66.2402L22.9699 72.2685L28.4266 47.9473L15.2266 26.848L40.0155 24.5095L56.0218 5.43701L65.8959 28.3032L89.0218 37.6575L70.3132 54.0795L68.5982 78.9724L47.1352 66.2402Z" fill="#FFC536"/>
<path opacity="0.51" d="M28.8943 67.0195C50.2533 67.0195 67.8707 50.8053 70.0533 30.0179L65.8959 28.3549L56.0218 5.48877L40.0155 24.5612L15.2266 26.8478L28.4266 47.999L24.2171 66.7596C25.7762 66.9155 27.3352 67.0195 28.8943 67.0195Z" fill="#FFC536"/>
<path d="M90.1645 171.632H8.88574V212.428H90.1645V171.632Z" fill="url(#paint0_linear)"/>
<path d="M8.88574 171.632C8.88574 171.632 57.5283 176.881 58.2558 182.806L71.144 201.93L72.3393 212.428H90.1645V171.632H8.88574Z" fill="url(#paint1_linear)"/>
<path d="M99 219.288H0V218.508C0 215.13 2.70236 212.428 6.08032 212.428H92.8677C96.2457 212.428 98.948 215.13 98.948 218.508V219.288H99Z" fill="#FFB10F"/>
<path d="M58.3095 130.889H59.2449L64.8575 136.554C68.6512 129.33 71.0418 120.08 71.1977 114.987L58.2056 115.558C58.4134 115.818 59.4528 123.094 58.3095 130.889Z" fill="#EABE06"/>
<path d="M60.7516 127.251L71.561 138.164L76.4461 123.613L90.1658 116.753L77.8492 107.607L75.5107 92.4321L63.0382 101.319L47.9154 98.8243L52.4886 113.479L45.4209 127.095L60.7516 127.251Z" fill="#FFD110"/>
<path d="M61.842 124.705L49.6814 124.549L55.294 113.739L51.6042 102.098L63.6609 104.073L73.5869 97.0054L75.4578 109.062L85.2278 116.338L74.3145 121.794L70.4168 133.331L61.842 124.705Z" fill="#FDD013"/>
<path d="M71.1453 182.753H27.1279V201.878H71.1453V182.753Z" fill="#FFB10F"/>
<path d="M43.0296 201.878L27.9067 182.753H27.1272V185.144L40.3792 201.878H43.0296Z" fill="#FFB10F"/>
<path d="M36.1692 201.878L27.1267 190.445V192.108L34.87 201.878H36.1692Z" fill="#FFB10F"/>
<path d="M49.2645 201.878L34.1417 182.753H32.7905L47.9653 201.878H49.2645Z" fill="#FFB10F"/>
<path d="M55.0339 201.878L39.911 182.753H37.8843L53.0591 201.878H55.0339Z" fill="#FFB10F"/>
<path d="M84.9679 161.342H13.5112V171.58H84.9679V161.342Z" fill="#FFB10F"/>
<path d="M80.812 161.342H18.1899V160.095C18.1899 155.106 22.2435 151.104 27.1805 151.104H71.7695C76.7584 151.104 80.76 155.158 80.76 160.095V161.342H80.812Z" fill="#FFCF03"/>
<path d="M71.8202 151.104H64.3887C69.3776 151.104 73.3792 155.158 73.3792 160.095V161.342H80.8107V160.095C80.8107 155.106 76.8091 151.104 71.8202 151.104Z" fill="#E8BC03"/>
<path d="M31.2855 104.385L19.3328 107.087C20.58 111.141 22.5548 116.234 24.9973 121.638L29.1028 118.52L33.9359 119.196C32.5328 113.323 31.6493 108.075 31.2855 104.385Z" fill="#D3AB03"/>
<path d="M43.3416 116.753L28.1668 114.726L15.9023 123.925L13.1479 108.854L0.623535 100.071L14.1353 92.7957L18.6046 78.1406L29.6739 88.6902L45.0046 88.4824L38.3527 102.254L43.3416 116.753Z" fill="#FFCF03"/>
<path d="M15.5387 107.347L5.56079 100.331L16.2663 94.5628L19.8521 82.9219L28.6868 91.3408L40.8474 91.1329L35.5466 102.098L39.5482 113.635L27.4395 112.024L17.7214 119.352L15.5387 107.347Z" fill="#FFCF03"/>
<path d="M56.8931 39.103C56.8931 40.6639 56.4202 41.9912 55.4746 43.085C54.529 44.1787 53.2017 44.9307 51.4927 45.3408V45.4434C53.5093 45.694 55.036 46.3092 56.0728 47.2891C57.1095 48.2575 57.6279 49.5677 57.6279 51.2197C57.6279 53.6237 56.7563 55.4979 55.0132 56.8423C53.27 58.1753 50.7806 58.8418 47.5449 58.8418C44.8333 58.8418 42.4294 58.3918 40.333 57.4917V52.9971C41.3014 53.487 42.3667 53.8857 43.5288 54.1934C44.6909 54.501 45.8416 54.6548 46.981 54.6548C48.7241 54.6548 50.0116 54.3586 50.8433 53.7661C51.675 53.1737 52.0908 52.2223 52.0908 50.9121C52.0908 49.7386 51.6123 48.9069 50.6553 48.417C49.6982 47.9271 48.1715 47.6821 46.0752 47.6821H44.1782V43.6318H46.1094C48.0462 43.6318 49.459 43.3812 50.3477 42.8799C51.2477 42.3672 51.6978 41.4956 51.6978 40.2651C51.6978 38.3739 50.5129 37.4282 48.1431 37.4282C47.3228 37.4282 46.4854 37.5649 45.6309 37.8384C44.7878 38.1118 43.8478 38.5846 42.811 39.2568L40.3672 35.6167C42.6458 33.9761 45.3631 33.1558 48.519 33.1558C51.1053 33.1558 53.1447 33.6799 54.6372 34.728C56.1411 35.7762 56.8931 37.2345 56.8931 39.103Z" fill="#A97A00"/>
<defs>
<linearGradient id="paint0_linear" x1="49.5251" y1="171.632" x2="49.5251" y2="212.428" gradientUnits="userSpaceOnUse">
<stop stop-color="#FF1D1D"/>
<stop offset="1" stop-color="#FF4172"/>
</linearGradient>
<linearGradient id="paint1_linear" x1="49.5251" y1="171.632" x2="49.5251" y2="212.428" gradientUnits="userSpaceOnUse">
<stop stop-color="#FF1D1D"/>
<stop offset="1" stop-color="#FF4172"/>
</linearGradient>
</defs>
</svg>
