<svg width="118" height="250" viewBox="0 0 118 250" fill="none" xmlns="http://www.w3.org/2000/svg">
<path d="M72.197 145.539C72.197 146.162 72.093 146.734 72.0411 147.357C69.9623 163.208 61.4915 179.318 46.5765 186.074L46.3167 185.606C56.6064 177.031 60.4521 164.403 59.7765 150.995C59.7245 149.696 59.3607 146.214 59.2048 146.058L72.197 145.539Z" fill="#FFDC01"/>
<path d="M32.2852 134.885C33.4805 147.461 40.912 178.278 54.7356 188.464L54.4758 188.932C38.9892 181.604 24.9577 152.606 20.2805 137.587L32.2852 134.885Z" fill="#E8BC03"/>
<path d="M64.5577 85.4633C63.5183 87.3861 59.3089 97.7279 55.8789 109.317C52.1892 121.841 49.6427 134.626 48.6553 147.566C48.3435 151.879 48.2915 156.244 48.3955 160.61C48.7593 170.536 50.1624 178.643 52.6569 186.646L52.1892 186.854C35.5593 157.388 35.5073 114.774 41.8994 81.8255L42.2632 80.0586C42.4191 79.435 42.523 78.9153 42.6789 78.1357L64.5577 85.4633Z" fill="#A97A00"/>
<path d="M62.0624 188.932C62.0624 196.208 56.1379 202.132 48.8624 202.132C41.5868 202.132 35.6624 196.208 35.6624 188.932C35.6624 181.657 41.5868 175.732 48.8624 175.732C56.1899 175.732 62.0624 181.657 62.0624 188.932Z" fill="#B50000"/>
<path d="M64.5571 85.463L42.6783 78.0835C41.7429 81.8772 39.6122 93.5701 38.6768 105.523L47.1476 103.392L56.0862 108.693C59.4642 97.4158 63.5177 87.3859 64.5571 85.463Z" fill="#8F6802"/>
<path d="M85.3288 118L51.035 97.6424L12.39 107.266L21.1662 68.2534L0 34.4228L39.6775 30.6474L65.2687 0L81.0513 36.7177L118 51.7453L88.0575 78.0991L85.3288 118Z" fill="#FFB600"/>
<path d="M51.4014 93.8198L17.0176 102.428L24.7817 67.6996L6 37.5724L41.2711 34.2332L64.0458 7L78.0951 39.6502L111 53.0071L84.3803 76.4558L81.9401 112L51.4014 93.8198Z" fill="#FFC536"/>
<path opacity="0.51" d="M25.4446 95C55.8313 95 80.8948 71.8108 84 42.0811L78.0853 39.7027L64.0379 7L41.2663 34.277L6 37.5473L24.7791 67.7973L18.7905 94.6284C21.0085 94.8513 23.2265 95 25.4446 95Z" fill="#FFC536"/>
<path d="M91.1645 202.132H9.88574V242.928H91.1645V202.132Z" fill="url(#paint0_linear)"/>
<path d="M9.88574 202.132C9.88574 202.132 58.5283 207.381 59.2558 213.306L72.144 232.43L73.3393 242.928H91.1645V202.132H9.88574Z" fill="url(#paint1_linear)"/>
<path d="M100 249.788H1V249.008C1 245.63 3.70236 242.928 7.08032 242.928H93.8677C97.2457 242.928 99.948 245.63 99.948 249.008V249.788H100Z" fill="#FFB10F"/>
<path d="M59.3095 161.389H60.2449L65.8575 167.053C69.6512 159.83 72.0418 150.579 72.1977 145.486L59.2056 146.058C59.4134 146.318 60.4528 153.593 59.3095 161.389Z" fill="#EABE06"/>
<path d="M61.7516 157.751L72.561 168.664L77.4461 154.113L91.1658 147.253L78.8492 138.107L76.5107 122.932L64.0382 131.819L48.9154 129.324L53.4886 143.979L46.4209 157.595L61.7516 157.751Z" fill="#FFD110"/>
<path d="M62.842 155.205L50.6814 155.049L56.294 144.239L52.6042 132.598L64.6609 134.573L74.5869 127.505L76.4578 139.562L86.2278 146.838L75.3145 152.294L71.4168 163.831L62.842 155.205Z" fill="#FDD013"/>
<path d="M72.1453 213.253H28.1279V232.378H72.1453V213.253Z" fill="#FFB10F"/>
<path d="M44.0296 232.378L28.9067 213.253H28.1272V215.644L41.3792 232.378H44.0296Z" fill="#FFB10F"/>
<path d="M37.1692 232.378L28.1267 220.945V222.608L35.87 232.378H37.1692Z" fill="#FFB10F"/>
<path d="M50.2645 232.378L35.1417 213.253H33.7905L48.9653 232.378H50.2645Z" fill="#FFB10F"/>
<path d="M56.0339 232.378L40.911 213.253H38.8843L54.0591 232.378H56.0339Z" fill="#FFB10F"/>
<path d="M85.9679 191.842H14.5112V202.08H85.9679V191.842Z" fill="#FFB10F"/>
<path d="M81.812 191.842H19.1899V190.595C19.1899 185.606 23.2435 181.604 28.1805 181.604H72.7695C77.7584 181.604 81.76 185.658 81.76 190.595V191.842H81.812Z" fill="#FFCF03"/>
<path d="M72.8202 181.604H65.3887C70.3776 181.604 74.3792 185.658 74.3792 190.595V191.842H81.8107V190.595C81.8107 185.606 77.8091 181.604 72.8202 181.604Z" fill="#E8BC03"/>
<path d="M32.2855 134.885L20.3328 137.587C21.58 141.641 23.5548 146.734 25.9973 152.138L30.1028 149.02L34.9359 149.696C33.5328 143.823 32.6493 138.575 32.2855 134.885Z" fill="#D3AB03"/>
<path d="M44.3416 147.253L29.1668 145.226L16.9023 154.425L14.1479 139.354L1.62354 130.571L15.1353 123.296L19.6046 108.641L30.6739 119.19L46.0046 118.982L39.3527 132.754L44.3416 147.253Z" fill="#FFCF03"/>
<path d="M16.5387 137.847L6.56079 130.831L17.2663 125.063L20.8521 113.422L29.6868 121.841L41.8474 121.633L36.5466 132.598L40.5482 144.135L28.4395 142.524L18.7214 149.852L16.5387 137.847Z" fill="#FFCF03"/>
<path d="M42.251 75H24.7852V71.3257L31.0571 64.9854C32.9142 63.0827 34.1276 61.7668 34.6973 61.0376C35.2669 60.297 35.6771 59.6134 35.9277 58.9868C36.1784 58.3602 36.3037 57.7108 36.3037 57.0386C36.3037 56.036 36.0246 55.2897 35.4663 54.7998C34.9194 54.3099 34.1846 54.0649 33.2617 54.0649C32.2933 54.0649 31.3534 54.2871 30.4419 54.7314C29.5304 55.1758 28.5791 55.8081 27.5879 56.6284L24.7168 53.2275C25.9473 52.1794 26.967 51.4388 27.7759 51.0059C28.5848 50.5729 29.4678 50.2425 30.4248 50.0146C31.3818 49.7754 32.4528 49.6558 33.6377 49.6558C35.1986 49.6558 36.5771 49.9406 37.7734 50.5103C38.9697 51.0799 39.8983 51.8774 40.5591 52.9028C41.2199 53.9282 41.5503 55.1017 41.5503 56.4233C41.5503 57.5741 41.3452 58.6564 40.9351 59.6704C40.5363 60.673 39.9097 61.7041 39.0552 62.7637C38.2121 63.8232 36.7196 65.3328 34.5776 67.2925L31.3647 70.3174V70.5566H42.251V75ZM53.8721 59.0381C56.2874 59.0381 58.2072 59.716 59.6313 61.0718C61.0669 62.4276 61.7847 64.2847 61.7847 66.6431C61.7847 69.4344 60.9245 71.582 59.2041 73.0859C57.4837 74.5898 55.0228 75.3418 51.8213 75.3418C49.0413 75.3418 46.7969 74.8918 45.0879 73.9917V69.4287C45.988 69.9072 47.0361 70.3003 48.2324 70.6079C49.4287 70.9041 50.5623 71.0522 51.6333 71.0522C54.8576 71.0522 56.4697 69.7306 56.4697 67.0874C56.4697 64.5695 54.8006 63.3105 51.4624 63.3105C50.8586 63.3105 50.1921 63.3732 49.4629 63.4985C48.7337 63.6125 48.1413 63.7378 47.6855 63.8745L45.5835 62.7466L46.5234 50.0146H60.0757V54.4922H51.1548L50.6934 59.397L51.2915 59.2773C51.9865 59.1178 52.8467 59.0381 53.8721 59.0381ZM86.6162 75H80.6006L74.0552 64.4727L71.8164 66.0791V75H66.5186V50.0146H71.8164V61.4478L73.9014 58.5083L80.6689 50.0146H86.5479L77.832 61.0718L86.6162 75Z" fill="#A97A00"/>
<defs>
<linearGradient id="paint0_linear" x1="50.5251" y1="202.132" x2="50.5251" y2="242.928" gradientUnits="userSpaceOnUse">
<stop stop-color="#FF1D1D"/>
<stop offset="1" stop-color="#FF4172"/>
</linearGradient>
<linearGradient id="paint1_linear" x1="50.5251" y1="202.132" x2="50.5251" y2="242.928" gradientUnits="userSpaceOnUse">
<stop stop-color="#FF1D1D"/>
<stop offset="1" stop-color="#FF4172"/>
</linearGradient>
</defs>
</svg>
