<svg width="139" height="270" viewBox="0 0 139 270" fill="none" xmlns="http://www.w3.org/2000/svg">
<path d="M86.1967 165.539C86.1967 166.162 86.0928 166.734 86.0408 167.357C83.9621 183.208 75.4912 199.318 60.5762 206.074L60.3164 205.606C70.6062 197.031 74.4518 184.403 73.7763 170.995C73.7243 169.696 73.3605 166.214 73.2046 166.058L86.1967 165.539Z" fill="#FFDC01"/>
<path d="M46.285 154.885C47.4803 167.461 54.9118 198.278 68.7354 208.464L68.4755 208.932C52.9889 201.604 38.9574 172.606 34.2803 157.587L46.285 154.885Z" fill="#E8BC03"/>
<path d="M78.5577 105.463C77.5183 107.386 73.3089 117.728 69.8789 129.317C66.1892 141.841 63.6427 154.626 62.6553 167.566C62.3435 171.879 62.2915 176.244 62.3955 180.61C62.7593 190.536 64.1624 198.643 66.6569 206.646L66.1892 206.854C49.5593 177.388 49.5073 134.774 55.8994 101.826L56.2632 100.059C56.4191 99.435 56.523 98.9153 56.6789 98.1357L78.5577 105.463Z" fill="#A97A00"/>
<path d="M76.0621 208.932C76.0621 216.208 70.1377 222.132 62.8621 222.132C55.5865 222.132 49.6621 216.208 49.6621 208.932C49.6621 201.657 55.5865 195.732 62.8621 195.732C70.1897 195.732 76.0621 201.657 76.0621 208.932Z" fill="#B50000"/>
<path d="M78.5571 105.463L56.6783 98.0835C55.7429 101.877 53.6122 113.57 52.6768 125.523L61.1476 123.392L70.0862 128.693C73.4642 117.416 77.5177 107.386 78.5571 105.463Z" fill="#8F6802"/>
<path d="M100.514 139L60.1175 115.019L14.595 126.356L24.9331 80.4003L0 40.5489L46.7387 36.1016L76.8844 0L95.4756 43.2522L139 60.9542L103.729 91.9981L100.514 139Z" fill="#FFB600"/>
<path d="M60.6169 110.53L20.0113 120.695L29.1803 79.6834L7 44.1046L48.6535 40.1611L75.5493 8L92.1408 46.5583L131 62.3322L99.5634 90.024L96.6817 132L60.6169 110.53Z" fill="#FFC536"/>
<path opacity="0.51" d="M29.9346 112C65.7754 112 95.3374 84.5946 99 49.4595L92.0237 46.6487L75.455 8L48.5962 40.2365L7 44.1013L29.1498 79.8513L22.0863 111.561C24.7024 111.824 27.3185 112 29.9346 112Z" fill="#FFC536"/>
<path d="M105.164 222.132H23.8857V262.928H105.164V222.132Z" fill="url(#paint0_linear)"/>
<path d="M23.8857 222.132C23.8857 222.132 72.5283 227.381 73.2558 233.306L86.144 252.43L87.3393 262.928H105.164V222.132H23.8857Z" fill="url(#paint1_linear)"/>
<path d="M114 269.788H15V269.008C15 265.63 17.7024 262.928 21.0803 262.928H107.868C111.246 262.928 113.948 265.63 113.948 269.008V269.788H114Z" fill="#FFB10F"/>
<path d="M73.309 181.389H74.2444L79.857 187.053C83.6507 179.83 86.0413 170.579 86.1972 165.486L73.2051 166.058C73.413 166.318 74.4523 173.593 73.309 181.389Z" fill="#EABE06"/>
<path d="M75.7516 177.751L86.561 188.664L91.4461 174.113L105.166 167.253L92.8492 158.107L90.5107 142.932L78.0382 151.819L62.9154 149.324L67.4886 163.979L60.4209 177.595L75.7516 177.751Z" fill="#FFD110"/>
<path d="M76.8423 175.205L64.6816 175.049L70.2942 164.239L66.6045 152.598L78.6612 154.573L88.5872 147.505L90.458 159.562L100.228 166.838L89.3147 172.294L85.4171 183.831L76.8423 175.205Z" fill="#FDD013"/>
<path d="M86.1453 233.253H42.1279V252.378H86.1453V233.253Z" fill="#FFB10F"/>
<path d="M58.0298 252.378L42.907 233.253H42.1274V235.644L55.3794 252.378H58.0298Z" fill="#FFB10F"/>
<path d="M51.1695 252.378L42.127 240.945V242.608L49.8703 252.378H51.1695Z" fill="#FFB10F"/>
<path d="M64.2648 252.378L49.142 233.253H47.7908L62.9656 252.378H64.2648Z" fill="#FFB10F"/>
<path d="M70.0341 252.378L54.9113 233.253H52.8845L68.0593 252.378H70.0341Z" fill="#FFB10F"/>
<path d="M99.9684 211.842H28.5117V222.08H99.9684V211.842Z" fill="#FFB10F"/>
<path d="M95.8115 211.842H33.1895V210.595C33.1895 205.606 37.243 201.604 42.18 201.604H86.769C91.758 201.604 95.7595 205.658 95.7595 210.595V211.842H95.8115Z" fill="#FFCF03"/>
<path d="M86.8202 201.604H79.3887C84.3776 201.604 88.3792 205.658 88.3792 210.595V211.842H95.8107V210.595C95.8107 205.606 91.8091 201.604 86.8202 201.604Z" fill="#E8BC03"/>
<path d="M46.2858 154.885L34.333 157.587C35.5803 161.641 37.5551 166.734 39.9976 172.138L44.1031 169.02L48.9362 169.696C47.533 163.823 46.6495 158.575 46.2858 154.885Z" fill="#D3AB03"/>
<path d="M58.3412 167.253L43.1664 165.226L30.9018 174.425L28.1475 159.354L15.623 150.571L29.1349 143.296L33.6041 128.641L44.6734 139.19L60.0041 138.982L53.3522 152.754L58.3412 167.253Z" fill="#FFCF03"/>
<path d="M30.5385 157.847L20.5605 150.831L31.2661 145.063L34.8519 133.422L43.6865 141.841L55.8472 141.633L50.5464 152.598L54.5479 164.135L42.4393 162.524L32.7212 169.852L30.5385 157.847Z" fill="#FFCF03"/>
<path d="M40.6201 86H35.4902V71.9551L35.54 69.6475L35.623 67.124C34.7708 67.9762 34.1787 68.5352 33.8467 68.8008L31.0576 71.042L28.584 67.9541L36.4033 61.7285H40.6201V86ZM64.1943 73.8643C64.1943 78.1032 63.4971 81.2409 62.1025 83.2773C60.7191 85.3138 58.583 86.332 55.6943 86.332C52.8942 86.332 50.7803 85.2806 49.3525 83.1777C47.9359 81.0749 47.2275 77.9704 47.2275 73.8643C47.2275 69.5811 47.9193 66.4268 49.3027 64.4014C50.6862 62.3649 52.8167 61.3467 55.6943 61.3467C58.4945 61.3467 60.6084 62.4092 62.0361 64.5342C63.4749 66.6592 64.1943 69.7692 64.1943 73.8643ZM52.3242 73.8643C52.3242 76.8415 52.5788 78.9775 53.0879 80.2725C53.6081 81.5563 54.4769 82.1982 55.6943 82.1982C56.8896 82.1982 57.7529 81.5452 58.2842 80.2393C58.8154 78.9333 59.0811 76.8083 59.0811 73.8643C59.0811 70.887 58.8099 68.751 58.2676 67.4561C57.7363 66.1501 56.8786 65.4971 55.6943 65.4971C54.488 65.4971 53.6247 66.1501 53.1045 67.4561C52.5843 68.751 52.3242 70.887 52.3242 73.8643ZM83.6182 73.8643C83.6182 78.1032 82.9209 81.2409 81.5264 83.2773C80.1429 85.3138 78.0068 86.332 75.1182 86.332C72.318 86.332 70.2041 85.2806 68.7764 83.1777C67.3597 81.0749 66.6514 77.9704 66.6514 73.8643C66.6514 69.5811 67.3431 66.4268 68.7266 64.4014C70.11 62.3649 72.2406 61.3467 75.1182 61.3467C77.9183 61.3467 80.0322 62.4092 81.46 64.5342C82.8988 66.6592 83.6182 69.7692 83.6182 73.8643ZM71.748 73.8643C71.748 76.8415 72.0026 78.9775 72.5117 80.2725C73.0319 81.5563 73.9007 82.1982 75.1182 82.1982C76.3135 82.1982 77.1768 81.5452 77.708 80.2393C78.2393 78.9333 78.5049 76.8083 78.5049 73.8643C78.5049 70.887 78.2337 68.751 77.6914 67.4561C77.1602 66.1501 76.3024 65.4971 75.1182 65.4971C73.9118 65.4971 73.0485 66.1501 72.5283 67.4561C72.0081 68.751 71.748 70.887 71.748 73.8643ZM107.425 86H101.581L95.2227 75.7734L93.0479 77.334V86H87.9014V61.7285H93.0479V72.835L95.0732 69.9795L101.647 61.7285H107.358L98.8916 72.4697L107.425 86Z" fill="#A97A00"/>
<defs>
<linearGradient id="paint0_linear" x1="64.5251" y1="222.132" x2="64.5251" y2="262.928" gradientUnits="userSpaceOnUse">
<stop stop-color="#FF1D1D"/>
<stop offset="1" stop-color="#FF4172"/>
</linearGradient>
<linearGradient id="paint1_linear" x1="64.5251" y1="222.132" x2="64.5251" y2="262.928" gradientUnits="userSpaceOnUse">
<stop stop-color="#FF1D1D"/>
<stop offset="1" stop-color="#FF4172"/>
</linearGradient>
</defs>
</svg>
