<svg width="118" height="250" viewBox="0 0 118 250" fill="none" xmlns="http://www.w3.org/2000/svg">
<path d="M72.197 145.539C72.197 146.162 72.093 146.734 72.0411 147.357C69.9623 163.208 61.4915 179.318 46.5765 186.074L46.3167 185.606C56.6064 177.031 60.4521 164.403 59.7765 150.995C59.7245 149.696 59.3607 146.214 59.2048 146.058L72.197 145.539Z" fill="#FFDC01"/>
<path d="M32.2852 134.885C33.4805 147.461 40.912 178.278 54.7356 188.464L54.4758 188.932C38.9892 181.604 24.9577 152.606 20.2805 137.587L32.2852 134.885Z" fill="#E8BC03"/>
<path d="M64.5577 85.4633C63.5183 87.3861 59.3089 97.7279 55.8789 109.317C52.1892 121.841 49.6427 134.626 48.6553 147.566C48.3435 151.879 48.2915 156.244 48.3955 160.61C48.7593 170.536 50.1624 178.643 52.6569 186.646L52.1892 186.854C35.5593 157.388 35.5073 114.774 41.8994 81.8255L42.2632 80.0586C42.4191 79.435 42.523 78.9153 42.6789 78.1357L64.5577 85.4633Z" fill="#A97A00"/>
<path d="M62.0624 188.932C62.0624 196.208 56.1379 202.132 48.8624 202.132C41.5868 202.132 35.6624 196.208 35.6624 188.932C35.6624 181.657 41.5868 175.732 48.8624 175.732C56.1899 175.732 62.0624 181.657 62.0624 188.932Z" fill="#B50000"/>
<path d="M64.5571 85.463L42.6783 78.0835C41.7429 81.8772 39.6122 93.5701 38.6768 105.523L47.1476 103.392L56.0862 108.693C59.4642 97.4158 63.5177 87.3859 64.5571 85.463Z" fill="#8F6802"/>
<path d="M85.3288 118L51.035 97.6424L12.39 107.266L21.1662 68.2534L0 34.4228L39.6775 30.6474L65.2687 0L81.0513 36.7177L118 51.7453L88.0575 78.0991L85.3288 118Z" fill="#FFB600"/>
<path d="M51.4014 93.8198L17.0176 102.428L24.7817 67.6996L6 37.5724L41.2711 34.2332L64.0458 7L78.0951 39.6502L111 53.0071L84.3803 76.4558L81.9401 112L51.4014 93.8198Z" fill="#FFC536"/>
<path opacity="0.51" d="M25.4446 95C55.8313 95 80.8948 71.8108 84 42.0811L78.0853 39.7027L64.0379 7L41.2663 34.277L6 37.5473L24.7791 67.7973L18.7905 94.6284C21.0085 94.8513 23.2265 95 25.4446 95Z" fill="#FFC536"/>
<path d="M91.1645 202.132H9.88574V242.928H91.1645V202.132Z" fill="url(#paint0_linear)"/>
<path d="M9.88574 202.132C9.88574 202.132 58.5283 207.381 59.2558 213.306L72.144 232.43L73.3393 242.928H91.1645V202.132H9.88574Z" fill="url(#paint1_linear)"/>
<path d="M100 249.788H1V249.008C1 245.63 3.70236 242.928 7.08032 242.928H93.8677C97.2457 242.928 99.948 245.63 99.948 249.008V249.788H100Z" fill="#FFB10F"/>
<path d="M59.3095 161.389H60.2449L65.8575 167.053C69.6512 159.83 72.0418 150.579 72.1977 145.486L59.2056 146.058C59.4134 146.318 60.4528 153.593 59.3095 161.389Z" fill="#EABE06"/>
<path d="M61.7517 157.751L72.5612 168.664L77.4462 154.113L91.1659 147.253L78.8494 138.107L76.5108 122.932L64.0383 131.819L48.9155 129.324L53.4887 143.979L46.421 157.595L61.7517 157.751Z" fill="#FFD110"/>
<path d="M62.842 155.205L50.6814 155.049L56.294 144.239L52.6042 132.598L64.6609 134.573L74.5869 127.505L76.4578 139.562L86.2278 146.838L75.3145 152.294L71.4168 163.831L62.842 155.205Z" fill="#FDD013"/>
<path d="M72.1453 213.253H28.1279V232.378H72.1453V213.253Z" fill="#FFB10F"/>
<path d="M44.0293 232.378L28.9065 213.253H28.127V215.644L41.3789 232.378H44.0293Z" fill="#FFB10F"/>
<path d="M37.169 232.378L28.1265 220.945V222.608L35.8698 232.378H37.169Z" fill="#FFB10F"/>
<path d="M50.2645 232.378L35.1417 213.253H33.7905L48.9653 232.378H50.2645Z" fill="#FFB10F"/>
<path d="M56.0336 232.378L40.9108 213.253H38.884L54.0588 232.378H56.0336Z" fill="#FFB10F"/>
<path d="M85.9679 191.842H14.5112V202.08H85.9679V191.842Z" fill="#FFB10F"/>
<path d="M81.812 191.842H19.1899V190.595C19.1899 185.606 23.2435 181.604 28.1805 181.604H72.7695C77.7584 181.604 81.76 185.658 81.76 190.595V191.842H81.812Z" fill="#FFCF03"/>
<path d="M72.8202 181.604H65.3887C70.3776 181.604 74.3792 185.658 74.3792 190.595V191.842H81.8107V190.595C81.8107 185.606 77.8091 181.604 72.8202 181.604Z" fill="#E8BC03"/>
<path d="M32.2853 134.885L20.3325 137.587C21.5798 141.641 23.5546 146.734 25.9971 152.138L30.1026 149.02L34.9357 149.696C33.5325 143.823 32.6491 138.575 32.2853 134.885Z" fill="#D3AB03"/>
<path d="M44.3416 147.253L29.1668 145.226L16.9023 154.425L14.1479 139.354L1.62354 130.571L15.1353 123.296L19.6046 108.641L30.6739 119.19L46.0046 118.982L39.3527 132.754L44.3416 147.253Z" fill="#FFCF03"/>
<path d="M16.5385 137.847L6.56055 130.831L17.2661 125.063L20.8519 113.422L29.6865 121.841L41.8472 121.633L36.5464 132.598L40.5479 144.135L28.4393 142.524L18.7212 149.852L16.5385 137.847Z" fill="#FFCF03"/>
<path d="M37.1338 77H31.4004V61.3027L31.4561 58.7236L31.5488 55.9033C30.5964 56.8558 29.9346 57.4805 29.5635 57.7773L26.4463 60.2822L23.6816 56.8311L32.4209 49.873H37.1338V77ZM63.4814 63.4365C63.4814 68.1742 62.7021 71.681 61.1436 73.957C59.5973 76.2331 57.21 77.3711 53.9814 77.3711C50.8519 77.3711 48.4893 76.196 46.8936 73.8457C45.3102 71.4954 44.5186 68.0257 44.5186 63.4365C44.5186 58.6494 45.2917 55.124 46.8379 52.8604C48.3841 50.5843 50.7653 49.4463 53.9814 49.4463C57.111 49.4463 59.4736 50.6338 61.0693 53.0088C62.6774 55.3838 63.4814 58.8597 63.4814 63.4365ZM50.2148 63.4365C50.2148 66.764 50.4993 69.1514 51.0684 70.5986C51.6497 72.0335 52.6208 72.751 53.9814 72.751C55.3174 72.751 56.2822 72.0212 56.876 70.5615C57.4697 69.1019 57.7666 66.7269 57.7666 63.4365C57.7666 60.109 57.4635 57.7217 56.8574 56.2744C56.2637 54.8148 55.305 54.085 53.9814 54.085C52.6331 54.085 51.6683 54.8148 51.0869 56.2744C50.5055 57.7217 50.2148 60.109 50.2148 63.4365ZM85.1904 63.4365C85.1904 68.1742 84.4111 71.681 82.8525 73.957C81.3063 76.2331 78.9189 77.3711 75.6904 77.3711C72.5609 77.3711 70.1982 76.196 68.6025 73.8457C67.0192 71.4954 66.2275 68.0257 66.2275 63.4365C66.2275 58.6494 67.0007 55.124 68.5469 52.8604C70.0931 50.5843 72.4743 49.4463 75.6904 49.4463C78.82 49.4463 81.1826 50.6338 82.7783 53.0088C84.3864 55.3838 85.1904 58.8597 85.1904 63.4365ZM71.9238 63.4365C71.9238 66.764 72.2083 69.1514 72.7773 70.5986C73.3587 72.0335 74.3298 72.751 75.6904 72.751C77.0264 72.751 77.9912 72.0212 78.585 70.5615C79.1787 69.1019 79.4756 66.7269 79.4756 63.4365C79.4756 60.109 79.1725 57.7217 78.5664 56.2744C77.9727 54.8148 77.014 54.085 75.6904 54.085C74.3421 54.085 73.3773 54.8148 72.7959 56.2744C72.2145 57.7217 71.9238 60.109 71.9238 63.4365Z" fill="#A97A00"/>
<defs>
<linearGradient id="paint0_linear" x1="50.5251" y1="202.132" x2="50.5251" y2="242.928" gradientUnits="userSpaceOnUse">
<stop stop-color="#FF1D1D"/>
<stop offset="1" stop-color="#FF4172"/>
</linearGradient>
<linearGradient id="paint1_linear" x1="50.5251" y1="202.132" x2="50.5251" y2="242.928" gradientUnits="userSpaceOnUse">
<stop stop-color="#FF1D1D"/>
<stop offset="1" stop-color="#FF4172"/>
</linearGradient>
</defs>
</svg>
