<svg width="255" height="105" viewBox="0 0 255 105" fill="none" xmlns="http://www.w3.org/2000/svg">
<path d="M247.142 19.1877C246.889 19.1877 246.511 19.3139 246.258 19.3139C252.444 21.8386 248.404 24.237 241.588 25.4993C240.199 25.7517 238.684 26.0042 237.17 26.1304C245.501 28.7813 241.209 31.4321 234.014 32.8207C232.373 33.0731 230.606 33.3256 228.838 33.4518C234.266 35.8502 230.227 38.1224 223.663 39.3847C222.653 39.5109 221.643 39.7634 220.633 39.8896C224.673 41.9093 221.769 43.929 216.594 45.1913C216.468 48.0946 210.787 49.8619 207.758 50.493C204.602 51.1242 200.184 50.9979 192.989 52.3865C181.249 54.5324 174.433 58.5718 169.131 63.1161C161.683 69.3014 158.023 74.7294 146.283 78.1376L145.147 71.826C176.074 61.7276 170.393 11.8663 199.931 6.43838C210.661 4.41868 238.053 9.08923 249.667 12.4975C258.755 15.0221 254.463 17.7992 247.142 19.1877Z" fill="white"/>
<path d="M237.169 26.0051C237.295 26.6363 230.605 27.5199 223.915 26.8887C217.224 26.2576 210.913 24.7428 211.039 24.1117C211.165 23.4805 217.729 24.3641 224.167 24.9953C230.605 25.5002 237.043 25.374 237.169 26.0051Z" fill="#B3E4FF"/>
<path d="M228.839 33.3259C228.965 33.9571 222.653 34.7145 216.594 34.2096C210.409 33.7046 204.476 32.1899 204.602 31.5587C204.729 30.9276 210.788 31.6849 216.847 32.1899C222.78 32.821 228.839 32.6948 228.839 33.3259Z" fill="#B3E4FF"/>
<path d="M220.633 39.7634C220.759 40.3946 214.826 41.4044 208.767 41.0257C202.834 40.647 197.027 39.3847 197.154 38.7536C197.28 38.1224 203.086 38.7536 208.893 39.1322C214.7 39.3847 220.506 39.006 220.633 39.7634Z" fill="#B3E4FF"/>
<path d="M216.594 44.9388C216.72 45.1912 215.079 45.9486 212.428 46.3273C211.166 46.5798 209.525 46.8322 207.884 46.9585C206.243 46.9585 204.476 47.0847 202.708 47.0847C195.513 46.8322 188.697 45.4437 188.823 44.8125C188.949 44.1814 195.892 44.9388 202.708 45.1912C204.476 45.1912 206.117 45.1912 207.758 45.1912C209.399 45.1912 210.913 44.9388 212.176 44.9388C214.7 44.8125 216.468 44.6863 216.594 44.9388Z" fill="#B3E4FF"/>
<path d="M246.259 19.3141C246.259 19.5666 244.491 20.1977 241.588 20.5764C238.811 20.9551 234.898 21.0813 231.111 20.8289C223.537 20.324 216.216 18.5567 216.342 17.7993C216.468 17.1682 223.916 18.3043 231.237 18.8092C234.898 19.0616 238.685 19.1879 241.462 19.0616C244.239 19.0616 246.132 18.9354 246.259 19.3141Z" fill="#B3E4FF"/>
<path d="M8.9441 63.1156C9.19656 63.1156 9.57526 62.9894 9.82772 62.9894C4.90471 67.5337 9.57526 68.2911 16.3917 67.0288C17.7803 66.7763 19.295 66.3976 20.6836 66.0189C13.8671 71.4469 18.7901 72.4567 25.9853 71.0682C27.6263 70.8157 29.3935 70.3108 31.0345 69.8059C26.8689 73.9715 31.4132 74.7289 37.9772 73.4666C38.9871 73.3403 39.9969 73.0879 41.0068 72.8354C37.9772 76.1174 41.3855 77.001 46.6872 76.2437C47.8233 78.8945 53.7561 78.642 56.7857 78.0109C59.9414 77.3797 64.1071 75.7387 71.176 74.4764C82.9155 72.3305 90.7418 73.719 97.3058 75.9912C106.521 79.147 111.822 82.8077 124.067 81.9241L122.931 75.6125C90.3631 77.1273 77.9925 28.6546 48.3282 34.0825C37.7248 36.1022 13.7409 50.2401 4.14732 57.5615C-3.42654 63.3681 1.49647 64.5042 8.9441 63.1156Z" fill="white"/>
<path d="M44.4155 54.9106C44.7942 55.4155 39.3663 59.2025 33.3072 62.1058C27.2481 65.0091 20.8103 66.5239 20.6841 65.8927C20.4316 65.2615 26.7432 63.1156 32.4236 60.2123C38.3564 57.4352 44.0368 54.2794 44.4155 54.9106Z" fill="#B3E4FF"/>
<path d="M53.1255 59.5815C53.5042 60.0864 48.3287 63.6209 42.7745 66.398C37.0941 69.175 31.1613 70.5636 30.9088 69.9324C30.6564 69.3013 36.463 67.1553 41.8909 64.6307C47.4451 61.8536 52.873 58.9503 53.1255 59.5815Z" fill="#B3E4FF"/>
<path d="M62.5924 63.4946C62.9711 63.9995 57.9219 67.2815 52.6201 69.8061C47.066 72.3308 41.3856 73.4668 41.1331 72.8357C40.8807 72.2045 46.5611 70.3111 51.8628 68.0389C57.0382 65.6405 62.2137 62.9897 62.5924 63.4946Z" fill="#B3E4FF"/>
<path d="M72.6908 66.2718C73.0695 66.7767 67.1367 70.6899 60.5727 73.467C58.9316 74.0981 57.1644 74.7293 55.6496 75.2342C54.0086 75.7391 52.6201 75.9916 51.2316 76.244C49.9693 76.4965 48.9594 76.749 48.0758 76.6227C47.3184 76.6227 46.8135 76.4965 46.8135 76.3703C46.8135 76.244 47.1922 75.9916 47.9495 75.7391C48.5807 75.6129 49.7168 75.108 50.9791 74.7293C52.2414 74.3506 53.7562 73.9719 55.271 73.3407C56.7857 72.7096 58.3005 72.0784 59.9415 71.5735C66.1268 68.9226 72.3121 65.6406 72.6908 66.2718Z" fill="#B3E4FF"/>
<path d="M37.2199 50.8714C37.5986 51.3763 31.287 55.7944 24.4705 58.9502C21.0623 60.465 17.4016 61.8535 14.6245 62.4846C11.8474 63.1158 9.95397 63.242 9.82774 62.8633C9.70151 62.4847 11.595 61.9797 14.1196 60.9699C16.7704 60.0863 20.1787 58.5715 23.5869 57.0567C30.4034 54.0272 36.8412 50.2402 37.2199 50.8714Z" fill="#B3E4FF"/>
<path d="M150.955 91.8963C151.46 94.5471 148.683 96.693 145.527 98.2078C143.255 99.3439 140.604 99.975 138.837 100.354C137.07 100.732 134.419 100.985 131.895 100.732C128.36 100.48 125.078 99.4701 124.573 96.693C124.321 95.557 124.952 94.2947 125.331 93.0323C128.486 94.9258 134.545 94.6733 137.701 94.0422C140.857 93.411 146.664 91.5176 148.936 88.6143C149.819 89.7503 150.829 90.7602 150.955 91.8963Z" fill="#622C00"/>
<path d="M149.818 85.711C150.071 86.847 149.692 87.8569 148.935 88.7405C146.662 91.6438 140.856 93.5373 137.7 94.1684C134.544 94.7996 128.359 95.0521 125.329 93.1586C124.32 92.5274 123.688 91.77 123.436 90.634C123.183 89.4979 123.815 88.2356 124.193 86.9733C127.349 88.8667 133.408 88.6143 136.564 87.9831C139.72 87.352 145.526 85.4585 147.798 82.5552C148.682 83.565 149.692 84.5749 149.818 85.711Z" fill="#914100"/>
<path d="M148.683 79.6514C148.935 80.7875 148.557 81.7973 147.799 82.6809C145.527 85.5842 139.721 87.4777 136.565 88.1089C133.409 88.74 127.224 88.9925 124.194 87.099C123.184 86.4678 122.553 85.7105 122.301 84.5744C122.048 83.4383 122.679 82.176 123.058 80.9137C126.214 82.8072 132.273 82.5547 135.429 81.9235C138.584 81.2924 144.391 79.3989 146.663 76.4956C147.547 77.5055 148.557 78.3891 148.683 79.6514Z" fill="#622C00"/>
<path d="M147.547 73.4663C147.799 74.6024 147.421 75.6123 146.663 76.4959C144.391 79.3992 138.585 81.2926 135.429 81.9238C132.273 82.555 126.088 82.8074 123.058 80.914C122.048 80.2828 121.417 79.5254 121.165 78.3893C120.912 77.2533 121.543 75.9909 121.922 74.7286C125.078 76.6221 131.137 76.3696 134.293 75.7385C137.448 75.1073 143.255 73.2139 145.527 70.3105C146.411 71.3204 147.295 72.3302 147.547 73.4663Z" fill="#914100"/>
<path d="M145.527 98.208C145.654 100.859 145.149 103.762 139.721 104.772C134.293 105.782 132.778 103.257 131.895 100.733C134.419 100.859 137.07 100.733 138.837 100.354C140.604 100.101 143.255 99.3441 145.527 98.208Z" fill="#1E1919"/>
<path d="M158.781 27.3924C162.568 47.968 143.254 57.0567 145.527 70.3109C143.254 73.2142 137.448 75.1077 134.292 75.7389C131.136 76.37 124.951 76.6225 121.921 74.729C119.271 61.601 97.9375 59.8338 94.1506 39.3843C92.0046 28.0235 96.4227 5.04949 120.407 0.631402C144.391 -3.78668 156.761 16.0316 158.781 27.3924Z" fill="url(#paint0_linear)"/>
<path d="M120.405 52.158L113.681 53.0965L111.111 34.6861L110.754 31.6521L110.402 28.3292C109.44 29.6022 108.766 30.4432 108.38 30.8521L105.134 34.3002L101.326 30.7051L110.437 21.1139L115.965 20.3424L120.405 52.158ZM149.087 31.937C149.862 37.4935 149.522 41.734 148.067 44.6586C146.626 47.5811 144.012 49.3067 140.226 49.8352C136.555 50.3475 133.592 49.356 131.336 46.8608C129.094 44.3635 127.597 40.4236 126.846 35.0412C126.063 29.4267 126.392 25.1654 127.835 22.2574C129.276 19.3348 131.882 17.6103 135.654 17.0838C139.325 16.5715 142.29 17.5775 144.551 20.1018C146.825 22.624 148.337 26.5691 149.087 31.937ZM133.527 34.1088C134.072 38.0114 134.796 40.7648 135.701 42.369C136.617 43.9568 137.874 44.6393 139.469 44.4165C141.036 44.1978 142.048 43.1839 142.506 41.3748C142.963 39.5657 142.923 36.7316 142.384 32.8725C141.839 28.9699 141.093 26.2195 140.145 24.6213C139.21 23.0066 137.966 22.3076 136.414 22.5243C134.832 22.745 133.82 23.7589 133.377 25.566C132.932 27.3586 132.982 30.2062 133.527 34.1088Z" fill="#FF012F"/>
<defs>
<linearGradient id="paint0_linear" x1="126.473" y1="0" x2="126.473" y2="76.2028" gradientUnits="userSpaceOnUse">
<stop stop-color="#F7E100"/>
<stop offset="1" stop-color="#FFAA2E"/>
</linearGradient>
</defs>
</svg>
