<svg width="256" height="105" viewBox="0 0 256 105" fill="none" xmlns="http://www.w3.org/2000/svg">
<path d="M247.767 19.1877C247.515 19.1877 247.136 19.3139 246.884 19.3139C253.069 21.8386 249.03 24.237 242.213 25.4993C240.825 25.7517 239.31 26.0042 237.795 26.1304C246.126 28.7813 241.835 31.4321 234.639 32.8207C232.998 33.0731 231.231 33.3256 229.464 33.4518C234.892 35.8502 230.852 38.1224 224.288 39.3847C223.279 39.5109 222.269 39.7634 221.259 39.8896C225.298 41.9093 222.395 43.929 217.219 45.1913C217.093 48.0946 211.413 49.8619 208.383 50.493C205.228 51.1242 200.809 50.9979 193.614 52.3865C181.875 54.5324 175.058 58.5718 169.757 63.1161C162.309 69.3014 158.648 74.7294 146.909 78.1376L145.773 71.826C176.699 61.7276 171.019 11.8663 200.557 6.43838C211.287 4.41868 238.679 9.08923 250.292 12.4975C259.381 15.0221 255.089 17.7992 247.767 19.1877Z" fill="white"/>
<path d="M237.794 26.0051C237.921 26.6363 231.23 27.5199 224.54 26.8887C217.85 26.2576 211.538 24.7428 211.664 24.1117C211.791 23.4805 218.355 24.3641 224.792 24.9953C231.23 25.5002 237.668 25.374 237.794 26.0051Z" fill="#B3E4FF"/>
<path d="M229.464 33.3259C229.59 33.9571 223.279 34.7145 217.22 34.2096C211.034 33.7046 205.102 32.1899 205.228 31.5587C205.354 30.9276 211.413 31.6849 217.472 32.1899C223.405 32.821 229.464 32.6948 229.464 33.3259Z" fill="#B3E4FF"/>
<path d="M221.258 39.7634C221.385 40.3946 215.452 41.4044 209.393 41.0257C203.46 40.647 197.653 39.3847 197.779 38.7536C197.906 38.1224 203.712 38.7536 209.519 39.1322C215.325 39.3847 221.132 39.006 221.258 39.7634Z" fill="#B3E4FF"/>
<path d="M217.219 44.9388C217.346 45.1912 215.705 45.9486 213.054 46.3273C211.791 46.5798 210.15 46.8322 208.509 46.9585C206.868 46.9585 205.101 47.0847 203.334 47.0847C196.139 46.8322 189.322 45.4437 189.449 44.8125C189.575 44.1814 196.517 44.9388 203.334 45.1912C205.101 45.1912 206.742 45.1912 208.383 45.1912C210.024 45.1912 211.539 44.9388 212.801 44.9388C215.326 44.8125 217.093 44.6863 217.219 44.9388Z" fill="#B3E4FF"/>
<path d="M246.884 19.3141C246.884 19.5666 245.117 20.1977 242.214 20.5764C239.437 20.9551 235.524 21.0813 231.737 20.8289C224.163 20.324 216.841 18.5567 216.968 17.7993C217.094 17.1682 224.542 18.3043 231.863 18.8092C235.524 19.0616 239.311 19.1879 242.088 19.0616C244.865 19.0616 246.758 18.9354 246.884 19.3141Z" fill="#B3E4FF"/>
<path d="M9.56959 63.1156C9.82205 63.1156 10.2007 62.9894 10.4532 62.9894C5.5302 67.5337 10.2007 68.2911 17.0172 67.0288C18.4058 66.7763 19.9205 66.3976 21.3091 66.0189C14.4926 71.4469 19.4156 72.4567 26.6108 71.0682C28.2518 70.8157 30.019 70.3108 31.66 69.8059C27.4944 73.9715 32.0387 74.7289 38.6027 73.4666C39.6126 73.3403 40.6224 73.0879 41.6323 72.8354C38.6027 76.1174 42.011 77.001 47.3127 76.2437C48.4487 78.8945 54.3816 78.642 57.4112 78.0109C60.5669 77.3797 64.7326 75.7387 71.8015 74.4764C83.541 72.3305 91.3673 73.719 97.9313 75.9912C107.146 79.147 112.448 82.8077 124.692 81.9241L123.556 75.6125C90.9886 77.1273 78.618 28.6546 48.9537 34.0825C38.3503 36.1022 14.3664 50.2401 4.77281 57.5615C-2.80105 63.3681 2.12196 64.5042 9.56959 63.1156Z" fill="white"/>
<path d="M45.0413 54.9106C45.42 55.4155 39.992 59.2025 33.9329 62.1058C27.8738 65.0091 21.4361 66.5239 21.3098 65.8927C21.0574 65.2615 27.3689 63.1156 33.0493 60.2123C38.9822 57.4352 44.6626 54.2794 45.0413 54.9106Z" fill="#B3E4FF"/>
<path d="M53.751 59.5815C54.1297 60.0864 48.9542 63.6209 43.4 66.398C37.7196 69.175 31.7868 70.5636 31.5343 69.9324C31.2819 69.3013 37.0885 67.1553 42.5164 64.6307C48.0706 61.8536 53.4985 58.9503 53.751 59.5815Z" fill="#B3E4FF"/>
<path d="M63.2179 63.4946C63.5966 63.9995 58.5473 67.2815 53.2456 69.8061C47.6915 72.3308 42.0111 73.4668 41.7586 72.8357C41.5061 72.2045 47.1865 70.3111 52.4882 68.0389C57.6637 65.6405 62.8392 62.9897 63.2179 63.4946Z" fill="#B3E4FF"/>
<path d="M73.3166 66.2718C73.6953 66.7767 67.7624 70.6899 61.1984 73.467C59.5574 74.0981 57.7902 74.7293 56.2754 75.2342C54.6344 75.7391 53.2458 75.9916 51.8573 76.244C50.595 76.4965 49.5851 76.749 48.7015 76.6227C47.9441 76.6227 47.4392 76.4965 47.4392 76.3703C47.4392 76.244 47.8179 75.9916 48.5753 75.7391C49.2064 75.6129 50.3425 75.108 51.6048 74.7293C52.8671 74.3506 54.3819 73.9719 55.8967 73.3407C57.4115 72.7096 58.9262 72.0784 60.5672 71.5735C66.7526 68.9226 72.9379 65.6406 73.3166 66.2718Z" fill="#B3E4FF"/>
<path d="M37.8456 50.8714C38.2243 51.3763 31.9127 55.7944 25.0963 58.9502C21.688 60.465 18.0273 61.8535 15.2502 62.4846C12.4732 63.1158 10.5797 63.242 10.4535 62.8633C10.3272 62.4847 12.2207 61.9797 14.7453 60.9699C17.3962 60.0863 20.8044 58.5715 24.2127 57.0567C31.0291 54.0272 37.4669 50.2402 37.8456 50.8714Z" fill="#B3E4FF"/>
<path d="M151.581 91.8963C152.086 94.5471 149.308 96.693 146.153 98.2078C143.881 99.3439 141.23 99.975 139.462 100.354C137.695 100.732 135.044 100.985 132.52 100.732C128.985 100.48 125.703 99.4701 125.198 96.693C124.946 95.557 125.577 94.2947 125.956 93.0323C129.112 94.9258 135.171 94.6733 138.326 94.0422C141.482 93.411 147.289 91.5176 149.561 88.6143C150.445 89.7503 151.454 90.7602 151.581 91.8963Z" fill="#622C00"/>
<path d="M150.444 85.711C150.696 86.847 150.317 87.8569 149.56 88.7405C147.288 91.6438 141.481 93.5373 138.326 94.1684C135.17 94.7996 128.984 95.0521 125.955 93.1586C124.945 92.5274 124.314 91.77 124.061 90.634C123.809 89.4979 124.44 88.2356 124.819 86.9733C127.975 88.8667 134.034 88.6143 137.189 87.9831C140.345 87.352 146.152 85.4585 148.424 82.5552C149.308 83.565 150.317 84.5749 150.444 85.711Z" fill="#914100"/>
<path d="M149.308 79.6514C149.561 80.7875 149.182 81.7973 148.425 82.6809C146.153 85.5842 140.346 87.4777 137.19 88.1089C134.034 88.74 127.849 88.9925 124.82 87.099C123.81 86.4678 123.179 85.7105 122.926 84.5744C122.674 83.4383 123.305 82.176 123.684 80.9137C126.839 82.8072 132.898 82.5547 136.054 81.9235C139.21 81.2924 145.017 79.3989 147.289 76.4956C148.172 77.5055 149.182 78.3891 149.308 79.6514Z" fill="#622C00"/>
<path d="M148.172 73.4663C148.425 74.6024 148.046 75.6123 147.289 76.4959C145.017 79.3992 139.21 81.2926 136.054 81.9238C132.898 82.555 126.713 82.8074 123.684 80.914C122.674 80.2828 122.043 79.5254 121.79 78.3893C121.538 77.2533 122.169 75.9909 122.548 74.7286C125.703 76.6221 131.762 76.3696 134.918 75.7385C138.074 75.1073 143.881 73.2139 146.153 70.3105C147.036 71.3204 147.92 72.3302 148.172 73.4663Z" fill="#914100"/>
<path d="M146.153 98.208C146.279 100.859 145.774 103.762 140.346 104.772C134.918 105.782 133.404 103.257 132.52 100.733C135.045 100.859 137.695 100.733 139.463 100.354C141.23 100.101 143.881 99.3441 146.153 98.208Z" fill="#1E1919"/>
<path d="M159.406 27.3924C163.193 47.968 143.88 57.0567 146.152 70.3109C143.88 73.2142 138.073 75.1077 134.918 75.7389C131.762 76.37 125.576 76.6225 122.547 74.729C119.896 61.601 98.563 59.8338 94.776 39.3843C92.6301 28.0235 97.0482 5.04949 121.032 0.631402C145.016 -3.78668 157.387 16.0316 159.406 27.3924Z" fill="url(#paint0_linear)"/>
<path d="M109.56 54.0381L117.863 26.2565L102.172 28.4465L101.383 22.7885L124.211 19.6022L124.8 23.824L116.611 53.054L109.56 54.0381ZM151.712 31.937C152.488 37.4935 152.148 41.734 150.692 44.6586C149.252 47.5811 146.638 49.3067 142.851 49.8352C139.181 50.3475 136.217 49.356 133.961 46.8608C131.719 44.3635 130.223 40.4236 129.472 35.0412C128.688 29.4267 129.018 25.1654 130.461 22.2574C131.901 19.3348 134.508 17.6103 138.28 17.0838C141.95 16.5715 144.916 17.5775 147.176 20.1018C149.451 22.624 150.963 26.5691 151.712 31.937ZM136.153 34.1088C136.697 38.0114 137.422 40.7648 138.326 42.369C139.243 43.9568 140.499 44.6393 142.095 44.4165C143.662 44.1978 144.674 43.1839 145.131 41.3748C145.589 39.5657 145.548 36.7316 145.01 32.8725C144.465 28.9699 143.719 26.2195 142.771 24.6213C141.835 23.0066 140.592 22.3076 139.039 22.5243C137.458 22.745 136.446 23.7589 136.003 25.566C135.558 27.3586 135.608 30.2062 136.153 34.1088Z" fill="#FF012F"/>
<defs>
<linearGradient id="paint0_linear" x1="127.098" y1="0" x2="127.098" y2="76.2028" gradientUnits="userSpaceOnUse">
<stop stop-color="#F7E100"/>
<stop offset="1" stop-color="#FFAA2E"/>
</linearGradient>
</defs>
</svg>
