<svg width="256" height="105" viewBox="0 0 256 105" fill="none" xmlns="http://www.w3.org/2000/svg">
<path d="M247.674 19.1877C247.421 19.1877 247.043 19.3139 246.79 19.3139C252.976 21.8386 248.936 24.237 242.12 25.4993C240.731 25.7517 239.216 26.0042 237.702 26.1304C246.033 28.7813 241.741 31.4321 234.546 32.8207C232.905 33.0731 231.138 33.3256 229.37 33.4518C234.798 35.8502 230.759 38.1224 224.195 39.3847C223.185 39.5109 222.175 39.7634 221.165 39.8896C225.205 41.9093 222.301 43.929 217.126 45.1913C217 48.0946 211.319 49.8619 208.29 50.493C205.134 51.1242 200.716 50.9979 193.521 52.3865C181.781 54.5324 174.965 58.5718 169.663 63.1161C162.215 69.3014 158.555 74.7294 146.815 78.1376L145.679 71.826C176.606 61.7276 170.925 11.8663 200.463 6.43838C211.193 4.41868 238.585 9.08923 250.199 12.4975C259.287 15.0221 254.995 17.7992 247.674 19.1877Z" fill="white"/>
<path d="M237.701 26.0051C237.827 26.6363 231.137 27.5199 224.447 26.8887C217.757 26.2576 211.445 24.7428 211.571 24.1117C211.697 23.4805 218.261 24.3641 224.699 24.9953C231.137 25.5002 237.575 25.374 237.701 26.0051Z" fill="#B3E4FF"/>
<path d="M229.371 33.3259C229.497 33.9571 223.185 34.7145 217.126 34.2096C210.941 33.7046 205.008 32.1899 205.134 31.5587C205.261 30.9276 211.32 31.6849 217.379 32.1899C223.312 32.821 229.371 32.6948 229.371 33.3259Z" fill="#B3E4FF"/>
<path d="M221.165 39.7634C221.291 40.3946 215.358 41.4044 209.299 41.0257C203.366 40.647 197.559 39.3847 197.686 38.7536C197.812 38.1224 203.618 38.7536 209.425 39.1322C215.232 39.3847 221.038 39.006 221.165 39.7634Z" fill="#B3E4FF"/>
<path d="M217.126 44.9388C217.252 45.1912 215.611 45.9486 212.96 46.3273C211.698 46.5798 210.057 46.8322 208.416 46.9585C206.775 46.9585 205.008 47.0847 203.241 47.0847C196.045 46.8322 189.229 45.4437 189.355 44.8125C189.481 44.1814 196.424 44.9388 203.241 45.1912C205.008 45.1912 206.649 45.1912 208.29 45.1912C209.931 45.1912 211.446 44.9388 212.708 44.9388C215.233 44.8125 217 44.6863 217.126 44.9388Z" fill="#B3E4FF"/>
<path d="M246.791 19.3141C246.791 19.5666 245.024 20.1977 242.12 20.5764C239.343 20.9551 235.43 21.0813 231.643 20.8289C224.069 20.324 216.748 18.5567 216.874 17.7993C217 17.1682 224.448 18.3043 231.769 18.8092C235.43 19.0616 239.217 19.1879 241.994 19.0616C244.771 19.0616 246.665 18.9354 246.791 19.3141Z" fill="#B3E4FF"/>
<path d="M9.47608 63.1156C9.72855 63.1156 10.1072 62.9894 10.3597 62.9894C5.43669 67.5337 10.1072 68.2911 16.9237 67.0288C18.3123 66.7763 19.827 66.3976 21.2156 66.0189C14.3991 71.4469 19.3221 72.4567 26.5173 71.0682C28.1583 70.8157 29.9255 70.3108 31.5665 69.8059C27.4009 73.9715 31.9452 74.7289 38.5092 73.4666C39.5191 73.3403 40.5289 73.0879 41.5388 72.8354C38.5092 76.1174 41.9175 77.001 47.2192 76.2437C48.3552 78.8945 54.2881 78.642 57.3176 78.0109C60.4734 77.3797 64.639 75.7387 71.708 74.4764C83.4475 72.3305 91.2738 73.719 97.8378 75.9912C107.053 79.147 112.354 82.8077 124.599 81.9241L123.463 75.6125C90.8951 77.1273 78.5245 28.6546 48.8602 34.0825C38.2568 36.1022 14.2729 50.2401 4.67931 57.5615C-2.89456 63.3681 2.02845 64.5042 9.47608 63.1156Z" fill="white"/>
<path d="M44.9478 54.9106C45.3265 55.4155 39.8985 59.2025 33.8394 62.1058C27.7803 65.0091 21.3425 66.5239 21.2163 65.8927C20.9639 65.2615 27.2754 63.1156 32.9558 60.2123C38.8887 57.4352 44.5691 54.2794 44.9478 54.9106Z" fill="#B3E4FF"/>
<path d="M53.6577 59.5815C54.0364 60.0864 48.8609 63.6209 43.3068 66.398C37.6264 69.175 31.6935 70.5636 31.4411 69.9324C31.1886 69.3013 36.9952 67.1553 42.4232 64.6307C47.9773 61.8536 53.4053 58.9503 53.6577 59.5815Z" fill="#B3E4FF"/>
<path d="M63.1246 63.4946C63.5033 63.9995 58.4541 67.2815 53.1524 69.8061C47.5982 72.3308 41.9178 73.4668 41.6653 72.8357C41.4129 72.2045 47.0933 70.3111 52.395 68.0389C57.5705 65.6405 62.7459 62.9897 63.1246 63.4946Z" fill="#B3E4FF"/>
<path d="M73.2231 66.2718C73.6018 66.7767 67.6689 70.6899 61.1049 73.467C59.4639 74.0981 57.6966 74.7293 56.1819 75.2342C54.5409 75.7391 53.1523 75.9916 51.7638 76.244C50.5015 76.4965 49.4916 76.749 48.608 76.6227C47.8506 76.6227 47.3457 76.4965 47.3457 76.3703C47.3457 76.244 47.7244 75.9916 48.4818 75.7391C49.1129 75.6129 50.249 75.108 51.5113 74.7293C52.7736 74.3506 54.2884 73.9719 55.8032 73.3407C57.318 72.7096 58.8327 72.0784 60.4737 71.5735C66.659 68.9226 72.8444 65.6406 73.2231 66.2718Z" fill="#B3E4FF"/>
<path d="M37.7521 50.8714C38.1308 51.3763 31.8192 55.7944 25.0028 58.9502C21.5945 60.465 17.9338 61.8535 15.1567 62.4846C12.3797 63.1158 10.4862 63.242 10.36 62.8633C10.2337 62.4847 12.1272 61.9797 14.6518 60.9699C17.3027 60.0863 20.7109 58.5715 24.1191 57.0567C30.9356 54.0272 37.3734 50.2402 37.7521 50.8714Z" fill="#B3E4FF"/>
<path d="M151.487 91.8963C151.992 94.5471 149.215 96.693 146.059 98.2078C143.787 99.3439 141.136 99.975 139.369 100.354C137.602 100.732 134.951 100.985 132.426 100.732C128.892 100.48 125.61 99.4701 125.105 96.693C124.852 95.557 125.484 94.2947 125.862 93.0323C129.018 94.9258 135.077 94.6733 138.233 94.0422C141.389 93.411 147.195 91.5176 149.467 88.6143C150.351 89.7503 151.361 90.7602 151.487 91.8963Z" fill="#622C00"/>
<path d="M150.35 85.711C150.602 86.847 150.224 87.8569 149.466 88.7405C147.194 91.6438 141.388 93.5373 138.232 94.1684C135.076 94.7996 128.891 95.0521 125.861 93.1586C124.851 92.5274 124.22 91.77 123.968 90.634C123.715 89.4979 124.346 88.2356 124.725 86.9733C127.881 88.8667 133.94 88.6143 137.096 87.9831C140.251 87.352 146.058 85.4585 148.33 82.5552C149.214 83.565 150.224 84.5749 150.35 85.711Z" fill="#914100"/>
<path d="M149.215 79.6514C149.467 80.7875 149.088 81.7973 148.331 82.6809C146.059 85.5842 140.252 87.4777 137.096 88.1089C133.941 88.74 127.755 88.9925 124.726 87.099C123.716 86.4678 123.085 85.7105 122.832 84.5744C122.58 83.4383 123.211 82.176 123.59 80.9137C126.746 82.8072 132.805 82.5547 135.96 81.9235C139.116 81.2924 144.923 79.3989 147.195 76.4956C148.079 77.5055 149.088 78.3891 149.215 79.6514Z" fill="#622C00"/>
<path d="M148.079 73.4663C148.331 74.6024 147.953 75.6123 147.195 76.4959C144.923 79.3992 139.117 81.2926 135.961 81.9238C132.805 82.555 126.62 82.8074 123.59 80.914C122.58 80.2828 121.949 79.5254 121.697 78.3893C121.444 77.2533 122.075 75.9909 122.454 74.7286C125.61 76.6221 131.669 76.3696 134.825 75.7385C137.98 75.1073 143.787 73.2139 146.059 70.3105C146.943 71.3204 147.826 72.3302 148.079 73.4663Z" fill="#914100"/>
<path d="M146.06 98.208C146.186 100.859 145.681 103.762 140.253 104.772C134.825 105.782 133.31 103.257 132.427 100.733C134.951 100.859 137.602 100.733 139.369 100.354C141.137 100.101 143.788 99.3441 146.06 98.208Z" fill="#1E1919"/>
<path d="M159.313 27.3924C163.1 47.968 143.786 57.0567 146.059 70.3109C143.786 73.2142 137.98 75.1077 134.824 75.7389C131.668 76.37 125.483 76.6225 122.453 74.729C119.803 61.601 98.4695 59.8338 94.6825 39.3843C92.5366 28.0235 96.9547 5.04949 120.939 0.631402C144.922 -3.78668 157.293 16.0316 159.313 27.3924Z" fill="url(#paint0_linear)"/>
<path d="M125.876 33.1562C126.751 39.4236 126.084 44.2866 123.874 47.7453C121.665 51.204 117.884 53.307 112.531 54.0542C110.645 54.3174 109.202 54.4154 108.201 54.3479L107.448 48.951C108.709 49.0856 110.007 49.0597 111.342 48.8734C113.59 48.5595 115.395 47.9749 116.754 47.1196C118.112 46.2497 119.077 45.0575 119.649 43.5429C120.22 42.0139 120.39 40.0008 120.16 37.5038L119.899 37.5402C119.248 39.0214 118.409 40.1146 117.384 40.8198C116.358 41.525 115.018 41.993 113.364 42.2238C110.593 42.6106 108.286 42.0304 106.443 40.4832C104.599 38.9215 103.455 36.5593 103.014 33.3966C102.538 29.9872 103.127 27.1614 104.781 24.919C106.448 22.6601 108.95 21.2977 112.286 20.832C114.637 20.504 116.767 20.7687 118.676 21.6263C120.6 22.4818 122.18 23.8956 123.417 25.8676C124.651 27.8251 125.471 30.2547 125.876 33.1562ZM113.17 26.2107C111.778 26.4051 110.756 27.0357 110.107 28.1026C109.457 29.1694 109.257 30.6023 109.509 32.4013C109.723 33.9391 110.249 35.1082 111.085 35.9084C111.922 36.7087 113.065 37.0076 114.516 36.8051C115.88 36.6147 116.986 36.0092 117.834 34.9886C118.681 33.9534 119.023 32.8555 118.861 31.6949C118.62 29.9685 117.96 28.5742 116.879 27.5122C115.814 26.4481 114.578 26.0143 113.17 26.2107ZM151.619 31.937C152.394 37.4935 152.054 41.734 150.599 44.6586C149.158 47.5811 146.544 49.3067 142.758 49.8352C139.087 50.3475 136.124 49.356 133.868 46.8608C131.626 44.3635 130.129 40.4236 129.378 35.0412C128.595 29.4267 128.924 25.1654 130.367 22.2574C131.808 19.3348 134.414 17.6103 138.186 17.0838C141.857 16.5715 144.822 17.5775 147.083 20.1018C149.357 22.624 150.869 26.5691 151.619 31.937ZM136.059 34.1088C136.604 38.0114 137.328 40.7648 138.233 42.369C139.149 43.9568 140.406 44.6393 142.001 44.4165C143.568 44.1978 144.58 43.1839 145.038 41.3748C145.495 39.5657 145.455 36.7316 144.916 32.8725C144.371 28.9699 143.625 26.2195 142.677 24.6213C141.742 23.0066 140.498 22.3076 138.946 22.5243C137.364 22.745 136.352 23.7589 135.909 25.566C135.464 27.3586 135.514 30.2062 136.059 34.1088Z" fill="#FF012F"/>
<defs>
<linearGradient id="paint0_linear" x1="127.005" y1="0" x2="127.005" y2="76.2028" gradientUnits="userSpaceOnUse">
<stop stop-color="#F7E100"/>
<stop offset="1" stop-color="#FFAA2E"/>
</linearGradient>
</defs>
</svg>
