<svg width="255" height="105" viewBox="0 0 255 105" fill="none" xmlns="http://www.w3.org/2000/svg">
<path d="M247.048 19.1877C246.796 19.1877 246.417 19.3139 246.165 19.3139C252.35 21.8386 248.311 24.237 241.494 25.4993C240.106 25.7517 238.591 26.0042 237.076 26.1304C245.407 28.7813 241.116 31.4321 233.92 32.8207C232.279 33.0731 230.512 33.3256 228.745 33.4518C234.173 35.8502 230.133 38.1224 223.569 39.3847C222.56 39.5109 221.55 39.7634 220.54 39.8896C224.579 41.9093 221.676 43.929 216.5 45.1913C216.374 48.0946 210.694 49.8619 207.664 50.493C204.509 51.1242 200.09 50.9979 192.895 52.3865C181.156 54.5324 174.339 58.5718 169.038 63.1161C161.59 69.3014 157.929 74.7294 146.19 78.1376L145.054 71.826C175.98 61.7276 170.3 11.8663 199.838 6.43838C210.568 4.41868 237.96 9.08923 249.573 12.4975C258.662 15.0221 254.37 17.7992 247.048 19.1877Z" fill="white"/>
<path d="M237.075 26.0051C237.202 26.6363 230.511 27.5199 223.821 26.8887C217.131 26.2576 210.819 24.7428 210.945 24.1117C211.072 23.4805 217.636 24.3641 224.074 24.9953C230.511 25.5002 236.949 25.374 237.075 26.0051Z" fill="#B3E4FF"/>
<path d="M228.745 33.3259C228.872 33.9571 222.56 34.7145 216.501 34.2096C210.316 33.7046 204.383 32.1899 204.509 31.5587C204.635 30.9276 210.694 31.6849 216.753 32.1899C222.686 32.821 228.745 32.6948 228.745 33.3259Z" fill="#B3E4FF"/>
<path d="M220.539 39.7634C220.665 40.3946 214.733 41.4044 208.674 41.0257C202.741 40.647 196.934 39.3847 197.06 38.7536C197.186 38.1224 202.993 38.7536 208.8 39.1322C214.606 39.3847 220.413 39.006 220.539 39.7634Z" fill="#B3E4FF"/>
<path d="M216.5 44.9388C216.627 45.1912 214.986 45.9486 212.335 46.3273C211.073 46.5798 209.432 46.8322 207.791 46.9585C206.15 46.9585 204.382 47.0847 202.615 47.0847C195.42 46.8322 188.603 45.4437 188.73 44.8125C188.856 44.1814 195.799 44.9388 202.615 45.1912C204.382 45.1912 206.023 45.1912 207.664 45.1912C209.305 45.1912 210.82 44.9388 212.082 44.9388C214.607 44.8125 216.374 44.6863 216.5 44.9388Z" fill="#B3E4FF"/>
<path d="M246.165 19.3141C246.165 19.5666 244.398 20.1977 241.495 20.5764C238.718 20.9551 234.805 21.0813 231.018 20.8289C223.444 20.324 216.122 18.5567 216.249 17.7993C216.375 17.1682 223.822 18.3043 231.144 18.8092C234.805 19.0616 238.591 19.1879 241.369 19.0616C244.146 19.0616 246.039 18.9354 246.165 19.3141Z" fill="#B3E4FF"/>
<path d="M8.8506 63.1156C9.10306 63.1156 9.48175 62.9894 9.73421 62.9894C4.8112 67.5337 9.48175 68.2911 16.2982 67.0288C17.6868 66.7763 19.2015 66.3976 20.5901 66.0189C13.7736 71.4469 18.6966 72.4567 25.8918 71.0682C27.5328 70.8157 29.3 70.3108 30.941 69.8059C26.7754 73.9715 31.3197 74.7289 37.8837 73.4666C38.8936 73.3403 39.9034 73.0879 40.9133 72.8354C37.8837 76.1174 41.292 77.001 46.5937 76.2437C47.7298 78.8945 53.6626 78.642 56.6922 78.0109C59.8479 77.3797 64.0136 75.7387 71.0825 74.4764C82.822 72.3305 90.6483 73.719 97.2123 75.9912C106.427 79.147 111.729 82.8077 123.973 81.9241L122.837 75.6125C90.2696 77.1273 77.899 28.6546 48.2347 34.0825C37.6313 36.1022 13.6474 50.2401 4.05382 57.5615C-3.52004 63.3681 1.40296 64.5042 8.8506 63.1156Z" fill="white"/>
<path d="M44.3223 54.9106C44.701 55.4155 39.273 59.2025 33.2139 62.1058C27.1548 65.0091 20.7171 66.5239 20.5908 65.8927C20.3384 65.2615 26.6499 63.1156 32.3303 60.2123C38.2632 57.4352 43.9436 54.2794 44.3223 54.9106Z" fill="#B3E4FF"/>
<path d="M53.0321 59.5815C53.4108 60.0864 48.2353 63.6209 42.6812 66.398C37.0008 69.175 31.0679 70.5636 30.8154 69.9324C30.563 69.3013 36.3696 67.1553 41.7975 64.6307C47.3517 61.8536 52.7796 58.9503 53.0321 59.5815Z" fill="#B3E4FF"/>
<path d="M62.4989 63.4946C62.8776 63.9995 57.8283 67.2815 52.5266 69.8061C46.9725 72.3308 41.2921 73.4668 41.0396 72.8357C40.7872 72.2045 46.4676 70.3111 51.7693 68.0389C56.9447 65.6405 62.1202 62.9897 62.4989 63.4946Z" fill="#B3E4FF"/>
<path d="M72.5976 66.2718C72.9763 66.7767 67.0434 70.6899 60.4794 73.467C58.8384 74.0981 57.0712 74.7293 55.5564 75.2342C53.9154 75.7391 52.5268 75.9916 51.1383 76.244C49.876 76.4965 48.8661 76.749 47.9825 76.6227C47.2251 76.6227 46.7202 76.4965 46.7202 76.3703C46.7202 76.244 47.0989 75.9916 47.8563 75.7391C48.4874 75.6129 49.6235 75.108 50.8858 74.7293C52.1481 74.3506 53.6629 73.9719 55.1777 73.3407C56.6925 72.7096 58.2072 72.0784 59.8482 71.5735C66.0336 68.9226 72.2189 65.6406 72.5976 66.2718Z" fill="#B3E4FF"/>
<path d="M37.1265 50.8714C37.5052 51.3763 31.1936 55.7944 24.3772 58.9502C20.9689 60.465 17.3082 61.8535 14.5311 62.4846C11.754 63.1158 9.86058 63.242 9.73435 62.8633C9.60812 62.4847 11.5016 61.9797 14.0262 60.9699C16.6771 60.0863 20.0853 58.5715 23.4935 57.0567C30.31 54.0272 36.7478 50.2402 37.1265 50.8714Z" fill="#B3E4FF"/>
<path d="M150.862 91.8963C151.367 94.5471 148.59 96.693 145.434 98.2078C143.162 99.3439 140.511 99.975 138.744 100.354C136.976 100.732 134.326 100.985 131.801 100.732C128.266 100.48 124.984 99.4701 124.479 96.693C124.227 95.557 124.858 94.2947 125.237 93.0323C128.393 94.9258 134.452 94.6733 137.608 94.0422C140.763 93.411 146.57 91.5176 148.842 88.6143C149.726 89.7503 150.736 90.7602 150.862 91.8963Z" fill="#622C00"/>
<path d="M149.725 85.711C149.977 86.847 149.598 87.8569 148.841 88.7405C146.569 91.6438 140.762 93.5373 137.607 94.1684C134.451 94.7996 128.265 95.0521 125.236 93.1586C124.226 92.5274 123.595 91.77 123.342 90.634C123.09 89.4979 123.721 88.2356 124.1 86.9733C127.256 88.8667 133.315 88.6143 136.47 87.9831C139.626 87.352 145.433 85.4585 147.705 82.5552C148.589 83.565 149.598 84.5749 149.725 85.711Z" fill="#914100"/>
<path d="M148.589 79.6514C148.842 80.7875 148.463 81.7973 147.706 82.6809C145.434 85.5842 139.627 87.4777 136.471 88.1089C133.315 88.74 127.13 88.9925 124.1 87.099C123.091 86.4678 122.459 85.7105 122.207 84.5744C121.955 83.4383 122.586 82.176 122.964 80.9137C126.12 82.8072 132.179 82.5547 135.335 81.9235C138.491 81.2924 144.297 79.3989 146.57 76.4956C147.453 77.5055 148.463 78.3891 148.589 79.6514Z" fill="#622C00"/>
<path d="M147.453 73.4663C147.706 74.6024 147.327 75.6123 146.57 76.4959C144.298 79.3992 138.491 81.2926 135.335 81.9238C132.179 82.555 125.994 82.8074 122.965 80.914C121.955 80.2828 121.324 79.5254 121.071 78.3893C120.819 77.2533 121.45 75.9909 121.829 74.7286C124.984 76.6221 131.043 76.3696 134.199 75.7385C137.355 75.1073 143.162 73.2139 145.434 70.3105C146.317 71.3204 147.201 72.3302 147.453 73.4663Z" fill="#914100"/>
<path d="M145.434 98.208C145.56 100.859 145.055 103.762 139.627 104.772C134.199 105.782 132.685 103.257 131.801 100.733C134.326 100.859 136.976 100.733 138.744 100.354C140.511 100.101 143.162 99.3441 145.434 98.208Z" fill="#1E1919"/>
<path d="M158.687 27.3924C162.474 47.968 143.161 57.0567 145.433 70.3109C143.161 73.2142 137.354 75.1077 134.199 75.7389C131.043 76.37 124.857 76.6225 121.828 74.729C119.177 61.601 97.844 59.8338 94.057 39.3843C91.9111 28.0235 96.3292 5.04949 120.313 0.631402C144.297 -3.78668 156.668 16.0316 158.687 27.3924Z" fill="url(#paint0_linear)"/>
<path d="M127.926 51.3743L105.686 54.4786L105.033 49.7998L111.893 40.6115C113.919 37.8586 115.23 35.9673 115.826 34.9375C116.42 33.8933 116.821 32.9499 117.029 32.1074C117.236 31.265 117.28 30.4157 117.161 29.5598C116.983 28.2831 116.495 27.3824 115.697 26.8578C114.913 26.3312 113.934 26.1499 112.759 26.3139C111.526 26.486 110.368 26.936 109.287 27.6638C108.205 28.3916 107.106 29.3659 105.99 30.5866L101.729 26.7663C103.11 25.2129 104.277 24.0887 105.23 23.3936C106.183 22.6985 107.248 22.1209 108.427 21.6606C109.603 21.1858 110.945 20.8432 112.454 20.6326C114.442 20.3551 116.248 20.4728 117.872 20.9856C119.497 21.4984 120.821 22.3489 121.845 23.5371C122.868 24.7254 123.498 26.161 123.732 27.8439C123.937 29.3092 123.868 30.7238 123.526 32.0879C123.197 33.4355 122.582 34.8598 121.682 36.3609C120.797 37.86 119.165 40.0475 116.786 42.9236L113.232 47.3464L113.274 47.6511L127.137 45.7163L127.926 51.3743ZM150.993 31.937C151.769 37.4935 151.429 41.734 149.973 44.6586C148.533 47.5811 145.919 49.3067 142.132 49.8352C138.462 50.3475 135.498 49.356 133.242 46.8608C131 44.3635 129.504 40.4236 128.753 35.0412C127.969 29.4267 128.299 25.1654 129.742 22.2574C131.182 19.3348 133.789 17.6103 137.561 17.0838C141.231 16.5715 144.197 17.5775 146.457 20.1018C148.732 22.624 150.244 26.5691 150.993 31.937ZM135.434 34.1088C135.978 38.0114 136.703 40.7648 137.607 42.369C138.524 43.9568 139.78 44.6393 141.376 44.4165C142.943 44.1978 143.955 43.1839 144.412 41.3748C144.87 39.5657 144.829 36.7316 144.291 32.8725C143.746 28.9699 143 26.2195 142.052 24.6213C141.116 23.0066 139.873 22.3076 138.32 22.5243C136.739 22.745 135.727 23.7589 135.284 25.566C134.839 27.3586 134.889 30.2062 135.434 34.1088Z" fill="#FF012F"/>
<defs>
<linearGradient id="paint0_linear" x1="126.379" y1="0" x2="126.379" y2="76.2028" gradientUnits="userSpaceOnUse">
<stop stop-color="#F7E100"/>
<stop offset="1" stop-color="#FFAA2E"/>
</linearGradient>
</defs>
</svg>
