<svg width="256" height="105" viewBox="0 0 256 105" fill="none" xmlns="http://www.w3.org/2000/svg">
<path d="M247.595 19.1877C247.343 19.1877 246.964 19.3139 246.712 19.3139C252.897 21.8386 248.858 24.237 242.041 25.4993C240.653 25.7517 239.138 26.0042 237.623 26.1304C245.954 28.7813 241.662 31.4321 234.467 32.8207C232.826 33.0731 231.059 33.3256 229.292 33.4518C234.72 35.8502 230.68 38.1224 224.116 39.3847C223.106 39.5109 222.097 39.7634 221.087 39.8896C225.126 41.9093 222.223 43.929 217.047 45.1913C216.921 48.0946 211.241 49.8619 208.211 50.493C205.055 51.1242 200.637 50.9979 193.442 52.3865C181.703 54.5324 174.886 58.5718 169.584 63.1161C162.137 69.3014 158.476 74.7294 146.737 78.1376L145.601 71.826C176.527 61.7276 170.847 11.8663 200.385 6.43838C211.115 4.41868 238.507 9.08923 250.12 12.4975C259.209 15.0221 254.917 17.7992 247.595 19.1877Z" fill="white"/>
<path d="M237.622 26.0051C237.749 26.6363 231.058 27.5199 224.368 26.8887C217.678 26.2576 211.366 24.7428 211.493 24.1117C211.619 23.4805 218.183 24.3641 224.621 24.9953C231.058 25.5002 237.496 25.374 237.622 26.0051Z" fill="#B3E4FF"/>
<path d="M229.292 33.3259C229.419 33.9571 223.107 34.7145 217.048 34.2096C210.863 33.7046 204.93 32.1899 205.056 31.5587C205.182 30.9276 211.241 31.6849 217.3 32.1899C223.233 32.821 229.292 32.6948 229.292 33.3259Z" fill="#B3E4FF"/>
<path d="M221.086 39.7634C221.212 40.3946 215.28 41.4044 209.221 41.0257C203.288 40.647 197.481 39.3847 197.607 38.7536C197.733 38.1224 203.54 38.7536 209.347 39.1322C215.153 39.3847 220.96 39.006 221.086 39.7634Z" fill="#B3E4FF"/>
<path d="M217.047 44.9388C217.174 45.1912 215.533 45.9486 212.882 46.3273C211.62 46.5798 209.979 46.8322 208.338 46.9585C206.696 46.9585 204.929 47.0847 203.162 47.0847C195.967 46.8322 189.15 45.4437 189.277 44.8125C189.403 44.1814 196.346 44.9388 203.162 45.1912C204.929 45.1912 206.57 45.1912 208.211 45.1912C209.852 45.1912 211.367 44.9388 212.629 44.9388C215.154 44.8125 216.921 44.6863 217.047 44.9388Z" fill="#B3E4FF"/>
<path d="M246.712 19.3141C246.712 19.5666 244.945 20.1977 242.042 20.5764C239.265 20.9551 235.352 21.0813 231.565 20.8289C223.991 20.324 216.669 18.5567 216.796 17.7993C216.922 17.1682 224.369 18.3043 231.691 18.8092C235.352 19.0616 239.138 19.1879 241.916 19.0616C244.693 19.0616 246.586 18.9354 246.712 19.3141Z" fill="#B3E4FF"/>
<path d="M9.39747 63.1156C9.64993 63.1156 10.0286 62.9894 10.2811 62.9894C5.35808 67.5337 10.0286 68.2911 16.8451 67.0288C18.2336 66.7763 19.7484 66.3976 21.137 66.0189C14.3205 71.4469 19.2435 72.4567 26.4387 71.0682C28.0797 70.8157 29.8469 70.3108 31.4879 69.8059C27.3223 73.9715 31.8666 74.7289 38.4306 73.4666C39.4405 73.3403 40.4503 73.0879 41.4602 72.8354C38.4306 76.1174 41.8388 77.001 47.1406 76.2437C48.2766 78.8945 54.2095 78.642 57.239 78.0109C60.3948 77.3797 64.5604 75.7387 71.6294 74.4764C83.3689 72.3305 91.1952 73.719 97.7592 75.9912C106.974 79.147 112.276 82.8077 124.52 81.9241L123.384 75.6125C90.8165 77.1273 78.4459 28.6546 48.7816 34.0825C38.1782 36.1022 14.1943 50.2401 4.60069 57.5615C-2.97317 63.3681 1.94984 64.5042 9.39747 63.1156Z" fill="white"/>
<path d="M44.8691 54.9106C45.2478 55.4155 39.8199 59.2025 33.7608 62.1058C27.7017 65.0091 21.2639 66.5239 21.1377 65.8927C20.8852 65.2615 27.1968 63.1156 32.8772 60.2123C38.8101 57.4352 44.4904 54.2794 44.8691 54.9106Z" fill="#B3E4FF"/>
<path d="M53.5791 59.5815C53.9578 60.0864 48.7823 63.6209 43.2282 66.398C37.5478 69.175 31.6149 70.5636 31.3624 69.9324C31.11 69.3013 36.9166 67.1553 42.3445 64.6307C47.8987 61.8536 53.3266 58.9503 53.5791 59.5815Z" fill="#B3E4FF"/>
<path d="M63.046 63.4946C63.4247 63.9995 58.3755 67.2815 53.0738 69.8061C47.5196 72.3308 41.8392 73.4668 41.5867 72.8357C41.3343 72.2045 47.0147 70.3111 52.3164 68.0389C57.4918 65.6405 62.6673 62.9897 63.046 63.4946Z" fill="#B3E4FF"/>
<path d="M73.1445 66.2718C73.5231 66.7767 67.5903 70.6899 61.0263 73.467C59.3853 74.0981 57.618 74.7293 56.1033 75.2342C54.4623 75.7391 53.0737 75.9916 51.6852 76.244C50.4229 76.4965 49.413 76.749 48.5294 76.6227C47.772 76.6227 47.2671 76.4965 47.2671 76.3703C47.2671 76.244 47.6458 75.9916 48.4032 75.7391C49.0343 75.6129 50.1704 75.108 51.4327 74.7293C52.695 74.3506 54.2098 73.9719 55.7246 73.3407C57.2393 72.7096 58.7541 72.0784 60.3951 71.5735C66.5804 68.9226 72.7658 65.6406 73.1445 66.2718Z" fill="#B3E4FF"/>
<path d="M37.6735 50.8714C38.0522 51.3763 31.7406 55.7944 24.9241 58.9502C21.5159 60.465 17.8552 61.8535 15.0781 62.4846C12.301 63.1158 10.4076 63.242 10.2814 62.8633C10.1551 62.4847 12.0486 61.9797 14.5732 60.9699C17.2241 60.0863 20.6323 58.5715 24.0405 57.0567C30.857 54.0272 37.2948 50.2402 37.6735 50.8714Z" fill="#B3E4FF"/>
<path d="M151.409 91.8963C151.913 94.5471 149.136 96.693 145.981 98.2078C143.708 99.3439 141.058 99.975 139.29 100.354C137.523 100.732 134.872 100.985 132.348 100.732C128.813 100.48 125.531 99.4701 125.026 96.693C124.774 95.557 125.405 94.2947 125.784 93.0323C128.939 94.9258 134.998 94.6733 138.154 94.0422C141.31 93.411 147.117 91.5176 149.389 88.6143C150.272 89.7503 151.282 90.7602 151.409 91.8963Z" fill="#622C00"/>
<path d="M150.272 85.711C150.524 86.847 150.145 87.8569 149.388 88.7405C147.116 91.6438 141.309 93.5373 138.153 94.1684C134.998 94.7996 128.812 95.0521 125.783 93.1586C124.773 92.5274 124.142 91.77 123.889 90.634C123.637 89.4979 124.268 88.2356 124.647 86.9733C127.802 88.8667 133.862 88.6143 137.017 87.9831C140.173 87.352 145.98 85.4585 148.252 82.5552C149.135 83.565 150.145 84.5749 150.272 85.711Z" fill="#914100"/>
<path d="M149.136 79.6514C149.389 80.7875 149.01 81.7973 148.252 82.6809C145.98 85.5842 140.174 87.4777 137.018 88.1089C133.862 88.74 127.677 88.9925 124.647 87.099C123.637 86.4678 123.006 85.7105 122.754 84.5744C122.501 83.4383 123.132 82.176 123.511 80.9137C126.667 82.8072 132.726 82.5547 135.882 81.9235C139.038 81.2924 144.844 79.3989 147.116 76.4956C148 77.5055 149.01 78.3891 149.136 79.6514Z" fill="#622C00"/>
<path d="M148 73.4663C148.253 74.6024 147.874 75.6123 147.117 76.4959C144.845 79.3992 139.038 81.2926 135.882 81.9238C132.726 82.555 126.541 82.8074 123.511 80.914C122.502 80.2828 121.87 79.5254 121.618 78.3893C121.366 77.2533 121.997 75.9909 122.375 74.7286C125.531 76.6221 131.59 76.3696 134.746 75.7385C137.902 75.1073 143.708 73.2139 145.981 70.3105C146.864 71.3204 147.748 72.3302 148 73.4663Z" fill="#914100"/>
<path d="M145.981 98.208C146.107 100.859 145.602 103.762 140.174 104.772C134.746 105.782 133.232 103.257 132.348 100.733C134.873 100.859 137.523 100.733 139.291 100.354C141.058 100.101 143.709 99.3441 145.981 98.208Z" fill="#1E1919"/>
<path d="M159.234 27.3924C163.021 47.968 143.708 57.0567 145.98 70.3109C143.708 73.2142 137.901 75.1077 134.745 75.7389C131.59 76.37 125.404 76.6225 122.375 74.729C119.724 61.601 98.3909 59.8338 94.6039 39.3843C92.458 28.0235 96.8761 5.04949 120.86 0.631402C144.844 -3.78668 157.215 16.0316 159.234 27.3924Z" fill="url(#paint0_linear)"/>
<path d="M120.859 52.158L114.134 53.0965L111.565 34.6861L111.208 31.6521L110.855 28.3292C109.894 29.6022 109.22 30.4432 108.833 30.8521L105.587 34.3002L101.78 30.7051L110.891 21.1139L116.418 20.3424L120.859 52.158ZM138.434 28.9834C141.51 28.5541 144.075 29.0761 146.129 30.5494C148.198 32.0207 149.442 34.2579 149.862 37.261C150.358 40.8154 149.644 43.703 147.721 45.9238C145.797 48.1446 142.797 49.5395 138.721 50.1086C135.181 50.6027 132.243 50.4285 129.907 49.5861L129.096 43.7758C130.327 44.2251 131.731 44.5393 133.309 44.7184C134.885 44.883 136.355 44.8701 137.719 44.6798C141.825 44.1067 143.642 42.1373 143.173 38.7715C142.725 35.5652 140.376 34.2588 136.125 34.8521C135.356 34.9594 134.519 35.1577 133.613 35.4469C132.704 35.7215 131.972 35.9864 131.416 36.2415L128.539 35.1789L127.473 18.7993L144.73 16.3906L145.526 22.0922L134.166 23.6777L134.45 30.0054L135.191 29.7467C136.047 29.4201 137.129 29.1657 138.434 28.9834Z" fill="#FF012F"/>
<defs>
<linearGradient id="paint0_linear" x1="126.926" y1="0" x2="126.926" y2="76.2028" gradientUnits="userSpaceOnUse">
<stop stop-color="#F7E100"/>
<stop offset="1" stop-color="#FFAA2E"/>
</linearGradient>
</defs>
</svg>
