<svg width="247" height="247" viewBox="0 0 247 247" fill="none" xmlns="http://www.w3.org/2000/svg">
<circle cx="123.5" cy="123.5" r="123.5" fill="url(#paint0_linear)"/>
<path d="M155.145 154.54L117.556 167.886C118.561 170.347 119.316 172.291 119.944 174.105C120.824 176.307 121.453 178.251 122.459 180.454C128.619 194.447 136.79 202.091 145.591 202.091C146.596 202.091 147.602 201.962 148.608 201.832C159.545 199.759 162.814 191.208 163.694 184.6C164.448 177.862 160.425 167.756 156.277 157.132L155.145 154.54ZM124.093 172.68C123.967 172.68 123.842 172.68 123.59 172.68C122.71 172.68 121.956 172.032 121.704 171.125C121.579 170.606 121.704 170.088 121.956 169.7C122.207 169.311 122.584 168.922 123.087 168.793C124.093 168.533 125.099 169.181 125.35 170.218C125.727 171.384 125.099 172.42 124.093 172.68ZM131.887 188.875C131.762 188.875 131.636 188.875 131.385 188.875C130.505 188.875 129.75 188.228 129.499 187.321C129.247 186.284 129.876 185.247 130.882 184.988C131.887 184.729 132.893 185.377 133.145 186.414C133.522 187.58 132.893 188.616 131.887 188.875ZM151.248 198.204C151.122 198.204 150.996 198.204 150.745 198.204C149.865 198.204 149.111 197.556 148.859 196.649C148.734 196.131 148.859 195.613 149.111 195.224C149.362 194.835 149.739 194.447 150.242 194.317C151.248 194.058 152.254 194.706 152.505 195.742C152.882 196.908 152.254 197.945 151.248 198.204ZM154.139 161.537C153.888 161.926 153.511 162.314 153.008 162.444C152.882 162.444 152.757 162.444 152.505 162.444C151.625 162.444 150.871 161.796 150.619 160.889C150.368 159.852 150.996 158.816 152.002 158.557C153.008 158.298 154.014 158.946 154.265 159.982C154.391 160.5 154.391 161.019 154.139 161.537ZM157.66 174.623C158.665 174.364 159.671 175.012 159.922 176.048C160.048 176.567 159.922 177.085 159.671 177.474C159.42 177.862 159.042 178.251 158.54 178.38C158.414 178.38 158.288 178.38 158.037 178.38C157.157 178.38 156.402 177.733 156.151 176.826C156.025 175.919 156.654 174.882 157.66 174.623Z" fill="#341212"/>
<path d="M148.855 114.962C150.128 106.879 151.655 97.6414 149.492 87.3772C144.147 61.5885 131.55 44.9092 117.299 44.9092C114.754 44.9092 112.21 45.4224 109.665 46.4488C90.451 53.8903 83.5799 76.9848 92.1052 105.083C94.3955 112.396 98.7218 123.174 103.43 134.592C105.338 139.083 107.12 143.574 108.901 147.936L148.092 135.747C146.565 129.075 147.71 122.275 148.855 114.962ZM92.8686 81.6036C91.9779 81.6036 91.2145 80.9621 90.96 80.064C90.8327 79.5508 90.96 79.0376 91.2145 78.6527C91.4689 78.2678 91.8507 77.8829 92.3596 77.7546C93.3776 77.498 94.3955 78.1395 94.65 79.1659C94.7773 79.6791 94.65 80.1923 94.3955 80.5772C94.141 80.9621 93.7593 81.347 93.2503 81.4753C93.1231 81.4753 92.9959 81.6036 92.8686 81.6036ZM97.4494 102.132C97.1949 102.517 96.8131 102.902 96.3042 103.03C96.1769 103.03 96.0497 103.03 95.7952 103.03C94.9045 103.03 94.141 102.389 93.8866 101.49C93.7593 100.977 93.8866 100.464 94.141 100.079C94.3955 99.6943 94.7773 99.3093 95.2862 99.181C96.3042 98.9244 97.3221 99.566 97.5766 100.592C97.8311 101.106 97.7038 101.619 97.4494 102.132ZM100.376 60.4338C99.4852 60.4338 98.7218 59.7922 98.4673 58.8941C98.3401 58.3809 98.4673 57.8677 98.7218 57.4828C98.9763 57.0979 99.358 56.713 99.867 56.5847C100.885 56.3281 101.903 56.9696 102.157 57.996C102.285 58.5092 102.157 59.0224 101.903 59.4073C101.648 59.7922 101.267 60.1772 100.758 60.3055C100.63 60.4338 100.503 60.4338 100.376 60.4338ZM103.684 123.558C103.557 123.558 103.43 123.558 103.175 123.558C102.285 123.558 101.521 122.917 101.267 122.019C101.139 121.506 101.267 120.992 101.521 120.608C101.776 120.223 102.157 119.838 102.666 119.709C103.684 119.453 104.702 120.094 104.957 121.121C105.338 122.275 104.702 123.302 103.684 123.558ZM112.082 143.83C111.955 143.83 111.828 143.83 111.573 143.83C110.683 143.83 109.919 143.189 109.665 142.291C109.537 141.777 109.665 141.264 109.919 140.879C110.174 140.494 110.555 140.109 111.064 139.981C112.082 139.725 113.1 140.366 113.355 141.392C113.736 142.547 113.227 143.574 112.082 143.83ZM121.88 52.2224C121.753 52.2224 121.625 52.2224 121.371 52.2224C120.48 52.2224 119.717 51.5809 119.462 50.6828C119.208 49.6564 119.844 48.6299 120.862 48.3733C121.88 48.1167 122.898 48.7582 123.152 49.7847C123.534 50.9394 122.898 51.9658 121.88 52.2224ZM138.931 67.1055C138.676 67.4904 138.294 67.8753 137.785 68.0036C137.658 68.0036 137.531 68.0036 137.276 68.0036C136.386 68.0036 135.622 67.3621 135.368 66.464C135.24 65.9508 135.368 65.4375 135.622 65.0526C135.877 64.6677 136.258 64.2828 136.767 64.1545C137.785 63.8979 138.803 64.5394 139.058 65.5658C139.185 66.2074 139.185 66.7206 138.931 67.1055ZM143.257 134.208C143.13 134.208 143.002 134.208 142.748 134.208C141.857 134.208 141.094 133.566 140.839 132.668C140.712 132.155 140.839 131.642 141.094 131.257C141.348 130.872 141.73 130.487 142.239 130.358C143.257 130.102 144.275 130.743 144.529 131.77C144.911 132.925 144.275 133.951 143.257 134.208ZM145.165 113.166C145.038 113.166 144.911 113.166 144.656 113.166C143.766 113.166 143.002 112.524 142.748 111.626C142.621 111.113 142.748 110.6 143.002 110.215C143.257 109.83 143.638 109.445 144.147 109.317C145.165 109.06 146.183 109.702 146.438 110.728C146.947 111.755 146.311 112.909 145.165 113.166ZM145.42 89.815C145.293 89.815 145.165 89.815 144.911 89.815C144.02 89.815 143.257 89.1735 143.002 88.2754C142.748 87.2489 143.384 86.2225 144.402 85.9659C145.42 85.7093 146.438 86.3508 146.692 87.3772C147.074 88.4036 146.438 89.5584 145.42 89.815Z" fill="#341212"/>
<path d="M138.148 146.615C137.768 146.615 137.514 146.615 137.134 146.75L126.364 150.537C125.604 150.808 124.843 151.484 124.463 152.296C124.083 153.107 124.083 154.054 124.337 154.866C124.843 156.624 126.744 157.571 128.391 157.03L139.161 153.243C140.809 152.702 141.696 150.673 141.189 148.914C140.682 147.562 139.415 146.615 138.148 146.615Z" fill="#341212"/>
<path d="M68.0234 146.219L36.1394 155.695" stroke="#341212" stroke-width="10" stroke-miterlimit="10"/>
<path d="M69.4062 97.3449L41.3235 97.2612" stroke="#341212" stroke-width="10" stroke-miterlimit="10"/>
<path d="M93.4332 182.362L72.527 210.724" stroke="#341212" stroke-width="10" stroke-miterlimit="10"/>
<path d="M172.654 144H165.11V123.346L165.184 119.952L165.306 116.241C164.052 117.494 163.182 118.316 162.693 118.707L158.592 122.003L154.954 117.462L166.453 108.307H172.654V144ZM213.768 144H205.174L195.823 128.961L192.625 131.256V144H185.057V108.307H192.625V124.64L195.604 120.44L205.271 108.307H213.67L201.219 124.103L213.768 144Z" fill="#380000"/>
<defs>
<linearGradient id="paint0_linear" x1="123.5" y1="0" x2="123.5" y2="247" gradientUnits="userSpaceOnUse">
<stop stop-color="#FFC700"/>
<stop offset="1" stop-color="#FF4070"/>
</linearGradient>
</defs>
</svg>
