<svg width="187" height="187" viewBox="0 0 187 187" fill="none" xmlns="http://www.w3.org/2000/svg">
<circle cx="93.5" cy="93.5" r="93.5" fill="url(#paint0_linear)"/>
<path d="M117.458 117L89 127.104C89.7614 128.967 90.3325 130.439 90.8084 131.812C91.4746 133.48 91.9505 134.951 92.712 136.619C97.3757 147.213 103.562 153 110.225 153C110.986 153 111.748 152.902 112.509 152.804C120.79 151.234 123.264 144.76 123.931 139.757C124.502 134.657 121.456 127.005 118.315 118.962L117.458 117ZM93.9493 130.733C93.8541 130.733 93.7589 130.733 93.5686 130.733C92.9023 130.733 92.3313 130.243 92.1409 129.556C92.0457 129.163 92.1409 128.771 92.3312 128.477C92.5216 128.183 92.8071 127.888 93.1879 127.79C93.9493 127.594 94.7107 128.084 94.9011 128.869C95.1866 129.752 94.7107 130.537 93.9493 130.733ZM99.8504 142.995C99.7552 142.995 99.66 142.995 99.4696 142.995C98.8034 142.995 98.2323 142.504 98.042 141.817C97.8516 141.033 98.3275 140.248 99.0889 140.052C99.8504 139.856 100.612 140.346 100.802 141.131C101.088 142.014 100.612 142.798 99.8504 142.995ZM114.508 150.057C114.413 150.057 114.318 150.057 114.127 150.057C113.461 150.057 112.89 149.567 112.699 148.88C112.604 148.488 112.699 148.095 112.89 147.801C113.08 147.507 113.366 147.213 113.746 147.114C114.508 146.918 115.269 147.409 115.46 148.193C115.745 149.076 115.269 149.861 114.508 150.057ZM116.697 122.297C116.507 122.591 116.221 122.886 115.84 122.984C115.745 122.984 115.65 122.984 115.46 122.984C114.793 122.984 114.222 122.493 114.032 121.807C113.842 121.022 114.318 120.237 115.079 120.041C115.84 119.845 116.602 120.335 116.792 121.12C116.887 121.512 116.887 121.905 116.697 122.297ZM119.362 132.204C120.123 132.008 120.885 132.499 121.075 133.283C121.17 133.676 121.075 134.068 120.885 134.362C120.694 134.657 120.409 134.951 120.028 135.049C119.933 135.049 119.838 135.049 119.647 135.049C118.981 135.049 118.41 134.559 118.22 133.872C118.125 133.185 118.601 132.401 119.362 132.204Z" fill="#341212"/>
<path d="M112.696 87.0361C113.66 80.9166 114.816 73.9228 113.178 66.1519C109.132 46.6276 99.5951 34 88.8057 34C86.879 34 84.9523 34.3885 83.0257 35.1656C68.4793 40.7995 63.2773 58.2839 69.7316 79.5567C71.4656 85.0934 74.741 93.2528 78.3053 101.898C79.7503 105.298 81.099 108.697 82.4477 112L112.118 102.772C110.962 97.721 111.829 92.5728 112.696 87.0361ZM70.3096 61.7808C69.6353 61.7808 69.0573 61.2951 68.8646 60.6152C68.7683 60.2267 68.8646 59.8381 69.0573 59.5467C69.25 59.2553 69.539 58.9639 69.9243 58.8667C70.695 58.6725 71.4656 59.1582 71.6583 59.9352C71.7546 60.3238 71.6583 60.7123 71.4656 61.0037C71.273 61.2951 70.984 61.5865 70.5986 61.6837C70.5023 61.6837 70.406 61.7808 70.3096 61.7808ZM73.7776 77.3225C73.585 77.6139 73.296 77.9054 72.9106 78.0025C72.8143 78.0025 72.718 78.0025 72.5253 78.0025C71.851 78.0025 71.273 77.5168 71.0803 76.8369C70.984 76.4483 71.0803 76.0598 71.273 75.7684C71.4656 75.477 71.7546 75.1856 72.14 75.0884C72.9106 74.8941 73.6813 75.3798 73.874 76.1569C74.0666 76.5455 73.9703 76.934 73.7776 77.3225ZM75.9933 45.7534C75.319 45.7534 74.741 45.2677 74.5483 44.5878C74.452 44.1993 74.5483 43.8107 74.741 43.5193C74.9336 43.2279 75.2226 42.9365 75.608 42.8394C76.3786 42.6451 77.1493 43.1308 77.342 43.9078C77.4383 44.2964 77.342 44.6849 77.1493 44.9763C76.9566 45.2677 76.6677 45.5592 76.2823 45.6563C76.186 45.7534 76.0896 45.7534 75.9933 45.7534ZM78.498 93.5442C78.4017 93.5442 78.3053 93.5442 78.1127 93.5442C77.4383 93.5442 76.8603 93.0585 76.6676 92.3786C76.5713 91.99 76.6676 91.6015 76.8603 91.3101C77.053 91.0187 77.342 90.7273 77.7273 90.6301C78.498 90.4359 79.2687 90.9215 79.4613 91.6986C79.7503 92.5728 79.2687 93.3499 78.498 93.5442ZM84.856 108.892C84.7597 108.892 84.6633 108.892 84.4707 108.892C83.7963 108.892 83.2183 108.406 83.0257 107.726C82.9293 107.337 83.0257 106.949 83.2183 106.658C83.411 106.366 83.7 106.075 84.0853 105.978C84.856 105.783 85.6267 106.269 85.8193 107.046C86.1083 107.92 85.723 108.697 84.856 108.892ZM92.2737 39.5367C92.1774 39.5367 92.081 39.5367 91.8884 39.5367C91.214 39.5367 90.636 39.0511 90.4434 38.3711C90.2507 37.594 90.7324 36.8169 91.503 36.6227C92.2737 36.4284 93.0444 36.9141 93.237 37.6912C93.526 38.5654 93.0444 39.3425 92.2737 39.5367ZM105.182 50.8045C104.99 51.0959 104.701 51.3873 104.315 51.4844C104.219 51.4844 104.123 51.4844 103.93 51.4844C103.256 51.4844 102.678 50.9988 102.485 50.3188C102.389 49.9303 102.485 49.5417 102.678 49.2503C102.87 48.9589 103.159 48.6675 103.545 48.5704C104.315 48.3761 105.086 48.8618 105.279 49.6389C105.375 50.1245 105.375 50.5131 105.182 50.8045ZM108.458 101.606C108.361 101.606 108.265 101.606 108.072 101.606C107.398 101.606 106.82 101.121 106.627 100.441C106.531 100.052 106.627 99.6638 106.82 99.3724C107.013 99.0809 107.302 98.7895 107.687 98.6924C108.458 98.4981 109.228 98.9838 109.421 99.7609C109.71 100.635 109.228 101.412 108.458 101.606ZM109.903 85.6762C109.806 85.6762 109.71 85.6762 109.517 85.6762C108.843 85.6762 108.265 85.1905 108.072 84.5106C107.976 84.122 108.072 83.7335 108.265 83.4421C108.458 83.1507 108.747 82.8593 109.132 82.7621C109.903 82.5679 110.673 83.0536 110.866 83.8306C111.251 84.6077 110.77 85.4819 109.903 85.6762ZM110.095 67.9975C109.999 67.9975 109.903 67.9975 109.71 67.9975C109.036 67.9975 108.458 67.5118 108.265 66.8319C108.072 66.0548 108.554 65.2777 109.325 65.0834C110.095 64.8892 110.866 65.3748 111.059 66.1519C111.348 66.929 110.866 67.8032 110.095 67.9975Z" fill="#341212"/>
<path d="M104.59 111C104.302 111 104.11 111 103.823 111.102L95.6686 113.97C95.093 114.174 94.5174 114.686 94.2296 115.301C93.9419 115.915 93.9419 116.632 94.1337 117.247C94.5174 118.578 95.9564 119.295 97.2034 118.885L105.357 116.018C106.604 115.608 107.276 114.072 106.892 112.741C106.509 111.717 105.549 111 104.59 111Z" fill="#341212"/>
<path d="M51.4995 110.7L27.3606 117.875" stroke="#341212" stroke-width="10" stroke-miterlimit="10"/>
<path d="M52.5466 73.6983L31.2854 73.635" stroke="#341212" stroke-width="10" stroke-miterlimit="10"/>
<path d="M70.7366 138.064L54.9087 159.537" stroke="#341212" stroke-width="10" stroke-miterlimit="10"/>
<path d="M138.99 81.1973C142.441 81.1973 145.183 82.1657 147.218 84.1025C149.269 86.0394 150.294 88.6924 150.294 92.0615C150.294 96.0492 149.065 99.1172 146.607 101.266C144.15 103.414 140.634 104.488 136.061 104.488C132.089 104.488 128.883 103.845 126.441 102.56V96.041C127.727 96.7246 129.225 97.2861 130.934 97.7256C132.643 98.1488 134.262 98.3604 135.792 98.3604C140.398 98.3604 142.701 96.4723 142.701 92.6963C142.701 89.0993 140.317 87.3008 135.548 87.3008C134.685 87.3008 133.733 87.3903 132.691 87.5693C131.65 87.7321 130.803 87.9111 130.152 88.1064L127.149 86.4951L128.492 68.3066H147.853V74.7031H135.108L134.449 81.71L135.304 81.5391C136.297 81.3112 137.525 81.1973 138.99 81.1973Z" fill="#380000"/>
<defs>
<linearGradient id="paint0_linear" x1="93.5" y1="0" x2="93.5" y2="187" gradientUnits="userSpaceOnUse">
<stop stop-color="#FFC700"/>
<stop offset="1" stop-color="#FF4070"/>
</linearGradient>
</defs>
</svg>
