<svg width="188" height="182" viewBox="0 0 188 182" fill="none" xmlns="http://www.w3.org/2000/svg">
<path d="M175.644 156.832L29.6835 181.789C21.6493 183.162 13.9501 177.713 12.5711 169.673C12.5711 169.673 -1.72183 21.8809 11.3093 19.6476C11.3093 19.6476 164.623 4.41113 166.851 17.4423L187.754 139.719C189.133 147.759 183.679 155.458 175.644 156.832Z" fill="#C8C8C8"/>
<path d="M167.37 162.074L19.9635 176.188C11.8455 176.964 4.57064 170.962 3.79458 162.844C3.79458 162.844 0.450266 14.3988 13.6098 13.137C13.6098 13.137 167.627 9.25671 168.889 22.4162L180.714 145.905C181.49 154.017 175.488 161.298 167.37 162.074Z" fill="#EDEDED"/>
<path d="M15.3743 156.781L148.684 176.189C156.802 176.965 164.076 170.963 164.853 162.845C164.853 162.845 168.197 14.3995 155.037 13.1377C155.037 13.1377 23.1907 9.77101 21.9289 22.9305L8.08266 135.644C7.3066 143.762 7.25635 156 15.3743 156.781Z" fill="#EDEDED"/>
<path d="M162.977 166.037H14.8941C6.74269 166.037 0.0708008 159.366 0.0708008 151.214V29.6796C0.0708008 16.4586 10.8854 5.64404 24.1064 5.64404H153.759C166.98 5.64404 177.794 16.4586 177.794 29.6796V151.214C177.8 159.371 171.128 166.037 162.977 166.037Z" fill="white"/>
<path d="M177.8 47.3336H0.0708008V29.6796C0.0708008 16.4586 10.8854 5.64404 24.1064 5.64404H153.759C166.98 5.64404 177.794 16.4586 177.794 29.6796V47.3336H177.8Z" fill="url(#paint0_linear)"/>
<path d="M28.9919 17.7707C27.0043 17.7707 25.374 16.146 25.374 14.1528V5.64404H32.6042V14.1584C32.6098 16.146 30.9851 17.7707 28.9919 17.7707Z" fill="#BF3A37"/>
<path d="M71.7754 17.7707C69.7878 17.7707 68.1575 16.146 68.1575 14.1528V5.64404H75.3877V14.1584C75.3933 16.146 73.763 17.7707 71.7754 17.7707Z" fill="#BF3A37"/>
<path d="M111.791 17.7707C109.803 17.7707 108.173 16.146 108.173 14.1528V5.64404H115.403V14.1584C115.408 16.146 113.778 17.7707 111.791 17.7707Z" fill="#BF3A37"/>
<path d="M152.09 17.7713C150.102 17.7713 148.472 16.1466 148.472 14.1534C148.472 14.1534 148.472 6.26442 148.472 5.6391C148.472 5.06962 155.702 5.71727 155.702 5.71727V14.1534C155.702 16.1466 154.077 17.7713 152.09 17.7713Z" fill="#BF3A37"/>
<path d="M70.3515 16.5541C68.3639 16.5541 66.7336 14.9294 66.7336 12.9362V3.61789C66.7336 1.63029 68.3583 0 70.3515 0C72.3391 0 73.9694 1.6247 73.9694 3.61789V12.9362C73.9639 14.9294 72.3391 16.5541 70.3515 16.5541Z" fill="#EBEBEB"/>
<path d="M110.567 16.5541C108.58 16.5541 106.949 14.9294 106.949 12.9362V3.61789C106.949 1.63029 108.574 0 110.567 0C112.555 0 114.185 1.6247 114.185 3.61789V12.9362C114.18 14.9294 112.555 16.5541 110.567 16.5541Z" fill="#EBEBEB"/>
<path d="M150.783 16.5541C148.795 16.5541 147.165 14.9294 147.165 12.9362V3.61789C147.165 1.63029 148.79 0 150.783 0C152.771 0 154.401 1.6247 154.401 3.61789V12.9362C154.395 14.9294 152.771 16.5541 150.783 16.5541Z" fill="#EBEBEB"/>
<path d="M162.803 121.384L120.762 165.586C120.762 165.586 122.353 157.803 122.364 152.912C122.37 149.808 121.739 147.095 121.521 142.634C120.924 130.122 128.171 126.934 131.588 125.08C136.836 122.239 145.44 124.343 150.626 124.003C152.826 123.869 161.173 123.5 162.803 121.384Z" fill="#BABABA"/>
<path d="M42.1178 70.6606H18.4116V86.0311H42.1178V70.6606Z" fill="#EBEBEB"/>
<path d="M42.1178 98.0127H18.4116V113.383H42.1178V98.0127Z" fill="#EBEBEB"/>
<path d="M79.849 98.0127H56.1428V113.383H79.849V98.0127Z" fill="#EBEBEB"/>
<path d="M117.575 98.0127H93.8687V113.383H117.575V98.0127Z" fill="#EBEBEB"/>
<path d="M154.574 98.0127H130.868V113.383H154.574V98.0127Z" fill="#EBEBEB"/>
<path d="M42.1178 125.37H18.4116V140.741H42.1178V125.37Z" fill="#EBEBEB"/>
<path d="M79.849 125.37H56.1428V140.741H79.849V125.37Z" fill="#EBEBEB"/>
<path d="M117.575 125.37H93.8687V140.741H117.575V125.37Z" fill="#EBEBEB"/>
<path d="M79.849 70.6606H56.1428V86.0311H79.849V70.6606Z" fill="#EBEBEB"/>
<path d="M117.575 70.6606H93.8687V86.0311H117.575V70.6606Z" fill="#EBEBEB"/>
<path d="M155.299 70.6606H131.593V86.0311H155.299V70.6606Z" fill="#EBEBEB"/>
<path d="M27.5566 16.5541C25.569 16.5541 23.9387 14.9294 23.9387 12.9362V3.61789C23.9387 1.63029 25.5634 0 27.5566 0C29.5442 0 31.1745 1.6247 31.1745 3.61789V12.9362C31.1745 14.9294 29.5498 16.5541 27.5566 16.5541Z" fill="#EBEBEB"/>
<path d="M60.7446 129H47.0386V102.545C47.0386 99.332 47.1069 96.3926 47.2437 93.7266C46.4006 94.752 45.3524 95.8229 44.0991 96.9395L38.4253 101.622L31.4185 93.0088L48.5767 79.0293H60.7446V129ZM88.7583 96.2559C91.6294 96.2559 94.2157 96.9281 96.5171 98.2725C98.8413 99.5941 100.641 101.474 101.917 103.912C103.216 106.35 103.866 109.164 103.866 112.354C103.866 117.937 102.18 122.221 98.8071 125.206C95.4575 128.191 90.3761 129.684 83.563 129.684C77.7297 129.684 72.9673 128.784 69.2759 126.983V115.909C71.2583 116.821 73.4914 117.573 75.9751 118.165C78.4816 118.757 80.6349 119.054 82.4351 119.054C84.9416 119.054 86.867 118.53 88.2114 117.481C89.5558 116.41 90.228 114.838 90.228 112.765C90.228 110.851 89.5444 109.358 88.1772 108.287C86.8101 107.216 84.7365 106.681 81.9565 106.681C79.8374 106.681 77.5474 107.079 75.0864 107.877L70.1304 105.416L72.0103 79.0293H100.516V90.2744H83.4946L82.8794 96.8711C84.6567 96.5293 85.9214 96.347 86.6733 96.3242C87.4253 96.2786 88.1203 96.2559 88.7583 96.2559ZM142.133 104.083C142.133 112.924 140.652 119.407 137.69 123.531C134.728 127.633 130.193 129.684 124.086 129.684C118.116 129.684 113.616 127.542 110.585 123.258C107.555 118.951 106.04 112.56 106.04 104.083C106.04 95.1963 107.521 88.6794 110.483 84.5322C113.445 80.3851 117.98 78.3115 124.086 78.3115C130.034 78.3115 134.523 80.4762 137.553 84.8057C140.607 89.1123 142.133 95.5381 142.133 104.083ZM119.472 104.083C119.472 109.734 119.825 113.619 120.532 115.738C121.238 117.857 122.423 118.917 124.086 118.917C125.773 118.917 126.958 117.823 127.641 115.636C128.347 113.448 128.701 109.597 128.701 104.083C128.701 98.5459 128.347 94.6722 127.641 92.4619C126.935 90.2288 125.75 89.1123 124.086 89.1123C122.423 89.1123 121.238 90.1833 120.532 92.3252C119.825 94.4671 119.472 98.3864 119.472 104.083Z" fill="url(#paint1_linear)"/>
<path d="M46.6572 43H41.4497V27.9839H36.7432V23.7256H51.3506V27.9839H46.6572V43ZM70.7911 33.3364C70.7911 36.5796 69.9957 39.0449 68.4049 40.7324C66.8141 42.4199 64.485 43.2637 61.4176 43.2637C58.3941 43.2637 56.0738 42.4155 54.4566 40.7192C52.8482 39.0229 52.044 36.5532 52.044 33.3101C52.044 30.1021 52.8438 27.6543 54.4435 25.9668C56.0519 24.2705 58.3854 23.4224 61.4439 23.4224C64.5113 23.4224 66.836 24.2617 68.4181 25.9404C70.0001 27.6191 70.7911 30.0845 70.7911 33.3364ZM57.5284 33.3364C57.5284 37.063 58.8248 38.9263 61.4176 38.9263C62.7359 38.9263 63.7115 38.4736 64.3443 37.5684C64.9859 36.6631 65.3067 35.2524 65.3067 33.3364C65.3067 31.4116 64.9815 29.9922 64.3312 29.0781C63.6896 28.1553 62.7271 27.6938 61.4439 27.6938C58.8336 27.6938 57.5284 29.5747 57.5284 33.3364ZM86.9094 29.856C86.9094 32.0093 86.2722 33.6748 84.9978 34.8525C83.7321 36.0215 81.9304 36.606 79.5925 36.606H78.1291V43H72.9216V23.7256H79.5925C82.0271 23.7256 83.8552 24.2573 85.0769 25.3208C86.2985 26.3843 86.9094 27.896 86.9094 29.856ZM78.1291 32.3608H79.0783C79.8605 32.3608 80.4802 32.1411 80.9372 31.7017C81.403 31.2622 81.6359 30.6558 81.6359 29.8823C81.6359 28.5815 80.9152 27.9312 79.4738 27.9312H78.1291V32.3608ZM104.631 43H99.3441V32.7959C99.3441 31.5566 99.3705 30.4229 99.4232 29.3945C99.098 29.79 98.6937 30.2031 98.2104 30.6338L96.0219 32.4399L93.3192 29.1177L99.9374 23.7256H104.631V43ZM121.553 33.3892C121.553 36.7993 120.982 39.2998 119.839 40.8906C118.697 42.4727 116.948 43.2637 114.592 43.2637C112.29 43.2637 110.554 42.4375 109.385 40.7852C108.216 39.124 107.631 36.6587 107.631 33.3892C107.631 29.9614 108.203 27.4478 109.345 25.8481C110.488 24.2485 112.237 23.4487 114.592 23.4487C116.886 23.4487 118.618 24.2837 119.787 25.9536C120.964 27.6147 121.553 30.0933 121.553 33.3892ZM112.812 33.3892C112.812 35.5688 112.949 37.0674 113.221 37.8848C113.494 38.7021 113.951 39.1108 114.592 39.1108C115.243 39.1108 115.7 38.689 115.963 37.8452C116.236 37.0015 116.372 35.5161 116.372 33.3892C116.372 31.2534 116.236 29.7593 115.963 28.9067C115.691 28.0454 115.234 27.6147 114.592 27.6147C113.951 27.6147 113.494 28.0278 113.221 28.854C112.949 29.6802 112.812 31.1919 112.812 33.3892ZM136.024 33.3892C136.024 36.7993 135.452 39.2998 134.31 40.8906C133.167 42.4727 131.418 43.2637 129.063 43.2637C126.76 43.2637 125.024 42.4375 123.855 40.7852C122.686 39.124 122.102 36.6587 122.102 33.3892C122.102 29.9614 122.673 27.4478 123.816 25.8481C124.958 24.2485 126.707 23.4487 129.063 23.4487C131.357 23.4487 133.088 24.2837 134.257 25.9536C135.435 27.6147 136.024 30.0933 136.024 33.3892ZM127.283 33.3892C127.283 35.5688 127.419 37.0674 127.692 37.8848C127.964 38.7021 128.421 39.1108 129.063 39.1108C129.713 39.1108 130.17 38.689 130.434 37.8452C130.706 37.0015 130.842 35.5161 130.842 33.3892C130.842 31.2534 130.706 29.7593 130.434 28.9067C130.161 28.0454 129.704 27.6147 129.063 27.6147C128.421 27.6147 127.964 28.0278 127.692 28.854C127.419 29.6802 127.283 31.1919 127.283 33.3892Z" fill="#EEEBE8"/>
<path d="M176.733 118.604L120.767 165.592C120.767 165.592 123.548 156.659 124.1 150.931C124.446 147.29 123.972 144.047 124.195 138.798C124.832 124.07 133.994 121.167 138.36 119.386C145.054 116.656 155.293 120.1 161.641 120.296C164.321 120.374 174.511 120.899 176.733 118.604Z" fill="#E7E6E6"/>
<defs>
<linearGradient id="paint0_linear" x1="88.9354" y1="5.64404" x2="88.9354" y2="47.3336" gradientUnits="userSpaceOnUse">
<stop stop-color="#FF1D1D"/>
<stop offset="1" stop-color="#FF4172"/>
</linearGradient>
<linearGradient id="paint1_linear" x1="86.5708" y1="54" x2="86.5708" y2="149" gradientUnits="userSpaceOnUse">
<stop stop-color="#FFC700"/>
<stop offset="1" stop-color="#FF4070"/>
</linearGradient>
</defs>
</svg>
