<svg width="189" height="182" viewBox="0 0 189 182" fill="none" xmlns="http://www.w3.org/2000/svg">
<path d="M176.264 156.832L30.3031 181.789C22.269 183.162 14.5698 177.713 13.1907 169.673C13.1907 169.673 -1.1022 21.8809 11.9289 19.6476C11.9289 19.6476 165.243 4.41113 167.471 17.4423L188.374 139.719C189.753 147.759 184.298 155.458 176.264 156.832Z" fill="#C8C8C8"/>
<path d="M167.99 162.074L20.5831 176.188C12.4652 176.964 5.19027 170.962 4.41421 162.844C4.41421 162.844 1.06989 14.3988 14.2294 13.137C14.2294 13.137 168.247 9.25671 169.509 22.4162L181.334 145.905C182.11 154.017 176.108 161.298 167.99 162.074Z" fill="#EDEDED"/>
<path d="M15.9939 156.781L149.303 176.189C157.421 176.965 164.696 170.963 165.472 162.845C165.472 162.845 168.817 14.3995 155.657 13.1377C155.657 13.1377 23.8104 9.77101 22.5486 22.9305L8.70229 135.644C7.92623 143.762 7.87598 156 15.9939 156.781Z" fill="#EDEDED"/>
<path d="M163.596 166.037H15.5138C7.36232 166.037 0.69043 159.366 0.69043 151.214V29.6796C0.69043 16.4586 11.505 5.64404 24.726 5.64404H154.378C167.599 5.64404 178.414 16.4586 178.414 29.6796V151.214C178.42 159.371 171.748 166.037 163.596 166.037Z" fill="white"/>
<path d="M178.42 47.3336H0.69043V29.6796C0.69043 16.4586 11.505 5.64404 24.726 5.64404H154.378C167.599 5.64404 178.414 16.4586 178.414 29.6796V47.3336H178.42Z" fill="url(#paint0_linear)"/>
<path d="M29.6116 17.7707C27.6239 17.7707 25.9937 16.146 25.9937 14.1528V5.64404H33.2239V14.1584C33.2294 16.146 31.6047 17.7707 29.6116 17.7707Z" fill="#BF3A37"/>
<path d="M72.3948 17.7707C70.4071 17.7707 68.7769 16.146 68.7769 14.1528V5.64404H76.0071V14.1584C76.0126 16.146 74.3824 17.7707 72.3948 17.7707Z" fill="#BF3A37"/>
<path d="M112.41 17.7707C110.423 17.7707 108.792 16.146 108.792 14.1528V5.64404H116.022V14.1584C116.028 16.146 114.398 17.7707 112.41 17.7707Z" fill="#BF3A37"/>
<path d="M152.709 17.7713C150.722 17.7713 149.091 16.1466 149.091 14.1534C149.091 14.1534 149.091 6.26442 149.091 5.6391C149.091 5.06962 156.322 5.71727 156.322 5.71727V14.1534C156.322 16.1466 154.697 17.7713 152.709 17.7713Z" fill="#BF3A37"/>
<path d="M70.9714 16.5541C68.9838 16.5541 67.3535 14.9294 67.3535 12.9362V3.61789C67.3535 1.63029 68.9782 0 70.9714 0C72.959 0 74.5893 1.6247 74.5893 3.61789V12.9362C74.5837 14.9294 72.959 16.5541 70.9714 16.5541Z" fill="#EBEBEB"/>
<path d="M111.187 16.5541C109.199 16.5541 107.569 14.9294 107.569 12.9362V3.61789C107.569 1.63029 109.194 0 111.187 0C113.174 0 114.805 1.6247 114.805 3.61789V12.9362C114.799 14.9294 113.174 16.5541 111.187 16.5541Z" fill="#EBEBEB"/>
<path d="M151.403 16.5541C149.415 16.5541 147.785 14.9294 147.785 12.9362V3.61789C147.785 1.63029 149.409 0 151.403 0C153.39 0 155.02 1.6247 155.02 3.61789V12.9362C155.015 14.9294 153.39 16.5541 151.403 16.5541Z" fill="#EBEBEB"/>
<path d="M163.423 121.384L121.382 165.586C121.382 165.586 122.973 157.803 122.984 152.912C122.99 149.808 122.359 147.095 122.141 142.634C121.544 130.122 128.79 126.934 132.207 125.08C137.456 122.239 146.059 124.343 151.246 124.003C153.446 123.869 161.793 123.5 163.423 121.384Z" fill="#BABABA"/>
<path d="M42.7374 70.6606H19.0312V86.0311H42.7374V70.6606Z" fill="#EBEBEB"/>
<path d="M42.7374 98.0127H19.0312V113.383H42.7374V98.0127Z" fill="#EBEBEB"/>
<path d="M80.4686 98.0127H56.7625V113.383H80.4686V98.0127Z" fill="#EBEBEB"/>
<path d="M118.194 98.0127H94.4883V113.383H118.194V98.0127Z" fill="#EBEBEB"/>
<path d="M155.193 98.0127H131.487V113.383H155.193V98.0127Z" fill="#EBEBEB"/>
<path d="M42.7374 125.37H19.0312V140.741H42.7374V125.37Z" fill="#EBEBEB"/>
<path d="M80.4686 125.37H56.7625V140.741H80.4686V125.37Z" fill="#EBEBEB"/>
<path d="M118.194 125.37H94.4883V140.741H118.194V125.37Z" fill="#EBEBEB"/>
<path d="M80.4686 70.6606H56.7625V86.0311H80.4686V70.6606Z" fill="#EBEBEB"/>
<path d="M118.194 70.6606H94.4883V86.0311H118.194V70.6606Z" fill="#EBEBEB"/>
<path d="M155.919 70.6606H132.213V86.0311H155.919V70.6606Z" fill="#EBEBEB"/>
<path d="M28.176 16.5541C26.1884 16.5541 24.5581 14.9294 24.5581 12.9362V3.61789C24.5581 1.63029 26.1828 0 28.176 0C30.1636 0 31.7939 1.6247 31.7939 3.61789V12.9362C31.7939 14.9294 30.1692 16.5541 28.176 16.5541Z" fill="#EBEBEB"/>
<path d="M73.3262 129L90.4844 90.2744H68.8486V79.0977H104.908V87.0615L87.3057 129H73.3262Z" fill="url(#paint1_linear)"/>
<path d="M47.2769 43H42.0693V27.9839H37.3628V23.7256H51.9702V27.9839H47.2769V43ZM71.4107 33.3364C71.4107 36.5796 70.6153 39.0449 69.0245 40.7324C67.4337 42.4199 65.1046 43.2637 62.0372 43.2637C59.0138 43.2637 56.6935 42.4155 55.0763 40.7192C53.4679 39.0229 52.6637 36.5532 52.6637 33.3101C52.6637 30.1021 53.4635 27.6543 55.0631 25.9668C56.6715 24.2705 59.005 23.4224 62.0636 23.4224C65.131 23.4224 67.4557 24.2617 69.0377 25.9404C70.6197 27.6191 71.4107 30.0845 71.4107 33.3364ZM58.148 33.3364C58.148 37.063 59.4444 38.9263 62.0372 38.9263C63.3556 38.9263 64.3312 38.4736 64.964 37.5684C65.6056 36.6631 65.9264 35.2524 65.9264 33.3364C65.9264 31.4116 65.6012 29.9922 64.9508 29.0781C64.3092 28.1553 63.3468 27.6938 62.0636 27.6938C59.4532 27.6938 58.148 29.5747 58.148 33.3364ZM87.529 29.856C87.529 32.0093 86.8918 33.6748 85.6174 34.8525C84.3518 36.0215 82.55 36.606 80.2121 36.606H78.7487V43H73.5412V23.7256H80.2121C82.6467 23.7256 84.4748 24.2573 85.6965 25.3208C86.9182 26.3843 87.529 27.896 87.529 29.856ZM78.7487 32.3608H79.6979C80.4802 32.3608 81.0998 32.1411 81.5568 31.7017C82.0227 31.2622 82.2556 30.6558 82.2556 29.8823C82.2556 28.5815 81.5349 27.9312 80.0935 27.9312H78.7487V32.3608ZM105.25 43H99.9638V32.7959C99.9638 31.5566 99.9901 30.4229 100.043 29.3945C99.7177 29.79 99.3134 30.2031 98.83 30.6338L96.6415 32.4399L93.9389 29.1177L100.557 23.7256H105.25V43ZM122.173 33.3892C122.173 36.7993 121.602 39.2998 120.459 40.8906C119.316 42.4727 117.567 43.2637 115.212 43.2637C112.909 43.2637 111.173 42.4375 110.004 40.7852C108.835 39.124 108.251 36.6587 108.251 33.3892C108.251 29.9614 108.822 27.4478 109.965 25.8481C111.107 24.2485 112.856 23.4487 115.212 23.4487C117.506 23.4487 119.237 24.2837 120.406 25.9536C121.584 27.6147 122.173 30.0933 122.173 33.3892ZM113.432 33.3892C113.432 35.5688 113.568 37.0674 113.841 37.8848C114.113 38.7021 114.57 39.1108 115.212 39.1108C115.862 39.1108 116.319 38.689 116.583 37.8452C116.855 37.0015 116.992 35.5161 116.992 33.3892C116.992 31.2534 116.855 29.7593 116.583 28.9067C116.311 28.0454 115.854 27.6147 115.212 27.6147C114.57 27.6147 114.113 28.0278 113.841 28.854C113.568 29.6802 113.432 31.1919 113.432 33.3892ZM136.643 33.3892C136.643 36.7993 136.072 39.2998 134.929 40.8906C133.787 42.4727 132.038 43.2637 129.682 43.2637C127.379 43.2637 125.644 42.4375 124.475 40.7852C123.306 39.124 122.721 36.6587 122.721 33.3892C122.721 29.9614 123.293 27.4478 124.435 25.8481C125.578 24.2485 127.327 23.4487 129.682 23.4487C131.976 23.4487 133.708 24.2837 134.877 25.9536C136.054 27.6147 136.643 30.0933 136.643 33.3892ZM127.902 33.3892C127.902 35.5688 128.039 37.0674 128.311 37.8848C128.584 38.7021 129.041 39.1108 129.682 39.1108C130.333 39.1108 130.79 38.689 131.053 37.8452C131.326 37.0015 131.462 35.5161 131.462 33.3892C131.462 31.2534 131.326 29.7593 131.053 28.9067C130.781 28.0454 130.324 27.6147 129.682 27.6147C129.041 27.6147 128.584 28.0278 128.311 28.854C128.039 29.6802 127.902 31.1919 127.902 33.3892Z" fill="#EEEBE8"/>
<path d="M177.352 118.604L121.387 165.592C121.387 165.592 124.167 156.659 124.72 150.931C125.066 147.29 124.591 144.047 124.815 138.798C125.451 124.07 134.613 121.167 138.979 119.386C145.674 116.656 155.913 120.1 162.261 120.296C164.941 120.374 175.13 120.899 177.352 118.604Z" fill="#E7E6E6"/>
<defs>
<linearGradient id="paint0_linear" x1="89.555" y1="5.64404" x2="89.555" y2="47.3336" gradientUnits="userSpaceOnUse">
<stop stop-color="#FF1D1D"/>
<stop offset="1" stop-color="#FF4172"/>
</linearGradient>
<linearGradient id="paint1_linear" x1="86.6904" y1="54" x2="86.6904" y2="149" gradientUnits="userSpaceOnUse">
<stop stop-color="#FFC700"/>
<stop offset="1" stop-color="#FF4070"/>
</linearGradient>
</defs>
</svg>
