<svg width="250" height="273" viewBox="0 0 250 273" fill="none" xmlns="http://www.w3.org/2000/svg">
<path d="M91.1903 253.5L106.878 218.094H87.0966V207.875H120.065V215.156L103.972 253.5H91.1903ZM139.709 223.562C142.334 223.562 144.699 224.177 146.803 225.406C148.928 226.615 150.574 228.333 151.74 230.562C152.928 232.792 153.522 235.365 153.522 238.281C153.522 243.385 151.98 247.302 148.897 250.031C145.834 252.76 141.188 254.125 134.959 254.125C129.626 254.125 125.272 253.302 121.897 251.656V241.531C123.709 242.365 125.751 243.052 128.022 243.594C130.313 244.135 132.282 244.406 133.928 244.406C136.219 244.406 137.98 243.927 139.209 242.969C140.438 241.99 141.053 240.552 141.053 238.656C141.053 236.906 140.428 235.542 139.178 234.562C137.928 233.583 136.032 233.094 133.49 233.094C131.553 233.094 129.459 233.458 127.209 234.188L122.678 231.938L124.397 207.812H150.459V218.094H134.897L134.334 224.125C135.959 223.812 137.115 223.646 137.803 223.625C138.49 223.583 139.126 223.562 139.709 223.562Z" fill="url(#paint0_linear)"/>
<path d="M120.05 5.16714C104.127 21.9141 93.6941 64.1933 93.6941 64.1933C111.539 72.7041 104.676 95.491 89.3015 102.08C77.7708 107.022 59.9257 97.6872 57.7293 85.0584C56.0821 75.724 61.0238 68.5859 67.0637 62.5461C67.0637 62.5461 11.6066 44.7009 3.37038 36.7393C3.37038 36.7393 -1.02227 35.3666 1.17405 42.5046C3.37037 49.9172 44.2769 166.322 44.2769 166.322L116.756 168.519H133.777L206.256 166.322C206.256 166.322 247.162 49.6427 249.359 42.5046C251.555 35.0921 247.162 36.7393 247.162 36.7393C238.651 44.7009 183.469 62.5461 183.469 62.5461C189.783 68.8605 194.45 75.9986 192.803 85.0584C190.607 97.6872 172.762 107.022 161.231 102.08C145.857 95.491 138.993 72.4295 156.838 64.1933C156.838 64.1933 146.68 21.9141 130.483 5.16714L125.266 0.5L120.05 5.16714Z" fill="url(#paint1_linear)"/>
<path d="M212.295 171.538C212.295 175.931 208.726 179.5 204.333 179.5H45.3745C40.9818 179.5 37.4128 175.931 37.4128 171.538C37.4128 167.146 40.9818 163.577 45.3745 163.577H204.333C208.726 163.851 212.295 167.146 212.295 171.538Z" fill="url(#paint2_linear)"/>
<path d="M7.4895 44.4271L9.96035 46.3489C10.784 46.898 11.8821 47.4471 12.7058 47.9961C13.5294 48.5452 14.6275 49.0943 15.4512 49.3688C16.2748 49.9179 17.373 50.1925 18.4711 50.7415C20.3929 51.5652 22.3147 52.3888 24.511 53.2124L30.5509 55.4088L42.6306 59.5269C44.5524 60.3505 46.7488 60.625 48.6705 61.4486L54.7104 63.0959C55.2595 63.0959 55.534 63.6449 55.2595 64.194C54.4359 66.9394 53.6123 69.9593 52.5141 72.4302C51.4159 75.1756 50.8668 77.921 50.3178 80.3919C50.0432 83.1373 50.3178 85.8827 51.416 88.3536C51.965 89.7263 52.5141 90.8244 53.3377 91.9226C54.1613 93.2953 54.985 94.3934 55.8086 95.4916C56.6322 96.5897 57.7304 97.6879 58.554 98.5115C59.6521 99.3352 60.4758 100.433 61.5739 101.257C62.6721 102.081 63.7702 102.904 64.8684 103.728C65.9666 104.551 67.3393 105.101 68.4374 105.65C70.9083 106.748 73.6537 107.571 76.3991 108.12C79.1445 108.395 81.8899 108.67 84.6353 108.12C87.3807 107.571 89.8516 106.748 92.3224 105.375C93.6951 104.826 94.5188 104.002 95.8915 103.179C96.9896 102.355 98.0878 101.532 98.9114 100.433C100.833 98.5116 102.48 96.0407 103.579 93.8444C104.677 91.3735 105.775 88.6281 106.324 85.8827C106.599 84.51 106.599 83.1373 106.873 81.7646C106.873 80.3919 106.873 79.0192 106.873 77.6465C106.599 74.9011 105.775 72.1557 104.677 69.6848C103.579 67.2139 102.206 64.7431 100.833 61.9977C100.559 61.4486 100.284 60.625 100.01 59.8013C99.735 58.9777 99.735 57.8796 100.01 57.3305C100.284 55.6832 101.108 54.5851 101.657 53.2124C102.48 51.2906 103.03 49.0943 103.853 47.1725L106.324 41.1326L108.795 35.0927C109.069 33.9945 109.618 33.171 110.168 32.0728L111.54 29.0529C112.638 27.1311 113.462 25.2093 114.56 23.2875L117.855 17.7967L124.169 6.54053C122.247 10.3841 120.326 14.2277 118.404 18.0713L115.384 23.8366C114.286 25.7584 113.462 27.6801 112.638 29.6019L111.266 32.6219C110.717 33.4455 110.442 34.5437 109.893 35.6418L107.697 41.6817L105.226 47.7216C104.402 49.6434 103.853 51.8397 103.029 53.7615C102.48 55.1342 101.931 56.5069 101.657 57.605C101.382 58.7032 101.931 59.8013 102.48 61.174C103.853 63.6449 105.226 66.1158 106.599 68.8612C107.971 71.6066 108.795 74.352 109.069 77.372C109.344 79.0192 109.344 80.3919 109.344 81.7646C109.069 83.1373 109.069 84.7845 108.795 86.1572C108.246 89.1772 107.148 91.9226 106.049 94.668C104.677 97.4134 103.03 99.8843 100.833 102.081C99.735 103.179 98.6368 104.002 97.5387 105.1C96.166 105.924 95.0678 107.022 93.6951 107.571C90.9497 109.219 88.2043 110.042 85.1844 110.591C82.1644 111.14 79.1445 111.14 76.1246 110.591C73.3792 110.042 70.3592 109.219 67.6138 107.846C66.2411 107.297 64.8684 106.473 63.7703 105.65C62.3976 104.826 61.2994 104.002 60.2012 103.179C59.1031 102.355 58.0049 101.257 56.9068 100.159C55.8086 99.0606 54.985 97.9624 53.8868 96.8643C53.0632 95.7661 51.965 94.3934 51.416 93.0207C50.5923 91.9226 50.0432 90.2753 49.4941 88.9026C48.1214 86.1572 48.1214 82.8628 48.1214 79.8428C48.6705 76.8229 49.4942 74.0775 50.5923 71.3321C51.6905 68.5867 52.5141 65.8413 53.3377 63.3704L53.8868 64.4686L47.5724 62.5467C45.376 61.9977 43.4543 61.4486 41.5325 60.625C37.4144 59.2523 33.2963 57.605 29.4527 56.2323L23.4128 53.7615C21.491 52.9379 19.5693 52.1143 17.3729 51.0161C16.2748 50.467 15.4511 50.1925 14.6275 49.6434C13.8039 49.0943 12.7057 48.5452 11.8821 47.9961C11.0585 47.4471 9.96034 46.8979 9.13672 46.0743L7.4895 44.4271Z" fill="#5A3602"/>
<path d="M243.868 44.4264L241.397 46.6227C240.574 47.1717 239.75 47.9954 238.652 48.5445C237.828 49.0936 236.73 49.6426 235.907 50.1917C235.083 50.7407 233.985 51.2898 233.161 51.5644C231.239 52.6625 229.318 53.2116 227.121 54.3098L221.081 56.7807C217.238 58.4279 213.12 59.8006 209.002 61.1733C207.08 61.9969 204.884 62.546 202.962 63.0951L196.647 65.0169L197.196 63.9187C198.02 66.6641 198.844 69.4095 199.942 71.8804C201.04 74.6258 201.864 77.3711 202.413 80.3911C202.687 83.411 202.413 86.7056 201.04 89.451C200.491 90.8237 199.942 92.4709 199.118 93.5691C198.569 94.9418 197.471 96.0399 196.647 97.4126C195.824 98.7853 194.726 99.609 193.627 100.707C192.529 101.805 191.431 102.903 190.333 103.727C189.235 104.551 187.862 105.649 186.764 106.198C185.391 107.022 184.293 107.845 182.92 108.394C180.175 109.767 177.155 110.591 174.41 111.14C171.39 111.689 168.37 111.689 165.35 111.14C162.33 110.591 159.31 109.767 156.839 108.12C155.466 107.571 154.368 106.472 152.995 105.649C151.897 104.551 150.525 103.727 149.701 102.629C147.505 100.433 145.857 97.9617 144.485 95.2163C143.112 92.4709 142.014 89.7255 141.739 86.7056C141.465 85.3329 141.465 83.6856 141.19 82.3129C141.19 80.6657 141.19 79.2929 141.465 77.9202C141.739 74.9003 142.837 71.8803 143.936 69.4095C145.308 66.6641 146.681 64.1932 148.054 61.7224C148.603 60.3497 149.152 59.5261 148.877 58.1534C148.603 57.0552 148.054 55.6825 147.505 54.3098C146.681 52.388 146.132 50.1917 145.308 48.2699L142.837 42.23L140.641 36.1902C140.367 35.092 139.818 34.2684 139.268 33.1702L137.896 30.1502C137.072 28.2285 135.974 26.3067 135.15 24.3849L132.13 18.6195C130.209 14.7759 128.287 10.9324 126.365 7.08887L132.679 18.345L135.974 23.8358C137.072 25.7576 137.896 27.6793 138.994 29.6011L140.367 32.6211C140.916 33.4447 141.19 34.5429 141.739 35.641L144.21 41.681L146.681 47.7208C147.505 49.6426 148.328 51.8389 148.877 53.7607C149.426 55.1334 149.976 56.5061 150.525 57.8788C150.799 58.7024 150.799 59.5261 150.525 60.6242C150.25 61.4479 149.975 62.2714 149.701 62.8205C148.328 65.5659 146.956 68.0368 145.857 70.5077C144.759 72.9786 143.936 75.724 143.661 78.4694C143.387 79.8421 143.387 81.2148 143.661 82.5875C143.936 83.9602 143.936 85.3329 144.21 86.7056C144.759 89.451 145.583 91.9218 146.956 94.6672C148.328 97.1381 149.701 99.3344 151.623 101.256C152.446 102.354 153.545 103.178 154.643 104.002C155.741 104.825 156.839 105.649 158.212 106.198C160.683 107.571 163.153 108.394 165.899 108.943C168.644 109.492 171.39 109.218 174.135 108.943C176.88 108.394 179.626 107.571 182.097 106.472C183.469 105.923 184.568 105.374 185.666 104.551C186.764 104.002 187.862 102.903 188.96 102.08C190.058 101.256 191.156 100.158 191.98 99.3344C192.804 98.2363 193.902 97.4126 194.726 96.3145C195.549 95.2163 196.373 94.1181 197.196 92.7454C198.02 91.3727 198.569 90.2746 199.118 89.1764C200.216 86.7055 200.491 83.9602 200.216 81.2148C199.942 78.4694 199.118 75.724 198.02 73.2531C196.922 70.5077 196.098 67.7623 195.275 65.0169C195.275 64.4678 195.549 63.9187 195.824 63.9187L201.864 62.2715C203.785 61.7224 205.982 61.1733 207.904 60.3497L219.983 56.2316L226.023 54.0353C227.945 53.2117 230.141 52.6625 232.063 51.5644C233.161 51.0153 233.985 50.7407 235.083 50.1917C235.907 49.6426 237.005 49.368 237.828 48.8189C238.652 48.2699 239.75 47.7209 240.574 47.1718L243.868 44.4264Z" fill="#5A3602"/>
<path d="M85.6743 148.5H78.731V128.479H72.4556V122.801H91.9321V128.479H85.6743V148.5ZM117.853 135.615C117.853 139.939 116.792 143.227 114.671 145.477C112.55 147.727 109.445 148.852 105.355 148.852C101.324 148.852 98.2298 147.721 96.0735 145.459C93.929 143.197 92.8567 139.904 92.8567 135.58C92.8567 131.303 93.9231 128.039 96.056 125.789C98.2005 123.527 101.312 122.396 105.39 122.396C109.48 122.396 112.579 123.516 114.689 125.754C116.798 127.992 117.853 131.279 117.853 135.615ZM100.169 135.615C100.169 140.584 101.898 143.068 105.355 143.068C107.113 143.068 108.413 142.465 109.257 141.258C110.113 140.051 110.54 138.17 110.54 135.615C110.54 133.049 110.107 131.156 109.24 129.938C108.384 128.707 107.101 128.092 105.39 128.092C101.909 128.092 100.169 130.6 100.169 135.615ZM139.344 130.975C139.344 133.846 138.494 136.066 136.795 137.637C135.108 139.195 132.705 139.975 129.588 139.975H127.637V148.5H120.693V122.801H129.588C132.834 122.801 135.272 123.51 136.9 124.928C138.529 126.346 139.344 128.361 139.344 130.975ZM127.637 134.314H128.902C129.945 134.314 130.772 134.021 131.381 133.436C132.002 132.85 132.313 132.041 132.313 131.01C132.313 129.275 131.352 128.408 129.43 128.408H127.637V134.314ZM162.972 148.5H155.924V134.895C155.924 133.242 155.959 131.73 156.029 130.359C155.595 130.887 155.056 131.438 154.412 132.012L151.494 134.42L147.89 129.99L156.715 122.801H162.972V148.5ZM185.536 135.686C185.536 140.232 184.774 143.566 183.25 145.688C181.727 147.797 179.395 148.852 176.254 148.852C173.184 148.852 170.87 147.75 169.311 145.547C167.752 143.332 166.973 140.045 166.973 135.686C166.973 131.115 167.735 127.764 169.258 125.631C170.782 123.498 173.114 122.432 176.254 122.432C179.313 122.432 181.622 123.545 183.18 125.771C184.75 127.986 185.536 131.291 185.536 135.686ZM173.881 135.686C173.881 138.592 174.063 140.59 174.426 141.68C174.79 142.77 175.399 143.314 176.254 143.314C177.122 143.314 177.731 142.752 178.083 141.627C178.446 140.502 178.627 138.521 178.627 135.686C178.627 132.838 178.446 130.846 178.083 129.709C177.719 128.561 177.11 127.986 176.254 127.986C175.399 127.986 174.79 128.537 174.426 129.639C174.063 130.74 173.881 132.756 173.881 135.686Z" fill="url(#paint3_linear)"/>
<defs>
<linearGradient id="paint0_linear" x1="120.559" y1="185.5" x2="120.559" y2="272.5" gradientUnits="userSpaceOnUse">
<stop stop-color="#FFC700"/>
<stop offset="1" stop-color="#FC9517"/>
</linearGradient>
<linearGradient id="paint1_linear" x1="125.266" y1="0.5" x2="125.266" y2="168.519" gradientUnits="userSpaceOnUse">
<stop stop-color="#FFC700"/>
<stop offset="1" stop-color="#FC9517"/>
</linearGradient>
<linearGradient id="paint2_linear" x1="124.854" y1="163.577" x2="124.854" y2="179.5" gradientUnits="userSpaceOnUse">
<stop stop-color="#8F5A2D"/>
<stop offset="1" stop-color="#351B06"/>
</linearGradient>
<linearGradient id="paint3_linear" x1="129.559" y1="110.5" x2="129.559" y2="159.5" gradientUnits="userSpaceOnUse">
<stop stop-color="#8F5A2D"/>
<stop offset="1" stop-color="#351B06"/>
</linearGradient>
</defs>
</svg>
