<svg width="189" height="182" viewBox="0 0 189 182" fill="none" xmlns="http://www.w3.org/2000/svg">
<path d="M175.748 156.832L29.7868 181.789C21.7526 183.162 14.0534 177.713 12.6744 169.673C12.6744 169.673 -1.61856 21.8809 11.4126 19.6476C11.4126 19.6476 164.726 4.41113 166.954 17.4423L187.858 139.719C189.237 147.759 183.782 155.458 175.748 156.832Z" fill="#C8C8C8"/>
<path d="M167.474 162.074L20.0667 176.188C11.9488 176.964 4.67392 170.962 3.89785 162.844C3.89785 162.844 0.553537 14.3988 13.7131 13.137C13.7131 13.137 167.73 9.25671 168.992 22.4162L180.817 145.905C181.593 154.017 175.592 161.298 167.474 162.074Z" fill="#EDEDED"/>
<path d="M15.4776 156.781L148.787 176.189C156.905 176.965 164.18 170.963 164.956 162.845C164.956 162.845 168.3 14.3995 155.141 13.1377C155.141 13.1377 23.294 9.77101 22.0322 22.9305L8.18593 135.644C7.40987 143.762 7.35962 156 15.4776 156.781Z" fill="#EDEDED"/>
<path d="M163.08 166.037H14.9974C6.84596 166.037 0.174072 159.366 0.174072 151.214V29.6796C0.174072 16.4586 10.9887 5.64404 24.2096 5.64404H153.862C167.083 5.64404 177.898 16.4586 177.898 29.6796V151.214C177.903 159.371 171.231 166.037 163.08 166.037Z" fill="white"/>
<path d="M177.903 47.3336H0.174072V29.6796C0.174072 16.4586 10.9887 5.64404 24.2096 5.64404H153.862C167.083 5.64404 177.898 16.4586 177.898 29.6796V47.3336H177.903Z" fill="url(#paint0_linear)"/>
<path d="M29.0952 17.7707C27.1076 17.7707 25.4773 16.146 25.4773 14.1528V5.64404H32.7075V14.1584C32.7131 16.146 31.0884 17.7707 29.0952 17.7707Z" fill="#BF3A37"/>
<path d="M71.8786 17.7707C69.891 17.7707 68.2607 16.146 68.2607 14.1528V5.64404H75.491V14.1584C75.4965 16.146 73.8663 17.7707 71.8786 17.7707Z" fill="#BF3A37"/>
<path d="M111.894 17.7707C109.906 17.7707 108.276 16.146 108.276 14.1528V5.64404H115.506V14.1584C115.512 16.146 113.881 17.7707 111.894 17.7707Z" fill="#BF3A37"/>
<path d="M152.193 17.7713C150.205 17.7713 148.575 16.1466 148.575 14.1534C148.575 14.1534 148.575 6.26442 148.575 5.6391C148.575 5.06962 155.805 5.71727 155.805 5.71727V14.1534C155.805 16.1466 154.18 17.7713 152.193 17.7713Z" fill="#BF3A37"/>
<path d="M70.4548 16.5541C68.4672 16.5541 66.8369 14.9294 66.8369 12.9362V3.61789C66.8369 1.63029 68.4616 0 70.4548 0C72.4424 0 74.0727 1.6247 74.0727 3.61789V12.9362C74.0671 14.9294 72.4424 16.5541 70.4548 16.5541Z" fill="#EBEBEB"/>
<path d="M110.671 16.5541C108.683 16.5541 107.053 14.9294 107.053 12.9362V3.61789C107.053 1.63029 108.677 0 110.671 0C112.658 0 114.289 1.6247 114.289 3.61789V12.9362C114.283 14.9294 112.658 16.5541 110.671 16.5541Z" fill="#EBEBEB"/>
<path d="M150.886 16.5541C148.899 16.5541 147.268 14.9294 147.268 12.9362V3.61789C147.268 1.63029 148.893 0 150.886 0C152.874 0 154.504 1.6247 154.504 3.61789V12.9362C154.499 14.9294 152.874 16.5541 150.886 16.5541Z" fill="#EBEBEB"/>
<path d="M162.907 121.384L120.865 165.586C120.865 165.586 122.456 157.803 122.468 152.912C122.473 149.808 121.842 147.095 121.625 142.634C121.027 130.122 128.274 126.934 131.691 125.08C136.939 122.239 145.543 124.343 150.73 124.003C152.929 123.869 161.276 123.5 162.907 121.384Z" fill="#BABABA"/>
<path d="M42.221 70.6606H18.5149V86.0311H42.221V70.6606Z" fill="#EBEBEB"/>
<path d="M42.221 98.0127H18.5149V113.383H42.221V98.0127Z" fill="#EBEBEB"/>
<path d="M79.9522 98.0127H56.2461V113.383H79.9522V98.0127Z" fill="#EBEBEB"/>
<path d="M117.678 98.0127H93.9719V113.383H117.678V98.0127Z" fill="#EBEBEB"/>
<path d="M154.677 98.0127H130.971V113.383H154.677V98.0127Z" fill="#EBEBEB"/>
<path d="M42.221 125.37H18.5149V140.741H42.221V125.37Z" fill="#EBEBEB"/>
<path d="M79.9522 125.37H56.2461V140.741H79.9522V125.37Z" fill="#EBEBEB"/>
<path d="M117.678 125.37H93.9719V140.741H117.678V125.37Z" fill="#EBEBEB"/>
<path d="M79.9522 70.6606H56.2461V86.0311H79.9522V70.6606Z" fill="#EBEBEB"/>
<path d="M117.678 70.6606H93.9719V86.0311H117.678V70.6606Z" fill="#EBEBEB"/>
<path d="M155.403 70.6606H131.697V86.0311H155.403V70.6606Z" fill="#EBEBEB"/>
<path d="M27.6599 16.5541C25.6723 16.5541 24.042 14.9294 24.042 12.9362V3.61789C24.042 1.63029 25.6667 0 27.6599 0C29.6475 0 31.2778 1.6247 31.2778 3.61789V12.9362C31.2778 14.9294 29.6531 16.5541 27.6599 16.5541Z" fill="#EBEBEB"/>
<path d="M60.8479 129H47.1418V102.545C47.1418 99.332 47.2102 96.3926 47.3469 93.7266C46.5038 94.752 45.4556 95.8229 44.2024 96.9395L38.5286 101.622L31.5217 93.0088L48.6799 79.0293H60.8479V129ZM104.516 129H68.2512V120.113L80.4534 107.774C83.9397 104.129 86.2183 101.645 87.2893 100.323C88.3603 98.9788 89.1008 97.8281 89.511 96.8711C89.9439 95.9141 90.1604 94.9115 90.1604 93.8633C90.1604 92.5645 89.7389 91.5391 88.8958 90.7871C88.0527 90.0352 86.8678 89.6592 85.3411 89.6592C83.7688 89.6592 82.1737 90.1149 80.5559 91.0264C78.9609 91.915 77.1493 93.2367 75.1213 94.9912L67.7043 86.3096C70.2792 84.0081 72.4439 82.3675 74.1985 81.3877C75.953 80.3851 77.8557 79.6217 79.9065 79.0977C81.9801 78.5736 84.3043 78.3115 86.8792 78.3115C90.1148 78.3115 92.9973 78.8812 95.5266 80.0205C98.0787 81.1598 100.05 82.7891 101.44 84.9082C102.852 87.0046 103.559 89.363 103.559 91.9834C103.559 93.943 103.308 95.7546 102.807 97.418C102.328 99.0814 101.576 100.722 100.551 102.34C99.5256 103.935 98.1584 105.621 96.4495 107.398C94.7633 109.176 91.1516 112.548 85.6145 117.516V117.857H104.516V129ZM142.237 104.083C142.237 112.924 140.755 119.407 137.793 123.531C134.831 127.633 130.296 129.684 124.19 129.684C118.22 129.684 113.719 127.542 110.689 123.258C107.658 118.951 106.143 112.56 106.143 104.083C106.143 95.1963 107.624 88.6794 110.586 84.5322C113.548 80.3851 118.083 78.3115 124.19 78.3115C130.137 78.3115 134.626 80.4762 137.656 84.8057C140.71 89.1123 142.237 95.5381 142.237 104.083ZM119.575 104.083C119.575 109.734 119.929 113.619 120.635 115.738C121.341 117.857 122.526 118.917 124.19 118.917C125.876 118.917 127.061 117.823 127.744 115.636C128.451 113.448 128.804 109.597 128.804 104.083C128.804 98.5459 128.451 94.6722 127.744 92.4619C127.038 90.2288 125.853 89.1123 124.19 89.1123C122.526 89.1123 121.341 90.1833 120.635 92.3252C119.929 94.4671 119.575 98.3864 119.575 104.083Z" fill="url(#paint1_linear)"/>
<path d="M46.7605 43H41.553V27.9839H36.8464V23.7256H51.4539V27.9839H46.7605V43ZM70.8944 33.3364C70.8944 36.5796 70.099 39.0449 68.5082 40.7324C66.9173 42.4199 64.5882 43.2637 61.5208 43.2637C58.4974 43.2637 56.1771 42.4155 54.5599 40.7192C52.9515 39.0229 52.1473 36.5532 52.1473 33.3101C52.1473 30.1021 52.9471 27.6543 54.5467 25.9668C56.1551 24.2705 58.4886 23.4224 61.5472 23.4224C64.6146 23.4224 66.9393 24.2617 68.5213 25.9404C70.1034 27.6191 70.8944 30.0845 70.8944 33.3364ZM57.6317 33.3364C57.6317 37.063 58.9281 38.9263 61.5208 38.9263C62.8392 38.9263 63.8148 38.4736 64.4476 37.5684C65.0892 36.6631 65.41 35.2524 65.41 33.3364C65.41 31.4116 65.0848 29.9922 64.4344 29.0781C63.7928 28.1553 62.8304 27.6938 61.5472 27.6938C58.9369 27.6938 57.6317 29.5747 57.6317 33.3364ZM87.0126 29.856C87.0126 32.0093 86.3754 33.6748 85.101 34.8525C83.8354 36.0215 82.0336 36.606 79.6958 36.606H78.2324V43H73.0249V23.7256H79.6958C82.1303 23.7256 83.9584 24.2573 85.1801 25.3208C86.4018 26.3843 87.0126 27.896 87.0126 29.856ZM78.2324 32.3608H79.1816C79.9638 32.3608 80.5834 32.1411 81.0405 31.7017C81.5063 31.2622 81.7392 30.6558 81.7392 29.8823C81.7392 28.5815 81.0185 27.9312 79.5771 27.9312H78.2324V32.3608ZM104.734 43H99.4474V32.7959C99.4474 31.5566 99.4738 30.4229 99.5265 29.3945C99.2013 29.79 98.797 30.2031 98.3136 30.6338L96.1251 32.4399L93.4225 29.1177L100.041 23.7256H104.734V43ZM121.656 33.3892C121.656 36.7993 121.085 39.2998 119.943 40.8906C118.8 42.4727 117.051 43.2637 114.696 43.2637C112.393 43.2637 110.657 42.4375 109.488 40.7852C108.319 39.124 107.735 36.6587 107.735 33.3892C107.735 29.9614 108.306 27.4478 109.448 25.8481C110.591 24.2485 112.34 23.4487 114.696 23.4487C116.99 23.4487 118.721 24.2837 119.89 25.9536C121.068 27.6147 121.656 30.0933 121.656 33.3892ZM112.916 33.3892C112.916 35.5688 113.052 37.0674 113.324 37.8848C113.597 38.7021 114.054 39.1108 114.696 39.1108C115.346 39.1108 115.803 38.689 116.067 37.8452C116.339 37.0015 116.475 35.5161 116.475 33.3892C116.475 31.2534 116.339 29.7593 116.067 28.9067C115.794 28.0454 115.337 27.6147 114.696 27.6147C114.054 27.6147 113.597 28.0278 113.324 28.854C113.052 29.6802 112.916 31.1919 112.916 33.3892ZM136.127 33.3892C136.127 36.7993 135.556 39.2998 134.413 40.8906C133.27 42.4727 131.521 43.2637 129.166 43.2637C126.863 43.2637 125.127 42.4375 123.958 40.7852C122.789 39.124 122.205 36.6587 122.205 33.3892C122.205 29.9614 122.776 27.4478 123.919 25.8481C125.061 24.2485 126.81 23.4487 129.166 23.4487C131.46 23.4487 133.191 24.2837 134.36 25.9536C135.538 27.6147 136.127 30.0933 136.127 33.3892ZM127.386 33.3892C127.386 35.5688 127.522 37.0674 127.795 37.8848C128.067 38.7021 128.524 39.1108 129.166 39.1108C129.816 39.1108 130.273 38.689 130.537 37.8452C130.809 37.0015 130.946 35.5161 130.946 33.3892C130.946 31.2534 130.809 29.7593 130.537 28.9067C130.265 28.0454 129.807 27.6147 129.166 27.6147C128.524 27.6147 128.067 28.0278 127.795 28.854C127.522 29.6802 127.386 31.1919 127.386 33.3892Z" fill="#EEEBE8"/>
<path d="M176.836 118.604L120.87 165.592C120.87 165.592 123.651 156.659 124.204 150.931C124.55 147.29 124.075 144.047 124.298 138.798C124.935 124.07 134.097 121.167 138.463 119.386C145.157 116.656 155.397 120.1 161.745 120.296C164.425 120.374 174.614 120.899 176.836 118.604Z" fill="#E7E6E6"/>
<defs>
<linearGradient id="paint0_linear" x1="89.0386" y1="5.64404" x2="89.0386" y2="47.3336" gradientUnits="userSpaceOnUse">
<stop stop-color="#FF1D1D"/>
<stop offset="1" stop-color="#FF4172"/>
</linearGradient>
<linearGradient id="paint1_linear" x1="86.6741" y1="54" x2="86.6741" y2="149" gradientUnits="userSpaceOnUse">
<stop stop-color="#FFC700"/>
<stop offset="1" stop-color="#FF4070"/>
</linearGradient>
</defs>
</svg>
