<svg width="189" height="182" viewBox="0 0 189 182" fill="none" xmlns="http://www.w3.org/2000/svg">
<path d="M176.334 156.832L30.3734 181.789C22.3393 183.162 14.6401 177.713 13.261 169.673C13.261 169.673 -1.03189 21.8809 11.9992 19.6476C11.9992 19.6476 165.313 4.41113 167.541 17.4423L188.444 139.719C189.823 147.759 184.368 155.458 176.334 156.832Z" fill="#C8C8C8"/>
<path d="M168.06 162.074L20.6534 176.188C12.5355 176.964 5.26059 170.962 4.48452 162.844C4.48452 162.844 1.14021 14.3988 14.2997 13.137C14.2997 13.137 168.317 9.25671 169.579 22.4162L181.404 145.905C182.18 154.017 176.178 161.298 168.06 162.074Z" fill="#EDEDED"/>
<path d="M16.0642 156.781L149.374 176.189C157.492 176.965 164.766 170.963 165.542 162.845C165.542 162.845 168.887 14.3995 155.727 13.1377C155.727 13.1377 23.8807 9.77101 22.6189 22.9305L8.7726 135.644C7.99654 143.762 7.94629 156 16.0642 156.781Z" fill="#EDEDED"/>
<path d="M163.667 166.037H15.5841C7.43263 166.037 0.760742 159.366 0.760742 151.214V29.6796C0.760742 16.4586 11.5753 5.64404 24.7963 5.64404H154.449C167.67 5.64404 178.484 16.4586 178.484 29.6796V151.214C178.49 159.371 171.818 166.037 163.667 166.037Z" fill="white"/>
<path d="M178.49 47.3336H0.760742V29.6796C0.760742 16.4586 11.5753 5.64404 24.7963 5.64404H154.449C167.67 5.64404 178.484 16.4586 178.484 29.6796V47.3336H178.49Z" fill="url(#paint0_linear)"/>
<path d="M29.6819 17.7707C27.6943 17.7707 26.064 16.146 26.064 14.1528V5.64404H33.2942V14.1584C33.2998 16.146 31.6751 17.7707 29.6819 17.7707Z" fill="#BF3A37"/>
<path d="M72.4653 17.7707C70.4777 17.7707 68.8474 16.146 68.8474 14.1528V5.64404H76.0776V14.1584C76.0832 16.146 74.4529 17.7707 72.4653 17.7707Z" fill="#BF3A37"/>
<path d="M112.48 17.7707C110.493 17.7707 108.863 16.146 108.863 14.1528V5.64404H116.093V14.1584C116.098 16.146 114.468 17.7707 112.48 17.7707Z" fill="#BF3A37"/>
<path d="M152.78 17.7713C150.792 17.7713 149.162 16.1466 149.162 14.1534C149.162 14.1534 149.162 6.26442 149.162 5.6391C149.162 5.06962 156.392 5.71727 156.392 5.71727V14.1534C156.392 16.1466 154.767 17.7713 152.78 17.7713Z" fill="#BF3A37"/>
<path d="M71.0415 16.5541C69.0539 16.5541 67.4236 14.9294 67.4236 12.9362V3.61789C67.4236 1.63029 69.0483 0 71.0415 0C73.0291 0 74.6594 1.6247 74.6594 3.61789V12.9362C74.6538 14.9294 73.0291 16.5541 71.0415 16.5541Z" fill="#EBEBEB"/>
<path d="M111.257 16.5541C109.27 16.5541 107.639 14.9294 107.639 12.9362V3.61789C107.639 1.63029 109.264 0 111.257 0C113.245 0 114.875 1.6247 114.875 3.61789V12.9362C114.87 14.9294 113.245 16.5541 111.257 16.5541Z" fill="#EBEBEB"/>
<path d="M151.473 16.5541C149.485 16.5541 147.855 14.9294 147.855 12.9362V3.61789C147.855 1.63029 149.48 0 151.473 0C153.46 0 155.091 1.6247 155.091 3.61789V12.9362C155.085 14.9294 153.46 16.5541 151.473 16.5541Z" fill="#EBEBEB"/>
<path d="M163.493 121.384L121.452 165.586C121.452 165.586 123.043 157.803 123.054 152.912C123.06 149.808 122.429 147.095 122.211 142.634C121.614 130.122 128.861 126.934 132.278 125.08C137.526 122.239 146.13 124.343 151.316 124.003C153.516 123.869 161.863 123.5 163.493 121.384Z" fill="#BABABA"/>
<path d="M42.8077 70.6606H19.1016V86.0311H42.8077V70.6606Z" fill="#EBEBEB"/>
<path d="M42.8077 98.0127H19.1016V113.383H42.8077V98.0127Z" fill="#EBEBEB"/>
<path d="M80.5389 98.0127H56.8328V113.383H80.5389V98.0127Z" fill="#EBEBEB"/>
<path d="M118.265 98.0127H94.5586V113.383H118.265V98.0127Z" fill="#EBEBEB"/>
<path d="M155.264 98.0127H131.558V113.383H155.264V98.0127Z" fill="#EBEBEB"/>
<path d="M42.8077 125.37H19.1016V140.741H42.8077V125.37Z" fill="#EBEBEB"/>
<path d="M80.5389 125.37H56.8328V140.741H80.5389V125.37Z" fill="#EBEBEB"/>
<path d="M118.265 125.37H94.5586V140.741H118.265V125.37Z" fill="#EBEBEB"/>
<path d="M80.5389 70.6606H56.8328V86.0311H80.5389V70.6606Z" fill="#EBEBEB"/>
<path d="M118.265 70.6606H94.5586V86.0311H118.265V70.6606Z" fill="#EBEBEB"/>
<path d="M155.989 70.6606H132.283V86.0311H155.989V70.6606Z" fill="#EBEBEB"/>
<path d="M28.2466 16.5541C26.259 16.5541 24.6287 14.9294 24.6287 12.9362V3.61789C24.6287 1.63029 26.2534 0 28.2466 0C30.2342 0 31.8645 1.6247 31.8645 3.61789V12.9362C31.8645 14.9294 30.2398 16.5541 28.2466 16.5541Z" fill="#EBEBEB"/>
<path d="M65.9121 89.8643C65.9121 92.9632 64.9665 95.6292 63.0752 97.8623C61.1839 100.073 58.4495 101.679 54.8721 102.682V102.887C63.2119 103.935 67.3818 107.877 67.3818 114.713C67.3818 119.361 65.5361 123.019 61.8447 125.685C58.1761 128.351 53.0719 129.684 46.5322 129.684C43.8434 129.684 41.3483 129.49 39.0469 129.103C36.7682 128.715 34.2959 128.009 31.6299 126.983V115.772C33.8174 116.889 36.0391 117.721 38.2949 118.268C40.5736 118.792 42.6699 119.054 44.584 119.054C47.5462 119.054 49.6995 118.644 51.0439 117.823C52.4111 116.98 53.0947 115.67 53.0947 113.893C53.0947 112.525 52.7415 111.477 52.0352 110.748C51.3288 109.996 50.1895 109.438 48.6172 109.073C47.0449 108.686 44.9941 108.492 42.4648 108.492H39.3887V98.3408H42.5332C49.3919 98.3408 52.8213 96.5863 52.8213 93.0771C52.8213 91.7555 52.3086 90.7757 51.2832 90.1377C50.2806 89.4997 48.9248 89.1807 47.2158 89.1807C44.0257 89.1807 40.7217 90.2516 37.3037 92.3936L31.6982 83.3701C34.3415 81.5472 37.0417 80.2484 39.7988 79.4736C42.5788 78.6989 45.7575 78.3115 49.335 78.3115C54.5075 78.3115 58.5635 79.3369 61.5029 81.3877C64.4424 83.4385 65.9121 86.264 65.9121 89.8643ZM69.1455 107.877C69.1455 100.904 70.1367 95.2646 72.1191 90.958C74.1243 86.6286 77.0638 83.4385 80.9375 81.3877C84.834 79.3369 89.6305 78.3115 95.3271 78.3115C97.3551 78.3115 99.7249 78.5052 102.437 78.8926V89.4541C100.158 89.0212 97.6855 88.8047 95.0195 88.8047C90.5078 88.8047 87.1468 89.7959 84.9365 91.7783C82.7262 93.7607 81.5186 96.9964 81.3135 101.485H81.7236C83.7744 97.6117 87.0671 95.6748 91.6016 95.6748C96.0449 95.6748 99.4857 97.1104 101.924 99.9814C104.385 102.83 105.615 106.806 105.615 111.91C105.615 117.402 104.066 121.743 100.967 124.933C97.8678 128.1 93.5384 129.684 87.9785 129.684C82.0768 129.684 77.4626 127.77 74.1357 123.941C70.8089 120.113 69.1455 114.758 69.1455 107.877ZM87.6709 118.985C89.1064 118.985 90.2686 118.45 91.1572 117.379C92.0687 116.285 92.5244 114.553 92.5244 112.184C92.5244 108.128 90.9521 106.1 87.8076 106.1C86.2581 106.1 84.9935 106.624 84.0137 107.672C83.0566 108.72 82.5781 109.996 82.5781 111.5C82.5781 113.688 83.0452 115.488 83.9795 116.9C84.9137 118.29 86.1442 118.985 87.6709 118.985ZM126.964 96.2559C129.835 96.2559 132.421 96.9281 134.723 98.2725C137.047 99.5941 138.847 101.474 140.123 103.912C141.422 106.35 142.071 109.164 142.071 112.354C142.071 117.937 140.385 122.221 137.013 125.206C133.663 128.191 128.582 129.684 121.769 129.684C115.935 129.684 111.173 128.784 107.481 126.983V115.909C109.464 116.821 111.697 117.573 114.181 118.165C116.687 118.757 118.84 119.054 120.641 119.054C123.147 119.054 125.073 118.53 126.417 117.481C127.761 116.41 128.434 114.838 128.434 112.765C128.434 110.851 127.75 109.358 126.383 108.287C125.016 107.216 122.942 106.681 120.162 106.681C118.043 106.681 115.753 107.079 113.292 107.877L108.336 105.416L110.216 79.0293H138.722V90.2744H121.7L121.085 96.8711C122.862 96.5293 124.127 96.347 124.879 96.3242C125.631 96.2786 126.326 96.2559 126.964 96.2559Z" fill="url(#paint1_linear)"/>
<path d="M47.3472 43H42.1396V27.9839H37.4331V23.7256H52.0405V27.9839H47.3472V43ZM71.4811 33.3364C71.4811 36.5796 70.6856 39.0449 69.0948 40.7324C67.504 42.4199 65.1749 43.2637 62.1075 43.2637C59.0841 43.2637 56.7638 42.4155 55.1466 40.7192C53.5382 39.0229 52.734 36.5532 52.734 33.3101C52.734 30.1021 53.5338 27.6543 55.1334 25.9668C56.7418 24.2705 59.0753 23.4224 62.1339 23.4224C65.2013 23.4224 67.526 24.2617 69.108 25.9404C70.69 27.6191 71.4811 30.0845 71.4811 33.3364ZM58.2184 33.3364C58.2184 37.063 59.5147 38.9263 62.1075 38.9263C63.4259 38.9263 64.4015 38.4736 65.0343 37.5684C65.6759 36.6631 65.9967 35.2524 65.9967 33.3364C65.9967 31.4116 65.6715 29.9922 65.0211 29.0781C64.3795 28.1553 63.4171 27.6938 62.1339 27.6938C59.5235 27.6938 58.2184 29.5747 58.2184 33.3364ZM87.5993 29.856C87.5993 32.0093 86.9621 33.6748 85.6877 34.8525C84.4221 36.0215 82.6203 36.606 80.2824 36.606H78.819V43H73.6115V23.7256H80.2824C82.717 23.7256 84.5451 24.2573 85.7668 25.3208C86.9885 26.3843 87.5993 27.896 87.5993 29.856ZM78.819 32.3608H79.7683C80.5505 32.3608 81.1701 32.1411 81.6271 31.7017C82.093 31.2622 82.3259 30.6558 82.3259 29.8823C82.3259 28.5815 81.6052 27.9312 80.1638 27.9312H78.819V32.3608ZM105.321 43H100.034V32.7959C100.034 31.5566 100.06 30.4229 100.113 29.3945C99.788 29.79 99.3837 30.2031 98.9003 30.6338L96.7118 32.4399L94.0092 29.1177L100.627 23.7256H105.321V43ZM122.243 33.3892C122.243 36.7993 121.672 39.2998 120.529 40.8906C119.387 42.4727 117.638 43.2637 115.282 43.2637C112.979 43.2637 111.244 42.4375 110.075 40.7852C108.906 39.124 108.321 36.6587 108.321 33.3892C108.321 29.9614 108.893 27.4478 110.035 25.8481C111.178 24.2485 112.927 23.4487 115.282 23.4487C117.576 23.4487 119.308 24.2837 120.477 25.9536C121.654 27.6147 122.243 30.0933 122.243 33.3892ZM113.502 33.3892C113.502 35.5688 113.639 37.0674 113.911 37.8848C114.184 38.7021 114.641 39.1108 115.282 39.1108C115.933 39.1108 116.39 38.689 116.653 37.8452C116.926 37.0015 117.062 35.5161 117.062 33.3892C117.062 31.2534 116.926 29.7593 116.653 28.9067C116.381 28.0454 115.924 27.6147 115.282 27.6147C114.641 27.6147 114.184 28.0278 113.911 28.854C113.639 29.6802 113.502 31.1919 113.502 33.3892ZM136.713 33.3892C136.713 36.7993 136.142 39.2998 135 40.8906C133.857 42.4727 132.108 43.2637 129.753 43.2637C127.45 43.2637 125.714 42.4375 124.545 40.7852C123.376 39.124 122.792 36.6587 122.792 33.3892C122.792 29.9614 123.363 27.4478 124.505 25.8481C125.648 24.2485 127.397 23.4487 129.753 23.4487C132.046 23.4487 133.778 24.2837 134.947 25.9536C136.125 27.6147 136.713 30.0933 136.713 33.3892ZM127.973 33.3892C127.973 35.5688 128.109 37.0674 128.381 37.8848C128.654 38.7021 129.111 39.1108 129.753 39.1108C130.403 39.1108 130.86 38.689 131.124 37.8452C131.396 37.0015 131.532 35.5161 131.532 33.3892C131.532 31.2534 131.396 29.7593 131.124 28.9067C130.851 28.0454 130.394 27.6147 129.753 27.6147C129.111 27.6147 128.654 28.0278 128.381 28.854C128.109 29.6802 127.973 31.1919 127.973 33.3892Z" fill="#EEEBE8"/>
<defs>
<linearGradient id="paint0_linear" x1="89.6253" y1="5.64404" x2="89.6253" y2="47.3336" gradientUnits="userSpaceOnUse">
<stop stop-color="#FF1D1D"/>
<stop offset="1" stop-color="#FF4172"/>
</linearGradient>
<linearGradient id="paint1_linear" x1="87.2607" y1="54" x2="87.2607" y2="149" gradientUnits="userSpaceOnUse">
<stop stop-color="#FFC700"/>
<stop offset="1" stop-color="#FF4070"/>
</linearGradient>
</defs>
</svg>
