<svg width="189" height="182" viewBox="0 0 189 182" fill="none" xmlns="http://www.w3.org/2000/svg">
<path d="M176.438 156.832L30.477 181.789C22.4428 183.162 14.7436 177.713 13.3645 169.673C13.3645 169.673 -0.928376 21.8809 12.1027 19.6476C12.1027 19.6476 165.417 4.41113 167.644 17.4423L188.548 139.719C189.927 147.759 184.472 155.458 176.438 156.832Z" fill="#C8C8C8"/>
<path d="M168.164 162.074L20.7569 176.188C12.639 176.964 5.3641 170.962 4.58804 162.844C4.58804 162.844 1.24372 14.3988 14.4033 13.137C14.4033 13.137 168.421 9.25671 169.682 22.4162L181.508 145.905C182.284 154.017 176.282 161.298 168.164 162.074Z" fill="#EDEDED"/>
<path d="M16.1677 156.781L149.477 176.189C157.595 176.965 164.87 170.963 165.646 162.845C165.646 162.845 168.99 14.3995 155.831 13.1377C155.831 13.1377 23.9842 9.77101 22.7224 22.9305L8.87611 135.644C8.10005 143.762 8.0498 156 16.1677 156.781Z" fill="#EDEDED"/>
<path d="M163.77 166.037H15.6876C7.53615 166.037 0.864258 159.366 0.864258 151.214V29.6796C0.864258 16.4586 11.6789 5.64404 24.8998 5.64404H154.552C167.773 5.64404 178.588 16.4586 178.588 29.6796V151.214C178.593 159.371 171.921 166.037 163.77 166.037Z" fill="white"/>
<path d="M178.593 47.3336H0.864258V29.6796C0.864258 16.4586 11.6789 5.64404 24.8998 5.64404H154.552C167.773 5.64404 178.588 16.4586 178.588 29.6796V47.3336H178.593Z" fill="url(#paint0_linear)"/>
<path d="M29.7854 17.7707C27.7978 17.7707 26.1675 16.146 26.1675 14.1528V5.64404H33.3977V14.1584C33.4033 16.146 31.7786 17.7707 29.7854 17.7707Z" fill="#BF3A37"/>
<path d="M72.5688 17.7707C70.5812 17.7707 68.9509 16.146 68.9509 14.1528V5.64404H76.1811V14.1584C76.1867 16.146 74.5564 17.7707 72.5688 17.7707Z" fill="#BF3A37"/>
<path d="M112.584 17.7707C110.596 17.7707 108.966 16.146 108.966 14.1528V5.64404H116.196V14.1584C116.202 16.146 114.572 17.7707 112.584 17.7707Z" fill="#BF3A37"/>
<path d="M152.883 17.7713C150.895 17.7713 149.265 16.1466 149.265 14.1534C149.265 14.1534 149.265 6.26442 149.265 5.6391C149.265 5.06962 156.495 5.71727 156.495 5.71727V14.1534C156.495 16.1466 154.871 17.7713 152.883 17.7713Z" fill="#BF3A37"/>
<path d="M71.145 16.5541C69.1574 16.5541 67.5271 14.9294 67.5271 12.9362V3.61789C67.5271 1.63029 69.1518 0 71.145 0C73.1326 0 74.7629 1.6247 74.7629 3.61789V12.9362C74.7573 14.9294 73.1326 16.5541 71.145 16.5541Z" fill="#EBEBEB"/>
<path d="M111.361 16.5541C109.373 16.5541 107.743 14.9294 107.743 12.9362V3.61789C107.743 1.63029 109.368 0 111.361 0C113.348 0 114.979 1.6247 114.979 3.61789V12.9362C114.973 14.9294 113.348 16.5541 111.361 16.5541Z" fill="#EBEBEB"/>
<path d="M151.576 16.5541C149.589 16.5541 147.958 14.9294 147.958 12.9362V3.61789C147.958 1.63029 149.583 0 151.576 0C153.564 0 155.194 1.6247 155.194 3.61789V12.9362C155.189 14.9294 153.564 16.5541 151.576 16.5541Z" fill="#EBEBEB"/>
<path d="M163.597 121.384L121.555 165.586C121.555 165.586 123.147 157.803 123.158 152.912C123.163 149.808 122.532 147.095 122.315 142.634C121.717 130.122 128.964 126.934 132.381 125.08C137.629 122.239 146.233 124.343 151.42 124.003C153.62 123.869 161.966 123.5 163.597 121.384Z" fill="#BABABA"/>
<path d="M42.9112 70.6606H19.2051V86.0311H42.9112V70.6606Z" fill="#EBEBEB"/>
<path d="M42.9112 98.0127H19.2051V113.383H42.9112V98.0127Z" fill="#EBEBEB"/>
<path d="M80.6424 98.0127H56.9363V113.383H80.6424V98.0127Z" fill="#EBEBEB"/>
<path d="M118.368 98.0127H94.6621V113.383H118.368V98.0127Z" fill="#EBEBEB"/>
<path d="M155.368 98.0127H131.661V113.383H155.368V98.0127Z" fill="#EBEBEB"/>
<path d="M42.9112 125.37H19.2051V140.741H42.9112V125.37Z" fill="#EBEBEB"/>
<path d="M80.6424 125.37H56.9363V140.741H80.6424V125.37Z" fill="#EBEBEB"/>
<path d="M118.368 125.37H94.6621V140.741H118.368V125.37Z" fill="#EBEBEB"/>
<path d="M80.6424 70.6606H56.9363V86.0311H80.6424V70.6606Z" fill="#EBEBEB"/>
<path d="M118.368 70.6606H94.6621V86.0311H118.368V70.6606Z" fill="#EBEBEB"/>
<path d="M156.093 70.6606H132.387V86.0311H156.093V70.6606Z" fill="#EBEBEB"/>
<path d="M28.3501 16.5541C26.3625 16.5541 24.7322 14.9294 24.7322 12.9362V3.61789C24.7322 1.63029 26.3569 0 28.3501 0C30.3377 0 31.968 1.6247 31.968 3.61789V12.9362C31.968 14.9294 30.3433 16.5541 28.3501 16.5541Z" fill="#EBEBEB"/>
<path d="M67.6904 129H31.4258V120.113L43.6279 107.774C47.1143 104.129 49.3929 101.645 50.4639 100.323C51.5348 98.9788 52.2754 97.8281 52.6855 96.8711C53.1185 95.9141 53.335 94.9115 53.335 93.8633C53.335 92.5645 52.9134 91.5391 52.0703 90.7871C51.2272 90.0352 50.0423 89.6592 48.5156 89.6592C46.9434 89.6592 45.3483 90.1149 43.7305 91.0264C42.1354 91.915 40.3239 93.2367 38.2959 94.9912L30.8789 86.3096C33.4538 84.0081 35.6185 82.3675 37.373 81.3877C39.1276 80.3851 41.0303 79.6217 43.0811 79.0977C45.1546 78.5736 47.4788 78.3115 50.0537 78.3115C53.2894 78.3115 56.1719 78.8812 58.7012 80.0205C61.2533 81.1598 63.2243 82.7891 64.6143 84.9082C66.027 87.0046 66.7334 89.363 66.7334 91.9834C66.7334 93.943 66.4827 95.7546 65.9814 97.418C65.5029 99.0814 64.751 100.722 63.7256 102.34C62.7002 103.935 61.333 105.621 59.624 107.398C57.9378 109.176 54.3262 112.548 48.7891 117.516V117.857H67.6904V129ZM74 129L91.1582 90.2744H69.5225V79.0977H105.582V87.0615L87.9795 129H74ZM142.927 104.083C142.927 112.924 141.446 119.407 138.483 123.531C135.521 127.633 130.987 129.684 124.88 129.684C118.91 129.684 114.41 127.542 111.379 123.258C108.348 118.951 106.833 112.56 106.833 104.083C106.833 95.1963 108.314 88.6794 111.276 84.5322C114.239 80.3851 118.773 78.3115 124.88 78.3115C130.827 78.3115 135.316 80.4762 138.347 84.8057C141.4 89.1123 142.927 95.5381 142.927 104.083ZM120.266 104.083C120.266 109.734 120.619 113.619 121.325 115.738C122.032 117.857 123.216 118.917 124.88 118.917C126.566 118.917 127.751 117.823 128.435 115.636C129.141 113.448 129.494 109.597 129.494 104.083C129.494 98.5459 129.141 94.6722 128.435 92.4619C127.728 90.2288 126.543 89.1123 124.88 89.1123C123.216 89.1123 122.032 90.1833 121.325 92.3252C120.619 94.4671 120.266 98.3864 120.266 104.083Z" fill="url(#paint1_linear)"/>
<path d="M47.4507 43H42.2432V27.9839H37.5366V23.7256H52.144V27.9839H47.4507V43ZM71.5846 33.3364C71.5846 36.5796 70.7892 39.0449 69.1983 40.7324C67.6075 42.4199 65.2784 43.2637 62.211 43.2637C59.1876 43.2637 56.8673 42.4155 55.2501 40.7192C53.6417 39.0229 52.8375 36.5532 52.8375 33.3101C52.8375 30.1021 53.6373 27.6543 55.2369 25.9668C56.8453 24.2705 59.1788 23.4224 62.2374 23.4224C65.3048 23.4224 67.6295 24.2617 69.2115 25.9404C70.7936 27.6191 71.5846 30.0845 71.5846 33.3364ZM58.3219 33.3364C58.3219 37.063 59.6183 38.9263 62.211 38.9263C63.5294 38.9263 64.505 38.4736 65.1378 37.5684C65.7794 36.6631 66.1002 35.2524 66.1002 33.3364C66.1002 31.4116 65.775 29.9922 65.1246 29.0781C64.483 28.1553 63.5206 27.6938 62.2374 27.6938C59.6271 27.6938 58.3219 29.5747 58.3219 33.3364ZM87.7028 29.856C87.7028 32.0093 87.0656 33.6748 85.7912 34.8525C84.5256 36.0215 82.7238 36.606 80.3859 36.606H78.9226V43H73.715V23.7256H80.3859C82.8205 23.7256 84.6486 24.2573 85.8703 25.3208C87.092 26.3843 87.7028 27.896 87.7028 29.856ZM78.9226 32.3608H79.8718C80.654 32.3608 81.2736 32.1411 81.7307 31.7017C82.1965 31.2622 82.4294 30.6558 82.4294 29.8823C82.4294 28.5815 81.7087 27.9312 80.2673 27.9312H78.9226V32.3608ZM105.424 43H100.138V32.7959C100.138 31.5566 100.164 30.4229 100.217 29.3945C99.8915 29.79 99.4872 30.2031 99.0038 30.6338L96.8153 32.4399L94.1127 29.1177L100.731 23.7256H105.424V43ZM122.347 33.3892C122.347 36.7993 121.775 39.2998 120.633 40.8906C119.49 42.4727 117.741 43.2637 115.386 43.2637C113.083 43.2637 111.347 42.4375 110.178 40.7852C109.009 39.124 108.425 36.6587 108.425 33.3892C108.425 29.9614 108.996 27.4478 110.139 25.8481C111.281 24.2485 113.03 23.4487 115.386 23.4487C117.68 23.4487 119.411 24.2837 120.58 25.9536C121.758 27.6147 122.347 30.0933 122.347 33.3892ZM113.606 33.3892C113.606 35.5688 113.742 37.0674 114.015 37.8848C114.287 38.7021 114.744 39.1108 115.386 39.1108C116.036 39.1108 116.493 38.689 116.757 37.8452C117.029 37.0015 117.166 35.5161 117.166 33.3892C117.166 31.2534 117.029 29.7593 116.757 28.9067C116.484 28.0454 116.027 27.6147 115.386 27.6147C114.744 27.6147 114.287 28.0278 114.015 28.854C113.742 29.6802 113.606 31.1919 113.606 33.3892ZM136.817 33.3892C136.817 36.7993 136.246 39.2998 135.103 40.8906C133.961 42.4727 132.212 43.2637 129.856 43.2637C127.553 43.2637 125.817 42.4375 124.649 40.7852C123.48 39.124 122.895 36.6587 122.895 33.3892C122.895 29.9614 123.466 27.4478 124.609 25.8481C125.752 24.2485 127.501 23.4487 129.856 23.4487C132.15 23.4487 133.881 24.2837 135.05 25.9536C136.228 27.6147 136.817 30.0933 136.817 33.3892ZM128.076 33.3892C128.076 35.5688 128.213 37.0674 128.485 37.8848C128.757 38.7021 129.214 39.1108 129.856 39.1108C130.506 39.1108 130.963 38.689 131.227 37.8452C131.5 37.0015 131.636 35.5161 131.636 33.3892C131.636 31.2534 131.5 29.7593 131.227 28.9067C130.955 28.0454 130.498 27.6147 129.856 27.6147C129.214 27.6147 128.757 28.0278 128.485 28.854C128.213 29.6802 128.076 31.1919 128.076 33.3892Z" fill="#EEEBE8"/>
<path d="M177.526 118.604L121.561 165.592C121.561 165.592 124.341 156.659 124.894 150.931C125.24 147.29 124.765 144.047 124.989 138.798C125.625 124.07 134.787 121.167 139.153 119.386C145.847 116.656 156.087 120.1 162.435 120.296C165.115 120.374 175.304 120.899 177.526 118.604Z" fill="#E7E6E6"/>
<defs>
<linearGradient id="paint0_linear" x1="89.7288" y1="5.64404" x2="89.7288" y2="47.3336" gradientUnits="userSpaceOnUse">
<stop stop-color="#FF1D1D"/>
<stop offset="1" stop-color="#FF4172"/>
</linearGradient>
<linearGradient id="paint1_linear" x1="87.3643" y1="54" x2="87.3643" y2="149" gradientUnits="userSpaceOnUse">
<stop stop-color="#FFC700"/>
<stop offset="1" stop-color="#FF4070"/>
</linearGradient>
</defs>
</svg>
