<svg width="251" height="273" viewBox="0 0 251 273" fill="none" xmlns="http://www.w3.org/2000/svg">
<path d="M118.361 217.719C118.361 220.552 117.497 222.99 115.767 225.031C114.038 227.052 111.538 228.521 108.267 229.438V229.625C115.892 230.583 119.705 234.188 119.705 240.438C119.705 244.688 118.017 248.031 114.642 250.469C111.288 252.906 106.622 254.125 100.642 254.125C98.1841 254.125 95.9029 253.948 93.7987 253.594C91.7154 253.24 89.455 252.594 87.0175 251.656V241.406C89.0175 242.427 91.0487 243.188 93.1112 243.688C95.1946 244.167 97.1112 244.406 98.8612 244.406C101.57 244.406 103.538 244.031 104.767 243.281C106.017 242.51 106.642 241.312 106.642 239.688C106.642 238.438 106.32 237.479 105.674 236.812C105.028 236.125 103.986 235.615 102.549 235.281C101.111 234.927 99.2362 234.75 96.9237 234.75H94.1112V225.469H96.9862C103.257 225.469 106.392 223.865 106.392 220.656C106.392 219.448 105.924 218.552 104.986 217.969C104.07 217.385 102.83 217.094 101.267 217.094C98.3508 217.094 95.33 218.073 92.205 220.031L87.08 211.781C89.4966 210.115 91.9654 208.927 94.4862 208.219C97.0279 207.51 99.9341 207.156 103.205 207.156C107.934 207.156 111.642 208.094 114.33 209.969C117.017 211.844 118.361 214.427 118.361 217.719ZM139.88 223.562C142.505 223.562 144.87 224.177 146.974 225.406C149.099 226.615 150.745 228.333 151.911 230.562C153.099 232.792 153.692 235.365 153.692 238.281C153.692 243.385 152.151 247.302 149.067 250.031C146.005 252.76 141.359 254.125 135.13 254.125C129.797 254.125 125.442 253.302 122.067 251.656V241.531C123.88 242.365 125.922 243.052 128.192 243.594C130.484 244.135 132.453 244.406 134.099 244.406C136.39 244.406 138.151 243.927 139.38 242.969C140.609 241.99 141.224 240.552 141.224 238.656C141.224 236.906 140.599 235.542 139.349 234.562C138.099 233.583 136.203 233.094 133.661 233.094C131.724 233.094 129.63 233.458 127.38 234.188L122.849 231.938L124.567 207.812H150.63V218.094H135.067L134.505 224.125C136.13 223.812 137.286 223.646 137.974 223.625C138.661 223.583 139.297 223.562 139.88 223.562Z" fill="url(#paint0_linear)"/>
<path d="M120.221 5.16714C104.298 21.9141 93.865 64.1933 93.865 64.1933C111.71 72.7041 104.847 95.491 89.4724 102.08C77.9417 107.022 60.0966 97.6872 57.9002 85.0584C56.253 75.724 61.1947 68.5859 67.2346 62.5461C67.2346 62.5461 11.7775 44.7009 3.54128 36.7393C3.54128 36.7393 -0.851373 35.3666 1.34495 42.5046C3.54127 49.9172 44.4478 166.322 44.4478 166.322L116.926 168.519H133.948L206.427 166.322C206.427 166.322 247.333 49.6427 249.529 42.5046C251.726 35.0921 247.333 36.7393 247.333 36.7393C238.822 44.7009 183.64 62.5461 183.64 62.5461C189.954 68.8605 194.621 75.9986 192.974 85.0584C190.778 97.6872 172.933 107.022 161.402 102.08C146.028 95.491 139.164 72.4295 157.009 64.1933C157.009 64.1933 146.851 21.9141 130.653 5.16714L125.437 0.5L120.221 5.16714Z" fill="url(#paint1_linear)"/>
<path d="M212.466 171.538C212.466 175.931 208.897 179.5 204.504 179.5H45.5454C41.1527 179.5 37.5837 175.931 37.5837 171.538C37.5837 167.146 41.1527 163.577 45.5454 163.577H204.504C208.897 163.851 212.466 167.146 212.466 171.538Z" fill="url(#paint2_linear)"/>
<path d="M7.6604 44.4271L10.1312 46.3489C10.9549 46.898 12.053 47.4471 12.8766 47.9961C13.7003 48.5452 14.7984 49.0943 15.6221 49.3688C16.4457 49.9179 17.5439 50.1925 18.642 50.7415C20.5638 51.5652 22.4856 52.3888 24.6819 53.2124L30.7218 55.4088L42.8015 59.5269C44.7233 60.3505 46.9197 60.625 48.8414 61.4486L54.8813 63.0959C55.4304 63.0959 55.7049 63.6449 55.4304 64.194C54.6068 66.9394 53.7832 69.9593 52.685 72.4302C51.5868 75.1756 51.0377 77.921 50.4887 80.3919C50.2141 83.1373 50.4887 85.8827 51.5868 88.3536C52.1359 89.7263 52.685 90.8244 53.5086 91.9226C54.3322 93.2953 55.1558 94.3934 55.9795 95.4916C56.8031 96.5897 57.9013 97.6879 58.7249 98.5115C59.823 99.3352 60.6467 100.433 61.7448 101.257C62.843 102.081 63.9411 102.904 65.0393 103.728C66.1375 104.551 67.5102 105.101 68.6083 105.65C71.0792 106.748 73.8246 107.571 76.57 108.12C79.3154 108.395 82.0608 108.67 84.8062 108.12C87.5516 107.571 90.0225 106.748 92.4933 105.375C93.866 104.826 94.6897 104.002 96.0624 103.179C97.1605 102.355 98.2587 101.532 99.0823 100.433C101.004 98.5116 102.651 96.0407 103.75 93.8444C104.848 91.3735 105.946 88.6281 106.495 85.8827C106.769 84.51 106.769 83.1373 107.044 81.7646C107.044 80.3919 107.044 79.0192 107.044 77.6465C106.769 74.9011 105.946 72.1557 104.848 69.6848C103.749 67.2139 102.377 64.7431 101.004 61.9977C100.73 61.4486 100.455 60.625 100.18 59.8013C99.9059 58.9777 99.9059 57.8796 100.18 57.3305C100.455 55.6832 101.279 54.5851 101.828 53.2124C102.651 51.2906 103.2 49.0943 104.024 47.1725L106.495 41.1326L108.966 35.0927C109.24 33.9945 109.789 33.171 110.338 32.0728L111.711 29.0529C112.809 27.1311 113.633 25.2093 114.731 23.2875L118.026 17.7967L124.34 6.54053C122.418 10.3841 120.496 14.2277 118.575 18.0713L115.555 23.8366C114.457 25.7584 113.633 27.6801 112.809 29.6019L111.437 32.6219C110.888 33.4455 110.613 34.5437 110.064 35.6418L107.868 41.6817L105.397 47.7216C104.573 49.6434 104.024 51.8397 103.2 53.7615C102.651 55.1342 102.102 56.5069 101.828 57.605C101.553 58.7032 102.102 59.8013 102.651 61.174C104.024 63.6449 105.397 66.1158 106.769 68.8612C108.142 71.6066 108.966 74.352 109.24 77.372C109.515 79.0192 109.515 80.3919 109.515 81.7646C109.24 83.1373 109.24 84.7845 108.966 86.1572C108.417 89.1772 107.319 91.9226 106.22 94.668C104.848 97.4134 103.2 99.8843 101.004 102.081C99.9059 103.179 98.8077 104.002 97.7096 105.1C96.3369 105.924 95.2387 107.022 93.866 107.571C91.1206 109.219 88.3752 110.042 85.3553 110.591C82.3353 111.14 79.3154 111.14 76.2955 110.591C73.5501 110.042 70.5301 109.219 67.7847 107.846C66.412 107.297 65.0393 106.473 63.9412 105.65C62.5685 104.826 61.4703 104.002 60.3721 103.179C59.274 102.355 58.1758 101.257 57.0777 100.159C55.9795 99.0606 55.1559 97.9624 54.0577 96.8643C53.2341 95.7661 52.1359 94.3934 51.5868 93.0207C50.7632 91.9226 50.2141 90.2753 49.665 88.9026C48.2923 86.1572 48.2923 82.8628 48.2923 79.8428C48.8414 76.8229 49.6651 74.0775 50.7632 71.3321C51.8614 68.5867 52.685 65.8413 53.5086 63.3704L54.0577 64.4686L47.7433 62.5467C45.5469 61.9977 43.6252 61.4486 41.7034 60.625C37.5853 59.2523 33.4672 57.605 29.6236 56.2323L23.5837 53.7615C21.6619 52.9379 19.7401 52.1143 17.5438 51.0161C16.4457 50.467 15.622 50.1925 14.7984 49.6434C13.9748 49.0943 12.8766 48.5452 12.053 47.9961C11.2294 47.4471 10.1312 46.8979 9.30762 46.0743L7.6604 44.4271Z" fill="#5A3602"/>
<path d="M244.039 44.4264L241.568 46.6227C240.745 47.1717 239.921 47.9954 238.823 48.5445C237.999 49.0936 236.901 49.6426 236.077 50.1917C235.254 50.7407 234.156 51.2898 233.332 51.5644C231.41 52.6625 229.489 53.2116 227.292 54.3098L221.252 56.7807C217.409 58.4279 213.291 59.8006 209.173 61.1733C207.251 61.9969 205.054 62.546 203.133 63.0951L196.818 65.0169L197.367 63.9187C198.191 66.6641 199.015 69.4095 200.113 71.8804C201.211 74.6258 202.035 77.3711 202.584 80.3911C202.858 83.411 202.584 86.7056 201.211 89.451C200.662 90.8237 200.113 92.4709 199.289 93.5691C198.74 94.9418 197.642 96.0399 196.818 97.4126C195.995 98.7853 194.896 99.609 193.798 100.707C192.7 101.805 191.602 102.903 190.504 103.727C189.406 104.551 188.033 105.649 186.935 106.198C185.562 107.022 184.464 107.845 183.091 108.394C180.346 109.767 177.326 110.591 174.58 111.14C171.561 111.689 168.541 111.689 165.521 111.14C162.501 110.591 159.481 109.767 157.01 108.12C155.637 107.571 154.539 106.472 153.166 105.649C152.068 104.551 150.695 103.727 149.872 102.629C147.675 100.433 146.028 97.9617 144.656 95.2163C143.283 92.4709 142.185 89.7255 141.91 86.7056C141.636 85.3329 141.636 83.6856 141.361 82.3129C141.361 80.6657 141.361 79.2929 141.636 77.9202C141.91 74.9003 143.008 71.8803 144.106 69.4095C145.479 66.6641 146.852 64.1932 148.225 61.7224C148.774 60.3497 149.323 59.5261 149.048 58.1534C148.774 57.0552 148.225 55.6825 147.676 54.3098C146.852 52.388 146.303 50.1917 145.479 48.2699L143.008 42.23L140.812 36.1902C140.537 35.092 139.988 34.2684 139.439 33.1702L138.067 30.1502C137.243 28.2285 136.145 26.3067 135.321 24.3849L132.301 18.6195C130.379 14.7759 128.458 10.9324 126.536 7.08887L132.85 18.345L136.145 23.8358C137.243 25.7576 138.067 27.6793 139.165 29.6011L140.537 32.6211C141.087 33.4447 141.361 34.5429 141.91 35.641L144.381 41.681L146.852 47.7208C147.675 49.6426 148.499 51.8389 149.048 53.7607C149.597 55.1334 150.146 56.5061 150.695 57.8788C150.97 58.7024 150.97 59.5261 150.695 60.6242C150.421 61.4479 150.146 62.2714 149.872 62.8205C148.499 65.5659 147.126 68.0368 146.028 70.5077C144.93 72.9786 144.107 75.724 143.832 78.4694C143.557 79.8421 143.557 81.2148 143.832 82.5875C144.107 83.9602 144.106 85.3329 144.381 86.7056C144.93 89.451 145.754 91.9218 147.126 94.6672C148.499 97.1381 149.872 99.3344 151.794 101.256C152.617 102.354 153.715 103.178 154.814 104.002C155.912 104.825 157.01 105.649 158.383 106.198C160.853 107.571 163.324 108.394 166.07 108.943C168.815 109.492 171.56 109.218 174.306 108.943C177.051 108.394 179.797 107.571 182.268 106.472C183.64 105.923 184.738 105.374 185.837 104.551C186.935 104.002 188.033 102.903 189.131 102.08C190.229 101.256 191.327 100.158 192.151 99.3344C192.975 98.2363 194.073 97.4126 194.896 96.3145C195.72 95.2163 196.544 94.1181 197.367 92.7454C198.191 91.3727 198.74 90.2746 199.289 89.1764C200.387 86.7055 200.662 83.9602 200.387 81.2148C200.113 78.4694 199.289 75.724 198.191 73.2531C197.093 70.5077 196.269 67.7623 195.446 65.0169C195.446 64.4678 195.72 63.9187 195.995 63.9187L202.034 62.2715C203.956 61.7224 206.153 61.1733 208.074 60.3497L220.154 56.2316L226.194 54.0353C228.116 53.2117 230.312 52.6625 232.234 51.5644C233.332 51.0153 234.156 50.7407 235.254 50.1917C236.077 49.6426 237.176 49.368 237.999 48.8189C238.823 48.2699 239.921 47.7209 240.745 47.1718L244.039 44.4264Z" fill="#5A3602"/>
<path d="M100.655 90.3002C100.955 90.3002 101.155 90.3002 101.455 90.4002L101.555 89.9002C101.555 89.9002 100.855 89.7002 99.8548 89.8002L99.7548 89.5002C100.055 89.4002 100.255 89.2002 100.255 88.9002C100.255 88.5002 99.9548 88.2002 99.5548 88.2002C99.1548 88.2002 98.8548 88.5002 98.8548 88.9002C98.8548 89.2002 99.0548 89.5002 99.3548 89.5002L99.4548 89.8002C98.4548 89.9002 97.6548 90.3002 97.6548 90.3002L97.7548 90.7002C98.3548 90.5002 98.9548 90.4002 99.3548 90.3002C100.055 90.3002 100.355 90.3002 100.655 90.3002Z" fill="#4C4C4C"/>
<path d="M85.8452 148.5H78.9019V128.479H72.6265V122.801H92.103V128.479H85.8452V148.5ZM118.024 135.615C118.024 139.939 116.963 143.227 114.842 145.477C112.721 147.727 109.616 148.852 105.526 148.852C101.494 148.852 98.4007 147.721 96.2444 145.459C94.0999 143.197 93.0276 139.904 93.0276 135.58C93.0276 131.303 94.094 128.039 96.2269 125.789C98.3714 123.527 101.483 122.396 105.561 122.396C109.651 122.396 112.75 123.516 114.86 125.754C116.969 127.992 118.024 131.279 118.024 135.615ZM100.34 135.615C100.34 140.584 102.069 143.068 105.526 143.068C107.283 143.068 108.584 142.465 109.428 141.258C110.283 140.051 110.711 138.17 110.711 135.615C110.711 133.049 110.278 131.156 109.41 129.938C108.555 128.707 107.272 128.092 105.561 128.092C102.08 128.092 100.34 130.6 100.34 135.615ZM139.515 130.975C139.515 133.846 138.665 136.066 136.966 137.637C135.278 139.195 132.876 139.975 129.759 139.975H127.808V148.5H120.864V122.801H129.759C133.005 122.801 135.442 123.51 137.071 124.928C138.7 126.346 139.515 128.361 139.515 130.975ZM127.808 134.314H129.073C130.116 134.314 130.942 134.021 131.552 133.436C132.173 132.85 132.483 132.041 132.483 131.01C132.483 129.275 131.523 128.408 129.601 128.408H127.808V134.314ZM163.143 148.5H156.094V134.895C156.094 133.242 156.13 131.73 156.2 130.359C155.766 130.887 155.227 131.438 154.583 132.012L151.665 134.42L148.061 129.99L156.885 122.801H163.143V148.5ZM185.707 135.686C185.707 140.232 184.945 143.566 183.421 145.688C181.898 147.797 179.566 148.852 176.425 148.852C173.355 148.852 171.041 147.75 169.482 145.547C167.923 143.332 167.144 140.045 167.144 135.686C167.144 131.115 167.906 127.764 169.429 125.631C170.953 123.498 173.285 122.432 176.425 122.432C179.484 122.432 181.792 123.545 183.351 125.771C184.921 127.986 185.707 131.291 185.707 135.686ZM174.052 135.686C174.052 138.592 174.234 140.59 174.597 141.68C174.96 142.77 175.57 143.314 176.425 143.314C177.292 143.314 177.902 142.752 178.253 141.627C178.617 140.502 178.798 138.521 178.798 135.686C178.798 132.838 178.617 130.846 178.253 129.709C177.89 128.561 177.281 127.986 176.425 127.986C175.57 127.986 174.96 128.537 174.597 129.639C174.234 130.74 174.052 132.756 174.052 135.686Z" fill="url(#paint3_linear)"/>
<defs>
<linearGradient id="paint0_linear" x1="120.73" y1="185.5" x2="120.73" y2="272.5" gradientUnits="userSpaceOnUse">
<stop stop-color="#FFC700"/>
<stop offset="1" stop-color="#FC9517"/>
</linearGradient>
<linearGradient id="paint1_linear" x1="125.437" y1="0.5" x2="125.437" y2="168.519" gradientUnits="userSpaceOnUse">
<stop stop-color="#FFC700"/>
<stop offset="1" stop-color="#FC9517"/>
</linearGradient>
<linearGradient id="paint2_linear" x1="125.025" y1="163.577" x2="125.025" y2="179.5" gradientUnits="userSpaceOnUse">
<stop stop-color="#8F5A2D"/>
<stop offset="1" stop-color="#351B06"/>
</linearGradient>
<linearGradient id="paint3_linear" x1="129.73" y1="110.5" x2="129.73" y2="159.5" gradientUnits="userSpaceOnUse">
<stop stop-color="#8F5A2D"/>
<stop offset="1" stop-color="#351B06"/>
</linearGradient>
</defs>
</svg>
