<svg width="250" height="273" viewBox="0 0 250 273" fill="none" xmlns="http://www.w3.org/2000/svg">
<path d="M117.947 217.719C117.947 220.552 117.082 222.99 115.353 225.031C113.624 227.052 111.124 228.521 107.853 229.438V229.625C115.478 230.583 119.29 234.188 119.29 240.438C119.29 244.688 117.603 248.031 114.228 250.469C110.874 252.906 106.207 254.125 100.228 254.125C97.7696 254.125 95.4883 253.948 93.3842 253.594C91.3008 253.24 89.0404 252.594 86.6029 251.656V241.406C88.6029 242.427 90.6342 243.188 92.6967 243.688C94.78 244.167 96.6967 244.406 98.4467 244.406C101.155 244.406 103.124 244.031 104.353 243.281C105.603 242.51 106.228 241.312 106.228 239.688C106.228 238.438 105.905 237.479 105.259 236.812C104.613 236.125 103.572 235.615 102.134 235.281C100.697 234.927 98.8217 234.75 96.5092 234.75H93.6967V225.469H96.5717C102.843 225.469 105.978 223.865 105.978 220.656C105.978 219.448 105.509 218.552 104.572 217.969C103.655 217.385 102.415 217.094 100.853 217.094C97.9363 217.094 94.9154 218.073 91.7904 220.031L86.6654 211.781C89.0821 210.115 91.5508 208.927 94.0717 208.219C96.6133 207.51 99.5196 207.156 102.79 207.156C107.52 207.156 111.228 208.094 113.915 209.969C116.603 211.844 117.947 214.427 117.947 217.719ZM153.965 230.719C153.965 238.802 152.611 244.729 149.903 248.5C147.195 252.25 143.049 254.125 137.465 254.125C132.007 254.125 127.893 252.167 125.122 248.25C122.351 244.312 120.965 238.469 120.965 230.719C120.965 222.594 122.32 216.635 125.028 212.844C127.736 209.052 131.882 207.156 137.465 207.156C142.903 207.156 147.007 209.135 149.778 213.094C152.57 217.031 153.965 222.906 153.965 230.719ZM133.247 230.719C133.247 235.885 133.57 239.438 134.215 241.375C134.861 243.312 135.945 244.281 137.465 244.281C139.007 244.281 140.09 243.281 140.715 241.281C141.361 239.281 141.684 235.76 141.684 230.719C141.684 225.656 141.361 222.115 140.715 220.094C140.07 218.052 138.986 217.031 137.465 217.031C135.945 217.031 134.861 218.01 134.215 219.969C133.57 221.927 133.247 225.51 133.247 230.719Z" fill="url(#paint0_linear)"/>
<path d="M119.806 5.16714C103.883 21.9141 93.4505 64.1933 93.4505 64.1933C111.296 72.7041 104.432 95.491 89.0578 102.08C77.5271 107.022 59.682 97.6872 57.4857 85.0584C55.8384 75.724 60.7802 68.5859 66.8201 62.5461C66.8201 62.5461 11.3629 44.7009 3.12673 36.7393C3.12673 36.7393 -1.26592 35.3666 0.930399 42.5046C3.12672 49.9172 44.0332 166.322 44.0332 166.322L116.512 168.519H133.533L206.012 166.322C206.012 166.322 246.919 49.6427 249.115 42.5046C251.311 35.0921 246.919 36.7393 246.919 36.7393C238.408 44.7009 183.225 62.5461 183.225 62.5461C189.54 68.8605 194.207 75.9986 192.56 85.0584C190.363 97.6872 172.518 107.022 160.987 102.08C145.613 95.491 138.75 72.4295 156.595 64.1933C156.595 64.1933 146.437 21.9141 130.239 5.16714L125.023 0.5L119.806 5.16714Z" fill="url(#paint1_linear)"/>
<path d="M212.051 171.538C212.051 175.931 208.482 179.5 204.09 179.5H45.1308C40.7382 179.5 37.1692 175.931 37.1692 171.538C37.1692 167.146 40.7382 163.577 45.1308 163.577H204.09C208.482 163.851 212.051 167.146 212.051 171.538Z" fill="url(#paint2_linear)"/>
<path d="M7.24585 44.4271L9.7167 46.3489C10.5403 46.898 11.6385 47.4471 12.4621 47.9961C13.2857 48.5452 14.3839 49.0943 15.2075 49.3688C16.0311 49.9179 17.1293 50.1925 18.2275 50.7415C20.1492 51.5652 22.071 52.3888 24.2673 53.2124L30.3072 55.4088L42.387 59.5269C44.3088 60.3505 46.5051 60.625 48.4269 61.4486L54.4668 63.0959C55.0159 63.0959 55.2904 63.6449 55.0158 64.194C54.1922 66.9394 53.3686 69.9593 52.2704 72.4302C51.1723 75.1756 50.6232 77.921 50.0741 80.3919C49.7996 83.1373 50.0741 85.8827 51.1723 88.3536C51.7214 89.7263 52.2705 90.8244 53.0941 91.9226C53.9177 93.2953 54.7413 94.3934 55.5649 95.4916C56.3885 96.5897 57.4867 97.6879 58.3103 98.5115C59.4085 99.3352 60.2321 100.433 61.3303 101.257C62.4284 102.081 63.5266 102.904 64.6248 103.728C65.7229 104.551 67.0956 105.101 68.1938 105.65C70.6646 106.748 73.41 107.571 76.1554 108.12C78.9008 108.395 81.6462 108.67 84.3916 108.12C87.1371 107.571 89.6079 106.748 92.0788 105.375C93.4515 104.826 94.2751 104.002 95.6478 103.179C96.746 102.355 97.8441 101.532 98.6677 100.433C100.59 98.5116 102.237 96.0407 103.335 93.8444C104.433 91.3735 105.531 88.6281 106.08 85.8827C106.355 84.51 106.355 83.1373 106.629 81.7646C106.629 80.3919 106.629 79.0192 106.629 77.6465C106.355 74.9011 105.531 72.1557 104.433 69.6848C103.335 67.2139 101.962 64.7431 100.59 61.9977C100.315 61.4486 100.04 60.625 99.7659 59.8013C99.4914 58.9777 99.4914 57.8796 99.7659 57.3305C100.04 55.6832 100.864 54.5851 101.413 53.2124C102.237 51.2906 102.786 49.0943 103.609 47.1725L106.08 41.1326L108.551 35.0927C108.826 33.9945 109.375 33.171 109.924 32.0728L111.297 29.0529C112.395 27.1311 113.218 25.2093 114.317 23.2875L117.611 17.7967L123.925 6.54053C122.004 10.3841 120.082 14.2277 118.16 18.0713L115.14 23.8366C114.042 25.7584 113.218 27.6801 112.395 29.6019L111.022 32.6219C110.473 33.4455 110.198 34.5437 109.649 35.6418L107.453 41.6817L104.982 47.7216C104.159 49.6434 103.609 51.8397 102.786 53.7615C102.237 55.1342 101.688 56.5069 101.413 57.605C101.139 58.7032 101.688 59.8013 102.237 61.174C103.609 63.6449 104.982 66.1158 106.355 68.8612C107.728 71.6066 108.551 74.352 108.826 77.372C109.1 79.0192 109.1 80.3919 109.1 81.7646C108.826 83.1373 108.826 84.7845 108.551 86.1572C108.002 89.1772 106.904 91.9226 105.806 94.668C104.433 97.4134 102.786 99.8843 100.59 102.081C99.4914 103.179 98.3932 104.002 97.295 105.1C95.9223 105.924 94.8242 107.022 93.4515 107.571C90.7061 109.219 87.9607 110.042 84.9407 110.591C81.9208 111.14 78.9009 111.14 75.8809 110.591C73.1355 110.042 70.1156 109.219 67.3702 107.846C65.9975 107.297 64.6248 106.473 63.5266 105.65C62.1539 104.826 61.0557 104.002 59.9576 103.179C58.8594 102.355 57.7613 101.257 56.6631 100.159C55.5649 99.0606 54.7413 97.9624 53.6431 96.8643C52.8195 95.7661 51.7214 94.3934 51.1723 93.0207C50.3487 91.9226 49.7996 90.2753 49.2505 88.9026C47.8778 86.1572 47.8778 82.8628 47.8778 79.8428C48.4269 76.8229 49.2505 74.0775 50.3487 71.3321C51.4468 68.5867 52.2705 65.8413 53.0941 63.3704L53.6431 64.4686L47.3287 62.5467C45.1324 61.9977 43.2106 61.4486 41.2888 60.625C37.1707 59.2523 33.0526 57.605 29.2091 56.2323L23.1692 53.7615C21.2474 52.9379 19.3256 52.1143 17.1293 51.0161C16.0311 50.467 15.2075 50.1925 14.3839 49.6434C13.5603 49.0943 12.4621 48.5452 11.6385 47.9961C10.8148 47.4471 9.71669 46.8979 8.89307 46.0743L7.24585 44.4271Z" fill="#5A3602"/>
<path d="M243.625 44.4264L241.154 46.6227C240.33 47.1717 239.506 47.9954 238.408 48.5445C237.585 49.0936 236.487 49.6426 235.663 50.1917C234.839 50.7407 233.741 51.2898 232.918 51.5644C230.996 52.6625 229.074 53.2116 226.878 54.3098L220.838 56.7807C216.994 58.4279 212.876 59.8006 208.758 61.1733C206.836 61.9969 204.64 62.546 202.718 63.0951L196.404 65.0169L196.953 63.9187C197.776 66.6641 198.6 69.4095 199.698 71.8804C200.796 74.6258 201.62 77.3711 202.169 80.3911C202.444 83.411 202.169 86.7056 200.796 89.451C200.247 90.8237 199.698 92.4709 198.875 93.5691C198.325 94.9418 197.227 96.0399 196.404 97.4126C195.58 98.7853 194.482 99.609 193.384 100.707C192.286 101.805 191.187 102.903 190.089 103.727C188.991 104.551 187.618 105.649 186.52 106.198C185.148 107.022 184.049 107.845 182.677 108.394C179.931 109.767 176.911 110.591 174.166 111.14C171.146 111.689 168.126 111.689 165.106 111.14C162.086 110.591 159.066 109.767 156.595 108.12C155.223 107.571 154.124 106.472 152.752 105.649C151.654 104.551 150.281 103.727 149.457 102.629C147.261 100.433 145.614 97.9617 144.241 95.2163C142.868 92.4709 141.77 89.7255 141.496 86.7056C141.221 85.3329 141.221 83.6856 140.947 82.3129C140.947 80.6657 140.947 79.2929 141.221 77.9202C141.496 74.9003 142.594 71.8803 143.692 69.4095C145.065 66.6641 146.437 64.1932 147.81 61.7224C148.359 60.3497 148.908 59.5261 148.634 58.1534C148.359 57.0552 147.81 55.6825 147.261 54.3098C146.437 52.388 145.888 50.1917 145.065 48.2699L142.594 42.23L140.397 36.1902C140.123 35.092 139.574 34.2684 139.025 33.1702L137.652 30.1502C136.828 28.2285 135.73 26.3067 134.907 24.3849L131.887 18.6195C129.965 14.7759 128.043 10.9324 126.121 7.08887L132.436 18.345L135.73 23.8358C136.828 25.7576 137.652 27.6793 138.75 29.6011L140.123 32.6211C140.672 33.4447 140.947 34.5429 141.496 35.641L143.966 41.681L146.437 47.7208C147.261 49.6426 148.085 51.8389 148.634 53.7607C149.183 55.1334 149.732 56.5061 150.281 57.8788C150.555 58.7024 150.555 59.5261 150.281 60.6242C150.006 61.4479 149.732 62.2714 149.457 62.8205C148.085 65.5659 146.712 68.0368 145.614 70.5077C144.516 72.9786 143.692 75.724 143.417 78.4694C143.143 79.8421 143.143 81.2148 143.417 82.5875C143.692 83.9602 143.692 85.3329 143.966 86.7056C144.516 89.451 145.339 91.9218 146.712 94.6672C148.085 97.1381 149.457 99.3344 151.379 101.256C152.203 102.354 153.301 103.178 154.399 104.002C155.497 104.825 156.595 105.649 157.968 106.198C160.439 107.571 162.91 108.394 165.655 108.943C168.401 109.492 171.146 109.218 173.891 108.943C176.637 108.394 179.382 107.571 181.853 106.472C183.226 105.923 184.324 105.374 185.422 104.551C186.52 104.002 187.618 102.903 188.717 102.08C189.815 101.256 190.913 100.158 191.736 99.3344C192.56 98.2363 193.658 97.4126 194.482 96.3145C195.305 95.2163 196.129 94.1181 196.953 92.7454C197.776 91.3727 198.325 90.2746 198.875 89.1764C199.973 86.7055 200.247 83.9602 199.973 81.2148C199.698 78.4694 198.875 75.724 197.776 73.2531C196.678 70.5077 195.855 67.7623 195.031 65.0169C195.031 64.4678 195.306 63.9187 195.58 63.9187L201.62 62.2715C203.542 61.7224 205.738 61.1733 207.66 60.3497L219.74 56.2316L225.78 54.0353C227.701 53.2117 229.898 52.6625 231.819 51.5644C232.918 51.0153 233.741 50.7407 234.839 50.1917C235.663 49.6426 236.761 49.368 237.585 48.8189C238.408 48.2699 239.507 47.7209 240.33 47.1718L243.625 44.4264Z" fill="#5A3602"/>
<path d="M100.24 90.3002C100.54 90.3002 100.74 90.3002 101.04 90.4002L101.14 89.9002C101.14 89.9002 100.44 89.7002 99.4402 89.8002L99.3402 89.5002C99.6402 89.4002 99.8402 89.2002 99.8402 88.9002C99.8402 88.5002 99.5402 88.2002 99.1402 88.2002C98.7402 88.2002 98.4402 88.5002 98.4402 88.9002C98.4402 89.2002 98.6402 89.5002 98.9402 89.5002L99.0402 89.8002C98.0402 89.9002 97.2402 90.3002 97.2402 90.3002L97.3402 90.7002C97.9402 90.5002 98.5402 90.4002 98.9402 90.3002C99.6402 90.3002 99.9402 90.3002 100.24 90.3002Z" fill="#4C4C4C"/>
<path d="M85.4307 148.5H78.4873V128.479H72.2119V122.801H91.6885V128.479H85.4307V148.5ZM117.609 135.615C117.609 139.939 116.549 143.227 114.428 145.477C112.306 147.727 109.201 148.852 105.111 148.852C101.08 148.852 97.9861 147.721 95.8299 145.459C93.6854 143.197 92.6131 139.904 92.6131 135.58C92.6131 131.303 93.6795 128.039 95.8123 125.789C97.9568 123.527 101.068 122.396 105.146 122.396C109.236 122.396 112.336 123.516 114.445 125.754C116.554 127.992 117.609 131.279 117.609 135.615ZM99.9256 135.615C99.9256 140.584 101.654 143.068 105.111 143.068C106.869 143.068 108.17 142.465 109.013 141.258C109.869 140.051 110.297 138.17 110.297 135.615C110.297 133.049 109.863 131.156 108.996 129.938C108.14 128.707 106.857 128.092 105.146 128.092C101.666 128.092 99.9256 130.6 99.9256 135.615ZM139.1 130.975C139.1 133.846 138.251 136.066 136.551 137.637C134.864 139.195 132.462 139.975 129.344 139.975H127.393V148.5H120.45V122.801H129.344C132.59 122.801 135.028 123.51 136.657 124.928C138.286 126.346 139.1 128.361 139.1 130.975ZM127.393 134.314H128.659C129.702 134.314 130.528 134.021 131.137 133.436C131.758 132.85 132.069 132.041 132.069 131.01C132.069 129.275 131.108 128.408 129.186 128.408H127.393V134.314ZM162.729 148.5H155.68V134.895C155.68 133.242 155.715 131.73 155.785 130.359C155.352 130.887 154.813 131.438 154.168 132.012L151.25 134.42L147.647 129.99L156.471 122.801H162.729V148.5ZM185.292 135.686C185.292 140.232 184.53 143.566 183.007 145.688C181.483 147.797 179.151 148.852 176.011 148.852C172.94 148.852 170.626 147.75 169.067 145.547C167.509 143.332 166.729 140.045 166.729 135.686C166.729 131.115 167.491 127.764 169.015 125.631C170.538 123.498 172.87 122.432 176.011 122.432C179.069 122.432 181.378 123.545 182.937 125.771C184.507 127.986 185.292 131.291 185.292 135.686ZM173.638 135.686C173.638 138.592 173.819 140.59 174.183 141.68C174.546 142.77 175.155 143.314 176.011 143.314C176.878 143.314 177.487 142.752 177.839 141.627C178.202 140.502 178.384 138.521 178.384 135.686C178.384 132.838 178.202 130.846 177.839 129.709C177.476 128.561 176.866 127.986 176.011 127.986C175.155 127.986 174.546 128.537 174.183 129.639C173.819 130.74 173.638 132.756 173.638 135.686Z" fill="url(#paint3_linear)"/>
<defs>
<linearGradient id="paint0_linear" x1="120.315" y1="185.5" x2="120.315" y2="272.5" gradientUnits="userSpaceOnUse">
<stop stop-color="#FFC700"/>
<stop offset="1" stop-color="#FC9517"/>
</linearGradient>
<linearGradient id="paint1_linear" x1="125.023" y1="0.5" x2="125.023" y2="168.519" gradientUnits="userSpaceOnUse">
<stop stop-color="#FFC700"/>
<stop offset="1" stop-color="#FC9517"/>
</linearGradient>
<linearGradient id="paint2_linear" x1="124.61" y1="163.577" x2="124.61" y2="179.5" gradientUnits="userSpaceOnUse">
<stop stop-color="#8F5A2D"/>
<stop offset="1" stop-color="#351B06"/>
</linearGradient>
<linearGradient id="paint3_linear" x1="129.315" y1="110.5" x2="129.315" y2="159.5" gradientUnits="userSpaceOnUse">
<stop stop-color="#8F5A2D"/>
<stop offset="1" stop-color="#351B06"/>
</linearGradient>
</defs>
</svg>
