<svg width="189" height="182" viewBox="0 0 189 182" fill="none" xmlns="http://www.w3.org/2000/svg">
<path d="M176.057 156.832L30.0966 181.789C22.0624 183.162 14.3632 177.713 12.9842 169.673C12.9842 169.673 -1.30875 21.8809 11.7224 19.6476C11.7224 19.6476 165.036 4.41113 167.264 17.4423L188.167 139.719C189.546 147.759 184.092 155.458 176.057 156.832Z" fill="#C8C8C8"/>
<path d="M167.783 162.074L20.3765 176.188C12.2586 176.964 4.98373 170.962 4.20767 162.844C4.20767 162.844 0.863352 14.3988 14.0229 13.137C14.0229 13.137 168.04 9.25671 169.302 22.4162L181.127 145.905C181.903 154.017 175.901 161.298 167.783 162.074Z" fill="#EDEDED"/>
<path d="M15.7874 156.781L149.097 176.189C157.215 176.965 164.49 170.963 165.266 162.845C165.266 162.845 168.61 14.3995 155.45 13.1377C155.45 13.1377 23.6038 9.77101 22.342 22.9305L8.49574 135.644C7.71968 143.762 7.66943 156 15.7874 156.781Z" fill="#EDEDED"/>
<path d="M163.39 166.037H15.3072C7.15578 166.037 0.483887 159.366 0.483887 151.214V29.6796C0.483887 16.4586 11.2985 5.64404 24.5194 5.64404H154.172C167.393 5.64404 178.207 16.4586 178.207 29.6796V151.214C178.213 159.371 171.541 166.037 163.39 166.037Z" fill="white"/>
<path d="M178.213 47.3336H0.483887V29.6796C0.483887 16.4586 11.2985 5.64404 24.5194 5.64404H154.172C167.393 5.64404 178.207 16.4586 178.207 29.6796V47.3336H178.213Z" fill="url(#paint0_linear)"/>
<path d="M29.4049 17.7707C27.4173 17.7707 25.787 16.146 25.787 14.1528V5.64404H33.0172V14.1584C33.0228 16.146 31.3981 17.7707 29.4049 17.7707Z" fill="#BF3A37"/>
<path d="M72.1883 17.7707C70.2007 17.7707 68.5704 16.146 68.5704 14.1528V5.64404H75.8006V14.1584C75.8062 16.146 74.1759 17.7707 72.1883 17.7707Z" fill="#BF3A37"/>
<path d="M112.204 17.7707C110.216 17.7707 108.586 16.146 108.586 14.1528V5.64404H115.816V14.1584C115.821 16.146 114.191 17.7707 112.204 17.7707Z" fill="#BF3A37"/>
<path d="M152.503 17.7713C150.515 17.7713 148.885 16.1466 148.885 14.1534C148.885 14.1534 148.885 6.26442 148.885 5.6391C148.885 5.06962 156.115 5.71727 156.115 5.71727V14.1534C156.115 16.1466 154.49 17.7713 152.503 17.7713Z" fill="#BF3A37"/>
<path d="M70.7647 16.5541C68.7771 16.5541 67.1469 14.9294 67.1469 12.9362V3.61789C67.1469 1.63029 68.7716 0 70.7647 0C72.7524 0 74.3826 1.6247 74.3826 3.61789V12.9362C74.3771 14.9294 72.7524 16.5541 70.7647 16.5541Z" fill="#EBEBEB"/>
<path d="M110.98 16.5541C108.993 16.5541 107.362 14.9294 107.362 12.9362V3.61789C107.362 1.63029 108.987 0 110.98 0C112.968 0 114.598 1.6247 114.598 3.61789V12.9362C114.593 14.9294 112.968 16.5541 110.98 16.5541Z" fill="#EBEBEB"/>
<path d="M151.196 16.5541C149.208 16.5541 147.578 14.9294 147.578 12.9362V3.61789C147.578 1.63029 149.203 0 151.196 0C153.184 0 154.814 1.6247 154.814 3.61789V12.9362C154.808 14.9294 153.184 16.5541 151.196 16.5541Z" fill="#EBEBEB"/>
<path d="M163.216 121.384L121.175 165.586C121.175 165.586 122.766 157.803 122.777 152.912C122.783 149.808 122.152 147.095 121.934 142.634C121.337 130.122 128.584 126.934 132.001 125.08C137.249 122.239 145.853 124.343 151.039 124.003C153.239 123.869 161.586 123.5 163.216 121.384Z" fill="#BABABA"/>
<path d="M42.531 70.6606H18.8248V86.0311H42.531V70.6606Z" fill="#EBEBEB"/>
<path d="M42.531 98.0127H18.8248V113.383H42.531V98.0127Z" fill="#EBEBEB"/>
<path d="M80.262 98.0127H56.5559V113.383H80.262V98.0127Z" fill="#EBEBEB"/>
<path d="M117.988 98.0127H94.2817V113.383H117.988V98.0127Z" fill="#EBEBEB"/>
<path d="M154.987 98.0127H131.281V113.383H154.987V98.0127Z" fill="#EBEBEB"/>
<path d="M42.531 125.37H18.8248V140.741H42.531V125.37Z" fill="#EBEBEB"/>
<path d="M80.262 125.37H56.5559V140.741H80.262V125.37Z" fill="#EBEBEB"/>
<path d="M117.988 125.37H94.2817V140.741H117.988V125.37Z" fill="#EBEBEB"/>
<path d="M80.262 70.6606H56.5559V86.0311H80.262V70.6606Z" fill="#EBEBEB"/>
<path d="M117.988 70.6606H94.2817V86.0311H117.988V70.6606Z" fill="#EBEBEB"/>
<path d="M155.713 70.6606H132.006V86.0311H155.713V70.6606Z" fill="#EBEBEB"/>
<path d="M27.9696 16.5541C25.982 16.5541 24.3517 14.9294 24.3517 12.9362V3.61789C24.3517 1.63029 25.9764 0 27.9696 0C29.9572 0 31.5875 1.6247 31.5875 3.61789V12.9362C31.5875 14.9294 29.9628 16.5541 27.9696 16.5541Z" fill="#EBEBEB"/>
<path d="M84.3931 89.8643C84.3931 92.9632 83.4474 95.6292 81.5562 97.8623C79.6649 100.073 76.9305 101.679 73.353 102.682V102.887C81.6929 103.935 85.8628 107.877 85.8628 114.713C85.8628 119.361 84.0171 123.019 80.3257 125.685C76.6571 128.351 71.5529 129.684 65.0132 129.684C62.3244 129.684 59.8293 129.49 57.5278 129.103C55.2492 128.715 52.7769 128.009 50.1108 126.983V115.772C52.2983 116.889 54.52 117.721 56.7759 118.268C59.0545 118.792 61.1509 119.054 63.0649 119.054C66.0272 119.054 68.1805 118.644 69.5249 117.823C70.8921 116.98 71.5757 115.67 71.5757 113.893C71.5757 112.525 71.2225 111.477 70.5161 110.748C69.8097 109.996 68.6704 109.438 67.0981 109.073C65.5259 108.686 63.4751 108.492 60.9458 108.492H57.8696V98.3408H61.0142C67.8729 98.3408 71.3022 96.5863 71.3022 93.0771C71.3022 91.7555 70.7896 90.7757 69.7642 90.1377C68.7616 89.4997 67.4058 89.1807 65.6968 89.1807C62.5067 89.1807 59.2026 90.2516 55.7847 92.3936L50.1792 83.3701C52.8224 81.5472 55.5226 80.2484 58.2798 79.4736C61.0597 78.6989 64.2384 78.3115 67.8159 78.3115C72.9884 78.3115 77.0444 79.3369 79.9839 81.3877C82.9233 83.4385 84.3931 86.264 84.3931 89.8643ZM123.789 104.083C123.789 112.924 122.307 119.407 119.345 123.531C116.383 127.633 111.848 129.684 105.742 129.684C99.7716 129.684 95.2713 127.542 92.2407 123.258C89.2101 118.951 87.6948 112.56 87.6948 104.083C87.6948 95.1963 89.1759 88.6794 92.1382 84.5322C95.1004 80.3851 99.6349 78.3115 105.742 78.3115C111.689 78.3115 116.178 80.4762 119.208 84.8057C122.262 89.1123 123.789 95.5381 123.789 104.083ZM101.127 104.083C101.127 109.734 101.481 113.619 102.187 115.738C102.893 117.857 104.078 118.917 105.742 118.917C107.428 118.917 108.613 117.823 109.296 115.636C110.003 113.448 110.356 109.597 110.356 104.083C110.356 98.5459 110.003 94.6722 109.296 92.4619C108.59 90.2288 107.405 89.1123 105.742 89.1123C104.078 89.1123 102.893 90.1833 102.187 92.3252C101.481 94.4671 101.127 98.3864 101.127 104.083Z" fill="url(#paint1_linear)"/>
<path d="M47.0703 43H41.8628V27.9839H37.1562V23.7256H51.7637V27.9839H47.0703V43ZM71.2042 33.3364C71.2042 36.5796 70.4088 39.0449 68.818 40.7324C67.2271 42.4199 64.898 43.2637 61.8307 43.2637C58.8072 43.2637 56.4869 42.4155 54.8697 40.7192C53.2613 39.0229 52.4571 36.5532 52.4571 33.3101C52.4571 30.1021 53.2569 27.6543 54.8565 25.9668C56.4649 24.2705 58.7984 23.4224 61.857 23.4224C64.9244 23.4224 67.2491 24.2617 68.8312 25.9404C70.4132 27.6191 71.2042 30.0845 71.2042 33.3364ZM57.9415 33.3364C57.9415 37.063 59.2379 38.9263 61.8307 38.9263C63.149 38.9263 64.1246 38.4736 64.7574 37.5684C65.399 36.6631 65.7198 35.2524 65.7198 33.3364C65.7198 31.4116 65.3946 29.9922 64.7442 29.0781C64.1026 28.1553 63.1402 27.6938 61.857 27.6938C59.2467 27.6938 57.9415 29.5747 57.9415 33.3364ZM87.3225 29.856C87.3225 32.0093 86.6853 33.6748 85.4108 34.8525C84.1452 36.0215 82.3435 36.606 80.0056 36.606H78.5422V43H73.3347V23.7256H80.0056C82.4401 23.7256 84.2683 24.2573 85.4899 25.3208C86.7116 26.3843 87.3225 27.896 87.3225 29.856ZM78.5422 32.3608H79.4914C80.2736 32.3608 80.8933 32.1411 81.3503 31.7017C81.8161 31.2622 82.049 30.6558 82.049 29.8823C82.049 28.5815 81.3283 27.9312 79.8869 27.9312H78.5422V32.3608ZM105.044 43H99.7572V32.7959C99.7572 31.5566 99.7836 30.4229 99.8363 29.3945C99.5111 29.79 99.1068 30.2031 98.6234 30.6338L96.435 32.4399L93.7323 29.1177L100.35 23.7256H105.044V43ZM121.966 33.3892C121.966 36.7993 121.395 39.2998 120.252 40.8906C119.11 42.4727 117.361 43.2637 115.005 43.2637C112.703 43.2637 110.967 42.4375 109.798 40.7852C108.629 39.124 108.044 36.6587 108.044 33.3892C108.044 29.9614 108.616 27.4478 109.758 25.8481C110.901 24.2485 112.65 23.4487 115.005 23.4487C117.299 23.4487 119.031 24.2837 120.2 25.9536C121.377 27.6147 121.966 30.0933 121.966 33.3892ZM113.226 33.3892C113.226 35.5688 113.362 37.0674 113.634 37.8848C113.907 38.7021 114.364 39.1108 115.005 39.1108C115.656 39.1108 116.113 38.689 116.376 37.8452C116.649 37.0015 116.785 35.5161 116.785 33.3892C116.785 31.2534 116.649 29.7593 116.376 28.9067C116.104 28.0454 115.647 27.6147 115.005 27.6147C114.364 27.6147 113.907 28.0278 113.634 28.854C113.362 29.6802 113.226 31.1919 113.226 33.3892ZM136.437 33.3892C136.437 36.7993 135.865 39.2998 134.723 40.8906C133.58 42.4727 131.831 43.2637 129.476 43.2637C127.173 43.2637 125.437 42.4375 124.268 40.7852C123.099 39.124 122.515 36.6587 122.515 33.3892C122.515 29.9614 123.086 27.4478 124.229 25.8481C125.371 24.2485 127.12 23.4487 129.476 23.4487C131.77 23.4487 133.501 24.2837 134.67 25.9536C135.848 27.6147 136.437 30.0933 136.437 33.3892ZM127.696 33.3892C127.696 35.5688 127.832 37.0674 128.105 37.8848C128.377 38.7021 128.834 39.1108 129.476 39.1108C130.126 39.1108 130.583 38.689 130.847 37.8452C131.119 37.0015 131.255 35.5161 131.255 33.3892C131.255 31.2534 131.119 29.7593 130.847 28.9067C130.574 28.0454 130.117 27.6147 129.476 27.6147C128.834 27.6147 128.377 28.0278 128.105 28.854C127.832 29.6802 127.696 31.1919 127.696 33.3892Z" fill="#EEEBE8"/>
<defs>
<linearGradient id="paint0_linear" x1="89.3484" y1="5.64404" x2="89.3484" y2="47.3336" gradientUnits="userSpaceOnUse">
<stop stop-color="#FF1D1D"/>
<stop offset="1" stop-color="#FF4172"/>
</linearGradient>
<linearGradient id="paint1_linear" x1="86.9839" y1="54" x2="86.9839" y2="149" gradientUnits="userSpaceOnUse">
<stop stop-color="#FFC700"/>
<stop offset="1" stop-color="#FF4070"/>
</linearGradient>
</defs>
</svg>
