<svg width="251" height="273" viewBox="0 0 251 273" fill="none" xmlns="http://www.w3.org/2000/svg">
<path d="M122.829 223.562C125.454 223.562 127.818 224.177 129.923 225.406C132.048 226.615 133.693 228.333 134.86 230.562C136.048 232.792 136.641 235.365 136.641 238.281C136.641 243.385 135.1 247.302 132.016 250.031C128.954 252.76 124.308 254.125 118.079 254.125C112.746 254.125 108.391 253.302 105.016 251.656V241.531C106.829 242.365 108.871 243.052 111.141 243.594C113.433 244.135 115.402 244.406 117.048 244.406C119.339 244.406 121.1 243.927 122.329 242.969C123.558 241.99 124.173 240.552 124.173 238.656C124.173 236.906 123.548 235.542 122.298 234.562C121.048 233.583 119.152 233.094 116.61 233.094C114.673 233.094 112.579 233.458 110.329 234.188L105.798 231.938L107.516 207.812H133.579V218.094H118.016L117.454 224.125C119.079 223.812 120.235 223.646 120.923 223.625C121.61 223.583 122.246 223.562 122.829 223.562Z" fill="url(#paint0_linear)"/>
<path d="M120.32 5.16714C104.396 21.9141 93.9639 64.1933 93.9639 64.1933C111.809 72.7041 104.946 95.491 89.5713 102.08C78.0406 107.022 60.1954 97.6872 57.9991 85.0584C56.3519 75.724 61.2936 68.5859 67.3335 62.5461C67.3335 62.5461 11.8764 44.7009 3.64016 36.7393C3.64016 36.7393 -0.752496 35.3666 1.44383 42.5046C3.64015 49.9172 44.5467 166.322 44.5467 166.322L117.025 168.519H134.047L206.525 166.322C206.525 166.322 247.432 49.6427 249.628 42.5046C251.825 35.0921 247.432 36.7393 247.432 36.7393C238.921 44.7009 183.739 62.5461 183.739 62.5461C190.053 68.8605 194.72 75.9986 193.073 85.0584C190.877 97.6872 173.032 107.022 161.501 102.08C146.127 95.491 139.263 72.4295 157.108 64.1933C157.108 64.1933 146.95 21.9141 130.752 5.16714L125.536 0.5L120.32 5.16714Z" fill="url(#paint1_linear)"/>
<path d="M212.565 171.538C212.565 175.931 208.996 179.5 204.603 179.5H45.6443C41.2516 179.5 37.6826 175.931 37.6826 171.538C37.6826 167.146 41.2516 163.577 45.6443 163.577H204.603C208.996 163.851 212.565 167.146 212.565 171.538Z" fill="url(#paint2_linear)"/>
<path d="M7.75928 44.4271L10.2301 46.3489C11.0537 46.898 12.1519 47.4471 12.9755 47.9961C13.7991 48.5452 14.8973 49.0943 15.7209 49.3688C16.5445 49.9179 17.6427 50.1925 18.7409 50.7415C20.6627 51.5652 22.5844 52.3888 24.7808 53.2124L30.8206 55.4088L42.9004 59.5269C44.8222 60.3505 47.0185 60.625 48.9403 61.4486L54.9802 63.0959C55.5293 63.0959 55.8038 63.6449 55.5293 64.194C54.7057 66.9394 53.882 69.9593 52.7839 72.4302C51.6857 75.1756 51.1366 77.921 50.5875 80.3919C50.313 83.1373 50.5876 85.8827 51.6857 88.3536C52.2348 89.7263 52.7839 90.8244 53.6075 91.9226C54.4311 93.2953 55.2547 94.3934 56.0783 95.4916C56.902 96.5897 58.0001 97.6879 58.8237 98.5115C59.9219 99.3352 60.7455 100.433 61.8437 101.257C62.9419 102.081 64.04 102.904 65.1382 103.728C66.2363 104.551 67.6091 105.101 68.7072 105.65C71.1781 106.748 73.9235 107.571 76.6689 108.12C79.4143 108.395 82.1597 108.67 84.9051 108.12C87.6505 107.571 90.1214 106.748 92.5922 105.375C93.9649 104.826 94.7885 104.002 96.1612 103.179C97.2594 102.355 98.3575 101.532 99.1812 100.433C101.103 98.5116 102.75 96.0407 103.848 93.8444C104.947 91.3735 106.045 88.6281 106.594 85.8827C106.868 84.51 106.868 83.1373 107.143 81.7646C107.143 80.3919 107.143 79.0192 107.143 77.6465C106.868 74.9011 106.045 72.1557 104.947 69.6848C103.848 67.2139 102.476 64.7431 101.103 61.9977C100.828 61.4486 100.554 60.625 100.279 59.8013C100.005 58.9777 100.005 57.8796 100.279 57.3305C100.554 55.6832 101.377 54.5851 101.927 53.2124C102.75 51.2906 103.299 49.0943 104.123 47.1725L106.594 41.1326L109.065 35.0927C109.339 33.9945 109.888 33.171 110.437 32.0728L111.81 29.0529C112.908 27.1311 113.732 25.2093 114.83 23.2875L118.124 17.7967L124.439 6.54053C122.517 10.3841 120.595 14.2277 118.674 18.0713L115.654 23.8366C114.555 25.7584 113.732 27.6801 112.908 29.6019L111.535 32.6219C110.986 33.4455 110.712 34.5437 110.163 35.6418L107.966 41.6817L105.496 47.7216C104.672 49.6434 104.123 51.8397 103.299 53.7615C102.75 55.1342 102.201 56.5069 101.927 57.605C101.652 58.7032 102.201 59.8013 102.75 61.174C104.123 63.6449 105.496 66.1158 106.868 68.8612C108.241 71.6066 109.065 74.352 109.339 77.372C109.614 79.0192 109.614 80.3919 109.614 81.7646C109.339 83.1373 109.339 84.7845 109.065 86.1572C108.516 89.1772 107.417 91.9226 106.319 94.668C104.947 97.4134 103.299 99.8843 101.103 102.081C100.005 103.179 98.9066 104.002 97.8085 105.1C96.4358 105.924 95.3376 107.022 93.9649 107.571C91.2195 109.219 88.4741 110.042 85.4541 110.591C82.4342 111.14 79.4143 111.14 76.3944 110.591C73.6489 110.042 70.629 109.219 67.8836 107.846C66.5109 107.297 65.1382 106.473 64.04 105.65C62.6673 104.826 61.5692 104.002 60.471 103.179C59.3728 102.355 58.2747 101.257 57.1765 100.159C56.0784 99.0606 55.2547 97.9624 54.1566 96.8643C53.333 95.7661 52.2348 94.3934 51.6857 93.0207C50.8621 91.9226 50.313 90.2753 49.7639 88.9026C48.3912 86.1572 48.3912 82.8628 48.3912 79.8428C48.9403 76.8229 49.7639 74.0775 50.8621 71.3321C51.9603 68.5867 52.7839 65.8413 53.6075 63.3704L54.1566 64.4686L47.8421 62.5467C45.6458 61.9977 43.724 61.4486 41.8023 60.625C37.6842 59.2523 33.5661 57.605 29.7225 56.2323L23.6826 53.7615C21.7608 52.9379 19.839 52.1143 17.6427 51.0161C16.5445 50.467 15.7209 50.1925 14.8973 49.6434C14.0737 49.0943 12.9755 48.5452 12.1519 47.9961C11.3283 47.4471 10.2301 46.8979 9.40649 46.0743L7.75928 44.4271Z" fill="#5A3602"/>
<path d="M244.138 44.4264L241.667 46.6227C240.844 47.1717 240.02 47.9954 238.922 48.5445C238.098 49.0936 237 49.6426 236.176 50.1917C235.353 50.7407 234.255 51.2898 233.431 51.5644C231.509 52.6625 229.587 53.2116 227.391 54.3098L221.351 56.7807C217.508 58.4279 213.39 59.8006 209.271 61.1733C207.35 61.9969 205.153 62.546 203.231 63.0951L196.917 65.0169L197.466 63.9187C198.29 66.6641 199.113 69.4095 200.212 71.8804C201.31 74.6258 202.133 77.3711 202.682 80.3911C202.957 83.411 202.682 86.7056 201.31 89.451C200.761 90.8237 200.212 92.4709 199.388 93.5691C198.839 94.9418 197.741 96.0399 196.917 97.4126C196.093 98.7853 194.995 99.609 193.897 100.707C192.799 101.805 191.701 102.903 190.603 103.727C189.505 104.551 188.132 105.649 187.034 106.198C185.661 107.022 184.563 107.845 183.19 108.394C180.445 109.767 177.425 110.591 174.679 111.14C171.659 111.689 168.639 111.689 165.62 111.14C162.6 110.591 159.58 109.767 157.109 108.12C155.736 107.571 154.638 106.472 153.265 105.649C152.167 104.551 150.794 103.727 149.971 102.629C147.774 100.433 146.127 97.9617 144.754 95.2163C143.382 92.4709 142.284 89.7255 142.009 86.7056C141.735 85.3329 141.735 83.6856 141.46 82.3129C141.46 80.6657 141.46 79.2929 141.734 77.9202C142.009 74.9003 143.107 71.8803 144.205 69.4095C145.578 66.6641 146.951 64.1932 148.323 61.7224C148.873 60.3497 149.422 59.5261 149.147 58.1534C148.873 57.0552 148.323 55.6825 147.774 54.3098C146.951 52.388 146.402 50.1917 145.578 48.2699L143.107 42.23L140.911 36.1902C140.636 35.092 140.087 34.2684 139.538 33.1702L138.165 30.1502C137.342 28.2285 136.244 26.3067 135.42 24.3849L132.4 18.6195C130.478 14.7759 128.557 10.9324 126.635 7.08887L132.949 18.345L136.244 23.8358C137.342 25.7576 138.165 27.6793 139.264 29.6011L140.636 32.6211C141.185 33.4447 141.46 34.5429 142.009 35.641L144.48 41.681L146.951 47.7208C147.774 49.6426 148.598 51.8389 149.147 53.7607C149.696 55.1334 150.245 56.5061 150.794 57.8788C151.069 58.7024 151.069 59.5261 150.794 60.6242C150.52 61.4479 150.245 62.2714 149.971 62.8205C148.598 65.5659 147.225 68.0368 146.127 70.5077C145.029 72.9786 144.205 75.724 143.931 78.4694C143.656 79.8421 143.656 81.2148 143.931 82.5875C144.205 83.9602 144.205 85.3329 144.48 86.7056C145.029 89.451 145.853 91.9218 147.225 94.6672C148.598 97.1381 149.971 99.3344 151.893 101.256C152.716 102.354 153.814 103.178 154.912 104.002C156.011 104.825 157.109 105.649 158.481 106.198C160.952 107.571 163.423 108.394 166.169 108.943C168.914 109.492 171.659 109.218 174.405 108.943C177.15 108.394 179.896 107.571 182.367 106.472C183.739 105.923 184.837 105.374 185.935 104.551C187.034 104.002 188.132 102.903 189.23 102.08C190.328 101.256 191.426 100.158 192.25 99.3344C193.074 98.2363 194.172 97.4126 194.995 96.3145C195.819 95.2163 196.643 94.1181 197.466 92.7454C198.29 91.3727 198.839 90.2746 199.388 89.1764C200.486 86.7055 200.761 83.9602 200.486 81.2148C200.212 78.4694 199.388 75.724 198.29 73.2531C197.192 70.5077 196.368 67.7623 195.544 65.0169C195.544 64.4678 195.819 63.9187 196.094 63.9187L202.133 62.2715C204.055 61.7224 206.251 61.1733 208.173 60.3497L220.253 56.2316L226.293 54.0353C228.215 53.2117 230.411 52.6625 232.333 51.5644C233.431 51.0153 234.255 50.7407 235.353 50.1917C236.176 49.6426 237.275 49.368 238.098 48.8189C238.922 48.2699 240.02 47.7209 240.844 47.1718L244.138 44.4264Z" fill="#5A3602"/>
<path d="M100.754 90.3002C101.054 90.3002 101.254 90.3002 101.554 90.4002L101.654 89.9002C101.654 89.9002 100.954 89.7002 99.9537 89.8002L99.8537 89.5002C100.154 89.4002 100.354 89.2002 100.354 88.9002C100.354 88.5002 100.054 88.2002 99.6537 88.2002C99.2537 88.2002 98.9537 88.5002 98.9537 88.9002C98.9537 89.2002 99.1537 89.5002 99.4537 89.5002L99.5537 89.8002C98.5537 89.9002 97.7537 90.3002 97.7537 90.3002L97.8537 90.7002C98.4537 90.5002 99.0537 90.4002 99.4537 90.3002C100.154 90.3002 100.454 90.3002 100.754 90.3002Z" fill="#4C4C4C"/>
<path d="M85.9441 148.5H79.0007V128.479H72.7253V122.801H92.2019V128.479H85.9441V148.5ZM118.123 135.615C118.123 139.939 117.062 143.227 114.941 145.477C112.82 147.727 109.714 148.852 105.625 148.852C101.593 148.852 98.4996 147.721 96.3433 145.459C94.1988 143.197 93.1265 139.904 93.1265 135.58C93.1265 131.303 94.1929 128.039 96.3257 125.789C98.4703 123.527 101.582 122.396 105.66 122.396C109.75 122.396 112.849 123.516 114.959 125.754C117.068 127.992 118.123 131.279 118.123 135.615ZM100.439 135.615C100.439 140.584 102.168 143.068 105.625 143.068C107.382 143.068 108.683 142.465 109.527 141.258C110.382 140.051 110.81 138.17 110.81 135.615C110.81 133.049 110.377 131.156 109.509 129.938C108.654 128.707 107.371 128.092 105.66 128.092C102.179 128.092 100.439 130.6 100.439 135.615ZM139.614 130.975C139.614 133.846 138.764 136.066 137.065 137.637C135.377 139.195 132.975 139.975 129.858 139.975H127.907V148.5H120.963V122.801H129.858C133.104 122.801 135.541 123.51 137.17 124.928C138.799 126.346 139.614 128.361 139.614 130.975ZM127.907 134.314H129.172C130.215 134.314 131.041 134.021 131.651 133.436C132.272 132.85 132.582 132.041 132.582 131.01C132.582 129.275 131.621 128.408 129.7 128.408H127.907V134.314ZM163.242 148.5H156.193V134.895C156.193 133.242 156.228 131.73 156.299 130.359C155.865 130.887 155.326 131.438 154.682 132.012L151.764 134.42L148.16 129.99L156.984 122.801H163.242V148.5ZM185.805 135.686C185.805 140.232 185.044 143.566 183.52 145.688C181.997 147.797 179.665 148.852 176.524 148.852C173.454 148.852 171.139 147.75 169.581 145.547C168.022 143.332 167.243 140.045 167.243 135.686C167.243 131.115 168.005 127.764 169.528 125.631C171.052 123.498 173.384 122.432 176.524 122.432C179.583 122.432 181.891 123.545 183.45 125.771C185.02 127.986 185.805 131.291 185.805 135.686ZM174.151 135.686C174.151 138.592 174.333 140.59 174.696 141.68C175.059 142.77 175.669 143.314 176.524 143.314C177.391 143.314 178.001 142.752 178.352 141.627C178.716 140.502 178.897 138.521 178.897 135.686C178.897 132.838 178.716 130.846 178.352 129.709C177.989 128.561 177.38 127.986 176.524 127.986C175.669 127.986 175.059 128.537 174.696 129.639C174.333 130.74 174.151 132.756 174.151 135.686Z" fill="url(#paint3_linear)"/>
<defs>
<linearGradient id="paint0_linear" x1="120.829" y1="185.5" x2="120.829" y2="272.5" gradientUnits="userSpaceOnUse">
<stop stop-color="#FFC700"/>
<stop offset="1" stop-color="#FC9517"/>
</linearGradient>
<linearGradient id="paint1_linear" x1="125.536" y1="0.5" x2="125.536" y2="168.519" gradientUnits="userSpaceOnUse">
<stop stop-color="#FFC700"/>
<stop offset="1" stop-color="#FC9517"/>
</linearGradient>
<linearGradient id="paint2_linear" x1="125.124" y1="163.577" x2="125.124" y2="179.5" gradientUnits="userSpaceOnUse">
<stop stop-color="#8F5A2D"/>
<stop offset="1" stop-color="#351B06"/>
</linearGradient>
<linearGradient id="paint3_linear" x1="129.829" y1="110.5" x2="129.829" y2="159.5" gradientUnits="userSpaceOnUse">
<stop stop-color="#8F5A2D"/>
<stop offset="1" stop-color="#351B06"/>
</linearGradient>
</defs>
</svg>
