<svg width="189" height="182" viewBox="0 0 189 182" fill="none" xmlns="http://www.w3.org/2000/svg">
<path d="M175.954 156.832L29.9933 181.789C21.9591 183.162 14.2599 177.713 12.8809 169.673C12.8809 169.673 -1.41202 21.8809 11.6191 19.6476C11.6191 19.6476 164.933 4.41113 167.161 17.4423L188.064 139.719C189.443 147.759 183.988 155.458 175.954 156.832Z" fill="#C8C8C8"/>
<path d="M167.68 162.074L20.2733 176.188C12.1553 176.964 4.88046 170.962 4.1044 162.844C4.1044 162.844 0.76008 14.3988 13.9196 13.137C13.9196 13.137 167.937 9.25671 169.199 22.4162L181.024 145.905C181.8 154.017 175.798 161.298 167.68 162.074Z" fill="#EDEDED"/>
<path d="M15.6841 156.781L148.993 176.189C157.111 176.965 164.386 170.963 165.162 162.845C165.162 162.845 168.507 14.3995 155.347 13.1377C155.347 13.1377 23.5005 9.77101 22.2387 22.9305L8.39247 135.644C7.61641 143.762 7.56616 156 15.6841 156.781Z" fill="#EDEDED"/>
<path d="M163.286 166.037H15.2039C7.05251 166.037 0.380615 159.366 0.380615 151.214V29.6796C0.380615 16.4586 11.1952 5.64404 24.4162 5.64404H154.069C167.29 5.64404 178.104 16.4586 178.104 29.6796V151.214C178.11 159.371 171.438 166.037 163.286 166.037Z" fill="white"/>
<path d="M178.11 47.3336H0.380615V29.6796C0.380615 16.4586 11.1952 5.64404 24.4162 5.64404H154.069C167.29 5.64404 178.104 16.4586 178.104 29.6796V47.3336H178.11Z" fill="url(#paint0_linear)"/>
<path d="M29.3016 17.7707C27.314 17.7707 25.6837 16.146 25.6837 14.1528V5.64404H32.9139V14.1584C32.9195 16.146 31.2948 17.7707 29.3016 17.7707Z" fill="#BF3A37"/>
<path d="M72.0851 17.7707C70.0975 17.7707 68.4672 16.146 68.4672 14.1528V5.64404H75.6974V14.1584C75.703 16.146 74.0727 17.7707 72.0851 17.7707Z" fill="#BF3A37"/>
<path d="M112.1 17.7707C110.113 17.7707 108.482 16.146 108.482 14.1528V5.64404H115.713V14.1584C115.718 16.146 114.088 17.7707 112.1 17.7707Z" fill="#BF3A37"/>
<path d="M152.399 17.7713C150.412 17.7713 148.781 16.1466 148.781 14.1534C148.781 14.1534 148.781 6.26442 148.781 5.6391C148.781 5.06962 156.012 5.71727 156.012 5.71727V14.1534C156.012 16.1466 154.387 17.7713 152.399 17.7713Z" fill="#BF3A37"/>
<path d="M70.6615 16.5541C68.6739 16.5541 67.0436 14.9294 67.0436 12.9362V3.61789C67.0436 1.63029 68.6683 0 70.6615 0C72.6491 0 74.2794 1.6247 74.2794 3.61789V12.9362C74.2738 14.9294 72.6491 16.5541 70.6615 16.5541Z" fill="#EBEBEB"/>
<path d="M110.877 16.5541C108.89 16.5541 107.259 14.9294 107.259 12.9362V3.61789C107.259 1.63029 108.884 0 110.877 0C112.865 0 114.495 1.6247 114.495 3.61789V12.9362C114.489 14.9294 112.865 16.5541 110.877 16.5541Z" fill="#EBEBEB"/>
<path d="M151.093 16.5541C149.105 16.5541 147.475 14.9294 147.475 12.9362V3.61789C147.475 1.63029 149.1 0 151.093 0C153.08 0 154.711 1.6247 154.711 3.61789V12.9362C154.705 14.9294 153.08 16.5541 151.093 16.5541Z" fill="#EBEBEB"/>
<path d="M163.113 121.384L121.072 165.586C121.072 165.586 122.663 157.803 122.674 152.912C122.68 149.808 122.049 147.095 121.831 142.634C121.234 130.122 128.481 126.934 131.898 125.08C137.146 122.239 145.749 124.343 150.936 124.003C153.136 123.869 161.483 123.5 163.113 121.384Z" fill="#BABABA"/>
<path d="M42.4277 70.6606H18.7216V86.0311H42.4277V70.6606Z" fill="#EBEBEB"/>
<path d="M42.4277 98.0127H18.7216V113.383H42.4277V98.0127Z" fill="#EBEBEB"/>
<path d="M80.1588 98.0127H56.4526V113.383H80.1588V98.0127Z" fill="#EBEBEB"/>
<path d="M117.885 98.0127H94.1785V113.383H117.885V98.0127Z" fill="#EBEBEB"/>
<path d="M154.884 98.0127H131.178V113.383H154.884V98.0127Z" fill="#EBEBEB"/>
<path d="M42.4277 125.37H18.7216V140.741H42.4277V125.37Z" fill="#EBEBEB"/>
<path d="M80.1588 125.37H56.4526V140.741H80.1588V125.37Z" fill="#EBEBEB"/>
<path d="M117.885 125.37H94.1785V140.741H117.885V125.37Z" fill="#EBEBEB"/>
<path d="M80.1588 70.6606H56.4526V86.0311H80.1588V70.6606Z" fill="#EBEBEB"/>
<path d="M117.885 70.6606H94.1785V86.0311H117.885V70.6606Z" fill="#EBEBEB"/>
<path d="M155.609 70.6606H131.903V86.0311H155.609V70.6606Z" fill="#EBEBEB"/>
<path d="M27.8663 16.5541C25.8787 16.5541 24.2484 14.9294 24.2484 12.9362V3.61789C24.2484 1.63029 25.8731 0 27.8663 0C29.8539 0 31.4842 1.6247 31.4842 3.61789V12.9362C31.4842 14.9294 29.8595 16.5541 27.8663 16.5541Z" fill="#EBEBEB"/>
<path d="M50.0076 107.877C50.0076 100.904 50.9988 95.2646 52.9812 90.958C54.9864 86.6286 57.9259 83.4385 61.7996 81.3877C65.696 79.3369 70.4926 78.3115 76.1892 78.3115C78.2172 78.3115 80.587 78.5052 83.2986 78.8926V89.4541C81.0199 89.0212 78.5476 88.8047 75.8816 88.8047C71.3699 88.8047 68.0089 89.7959 65.7986 91.7783C63.5883 93.7607 62.3806 96.9964 62.1755 101.485H62.5857C64.6365 97.6117 67.9291 95.6748 72.4636 95.6748C76.907 95.6748 80.3477 97.1104 82.7859 99.9814C85.2468 102.83 86.4773 106.806 86.4773 111.91C86.4773 117.402 84.9278 121.743 81.8289 124.933C78.7299 128.1 74.4005 129.684 68.8406 129.684C62.9389 129.684 58.3246 127.77 54.9978 123.941C51.671 120.113 50.0076 114.758 50.0076 107.877ZM68.533 118.985C69.9685 118.985 71.1306 118.45 72.0193 117.379C72.9307 116.285 73.3865 114.553 73.3865 112.184C73.3865 108.128 71.8142 106.1 68.6697 106.1C67.1202 106.1 65.8556 106.624 64.8757 107.672C63.9187 108.72 63.4402 109.996 63.4402 111.5C63.4402 113.688 63.9073 115.488 64.8416 116.9C65.7758 118.29 67.0063 118.985 68.533 118.985ZM123.685 104.083C123.685 112.924 122.204 119.407 119.242 123.531C116.28 127.633 111.745 129.684 105.638 129.684C99.6684 129.684 95.1681 127.542 92.1375 123.258C89.1069 118.951 87.5916 112.56 87.5916 104.083C87.5916 95.1963 89.0727 88.6794 92.0349 84.5322C94.9972 80.3851 99.5317 78.3115 105.638 78.3115C111.586 78.3115 116.075 80.4762 119.105 84.8057C122.159 89.1123 123.685 95.5381 123.685 104.083ZM101.024 104.083C101.024 109.734 101.377 113.619 102.084 115.738C102.79 117.857 103.975 118.917 105.638 118.917C107.325 118.917 108.51 117.823 109.193 115.636C109.899 113.448 110.253 109.597 110.253 104.083C110.253 98.5459 109.899 94.6722 109.193 92.4619C108.487 90.2288 107.302 89.1123 105.638 89.1123C103.975 89.1123 102.79 90.1833 102.084 92.3252C101.377 94.4671 101.024 98.3864 101.024 104.083Z" fill="url(#paint1_linear)"/>
<path d="M46.967 43H41.7595V27.9839H37.053V23.7256H51.6604V27.9839H46.967V43ZM71.1009 33.3364C71.1009 36.5796 70.3055 39.0449 68.7147 40.7324C67.1239 42.4199 64.7948 43.2637 61.7274 43.2637C58.704 43.2637 56.3836 42.4155 54.7665 40.7192C53.1581 39.0229 52.3539 36.5532 52.3539 33.3101C52.3539 30.1021 53.1537 27.6543 54.7533 25.9668C56.3617 24.2705 58.6952 23.4224 61.7538 23.4224C64.8211 23.4224 67.1458 24.2617 68.7279 25.9404C70.3099 27.6191 71.1009 30.0845 71.1009 33.3364ZM57.8382 33.3364C57.8382 37.063 59.1346 38.9263 61.7274 38.9263C63.0458 38.9263 64.0213 38.4736 64.6542 37.5684C65.2958 36.6631 65.6166 35.2524 65.6166 33.3364C65.6166 31.4116 65.2914 29.9922 64.641 29.0781C63.9994 28.1553 63.037 27.6938 61.7538 27.6938C59.1434 27.6938 57.8382 29.5747 57.8382 33.3364ZM87.2192 29.856C87.2192 32.0093 86.582 33.6748 85.3076 34.8525C84.0419 36.0215 82.2402 36.606 79.9023 36.606H78.4389V43H73.2314V23.7256H79.9023C82.3369 23.7256 84.165 24.2573 85.3867 25.3208C86.6083 26.3843 87.2192 27.896 87.2192 29.856ZM78.4389 32.3608H79.3881C80.1704 32.3608 80.79 32.1411 81.247 31.7017C81.7128 31.2622 81.9458 30.6558 81.9458 29.8823C81.9458 28.5815 81.225 27.9312 79.7836 27.9312H78.4389V32.3608ZM104.941 43H99.654V32.7959C99.654 31.5566 99.6803 30.4229 99.7331 29.3945C99.4079 29.79 99.0036 30.2031 98.5202 30.6338L96.3317 32.4399L93.6291 29.1177L100.247 23.7256H104.941V43ZM121.863 33.3892C121.863 36.7993 121.292 39.2998 120.149 40.8906C119.007 42.4727 117.258 43.2637 114.902 43.2637C112.599 43.2637 110.864 42.4375 109.695 40.7852C108.526 39.124 107.941 36.6587 107.941 33.3892C107.941 29.9614 108.512 27.4478 109.655 25.8481C110.798 24.2485 112.547 23.4487 114.902 23.4487C117.196 23.4487 118.927 24.2837 120.096 25.9536C121.274 27.6147 121.863 30.0933 121.863 33.3892ZM113.122 33.3892C113.122 35.5688 113.259 37.0674 113.531 37.8848C113.803 38.7021 114.26 39.1108 114.902 39.1108C115.552 39.1108 116.01 38.689 116.273 37.8452C116.546 37.0015 116.682 35.5161 116.682 33.3892C116.682 31.2534 116.546 29.7593 116.273 28.9067C116.001 28.0454 115.544 27.6147 114.902 27.6147C114.26 27.6147 113.803 28.0278 113.531 28.854C113.259 29.6802 113.122 31.1919 113.122 33.3892ZM136.333 33.3892C136.333 36.7993 135.762 39.2998 134.619 40.8906C133.477 42.4727 131.728 43.2637 129.372 43.2637C127.07 43.2637 125.334 42.4375 124.165 40.7852C122.996 39.124 122.411 36.6587 122.411 33.3892C122.411 29.9614 122.983 27.4478 124.125 25.8481C125.268 24.2485 127.017 23.4487 129.372 23.4487C131.666 23.4487 133.398 24.2837 134.567 25.9536C135.744 27.6147 136.333 30.0933 136.333 33.3892ZM127.593 33.3892C127.593 35.5688 127.729 37.0674 128.001 37.8848C128.274 38.7021 128.731 39.1108 129.372 39.1108C130.023 39.1108 130.48 38.689 130.744 37.8452C131.016 37.0015 131.152 35.5161 131.152 33.3892C131.152 31.2534 131.016 29.7593 130.744 28.9067C130.471 28.0454 130.014 27.6147 129.372 27.6147C128.731 27.6147 128.274 28.0278 128.001 28.854C127.729 29.6802 127.593 31.1919 127.593 33.3892Z" fill="#EEEBE8"/>
<path d="M177.043 118.604L121.077 165.592C121.077 165.592 123.857 156.659 124.41 150.931C124.756 147.29 124.282 144.047 124.505 138.798C125.141 124.07 134.303 121.167 138.669 119.386C145.364 116.656 155.603 120.1 161.951 120.296C164.631 120.374 174.821 120.899 177.043 118.604Z" fill="#E7E6E6"/>
<defs>
<linearGradient id="paint0_linear" x1="89.2452" y1="5.64404" x2="89.2452" y2="47.3336" gradientUnits="userSpaceOnUse">
<stop stop-color="#FF1D1D"/>
<stop offset="1" stop-color="#FF4172"/>
</linearGradient>
<linearGradient id="paint1_linear" x1="86.8806" y1="54" x2="86.8806" y2="149" gradientUnits="userSpaceOnUse">
<stop stop-color="#FFC700"/>
<stop offset="1" stop-color="#FF4070"/>
</linearGradient>
</defs>
</svg>
