<svg width="189" height="182" viewBox="0 0 189 182" fill="none" xmlns="http://www.w3.org/2000/svg">
<path d="M176.161 156.832L30.1999 181.789C22.1657 183.162 14.4665 177.713 13.0874 169.673C13.0874 169.673 -1.20548 21.8809 11.8256 19.6476C11.8256 19.6476 165.14 4.41113 167.367 17.4423L188.271 139.719C189.65 147.759 184.195 155.458 176.161 156.832Z" fill="#C8C8C8"/>
<path d="M167.887 162.074L20.4798 176.188C12.3619 176.964 5.087 170.962 4.31094 162.844C4.31094 162.844 0.966623 14.3988 14.1262 13.137C14.1262 13.137 168.144 9.25671 169.405 22.4162L181.231 145.905C182.007 154.017 176.005 161.298 167.887 162.074Z" fill="#EDEDED"/>
<path d="M15.8906 156.781L149.2 176.189C157.318 176.965 164.593 170.963 165.369 162.845C165.369 162.845 168.713 14.3995 155.554 13.1377C155.554 13.1377 23.7071 9.77101 22.4453 22.9305L8.59902 135.644C7.82295 143.762 7.7727 156 15.8906 156.781Z" fill="#EDEDED"/>
<path d="M163.493 166.037H15.4105C7.25905 166.037 0.587158 159.366 0.587158 151.214V29.6796C0.587158 16.4586 11.4018 5.64404 24.6227 5.64404H154.275C167.496 5.64404 178.311 16.4586 178.311 29.6796V151.214C178.316 159.371 171.644 166.037 163.493 166.037Z" fill="white"/>
<path d="M178.316 47.3336H0.587158V29.6796C0.587158 16.4586 11.4018 5.64404 24.6227 5.64404H154.275C167.496 5.64404 178.311 16.4586 178.311 29.6796V47.3336H178.316Z" fill="url(#paint0_linear)"/>
<path d="M29.508 17.7707C27.5204 17.7707 25.8901 16.146 25.8901 14.1528V5.64404H33.1203V14.1584C33.1259 16.146 31.5012 17.7707 29.508 17.7707Z" fill="#BF3A37"/>
<path d="M72.2917 17.7707C70.3041 17.7707 68.6738 16.146 68.6738 14.1528V5.64404H75.904V14.1584C75.9096 16.146 74.2793 17.7707 72.2917 17.7707Z" fill="#BF3A37"/>
<path d="M112.307 17.7707C110.319 17.7707 108.689 16.146 108.689 14.1528V5.64404H115.919V14.1584C115.925 16.146 114.294 17.7707 112.307 17.7707Z" fill="#BF3A37"/>
<path d="M152.606 17.7713C150.618 17.7713 148.988 16.1466 148.988 14.1534C148.988 14.1534 148.988 6.26442 148.988 5.6391C148.988 5.06962 156.218 5.71727 156.218 5.71727V14.1534C156.218 16.1466 154.593 17.7713 152.606 17.7713Z" fill="#BF3A37"/>
<path d="M70.8679 16.5541C68.8803 16.5541 67.25 14.9294 67.25 12.9362V3.61789C67.25 1.63029 68.8747 0 70.8679 0C72.8555 0 74.4858 1.6247 74.4858 3.61789V12.9362C74.4802 14.9294 72.8555 16.5541 70.8679 16.5541Z" fill="#EBEBEB"/>
<path d="M111.084 16.5541C109.096 16.5541 107.466 14.9294 107.466 12.9362V3.61789C107.466 1.63029 109.091 0 111.084 0C113.071 0 114.702 1.6247 114.702 3.61789V12.9362C114.696 14.9294 113.071 16.5541 111.084 16.5541Z" fill="#EBEBEB"/>
<path d="M151.299 16.5541C149.312 16.5541 147.681 14.9294 147.681 12.9362V3.61789C147.681 1.63029 149.306 0 151.299 0C153.287 0 154.917 1.6247 154.917 3.61789V12.9362C154.912 14.9294 153.287 16.5541 151.299 16.5541Z" fill="#EBEBEB"/>
<path d="M163.32 121.384L121.278 165.586C121.278 165.586 122.87 157.803 122.881 152.912C122.886 149.808 122.255 147.095 122.038 142.634C121.44 130.122 128.687 126.934 132.104 125.08C137.352 122.239 145.956 124.343 151.143 124.003C153.342 123.869 161.689 123.5 163.32 121.384Z" fill="#BABABA"/>
<path d="M42.6344 70.6606H18.9282V86.0311H42.6344V70.6606Z" fill="#EBEBEB"/>
<path d="M42.6344 98.0127H18.9282V113.383H42.6344V98.0127Z" fill="#EBEBEB"/>
<path d="M80.3653 98.0127H56.6592V113.383H80.3653V98.0127Z" fill="#EBEBEB"/>
<path d="M118.091 98.0127H94.385V113.383H118.091V98.0127Z" fill="#EBEBEB"/>
<path d="M155.09 98.0127H131.384V113.383H155.09V98.0127Z" fill="#EBEBEB"/>
<path d="M42.6344 125.37H18.9282V140.741H42.6344V125.37Z" fill="#EBEBEB"/>
<path d="M80.3653 125.37H56.6592V140.741H80.3653V125.37Z" fill="#EBEBEB"/>
<path d="M118.091 125.37H94.385V140.741H118.091V125.37Z" fill="#EBEBEB"/>
<path d="M80.3653 70.6606H56.6592V86.0311H80.3653V70.6606Z" fill="#EBEBEB"/>
<path d="M118.091 70.6606H94.385V86.0311H118.091V70.6606Z" fill="#EBEBEB"/>
<path d="M155.816 70.6606H132.11V86.0311H155.816V70.6606Z" fill="#EBEBEB"/>
<path d="M28.073 16.5541C26.0854 16.5541 24.4551 14.9294 24.4551 12.9362V3.61789C24.4551 1.63029 26.0798 0 28.073 0C30.0606 0 31.6909 1.6247 31.6909 3.61789V12.9362C31.6909 14.9294 30.0662 16.5541 28.073 16.5541Z" fill="#EBEBEB"/>
<path d="M80.0188 129H66.3127V102.545C66.3127 99.332 66.3811 96.3926 66.5178 93.7266C65.6747 94.752 64.6265 95.8229 63.3733 96.9395L57.6995 101.622L50.6926 93.0088L67.8508 79.0293H80.0188V129ZM125.293 119.327H119.79V129H106.46V119.327H86.5334V109.415L107.315 79.0293H119.79V109.244H125.293V119.327ZM106.46 109.244V103.434C106.46 102.34 106.494 100.87 106.563 99.0244C106.654 97.1559 106.722 96.1761 106.768 96.085H106.392C105.617 97.8395 104.74 99.4801 103.76 101.007L98.2229 109.244H106.46Z" fill="url(#paint1_linear)"/>
<path d="M47.1736 43H41.9661V27.9839H37.2595V23.7256H51.8669V27.9839H47.1736V43ZM71.3075 33.3364C71.3075 36.5796 70.5121 39.0449 68.9212 40.7324C67.3304 42.4199 65.0013 43.2637 61.9339 43.2637C58.9105 43.2637 56.5902 42.4155 54.973 40.7192C53.3646 39.0229 52.5604 36.5532 52.5604 33.3101C52.5604 30.1021 53.3602 27.6543 54.9598 25.9668C56.5682 24.2705 58.9017 23.4224 61.9603 23.4224C65.0277 23.4224 67.3524 24.2617 68.9344 25.9404C70.5165 27.6191 71.3075 30.0845 71.3075 33.3364ZM58.0448 33.3364C58.0448 37.063 59.3412 38.9263 61.9339 38.9263C63.2523 38.9263 64.2279 38.4736 64.8607 37.5684C65.5023 36.6631 65.8231 35.2524 65.8231 33.3364C65.8231 31.4116 65.4979 29.9922 64.8475 29.0781C64.2059 28.1553 63.2435 27.6938 61.9603 27.6938C59.35 27.6938 58.0448 29.5747 58.0448 33.3364ZM87.4257 29.856C87.4257 32.0093 86.7885 33.6748 85.5141 34.8525C84.2485 36.0215 82.4467 36.606 80.1088 36.606H78.6455V43H73.4379V23.7256H80.1088C82.5434 23.7256 84.3715 24.2573 85.5932 25.3208C86.8149 26.3843 87.4257 27.896 87.4257 29.856ZM78.6455 32.3608H79.5947C80.3769 32.3608 80.9965 32.1411 81.4536 31.7017C81.9194 31.2622 82.1523 30.6558 82.1523 29.8823C82.1523 28.5815 81.4316 27.9312 79.9902 27.9312H78.6455V32.3608ZM105.147 43H99.8605V32.7959C99.8605 31.5566 99.8869 30.4229 99.9396 29.3945C99.6144 29.79 99.2101 30.2031 98.7267 30.6338L96.5382 32.4399L93.8356 29.1177L100.454 23.7256H105.147V43ZM122.07 33.3892C122.07 36.7993 121.498 39.2998 120.356 40.8906C119.213 42.4727 117.464 43.2637 115.109 43.2637C112.806 43.2637 111.07 42.4375 109.901 40.7852C108.732 39.124 108.148 36.6587 108.148 33.3892C108.148 29.9614 108.719 27.4478 109.862 25.8481C111.004 24.2485 112.753 23.4487 115.109 23.4487C117.403 23.4487 119.134 24.2837 120.303 25.9536C121.481 27.6147 122.07 30.0933 122.07 33.3892ZM113.329 33.3892C113.329 35.5688 113.465 37.0674 113.738 37.8848C114.01 38.7021 114.467 39.1108 115.109 39.1108C115.759 39.1108 116.216 38.689 116.48 37.8452C116.752 37.0015 116.888 35.5161 116.888 33.3892C116.888 31.2534 116.752 29.7593 116.48 28.9067C116.207 28.0454 115.75 27.6147 115.109 27.6147C114.467 27.6147 114.01 28.0278 113.738 28.854C113.465 29.6802 113.329 31.1919 113.329 33.3892ZM136.54 33.3892C136.54 36.7993 135.969 39.2998 134.826 40.8906C133.683 42.4727 131.934 43.2637 129.579 43.2637C127.276 43.2637 125.54 42.4375 124.371 40.7852C123.202 39.124 122.618 36.6587 122.618 33.3892C122.618 29.9614 123.189 27.4478 124.332 25.8481C125.474 24.2485 127.223 23.4487 129.579 23.4487C131.873 23.4487 133.604 24.2837 134.773 25.9536C135.951 27.6147 136.54 30.0933 136.54 33.3892ZM127.799 33.3892C127.799 35.5688 127.935 37.0674 128.208 37.8848C128.48 38.7021 128.937 39.1108 129.579 39.1108C130.229 39.1108 130.686 38.689 130.95 37.8452C131.223 37.0015 131.359 35.5161 131.359 33.3892C131.359 31.2534 131.223 29.7593 130.95 28.9067C130.678 28.0454 130.221 27.6147 129.579 27.6147C128.937 27.6147 128.48 28.0278 128.208 28.854C127.935 29.6802 127.799 31.1919 127.799 33.3892Z" fill="#EEEBE8"/>
<defs>
<linearGradient id="paint0_linear" x1="89.4517" y1="5.64404" x2="89.4517" y2="47.3336" gradientUnits="userSpaceOnUse">
<stop stop-color="#FF1D1D"/>
<stop offset="1" stop-color="#FF4172"/>
</linearGradient>
<linearGradient id="paint1_linear" x1="87.0872" y1="54" x2="87.0872" y2="149" gradientUnits="userSpaceOnUse">
<stop stop-color="#FFC700"/>
<stop offset="1" stop-color="#FF4070"/>
</linearGradient>
</defs>
</svg>
