<svg width="250" height="273" viewBox="0 0 250 273" fill="none" xmlns="http://www.w3.org/2000/svg">
<path d="M135.196 217.719C135.196 220.552 134.331 222.99 132.602 225.031C130.873 227.052 128.373 228.521 125.102 229.438V229.625C132.727 230.583 136.54 234.188 136.54 240.438C136.54 244.688 134.852 248.031 131.477 250.469C128.123 252.906 123.456 254.125 117.477 254.125C115.019 254.125 112.737 253.948 110.633 253.594C108.55 253.24 106.29 252.594 103.852 251.656V241.406C105.852 242.427 107.883 243.188 109.946 243.688C112.029 244.167 113.946 244.406 115.696 244.406C118.404 244.406 120.373 244.031 121.602 243.281C122.852 242.51 123.477 241.312 123.477 239.688C123.477 238.438 123.154 237.479 122.508 236.812C121.862 236.125 120.821 235.615 119.383 235.281C117.946 234.927 116.071 234.75 113.758 234.75H110.946V225.469H113.821C120.092 225.469 123.227 223.865 123.227 220.656C123.227 219.448 122.758 218.552 121.821 217.969C120.904 217.385 119.665 217.094 118.102 217.094C115.185 217.094 112.165 218.073 109.04 220.031L103.915 211.781C106.331 210.115 108.8 208.927 111.321 208.219C113.862 207.51 116.769 207.156 120.04 207.156C124.769 207.156 128.477 208.094 131.165 209.969C133.852 211.844 135.196 214.427 135.196 217.719Z" fill="url(#paint0_linear)"/>
<path d="M119.906 5.16714C103.982 21.9141 93.5496 64.1933 93.5496 64.1933C111.395 72.7041 104.531 95.491 89.1569 102.08C77.6263 107.022 59.7811 97.6872 57.5848 85.0584C55.9376 75.724 60.8793 68.5859 66.9192 62.5461C66.9192 62.5461 11.4621 44.7009 3.22585 36.7393C3.22585 36.7393 -1.1668 35.3666 1.02952 42.5046C3.22584 49.9172 44.1323 166.322 44.1323 166.322L116.611 168.519H133.633L206.111 166.322C206.111 166.322 247.018 49.6427 249.214 42.5046C251.41 35.0921 247.018 36.7393 247.018 36.7393C238.507 44.7009 183.324 62.5461 183.324 62.5461C189.639 68.8605 194.306 75.9986 192.659 85.0584C190.462 97.6872 172.617 107.022 161.087 102.08C145.712 95.491 138.849 72.4295 156.694 64.1933C156.694 64.1933 146.536 21.9141 130.338 5.16714L125.122 0.5L119.906 5.16714Z" fill="url(#paint1_linear)"/>
<path d="M212.151 171.538C212.151 175.931 208.581 179.5 204.189 179.5H45.23C40.8373 179.5 37.2683 175.931 37.2683 171.538C37.2683 167.146 40.8373 163.577 45.23 163.577H204.189C208.581 163.851 212.151 167.146 212.151 171.538Z" fill="url(#paint2_linear)"/>
<path d="M7.34473 44.4271L9.81557 46.3489C10.6392 46.898 11.7374 47.4471 12.561 47.9961C13.3846 48.5452 14.4828 49.0943 15.3064 49.3688C16.13 49.9179 17.2282 50.1925 18.3263 50.7415C20.2481 51.5652 22.1699 52.3888 24.3662 53.2124L30.4061 55.4088L42.4859 59.5269C44.4076 60.3505 46.604 60.625 48.5258 61.4486L54.5657 63.0959C55.1147 63.0959 55.3893 63.6449 55.1147 64.194C54.2911 66.9394 53.4675 69.9593 52.3693 72.4302C51.2712 75.1756 50.7221 77.921 50.173 80.3919C49.8984 83.1373 50.173 85.8827 51.2712 88.3536C51.8203 89.7263 52.3693 90.8244 53.1929 91.9226C54.0166 93.2953 54.8402 94.3934 55.6638 95.4916C56.4874 96.5897 57.5856 97.6879 58.4092 98.5115C59.5074 99.3352 60.331 100.433 61.4292 101.257C62.5273 102.081 63.6255 102.904 64.7236 103.728C65.8218 104.551 67.1945 105.101 68.2927 105.65C70.7635 106.748 73.5089 107.571 76.2543 108.12C78.9997 108.395 81.7451 108.67 84.4905 108.12C87.2359 107.571 89.7068 106.748 92.1777 105.375C93.5504 104.826 94.374 104.002 95.7467 103.179C96.8449 102.355 97.943 101.532 98.7666 100.433C100.688 98.5116 102.336 96.0407 103.434 93.8444C104.532 91.3735 105.63 88.6281 106.179 85.8827C106.454 84.51 106.454 83.1373 106.728 81.7646C106.728 80.3919 106.728 79.0192 106.728 77.6465C106.454 74.9011 105.63 72.1557 104.532 69.6848C103.434 67.2139 102.061 64.7431 100.688 61.9977C100.414 61.4486 100.139 60.625 99.8648 59.8013C99.5903 58.9777 99.5903 57.8796 99.8648 57.3305C100.139 55.6832 100.963 54.5851 101.512 53.2124C102.336 51.2906 102.885 49.0943 103.708 47.1725L106.179 41.1326L108.65 35.0927C108.925 33.9945 109.474 33.171 110.023 32.0728L111.395 29.0529C112.494 27.1311 113.317 25.2093 114.415 23.2875L117.71 17.7967L124.024 6.54053C122.103 10.3841 120.181 14.2277 118.259 18.0713L115.239 23.8366C114.141 25.7584 113.317 27.6801 112.494 29.6019L111.121 32.6219C110.572 33.4455 110.297 34.5437 109.748 35.6418L107.552 41.6817L105.081 47.7216C104.257 49.6434 103.708 51.8397 102.885 53.7615C102.336 55.1342 101.787 56.5069 101.512 57.605C101.237 58.7032 101.787 59.8013 102.336 61.174C103.708 63.6449 105.081 66.1158 106.454 68.8612C107.826 71.6066 108.65 74.352 108.925 77.372C109.199 79.0192 109.199 80.3919 109.199 81.7646C108.925 83.1373 108.925 84.7845 108.65 86.1572C108.101 89.1772 107.003 91.9226 105.905 94.668C104.532 97.4134 102.885 99.8843 100.688 102.081C99.5903 103.179 98.4921 104.002 97.3939 105.1C96.0212 105.924 94.9231 107.022 93.5504 107.571C90.805 109.219 88.0595 110.042 85.0396 110.591C82.0197 111.14 78.9997 111.14 75.9798 110.591C73.2344 110.042 70.2144 109.219 67.469 107.846C66.0963 107.297 64.7237 106.473 63.6255 105.65C62.2528 104.826 61.1546 104.002 60.0565 103.179C58.9583 102.355 57.8601 101.257 56.762 100.159C55.6638 99.0606 54.8402 97.9624 53.742 96.8643C52.9184 95.7661 51.8203 94.3934 51.2712 93.0207C50.4476 91.9226 49.8984 90.2753 49.3494 88.9026C47.9767 86.1572 47.9767 82.8628 47.9767 79.8428C48.5257 76.8229 49.3494 74.0775 50.4475 71.3321C51.5457 68.5867 52.3693 65.8413 53.1929 63.3704L53.742 64.4686L47.4276 62.5467C45.2313 61.9977 43.3095 61.4486 41.3877 60.625C37.2696 59.2523 33.1515 57.605 29.308 56.2323L23.268 53.7615C21.3462 52.9379 19.4245 52.1143 17.2282 51.0161C16.13 50.467 15.3064 50.1925 14.4827 49.6434C13.6591 49.0943 12.561 48.5452 11.7373 47.9961C10.9137 47.4471 9.81556 46.8979 8.99194 46.0743L7.34473 44.4271Z" fill="#5A3602"/>
<path d="M243.724 44.4264L241.253 46.6227C240.429 47.1717 239.606 47.9954 238.508 48.5445C237.684 49.0936 236.586 49.6426 235.762 50.1917C234.939 50.7407 233.84 51.2898 233.017 51.5644C231.095 52.6625 229.173 53.2116 226.977 54.3098L220.937 56.7807C217.094 58.4279 212.975 59.8006 208.857 61.1733C206.936 61.9969 204.739 62.546 202.817 63.0951L196.503 65.0169L197.052 63.9187C197.876 66.6641 198.699 69.4095 199.798 71.8804C200.896 74.6258 201.719 77.3711 202.268 80.3911C202.543 83.411 202.268 86.7056 200.896 89.451C200.347 90.8237 199.798 92.4709 198.974 93.5691C198.425 94.9418 197.327 96.0399 196.503 97.4126C195.679 98.7853 194.581 99.609 193.483 100.707C192.385 101.805 191.287 102.903 190.189 103.727C189.09 104.551 187.718 105.649 186.62 106.198C185.247 107.022 184.149 107.845 182.776 108.394C180.031 109.767 177.011 110.591 174.265 111.14C171.245 111.689 168.225 111.689 165.205 111.14C162.186 110.591 159.166 109.767 156.695 108.12C155.322 107.571 154.224 106.472 152.851 105.649C151.753 104.551 150.38 103.727 149.557 102.629C147.36 100.433 145.713 97.9617 144.34 95.2163C142.968 92.4709 141.87 89.7255 141.595 86.7056C141.32 85.3329 141.32 83.6856 141.046 82.3129C141.046 80.6657 141.046 79.2929 141.32 77.9202C141.595 74.9003 142.693 71.8803 143.791 69.4095C145.164 66.6641 146.537 64.1932 147.909 61.7224C148.458 60.3497 149.008 59.5261 148.733 58.1534C148.459 57.0552 147.909 55.6825 147.36 54.3098C146.537 52.388 145.988 50.1917 145.164 48.2699L142.693 42.23L140.497 36.1902C140.222 35.092 139.673 34.2684 139.124 33.1702L137.751 30.1502C136.928 28.2285 135.83 26.3067 135.006 24.3849L131.986 18.6195C130.064 14.7759 128.142 10.9324 126.221 7.08887L132.535 18.345L135.83 23.8358C136.928 25.7576 137.751 27.6793 138.85 29.6011L140.222 32.6211C140.771 33.4447 141.046 34.5429 141.595 35.641L144.066 41.681L146.537 47.7208C147.36 49.6426 148.184 51.8389 148.733 53.7607C149.282 55.1334 149.831 56.5061 150.38 57.8788C150.655 58.7024 150.655 59.5261 150.38 60.6242C150.106 61.4479 149.831 62.2714 149.557 62.8205C148.184 65.5659 146.811 68.0368 145.713 70.5077C144.615 72.9786 143.791 75.724 143.517 78.4694C143.242 79.8421 143.242 81.2148 143.517 82.5875C143.791 83.9602 143.791 85.3329 144.066 86.7056C144.615 89.451 145.439 91.9218 146.811 94.6672C148.184 97.1381 149.557 99.3344 151.478 101.256C152.302 102.354 153.4 103.178 154.498 104.002C155.597 104.825 156.695 105.649 158.067 106.198C160.538 107.571 163.009 108.394 165.754 108.943C168.5 109.492 171.245 109.218 173.991 108.943C176.736 108.394 179.482 107.571 181.952 106.472C183.325 105.923 184.423 105.374 185.521 104.551C186.62 104.002 187.718 102.903 188.816 102.08C189.914 101.256 191.012 100.158 191.836 99.3344C192.659 98.2363 193.758 97.4126 194.581 96.3145C195.405 95.2163 196.229 94.1181 197.052 92.7454C197.876 91.3727 198.425 90.2746 198.974 89.1764C200.072 86.7055 200.347 83.9602 200.072 81.2148C199.797 78.4694 198.974 75.724 197.876 73.2531C196.778 70.5077 195.954 67.7623 195.13 65.0169C195.13 64.4678 195.405 63.9187 195.679 63.9187L201.719 62.2715C203.641 61.7224 205.837 61.1733 207.759 60.3497L219.839 56.2316L225.879 54.0353C227.801 53.2117 229.997 52.6625 231.919 51.5644C233.017 51.0153 233.841 50.7407 234.939 50.1917C235.762 49.6426 236.86 49.368 237.684 48.8189C238.508 48.2699 239.606 47.7209 240.429 47.1718L243.724 44.4264Z" fill="#5A3602"/>
<path d="M100.339 90.3002C100.639 90.3002 100.839 90.3002 101.139 90.4002L101.239 89.9002C101.239 89.9002 100.539 89.7002 99.5394 89.8002L99.4394 89.5002C99.7394 89.4002 99.9394 89.2002 99.9394 88.9002C99.9394 88.5002 99.6393 88.2002 99.2393 88.2002C98.8393 88.2002 98.5394 88.5002 98.5394 88.9002C98.5394 89.2002 98.7394 89.5002 99.0394 89.5002L99.1394 89.8002C98.1394 89.9002 97.3394 90.3002 97.3394 90.3002L97.4394 90.7002C98.0394 90.5002 98.6394 90.4002 99.0394 90.3002C99.7394 90.3002 100.039 90.3002 100.339 90.3002Z" fill="#4C4C4C"/>
<path d="M85.5298 148.5H78.5864V128.479H72.311V122.801H91.7876V128.479H85.5298V148.5ZM117.708 135.615C117.708 139.939 116.648 143.227 114.527 145.477C112.406 147.727 109.3 148.852 105.21 148.852C101.179 148.852 98.0853 147.721 95.929 145.459C93.7845 143.197 92.7122 139.904 92.7122 135.58C92.7122 131.303 93.7786 128.039 95.9114 125.789C98.056 123.527 101.167 122.396 105.245 122.396C109.335 122.396 112.435 123.516 114.544 125.754C116.654 127.992 117.708 131.279 117.708 135.615ZM100.025 135.615C100.025 140.584 101.753 143.068 105.21 143.068C106.968 143.068 108.269 142.465 109.113 141.258C109.968 140.051 110.396 138.17 110.396 135.615C110.396 133.049 109.962 131.156 109.095 129.938C108.24 128.707 106.956 128.092 105.245 128.092C101.765 128.092 100.025 130.6 100.025 135.615ZM139.199 130.975C139.199 133.846 138.35 136.066 136.65 137.637C134.963 139.195 132.561 139.975 129.443 139.975H127.492V148.5H120.549V122.801H129.443C132.69 122.801 135.127 123.51 136.756 124.928C138.385 126.346 139.199 128.361 139.199 130.975ZM127.492 134.314H128.758C129.801 134.314 130.627 134.021 131.236 133.436C131.858 132.85 132.168 132.041 132.168 131.01C132.168 129.275 131.207 128.408 129.285 128.408H127.492V134.314ZM162.828 148.5H155.779V134.895C155.779 133.242 155.814 131.73 155.884 130.359C155.451 130.887 154.912 131.438 154.267 132.012L151.349 134.42L147.746 129.99L156.57 122.801H162.828V148.5ZM185.391 135.686C185.391 140.232 184.629 143.566 183.106 145.688C181.583 147.797 179.25 148.852 176.11 148.852C173.04 148.852 170.725 147.75 169.167 145.547C167.608 143.332 166.829 140.045 166.829 135.686C166.829 131.115 167.59 127.764 169.114 125.631C170.637 123.498 172.969 122.432 176.11 122.432C179.168 122.432 181.477 123.545 183.036 125.771C184.606 127.986 185.391 131.291 185.391 135.686ZM173.737 135.686C173.737 138.592 173.918 140.59 174.282 141.68C174.645 142.77 175.254 143.314 176.11 143.314C176.977 143.314 177.586 142.752 177.938 141.627C178.301 140.502 178.483 138.521 178.483 135.686C178.483 132.838 178.301 130.846 177.938 129.709C177.575 128.561 176.965 127.986 176.11 127.986C175.254 127.986 174.645 128.537 174.282 129.639C173.918 130.74 173.737 132.756 173.737 135.686Z" fill="url(#paint3_linear)"/>
<defs>
<linearGradient id="paint0_linear" x1="120.415" y1="185.5" x2="120.415" y2="272.5" gradientUnits="userSpaceOnUse">
<stop stop-color="#FFC700"/>
<stop offset="1" stop-color="#FC9517"/>
</linearGradient>
<linearGradient id="paint1_linear" x1="125.122" y1="0.5" x2="125.122" y2="168.519" gradientUnits="userSpaceOnUse">
<stop stop-color="#FFC700"/>
<stop offset="1" stop-color="#FC9517"/>
</linearGradient>
<linearGradient id="paint2_linear" x1="124.709" y1="163.577" x2="124.709" y2="179.5" gradientUnits="userSpaceOnUse">
<stop stop-color="#8F5A2D"/>
<stop offset="1" stop-color="#351B06"/>
</linearGradient>
<linearGradient id="paint3_linear" x1="129.415" y1="110.5" x2="129.415" y2="159.5" gradientUnits="userSpaceOnUse">
<stop stop-color="#8F5A2D"/>
<stop offset="1" stop-color="#351B06"/>
</linearGradient>
</defs>
</svg>
