<svg width="296" height="317" viewBox="0 0 296 317" fill="none" xmlns="http://www.w3.org/2000/svg">
<path d="M111.722 268.062C114.347 268.062 116.711 268.677 118.815 269.906C120.94 271.115 122.586 272.833 123.753 275.062C124.94 277.292 125.534 279.865 125.534 282.781C125.534 287.885 123.993 291.802 120.909 294.531C117.847 297.26 113.201 298.625 106.972 298.625C101.638 298.625 97.2842 297.802 93.9092 296.156V286.031C95.7217 286.865 97.7633 287.552 100.034 288.094C102.326 288.635 104.295 288.906 105.94 288.906C108.232 288.906 109.993 288.427 111.222 287.469C112.451 286.49 113.065 285.052 113.065 283.156C113.065 281.406 112.44 280.042 111.19 279.062C109.94 278.083 108.045 277.594 105.503 277.594C103.565 277.594 101.472 277.958 99.2217 278.688L94.6904 276.438L96.4092 252.312H122.472V262.594H106.909L106.347 268.625C107.972 268.312 109.128 268.146 109.815 268.125C110.503 268.083 111.138 268.062 111.722 268.062ZM160.522 275.219C160.522 283.302 159.168 289.229 156.459 293C153.751 296.75 149.605 298.625 144.022 298.625C138.563 298.625 134.449 296.667 131.678 292.75C128.907 288.812 127.522 282.969 127.522 275.219C127.522 267.094 128.876 261.135 131.584 257.344C134.293 253.552 138.438 251.656 144.022 251.656C149.459 251.656 153.563 253.635 156.334 257.594C159.126 261.531 160.522 267.406 160.522 275.219ZM139.803 275.219C139.803 280.385 140.126 283.938 140.772 285.875C141.418 287.812 142.501 288.781 144.022 288.781C145.563 288.781 146.647 287.781 147.272 285.781C147.918 283.781 148.24 280.26 148.24 275.219C148.24 270.156 147.918 266.615 147.272 264.594C146.626 262.552 145.543 261.531 144.022 261.531C142.501 261.531 141.418 262.51 140.772 264.469C140.126 266.427 139.803 270.01 139.803 275.219ZM194.822 275.219C194.822 283.302 193.468 289.229 190.759 293C188.051 296.75 183.905 298.625 178.322 298.625C172.863 298.625 168.749 296.667 165.978 292.75C163.207 288.812 161.822 282.969 161.822 275.219C161.822 267.094 163.176 261.135 165.884 257.344C168.593 253.552 172.738 251.656 178.322 251.656C183.759 251.656 187.863 253.635 190.634 257.594C193.426 261.531 194.822 267.406 194.822 275.219ZM174.103 275.219C174.103 280.385 174.426 283.938 175.072 285.875C175.718 287.812 176.801 288.781 178.322 288.781C179.863 288.781 180.947 287.781 181.572 285.781C182.218 283.781 182.54 280.26 182.54 275.219C182.54 270.156 182.218 266.615 181.572 264.594C180.926 262.552 179.843 261.531 178.322 261.531C176.801 261.531 175.718 262.51 175.072 264.469C174.426 266.427 174.103 270.01 174.103 275.219Z" fill="url(#paint0_linear)"/>
<path d="M237.574 201.764C237.574 201.764 232.812 180.71 246.597 130.833C260.131 80.9561 281.937 43.1098 281.937 43.1098L272.162 39.0995C272.162 39.0995 237.073 91.9841 222.285 75.1914C202.986 53.1352 208.249 25.3145 208.249 25.3145H197.221C197.221 25.5651 197.221 25.8157 197.221 25.8157C197.472 39.6008 194.464 53.8872 185.191 65.4165C175.917 76.6952 163.636 85.2169 149.6 85.4676C132.807 85.7182 117.268 77.1965 110.751 60.9051C109.749 58.6493 99.9737 25.3145 102.48 25.3145H91.452C91.452 25.3145 95.4622 46.8693 79.6721 71.6825C63.8819 96.245 27.79 39.0995 27.79 39.0995L18.0151 43.1098C18.0151 43.1098 39.57 80.9561 53.3551 130.833C66.8895 180.71 62.378 201.764 62.378 201.764H148.597H237.574Z" fill="url(#paint1_linear)"/>
<path d="M236.822 203.518C236.822 211.538 197.723 218.055 149.35 218.055C100.976 218.055 61.877 211.538 61.877 203.518C61.877 195.498 100.976 188.981 149.35 188.981C197.723 189.232 236.822 195.498 236.822 203.518Z" fill="#7E4E26"/>
<path d="M236.822 203.518C236.822 203.518 236.822 204.27 236.07 205.523C235.318 206.526 233.564 207.779 231.308 208.781C226.797 210.787 219.779 212.792 211.508 214.295C202.986 215.799 193.211 217.052 182.684 217.804C172.158 218.556 160.628 219.058 149.35 219.058C138.071 219.058 126.542 218.556 116.015 217.804C105.488 217.052 95.4624 215.799 87.1914 214.295C78.6697 212.792 71.9025 210.787 67.391 208.781C65.1352 207.779 63.3808 206.526 62.6289 205.523C61.8769 204.521 61.877 203.518 61.877 203.518C61.877 203.518 61.8769 204.27 62.6289 205.272C63.3808 206.275 65.1352 207.278 67.391 208.28C71.9025 210.285 78.9203 211.538 87.1914 213.042C95.4624 214.295 105.488 215.047 116.015 215.799C126.542 216.551 137.82 216.802 149.35 216.802C160.628 216.802 171.907 216.551 182.684 215.799C193.211 215.047 203.237 214.295 211.508 213.042C219.779 211.789 226.797 210.285 231.308 208.28C233.564 207.278 235.318 206.275 236.07 205.272C236.822 204.27 236.822 203.518 236.822 203.518Z" fill="#FFE18D"/>
<path d="M61.877 203.518C61.877 203.518 61.877 202.766 62.6289 201.513C63.3808 200.51 65.1353 199.257 67.391 198.255C71.9025 196.25 78.9203 194.244 87.1914 192.741C95.7131 191.237 105.488 189.984 116.015 189.232C126.542 188.48 138.071 187.979 149.35 187.979C160.628 187.979 172.158 188.48 182.684 189.232C193.211 189.984 203.237 191.237 211.508 192.741C220.03 194.244 226.797 196.25 231.308 198.255C233.564 199.257 235.318 200.51 236.07 201.513C236.822 202.516 236.822 203.518 236.822 203.518C236.822 203.518 236.822 202.766 236.07 201.764C235.318 200.761 233.564 199.759 231.308 198.756C226.797 196.751 219.779 195.498 211.508 193.994C203.237 192.741 193.211 191.989 182.684 191.237C172.158 190.485 160.879 190.234 149.35 190.234C138.071 190.234 126.792 190.485 116.015 191.237C105.488 191.989 95.4625 192.741 87.1914 193.994C78.9203 195.247 71.9025 196.751 67.391 198.756C65.1353 199.759 63.3808 200.761 62.6289 201.764C61.6263 202.766 61.877 203.518 61.877 203.518Z" fill="#FFE18D"/>
<path d="M233.813 157.401C223.788 151.386 189.701 146.874 149.348 146.874C110.75 146.874 77.9165 151.135 66.1365 156.649C66.1365 156.649 54.1059 161.662 55.3591 169.181C56.111 174.695 61.6251 174.194 61.6251 174.194C61.6251 166.173 100.725 159.657 149.098 159.657C197.471 159.657 236.57 166.173 236.57 174.194C236.57 174.194 243.087 170.685 239.829 163.667C238.074 159.155 233.813 157.401 233.813 157.401Z" fill="#EBB33A"/>
<path d="M233.813 186.475C223.788 180.46 189.701 175.948 149.348 175.948C110.75 175.948 77.9165 180.209 66.1365 185.723C66.1365 185.723 54.1059 190.736 55.3591 198.255C56.111 203.769 61.6251 203.268 61.6251 203.268C61.6251 195.247 100.725 188.731 149.098 188.731C197.471 188.731 236.57 195.247 236.57 203.268C236.57 203.268 243.087 199.759 239.829 192.741C238.074 188.229 233.813 186.475 233.813 186.475Z" fill="#EBB33A"/>
<path d="M233.814 157.401C230.556 155.646 227.297 154.894 223.788 153.892C220.279 153.14 216.77 152.388 213.512 151.887C210.003 151.385 206.494 150.884 202.985 150.383C199.476 150.132 195.968 149.631 192.459 149.38C185.441 148.879 178.423 148.378 171.405 148.127C164.387 147.877 157.369 147.876 150.351 147.876H139.825C136.316 147.876 132.807 147.877 129.298 148.127C125.789 148.378 122.28 148.378 118.771 148.628C115.262 148.879 111.753 149.13 108.244 149.38L97.7175 150.383C94.2085 150.884 90.6996 151.135 87.1907 151.636L81.9273 152.639C80.1728 152.889 78.4183 153.14 76.6639 153.641C74.9094 154.142 73.1549 154.393 71.6511 154.894L66.6384 156.649L65.1345 157.401C64.6332 157.651 64.132 157.902 63.6307 158.153L60.623 159.907L63.3801 157.902C63.8813 157.651 64.3826 157.15 64.8839 156.899L66.3877 156.148L71.4005 154.142C73.1549 153.641 74.9094 153.14 76.4132 152.639C79.9222 151.636 83.4311 151.135 86.6894 150.132C90.1983 149.631 93.7073 149.13 97.2162 148.378L107.743 147.125C111.252 146.874 114.761 146.623 118.27 146.373C121.779 146.122 125.288 145.871 128.797 145.871C132.305 145.621 135.814 145.621 139.323 145.621C142.832 145.621 146.341 145.37 149.85 145.37C156.868 145.37 164.137 145.621 171.154 145.871C174.663 146.122 178.172 146.122 181.681 146.623C185.19 146.874 188.699 147.125 192.208 147.626C195.717 148.127 199.226 148.378 202.735 148.879C206.244 149.38 209.753 149.882 213.262 150.634C216.77 151.385 220.279 152.137 223.538 153.14C227.297 154.393 230.806 155.646 233.814 157.401Z" fill="#BC7622"/>
<path d="M61.8765 174.444C61.8765 174.444 61.8765 173.692 62.3778 172.69C63.1297 171.687 64.6335 170.434 66.8893 169.432C71.1501 167.427 77.6667 165.421 85.6871 163.918C93.7075 162.414 102.981 161.161 113.007 160.409C123.032 159.657 133.81 159.155 144.587 158.905C150.101 158.905 155.364 159.155 160.628 159.155C165.891 159.406 171.155 159.657 176.167 159.907C181.18 160.409 186.193 160.659 190.704 161.161C195.216 161.662 199.727 162.163 203.738 162.664C207.748 163.166 211.507 163.918 214.515 164.67C217.773 165.171 220.53 166.173 222.786 166.675C225.042 167.176 226.796 167.928 228.049 168.429C229.303 168.93 229.804 169.181 229.804 169.181C229.804 169.181 229.052 168.93 228.049 168.68C226.796 168.429 225.042 167.677 222.786 167.176C220.53 166.675 217.773 165.923 214.515 165.672C211.257 165.171 207.748 164.669 203.738 164.168C199.727 163.667 195.467 163.416 190.704 162.915C186.193 162.414 181.18 162.414 176.167 162.163C171.155 161.912 165.891 161.662 160.628 161.662C155.364 161.662 149.85 161.411 144.587 161.662C133.81 161.662 123.032 162.163 113.007 162.664C102.981 163.416 93.7075 164.168 85.6871 165.421C77.6667 166.675 71.1501 168.178 66.8893 169.933C64.6335 170.935 63.1297 171.938 62.3778 172.941C61.6259 173.692 61.8765 174.444 61.8765 174.444Z" fill="#BC7622"/>
<path d="M233.815 186.474C230.557 184.719 227.299 183.967 223.79 182.965C220.281 182.213 216.772 181.461 213.514 180.96C210.005 180.458 206.496 179.957 202.987 179.456C199.478 179.205 195.969 178.704 192.46 178.453C185.442 177.952 178.424 177.451 171.407 177.2C164.389 176.949 157.371 176.949 150.353 176.949H139.826C136.317 176.949 132.808 176.949 129.299 177.2C125.79 177.451 122.282 177.451 118.773 177.701L108.246 178.453L97.719 179.456C94.2101 179.957 90.7012 180.208 87.1922 180.709L81.9289 181.712C80.1744 181.962 78.4199 182.213 76.6655 182.714C74.911 183.215 73.1565 183.466 71.6527 183.967L66.6399 185.722C65.3868 186.223 64.1336 186.975 62.8804 187.476C64.1336 186.724 65.1361 185.972 66.3893 185.471L71.402 183.466C73.1565 182.965 74.911 182.463 76.4148 181.962C78.1693 181.461 79.9237 180.96 81.6782 180.709L86.9416 179.706C90.4505 179.205 93.9595 178.704 97.4684 177.952L107.995 176.699C111.504 176.197 115.013 176.198 118.522 175.947C122.031 175.696 125.54 175.446 129.049 175.446C132.558 175.195 136.067 175.195 139.576 175.195C143.085 175.195 146.593 174.944 150.102 174.944C157.12 174.944 164.389 175.195 171.407 175.446C174.916 175.696 178.424 175.696 181.933 176.198C185.442 176.448 188.951 176.699 192.46 177.2C195.969 177.701 199.478 177.952 202.987 178.453C206.496 178.955 210.005 179.456 213.514 180.208C217.023 180.96 220.532 181.711 223.79 182.714C227.299 183.466 230.808 184.719 233.815 186.474Z" fill="#BC7622"/>
<path d="M15.5085 39.8508C10.997 41.8559 6.73613 41.104 2.97656 40.6027C5.98422 46.1168 11.7489 49.8763 18.5161 49.8763C28.291 49.8763 36.0608 42.1066 36.0608 32.3317C36.0608 29.8253 35.5595 27.5696 34.8076 25.5645C33.0531 27.0683 30.7974 28.3215 28.5416 29.324C24.0301 32.081 20.0199 37.5951 15.5085 39.8508Z" fill="url(#paint2_linear)"/>
<path d="M18.5163 14.7871C8.74146 14.7871 0.97168 22.5569 0.97168 32.3318C0.97168 35.3394 1.7236 38.0964 2.97679 40.6028C6.48572 41.1041 10.7466 41.856 15.5087 39.8509C20.0202 37.5952 24.0304 32.0811 28.7925 29.3241C31.0482 28.0709 33.0533 26.8177 35.0584 25.5645C32.3014 19.2986 26.0355 14.7871 18.5163 14.7871Z" fill="url(#paint3_linear)"/>
<path d="M96.9648 2.25537C88.9444 2.25537 81.9265 7.7694 79.9214 15.2885C84.1822 16.5417 85.6861 19.5494 89.4456 24.0609C91.2001 26.3166 93.2052 30.0762 96.2129 30.3268C99.4711 30.8281 99.9724 27.5698 102.479 27.0685C105.737 26.5672 109.497 28.3217 112.504 27.5698C113.758 25.0634 114.509 22.557 114.509 19.5494C114.509 10.0251 106.74 2.25537 96.9648 2.25537Z" fill="url(#paint4_linear)"/>
<path d="M102.729 27.3181C99.9722 27.8193 99.4709 31.0776 96.4633 30.5764C93.205 30.0751 91.4505 26.5662 89.6961 24.3104C86.1871 19.7989 84.4327 16.7913 80.1718 15.5381C79.6705 17.0419 79.4199 18.5457 79.4199 20.0495C79.4199 29.8244 87.1897 37.5942 96.9646 37.5942C103.732 37.5942 109.747 33.584 112.755 27.8193C109.496 28.3206 105.988 26.5661 102.729 27.3181Z" fill="url(#paint5_linear)"/>
<path d="M210.256 23.5601C206.245 24.5626 203.488 28.0715 199.228 27.5702C193.212 26.3171 191.959 16.2916 185.693 14.0358C185.192 13.7852 184.691 13.7852 184.189 13.7852C183.939 15.0383 183.688 16.2915 183.688 17.5447C183.688 27.3196 191.458 35.0894 201.233 35.0894C208.752 35.0894 215.268 30.3273 217.775 23.8107C215.519 23.8107 213.013 23.0588 210.256 23.5601Z" fill="url(#paint6_linear)"/>
<path d="M201.483 0C192.961 0 185.943 5.76467 184.189 13.7851C184.69 13.7851 185.192 13.7851 185.693 14.0357C191.959 16.2915 193.463 26.317 199.227 27.5702C203.237 28.0714 205.994 24.3119 210.255 23.56C213.012 23.0587 215.519 23.8106 217.774 23.8106C218.526 21.8055 219.028 19.8004 219.028 17.5447C219.028 7.76978 211.007 0 201.483 0Z" fill="url(#paint7_linear)"/>
<path d="M295.971 35.3406C295.971 25.5657 288.201 17.7959 278.426 17.7959C272.16 17.7959 266.646 21.0542 263.388 26.067C263.388 26.8189 263.638 27.5708 263.889 28.3227C266.145 36.0925 273.914 34.338 277.173 38.8495C279.93 42.609 276.17 48.3737 280.431 52.3839C280.682 52.6346 280.682 52.6346 280.932 52.8852C289.454 51.632 295.971 44.1129 295.971 35.3406Z" fill="url(#paint8_linear)"/>
<path d="M277.174 38.599C273.916 34.0875 266.146 35.8419 263.89 28.0722C263.639 27.3203 263.64 26.5683 263.389 25.8164C261.634 28.5734 260.632 31.8317 260.632 35.09C260.632 44.8649 268.402 52.6347 278.176 52.6347C278.928 52.6347 279.68 52.6347 280.432 52.384C280.182 52.1334 280.182 52.1334 279.931 51.8828C276.171 48.1232 279.931 42.1079 277.174 38.599Z" fill="url(#paint9_linear)"/>
<g opacity="0.4">
<path opacity="0.4" d="M100.223 45.6162C100.223 45.6162 100.474 46.1175 100.975 47.12C101.476 48.1226 102.228 49.6264 102.98 51.6315C103.732 53.6366 104.985 55.8923 105.988 58.6493C107.241 61.4064 108.494 64.414 110.249 67.4217C111.752 70.68 113.758 73.9383 116.264 76.946C118.77 79.9536 122.029 82.7106 126.039 84.7157C129.798 86.7208 134.31 87.974 138.821 88.7259C140.075 88.9765 141.077 88.9766 142.33 89.2272C142.832 89.2272 143.584 89.4778 144.085 89.4778H145.839L149.348 89.7285L152.857 89.4778C155.113 89.4778 157.369 88.9766 159.875 88.4753C161.128 88.2247 162.131 87.974 163.133 87.4727C164.136 87.2221 165.389 86.9714 166.392 86.4702C167.394 85.9689 168.647 85.7183 169.65 85.217C170.652 84.7157 171.655 84.2144 172.658 83.7131L174.161 82.9612L175.665 81.9587C176.668 81.4574 177.42 80.7055 178.422 80.2042C181.931 77.4472 184.939 74.6902 187.445 71.4319C188.698 69.9281 189.701 68.1736 190.703 66.6698C191.706 65.166 192.458 63.4115 193.21 61.9077C194.714 58.6494 195.716 55.6417 196.468 52.8847C197.22 50.1277 197.471 47.6213 197.972 45.6162C198.223 43.6111 198.223 41.8566 198.223 40.8541C198.223 39.8515 198.223 39.0996 198.223 39.0996C198.223 39.0996 198.223 39.6009 198.223 40.8541C198.223 41.8566 198.223 43.6111 198.223 45.6162C197.972 47.6213 197.972 50.3783 197.22 53.1353C196.719 56.143 195.716 59.1506 194.463 62.6596C193.711 64.414 192.959 66.1685 191.957 67.6723C190.954 69.4268 189.952 71.1813 188.698 72.6851C186.443 76.194 183.184 79.2017 179.425 82.2094C178.422 82.9613 177.42 83.4625 176.668 84.2144L175.164 85.217L173.66 85.9689C172.658 86.4702 171.655 86.9714 170.402 87.7234C169.399 88.2246 168.146 88.7259 167.143 88.9765C166.141 89.4778 164.888 89.7285 163.635 90.2297C162.381 90.4804 161.379 90.9816 160.126 91.2323C157.619 91.4829 155.363 92.2349 152.857 92.2349L149.098 92.4855L145.589 92.2349H143.834C143.082 92.2349 142.581 91.9842 142.08 91.9842C140.826 91.7336 139.573 91.7336 138.571 91.4829C133.809 90.4804 129.297 89.2272 125.036 86.9715C121.026 84.7157 117.517 81.7081 115.011 78.4498C112.504 75.1915 110.499 71.6826 108.995 68.4243C107.492 65.166 106.238 62.1583 105.236 59.4013C104.233 56.6443 103.231 54.3885 102.479 52.3834C101.226 47.8719 100.223 45.6162 100.223 45.6162Z" fill="#CE8A29"/>
</g>
<g opacity="0.4">
<path opacity="0.4" d="M225.292 85.4671C225.292 85.4671 226.044 85.2165 227.298 84.7152C228.049 84.4646 228.801 84.2139 229.553 83.7126C230.556 83.4619 231.558 82.9607 232.561 82.4594C233.564 81.9581 234.817 81.4569 236.07 80.9556C237.323 80.4544 238.326 79.7024 239.829 78.9505C241.083 78.1986 242.336 77.4467 243.589 76.6948C244.842 75.9428 246.095 74.9403 247.349 74.1884C248.602 73.1858 249.855 72.1833 250.858 71.4313C252.111 70.4288 253.113 69.4263 254.116 68.4237C255.118 67.4212 256.372 66.4186 257.123 65.416C257.875 64.4135 258.878 63.4109 259.63 62.659C260.382 61.9071 261.134 60.9045 261.635 60.1526C262.136 59.4007 262.638 58.6488 262.888 58.1476C263.64 56.8944 264.141 56.3931 264.141 56.3931C264.141 56.3931 263.891 57.145 263.389 58.3982C263.139 59.1501 262.888 59.902 262.387 60.6539C262.136 61.1552 261.886 61.6565 261.886 62.1578C261.635 62.6591 261.384 63.1603 260.883 63.6616C260.131 64.6641 259.63 65.6667 258.627 66.9199C257.875 68.1731 256.873 69.1756 255.87 70.1782C254.868 71.1807 253.865 72.4339 252.612 73.4365C251.359 74.439 250.106 75.4415 248.852 76.4441C247.599 77.4467 246.095 78.1986 244.842 78.9505C243.589 79.953 242.085 80.4543 240.832 81.2062C239.579 81.9581 238.075 82.4594 236.822 82.9607C235.569 83.462 234.315 83.7126 233.062 84.2139C231.809 84.7152 230.806 84.9658 230.055 84.9658C229.052 85.2164 228.3 85.2164 227.548 85.4671C226.295 85.2164 225.292 85.4671 225.292 85.4671Z" fill="#CE8A29"/>
</g>
<g opacity="0.4">
<path opacity="0.4" d="M30.2969 53.1357C30.2969 53.1357 30.7982 53.637 31.8007 54.8902C32.302 55.3914 32.8033 56.1434 33.3045 56.8953C33.8058 57.6472 34.5577 58.6498 35.5603 59.4017C36.3122 60.4042 37.3147 61.1562 38.0667 62.1587C39.0692 63.1613 40.0718 64.1638 41.0743 65.1663C42.0769 66.1689 43.33 67.4221 44.5832 68.174C45.8364 69.1766 47.0896 70.1791 48.3428 71.1816C49.596 72.1842 50.8492 72.9361 52.1024 73.9387C53.3556 74.9412 54.6088 75.6931 55.8619 76.445C57.1151 77.197 58.3683 77.9489 59.6215 78.7008C60.8747 79.202 62.1279 79.954 63.1304 80.4553C64.133 80.9565 65.1355 81.4578 66.1381 81.9591C67.1406 82.2097 67.8926 82.711 68.3938 82.9616C69.647 83.4629 70.399 83.7135 70.399 83.7135C70.399 83.7135 69.647 83.7136 68.1432 83.2123C67.3913 82.9617 66.6394 82.9616 65.6368 82.711C64.6343 82.4604 63.6317 82.2097 62.3785 81.7085C61.1253 81.2072 59.8721 80.7059 58.619 80.2046C57.3658 79.7033 56.1126 78.9515 54.6088 78.1995C53.3556 77.4476 51.8517 76.6957 50.5986 75.6932C49.3454 74.6906 47.8415 73.9387 46.5883 72.9361C45.3351 71.9336 44.082 70.6804 42.8288 69.6779C41.5756 68.6753 40.573 67.4221 39.5705 66.4195C38.5679 65.1663 37.5654 64.1638 36.5628 63.1613C35.8109 61.9081 35.059 60.9055 34.3071 59.9029C33.5552 58.9004 33.0539 57.8979 32.5526 57.146C32.0513 56.1434 31.8007 55.3914 31.2994 54.8902C30.5475 53.8876 30.2969 53.1357 30.2969 53.1357Z" fill="#CE8A29"/>
</g>
<path d="M105.087 133H98.1436V112.979H91.8682V107.301H111.345V112.979H105.087V133ZM137.265 120.115C137.265 124.439 136.205 127.727 134.084 129.977C131.963 132.227 128.857 133.352 124.767 133.352C120.736 133.352 117.642 132.221 115.486 129.959C113.342 127.697 112.269 124.404 112.269 120.08C112.269 115.803 113.336 112.539 115.469 110.289C117.613 108.027 120.724 106.896 124.803 106.896C128.892 106.896 131.992 108.016 134.101 110.254C136.211 112.492 137.265 115.779 137.265 120.115ZM119.582 120.115C119.582 125.084 121.31 127.568 124.767 127.568C126.525 127.568 127.826 126.965 128.67 125.758C129.525 124.551 129.953 122.67 129.953 120.115C129.953 117.549 129.519 115.656 128.652 114.438C127.797 113.207 126.513 112.592 124.803 112.592C121.322 112.592 119.582 115.1 119.582 120.115ZM158.756 115.475C158.756 118.346 157.907 120.566 156.208 122.137C154.52 123.695 152.118 124.475 149.001 124.475H147.049V133H140.106V107.301H149.001C152.247 107.301 154.684 108.01 156.313 109.428C157.942 110.846 158.756 112.861 158.756 115.475ZM147.049 118.814H148.315C149.358 118.814 150.184 118.521 150.794 117.936C151.415 117.35 151.725 116.541 151.725 115.51C151.725 113.775 150.764 112.908 148.842 112.908H147.049V118.814ZM182.385 133H175.336V119.395C175.336 117.742 175.371 116.23 175.442 114.859C175.008 115.387 174.469 115.938 173.824 116.512L170.906 118.92L167.303 114.49L176.127 107.301H182.385V133ZM204.948 120.186C204.948 124.732 204.187 128.066 202.663 130.188C201.14 132.297 198.808 133.352 195.667 133.352C192.597 133.352 190.282 132.25 188.724 130.047C187.165 127.832 186.386 124.545 186.386 120.186C186.386 115.615 187.147 112.264 188.671 110.131C190.194 107.998 192.526 106.932 195.667 106.932C198.726 106.932 201.034 108.045 202.593 110.271C204.163 112.486 204.948 115.791 204.948 120.186ZM193.294 120.186C193.294 123.092 193.476 125.09 193.839 126.18C194.202 127.27 194.812 127.814 195.667 127.814C196.534 127.814 197.144 127.252 197.495 126.127C197.858 125.002 198.04 123.021 198.04 120.186C198.04 117.338 197.858 115.346 197.495 114.209C197.132 113.061 196.522 112.486 195.667 112.486C194.812 112.486 194.202 113.037 193.839 114.139C193.476 115.24 193.294 117.256 193.294 120.186Z" fill="url(#paint10_linear)"/>
<defs>
<linearGradient id="paint0_linear" x1="144.472" y1="230" x2="144.472" y2="317" gradientUnits="userSpaceOnUse">
<stop stop-color="#FFC700"/>
<stop offset="1" stop-color="#FC9517"/>
</linearGradient>
<linearGradient id="paint1_linear" x1="149.976" y1="25.3145" x2="149.976" y2="201.764" gradientUnits="userSpaceOnUse">
<stop stop-color="#FFC700"/>
<stop offset="1" stop-color="#FC9517"/>
</linearGradient>
<linearGradient id="paint2_linear" x1="19.5187" y1="25.5645" x2="19.5187" y2="49.8763" gradientUnits="userSpaceOnUse">
<stop stop-color="#FFC700"/>
<stop offset="1" stop-color="#FF4070"/>
</linearGradient>
<linearGradient id="paint3_linear" x1="18.0151" y1="14.7871" x2="18.0151" y2="41.1668" gradientUnits="userSpaceOnUse">
<stop stop-color="#FFC700"/>
<stop offset="1" stop-color="#FF4070"/>
</linearGradient>
<linearGradient id="paint4_linear" x1="97.2154" y1="2.25537" x2="97.2154" y2="30.3791" gradientUnits="userSpaceOnUse">
<stop stop-color="#FFC700"/>
<stop offset="1" stop-color="#FF4070"/>
</linearGradient>
<linearGradient id="paint5_linear" x1="96.0873" y1="15.5381" x2="96.0873" y2="37.5942" gradientUnits="userSpaceOnUse">
<stop stop-color="#FFC700"/>
<stop offset="1" stop-color="#FF4070"/>
</linearGradient>
<linearGradient id="paint6_linear" x1="200.731" y1="13.7852" x2="200.731" y2="35.0894" gradientUnits="userSpaceOnUse">
<stop stop-color="#FFC700"/>
<stop offset="1" stop-color="#FF4070"/>
</linearGradient>
<linearGradient id="paint7_linear" x1="201.608" y1="0" x2="201.608" y2="27.616" gradientUnits="userSpaceOnUse">
<stop stop-color="#FFC700"/>
<stop offset="1" stop-color="#FF4070"/>
</linearGradient>
<linearGradient id="paint8_linear" x1="279.679" y1="17.7959" x2="279.679" y2="52.8852" gradientUnits="userSpaceOnUse">
<stop stop-color="#FFC700"/>
<stop offset="1" stop-color="#FF4070"/>
</linearGradient>
<linearGradient id="paint9_linear" x1="270.532" y1="25.8164" x2="270.532" y2="52.6347" gradientUnits="userSpaceOnUse">
<stop stop-color="#FFC700"/>
<stop offset="1" stop-color="#FF4070"/>
</linearGradient>
<linearGradient id="paint10_linear" x1="148.972" y1="95" x2="148.972" y2="144" gradientUnits="userSpaceOnUse">
<stop stop-color="#8F5A2D"/>
<stop offset="1" stop-color="#351B06"/>
</linearGradient>
</defs>
</svg>
