<svg width="296" height="317" viewBox="0 0 296 317" fill="none" xmlns="http://www.w3.org/2000/svg">
<path d="M126.035 298H92.8789V289.875L104.035 278.594C107.223 275.26 109.306 272.99 110.285 271.781C111.264 270.552 111.941 269.5 112.316 268.625C112.712 267.75 112.91 266.833 112.91 265.875C112.91 264.688 112.525 263.75 111.754 263.062C110.983 262.375 109.9 262.031 108.504 262.031C107.066 262.031 105.608 262.448 104.129 263.281C102.671 264.094 101.014 265.302 99.1602 266.906L92.3789 258.969C94.7331 256.865 96.7122 255.365 98.3164 254.469C99.9206 253.552 101.66 252.854 103.535 252.375C105.431 251.896 107.556 251.656 109.91 251.656C112.868 251.656 115.504 252.177 117.816 253.219C120.15 254.26 121.952 255.75 123.223 257.688C124.514 259.604 125.16 261.76 125.16 264.156C125.16 265.948 124.931 267.604 124.473 269.125C124.035 270.646 123.348 272.146 122.41 273.625C121.473 275.083 120.223 276.625 118.66 278.25C117.118 279.875 113.816 282.958 108.754 287.5V287.812H126.035V298ZM146.023 268.062C148.648 268.062 151.012 268.677 153.116 269.906C155.241 271.115 156.887 272.833 158.054 275.062C159.241 277.292 159.835 279.865 159.835 282.781C159.835 287.885 158.293 291.802 155.21 294.531C152.148 297.26 147.502 298.625 141.273 298.625C135.939 298.625 131.585 297.802 128.21 296.156V286.031C130.023 286.865 132.064 287.552 134.335 288.094C136.627 288.635 138.596 288.906 140.241 288.906C142.533 288.906 144.293 288.427 145.523 287.469C146.752 286.49 147.366 285.052 147.366 283.156C147.366 281.406 146.741 280.042 145.491 279.062C144.241 278.083 142.346 277.594 139.804 277.594C137.866 277.594 135.773 277.958 133.523 278.688L128.991 276.438L130.71 252.312H156.773V262.594H141.21L140.648 268.625C142.273 268.312 143.429 268.146 144.116 268.125C144.804 268.083 145.439 268.062 146.023 268.062ZM194.823 275.219C194.823 283.302 193.468 289.229 190.76 293C188.052 296.75 183.906 298.625 178.323 298.625C172.864 298.625 168.75 296.667 165.979 292.75C163.208 288.812 161.823 282.969 161.823 275.219C161.823 267.094 163.177 261.135 165.885 257.344C168.593 253.552 172.739 251.656 178.323 251.656C183.76 251.656 187.864 253.635 190.635 257.594C193.427 261.531 194.823 267.406 194.823 275.219ZM174.104 275.219C174.104 280.385 174.427 283.938 175.073 285.875C175.718 287.812 176.802 288.781 178.323 288.781C179.864 288.781 180.948 287.781 181.573 285.781C182.218 283.781 182.541 280.26 182.541 275.219C182.541 270.156 182.218 266.615 181.573 264.594C180.927 262.552 179.843 261.531 178.323 261.531C176.802 261.531 175.718 262.51 175.073 264.469C174.427 266.427 174.104 270.01 174.104 275.219Z" fill="url(#paint0_linear)"/>
<path d="M237.575 201.764C237.575 201.764 232.813 180.71 246.598 130.833C260.132 80.9561 281.938 43.1098 281.938 43.1098L272.163 39.0995C272.163 39.0995 237.074 91.9841 222.286 75.1914C202.987 53.1352 208.25 25.3145 208.25 25.3145H197.222C197.222 25.5651 197.222 25.8157 197.222 25.8157C197.473 39.6008 194.465 53.8872 185.192 65.4165C175.918 76.6952 163.637 85.2169 149.601 85.4676C132.808 85.7182 117.269 77.1965 110.752 60.9051C109.75 58.6493 99.9747 25.3145 102.481 25.3145H91.453C91.453 25.3145 95.4632 46.8693 79.673 71.6825C63.8828 96.245 27.791 39.0995 27.791 39.0995L18.0161 43.1098C18.0161 43.1098 39.571 80.9561 53.3561 130.833C66.8905 180.71 62.379 201.764 62.379 201.764H148.598H237.575Z" fill="url(#paint1_linear)"/>
<path d="M236.823 203.518C236.823 211.538 197.724 218.055 149.351 218.055C100.977 218.055 61.8779 211.538 61.8779 203.518C61.8779 195.498 100.977 188.981 149.351 188.981C197.724 189.232 236.823 195.498 236.823 203.518Z" fill="#7E4E26"/>
<path d="M236.823 203.518C236.823 203.518 236.823 204.27 236.071 205.523C235.319 206.526 233.565 207.779 231.309 208.781C226.798 210.787 219.78 212.792 211.509 214.295C202.987 215.799 193.212 217.052 182.685 217.804C172.159 218.556 160.629 219.058 149.351 219.058C138.072 219.058 126.543 218.556 116.016 217.804C105.489 217.052 95.4634 215.799 87.1924 214.295C78.6707 212.792 71.9034 210.787 67.392 208.781C65.1362 207.779 63.3817 206.526 62.6298 205.523C61.8779 204.521 61.8779 203.518 61.8779 203.518C61.8779 203.518 61.8779 204.27 62.6298 205.272C63.3817 206.275 65.1362 207.278 67.392 208.28C71.9034 210.285 78.9213 211.538 87.1924 213.042C95.4634 214.295 105.489 215.047 116.016 215.799C126.543 216.551 137.821 216.802 149.351 216.802C160.629 216.802 171.908 216.551 182.685 215.799C193.212 215.047 203.238 214.295 211.509 213.042C219.78 211.789 226.798 210.285 231.309 208.28C233.565 207.278 235.319 206.275 236.071 205.272C236.823 204.27 236.823 203.518 236.823 203.518Z" fill="#FFE18D"/>
<path d="M61.8779 203.518C61.8779 203.518 61.8779 202.766 62.6299 201.513C63.3818 200.51 65.1362 199.257 67.392 198.255C71.9035 196.25 78.9213 194.244 87.1924 192.741C95.7141 191.237 105.489 189.984 116.016 189.232C126.543 188.48 138.072 187.979 149.351 187.979C160.629 187.979 172.159 188.48 182.685 189.232C193.212 189.984 203.238 191.237 211.509 192.741C220.03 194.244 226.798 196.25 231.309 198.255C233.565 199.257 235.319 200.51 236.071 201.513C236.823 202.516 236.823 203.518 236.823 203.518C236.823 203.518 236.823 202.766 236.071 201.764C235.319 200.761 233.565 199.759 231.309 198.756C226.798 196.751 219.78 195.498 211.509 193.994C203.238 192.741 193.212 191.989 182.685 191.237C172.159 190.485 160.88 190.234 149.351 190.234C138.072 190.234 126.793 190.485 116.016 191.237C105.489 191.989 95.4634 192.741 87.1924 193.994C78.9213 195.247 71.9035 196.751 67.392 198.756C65.1362 199.759 63.3818 200.761 62.6299 201.764C61.6273 202.766 61.8779 203.518 61.8779 203.518Z" fill="#FFE18D"/>
<path d="M233.814 157.401C223.789 151.386 189.702 146.874 149.349 146.874C110.751 146.874 77.9175 151.135 66.1375 156.649C66.1375 156.649 54.1069 161.662 55.3601 169.181C56.112 174.695 61.626 174.194 61.626 174.194C61.626 166.173 100.726 159.657 149.099 159.657C197.472 159.657 236.571 166.173 236.571 174.194C236.571 174.194 243.088 170.685 239.83 163.667C238.075 159.155 233.814 157.401 233.814 157.401Z" fill="#EBB33A"/>
<path d="M233.814 186.475C223.789 180.46 189.702 175.948 149.349 175.948C110.751 175.948 77.9175 180.209 66.1375 185.723C66.1375 185.723 54.1069 190.736 55.3601 198.255C56.112 203.769 61.626 203.268 61.626 203.268C61.626 195.247 100.726 188.731 149.099 188.731C197.472 188.731 236.571 195.247 236.571 203.268C236.571 203.268 243.088 199.759 239.83 192.741C238.075 188.229 233.814 186.475 233.814 186.475Z" fill="#EBB33A"/>
<path d="M233.815 157.401C230.557 155.646 227.298 154.894 223.789 153.892C220.28 153.14 216.771 152.388 213.513 151.887C210.004 151.385 206.495 150.884 202.986 150.383C199.477 150.132 195.969 149.631 192.46 149.38C185.442 148.879 178.424 148.378 171.406 148.127C164.388 147.877 157.37 147.876 150.352 147.876H139.826C136.317 147.876 132.808 147.877 129.299 148.127C125.79 148.378 122.281 148.378 118.772 148.628C115.263 148.879 111.754 149.13 108.245 149.38L97.7184 150.383C94.2095 150.884 90.7006 151.135 87.1916 151.636L81.9282 152.639C80.1738 152.889 78.4193 153.14 76.6649 153.641C74.9104 154.142 73.1559 154.393 71.6521 154.894L66.6393 156.649L65.1355 157.401C64.6342 157.651 64.1329 157.902 63.6317 158.153L60.624 159.907L63.381 157.902C63.8823 157.651 64.3836 157.15 64.8849 156.899L66.3887 156.148L71.4014 154.142C73.1559 153.641 74.9104 153.14 76.4142 152.639C79.9231 151.636 83.4321 151.135 86.6904 150.132C90.1993 149.631 93.7082 149.13 97.2172 148.378L107.744 147.125C111.253 146.874 114.762 146.623 118.271 146.373C121.78 146.122 125.289 145.871 128.798 145.871C132.306 145.621 135.815 145.621 139.324 145.621C142.833 145.621 146.342 145.37 149.851 145.37C156.869 145.37 164.137 145.621 171.155 145.871C174.664 146.122 178.173 146.122 181.682 146.623C185.191 146.874 188.7 147.125 192.209 147.626C195.718 148.127 199.227 148.378 202.736 148.879C206.245 149.38 209.754 149.882 213.263 150.634C216.771 151.385 220.28 152.137 223.539 153.14C227.298 154.393 230.807 155.646 233.815 157.401Z" fill="#BC7622"/>
<path d="M61.8775 174.444C61.8775 174.444 61.8775 173.692 62.3788 172.69C63.1307 171.687 64.6345 170.434 66.8903 169.432C71.1511 167.427 77.6677 165.421 85.6881 163.918C93.7085 162.414 102.982 161.161 113.008 160.409C123.033 159.657 133.811 159.155 144.588 158.905C150.102 158.905 155.365 159.155 160.629 159.155C165.892 159.406 171.156 159.657 176.168 159.907C181.181 160.409 186.194 160.659 190.705 161.161C195.217 161.662 199.728 162.163 203.739 162.664C207.749 163.166 211.508 163.918 214.516 164.67C217.774 165.171 220.531 166.173 222.787 166.675C225.043 167.176 226.797 167.928 228.05 168.429C229.304 168.93 229.805 169.181 229.805 169.181C229.805 169.181 229.053 168.93 228.05 168.68C226.797 168.429 225.043 167.677 222.787 167.176C220.531 166.675 217.774 165.923 214.516 165.672C211.258 165.171 207.749 164.669 203.739 164.168C199.728 163.667 195.468 163.416 190.705 162.915C186.194 162.414 181.181 162.414 176.168 162.163C171.156 161.912 165.892 161.662 160.629 161.662C155.365 161.662 149.851 161.411 144.588 161.662C133.811 161.662 123.033 162.163 113.008 162.664C102.982 163.416 93.7085 164.168 85.6881 165.421C77.6677 166.675 71.1511 168.178 66.8903 169.933C64.6345 170.935 63.1307 171.938 62.3788 172.941C61.6269 173.692 61.8775 174.444 61.8775 174.444Z" fill="#BC7622"/>
<path d="M233.816 186.474C230.558 184.719 227.3 183.967 223.791 182.965C220.282 182.213 216.773 181.461 213.515 180.96C210.006 180.458 206.497 179.957 202.988 179.456C199.479 179.205 195.97 178.704 192.461 178.453C185.443 177.952 178.425 177.451 171.408 177.2C164.39 176.949 157.372 176.949 150.354 176.949H139.827C136.318 176.949 132.809 176.949 129.3 177.2C125.791 177.451 122.283 177.451 118.774 177.701L108.247 178.453L97.72 179.456C94.2111 179.957 90.7022 180.208 87.1932 180.709L81.9298 181.712C80.1754 181.962 78.4209 182.213 76.6664 182.714C74.912 183.215 73.1575 183.466 71.6537 183.967L66.6409 185.722C65.3877 186.223 64.1345 186.975 62.8813 187.476C64.1345 186.724 65.1371 185.972 66.3903 185.471L71.403 183.466C73.1575 182.965 74.912 182.463 76.4158 181.962C78.1702 181.461 79.9247 180.96 81.6792 180.709L86.9426 179.706C90.4515 179.205 93.9604 178.704 97.4694 177.952L107.996 176.699C111.505 176.197 115.014 176.198 118.523 175.947C122.032 175.696 125.541 175.446 129.05 175.446C132.559 175.195 136.068 175.195 139.577 175.195C143.085 175.195 146.594 174.944 150.103 174.944C157.121 174.944 164.39 175.195 171.408 175.446C174.916 175.696 178.425 175.696 181.934 176.198C185.443 176.448 188.952 176.699 192.461 177.2C195.97 177.701 199.479 177.952 202.988 178.453C206.497 178.955 210.006 179.456 213.515 180.208C217.024 180.96 220.533 181.711 223.791 182.714C227.3 183.466 230.809 184.719 233.816 186.474Z" fill="#BC7622"/>
<path d="M15.5094 39.8508C10.998 41.8559 6.73711 41.104 2.97754 40.6027C5.98519 46.1168 11.7499 49.8763 18.5171 49.8763C28.292 49.8763 36.0617 42.1066 36.0617 32.3317C36.0617 29.8253 35.5605 27.5696 34.8086 25.5645C33.0541 27.0683 30.7983 28.3215 28.5426 29.324C24.0311 32.081 20.0209 37.5951 15.5094 39.8508Z" fill="url(#paint2_linear)"/>
<path d="M18.5173 14.7871C8.74243 14.7871 0.972656 22.5569 0.972656 32.3318C0.972656 35.3394 1.72458 38.0964 2.97777 40.6028C6.4867 41.1041 10.7475 41.856 15.5097 39.8509C20.0211 37.5952 24.0314 32.0811 28.7935 29.3241C31.0492 28.0709 33.0543 26.8177 35.0594 25.5645C32.3024 19.2986 26.0364 14.7871 18.5173 14.7871Z" fill="url(#paint3_linear)"/>
<path d="M96.9657 2.25537C88.9453 2.25537 81.9275 7.7694 79.9224 15.2885C84.1832 16.5417 85.687 19.5494 89.4466 24.0609C91.2011 26.3166 93.2062 30.0762 96.2138 30.3268C99.4721 30.8281 99.9734 27.5698 102.48 27.0685C105.738 26.5672 109.498 28.3217 112.505 27.5698C113.758 25.0634 114.51 22.557 114.51 19.5494C114.51 10.0251 106.741 2.25537 96.9657 2.25537Z" fill="url(#paint4_linear)"/>
<path d="M102.73 27.3181C99.9732 27.8193 99.4719 31.0776 96.4643 30.5764C93.206 30.0751 91.4515 26.5662 89.6971 24.3104C86.1881 19.7989 84.4336 16.7913 80.1728 15.5381C79.6715 17.0419 79.4209 18.5457 79.4209 20.0495C79.4209 29.8244 87.1907 37.5942 96.9656 37.5942C103.733 37.5942 109.748 33.584 112.756 27.8193C109.497 28.3206 105.989 26.5661 102.73 27.3181Z" fill="url(#paint5_linear)"/>
<path d="M210.257 23.5601C206.246 24.5626 203.489 28.0715 199.229 27.5702C193.213 26.3171 191.96 16.2916 185.694 14.0358C185.193 13.7852 184.692 13.7852 184.19 13.7852C183.94 15.0383 183.689 16.2915 183.689 17.5447C183.689 27.3196 191.459 35.0894 201.234 35.0894C208.753 35.0894 215.269 30.3273 217.776 23.8107C215.52 23.8107 213.014 23.0588 210.257 23.5601Z" fill="url(#paint6_linear)"/>
<path d="M201.484 0C192.962 0 185.944 5.76467 184.19 13.7851C184.691 13.7851 185.193 13.7851 185.694 14.0357C191.96 16.2915 193.464 26.317 199.228 27.5702C203.238 28.0714 205.995 24.3119 210.256 23.56C213.013 23.0587 215.52 23.8106 217.775 23.8106C218.527 21.8055 219.029 19.8004 219.029 17.5447C219.029 7.76978 211.008 0 201.484 0Z" fill="url(#paint7_linear)"/>
<path d="M295.972 35.3406C295.972 25.5657 288.202 17.7959 278.427 17.7959C272.161 17.7959 266.647 21.0542 263.389 26.067C263.389 26.8189 263.639 27.5708 263.89 28.3227C266.146 36.0925 273.915 34.338 277.174 38.8495C279.931 42.609 276.171 48.3737 280.432 52.3839C280.683 52.6346 280.683 52.6346 280.933 52.8852C289.455 51.632 295.972 44.1129 295.972 35.3406Z" fill="url(#paint8_linear)"/>
<path d="M277.175 38.599C273.917 34.0875 266.147 35.8419 263.891 28.0722C263.64 27.3203 263.64 26.5683 263.39 25.8164C261.635 28.5734 260.633 31.8317 260.633 35.09C260.633 44.8649 268.403 52.6347 278.177 52.6347C278.929 52.6347 279.681 52.6347 280.433 52.384C280.183 52.1334 280.183 52.1334 279.932 51.8828C276.172 48.1232 279.932 42.1079 277.175 38.599Z" fill="url(#paint9_linear)"/>
<g opacity="0.4">
<path opacity="0.4" d="M100.224 45.6162C100.224 45.6162 100.475 46.1175 100.976 47.12C101.477 48.1226 102.229 49.6264 102.981 51.6315C103.733 53.6366 104.986 55.8923 105.989 58.6493C107.242 61.4064 108.495 64.414 110.25 67.4217C111.753 70.68 113.759 73.9383 116.265 76.946C118.771 79.9536 122.03 82.7106 126.04 84.7157C129.799 86.7208 134.311 87.974 138.822 88.7259C140.076 88.9765 141.078 88.9766 142.331 89.2272C142.833 89.2272 143.584 89.4778 144.086 89.4778H145.84L149.349 89.7285L152.858 89.4778C155.114 89.4778 157.37 88.9766 159.876 88.4753C161.129 88.2247 162.132 87.974 163.134 87.4727C164.137 87.2221 165.39 86.9714 166.393 86.4702C167.395 85.9689 168.648 85.7183 169.651 85.217C170.653 84.7157 171.656 84.2144 172.658 83.7131L174.162 82.9612L175.666 81.9587C176.669 81.4574 177.421 80.7055 178.423 80.2042C181.932 77.4472 184.94 74.6902 187.446 71.4319C188.699 69.9281 189.702 68.1736 190.704 66.6698C191.707 65.166 192.459 63.4115 193.211 61.9077C194.715 58.6494 195.717 55.6417 196.469 52.8847C197.221 50.1277 197.472 47.6213 197.973 45.6162C198.224 43.6111 198.224 41.8566 198.224 40.8541C198.224 39.8515 198.224 39.0996 198.224 39.0996C198.224 39.0996 198.224 39.6009 198.224 40.8541C198.224 41.8566 198.224 43.6111 198.224 45.6162C197.973 47.6213 197.973 50.3783 197.221 53.1353C196.72 56.143 195.717 59.1506 194.464 62.6596C193.712 64.414 192.96 66.1685 191.958 67.6723C190.955 69.4268 189.953 71.1813 188.699 72.6851C186.444 76.194 183.185 79.2017 179.426 82.2094C178.423 82.9613 177.421 83.4625 176.669 84.2144L175.165 85.217L173.661 85.9689C172.658 86.4702 171.656 86.9714 170.403 87.7234C169.4 88.2246 168.147 88.7259 167.144 88.9765C166.142 89.4778 164.889 89.7285 163.636 90.2297C162.382 90.4804 161.38 90.9816 160.127 91.2323C157.62 91.4829 155.364 92.2349 152.858 92.2349L149.099 92.4855L145.59 92.2349H143.835C143.083 92.2349 142.582 91.9842 142.081 91.9842C140.827 91.7336 139.574 91.7336 138.572 91.4829C133.81 90.4804 129.298 89.2272 125.037 86.9715C121.027 84.7157 117.518 81.7081 115.012 78.4498C112.505 75.1915 110.5 71.6826 108.996 68.4243C107.493 65.166 106.239 62.1583 105.237 59.4013C104.234 56.6443 103.232 54.3885 102.48 52.3834C101.227 47.8719 100.224 45.6162 100.224 45.6162Z" fill="#CE8A29"/>
</g>
<g opacity="0.4">
<path opacity="0.4" d="M225.293 85.4671C225.293 85.4671 226.045 85.2165 227.299 84.7152C228.05 84.4646 228.802 84.2139 229.554 83.7126C230.557 83.4619 231.559 82.9607 232.562 82.4594C233.564 81.9581 234.818 81.4569 236.071 80.9556C237.324 80.4544 238.327 79.7024 239.83 78.9505C241.084 78.1986 242.337 77.4467 243.59 76.6948C244.843 75.9428 246.096 74.9403 247.35 74.1884C248.603 73.1858 249.856 72.1833 250.859 71.4313C252.112 70.4288 253.114 69.4263 254.117 68.4237C255.119 67.4212 256.373 66.4186 257.124 65.416C257.876 64.4135 258.879 63.4109 259.631 62.659C260.383 61.9071 261.135 60.9045 261.636 60.1526C262.137 59.4007 262.639 58.6488 262.889 58.1476C263.641 56.8944 264.142 56.3931 264.142 56.3931C264.142 56.3931 263.892 57.145 263.39 58.3982C263.14 59.1501 262.889 59.902 262.388 60.6539C262.137 61.1552 261.887 61.6565 261.887 62.1578C261.636 62.6591 261.385 63.1603 260.884 63.6616C260.132 64.6641 259.631 65.6667 258.628 66.9199C257.876 68.1731 256.874 69.1756 255.871 70.1782C254.869 71.1807 253.866 72.4339 252.613 73.4365C251.36 74.439 250.107 75.4415 248.853 76.4441C247.6 77.4467 246.096 78.1986 244.843 78.9505C243.59 79.953 242.086 80.4543 240.833 81.2062C239.58 81.9581 238.076 82.4594 236.823 82.9607C235.57 83.462 234.316 83.7126 233.063 84.2139C231.81 84.7152 230.807 84.9658 230.056 84.9658C229.053 85.2164 228.301 85.2164 227.549 85.4671C226.296 85.2164 225.293 85.4671 225.293 85.4671Z" fill="#CE8A29"/>
</g>
<g opacity="0.4">
<path opacity="0.4" d="M30.2979 53.1357C30.2979 53.1357 30.7991 53.637 31.8017 54.8902C32.303 55.3914 32.8042 56.1434 33.3055 56.8953C33.8068 57.6472 34.5587 58.6498 35.5613 59.4017C36.3132 60.4042 37.3157 61.1562 38.0676 62.1587C39.0702 63.1613 40.0727 64.1638 41.0753 65.1663C42.0778 66.1689 43.331 67.4221 44.5842 68.174C45.8374 69.1766 47.0906 70.1791 48.3438 71.1816C49.597 72.1842 50.8502 72.9361 52.1034 73.9387C53.3565 74.9412 54.6097 75.6931 55.8629 76.445C57.1161 77.197 58.3693 77.9489 59.6225 78.7008C60.8757 79.202 62.1289 79.954 63.1314 80.4553C64.134 80.9565 65.1365 81.4578 66.1391 81.9591C67.1416 82.2097 67.8935 82.711 68.3948 82.9616C69.648 83.4629 70.3999 83.7135 70.3999 83.7135C70.3999 83.7135 69.648 83.7136 68.1442 83.2123C67.3923 82.9617 66.6404 82.9616 65.6378 82.711C64.6353 82.4604 63.6327 82.2097 62.3795 81.7085C61.1263 81.2072 59.8731 80.7059 58.6199 80.2046C57.3667 79.7033 56.1136 78.9515 54.6097 78.1995C53.3565 77.4476 51.8527 76.6957 50.5995 75.6932C49.3463 74.6906 47.8425 73.9387 46.5893 72.9361C45.3361 71.9336 44.0829 70.6804 42.8297 69.6779C41.5766 68.6753 40.574 67.4221 39.5715 66.4195C38.5689 65.1663 37.5664 64.1638 36.5638 63.1613C35.8119 61.9081 35.06 60.9055 34.3081 59.9029C33.5562 58.9004 33.0549 57.8979 32.5536 57.146C32.0523 56.1434 31.8017 55.3914 31.3004 54.8902C30.5485 53.8876 30.2979 53.1357 30.2979 53.1357Z" fill="#CE8A29"/>
</g>
<path d="M105.088 133H98.1445V112.979H91.8691V107.301H111.346V112.979H105.088V133ZM137.266 120.115C137.266 124.439 136.206 127.727 134.085 129.977C131.964 132.227 128.858 133.352 124.768 133.352C120.737 133.352 117.643 132.221 115.487 129.959C113.343 127.697 112.27 124.404 112.27 120.08C112.27 115.803 113.337 112.539 115.47 110.289C117.614 108.027 120.725 106.896 124.804 106.896C128.893 106.896 131.993 108.016 134.102 110.254C136.212 112.492 137.266 115.779 137.266 120.115ZM119.583 120.115C119.583 125.084 121.311 127.568 124.768 127.568C126.526 127.568 127.827 126.965 128.671 125.758C129.526 124.551 129.954 122.67 129.954 120.115C129.954 117.549 129.52 115.656 128.653 114.438C127.798 113.207 126.514 112.592 124.804 112.592C121.323 112.592 119.583 115.1 119.583 120.115ZM158.757 115.475C158.757 118.346 157.908 120.566 156.209 122.137C154.521 123.695 152.119 124.475 149.002 124.475H147.05V133H140.107V107.301H149.002C152.248 107.301 154.685 108.01 156.314 109.428C157.943 110.846 158.757 112.861 158.757 115.475ZM147.05 118.814H148.316C149.359 118.814 150.185 118.521 150.795 117.936C151.416 117.35 151.726 116.541 151.726 115.51C151.726 113.775 150.765 112.908 148.843 112.908H147.05V118.814ZM182.386 133H175.337V119.395C175.337 117.742 175.372 116.23 175.443 114.859C175.009 115.387 174.47 115.938 173.825 116.512L170.907 118.92L167.304 114.49L176.128 107.301H182.386V133ZM204.949 120.186C204.949 124.732 204.188 128.066 202.664 130.188C201.141 132.297 198.809 133.352 195.668 133.352C192.598 133.352 190.283 132.25 188.725 130.047C187.166 127.832 186.387 124.545 186.387 120.186C186.387 115.615 187.148 112.264 188.672 110.131C190.195 107.998 192.527 106.932 195.668 106.932C198.727 106.932 201.035 108.045 202.594 110.271C204.164 112.486 204.949 115.791 204.949 120.186ZM193.295 120.186C193.295 123.092 193.477 125.09 193.84 126.18C194.203 127.27 194.812 127.814 195.668 127.814C196.535 127.814 197.145 127.252 197.496 126.127C197.859 125.002 198.041 123.021 198.041 120.186C198.041 117.338 197.859 115.346 197.496 114.209C197.133 113.061 196.523 112.486 195.668 112.486C194.812 112.486 194.203 113.037 193.84 114.139C193.477 115.24 193.295 117.256 193.295 120.186Z" fill="url(#paint10_linear)"/>
<defs>
<linearGradient id="paint0_linear" x1="144.473" y1="230" x2="144.473" y2="317" gradientUnits="userSpaceOnUse">
<stop stop-color="#FFC700"/>
<stop offset="1" stop-color="#FC9517"/>
</linearGradient>
<linearGradient id="paint1_linear" x1="149.977" y1="25.3145" x2="149.977" y2="201.764" gradientUnits="userSpaceOnUse">
<stop stop-color="#FFC700"/>
<stop offset="1" stop-color="#FC9517"/>
</linearGradient>
<linearGradient id="paint2_linear" x1="19.5196" y1="25.5645" x2="19.5196" y2="49.8763" gradientUnits="userSpaceOnUse">
<stop stop-color="#FFC700"/>
<stop offset="1" stop-color="#FF4070"/>
</linearGradient>
<linearGradient id="paint3_linear" x1="18.016" y1="14.7871" x2="18.016" y2="41.1668" gradientUnits="userSpaceOnUse">
<stop stop-color="#FFC700"/>
<stop offset="1" stop-color="#FF4070"/>
</linearGradient>
<linearGradient id="paint4_linear" x1="97.2164" y1="2.25537" x2="97.2164" y2="30.3791" gradientUnits="userSpaceOnUse">
<stop stop-color="#FFC700"/>
<stop offset="1" stop-color="#FF4070"/>
</linearGradient>
<linearGradient id="paint5_linear" x1="96.0883" y1="15.5381" x2="96.0883" y2="37.5942" gradientUnits="userSpaceOnUse">
<stop stop-color="#FFC700"/>
<stop offset="1" stop-color="#FF4070"/>
</linearGradient>
<linearGradient id="paint6_linear" x1="200.732" y1="13.7852" x2="200.732" y2="35.0894" gradientUnits="userSpaceOnUse">
<stop stop-color="#FFC700"/>
<stop offset="1" stop-color="#FF4070"/>
</linearGradient>
<linearGradient id="paint7_linear" x1="201.609" y1="0" x2="201.609" y2="27.616" gradientUnits="userSpaceOnUse">
<stop stop-color="#FFC700"/>
<stop offset="1" stop-color="#FF4070"/>
</linearGradient>
<linearGradient id="paint8_linear" x1="279.68" y1="17.7959" x2="279.68" y2="52.8852" gradientUnits="userSpaceOnUse">
<stop stop-color="#FFC700"/>
<stop offset="1" stop-color="#FF4070"/>
</linearGradient>
<linearGradient id="paint9_linear" x1="270.533" y1="25.8164" x2="270.533" y2="52.6347" gradientUnits="userSpaceOnUse">
<stop stop-color="#FFC700"/>
<stop offset="1" stop-color="#FF4070"/>
</linearGradient>
<linearGradient id="paint10_linear" x1="148.973" y1="95" x2="148.973" y2="144" gradientUnits="userSpaceOnUse">
<stop stop-color="#8F5A2D"/>
<stop offset="1" stop-color="#351B06"/>
</linearGradient>
</defs>
</svg>
