<svg width="250" height="273" viewBox="0 0 250 273" fill="none" xmlns="http://www.w3.org/2000/svg">
<path d="M119.649 253.5H86.4928V245.375L97.6491 234.094C100.837 230.76 102.92 228.49 103.899 227.281C104.878 226.052 105.555 225 105.93 224.125C106.326 223.25 106.524 222.333 106.524 221.375C106.524 220.188 106.139 219.25 105.368 218.562C104.597 217.875 103.514 217.531 102.118 217.531C100.68 217.531 99.222 217.948 97.7428 218.781C96.2845 219.594 94.6282 220.802 92.7741 222.406L85.9928 214.469C88.347 212.365 90.3262 210.865 91.9303 209.969C93.5345 209.052 95.2741 208.354 97.1491 207.875C99.0449 207.396 101.17 207.156 103.524 207.156C106.482 207.156 109.118 207.677 111.43 208.719C113.764 209.76 115.566 211.25 116.837 213.188C118.128 215.104 118.774 217.26 118.774 219.656C118.774 221.448 118.545 223.104 118.087 224.625C117.649 226.146 116.962 227.646 116.024 229.125C115.087 230.583 113.837 232.125 112.274 233.75C110.732 235.375 107.43 238.458 102.368 243V243.312H119.649V253.5ZM154.137 230.719C154.137 238.802 152.782 244.729 150.074 248.5C147.366 252.25 143.22 254.125 137.637 254.125C132.178 254.125 128.064 252.167 125.293 248.25C122.522 244.312 121.137 238.469 121.137 230.719C121.137 222.594 122.491 216.635 125.199 212.844C127.907 209.052 132.053 207.156 137.637 207.156C143.074 207.156 147.178 209.135 149.949 213.094C152.741 217.031 154.137 222.906 154.137 230.719ZM133.418 230.719C133.418 235.885 133.741 239.438 134.387 241.375C135.032 243.312 136.116 244.281 137.637 244.281C139.178 244.281 140.262 243.281 140.887 241.281C141.532 239.281 141.855 235.76 141.855 230.719C141.855 225.656 141.532 222.115 140.887 220.094C140.241 218.052 139.157 217.031 137.637 217.031C136.116 217.031 135.032 218.01 134.387 219.969C133.741 221.927 133.418 225.51 133.418 230.719Z" fill="url(#paint0_linear)"/>
<path d="M119.978 5.16714C104.054 21.9141 93.6216 64.1933 93.6216 64.1933C111.467 72.7041 104.603 95.491 89.229 102.08C77.6983 107.022 59.8531 97.6872 57.6568 85.0584C56.0096 75.724 60.9513 68.5859 66.9912 62.5461C66.9912 62.5461 11.5341 44.7009 3.29787 36.7393C3.29787 36.7393 -1.09478 35.3666 1.10154 42.5046C3.29786 49.9172 44.2044 166.322 44.2044 166.322L116.683 168.519H133.705L206.183 166.322C206.183 166.322 247.09 49.6427 249.286 42.5046C251.482 35.0921 247.09 36.7393 247.09 36.7393C238.579 44.7009 183.396 62.5461 183.396 62.5461C189.711 68.8605 194.378 75.9986 192.731 85.0584C190.534 97.6872 172.689 107.022 161.159 102.08C145.784 95.491 138.921 72.4295 156.766 64.1933C156.766 64.1933 146.608 21.9141 130.41 5.16714L125.194 0.5L119.978 5.16714Z" fill="url(#paint1_linear)"/>
<path d="M212.223 171.538C212.223 175.931 208.653 179.5 204.261 179.5H45.302C40.9093 179.5 37.3403 175.931 37.3403 171.538C37.3403 167.146 40.9093 163.577 45.302 163.577H204.261C208.653 163.851 212.223 167.146 212.223 171.538Z" fill="url(#paint2_linear)"/>
<path d="M7.41699 44.4271L9.88784 46.3489C10.7115 46.898 11.8096 47.4471 12.6332 47.9961C13.4569 48.5452 14.555 49.0943 15.3786 49.3688C16.2023 49.9179 17.3004 50.1925 18.3986 50.7415C20.3204 51.5652 22.2422 52.3888 24.4385 53.2124L30.4784 55.4088L42.5581 59.5269C44.4799 60.3505 46.6763 60.625 48.598 61.4486L54.6379 63.0959C55.187 63.0959 55.4615 63.6449 55.187 64.194C54.3634 66.9394 53.5397 69.9593 52.4416 72.4302C51.3434 75.1756 50.7943 77.921 50.2453 80.3919C49.9707 83.1373 50.2453 85.8827 51.3434 88.3536C51.8925 89.7263 52.4416 90.8244 53.2652 91.9226C54.0888 93.2953 54.9124 94.3934 55.7361 95.4916C56.5597 96.5897 57.6578 97.6879 58.4815 98.5115C59.5796 99.3352 60.4033 100.433 61.5014 101.257C62.5996 102.081 63.6977 102.904 64.7959 103.728C65.8941 104.551 67.2668 105.101 68.3649 105.65C70.8358 106.748 73.5812 107.571 76.3266 108.12C79.072 108.395 81.8174 108.67 84.5628 108.12C87.3082 107.571 89.7791 106.748 92.2499 105.375C93.6226 104.826 94.4463 104.002 95.819 103.179C96.9171 102.355 98.0153 101.532 98.8389 100.433C100.761 98.5116 102.408 96.0407 103.506 93.8444C104.604 91.3735 105.702 88.6281 106.252 85.8827C106.526 84.51 106.526 83.1373 106.801 81.7646C106.801 80.3919 106.801 79.0192 106.801 77.6465C106.526 74.9011 105.702 72.1557 104.604 69.6848C103.506 67.2139 102.133 64.7431 100.761 61.9977C100.486 61.4486 100.212 60.625 99.9371 59.8013C99.6625 58.9777 99.6625 57.8796 99.9371 57.3305C100.212 55.6832 101.035 54.5851 101.584 53.2124C102.408 51.2906 102.957 49.0943 103.781 47.1725L106.252 41.1326L108.722 35.0927C108.997 33.9945 109.546 33.171 110.095 32.0728L111.468 29.0529C112.566 27.1311 113.39 25.2093 114.488 23.2875L117.782 17.7967L124.097 6.54053C122.175 10.3841 120.253 14.2277 118.331 18.0713L115.311 23.8366C114.213 25.7584 113.39 27.6801 112.566 29.6019L111.193 32.6219C110.644 33.4455 110.37 34.5437 109.82 35.6418L107.624 41.6817L105.153 47.7216C104.33 49.6434 103.781 51.8397 102.957 53.7615C102.408 55.1342 101.859 56.5069 101.584 57.605C101.31 58.7032 101.859 59.8013 102.408 61.174C103.781 63.6449 105.153 66.1158 106.526 68.8612C107.899 71.6066 108.722 74.352 108.997 77.372C109.271 79.0192 109.271 80.3919 109.271 81.7646C108.997 83.1373 108.997 84.7845 108.722 86.1572C108.173 89.1772 107.075 91.9226 105.977 94.668C104.604 97.4134 102.957 99.8843 100.761 102.081C99.6625 103.179 98.5643 104.002 97.4662 105.1C96.0935 105.924 94.9953 107.022 93.6226 107.571C90.8772 109.219 88.1318 110.042 85.1119 110.591C82.0919 111.14 79.072 111.14 76.0521 110.591C73.3067 110.042 70.2867 109.219 67.5413 107.846C66.1686 107.297 64.7959 106.473 63.6978 105.65C62.3251 104.826 61.2269 104.002 60.1287 103.179C59.0306 102.355 57.9324 101.257 56.8342 100.159C55.7361 99.0606 54.9124 97.9624 53.8143 96.8643C52.9907 95.7661 51.8925 94.3934 51.3434 93.0207C50.5198 91.9226 49.9707 90.2753 49.4216 88.9026C48.0489 86.1572 48.0489 82.8628 48.0489 79.8428C48.598 76.8229 49.4216 74.0775 50.5198 71.3321C51.618 68.5867 52.4416 65.8413 53.2652 63.3704L53.8143 64.4686L47.4999 62.5467C45.3035 61.9977 43.3818 61.4486 41.46 60.625C37.3419 59.2523 33.2238 57.605 29.3802 56.2323L23.3403 53.7615C21.4185 52.9379 19.4967 52.1143 17.3004 51.0161C16.2023 50.467 15.3786 50.1925 14.555 49.6434C13.7314 49.0943 12.6332 48.5452 11.8096 47.9961C10.986 47.4471 9.88783 46.8979 9.06421 46.0743L7.41699 44.4271Z" fill="#5A3602"/>
<path d="M243.796 44.4264L241.325 46.6227C240.501 47.1717 239.678 47.9954 238.579 48.5445C237.756 49.0936 236.658 49.6426 235.834 50.1917C235.01 50.7407 233.912 51.2898 233.089 51.5644C231.167 52.6625 229.245 53.2116 227.049 54.3098L221.009 56.7807C217.165 58.4279 213.047 59.8006 208.929 61.1733C207.007 61.9969 204.811 62.546 202.889 63.0951L196.575 65.0169L197.124 63.9187C197.948 66.6641 198.771 69.4095 199.869 71.8804C200.967 74.6258 201.791 77.3711 202.34 80.3911C202.615 83.411 202.34 86.7056 200.967 89.451C200.418 90.8237 199.869 92.4709 199.046 93.5691C198.497 94.9418 197.398 96.0399 196.575 97.4126C195.751 98.7853 194.653 99.609 193.555 100.707C192.457 101.805 191.359 102.903 190.26 103.727C189.162 104.551 187.79 105.649 186.691 106.198C185.319 107.022 184.221 107.845 182.848 108.394C180.102 109.767 177.082 110.591 174.337 111.14C171.317 111.689 168.297 111.689 165.277 111.14C162.257 110.591 159.237 109.767 156.766 108.12C155.394 107.571 154.296 106.472 152.923 105.649C151.825 104.551 150.452 103.727 149.628 102.629C147.432 100.433 145.785 97.9617 144.412 95.2163C143.039 92.4709 141.941 89.7255 141.667 86.7056C141.392 85.3329 141.392 83.6856 141.118 82.3129C141.118 80.6657 141.118 79.2929 141.392 77.9202C141.667 74.9003 142.765 71.8803 143.863 69.4095C145.236 66.6641 146.608 64.1932 147.981 61.7224C148.53 60.3497 149.079 59.5261 148.805 58.1534C148.53 57.0552 147.981 55.6825 147.432 54.3098C146.608 52.388 146.059 50.1917 145.236 48.2699L142.765 42.23L140.569 36.1902C140.294 35.092 139.745 34.2684 139.196 33.1702L137.823 30.1502C137 28.2285 135.901 26.3067 135.078 24.3849L132.058 18.6195C130.136 14.7759 128.214 10.9324 126.292 7.08887L132.607 18.345L135.901 23.8358C137 25.7576 137.823 27.6793 138.921 29.6011L140.294 32.6211C140.843 33.4447 141.118 34.5429 141.667 35.641L144.138 41.681L146.608 47.7208C147.432 49.6426 148.256 51.8389 148.805 53.7607C149.354 55.1334 149.903 56.5061 150.452 57.8788C150.727 58.7024 150.727 59.5261 150.452 60.6242C150.178 61.4479 149.903 62.2714 149.628 62.8205C148.256 65.5659 146.883 68.0368 145.785 70.5077C144.687 72.9786 143.863 75.724 143.589 78.4694C143.314 79.8421 143.314 81.2148 143.589 82.5875C143.863 83.9602 143.863 85.3329 144.138 86.7056C144.687 89.451 145.51 91.9218 146.883 94.6672C148.256 97.1381 149.628 99.3344 151.55 101.256C152.374 102.354 153.472 103.178 154.57 104.002C155.668 104.825 156.766 105.649 158.139 106.198C160.61 107.571 163.081 108.394 165.826 108.943C168.572 109.492 171.317 109.218 174.062 108.943C176.808 108.394 179.553 107.571 182.024 106.472C183.397 105.923 184.495 105.374 185.593 104.551C186.691 104.002 187.79 102.903 188.888 102.08C189.986 101.256 191.084 100.158 191.908 99.3344C192.731 98.2363 193.829 97.4126 194.653 96.3145C195.477 95.2163 196.3 94.1181 197.124 92.7454C197.948 91.3727 198.497 90.2746 199.046 89.1764C200.144 86.7055 200.418 83.9602 200.144 81.2148C199.869 78.4694 199.046 75.724 197.948 73.2531C196.849 70.5077 196.026 67.7623 195.202 65.0169C195.202 64.4678 195.477 63.9187 195.751 63.9187L201.791 62.2715C203.713 61.7224 205.909 61.1733 207.831 60.3497L219.911 56.2316L225.951 54.0353C227.872 53.2117 230.069 52.6625 231.991 51.5644C233.089 51.0153 233.912 50.7407 235.01 50.1917C235.834 49.6426 236.932 49.368 237.756 48.8189C238.579 48.2699 239.678 47.7209 240.501 47.1718L243.796 44.4264Z" fill="#5A3602"/>
<path d="M100.411 90.3002C100.711 90.3002 100.911 90.3002 101.211 90.4002L101.311 89.9002C101.311 89.9002 100.611 89.7002 99.6114 89.8002L99.5114 89.5002C99.8114 89.4002 100.011 89.2002 100.011 88.9002C100.011 88.5002 99.7114 88.2002 99.3114 88.2002C98.9114 88.2002 98.6114 88.5002 98.6114 88.9002C98.6114 89.2002 98.8114 89.5002 99.1114 89.5002L99.2114 89.8002C98.2114 89.9002 97.4114 90.3002 97.4114 90.3002L97.5114 90.7002C98.1114 90.5002 98.7114 90.4002 99.1114 90.3002C99.8114 90.3002 100.111 90.3002 100.411 90.3002Z" fill="#4C4C4C"/>
<path d="M85.6018 148.5H78.6584V128.479H72.3831V122.801H91.8596V128.479H85.6018V148.5ZM117.78 135.615C117.78 139.939 116.72 143.227 114.599 145.477C112.478 147.727 109.372 148.852 105.282 148.852C101.251 148.852 98.1573 147.721 96.001 145.459C93.8565 143.197 92.7842 139.904 92.7842 135.58C92.7842 131.303 93.8506 128.039 95.9834 125.789C98.128 123.527 101.239 122.396 105.317 122.396C109.407 122.396 112.507 123.516 114.616 125.754C116.726 127.992 117.78 131.279 117.78 135.615ZM100.097 135.615C100.097 140.584 101.825 143.068 105.282 143.068C107.04 143.068 108.341 142.465 109.185 141.258C110.04 140.051 110.468 138.17 110.468 135.615C110.468 133.049 110.034 131.156 109.167 129.938C108.312 128.707 107.028 128.092 105.317 128.092C101.837 128.092 100.097 130.6 100.097 135.615ZM139.271 130.975C139.271 133.846 138.422 136.066 136.723 137.637C135.035 139.195 132.633 139.975 129.515 139.975H127.564V148.5H120.621V122.801H129.515C132.762 122.801 135.199 123.51 136.828 124.928C138.457 126.346 139.271 128.361 139.271 130.975ZM127.564 134.314H128.83C129.873 134.314 130.699 134.021 131.308 133.436C131.93 132.85 132.24 132.041 132.24 131.01C132.24 129.275 131.279 128.408 129.357 128.408H127.564V134.314ZM162.9 148.5H155.851V134.895C155.851 133.242 155.886 131.73 155.956 130.359C155.523 130.887 154.984 131.438 154.339 132.012L151.421 134.42L147.818 129.99L156.642 122.801H162.9V148.5ZM185.463 135.686C185.463 140.232 184.701 143.566 183.178 145.688C181.655 147.797 179.323 148.852 176.182 148.852C173.112 148.852 170.797 147.75 169.239 145.547C167.68 143.332 166.901 140.045 166.901 135.686C166.901 131.115 167.662 127.764 169.186 125.631C170.709 123.498 173.041 122.432 176.182 122.432C179.24 122.432 181.549 123.545 183.108 125.771C184.678 127.986 185.463 131.291 185.463 135.686ZM173.809 135.686C173.809 138.592 173.99 140.59 174.354 141.68C174.717 142.77 175.326 143.314 176.182 143.314C177.049 143.314 177.658 142.752 178.01 141.627C178.373 140.502 178.555 138.521 178.555 135.686C178.555 132.838 178.373 130.846 178.01 129.709C177.647 128.561 177.037 127.986 176.182 127.986C175.326 127.986 174.717 128.537 174.354 129.639C173.99 130.74 173.809 132.756 173.809 135.686Z" fill="url(#paint3_linear)"/>
<defs>
<linearGradient id="paint0_linear" x1="120.487" y1="185.5" x2="120.487" y2="272.5" gradientUnits="userSpaceOnUse">
<stop stop-color="#FFC700"/>
<stop offset="1" stop-color="#FC9517"/>
</linearGradient>
<linearGradient id="paint1_linear" x1="125.194" y1="0.5" x2="125.194" y2="168.519" gradientUnits="userSpaceOnUse">
<stop stop-color="#FFC700"/>
<stop offset="1" stop-color="#FC9517"/>
</linearGradient>
<linearGradient id="paint2_linear" x1="124.781" y1="163.577" x2="124.781" y2="179.5" gradientUnits="userSpaceOnUse">
<stop stop-color="#8F5A2D"/>
<stop offset="1" stop-color="#351B06"/>
</linearGradient>
<linearGradient id="paint3_linear" x1="129.487" y1="110.5" x2="129.487" y2="159.5" gradientUnits="userSpaceOnUse">
<stop stop-color="#8F5A2D"/>
<stop offset="1" stop-color="#351B06"/>
</linearGradient>
</defs>
</svg>
