<svg width="250" height="273" viewBox="0 0 250 273" fill="none" xmlns="http://www.w3.org/2000/svg">
<path d="M108.024 253.5L123.712 218.094H103.931V207.875H136.899V215.156L120.806 253.5H108.024Z" fill="url(#paint0_linear)"/>
<path d="M119.734 5.16714C103.811 21.9141 93.3782 64.1933 93.3782 64.1933C111.223 72.7041 104.36 95.491 88.9856 102.08C77.4549 107.022 59.6097 97.6872 57.4134 85.0584C55.7662 75.724 60.7079 68.5859 66.7478 62.5461C66.7478 62.5461 11.2907 44.7009 3.05447 36.7393C3.05447 36.7393 -1.33819 35.3666 0.858134 42.5046C3.05446 49.9172 43.961 166.322 43.961 166.322L116.44 168.519H133.461L205.94 166.322C205.94 166.322 246.846 49.6427 249.043 42.5046C251.239 35.0921 246.846 36.7393 246.846 36.7393C238.336 44.7009 183.153 62.5461 183.153 62.5461C189.467 68.8605 194.135 75.9986 192.487 85.0584C190.291 97.6872 172.446 107.022 160.915 102.08C145.541 95.491 138.677 72.4295 156.523 64.1933C156.523 64.1933 146.364 21.9141 130.167 5.16714L124.95 0.5L119.734 5.16714Z" fill="url(#paint1_linear)"/>
<path d="M211.979 171.538C211.979 175.931 208.41 179.5 204.017 179.5H45.0586C40.6659 179.5 37.0969 175.931 37.0969 171.538C37.0969 167.146 40.6659 163.577 45.0586 163.577H204.017C208.41 163.851 211.979 167.146 211.979 171.538Z" fill="url(#paint2_linear)"/>
<path d="M7.17334 44.4271L9.64419 46.3489C10.4678 46.898 11.566 47.4471 12.3896 47.9961C13.2132 48.5452 14.3114 49.0943 15.135 49.3688C15.9586 49.9179 17.0568 50.1925 18.155 50.7415C20.0767 51.5652 21.9985 52.3888 24.1948 53.2124L30.2347 55.4088L42.3145 59.5269C44.2362 60.3505 46.4326 60.625 48.3544 61.4486L54.3943 63.0959C54.9433 63.0959 55.2179 63.6449 54.9433 64.194C54.1197 66.9394 53.2961 69.9593 52.1979 72.4302C51.0998 75.1756 50.5507 77.921 50.0016 80.3919C49.7271 83.1373 50.0016 85.8827 51.0998 88.3536C51.6489 89.7263 52.1979 90.8244 53.0216 91.9226C53.8452 93.2953 54.6688 94.3934 55.4924 95.4916C56.316 96.5897 57.4142 97.6879 58.2378 98.5115C59.336 99.3352 60.1596 100.433 61.2578 101.257C62.3559 102.081 63.4541 102.904 64.5522 103.728C65.6504 104.551 67.0231 105.101 68.1213 105.65C70.5921 106.748 73.3375 107.571 76.0829 108.12C78.8283 108.395 81.5737 108.67 84.3191 108.12C87.0645 107.571 89.5354 106.748 92.0063 105.375C93.379 104.826 94.2026 104.002 95.5753 103.179C96.6735 102.355 97.7716 101.532 98.5952 100.433C100.517 98.5116 102.164 96.0407 103.262 93.8444C104.361 91.3735 105.459 88.6281 106.008 85.8827C106.282 84.51 106.282 83.1373 106.557 81.7646C106.557 80.3919 106.557 79.0192 106.557 77.6465C106.282 74.9011 105.459 72.1557 104.361 69.6848C103.262 67.2139 101.89 64.7431 100.517 61.9977C100.243 61.4486 99.968 60.625 99.6934 59.8013C99.4189 58.9777 99.4189 57.8796 99.6934 57.3305C99.968 55.6832 100.792 54.5851 101.341 53.2124C102.164 51.2906 102.713 49.0943 103.537 47.1725L106.008 41.1326L108.479 35.0927C108.753 33.9945 109.302 33.171 109.851 32.0728L111.224 29.0529C112.322 27.1311 113.146 25.2093 114.244 23.2875L117.539 17.7967L123.853 6.54053C121.931 10.3841 120.009 14.2277 118.088 18.0713L115.068 23.8366C113.969 25.7584 113.146 27.6801 112.322 29.6019L110.95 32.6219C110.4 33.4455 110.126 34.5437 109.577 35.6418L107.381 41.6817L104.91 47.7216C104.086 49.6434 103.537 51.8397 102.713 53.7615C102.164 55.1342 101.615 56.5069 101.341 57.605C101.066 58.7032 101.615 59.8013 102.164 61.174C103.537 63.6449 104.91 66.1158 106.282 68.8612C107.655 71.6066 108.479 74.352 108.753 77.372C109.028 79.0192 109.028 80.3919 109.028 81.7646C108.753 83.1373 108.753 84.7845 108.479 86.1572C107.93 89.1772 106.831 91.9226 105.733 94.668C104.361 97.4134 102.713 99.8843 100.517 102.081C99.4189 103.179 98.3207 104.002 97.2225 105.1C95.8498 105.924 94.7517 107.022 93.379 107.571C90.6336 109.219 87.8882 110.042 84.8682 110.591C81.8483 111.14 78.8284 111.14 75.8084 110.591C73.063 110.042 70.0431 109.219 67.2976 107.846C65.9249 107.297 64.5523 106.473 63.4541 105.65C62.0814 104.826 60.9832 104.002 59.8851 103.179C58.7869 102.355 57.6888 101.257 56.5906 100.159C55.4924 99.0606 54.6688 97.9624 53.5706 96.8643C52.747 95.7661 51.6489 94.3934 51.0998 93.0207C50.2762 91.9226 49.7271 90.2753 49.178 88.9026C47.8053 86.1572 47.8053 82.8628 47.8053 79.8428C48.3544 76.8229 49.178 74.0775 50.2762 71.3321C51.3743 68.5867 52.1979 65.8413 53.0216 63.3704L53.5706 64.4686L47.2562 62.5467C45.0599 61.9977 43.1381 61.4486 41.2163 60.625C37.0982 59.2523 32.9801 57.605 29.1366 56.2323L23.0966 53.7615C21.1749 52.9379 19.2531 52.1143 17.0568 51.0161C15.9586 50.467 15.135 50.1925 14.3114 49.6434C13.4877 49.0943 12.3896 48.5452 11.566 47.9961C10.7423 47.4471 9.64418 46.8979 8.82056 46.0743L7.17334 44.4271Z" fill="#5A3602"/>
<path d="M243.553 44.4264L241.082 46.6227C240.258 47.1717 239.434 47.9954 238.336 48.5445C237.513 49.0936 236.415 49.6426 235.591 50.1917C234.767 50.7407 233.669 51.2898 232.845 51.5644C230.924 52.6625 229.002 53.2116 226.806 54.3098L220.766 56.7807C216.922 58.4279 212.804 59.8006 208.686 61.1733C206.764 61.9969 204.568 62.546 202.646 63.0951L196.332 65.0169L196.881 63.9187C197.704 66.6641 198.528 69.4095 199.626 71.8804C200.724 74.6258 201.548 77.3711 202.097 80.3911C202.372 83.411 202.097 86.7056 200.724 89.451C200.175 90.8237 199.626 92.4709 198.803 93.5691C198.253 94.9418 197.155 96.0399 196.332 97.4126C195.508 98.7853 194.41 99.609 193.312 100.707C192.214 101.805 191.115 102.903 190.017 103.727C188.919 104.551 187.546 105.649 186.448 106.198C185.075 107.022 183.977 107.845 182.605 108.394C179.859 109.767 176.839 110.591 174.094 111.14C171.074 111.689 168.054 111.689 165.034 111.14C162.014 110.591 158.994 109.767 156.523 108.12C155.151 107.571 154.052 106.472 152.68 105.649C151.582 104.551 150.209 103.727 149.385 102.629C147.189 100.433 145.542 97.9617 144.169 95.2163C142.796 92.4709 141.698 89.7255 141.424 86.7056C141.149 85.3329 141.149 83.6856 140.875 82.3129C140.875 80.6657 140.874 79.2929 141.149 77.9202C141.424 74.9003 142.522 71.8803 143.62 69.4095C144.993 66.6641 146.365 64.1932 147.738 61.7224C148.287 60.3497 148.836 59.5261 148.562 58.1534C148.287 57.0552 147.738 55.6825 147.189 54.3098C146.365 52.388 145.816 50.1917 144.993 48.2699L142.522 42.23L140.325 36.1902C140.051 35.092 139.502 34.2684 138.953 33.1702L137.58 30.1502C136.756 28.2285 135.658 26.3067 134.835 24.3849L131.815 18.6195C129.893 14.7759 127.971 10.9324 126.049 7.08887L132.364 18.345L135.658 23.8358C136.756 25.7576 137.58 27.6793 138.678 29.6011L140.051 32.6211C140.6 33.4447 140.875 34.5429 141.424 35.641L143.894 41.681L146.365 47.7208C147.189 49.6426 148.013 51.8389 148.562 53.7607C149.111 55.1334 149.66 56.5061 150.209 57.8788C150.483 58.7024 150.483 59.5261 150.209 60.6242C149.934 61.4479 149.66 62.2714 149.385 62.8205C148.013 65.5659 146.64 68.0368 145.542 70.5077C144.444 72.9786 143.62 75.724 143.345 78.4694C143.071 79.8421 143.071 81.2148 143.345 82.5875C143.62 83.9602 143.62 85.3329 143.894 86.7056C144.444 89.451 145.267 91.9218 146.64 94.6672C148.013 97.1381 149.385 99.3344 151.307 101.256C152.131 102.354 153.229 103.178 154.327 104.002C155.425 104.825 156.523 105.649 157.896 106.198C160.367 107.571 162.838 108.394 165.583 108.943C168.329 109.492 171.074 109.218 173.819 108.943C176.565 108.394 179.31 107.571 181.781 106.472C183.154 105.923 184.252 105.374 185.35 104.551C186.448 104.002 187.546 102.903 188.645 102.08C189.743 101.256 190.841 100.158 191.664 99.3344C192.488 98.2363 193.586 97.4126 194.41 96.3145C195.233 95.2163 196.057 94.1181 196.881 92.7454C197.704 91.3727 198.253 90.2746 198.803 89.1764C199.901 86.7055 200.175 83.9602 199.901 81.2148C199.626 78.4694 198.803 75.724 197.704 73.2531C196.606 70.5077 195.783 67.7623 194.959 65.0169C194.959 64.4678 195.234 63.9187 195.508 63.9187L201.548 62.2715C203.47 61.7224 205.666 61.1733 207.588 60.3497L219.668 56.2316L225.708 54.0353C227.629 53.2117 229.826 52.6625 231.747 51.5644C232.846 51.0153 233.669 50.7407 234.767 50.1917C235.591 49.6426 236.689 49.368 237.513 48.8189C238.336 48.2699 239.434 47.7209 240.258 47.1718L243.553 44.4264Z" fill="#5A3602"/>
<path d="M100.168 90.3002C100.468 90.3002 100.668 90.3002 100.968 90.4002L101.068 89.9002C101.068 89.9002 100.368 89.7002 99.368 89.8002L99.268 89.5002C99.568 89.4002 99.768 89.2002 99.768 88.9002C99.768 88.5002 99.468 88.2002 99.068 88.2002C98.668 88.2002 98.368 88.5002 98.368 88.9002C98.368 89.2002 98.568 89.5002 98.868 89.5002L98.968 89.8002C97.968 89.9002 97.168 90.3002 97.168 90.3002L97.268 90.7002C97.868 90.5002 98.468 90.4002 98.868 90.3002C99.568 90.3002 99.868 90.3002 100.168 90.3002Z" fill="#4C4C4C"/>
<path d="M85.3584 148.5H78.415V128.479H72.1396V122.801H91.6162V128.479H85.3584V148.5ZM117.537 135.615C117.537 139.939 116.476 143.227 114.355 145.477C112.234 147.727 109.129 148.852 105.039 148.852C101.008 148.852 97.9139 147.721 95.7576 145.459C93.6131 143.197 92.5408 139.904 92.5408 135.58C92.5408 131.303 93.6072 128.039 95.74 125.789C97.8846 123.527 100.996 122.396 105.074 122.396C109.164 122.396 112.263 123.516 114.373 125.754C116.482 127.992 117.537 131.279 117.537 135.615ZM99.8533 135.615C99.8533 140.584 101.582 143.068 105.039 143.068C106.797 143.068 108.097 142.465 108.941 141.258C109.797 140.051 110.224 138.17 110.224 135.615C110.224 133.049 109.791 131.156 108.924 129.938C108.068 128.707 106.785 128.092 105.074 128.092C101.594 128.092 99.8533 130.6 99.8533 135.615ZM139.028 130.975C139.028 133.846 138.178 136.066 136.479 137.637C134.792 139.195 132.389 139.975 129.272 139.975H127.321V148.5H120.378V122.801H129.272C132.518 122.801 134.956 123.51 136.585 124.928C138.213 126.346 139.028 128.361 139.028 130.975ZM127.321 134.314H128.587C129.629 134.314 130.456 134.021 131.065 133.436C131.686 132.85 131.997 132.041 131.997 131.01C131.997 129.275 131.036 128.408 129.114 128.408H127.321V134.314ZM162.656 148.5H155.608V134.895C155.608 133.242 155.643 131.73 155.713 130.359C155.279 130.887 154.74 131.438 154.096 132.012L151.178 134.42L147.574 129.99L156.399 122.801H162.656V148.5ZM185.22 135.686C185.22 140.232 184.458 143.566 182.935 145.688C181.411 147.797 179.079 148.852 175.938 148.852C172.868 148.852 170.554 147.75 168.995 145.547C167.437 143.332 166.657 140.045 166.657 135.686C166.657 131.115 167.419 127.764 168.942 125.631C170.466 123.498 172.798 122.432 175.938 122.432C178.997 122.432 181.306 123.545 182.864 125.771C184.435 127.986 185.22 131.291 185.22 135.686ZM173.565 135.686C173.565 138.592 173.747 140.59 174.11 141.68C174.474 142.77 175.083 143.314 175.938 143.314C176.806 143.314 177.415 142.752 177.767 141.627C178.13 140.502 178.312 138.521 178.312 135.686C178.312 132.838 178.13 130.846 177.767 129.709C177.403 128.561 176.794 127.986 175.938 127.986C175.083 127.986 174.474 128.537 174.11 129.639C173.747 130.74 173.565 132.756 173.565 135.686Z" fill="url(#paint3_linear)"/>
<defs>
<linearGradient id="paint0_linear" x1="120.243" y1="185.5" x2="120.243" y2="272.5" gradientUnits="userSpaceOnUse">
<stop stop-color="#FFC700"/>
<stop offset="1" stop-color="#FC9517"/>
</linearGradient>
<linearGradient id="paint1_linear" x1="124.95" y1="0.5" x2="124.95" y2="168.519" gradientUnits="userSpaceOnUse">
<stop stop-color="#FFC700"/>
<stop offset="1" stop-color="#FC9517"/>
</linearGradient>
<linearGradient id="paint2_linear" x1="124.538" y1="163.577" x2="124.538" y2="179.5" gradientUnits="userSpaceOnUse">
<stop stop-color="#8F5A2D"/>
<stop offset="1" stop-color="#351B06"/>
</linearGradient>
<linearGradient id="paint3_linear" x1="129.243" y1="110.5" x2="129.243" y2="159.5" gradientUnits="userSpaceOnUse">
<stop stop-color="#8F5A2D"/>
<stop offset="1" stop-color="#351B06"/>
</linearGradient>
</defs>
</svg>
