<svg width="250" height="273" viewBox="0 0 250 273" fill="none" xmlns="http://www.w3.org/2000/svg">
<path d="M130.688 253.5H118.156V229.312C118.156 226.375 118.219 223.688 118.344 221.25C117.573 222.188 116.615 223.167 115.469 224.188L110.281 228.469L103.875 220.594L119.562 207.812H130.688V253.5Z" fill="url(#paint0_linear)"/>
<path d="M119.491 5.16714C103.568 21.9141 93.1351 64.1933 93.1351 64.1933C110.98 72.7041 104.117 95.491 88.7424 102.08C77.2117 107.022 59.3666 97.6872 57.1703 85.0584C55.523 75.724 60.4648 68.5859 66.5047 62.5461C66.5047 62.5461 11.0475 44.7009 2.8113 36.7393C2.8113 36.7393 -1.58135 35.3666 0.61497 42.5046C2.81129 49.9172 43.7178 166.322 43.7178 166.322L116.196 168.519H133.218L205.697 166.322C205.697 166.322 246.603 49.6427 248.799 42.5046C250.996 35.0921 246.603 36.7393 246.603 36.7393C238.092 44.7009 182.91 62.5461 182.91 62.5461C189.224 68.8605 193.891 75.9986 192.244 85.0584C190.048 97.6872 172.203 107.022 160.672 102.08C145.298 95.491 138.434 72.4295 156.279 64.1933C156.279 64.1933 146.121 21.9141 129.923 5.16714L124.707 0.5L119.491 5.16714Z" fill="url(#paint1_linear)"/>
<path d="M211.736 171.538C211.736 175.931 208.167 179.5 203.774 179.5H44.8154C40.4228 179.5 36.8538 175.931 36.8538 171.538C36.8538 167.146 40.4228 163.577 44.8154 163.577H203.774C208.167 163.851 211.736 167.146 211.736 171.538Z" fill="url(#paint2_linear)"/>
<path d="M6.93018 44.4271L9.40102 46.3489C10.2246 46.898 11.3228 47.4471 12.1464 47.9961C12.97 48.5452 14.0682 49.0943 14.8918 49.3688C15.7154 49.9179 16.8136 50.1925 17.9118 50.7415C19.8336 51.5652 21.7553 52.3888 23.9517 53.2124L29.9915 55.4088L42.0713 59.5269C43.9931 60.3505 46.1894 60.625 48.1112 61.4486L54.1511 63.0959C54.7002 63.0959 54.9747 63.6449 54.7002 64.194C53.8766 66.9394 53.0529 69.9593 51.9548 72.4302C50.8566 75.1756 50.3075 77.921 49.7584 80.3919C49.4839 83.1373 49.7585 85.8827 50.8566 88.3536C51.4057 89.7263 51.9548 90.8244 52.7784 91.9226C53.602 93.2953 54.4256 94.3934 55.2492 95.4916C56.0729 96.5897 57.171 97.6879 57.9946 98.5115C59.0928 99.3352 59.9164 100.433 61.0146 101.257C62.1128 102.081 63.2109 102.904 64.3091 103.728C65.4072 104.551 66.78 105.101 67.8781 105.65C70.349 106.748 73.0944 107.571 75.8398 108.12C78.5852 108.395 81.3306 108.67 84.076 108.12C86.8214 107.571 89.2923 106.748 91.7631 105.375C93.1358 104.826 93.9594 104.002 95.3321 103.179C96.4303 102.355 97.5284 101.532 98.3521 100.433C100.274 98.5116 101.921 96.0407 103.019 93.8444C104.117 91.3735 105.216 88.6281 105.765 85.8827C106.039 84.51 106.039 83.1373 106.314 81.7646C106.314 80.3919 106.314 79.0192 106.314 77.6465C106.039 74.9011 105.216 72.1557 104.117 69.6848C103.019 67.2139 101.647 64.7431 100.274 61.9977C99.9993 61.4486 99.7248 60.625 99.4502 59.8013C99.1757 58.9777 99.1757 57.8796 99.4502 57.3305C99.7248 55.6832 100.548 54.5851 101.097 53.2124C101.921 51.2906 102.47 49.0943 103.294 47.1725L105.765 41.1326L108.236 35.0927C108.51 33.9945 109.059 33.171 109.608 32.0728L110.981 29.0529C112.079 27.1311 112.903 25.2093 114.001 23.2875L117.295 17.7967L123.61 6.54053C121.688 10.3841 119.766 14.2277 117.844 18.0713L114.824 23.8366C113.726 25.7584 112.903 27.6801 112.079 29.6019L110.706 32.6219C110.157 33.4455 109.883 34.5437 109.334 35.6418L107.137 41.6817L104.666 47.7216C103.843 49.6434 103.294 51.8397 102.47 53.7615C101.921 55.1342 101.372 56.5069 101.097 57.605C100.823 58.7032 101.372 59.8013 101.921 61.174C103.294 63.6449 104.666 66.1158 106.039 68.8612C107.412 71.6066 108.236 74.352 108.51 77.372C108.785 79.0192 108.785 80.3919 108.785 81.7646C108.51 83.1373 108.51 84.7845 108.236 86.1572C107.686 89.1772 106.588 91.9226 105.49 94.668C104.117 97.4134 102.47 99.8843 100.274 102.081C99.1757 103.179 98.0775 104.002 96.9794 105.1C95.6067 105.924 94.5085 107.022 93.1358 107.571C90.3904 109.219 87.645 110.042 84.625 110.591C81.6051 111.14 78.5852 111.14 75.5653 110.591C72.8198 110.042 69.7999 109.219 67.0545 107.846C65.6818 107.297 64.3091 106.473 63.2109 105.65C61.8382 104.826 60.7401 104.002 59.6419 103.179C58.5437 102.355 57.4456 101.257 56.3474 100.159C55.2493 99.0606 54.4256 97.9624 53.3275 96.8643C52.5038 95.7661 51.4057 94.3934 50.8566 93.0207C50.033 91.9226 49.4839 90.2753 48.9348 88.9026C47.5621 86.1572 47.5621 82.8628 47.5621 79.8428C48.1112 76.8229 48.9348 74.0775 50.033 71.3321C51.1312 68.5867 51.9548 65.8413 52.7784 63.3704L53.3275 64.4686L47.013 62.5467C44.8167 61.9977 42.8949 61.4486 40.9732 60.625C36.8551 59.2523 32.737 57.605 28.8934 56.2323L22.8535 53.7615C20.9317 52.9379 19.0099 52.1143 16.8136 51.0161C15.7154 50.467 14.8918 50.1925 14.0682 49.6434C13.2446 49.0943 12.1464 48.5452 11.3228 47.9961C10.4992 47.4471 9.40101 46.8979 8.57739 46.0743L6.93018 44.4271Z" fill="#5A3602"/>
<path d="M243.309 44.4264L240.839 46.6227C240.015 47.1717 239.191 47.9954 238.093 48.5445C237.27 49.0936 236.171 49.6426 235.348 50.1917C234.524 50.7407 233.426 51.2898 232.602 51.5644C230.681 52.6625 228.759 53.2116 226.562 54.3098L220.523 56.7807C216.679 58.4279 212.561 59.8006 208.443 61.1733C206.521 61.9969 204.325 62.546 202.403 63.0951L196.088 65.0169L196.638 63.9187C197.461 66.6641 198.285 69.4095 199.383 71.8804C200.481 74.6258 201.305 77.3711 201.854 80.3911C202.128 83.411 201.854 86.7056 200.481 89.451C199.932 90.8237 199.383 92.4709 198.559 93.5691C198.01 94.9418 196.912 96.0399 196.088 97.4126C195.265 98.7853 194.167 99.609 193.069 100.707C191.97 101.805 190.872 102.903 189.774 103.727C188.676 104.551 187.303 105.649 186.205 106.198C184.832 107.022 183.734 107.845 182.361 108.394C179.616 109.767 176.596 110.591 173.851 111.14C170.831 111.689 167.811 111.689 164.791 111.14C161.771 110.591 158.751 109.767 156.28 108.12C154.907 107.571 153.809 106.472 152.437 105.649C151.338 104.551 149.966 103.727 149.142 102.629C146.946 100.433 145.299 97.9617 143.926 95.2163C142.553 92.4709 141.455 89.7255 141.18 86.7056C140.906 85.3329 140.906 83.6856 140.631 82.3129C140.631 80.6657 140.631 79.2929 140.906 77.9202C141.18 74.9003 142.279 71.8803 143.377 69.4095C144.749 66.6641 146.122 64.1932 147.495 61.7224C148.044 60.3497 148.593 59.5261 148.318 58.1534C148.044 57.0552 147.495 55.6825 146.946 54.3098C146.122 52.388 145.573 50.1917 144.749 48.2699L142.279 42.23L140.082 36.1902C139.808 35.092 139.259 34.2684 138.71 33.1702L137.337 30.1502C136.513 28.2285 135.415 26.3067 134.591 24.3849L131.572 18.6195C129.65 14.7759 127.728 10.9324 125.806 7.08887L132.121 18.345L135.415 23.8358C136.513 25.7576 137.337 27.6793 138.435 29.6011L139.808 32.6211C140.357 33.4447 140.631 34.5429 141.18 35.641L143.651 41.681L146.122 47.7208C146.946 49.6426 147.769 51.8389 148.318 53.7607C148.868 55.1334 149.417 56.5061 149.966 57.8788C150.24 58.7024 150.24 59.5261 149.966 60.6242C149.691 61.4479 149.417 62.2714 149.142 62.8205C147.769 65.5659 146.397 68.0368 145.299 70.5077C144.2 72.9786 143.377 75.724 143.102 78.4694C142.828 79.8421 142.828 81.2148 143.102 82.5875C143.377 83.9602 143.377 85.3329 143.651 86.7056C144.2 89.451 145.024 91.9218 146.397 94.6672C147.769 97.1381 149.142 99.3344 151.064 101.256C151.888 102.354 152.986 103.178 154.084 104.002C155.182 104.825 156.28 105.649 157.653 106.198C160.124 107.571 162.595 108.394 165.34 108.943C168.085 109.492 170.831 109.218 173.576 108.943C176.322 108.394 179.067 107.571 181.538 106.472C182.911 105.923 184.009 105.374 185.107 104.551C186.205 104.002 187.303 102.903 188.401 102.08C189.5 101.256 190.598 100.158 191.421 99.3344C192.245 98.2363 193.343 97.4126 194.167 96.3145C194.99 95.2163 195.814 94.1181 196.638 92.7454C197.461 91.3727 198.01 90.2746 198.559 89.1764C199.658 86.7055 199.932 83.9602 199.657 81.2148C199.383 78.4694 198.559 75.724 197.461 73.2531C196.363 70.5077 195.539 67.7623 194.716 65.0169C194.716 64.4678 194.99 63.9187 195.265 63.9187L201.305 62.2715C203.227 61.7224 205.423 61.1733 207.345 60.3497L219.424 56.2316L225.464 54.0353C227.386 53.2117 229.582 52.6625 231.504 51.5644C232.602 51.0153 233.426 50.7407 234.524 50.1917C235.348 49.6426 236.446 49.368 237.27 48.8189C238.093 48.2699 239.191 47.7209 240.015 47.1718L243.309 44.4264Z" fill="#5A3602"/>
<path d="M99.9248 90.3002C100.225 90.3002 100.425 90.3002 100.725 90.4002L100.825 89.9002C100.825 89.9002 100.125 89.7002 99.1248 89.8002L99.0248 89.5002C99.3248 89.4002 99.5248 89.2002 99.5248 88.9002C99.5248 88.5002 99.2248 88.2002 98.8248 88.2002C98.4248 88.2002 98.1248 88.5002 98.1248 88.9002C98.1248 89.2002 98.3248 89.5002 98.6248 89.5002L98.7248 89.8002C97.7248 89.9002 96.9248 90.3002 96.9248 90.3002L97.0248 90.7002C97.6248 90.5002 98.2248 90.4002 98.6248 90.3002C99.3248 90.3002 99.6248 90.3002 99.9248 90.3002Z" fill="#4C4C4C"/>
<path d="M85.1152 148.5H78.1719V128.479H71.8965V122.801H91.373V128.479H85.1152V148.5ZM117.294 135.615C117.294 139.939 116.233 143.227 114.112 145.477C111.991 147.727 108.886 148.852 104.796 148.852C100.764 148.852 97.6707 147.721 95.5145 145.459C93.3699 143.197 92.2977 139.904 92.2977 135.58C92.2977 131.303 93.3641 128.039 95.4969 125.789C97.6414 123.527 100.753 122.396 104.831 122.396C108.921 122.396 112.02 123.516 114.13 125.754C116.239 127.992 117.294 131.279 117.294 135.615ZM99.6102 135.615C99.6102 140.584 101.339 143.068 104.796 143.068C106.554 143.068 107.854 142.465 108.698 141.258C109.554 140.051 109.981 138.17 109.981 135.615C109.981 133.049 109.548 131.156 108.68 129.938C107.825 128.707 106.542 128.092 104.831 128.092C101.35 128.092 99.6102 130.6 99.6102 135.615ZM138.785 130.975C138.785 133.846 137.935 136.066 136.236 137.637C134.548 139.195 132.146 139.975 129.029 139.975H127.078V148.5H120.134V122.801H129.029C132.275 122.801 134.713 123.51 136.341 124.928C137.97 126.346 138.785 128.361 138.785 130.975ZM127.078 134.314H128.343C129.386 134.314 130.213 134.021 130.822 133.436C131.443 132.85 131.754 132.041 131.754 131.01C131.754 129.275 130.793 128.408 128.871 128.408H127.078V134.314ZM162.413 148.5H155.364V134.895C155.364 133.242 155.4 131.73 155.47 130.359C155.036 130.887 154.497 131.438 153.853 132.012L150.935 134.42L147.331 129.99L156.155 122.801H162.413V148.5ZM184.977 135.686C184.977 140.232 184.215 143.566 182.691 145.688C181.168 147.797 178.836 148.852 175.695 148.852C172.625 148.852 170.311 147.75 168.752 145.547C167.193 143.332 166.414 140.045 166.414 135.686C166.414 131.115 167.176 127.764 168.699 125.631C170.223 123.498 172.555 122.432 175.695 122.432C178.754 122.432 181.062 123.545 182.621 125.771C184.191 127.986 184.977 131.291 184.977 135.686ZM173.322 135.686C173.322 138.592 173.504 140.59 173.867 141.68C174.23 142.77 174.84 143.314 175.695 143.314C176.562 143.314 177.172 142.752 177.523 141.627C177.887 140.502 178.068 138.521 178.068 135.686C178.068 132.838 177.887 130.846 177.523 129.709C177.16 128.561 176.551 127.986 175.695 127.986C174.84 127.986 174.23 128.537 173.867 129.639C173.504 130.74 173.322 132.756 173.322 135.686Z" fill="url(#paint3_linear)"/>
<defs>
<linearGradient id="paint0_linear" x1="120" y1="185.5" x2="120" y2="272.5" gradientUnits="userSpaceOnUse">
<stop stop-color="#FFC700"/>
<stop offset="1" stop-color="#FC9517"/>
</linearGradient>
<linearGradient id="paint1_linear" x1="124.707" y1="0.5" x2="124.707" y2="168.519" gradientUnits="userSpaceOnUse">
<stop stop-color="#FFC700"/>
<stop offset="1" stop-color="#FC9517"/>
</linearGradient>
<linearGradient id="paint2_linear" x1="124.295" y1="163.577" x2="124.295" y2="179.5" gradientUnits="userSpaceOnUse">
<stop stop-color="#8F5A2D"/>
<stop offset="1" stop-color="#351B06"/>
</linearGradient>
<linearGradient id="paint3_linear" x1="129" y1="110.5" x2="129" y2="159.5" gradientUnits="userSpaceOnUse">
<stop stop-color="#8F5A2D"/>
<stop offset="1" stop-color="#351B06"/>
</linearGradient>
</defs>
</svg>
