<svg width="189" height="182" viewBox="0 0 189 182" fill="none" xmlns="http://www.w3.org/2000/svg">
<path d="M175.851 156.832L29.8901 181.789C21.8559 183.162 14.1567 177.713 12.7776 169.673C12.7776 169.673 -1.51529 21.8809 11.5158 19.6476C11.5158 19.6476 164.83 4.41113 167.057 17.4423L187.961 139.719C189.34 147.759 183.885 155.458 175.851 156.832Z" fill="#C8C8C8"/>
<path d="M167.577 162.074L20.17 176.188C12.0521 176.964 4.77719 170.962 4.00113 162.844C4.00113 162.844 0.656809 14.3988 13.8163 13.137C13.8163 13.137 167.834 9.25671 169.096 22.4162L180.921 145.905C181.697 154.017 175.695 161.298 167.577 162.074Z" fill="#EDEDED"/>
<path d="M15.5808 156.781L148.89 176.189C157.008 176.965 164.283 170.963 165.059 162.845C165.059 162.845 168.403 14.3995 155.244 13.1377C155.244 13.1377 23.3973 9.77101 22.1355 22.9305L8.2892 135.644C7.51314 143.762 7.46289 156 15.5808 156.781Z" fill="#EDEDED"/>
<path d="M163.183 166.037H15.1007C6.94923 166.037 0.277344 159.366 0.277344 151.214V29.6796C0.277344 16.4586 11.0919 5.64404 24.3129 5.64404H153.965C167.186 5.64404 178.001 16.4586 178.001 29.6796V151.214C178.006 159.371 171.335 166.037 163.183 166.037Z" fill="white"/>
<path d="M178.006 47.3336H0.277344V29.6796C0.277344 16.4586 11.0919 5.64404 24.3129 5.64404H153.965C167.186 5.64404 178.001 16.4586 178.001 29.6796V47.3336H178.006Z" fill="url(#paint0_linear)"/>
<path d="M29.1985 17.7707C27.2109 17.7707 25.5806 16.146 25.5806 14.1528V5.64404H32.8108V14.1584C32.8164 16.146 31.1917 17.7707 29.1985 17.7707Z" fill="#BF3A37"/>
<path d="M71.9819 17.7707C69.9943 17.7707 68.364 16.146 68.364 14.1528V5.64404H75.5942V14.1584C75.5998 16.146 73.9695 17.7707 71.9819 17.7707Z" fill="#BF3A37"/>
<path d="M111.997 17.7707C110.009 17.7707 108.379 16.146 108.379 14.1528V5.64404H115.609V14.1584C115.615 16.146 113.985 17.7707 111.997 17.7707Z" fill="#BF3A37"/>
<path d="M152.296 17.7713C150.309 17.7713 148.678 16.1466 148.678 14.1534C148.678 14.1534 148.678 6.26442 148.678 5.6391C148.678 5.06962 155.908 5.71727 155.908 5.71727V14.1534C155.908 16.1466 154.284 17.7713 152.296 17.7713Z" fill="#BF3A37"/>
<path d="M70.5581 16.5541C68.5705 16.5541 66.9402 14.9294 66.9402 12.9362V3.61789C66.9402 1.63029 68.5649 0 70.5581 0C72.5457 0 74.176 1.6247 74.176 3.61789V12.9362C74.1704 14.9294 72.5457 16.5541 70.5581 16.5541Z" fill="#EBEBEB"/>
<path d="M110.774 16.5541C108.786 16.5541 107.156 14.9294 107.156 12.9362V3.61789C107.156 1.63029 108.781 0 110.774 0C112.762 0 114.392 1.6247 114.392 3.61789V12.9362C114.386 14.9294 112.762 16.5541 110.774 16.5541Z" fill="#EBEBEB"/>
<path d="M150.989 16.5541C149.002 16.5541 147.372 14.9294 147.372 12.9362V3.61789C147.372 1.63029 148.996 0 150.989 0C152.977 0 154.607 1.6247 154.607 3.61789V12.9362C154.602 14.9294 152.977 16.5541 150.989 16.5541Z" fill="#EBEBEB"/>
<path d="M163.01 121.384L120.969 165.586C120.969 165.586 122.56 157.803 122.571 152.912C122.576 149.808 121.946 147.095 121.728 142.634C121.13 130.122 128.377 126.934 131.794 125.08C137.042 122.239 145.646 124.343 150.833 124.003C153.033 123.869 161.38 123.5 163.01 121.384Z" fill="#BABABA"/>
<path d="M42.3243 70.6606H18.6182V86.0311H42.3243V70.6606Z" fill="#EBEBEB"/>
<path d="M42.3243 98.0127H18.6182V113.383H42.3243V98.0127Z" fill="#EBEBEB"/>
<path d="M80.0555 98.0127H56.3494V113.383H80.0555V98.0127Z" fill="#EBEBEB"/>
<path d="M117.781 98.0127H94.0752V113.383H117.781V98.0127Z" fill="#EBEBEB"/>
<path d="M154.781 98.0127H131.074V113.383H154.781V98.0127Z" fill="#EBEBEB"/>
<path d="M42.3243 125.37H18.6182V140.741H42.3243V125.37Z" fill="#EBEBEB"/>
<path d="M80.0555 125.37H56.3494V140.741H80.0555V125.37Z" fill="#EBEBEB"/>
<path d="M117.781 125.37H94.0752V140.741H117.781V125.37Z" fill="#EBEBEB"/>
<path d="M80.0555 70.6606H56.3494V86.0311H80.0555V70.6606Z" fill="#EBEBEB"/>
<path d="M117.781 70.6606H94.0752V86.0311H117.781V70.6606Z" fill="#EBEBEB"/>
<path d="M155.506 70.6606H131.8V86.0311H155.506V70.6606Z" fill="#EBEBEB"/>
<path d="M27.7632 16.5541C25.7756 16.5541 24.1453 14.9294 24.1453 12.9362V3.61789C24.1453 1.63029 25.77 0 27.7632 0C29.7508 0 31.3811 1.6247 31.3811 3.61789V12.9362C31.3811 14.9294 29.7564 16.5541 27.7632 16.5541Z" fill="#EBEBEB"/>
<path d="M86.2373 101.896C86.2373 111.671 84.1296 118.746 79.9141 123.121C75.6986 127.496 68.9538 129.684 59.6797 129.684C56.6263 129.684 54.3021 129.57 52.707 129.342V118.644C54.6667 119.008 56.6263 119.19 58.5859 119.19C63.4167 119.19 67.1423 118.199 69.7627 116.217C72.3831 114.212 73.8073 111.056 74.0352 106.749H73.625C72.7363 108.39 71.859 109.575 70.9932 110.304C70.1273 111.033 69.0677 111.591 67.8145 111.979C66.5612 112.366 65.0003 112.56 63.1318 112.56C58.8024 112.56 55.4186 111.113 52.9805 108.219C50.5423 105.325 49.3232 101.337 49.3232 96.2559C49.3232 90.7188 50.8955 86.3779 54.04 83.2334C57.2074 80.0889 61.5368 78.5166 67.0283 78.5166C73.1351 78.5166 77.8633 80.5446 81.2129 84.6006C84.5625 88.6566 86.2373 94.4215 86.2373 101.896ZM67.4043 89.3174C65.9232 89.3174 64.7155 89.8529 63.7812 90.9238C62.8698 91.9948 62.4141 93.7152 62.4141 96.085C62.4141 97.9535 62.8128 99.446 63.6104 100.562C64.4079 101.656 65.627 102.203 67.2676 102.203C68.7487 102.203 70.0361 101.668 71.1299 100.597C72.2236 99.5257 72.7705 98.2383 72.7705 96.7344C72.7705 94.7064 72.2578 92.9632 71.2324 91.5049C70.2298 90.0465 68.9538 89.3174 67.4043 89.3174ZM123.582 104.083C123.582 112.924 122.101 119.407 119.139 123.531C116.176 127.633 111.642 129.684 105.535 129.684C99.5651 129.684 95.0648 127.542 92.0342 123.258C89.0036 118.951 87.4883 112.56 87.4883 104.083C87.4883 95.1963 88.9694 88.6794 91.9316 84.5322C94.8939 80.3851 99.4284 78.3115 105.535 78.3115C111.482 78.3115 115.971 80.4762 119.002 84.8057C122.055 89.1123 123.582 95.5381 123.582 104.083ZM100.921 104.083C100.921 109.734 101.274 113.619 101.98 115.738C102.687 117.857 103.872 118.917 105.535 118.917C107.221 118.917 108.406 117.823 109.09 115.636C109.796 113.448 110.149 109.597 110.149 104.083C110.149 98.5459 109.796 94.6722 109.09 92.4619C108.383 90.2288 107.199 89.1123 105.535 89.1123C103.872 89.1123 102.687 90.1833 101.98 92.3252C101.274 94.4671 100.921 98.3864 100.921 104.083Z" fill="url(#paint1_linear)"/>
<path d="M46.8638 43H41.6562V27.9839H36.9497V23.7256H51.5571V27.9839H46.8638V43ZM70.9977 33.3364C70.9977 36.5796 70.2022 39.0449 68.6114 40.7324C67.0206 42.4199 64.6915 43.2637 61.6241 43.2637C58.6007 43.2637 56.2804 42.4155 54.6632 40.7192C53.0548 39.0229 52.2506 36.5532 52.2506 33.3101C52.2506 30.1021 53.0504 27.6543 54.65 25.9668C56.2584 24.2705 58.5919 23.4224 61.6505 23.4224C64.7179 23.4224 67.0426 24.2617 68.6246 25.9404C70.2066 27.6191 70.9977 30.0845 70.9977 33.3364ZM57.735 33.3364C57.735 37.063 59.0313 38.9263 61.6241 38.9263C62.9425 38.9263 63.9181 38.4736 64.5509 37.5684C65.1925 36.6631 65.5133 35.2524 65.5133 33.3364C65.5133 31.4116 65.1881 29.9922 64.5377 29.0781C63.8961 28.1553 62.9337 27.6938 61.6505 27.6938C59.0401 27.6938 57.735 29.5747 57.735 33.3364ZM87.1159 29.856C87.1159 32.0093 86.4787 33.6748 85.2043 34.8525C83.9387 36.0215 82.1369 36.606 79.799 36.606H78.3356V43H73.1281V23.7256H79.799C82.2336 23.7256 84.0617 24.2573 85.2834 25.3208C86.5051 26.3843 87.1159 27.896 87.1159 29.856ZM78.3356 32.3608H79.2849C80.0671 32.3608 80.6867 32.1411 81.1437 31.7017C81.6096 31.2622 81.8425 30.6558 81.8425 29.8823C81.8425 28.5815 81.1218 27.9312 79.6804 27.9312H78.3356V32.3608ZM104.837 43H99.5507V32.7959C99.5507 31.5566 99.577 30.4229 99.6298 29.3945C99.3046 29.79 98.9003 30.2031 98.4169 30.6338L96.2284 32.4399L93.5258 29.1177L100.144 23.7256H104.837V43ZM121.76 33.3892C121.76 36.7993 121.188 39.2998 120.046 40.8906C118.903 42.4727 117.154 43.2637 114.799 43.2637C112.496 43.2637 110.76 42.4375 109.591 40.7852C108.422 39.124 107.838 36.6587 107.838 33.3892C107.838 29.9614 108.409 27.4478 109.552 25.8481C110.694 24.2485 112.443 23.4487 114.799 23.4487C117.093 23.4487 118.824 24.2837 119.993 25.9536C121.171 27.6147 121.76 30.0933 121.76 33.3892ZM113.019 33.3892C113.019 35.5688 113.155 37.0674 113.428 37.8848C113.7 38.7021 114.157 39.1108 114.799 39.1108C115.449 39.1108 115.906 38.689 116.17 37.8452C116.442 37.0015 116.579 35.5161 116.579 33.3892C116.579 31.2534 116.442 29.7593 116.17 28.9067C115.897 28.0454 115.44 27.6147 114.799 27.6147C114.157 27.6147 113.7 28.0278 113.428 28.854C113.155 29.6802 113.019 31.1919 113.019 33.3892ZM136.23 33.3892C136.23 36.7993 135.659 39.2998 134.516 40.8906C133.374 42.4727 131.625 43.2637 129.269 43.2637C126.966 43.2637 125.231 42.4375 124.062 40.7852C122.893 39.124 122.308 36.6587 122.308 33.3892C122.308 29.9614 122.879 27.4478 124.022 25.8481C125.165 24.2485 126.914 23.4487 129.269 23.4487C131.563 23.4487 133.295 24.2837 134.463 25.9536C135.641 27.6147 136.23 30.0933 136.23 33.3892ZM127.489 33.3892C127.489 35.5688 127.626 37.0674 127.898 37.8848C128.171 38.7021 128.628 39.1108 129.269 39.1108C129.92 39.1108 130.377 38.689 130.64 37.8452C130.913 37.0015 131.049 35.5161 131.049 33.3892C131.049 31.2534 130.913 29.7593 130.64 28.9067C130.368 28.0454 129.911 27.6147 129.269 27.6147C128.628 27.6147 128.171 28.0278 127.898 28.854C127.626 29.6802 127.489 31.1919 127.489 33.3892Z" fill="#EEEBE8"/>
<path d="M176.939 118.604L120.974 165.592C120.974 165.592 123.754 156.659 124.307 150.931C124.653 147.29 124.178 144.047 124.402 138.798C125.038 124.07 134.2 121.167 138.566 119.386C145.26 116.656 155.5 120.1 161.848 120.296C164.528 120.374 174.717 120.899 176.939 118.604Z" fill="#E7E6E6"/>
<defs>
<linearGradient id="paint0_linear" x1="89.1419" y1="5.64404" x2="89.1419" y2="47.3336" gradientUnits="userSpaceOnUse">
<stop stop-color="#FF1D1D"/>
<stop offset="1" stop-color="#FF4172"/>
</linearGradient>
<linearGradient id="paint1_linear" x1="86.7773" y1="54" x2="86.7773" y2="149" gradientUnits="userSpaceOnUse">
<stop stop-color="#FFC700"/>
<stop offset="1" stop-color="#FF4070"/>
</linearGradient>
</defs>
</svg>
