<svg width="296" height="317" viewBox="0 0 296 317" fill="none" xmlns="http://www.w3.org/2000/svg">
<path d="M120.411 298H107.88V273.812C107.88 270.875 107.942 268.188 108.067 265.75C107.297 266.688 106.338 267.667 105.192 268.688L100.005 272.969L93.5986 265.094L109.286 252.312H120.411V298ZM160.524 275.219C160.524 283.302 159.169 289.229 156.461 293C153.753 296.75 149.607 298.625 144.024 298.625C138.565 298.625 134.451 296.667 131.68 292.75C128.909 288.812 127.524 282.969 127.524 275.219C127.524 267.094 128.878 261.135 131.586 257.344C134.294 253.552 138.44 251.656 144.024 251.656C149.461 251.656 153.565 253.635 156.336 257.594C159.128 261.531 160.524 267.406 160.524 275.219ZM139.805 275.219C139.805 280.385 140.128 283.938 140.774 285.875C141.419 287.812 142.503 288.781 144.024 288.781C145.565 288.781 146.649 287.781 147.274 285.781C147.919 283.781 148.242 280.26 148.242 275.219C148.242 270.156 147.919 266.615 147.274 264.594C146.628 262.552 145.544 261.531 144.024 261.531C142.503 261.531 141.419 262.51 140.774 264.469C140.128 266.427 139.805 270.01 139.805 275.219ZM194.824 275.219C194.824 283.302 193.469 289.229 190.761 293C188.053 296.75 183.907 298.625 178.324 298.625C172.865 298.625 168.751 296.667 165.98 292.75C163.209 288.812 161.824 282.969 161.824 275.219C161.824 267.094 163.178 261.135 165.886 257.344C168.594 253.552 172.74 251.656 178.324 251.656C183.761 251.656 187.865 253.635 190.636 257.594C193.428 261.531 194.824 267.406 194.824 275.219ZM174.105 275.219C174.105 280.385 174.428 283.938 175.074 285.875C175.719 287.812 176.803 288.781 178.324 288.781C179.865 288.781 180.949 287.781 181.574 285.781C182.219 283.781 182.542 280.26 182.542 275.219C182.542 270.156 182.219 266.615 181.574 264.594C180.928 262.552 179.844 261.531 178.324 261.531C176.803 261.531 175.719 262.51 175.074 264.469C174.428 266.427 174.105 270.01 174.105 275.219Z" fill="url(#paint0_linear)"/>
<path d="M237.576 201.764C237.576 201.764 232.814 180.71 246.599 130.833C260.133 80.9561 281.939 43.1098 281.939 43.1098L272.164 39.0995C272.164 39.0995 237.075 91.9841 222.287 75.1914C202.988 53.1352 208.251 25.3145 208.251 25.3145H197.223C197.223 25.5651 197.223 25.8157 197.223 25.8157C197.474 39.6008 194.466 53.8872 185.193 65.4165C175.919 76.6952 163.638 85.2169 149.602 85.4676C132.809 85.7182 117.27 77.1965 110.753 60.9051C109.751 58.6493 99.9757 25.3145 102.482 25.3145H91.454C91.454 25.3145 95.4642 46.8693 79.674 71.6825C63.8838 96.245 27.792 39.0995 27.792 39.0995L18.0171 43.1098C18.0171 43.1098 39.5719 80.9561 53.357 130.833C66.8915 180.71 62.38 201.764 62.38 201.764H148.599H237.576Z" fill="url(#paint1_linear)"/>
<path d="M236.824 203.518C236.824 211.538 197.724 218.055 149.351 218.055C100.978 218.055 61.8787 211.538 61.8787 203.518C61.8787 195.498 100.978 188.981 149.351 188.981C197.724 189.232 236.824 195.498 236.824 203.518Z" fill="#7E4E26"/>
<path d="M236.824 203.518C236.824 203.518 236.824 204.27 236.072 205.523C235.32 206.526 233.566 207.779 231.31 208.781C226.798 210.787 219.781 212.792 211.51 214.295C202.988 215.799 193.213 217.052 182.686 217.804C172.159 218.556 160.63 219.058 149.351 219.058C138.073 219.058 126.543 218.556 116.016 217.804C105.49 217.052 95.4641 215.799 87.1931 214.295C78.6714 212.792 71.9042 210.787 67.3927 208.781C65.1369 207.779 63.3825 206.526 62.6306 205.523C61.8787 204.521 61.8787 203.518 61.8787 203.518C61.8787 203.518 61.8787 204.27 62.6306 205.272C63.3825 206.275 65.1369 207.278 67.3927 208.28C71.9042 210.285 78.922 211.538 87.1931 213.042C95.4641 214.295 105.49 215.047 116.016 215.799C126.543 216.551 137.822 216.802 149.351 216.802C160.63 216.802 171.909 216.551 182.686 215.799C193.213 215.047 203.238 214.295 211.51 213.042C219.781 211.789 226.798 210.285 231.31 208.28C233.566 207.278 235.32 206.275 236.072 205.272C236.824 204.27 236.824 203.518 236.824 203.518Z" fill="#FFE18D"/>
<path d="M61.8792 203.518C61.8792 203.518 61.8792 202.766 62.6311 201.513C63.383 200.51 65.1375 199.257 67.3932 198.255C71.9047 196.25 78.9225 194.244 87.1936 192.741C95.7153 191.237 105.49 189.984 116.017 189.232C126.544 188.48 138.073 187.979 149.352 187.979C160.631 187.979 172.16 188.48 182.687 189.232C193.213 189.984 203.239 191.237 211.51 192.741C220.032 194.244 226.799 196.25 231.31 198.255C233.566 199.257 235.321 200.51 236.073 201.513C236.824 202.516 236.824 203.518 236.824 203.518C236.824 203.518 236.824 202.766 236.073 201.764C235.321 200.761 233.566 199.759 231.31 198.756C226.799 196.751 219.781 195.498 211.51 193.994C203.239 192.741 193.213 191.989 182.687 191.237C172.16 190.485 160.881 190.234 149.352 190.234C138.073 190.234 126.794 190.485 116.017 191.237C105.49 191.989 95.4646 192.741 87.1936 193.994C78.9225 195.247 71.9047 196.751 67.3932 198.756C65.1375 199.759 63.383 200.761 62.6311 201.764C61.6285 202.766 61.8792 203.518 61.8792 203.518Z" fill="#FFE18D"/>
<path d="M233.815 157.401C223.79 151.386 189.703 146.874 149.35 146.874C110.752 146.874 77.9182 151.135 66.1382 156.649C66.1382 156.649 54.1076 161.662 55.3608 169.181C56.1127 174.695 61.6268 174.194 61.6268 174.194C61.6268 166.173 100.726 159.657 149.099 159.657C197.473 159.657 236.572 166.173 236.572 174.194C236.572 174.194 243.089 170.685 239.83 163.667C238.076 159.155 233.815 157.401 233.815 157.401Z" fill="#EBB33A"/>
<path d="M233.815 186.475C223.79 180.46 189.703 175.948 149.35 175.948C110.752 175.948 77.9182 180.209 66.1382 185.723C66.1382 185.723 54.1076 190.736 55.3608 198.255C56.1127 203.769 61.6268 203.268 61.6268 203.268C61.6268 195.247 100.726 188.731 149.099 188.731C197.473 188.731 236.572 195.247 236.572 203.268C236.572 203.268 243.089 199.759 239.83 192.741C238.076 188.229 233.815 186.475 233.815 186.475Z" fill="#EBB33A"/>
<path d="M233.816 157.401C230.558 155.646 227.299 154.894 223.791 153.892C220.282 153.14 216.773 152.388 213.514 151.887C210.005 151.385 206.497 150.884 202.988 150.383C199.479 150.132 195.97 149.631 192.461 149.38C185.443 148.879 178.425 148.378 171.407 148.127C164.389 147.877 157.371 147.876 150.354 147.876H139.827C136.318 147.876 132.809 147.877 129.3 148.127C125.791 148.378 122.282 148.378 118.773 148.628C115.264 148.879 111.755 149.13 108.246 149.38L97.7197 150.383C94.2107 150.884 90.7018 151.135 87.1929 151.636L81.9295 152.639C80.175 152.889 78.4205 153.14 76.6661 153.641C74.9116 154.142 73.1571 154.393 71.6533 154.894L66.6406 156.649L65.1367 157.401C64.6354 157.651 64.1342 157.902 63.6329 158.153L60.6252 159.907L63.3823 157.902C63.8835 157.651 64.3848 157.15 64.8861 156.899L66.3899 156.148L71.4027 154.142C73.1571 153.641 74.9116 153.14 76.4154 152.639C79.9244 151.636 83.4333 151.135 86.6916 150.132C90.2005 149.631 93.7094 149.13 97.2184 148.378L107.745 147.125C111.254 146.874 114.763 146.623 118.272 146.373C121.781 146.122 125.29 145.871 128.799 145.871C132.308 145.621 135.817 145.621 139.326 145.621C142.834 145.621 146.343 145.37 149.852 145.37C156.87 145.37 164.139 145.621 171.157 145.871C174.666 146.122 178.174 146.122 181.683 146.623C185.192 146.874 188.701 147.125 192.21 147.626C195.719 148.127 199.228 148.378 202.737 148.879C206.246 149.38 209.755 149.882 213.264 150.634C216.773 151.385 220.282 152.137 223.54 153.14C227.299 154.393 230.808 155.646 233.816 157.401Z" fill="#BC7622"/>
<path d="M61.8782 174.444C61.8782 174.444 61.8782 173.692 62.3795 172.69C63.1314 171.687 64.6353 170.434 66.891 169.432C71.1518 167.427 77.6684 165.421 85.6888 163.918C93.7093 162.414 102.983 161.161 113.008 160.409C123.034 159.657 133.811 159.155 144.589 158.905C150.103 158.905 155.366 159.155 160.63 159.155C165.893 159.406 171.156 159.657 176.169 159.907C181.182 160.409 186.195 160.659 190.706 161.161C195.218 161.662 199.729 162.163 203.739 162.664C207.75 163.166 211.509 163.918 214.517 164.67C217.775 165.171 220.532 166.173 222.788 166.675C225.044 167.176 226.798 167.928 228.051 168.429C229.304 168.93 229.806 169.181 229.806 169.181C229.806 169.181 229.054 168.93 228.051 168.68C226.798 168.429 225.044 167.677 222.788 167.176C220.532 166.675 217.775 165.923 214.517 165.672C211.258 165.171 207.75 164.669 203.739 164.168C199.729 163.667 195.468 163.416 190.706 162.915C186.195 162.414 181.182 162.414 176.169 162.163C171.156 161.912 165.893 161.662 160.63 161.662C155.366 161.662 149.852 161.411 144.589 161.662C133.811 161.662 123.034 162.163 113.008 162.664C102.983 163.416 93.7093 164.168 85.6888 165.421C77.6684 166.675 71.1518 168.178 66.891 169.933C64.6353 170.935 63.1314 171.938 62.3795 172.941C61.6276 173.692 61.8782 174.444 61.8782 174.444Z" fill="#BC7622"/>
<path d="M233.817 186.474C230.559 184.719 227.301 183.967 223.792 182.965C220.283 182.213 216.774 181.461 213.516 180.96C210.007 180.458 206.498 179.957 202.989 179.456C199.48 179.205 195.971 178.704 192.462 178.453C185.444 177.952 178.426 177.451 171.409 177.2C164.391 176.949 157.373 176.949 150.355 176.949H139.828C136.319 176.949 132.81 176.949 129.301 177.2C125.792 177.451 122.284 177.451 118.775 177.701L108.248 178.453L97.721 179.456C94.2121 179.957 90.7031 180.208 87.1942 180.709L81.9308 181.712C80.1763 181.962 78.4219 182.213 76.6674 182.714C74.9129 183.215 73.1585 183.466 71.6547 183.967L66.6419 185.722C65.3887 186.223 64.1355 186.975 62.8823 187.476C64.1355 186.724 65.1381 185.972 66.3912 185.471L71.404 183.466C73.1585 182.965 74.9129 182.463 76.4168 181.962C78.1712 181.461 79.9257 180.96 81.6802 180.709L86.9436 179.706C90.4525 179.205 93.9614 178.704 97.4703 177.952L107.997 176.699C111.506 176.197 115.015 176.198 118.524 175.947C122.033 175.696 125.542 175.446 129.051 175.446C132.56 175.195 136.069 175.195 139.578 175.195C143.086 175.195 146.595 174.944 150.104 174.944C157.122 174.944 164.391 175.195 171.409 175.446C174.917 175.696 178.426 175.696 181.935 176.198C185.444 176.448 188.953 176.699 192.462 177.2C195.971 177.701 199.48 177.952 202.989 178.453C206.498 178.955 210.007 179.456 213.516 180.208C217.025 180.96 220.534 181.711 223.792 182.714C227.301 183.466 230.81 184.719 233.817 186.474Z" fill="#BC7622"/>
<path d="M15.5102 39.8508C10.9987 41.8559 6.73784 41.104 2.97827 40.6027C5.98593 46.1168 11.7506 49.8763 18.5178 49.8763C28.2927 49.8763 36.0625 42.1066 36.0625 32.3317C36.0625 29.8253 35.5612 27.5696 34.8093 25.5645C33.0548 27.0683 30.7991 28.3215 28.5433 29.324C24.0319 32.081 20.0217 37.5951 15.5102 39.8508Z" fill="url(#paint2_linear)"/>
<path d="M18.5183 14.7871C8.74341 14.7871 0.973633 22.5569 0.973633 32.3318C0.973633 35.3394 1.72555 38.0964 2.97874 40.6028C6.48768 41.1041 10.7485 41.856 15.5106 39.8509C20.0221 37.5952 24.0323 32.0811 28.7944 29.3241C31.0502 28.0709 33.0553 26.8177 35.0604 25.5645C32.3034 19.2986 26.0374 14.7871 18.5183 14.7871Z" fill="url(#paint3_linear)"/>
<path d="M96.9667 2.25537C88.9463 2.25537 81.9284 7.7694 79.9233 15.2885C84.1842 16.5417 85.688 19.5494 89.4476 24.0609C91.2021 26.3166 93.2072 30.0762 96.2148 30.3268C99.4731 30.8281 99.9744 27.5698 102.481 27.0685C105.739 26.5672 109.499 28.3217 112.506 27.5698C113.759 25.0634 114.511 22.557 114.511 19.5494C114.511 10.0251 106.742 2.25537 96.9667 2.25537Z" fill="url(#paint4_linear)"/>
<path d="M102.731 27.3181C99.9744 27.8193 99.4731 31.0776 96.4655 30.5764C93.2072 30.0751 91.4527 26.5662 89.6983 24.3104C86.1893 19.7989 84.4349 16.7913 80.174 15.5381C79.6727 17.0419 79.4221 18.5457 79.4221 20.0495C79.4221 29.8244 87.1919 37.5942 96.9668 37.5942C103.734 37.5942 109.749 33.584 112.757 27.8193C109.499 28.3206 105.99 26.5661 102.731 27.3181Z" fill="url(#paint5_linear)"/>
<path d="M210.258 23.5601C206.247 24.5626 203.49 28.0715 199.229 27.5702C193.214 26.3171 191.961 16.2916 185.695 14.0358C185.194 13.7852 184.692 13.7852 184.191 13.7852C183.941 15.0383 183.69 16.2915 183.69 17.5447C183.69 27.3196 191.46 35.0894 201.235 35.0894C208.754 35.0894 215.27 30.3273 217.777 23.8107C215.521 23.8107 213.015 23.0588 210.258 23.5601Z" fill="url(#paint6_linear)"/>
<path d="M201.485 0C192.964 0 185.946 5.76467 184.191 13.7851C184.693 13.7851 185.194 13.7851 185.695 14.0357C191.961 16.2915 193.465 26.317 199.23 27.5702C203.24 28.0714 205.997 24.3119 210.258 23.56C213.015 23.0587 215.521 23.8106 217.777 23.8106C218.529 21.8055 219.03 19.8004 219.03 17.5447C219.03 7.76978 211.01 0 201.485 0Z" fill="url(#paint7_linear)"/>
<path d="M295.973 35.3406C295.973 25.5657 288.203 17.7959 278.428 17.7959C272.162 17.7959 266.648 21.0542 263.39 26.067C263.39 26.8189 263.64 27.5708 263.891 28.3227C266.147 36.0925 273.916 34.338 277.175 38.8495C279.932 42.609 276.172 48.3737 280.433 52.3839C280.684 52.6346 280.684 52.6346 280.934 52.8852C289.456 51.632 295.973 44.1129 295.973 35.3406Z" fill="url(#paint8_linear)"/>
<path d="M277.176 38.599C273.918 34.0875 266.148 35.8419 263.892 28.0722C263.641 27.3203 263.641 26.5683 263.391 25.8164C261.636 28.5734 260.634 31.8317 260.634 35.09C260.634 44.8649 268.404 52.6347 278.178 52.6347C278.93 52.6347 279.682 52.6347 280.434 52.384C280.184 52.1334 280.184 52.1334 279.933 51.8828C276.173 48.1232 279.933 42.1079 277.176 38.599Z" fill="url(#paint9_linear)"/>
<g opacity="0.4">
<path opacity="0.4" d="M100.225 45.6162C100.225 45.6162 100.476 46.1175 100.977 47.12C101.478 48.1226 102.23 49.6264 102.982 51.6315C103.734 53.6366 104.987 55.8923 105.99 58.6493C107.243 61.4064 108.496 64.414 110.251 67.4217C111.754 70.68 113.76 73.9383 116.266 76.946C118.772 79.9536 122.031 82.7106 126.041 84.7157C129.8 86.7208 134.312 87.974 138.823 88.7259C140.077 88.9765 141.079 88.9766 142.332 89.2272C142.834 89.2272 143.585 89.4778 144.087 89.4778H145.841L149.35 89.7285L152.859 89.4778C155.115 89.4778 157.371 88.9766 159.877 88.4753C161.13 88.2247 162.133 87.974 163.135 87.4727C164.138 87.2221 165.391 86.9714 166.394 86.4702C167.396 85.9689 168.649 85.7183 169.652 85.217C170.654 84.7157 171.657 84.2144 172.659 83.7131L174.163 82.9612L175.667 81.9587C176.67 81.4574 177.422 80.7055 178.424 80.2042C181.933 77.4472 184.941 74.6902 187.447 71.4319C188.7 69.9281 189.703 68.1736 190.705 66.6698C191.708 65.166 192.46 63.4115 193.212 61.9077C194.716 58.6494 195.718 55.6417 196.47 52.8847C197.222 50.1277 197.473 47.6213 197.974 45.6162C198.225 43.6111 198.225 41.8566 198.225 40.8541C198.225 39.8515 198.225 39.0996 198.225 39.0996C198.225 39.0996 198.225 39.6009 198.225 40.8541C198.225 41.8566 198.225 43.6111 198.225 45.6162C197.974 47.6213 197.974 50.3783 197.222 53.1353C196.721 56.143 195.718 59.1506 194.465 62.6596C193.713 64.414 192.961 66.1685 191.959 67.6723C190.956 69.4268 189.953 71.1813 188.7 72.6851C186.445 76.194 183.186 79.2017 179.427 82.2094C178.424 82.9613 177.422 83.4625 176.67 84.2144L175.166 85.217L173.662 85.9689C172.659 86.4702 171.657 86.9714 170.404 87.7234C169.401 88.2246 168.148 88.7259 167.145 88.9765C166.143 89.4778 164.89 89.7285 163.637 90.2297C162.383 90.4804 161.381 90.9816 160.128 91.2323C157.621 91.4829 155.365 92.2349 152.859 92.2349L149.099 92.4855L145.591 92.2349H143.836C143.084 92.2349 142.583 91.9842 142.082 91.9842C140.828 91.7336 139.575 91.7336 138.573 91.4829C133.811 90.4804 129.299 89.2272 125.038 86.9715C121.028 84.7157 117.519 81.7081 115.013 78.4498C112.506 75.1915 110.501 71.6826 108.997 68.4243C107.494 65.166 106.24 62.1583 105.238 59.4013C104.235 56.6443 103.233 54.3885 102.481 52.3834C101.228 47.8719 100.225 45.6162 100.225 45.6162Z" fill="#CE8A29"/>
</g>
<g opacity="0.4">
<path opacity="0.4" d="M225.294 85.4671C225.294 85.4671 226.046 85.2165 227.3 84.7152C228.051 84.4646 228.803 84.2139 229.555 83.7126C230.558 83.4619 231.56 82.9607 232.563 82.4594C233.565 81.9581 234.819 81.4569 236.072 80.9556C237.325 80.4544 238.328 79.7024 239.831 78.9505C241.085 78.1986 242.338 77.4467 243.591 76.6948C244.844 75.9428 246.097 74.9403 247.351 74.1884C248.604 73.1858 249.857 72.1833 250.859 71.4313C252.113 70.4288 253.115 69.4263 254.118 68.4237C255.12 67.4212 256.374 66.4186 257.125 65.416C257.877 64.4135 258.88 63.4109 259.632 62.659C260.384 61.9071 261.136 60.9045 261.637 60.1526C262.138 59.4007 262.639 58.6488 262.89 58.1476C263.642 56.8944 264.143 56.3931 264.143 56.3931C264.143 56.3931 263.893 57.145 263.391 58.3982C263.141 59.1501 262.89 59.902 262.389 60.6539C262.138 61.1552 261.888 61.6565 261.888 62.1578C261.637 62.6591 261.386 63.1603 260.885 63.6616C260.133 64.6641 259.632 65.6667 258.629 66.9199C257.877 68.1731 256.875 69.1756 255.872 70.1782C254.87 71.1807 253.867 72.4339 252.614 73.4365C251.361 74.439 250.108 75.4415 248.854 76.4441C247.601 77.4467 246.097 78.1986 244.844 78.9505C243.591 79.953 242.087 80.4543 240.834 81.2062C239.581 81.9581 238.077 82.4594 236.824 82.9607C235.571 83.462 234.317 83.7126 233.064 84.2139C231.811 84.7152 230.808 84.9658 230.057 84.9658C229.054 85.2164 228.302 85.2164 227.55 85.4671C226.297 85.2164 225.294 85.4671 225.294 85.4671Z" fill="#CE8A29"/>
</g>
<g opacity="0.4">
<path opacity="0.4" d="M30.2988 53.1357C30.2988 53.1357 30.8001 53.637 31.8027 54.8902C32.3039 55.3914 32.8052 56.1434 33.3065 56.8953C33.8078 57.6472 34.5597 58.6498 35.5622 59.4017C36.3141 60.4042 37.3167 61.1562 38.0686 62.1587C39.0712 63.1613 40.0737 64.1638 41.0763 65.1663C42.0788 66.1689 43.332 67.4221 44.5852 68.174C45.8384 69.1766 47.0916 70.1791 48.3448 71.1816C49.5979 72.1842 50.8511 72.9361 52.1043 73.9387C53.3575 74.9412 54.6107 75.6931 55.8639 76.445C57.1171 77.197 58.3703 77.9489 59.6235 78.7008C60.8767 79.202 62.1298 79.954 63.1324 80.4553C64.135 80.9565 65.1375 81.4578 66.14 81.9591C67.1426 82.2097 67.8945 82.711 68.3958 82.9616C69.649 83.4629 70.4009 83.7135 70.4009 83.7135C70.4009 83.7135 69.649 83.7136 68.1452 83.2123C67.3932 82.9617 66.6413 82.9616 65.6388 82.711C64.6362 82.4604 63.6337 82.2097 62.3805 81.7085C61.1273 81.2072 59.8741 80.7059 58.6209 80.2046C57.3677 79.7033 56.1145 78.9515 54.6107 78.1995C53.3575 77.4476 51.8537 76.6957 50.6005 75.6932C49.3473 74.6906 47.8435 73.9387 46.5903 72.9361C45.3371 71.9336 44.0839 70.6804 42.8307 69.6779C41.5775 68.6753 40.575 67.4221 39.5724 66.4195C38.5699 65.1663 37.5673 64.1638 36.5648 63.1613C35.8129 61.9081 35.061 60.9055 34.309 59.9029C33.5571 58.9004 33.0558 57.8979 32.5546 57.146C32.0533 56.1434 31.8027 55.3914 31.3014 54.8902C30.5495 53.8876 30.2988 53.1357 30.2988 53.1357Z" fill="#CE8A29"/>
</g>
<path d="M105.089 133H98.1455V112.979H91.8701V107.301H111.347V112.979H105.089V133ZM137.267 120.115C137.267 124.439 136.207 127.727 134.086 129.977C131.965 132.227 128.859 133.352 124.769 133.352C120.738 133.352 117.644 132.221 115.488 129.959C113.344 127.697 112.271 124.404 112.271 120.08C112.271 115.803 113.338 112.539 115.471 110.289C117.615 108.027 120.726 106.896 124.804 106.896C128.894 106.896 131.994 108.016 134.103 110.254C136.213 112.492 137.267 115.779 137.267 120.115ZM119.584 120.115C119.584 125.084 121.312 127.568 124.769 127.568C126.527 127.568 127.828 126.965 128.672 125.758C129.527 124.551 129.955 122.67 129.955 120.115C129.955 117.549 129.521 115.656 128.654 114.438C127.799 113.207 126.515 112.592 124.804 112.592C121.324 112.592 119.584 115.1 119.584 120.115ZM158.758 115.475C158.758 118.346 157.909 120.566 156.21 122.137C154.522 123.695 152.12 124.475 149.003 124.475H147.051V133H140.108V107.301H149.003C152.249 107.301 154.686 108.01 156.315 109.428C157.944 110.846 158.758 112.861 158.758 115.475ZM147.051 118.814H148.317C149.36 118.814 150.186 118.521 150.796 117.936C151.417 117.35 151.727 116.541 151.727 115.51C151.727 113.775 150.766 112.908 148.844 112.908H147.051V118.814ZM182.387 133H175.338V119.395C175.338 117.742 175.373 116.23 175.444 114.859C175.01 115.387 174.471 115.938 173.826 116.512L170.908 118.92L167.305 114.49L176.129 107.301H182.387V133ZM204.95 120.186C204.95 124.732 204.188 128.066 202.665 130.188C201.142 132.297 198.81 133.352 195.669 133.352C192.599 133.352 190.284 132.25 188.726 130.047C187.167 127.832 186.388 124.545 186.388 120.186C186.388 115.615 187.149 112.264 188.673 110.131C190.196 107.998 192.528 106.932 195.669 106.932C198.728 106.932 201.036 108.045 202.595 110.271C204.165 112.486 204.95 115.791 204.95 120.186ZM193.296 120.186C193.296 123.092 193.478 125.09 193.841 126.18C194.204 127.27 194.813 127.814 195.669 127.814C196.536 127.814 197.146 127.252 197.497 126.127C197.86 125.002 198.042 123.021 198.042 120.186C198.042 117.338 197.86 115.346 197.497 114.209C197.134 113.061 196.524 112.486 195.669 112.486C194.813 112.486 194.204 113.037 193.841 114.139C193.478 115.24 193.296 117.256 193.296 120.186Z" fill="url(#paint10_linear)"/>
<defs>
<linearGradient id="paint0_linear" x1="144.474" y1="230" x2="144.474" y2="317" gradientUnits="userSpaceOnUse">
<stop stop-color="#FFC700"/>
<stop offset="1" stop-color="#FC9517"/>
</linearGradient>
<linearGradient id="paint1_linear" x1="149.978" y1="25.3145" x2="149.978" y2="201.764" gradientUnits="userSpaceOnUse">
<stop stop-color="#FFC700"/>
<stop offset="1" stop-color="#FC9517"/>
</linearGradient>
<linearGradient id="paint2_linear" x1="19.5204" y1="25.5645" x2="19.5204" y2="49.8763" gradientUnits="userSpaceOnUse">
<stop stop-color="#FFC700"/>
<stop offset="1" stop-color="#FF4070"/>
</linearGradient>
<linearGradient id="paint3_linear" x1="18.017" y1="14.7871" x2="18.017" y2="41.1668" gradientUnits="userSpaceOnUse">
<stop stop-color="#FFC700"/>
<stop offset="1" stop-color="#FF4070"/>
</linearGradient>
<linearGradient id="paint4_linear" x1="97.2174" y1="2.25537" x2="97.2174" y2="30.3791" gradientUnits="userSpaceOnUse">
<stop stop-color="#FFC700"/>
<stop offset="1" stop-color="#FF4070"/>
</linearGradient>
<linearGradient id="paint5_linear" x1="96.0895" y1="15.5381" x2="96.0895" y2="37.5942" gradientUnits="userSpaceOnUse">
<stop stop-color="#FFC700"/>
<stop offset="1" stop-color="#FF4070"/>
</linearGradient>
<linearGradient id="paint6_linear" x1="200.733" y1="13.7852" x2="200.733" y2="35.0894" gradientUnits="userSpaceOnUse">
<stop stop-color="#FFC700"/>
<stop offset="1" stop-color="#FF4070"/>
</linearGradient>
<linearGradient id="paint7_linear" x1="201.611" y1="0" x2="201.611" y2="27.616" gradientUnits="userSpaceOnUse">
<stop stop-color="#FFC700"/>
<stop offset="1" stop-color="#FF4070"/>
</linearGradient>
<linearGradient id="paint8_linear" x1="279.681" y1="17.7959" x2="279.681" y2="52.8852" gradientUnits="userSpaceOnUse">
<stop stop-color="#FFC700"/>
<stop offset="1" stop-color="#FF4070"/>
</linearGradient>
<linearGradient id="paint9_linear" x1="270.534" y1="25.8164" x2="270.534" y2="52.6347" gradientUnits="userSpaceOnUse">
<stop stop-color="#FFC700"/>
<stop offset="1" stop-color="#FF4070"/>
</linearGradient>
<linearGradient id="paint10_linear" x1="148.974" y1="95" x2="148.974" y2="144" gradientUnits="userSpaceOnUse">
<stop stop-color="#8F5A2D"/>
<stop offset="1" stop-color="#351B06"/>
</linearGradient>
</defs>
</svg>
