<svg width="189" height="182" viewBox="0 0 189 182" fill="none" xmlns="http://www.w3.org/2000/svg">
<path d="M176.128 156.832L30.1674 181.789C22.1332 183.162 14.434 177.713 13.055 169.673C13.055 169.673 -1.23795 21.8809 11.7932 19.6476C11.7932 19.6476 165.107 4.41113 167.335 17.4423L188.238 139.719C189.617 147.759 184.162 155.458 176.128 156.832Z" fill="#C8C8C8"/>
<path d="M167.855 162.074L20.4476 176.188C12.3297 176.964 5.05477 170.962 4.27871 162.844C4.27871 162.844 0.934397 14.3988 14.0939 13.137C14.0939 13.137 168.111 9.25671 169.373 22.4162L181.198 145.905C181.974 154.017 175.972 161.298 167.855 162.074Z" fill="#EDEDED"/>
<path d="M15.8584 156.781L149.168 176.189C157.286 176.965 164.561 170.963 165.337 162.845C165.337 162.845 168.681 14.3995 155.521 13.1377C155.521 13.1377 23.6749 9.77101 22.4131 22.9305L8.56679 135.644C7.79073 143.762 7.74048 156 15.8584 156.781Z" fill="#EDEDED"/>
<path d="M163.46 166.037H15.378C7.22658 166.037 0.554688 159.366 0.554688 151.214V29.6796C0.554688 16.4586 11.3693 5.64404 24.5902 5.64404H154.243C167.464 5.64404 178.278 16.4586 178.278 29.6796V151.214C178.284 159.371 171.612 166.037 163.46 166.037Z" fill="white"/>
<path d="M178.284 47.3336H0.554688V29.6796C0.554688 16.4586 11.3693 5.64404 24.5902 5.64404H154.243C167.464 5.64404 178.278 16.4586 178.278 29.6796V47.3336H178.284Z" fill="url(#paint0_linear)"/>
<path d="M29.4758 17.7707C27.4882 17.7707 25.8579 16.146 25.8579 14.1528V5.64404H33.0881V14.1584C33.0937 16.146 31.469 17.7707 29.4758 17.7707Z" fill="#BF3A37"/>
<path d="M72.259 17.7707C70.2714 17.7707 68.6411 16.146 68.6411 14.1528V5.64404H75.8713V14.1584C75.8769 16.146 74.2466 17.7707 72.259 17.7707Z" fill="#BF3A37"/>
<path d="M112.275 17.7707C110.287 17.7707 108.657 16.146 108.657 14.1528V5.64404H115.887V14.1584C115.893 16.146 114.262 17.7707 112.275 17.7707Z" fill="#BF3A37"/>
<path d="M152.573 17.7713C150.586 17.7713 148.956 16.1466 148.956 14.1534C148.956 14.1534 148.956 6.26442 148.956 5.6391C148.956 5.06962 156.186 5.71727 156.186 5.71727V14.1534C156.186 16.1466 154.561 17.7713 152.573 17.7713Z" fill="#BF3A37"/>
<path d="M70.8357 16.5541C68.8481 16.5541 67.2178 14.9294 67.2178 12.9362V3.61789C67.2178 1.63029 68.8425 0 70.8357 0C72.8233 0 74.4536 1.6247 74.4536 3.61789V12.9362C74.448 14.9294 72.8233 16.5541 70.8357 16.5541Z" fill="#EBEBEB"/>
<path d="M111.051 16.5541C109.063 16.5541 107.433 14.9294 107.433 12.9362V3.61789C107.433 1.63029 109.058 0 111.051 0C113.039 0 114.669 1.6247 114.669 3.61789V12.9362C114.663 14.9294 113.039 16.5541 111.051 16.5541Z" fill="#EBEBEB"/>
<path d="M151.267 16.5541C149.279 16.5541 147.649 14.9294 147.649 12.9362V3.61789C147.649 1.63029 149.274 0 151.267 0C153.254 0 154.885 1.6247 154.885 3.61789V12.9362C154.879 14.9294 153.254 16.5541 151.267 16.5541Z" fill="#EBEBEB"/>
<path d="M163.287 121.384L121.246 165.586C121.246 165.586 122.837 157.803 122.848 152.912C122.854 149.808 122.223 147.095 122.005 142.634C121.408 130.122 128.655 126.934 132.072 125.08C137.32 122.239 145.924 124.343 151.11 124.003C153.31 123.869 161.657 123.5 163.287 121.384Z" fill="#BABABA"/>
<path d="M42.6017 70.6606H18.8955V86.0311H42.6017V70.6606Z" fill="#EBEBEB"/>
<path d="M42.6017 98.0127H18.8955V113.383H42.6017V98.0127Z" fill="#EBEBEB"/>
<path d="M80.3326 98.0127H56.6265V113.383H80.3326V98.0127Z" fill="#EBEBEB"/>
<path d="M118.059 98.0127H94.3525V113.383H118.059V98.0127Z" fill="#EBEBEB"/>
<path d="M155.058 98.0127H131.352V113.383H155.058V98.0127Z" fill="#EBEBEB"/>
<path d="M42.6017 125.37H18.8955V140.741H42.6017V125.37Z" fill="#EBEBEB"/>
<path d="M80.3326 125.37H56.6265V140.741H80.3326V125.37Z" fill="#EBEBEB"/>
<path d="M118.059 125.37H94.3525V140.741H118.059V125.37Z" fill="#EBEBEB"/>
<path d="M80.3326 70.6606H56.6265V86.0311H80.3326V70.6606Z" fill="#EBEBEB"/>
<path d="M118.059 70.6606H94.3525V86.0311H118.059V70.6606Z" fill="#EBEBEB"/>
<path d="M155.783 70.6606H132.077V86.0311H155.783V70.6606Z" fill="#EBEBEB"/>
<path d="M28.0403 16.5541C26.0527 16.5541 24.4224 14.9294 24.4224 12.9362V3.61789C24.4224 1.63029 26.0471 0 28.0403 0C30.0279 0 31.6582 1.6247 31.6582 3.61789V12.9362C31.6582 14.9294 30.0335 16.5541 28.0403 16.5541Z" fill="#EBEBEB"/>
<path d="M37.1133 93.0459C37.1133 95.2594 36.4378 97.1637 35.0869 98.7588C33.736 100.338 31.7829 101.485 29.2275 102.201V102.348C35.1846 103.096 38.1631 105.912 38.1631 110.795C38.1631 114.115 36.8447 116.728 34.208 118.632C31.5876 120.536 27.9417 121.488 23.2705 121.488C21.3499 121.488 19.5677 121.35 17.9238 121.073C16.2962 120.797 14.5303 120.292 12.626 119.56V111.552C14.1885 112.349 15.7754 112.943 17.3867 113.334C19.0143 113.708 20.5117 113.896 21.8789 113.896C23.9948 113.896 25.5329 113.603 26.4932 113.017C27.4697 112.414 27.958 111.479 27.958 110.209C27.958 109.232 27.7057 108.484 27.2012 107.963C26.6966 107.426 25.8828 107.027 24.7598 106.767C23.6367 106.49 22.1719 106.352 20.3652 106.352H18.168V99.1006H20.4141C25.3132 99.1006 27.7627 97.8473 27.7627 95.3408C27.7627 94.3968 27.3965 93.6969 26.6641 93.2412C25.9479 92.7855 24.9795 92.5576 23.7588 92.5576C21.4801 92.5576 19.1201 93.3226 16.6787 94.8525L12.6748 88.4072C14.5628 87.1051 16.4915 86.1774 18.4609 85.624C20.4466 85.0706 22.7171 84.7939 25.2725 84.7939C28.9671 84.7939 31.8643 85.5264 33.9639 86.9912C36.0635 88.4561 37.1133 90.4743 37.1133 93.0459ZM66.3906 100.102H81.7959V119.34C77.613 120.772 73.015 121.488 68.002 121.488C62.5007 121.488 58.2445 119.893 55.2334 116.703C52.2386 113.513 50.7412 108.964 50.7412 103.056C50.7412 97.2939 52.3851 92.8099 55.6729 89.6035C58.9606 86.3971 63.5667 84.7939 69.4912 84.7939C71.7373 84.7939 73.8532 85.0055 75.8389 85.4287C77.8408 85.8519 79.5824 86.389 81.0635 87.04L78.0117 94.6084C75.4401 93.3389 72.6162 92.7041 69.54 92.7041C66.7243 92.7041 64.5433 93.6237 62.9971 95.4629C61.4671 97.2858 60.7021 99.8981 60.7021 103.3C60.7021 106.636 61.3939 109.184 62.7773 110.941C64.1771 112.683 66.1872 113.554 68.8076 113.554C70.2399 113.554 71.5583 113.415 72.7627 113.139V107.548H66.3906V100.102ZM108.471 121L106.713 114.311H95.1162L93.3096 121H82.7139L94.3594 85.1602H107.226L119.018 121H108.471ZM104.711 106.4L103.173 100.541C102.815 99.2389 102.375 97.5544 101.854 95.4873C101.35 93.4202 101.016 91.9391 100.854 91.0439C100.707 91.874 100.414 93.2412 99.9746 95.1455C99.5514 97.0498 98.5993 100.801 97.1182 106.4H104.711ZM150.697 102.396C150.697 108.354 149.053 112.943 145.766 116.166C142.494 119.389 137.888 121 131.947 121H120.399V85.3066H132.753C138.482 85.3066 142.901 86.7715 146.01 89.7012C149.135 92.6309 150.697 96.8626 150.697 102.396ZM140.688 102.738C140.688 99.4668 140.036 97.0417 138.734 95.4629C137.449 93.8841 135.487 93.0947 132.851 93.0947H130.043V113.09H132.191C135.121 113.09 137.27 112.243 138.637 110.551C140.004 108.842 140.688 106.238 140.688 102.738ZM154.618 121V85.3066H164.311V121H154.618Z" fill="url(#paint1_linear)"/>
<path d="M47.1411 43H41.9336V27.9839H37.2271V23.7256H51.8345V27.9839H47.1411V43ZM71.275 33.3364C71.275 36.5796 70.4796 39.0449 68.8888 40.7324C67.2979 42.4199 64.9688 43.2637 61.9015 43.2637C58.878 43.2637 56.5577 42.4155 54.9405 40.7192C53.3321 39.0229 52.5279 36.5532 52.5279 33.3101C52.5279 30.1021 53.3277 27.6543 54.9273 25.9668C56.5357 24.2705 58.8692 23.4224 61.9278 23.4224C64.9952 23.4224 67.3199 24.2617 68.902 25.9404C70.484 27.6191 71.275 30.0845 71.275 33.3364ZM58.0123 33.3364C58.0123 37.063 59.3087 38.9263 61.9015 38.9263C63.2198 38.9263 64.1954 38.4736 64.8282 37.5684C65.4698 36.6631 65.7906 35.2524 65.7906 33.3364C65.7906 31.4116 65.4654 29.9922 64.815 29.0781C64.1734 28.1553 63.211 27.6938 61.9278 27.6938C59.3175 27.6938 58.0123 29.5747 58.0123 33.3364ZM87.3933 29.856C87.3933 32.0093 86.7561 33.6748 85.4816 34.8525C84.216 36.0215 82.4143 36.606 80.0764 36.606H78.613V43H73.4055V23.7256H80.0764C82.5109 23.7256 84.3391 24.2573 85.5607 25.3208C86.7824 26.3843 87.3933 27.896 87.3933 29.856ZM78.613 32.3608H79.5622C80.3444 32.3608 80.9641 32.1411 81.4211 31.7017C81.8869 31.2622 82.1198 30.6558 82.1198 29.8823C82.1198 28.5815 81.3991 27.9312 79.9577 27.9312H78.613V32.3608ZM105.115 43H99.828V32.7959C99.828 31.5566 99.8544 30.4229 99.9071 29.3945C99.5819 29.79 99.1776 30.2031 98.6942 30.6338L96.5058 32.4399L93.8031 29.1177L100.421 23.7256H105.115V43ZM122.037 33.3892C122.037 36.7993 121.466 39.2998 120.323 40.8906C119.181 42.4727 117.432 43.2637 115.076 43.2637C112.773 43.2637 111.038 42.4375 109.869 40.7852C108.7 39.124 108.115 36.6587 108.115 33.3892C108.115 29.9614 108.687 27.4478 109.829 25.8481C110.972 24.2485 112.721 23.4487 115.076 23.4487C117.37 23.4487 119.102 24.2837 120.271 25.9536C121.448 27.6147 122.037 30.0933 122.037 33.3892ZM113.296 33.3892C113.296 35.5688 113.433 37.0674 113.705 37.8848C113.978 38.7021 114.435 39.1108 115.076 39.1108C115.727 39.1108 116.184 38.689 116.447 37.8452C116.72 37.0015 116.856 35.5161 116.856 33.3892C116.856 31.2534 116.72 29.7593 116.447 28.9067C116.175 28.0454 115.718 27.6147 115.076 27.6147C114.435 27.6147 113.978 28.0278 113.705 28.854C113.433 29.6802 113.296 31.1919 113.296 33.3892ZM136.507 33.3892C136.507 36.7993 135.936 39.2998 134.794 40.8906C133.651 42.4727 131.902 43.2637 129.546 43.2637C127.244 43.2637 125.508 42.4375 124.339 40.7852C123.17 39.124 122.586 36.6587 122.586 33.3892C122.586 29.9614 123.157 27.4478 124.299 25.8481C125.442 24.2485 127.191 23.4487 129.546 23.4487C131.84 23.4487 133.572 24.2837 134.741 25.9536C135.919 27.6147 136.507 30.0933 136.507 33.3892ZM127.767 33.3892C127.767 35.5688 127.903 37.0674 128.175 37.8848C128.448 38.7021 128.905 39.1108 129.546 39.1108C130.197 39.1108 130.654 38.689 130.918 37.8452C131.19 37.0015 131.326 35.5161 131.326 33.3892C131.326 31.2534 131.19 29.7593 130.918 28.9067C130.645 28.0454 130.188 27.6147 129.546 27.6147C128.905 27.6147 128.448 28.0278 128.175 28.854C127.903 29.6802 127.767 31.1919 127.767 33.3892Z" fill="#EEEBE8"/>
<path d="M177.217 118.604L121.251 165.592C121.251 165.592 124.031 156.659 124.584 150.931C124.93 147.29 124.456 144.047 124.679 138.798C125.316 124.07 134.478 121.167 138.844 119.386C145.538 116.656 155.777 120.1 162.125 120.296C164.805 120.374 174.995 120.899 177.217 118.604Z" fill="#E7E6E6"/>
<defs>
<linearGradient id="paint0_linear" x1="89.4192" y1="5.64404" x2="89.4192" y2="47.3336" gradientUnits="userSpaceOnUse">
<stop stop-color="#FF1D1D"/>
<stop offset="1" stop-color="#FF4172"/>
</linearGradient>
<linearGradient id="paint1_linear" x1="89.5547" y1="68" x2="89.5547" y2="136" gradientUnits="userSpaceOnUse">
<stop stop-color="#FFC700"/>
<stop offset="1" stop-color="#FF4070"/>
</linearGradient>
</defs>
</svg>
