<svg width="188" height="182" viewBox="0 0 188 182" fill="none" xmlns="http://www.w3.org/2000/svg">
<path d="M175.574 156.832L29.6127 181.789C21.5785 183.162 13.8793 177.713 12.5003 169.673C12.5003 169.673 -1.79263 21.8809 11.2385 19.6476C11.2385 19.6476 164.552 4.41113 166.78 17.4423L187.683 139.719C189.063 147.759 183.608 155.458 175.574 156.832Z" fill="#C8C8C8"/>
<path d="M167.3 162.074L19.8927 176.188C11.7747 176.964 4.49984 170.962 3.72378 162.844C3.72378 162.844 0.379465 14.3988 13.539 13.137C13.539 13.137 167.556 9.25671 168.818 22.4162L180.643 145.905C181.419 154.017 175.418 161.298 167.3 162.074Z" fill="#EDEDED"/>
<path d="M15.3035 156.781L148.613 176.189C156.731 176.965 164.006 170.963 164.782 162.845C164.782 162.845 168.126 14.3995 154.967 13.1377C154.967 13.1377 23.1199 9.77101 21.8581 22.9305L8.01186 135.644C7.2358 143.762 7.18555 156 15.3035 156.781Z" fill="#EDEDED"/>
<path d="M162.906 166.037H14.8233C6.67189 166.037 0 159.366 0 151.214V29.6796C0 16.4586 10.8146 5.64404 24.0356 5.64404H153.688C166.909 5.64404 177.724 16.4586 177.724 29.6796V151.214C177.729 159.371 171.057 166.037 162.906 166.037Z" fill="white"/>
<path d="M177.729 47.3336H0V29.6796C0 16.4586 10.8146 5.64404 24.0356 5.64404H153.688C166.909 5.64404 177.724 16.4586 177.724 29.6796V47.3336H177.729Z" fill="url(#paint0_linear)"/>
<path d="M28.9211 17.7707C26.9335 17.7707 25.3032 16.146 25.3032 14.1528V5.64404H32.5334V14.1584C32.539 16.146 30.9143 17.7707 28.9211 17.7707Z" fill="#BF3A37"/>
<path d="M71.7046 17.7707C69.717 17.7707 68.0867 16.146 68.0867 14.1528V5.64404H75.3169V14.1584C75.3225 16.146 73.6922 17.7707 71.7046 17.7707Z" fill="#BF3A37"/>
<path d="M111.72 17.7707C109.732 17.7707 108.102 16.146 108.102 14.1528V5.64404H115.332V14.1584C115.338 16.146 113.707 17.7707 111.72 17.7707Z" fill="#BF3A37"/>
<path d="M152.019 17.7713C150.031 17.7713 148.401 16.1466 148.401 14.1534C148.401 14.1534 148.401 6.26442 148.401 5.6391C148.401 5.06962 155.631 5.71727 155.631 5.71727V14.1534C155.631 16.1466 154.006 17.7713 152.019 17.7713Z" fill="#BF3A37"/>
<path d="M70.2807 16.5541C68.2931 16.5541 66.6628 14.9294 66.6628 12.9362V3.61789C66.6628 1.63029 68.2875 0 70.2807 0C72.2683 0 73.8986 1.6247 73.8986 3.61789V12.9362C73.8931 14.9294 72.2683 16.5541 70.2807 16.5541Z" fill="#EBEBEB"/>
<path d="M110.497 16.5541C108.509 16.5541 106.879 14.9294 106.879 12.9362V3.61789C106.879 1.63029 108.503 0 110.497 0C112.484 0 114.114 1.6247 114.114 3.61789V12.9362C114.109 14.9294 112.484 16.5541 110.497 16.5541Z" fill="#EBEBEB"/>
<path d="M150.712 16.5541C148.725 16.5541 147.094 14.9294 147.094 12.9362V3.61789C147.094 1.63029 148.719 0 150.712 0C152.7 0 154.33 1.6247 154.33 3.61789V12.9362C154.324 14.9294 152.7 16.5541 150.712 16.5541Z" fill="#EBEBEB"/>
<path d="M162.732 121.384L120.691 165.586C120.691 165.586 122.282 157.803 122.294 152.912C122.299 149.808 121.668 147.095 121.45 142.634C120.853 130.122 128.1 126.934 131.517 125.08C136.765 122.239 145.369 124.343 150.556 124.003C152.755 123.869 161.102 123.5 162.732 121.384Z" fill="#BABABA"/>
<path d="M42.047 70.6606H18.3408V86.0311H42.047V70.6606Z" fill="#EBEBEB"/>
<path d="M42.047 98.0127H18.3408V113.383H42.047V98.0127Z" fill="#EBEBEB"/>
<path d="M79.7782 98.0127H56.072V113.383H79.7782V98.0127Z" fill="#EBEBEB"/>
<path d="M117.504 98.0127H93.7979V113.383H117.504V98.0127Z" fill="#EBEBEB"/>
<path d="M154.503 98.0127H130.797V113.383H154.503V98.0127Z" fill="#EBEBEB"/>
<path d="M42.047 125.37H18.3408V140.741H42.047V125.37Z" fill="#EBEBEB"/>
<path d="M79.7782 125.37H56.072V140.741H79.7782V125.37Z" fill="#EBEBEB"/>
<path d="M117.504 125.37H93.7979V140.741H117.504V125.37Z" fill="#EBEBEB"/>
<path d="M79.7782 70.6606H56.072V86.0311H79.7782V70.6606Z" fill="#EBEBEB"/>
<path d="M117.504 70.6606H93.7979V86.0311H117.504V70.6606Z" fill="#EBEBEB"/>
<path d="M155.229 70.6606H131.522V86.0311H155.229V70.6606Z" fill="#EBEBEB"/>
<path d="M27.4858 16.5541C25.4982 16.5541 23.8679 14.9294 23.8679 12.9362V3.61789C23.8679 1.63029 25.4926 0 27.4858 0C29.4734 0 31.1037 1.6247 31.1037 3.61789V12.9362C31.1037 14.9294 29.479 16.5541 27.4858 16.5541Z" fill="#EBEBEB"/>
<path d="M97.6895 129H83.9834V102.545C83.9834 99.332 84.0518 96.3926 84.1885 93.7266C83.3454 94.752 82.2972 95.8229 81.0439 96.9395L75.3701 101.622L68.3633 93.0088L85.5215 79.0293H97.6895V129Z" fill="url(#paint1_linear)"/>
<path d="M46.5864 43H41.3789V27.9839H36.6724V23.7256H51.2798V27.9839H46.5864V43ZM70.7203 33.3364C70.7203 36.5796 69.9249 39.0449 68.3341 40.7324C66.7433 42.4199 64.4142 43.2637 61.3468 43.2637C58.3233 43.2637 56.003 42.4155 54.3858 40.7192C52.7774 39.0229 51.9732 36.5532 51.9732 33.3101C51.9732 30.1021 52.773 27.6543 54.3727 25.9668C55.9811 24.2705 58.3146 23.4224 61.3731 23.4224C64.4405 23.4224 66.7652 24.2617 68.3473 25.9404C69.9293 27.6191 70.7203 30.0845 70.7203 33.3364ZM57.4576 33.3364C57.4576 37.063 58.754 38.9263 61.3468 38.9263C62.6651 38.9263 63.6407 38.4736 64.2735 37.5684C64.9151 36.6631 65.2359 35.2524 65.2359 33.3364C65.2359 31.4116 64.9107 29.9922 64.2604 29.0781C63.6187 28.1553 62.6563 27.6938 61.3731 27.6938C58.7628 27.6938 57.4576 29.5747 57.4576 33.3364ZM86.8386 29.856C86.8386 32.0093 86.2014 33.6748 84.927 34.8525C83.6613 36.0215 81.8596 36.606 79.5217 36.606H78.0583V43H72.8508V23.7256H79.5217C81.9562 23.7256 83.7844 24.2573 85.0061 25.3208C86.2277 26.3843 86.8386 27.896 86.8386 29.856ZM78.0583 32.3608H79.0075C79.7897 32.3608 80.4094 32.1411 80.8664 31.7017C81.3322 31.2622 81.5651 30.6558 81.5651 29.8823C81.5651 28.5815 80.8444 27.9312 79.403 27.9312H78.0583V32.3608ZM104.56 43H99.2733V32.7959C99.2733 31.5566 99.2997 30.4229 99.3524 29.3945C99.0272 29.79 98.6229 30.2031 98.1395 30.6338L95.9511 32.4399L93.2484 29.1177L99.8666 23.7256H104.56V43ZM121.482 33.3892C121.482 36.7993 120.911 39.2998 119.769 40.8906C118.626 42.4727 116.877 43.2637 114.521 43.2637C112.219 43.2637 110.483 42.4375 109.314 40.7852C108.145 39.124 107.561 36.6587 107.561 33.3892C107.561 29.9614 108.132 27.4478 109.274 25.8481C110.417 24.2485 112.166 23.4487 114.521 23.4487C116.815 23.4487 118.547 24.2837 119.716 25.9536C120.894 27.6147 121.482 30.0933 121.482 33.3892ZM112.742 33.3892C112.742 35.5688 112.878 37.0674 113.15 37.8848C113.423 38.7021 113.88 39.1108 114.521 39.1108C115.172 39.1108 115.629 38.689 115.893 37.8452C116.165 37.0015 116.301 35.5161 116.301 33.3892C116.301 31.2534 116.165 29.7593 115.893 28.9067C115.62 28.0454 115.163 27.6147 114.521 27.6147C113.88 27.6147 113.423 28.0278 113.15 28.854C112.878 29.6802 112.742 31.1919 112.742 33.3892ZM135.953 33.3892C135.953 36.7993 135.381 39.2998 134.239 40.8906C133.096 42.4727 131.347 43.2637 128.992 43.2637C126.689 43.2637 124.953 42.4375 123.784 40.7852C122.615 39.124 122.031 36.6587 122.031 33.3892C122.031 29.9614 122.602 27.4478 123.745 25.8481C124.887 24.2485 126.636 23.4487 128.992 23.4487C131.286 23.4487 133.017 24.2837 134.186 25.9536C135.364 27.6147 135.953 30.0933 135.953 33.3892ZM127.212 33.3892C127.212 35.5688 127.348 37.0674 127.621 37.8848C127.893 38.7021 128.35 39.1108 128.992 39.1108C129.642 39.1108 130.099 38.689 130.363 37.8452C130.635 37.0015 130.772 35.5161 130.772 33.3892C130.772 31.2534 130.635 29.7593 130.363 28.9067C130.09 28.0454 129.633 27.6147 128.992 27.6147C128.35 27.6147 127.893 28.0278 127.621 28.854C127.348 29.6802 127.212 31.1919 127.212 33.3892Z" fill="#EEEBE8"/>
<defs>
<linearGradient id="paint0_linear" x1="88.8646" y1="5.64404" x2="88.8646" y2="47.3336" gradientUnits="userSpaceOnUse">
<stop stop-color="#FF1D1D"/>
<stop offset="1" stop-color="#FF4172"/>
</linearGradient>
<linearGradient id="paint1_linear" x1="86" y1="54" x2="86" y2="149" gradientUnits="userSpaceOnUse">
<stop stop-color="#FFC700"/>
<stop offset="1" stop-color="#FF4070"/>
</linearGradient>
</defs>
</svg>
