<svg width="189" height="182" viewBox="0 0 189 182" fill="none" xmlns="http://www.w3.org/2000/svg">
<path d="M176.47 156.832L30.5094 181.789C22.4753 183.162 14.7761 177.713 13.397 169.673C13.397 169.673 -0.895905 21.8809 12.1352 19.6476C12.1352 19.6476 165.449 4.41113 167.677 17.4423L188.58 139.719C189.959 147.759 184.504 155.458 176.47 156.832Z" fill="#C8C8C8"/>
<path d="M168.196 162.074L20.7894 176.188C12.6715 176.964 5.39657 170.962 4.62051 162.844C4.62051 162.844 1.27619 14.3988 14.4357 13.137C14.4357 13.137 168.453 9.25671 169.715 22.4162L181.54 145.905C182.316 154.017 176.314 161.298 168.196 162.074Z" fill="#EDEDED"/>
<path d="M16.2002 156.781L149.51 176.189C157.628 176.965 164.902 170.963 165.678 162.845C165.678 162.845 169.023 14.3995 155.863 13.1377C155.863 13.1377 24.0167 9.77101 22.7549 22.9305L8.90859 135.644C8.13252 143.762 8.08228 156 16.2002 156.781Z" fill="#EDEDED"/>
<path d="M163.803 166.037H15.72C7.56862 166.037 0.896729 159.366 0.896729 151.214V29.6796C0.896729 16.4586 11.7113 5.64404 24.9323 5.64404H154.585C167.806 5.64404 178.62 16.4586 178.62 29.6796V151.214C178.626 159.371 171.954 166.037 163.803 166.037Z" fill="white"/>
<path d="M178.626 47.3336H0.896729V29.6796C0.896729 16.4586 11.7113 5.64404 24.9323 5.64404H154.585C167.806 5.64404 178.62 16.4586 178.62 29.6796V47.3336H178.626Z" fill="url(#paint0_linear)"/>
<path d="M29.8176 17.7707C27.83 17.7707 26.1997 16.146 26.1997 14.1528V5.64404H33.4299V14.1584C33.4355 16.146 31.8108 17.7707 29.8176 17.7707Z" fill="#BF3A37"/>
<path d="M72.6013 17.7707C70.6137 17.7707 68.9834 16.146 68.9834 14.1528V5.64404H76.2136V14.1584C76.2192 16.146 74.5889 17.7707 72.6013 17.7707Z" fill="#BF3A37"/>
<path d="M112.616 17.7707C110.629 17.7707 108.999 16.146 108.999 14.1528V5.64404H116.229V14.1584C116.234 16.146 114.604 17.7707 112.616 17.7707Z" fill="#BF3A37"/>
<path d="M152.916 17.7713C150.928 17.7713 149.298 16.1466 149.298 14.1534C149.298 14.1534 149.298 6.26442 149.298 5.6391C149.298 5.06962 156.528 5.71727 156.528 5.71727V14.1534C156.528 16.1466 154.903 17.7713 152.916 17.7713Z" fill="#BF3A37"/>
<path d="M71.1775 16.5541C69.1899 16.5541 67.5596 14.9294 67.5596 12.9362V3.61789C67.5596 1.63029 69.1843 0 71.1775 0C73.1651 0 74.7954 1.6247 74.7954 3.61789V12.9362C74.7898 14.9294 73.1651 16.5541 71.1775 16.5541Z" fill="#EBEBEB"/>
<path d="M111.393 16.5541C109.406 16.5541 107.775 14.9294 107.775 12.9362V3.61789C107.775 1.63029 109.4 0 111.393 0C113.381 0 115.011 1.6247 115.011 3.61789V12.9362C115.006 14.9294 113.381 16.5541 111.393 16.5541Z" fill="#EBEBEB"/>
<path d="M151.609 16.5541C149.621 16.5541 147.991 14.9294 147.991 12.9362V3.61789C147.991 1.63029 149.616 0 151.609 0C153.596 0 155.227 1.6247 155.227 3.61789V12.9362C155.221 14.9294 153.596 16.5541 151.609 16.5541Z" fill="#EBEBEB"/>
<path d="M163.629 121.384L121.588 165.586C121.588 165.586 123.179 157.803 123.19 152.912C123.196 149.808 122.565 147.095 122.347 142.634C121.75 130.122 128.997 126.934 132.414 125.08C137.662 122.239 146.266 124.343 151.452 124.003C153.652 123.869 161.999 123.5 163.629 121.384Z" fill="#BABABA"/>
<path d="M42.9437 70.6606H19.2375V86.0311H42.9437V70.6606Z" fill="#EBEBEB"/>
<path d="M42.9437 98.0127H19.2375V113.383H42.9437V98.0127Z" fill="#EBEBEB"/>
<path d="M80.6749 98.0127H56.9688V113.383H80.6749V98.0127Z" fill="#EBEBEB"/>
<path d="M118.401 98.0127H94.6946V113.383H118.401V98.0127Z" fill="#EBEBEB"/>
<path d="M155.4 98.0127H131.694V113.383H155.4V98.0127Z" fill="#EBEBEB"/>
<path d="M42.9437 125.37H19.2375V140.741H42.9437V125.37Z" fill="#EBEBEB"/>
<path d="M80.6749 125.37H56.9688V140.741H80.6749V125.37Z" fill="#EBEBEB"/>
<path d="M118.401 125.37H94.6946V140.741H118.401V125.37Z" fill="#EBEBEB"/>
<path d="M80.6749 70.6606H56.9688V86.0311H80.6749V70.6606Z" fill="#EBEBEB"/>
<path d="M118.401 70.6606H94.6946V86.0311H118.401V70.6606Z" fill="#EBEBEB"/>
<path d="M156.126 70.6606H132.419V86.0311H156.126V70.6606Z" fill="#EBEBEB"/>
<path d="M28.3825 16.5541C26.3949 16.5541 24.7646 14.9294 24.7646 12.9362V3.61789C24.7646 1.63029 26.3894 0 28.3825 0C30.3702 0 32.0004 1.6247 32.0004 3.61789V12.9362C32.0004 14.9294 30.3757 16.5541 28.3825 16.5541Z" fill="#EBEBEB"/>
<path d="M103.064 89.8643C103.064 92.9632 102.118 95.6292 100.227 97.8623C98.3355 100.073 95.6012 101.679 92.0237 102.682V102.887C100.364 103.935 104.533 107.877 104.533 114.713C104.533 119.361 102.688 123.019 98.9963 125.685C95.3277 128.351 90.2236 129.684 83.6838 129.684C80.995 129.684 78.4999 129.49 76.1985 129.103C73.9198 128.715 71.4475 128.009 68.7815 126.983V115.772C70.969 116.889 73.1907 117.721 75.4465 118.268C77.7252 118.792 79.8215 119.054 81.7356 119.054C84.6978 119.054 86.8512 118.644 88.1956 117.823C89.5627 116.98 90.2463 115.67 90.2463 113.893C90.2463 112.525 89.8931 111.477 89.1868 110.748C88.4804 109.996 87.3411 109.438 85.7688 109.073C84.1965 108.686 82.1458 108.492 79.6165 108.492H76.5403V98.3408H79.6848C86.5435 98.3408 89.9729 96.5863 89.9729 93.0771C89.9729 91.7555 89.4602 90.7757 88.4348 90.1377C87.4322 89.4997 86.0764 89.1807 84.3674 89.1807C81.1773 89.1807 77.8733 90.2516 74.4553 92.3936L68.8499 83.3701C71.4931 81.5472 74.1933 80.2484 76.9504 79.4736C79.7304 78.6989 82.9091 78.3115 86.4866 78.3115C91.6591 78.3115 95.7151 79.3369 98.6545 81.3877C101.594 83.4385 103.064 86.264 103.064 89.8643Z" fill="url(#paint1_linear)"/>
<path d="M47.4832 43H42.2756V27.9839H37.5691V23.7256H52.1765V27.9839H47.4832V43ZM71.617 33.3364C71.617 36.5796 70.8216 39.0449 69.2308 40.7324C67.64 42.4199 65.3109 43.2637 62.2435 43.2637C59.2201 43.2637 56.8998 42.4155 55.2826 40.7192C53.6742 39.0229 52.87 36.5532 52.87 33.3101C52.87 30.1021 53.6698 27.6543 55.2694 25.9668C56.8778 24.2705 59.2113 23.4224 62.2699 23.4224C65.3373 23.4224 67.662 24.2617 69.244 25.9404C70.826 27.6191 71.617 30.0845 71.617 33.3364ZM58.3543 33.3364C58.3543 37.063 59.6507 38.9263 62.2435 38.9263C63.5619 38.9263 64.5375 38.4736 65.1703 37.5684C65.8119 36.6631 66.1327 35.2524 66.1327 33.3364C66.1327 31.4116 65.8075 29.9922 65.1571 29.0781C64.5155 28.1553 63.5531 27.6938 62.2699 27.6938C59.6595 27.6938 58.3543 29.5747 58.3543 33.3364ZM87.7353 29.856C87.7353 32.0093 87.0981 33.6748 85.8237 34.8525C84.5581 36.0215 82.7563 36.606 80.4184 36.606H78.955V43H73.7475V23.7256H80.4184C82.853 23.7256 84.6811 24.2573 85.9028 25.3208C87.1245 26.3843 87.7353 27.896 87.7353 29.856ZM78.955 32.3608H79.9042C80.6865 32.3608 81.3061 32.1411 81.7631 31.7017C82.229 31.2622 82.4619 30.6558 82.4619 29.8823C82.4619 28.5815 81.7412 27.9312 80.2998 27.9312H78.955V32.3608ZM105.457 43H100.17V32.7959C100.17 31.5566 100.196 30.4229 100.249 29.3945C99.924 29.79 99.5197 30.2031 99.0363 30.6338L96.8478 32.4399L94.1452 29.1177L100.763 23.7256H105.457V43ZM122.379 33.3892C122.379 36.7993 121.808 39.2998 120.665 40.8906C119.523 42.4727 117.774 43.2637 115.418 43.2637C113.115 43.2637 111.38 42.4375 110.211 40.7852C109.042 39.124 108.457 36.6587 108.457 33.3892C108.457 29.9614 109.029 27.4478 110.171 25.8481C111.314 24.2485 113.063 23.4487 115.418 23.4487C117.712 23.4487 119.444 24.2837 120.613 25.9536C121.79 27.6147 122.379 30.0933 122.379 33.3892ZM113.638 33.3892C113.638 35.5688 113.775 37.0674 114.047 37.8848C114.32 38.7021 114.777 39.1108 115.418 39.1108C116.069 39.1108 116.526 38.689 116.789 37.8452C117.062 37.0015 117.198 35.5161 117.198 33.3892C117.198 31.2534 117.062 29.7593 116.789 28.9067C116.517 28.0454 116.06 27.6147 115.418 27.6147C114.777 27.6147 114.32 28.0278 114.047 28.854C113.775 29.6802 113.638 31.1919 113.638 33.3892ZM136.849 33.3892C136.849 36.7993 136.278 39.2998 135.136 40.8906C133.993 42.4727 132.244 43.2637 129.889 43.2637C127.586 43.2637 125.85 42.4375 124.681 40.7852C123.512 39.124 122.928 36.6587 122.928 33.3892C122.928 29.9614 123.499 27.4478 124.641 25.8481C125.784 24.2485 127.533 23.4487 129.889 23.4487C132.182 23.4487 133.914 24.2837 135.083 25.9536C136.261 27.6147 136.849 30.0933 136.849 33.3892ZM128.109 33.3892C128.109 35.5688 128.245 37.0674 128.517 37.8848C128.79 38.7021 129.247 39.1108 129.889 39.1108C130.539 39.1108 130.996 38.689 131.26 37.8452C131.532 37.0015 131.668 35.5161 131.668 33.3892C131.668 31.2534 131.532 29.7593 131.26 28.9067C130.987 28.0454 130.53 27.6147 129.889 27.6147C129.247 27.6147 128.79 28.0278 128.517 28.854C128.245 29.6802 128.109 31.1919 128.109 33.3892Z" fill="#EEEBE8"/>
<defs>
<linearGradient id="paint0_linear" x1="89.7613" y1="5.64404" x2="89.7613" y2="47.3336" gradientUnits="userSpaceOnUse">
<stop stop-color="#FF1D1D"/>
<stop offset="1" stop-color="#FF4172"/>
</linearGradient>
<linearGradient id="paint1_linear" x1="86.8967" y1="54" x2="86.8967" y2="149" gradientUnits="userSpaceOnUse">
<stop stop-color="#FFC700"/>
<stop offset="1" stop-color="#FF4070"/>
</linearGradient>
</defs>
</svg>
