<svg width="251" height="273" viewBox="0 0 251 273" fill="none" xmlns="http://www.w3.org/2000/svg">
<path d="M120.063 253.5H86.9071V245.375L98.0634 234.094C101.251 230.76 103.334 228.49 104.313 227.281C105.293 226.052 105.97 225 106.345 224.125C106.74 223.25 106.938 222.333 106.938 221.375C106.938 220.188 106.553 219.25 105.782 218.562C105.011 217.875 103.928 217.531 102.532 217.531C101.095 217.531 99.6363 217.948 98.1571 218.781C96.6988 219.594 95.0425 220.802 93.1884 222.406L86.4071 214.469C88.7613 212.365 90.7405 210.865 92.3446 209.969C93.9488 209.052 95.6884 208.354 97.5634 207.875C99.4592 207.396 101.584 207.156 103.938 207.156C106.897 207.156 109.532 207.677 111.845 208.719C114.178 209.76 115.98 211.25 117.251 213.188C118.543 215.104 119.188 217.26 119.188 219.656C119.188 221.448 118.959 223.104 118.501 224.625C118.063 226.146 117.376 227.646 116.438 229.125C115.501 230.583 114.251 232.125 112.688 233.75C111.147 235.375 107.845 238.458 102.782 243V243.312H120.063V253.5ZM140.051 223.562C142.676 223.562 145.04 224.177 147.145 225.406C149.27 226.615 150.915 228.333 152.082 230.562C153.27 232.792 153.863 235.365 153.863 238.281C153.863 243.385 152.322 247.302 149.238 250.031C146.176 252.76 141.53 254.125 135.301 254.125C129.968 254.125 125.613 253.302 122.238 251.656V241.531C124.051 242.365 126.093 243.052 128.363 243.594C130.655 244.135 132.624 244.406 134.27 244.406C136.561 244.406 138.322 243.927 139.551 242.969C140.78 241.99 141.395 240.552 141.395 238.656C141.395 236.906 140.77 235.542 139.52 234.562C138.27 233.583 136.374 233.094 133.832 233.094C131.895 233.094 129.801 233.458 127.551 234.188L123.02 231.938L124.738 207.812H150.801V218.094H135.238L134.676 224.125C136.301 223.812 137.457 223.646 138.145 223.625C138.832 223.583 139.468 223.562 140.051 223.562Z" fill="url(#paint0_linear)"/>
<path d="M120.392 5.16714C104.468 21.9141 94.0359 64.1933 94.0359 64.1933C111.881 72.7041 105.018 95.491 89.6433 102.08C78.1126 107.022 60.2675 97.6872 58.0711 85.0584C56.4239 75.724 61.3656 68.5859 67.4055 62.5461C67.4055 62.5461 11.9484 44.7009 3.71218 36.7393C3.71218 36.7393 -0.680474 35.3666 1.51585 42.5046C3.71217 49.9172 44.6187 166.322 44.6187 166.322L117.097 168.519H134.119L206.597 166.322C206.597 166.322 247.504 49.6427 249.7 42.5046C251.897 35.0921 247.504 36.7393 247.504 36.7393C238.993 44.7009 183.811 62.5461 183.811 62.5461C190.125 68.8605 194.792 75.9986 193.145 85.0584C190.949 97.6872 173.104 107.022 161.573 102.08C146.199 95.491 139.335 72.4295 157.18 64.1933C157.18 64.1933 147.022 21.9141 130.824 5.16714L125.608 0.5L120.392 5.16714Z" fill="url(#paint1_linear)"/>
<path d="M212.637 171.538C212.637 175.931 209.068 179.5 204.675 179.5H45.7163C41.3236 179.5 37.7546 175.931 37.7546 171.538C37.7546 167.146 41.3236 163.577 45.7163 163.577H204.675C209.068 163.851 212.637 167.146 212.637 171.538Z" fill="url(#paint2_linear)"/>
<path d="M7.8313 44.4271L10.3021 46.3489C11.1258 46.898 12.2239 47.4471 13.0475 47.9961C13.8712 48.5452 14.9693 49.0943 15.793 49.3688C16.6166 49.9179 17.7147 50.1925 18.8129 50.7415C20.7347 51.5652 22.6565 52.3888 24.8528 53.2124L30.8927 55.4088L42.9724 59.5269C44.8942 60.3505 47.0906 60.625 49.0123 61.4486L55.0522 63.0959C55.6013 63.0959 55.8758 63.6449 55.6013 64.194C54.7777 66.9394 53.9541 69.9593 52.8559 72.4302C51.7577 75.1756 51.2086 77.921 50.6596 80.3919C50.385 83.1373 50.6596 85.8827 51.7577 88.3536C52.3068 89.7263 52.8559 90.8244 53.6795 91.9226C54.5031 93.2953 55.3267 94.3934 56.1504 95.4916C56.974 96.5897 58.0722 97.6879 58.8958 98.5115C59.9939 99.3352 60.8176 100.433 61.9157 101.257C63.0139 102.081 64.112 102.904 65.2102 103.728C66.3084 104.551 67.6811 105.101 68.7792 105.65C71.2501 106.748 73.9955 107.571 76.7409 108.12C79.4863 108.395 82.2317 108.67 84.9771 108.12C87.7225 107.571 90.1934 106.748 92.6642 105.375C94.0369 104.826 94.8606 104.002 96.2333 103.179C97.3314 102.355 98.4296 101.532 99.2532 100.433C101.175 98.5116 102.822 96.0407 103.92 93.8444C105.019 91.3735 106.117 88.6281 106.666 85.8827C106.94 84.51 106.94 83.1373 107.215 81.7646C107.215 80.3919 107.215 79.0192 107.215 77.6465C106.94 74.9011 106.117 72.1557 105.019 69.6848C103.92 67.2139 102.548 64.7431 101.175 61.9977C100.9 61.4486 100.626 60.625 100.351 59.8013C100.077 58.9777 100.077 57.8796 100.351 57.3305C100.626 55.6832 101.45 54.5851 101.999 53.2124C102.822 51.2906 103.371 49.0943 104.195 47.1725L106.666 41.1326L109.137 35.0927C109.411 33.9945 109.96 33.171 110.509 32.0728L111.882 29.0529C112.98 27.1311 113.804 25.2093 114.902 23.2875L118.196 17.7967L124.511 6.54053C122.589 10.3841 120.667 14.2277 118.746 18.0713L115.726 23.8366C114.627 25.7584 113.804 27.6801 112.98 29.6019L111.607 32.6219C111.058 33.4455 110.784 34.5437 110.235 35.6418L108.039 41.6817L105.568 47.7216C104.744 49.6434 104.195 51.8397 103.371 53.7615C102.822 55.1342 102.273 56.5069 101.999 57.605C101.724 58.7032 102.273 59.8013 102.822 61.174C104.195 63.6449 105.568 66.1158 106.94 68.8612C108.313 71.6066 109.137 74.352 109.411 77.372C109.686 79.0192 109.686 80.3919 109.686 81.7646C109.411 83.1373 109.411 84.7845 109.137 86.1572C108.588 89.1772 107.489 91.9226 106.391 94.668C105.019 97.4134 103.371 99.8843 101.175 102.081C100.077 103.179 98.9786 104.002 97.8805 105.1C96.5078 105.924 95.4096 107.022 94.0369 107.571C91.2915 109.219 88.5461 110.042 85.5262 110.591C82.5062 111.14 79.4863 111.14 76.4664 110.591C73.721 110.042 70.701 109.219 67.9556 107.846C66.5829 107.297 65.2102 106.473 64.1121 105.65C62.7394 104.826 61.6412 104.002 60.543 103.179C59.4449 102.355 58.3467 101.257 57.2486 100.159C56.1504 99.0606 55.3268 97.9624 54.2286 96.8643C53.405 95.7661 52.3068 94.3934 51.7577 93.0207C50.9341 91.9226 50.385 90.2753 49.8359 88.9026C48.4632 86.1572 48.4632 82.8628 48.4632 79.8428C49.0123 76.8229 49.836 74.0775 50.9341 71.3321C52.0323 68.5867 52.8559 65.8413 53.6795 63.3704L54.2286 64.4686L47.9142 62.5467C45.7178 61.9977 43.7961 61.4486 41.8743 60.625C37.7562 59.2523 33.6381 57.605 29.7945 56.2323L23.7546 53.7615C21.8328 52.9379 19.911 52.1143 17.7147 51.0161C16.6166 50.467 15.7929 50.1925 14.9693 49.6434C14.1457 49.0943 13.0475 48.5452 12.2239 47.9961C11.4003 47.4471 10.3021 46.8979 9.47852 46.0743L7.8313 44.4271Z" fill="#5A3602"/>
<path d="M244.21 44.4264L241.739 46.6227C240.916 47.1717 240.092 47.9954 238.994 48.5445C238.17 49.0936 237.072 49.6426 236.248 50.1917C235.425 50.7407 234.327 51.2898 233.503 51.5644C231.581 52.6625 229.659 53.2116 227.463 54.3098L221.423 56.7807C217.58 58.4279 213.462 59.8006 209.343 61.1733C207.422 61.9969 205.225 62.546 203.304 63.0951L196.989 65.0169L197.538 63.9187C198.362 66.6641 199.185 69.4095 200.284 71.8804C201.382 74.6258 202.205 77.3711 202.754 80.3911C203.029 83.411 202.754 86.7056 201.382 89.451C200.833 90.8237 200.284 92.4709 199.46 93.5691C198.911 94.9418 197.813 96.0399 196.989 97.4126C196.166 98.7853 195.067 99.609 193.969 100.707C192.871 101.805 191.773 102.903 190.675 103.727C189.577 104.551 188.204 105.649 187.106 106.198C185.733 107.022 184.635 107.845 183.262 108.394C180.517 109.767 177.497 110.591 174.751 111.14C171.731 111.689 168.711 111.689 165.692 111.14C162.672 110.591 159.652 109.767 157.181 108.12C155.808 107.571 154.71 106.472 153.337 105.649C152.239 104.551 150.866 103.727 150.043 102.629C147.846 100.433 146.199 97.9617 144.826 95.2163C143.454 92.4709 142.356 89.7255 142.081 86.7056C141.807 85.3329 141.807 83.6856 141.532 82.3129C141.532 80.6657 141.532 79.2929 141.807 77.9202C142.081 74.9003 143.179 71.8803 144.277 69.4095C145.65 66.6641 147.023 64.1932 148.395 61.7224C148.945 60.3497 149.494 59.5261 149.219 58.1534C148.945 57.0552 148.396 55.6825 147.846 54.3098C147.023 52.388 146.474 50.1917 145.65 48.2699L143.179 42.23L140.983 36.1902C140.708 35.092 140.159 34.2684 139.61 33.1702L138.238 30.1502C137.414 28.2285 136.316 26.3067 135.492 24.3849L132.472 18.6195C130.55 14.7759 128.629 10.9324 126.707 7.08887L133.021 18.345L136.316 23.8358C137.414 25.7576 138.237 27.6793 139.336 29.6011L140.708 32.6211C141.257 33.4447 141.532 34.5429 142.081 35.641L144.552 41.681L147.023 47.7208C147.846 49.6426 148.67 51.8389 149.219 53.7607C149.768 55.1334 150.317 56.5061 150.866 57.8788C151.141 58.7024 151.141 59.5261 150.866 60.6242C150.592 61.4479 150.317 62.2714 150.043 62.8205C148.67 65.5659 147.297 68.0368 146.199 70.5077C145.101 72.9786 144.277 75.724 144.003 78.4694C143.728 79.8421 143.728 81.2148 144.003 82.5875C144.277 83.9602 144.277 85.3329 144.552 86.7056C145.101 89.451 145.925 91.9218 147.297 94.6672C148.67 97.1381 150.043 99.3344 151.965 101.256C152.788 102.354 153.886 103.178 154.984 104.002C156.083 104.825 157.181 105.649 158.553 106.198C161.024 107.571 163.495 108.394 166.241 108.943C168.986 109.492 171.731 109.218 174.477 108.943C177.222 108.394 179.968 107.571 182.439 106.472C183.811 105.923 184.909 105.374 186.008 104.551C187.106 104.002 188.204 102.903 189.302 102.08C190.4 101.256 191.498 100.158 192.322 99.3344C193.146 98.2363 194.244 97.4126 195.067 96.3145C195.891 95.2163 196.715 94.1181 197.538 92.7454C198.362 91.3727 198.911 90.2746 199.46 89.1764C200.558 86.7055 200.833 83.9602 200.558 81.2148C200.284 78.4694 199.46 75.724 198.362 73.2531C197.264 70.5077 196.44 67.7623 195.616 65.0169C195.616 64.4678 195.891 63.9187 196.166 63.9187L202.205 62.2715C204.127 61.7224 206.324 61.1733 208.245 60.3497L220.325 56.2316L226.365 54.0353C228.287 53.2117 230.483 52.6625 232.405 51.5644C233.503 51.0153 234.327 50.7407 235.425 50.1917C236.248 49.6426 237.347 49.368 238.17 48.8189C238.994 48.2699 240.092 47.7209 240.916 47.1718L244.21 44.4264Z" fill="#5A3602"/>
<path d="M100.826 90.3002C101.126 90.3002 101.326 90.3002 101.626 90.4002L101.726 89.9002C101.726 89.9002 101.026 89.7002 100.026 89.8002L99.9257 89.5002C100.226 89.4002 100.426 89.2002 100.426 88.9002C100.426 88.5002 100.126 88.2002 99.7257 88.2002C99.3257 88.2002 99.0257 88.5002 99.0257 88.9002C99.0257 89.2002 99.2257 89.5002 99.5257 89.5002L99.6257 89.8002C98.6257 89.9002 97.8257 90.3002 97.8257 90.3002L97.9257 90.7002C98.5257 90.5002 99.1257 90.4002 99.5257 90.3002C100.226 90.3002 100.526 90.3002 100.826 90.3002Z" fill="#4C4C4C"/>
<path d="M86.0161 148.5H79.0728V128.479H72.7974V122.801H92.2739V128.479H86.0161V148.5ZM118.195 135.615C118.195 139.939 117.134 143.227 115.013 145.477C112.892 147.727 109.786 148.852 105.697 148.852C101.665 148.852 98.5716 147.721 96.4153 145.459C94.2708 143.197 93.1985 139.904 93.1985 135.58C93.1985 131.303 94.2649 128.039 96.3978 125.789C98.5423 123.527 101.654 122.396 105.732 122.396C109.822 122.396 112.921 123.516 115.031 125.754C117.14 127.992 118.195 131.279 118.195 135.615ZM100.511 135.615C100.511 140.584 102.24 143.068 105.697 143.068C107.454 143.068 108.755 142.465 109.599 141.258C110.454 140.051 110.882 138.17 110.882 135.615C110.882 133.049 110.449 131.156 109.581 129.938C108.726 128.707 107.443 128.092 105.732 128.092C102.251 128.092 100.511 130.6 100.511 135.615ZM139.686 130.975C139.686 133.846 138.836 136.066 137.137 137.637C135.449 139.195 133.047 139.975 129.93 139.975H127.979V148.5H121.035V122.801H129.93C133.176 122.801 135.613 123.51 137.242 124.928C138.871 126.346 139.686 128.361 139.686 130.975ZM127.979 134.314H129.244C130.287 134.314 131.113 134.021 131.723 133.436C132.344 132.85 132.654 132.041 132.654 131.01C132.654 129.275 131.693 128.408 129.772 128.408H127.979V134.314ZM163.314 148.5H156.265V134.895C156.265 133.242 156.3 131.73 156.371 130.359C155.937 130.887 155.398 131.438 154.754 132.012L151.836 134.42L148.232 129.99L157.056 122.801H163.314V148.5ZM185.877 135.686C185.877 140.232 185.116 143.566 183.592 145.688C182.069 147.797 179.737 148.852 176.596 148.852C173.526 148.852 171.211 147.75 169.653 145.547C168.094 143.332 167.315 140.045 167.315 135.686C167.315 131.115 168.077 127.764 169.6 125.631C171.124 123.498 173.456 122.432 176.596 122.432C179.655 122.432 181.963 123.545 183.522 125.771C185.092 127.986 185.877 131.291 185.877 135.686ZM174.223 135.686C174.223 138.592 174.405 140.59 174.768 141.68C175.131 142.77 175.741 143.314 176.596 143.314C177.463 143.314 178.073 142.752 178.424 141.627C178.788 140.502 178.969 138.521 178.969 135.686C178.969 132.838 178.788 130.846 178.424 129.709C178.061 128.561 177.452 127.986 176.596 127.986C175.741 127.986 175.131 128.537 174.768 129.639C174.405 130.74 174.223 132.756 174.223 135.686Z" fill="url(#paint3_linear)"/>
<defs>
<linearGradient id="paint0_linear" x1="120.901" y1="185.5" x2="120.901" y2="272.5" gradientUnits="userSpaceOnUse">
<stop stop-color="#FFC700"/>
<stop offset="1" stop-color="#FC9517"/>
</linearGradient>
<linearGradient id="paint1_linear" x1="125.608" y1="0.5" x2="125.608" y2="168.519" gradientUnits="userSpaceOnUse">
<stop stop-color="#FFC700"/>
<stop offset="1" stop-color="#FC9517"/>
</linearGradient>
<linearGradient id="paint2_linear" x1="125.196" y1="163.577" x2="125.196" y2="179.5" gradientUnits="userSpaceOnUse">
<stop stop-color="#8F5A2D"/>
<stop offset="1" stop-color="#351B06"/>
</linearGradient>
<linearGradient id="paint3_linear" x1="129.901" y1="110.5" x2="129.901" y2="159.5" gradientUnits="userSpaceOnUse">
<stop stop-color="#8F5A2D"/>
<stop offset="1" stop-color="#351B06"/>
</linearGradient>
</defs>
</svg>
