<svg width="189" height="182" viewBox="0 0 189 182" fill="none" xmlns="http://www.w3.org/2000/svg">
<path d="M176.541 156.832L30.5802 181.789C22.5461 183.162 14.8469 177.713 13.4678 169.673C13.4678 169.673 -0.825105 21.8809 12.206 19.6476C12.206 19.6476 165.52 4.41113 167.748 17.4423L188.651 139.719C190.03 147.759 184.575 155.458 176.541 156.832Z" fill="#C8C8C8"/>
<path d="M168.267 162.074L20.8602 176.188C12.7423 176.964 5.46737 170.962 4.69131 162.844C4.69131 162.844 1.34699 14.3988 14.5065 13.137C14.5065 13.137 168.524 9.25671 169.786 22.4162L181.611 145.905C182.387 154.017 176.385 161.298 168.267 162.074Z" fill="#EDEDED"/>
<path d="M16.271 156.781L149.58 176.189C157.698 176.965 164.973 170.963 165.749 162.845C165.749 162.845 169.094 14.3995 155.934 13.1377C155.934 13.1377 24.0875 9.77101 22.8257 22.9305L8.97939 135.644C8.20333 143.762 8.15308 156 16.271 156.781Z" fill="#EDEDED"/>
<path d="M163.873 166.037H15.7909C7.63942 166.037 0.967529 159.366 0.967529 151.214V29.6796C0.967529 16.4586 11.7821 5.64404 25.0031 5.64404H154.656C167.876 5.64404 178.691 16.4586 178.691 29.6796V151.214C178.697 159.371 172.025 166.037 163.873 166.037Z" fill="white"/>
<path d="M178.697 47.3336H0.967529V29.6796C0.967529 16.4586 11.7821 5.64404 25.0031 5.64404H154.656C167.876 5.64404 178.691 16.4586 178.691 29.6796V47.3336H178.697Z" fill="url(#paint0_linear)"/>
<path d="M29.8887 17.7707C27.901 17.7707 26.2708 16.146 26.2708 14.1528V5.64404H33.501V14.1584C33.5065 16.146 31.8818 17.7707 29.8887 17.7707Z" fill="#BF3A37"/>
<path d="M72.6721 17.7707C70.6845 17.7707 69.0542 16.146 69.0542 14.1528V5.64404H76.2844V14.1584C76.29 16.146 74.6597 17.7707 72.6721 17.7707Z" fill="#BF3A37"/>
<path d="M112.687 17.7707C110.7 17.7707 109.069 16.146 109.069 14.1528V5.64404H116.3V14.1584C116.305 16.146 114.675 17.7707 112.687 17.7707Z" fill="#BF3A37"/>
<path d="M152.986 17.7713C150.999 17.7713 149.368 16.1466 149.368 14.1534C149.368 14.1534 149.368 6.26442 149.368 5.6391C149.368 5.06962 156.599 5.71727 156.599 5.71727V14.1534C156.599 16.1466 154.974 17.7713 152.986 17.7713Z" fill="#BF3A37"/>
<path d="M71.2483 16.5541C69.2607 16.5541 67.6304 14.9294 67.6304 12.9362V3.61789C67.6304 1.63029 69.2551 0 71.2483 0C73.2359 0 74.8662 1.6247 74.8662 3.61789V12.9362C74.8606 14.9294 73.2359 16.5541 71.2483 16.5541Z" fill="#EBEBEB"/>
<path d="M111.464 16.5541C109.476 16.5541 107.846 14.9294 107.846 12.9362V3.61789C107.846 1.63029 109.471 0 111.464 0C113.452 0 115.082 1.6247 115.082 3.61789V12.9362C115.076 14.9294 113.452 16.5541 111.464 16.5541Z" fill="#EBEBEB"/>
<path d="M151.68 16.5541C149.692 16.5541 148.062 14.9294 148.062 12.9362V3.61789C148.062 1.63029 149.686 0 151.68 0C153.667 0 155.298 1.6247 155.298 3.61789V12.9362C155.292 14.9294 153.667 16.5541 151.68 16.5541Z" fill="#EBEBEB"/>
<path d="M163.7 121.384L121.659 165.586C121.659 165.586 123.25 157.803 123.261 152.912C123.267 149.808 122.636 147.095 122.418 142.634C121.821 130.122 129.068 126.934 132.484 125.08C137.733 122.239 146.336 124.343 151.523 124.003C153.723 123.869 162.07 123.5 163.7 121.384Z" fill="#BABABA"/>
<path d="M43.0145 70.6606H19.3083V86.0311H43.0145V70.6606Z" fill="#EBEBEB"/>
<path d="M43.0145 98.0127H19.3083V113.383H43.0145V98.0127Z" fill="#EBEBEB"/>
<path d="M80.7457 98.0127H57.0396V113.383H80.7457V98.0127Z" fill="#EBEBEB"/>
<path d="M118.472 98.0127H94.7654V113.383H118.472V98.0127Z" fill="#EBEBEB"/>
<path d="M155.471 98.0127H131.765V113.383H155.471V98.0127Z" fill="#EBEBEB"/>
<path d="M43.0145 125.37H19.3083V140.741H43.0145V125.37Z" fill="#EBEBEB"/>
<path d="M80.7457 125.37H57.0396V140.741H80.7457V125.37Z" fill="#EBEBEB"/>
<path d="M118.472 125.37H94.7654V140.741H118.472V125.37Z" fill="#EBEBEB"/>
<path d="M80.7457 70.6606H57.0396V86.0311H80.7457V70.6606Z" fill="#EBEBEB"/>
<path d="M118.472 70.6606H94.7654V86.0311H118.472V70.6606Z" fill="#EBEBEB"/>
<path d="M156.196 70.6606H132.49V86.0311H156.196V70.6606Z" fill="#EBEBEB"/>
<path d="M28.4533 16.5541C26.4657 16.5541 24.8354 14.9294 24.8354 12.9362V3.61789C24.8354 1.63029 26.4602 0 28.4533 0C30.441 0 32.0712 1.6247 32.0712 3.61789V12.9362C32.0712 14.9294 30.4465 16.5541 28.4533 16.5541Z" fill="#EBEBEB"/>
<path d="M61.6414 129H47.9353V102.545C47.9353 99.332 48.0037 96.3926 48.1404 93.7266C47.2973 94.752 46.2491 95.8229 44.9958 96.9395L39.322 101.622L32.3152 93.0088L49.4734 79.0293H61.6414V129ZM87.6042 78.3115C92.8679 78.3115 96.9581 79.3711 99.8748 81.4902C102.814 83.6094 104.284 86.6172 104.284 90.5137C104.284 93.1569 103.589 95.4811 102.199 97.4863C100.832 99.4688 98.6557 101.201 95.6707 102.682C99.3621 104.778 101.96 106.874 103.464 108.971C104.99 111.044 105.754 113.289 105.754 115.704C105.754 120.147 104.147 123.588 100.934 126.026C97.7214 128.465 93.2325 129.684 87.4675 129.684C81.5886 129.684 77.0883 128.499 73.9666 126.129C70.8448 123.736 69.2839 120.307 69.2839 115.841C69.2839 112.947 69.9789 110.486 71.3689 108.458C72.7589 106.407 75.0945 104.55 78.3757 102.887C75.7325 101.109 73.7957 99.2067 72.5652 97.1787C71.3575 95.1279 70.7537 92.8835 70.7537 90.4453C70.7537 86.6172 72.2462 83.6436 75.2312 81.5244C78.2162 79.3825 82.3406 78.3115 87.6042 78.3115ZM81.657 115.294C81.657 116.707 82.1583 117.846 83.1609 118.712C84.1635 119.555 85.5535 119.977 87.3308 119.977C91.3412 119.977 93.3464 118.507 93.3464 115.567C93.3464 114.451 92.9021 113.357 92.0134 112.286C91.1475 111.192 89.5867 109.973 87.3308 108.629C85.3028 109.7 83.8445 110.782 82.9558 111.876C82.0899 112.947 81.657 114.086 81.657 115.294ZM87.5359 88.0527C86.3738 88.0527 85.394 88.3945 84.5964 89.0781C83.7989 89.7389 83.4001 90.6048 83.4001 91.6758C83.4001 93.6354 84.7332 95.3672 87.3992 96.8711C89.017 95.9368 90.1222 95.0824 90.7146 94.3076C91.307 93.5329 91.6033 92.6556 91.6033 91.6758C91.6033 90.582 91.2045 89.7048 90.407 89.0439C89.6095 88.3831 88.6524 88.0527 87.5359 88.0527ZM143.03 104.083C143.03 112.924 141.549 119.407 138.587 123.531C135.624 127.633 131.09 129.684 124.983 129.684C119.013 129.684 114.513 127.542 111.482 123.258C108.452 118.951 106.936 112.56 106.936 104.083C106.936 95.1963 108.417 88.6794 111.38 84.5322C114.342 80.3851 118.876 78.3115 124.983 78.3115C130.93 78.3115 135.419 80.4762 138.45 84.8057C141.503 89.1123 143.03 95.5381 143.03 104.083ZM120.369 104.083C120.369 109.734 120.722 113.619 121.428 115.738C122.135 117.857 123.32 118.917 124.983 118.917C126.669 118.917 127.854 117.823 128.538 115.636C129.244 113.448 129.597 109.597 129.597 104.083C129.597 98.5459 129.244 94.6722 128.538 92.4619C127.831 90.2288 126.647 89.1123 124.983 89.1123C123.32 89.1123 122.135 90.1833 121.428 92.3252C120.722 94.4671 120.369 98.3864 120.369 104.083Z" fill="url(#paint1_linear)"/>
<path d="M47.554 43H42.3464V27.9839H37.6399V23.7256H52.2473V27.9839H47.554V43ZM71.6878 33.3364C71.6878 36.5796 70.8924 39.0449 69.3016 40.7324C67.7108 42.4199 65.3817 43.2637 62.3143 43.2637C59.2909 43.2637 56.9706 42.4155 55.3534 40.7192C53.745 39.0229 52.9408 36.5532 52.9408 33.3101C52.9408 30.1021 53.7406 27.6543 55.3402 25.9668C56.9486 24.2705 59.2821 23.4224 62.3407 23.4224C65.4081 23.4224 67.7328 24.2617 69.3148 25.9404C70.8968 27.6191 71.6878 30.0845 71.6878 33.3364ZM58.4251 33.3364C58.4251 37.063 59.7215 38.9263 62.3143 38.9263C63.6327 38.9263 64.6083 38.4736 65.2411 37.5684C65.8827 36.6631 66.2035 35.2524 66.2035 33.3364C66.2035 31.4116 65.8783 29.9922 65.2279 29.0781C64.5863 28.1553 63.6239 27.6938 62.3407 27.6938C59.7303 27.6938 58.4251 29.5747 58.4251 33.3364ZM87.8061 29.856C87.8061 32.0093 87.1689 33.6748 85.8945 34.8525C84.6289 36.0215 82.8271 36.606 80.4892 36.606H79.0258V43H73.8183V23.7256H80.4892C82.9238 23.7256 84.7519 24.2573 85.9736 25.3208C87.1953 26.3843 87.8061 27.896 87.8061 29.856ZM79.0258 32.3608H79.975C80.7573 32.3608 81.3769 32.1411 81.8339 31.7017C82.2998 31.2622 82.5327 30.6558 82.5327 29.8823C82.5327 28.5815 81.812 27.9312 80.3706 27.9312H79.0258V32.3608ZM105.527 43H100.241V32.7959C100.241 31.5566 100.267 30.4229 100.32 29.3945C99.9948 29.79 99.5905 30.2031 99.1071 30.6338L96.9186 32.4399L94.216 29.1177L100.834 23.7256H105.527V43ZM122.45 33.3892C122.45 36.7993 121.879 39.2998 120.736 40.8906C119.594 42.4727 117.844 43.2637 115.489 43.2637C113.186 43.2637 111.45 42.4375 110.281 40.7852C109.113 39.124 108.528 36.6587 108.528 33.3892C108.528 29.9614 109.099 27.4478 110.242 25.8481C111.385 24.2485 113.134 23.4487 115.489 23.4487C117.783 23.4487 119.514 24.2837 120.683 25.9536C121.861 27.6147 122.45 30.0933 122.45 33.3892ZM113.709 33.3892C113.709 35.5688 113.845 37.0674 114.118 37.8848C114.39 38.7021 114.847 39.1108 115.489 39.1108C116.139 39.1108 116.596 38.689 116.86 37.8452C117.133 37.0015 117.269 35.5161 117.269 33.3892C117.269 31.2534 117.133 29.7593 116.86 28.9067C116.588 28.0454 116.131 27.6147 115.489 27.6147C114.847 27.6147 114.39 28.0278 114.118 28.854C113.845 29.6802 113.709 31.1919 113.709 33.3892ZM136.92 33.3892C136.92 36.7993 136.349 39.2998 135.206 40.8906C134.064 42.4727 132.315 43.2637 129.959 43.2637C127.657 43.2637 125.921 42.4375 124.752 40.7852C123.583 39.124 122.998 36.6587 122.998 33.3892C122.998 29.9614 123.57 27.4478 124.712 25.8481C125.855 24.2485 127.604 23.4487 129.959 23.4487C132.253 23.4487 133.985 24.2837 135.154 25.9536C136.331 27.6147 136.92 30.0933 136.92 33.3892ZM128.18 33.3892C128.18 35.5688 128.316 37.0674 128.588 37.8848C128.861 38.7021 129.318 39.1108 129.959 39.1108C130.61 39.1108 131.067 38.689 131.33 37.8452C131.603 37.0015 131.739 35.5161 131.739 33.3892C131.739 31.2534 131.603 29.7593 131.33 28.9067C131.058 28.0454 130.601 27.6147 129.959 27.6147C129.318 27.6147 128.861 28.0278 128.588 28.854C128.316 29.6802 128.18 31.1919 128.18 33.3892Z" fill="#EEEBE8"/>
<path d="M177.63 118.604L121.664 165.592C121.664 165.592 124.444 156.659 124.997 150.931C125.343 147.29 124.869 144.047 125.092 138.798C125.728 124.07 134.89 121.167 139.256 119.386C145.951 116.656 156.19 120.1 162.538 120.296C165.218 120.374 175.407 120.899 177.63 118.604Z" fill="#E7E6E6"/>
<defs>
<linearGradient id="paint0_linear" x1="89.8321" y1="5.64404" x2="89.8321" y2="47.3336" gradientUnits="userSpaceOnUse">
<stop stop-color="#FF1D1D"/>
<stop offset="1" stop-color="#FF4172"/>
</linearGradient>
<linearGradient id="paint1_linear" x1="87.4675" y1="54" x2="87.4675" y2="149" gradientUnits="userSpaceOnUse">
<stop stop-color="#FFC700"/>
<stop offset="1" stop-color="#FF4070"/>
</linearGradient>
</defs>
</svg>
