<svg width="189" height="182" viewBox="0 0 189 182" fill="none" xmlns="http://www.w3.org/2000/svg">
<path d="M176.231 156.832L30.2704 181.789C22.2362 183.162 14.537 177.713 13.158 169.673C13.158 169.673 -1.13492 21.8809 11.8962 19.6476C11.8962 19.6476 165.21 4.41113 167.438 17.4423L188.341 139.719C189.72 147.759 184.265 155.458 176.231 156.832Z" fill="#C8C8C8"/>
<path d="M167.957 162.074L20.5504 176.188C12.4324 176.964 5.15756 170.962 4.3815 162.844C4.3815 162.844 1.03718 14.3988 14.1967 13.137C14.1967 13.137 168.214 9.25671 169.476 22.4162L181.301 145.905C182.077 154.017 176.075 161.298 167.957 162.074Z" fill="#EDEDED"/>
<path d="M15.9612 156.781L149.271 176.189C157.389 176.965 164.663 170.963 165.439 162.845C165.439 162.845 168.784 14.3995 155.624 13.1377C155.624 13.1377 23.7776 9.77101 22.5158 22.9305L8.66957 135.644C7.89351 143.762 7.84326 156 15.9612 156.781Z" fill="#EDEDED"/>
<path d="M163.563 166.037H15.481C7.32961 166.037 0.657715 159.366 0.657715 151.214V29.6796C0.657715 16.4586 11.4723 5.64404 24.6933 5.64404H154.346C167.567 5.64404 178.381 16.4586 178.381 29.6796V151.214C178.387 159.371 171.715 166.037 163.563 166.037Z" fill="white"/>
<path d="M178.387 47.3336H0.657715V29.6796C0.657715 16.4586 11.4723 5.64404 24.6933 5.64404H154.346C167.567 5.64404 178.381 16.4586 178.381 29.6796V47.3336H178.387Z" fill="url(#paint0_linear)"/>
<path d="M29.5788 17.7707C27.5912 17.7707 25.9609 16.146 25.9609 14.1528V5.64404H33.1911V14.1584C33.1967 16.146 31.572 17.7707 29.5788 17.7707Z" fill="#BF3A37"/>
<path d="M72.3623 17.7707C70.3747 17.7707 68.7444 16.146 68.7444 14.1528V5.64404H75.9746V14.1584C75.9802 16.146 74.3499 17.7707 72.3623 17.7707Z" fill="#BF3A37"/>
<path d="M112.378 17.7707C110.39 17.7707 108.76 16.146 108.76 14.1528V5.64404H115.99V14.1584C115.996 16.146 114.365 17.7707 112.378 17.7707Z" fill="#BF3A37"/>
<path d="M152.676 17.7713C150.689 17.7713 149.059 16.1466 149.059 14.1534C149.059 14.1534 149.059 6.26442 149.059 5.6391C149.059 5.06962 156.289 5.71727 156.289 5.71727V14.1534C156.289 16.1466 154.664 17.7713 152.676 17.7713Z" fill="#BF3A37"/>
<path d="M70.9385 16.5541C68.9508 16.5541 67.3206 14.9294 67.3206 12.9362V3.61789C67.3206 1.63029 68.9453 0 70.9385 0C72.9261 0 74.5564 1.6247 74.5564 3.61789V12.9362C74.5508 14.9294 72.9261 16.5541 70.9385 16.5541Z" fill="#EBEBEB"/>
<path d="M111.154 16.5541C109.166 16.5541 107.536 14.9294 107.536 12.9362V3.61789C107.536 1.63029 109.161 0 111.154 0C113.142 0 114.772 1.6247 114.772 3.61789V12.9362C114.766 14.9294 113.142 16.5541 111.154 16.5541Z" fill="#EBEBEB"/>
<path d="M151.37 16.5541C149.382 16.5541 147.752 14.9294 147.752 12.9362V3.61789C147.752 1.63029 149.377 0 151.37 0C153.357 0 154.988 1.6247 154.988 3.61789V12.9362C154.982 14.9294 153.357 16.5541 151.37 16.5541Z" fill="#EBEBEB"/>
<path d="M163.39 121.384L121.349 165.586C121.349 165.586 122.94 157.803 122.951 152.912C122.957 149.808 122.326 147.095 122.108 142.634C121.511 130.122 128.758 126.934 132.174 125.08C137.423 122.239 146.026 124.343 151.213 124.003C153.413 123.869 161.76 123.5 163.39 121.384Z" fill="#BABABA"/>
<path d="M42.7047 70.6606H18.9985V86.0311H42.7047V70.6606Z" fill="#EBEBEB"/>
<path d="M42.7047 98.0127H18.9985V113.383H42.7047V98.0127Z" fill="#EBEBEB"/>
<path d="M80.4359 98.0127H56.7297V113.383H80.4359V98.0127Z" fill="#EBEBEB"/>
<path d="M118.162 98.0127H94.4556V113.383H118.162V98.0127Z" fill="#EBEBEB"/>
<path d="M155.161 98.0127H131.455V113.383H155.161V98.0127Z" fill="#EBEBEB"/>
<path d="M42.7047 125.37H18.9985V140.741H42.7047V125.37Z" fill="#EBEBEB"/>
<path d="M80.4359 125.37H56.7297V140.741H80.4359V125.37Z" fill="#EBEBEB"/>
<path d="M118.162 125.37H94.4556V140.741H118.162V125.37Z" fill="#EBEBEB"/>
<path d="M80.4359 70.6606H56.7297V86.0311H80.4359V70.6606Z" fill="#EBEBEB"/>
<path d="M118.162 70.6606H94.4556V86.0311H118.162V70.6606Z" fill="#EBEBEB"/>
<path d="M155.886 70.6606H132.18V86.0311H155.886V70.6606Z" fill="#EBEBEB"/>
<path d="M28.1435 16.5541C26.1559 16.5541 24.5256 14.9294 24.5256 12.9362V3.61789C24.5256 1.63029 26.1503 0 28.1435 0C30.1311 0 31.7614 1.6247 31.7614 3.61789V12.9362C31.7614 14.9294 30.1367 16.5541 28.1435 16.5541Z" fill="#EBEBEB"/>
<path d="M38.4126 121H12.5093V114.652L21.2251 105.839C23.7153 103.235 25.3429 101.461 26.1079 100.517C26.8729 99.5563 27.4019 98.7344 27.6948 98.0508C28.0041 97.3672 28.1587 96.651 28.1587 95.9023C28.1587 94.9746 27.8576 94.2422 27.2554 93.7051C26.6532 93.168 25.8068 92.8994 24.7163 92.8994C23.5933 92.8994 22.4539 93.2249 21.2983 93.876C20.159 94.5107 18.8651 95.4548 17.4165 96.708L12.1187 90.5068C13.9578 88.863 15.5041 87.6911 16.7573 86.9912C18.0106 86.2751 19.3696 85.7298 20.8345 85.3555C22.3156 84.9811 23.9757 84.7939 25.8149 84.7939C28.1261 84.7939 30.1851 85.2008 31.9917 86.0146C33.8146 86.8285 35.2225 87.9922 36.2153 89.5059C37.2244 91.0033 37.729 92.6878 37.729 94.5596C37.729 95.9593 37.55 97.2533 37.1919 98.4414C36.8501 99.6296 36.313 100.801 35.5806 101.957C34.8481 103.096 33.8716 104.301 32.6509 105.57C31.4465 106.84 28.8667 109.249 24.9116 112.797V113.041H38.4126V121ZM66.4937 100.102H81.8989V119.34C77.716 120.772 73.118 121.488 68.105 121.488C62.6037 121.488 58.3475 119.893 55.3364 116.703C52.3416 113.513 50.8442 108.964 50.8442 103.056C50.8442 97.2939 52.4881 92.8099 55.7759 89.6035C59.0636 86.3971 63.6698 84.7939 69.5942 84.7939C71.8403 84.7939 73.9562 85.0055 75.9419 85.4287C77.9438 85.8519 79.6854 86.389 81.1665 87.04L78.1147 94.6084C75.5431 93.3389 72.7192 92.7041 69.6431 92.7041C66.8273 92.7041 64.6463 93.6237 63.1001 95.4629C61.5701 97.2858 60.8052 99.8981 60.8052 103.3C60.8052 106.636 61.4969 109.184 62.8804 110.941C64.2801 112.683 66.2902 113.554 68.9106 113.554C70.3429 113.554 71.6613 113.415 72.8657 113.139V107.548H66.4937V100.102ZM108.574 121L106.816 114.311H95.2192L93.4126 121H82.8169L94.4624 85.1602H107.329L119.121 121H108.574ZM104.814 106.4L103.276 100.541C102.918 99.2389 102.478 97.5544 101.958 95.4873C101.453 93.4202 101.119 91.9391 100.957 91.0439C100.81 91.874 100.517 93.2412 100.078 95.1455C99.6545 97.0498 98.7023 100.801 97.2212 106.4H104.814ZM150.8 102.396C150.8 108.354 149.156 112.943 145.869 116.166C142.597 119.389 137.991 121 132.05 121H120.502V85.3066H132.856C138.585 85.3066 143.004 86.7715 146.113 89.7012C149.238 92.6309 150.8 96.8626 150.8 102.396ZM140.791 102.738C140.791 99.4668 140.139 97.0417 138.837 95.4629C137.552 93.8841 135.59 93.0947 132.954 93.0947H130.146V113.09H132.294C135.224 113.09 137.373 112.243 138.74 110.551C140.107 108.842 140.791 106.238 140.791 102.738ZM154.721 121V85.3066H164.414V121H154.721Z" fill="url(#paint1_linear)"/>
<path d="M47.2441 43H42.0366V27.9839H37.3301V23.7256H51.9375V27.9839H47.2441V43ZM71.378 33.3364C71.378 36.5796 70.5826 39.0449 68.9918 40.7324C67.401 42.4199 65.0719 43.2637 62.0045 43.2637C58.9811 43.2637 56.6607 42.4155 55.0436 40.7192C53.4352 39.0229 52.631 36.5532 52.631 33.3101C52.631 30.1021 53.4308 27.6543 55.0304 25.9668C56.6388 24.2705 58.9723 23.4224 62.0309 23.4224C65.0982 23.4224 67.4229 24.2617 69.005 25.9404C70.587 27.6191 71.378 30.0845 71.378 33.3364ZM58.1153 33.3364C58.1153 37.063 59.4117 38.9263 62.0045 38.9263C63.3229 38.9263 64.2984 38.4736 64.9312 37.5684C65.5729 36.6631 65.8937 35.2524 65.8937 33.3364C65.8937 31.4116 65.5685 29.9922 64.9181 29.0781C64.2765 28.1553 63.3141 27.6938 62.0309 27.6938C59.4205 27.6938 58.1153 29.5747 58.1153 33.3364ZM87.4963 29.856C87.4963 32.0093 86.8591 33.6748 85.5847 34.8525C84.319 36.0215 82.5173 36.606 80.1794 36.606H78.716V43H73.5085V23.7256H80.1794C82.614 23.7256 84.4421 24.2573 85.6638 25.3208C86.8854 26.3843 87.4963 27.896 87.4963 29.856ZM78.716 32.3608H79.6652C80.4475 32.3608 81.0671 32.1411 81.5241 31.7017C81.9899 31.2622 82.2229 30.6558 82.2229 29.8823C82.2229 28.5815 81.5021 27.9312 80.0607 27.9312H78.716V32.3608ZM105.218 43H99.9311V32.7959C99.9311 31.5566 99.9574 30.4229 100.01 29.3945C99.685 29.79 99.2807 30.2031 98.7973 30.6338L96.6088 32.4399L93.9062 29.1177L100.524 23.7256H105.218V43ZM122.14 33.3892C122.14 36.7993 121.569 39.2998 120.426 40.8906C119.284 42.4727 117.535 43.2637 115.179 43.2637C112.876 43.2637 111.141 42.4375 109.972 40.7852C108.803 39.124 108.218 36.6587 108.218 33.3892C108.218 29.9614 108.79 27.4478 109.932 25.8481C111.075 24.2485 112.824 23.4487 115.179 23.4487C117.473 23.4487 119.205 24.2837 120.374 25.9536C121.551 27.6147 122.14 30.0933 122.14 33.3892ZM113.399 33.3892C113.399 35.5688 113.536 37.0674 113.808 37.8848C114.081 38.7021 114.538 39.1108 115.179 39.1108C115.83 39.1108 116.287 38.689 116.55 37.8452C116.823 37.0015 116.959 35.5161 116.959 33.3892C116.959 31.2534 116.823 29.7593 116.55 28.9067C116.278 28.0454 115.821 27.6147 115.179 27.6147C114.538 27.6147 114.081 28.0278 113.808 28.854C113.536 29.6802 113.399 31.1919 113.399 33.3892ZM136.61 33.3892C136.61 36.7993 136.039 39.2998 134.897 40.8906C133.754 42.4727 132.005 43.2637 129.65 43.2637C127.347 43.2637 125.611 42.4375 124.442 40.7852C123.273 39.124 122.689 36.6587 122.689 33.3892C122.689 29.9614 123.26 27.4478 124.402 25.8481C125.545 24.2485 127.294 23.4487 129.65 23.4487C131.943 23.4487 133.675 24.2837 134.844 25.9536C136.022 27.6147 136.61 30.0933 136.61 33.3892ZM127.87 33.3892C127.87 35.5688 128.006 37.0674 128.278 37.8848C128.551 38.7021 129.008 39.1108 129.65 39.1108C130.3 39.1108 130.757 38.689 131.021 37.8452C131.293 37.0015 131.429 35.5161 131.429 33.3892C131.429 31.2534 131.293 29.7593 131.021 28.9067C130.748 28.0454 130.291 27.6147 129.65 27.6147C129.008 27.6147 128.551 28.0278 128.278 28.854C128.006 29.6802 127.87 31.1919 127.87 33.3892Z" fill="#EEEBE8"/>
<path d="M177.32 118.604L121.354 165.592C121.354 165.592 124.134 156.659 124.687 150.931C125.033 147.29 124.559 144.047 124.782 138.798C125.419 124.07 134.581 121.167 138.947 119.386C145.641 116.656 155.88 120.1 162.228 120.296C164.908 120.374 175.098 120.899 177.32 118.604Z" fill="#E7E6E6"/>
<defs>
<linearGradient id="paint0_linear" x1="89.5223" y1="5.64404" x2="89.5223" y2="47.3336" gradientUnits="userSpaceOnUse">
<stop stop-color="#FF1D1D"/>
<stop offset="1" stop-color="#FF4172"/>
</linearGradient>
<linearGradient id="paint1_linear" x1="89.6577" y1="68" x2="89.6577" y2="136" gradientUnits="userSpaceOnUse">
<stop stop-color="#FFC700"/>
<stop offset="1" stop-color="#FF4070"/>
</linearGradient>
</defs>
</svg>
