<svg width="250" height="273" viewBox="0 0 250 273" fill="none" xmlns="http://www.w3.org/2000/svg">
<path d="M104.995 223.562C107.62 223.562 109.984 224.177 112.088 225.406C114.213 226.615 115.859 228.333 117.026 230.562C118.213 232.792 118.807 235.365 118.807 238.281C118.807 243.385 117.265 247.302 114.182 250.031C111.12 252.76 106.474 254.125 100.245 254.125C94.9112 254.125 90.557 253.302 87.182 251.656V241.531C88.9945 242.365 91.0362 243.052 93.307 243.594C95.5987 244.135 97.5674 244.406 99.2133 244.406C101.505 244.406 103.265 243.927 104.495 242.969C105.724 241.99 106.338 240.552 106.338 238.656C106.338 236.906 105.713 235.542 104.463 234.562C103.213 233.583 101.317 233.094 98.7758 233.094C96.8383 233.094 94.7445 233.458 92.4945 234.188L87.9633 231.938L89.682 207.812H115.745V218.094H100.182L99.6195 224.125C101.245 223.812 102.401 223.646 103.088 223.625C103.776 223.583 104.411 223.562 104.995 223.562ZM153.795 230.719C153.795 238.802 152.44 244.729 149.732 248.5C147.024 252.25 142.878 254.125 137.295 254.125C131.836 254.125 127.722 252.167 124.951 248.25C122.18 244.312 120.795 238.469 120.795 230.719C120.795 222.594 122.149 216.635 124.857 212.844C127.565 209.052 131.711 207.156 137.295 207.156C142.732 207.156 146.836 209.135 149.607 213.094C152.399 217.031 153.795 222.906 153.795 230.719ZM133.076 230.719C133.076 235.885 133.399 239.438 134.045 241.375C134.69 243.312 135.774 244.281 137.295 244.281C138.836 244.281 139.92 243.281 140.545 241.281C141.19 239.281 141.513 235.76 141.513 230.719C141.513 225.656 141.19 222.115 140.545 220.094C139.899 218.052 138.815 217.031 137.295 217.031C135.774 217.031 134.69 218.01 134.045 219.969C133.399 221.927 133.076 225.51 133.076 230.719Z" fill="url(#paint0_linear)"/>
<path d="M119.635 5.16714C103.712 21.9141 93.2796 64.1933 93.2796 64.1933C111.125 72.7041 104.261 95.491 88.8869 102.08C77.3562 107.022 59.5111 97.6872 57.3148 85.0584C55.6675 75.724 60.6093 68.5859 66.6492 62.5461C66.6492 62.5461 11.192 44.7009 2.95583 36.7393C2.95583 36.7393 -1.43682 35.3666 0.759501 42.5046C2.95582 49.9172 43.8623 166.322 43.8623 166.322L116.341 168.519H133.363L205.841 166.322C205.841 166.322 246.748 49.6427 248.944 42.5046C251.14 35.0921 246.748 36.7393 246.748 36.7393C238.237 44.7009 183.054 62.5461 183.054 62.5461C189.369 68.8605 194.036 75.9986 192.389 85.0584C190.192 97.6872 172.347 107.022 160.817 102.08C145.442 95.491 138.579 72.4295 156.424 64.1933C156.424 64.1933 146.266 21.9141 130.068 5.16714L124.852 0.5L119.635 5.16714Z" fill="url(#paint1_linear)"/>
<path d="M211.881 171.538C211.881 175.931 208.311 179.5 203.919 179.5H44.9599C40.5673 179.5 36.9983 175.931 36.9983 171.538C36.9983 167.146 40.5673 163.577 44.9599 163.577H203.919C208.311 163.851 211.881 167.146 211.881 171.538Z" fill="url(#paint2_linear)"/>
<path d="M7.07495 44.4271L9.5458 46.3489C10.3694 46.898 11.4676 47.4471 12.2912 47.9961C13.1148 48.5452 14.213 49.0943 15.0366 49.3688C15.8602 49.9179 16.9584 50.1925 18.0566 50.7415C19.9783 51.5652 21.9001 52.3888 24.0964 53.2124L30.1363 55.4088L42.2161 59.5269C44.1379 60.3505 46.3342 60.625 48.256 61.4486L54.2959 63.0959C54.845 63.0959 55.1195 63.6449 54.8449 64.194C54.0213 66.9394 53.1977 69.9593 52.0995 72.4302C51.0014 75.1756 50.4523 77.921 49.9032 80.3919C49.6287 83.1373 49.9032 85.8827 51.0014 88.3536C51.5505 89.7263 52.0996 90.8244 52.9232 91.9226C53.7468 93.2953 54.5704 94.3934 55.394 95.4916C56.2176 96.5897 57.3158 97.6879 58.1394 98.5115C59.2376 99.3352 60.0612 100.433 61.1594 101.257C62.2575 102.081 63.3557 102.904 64.4539 103.728C65.552 104.551 66.9247 105.101 68.0229 105.65C70.4938 106.748 73.2391 107.571 75.9845 108.12C78.7299 108.395 81.4753 108.67 84.2207 108.12C86.9662 107.571 89.437 106.748 91.9079 105.375C93.2806 104.826 94.1042 104.002 95.4769 103.179C96.5751 102.355 97.6732 101.532 98.4968 100.433C100.419 98.5116 102.066 96.0407 103.164 93.8444C104.262 91.3735 105.36 88.6281 105.909 85.8827C106.184 84.51 106.184 83.1373 106.459 81.7646C106.459 80.3919 106.459 79.0192 106.459 77.6465C106.184 74.9011 105.36 72.1557 104.262 69.6848C103.164 67.2139 101.791 64.7431 100.419 61.9977C100.144 61.4486 99.8696 60.625 99.595 59.8013C99.3205 58.9777 99.3205 57.8796 99.595 57.3305C99.8696 55.6832 100.693 54.5851 101.242 53.2124C102.066 51.2906 102.615 49.0943 103.439 47.1725L105.909 41.1326L108.38 35.0927C108.655 33.9945 109.204 33.171 109.753 32.0728L111.126 29.0529C112.224 27.1311 113.048 25.2093 114.146 23.2875L117.44 17.7967L123.755 6.54053C121.833 10.3841 119.911 14.2277 117.989 18.0713L114.969 23.8366C113.871 25.7584 113.047 27.6801 112.224 29.6019L110.851 32.6219C110.302 33.4455 110.028 34.5437 109.478 35.6418L107.282 41.6817L104.811 47.7216C103.988 49.6434 103.439 51.8397 102.615 53.7615C102.066 55.1342 101.517 56.5069 101.242 57.605C100.968 58.7032 101.517 59.8013 102.066 61.174C103.439 63.6449 104.811 66.1158 106.184 68.8612C107.557 71.6066 108.38 74.352 108.655 77.372C108.929 79.0192 108.929 80.3919 108.929 81.7646C108.655 83.1373 108.655 84.7845 108.38 86.1572C107.831 89.1772 106.733 91.9226 105.635 94.668C104.262 97.4134 102.615 99.8843 100.419 102.081C99.3205 103.179 98.2223 104.002 97.1241 105.1C95.7514 105.924 94.6533 107.022 93.2806 107.571C90.5352 109.219 87.7898 110.042 84.7698 110.591C81.7499 111.14 78.73 111.14 75.71 110.591C72.9646 110.042 69.9447 109.219 67.1993 107.846C65.8266 107.297 64.4539 106.473 63.3557 105.65C61.983 104.826 60.8848 104.002 59.7867 103.179C58.6885 102.355 57.5904 101.257 56.4922 100.159C55.394 99.0606 54.5704 97.9624 53.4722 96.8643C52.6486 95.7661 51.5505 94.3934 51.0014 93.0207C50.1778 91.9226 49.6287 90.2753 49.0796 88.9026C47.7069 86.1572 47.7069 82.8628 47.7069 79.8428C48.256 76.8229 49.0796 74.0775 50.1778 71.3321C51.2759 68.5867 52.0996 65.8413 52.9232 63.3704L53.4722 64.4686L47.1578 62.5467C44.9615 61.9977 43.0397 61.4486 41.1179 60.625C36.9998 59.2523 32.8817 57.605 29.0382 56.2323L22.9983 53.7615C21.0765 52.9379 19.1547 52.1143 16.9584 51.0161C15.8602 50.467 15.0366 50.1925 14.213 49.6434C13.3894 49.0943 12.2912 48.5452 11.4676 47.9961C10.6439 47.4471 9.54579 46.8979 8.72217 46.0743L7.07495 44.4271Z" fill="#5A3602"/>
<path d="M243.454 44.4264L240.983 46.6227C240.159 47.1717 239.336 47.9954 238.237 48.5445C237.414 49.0936 236.316 49.6426 235.492 50.1917C234.668 50.7407 233.57 51.2898 232.747 51.5644C230.825 52.6625 228.903 53.2116 226.707 54.3098L220.667 56.7807C216.823 58.4279 212.705 59.8006 208.587 61.1733C206.665 61.9969 204.469 62.546 202.547 63.0951L196.233 65.0169L196.782 63.9187C197.606 66.6641 198.429 69.4095 199.527 71.8804C200.625 74.6258 201.449 77.3711 201.998 80.3911C202.273 83.411 201.998 86.7056 200.625 89.451C200.076 90.8237 199.527 92.4709 198.704 93.5691C198.155 94.9418 197.056 96.0399 196.233 97.4126C195.409 98.7853 194.311 99.609 193.213 100.707C192.115 101.805 191.017 102.903 189.918 103.727C188.82 104.551 187.447 105.649 186.349 106.198C184.977 107.022 183.878 107.845 182.506 108.394C179.76 109.767 176.74 110.591 173.995 111.14C170.975 111.689 167.955 111.689 164.935 111.14C161.915 110.591 158.895 109.767 156.424 108.12C155.052 107.571 153.954 106.472 152.581 105.649C151.483 104.551 150.11 103.727 149.286 102.629C147.09 100.433 145.443 97.9617 144.07 95.2163C142.697 92.4709 141.599 89.7255 141.325 86.7056C141.05 85.3329 141.05 83.6856 140.776 82.3129C140.776 80.6657 140.776 79.2929 141.05 77.9202C141.325 74.9003 142.423 71.8803 143.521 69.4095C144.894 66.6641 146.266 64.1932 147.639 61.7224C148.188 60.3497 148.737 59.5261 148.463 58.1534C148.188 57.0552 147.639 55.6825 147.09 54.3098C146.266 52.388 145.717 50.1917 144.894 48.2699L142.423 42.23L140.227 36.1902C139.952 35.092 139.403 34.2684 138.854 33.1702L137.481 30.1502C136.658 28.2285 135.559 26.3067 134.736 24.3849L131.716 18.6195C129.794 14.7759 127.872 10.9324 125.95 7.08887L132.265 18.345L135.559 23.8358C136.658 25.7576 137.481 27.6793 138.579 29.6011L139.952 32.6211C140.501 33.4447 140.776 34.5429 141.325 35.641L143.796 41.681L146.266 47.7208C147.09 49.6426 147.914 51.8389 148.463 53.7607C149.012 55.1334 149.561 56.5061 150.11 57.8788C150.385 58.7024 150.385 59.5261 150.11 60.6242C149.835 61.4479 149.561 62.2714 149.286 62.8205C147.914 65.5659 146.541 68.0368 145.443 70.5077C144.345 72.9786 143.521 75.724 143.247 78.4694C142.972 79.8421 142.972 81.2148 143.247 82.5875C143.521 83.9602 143.521 85.3329 143.796 86.7056C144.345 89.451 145.168 91.9218 146.541 94.6672C147.914 97.1381 149.286 99.3344 151.208 101.256C152.032 102.354 153.13 103.178 154.228 104.002C155.326 104.825 156.424 105.649 157.797 106.198C160.268 107.571 162.739 108.394 165.484 108.943C168.23 109.492 170.975 109.218 173.72 108.943C176.466 108.394 179.211 107.571 181.682 106.472C183.055 105.923 184.153 105.374 185.251 104.551C186.349 104.002 187.448 102.903 188.546 102.08C189.644 101.256 190.742 100.158 191.566 99.3344C192.389 98.2363 193.487 97.4126 194.311 96.3145C195.135 95.2163 195.958 94.1181 196.782 92.7454C197.606 91.3727 198.155 90.2746 198.704 89.1764C199.802 86.7055 200.076 83.9602 199.802 81.2148C199.527 78.4694 198.704 75.724 197.605 73.2531C196.507 70.5077 195.684 67.7623 194.86 65.0169C194.86 64.4678 195.135 63.9187 195.409 63.9187L201.449 62.2715C203.371 61.7224 205.567 61.1733 207.489 60.3497L219.569 56.2316L225.609 54.0353C227.53 53.2117 229.727 52.6625 231.648 51.5644C232.747 51.0153 233.57 50.7407 234.668 50.1917C235.492 49.6426 236.59 49.368 237.414 48.8189C238.237 48.2699 239.336 47.7209 240.159 47.1718L243.454 44.4264Z" fill="#5A3602"/>
<path d="M100.069 90.3002C100.369 90.3002 100.569 90.3002 100.869 90.4002L100.969 89.9002C100.969 89.9002 100.269 89.7002 99.2693 89.8002L99.1693 89.5002C99.4693 89.4002 99.6693 89.2002 99.6693 88.9002C99.6693 88.5002 99.3693 88.2002 98.9693 88.2002C98.5693 88.2002 98.2693 88.5002 98.2693 88.9002C98.2693 89.2002 98.4693 89.5002 98.7693 89.5002L98.8693 89.8002C97.8693 89.9002 97.0693 90.3002 97.0693 90.3002L97.1693 90.7002C97.7693 90.5002 98.3693 90.4002 98.7693 90.3002C99.4693 90.3002 99.7693 90.3002 100.069 90.3002Z" fill="#4C4C4C"/>
<path d="M85.2598 148.5H78.3164V128.479H72.041V122.801H91.5176V128.479H85.2598V148.5ZM117.438 135.615C117.438 139.939 116.378 143.227 114.257 145.477C112.136 147.727 109.03 148.852 104.94 148.852C100.909 148.852 97.8152 147.721 95.659 145.459C93.5145 143.197 92.4422 139.904 92.4422 135.58C92.4422 131.303 93.5086 128.039 95.6414 125.789C97.7859 123.527 100.897 122.396 104.975 122.396C109.065 122.396 112.165 123.516 114.274 125.754C116.384 127.992 117.438 131.279 117.438 135.615ZM99.7547 135.615C99.7547 140.584 101.483 143.068 104.94 143.068C106.698 143.068 107.999 142.465 108.843 141.258C109.698 140.051 110.126 138.17 110.126 135.615C110.126 133.049 109.692 131.156 108.825 129.938C107.97 128.707 106.686 128.092 104.975 128.092C101.495 128.092 99.7547 130.6 99.7547 135.615ZM138.929 130.975C138.929 133.846 138.08 136.066 136.38 137.637C134.693 139.195 132.291 139.975 129.173 139.975H127.222V148.5H120.279V122.801H129.173C132.42 122.801 134.857 123.51 136.486 124.928C138.115 126.346 138.929 128.361 138.929 130.975ZM127.222 134.314H128.488C129.531 134.314 130.357 134.021 130.966 133.436C131.588 132.85 131.898 132.041 131.898 131.01C131.898 129.275 130.937 128.408 129.015 128.408H127.222V134.314ZM162.558 148.5H155.509V134.895C155.509 133.242 155.544 131.73 155.614 130.359C155.181 130.887 154.642 131.438 153.997 132.012L151.079 134.42L147.476 129.99L156.3 122.801H162.558V148.5ZM185.121 135.686C185.121 140.232 184.359 143.566 182.836 145.688C181.312 147.797 178.98 148.852 175.84 148.852C172.77 148.852 170.455 147.75 168.896 145.547C167.338 143.332 166.559 140.045 166.559 135.686C166.559 131.115 167.32 127.764 168.844 125.631C170.367 123.498 172.699 122.432 175.84 122.432C178.898 122.432 181.207 123.545 182.766 125.771C184.336 127.986 185.121 131.291 185.121 135.686ZM173.467 135.686C173.467 138.592 173.648 140.59 174.012 141.68C174.375 142.77 174.984 143.314 175.84 143.314C176.707 143.314 177.316 142.752 177.668 141.627C178.031 140.502 178.213 138.521 178.213 135.686C178.213 132.838 178.031 130.846 177.668 129.709C177.305 128.561 176.695 127.986 175.84 127.986C174.984 127.986 174.375 128.537 174.012 129.639C173.648 130.74 173.467 132.756 173.467 135.686Z" fill="url(#paint3_linear)"/>
<defs>
<linearGradient id="paint0_linear" x1="120.145" y1="185.5" x2="120.145" y2="272.5" gradientUnits="userSpaceOnUse">
<stop stop-color="#FFC700"/>
<stop offset="1" stop-color="#FC9517"/>
</linearGradient>
<linearGradient id="paint1_linear" x1="124.852" y1="0.5" x2="124.852" y2="168.519" gradientUnits="userSpaceOnUse">
<stop stop-color="#FFC700"/>
<stop offset="1" stop-color="#FC9517"/>
</linearGradient>
<linearGradient id="paint2_linear" x1="124.439" y1="163.577" x2="124.439" y2="179.5" gradientUnits="userSpaceOnUse">
<stop stop-color="#8F5A2D"/>
<stop offset="1" stop-color="#351B06"/>
</linearGradient>
<linearGradient id="paint3_linear" x1="129.145" y1="110.5" x2="129.145" y2="159.5" gradientUnits="userSpaceOnUse">
<stop stop-color="#8F5A2D"/>
<stop offset="1" stop-color="#351B06"/>
</linearGradient>
</defs>
</svg>
