<svg width="250" height="273" viewBox="0 0 250 273" fill="none" xmlns="http://www.w3.org/2000/svg">
<path d="M113.61 253.5H101.079V229.312C101.079 226.375 101.141 223.688 101.266 221.25C100.495 222.188 99.5368 223.167 98.391 224.188L93.2035 228.469L86.7973 220.594L102.485 207.812H113.61V253.5ZM139.222 223.562C141.847 223.562 144.212 224.177 146.316 225.406C148.441 226.615 150.087 228.333 151.254 230.562C152.441 232.792 153.035 235.365 153.035 238.281C153.035 243.385 151.493 247.302 148.41 250.031C145.347 252.76 140.701 254.125 134.472 254.125C129.139 254.125 124.785 253.302 121.41 251.656V241.531C123.222 242.365 125.264 243.052 127.535 243.594C129.826 244.135 131.795 244.406 133.441 244.406C135.733 244.406 137.493 243.927 138.722 242.969C139.951 241.99 140.566 240.552 140.566 238.656C140.566 236.906 139.941 235.542 138.691 234.562C137.441 233.583 135.545 233.094 133.004 233.094C131.066 233.094 128.972 233.458 126.722 234.188L122.191 231.938L123.91 207.812H149.972V218.094H134.41L133.847 224.125C135.472 223.812 136.629 223.646 137.316 223.625C138.004 223.583 138.639 223.562 139.222 223.562Z" fill="url(#paint0_linear)"/>
<path d="M119.563 5.16714C103.64 21.9141 93.2073 64.1933 93.2073 64.1933C111.052 72.7041 104.189 95.491 88.8147 102.08C77.284 107.022 59.4388 97.6872 57.2425 85.0584C55.5953 75.724 60.537 68.5859 66.5769 62.5461C66.5769 62.5461 11.1198 44.7009 2.88357 36.7393C2.88357 36.7393 -1.50909 35.3666 0.687235 42.5046C2.88356 49.9172 43.7901 166.322 43.7901 166.322L116.269 168.519H133.29L205.769 166.322C205.769 166.322 246.675 49.6427 248.872 42.5046C251.068 35.0921 246.675 36.7393 246.675 36.7393C238.165 44.7009 182.982 62.5461 182.982 62.5461C189.296 68.8605 193.964 75.9986 192.316 85.0584C190.12 97.6872 172.275 107.022 160.744 102.08C145.37 95.491 138.506 72.4295 156.352 64.1933C156.352 64.1933 146.194 21.9141 129.996 5.16714L124.779 0.5L119.563 5.16714Z" fill="url(#paint1_linear)"/>
<path d="M211.808 171.538C211.808 175.931 208.239 179.5 203.847 179.5H44.8877C40.495 179.5 36.926 175.931 36.926 171.538C36.926 167.146 40.495 163.577 44.8877 163.577H203.847C208.239 163.851 211.808 167.146 211.808 171.538Z" fill="url(#paint2_linear)"/>
<path d="M7.00256 44.4271L9.47341 46.3489C10.297 46.898 11.3952 47.4471 12.2188 47.9961C13.0424 48.5452 14.1406 49.0943 14.9642 49.3688C15.7878 49.9179 16.886 50.1925 17.9842 50.7415C19.906 51.5652 21.8277 52.3888 24.0241 53.2124L30.0639 55.4088L42.1437 59.5269C44.0655 60.3505 46.2618 60.625 48.1836 61.4486L54.2235 63.0959C54.7726 63.0959 55.0471 63.6449 54.7726 64.194C53.9489 66.9394 53.1253 69.9593 52.0272 72.4302C50.929 75.1756 50.3799 77.921 49.8308 80.3919C49.5563 83.1373 49.8309 85.8827 50.929 88.3536C51.4781 89.7263 52.0272 90.8244 52.8508 91.9226C53.6744 93.2953 54.498 94.3934 55.3216 95.4916C56.1453 96.5897 57.2434 97.6879 58.067 98.5115C59.1652 99.3352 59.9888 100.433 61.087 101.257C62.1852 102.081 63.2833 102.904 64.3815 103.728C65.4796 104.551 66.8523 105.101 67.9505 105.65C70.4214 106.748 73.1668 107.571 75.9122 108.12C78.6576 108.395 81.403 108.67 84.1484 108.12C86.8938 107.571 89.3646 106.748 91.8355 105.375C93.2082 104.826 94.0318 104.002 95.4045 103.179C96.5027 102.355 97.6008 101.532 98.4245 100.433C100.346 98.5116 101.994 96.0407 103.092 93.8444C104.19 91.3735 105.288 88.6281 105.837 85.8827C106.112 84.51 106.112 83.1373 106.386 81.7646C106.386 80.3919 106.386 79.0192 106.386 77.6465C106.112 74.9011 105.288 72.1557 104.19 69.6848C103.092 67.2139 101.719 64.7431 100.346 61.9977C100.072 61.4486 99.7972 60.625 99.5226 59.8013C99.2481 58.9777 99.2481 57.8796 99.5226 57.3305C99.7972 55.6832 100.621 54.5851 101.17 53.2124C101.993 51.2906 102.543 49.0943 103.366 47.1725L105.837 41.1326L108.308 35.0927C108.582 33.9945 109.132 33.171 109.681 32.0728L111.053 29.0529C112.151 27.1311 112.975 25.2093 114.073 23.2875L117.368 17.7967L123.682 6.54053C121.76 10.3841 119.839 14.2277 117.917 18.0713L114.897 23.8366C113.799 25.7584 112.975 27.6801 112.151 29.6019L110.779 32.6219C110.23 33.4455 109.955 34.5437 109.406 35.6418L107.21 41.6817L104.739 47.7216C103.915 49.6434 103.366 51.8397 102.543 53.7615C101.993 55.1342 101.444 56.5069 101.17 57.605C100.895 58.7032 101.444 59.8013 101.993 61.174C103.366 63.6449 104.739 66.1158 106.112 68.8612C107.484 71.6066 108.308 74.352 108.582 77.372C108.857 79.0192 108.857 80.3919 108.857 81.7646C108.582 83.1373 108.582 84.7845 108.308 86.1572C107.759 89.1772 106.661 91.9226 105.563 94.668C104.19 97.4134 102.543 99.8843 100.346 102.081C99.2481 103.179 98.1499 104.002 97.0518 105.1C95.679 105.924 94.5809 107.022 93.2082 107.571C90.4628 109.219 87.7174 110.042 84.6974 110.591C81.6775 111.14 78.6576 111.14 75.6376 110.591C72.8922 110.042 69.8723 109.219 67.1269 107.846C65.7542 107.297 64.3815 106.473 63.2833 105.65C61.9106 104.826 60.8125 104.002 59.7143 103.179C58.6161 102.355 57.518 101.257 56.4198 100.159C55.3217 99.0606 54.498 97.9624 53.3999 96.8643C52.5762 95.7661 51.4781 94.3934 50.929 93.0207C50.1054 91.9226 49.5563 90.2753 49.0072 88.9026C47.6345 86.1572 47.6345 82.8628 47.6345 79.8428C48.1836 76.8229 49.0072 74.0775 50.1054 71.3321C51.2035 68.5867 52.0272 65.8413 52.8508 63.3704L53.3999 64.4686L47.0854 62.5467C44.8891 61.9977 42.9673 61.4486 41.0455 60.625C36.9274 59.2523 32.8094 57.605 28.9658 56.2323L22.9259 53.7615C21.0041 52.9379 19.0823 52.1143 16.886 51.0161C15.7878 50.467 14.9642 50.1925 14.1406 49.6434C13.317 49.0943 12.2188 48.5452 11.3952 47.9961C10.5716 47.4471 9.4734 46.8979 8.64978 46.0743L7.00256 44.4271Z" fill="#5A3602"/>
<path d="M243.382 44.4264L240.911 46.6227C240.087 47.1717 239.263 47.9954 238.165 48.5445C237.342 49.0936 236.243 49.6426 235.42 50.1917C234.596 50.7407 233.498 51.2898 232.674 51.5644C230.753 52.6625 228.831 53.2116 226.635 54.3098L220.595 56.7807C216.751 58.4279 212.633 59.8006 208.515 61.1733C206.593 61.9969 204.397 62.546 202.475 63.0951L196.161 65.0169L196.71 63.9187C197.533 66.6641 198.357 69.4095 199.455 71.8804C200.553 74.6258 201.377 77.3711 201.926 80.3911C202.201 83.411 201.926 86.7056 200.553 89.451C200.004 90.8237 199.455 92.4709 198.631 93.5691C198.082 94.9418 196.984 96.0399 196.161 97.4126C195.337 98.7853 194.239 99.609 193.141 100.707C192.043 101.805 190.944 102.903 189.846 103.727C188.748 104.551 187.375 105.649 186.277 106.198C184.904 107.022 183.806 107.845 182.434 108.394C179.688 109.767 176.668 110.591 173.923 111.14C170.903 111.689 167.883 111.689 164.863 111.14C161.843 110.591 158.823 109.767 156.352 108.12C154.98 107.571 153.881 106.472 152.509 105.649C151.411 104.551 150.038 103.727 149.214 102.629C147.018 100.433 145.371 97.9617 143.998 95.2163C142.625 92.4709 141.527 89.7255 141.253 86.7056C140.978 85.3329 140.978 83.6856 140.703 82.3129C140.703 80.6657 140.703 79.2929 140.978 77.9202C141.253 74.9003 142.351 71.8803 143.449 69.4095C144.822 66.6641 146.194 64.1932 147.567 61.7224C148.116 60.3497 148.665 59.5261 148.391 58.1534C148.116 57.0552 147.567 55.6825 147.018 54.3098C146.194 52.388 145.645 50.1917 144.822 48.2699L142.351 42.23L140.154 36.1902C139.88 35.092 139.331 34.2684 138.782 33.1702L137.409 30.1502C136.585 28.2285 135.487 26.3067 134.664 24.3849L131.644 18.6195C129.722 14.7759 127.8 10.9324 125.878 7.08887L132.193 18.345L135.487 23.8358C136.585 25.7576 137.409 27.6793 138.507 29.6011L139.88 32.6211C140.429 33.4447 140.703 34.5429 141.253 35.641L143.723 41.681L146.194 47.7208C147.018 49.6426 147.842 51.8389 148.391 53.7607C148.94 55.1334 149.489 56.5061 150.038 57.8788C150.312 58.7024 150.312 59.5261 150.038 60.6242C149.763 61.4479 149.489 62.2714 149.214 62.8205C147.842 65.5659 146.469 68.0368 145.371 70.5077C144.273 72.9786 143.449 75.724 143.174 78.4694C142.9 79.8421 142.9 81.2148 143.174 82.5875C143.449 83.9602 143.449 85.3329 143.723 86.7056C144.272 89.451 145.096 91.9218 146.469 94.6672C147.842 97.1381 149.214 99.3344 151.136 101.256C151.96 102.354 153.058 103.178 154.156 104.002C155.254 104.825 156.352 105.649 157.725 106.198C160.196 107.571 162.667 108.394 165.412 108.943C168.157 109.492 170.903 109.218 173.648 108.943C176.394 108.394 179.139 107.571 181.61 106.472C182.983 105.923 184.081 105.374 185.179 104.551C186.277 104.002 187.375 102.903 188.474 102.08C189.572 101.256 190.67 100.158 191.493 99.3344C192.317 98.2363 193.415 97.4126 194.239 96.3145C195.062 95.2163 195.886 94.1181 196.71 92.7454C197.533 91.3727 198.082 90.2746 198.631 89.1764C199.73 86.7055 200.004 83.9602 199.73 81.2148C199.455 78.4694 198.632 75.724 197.533 73.2531C196.435 70.5077 195.612 67.7623 194.788 65.0169C194.788 64.4678 195.063 63.9187 195.337 63.9187L201.377 62.2715C203.299 61.7224 205.495 61.1733 207.417 60.3497L219.497 56.2316L225.536 54.0353C227.458 53.2117 229.655 52.6625 231.576 51.5644C232.674 51.0153 233.498 50.7407 234.596 50.1917C235.42 49.6426 236.518 49.368 237.342 48.8189C238.165 48.2699 239.263 47.7209 240.087 47.1718L243.382 44.4264Z" fill="#5A3602"/>
<path d="M99.9971 90.3002C100.297 90.3002 100.497 90.3002 100.797 90.4002L100.897 89.9002C100.897 89.9002 100.197 89.7002 99.1971 89.8002L99.0971 89.5002C99.3971 89.4002 99.5971 89.2002 99.5971 88.9002C99.5971 88.5002 99.2971 88.2002 98.8971 88.2002C98.4971 88.2002 98.1971 88.5002 98.1971 88.9002C98.1971 89.2002 98.3971 89.5002 98.6971 89.5002L98.7971 89.8002C97.7971 89.9002 96.9971 90.3002 96.9971 90.3002L97.0971 90.7002C97.6971 90.5002 98.2971 90.4002 98.6971 90.3002C99.3971 90.3002 99.6971 90.3002 99.9971 90.3002Z" fill="#4C4C4C"/>
<path d="M85.1875 148.5H78.2441V128.479H71.9688V122.801H91.4453V128.479H85.1875V148.5ZM117.366 135.615C117.366 139.939 116.305 143.227 114.184 145.477C112.063 147.727 108.958 148.852 104.868 148.852C100.837 148.852 97.743 147.721 95.5867 145.459C93.4422 143.197 92.3699 139.904 92.3699 135.58C92.3699 131.303 93.4363 128.039 95.5691 125.789C97.7137 123.527 100.825 122.396 104.903 122.396C108.993 122.396 112.093 123.516 114.202 125.754C116.311 127.992 117.366 131.279 117.366 135.615ZM99.6824 135.615C99.6824 140.584 101.411 143.068 104.868 143.068C106.626 143.068 107.927 142.465 108.77 141.258C109.626 140.051 110.054 138.17 110.054 135.615C110.054 133.049 109.62 131.156 108.753 129.938C107.897 128.707 106.614 128.092 104.903 128.092C101.423 128.092 99.6824 130.6 99.6824 135.615ZM138.857 130.975C138.857 133.846 138.007 136.066 136.308 137.637C134.621 139.195 132.218 139.975 129.101 139.975H127.15V148.5H120.207V122.801H129.101C132.347 122.801 134.785 123.51 136.414 124.928C138.043 126.346 138.857 128.361 138.857 130.975ZM127.15 134.314H128.416C129.459 134.314 130.285 134.021 130.894 133.436C131.515 132.85 131.826 132.041 131.826 131.01C131.826 129.275 130.865 128.408 128.943 128.408H127.15V134.314ZM162.486 148.5H155.437V134.895C155.437 133.242 155.472 131.73 155.542 130.359C155.109 130.887 154.57 131.438 153.925 132.012L151.007 134.42L147.404 129.99L156.228 122.801H162.486V148.5ZM185.049 135.686C185.049 140.232 184.287 143.566 182.764 145.688C181.24 147.797 178.908 148.852 175.768 148.852C172.697 148.852 170.383 147.75 168.824 145.547C167.266 143.332 166.486 140.045 166.486 135.686C166.486 131.115 167.248 127.764 168.771 125.631C170.295 123.498 172.627 122.432 175.768 122.432C178.826 122.432 181.135 123.545 182.693 125.771C184.264 127.986 185.049 131.291 185.049 135.686ZM173.395 135.686C173.395 138.592 173.576 140.59 173.939 141.68C174.303 142.77 174.912 143.314 175.768 143.314C176.635 143.314 177.244 142.752 177.596 141.627C177.959 140.502 178.141 138.521 178.141 135.686C178.141 132.838 177.959 130.846 177.596 129.709C177.232 128.561 176.623 127.986 175.768 127.986C174.912 127.986 174.303 128.537 173.939 129.639C173.576 130.74 173.395 132.756 173.395 135.686Z" fill="url(#paint3_linear)"/>
<defs>
<linearGradient id="paint0_linear" x1="120.072" y1="185.5" x2="120.072" y2="272.5" gradientUnits="userSpaceOnUse">
<stop stop-color="#FFC700"/>
<stop offset="1" stop-color="#FC9517"/>
</linearGradient>
<linearGradient id="paint1_linear" x1="124.779" y1="0.5" x2="124.779" y2="168.519" gradientUnits="userSpaceOnUse">
<stop stop-color="#FFC700"/>
<stop offset="1" stop-color="#FC9517"/>
</linearGradient>
<linearGradient id="paint2_linear" x1="124.367" y1="163.577" x2="124.367" y2="179.5" gradientUnits="userSpaceOnUse">
<stop stop-color="#8F5A2D"/>
<stop offset="1" stop-color="#351B06"/>
</linearGradient>
<linearGradient id="paint3_linear" x1="129.072" y1="110.5" x2="129.072" y2="159.5" gradientUnits="userSpaceOnUse">
<stop stop-color="#8F5A2D"/>
<stop offset="1" stop-color="#351B06"/>
</linearGradient>
</defs>
</svg>
