<svg width="251" height="273" viewBox="0 0 251 273" fill="none" xmlns="http://www.w3.org/2000/svg">
<path d="M114.195 253.5H101.664V229.312C101.664 226.375 101.726 223.688 101.851 221.25C101.081 222.188 100.122 223.167 98.9765 224.188L93.789 228.469L87.3827 220.594L103.07 207.812H114.195V253.5ZM154.308 230.719C154.308 238.802 152.954 244.729 150.245 248.5C147.537 252.25 143.391 254.125 137.808 254.125C132.349 254.125 128.235 252.167 125.464 248.25C122.693 244.312 121.308 238.469 121.308 230.719C121.308 222.594 122.662 216.635 125.37 212.844C128.079 209.052 132.224 207.156 137.808 207.156C143.245 207.156 147.349 209.135 150.12 213.094C152.912 217.031 154.308 222.906 154.308 230.719ZM133.589 230.719C133.589 235.885 133.912 239.438 134.558 241.375C135.204 243.312 136.287 244.281 137.808 244.281C139.349 244.281 140.433 243.281 141.058 241.281C141.704 239.281 142.026 235.76 142.026 230.719C142.026 225.656 141.704 222.115 141.058 220.094C140.412 218.052 139.329 217.031 137.808 217.031C136.287 217.031 135.204 218.01 134.558 219.969C133.912 221.927 133.589 225.51 133.589 230.719Z" fill="url(#paint0_linear)"/>
<path d="M120.149 5.16714C104.225 21.9141 93.7928 64.1933 93.7928 64.1933C111.638 72.7041 104.774 95.491 89.4001 102.08C77.8694 107.022 60.0243 97.6872 57.828 85.0584C56.1807 75.724 61.1225 68.5859 67.1624 62.5461C67.1624 62.5461 11.7052 44.7009 3.46902 36.7393C3.46902 36.7393 -0.923638 35.3666 1.27268 42.5046C3.46901 49.9172 44.3755 166.322 44.3755 166.322L116.854 168.519H133.876L206.354 166.322C206.354 166.322 247.261 49.6427 249.457 42.5046C251.654 35.0921 247.261 36.7393 247.261 36.7393C238.75 44.7009 183.568 62.5461 183.568 62.5461C189.882 68.8605 194.549 75.9986 192.902 85.0584C190.706 97.6872 172.86 107.022 161.33 102.08C145.955 95.491 139.092 72.4295 156.937 64.1933C156.937 64.1933 146.779 21.9141 130.581 5.16714L125.365 0.5L120.149 5.16714Z" fill="url(#paint1_linear)"/>
<path d="M212.394 171.538C212.394 175.931 208.825 179.5 204.432 179.5H45.4731C41.0805 179.5 37.5115 175.931 37.5115 171.538C37.5115 167.146 41.0805 163.577 45.4731 163.577H204.432C208.825 163.851 212.394 167.146 212.394 171.538Z" fill="url(#paint2_linear)"/>
<path d="M7.58789 44.4271L10.0587 46.3489C10.8824 46.898 11.9805 47.4471 12.8041 47.9961C13.6278 48.5452 14.7259 49.0943 15.5495 49.3688C16.3732 49.9179 17.4713 50.1925 18.5695 50.7415C20.4913 51.5652 22.4131 52.3888 24.6094 53.2124L30.6493 55.4088L42.729 59.5269C44.6508 60.3505 46.8472 60.625 48.7689 61.4486L54.8088 63.0959C55.3579 63.0959 55.6324 63.6449 55.3579 64.194C54.5343 66.9394 53.7106 69.9593 52.6125 72.4302C51.5143 75.1756 50.9652 77.921 50.4162 80.3919C50.1416 83.1373 50.4162 85.8827 51.5143 88.3536C52.0634 89.7263 52.6125 90.8244 53.4361 91.9226C54.2597 93.2953 55.0833 94.3934 55.907 95.4916C56.7306 96.5897 57.8287 97.6879 58.6524 98.5115C59.7505 99.3352 60.5742 100.433 61.6723 101.257C62.7705 102.081 63.8686 102.904 64.9668 103.728C66.065 104.551 67.4377 105.101 68.5358 105.65C71.0067 106.748 73.7521 107.571 76.4975 108.12C79.2429 108.395 81.9883 108.67 84.7337 108.12C87.4791 107.571 89.95 106.748 92.4208 105.375C93.7935 104.826 94.6172 104.002 95.9899 103.179C97.088 102.355 98.1862 101.532 99.0098 100.433C100.932 98.5116 102.579 96.0407 103.677 93.8444C104.775 91.3735 105.873 88.6281 106.422 85.8827C106.697 84.51 106.697 83.1373 106.971 81.7646C106.971 80.3919 106.971 79.0192 106.971 77.6465C106.697 74.9011 105.873 72.1557 104.775 69.6848C103.677 67.2139 102.304 64.7431 100.932 61.9977C100.657 61.4486 100.383 60.625 100.108 59.8013C99.8334 58.9777 99.8334 57.8796 100.108 57.3305C100.383 55.6832 101.206 54.5851 101.755 53.2124C102.579 51.2906 103.128 49.0943 103.952 47.1725L106.422 41.1326L108.893 35.0927C109.168 33.9945 109.717 33.171 110.266 32.0728L111.639 29.0529C112.737 27.1311 113.56 25.2093 114.659 23.2875L117.953 17.7967L124.268 6.54053C122.346 10.3841 120.424 14.2277 118.502 18.0713L115.482 23.8366C114.384 25.7584 113.56 27.6801 112.737 29.6019L111.364 32.6219C110.815 33.4455 110.54 34.5437 109.991 35.6418L107.795 41.6817L105.324 47.7216C104.501 49.6434 103.952 51.8397 103.128 53.7615C102.579 55.1342 102.03 56.5069 101.755 57.605C101.481 58.7032 102.03 59.8013 102.579 61.174C103.952 63.6449 105.324 66.1158 106.697 68.8612C108.07 71.6066 108.893 74.352 109.168 77.372C109.442 79.0192 109.442 80.3919 109.442 81.7646C109.168 83.1373 109.168 84.7845 108.893 86.1572C108.344 89.1772 107.246 91.9226 106.148 94.668C104.775 97.4134 103.128 99.8843 100.932 102.081C99.8334 103.179 98.7352 104.002 97.6371 105.1C96.2644 105.924 95.1662 107.022 93.7935 107.571C91.0481 109.219 88.3027 110.042 85.2828 110.591C82.2628 111.14 79.2429 111.14 76.223 110.591C73.4776 110.042 70.4576 109.219 67.7122 107.846C66.3395 107.297 64.9668 106.473 63.8687 105.65C62.496 104.826 61.3978 104.002 60.2996 103.179C59.2015 102.355 58.1033 101.257 57.0051 100.159C55.907 99.0606 55.0833 97.9624 53.9852 96.8643C53.1616 95.7661 52.0634 94.3934 51.5143 93.0207C50.6907 91.9226 50.1416 90.2753 49.5925 88.9026C48.2198 86.1572 48.2198 82.8628 48.2198 79.8428C48.7689 76.8229 49.5925 74.0775 50.6907 71.3321C51.7889 68.5867 52.6125 65.8413 53.4361 63.3704L53.9852 64.4686L47.6707 62.5467C45.4744 61.9977 43.5527 61.4486 41.6309 60.625C37.5128 59.2523 33.3947 57.605 29.5511 56.2323L23.5112 53.7615C21.5894 52.9379 19.6676 52.1143 17.4713 51.0161C16.3732 50.467 15.5495 50.1925 14.7259 49.6434C13.9023 49.0943 12.8041 48.5452 11.9805 47.9961C11.1569 47.4471 10.0587 46.8979 9.23511 46.0743L7.58789 44.4271Z" fill="#5A3602"/>
<path d="M243.967 44.4264L241.496 46.6227C240.673 47.1717 239.849 47.9954 238.751 48.5445C237.927 49.0936 236.829 49.6426 236.005 50.1917C235.182 50.7407 234.084 51.2898 233.26 51.5644C231.338 52.6625 229.417 53.2116 227.22 54.3098L221.18 56.7807C217.337 58.4279 213.219 59.8006 209.101 61.1733C207.179 61.9969 204.982 62.546 203.061 63.0951L196.746 65.0169L197.295 63.9187C198.119 66.6641 198.943 69.4095 200.041 71.8804C201.139 74.6258 201.962 77.3711 202.512 80.3911C202.786 83.411 202.512 86.7056 201.139 89.451C200.59 90.8237 200.041 92.4709 199.217 93.5691C198.668 94.9418 197.57 96.0399 196.746 97.4126C195.923 98.7853 194.824 99.609 193.726 100.707C192.628 101.805 191.53 102.903 190.432 103.727C189.334 104.551 187.961 105.649 186.863 106.198C185.49 107.022 184.392 107.845 183.019 108.394C180.274 109.767 177.254 110.591 174.508 111.14C171.488 111.689 168.469 111.689 165.449 111.14C162.429 110.591 159.409 109.767 156.938 108.12C155.565 107.571 154.467 106.472 153.094 105.649C151.996 104.551 150.623 103.727 149.8 102.629C147.603 100.433 145.956 97.9617 144.584 95.2163C143.211 92.4709 142.113 89.7255 141.838 86.7056C141.564 85.3329 141.564 83.6856 141.289 82.3129C141.289 80.6657 141.289 79.2929 141.564 77.9202C141.838 74.9003 142.936 71.8803 144.034 69.4095C145.407 66.6641 146.78 64.1932 148.153 61.7224C148.702 60.3497 149.251 59.5261 148.976 58.1534C148.702 57.0552 148.153 55.6825 147.604 54.3098C146.78 52.388 146.231 50.1917 145.407 48.2699L142.936 42.23L140.74 36.1902C140.465 35.092 139.916 34.2684 139.367 33.1702L137.995 30.1502C137.171 28.2285 136.073 26.3067 135.249 24.3849L132.229 18.6195C130.307 14.7759 128.386 10.9324 126.464 7.08887L132.778 18.345L136.073 23.8358C137.171 25.7576 137.995 27.6793 139.093 29.6011L140.465 32.6211C141.015 33.4447 141.289 34.5429 141.838 35.641L144.309 41.681L146.78 47.7208C147.603 49.6426 148.427 51.8389 148.976 53.7607C149.525 55.1334 150.074 56.5061 150.623 57.8788C150.898 58.7024 150.898 59.5261 150.623 60.6242C150.349 61.4479 150.074 62.2714 149.8 62.8205C148.427 65.5659 147.054 68.0368 145.956 70.5077C144.858 72.9786 144.034 75.724 143.76 78.4694C143.485 79.8421 143.485 81.2148 143.76 82.5875C144.034 83.9602 144.034 85.3329 144.309 86.7056C144.858 89.451 145.682 91.9218 147.054 94.6672C148.427 97.1381 149.8 99.3344 151.722 101.256C152.545 102.354 153.643 103.178 154.742 104.002C155.84 104.825 156.938 105.649 158.311 106.198C160.781 107.571 163.252 108.394 165.998 108.943C168.743 109.492 171.488 109.218 174.234 108.943C176.979 108.394 179.725 107.571 182.196 106.472C183.568 105.923 184.666 105.374 185.765 104.551C186.863 104.002 187.961 102.903 189.059 102.08C190.157 101.256 191.255 100.158 192.079 99.3344C192.903 98.2363 194.001 97.4126 194.824 96.3145C195.648 95.2163 196.472 94.1181 197.295 92.7454C198.119 91.3727 198.668 90.2746 199.217 89.1764C200.315 86.7055 200.59 83.9602 200.315 81.2148C200.041 78.4694 199.217 75.724 198.119 73.2531C197.021 70.5077 196.197 67.7623 195.374 65.0169C195.374 64.4678 195.648 63.9187 195.923 63.9187L201.962 62.2715C203.884 61.7224 206.081 61.1733 208.002 60.3497L220.082 56.2316L226.122 54.0353C228.044 53.2117 230.24 52.6625 232.162 51.5644C233.26 51.0153 234.084 50.7407 235.182 50.1917C236.005 49.6426 237.104 49.368 237.927 48.8189C238.751 48.2699 239.849 47.7209 240.673 47.1718L243.967 44.4264Z" fill="#5A3602"/>
<path d="M100.583 90.3002C100.883 90.3002 101.083 90.3002 101.383 90.4002L101.483 89.9002C101.483 89.9002 100.783 89.7002 99.7825 89.8002L99.6825 89.5002C99.9825 89.4002 100.183 89.2002 100.183 88.9002C100.183 88.5002 99.8825 88.2002 99.4825 88.2002C99.0825 88.2002 98.7825 88.5002 98.7825 88.9002C98.7825 89.2002 98.9825 89.5002 99.2825 89.5002L99.3825 89.8002C98.3825 89.9002 97.5825 90.3002 97.5825 90.3002L97.6825 90.7002C98.2825 90.5002 98.8825 90.4002 99.2825 90.3002C99.9825 90.3002 100.283 90.3002 100.583 90.3002Z" fill="#4C4C4C"/>
<path d="M85.7729 148.5H78.8296V128.479H72.5542V122.801H92.0308V128.479H85.7729V148.5ZM117.951 135.615C117.951 139.939 116.891 143.227 114.77 145.477C112.649 147.727 109.543 148.852 105.453 148.852C101.422 148.852 98.3284 147.721 96.1722 145.459C94.0276 143.197 92.9554 139.904 92.9554 135.58C92.9554 131.303 94.0218 128.039 96.1546 125.789C98.2991 123.527 101.41 122.396 105.489 122.396C109.578 122.396 112.678 123.516 114.787 125.754C116.897 127.992 117.951 131.279 117.951 135.615ZM100.268 135.615C100.268 140.584 101.996 143.068 105.453 143.068C107.211 143.068 108.512 142.465 109.356 141.258C110.211 140.051 110.639 138.17 110.639 135.615C110.639 133.049 110.205 131.156 109.338 129.938C108.483 128.707 107.2 128.092 105.489 128.092C102.008 128.092 100.268 130.6 100.268 135.615ZM139.442 130.975C139.442 133.846 138.593 136.066 136.894 137.637C135.206 139.195 132.804 139.975 129.687 139.975H127.735V148.5H120.792V122.801H129.687C132.933 122.801 135.37 123.51 136.999 124.928C138.628 126.346 139.442 128.361 139.442 130.975ZM127.735 134.314H129.001C130.044 134.314 130.87 134.021 131.48 133.436C132.101 132.85 132.411 132.041 132.411 131.01C132.411 129.275 131.45 128.408 129.528 128.408H127.735V134.314ZM163.071 148.5H156.022V134.895C156.022 133.242 156.057 131.73 156.128 130.359C155.694 130.887 155.155 131.438 154.51 132.012L151.592 134.42L147.989 129.99L156.813 122.801H163.071V148.5ZM185.634 135.686C185.634 140.232 184.873 143.566 183.349 145.688C181.826 147.797 179.494 148.852 176.353 148.852C173.283 148.852 170.968 147.75 169.41 145.547C167.851 143.332 167.072 140.045 167.072 135.686C167.072 131.115 167.833 127.764 169.357 125.631C170.88 123.498 173.212 122.432 176.353 122.432C179.412 122.432 181.72 123.545 183.279 125.771C184.849 127.986 185.634 131.291 185.634 135.686ZM173.98 135.686C173.98 138.592 174.162 140.59 174.525 141.68C174.888 142.77 175.498 143.314 176.353 143.314C177.22 143.314 177.83 142.752 178.181 141.627C178.544 140.502 178.726 138.521 178.726 135.686C178.726 132.838 178.544 130.846 178.181 129.709C177.818 128.561 177.208 127.986 176.353 127.986C175.498 127.986 174.888 128.537 174.525 129.639C174.162 130.74 173.98 132.756 173.98 135.686Z" fill="url(#paint3_linear)"/>
<defs>
<linearGradient id="paint0_linear" x1="120.658" y1="185.5" x2="120.658" y2="272.5" gradientUnits="userSpaceOnUse">
<stop stop-color="#FFC700"/>
<stop offset="1" stop-color="#FC9517"/>
</linearGradient>
<linearGradient id="paint1_linear" x1="125.365" y1="0.5" x2="125.365" y2="168.519" gradientUnits="userSpaceOnUse">
<stop stop-color="#FFC700"/>
<stop offset="1" stop-color="#FC9517"/>
</linearGradient>
<linearGradient id="paint2_linear" x1="124.953" y1="163.577" x2="124.953" y2="179.5" gradientUnits="userSpaceOnUse">
<stop stop-color="#8F5A2D"/>
<stop offset="1" stop-color="#351B06"/>
</linearGradient>
<linearGradient id="paint3_linear" x1="129.658" y1="110.5" x2="129.658" y2="159.5" gradientUnits="userSpaceOnUse">
<stop stop-color="#8F5A2D"/>
<stop offset="1" stop-color="#351B06"/>
</linearGradient>
</defs>
</svg>
