<svg width="189" height="182" viewBox="0 0 189 182" fill="none" xmlns="http://www.w3.org/2000/svg">
<path d="M176.367 156.832L30.4062 181.789C22.372 183.162 14.6728 177.713 13.2937 169.673C13.2937 169.673 -0.999177 21.8809 12.0319 19.6476C12.0319 19.6476 165.346 4.41113 167.574 17.4423L188.477 139.719C189.856 147.759 184.401 155.458 176.367 156.832Z" fill="#C8C8C8"/>
<path d="M168.093 162.074L20.6861 176.188C12.5682 176.964 5.2933 170.962 4.51724 162.844C4.51724 162.844 1.17292 14.3988 14.3325 13.137C14.3325 13.137 168.35 9.25671 169.612 22.4162L181.437 145.905C182.213 154.017 176.211 161.298 168.093 162.074Z" fill="#EDEDED"/>
<path d="M16.0969 156.781L149.406 176.189C157.524 176.965 164.799 170.963 165.575 162.845C165.575 162.845 168.92 14.3995 155.76 13.1377C155.76 13.1377 23.9134 9.77101 22.6516 22.9305L8.80531 135.644C8.02925 143.762 7.979 156 16.0969 156.781Z" fill="#EDEDED"/>
<path d="M163.699 166.037H15.6168C7.46535 166.037 0.793457 159.366 0.793457 151.214V29.6796C0.793457 16.4586 11.6081 5.64404 24.829 5.64404H154.481C167.702 5.64404 178.517 16.4586 178.517 29.6796V151.214C178.523 159.371 171.851 166.037 163.699 166.037Z" fill="white"/>
<path d="M178.523 47.3336H0.793457V29.6796C0.793457 16.4586 11.6081 5.64404 24.829 5.64404H154.481C167.702 5.64404 178.517 16.4586 178.517 29.6796V47.3336H178.523Z" fill="url(#paint0_linear)"/>
<path d="M29.7146 17.7707C27.727 17.7707 26.0967 16.146 26.0967 14.1528V5.64404H33.3269V14.1584C33.3325 16.146 31.7078 17.7707 29.7146 17.7707Z" fill="#BF3A37"/>
<path d="M72.498 17.7707C70.5104 17.7707 68.8801 16.146 68.8801 14.1528V5.64404H76.1103V14.1584C76.1159 16.146 74.4856 17.7707 72.498 17.7707Z" fill="#BF3A37"/>
<path d="M112.513 17.7707C110.526 17.7707 108.895 16.146 108.895 14.1528V5.64404H116.125V14.1584C116.131 16.146 114.501 17.7707 112.513 17.7707Z" fill="#BF3A37"/>
<path d="M152.812 17.7713C150.825 17.7713 149.194 16.1466 149.194 14.1534C149.194 14.1534 149.194 6.26442 149.194 5.6391C149.194 5.06962 156.425 5.71727 156.425 5.71727V14.1534C156.425 16.1466 154.8 17.7713 152.812 17.7713Z" fill="#BF3A37"/>
<path d="M71.0744 16.5541C69.0868 16.5541 67.4565 14.9294 67.4565 12.9362V3.61789C67.4565 1.63029 69.0812 0 71.0744 0C73.062 0 74.6923 1.6247 74.6923 3.61789V12.9362C74.6868 14.9294 73.062 16.5541 71.0744 16.5541Z" fill="#EBEBEB"/>
<path d="M111.29 16.5541C109.302 16.5541 107.672 14.9294 107.672 12.9362V3.61789C107.672 1.63029 109.297 0 111.29 0C113.277 0 114.908 1.6247 114.908 3.61789V12.9362C114.902 14.9294 113.277 16.5541 111.29 16.5541Z" fill="#EBEBEB"/>
<path d="M151.506 16.5541C149.518 16.5541 147.888 14.9294 147.888 12.9362V3.61789C147.888 1.63029 149.512 0 151.506 0C153.493 0 155.123 1.6247 155.123 3.61789V12.9362C155.118 14.9294 153.493 16.5541 151.506 16.5541Z" fill="#EBEBEB"/>
<path d="M163.526 121.384L121.485 165.586C121.485 165.586 123.076 157.803 123.087 152.912C123.093 149.808 122.462 147.095 122.244 142.634C121.647 130.122 128.893 126.934 132.31 125.08C137.559 122.239 146.162 124.343 151.349 124.003C153.549 123.869 161.896 123.5 163.526 121.384Z" fill="#BABABA"/>
<path d="M42.8404 70.6606H19.1343V86.0311H42.8404V70.6606Z" fill="#EBEBEB"/>
<path d="M42.8404 98.0127H19.1343V113.383H42.8404V98.0127Z" fill="#EBEBEB"/>
<path d="M80.5716 98.0127H56.8655V113.383H80.5716V98.0127Z" fill="#EBEBEB"/>
<path d="M118.297 98.0127H94.5913V113.383H118.297V98.0127Z" fill="#EBEBEB"/>
<path d="M155.297 98.0127H131.591V113.383H155.297V98.0127Z" fill="#EBEBEB"/>
<path d="M42.8404 125.37H19.1343V140.741H42.8404V125.37Z" fill="#EBEBEB"/>
<path d="M80.5716 125.37H56.8655V140.741H80.5716V125.37Z" fill="#EBEBEB"/>
<path d="M118.297 125.37H94.5913V140.741H118.297V125.37Z" fill="#EBEBEB"/>
<path d="M80.5716 70.6606H56.8655V86.0311H80.5716V70.6606Z" fill="#EBEBEB"/>
<path d="M118.297 70.6606H94.5913V86.0311H118.297V70.6606Z" fill="#EBEBEB"/>
<path d="M156.022 70.6606H132.316V86.0311H156.022V70.6606Z" fill="#EBEBEB"/>
<path d="M28.2793 16.5541C26.2917 16.5541 24.6614 14.9294 24.6614 12.9362V3.61789C24.6614 1.63029 26.2861 0 28.2793 0C30.2669 0 31.8972 1.6247 31.8972 3.61789V12.9362C31.8972 14.9294 30.2725 16.5541 28.2793 16.5541Z" fill="#EBEBEB"/>
<path d="M88.981 96.2559C91.8521 96.2559 94.4383 96.9281 96.7397 98.2725C99.064 99.5941 100.864 101.474 102.14 103.912C103.439 106.35 104.088 109.164 104.088 112.354C104.088 117.937 102.402 122.221 99.0298 125.206C95.6802 128.191 90.5988 129.684 83.7856 129.684C77.9523 129.684 73.1899 128.784 69.4985 126.983V115.909C71.481 116.821 73.714 117.573 76.1978 118.165C78.7043 118.757 80.8576 119.054 82.6577 119.054C85.1642 119.054 87.0897 118.53 88.4341 117.481C89.7785 116.41 90.4507 114.838 90.4507 112.765C90.4507 110.851 89.7671 109.358 88.3999 108.287C87.0327 107.216 84.9591 106.681 82.1792 106.681C80.0601 106.681 77.77 107.079 75.3091 107.877L70.353 105.416L72.2329 79.0293H100.739V90.2744H83.7173L83.1021 96.8711C84.8794 96.5293 86.144 96.347 86.896 96.3242C87.6479 96.2786 88.3429 96.2559 88.981 96.2559Z" fill="url(#paint1_linear)"/>
<path d="M47.3799 43H42.1724V27.9839H37.4658V23.7256H52.0732V27.9839H47.3799V43ZM71.5138 33.3364C71.5138 36.5796 70.7184 39.0449 69.1275 40.7324C67.5367 42.4199 65.2076 43.2637 62.1402 43.2637C59.1168 43.2637 56.7965 42.4155 55.1793 40.7192C53.5709 39.0229 52.7667 36.5532 52.7667 33.3101C52.7667 30.1021 53.5665 27.6543 55.1661 25.9668C56.7745 24.2705 59.108 23.4224 62.1666 23.4224C65.234 23.4224 67.5587 24.2617 69.1407 25.9404C70.7228 27.6191 71.5138 30.0845 71.5138 33.3364ZM58.2511 33.3364C58.2511 37.063 59.5475 38.9263 62.1402 38.9263C63.4586 38.9263 64.4342 38.4736 65.067 37.5684C65.7086 36.6631 66.0294 35.2524 66.0294 33.3364C66.0294 31.4116 65.7042 29.9922 65.0538 29.0781C64.4122 28.1553 63.4498 27.6938 62.1666 27.6938C59.5562 27.6938 58.2511 29.5747 58.2511 33.3364ZM87.632 29.856C87.632 32.0093 86.9948 33.6748 85.7204 34.8525C84.4548 36.0215 82.653 36.606 80.3151 36.606H78.8518V43H73.6442V23.7256H80.3151C82.7497 23.7256 84.5778 24.2573 85.7995 25.3208C87.0212 26.3843 87.632 27.896 87.632 29.856ZM78.8518 32.3608H79.801C80.5832 32.3608 81.2028 32.1411 81.6599 31.7017C82.1257 31.2622 82.3586 30.6558 82.3586 29.8823C82.3586 28.5815 81.6379 27.9312 80.1965 27.9312H78.8518V32.3608ZM105.353 43H100.067V32.7959C100.067 31.5566 100.093 30.4229 100.146 29.3945C99.8207 29.79 99.4164 30.2031 98.933 30.6338L96.7445 32.4399L94.0419 29.1177L100.66 23.7256H105.353V43ZM122.276 33.3892C122.276 36.7993 121.705 39.2998 120.562 40.8906C119.419 42.4727 117.67 43.2637 115.315 43.2637C113.012 43.2637 111.276 42.4375 110.107 40.7852C108.938 39.124 108.354 36.6587 108.354 33.3892C108.354 29.9614 108.925 27.4478 110.068 25.8481C111.21 24.2485 112.959 23.4487 115.315 23.4487C117.609 23.4487 119.34 24.2837 120.509 25.9536C121.687 27.6147 122.276 30.0933 122.276 33.3892ZM113.535 33.3892C113.535 35.5688 113.671 37.0674 113.944 37.8848C114.216 38.7021 114.673 39.1108 115.315 39.1108C115.965 39.1108 116.422 38.689 116.686 37.8452C116.958 37.0015 117.095 35.5161 117.095 33.3892C117.095 31.2534 116.958 29.7593 116.686 28.9067C116.414 28.0454 115.957 27.6147 115.315 27.6147C114.673 27.6147 114.216 28.0278 113.944 28.854C113.671 29.6802 113.535 31.1919 113.535 33.3892ZM136.746 33.3892C136.746 36.7993 136.175 39.2998 135.032 40.8906C133.89 42.4727 132.141 43.2637 129.785 43.2637C127.483 43.2637 125.747 42.4375 124.578 40.7852C123.409 39.124 122.824 36.6587 122.824 33.3892C122.824 29.9614 123.396 27.4478 124.538 25.8481C125.681 24.2485 127.43 23.4487 129.785 23.4487C132.079 23.4487 133.811 24.2837 134.98 25.9536C136.157 27.6147 136.746 30.0933 136.746 33.3892ZM128.005 33.3892C128.005 35.5688 128.142 37.0674 128.414 37.8848C128.687 38.7021 129.144 39.1108 129.785 39.1108C130.436 39.1108 130.893 38.689 131.156 37.8452C131.429 37.0015 131.565 35.5161 131.565 33.3892C131.565 31.2534 131.429 29.7593 131.156 28.9067C130.884 28.0454 130.427 27.6147 129.785 27.6147C129.144 27.6147 128.687 28.0278 128.414 28.854C128.142 29.6802 128.005 31.1919 128.005 33.3892Z" fill="#EEEBE8"/>
<path d="M177.455 118.604L121.49 165.592C121.49 165.592 124.27 156.659 124.823 150.931C125.169 147.29 124.694 144.047 124.918 138.798C125.554 124.07 134.716 121.167 139.082 119.386C145.777 116.656 156.016 120.1 162.364 120.296C165.044 120.374 175.233 120.899 177.455 118.604Z" fill="#E7E6E6"/>
<defs>
<linearGradient id="paint0_linear" x1="89.658" y1="5.64404" x2="89.658" y2="47.3336" gradientUnits="userSpaceOnUse">
<stop stop-color="#FF1D1D"/>
<stop offset="1" stop-color="#FF4172"/>
</linearGradient>
<linearGradient id="paint1_linear" x1="86.7935" y1="54" x2="86.7935" y2="149" gradientUnits="userSpaceOnUse">
<stop stop-color="#FFC700"/>
<stop offset="1" stop-color="#FF4070"/>
</linearGradient>
</defs>
</svg>
