<svg width="326" height="326" viewBox="0 0 326 326" fill="none" xmlns="http://www.w3.org/2000/svg">
<circle cx="163" cy="163" r="163" fill="url(#paint0_linear)"/>
<circle cx="137" cy="88" r="60" fill="url(#paint1_linear)"/>
<path d="M101.187 83.5488C105.189 83.5488 108.37 84.6722 110.73 86.9189C113.109 89.1657 114.299 92.2432 114.299 96.1514C114.299 100.777 112.873 104.336 110.022 106.828C107.172 109.32 103.093 110.566 97.7881 110.566C93.1813 110.566 89.4619 109.821 86.6299 108.329V100.768C88.1214 101.561 89.8584 102.212 91.8408 102.722C93.8232 103.213 95.7018 103.458 97.4766 103.458C102.82 103.458 105.491 101.268 105.491 96.8877C105.491 92.7152 102.725 90.6289 97.1934 90.6289C96.1927 90.6289 95.0882 90.7327 93.8799 90.9404C92.6715 91.1292 91.6898 91.3369 90.9346 91.5635L87.4512 89.6943L89.0088 68.5957H111.467V76.0156H96.6836L95.9189 84.1436L96.9102 83.9453C98.0618 83.681 99.4873 83.5488 101.187 83.5488ZM147.972 89.2979C147.972 96.529 146.782 101.882 144.403 105.355C142.043 108.829 138.399 110.566 133.472 110.566C128.695 110.566 125.089 108.773 122.653 105.186C120.237 101.598 119.028 96.3024 119.028 89.2979C119.028 81.9912 120.208 76.6104 122.568 73.1553C124.928 69.6813 128.563 67.9443 133.472 67.9443C138.248 67.9443 141.854 69.7568 144.29 73.3818C146.744 77.0068 147.972 82.3122 147.972 89.2979ZM127.723 89.2979C127.723 94.3766 128.157 98.0205 129.025 100.229C129.913 102.42 131.395 103.515 133.472 103.515C135.511 103.515 136.983 102.401 137.89 100.173C138.796 97.945 139.249 94.32 139.249 89.2979C139.249 84.2191 138.786 80.5752 137.861 78.3662C136.955 76.1383 135.492 75.0244 133.472 75.0244C131.414 75.0244 129.941 76.1383 129.054 78.3662C128.166 80.5752 127.723 84.2191 127.723 89.2979ZM181.106 89.2979C181.106 96.529 179.917 101.882 177.538 105.355C175.178 108.829 171.534 110.566 166.606 110.566C161.83 110.566 158.224 108.773 155.788 105.186C153.371 101.598 152.163 96.3024 152.163 89.2979C152.163 81.9912 153.343 76.6104 155.703 73.1553C158.063 69.6813 161.698 67.9443 166.606 67.9443C171.383 67.9443 174.989 69.7568 177.425 73.3818C179.879 77.0068 181.106 82.3122 181.106 89.2979ZM160.857 89.2979C160.857 94.3766 161.292 98.0205 162.16 100.229C163.048 102.42 164.53 103.515 166.606 103.515C168.646 103.515 170.118 102.401 171.024 100.173C171.931 97.945 172.384 94.32 172.384 89.2979C172.384 84.2191 171.921 80.5752 170.996 78.3662C170.09 76.1383 168.627 75.0244 166.606 75.0244C164.549 75.0244 163.076 76.1383 162.188 78.3662C161.301 80.5752 160.857 84.2191 160.857 89.2979Z" fill="#341212"/>
<path d="M59.1471 100.809L43.3496 102.173" stroke="#341212" stroke-width="6" stroke-miterlimit="10"/>
<path d="M64.2075 79.3378L51.6577 74.168" stroke="#341212" stroke-width="6" stroke-miterlimit="10"/>
<path d="M66.6607 119.921L55.937 131.565" stroke="#341212" stroke-width="6" stroke-miterlimit="10"/>
<path d="M209.392 73.582L225.189 72.2177" stroke="#341212" stroke-width="6" stroke-miterlimit="10"/>
<path d="M200.474 53.2528L212.059 45.9364" stroke="#341212" stroke-width="6" stroke-miterlimit="10"/>
<path d="M205.358 93.6233L217.715 103.215" stroke="#341212" stroke-width="6" stroke-miterlimit="10"/>
<path d="M157.866 214.059L124.51 215.942L128.12 242.235L157.866 241.843V214.059Z" fill="#380000"/>
<path d="M117.211 189.65L88.8774 193.418L92.1738 214.138L120.35 212.49L117.211 189.65Z" fill="#380000"/>
<path d="M161.556 213.823V241.842L187.613 241.45L192.401 212.018L161.556 213.823Z" fill="#380000"/>
<path d="M157.867 210.369V184.233L120.822 189.178L124.04 212.253L157.867 210.369Z" fill="#380000"/>
<path d="M201.662 178.349L196.796 208.095L222.696 206.604L231.643 174.347L201.662 178.349Z" fill="#380000"/>
<path d="M157.867 180.545V153.546L116.74 159.354L120.351 185.568L157.867 180.545Z" fill="#380000"/>
<path d="M120.821 216.178L92.7236 217.747L96.6479 242.627L124.432 242.313L120.821 216.178Z" fill="#380000"/>
<path d="M196.167 211.86L191.3 241.449L209.195 241.214L203.073 263.033H115.169C114.149 263.033 113.364 263.818 113.364 264.838C113.364 265.858 114.149 266.643 115.169 266.643H204.408C205.271 266.643 205.977 266.094 206.213 265.309L221.517 210.369L196.167 211.86Z" fill="#380000"/>
<path d="M262.488 100.49C262.331 99.4697 261.389 98.7633 260.447 98.9203L249.616 100.49C248.91 100.568 248.282 101.118 248.125 101.824L236.823 142.323L206.92 146.561L202.29 174.58L232.742 170.499L251.343 103.943L260.997 102.609C261.939 102.452 262.645 101.51 262.488 100.49Z" fill="#380000"/>
<path d="M197.894 178.896L161.556 183.762V210.133L193.028 208.328L197.894 178.896Z" fill="#380000"/>
<path d="M161.556 152.997V179.996L198.522 175.051L203.075 147.11L161.556 152.997Z" fill="#380000"/>
<path d="M116.74 186.039L113.13 159.825L84.2471 163.906L88.3283 189.807L116.74 186.039Z" fill="#380000"/>
<path d="M124.903 282.733C127.894 282.733 130.318 280.309 130.318 277.318C130.318 274.327 127.894 271.902 124.903 271.902C121.912 271.902 119.487 274.327 119.487 277.318C119.487 280.309 121.912 282.733 124.903 282.733Z" fill="#380000"/>
<path d="M194.911 282.733C197.902 282.733 200.326 280.309 200.326 277.318C200.326 274.327 197.902 271.902 194.911 271.902C191.92 271.902 189.495 274.327 189.495 277.318C189.495 280.309 191.92 282.733 194.911 282.733Z" fill="#380000"/>
<defs>
<linearGradient id="paint0_linear" x1="163" y1="0" x2="163" y2="326" gradientUnits="userSpaceOnUse">
<stop stop-color="#FFC700"/>
<stop offset="1" stop-color="#FC9517"/>
</linearGradient>
<linearGradient id="paint1_linear" x1="137" y1="28" x2="137" y2="148" gradientUnits="userSpaceOnUse">
<stop stop-color="#FFC700"/>
<stop offset="1" stop-color="#FF4070"/>
</linearGradient>
</defs>
</svg>
