<svg width="326" height="326" viewBox="0 0 326 326" fill="none" xmlns="http://www.w3.org/2000/svg">
<circle cx="163" cy="163" r="163" fill="url(#paint0_linear)"/>
<circle cx="137" cy="88" r="60" fill="url(#paint1_linear)"/>
<path d="M115.063 110H86.1201V103.911L96.5137 93.4043C99.5911 90.2513 101.602 88.0706 102.546 86.8623C103.49 85.6351 104.17 84.5023 104.585 83.4639C105 82.4255 105.208 81.3493 105.208 80.2354C105.208 78.5739 104.745 77.3372 103.82 76.5254C102.914 75.7135 101.696 75.3076 100.167 75.3076C98.5622 75.3076 97.0046 75.6758 95.4941 76.4121C93.9837 77.1484 92.4072 78.1963 90.7646 79.5557L86.0068 73.9199C88.0459 72.1829 89.7357 70.9557 91.0762 70.2383C92.4167 69.5208 93.8799 68.9733 95.4658 68.5957C97.0518 68.1992 98.8265 68.001 100.79 68.001C103.377 68.001 105.661 68.473 107.644 69.417C109.626 70.361 111.165 71.6826 112.26 73.3818C113.355 75.0811 113.902 77.0257 113.902 79.2158C113.902 81.1227 113.562 82.9163 112.883 84.5967C112.222 86.2581 111.184 87.9668 109.768 89.7227C108.37 91.4785 105.897 93.9801 102.348 97.2275L97.0234 102.24V102.637H115.063V110ZM134.321 83.5488C138.324 83.5488 141.505 84.6722 143.865 86.9189C146.244 89.1657 147.434 92.2432 147.434 96.1514C147.434 100.777 146.008 104.336 143.157 106.828C140.306 109.32 136.228 110.566 130.923 110.566C126.316 110.566 122.597 109.821 119.765 108.329V100.768C121.256 101.561 122.993 102.212 124.976 102.722C126.958 103.213 128.837 103.458 130.611 103.458C135.954 103.458 138.626 101.268 138.626 96.8877C138.626 92.7152 135.86 90.6289 130.328 90.6289C129.327 90.6289 128.223 90.7327 127.015 90.9404C125.806 91.1292 124.825 91.3369 124.069 91.5635L120.586 89.6943L122.144 68.5957H144.602V76.0156H129.818L129.054 84.1436L130.045 83.9453C131.197 83.681 132.622 83.5488 134.321 83.5488ZM181.106 89.2979C181.106 96.529 179.917 101.882 177.538 105.355C175.178 108.829 171.534 110.566 166.606 110.566C161.83 110.566 158.224 108.773 155.788 105.186C153.371 101.598 152.163 96.3024 152.163 89.2979C152.163 81.9912 153.343 76.6104 155.703 73.1553C158.063 69.6813 161.698 67.9443 166.606 67.9443C171.383 67.9443 174.989 69.7568 177.425 73.3818C179.879 77.0068 181.106 82.3122 181.106 89.2979ZM160.857 89.2979C160.857 94.3766 161.292 98.0205 162.16 100.229C163.048 102.42 164.53 103.515 166.606 103.515C168.646 103.515 170.118 102.401 171.024 100.173C171.931 97.945 172.384 94.32 172.384 89.2979C172.384 84.2191 171.921 80.5752 170.996 78.3662C170.09 76.1383 168.627 75.0244 166.606 75.0244C164.549 75.0244 163.076 76.1383 162.188 78.3662C161.301 80.5752 160.857 84.2191 160.857 89.2979Z" fill="#341212"/>
<path d="M59.1471 100.809L43.3496 102.173" stroke="#341212" stroke-width="6" stroke-miterlimit="10"/>
<path d="M64.2075 79.3378L51.6577 74.168" stroke="#341212" stroke-width="6" stroke-miterlimit="10"/>
<path d="M66.6607 119.921L55.937 131.565" stroke="#341212" stroke-width="6" stroke-miterlimit="10"/>
<path d="M209.392 73.582L225.189 72.2177" stroke="#341212" stroke-width="6" stroke-miterlimit="10"/>
<path d="M200.474 53.2528L212.059 45.9364" stroke="#341212" stroke-width="6" stroke-miterlimit="10"/>
<path d="M205.358 93.6233L217.715 103.215" stroke="#341212" stroke-width="6" stroke-miterlimit="10"/>
<path d="M157.866 214.059L124.51 215.942L128.12 242.235L157.866 241.843V214.059Z" fill="#380000"/>
<path d="M117.211 189.65L88.8774 193.418L92.1738 214.138L120.35 212.49L117.211 189.65Z" fill="#380000"/>
<path d="M161.556 213.823V241.842L187.613 241.45L192.401 212.018L161.556 213.823Z" fill="#380000"/>
<path d="M157.867 210.369V184.233L120.822 189.178L124.04 212.253L157.867 210.369Z" fill="#380000"/>
<path d="M201.662 178.349L196.796 208.095L222.696 206.604L231.643 174.347L201.662 178.349Z" fill="#380000"/>
<path d="M157.867 180.545V153.546L116.74 159.354L120.351 185.568L157.867 180.545Z" fill="#380000"/>
<path d="M120.821 216.178L92.7236 217.747L96.6479 242.627L124.432 242.313L120.821 216.178Z" fill="#380000"/>
<path d="M196.167 211.86L191.3 241.449L209.195 241.214L203.073 263.033H115.169C114.149 263.033 113.364 263.818 113.364 264.838C113.364 265.858 114.149 266.643 115.169 266.643H204.408C205.271 266.643 205.977 266.094 206.213 265.309L221.517 210.369L196.167 211.86Z" fill="#380000"/>
<path d="M262.488 100.49C262.331 99.4697 261.389 98.7633 260.447 98.9203L249.616 100.49C248.91 100.568 248.282 101.118 248.125 101.824L236.823 142.323L206.92 146.561L202.29 174.58L232.742 170.499L251.343 103.943L260.997 102.609C261.939 102.452 262.645 101.51 262.488 100.49Z" fill="#380000"/>
<path d="M197.894 178.896L161.556 183.762V210.133L193.028 208.328L197.894 178.896Z" fill="#380000"/>
<path d="M161.556 152.997V179.996L198.522 175.051L203.075 147.11L161.556 152.997Z" fill="#380000"/>
<path d="M116.74 186.039L113.13 159.825L84.2471 163.906L88.3283 189.807L116.74 186.039Z" fill="#380000"/>
<path d="M124.903 282.733C127.894 282.733 130.318 280.309 130.318 277.318C130.318 274.327 127.894 271.902 124.903 271.902C121.912 271.902 119.487 274.327 119.487 277.318C119.487 280.309 121.912 282.733 124.903 282.733Z" fill="#380000"/>
<path d="M194.911 282.733C197.902 282.733 200.326 280.309 200.326 277.318C200.326 274.327 197.902 271.902 194.911 271.902C191.92 271.902 189.495 274.327 189.495 277.318C189.495 280.309 191.92 282.733 194.911 282.733Z" fill="#380000"/>
<defs>
<linearGradient id="paint0_linear" x1="163" y1="0" x2="163" y2="326" gradientUnits="userSpaceOnUse">
<stop stop-color="#FFC700"/>
<stop offset="1" stop-color="#FC9517"/>
</linearGradient>
<linearGradient id="paint1_linear" x1="137" y1="28" x2="137" y2="148" gradientUnits="userSpaceOnUse">
<stop stop-color="#FFC700"/>
<stop offset="1" stop-color="#FF4070"/>
</linearGradient>
</defs>
</svg>
