<svg width="267" height="268" viewBox="0 0 267 268" fill="none" xmlns="http://www.w3.org/2000/svg">
<circle cx="133.5" cy="134" r="133.5" fill="url(#paint0_linear)"/>
<circle cx="110.5" cy="76" r="44.5" fill="url(#paint1_linear)"/>
<path d="M84.373 97.5L100.457 62.3438H79.334V54.7266H110.066V60.4102L93.8652 97.5H84.373ZM129.988 70.1367C134.129 70.1367 137.42 71.2988 139.861 73.623C142.322 75.9473 143.553 79.1309 143.553 83.1738C143.553 87.959 142.078 91.6406 139.129 94.2188C136.18 96.7969 131.961 98.0859 126.473 98.0859C121.707 98.0859 117.859 97.3145 114.93 95.7715V87.9492C116.473 88.7695 118.27 89.4434 120.32 89.9707C122.371 90.4785 124.314 90.7324 126.15 90.7324C131.678 90.7324 134.441 88.4668 134.441 83.9355C134.441 79.6191 131.58 77.4609 125.857 77.4609C124.822 77.4609 123.68 77.5684 122.43 77.7832C121.18 77.9785 120.164 78.1934 119.383 78.4277L115.779 76.4941L117.391 54.668H140.623V62.3438H125.33L124.539 70.752L125.564 70.5469C126.756 70.2734 128.23 70.1367 129.988 70.1367Z" fill="#341212"/>
<path d="M56.1907 83.122L43.2524 84.2393" stroke="#341212" stroke-width="6" stroke-miterlimit="10"/>
<path d="M60.3359 65.5383L50.0574 61.3035" stroke="#341212" stroke-width="6" stroke-miterlimit="10"/>
<path d="M62.345 98.7752L53.5617 108.312" stroke="#341212" stroke-width="6" stroke-miterlimit="10"/>
<path d="M168.369 71.6357L181.307 70.5195" stroke="#341212" stroke-width="6" stroke-miterlimit="10"/>
<path d="M161.065 54.9864L170.553 48.9942" stroke="#341212" stroke-width="6" stroke-miterlimit="10"/>
<path d="M165.065 88.0505L175.186 95.9068" stroke="#341212" stroke-width="6" stroke-miterlimit="10"/>
<path d="M129.296 175.818L101.976 177.361L104.933 198.895L129.296 198.574V175.818Z" fill="#380000"/>
<path d="M95.998 155.827L72.7925 158.913L75.4923 175.883L98.5692 174.533L95.998 155.827Z" fill="#380000"/>
<path d="M132.317 175.625V198.573L153.658 198.252L157.58 174.146L132.317 175.625Z" fill="#380000"/>
<path d="M129.296 172.797V151.392L98.9548 155.441L101.59 174.34L129.296 172.797Z" fill="#380000"/>
<path d="M165.165 146.571L161.18 170.934L182.392 169.713L189.721 143.293L165.165 146.571Z" fill="#380000"/>
<path d="M129.296 148.37V126.257L95.6128 131.014L98.5697 152.484L129.296 148.37Z" fill="#380000"/>
<path d="M98.9553 177.554L75.9426 178.839L79.1567 199.216L101.912 198.959L98.9553 177.554Z" fill="#380000"/>
<path d="M160.664 174.018L156.679 198.252L171.335 198.059L166.321 215.93H94.3261C93.4905 215.93 92.8477 216.572 92.8477 217.408C92.8477 218.244 93.4905 218.886 94.3261 218.886H167.414C168.121 218.886 168.699 218.436 168.892 217.794L181.427 172.797L160.664 174.018Z" fill="#380000"/>
<path d="M214.982 82.8035C214.853 81.9679 214.082 81.3893 213.311 81.5179L204.44 82.8035C203.861 82.8678 203.347 83.3178 203.218 83.8963L193.962 117.065L169.471 120.537L165.678 143.485L190.619 140.142L205.854 85.6319L213.761 84.5391C214.532 84.4105 215.11 83.6392 214.982 82.8035Z" fill="#380000"/>
<path d="M162.079 147.02L132.317 151.005V172.603L158.094 171.125L162.079 147.02Z" fill="#380000"/>
<path d="M132.317 125.807V147.92L162.594 143.87L166.322 120.986L132.317 125.807Z" fill="#380000"/>
<path d="M95.6124 152.87L92.6555 131.4L69 134.743L72.3426 155.956L95.6124 152.87Z" fill="#380000"/>
<path d="M102.298 232.064C104.748 232.064 106.733 230.078 106.733 227.629C106.733 225.179 104.748 223.193 102.298 223.193C99.8483 223.193 97.8625 225.179 97.8625 227.629C97.8625 230.078 99.8483 232.064 102.298 232.064Z" fill="#380000"/>
<path d="M159.636 232.064C162.085 232.064 164.071 230.078 164.071 227.629C164.071 225.179 162.085 223.193 159.636 223.193C157.186 223.193 155.2 225.179 155.2 227.629C155.2 230.078 157.186 232.064 159.636 232.064Z" fill="#380000"/>
<defs>
<linearGradient id="paint0_linear" x1="133.5" y1="0.5" x2="133.5" y2="267.5" gradientUnits="userSpaceOnUse">
<stop stop-color="#FFC700"/>
<stop offset="1" stop-color="#FC9517"/>
</linearGradient>
<linearGradient id="paint1_linear" x1="110.5" y1="31.5" x2="110.5" y2="120.5" gradientUnits="userSpaceOnUse">
<stop stop-color="#FFC700"/>
<stop offset="1" stop-color="#FF4070"/>
</linearGradient>
</defs>
</svg>
