<svg width="267" height="268" viewBox="0 0 267 268" fill="none" xmlns="http://www.w3.org/2000/svg">
<circle cx="133.5" cy="134" r="133.5" fill="url(#paint0_linear)"/>
<circle cx="110.5" cy="76" r="44.5" fill="url(#paint1_linear)"/>
<path d="M104.896 65.248C104.896 67.9238 104.086 70.1992 102.465 72.0742C100.844 73.9492 98.5684 75.2383 95.6387 75.9414V76.1172C99.0957 76.5469 101.713 77.6016 103.49 79.2812C105.268 80.9414 106.156 83.1875 106.156 86.0195C106.156 90.1406 104.662 93.3535 101.674 95.6582C98.6855 97.9434 94.418 99.0859 88.8711 99.0859C84.2227 99.0859 80.1016 98.3145 76.5078 96.7715V89.0664C78.168 89.9062 79.9941 90.5898 81.9863 91.1172C83.9785 91.6445 85.9512 91.9082 87.9043 91.9082C90.8926 91.9082 93.0996 91.4004 94.5254 90.3848C95.9512 89.3691 96.6641 87.7383 96.6641 85.4922C96.6641 83.4805 95.8438 82.0547 94.2031 81.2148C92.5625 80.375 89.9453 79.9551 86.3516 79.9551H83.0996V73.0117H86.4102C89.7305 73.0117 92.1523 72.582 93.6758 71.7227C95.2188 70.8438 95.9902 69.3496 95.9902 67.2402C95.9902 63.998 93.959 62.377 89.8965 62.377C88.4902 62.377 87.0547 62.6113 85.5898 63.0801C84.1445 63.5488 82.5332 64.3594 80.7559 65.5117L76.5664 59.2715C80.4727 56.459 85.1309 55.0527 90.541 55.0527C94.9746 55.0527 98.4707 55.9512 101.029 57.748C103.607 59.5449 104.896 62.0449 104.896 65.248ZM140.609 77.084C140.609 84.5645 139.379 90.1016 136.918 93.6953C134.477 97.2891 130.707 99.0859 125.609 99.0859C120.668 99.0859 116.938 97.2305 114.418 93.5195C111.918 89.8086 110.668 84.3301 110.668 77.084C110.668 69.5254 111.889 63.959 114.33 60.3848C116.771 56.791 120.531 54.9941 125.609 54.9941C130.551 54.9941 134.281 56.8691 136.801 60.6191C139.34 64.3691 140.609 69.8574 140.609 77.084ZM119.662 77.084C119.662 82.3379 120.111 86.1074 121.01 88.3926C121.928 90.6582 123.461 91.791 125.609 91.791C127.719 91.791 129.242 90.6387 130.18 88.334C131.117 86.0293 131.586 82.2793 131.586 77.084C131.586 71.8301 131.107 68.0605 130.15 65.7754C129.213 63.4707 127.699 62.3184 125.609 62.3184C123.48 62.3184 121.957 63.4707 121.039 65.7754C120.121 68.0605 119.662 71.8301 119.662 77.084Z" fill="#341212"/>
<path d="M56.1907 83.122L43.2524 84.2393" stroke="#341212" stroke-width="6" stroke-miterlimit="10"/>
<path d="M60.3359 65.5383L50.0574 61.3035" stroke="#341212" stroke-width="6" stroke-miterlimit="10"/>
<path d="M62.345 98.7752L53.5617 108.312" stroke="#341212" stroke-width="6" stroke-miterlimit="10"/>
<path d="M168.369 71.6357L181.307 70.5195" stroke="#341212" stroke-width="6" stroke-miterlimit="10"/>
<path d="M161.065 54.9864L170.553 48.9942" stroke="#341212" stroke-width="6" stroke-miterlimit="10"/>
<path d="M165.065 88.0505L175.186 95.9068" stroke="#341212" stroke-width="6" stroke-miterlimit="10"/>
<path d="M129.296 175.818L101.976 177.361L104.933 198.895L129.296 198.574V175.818Z" fill="#380000"/>
<path d="M95.998 155.827L72.7925 158.913L75.4923 175.883L98.5692 174.533L95.998 155.827Z" fill="#380000"/>
<path d="M132.317 175.625V198.573L153.658 198.252L157.58 174.146L132.317 175.625Z" fill="#380000"/>
<path d="M129.296 172.797V151.392L98.9548 155.441L101.59 174.34L129.296 172.797Z" fill="#380000"/>
<path d="M165.165 146.571L161.18 170.934L182.392 169.713L189.721 143.293L165.165 146.571Z" fill="#380000"/>
<path d="M129.296 148.37V126.257L95.6128 131.014L98.5697 152.484L129.296 148.37Z" fill="#380000"/>
<path d="M98.9553 177.554L75.9426 178.839L79.1567 199.216L101.912 198.959L98.9553 177.554Z" fill="#380000"/>
<path d="M160.664 174.018L156.679 198.252L171.335 198.059L166.321 215.93H94.3261C93.4905 215.93 92.8477 216.572 92.8477 217.408C92.8477 218.244 93.4905 218.886 94.3261 218.886H167.414C168.121 218.886 168.699 218.436 168.892 217.794L181.427 172.797L160.664 174.018Z" fill="#380000"/>
<path d="M214.982 82.8035C214.853 81.9679 214.082 81.3893 213.311 81.5179L204.44 82.8035C203.861 82.8678 203.347 83.3178 203.218 83.8963L193.962 117.065L169.471 120.537L165.678 143.485L190.619 140.142L205.854 85.6319L213.761 84.5391C214.532 84.4105 215.11 83.6392 214.982 82.8035Z" fill="#380000"/>
<path d="M162.079 147.02L132.317 151.005V172.603L158.094 171.125L162.079 147.02Z" fill="#380000"/>
<path d="M132.317 125.807V147.92L162.594 143.87L166.322 120.986L132.317 125.807Z" fill="#380000"/>
<path d="M95.6124 152.87L92.6555 131.4L69 134.743L72.3426 155.956L95.6124 152.87Z" fill="#380000"/>
<path d="M102.298 232.064C104.748 232.064 106.733 230.078 106.733 227.629C106.733 225.179 104.748 223.193 102.298 223.193C99.8483 223.193 97.8625 225.179 97.8625 227.629C97.8625 230.078 99.8483 232.064 102.298 232.064Z" fill="#380000"/>
<path d="M159.636 232.064C162.085 232.064 164.071 230.078 164.071 227.629C164.071 225.179 162.085 223.193 159.636 223.193C157.186 223.193 155.2 225.179 155.2 227.629C155.2 230.078 157.186 232.064 159.636 232.064Z" fill="#380000"/>
<defs>
<linearGradient id="paint0_linear" x1="133.5" y1="0.5" x2="133.5" y2="267.5" gradientUnits="userSpaceOnUse">
<stop stop-color="#FFC700"/>
<stop offset="1" stop-color="#FC9517"/>
</linearGradient>
<linearGradient id="paint1_linear" x1="110.5" y1="31.5" x2="110.5" y2="120.5" gradientUnits="userSpaceOnUse">
<stop stop-color="#FFC700"/>
<stop offset="1" stop-color="#FF4070"/>
</linearGradient>
</defs>
</svg>
