<svg width="267" height="268" viewBox="0 0 267 268" fill="none" xmlns="http://www.w3.org/2000/svg">
<circle cx="133.5" cy="134" r="133.5" fill="url(#paint0_linear)"/>
<circle cx="110.5" cy="76" r="44.5" fill="url(#paint1_linear)"/>
<path d="M106.566 98.5H76.625V92.2012L87.377 81.332C90.5605 78.0703 92.6406 75.8145 93.6172 74.5645C94.5938 73.2949 95.2969 72.123 95.7266 71.0488C96.1562 69.9746 96.3711 68.8613 96.3711 67.709C96.3711 65.9902 95.8926 64.7109 94.9355 63.8711C93.998 63.0312 92.7383 62.6113 91.1562 62.6113C89.4961 62.6113 87.8848 62.9922 86.3223 63.7539C84.7598 64.5156 83.1289 65.5996 81.4297 67.0059L76.5078 61.1758C78.6172 59.3789 80.3652 58.1094 81.752 57.3672C83.1387 56.625 84.6523 56.0586 86.293 55.668C87.9336 55.2578 89.7695 55.0527 91.8008 55.0527C94.4766 55.0527 96.8398 55.541 98.8906 56.5176C100.941 57.4941 102.533 58.8613 103.666 60.6191C104.799 62.377 105.365 64.3887 105.365 66.6543C105.365 68.627 105.014 70.4824 104.311 72.2207C103.627 73.9395 102.553 75.707 101.088 77.5234C99.6426 79.3398 97.084 81.9277 93.4121 85.2871L87.9043 90.4727V90.8828H106.566V98.5ZM126.488 71.1367C130.629 71.1367 133.92 72.2988 136.361 74.623C138.822 76.9473 140.053 80.1309 140.053 84.1738C140.053 88.959 138.578 92.6406 135.629 95.2188C132.68 97.7969 128.461 99.0859 122.973 99.0859C118.207 99.0859 114.359 98.3145 111.43 96.7715V88.9492C112.973 89.7695 114.77 90.4434 116.82 90.9707C118.871 91.4785 120.814 91.7324 122.65 91.7324C128.178 91.7324 130.941 89.4668 130.941 84.9355C130.941 80.6191 128.08 78.4609 122.357 78.4609C121.322 78.4609 120.18 78.5684 118.93 78.7832C117.68 78.9785 116.664 79.1934 115.883 79.4277L112.279 77.4941L113.891 55.668H137.123V63.3438H121.83L121.039 71.752L122.064 71.5469C123.256 71.2734 124.73 71.1367 126.488 71.1367Z" fill="#341212"/>
<path d="M168.369 71.6357L181.307 70.5195" stroke="#341212" stroke-width="6" stroke-miterlimit="10"/>
<path d="M161.065 54.9864L170.553 48.9942" stroke="#341212" stroke-width="6" stroke-miterlimit="10"/>
<path d="M165.065 88.0505L175.186 95.9068" stroke="#341212" stroke-width="6" stroke-miterlimit="10"/>
<path d="M129.296 175.818L101.976 177.361L104.933 198.895L129.296 198.574V175.818Z" fill="#380000"/>
<path d="M95.998 155.827L72.7925 158.913L75.4923 175.883L98.5692 174.533L95.998 155.827Z" fill="#380000"/>
<path d="M132.317 175.625V198.573L153.658 198.252L157.58 174.146L132.317 175.625Z" fill="#380000"/>
<path d="M129.296 172.797V151.392L98.9548 155.441L101.59 174.34L129.296 172.797Z" fill="#380000"/>
<path d="M165.165 146.571L161.18 170.934L182.392 169.713L189.721 143.293L165.165 146.571Z" fill="#380000"/>
<path d="M129.296 148.37V126.257L95.6128 131.014L98.5697 152.484L129.296 148.37Z" fill="#380000"/>
<path d="M98.9553 177.554L75.9426 178.839L79.1567 199.216L101.912 198.959L98.9553 177.554Z" fill="#380000"/>
<path d="M160.664 174.018L156.679 198.252L171.335 198.059L166.321 215.93H94.3261C93.4905 215.93 92.8477 216.572 92.8477 217.408C92.8477 218.244 93.4905 218.886 94.3261 218.886H167.414C168.121 218.886 168.699 218.436 168.892 217.794L181.427 172.797L160.664 174.018Z" fill="#380000"/>
<path d="M214.982 82.8035C214.853 81.9679 214.082 81.3893 213.311 81.5179L204.44 82.8035C203.861 82.8678 203.347 83.3178 203.218 83.8963L193.962 117.065L169.471 120.537L165.678 143.485L190.619 140.142L205.854 85.6319L213.761 84.5391C214.532 84.4105 215.11 83.6392 214.982 82.8035Z" fill="#380000"/>
<path d="M162.079 147.02L132.317 151.005V172.603L158.094 171.125L162.079 147.02Z" fill="#380000"/>
<path d="M132.317 125.807V147.92L162.594 143.87L166.322 120.986L132.317 125.807Z" fill="#380000"/>
<path d="M95.6124 152.87L92.6555 131.4L69 134.743L72.3426 155.956L95.6124 152.87Z" fill="#380000"/>
<path d="M102.298 232.064C104.748 232.064 106.733 230.078 106.733 227.629C106.733 225.179 104.748 223.193 102.298 223.193C99.8483 223.193 97.8625 225.179 97.8625 227.629C97.8625 230.078 99.8483 232.064 102.298 232.064Z" fill="#380000"/>
<path d="M159.636 232.064C162.085 232.064 164.071 230.078 164.071 227.629C164.071 225.179 162.085 223.193 159.636 223.193C157.186 223.193 155.2 225.179 155.2 227.629C155.2 230.078 157.186 232.064 159.636 232.064Z" fill="#380000"/>
<defs>
<linearGradient id="paint0_linear" x1="133.5" y1="0.5" x2="133.5" y2="267.5" gradientUnits="userSpaceOnUse">
<stop stop-color="#FFC700"/>
<stop offset="1" stop-color="#FC9517"/>
</linearGradient>
<linearGradient id="paint1_linear" x1="110.5" y1="31.5" x2="110.5" y2="120.5" gradientUnits="userSpaceOnUse">
<stop stop-color="#FFC700"/>
<stop offset="1" stop-color="#FF4070"/>
</linearGradient>
</defs>
</svg>
