<svg width="267" height="268" viewBox="0 0 267 268" fill="none" xmlns="http://www.w3.org/2000/svg">
<circle cx="133.5" cy="134" r="133.5" fill="url(#paint0_linear)"/>
<circle cx="110.5" cy="76" r="44.5" fill="url(#paint1_linear)"/>
<path d="M110.066 97.5H80.125V91.2012L90.877 80.332C94.0605 77.0703 96.1406 74.8145 97.1172 73.5645C98.0938 72.2949 98.7969 71.123 99.2266 70.0488C99.6562 68.9746 99.8711 67.8613 99.8711 66.709C99.8711 64.9902 99.3926 63.7109 98.4355 62.8711C97.498 62.0312 96.2383 61.6113 94.6562 61.6113C92.9961 61.6113 91.3848 61.9922 89.8223 62.7539C88.2598 63.5156 86.6289 64.5996 84.9297 66.0059L80.0078 60.1758C82.1172 58.3789 83.8652 57.1094 85.252 56.3672C86.6387 55.625 88.1523 55.0586 89.793 54.668C91.4336 54.2578 93.2695 54.0527 95.3008 54.0527C97.9766 54.0527 100.34 54.541 102.391 55.5176C104.441 56.4941 106.033 57.8613 107.166 59.6191C108.299 61.377 108.865 63.3887 108.865 65.6543C108.865 67.627 108.514 69.4824 107.811 71.2207C107.127 72.9395 106.053 74.707 104.588 76.5234C103.143 78.3398 100.584 80.9277 96.9121 84.2871L91.4043 89.4727V89.8828H110.066V97.5ZM144.109 76.084C144.109 83.5645 142.879 89.1016 140.418 92.6953C137.977 96.2891 134.207 98.0859 129.109 98.0859C124.168 98.0859 120.438 96.2305 117.918 92.5195C115.418 88.8086 114.168 83.3301 114.168 76.084C114.168 68.5254 115.389 62.959 117.83 59.3848C120.271 55.791 124.031 53.9941 129.109 53.9941C134.051 53.9941 137.781 55.8691 140.301 59.6191C142.84 63.3691 144.109 68.8574 144.109 76.084ZM123.162 76.084C123.162 81.3379 123.611 85.1074 124.51 87.3926C125.428 89.6582 126.961 90.791 129.109 90.791C131.219 90.791 132.742 89.6387 133.68 87.334C134.617 85.0293 135.086 81.2793 135.086 76.084C135.086 70.8301 134.607 67.0605 133.65 64.7754C132.713 62.4707 131.199 61.3184 129.109 61.3184C126.98 61.3184 125.457 62.4707 124.539 64.7754C123.621 67.0605 123.162 70.8301 123.162 76.084Z" fill="#341212"/>
<path d="M56.1907 83.122L43.2524 84.2393" stroke="#341212" stroke-width="6" stroke-miterlimit="10"/>
<path d="M60.3359 65.5383L50.0574 61.3035" stroke="#341212" stroke-width="6" stroke-miterlimit="10"/>
<path d="M62.345 98.7755L53.5617 108.313" stroke="#341212" stroke-width="6" stroke-miterlimit="10"/>
<path d="M168.369 71.6357L181.307 70.5195" stroke="#341212" stroke-width="6" stroke-miterlimit="10"/>
<path d="M161.065 54.9864L170.553 48.9942" stroke="#341212" stroke-width="6" stroke-miterlimit="10"/>
<path d="M165.065 88.0505L175.186 95.9068" stroke="#341212" stroke-width="6" stroke-miterlimit="10"/>
<path d="M129.296 175.818L101.976 177.361L104.933 198.895L129.296 198.574V175.818Z" fill="#380000"/>
<path d="M95.998 155.827L72.7925 158.913L75.4923 175.883L98.5692 174.533L95.998 155.827Z" fill="#380000"/>
<path d="M132.317 175.625V198.573L153.658 198.252L157.58 174.146L132.317 175.625Z" fill="#380000"/>
<path d="M129.296 172.797V151.392L98.9548 155.441L101.59 174.34L129.296 172.797Z" fill="#380000"/>
<path d="M165.165 146.571L161.18 170.934L182.392 169.713L189.721 143.293L165.165 146.571Z" fill="#380000"/>
<path d="M129.296 148.37V126.257L95.6128 131.014L98.5697 152.484L129.296 148.37Z" fill="#380000"/>
<path d="M98.9553 177.554L75.9426 178.839L79.1567 199.216L101.912 198.959L98.9553 177.554Z" fill="#380000"/>
<path d="M160.664 174.018L156.679 198.252L171.335 198.059L166.321 215.93H94.3261C93.4905 215.93 92.8477 216.572 92.8477 217.408C92.8477 218.244 93.4905 218.886 94.3261 218.886H167.414C168.121 218.886 168.699 218.436 168.892 217.794L181.427 172.797L160.664 174.018Z" fill="#380000"/>
<path d="M214.982 82.8035C214.853 81.9679 214.082 81.3893 213.311 81.5179L204.44 82.8035C203.861 82.8678 203.347 83.3178 203.218 83.8963L193.962 117.065L169.471 120.537L165.678 143.485L190.619 140.142L205.854 85.6319L213.761 84.5391C214.532 84.4105 215.11 83.6392 214.982 82.8035Z" fill="#380000"/>
<path d="M162.079 147.02L132.317 151.005V172.603L158.094 171.125L162.079 147.02Z" fill="#380000"/>
<path d="M132.317 125.807V147.92L162.594 143.87L166.322 120.986L132.317 125.807Z" fill="#380000"/>
<path d="M95.6124 152.87L92.6555 131.4L69 134.743L72.3426 155.956L95.6124 152.87Z" fill="#380000"/>
<path d="M102.298 232.064C104.748 232.064 106.733 230.078 106.733 227.629C106.733 225.179 104.748 223.193 102.298 223.193C99.8483 223.193 97.8625 225.179 97.8625 227.629C97.8625 230.078 99.8483 232.064 102.298 232.064Z" fill="#380000"/>
<path d="M159.636 232.064C162.085 232.064 164.071 230.078 164.071 227.629C164.071 225.179 162.085 223.193 159.636 223.193C157.186 223.193 155.2 225.179 155.2 227.629C155.2 230.078 157.186 232.064 159.636 232.064Z" fill="#380000"/>
<defs>
<linearGradient id="paint0_linear" x1="133.5" y1="0.5" x2="133.5" y2="267.5" gradientUnits="userSpaceOnUse">
<stop stop-color="#FFC700"/>
<stop offset="1" stop-color="#FC9517"/>
</linearGradient>
<linearGradient id="paint1_linear" x1="110.5" y1="31.5" x2="110.5" y2="120.5" gradientUnits="userSpaceOnUse">
<stop stop-color="#FFC700"/>
<stop offset="1" stop-color="#FF4070"/>
</linearGradient>
</defs>
</svg>
