<svg width="267" height="268" viewBox="0 0 267 268" fill="none" xmlns="http://www.w3.org/2000/svg">
<circle cx="133.5" cy="134" r="133.5" fill="url(#paint0_linear)"/>
<circle cx="110.5" cy="76" r="44.5" fill="url(#paint1_linear)"/>
<path d="M122.035 64.248C122.035 66.9238 121.225 69.1992 119.604 71.0742C117.982 72.9492 115.707 74.2383 112.777 74.9414V75.1172C116.234 75.5469 118.852 76.6016 120.629 78.2812C122.406 79.9414 123.295 82.1875 123.295 85.0195C123.295 89.1406 121.801 92.3535 118.812 94.6582C115.824 96.9434 111.557 98.0859 106.01 98.0859C101.361 98.0859 97.2402 97.3145 93.6465 95.7715V88.0664C95.3066 88.9062 97.1328 89.5898 99.125 90.1172C101.117 90.6445 103.09 90.9082 105.043 90.9082C108.031 90.9082 110.238 90.4004 111.664 89.3848C113.09 88.3691 113.803 86.7383 113.803 84.4922C113.803 82.4805 112.982 81.0547 111.342 80.2148C109.701 79.375 107.084 78.9551 103.49 78.9551H100.238V72.0117H103.549C106.869 72.0117 109.291 71.582 110.814 70.7227C112.357 69.8438 113.129 68.3496 113.129 66.2402C113.129 62.998 111.098 61.377 107.035 61.377C105.629 61.377 104.193 61.6113 102.729 62.0801C101.283 62.5488 99.6719 63.3594 97.8945 64.5117L93.7051 58.2715C97.6113 55.459 102.27 54.0527 107.68 54.0527C112.113 54.0527 115.609 54.9512 118.168 56.748C120.746 58.5449 122.035 61.0449 122.035 64.248Z" fill="#341212"/>
<path d="M56.1906 83.122L43.2524 84.2393" stroke="#341212" stroke-width="6" stroke-miterlimit="10"/>
<path d="M60.3358 65.5383L50.0574 61.3035" stroke="#341212" stroke-width="6" stroke-miterlimit="10"/>
<path d="M62.3449 98.7752L53.5617 108.312" stroke="#341212" stroke-width="6" stroke-miterlimit="10"/>
<path d="M168.369 71.6357L181.307 70.5195" stroke="#341212" stroke-width="6" stroke-miterlimit="10"/>
<path d="M161.065 54.9864L170.553 48.9942" stroke="#341212" stroke-width="6" stroke-miterlimit="10"/>
<path d="M165.065 88.0505L175.185 95.9068" stroke="#341212" stroke-width="6" stroke-miterlimit="10"/>
<path d="M129.296 175.818L101.976 177.361L104.933 198.895L129.296 198.574V175.818Z" fill="#380000"/>
<path d="M95.998 155.827L72.7925 158.913L75.4923 175.883L98.5692 174.533L95.998 155.827Z" fill="#380000"/>
<path d="M132.317 175.625V198.573L153.658 198.252L157.58 174.146L132.317 175.625Z" fill="#380000"/>
<path d="M129.296 172.797V151.392L98.9551 155.441L101.591 174.34L129.296 172.797Z" fill="#380000"/>
<path d="M165.165 146.571L161.18 170.934L182.392 169.713L189.721 143.293L165.165 146.571Z" fill="#380000"/>
<path d="M129.296 148.37V126.257L95.6128 131.014L98.5697 152.484L129.296 148.37Z" fill="#380000"/>
<path d="M98.9553 177.554L75.9426 178.839L79.1567 199.216L101.912 198.959L98.9553 177.554Z" fill="#380000"/>
<path d="M160.664 174.018L156.679 198.252L171.335 198.059L166.321 215.93H94.3261C93.4905 215.93 92.8477 216.572 92.8477 217.408C92.8477 218.244 93.4905 218.886 94.3261 218.886H167.414C168.121 218.886 168.699 218.436 168.892 217.794L181.427 172.797L160.664 174.018Z" fill="#380000"/>
<path d="M214.982 82.8035C214.853 81.9679 214.082 81.3893 213.311 81.5179L204.44 82.8035C203.861 82.8678 203.347 83.3178 203.218 83.8963L193.962 117.065L169.471 120.537L165.678 143.485L190.619 140.142L205.854 85.6319L213.761 84.5391C214.532 84.4105 215.11 83.6392 214.982 82.8035Z" fill="#380000"/>
<path d="M162.079 147.02L132.317 151.005V172.603L158.094 171.125L162.079 147.02Z" fill="#380000"/>
<path d="M132.317 125.807V147.92L162.594 143.87L166.322 120.986L132.317 125.807Z" fill="#380000"/>
<path d="M95.6124 152.87L92.6555 131.4L69 134.743L72.3426 155.956L95.6124 152.87Z" fill="#380000"/>
<path d="M102.298 232.064C104.748 232.064 106.733 230.078 106.733 227.629C106.733 225.179 104.748 223.193 102.298 223.193C99.8483 223.193 97.8625 225.179 97.8625 227.629C97.8625 230.078 99.8483 232.064 102.298 232.064Z" fill="#380000"/>
<path d="M159.636 232.064C162.085 232.064 164.071 230.078 164.071 227.629C164.071 225.179 162.085 223.193 159.636 223.193C157.186 223.193 155.2 225.179 155.2 227.629C155.2 230.078 157.186 232.064 159.636 232.064Z" fill="#380000"/>
<defs>
<linearGradient id="paint0_linear" x1="133.5" y1="0.5" x2="133.5" y2="267.5" gradientUnits="userSpaceOnUse">
<stop stop-color="#FFC700"/>
<stop offset="1" stop-color="#FC9517"/>
</linearGradient>
<linearGradient id="paint1_linear" x1="110.5" y1="31.5" x2="110.5" y2="120.5" gradientUnits="userSpaceOnUse">
<stop stop-color="#FFC700"/>
<stop offset="1" stop-color="#FF4070"/>
</linearGradient>
</defs>
</svg>
