<svg width="267" height="268" viewBox="0 0 267 268" fill="none" xmlns="http://www.w3.org/2000/svg">
<circle cx="133.5" cy="134" r="133.5" fill="url(#paint0_linear)"/>
<circle cx="110.5" cy="76" r="44.5" fill="url(#paint1_linear)"/>
<path d="M99.0078 98.5H89.9551V73.7148L90.043 69.6426L90.1895 65.1895C88.6855 66.6934 87.6406 67.6797 87.0547 68.1484L82.1328 72.1035L77.7676 66.6543L91.5664 55.668H99.0078V98.5ZM140.609 77.084C140.609 84.5645 139.379 90.1016 136.918 93.6953C134.477 97.2891 130.707 99.0859 125.609 99.0859C120.668 99.0859 116.938 97.2305 114.418 93.5195C111.918 89.8086 110.668 84.3301 110.668 77.084C110.668 69.5254 111.889 63.959 114.33 60.3848C116.771 56.791 120.531 54.9941 125.609 54.9941C130.551 54.9941 134.281 56.8691 136.801 60.6191C139.34 64.3691 140.609 69.8574 140.609 77.084ZM119.662 77.084C119.662 82.3379 120.111 86.1074 121.01 88.3926C121.928 90.6582 123.461 91.791 125.609 91.791C127.719 91.791 129.242 90.6387 130.18 88.334C131.117 86.0293 131.586 82.2793 131.586 77.084C131.586 71.8301 131.107 68.0605 130.15 65.7754C129.213 63.4707 127.699 62.3184 125.609 62.3184C123.48 62.3184 121.957 63.4707 121.039 65.7754C120.121 68.0605 119.662 71.8301 119.662 77.084Z" fill="#341212"/>
<path d="M56.1907 83.122L43.2524 84.2393" stroke="#341212" stroke-width="6" stroke-miterlimit="10"/>
<path d="M60.3358 65.5383L50.0574 61.3035" stroke="#341212" stroke-width="6" stroke-miterlimit="10"/>
<path d="M62.345 98.7752L53.5617 108.312" stroke="#341212" stroke-width="6" stroke-miterlimit="10"/>
<path d="M168.369 71.6357L181.307 70.5195" stroke="#341212" stroke-width="6" stroke-miterlimit="10"/>
<path d="M161.065 54.9864L170.553 48.9942" stroke="#341212" stroke-width="6" stroke-miterlimit="10"/>
<path d="M165.065 88.0505L175.186 95.9068" stroke="#341212" stroke-width="6" stroke-miterlimit="10"/>
<path d="M129.296 175.818L101.976 177.361L104.933 198.895L129.296 198.574V175.818Z" fill="#380000"/>
<path d="M95.998 155.827L72.7925 158.913L75.4923 175.883L98.5692 174.533L95.998 155.827Z" fill="#380000"/>
<path d="M132.317 175.625V198.573L153.658 198.252L157.58 174.146L132.317 175.625Z" fill="#380000"/>
<path d="M129.296 172.797V151.392L98.9551 155.441L101.591 174.34L129.296 172.797Z" fill="#380000"/>
<path d="M165.165 146.571L161.18 170.934L182.393 169.713L189.721 143.293L165.165 146.571Z" fill="#380000"/>
<path d="M129.296 148.37V126.257L95.6128 131.014L98.5697 152.484L129.296 148.37Z" fill="#380000"/>
<path d="M98.955 177.554L75.9424 178.839L79.1564 199.216L101.912 198.959L98.955 177.554Z" fill="#380000"/>
<path d="M160.664 174.018L156.679 198.252L171.335 198.059L166.321 215.93H94.3261C93.4905 215.93 92.8477 216.572 92.8477 217.408C92.8477 218.244 93.4905 218.886 94.3261 218.886H167.414C168.121 218.886 168.699 218.436 168.892 217.794L181.427 172.797L160.664 174.018Z" fill="#380000"/>
<path d="M214.982 82.8035C214.853 81.9679 214.082 81.3893 213.311 81.5179L204.44 82.8035C203.861 82.8678 203.347 83.3178 203.219 83.8963L193.962 117.065L169.471 120.537L165.678 143.485L190.619 140.142L205.854 85.6319L213.761 84.5391C214.532 84.4105 215.111 83.6392 214.982 82.8035Z" fill="#380000"/>
<path d="M162.079 147.02L132.317 151.005V172.603L158.094 171.125L162.079 147.02Z" fill="#380000"/>
<path d="M132.317 125.807V147.92L162.594 143.87L166.322 120.986L132.317 125.807Z" fill="#380000"/>
<path d="M95.6124 152.87L92.6555 131.4L69 134.743L72.3426 155.956L95.6124 152.87Z" fill="#380000"/>
<path d="M102.298 232.064C104.748 232.064 106.733 230.078 106.733 227.629C106.733 225.179 104.748 223.193 102.298 223.193C99.8483 223.193 97.8625 225.179 97.8625 227.629C97.8625 230.078 99.8483 232.064 102.298 232.064Z" fill="#380000"/>
<path d="M159.636 232.064C162.085 232.064 164.071 230.078 164.071 227.629C164.071 225.179 162.085 223.193 159.636 223.193C157.186 223.193 155.2 225.179 155.2 227.629C155.2 230.078 157.186 232.064 159.636 232.064Z" fill="#380000"/>
<defs>
<linearGradient id="paint0_linear" x1="133.5" y1="0.5" x2="133.5" y2="267.5" gradientUnits="userSpaceOnUse">
<stop stop-color="#FFC700"/>
<stop offset="1" stop-color="#FC9517"/>
</linearGradient>
<linearGradient id="paint1_linear" x1="110.5" y1="31.5" x2="110.5" y2="120.5" gradientUnits="userSpaceOnUse">
<stop stop-color="#FFC700"/>
<stop offset="1" stop-color="#FF4070"/>
</linearGradient>
</defs>
</svg>
