<svg width="321" height="191" viewBox="0 0 321 191" fill="none" xmlns="http://www.w3.org/2000/svg">
<path d="M261.893 8.30997C240.676 12.5067 226.319 31.8214 227.512 52.9879L191.915 70.1053L230.916 67.6127C238.701 85.931 258.404 96.9641 278.637 92.9619C301.821 88.3761 316.897 65.6831 312.276 42.3259C307.656 18.9688 285.076 3.72417 261.893 8.30997Z" fill="url(#paint0_linear)" stroke="white" stroke-width="3.9279" stroke-miterlimit="10" stroke-linecap="round" stroke-linejoin="round"/>
<path d="M266.728 69.4772C266.56 68.5702 266.554 67.7015 266.77 66.7854C266.986 65.8693 267.376 65.0612 267.866 64.3768C268.417 63.6069 269.081 63.0305 269.832 62.5081C270.658 61.9699 271.521 61.641 272.485 61.4359C273.449 61.2307 274.364 61.1808 275.318 61.3403C276.272 61.4998 277.104 61.8303 277.8 62.2622C278.496 62.694 279.156 63.351 279.669 64.0395C280.194 64.7978 280.497 65.6034 280.664 66.5104C280.832 67.4173 280.838 68.2861 280.622 69.2021C280.406 70.1182 280.016 70.9263 279.526 71.6107C279.036 72.2951 278.311 72.957 277.56 73.4794C276.735 74.0176 275.871 74.3465 274.907 74.5517C273.944 74.7568 273.028 74.8067 272.074 74.6473C271.12 74.4878 270.289 74.1573 269.593 73.7254C268.809 73.2395 268.236 72.6366 267.723 71.9481C267.198 71.1898 266.895 70.3841 266.728 69.4772ZM264.297 48.3873L261.063 30.8763C260.522 27.9462 262.604 25.0376 265.718 24.3748C268.831 23.712 271.79 25.5475 272.331 28.4776L275.565 45.9887C276.106 48.9188 274.024 51.8273 270.91 52.4901C267.797 53.1529 264.838 51.3175 264.297 48.3873Z" fill="white"/>
<path d="M57.0089 157.892C57.2388 159.099 58.5033 159.904 59.7679 159.617L65.9755 158.41C67.24 158.18 68.0447 156.973 67.7573 155.766L64.8259 141.856C64.596 140.649 63.3315 139.844 62.067 140.132L55.8594 141.339C54.5948 141.569 53.7901 142.776 54.0775 143.983L57.0089 157.892Z" fill="#002C51"/>
<path d="M63.6754 146.57V145.363C64.3077 145.421 64.9399 145.478 65.5722 145.536L67.7564 155.767C67.9863 156.974 67.1816 158.181 65.9746 158.411L64.3077 158.756L59.7669 159.675C58.5024 159.905 57.2954 159.158 57.008 157.951L56.7781 156.859C60.859 155.077 63.6754 151.169 63.6754 146.57Z" fill="#001133"/>
<path d="M27.9255 120.533C27.9255 120.533 39.766 180.77 48.9625 186.92C48.9625 186.92 58.044 193.818 71.8387 188.415C71.8387 188.415 56.722 132.546 57.1818 120.821L27.9255 120.533Z" fill="#8ED8F8"/>
<path d="M64.4807 189.506C62.2391 181.23 50.1687 135.477 48.9617 119.958L57.181 120.015C56.7212 131.798 71.8379 187.61 71.8379 187.61C69.1939 188.644 66.7798 189.219 64.4807 189.506Z" fill="#76B4CF"/>
<path d="M66.377 116.394V125.303C66.377 130.878 61.7213 135.419 55.916 135.419H33.7295C27.9817 135.419 23.2686 130.878 23.2686 125.303V116.394H66.377Z" fill="#002C51"/>
<path d="M31.7178 127.66H57.9278C61.204 127.66 64.1354 126.453 66.3195 124.441V125.361C66.3195 130.936 61.6638 135.477 55.8586 135.477H33.7295C27.9817 135.477 23.2686 130.936 23.2686 125.361V124.441C25.5102 126.396 28.4416 127.66 31.7178 127.66Z" fill="#001537"/>
<path d="M27.9248 69.2051V123.579C12.8655 122.89 0.910118 110.992 0.910118 96.3922C0.85264 81.7928 12.8655 69.8948 27.9248 69.2051Z" fill="#002C51"/>
<path d="M52.0663 69.1475H27.9255V123.522H52.0663V69.1475Z" fill="#00568B"/>
<path d="M162.078 23.1074C158.745 31.3842 156.33 61.0429 156.33 96.3918C156.33 131.683 158.802 161.342 162.078 169.619C150.238 155.996 109.946 123.579 52.0654 123.579V69.1473C109.946 69.1473 150.238 36.7297 162.078 23.1074Z" fill="#8ED8F8"/>
<path d="M154.434 96.3911C154.434 136.856 157.825 169.618 162.078 169.618C166.274 169.618 169.723 136.798 169.723 96.3911C169.723 55.9266 166.332 23.1641 162.078 23.1641C161.159 23.1067 154.434 55.9266 154.434 96.3911Z" fill="#002447"/>
<path d="M1.31177 91.6792C1.31177 91.6218 1.31177 91.6218 1.31177 91.6792C1.42672 90.9895 1.59916 90.3572 1.77159 89.725C1.82907 89.5526 1.82907 89.4376 1.88655 89.2652C2.05898 88.6904 2.23142 88.0581 2.46133 87.4834C2.5188 87.3109 2.57628 87.1385 2.63376 86.9661C2.86367 86.3913 3.09358 85.8165 3.3235 85.2992C3.38097 85.1268 3.49593 84.9543 3.55341 84.7819C3.8408 84.2646 4.07071 83.6898 4.41558 83.1725C4.53053 83.0001 4.58801 82.8276 4.70297 82.7127C4.99036 82.1954 5.33522 81.6781 5.68009 81.1608C5.79505 81.0458 5.85253 80.9309 5.96748 80.8159C7.11704 79.2065 8.49651 77.7121 9.99094 76.3901C10.1634 76.2751 10.2783 76.1027 10.4508 75.9878C10.7956 75.7004 11.198 75.413 11.5428 75.1256C11.8302 74.8957 12.1176 74.6658 12.405 74.4933C12.7499 74.2634 13.0948 74.0335 13.4396 73.8036C13.7845 73.5737 14.1294 73.3438 14.4742 73.1713C14.8191 72.9414 15.164 72.769 15.5088 72.5966C15.9112 72.3667 16.3135 72.1942 16.7159 72.0218C17.0607 71.8494 17.4056 71.6769 17.7505 71.562C18.2103 71.3895 18.6126 71.2171 19.0725 71.0447C19.4173 70.9297 19.7622 70.8147 20.1071 70.6998C20.5669 70.5274 21.0842 70.4124 21.6015 70.2974C21.9464 70.24 22.2337 70.125 22.5786 70.0675C23.1534 69.9526 23.7282 69.8376 24.303 69.7227C24.5903 69.6652 24.8777 69.6077 25.1651 69.5502C26.0273 69.4353 26.8895 69.3203 27.8091 69.3203V84.0922H20.8543V84.1496C13.3821 84.3795 6.54226 87.196 1.31177 91.6792Z" fill="#00639D"/>
<path d="M52.0663 83.9193C50.6293 83.9768 49.1924 83.9768 47.7554 83.9768H27.9255V69.1475H52.0663V83.9193Z" fill="#1283C6"/>
<path d="M52.0654 69.1473C53.7323 69.1473 55.3417 69.0898 56.9511 69.0898C57.4684 69.0898 57.9282 69.0323 58.4455 69.0323C59.595 68.9748 60.7446 68.9174 61.8367 68.8599C62.354 68.8024 62.8713 68.8024 63.3886 68.7449C64.6531 68.63 65.8601 68.5725 67.1247 68.4001C67.4695 68.3426 67.7569 68.3426 68.1018 68.2851C69.6537 68.1127 71.1481 67.9402 72.6425 67.7103C73.0449 67.6529 73.4472 67.5954 73.8496 67.5379C74.9991 67.3655 76.0912 67.193 77.1833 67.0206C77.7006 66.9631 78.1604 66.8482 78.6777 66.7907C79.7698 66.6182 80.8044 66.3883 81.839 66.2159C82.2414 66.1584 82.7012 66.0435 83.1035 65.986C84.5405 65.6986 85.92 65.4112 87.3569 65.0663C87.5868 65.0089 87.8167 64.9514 88.0466 64.8939C89.1962 64.6065 90.4032 64.3191 91.5528 64.0317C92.0126 63.9168 92.4724 63.8018 92.9323 63.6294C93.8519 63.342 94.829 63.1121 95.7487 62.8247C96.2085 62.7097 96.6683 62.5373 97.1282 62.4223C98.2202 62.0775 99.3123 61.7326 100.404 61.3878C100.634 61.3303 100.864 61.2153 101.094 61.1578C102.359 60.7555 103.623 60.2957 104.83 59.8358C105.29 59.6634 105.692 59.491 106.095 59.376C106.899 59.0886 107.762 58.7438 108.566 58.4564C109.026 58.2839 109.486 58.1115 110.003 57.8816C110.808 57.5367 111.613 57.2493 112.36 56.9045C112.762 56.732 113.165 56.5596 113.567 56.3872C114.659 55.9273 115.751 55.41 116.843 54.9502C117.245 54.7778 117.705 54.5479 118.108 54.3754C118.797 54.0306 119.487 53.7432 120.177 53.3983C120.694 53.1684 121.154 52.881 121.671 52.6511C122.246 52.3637 122.821 52.0763 123.453 51.7315C123.97 51.5015 124.43 51.2141 124.948 50.9842C125.58 50.6394 126.155 50.352 126.729 50.0071C127.591 49.5473 128.396 49.0875 129.201 48.6276C129.661 48.3403 130.178 48.1103 130.638 47.8229C131.213 47.4781 131.73 47.1907 132.305 46.8458C132.707 46.6159 133.052 46.386 133.454 46.1561C134.029 45.8112 134.546 45.4664 135.121 45.1215C135.408 44.9491 135.696 44.7766 135.983 44.5467C137.995 43.2822 139.892 42.0177 141.731 40.6957C141.903 40.5807 142.018 40.4658 142.191 40.4083C142.823 40.0059 143.398 39.5461 143.973 39.1438C144.088 39.0863 144.145 38.9713 144.26 38.9139C152.537 32.8787 158.63 27.1309 162.136 23.1074C160.756 26.6136 159.492 33.9708 158.515 44.0294C157.882 44.5467 157.25 45.064 156.56 45.6388C136.328 61.9625 99.8296 82.7121 52.1229 83.9191V69.1473H52.0654Z" fill="#B1E3FA"/>
<path d="M178.69 98.5763C178.69 98.4614 178.632 98.3464 178.632 98.2314C178.69 98.3464 178.69 98.4614 178.69 98.5763Z" fill="#00568B"/>
<path d="M156.33 77.4814C168.861 78.1137 178.804 88.1149 178.804 100.358C178.804 112.6 168.861 122.602 156.33 123.234V77.4814Z" fill="#8ED8F8"/>
<path d="M24.6482 123.234C24.016 123.119 23.3837 123.004 22.7515 122.889C22.5216 122.832 22.2916 122.774 22.0617 122.717C21.4295 122.544 20.7972 122.372 20.165 122.199C19.9925 122.142 19.8201 122.084 19.6477 122.027C18.0957 121.51 16.5438 120.82 15.1644 120.015C14.9919 119.9 14.762 119.785 14.5896 119.67C14.0723 119.383 13.6125 119.095 13.0952 118.751C12.8653 118.578 12.6353 118.463 12.4629 118.291C12.0031 117.946 11.5433 117.601 11.1409 117.256C10.9685 117.084 10.7386 116.969 10.5661 116.796C9.99135 116.279 9.41657 115.762 8.84179 115.244C8.66936 115.072 8.55441 114.957 8.38197 114.785C7.97963 114.382 7.63476 113.98 7.23241 113.52C7.0025 113.29 6.83007 113.003 6.60016 112.715C6.31277 112.371 6.08285 112.026 5.79546 111.681C5.56555 111.393 5.39312 111.106 5.16321 110.761C4.9333 110.416 4.70338 110.014 4.47347 109.669C4.30104 109.382 4.1286 109.037 3.95617 108.749C3.6113 108.175 3.32391 107.542 3.03652 106.91C2.86409 106.565 2.74913 106.22 2.63418 105.876C2.51922 105.531 2.40426 105.186 2.28931 104.898C6.42772 106.795 11.0834 108.002 15.9691 108.232H27.9245V123.579C27.0623 123.521 26.2001 123.464 25.338 123.349C25.1081 123.291 24.8781 123.234 24.6482 123.234Z" fill="#001537"/>
<path d="M46.1461 108.232C48.1578 108.29 50.112 108.29 52.0663 108.347V123.579H27.9255V108.232H46.1461Z" fill="#00335A"/>
<path d="M157.997 143.696C159.032 156.283 160.411 165.537 162.078 169.618C155.986 162.606 142.248 150.535 122.533 140.534C122.418 140.477 122.303 140.419 122.246 140.362C121.384 139.96 120.522 139.5 119.659 139.097C119.544 139.04 119.43 138.982 119.315 138.925C116.786 137.718 114.142 136.511 111.383 135.419C111.038 135.246 110.693 135.131 110.348 134.959C109.601 134.672 108.854 134.384 108.049 134.039C107.589 133.867 107.129 133.694 106.727 133.522C105.98 133.235 105.232 132.947 104.485 132.717C103.968 132.545 103.451 132.372 102.991 132.2C101.784 131.798 100.519 131.338 99.2548 130.936C98.6225 130.706 97.9903 130.533 97.358 130.361C96.6683 130.131 96.036 129.958 95.3463 129.786C94.6565 129.614 93.9668 129.384 93.3345 129.211C92.7023 129.039 92.0126 128.866 91.3803 128.694C90.5756 128.464 89.7709 128.292 88.9087 128.062C88.334 127.889 87.7017 127.774 87.1269 127.602C85.8624 127.314 84.5979 127.027 83.3334 126.74C82.7586 126.625 82.1838 126.51 81.609 126.395C80.7469 126.222 79.8272 126.05 78.965 125.877C78.3903 125.763 77.758 125.648 77.1258 125.59C76.1486 125.418 75.229 125.303 74.2519 125.13C73.7346 125.073 73.2173 124.958 72.7 124.9C71.263 124.728 69.7686 124.555 68.2742 124.383C67.8718 124.326 67.412 124.326 67.0096 124.268C65.8601 124.153 64.7105 124.038 63.561 123.981C62.9862 123.923 62.4689 123.923 61.8941 123.866C60.802 123.808 59.7099 123.751 58.6179 123.693C58.1005 123.693 57.5832 123.636 57.0659 123.636C55.514 123.578 53.9047 123.578 52.2953 123.578H52.2378V108.347C97.9328 109.784 134.431 127.257 157.997 143.696Z" fill="#7EC0DC"/>
<path d="M162.078 23.1074C158.744 31.3842 156.33 61.0429 156.33 96.3918C156.33 131.683 158.802 161.342 162.078 169.619C159.377 166.515 155.181 162.434 149.663 158.008C145.065 138.178 142.708 117.946 142.593 97.7138C142.478 76.6194 144.835 55.4675 149.663 34.7755C155.181 30.2922 159.377 26.2112 162.078 23.1074Z" fill="#00568B"/>
<path d="M149.663 34.7755C155.181 30.3496 159.377 26.2112 162.078 23.1074C160.699 26.6136 159.434 33.9708 158.457 44.0294C157.825 44.5467 157.192 45.064 156.503 45.6388C153.399 48.1678 149.893 50.7543 146.042 53.3983C147.019 47.1332 148.226 40.9256 149.663 34.7755Z" fill="#1283C6"/>
<path d="M162.078 169.618C159.377 166.514 155.181 162.433 149.663 158.007C147.939 150.593 146.559 143.178 145.467 135.648C150.008 138.292 154.204 141.051 158.055 143.695C159.032 156.283 160.469 165.537 162.078 169.618Z" fill="#003D67"/>
<path d="M163.976 99.4956C163.976 105.416 166.792 110.186 170.298 110.186C173.804 110.186 176.621 105.416 176.621 99.4956C176.621 93.5754 173.804 88.8047 170.298 88.8047C166.792 88.8047 163.976 93.5754 163.976 99.4956Z" fill="#B9E5FB"/>
<path d="M88.0544 109L97.8591 86.8713H85.4958V80.4846H106.101V85.0354L96.0427 109H88.0544ZM118.379 90.2893C120.019 90.2893 121.497 90.6734 122.812 91.4417C124.14 92.1969 125.169 93.2711 125.898 94.6643C126.64 96.0575 127.011 97.6656 127.011 99.4885C127.011 102.679 126.048 105.127 124.121 106.832C122.207 108.538 119.303 109.391 115.41 109.391C112.077 109.391 109.355 108.877 107.246 107.848V101.52C108.379 102.041 109.655 102.47 111.074 102.809C112.506 103.147 113.737 103.317 114.765 103.317C116.198 103.317 117.298 103.017 118.066 102.418C118.834 101.806 119.219 100.908 119.219 99.7229C119.219 98.6292 118.828 97.7763 118.047 97.1643C117.265 96.5523 116.08 96.2463 114.492 96.2463C113.281 96.2463 111.972 96.4742 110.566 96.9299L107.734 95.5237L108.808 80.4456H125.097V86.8713H115.371L115.019 90.6409C116.035 90.4456 116.758 90.3414 117.187 90.3284C117.617 90.3023 118.014 90.2893 118.379 90.2893Z" fill="#00568B"/>
<defs>
<linearGradient id="paint0_linear" x1="243.346" y1="11.9786" x2="260.09" y2="96.6306" gradientUnits="userSpaceOnUse">
<stop stop-color="#FFC700"/>
<stop offset="1" stop-color="#FF4070"/>
</linearGradient>
</defs>
</svg>
