<svg width="321" height="191" viewBox="0 0 321 191" fill="none" xmlns="http://www.w3.org/2000/svg">
<path d="M261.722 8.30997C240.505 12.5067 226.148 31.8214 227.341 52.9879L191.744 70.1053L230.745 67.6127C238.53 85.931 258.233 96.9641 278.466 92.9619C301.65 88.3761 316.725 65.6831 312.105 42.3259C307.485 18.9688 284.905 3.72417 261.722 8.30997Z" fill="url(#paint0_linear)" stroke="white" stroke-width="3.9279" stroke-miterlimit="10" stroke-linecap="round" stroke-linejoin="round"/>
<path d="M266.557 69.4772C266.389 68.5702 266.383 67.7015 266.599 66.7854C266.815 65.8693 267.205 65.0612 267.695 64.3768C268.246 63.6069 268.91 63.0305 269.661 62.5081C270.486 61.9699 271.35 61.641 272.314 61.4358C273.278 61.2307 274.193 61.1808 275.147 61.3402C276.101 61.4997 276.932 61.8302 277.629 62.2621C278.325 62.694 278.985 63.3509 279.498 64.0394C280.023 64.7977 280.326 65.6033 280.493 66.5103C280.661 67.4172 280.667 68.286 280.451 69.2021C280.235 70.1181 279.845 70.9263 279.355 71.6106C278.865 72.295 278.14 72.957 277.389 73.4794C276.564 74.0176 275.7 74.3465 274.736 74.5516C273.772 74.7568 272.857 74.8067 271.903 74.6472C270.949 74.4878 270.117 74.1572 269.421 73.7253C268.638 73.2395 268.065 72.6365 267.552 71.948C267.027 71.1897 266.724 70.3841 266.557 69.4772ZM264.126 48.3873L260.892 30.8763C260.351 27.9462 262.433 25.0376 265.547 24.3748C268.66 23.712 271.619 25.5475 272.16 28.4776L275.394 45.9886C275.935 48.9187 273.852 51.8273 270.739 52.4901C267.625 53.1529 264.667 51.3175 264.126 48.3873Z" fill="white"/>
<path d="M56.8378 157.892C57.0677 159.099 58.3322 159.904 59.5967 159.617L65.8043 158.41C67.0689 158.18 67.8735 156.973 67.5862 155.766L64.6548 141.856C64.4249 140.649 63.1604 139.844 61.8958 140.132L55.6882 141.339C54.4237 141.569 53.619 142.776 53.9064 143.983L56.8378 157.892Z" fill="#002C51"/>
<path d="M63.5043 146.57V145.363C64.1365 145.421 64.7688 145.478 65.4011 145.536L67.5852 155.767C67.8151 156.974 67.0104 158.181 65.8034 158.411L64.1365 158.756L59.5958 159.675C58.3313 159.905 57.1242 159.158 56.8368 157.951L56.6069 156.859C60.6879 155.077 63.5043 151.169 63.5043 146.57Z" fill="#001133"/>
<path d="M27.7544 120.533C27.7544 120.533 39.5949 180.77 48.7913 186.92C48.7913 186.92 57.8729 193.818 71.6676 188.415C71.6676 188.415 56.5509 132.546 57.0107 120.821L27.7544 120.533Z" fill="#8ED8F8"/>
<path d="M64.3096 189.506C62.0679 181.23 49.9976 135.477 48.7905 119.958L57.0099 120.015C56.5501 131.798 71.6668 187.61 71.6668 187.61C69.0228 188.644 66.6087 189.219 64.3096 189.506Z" fill="#76B4CF"/>
<path d="M66.2059 116.394V125.303C66.2059 130.878 61.5502 135.419 55.7449 135.419H33.5584C27.8106 135.419 23.0974 130.878 23.0974 125.303V116.394H66.2059Z" fill="#002C51"/>
<path d="M31.5467 127.66H57.7566C61.0329 127.66 63.9642 126.453 66.1484 124.441V125.361C66.1484 130.936 61.4927 135.477 55.6874 135.477H33.5584C27.8106 135.477 23.0974 130.936 23.0974 125.361V124.441C25.3391 126.396 28.2704 127.66 31.5467 127.66Z" fill="#001537"/>
<path d="M27.7536 69.2051V123.579C12.6944 122.89 0.738975 110.992 0.738975 96.3922C0.681497 81.7928 12.6944 69.8948 27.7536 69.2051Z" fill="#002C51"/>
<path d="M51.8951 69.1475H27.7544V123.522H51.8951V69.1475Z" fill="#00568B"/>
<path d="M161.907 23.1074C158.573 31.3842 156.159 61.0429 156.159 96.3918C156.159 131.683 158.631 161.342 161.907 169.619C150.067 155.996 109.775 123.579 51.8943 123.579V69.1473C109.775 69.1473 150.067 36.7297 161.907 23.1074Z" fill="#8ED8F8"/>
<path d="M154.262 96.3911C154.262 136.856 157.654 169.618 161.907 169.618C166.103 169.618 169.552 136.798 169.552 96.3911C169.552 55.9266 166.16 23.1641 161.907 23.1641C160.987 23.1067 154.262 55.9266 154.262 96.3911Z" fill="#002447"/>
<path d="M1.14062 91.6792C1.14062 91.6218 1.14062 91.6218 1.14062 91.6792C1.25558 90.9895 1.42802 90.3572 1.60045 89.725C1.65793 89.5526 1.65793 89.4376 1.7154 89.2652C1.88784 88.6904 2.06027 88.0581 2.29018 87.4834C2.34766 87.3109 2.40514 87.1385 2.46262 86.9661C2.69253 86.3913 2.92244 85.8165 3.15235 85.2992C3.20983 85.1268 3.32479 84.9543 3.38227 84.7819C3.66966 84.2646 3.89957 83.6898 4.24444 83.1725C4.35939 83.0001 4.41687 82.8276 4.53183 82.7127C4.81922 82.1954 5.16408 81.6781 5.50895 81.1608C5.62391 81.0458 5.68138 80.9309 5.79634 80.8159C6.9459 79.2065 8.32537 77.7121 9.8198 76.3901C9.99223 76.2751 10.1072 76.1027 10.2796 75.9878C10.6245 75.7004 11.0268 75.413 11.3717 75.1256C11.6591 74.8957 11.9465 74.6658 12.2339 74.4933C12.5787 74.2634 12.9236 74.0335 13.2685 73.8036C13.6133 73.5737 13.9582 73.3438 14.3031 73.1713C14.6479 72.9414 14.9928 72.769 15.3377 72.5966C15.74 72.3667 16.1424 72.1942 16.5447 72.0218C16.8896 71.8494 17.2345 71.6769 17.5793 71.562C18.0391 71.3895 18.4415 71.2171 18.9013 71.0447C19.2462 70.9297 19.5911 70.8147 19.9359 70.6998C20.3957 70.5274 20.913 70.4124 21.4303 70.2974C21.7752 70.24 22.0626 70.125 22.4075 70.0675C22.9823 69.9526 23.557 69.8376 24.1318 69.7227C24.4192 69.6652 24.7066 69.6077 24.994 69.5502C25.8562 69.4353 26.7183 69.3203 27.638 69.3203V84.0922H20.6831V84.1496C13.211 84.3795 6.37112 87.196 1.14062 91.6792Z" fill="#00639D"/>
<path d="M51.8951 83.9193C50.4582 83.9768 49.0212 83.9768 47.5843 83.9768H27.7544V69.1475H51.8951V83.9193Z" fill="#1283C6"/>
<path d="M51.8943 69.1473C53.5611 69.1473 55.1705 69.0898 56.7799 69.0898C57.2972 69.0898 57.757 69.0323 58.2743 69.0323C59.4239 68.9748 60.5735 68.9174 61.6655 68.8599C62.1828 68.8024 62.7002 68.8024 63.2175 68.7449C64.482 68.63 65.689 68.5725 66.9535 68.4001C67.2984 68.3426 67.5858 68.3426 67.9306 68.2851C69.4826 68.1127 70.977 67.9402 72.4714 67.7103C72.8737 67.6529 73.2761 67.5954 73.6784 67.5379C74.828 67.3655 75.9201 67.193 77.0122 67.0206C77.5295 66.9631 77.9893 66.8482 78.5066 66.7907C79.5987 66.6182 80.6333 66.3883 81.6679 66.2159C82.0702 66.1584 82.53 66.0435 82.9324 65.986C84.3693 65.6986 85.7488 65.4112 87.1858 65.0663C87.4157 65.0089 87.6456 64.9514 87.8755 64.8939C89.0251 64.6065 90.2321 64.3191 91.3817 64.0317C91.8415 63.9168 92.3013 63.8018 92.7611 63.6294C93.6808 63.342 94.6579 63.1121 95.5775 62.8247C96.0374 62.7097 96.4972 62.5373 96.957 62.4223C98.0491 62.0775 99.1412 61.7326 100.233 61.3878C100.463 61.3303 100.693 61.2153 100.923 61.1578C102.188 60.7555 103.452 60.2957 104.659 59.8358C105.119 59.6634 105.521 59.491 105.924 59.376C106.728 59.0886 107.59 58.7438 108.395 58.4564C108.855 58.2839 109.315 58.1115 109.832 57.8816C110.637 57.5367 111.441 57.2493 112.189 56.9045C112.591 56.732 112.993 56.5596 113.396 56.3872C114.488 55.9273 115.58 55.41 116.672 54.9502C117.074 54.7778 117.534 54.5479 117.936 54.3754C118.626 54.0306 119.316 53.7432 120.006 53.3983C120.523 53.1684 120.983 52.881 121.5 52.6511C122.075 52.3637 122.65 52.0763 123.282 51.7315C123.799 51.5015 124.259 51.2141 124.776 50.9842C125.409 50.6394 125.983 50.352 126.558 50.0071C127.42 49.5473 128.225 49.0875 129.03 48.6276C129.49 48.3403 130.007 48.1103 130.467 47.8229C131.041 47.4781 131.559 47.1907 132.134 46.8458C132.536 46.6159 132.881 46.386 133.283 46.1561C133.858 45.8112 134.375 45.4664 134.95 45.1215C135.237 44.9491 135.525 44.7766 135.812 44.5467C137.824 43.2822 139.721 42.0177 141.56 40.6957C141.732 40.5807 141.847 40.4658 142.02 40.4083C142.652 40.0059 143.227 39.5461 143.802 39.1438C143.917 39.0863 143.974 38.9713 144.089 38.9139C152.366 32.8787 158.458 27.1309 161.965 23.1074C160.585 26.6136 159.321 33.9708 158.343 44.0294C157.711 44.5467 157.079 45.064 156.389 45.6388C136.157 61.9625 99.6585 82.7121 51.9518 83.9191V69.1473H51.8943Z" fill="#B1E3FA"/>
<path d="M178.518 98.5763C178.518 98.4614 178.461 98.3464 178.461 98.2314C178.518 98.3464 178.518 98.4614 178.518 98.5763Z" fill="#00568B"/>
<path d="M156.159 77.4814C168.689 78.1137 178.633 88.1149 178.633 100.358C178.633 112.6 168.689 122.602 156.159 123.234V77.4814Z" fill="#8ED8F8"/>
<path d="M24.4771 123.234C23.8448 123.119 23.2126 123.004 22.5803 122.889C22.3504 122.832 22.1205 122.774 21.8906 122.717C21.2583 122.544 20.6261 122.372 19.9938 122.199C19.8214 122.142 19.6489 122.084 19.4765 122.027C17.9246 121.51 16.3727 120.82 14.9932 120.015C14.8208 119.9 14.5909 119.785 14.4184 119.67C13.9011 119.383 13.4413 119.095 12.924 118.751C12.6941 118.578 12.4642 118.463 12.2918 118.291C11.8319 117.946 11.3721 117.601 10.9698 117.256C10.7973 117.084 10.5674 116.969 10.395 116.796C9.82021 116.279 9.24543 115.762 8.67065 115.244C8.49822 115.072 8.38326 114.957 8.21083 114.785C7.80849 114.382 7.46362 113.98 7.06127 113.52C6.83136 113.29 6.65893 113.003 6.42901 112.715C6.14162 112.371 5.91171 112.026 5.62432 111.681C5.39441 111.393 5.22198 111.106 4.99206 110.761C4.76215 110.416 4.53224 110.014 4.30233 109.669C4.12989 109.382 3.95746 109.037 3.78503 108.749C3.44016 108.175 3.15277 107.542 2.86538 106.91C2.69294 106.565 2.57799 106.22 2.46303 105.876C2.34808 105.531 2.23312 105.186 2.11816 104.898C6.25658 106.795 10.9123 108.002 15.7979 108.232H27.7533V123.579C26.8912 123.521 26.029 123.464 25.1668 123.349C24.9369 123.291 24.707 123.234 24.4771 123.234Z" fill="#001537"/>
<path d="M45.9749 108.232C47.9866 108.29 49.9409 108.29 51.8951 108.347V123.579H27.7544V108.232H45.9749Z" fill="#00335A"/>
<path d="M157.826 143.696C158.861 156.283 160.24 165.537 161.907 169.618C155.815 162.606 142.077 150.535 122.362 140.534C122.247 140.477 122.133 140.419 122.075 140.362C121.213 139.96 120.351 139.5 119.489 139.097C119.374 139.04 119.259 138.982 119.144 138.925C116.615 137.718 113.971 136.511 111.212 135.419C110.867 135.246 110.522 135.131 110.177 134.959C109.43 134.672 108.683 134.384 107.878 134.039C107.418 133.867 106.958 133.694 106.556 133.522C105.809 133.235 105.062 132.947 104.314 132.717C103.797 132.545 103.28 132.372 102.82 132.2C101.613 131.798 100.348 131.338 99.0839 130.936C98.4516 130.706 97.8194 130.533 97.1871 130.361C96.4974 130.131 95.8651 129.958 95.1754 129.786C94.4856 129.614 93.7959 129.384 93.1636 129.211C92.5314 129.039 91.8417 128.866 91.2094 128.694C90.4047 128.464 89.6 128.292 88.7378 128.062C88.1631 127.889 87.5308 127.774 86.956 127.602C85.6915 127.314 84.427 127.027 83.1625 126.74C82.5877 126.625 82.0129 126.51 81.4381 126.395C80.576 126.222 79.6563 126.05 78.7941 125.877C78.2194 125.763 77.5871 125.648 76.9549 125.59C75.9777 125.418 75.0581 125.303 74.081 125.13C73.5637 125.073 73.0464 124.958 72.5291 124.9C71.0921 124.728 69.5977 124.555 68.1033 124.383C67.7009 124.326 67.2411 124.326 66.8387 124.268C65.6892 124.153 64.5396 124.038 63.3901 123.981C62.8153 123.923 62.298 123.923 61.7232 123.866C60.6311 123.808 59.539 123.751 58.447 123.693C57.9297 123.693 57.4124 123.636 56.895 123.636C55.3431 123.578 53.7338 123.578 52.1244 123.578H52.0669V108.347C97.7619 109.784 134.26 127.257 157.826 143.696Z" fill="#7EC0DC"/>
<path d="M161.907 23.1074C158.573 31.3842 156.159 61.0429 156.159 96.3918C156.159 131.683 158.631 161.342 161.907 169.619C159.206 166.515 155.01 162.434 149.492 158.008C144.894 138.178 142.537 117.946 142.422 97.7138C142.307 76.6194 144.664 55.4675 149.492 34.7755C155.01 30.2922 159.206 26.2112 161.907 23.1074Z" fill="#00568B"/>
<path d="M149.492 34.7755C155.01 30.3496 159.205 26.2112 161.907 23.1074C160.527 26.6136 159.263 33.9708 158.286 44.0294C157.654 44.5467 157.021 45.064 156.332 45.6388C153.228 48.1678 149.722 50.7543 145.871 53.3983C146.848 47.1332 148.055 40.9256 149.492 34.7755Z" fill="#1283C6"/>
<path d="M161.908 169.618C159.206 166.514 155.01 162.433 149.492 158.007C147.768 150.593 146.388 143.178 145.296 135.648C149.837 138.292 154.033 141.051 157.884 143.695C158.861 156.283 160.298 165.537 161.908 169.618Z" fill="#003D67"/>
<path d="M163.804 99.4956C163.804 105.416 166.621 110.186 170.127 110.186C173.633 110.186 176.45 105.416 176.45 99.4956C176.45 93.5754 173.633 88.8047 170.127 88.8047C166.621 88.8047 163.804 93.5754 163.804 99.4956Z" fill="#B9E5FB"/>
<path d="M115.477 86.637C115.477 88.4078 114.937 89.9312 113.856 91.2073C112.775 92.4703 111.213 93.3883 109.168 93.9612V94.0784C113.934 94.6773 116.317 96.9299 116.317 100.836C116.317 103.492 115.262 105.582 113.153 107.106C111.056 108.629 108.14 109.391 104.403 109.391C102.866 109.391 101.441 109.28 100.125 109.059C98.8234 108.837 97.4106 108.434 95.8872 107.848V101.442C97.1372 102.08 98.4067 102.555 99.6958 102.867C100.998 103.167 102.196 103.317 103.29 103.317C104.982 103.317 106.213 103.082 106.981 102.614C107.762 102.132 108.153 101.383 108.153 100.367C108.153 99.5862 107.951 98.9872 107.547 98.5706C107.144 98.1409 106.493 97.8219 105.594 97.6135C104.696 97.3922 103.524 97.2815 102.079 97.2815H100.321V91.4807H102.118C106.037 91.4807 107.997 90.4781 107.997 88.4729C107.997 87.7177 107.704 87.1578 107.118 86.7932C106.545 86.4286 105.77 86.2463 104.793 86.2463C102.971 86.2463 101.083 86.8583 99.1294 88.0823L95.9263 82.926C97.4367 81.8844 98.9797 81.1422 100.555 80.6995C102.144 80.2568 103.96 80.0354 106.004 80.0354C108.96 80.0354 111.278 80.6213 112.958 81.7932C114.637 82.9651 115.477 84.5797 115.477 86.637Z" fill="#00568B"/>
<defs>
<linearGradient id="paint0_linear" x1="243.174" y1="11.9786" x2="259.919" y2="96.6306" gradientUnits="userSpaceOnUse">
<stop stop-color="#FFC700"/>
<stop offset="1" stop-color="#FF4070"/>
</linearGradient>
</defs>
</svg>
