<svg width="320" height="191" viewBox="0 0 320 191" fill="none" xmlns="http://www.w3.org/2000/svg">
<path d="M260.983 8.30997C239.766 12.5067 225.409 31.8214 226.603 52.9879L191.005 70.1053L230.007 67.6127C237.791 85.931 257.494 96.9641 277.727 92.9619C300.911 88.3761 315.987 65.6831 311.367 42.3259C306.746 18.9688 284.167 3.72417 260.983 8.30997Z" fill="url(#paint0_linear)" stroke="white" stroke-width="3.9279" stroke-miterlimit="10" stroke-linecap="round" stroke-linejoin="round"/>
<path d="M265.818 69.4772C265.65 68.5702 265.644 67.7015 265.86 66.7854C266.076 65.8693 266.466 65.0612 266.956 64.3768C267.507 63.6069 268.171 63.0305 268.922 62.5081C269.748 61.9699 270.612 61.641 271.575 61.4359C272.539 61.2307 273.454 61.1808 274.408 61.3403C275.362 61.4998 276.194 61.8303 276.89 62.2622C277.586 62.694 278.247 63.351 278.759 64.0395C279.284 64.7978 279.587 65.6034 279.754 66.5104C279.922 67.4173 279.928 68.2861 279.712 69.2021C279.496 70.1182 279.106 70.9263 278.616 71.6107C278.126 72.2951 277.401 72.957 276.65 73.4794C275.825 74.0176 274.961 74.3465 273.997 74.5517C273.034 74.7568 272.118 74.8067 271.164 74.6473C270.21 74.4878 269.379 74.1573 268.683 73.7254C267.9 73.2395 267.326 72.6366 266.814 71.9481C266.288 71.1898 265.985 70.3841 265.818 69.4772ZM263.387 48.3873L260.153 30.8763C259.612 27.9462 261.695 25.0376 264.808 24.3748C267.921 23.712 270.88 25.5475 271.421 28.4776L274.655 45.9886C275.196 48.9188 273.114 51.8273 270 52.4901C266.887 53.1529 263.928 51.3175 263.387 48.3873Z" fill="white"/>
<path d="M56.099 157.892C56.3289 159.099 57.5934 159.904 58.858 159.617L65.0656 158.41C66.3301 158.18 67.1348 156.973 66.8474 155.766L63.916 141.856C63.6861 140.649 62.4216 139.844 61.1571 140.132L54.9494 141.339C53.6849 141.569 52.8802 142.776 53.1676 143.983L56.099 157.892Z" fill="#002C51"/>
<path d="M62.7655 146.57V145.363C63.3978 145.421 64.03 145.478 64.6623 145.536L66.8465 155.767C67.0764 156.974 66.2717 158.181 65.0646 158.411L63.3978 158.756L58.857 159.675C57.5925 159.905 56.3855 159.158 56.0981 157.951L55.8682 156.859C59.9491 155.077 62.7655 151.169 62.7655 146.57Z" fill="#001133"/>
<path d="M27.0156 120.533C27.0156 120.533 38.8561 180.77 48.0526 186.92C48.0526 186.92 57.1341 193.818 70.9288 188.415C70.9288 188.415 55.8121 132.546 56.2719 120.821L27.0156 120.533Z" fill="#8ED8F8"/>
<path d="M63.5708 189.506C61.3292 181.23 49.2588 135.477 48.0518 119.958L56.2711 120.015C55.8113 131.798 70.928 187.61 70.928 187.61C68.284 188.644 65.8699 189.219 63.5708 189.506Z" fill="#76B4CF"/>
<path d="M65.4671 116.394V125.303C65.4671 130.878 60.8114 135.419 55.0061 135.419H32.8196C27.0718 135.419 22.3586 130.878 22.3586 125.303V116.394H65.4671Z" fill="#002C51"/>
<path d="M30.8079 127.66H57.0179C60.2941 127.66 63.2255 126.453 65.4096 124.441V125.361C65.4096 130.936 60.7539 135.477 54.9487 135.477H32.8196C27.0718 135.477 22.3586 130.936 22.3586 125.361V124.441C24.6003 126.396 27.5317 127.66 30.8079 127.66Z" fill="#001537"/>
<path d="M27.0149 69.2051V123.579C11.9556 122.89 0.0002054 110.992 0.0002054 96.3922C-0.0572726 81.7928 11.9556 69.8948 27.0149 69.2051Z" fill="#002C51"/>
<path d="M51.1564 69.1475H27.0156V123.522H51.1564V69.1475Z" fill="#00568B"/>
<path d="M161.168 23.1074C157.835 31.3842 155.421 61.0429 155.421 96.3918C155.421 131.683 157.892 161.342 161.168 169.619C149.328 155.996 109.036 123.579 51.1555 123.579V69.1473C109.036 69.1473 149.328 36.7297 161.168 23.1074Z" fill="#8ED8F8"/>
<path d="M153.524 96.3911C153.524 136.856 156.915 169.618 161.168 169.618C165.364 169.618 168.813 136.798 168.813 96.3911C168.813 55.9266 165.422 23.1641 161.168 23.1641C160.249 23.1067 153.524 55.9266 153.524 96.3911Z" fill="#002447"/>
<path d="M0.401855 91.6792C0.401855 91.6218 0.401855 91.6218 0.401855 91.6792C0.516811 90.9895 0.689247 90.3572 0.861681 89.725C0.919159 89.5526 0.919157 89.4376 0.976635 89.2652C1.14907 88.6904 1.3215 88.0581 1.55141 87.4834C1.60889 87.3109 1.66637 87.1385 1.72385 86.9661C1.95376 86.3913 2.18367 85.8165 2.41358 85.2992C2.47106 85.1268 2.58602 84.9543 2.6435 84.7819C2.93089 84.2646 3.1608 83.6898 3.50567 83.1725C3.62062 83.0001 3.6781 82.8276 3.79306 82.7127C4.08045 82.1954 4.42531 81.6781 4.77018 81.1608C4.88514 81.0458 4.94261 80.9309 5.05757 80.8159C6.20713 79.2065 7.5866 77.7121 9.08103 76.3901C9.25346 76.2751 9.36842 76.1027 9.54085 75.9878C9.88572 75.7004 10.2881 75.413 10.6329 75.1256C10.9203 74.8957 11.2077 74.6658 11.4951 74.4933C11.84 74.2634 12.1848 74.0335 12.5297 73.8036C12.8746 73.5737 13.2194 73.3438 13.5643 73.1713C13.9092 72.9414 14.254 72.769 14.5989 72.5966C15.0013 72.3667 15.4036 72.1942 15.806 72.0218C16.1508 71.8494 16.4957 71.6769 16.8406 71.562C17.3004 71.3895 17.7027 71.2171 18.1625 71.0447C18.5074 70.9297 18.8523 70.8147 19.1972 70.6998C19.657 70.5274 20.1743 70.4124 20.6916 70.2974C21.0364 70.24 21.3238 70.125 21.6687 70.0675C22.2435 69.9526 22.8183 69.8376 23.393 69.7227C23.6804 69.6652 23.9678 69.6077 24.2552 69.5502C25.1174 69.4353 25.9796 69.3203 26.8992 69.3203V84.0922H19.9444V84.1496C12.4722 84.3795 5.63235 87.196 0.401855 91.6792Z" fill="#00639D"/>
<path d="M51.1564 83.9193C49.7194 83.9768 48.2825 83.9768 46.8455 83.9768H27.0156V69.1475H51.1564V83.9193Z" fill="#1283C6"/>
<path d="M51.1555 69.1473C52.8224 69.1473 54.4318 69.0898 56.0411 69.0898C56.5584 69.0898 57.0183 69.0323 57.5356 69.0323C58.6851 68.9748 59.8347 68.9174 60.9268 68.8599C61.4441 68.8024 61.9614 68.8024 62.4787 68.7449C63.7432 68.63 64.9502 68.5725 66.2148 68.4001C66.5596 68.3426 66.847 68.3426 67.1919 68.2851C68.7438 68.1127 70.2382 67.9402 71.7326 67.7103C72.135 67.6529 72.5373 67.5954 72.9397 67.5379C74.0892 67.3655 75.1813 67.193 76.2734 67.0206C76.7907 66.9631 77.2505 66.8482 77.7678 66.7907C78.8599 66.6182 79.8945 66.3883 80.9291 66.2159C81.3315 66.1584 81.7913 66.0435 82.1936 65.986C83.6306 65.6986 85.01 65.4112 86.447 65.0663C86.6769 65.0089 86.9068 64.9514 87.1367 64.8939C88.2863 64.6065 89.4933 64.3191 90.6429 64.0317C91.1027 63.9168 91.5625 63.8018 92.0224 63.6294C92.942 63.342 93.9191 63.1121 94.8388 62.8247C95.2986 62.7097 95.7584 62.5373 96.2183 62.4223C97.3103 62.0775 98.4024 61.7326 99.4945 61.3878C99.7244 61.3303 99.9543 61.2153 100.184 61.1578C101.449 60.7555 102.713 60.2957 103.92 59.8358C104.38 59.6634 104.782 59.491 105.185 59.376C105.989 59.0886 106.852 58.7438 107.656 58.4564C108.116 58.2839 108.576 58.1115 109.093 57.8816C109.898 57.5367 110.703 57.2493 111.45 56.9045C111.852 56.732 112.255 56.5596 112.657 56.3872C113.749 55.9273 114.841 55.41 115.933 54.9502C116.336 54.7778 116.795 54.5479 117.198 54.3754C117.887 54.0306 118.577 53.7432 119.267 53.3983C119.784 53.1684 120.244 52.881 120.761 52.6511C121.336 52.3637 121.911 52.0763 122.543 51.7315C123.06 51.5015 123.52 51.2141 124.038 50.9842C124.67 50.6394 125.245 50.352 125.819 50.0071C126.682 49.5473 127.486 49.0875 128.291 48.6276C128.751 48.3403 129.268 48.1103 129.728 47.8229C130.303 47.4781 130.82 47.1907 131.395 46.8458C131.797 46.6159 132.142 46.386 132.544 46.1561C133.119 45.8112 133.636 45.4664 134.211 45.1215C134.499 44.9491 134.786 44.7766 135.073 44.5467C137.085 43.2822 138.982 42.0177 140.821 40.6957C140.994 40.5807 141.109 40.4658 141.281 40.4083C141.913 40.0059 142.488 39.5461 143.063 39.1438C143.178 39.0863 143.235 38.9713 143.35 38.9139C151.627 32.8787 157.72 27.1309 161.226 23.1074C159.846 26.6136 158.582 33.9708 157.605 44.0294C156.972 44.5467 156.34 45.064 155.65 45.6388C135.418 61.9625 98.9197 82.7121 51.213 83.9191V69.1473H51.1555Z" fill="#B1E3FA"/>
<path d="M177.78 98.5763C177.78 98.4614 177.722 98.3464 177.722 98.2314C177.78 98.3464 177.78 98.4614 177.78 98.5763Z" fill="#00568B"/>
<path d="M155.42 77.4814C167.951 78.1137 177.894 88.1149 177.894 100.358C177.894 112.6 167.951 122.602 155.42 123.234V77.4814Z" fill="#8ED8F8"/>
<path d="M23.7383 123.234C23.1061 123.119 22.4738 123.004 21.8416 122.889C21.6116 122.832 21.3817 122.774 21.1518 122.717C20.5196 122.544 19.8873 122.372 19.255 122.199C19.0826 122.142 18.9102 122.084 18.7377 122.027C17.1858 121.51 15.6339 120.82 14.2545 120.015C14.082 119.9 13.8521 119.785 13.6797 119.67C13.1624 119.383 12.7026 119.095 12.1853 118.751C11.9553 118.578 11.7254 118.463 11.553 118.291C11.0932 117.946 10.6333 117.601 10.231 117.256C10.0586 117.084 9.82866 116.969 9.65622 116.796C9.08144 116.279 8.50666 115.762 7.93188 115.244C7.75945 115.072 7.6445 114.957 7.47206 114.785C7.06972 114.382 6.72485 113.98 6.3225 113.52C6.09259 113.29 5.92016 113.003 5.69024 112.715C5.40285 112.371 5.17294 112.026 4.88555 111.681C4.65564 111.393 4.48321 111.106 4.2533 110.761C4.02338 110.416 3.79347 110.014 3.56356 109.669C3.39112 109.382 3.21869 109.037 3.04626 108.749C2.70139 108.175 2.414 107.542 2.12661 106.91C1.95417 106.565 1.83922 106.22 1.72426 105.876C1.60931 105.531 1.49435 105.186 1.37939 104.898C5.51781 106.795 10.1735 108.002 15.0592 108.232H27.0146V123.579C26.1524 123.521 25.2902 123.464 24.4281 123.349C24.1982 123.291 23.9682 123.234 23.7383 123.234Z" fill="#001537"/>
<path d="M45.2361 108.232C47.2479 108.29 49.2021 108.29 51.1564 108.347V123.579H27.0156V108.232H45.2361Z" fill="#00335A"/>
<path d="M157.088 143.696C158.122 156.283 159.502 165.537 161.169 169.618C155.076 162.606 141.339 150.535 121.624 140.534C121.509 140.477 121.394 140.419 121.336 140.362C120.474 139.96 119.612 139.5 118.75 139.097C118.635 139.04 118.52 138.982 118.405 138.925C115.876 137.718 113.232 136.511 110.473 135.419C110.128 135.246 109.783 135.131 109.438 134.959C108.691 134.672 107.944 134.384 107.139 134.039C106.679 133.867 106.22 133.694 105.817 133.522C105.07 133.235 104.323 132.947 103.576 132.717C103.058 132.545 102.541 132.372 102.081 132.2C100.874 131.798 99.6096 131.338 98.3451 130.936C97.7128 130.706 97.0806 130.533 96.4483 130.361C95.7586 130.131 95.1263 129.958 94.4366 129.786C93.7469 129.614 93.0571 129.384 92.4249 129.211C91.7926 129.039 91.1029 128.866 90.4706 128.694C89.6659 128.464 88.8612 128.292 87.9991 128.062C87.4243 127.889 86.792 127.774 86.2173 127.602C84.9527 127.314 83.6882 127.027 82.4237 126.74C81.8489 126.625 81.2742 126.51 80.6994 126.395C79.8372 126.222 78.9175 126.05 78.0554 125.877C77.4806 125.763 76.8483 125.648 76.2161 125.59C75.239 125.418 74.3193 125.303 73.3422 125.13C72.8249 125.073 72.3076 124.958 71.7903 124.9C70.3533 124.728 68.8589 124.555 67.3645 124.383C66.9621 124.326 66.5023 124.326 66.1 124.268C64.9504 124.153 63.8008 124.038 62.6513 123.981C62.0765 123.923 61.5592 123.923 60.9844 123.866C59.8923 123.808 58.8003 123.751 57.7082 123.693C57.1909 123.693 56.6736 123.636 56.1563 123.636C54.6044 123.578 52.995 123.578 51.3856 123.578H51.3281V108.347C97.0231 109.784 133.522 127.257 157.088 143.696Z" fill="#7EC0DC"/>
<path d="M161.168 23.1074C157.835 31.3842 155.42 61.0429 155.42 96.3918C155.42 131.683 157.892 161.342 161.168 169.619C158.467 166.515 154.271 162.434 148.753 158.008C144.155 138.178 141.798 117.946 141.683 97.7138C141.568 76.6194 143.925 55.4675 148.753 34.7755C154.271 30.2922 158.467 26.2112 161.168 23.1074Z" fill="#00568B"/>
<path d="M148.753 34.7755C154.271 30.3496 158.467 26.2112 161.168 23.1074C159.789 26.6136 158.524 33.9708 157.547 44.0294C156.915 44.5467 156.283 45.064 155.593 45.6388C152.489 48.1678 148.983 50.7543 145.132 53.3983C146.109 47.1332 147.316 40.9256 148.753 34.7755Z" fill="#1283C6"/>
<path d="M161.169 169.618C158.467 166.514 154.271 162.433 148.753 158.007C147.029 150.593 145.649 143.178 144.557 135.648C149.098 138.292 153.294 141.051 157.145 143.695C158.122 156.283 159.559 165.537 161.169 169.618Z" fill="#003D67"/>
<path d="M163.066 99.4956C163.066 105.416 165.882 110.186 169.388 110.186C172.894 110.186 175.711 105.416 175.711 99.4956C175.711 93.5754 172.894 88.8047 169.388 88.8047C165.882 88.8047 163.066 93.5754 163.066 99.4956Z" fill="#B9E5FB"/>
<path d="M112.18 109H104.348V93.8831C104.348 92.0471 104.387 90.3674 104.465 88.844C103.983 89.4299 103.384 90.0419 102.668 90.6799L99.4258 93.3557L95.4219 88.4338L105.227 80.4456H112.18V109Z" fill="#00568B"/>
<defs>
<linearGradient id="paint0_linear" x1="242.436" y1="11.9786" x2="259.18" y2="96.6306" gradientUnits="userSpaceOnUse">
<stop stop-color="#FFC700"/>
<stop offset="1" stop-color="#FF4070"/>
</linearGradient>
</defs>
</svg>
