<svg width="321" height="191" viewBox="0 0 321 191" fill="none" xmlns="http://www.w3.org/2000/svg">
<path d="M261.46 8.30997C240.244 12.5067 225.886 31.8214 227.08 52.9879L191.483 70.1053L230.484 67.6127C238.269 85.931 257.972 96.9641 278.205 92.9619C301.388 88.3761 316.464 65.6831 311.844 42.3259C307.224 18.9688 284.644 3.72417 261.46 8.30997Z" fill="url(#paint0_linear)" stroke="white" stroke-width="3.9279" stroke-miterlimit="10" stroke-linecap="round" stroke-linejoin="round"/>
<path d="M56.5765 157.892C56.8065 159.099 58.071 159.904 59.3355 159.617L65.5431 158.41C66.8076 158.18 67.6123 156.973 67.3249 155.766L64.3936 141.856C64.1636 140.649 62.8991 139.844 61.6346 140.132L55.427 141.339C54.1625 141.569 53.3578 142.776 53.6452 143.983L56.5765 157.892Z" fill="#002C51"/>
<path d="M63.2431 146.57V145.363C63.8753 145.421 64.5076 145.478 65.1398 145.536L67.324 155.767C67.5539 156.974 66.7492 158.181 65.5422 158.411L63.8753 158.756L59.3346 159.675C58.07 159.905 56.863 159.158 56.5756 157.951L56.3457 156.859C60.4266 155.077 63.2431 151.169 63.2431 146.57Z" fill="#001133"/>
<path d="M27.4932 120.533C27.4932 120.533 39.3336 180.77 48.5301 186.92C48.5301 186.92 57.6116 193.818 71.4063 188.415C71.4063 188.415 56.2896 132.546 56.7495 120.821L27.4932 120.533Z" fill="#8ED8F8"/>
<path d="M64.0484 189.506C61.8067 181.23 49.7363 135.477 48.5293 119.958L56.7486 120.015C56.2888 131.798 71.4055 187.61 71.4055 187.61C68.7615 188.644 66.3475 189.219 64.0484 189.506Z" fill="#76B4CF"/>
<path d="M65.9447 116.394V125.303C65.9447 130.878 61.2889 135.419 55.4837 135.419H33.2972C27.5494 135.419 22.8362 130.878 22.8362 125.303V116.394H65.9447Z" fill="#002C51"/>
<path d="M31.2854 127.66H57.4954C60.7716 127.66 63.703 126.453 65.8872 124.441V125.361C65.8872 130.936 61.2315 135.477 55.4262 135.477H33.2972C27.5494 135.477 22.8362 130.936 22.8362 125.361V124.441C25.0778 126.396 28.0092 127.66 31.2854 127.66Z" fill="#001537"/>
<path d="M27.4924 69.2051V123.579C12.4332 122.89 0.477744 110.992 0.477744 96.3922C0.420266 81.7928 12.4332 69.8948 27.4924 69.2051Z" fill="#002C51"/>
<path d="M51.6339 69.1475H27.4932V123.522H51.6339V69.1475Z" fill="#00568B"/>
<path d="M161.646 23.1074C158.312 31.3842 155.898 61.0429 155.898 96.3918C155.898 131.683 158.37 161.342 161.646 169.619C149.805 155.996 109.513 123.579 51.6331 123.579V69.1473C109.513 69.1473 149.805 36.7297 161.646 23.1074Z" fill="#8ED8F8"/>
<path d="M154.001 96.3911C154.001 136.856 157.392 169.618 161.646 169.618C165.842 169.618 169.29 136.798 169.29 96.3911C169.29 55.9266 165.899 23.1641 161.646 23.1641C160.726 23.1067 154.001 55.9266 154.001 96.3911Z" fill="#002447"/>
<path d="M0.879395 91.6792C0.879395 91.6218 0.879395 91.6218 0.879395 91.6792C0.99435 90.9895 1.16679 90.3572 1.33922 89.725C1.3967 89.5526 1.3967 89.4376 1.45417 89.2652C1.62661 88.6904 1.79904 88.0581 2.02895 87.4834C2.08643 87.3109 2.14391 87.1385 2.20139 86.9661C2.4313 86.3913 2.66121 85.8165 2.89112 85.2992C2.9486 85.1268 3.06356 84.9543 3.12104 84.7819C3.40843 84.2646 3.63834 83.6898 3.98321 83.1725C4.09816 83.0001 4.15564 82.8276 4.2706 82.7127C4.55799 82.1954 4.90285 81.6781 5.24772 81.1608C5.36268 81.0458 5.42015 80.9309 5.53511 80.8159C6.68467 79.2065 8.06414 77.7121 9.55857 76.3901C9.731 76.2751 9.84596 76.1027 10.0184 75.9878C10.3633 75.7004 10.7656 75.413 11.1105 75.1256C11.3979 74.8957 11.6853 74.6658 11.9726 74.4933C12.3175 74.2634 12.6624 74.0335 13.0072 73.8036C13.3521 73.5737 13.697 73.3438 14.0419 73.1713C14.3867 72.9414 14.7316 72.769 15.0765 72.5966C15.4788 72.3667 15.8811 72.1942 16.2835 72.0218C16.6284 71.8494 16.9732 71.6769 17.3181 71.562C17.7779 71.3895 18.1803 71.2171 18.6401 71.0447C18.985 70.9297 19.3298 70.8147 19.6747 70.6998C20.1345 70.5274 20.6518 70.4124 21.1691 70.2974C21.514 70.24 21.8014 70.125 22.1462 70.0675C22.721 69.9526 23.2958 69.8376 23.8706 69.7227C24.158 69.6652 24.4454 69.6077 24.7328 69.5502C25.5949 69.4353 26.4571 69.3203 27.3767 69.3203V84.0922H20.4219V84.1496C12.9498 84.3795 6.10989 87.196 0.879395 91.6792Z" fill="#00639D"/>
<path d="M51.6339 83.9193C50.197 83.9768 48.76 83.9768 47.3231 83.9768H27.4932V69.1475H51.6339V83.9193Z" fill="#1283C6"/>
<path d="M51.6331 69.1473C53.2999 69.1473 54.9093 69.0898 56.5187 69.0898C57.036 69.0898 57.4958 69.0323 58.0131 69.0323C59.1627 68.9748 60.3122 68.9174 61.4043 68.8599C61.9216 68.8024 62.4389 68.8024 62.9562 68.7449C64.2207 68.63 65.4278 68.5725 66.6923 68.4001C67.0372 68.3426 67.3245 68.3426 67.6694 68.2851C69.2213 68.1127 70.7157 67.9402 72.2102 67.7103C72.6125 67.6529 73.0149 67.5954 73.4172 67.5379C74.5668 67.3655 75.6589 67.193 76.7509 67.0206C77.2682 66.9631 77.7281 66.8482 78.2454 66.7907C79.3374 66.6182 80.372 66.3883 81.4066 66.2159C81.809 66.1584 82.2688 66.0435 82.6712 65.986C84.1081 65.6986 85.4876 65.4112 86.9245 65.0663C87.1544 65.0089 87.3844 64.9514 87.6143 64.8939C88.7638 64.6065 89.9709 64.3191 91.1204 64.0317C91.5803 63.9168 92.0401 63.8018 92.4999 63.6294C93.4195 63.342 94.3967 63.1121 95.3163 62.8247C95.7761 62.7097 96.236 62.5373 96.6958 62.4223C97.7879 62.0775 98.88 61.7326 99.972 61.3878C100.202 61.3303 100.432 61.2153 100.662 61.1578C101.926 60.7555 103.191 60.2957 104.398 59.8358C104.858 59.6634 105.26 59.491 105.662 59.376C106.467 59.0886 107.329 58.7438 108.134 58.4564C108.594 58.2839 109.054 58.1115 109.571 57.8816C110.376 57.5367 111.18 57.2493 111.927 56.9045C112.33 56.732 112.732 56.5596 113.134 56.3872C114.227 55.9273 115.319 55.41 116.411 54.9502C116.813 54.7778 117.273 54.5479 117.675 54.3754C118.365 54.0306 119.055 53.7432 119.744 53.3983C120.262 53.1684 120.722 52.881 121.239 52.6511C121.814 52.3637 122.388 52.0763 123.021 51.7315C123.538 51.5015 123.998 51.2141 124.515 50.9842C125.147 50.6394 125.722 50.352 126.297 50.0071C127.159 49.5473 127.964 49.0875 128.769 48.6276C129.228 48.3403 129.746 48.1103 130.205 47.8229C130.78 47.4781 131.298 47.1907 131.872 46.8458C132.275 46.6159 132.62 46.386 133.022 46.1561C133.597 45.8112 134.114 45.4664 134.689 45.1215C134.976 44.9491 135.264 44.7766 135.551 44.5467C137.563 43.2822 139.459 42.0177 141.299 40.6957C141.471 40.5807 141.586 40.4658 141.759 40.4083C142.391 40.0059 142.966 39.5461 143.54 39.1438C143.655 39.0863 143.713 38.9713 143.828 38.9139C152.105 32.8787 158.197 27.1309 161.703 23.1074C160.324 26.6136 159.059 33.9708 158.082 44.0294C157.45 44.5467 156.818 45.064 156.128 45.6388C135.896 61.9625 99.3973 82.7121 51.6905 83.9191V69.1473H51.6331Z" fill="#B1E3FA"/>
<path d="M178.257 98.5763C178.257 98.4614 178.2 98.3464 178.2 98.2314C178.257 98.3464 178.257 98.4614 178.257 98.5763Z" fill="#00568B"/>
<path d="M155.898 77.4814C168.428 78.1137 178.372 88.1149 178.372 100.358C178.372 112.6 168.428 122.602 155.898 123.234V77.4814Z" fill="#8ED8F8"/>
<path d="M24.2159 123.234C23.5836 123.119 22.9514 123.004 22.3191 122.889C22.0892 122.832 21.8593 122.774 21.6294 122.717C20.9971 122.544 20.3648 122.372 19.7326 122.199C19.5602 122.142 19.3877 122.084 19.2153 122.027C17.6634 121.51 16.1115 120.82 14.732 120.015C14.5596 119.9 14.3297 119.785 14.1572 119.67C13.6399 119.383 13.1801 119.095 12.6628 118.751C12.4329 118.578 12.203 118.463 12.0305 118.291C11.5707 117.946 11.1109 117.601 10.7085 117.256C10.5361 117.084 10.3062 116.969 10.1338 116.796C9.55898 116.279 8.9842 115.762 8.40942 115.244C8.23699 115.072 8.12203 114.957 7.9496 114.785C7.54725 114.382 7.20239 113.98 6.80004 113.52C6.57013 113.29 6.3977 113.003 6.16778 112.715C5.88039 112.371 5.65048 112.026 5.36309 111.681C5.13318 111.393 4.96075 111.106 4.73083 110.761C4.50092 110.416 4.27101 110.014 4.0411 109.669C3.86866 109.382 3.69623 109.037 3.5238 108.749C3.17893 108.175 2.89154 107.542 2.60415 106.91C2.43171 106.565 2.31676 106.22 2.2018 105.876C2.08685 105.531 1.97189 105.186 1.85693 104.898C5.99535 106.795 10.6511 108.002 15.5367 108.232H27.4921V123.579C26.6299 123.521 25.7678 123.464 24.9056 123.349C24.6757 123.291 24.4458 123.234 24.2159 123.234Z" fill="#001537"/>
<path d="M45.7137 108.232C47.7254 108.29 49.6797 108.29 51.6339 108.347V123.579H27.4932V108.232H45.7137Z" fill="#00335A"/>
<path d="M157.565 143.696C158.6 156.283 159.979 165.537 161.646 169.618C155.553 162.606 141.816 150.535 122.101 140.534C121.986 140.477 121.871 140.419 121.814 140.362C120.952 139.96 120.089 139.5 119.227 139.097C119.112 139.04 118.997 138.982 118.882 138.925C116.353 137.718 113.709 136.511 110.951 135.419C110.606 135.246 110.261 135.131 109.916 134.959C109.169 134.672 108.421 134.384 107.617 134.039C107.157 133.867 106.697 133.694 106.295 133.522C105.548 133.235 104.8 132.947 104.053 132.717C103.536 132.545 103.019 132.372 102.559 132.2C101.352 131.798 100.087 131.338 98.8226 130.936C98.1904 130.706 97.5581 130.533 96.9259 130.361C96.2361 130.131 95.6039 129.958 94.9141 129.786C94.2244 129.614 93.5347 129.384 92.9024 129.211C92.2702 129.039 91.5804 128.866 90.9482 128.694C90.1435 128.464 89.3388 128.292 88.4766 128.062C87.9018 127.889 87.2696 127.774 86.6948 127.602C85.4303 127.314 84.1658 127.027 82.9012 126.74C82.3265 126.625 81.7517 126.51 81.1769 126.395C80.3147 126.222 79.3951 126.05 78.5329 125.877C77.9581 125.763 77.3259 125.648 76.6936 125.59C75.7165 125.418 74.7969 125.303 73.8197 125.13C73.3024 125.073 72.7851 124.958 72.2678 124.9C70.8309 124.728 69.3365 124.555 67.842 124.383C67.4397 124.326 66.9798 124.326 66.5775 124.268C65.4279 124.153 64.2784 124.038 63.1288 123.981C62.554 123.923 62.0367 123.923 61.462 123.866C60.3699 123.808 59.2778 123.751 58.1857 123.693C57.6684 123.693 57.1511 123.636 56.6338 123.636C55.0819 123.578 53.4725 123.578 51.8631 123.578H51.8057V108.347C97.5006 109.784 133.999 127.257 157.565 143.696Z" fill="#7EC0DC"/>
<path d="M161.646 23.1074C158.312 31.3842 155.898 61.0429 155.898 96.3918C155.898 131.683 158.37 161.342 161.646 169.619C158.944 166.515 154.748 162.434 149.231 158.008C144.632 138.178 142.276 117.946 142.161 97.7138C142.046 76.6194 144.402 55.4675 149.231 34.7755C154.748 30.2922 158.944 26.2112 161.646 23.1074Z" fill="#00568B"/>
<path d="M149.23 34.7755C154.748 30.3496 158.944 26.2112 161.646 23.1074C160.266 26.6136 159.002 33.9708 158.025 44.0294C157.392 44.5467 156.76 45.064 156.07 45.6388C152.967 48.1678 149.46 50.7543 145.609 53.3983C146.587 47.1332 147.794 40.9256 149.23 34.7755Z" fill="#1283C6"/>
<path d="M161.646 169.618C158.945 166.514 154.749 162.433 149.231 158.007C147.507 150.593 146.127 143.178 145.035 135.648C149.576 138.292 153.772 141.051 157.623 143.695C158.6 156.283 160.037 165.537 161.646 169.618Z" fill="#003D67"/>
<path d="M163.543 99.4956C163.543 105.416 166.36 110.186 169.866 110.186C173.372 110.186 176.188 105.416 176.188 99.4956C176.188 93.5754 173.372 88.8047 169.866 88.8047C166.36 88.8047 163.543 93.5754 163.543 99.4956Z" fill="#B9E5FB"/>
<path d="M107.228 90.2893C108.868 90.2893 110.346 90.6734 111.661 91.4417C112.989 92.1969 114.018 93.2711 114.747 94.6643C115.489 96.0575 115.86 97.6656 115.86 99.4885C115.86 102.679 114.897 105.127 112.97 106.832C111.056 108.538 108.152 109.391 104.259 109.391C100.925 109.391 98.2041 108.877 96.0947 107.848V101.52C97.2275 102.041 98.5036 102.47 99.9229 102.809C101.355 103.147 102.586 103.317 103.614 103.317C105.047 103.317 106.147 103.017 106.915 102.418C107.683 101.806 108.067 100.908 108.067 99.7229C108.067 98.6292 107.677 97.7763 106.896 97.1643C106.114 96.5523 104.929 96.2463 103.341 96.2463C102.13 96.2463 100.821 96.4742 99.415 96.9299L96.583 95.5237L97.6572 80.4456H113.946V86.8713H104.22L103.868 90.6409C104.884 90.4456 105.606 90.3414 106.036 90.3284C106.466 90.3023 106.863 90.2893 107.228 90.2893Z" fill="#00568B"/>
<path d="M266.052 69.7253C265.885 68.8183 265.879 67.9496 266.095 67.0335C266.311 66.1174 266.701 65.3093 267.191 64.6249C267.742 63.855 268.406 63.2786 269.157 62.7562C269.982 62.218 270.846 61.8891 271.81 61.684C272.773 61.4788 273.689 61.429 274.643 61.5884C275.597 61.7479 276.428 62.0784 277.124 62.5103C277.82 62.9422 278.481 63.5991 278.993 64.2876C279.519 65.0459 279.821 65.8516 279.989 66.7585C280.156 67.6654 280.163 68.5342 279.947 69.4503C279.731 70.3664 279.341 71.1745 278.851 71.8588C278.361 72.5432 277.635 73.2052 276.884 73.7276C276.059 74.2658 275.196 74.5947 274.232 74.7998C273.268 75.005 272.353 75.0548 271.399 74.8954C270.445 74.7359 269.613 74.4054 268.917 73.9735C268.134 73.4876 267.56 72.8847 267.048 72.1961C266.523 71.4379 266.22 70.6322 266.052 69.7253ZM263.622 48.6354L260.388 31.1244C259.847 28.1943 261.929 25.2857 265.042 24.6229C268.156 23.9601 271.114 25.7956 271.655 28.7257L274.889 46.2368C275.43 49.1669 273.348 52.0755 270.235 52.7382C267.121 53.401 264.163 51.5656 263.622 48.6354Z" fill="white"/>
<defs>
<linearGradient id="paint0_linear" x1="242.913" y1="11.9786" x2="259.658" y2="96.6306" gradientUnits="userSpaceOnUse">
<stop stop-color="#FFC700"/>
<stop offset="1" stop-color="#FF4070"/>
</linearGradient>
</defs>
</svg>
