<svg width="321" height="191" viewBox="0 0 321 191" fill="none" xmlns="http://www.w3.org/2000/svg">
<path d="M261.677 8.30997C240.46 12.5067 226.103 31.8214 227.296 52.9879L191.699 70.1053L230.7 67.6127C238.485 85.931 258.188 96.9641 278.421 92.9619C301.605 88.3761 316.681 65.6831 312.06 42.3259C307.44 18.9688 284.86 3.72417 261.677 8.30997Z" fill="url(#paint0_linear)" stroke="white" stroke-width="3.9279" stroke-miterlimit="10" stroke-linecap="round" stroke-linejoin="round"/>
<path d="M266.512 69.4772C266.344 68.5702 266.338 67.7015 266.554 66.7854C266.77 65.8693 267.16 65.0612 267.65 64.3768C268.201 63.6069 268.865 63.0305 269.616 62.5081C270.441 61.9699 271.305 61.641 272.269 61.4359C273.233 61.2307 274.148 61.1808 275.102 61.3403C276.056 61.4998 276.888 61.8303 277.584 62.2622C278.28 62.694 278.94 63.351 279.453 64.0395C279.978 64.7978 280.281 65.6034 280.448 66.5104C280.616 67.4173 280.622 68.2861 280.406 69.2021C280.19 70.1182 279.8 70.9263 279.31 71.6107C278.82 72.2951 278.095 72.957 277.344 73.4794C276.519 74.0176 275.655 74.3465 274.691 74.5517C273.728 74.7568 272.812 74.8067 271.858 74.6473C270.904 74.4878 270.073 74.1573 269.377 73.7254C268.593 73.2395 268.02 72.6366 267.507 71.9481C266.982 71.1898 266.679 70.3841 266.512 69.4772ZM264.081 48.3873L260.847 30.8763C260.306 27.9462 262.388 25.0376 265.502 24.3748C268.615 23.712 271.574 25.5475 272.115 28.4776L275.349 45.9887C275.89 48.9188 273.807 51.8273 270.694 52.4901C267.581 53.1529 264.622 51.3175 264.081 48.3873Z" fill="white"/>
<path d="M56.7929 157.892C57.0228 159.099 58.2873 159.904 59.5518 159.617L65.7594 158.41C67.0239 158.18 67.8286 156.973 67.5412 155.766L64.6099 141.856C64.3799 140.649 63.1154 139.844 61.8509 140.132L55.6433 141.339C54.3788 141.569 53.5741 142.776 53.8615 143.983L56.7929 157.892Z" fill="#002C51"/>
<path d="M63.4594 146.57V145.363C64.0916 145.421 64.7239 145.478 65.3561 145.536L67.5403 155.767C67.7702 156.974 66.9655 158.181 65.7585 158.411L64.0916 158.756L59.5509 159.675C58.2863 159.905 57.0793 159.158 56.7919 157.951L56.562 156.859C60.6429 155.077 63.4594 151.169 63.4594 146.57Z" fill="#001133"/>
<path d="M27.7095 120.533C27.7095 120.533 39.5499 180.77 48.7464 186.92C48.7464 186.92 57.8279 193.818 71.6226 188.415C71.6226 188.415 56.5059 132.546 56.9658 120.821L27.7095 120.533Z" fill="#8ED8F8"/>
<path d="M64.2647 189.506C62.023 181.23 49.9526 135.477 48.7456 119.958L56.965 120.015C56.5051 131.798 71.6218 187.61 71.6218 187.61C68.9779 188.644 66.5638 189.219 64.2647 189.506Z" fill="#76B4CF"/>
<path d="M66.161 116.394V125.303C66.161 130.878 61.5053 135.419 55.7 135.419H33.5135C27.7657 135.419 23.0525 130.878 23.0525 125.303V116.394H66.161Z" fill="#002C51"/>
<path d="M31.5017 127.66H57.7117C60.988 127.66 63.9193 126.453 66.1035 124.441V125.361C66.1035 130.936 61.4478 135.477 55.6425 135.477H33.5135C27.7657 135.477 23.0525 130.936 23.0525 125.361V124.441C25.2941 126.396 28.2255 127.66 31.5017 127.66Z" fill="#001537"/>
<path d="M27.7087 69.2051V123.579C12.6495 122.89 0.694053 110.992 0.694053 96.3922C0.636575 81.7928 12.6495 69.8948 27.7087 69.2051Z" fill="#002C51"/>
<path d="M51.8502 69.1475H27.7095V123.522H51.8502V69.1475Z" fill="#00568B"/>
<path d="M161.862 23.1074C158.528 31.3842 156.114 61.0429 156.114 96.3918C156.114 131.683 158.586 161.342 161.862 169.619C150.022 155.996 109.73 123.579 51.8494 123.579V69.1473C109.73 69.1473 150.022 36.7297 161.862 23.1074Z" fill="#8ED8F8"/>
<path d="M154.218 96.3911C154.218 136.856 157.609 169.618 161.862 169.618C166.058 169.618 169.507 136.798 169.507 96.3911C169.507 55.9266 166.115 23.1641 161.862 23.1641C160.942 23.1067 154.218 55.9266 154.218 96.3911Z" fill="#002447"/>
<path d="M1.0957 91.6792C1.0957 91.6218 1.0957 91.6218 1.0957 91.6792C1.21066 90.9895 1.38309 90.3572 1.55553 89.725C1.61301 89.5526 1.613 89.4376 1.67048 89.2652C1.84292 88.6904 2.01535 88.0581 2.24526 87.4834C2.30274 87.3109 2.36022 87.1385 2.4177 86.9661C2.64761 86.3913 2.87752 85.8165 3.10743 85.2992C3.16491 85.1268 3.27987 84.9543 3.33734 84.7819C3.62473 84.2646 3.85465 83.6898 4.19951 83.1725C4.31447 83.0001 4.37195 82.8276 4.4869 82.7127C4.77429 82.1954 5.11916 81.6781 5.46403 81.1608C5.57898 81.0458 5.63646 80.9309 5.75142 80.8159C6.90098 79.2065 8.28045 77.7121 9.77488 76.3901C9.94731 76.2751 10.0623 76.1027 10.2347 75.9878C10.5796 75.7004 10.9819 75.413 11.3268 75.1256C11.6142 74.8957 11.9016 74.6658 12.189 74.4933C12.5338 74.2634 12.8787 74.0335 13.2236 73.8036C13.5684 73.5737 13.9133 73.3438 14.2582 73.1713C14.603 72.9414 14.9479 72.769 15.2928 72.5966C15.6951 72.3667 16.0975 72.1942 16.4998 72.0218C16.8447 71.8494 17.1895 71.6769 17.5344 71.562C17.9942 71.3895 18.3966 71.2171 18.8564 71.0447C19.2013 70.9297 19.5461 70.8147 19.891 70.6998C20.3508 70.5274 20.8681 70.4124 21.3854 70.2974C21.7303 70.24 22.0177 70.125 22.3626 70.0675C22.9373 69.9526 23.5121 69.8376 24.0869 69.7227C24.3743 69.6652 24.6617 69.6077 24.9491 69.5502C25.8112 69.4353 26.6734 69.3203 27.593 69.3203V84.0922H20.6382V84.1496C13.1661 84.3795 6.3262 87.196 1.0957 91.6792Z" fill="#00639D"/>
<path d="M51.8502 83.9193C50.4133 83.9768 48.9763 83.9768 47.5394 83.9768H27.7095V69.1475H51.8502V83.9193Z" fill="#1283C6"/>
<path d="M51.8494 69.1473C53.5162 69.1473 55.1256 69.0898 56.735 69.0898C57.2523 69.0898 57.7121 69.0323 58.2294 69.0323C59.379 68.9748 60.5285 68.9174 61.6206 68.8599C62.1379 68.8024 62.6552 68.8024 63.1725 68.7449C64.437 68.63 65.6441 68.5725 66.9086 68.4001C67.2535 68.3426 67.5409 68.3426 67.8857 68.2851C69.4376 68.1127 70.9321 67.9402 72.4265 67.7103C72.8288 67.6529 73.2312 67.5954 73.6335 67.5379C74.7831 67.3655 75.8752 67.193 76.9672 67.0206C77.4845 66.9631 77.9444 66.8482 78.4617 66.7907C79.5537 66.6182 80.5884 66.3883 81.623 66.2159C82.0253 66.1584 82.4851 66.0435 82.8875 65.986C84.3244 65.6986 85.7039 65.4112 87.1408 65.0663C87.3708 65.0089 87.6007 64.9514 87.8306 64.8939C88.9801 64.6065 90.1872 64.3191 91.3367 64.0317C91.7966 63.9168 92.2564 63.8018 92.7162 63.6294C93.6359 63.342 94.613 63.1121 95.5326 62.8247C95.9924 62.7097 96.4523 62.5373 96.9121 62.4223C98.0042 62.0775 99.0963 61.7326 100.188 61.3878C100.418 61.3303 100.648 61.2153 100.878 61.1578C102.143 60.7555 103.407 60.2957 104.614 59.8358C105.074 59.6634 105.476 59.491 105.879 59.376C106.683 59.0886 107.546 58.7438 108.35 58.4564C108.81 58.2839 109.27 58.1115 109.787 57.8816C110.592 57.5367 111.397 57.2493 112.144 56.9045C112.546 56.732 112.948 56.5596 113.351 56.3872C114.443 55.9273 115.535 55.41 116.627 54.9502C117.029 54.7778 117.489 54.5479 117.892 54.3754C118.581 54.0306 119.271 53.7432 119.961 53.3983C120.478 53.1684 120.938 52.881 121.455 52.6511C122.03 52.3637 122.605 52.0763 123.237 51.7315C123.754 51.5015 124.214 51.2141 124.731 50.9842C125.364 50.6394 125.938 50.352 126.513 50.0071C127.375 49.5473 128.18 49.0875 128.985 48.6276C129.445 48.3403 129.962 48.1103 130.422 47.8229C130.997 47.4781 131.514 47.1907 132.089 46.8458C132.491 46.6159 132.836 46.386 133.238 46.1561C133.813 45.8112 134.33 45.4664 134.905 45.1215C135.192 44.9491 135.48 44.7766 135.767 44.5467C137.779 43.2822 139.676 42.0177 141.515 40.6957C141.687 40.5807 141.802 40.4658 141.975 40.4083C142.607 40.0059 143.182 39.5461 143.757 39.1438C143.872 39.0863 143.929 38.9713 144.044 38.9139C152.321 32.8787 158.414 27.1309 161.92 23.1074C160.54 26.6136 159.276 33.9708 158.299 44.0294C157.666 44.5467 157.034 45.064 156.344 45.6388C136.112 61.9625 99.6136 82.7121 51.9068 83.9191V69.1473H51.8494Z" fill="#B1E3FA"/>
<path d="M178.473 98.5763C178.473 98.4614 178.416 98.3464 178.416 98.2314C178.473 98.3464 178.473 98.4614 178.473 98.5763Z" fill="#00568B"/>
<path d="M156.114 77.4814C168.644 78.1137 178.588 88.1149 178.588 100.358C178.588 112.6 168.644 122.602 156.114 123.234V77.4814Z" fill="#8ED8F8"/>
<path d="M24.4322 123.234C23.7999 123.119 23.1677 123.004 22.5354 122.889C22.3055 122.832 22.0756 122.774 21.8457 122.717C21.2134 122.544 20.5812 122.372 19.9489 122.199C19.7765 122.142 19.604 122.084 19.4316 122.027C17.8797 121.51 16.3278 120.82 14.9483 120.015C14.7759 119.9 14.546 119.785 14.3735 119.67C13.8562 119.383 13.3964 119.095 12.8791 118.751C12.6492 118.578 12.4193 118.463 12.2468 118.291C11.787 117.946 11.3272 117.601 10.9248 117.256C10.7524 117.084 10.5225 116.969 10.3501 116.796C9.77529 116.279 9.20051 115.762 8.62573 115.244C8.4533 115.072 8.33834 114.957 8.16591 114.785C7.76356 114.382 7.41869 113.98 7.01635 113.52C6.78644 113.29 6.614 113.003 6.38409 112.715C6.0967 112.371 5.86679 112.026 5.5794 111.681C5.34949 111.393 5.17706 111.106 4.94714 110.761C4.71723 110.416 4.48732 110.014 4.2574 109.669C4.08497 109.382 3.91254 109.037 3.7401 108.749C3.39524 108.175 3.10785 107.542 2.82046 106.91C2.64802 106.565 2.53307 106.22 2.41811 105.876C2.30316 105.531 2.1882 105.186 2.07324 104.898C6.21166 106.795 10.8674 108.002 15.753 108.232H27.7084V123.579C26.8463 123.521 25.9841 123.464 25.1219 123.349C24.892 123.291 24.6621 123.234 24.4322 123.234Z" fill="#001537"/>
<path d="M45.93 108.232C47.9417 108.29 49.896 108.29 51.8502 108.347V123.579H27.7095V108.232H45.93Z" fill="#00335A"/>
<path d="M157.781 143.696C158.816 156.283 160.195 165.537 161.862 169.618C155.769 162.606 142.032 150.535 122.317 140.534C122.202 140.477 122.087 140.419 122.03 140.362C121.168 139.96 120.306 139.5 119.443 139.097C119.328 139.04 119.213 138.982 119.099 138.925C116.569 137.718 113.926 136.511 111.167 135.419C110.822 135.246 110.477 135.131 110.132 134.959C109.385 134.672 108.638 134.384 107.833 134.039C107.373 133.867 106.913 133.694 106.511 133.522C105.764 133.235 105.016 132.947 104.269 132.717C103.752 132.545 103.235 132.372 102.775 132.2C101.568 131.798 100.303 131.338 99.0387 130.936C98.4065 130.706 97.7742 130.533 97.1419 130.361C96.4522 130.131 95.8199 129.958 95.1302 129.786C94.4405 129.614 93.7507 129.384 93.1185 129.211C92.4862 129.039 91.7965 128.866 91.1642 128.694C90.3595 128.464 89.5548 128.292 88.6927 128.062C88.1179 127.889 87.4856 127.774 86.9109 127.602C85.6463 127.314 84.3818 127.027 83.1173 126.74C82.5425 126.625 81.9678 126.51 81.393 126.395C80.5308 126.222 79.6112 126.05 78.749 125.877C78.1742 125.763 77.5419 125.648 76.9097 125.59C75.9326 125.418 75.0129 125.303 74.0358 125.13C73.5185 125.073 73.0012 124.958 72.4839 124.9C71.0469 124.728 69.5525 124.555 68.0581 124.383C67.6557 124.326 67.1959 124.326 66.7936 124.268C65.644 124.153 64.4944 124.038 63.3449 123.981C62.7701 123.923 62.2528 123.923 61.678 123.866C60.5859 123.808 59.4939 123.751 58.4018 123.693C57.8845 123.693 57.3672 123.636 56.8499 123.636C55.298 123.578 53.6886 123.578 52.0792 123.578H52.0217V108.347C97.7167 109.784 134.215 127.257 157.781 143.696Z" fill="#7EC0DC"/>
<path d="M161.862 23.1074C158.528 31.3842 156.114 61.0429 156.114 96.3918C156.114 131.683 158.586 161.342 161.862 169.619C159.161 166.515 154.965 162.434 149.447 158.008C144.849 138.178 142.492 117.946 142.377 97.7138C142.262 76.6194 144.619 55.4675 149.447 34.7755C154.965 30.2922 159.161 26.2112 161.862 23.1074Z" fill="#00568B"/>
<path d="M149.447 34.7755C154.965 30.3496 159.161 26.2112 161.862 23.1074C160.483 26.6136 159.218 33.9708 158.241 44.0294C157.609 44.5467 156.976 45.064 156.287 45.6388C153.183 48.1678 149.677 50.7543 145.826 53.3983C146.803 47.1332 148.01 40.9256 149.447 34.7755Z" fill="#1283C6"/>
<path d="M161.862 169.618C159.161 166.514 154.965 162.433 149.447 158.007C147.723 150.593 146.343 143.178 145.251 135.648C149.792 138.292 153.988 141.051 157.839 143.695C158.816 156.283 160.253 165.537 161.862 169.618Z" fill="#003D67"/>
<path d="M163.76 99.4956C163.76 105.416 166.576 110.186 170.082 110.186C173.588 110.186 176.405 105.416 176.405 99.4956C176.405 93.5754 173.588 88.8047 170.082 88.8047C166.576 88.8047 163.76 93.5754 163.76 99.4956Z" fill="#B9E5FB"/>
<path d="M102.155 109H94.3228V93.8831C94.3228 92.0471 94.3618 90.3674 94.4399 88.844C93.9582 89.4299 93.3592 90.0419 92.6431 90.6799L89.4009 93.3557L85.397 88.4338L95.2017 80.4456H102.155V109ZM118.163 90.2893C119.803 90.2893 121.281 90.6734 122.596 91.4417C123.924 92.1969 124.953 93.2711 125.682 94.6643C126.424 96.0575 126.795 97.6656 126.795 99.4885C126.795 102.679 125.832 105.127 123.905 106.832C121.991 108.538 119.087 109.391 115.194 109.391C111.861 109.391 109.139 108.877 107.03 107.848V101.52C108.163 102.041 109.439 102.47 110.858 102.809C112.29 103.147 113.521 103.317 114.549 103.317C115.982 103.317 117.082 103.017 117.85 102.418C118.618 101.806 119.002 100.908 119.002 99.7229C119.002 98.6292 118.612 97.7763 117.831 97.1643C117.049 96.5523 115.864 96.2463 114.276 96.2463C113.065 96.2463 111.756 96.4742 110.35 96.9299L107.518 95.5237L108.592 80.4456H124.881V86.8713H115.155L114.803 90.6409C115.819 90.4456 116.542 90.3414 116.971 90.3284C117.401 90.3023 117.798 90.2893 118.163 90.2893Z" fill="#00568B"/>
<defs>
<linearGradient id="paint0_linear" x1="243.13" y1="11.9786" x2="259.874" y2="96.6306" gradientUnits="userSpaceOnUse">
<stop stop-color="#FFC700"/>
<stop offset="1" stop-color="#FF4070"/>
</linearGradient>
</defs>
</svg>
