<svg width="320" height="191" viewBox="0 0 320 191" fill="none" xmlns="http://www.w3.org/2000/svg">
<path d="M261.109 8.30997C239.892 12.5067 225.535 31.8214 226.729 52.9879L191.131 70.1053L230.132 67.6127C237.917 85.931 257.62 96.9641 277.853 92.9619C301.037 88.3761 316.113 65.6831 311.493 42.3259C306.872 18.9688 284.292 3.72417 261.109 8.30997Z" fill="url(#paint0_linear)" stroke="white" stroke-width="3.9279" stroke-miterlimit="10" stroke-linecap="round" stroke-linejoin="round"/>
<path d="M265.944 69.4771C265.776 68.5702 265.77 67.7014 265.986 66.7854C266.202 65.8693 266.592 65.0612 267.082 64.3768C267.633 63.6069 268.297 63.0305 269.048 62.508C269.873 61.9698 270.737 61.6409 271.701 61.4358C272.665 61.2306 273.58 61.1808 274.534 61.3402C275.488 61.4997 276.319 61.8302 277.016 62.2621C277.712 62.6939 278.372 63.3509 278.885 64.0394C279.41 64.7977 279.713 65.6033 279.88 66.5102C280.048 67.4172 280.054 68.2859 279.838 69.202C279.622 70.1181 279.232 70.9262 278.742 71.6106C278.252 72.295 277.527 72.9569 276.776 73.4793C275.951 74.0175 275.087 74.3464 274.123 74.5516C273.159 74.7567 272.244 74.8066 271.29 74.6472C270.336 74.4877 269.505 74.1572 268.808 73.7253C268.025 73.2395 267.452 72.6365 266.939 71.948C266.414 71.1897 266.111 70.3841 265.944 69.4771ZM263.513 48.3873L260.279 30.8763C259.738 27.9462 261.821 25.0376 264.934 24.3748C268.047 23.712 271.006 25.5474 271.547 28.4776L274.781 45.9886C275.322 48.9187 273.239 51.8273 270.126 52.4901C267.013 53.1529 264.054 51.3174 263.513 48.3873Z" fill="white"/>
<path d="M56.225 157.892C56.4549 159.099 57.7194 159.904 58.9839 159.617L65.1915 158.41C66.4561 158.18 67.2608 156.973 66.9734 155.766L64.042 141.856C63.8121 140.649 62.5476 139.844 61.283 140.132L55.0754 141.339C53.8109 141.569 53.0062 142.776 53.2936 143.983L56.225 157.892Z" fill="#002C51"/>
<path d="M62.8915 146.57V145.363C63.5238 145.421 64.156 145.478 64.7883 145.536L66.9724 155.767C67.2023 156.974 66.3977 158.181 65.1906 158.411L63.5237 158.756L58.983 159.675C57.7185 159.905 56.5114 159.158 56.224 157.951L55.9941 156.859C60.0751 155.077 62.8915 151.169 62.8915 146.57Z" fill="#001133"/>
<path d="M27.1416 120.533C27.1416 120.533 38.9821 180.77 48.1785 186.92C48.1785 186.92 57.2601 193.818 71.0548 188.415C71.0548 188.415 55.9381 132.546 56.3979 120.821L27.1416 120.533Z" fill="#8ED8F8"/>
<path d="M63.6968 189.506C61.4551 181.23 49.3848 135.477 48.1777 119.958L56.3971 120.015C55.9373 131.798 71.054 187.61 71.054 187.61C68.41 188.644 65.9959 189.219 63.6968 189.506Z" fill="#76B4CF"/>
<path d="M65.5933 116.394V125.303C65.5933 130.878 60.9376 135.419 55.1324 135.419H32.9459C27.1981 135.419 22.4849 130.878 22.4849 125.303V116.394H65.5933Z" fill="#002C51"/>
<path d="M30.9341 127.66H57.1441C60.4203 127.66 63.3517 126.453 65.5359 124.441V125.361C65.5359 130.936 60.8801 135.477 55.0749 135.477H32.9459C27.1981 135.477 22.4849 130.936 22.4849 125.361V124.441C24.7265 126.396 27.6579 127.66 30.9341 127.66Z" fill="#001537"/>
<path d="M27.1408 69.2051V123.579C12.0816 122.89 0.126182 110.992 0.126182 96.3922C0.068704 81.7928 12.0816 69.8948 27.1408 69.2051Z" fill="#002C51"/>
<path d="M51.2823 69.1475H27.1416V123.522H51.2823V69.1475Z" fill="#00568B"/>
<path d="M161.295 23.1074C157.961 31.3842 155.547 61.0429 155.547 96.3918C155.547 131.683 158.018 161.342 161.295 169.619C149.454 155.996 109.162 123.579 51.2817 123.579V69.1473C109.162 69.1473 149.454 36.7297 161.295 23.1074Z" fill="#8ED8F8"/>
<path d="M153.65 96.3911C153.65 136.856 157.041 169.618 161.294 169.618C165.49 169.618 168.939 136.798 168.939 96.3911C168.939 55.9266 165.548 23.1641 161.294 23.1641C160.375 23.1067 153.65 55.9266 153.65 96.3911Z" fill="#002447"/>
<path d="M0.527832 91.6792C0.527832 91.6218 0.527832 91.6218 0.527832 91.6792C0.642788 90.9895 0.815224 90.3572 0.987658 89.725C1.04514 89.5526 1.04513 89.4376 1.10261 89.2652C1.27505 88.6904 1.44748 88.0581 1.67739 87.4834C1.73487 87.3109 1.79235 87.1385 1.84983 86.9661C2.07974 86.3913 2.30965 85.8165 2.53956 85.2992C2.59704 85.1268 2.712 84.9543 2.76947 84.7819C3.05686 84.2646 3.28678 83.6898 3.63164 83.1725C3.7466 83.0001 3.80408 82.8276 3.91903 82.7127C4.20642 82.1954 4.55129 81.6781 4.89616 81.1608C5.01111 81.0458 5.06859 80.9309 5.18355 80.8159C6.33311 79.2065 7.71258 77.7121 9.207 76.3901C9.37944 76.2751 9.4944 76.1027 9.66683 75.9878C10.0117 75.7004 10.414 75.413 10.7589 75.1256C11.0463 74.8957 11.3337 74.6658 11.6211 74.4933C11.966 74.2634 12.3108 74.0335 12.6557 73.8036C13.0006 73.5737 13.3454 73.3438 13.6903 73.1713C14.0352 72.9414 14.38 72.769 14.7249 72.5966C15.1272 72.3667 15.5296 72.1942 15.9319 72.0218C16.2768 71.8494 16.6217 71.6769 16.9665 71.562C17.4264 71.3895 17.8287 71.2171 18.2885 71.0447C18.6334 70.9297 18.9783 70.8147 19.3231 70.6998C19.783 70.5274 20.3003 70.4124 20.8176 70.2974C21.1624 70.24 21.4498 70.125 21.7947 70.0675C22.3695 69.9526 22.9442 69.8376 23.519 69.7227C23.8064 69.6652 24.0938 69.6077 24.3812 69.5502C25.2434 69.4353 26.1055 69.3203 27.0252 69.3203V84.0922H20.0703V84.1496C12.5982 84.3795 5.75833 87.196 0.527832 91.6792Z" fill="#00639D"/>
<path d="M51.2823 83.9193C49.8454 83.9768 48.4084 83.9768 46.9715 83.9768H27.1416V69.1475H51.2823V83.9193Z" fill="#1283C6"/>
<path d="M51.2817 69.1473C52.9486 69.1473 54.558 69.0898 56.1674 69.0898C56.6847 69.0898 57.1445 69.0323 57.6618 69.0323C58.8114 68.9748 59.9609 68.9174 61.053 68.8599C61.5703 68.8024 62.0876 68.8024 62.6049 68.7449C63.8694 68.63 65.0765 68.5725 66.341 68.4001C66.6858 68.3426 66.9732 68.3426 67.3181 68.2851C68.87 68.1127 70.3644 67.9402 71.8589 67.7103C72.2612 67.6529 72.6635 67.5954 73.0659 67.5379C74.2155 67.3655 75.3075 67.193 76.3996 67.0206C76.9169 66.9631 77.3767 66.8482 77.894 66.7907C78.9861 66.6182 80.0207 66.3883 81.0553 66.2159C81.4577 66.1584 81.9175 66.0435 82.3198 65.986C83.7568 65.6986 85.1363 65.4112 86.5732 65.0663C86.8031 65.0089 87.033 64.9514 87.263 64.8939C88.4125 64.6065 89.6195 64.3191 90.7691 64.0317C91.2289 63.9168 91.6888 63.8018 92.1486 63.6294C93.0682 63.342 94.0453 63.1121 94.965 62.8247C95.4248 62.7097 95.8846 62.5373 96.3445 62.4223C97.4366 62.0775 98.5286 61.7326 99.6207 61.3878C99.8506 61.3303 100.081 61.2153 100.31 61.1578C101.575 60.7555 102.839 60.2957 104.047 59.8358C104.506 59.6634 104.909 59.491 105.311 59.376C106.116 59.0886 106.978 58.7438 107.783 58.4564C108.242 58.2839 108.702 58.1115 109.22 57.8816C110.024 57.5367 110.829 57.2493 111.576 56.9045C111.978 56.732 112.381 56.5596 112.783 56.3872C113.875 55.9273 114.967 55.41 116.059 54.9502C116.462 54.7778 116.922 54.5479 117.324 54.3754C118.014 54.0306 118.703 53.7432 119.393 53.3983C119.91 53.1684 120.37 52.881 120.888 52.6511C121.462 52.3637 122.037 52.0763 122.669 51.7315C123.187 51.5015 123.647 51.2141 124.164 50.9842C124.796 50.6394 125.371 50.352 125.946 50.0071C126.808 49.5473 127.612 49.0875 128.417 48.6276C128.877 48.3403 129.394 48.1103 129.854 47.8229C130.429 47.4781 130.946 47.1907 131.521 46.8458C131.923 46.6159 132.268 46.386 132.671 46.1561C133.245 45.8112 133.763 45.4664 134.337 45.1215C134.625 44.9491 134.912 44.7766 135.2 44.5467C137.211 43.2822 139.108 42.0177 140.947 40.6957C141.12 40.5807 141.235 40.4658 141.407 40.4083C142.039 40.0059 142.614 39.5461 143.189 39.1438C143.304 39.0863 143.361 38.9713 143.476 38.9139C151.753 32.8787 157.846 27.1309 161.352 23.1074C159.973 26.6136 158.708 33.9708 157.731 44.0294C157.099 44.5467 156.466 45.064 155.777 45.6388C135.544 61.9625 99.0459 82.7121 51.3392 83.9191V69.1473H51.2817Z" fill="#B1E3FA"/>
<path d="M177.906 98.5763C177.906 98.4614 177.848 98.3464 177.848 98.2314C177.906 98.3464 177.906 98.4614 177.906 98.5763Z" fill="#00568B"/>
<path d="M155.546 77.4814C168.077 78.1137 178.02 88.1149 178.02 100.358C178.02 112.6 168.077 122.602 155.546 123.234V77.4814Z" fill="#8ED8F8"/>
<path d="M23.8643 123.234C23.232 123.119 22.5998 123.004 21.9675 122.889C21.7376 122.832 21.5077 122.774 21.2778 122.717C20.6455 122.544 20.0133 122.372 19.381 122.199C19.2086 122.142 19.0362 122.084 18.8637 122.027C17.3118 121.51 15.7599 120.82 14.3804 120.015C14.208 119.9 13.9781 119.785 13.8057 119.67C13.2884 119.383 12.8285 119.095 12.3112 118.751C12.0813 118.578 11.8514 118.463 11.679 118.291C11.2191 117.946 10.7593 117.601 10.357 117.256C10.1845 117.084 9.95463 116.969 9.7822 116.796C9.20742 116.279 8.63264 115.762 8.05786 115.244C7.88543 115.072 7.77047 114.957 7.59804 114.785C7.19569 114.382 6.85082 113.98 6.44848 113.52C6.21857 113.29 6.04613 113.003 5.81622 112.715C5.52883 112.371 5.29892 112.026 5.01153 111.681C4.78162 111.393 4.60918 111.106 4.37927 110.761C4.14936 110.416 3.91945 110.014 3.68953 109.669C3.5171 109.382 3.34467 109.037 3.17223 108.749C2.82737 108.175 2.53997 107.542 2.25258 106.91C2.08015 106.565 1.9652 106.22 1.85024 105.876C1.73528 105.531 1.62033 105.186 1.50537 104.898C5.64378 106.795 10.2995 108.002 15.1851 108.232H27.1405V123.579C26.2784 123.521 25.4162 123.464 24.554 123.349C24.3241 123.291 24.0942 123.234 23.8643 123.234Z" fill="#001537"/>
<path d="M45.3621 108.232C47.3738 108.29 49.3281 108.29 51.2823 108.347V123.579H27.1416V108.232H45.3621Z" fill="#00335A"/>
<path d="M157.214 143.696C158.248 156.283 159.628 165.537 161.294 169.618C155.202 162.606 141.465 150.535 121.75 140.534C121.635 140.477 121.52 140.419 121.462 140.362C120.6 139.96 119.738 139.5 118.876 139.097C118.761 139.04 118.646 138.982 118.531 138.925C116.002 137.718 113.358 136.511 110.599 135.419C110.254 135.246 109.909 135.131 109.564 134.959C108.817 134.672 108.07 134.384 107.265 134.039C106.805 133.867 106.346 133.694 105.943 133.522C105.196 133.235 104.449 132.947 103.702 132.717C103.184 132.545 102.667 132.372 102.207 132.2C101 131.798 99.7356 131.338 98.4711 130.936C97.8388 130.706 97.2066 130.533 96.5743 130.361C95.8846 130.131 95.2523 129.958 94.5626 129.786C93.8728 129.614 93.1831 129.384 92.5508 129.211C91.9186 129.039 91.2289 128.866 90.5966 128.694C89.7919 128.464 88.9872 128.292 88.125 128.062C87.5503 127.889 86.918 127.774 86.3432 127.602C85.0787 127.314 83.8142 127.027 82.5497 126.74C81.9749 126.625 81.4001 126.51 80.8253 126.395C79.9632 126.222 79.0435 126.05 78.1814 125.877C77.6066 125.763 76.9743 125.648 76.3421 125.59C75.3649 125.418 74.4453 125.303 73.4682 125.13C72.9509 125.073 72.4336 124.958 71.9163 124.9C70.4793 124.728 68.9849 124.555 67.4905 124.383C67.0881 124.326 66.6283 124.326 66.2259 124.268C65.0764 124.153 63.9268 124.038 62.7773 123.981C62.2025 123.923 61.6852 123.923 61.1104 123.866C60.0183 123.808 58.9262 123.751 57.8342 123.693C57.3169 123.693 56.7996 123.636 56.2823 123.636C54.7304 123.578 53.121 123.578 51.5116 123.578H51.4541V108.347C97.1491 109.784 133.648 127.257 157.214 143.696Z" fill="#7EC0DC"/>
<path d="M161.294 23.1074C157.96 31.3842 155.546 61.0429 155.546 96.3918C155.546 131.683 158.018 161.342 161.294 169.619C158.593 166.515 154.397 162.434 148.879 158.008C144.281 138.178 141.924 117.946 141.809 97.7138C141.694 76.6194 144.051 55.4675 148.879 34.7755C154.397 30.2922 158.593 26.2112 161.294 23.1074Z" fill="#00568B"/>
<path d="M148.879 34.7755C154.397 30.3496 158.593 26.2112 161.294 23.1074C159.915 26.6136 158.65 33.9708 157.673 44.0294C157.041 44.5467 156.409 45.064 155.719 45.6388C152.615 48.1678 149.109 50.7543 145.258 53.3983C146.235 47.1332 147.442 40.9256 148.879 34.7755Z" fill="#1283C6"/>
<path d="M161.295 169.618C158.593 166.514 154.397 162.433 148.879 158.007C147.155 150.593 145.776 143.178 144.684 135.648C149.224 138.292 153.42 141.051 157.271 143.695C158.248 156.283 159.685 165.537 161.295 169.618Z" fill="#003D67"/>
<path d="M163.191 99.4956C163.191 105.416 166.008 110.186 169.514 110.186C173.02 110.186 175.837 105.416 175.837 99.4956C175.837 93.5754 173.02 88.8047 169.514 88.8047C166.008 88.8047 163.191 93.5754 163.191 99.4956Z" fill="#B9E5FB"/>
<path d="M80.4385 90.2893C82.0791 90.2893 83.557 90.6734 84.8721 91.4417C86.2002 92.1969 87.2288 93.2711 87.958 94.6643C88.7002 96.0575 89.0713 97.6656 89.0713 99.4885C89.0713 102.679 88.1077 105.127 86.1807 106.832C84.2666 108.538 81.363 109.391 77.4697 109.391C74.1364 109.391 71.415 108.877 69.3057 107.848V101.52C70.4385 102.041 71.7145 102.47 73.1338 102.809C74.5661 103.147 75.7965 103.317 76.8252 103.317C78.2575 103.317 79.3577 103.017 80.126 102.418C80.8942 101.806 81.2783 100.908 81.2783 99.7229C81.2783 98.6292 80.8877 97.7763 80.1064 97.1643C79.3252 96.5523 78.1403 96.2463 76.5518 96.2463C75.3408 96.2463 74.0322 96.4742 72.626 96.9299L69.7939 95.5237L70.8682 80.4456H87.1572V86.8713H77.4307L77.0791 90.6409C78.0947 90.4456 78.8174 90.3414 79.2471 90.3284C79.6768 90.3023 80.0739 90.2893 80.4385 90.2893ZM110.938 94.762C110.938 99.814 110.092 103.518 108.399 105.875C106.707 108.219 104.116 109.391 100.626 109.391C97.2145 109.391 94.6429 108.167 92.9111 105.719C91.1794 103.258 90.3135 99.6057 90.3135 94.762C90.3135 89.6838 91.1598 85.9599 92.8525 83.5901C94.5452 81.2203 97.1364 80.0354 100.626 80.0354C104.024 80.0354 106.59 81.2724 108.321 83.7463C110.066 86.2073 110.938 89.8792 110.938 94.762ZM97.9893 94.762C97.9893 97.9911 98.1911 100.211 98.5947 101.422C98.9984 102.633 99.6755 103.239 100.626 103.239C101.59 103.239 102.267 102.614 102.657 101.364C103.061 100.114 103.263 97.913 103.263 94.762C103.263 91.5979 103.061 89.3844 102.657 88.1213C102.254 86.8453 101.576 86.2073 100.626 86.2073C99.6755 86.2073 98.9984 86.8193 98.5947 88.0432C98.1911 89.2672 97.9893 91.5068 97.9893 94.762ZM132.376 94.762C132.376 99.814 131.53 103.518 129.837 105.875C128.144 108.219 125.553 109.391 122.063 109.391C118.652 109.391 116.08 108.167 114.349 105.719C112.617 103.258 111.751 99.6057 111.751 94.762C111.751 89.6838 112.597 85.9599 114.29 83.5901C115.983 81.2203 118.574 80.0354 122.063 80.0354C125.462 80.0354 128.027 81.2724 129.759 83.7463C131.504 86.2073 132.376 89.8792 132.376 94.762ZM119.427 94.762C119.427 97.9911 119.629 100.211 120.032 101.422C120.436 102.633 121.113 103.239 122.063 103.239C123.027 103.239 123.704 102.614 124.095 101.364C124.498 100.114 124.7 97.913 124.7 94.762C124.7 91.5979 124.498 89.3844 124.095 88.1213C123.691 86.8453 123.014 86.2073 122.063 86.2073C121.113 86.2073 120.436 86.8193 120.032 88.0432C119.629 89.2672 119.427 91.5068 119.427 94.762Z" fill="#00568B"/>
<defs>
<linearGradient id="paint0_linear" x1="242.562" y1="11.9786" x2="259.306" y2="96.6306" gradientUnits="userSpaceOnUse">
<stop stop-color="#FF1D1D"/>
<stop offset="1" stop-color="#FF4172"/>
</linearGradient>
</defs>
</svg>
