<svg width="321" height="191" viewBox="0 0 321 191" fill="none" xmlns="http://www.w3.org/2000/svg">
<path d="M261.37 8.30997C240.154 12.5067 225.797 31.8214 226.99 52.9879L191.393 70.1053L230.394 67.6127C238.179 85.931 257.882 96.9641 278.115 92.9619C301.299 88.3761 316.374 65.6831 311.754 42.3259C307.134 18.9688 284.554 3.72417 261.37 8.30997Z" fill="url(#paint0_linear)" stroke="white" stroke-width="3.9279" stroke-miterlimit="10" stroke-linecap="round" stroke-linejoin="round"/>
<path d="M266.206 69.4772C266.038 68.5702 266.032 67.7015 266.248 66.7854C266.464 65.8693 266.854 65.0612 267.344 64.3768C267.895 63.6069 268.559 63.0305 269.31 62.5081C270.135 61.9699 270.999 61.641 271.963 61.4358C272.926 61.2307 273.842 61.1808 274.796 61.3403C275.75 61.4997 276.581 61.8303 277.277 62.2621C277.973 62.694 278.634 63.351 279.146 64.0395C279.672 64.7977 279.974 65.6034 280.142 66.5103C280.309 67.4173 280.316 68.286 280.1 69.2021C279.884 70.1182 279.494 70.9263 279.004 71.6107C278.514 72.295 277.788 72.957 277.037 73.4794C276.212 74.0176 275.349 74.3465 274.385 74.5517C273.421 74.7568 272.506 74.8067 271.552 74.6472C270.598 74.4878 269.766 74.1572 269.07 73.7254C268.287 73.2395 267.713 72.6365 267.201 71.948C266.676 71.1898 266.373 70.3841 266.206 69.4772ZM263.775 48.3873L260.541 30.8763C260 27.9462 262.082 25.0376 265.196 24.3748C268.309 23.712 271.268 25.5475 271.809 28.4776L275.043 45.9886C275.584 48.9187 273.501 51.8273 270.388 52.4901C267.274 53.1529 264.316 51.3175 263.775 48.3873Z" fill="white"/>
<path d="M56.4867 157.892C56.7166 159.099 57.9811 159.904 59.2456 159.617L65.4533 158.41C66.7178 158.18 67.5225 156.973 67.2351 155.766L64.3037 141.856C64.0738 140.649 62.8093 139.844 61.5448 140.132L55.3371 141.339C54.0726 141.569 53.2679 142.776 53.5553 143.983L56.4867 157.892Z" fill="#002C51"/>
<path d="M63.1532 146.57V145.363C63.7855 145.421 64.4177 145.478 65.05 145.536L67.2341 155.767C67.4641 156.974 66.6594 158.181 65.4523 158.411L63.7855 158.756L59.2447 159.675C57.9802 159.905 56.7732 159.158 56.4858 157.951L56.2559 156.859C60.3368 155.077 63.1532 151.169 63.1532 146.57Z" fill="#001133"/>
<path d="M27.4033 120.533C27.4033 120.533 39.2438 180.77 48.4403 186.92C48.4403 186.92 57.5218 193.818 71.3165 188.415C71.3165 188.415 56.1998 132.546 56.6596 120.821L27.4033 120.533Z" fill="#8ED8F8"/>
<path d="M63.9585 189.506C61.7169 181.23 49.6465 135.477 48.4395 119.958L56.6588 120.015C56.199 131.798 71.3157 187.61 71.3157 187.61C68.6717 188.644 66.2576 189.219 63.9585 189.506Z" fill="#76B4CF"/>
<path d="M65.8548 116.394V125.303C65.8548 130.878 61.1991 135.419 55.3938 135.419H33.2073C27.4595 135.419 22.7463 130.878 22.7463 125.303V116.394H65.8548Z" fill="#002C51"/>
<path d="M31.1956 127.66H57.4056C60.6818 127.66 63.6132 126.453 65.7973 124.441V125.361C65.7973 130.936 61.1416 135.477 55.3363 135.477H33.2073C27.4595 135.477 22.7463 130.936 22.7463 125.361V124.441C24.988 126.396 27.9194 127.66 31.1956 127.66Z" fill="#001537"/>
<path d="M27.4025 69.2051V123.579C12.3433 122.89 0.387901 110.992 0.387901 96.3922C0.330423 81.7928 12.3433 69.8948 27.4025 69.2051Z" fill="#002C51"/>
<path d="M51.5441 69.1475H27.4033V123.522H51.5441V69.1475Z" fill="#00568B"/>
<path d="M161.556 23.1074C158.222 31.3842 155.808 61.0429 155.808 96.3918C155.808 131.683 158.28 161.342 161.556 169.619C149.715 155.996 109.423 123.579 51.543 123.579V69.1473C109.423 69.1473 149.715 36.7297 161.556 23.1074Z" fill="#8ED8F8"/>
<path d="M153.912 96.3911C153.912 136.856 157.303 169.618 161.556 169.618C165.752 169.618 169.201 136.798 169.201 96.3911C169.201 55.9266 165.81 23.1641 161.556 23.1641C160.637 23.1067 153.912 55.9266 153.912 96.3911Z" fill="#002447"/>
<path d="M0.789551 91.6792C0.789551 91.6218 0.789551 91.6218 0.789551 91.6792C0.904507 90.9895 1.07694 90.3572 1.24938 89.725C1.30685 89.5526 1.30685 89.4376 1.36433 89.2652C1.53676 88.6904 1.7092 88.0581 1.93911 87.4834C1.99659 87.3109 2.05407 87.1385 2.11155 86.9661C2.34146 86.3913 2.57137 85.8165 2.80128 85.2992C2.85876 85.1268 2.97371 84.9543 3.03119 84.7819C3.31858 84.2646 3.54849 83.6898 3.89336 83.1725C4.00832 83.0001 4.0658 82.8276 4.18075 82.7127C4.46814 82.1954 4.81301 81.6781 5.15788 81.1608C5.27283 81.0458 5.33031 80.9309 5.44527 80.8159C6.59482 79.2065 7.9743 77.7121 9.46872 76.3901C9.64116 76.2751 9.75611 76.1027 9.92855 75.9878C10.2734 75.7004 10.6758 75.413 11.0206 75.1256C11.308 74.8957 11.5954 74.6658 11.8828 74.4933C12.2277 74.2634 12.5725 74.0335 12.9174 73.8036C13.2623 73.5737 13.6071 73.3438 13.952 73.1713C14.2969 72.9414 14.6417 72.769 14.9866 72.5966C15.389 72.3667 15.7913 72.1942 16.1936 72.0218C16.5385 71.8494 16.8834 71.6769 17.2282 71.562C17.6881 71.3895 18.0904 71.2171 18.5502 71.0447C18.8951 70.9297 19.24 70.8147 19.5848 70.6998C20.0447 70.5274 20.562 70.4124 21.0793 70.2974C21.4241 70.24 21.7115 70.125 22.0564 70.0675C22.6312 69.9526 23.206 69.8376 23.7807 69.7227C24.0681 69.6652 24.3555 69.6077 24.6429 69.5502C25.5051 69.4353 26.3672 69.3203 27.2869 69.3203V84.0922H20.3321V84.1496C12.8599 84.3795 6.02005 87.196 0.789551 91.6792Z" fill="#00639D"/>
<path d="M51.5441 83.9193C50.1071 83.9768 48.6702 83.9768 47.2332 83.9768H27.4033V69.1475H51.5441V83.9193Z" fill="#1283C6"/>
<path d="M51.543 69.1473C53.2098 69.1473 54.8192 69.0898 56.4286 69.0898C56.9459 69.0898 57.4057 69.0323 57.923 69.0323C59.0726 68.9748 60.2221 68.9174 61.3142 68.8599C61.8315 68.8024 62.3488 68.8024 62.8661 68.7449C64.1307 68.63 65.3377 68.5725 66.6022 68.4001C66.9471 68.3426 67.2345 68.3426 67.5793 68.2851C69.1312 68.1127 70.6257 67.9402 72.1201 67.7103C72.5224 67.6529 72.9248 67.5954 73.3271 67.5379C74.4767 67.3655 75.5688 67.193 76.6608 67.0206C77.1782 66.9631 77.638 66.8482 78.1553 66.7907C79.2474 66.6182 80.282 66.3883 81.3166 66.2159C81.7189 66.1584 82.1787 66.0435 82.5811 65.986C84.018 65.6986 85.3975 65.4112 86.8344 65.0663C87.0644 65.0089 87.2943 64.9514 87.5242 64.8939C88.6737 64.6065 89.8808 64.3191 91.0303 64.0317C91.4902 63.9168 91.95 63.8018 92.4098 63.6294C93.3295 63.342 94.3066 63.1121 95.2262 62.8247C95.6861 62.7097 96.1459 62.5373 96.6057 62.4223C97.6978 62.0775 98.7899 61.7326 99.8819 61.3878C100.112 61.3303 100.342 61.2153 100.572 61.1578C101.836 60.7555 103.101 60.2957 104.308 59.8358C104.768 59.6634 105.17 59.491 105.572 59.376C106.377 59.0886 107.239 58.7438 108.044 58.4564C108.504 58.2839 108.963 58.1115 109.481 57.8816C110.285 57.5367 111.09 57.2493 111.837 56.9045C112.24 56.732 112.642 56.5596 113.044 56.3872C114.136 55.9273 115.229 55.41 116.321 54.9502C116.723 54.7778 117.183 54.5479 117.585 54.3754C118.275 54.0306 118.965 53.7432 119.654 53.3983C120.172 53.1684 120.631 52.881 121.149 52.6511C121.724 52.3637 122.298 52.0763 122.931 51.7315C123.448 51.5015 123.908 51.2141 124.425 50.9842C125.057 50.6394 125.632 50.352 126.207 50.0071C127.069 49.5473 127.874 49.0875 128.678 48.6276C129.138 48.3403 129.656 48.1103 130.115 47.8229C130.69 47.4781 131.207 47.1907 131.782 46.8458C132.185 46.6159 132.529 46.386 132.932 46.1561C133.507 45.8112 134.024 45.4664 134.599 45.1215C134.886 44.9491 135.173 44.7766 135.461 44.5467C137.473 43.2822 139.369 42.0177 141.209 40.6957C141.381 40.5807 141.496 40.4658 141.668 40.4083C142.301 40.0059 142.875 39.5461 143.45 39.1438C143.565 39.0863 143.623 38.9713 143.738 38.9139C152.014 32.8787 158.107 27.1309 161.613 23.1074C160.234 26.6136 158.969 33.9708 157.992 44.0294C157.36 44.5467 156.728 45.064 156.038 45.6388C135.806 61.9625 99.3072 82.7121 51.6005 83.9191V69.1473H51.543Z" fill="#B1E3FA"/>
<path d="M178.167 98.5763C178.167 98.4614 178.11 98.3464 178.11 98.2314C178.167 98.3464 178.167 98.4614 178.167 98.5763Z" fill="#00568B"/>
<path d="M155.808 77.4814C168.338 78.1137 178.282 88.1149 178.282 100.358C178.282 112.6 168.338 122.602 155.808 123.234V77.4814Z" fill="#8ED8F8"/>
<path d="M24.126 123.234C23.4938 123.119 22.8615 123.004 22.2292 122.889C21.9993 122.832 21.7694 122.774 21.5395 122.717C20.9073 122.544 20.275 122.372 19.6427 122.199C19.4703 122.142 19.2979 122.084 19.1254 122.027C17.5735 121.51 16.0216 120.82 14.6422 120.015C14.4697 119.9 14.2398 119.785 14.0674 119.67C13.5501 119.383 13.0903 119.095 12.5729 118.751C12.343 118.578 12.1131 118.463 11.9407 118.291C11.4809 117.946 11.021 117.601 10.6187 117.256C10.4463 117.084 10.2164 116.969 10.0439 116.796C9.46914 116.279 8.89436 115.762 8.31958 115.244C8.14714 115.072 8.03219 114.957 7.85976 114.785C7.45741 114.382 7.11254 113.98 6.7102 113.52C6.48029 113.29 6.30785 113.003 6.07794 112.715C5.79055 112.371 5.56064 112.026 5.27325 111.681C5.04334 111.393 4.8709 111.106 4.64099 110.761C4.41108 110.416 4.18116 110.014 3.95125 109.669C3.77882 109.382 3.60639 109.037 3.43395 108.749C3.08908 108.175 2.80169 107.542 2.5143 106.91C2.34187 106.565 2.22691 106.22 2.11196 105.876C1.997 105.531 1.88205 105.186 1.76709 104.898C5.9055 106.795 10.5612 108.002 15.4468 108.232H27.4023V123.579C26.5401 123.521 25.6779 123.464 24.8158 123.349C24.5858 123.291 24.3559 123.234 24.126 123.234Z" fill="#001537"/>
<path d="M45.6238 108.232C47.6356 108.29 49.5898 108.29 51.5441 108.347V123.579H27.4033V108.232H45.6238Z" fill="#00335A"/>
<path d="M157.475 143.696C158.51 156.283 159.889 165.537 161.556 169.618C155.464 162.606 141.726 150.535 122.011 140.534C121.896 140.477 121.781 140.419 121.724 140.362C120.862 139.96 120 139.5 119.137 139.097C119.023 139.04 118.908 138.982 118.793 138.925C116.264 137.718 113.62 136.511 110.861 135.419C110.516 135.246 110.171 135.131 109.826 134.959C109.079 134.672 108.332 134.384 107.527 134.039C107.067 133.867 106.607 133.694 106.205 133.522C105.458 133.235 104.711 132.947 103.963 132.717C103.446 132.545 102.929 132.372 102.469 132.2C101.262 131.798 99.9973 131.338 98.7328 130.936C98.1005 130.706 97.4683 130.533 96.836 130.361C96.1463 130.131 95.514 129.958 94.8243 129.786C94.1346 129.614 93.4448 129.384 92.8126 129.211C92.1803 129.039 91.4906 128.866 90.8583 128.694C90.0536 128.464 89.2489 128.292 88.3868 128.062C87.812 127.889 87.1797 127.774 86.6049 127.602C85.3404 127.314 84.0759 127.027 82.8114 126.74C82.2366 126.625 81.6618 126.51 81.0871 126.395C80.2249 126.222 79.3052 126.05 78.4431 125.877C77.8683 125.763 77.236 125.648 76.6038 125.59C75.6267 125.418 74.707 125.303 73.7299 125.13C73.2126 125.073 72.6953 124.958 72.178 124.9C70.741 124.728 69.2466 124.555 67.7522 124.383C67.3498 124.326 66.89 124.326 66.4877 124.268C65.3381 124.153 64.1885 124.038 63.039 123.981C62.4642 123.923 61.9469 123.923 61.3721 123.866C60.28 123.808 59.188 123.751 58.0959 123.693C57.5786 123.693 57.0613 123.636 56.544 123.636C54.9921 123.578 53.3827 123.578 51.7733 123.578H51.7158V108.347C97.4108 109.784 133.909 127.257 157.475 143.696Z" fill="#7EC0DC"/>
<path d="M161.556 23.1074C158.222 31.3842 155.808 61.0429 155.808 96.3918C155.808 131.683 158.28 161.342 161.556 169.619C158.854 166.515 154.659 162.434 149.141 158.008C144.542 138.178 142.186 117.946 142.071 97.7138C141.956 76.6194 144.313 55.4675 149.141 34.7755C154.659 30.2922 158.854 26.2112 161.556 23.1074Z" fill="#00568B"/>
<path d="M149.141 34.7755C154.659 30.3496 158.854 26.2112 161.556 23.1074C160.176 26.6136 158.912 33.9708 157.935 44.0294C157.303 44.5467 156.67 45.064 155.981 45.6388C152.877 48.1678 149.371 50.7543 145.52 53.3983C146.497 47.1332 147.704 40.9256 149.141 34.7755Z" fill="#1283C6"/>
<path d="M161.556 169.618C158.855 166.514 154.659 162.433 149.141 158.007C147.417 150.593 146.037 143.178 144.945 135.648C149.486 138.292 153.682 141.051 157.533 143.695C158.51 156.283 159.947 165.537 161.556 169.618Z" fill="#003D67"/>
<path d="M163.453 99.4956C163.453 105.416 166.27 110.186 169.776 110.186C173.282 110.186 176.098 105.416 176.098 99.4956C176.098 93.5754 173.282 88.8047 169.776 88.8047C166.27 88.8047 163.453 93.5754 163.453 99.4956Z" fill="#B9E5FB"/>
<path d="M89.6455 109H68.9229V103.922L75.8955 96.8713C77.8877 94.788 79.1898 93.3687 79.8018 92.6135C80.4137 91.8453 80.8369 91.1877 81.0713 90.6409C81.3187 90.094 81.4424 89.5211 81.4424 88.9221C81.4424 88.1799 81.2015 87.594 80.7197 87.1643C80.238 86.7346 79.5609 86.5198 78.6885 86.5198C77.79 86.5198 76.8786 86.7802 75.9541 87.301C75.0426 87.8088 74.0075 88.564 72.8486 89.5667L68.6104 84.6057C70.0817 83.2906 71.3187 82.3531 72.3213 81.7932C73.3239 81.2203 74.4111 80.7841 75.583 80.4846C76.7679 80.1851 78.096 80.0354 79.5674 80.0354C81.4163 80.0354 83.0635 80.3609 84.5088 81.012C85.9671 81.663 87.0934 82.594 87.8877 83.8049C88.695 85.0028 89.0986 86.3505 89.0986 87.8479C89.0986 88.9677 88.9554 90.0028 88.6689 90.9534C88.3955 91.9039 87.9658 92.8414 87.3799 93.7659C86.7939 94.6773 86.0127 95.6409 85.0361 96.6565C84.0726 97.6721 82.0088 99.5992 78.8447 102.438V102.633H89.6455V109ZM102.138 90.2893C103.778 90.2893 105.256 90.6734 106.571 91.4417C107.899 92.1969 108.928 93.2711 109.657 94.6643C110.399 96.0575 110.771 97.6656 110.771 99.4885C110.771 102.679 109.807 105.127 107.88 106.832C105.966 108.538 103.062 109.391 99.1689 109.391C95.8356 109.391 93.1143 108.877 91.0049 107.848V101.52C92.1377 102.041 93.4137 102.47 94.833 102.809C96.2653 103.147 97.4958 103.317 98.5244 103.317C99.9567 103.317 101.057 103.017 101.825 102.418C102.593 101.806 102.978 100.908 102.978 99.7229C102.978 98.6292 102.587 97.7763 101.806 97.1643C101.024 96.5523 99.8395 96.2463 98.251 96.2463C97.04 96.2463 95.7314 96.4742 94.3252 96.9299L91.4932 95.5237L92.5674 80.4456H108.856V86.8713H99.1299L98.7783 90.6409C99.7939 90.4456 100.517 90.3414 100.946 90.3284C101.376 90.3023 101.773 90.2893 102.138 90.2893ZM132.638 94.762C132.638 99.814 131.791 103.518 130.099 105.875C128.406 108.219 125.815 109.391 122.325 109.391C118.914 109.391 116.342 108.167 114.61 105.719C112.879 103.258 112.013 99.6057 112.013 94.762C112.013 89.6838 112.859 85.9599 114.552 83.5901C116.244 81.2203 118.836 80.0354 122.325 80.0354C125.724 80.0354 128.289 81.2724 130.021 83.7463C131.765 86.2073 132.638 89.8792 132.638 94.762ZM119.688 94.762C119.688 97.9911 119.89 100.211 120.294 101.422C120.698 102.633 121.375 103.239 122.325 103.239C123.289 103.239 123.966 102.614 124.356 101.364C124.76 100.114 124.962 97.913 124.962 94.762C124.962 91.5979 124.76 89.3844 124.356 88.1213C123.953 86.8453 123.276 86.2073 122.325 86.2073C121.375 86.2073 120.698 86.8193 120.294 88.0432C119.89 89.2672 119.688 91.5068 119.688 94.762Z" fill="#00568B"/>
<defs>
<linearGradient id="paint0_linear" x1="242.823" y1="11.9786" x2="259.568" y2="96.6306" gradientUnits="userSpaceOnUse">
<stop stop-color="#FF1D1D"/>
<stop offset="1" stop-color="#FF4172"/>
</linearGradient>
</defs>
</svg>
