<svg width="320" height="191" viewBox="0 0 320 191" fill="none" xmlns="http://www.w3.org/2000/svg">
<path d="M261.154 8.30997C239.937 12.5067 225.58 31.8214 226.774 52.9879L191.176 70.1053L230.178 67.6127C237.962 85.931 257.665 96.9641 277.898 92.9619C301.082 88.3761 316.158 65.6831 311.538 42.3259C306.918 18.9688 284.338 3.72417 261.154 8.30997Z" fill="url(#paint0_linear)" stroke="white" stroke-width="3.9279" stroke-miterlimit="10" stroke-linecap="round" stroke-linejoin="round"/>
<path d="M265.989 69.4772C265.822 68.5702 265.815 67.7015 266.031 66.7854C266.247 65.8693 266.637 65.0612 267.127 64.3768C267.679 63.6069 268.343 63.0305 269.094 62.5081C269.919 61.9699 270.783 61.641 271.746 61.4359C272.71 61.2307 273.625 61.1808 274.579 61.3403C275.533 61.4998 276.365 61.8303 277.061 62.2622C277.757 62.694 278.418 63.351 278.93 64.0395C279.455 64.7978 279.758 65.6034 279.926 66.5104C280.093 67.4173 280.1 68.2861 279.883 69.2021C279.667 70.1182 279.277 70.9263 278.787 71.6107C278.297 72.2951 277.572 72.957 276.821 73.4794C275.996 74.0176 275.132 74.3465 274.169 74.5517C273.205 74.7568 272.289 74.8067 271.335 74.6473C270.381 74.4878 269.55 74.1573 268.854 73.7254C268.071 73.2395 267.497 72.6366 266.985 71.9481C266.459 71.1898 266.157 70.3841 265.989 69.4772ZM263.558 48.3873L260.325 30.8763C259.783 27.9462 261.866 25.0376 264.979 24.3748C268.093 23.712 271.051 25.5475 271.592 28.4776L274.826 45.9887C275.367 48.9188 273.285 51.8273 270.171 52.4901C267.058 53.1529 264.099 51.3175 263.558 48.3873Z" fill="white"/>
<path d="M56.2701 157.892C56.5001 159.099 57.7646 159.904 59.0291 159.617L65.2367 158.41C66.5012 158.18 67.3059 156.973 67.0185 155.766L64.0872 141.856C63.8572 140.649 62.5927 139.844 61.3282 140.132L55.1206 141.339C53.8561 141.569 53.0514 142.776 53.3388 143.983L56.2701 157.892Z" fill="#002C51"/>
<path d="M62.9367 146.57V145.363C63.5689 145.421 64.2012 145.478 64.8334 145.536L67.0176 155.767C67.2475 156.974 66.4428 158.181 65.2358 158.411L63.5689 158.756L59.0282 159.675C57.7636 159.905 56.5566 159.158 56.2692 157.951L56.0393 156.859C60.1202 155.077 62.9367 151.169 62.9367 146.57Z" fill="#001133"/>
<path d="M27.1868 120.533C27.1868 120.533 39.0272 180.77 48.2237 186.92C48.2237 186.92 57.3052 193.818 71.0999 188.415C71.0999 188.415 55.9832 132.546 56.4431 120.821L27.1868 120.533Z" fill="#8ED8F8"/>
<path d="M63.742 189.506C61.5003 181.23 49.4299 135.477 48.2229 119.958L56.4423 120.015C55.9824 131.798 71.0991 187.61 71.0991 187.61C68.4551 188.644 66.0411 189.219 63.742 189.506Z" fill="#76B4CF"/>
<path d="M65.6383 116.394V125.303C65.6383 130.878 60.9825 135.419 55.1773 135.419H32.9908C27.243 135.419 22.5298 130.878 22.5298 125.303V116.394H65.6383Z" fill="#002C51"/>
<path d="M30.979 127.66H57.189C60.4652 127.66 63.3966 126.453 65.5808 124.441V125.361C65.5808 130.936 60.9251 135.477 55.1198 135.477H32.9908C27.243 135.477 22.5298 130.936 22.5298 125.361V124.441C24.7714 126.396 27.7028 127.66 30.979 127.66Z" fill="#001537"/>
<path d="M27.186 69.2051V123.579C12.1268 122.89 0.171348 110.992 0.171348 96.3922C0.11387 81.7928 12.1268 69.8948 27.186 69.2051Z" fill="#002C51"/>
<path d="M51.3275 69.1475H27.1868V123.522H51.3275V69.1475Z" fill="#00568B"/>
<path d="M161.339 23.1074C158.006 31.3842 155.592 61.0429 155.592 96.3918C155.592 131.683 158.063 161.342 161.339 169.619C149.499 155.996 109.207 123.579 51.3267 123.579V69.1473C109.207 69.1473 149.499 36.7297 161.339 23.1074Z" fill="#8ED8F8"/>
<path d="M153.695 96.3911C153.695 136.856 157.086 169.618 161.339 169.618C165.535 169.618 168.984 136.798 168.984 96.3911C168.984 55.9266 165.593 23.1641 161.339 23.1641C160.42 23.1067 153.695 55.9266 153.695 96.3911Z" fill="#002447"/>
<path d="M0.572998 91.6792C0.572998 91.6218 0.572998 91.6218 0.572998 91.6792C0.687954 90.9895 0.86039 90.3572 1.03282 89.725C1.0903 89.5526 1.0903 89.4376 1.14778 89.2652C1.32021 88.6904 1.49265 88.0581 1.72256 87.4834C1.78004 87.3109 1.83752 87.1385 1.89499 86.9661C2.1249 86.3913 2.35482 85.8165 2.58473 85.2992C2.6422 85.1268 2.75716 84.9543 2.81464 84.7819C3.10203 84.2646 3.33194 83.6898 3.67681 83.1725C3.79177 83.0001 3.84924 82.8276 3.9642 82.7127C4.25159 82.1954 4.59646 81.6781 4.94132 81.1608C5.05628 81.0458 5.11376 80.9309 5.22871 80.8159C6.37827 79.2065 7.75774 77.7121 9.25217 76.3901C9.4246 76.2751 9.53956 76.1027 9.712 75.9878C10.0569 75.7004 10.4592 75.413 10.8041 75.1256C11.0915 74.8957 11.3789 74.6658 11.6662 74.4933C12.0111 74.2634 12.356 74.0335 12.7008 73.8036C13.0457 73.5737 13.3906 73.3438 13.7355 73.1713C14.0803 72.9414 14.4252 72.769 14.7701 72.5966C15.1724 72.3667 15.5747 72.1942 15.9771 72.0218C16.322 71.8494 16.6668 71.6769 17.0117 71.562C17.4715 71.3895 17.8739 71.2171 18.3337 71.0447C18.6786 70.9297 19.0234 70.8147 19.3683 70.6998C19.8281 70.5274 20.3454 70.4124 20.8627 70.2974C21.2076 70.24 21.495 70.125 21.8398 70.0675C22.4146 69.9526 22.9894 69.8376 23.5642 69.7227C23.8516 69.6652 24.139 69.6077 24.4264 69.5502C25.2885 69.4353 26.1507 69.3203 27.0703 69.3203V84.0922H20.1155V84.1496C12.6434 84.3795 5.80349 87.196 0.572998 91.6792Z" fill="#00639D"/>
<path d="M51.3275 83.9193C49.8906 83.9768 48.4536 83.9768 47.0167 83.9768H27.1868V69.1475H51.3275V83.9193Z" fill="#1283C6"/>
<path d="M51.3267 69.1473C52.9935 69.1473 54.6029 69.0898 56.2123 69.0898C56.7296 69.0898 57.1894 69.0323 57.7067 69.0323C58.8563 68.9748 60.0058 68.9174 61.0979 68.8599C61.6152 68.8024 62.1325 68.8024 62.6498 68.7449C63.9143 68.63 65.1214 68.5725 66.3859 68.4001C66.7308 68.3426 67.0182 68.3426 67.363 68.2851C68.9149 68.1127 70.4093 67.9402 71.9038 67.7103C72.3061 67.6529 72.7085 67.5954 73.1108 67.5379C74.2604 67.3655 75.3525 67.193 76.4445 67.0206C76.9618 66.9631 77.4217 66.8482 77.939 66.7907C79.031 66.6182 80.0656 66.3883 81.1003 66.2159C81.5026 66.1584 81.9624 66.0435 82.3648 65.986C83.8017 65.6986 85.1812 65.4112 86.6181 65.0663C86.848 65.0089 87.078 64.9514 87.3079 64.8939C88.4574 64.6065 89.6645 64.3191 90.814 64.0317C91.2739 63.9168 91.7337 63.8018 92.1935 63.6294C93.1131 63.342 94.0903 63.1121 95.0099 62.8247C95.4697 62.7097 95.9296 62.5373 96.3894 62.4223C97.4815 62.0775 98.5736 61.7326 99.6656 61.3878C99.8955 61.3303 100.125 61.2153 100.355 61.1578C101.62 60.7555 102.884 60.2957 104.091 59.8358C104.551 59.6634 104.954 59.491 105.356 59.376C106.161 59.0886 107.023 58.7438 107.828 58.4564C108.287 58.2839 108.747 58.1115 109.264 57.8816C110.069 57.5367 110.874 57.2493 111.621 56.9045C112.023 56.732 112.426 56.5596 112.828 56.3872C113.92 55.9273 115.012 55.41 116.104 54.9502C116.507 54.7778 116.966 54.5479 117.369 54.3754C118.059 54.0306 118.748 53.7432 119.438 53.3983C119.955 53.1684 120.415 52.881 120.932 52.6511C121.507 52.3637 122.082 52.0763 122.714 51.7315C123.232 51.5015 123.691 51.2141 124.209 50.9842C124.841 50.6394 125.416 50.352 125.991 50.0071C126.853 49.5473 127.657 49.0875 128.462 48.6276C128.922 48.3403 129.439 48.1103 129.899 47.8229C130.474 47.4781 130.991 47.1907 131.566 46.8458C131.968 46.6159 132.313 46.386 132.715 46.1561C133.29 45.8112 133.808 45.4664 134.382 45.1215C134.67 44.9491 134.957 44.7766 135.244 44.5467C137.256 43.2822 139.153 42.0177 140.992 40.6957C141.165 40.5807 141.28 40.4658 141.452 40.4083C142.084 40.0059 142.659 39.5461 143.234 39.1438C143.349 39.0863 143.406 38.9713 143.521 38.9139C151.798 32.8787 157.891 27.1309 161.397 23.1074C160.018 26.6136 158.753 33.9708 157.776 44.0294C157.144 44.5467 156.511 45.064 155.822 45.6388C135.589 61.9625 99.0909 82.7121 51.3841 83.9191V69.1473H51.3267Z" fill="#B1E3FA"/>
<path d="M177.951 98.5763C177.951 98.4614 177.893 98.3464 177.893 98.2314C177.951 98.3464 177.951 98.4614 177.951 98.5763Z" fill="#00568B"/>
<path d="M155.592 77.4814C168.122 78.1137 178.065 88.1149 178.065 100.358C178.065 112.6 168.122 122.602 155.592 123.234V77.4814Z" fill="#8ED8F8"/>
<path d="M23.9095 123.234C23.2772 123.119 22.645 123.004 22.0127 122.889C21.7828 122.832 21.5529 122.774 21.323 122.717C20.6907 122.544 20.0584 122.372 19.4262 122.199C19.2538 122.142 19.0813 122.084 18.9089 122.027C17.357 121.51 15.8051 120.82 14.4256 120.015C14.2532 119.9 14.0233 119.785 13.8508 119.67C13.3335 119.383 12.8737 119.095 12.3564 118.751C12.1265 118.578 11.8966 118.463 11.7241 118.291C11.2643 117.946 10.8045 117.601 10.4021 117.256C10.2297 117.084 9.9998 116.969 9.82736 116.796C9.25258 116.279 8.6778 115.762 8.10302 115.244C7.93059 115.072 7.81564 114.957 7.6432 114.785C7.24086 114.382 6.89599 113.98 6.49364 113.52C6.26373 113.29 6.0913 113.003 5.86139 112.715C5.574 112.371 5.34408 112.026 5.05669 111.681C4.82678 111.393 4.65435 111.106 4.42444 110.761C4.19453 110.416 3.96461 110.014 3.7347 109.669C3.56227 109.382 3.38983 109.037 3.2174 108.749C2.87253 108.175 2.58514 107.542 2.29775 106.91C2.12532 106.565 2.01036 106.22 1.89541 105.876C1.78045 105.531 1.66549 105.186 1.55054 104.898C5.68895 106.795 10.3447 108.002 15.2303 108.232H27.1857V123.579C26.3235 123.521 25.4614 123.464 24.5992 123.349C24.3693 123.291 24.1394 123.234 23.9095 123.234Z" fill="#001537"/>
<path d="M45.4073 108.232C47.419 108.29 49.3733 108.29 51.3275 108.347V123.579H27.1868V108.232H45.4073Z" fill="#00335A"/>
<path d="M157.258 143.696C158.293 156.283 159.673 165.537 161.339 169.618C155.247 162.606 141.51 150.535 121.795 140.534C121.68 140.477 121.565 140.419 121.507 140.362C120.645 139.96 119.783 139.5 118.921 139.097C118.806 139.04 118.691 138.982 118.576 138.925C116.047 137.718 113.403 136.511 110.644 135.419C110.299 135.246 109.954 135.131 109.609 134.959C108.862 134.672 108.115 134.384 107.31 134.039C106.85 133.867 106.39 133.694 105.988 133.522C105.241 133.235 104.494 132.947 103.747 132.717C103.229 132.545 102.712 132.372 102.252 132.2C101.045 131.798 99.7805 131.338 98.516 130.936C97.8837 130.706 97.2515 130.533 96.6192 130.361C95.9295 130.131 95.2972 129.958 94.6075 129.786C93.9178 129.614 93.228 129.384 92.5958 129.211C91.9635 129.039 91.2738 128.866 90.6415 128.694C89.8368 128.464 89.0321 128.292 88.17 128.062C87.5952 127.889 86.9629 127.774 86.3881 127.602C85.1236 127.314 83.8591 127.027 82.5946 126.74C82.0198 126.625 81.445 126.51 80.8703 126.395C80.0081 126.222 79.0884 126.05 78.2263 125.877C77.6515 125.763 77.0192 125.648 76.387 125.59C75.4099 125.418 74.4902 125.303 73.5131 125.13C72.9958 125.073 72.4785 124.958 71.9612 124.9C70.5242 124.728 69.0298 124.555 67.5354 124.383C67.133 124.326 66.6732 124.326 66.2709 124.268C65.1213 124.153 63.9717 124.038 62.8222 123.981C62.2474 123.923 61.7301 123.923 61.1553 123.866C60.0632 123.808 58.9712 123.751 57.8791 123.693C57.3618 123.693 56.8445 123.636 56.3272 123.636C54.7753 123.578 53.1659 123.578 51.5565 123.578H51.499V108.347C97.194 109.784 133.693 127.257 157.258 143.696Z" fill="#7EC0DC"/>
<path d="M161.339 23.1074C158.006 31.3842 155.592 61.0429 155.592 96.3918C155.592 131.683 158.063 161.342 161.339 169.619C158.638 166.515 154.442 162.434 148.924 158.008C144.326 138.178 141.969 117.946 141.854 97.7138C141.739 76.6194 144.096 55.4675 148.924 34.7755C154.442 30.2922 158.638 26.2112 161.339 23.1074Z" fill="#00568B"/>
<path d="M148.924 34.7755C154.442 30.3496 158.638 26.2112 161.339 23.1074C159.96 26.6136 158.695 33.9708 157.718 44.0294C157.086 44.5467 156.454 45.064 155.764 45.6388C152.66 48.1678 149.154 50.7543 145.303 53.3983C146.28 47.1332 147.487 40.9256 148.924 34.7755Z" fill="#1283C6"/>
<path d="M161.34 169.618C158.638 166.514 154.442 162.433 148.924 158.007C147.2 150.593 145.821 143.178 144.729 135.648C149.269 138.292 153.465 141.051 157.316 143.695C158.293 156.283 159.73 165.537 161.34 169.618Z" fill="#003D67"/>
<path d="M163.237 99.4956C163.237 105.416 166.053 110.186 169.559 110.186C173.066 110.186 175.882 105.416 175.882 99.4956C175.882 93.5754 173.066 88.8047 169.559 88.8047C166.053 88.8047 163.237 93.5754 163.237 99.4956Z" fill="#B9E5FB"/>
<path d="M96.2024 90.2893C97.843 90.2893 99.3209 90.6734 100.636 91.4417C101.964 92.1969 102.993 93.2711 103.722 94.6643C104.464 96.0575 104.835 97.6656 104.835 99.4885C104.835 102.679 103.872 105.127 101.945 106.832C100.031 108.538 97.1269 109.391 93.2336 109.391C89.9003 109.391 87.179 108.877 85.0696 107.848V101.52C86.2024 102.041 87.4784 102.47 88.8977 102.809C90.33 103.147 91.5605 103.317 92.5891 103.317C94.0214 103.317 95.1217 103.017 95.8899 102.418C96.6581 101.806 97.0422 100.908 97.0422 99.7229C97.0422 98.6292 96.6516 97.7763 95.8704 97.1643C95.0891 96.5523 93.9042 96.2463 92.3157 96.2463C91.1047 96.2463 89.7961 96.4742 88.3899 96.9299L85.5579 95.5237L86.6321 80.4456H102.921V86.8713H93.1946L92.843 90.6409C93.8586 90.4456 94.5813 90.3414 95.011 90.3284C95.4407 90.3023 95.8378 90.2893 96.2024 90.2893ZM126.702 94.762C126.702 99.814 125.856 103.518 124.163 105.875C122.471 108.219 119.879 109.391 116.39 109.391C112.978 109.391 110.407 108.167 108.675 105.719C106.943 103.258 106.077 99.6057 106.077 94.762C106.077 89.6838 106.924 85.9599 108.616 83.5901C110.309 81.2203 112.9 80.0354 116.39 80.0354C119.788 80.0354 122.353 81.2724 124.085 83.7463C125.83 86.2073 126.702 89.8792 126.702 94.762ZM113.753 94.762C113.753 97.9911 113.955 100.211 114.359 101.422C114.762 102.633 115.439 103.239 116.39 103.239C117.353 103.239 118.031 102.614 118.421 101.364C118.825 100.114 119.027 97.913 119.027 94.762C119.027 91.5979 118.825 89.3844 118.421 88.1213C118.017 86.8453 117.34 86.2073 116.39 86.2073C115.439 86.2073 114.762 86.8193 114.359 88.0432C113.955 89.2672 113.753 91.5068 113.753 94.762Z" fill="#00568B"/>
<defs>
<linearGradient id="paint0_linear" x1="242.607" y1="11.9786" x2="259.351" y2="96.6306" gradientUnits="userSpaceOnUse">
<stop stop-color="#FFC700"/>
<stop offset="1" stop-color="#FF4070"/>
</linearGradient>
</defs>
</svg>
