<svg width="321" height="191" viewBox="0 0 321 191" fill="none" xmlns="http://www.w3.org/2000/svg">
<path d="M261.415 8.30997C240.199 12.5067 225.841 31.8214 227.035 52.9879L191.438 70.1053L230.439 67.6127C238.223 85.931 257.926 96.9641 278.159 92.9619C301.343 88.3761 316.419 65.6831 311.799 42.3259C307.179 18.9688 284.599 3.72417 261.415 8.30997Z" fill="url(#paint0_linear)" stroke="white" stroke-width="3.9279" stroke-miterlimit="10" stroke-linecap="round" stroke-linejoin="round"/>
<path d="M266.25 69.4772C266.083 68.5702 266.076 67.7015 266.293 66.7854C266.509 65.8693 266.899 65.0612 267.389 64.3768C267.94 63.6069 268.604 63.0305 269.355 62.5081C270.18 61.9699 271.044 61.641 272.008 61.4359C272.971 61.2307 273.887 61.1808 274.841 61.3403C275.795 61.4998 276.626 61.8303 277.322 62.2622C278.018 62.694 278.679 63.351 279.191 64.0395C279.717 64.7978 280.019 65.6034 280.187 66.5104C280.354 67.4173 280.361 68.2861 280.145 69.2021C279.929 70.1182 279.539 70.9263 279.049 71.6107C278.559 72.2951 277.833 72.957 277.082 73.4794C276.257 74.0176 275.393 74.3465 274.43 74.5517C273.466 74.7568 272.551 74.8067 271.597 74.6473C270.643 74.4878 269.811 74.1573 269.115 73.7254C268.332 73.2395 267.758 72.6366 267.246 71.9481C266.721 71.1898 266.418 70.3841 266.25 69.4772ZM263.82 48.3873L260.586 30.8763C260.045 27.9462 262.127 25.0376 265.24 24.3748C268.354 23.712 271.312 25.5475 271.854 28.4776L275.087 45.9887C275.628 48.9188 273.546 51.8273 270.433 52.4901C267.319 53.1529 264.361 51.3175 263.82 48.3873Z" fill="white"/>
<path d="M56.5314 157.892C56.7613 159.099 58.0258 159.904 59.2903 159.617L65.4979 158.41C66.7625 158.18 67.5671 156.973 67.2798 155.766L64.3484 141.856C64.1185 140.649 62.854 139.844 61.5894 140.132L55.3818 141.339C54.1173 141.569 53.3126 142.776 53.6 143.983L56.5314 157.892Z" fill="#002C51"/>
<path d="M63.1979 146.57V145.363C63.8302 145.421 64.4624 145.478 65.0947 145.536L67.2788 155.767C67.5087 156.974 66.704 158.181 65.497 158.411L63.8301 158.756L59.2894 159.675C58.0249 159.905 56.8178 159.158 56.5304 157.951L56.3005 156.859C60.3815 155.077 63.1979 151.169 63.1979 146.57Z" fill="#001133"/>
<path d="M27.448 120.533C27.448 120.533 39.2885 180.77 48.4849 186.92C48.4849 186.92 57.5665 193.818 71.3612 188.415C71.3612 188.415 56.2445 132.546 56.7043 120.821L27.448 120.533Z" fill="#8ED8F8"/>
<path d="M64.0032 189.506C61.7615 181.23 49.6912 135.477 48.4841 119.958L56.7035 120.015C56.2437 131.798 71.3604 187.61 71.3604 187.61C68.7164 188.644 66.3023 189.219 64.0032 189.506Z" fill="#76B4CF"/>
<path d="M65.8995 116.394V125.303C65.8995 130.878 61.2438 135.419 55.4385 135.419H33.252C27.5042 135.419 22.791 130.878 22.791 125.303V116.394H65.8995Z" fill="#002C51"/>
<path d="M31.2403 127.66H57.4502C60.7265 127.66 63.6578 126.453 65.842 124.441V125.361C65.842 130.936 61.1863 135.477 55.381 135.477H33.252C27.5042 135.477 22.791 130.936 22.791 125.361V124.441C25.0327 126.396 27.964 127.66 31.2403 127.66Z" fill="#001537"/>
<path d="M27.4472 69.2051V123.579C12.388 122.89 0.432578 110.992 0.432578 96.3922C0.3751 81.7928 12.388 69.8948 27.4472 69.2051Z" fill="#002C51"/>
<path d="M51.5887 69.1475H27.448V123.522H51.5887V69.1475Z" fill="#00568B"/>
<path d="M161.601 23.1074C158.267 31.3842 155.853 61.0429 155.853 96.3918C155.853 131.683 158.324 161.342 161.601 169.619C149.76 155.996 109.468 123.579 51.5879 123.579V69.1473C109.468 69.1473 149.76 36.7297 161.601 23.1074Z" fill="#8ED8F8"/>
<path d="M153.956 96.3911C153.956 136.856 157.347 169.618 161.601 169.618C165.797 169.618 169.245 136.798 169.245 96.3911C169.245 55.9266 165.854 23.1641 161.601 23.1641C160.681 23.1067 153.956 55.9266 153.956 96.3911Z" fill="#002447"/>
<path d="M0.834229 91.6792C0.834229 91.6218 0.834229 91.6218 0.834229 91.6792C0.949184 90.9895 1.12162 90.3572 1.29405 89.725C1.35153 89.5526 1.35153 89.4376 1.40901 89.2652C1.58144 88.6904 1.75388 88.0581 1.98379 87.4834C2.04127 87.3109 2.09875 87.1385 2.15622 86.9661C2.38614 86.3913 2.61605 85.8165 2.84596 85.2992C2.90344 85.1268 3.01839 84.9543 3.07587 84.7819C3.36326 84.2646 3.59317 83.6898 3.93804 83.1725C4.053 83.0001 4.11047 82.8276 4.22543 82.7127C4.51282 82.1954 4.85769 81.6781 5.20255 81.1608C5.31751 81.0458 5.37499 80.9309 5.48994 80.8159C6.6395 79.2065 8.01897 77.7121 9.5134 76.3901C9.68583 76.2751 9.80079 76.1027 9.97323 75.9878C10.3181 75.7004 10.7204 75.413 11.0653 75.1256C11.3527 74.8957 11.6401 74.6658 11.9275 74.4933C12.2723 74.2634 12.6172 74.0335 12.9621 73.8036C13.3069 73.5737 13.6518 73.3438 13.9967 73.1713C14.3416 72.9414 14.6864 72.769 15.0313 72.5966C15.4336 72.3667 15.836 72.1942 16.2383 72.0218C16.5832 71.8494 16.9281 71.6769 17.2729 71.562C17.7327 71.3895 18.1351 71.2171 18.5949 71.0447C18.9398 70.9297 19.2847 70.8147 19.6295 70.6998C20.0894 70.5274 20.6067 70.4124 21.124 70.2974C21.4688 70.24 21.7562 70.125 22.1011 70.0675C22.6759 69.9526 23.2506 69.8376 23.8254 69.7227C24.1128 69.6652 24.4002 69.6077 24.6876 69.5502C25.5498 69.4353 26.4119 69.3203 27.3316 69.3203V84.0922H20.3767V84.1496C12.9046 84.3795 6.06472 87.196 0.834229 91.6792Z" fill="#00639D"/>
<path d="M51.5887 83.9193C50.1518 83.9768 48.7148 83.9768 47.2779 83.9768H27.448V69.1475H51.5887V83.9193Z" fill="#1283C6"/>
<path d="M51.5879 69.1473C53.2548 69.1473 54.8641 69.0898 56.4735 69.0898C56.9908 69.0898 57.4506 69.0323 57.9679 69.0323C59.1175 68.9748 60.2671 68.9174 61.3591 68.8599C61.8764 68.8024 62.3938 68.8024 62.9111 68.7449C64.1756 68.63 65.3826 68.5725 66.6471 68.4001C66.992 68.3426 67.2794 68.3426 67.6242 68.2851C69.1762 68.1127 70.6706 67.9402 72.165 67.7103C72.5674 67.6529 72.9697 67.5954 73.372 67.5379C74.5216 67.3655 75.6137 67.193 76.7058 67.0206C77.2231 66.9631 77.6829 66.8482 78.2002 66.7907C79.2923 66.6182 80.3269 66.3883 81.3615 66.2159C81.7638 66.1584 82.2236 66.0435 82.626 65.986C84.0629 65.6986 85.4424 65.4112 86.8794 65.0663C87.1093 65.0089 87.3392 64.9514 87.5691 64.8939C88.7187 64.6065 89.9257 64.3191 91.0753 64.0317C91.5351 63.9168 91.9949 63.8018 92.4547 63.6294C93.3744 63.342 94.3515 63.1121 95.2711 62.8247C95.731 62.7097 96.1908 62.5373 96.6506 62.4223C97.7427 62.0775 98.8348 61.7326 99.9269 61.3878C100.157 61.3303 100.387 61.2153 100.617 61.1578C101.881 60.7555 103.146 60.2957 104.353 59.8358C104.812 59.6634 105.215 59.491 105.617 59.376C106.422 59.0886 107.284 58.7438 108.089 58.4564C108.549 58.2839 109.008 58.1115 109.526 57.8816C110.33 57.5367 111.135 57.2493 111.882 56.9045C112.285 56.732 112.687 56.5596 113.089 56.3872C114.181 55.9273 115.273 55.41 116.366 54.9502C116.768 54.7778 117.228 54.5479 117.63 54.3754C118.32 54.0306 119.01 53.7432 119.699 53.3983C120.217 53.1684 120.676 52.881 121.194 52.6511C121.768 52.3637 122.343 52.0763 122.976 51.7315C123.493 51.5015 123.953 51.2141 124.47 50.9842C125.102 50.6394 125.677 50.352 126.252 50.0071C127.114 49.5473 127.919 49.0875 128.723 48.6276C129.183 48.3403 129.7 48.1103 130.16 47.8229C130.735 47.4781 131.252 47.1907 131.827 46.8458C132.229 46.6159 132.574 46.386 132.977 46.1561C133.551 45.8112 134.069 45.4664 134.644 45.1215C134.931 44.9491 135.218 44.7766 135.506 44.5467C137.517 43.2822 139.414 42.0177 141.254 40.6957C141.426 40.5807 141.541 40.4658 141.713 40.4083C142.346 40.0059 142.92 39.5461 143.495 39.1438C143.61 39.0863 143.668 38.9713 143.783 38.9139C152.059 32.8787 158.152 27.1309 161.658 23.1074C160.279 26.6136 159.014 33.9708 158.037 44.0294C157.405 44.5467 156.773 45.064 156.083 45.6388C135.851 61.9625 99.3521 82.7121 51.6454 83.9191V69.1473H51.5879Z" fill="#B1E3FA"/>
<path d="M178.212 98.5763C178.212 98.4614 178.155 98.3464 178.155 98.2314C178.212 98.3464 178.212 98.4614 178.212 98.5763Z" fill="#00568B"/>
<path d="M155.853 77.4814C168.383 78.1137 178.327 88.1149 178.327 100.358C178.327 112.6 168.383 122.602 155.853 123.234V77.4814Z" fill="#8ED8F8"/>
<path d="M24.1707 123.234C23.5384 123.119 22.9062 123.004 22.2739 122.889C22.044 122.832 21.8141 122.774 21.5842 122.717C20.9519 122.544 20.3197 122.372 19.6874 122.199C19.515 122.142 19.3426 122.084 19.1701 122.027C17.6182 121.51 16.0663 120.82 14.6868 120.015C14.5144 119.9 14.2845 119.785 14.1121 119.67C13.5948 119.383 13.1349 119.095 12.6176 118.751C12.3877 118.578 12.1578 118.463 11.9854 118.291C11.5255 117.946 11.0657 117.601 10.6634 117.256C10.4909 117.084 10.261 116.969 10.0886 116.796C9.51381 116.279 8.93903 115.762 8.36426 115.244C8.19182 115.072 8.07687 114.957 7.90443 114.785C7.50209 114.382 7.15722 113.98 6.75487 113.52C6.52496 113.29 6.35253 113.003 6.12262 112.715C5.83523 112.371 5.60532 112.026 5.31793 111.681C5.08801 111.393 4.91558 111.106 4.68567 110.761C4.45576 110.416 4.22584 110.014 3.99593 109.669C3.8235 109.382 3.65106 109.037 3.47863 108.749C3.13376 108.175 2.84637 107.542 2.55898 106.91C2.38655 106.565 2.27159 106.22 2.15664 105.876C2.04168 105.531 1.92672 105.186 1.81177 104.898C5.95018 106.795 10.6059 108.002 15.4915 108.232H27.4469V123.579C26.5848 123.521 25.7226 123.464 24.8604 123.349C24.6305 123.291 24.4006 123.234 24.1707 123.234Z" fill="#001537"/>
<path d="M45.6685 108.232C47.6802 108.29 49.6345 108.29 51.5887 108.347V123.579H27.448V108.232H45.6685Z" fill="#00335A"/>
<path d="M157.52 143.696C158.554 156.283 159.934 165.537 161.601 169.618C155.508 162.606 141.771 150.535 122.056 140.534C121.941 140.477 121.826 140.419 121.768 140.362C120.906 139.96 120.044 139.5 119.182 139.097C119.067 139.04 118.952 138.982 118.837 138.925C116.308 137.718 113.664 136.511 110.905 135.419C110.56 135.246 110.215 135.131 109.87 134.959C109.123 134.672 108.376 134.384 107.571 134.039C107.112 133.867 106.652 133.694 106.249 133.522C105.502 133.235 104.755 132.947 104.008 132.717C103.49 132.545 102.973 132.372 102.513 132.2C101.306 131.798 100.042 131.338 98.7772 130.936C98.145 130.706 97.5127 130.533 96.8805 130.361C96.1907 130.131 95.5585 129.958 94.8687 129.786C94.179 129.614 93.4893 129.384 92.857 129.211C92.2247 129.039 91.535 128.866 90.9028 128.694C90.0981 128.464 89.2934 128.292 88.4312 128.062C87.8564 127.889 87.2242 127.774 86.6494 127.602C85.3849 127.314 84.1204 127.027 82.8558 126.74C82.2811 126.625 81.7063 126.51 81.1315 126.395C80.2693 126.222 79.3497 126.05 78.4875 125.877C77.9127 125.763 77.2805 125.648 76.6482 125.59C75.6711 125.418 74.7514 125.303 73.7743 125.13C73.257 125.073 72.7397 124.958 72.2224 124.9C70.7855 124.728 69.291 124.555 67.7966 124.383C67.3943 124.326 66.9344 124.326 66.5321 124.268C65.3825 124.153 64.233 124.038 63.0834 123.981C62.5086 123.923 61.9913 123.923 61.4166 123.866C60.3245 123.808 59.2324 123.751 58.1403 123.693C57.623 123.693 57.1057 123.636 56.5884 123.636C55.0365 123.578 53.4271 123.578 51.8177 123.578H51.7603V108.347C97.4552 109.784 133.954 127.257 157.52 143.696Z" fill="#7EC0DC"/>
<path d="M161.601 23.1074C158.267 31.3842 155.853 61.0429 155.853 96.3918C155.853 131.683 158.324 161.342 161.601 169.619C158.899 166.515 154.703 162.434 149.185 158.008C144.587 138.178 142.231 117.946 142.116 97.7138C142.001 76.6194 144.357 55.4675 149.185 34.7755C154.703 30.2922 158.899 26.2112 161.601 23.1074Z" fill="#00568B"/>
<path d="M149.185 34.7755C154.703 30.3496 158.899 26.2112 161.601 23.1074C160.221 26.6136 158.957 33.9708 157.979 44.0294C157.347 44.5467 156.715 45.064 156.025 45.6388C152.921 48.1678 149.415 50.7543 145.564 53.3983C146.541 47.1332 147.748 40.9256 149.185 34.7755Z" fill="#1283C6"/>
<path d="M161.601 169.618C158.899 166.514 154.704 162.433 149.186 158.007C147.461 150.593 146.082 143.178 144.99 135.648C149.531 138.292 153.726 141.051 157.577 143.695C158.555 156.283 159.991 165.537 161.601 169.618Z" fill="#003D67"/>
<path d="M163.498 99.4956C163.498 105.416 166.314 110.186 169.821 110.186C173.327 110.186 176.143 105.416 176.143 99.4956C176.143 93.5754 173.327 88.8047 169.821 88.8047C166.314 88.8047 163.498 93.5754 163.498 99.4956Z" fill="#B9E5FB"/>
<path d="M105.409 109H84.6863V103.922L91.6589 96.8713C93.6511 94.788 94.9532 93.3687 95.5652 92.6135C96.1772 91.8453 96.6003 91.1877 96.8347 90.6409C97.0821 90.094 97.2058 89.5211 97.2058 88.9221C97.2058 88.1799 96.9649 87.594 96.4832 87.1643C96.0014 86.7346 95.3243 86.5198 94.4519 86.5198C93.5535 86.5198 92.642 86.7802 91.7175 87.301C90.8061 87.8088 89.7709 88.564 88.6121 89.5667L84.3738 84.6057C85.8451 83.2906 87.0821 82.3531 88.0847 81.7932C89.0873 81.2203 90.1746 80.7841 91.3464 80.4846C92.5313 80.1851 93.8595 80.0354 95.3308 80.0354C97.1798 80.0354 98.8269 80.3609 100.272 81.012C101.731 81.663 102.857 82.594 103.651 83.8049C104.458 85.0028 104.862 86.3505 104.862 87.8479C104.862 88.9677 104.719 90.0028 104.432 90.9534C104.159 91.9039 103.729 92.8414 103.143 93.7659C102.557 94.6773 101.776 95.6409 100.8 96.6565C99.836 97.6721 97.7722 99.5992 94.6082 102.438V102.633H105.409V109ZM117.901 90.2893C119.542 90.2893 121.02 90.6734 122.335 91.4417C123.663 92.1969 124.691 93.2711 125.421 94.6643C126.163 96.0575 126.534 97.6656 126.534 99.4885C126.534 102.679 125.57 105.127 123.643 106.832C121.729 108.538 118.826 109.391 114.932 109.391C111.599 109.391 108.878 108.877 106.768 107.848V101.52C107.901 102.041 109.177 102.47 110.596 102.809C112.029 103.147 113.259 103.317 114.288 103.317C115.72 103.317 116.82 103.017 117.589 102.418C118.357 101.806 118.741 100.908 118.741 99.7229C118.741 98.6292 118.35 97.7763 117.569 97.1643C116.788 96.5523 115.603 96.2463 114.014 96.2463C112.803 96.2463 111.495 96.4742 110.089 96.9299L107.257 95.5237L108.331 80.4456H124.62V86.8713H114.893L114.542 90.6409C115.557 90.4456 116.28 90.3414 116.71 90.3284C117.139 90.3023 117.537 90.2893 117.901 90.2893Z" fill="#00568B"/>
<defs>
<linearGradient id="paint0_linear" x1="242.868" y1="11.9786" x2="259.612" y2="96.6306" gradientUnits="userSpaceOnUse">
<stop stop-color="#FFC700"/>
<stop offset="1" stop-color="#FF4070"/>
</linearGradient>
</defs>
</svg>
