<svg width="321" height="191" viewBox="0 0 321 191" fill="none" xmlns="http://www.w3.org/2000/svg">
<path d="M261.631 8.30997C240.415 12.5067 226.057 31.8214 227.251 52.9879L191.654 70.1053L230.655 67.6127C238.439 85.931 258.142 96.9641 278.376 92.9619C301.559 88.3761 316.635 65.6831 312.015 42.3259C307.395 18.9688 284.815 3.72417 261.631 8.30997Z" fill="url(#paint0_linear)" stroke="white" stroke-width="3.9279" stroke-miterlimit="10" stroke-linecap="round" stroke-linejoin="round"/>
<path d="M266.466 69.4772C266.299 68.5702 266.293 67.7015 266.509 66.7854C266.725 65.8693 267.115 65.0612 267.605 64.3768C268.156 63.6069 268.82 63.0305 269.571 62.5081C270.396 61.9699 271.26 61.641 272.224 61.4359C273.187 61.2307 274.103 61.1808 275.057 61.3403C276.011 61.4998 276.842 61.8303 277.538 62.2622C278.234 62.694 278.895 63.351 279.407 64.0395C279.933 64.7978 280.235 65.6034 280.403 66.5104C280.57 67.4173 280.577 68.2861 280.361 69.2021C280.145 70.1182 279.755 70.9263 279.265 71.6107C278.775 72.2951 278.049 72.957 277.298 73.4794C276.473 74.0176 275.61 74.3465 274.646 74.5517C273.682 74.7568 272.767 74.8067 271.813 74.6473C270.859 74.4878 270.027 74.1573 269.331 73.7254C268.548 73.2395 267.974 72.6366 267.462 71.9481C266.937 71.1898 266.634 70.3841 266.466 69.4772ZM264.036 48.3873L260.802 30.8763C260.261 27.9462 262.343 25.0376 265.456 24.3748C268.57 23.712 271.528 25.5475 272.07 28.4776L275.303 45.9887C275.845 48.9188 273.762 51.8273 270.649 52.4901C267.535 53.1529 264.577 51.3175 264.036 48.3873Z" fill="white"/>
<path d="M56.7474 157.892C56.9774 159.099 58.2419 159.904 59.5064 159.617L65.714 158.41C66.9785 158.18 67.7832 156.973 67.4958 155.766L64.5645 141.856C64.3345 140.649 63.07 139.844 61.8055 140.132L55.5979 141.339C54.3334 141.569 53.5287 142.776 53.8161 143.983L56.7474 157.892Z" fill="#002C51"/>
<path d="M63.414 146.57V145.363C64.0462 145.421 64.6785 145.478 65.3107 145.536L67.4949 155.767C67.7248 156.974 66.9201 158.181 65.7131 158.411L64.0462 158.756L59.5055 159.675C58.2409 159.905 57.0339 159.158 56.7465 157.951L56.5166 156.859C60.5975 155.077 63.414 151.169 63.414 146.57Z" fill="#001133"/>
<path d="M27.6641 120.533C27.6641 120.533 39.5045 180.77 48.701 186.92C48.701 186.92 57.7825 193.818 71.5772 188.415C71.5772 188.415 56.4605 132.546 56.9203 120.821L27.6641 120.533Z" fill="#8ED8F8"/>
<path d="M64.2192 189.506C61.9776 181.23 49.9072 135.477 48.7002 119.958L56.9195 120.015C56.4597 131.798 71.5764 187.61 71.5764 187.61C68.9324 188.644 66.5184 189.219 64.2192 189.506Z" fill="#76B4CF"/>
<path d="M66.1156 116.394V125.303C66.1156 130.878 61.4598 135.419 55.6546 135.419H33.4681C27.7203 135.419 23.0071 130.878 23.0071 125.303V116.394H66.1156Z" fill="#002C51"/>
<path d="M31.4563 127.66H57.6663C60.9425 127.66 63.8739 126.453 66.0581 124.441V125.361C66.0581 130.936 61.4024 135.477 55.5971 135.477H33.4681C27.7203 135.477 23.0071 130.936 23.0071 125.361V124.441C25.2487 126.396 28.1801 127.66 31.4563 127.66Z" fill="#001537"/>
<path d="M27.6633 69.2051V123.579C12.6041 122.89 0.648643 110.992 0.648643 96.3922C0.591165 81.7928 12.6041 69.8948 27.6633 69.2051Z" fill="#002C51"/>
<path d="M51.8048 69.1475H27.6641V123.522H51.8048V69.1475Z" fill="#00568B"/>
<path d="M161.817 23.1074C158.483 31.3842 156.069 61.0429 156.069 96.3918C156.069 131.683 158.541 161.342 161.817 169.619C149.976 155.996 109.684 123.579 51.804 123.579V69.1473C109.684 69.1473 149.976 36.7297 161.817 23.1074Z" fill="#8ED8F8"/>
<path d="M154.172 96.3911C154.172 136.856 157.563 169.618 161.817 169.618C166.013 169.618 169.461 136.798 169.461 96.3911C169.461 55.9266 166.07 23.1641 161.817 23.1641C160.897 23.1067 154.172 55.9266 154.172 96.3911Z" fill="#002447"/>
<path d="M1.05029 91.6792C1.05029 91.6218 1.05029 91.6218 1.05029 91.6792C1.16525 90.9895 1.33768 90.3572 1.51012 89.725C1.5676 89.5526 1.56759 89.4376 1.62507 89.2652C1.79751 88.6904 1.96994 88.0581 2.19985 87.4834C2.25733 87.3109 2.31481 87.1385 2.37229 86.9661C2.6022 86.3913 2.83211 85.8165 3.06202 85.2992C3.1195 85.1268 3.23446 84.9543 3.29193 84.7819C3.57932 84.2646 3.80924 83.6898 4.1541 83.1725C4.26906 83.0001 4.32654 82.8276 4.44149 82.7127C4.72888 82.1954 5.07375 81.6781 5.41862 81.1608C5.53357 81.0458 5.59105 80.9309 5.70601 80.8159C6.85557 79.2065 8.23504 77.7121 9.72947 76.3901C9.9019 76.2751 10.0169 76.1027 10.1893 75.9878C10.5342 75.7004 10.9365 75.413 11.2814 75.1256C11.5688 74.8957 11.8562 74.6658 12.1435 74.4933C12.4884 74.2634 12.8333 74.0335 13.1781 73.8036C13.523 73.5737 13.8679 73.3438 14.2127 73.1713C14.5576 72.9414 14.9025 72.769 15.2474 72.5966C15.6497 72.3667 16.052 72.1942 16.4544 72.0218C16.7993 71.8494 17.1441 71.6769 17.489 71.562C17.9488 71.3895 18.3512 71.2171 18.811 71.0447C19.1559 70.9297 19.5007 70.8147 19.8456 70.6998C20.3054 70.5274 20.8227 70.4124 21.34 70.2974C21.6849 70.24 21.9723 70.125 22.3171 70.0675C22.8919 69.9526 23.4667 69.8376 24.0415 69.7227C24.3289 69.6652 24.6163 69.6077 24.9037 69.5502C25.7658 69.4353 26.628 69.3203 27.5476 69.3203V84.0922H20.5928V84.1496C13.1207 84.3795 6.28079 87.196 1.05029 91.6792Z" fill="#00639D"/>
<path d="M51.8048 83.9193C50.3679 83.9768 48.9309 83.9768 47.494 83.9768H27.6641V69.1475H51.8048V83.9193Z" fill="#1283C6"/>
<path d="M51.804 69.1473C53.4708 69.1473 55.0802 69.0898 56.6896 69.0898C57.2069 69.0898 57.6667 69.0323 58.184 69.0323C59.3336 68.9748 60.4831 68.9174 61.5752 68.8599C62.0925 68.8024 62.6098 68.8024 63.1271 68.7449C64.3916 68.63 65.5987 68.5725 66.8632 68.4001C67.2081 68.3426 67.4954 68.3426 67.8403 68.2851C69.3922 68.1127 70.8866 67.9402 72.3811 67.7103C72.7834 67.6529 73.1858 67.5954 73.5881 67.5379C74.7377 67.3655 75.8298 67.193 76.9218 67.0206C77.4391 66.9631 77.899 66.8482 78.4163 66.7907C79.5083 66.6182 80.5429 66.3883 81.5775 66.2159C81.9799 66.1584 82.4397 66.0435 82.8421 65.986C84.279 65.6986 85.6585 65.4112 87.0954 65.0663C87.3253 65.0089 87.5553 64.9514 87.7852 64.8939C88.9347 64.6065 90.1418 64.3191 91.2913 64.0317C91.7512 63.9168 92.211 63.8018 92.6708 63.6294C93.5904 63.342 94.5676 63.1121 95.4872 62.8247C95.947 62.7097 96.4069 62.5373 96.8667 62.4223C97.9588 62.0775 99.0508 61.7326 100.143 61.3878C100.373 61.3303 100.603 61.2153 100.833 61.1578C102.097 60.7555 103.362 60.2957 104.569 59.8358C105.029 59.6634 105.431 59.491 105.833 59.376C106.638 59.0886 107.5 58.7438 108.305 58.4564C108.765 58.2839 109.224 58.1115 109.742 57.8816C110.546 57.5367 111.351 57.2493 112.098 56.9045C112.501 56.732 112.903 56.5596 113.305 56.3872C114.397 55.9273 115.49 55.41 116.582 54.9502C116.984 54.7778 117.444 54.5479 117.846 54.3754C118.536 54.0306 119.226 53.7432 119.915 53.3983C120.433 53.1684 120.892 52.881 121.41 52.6511C121.985 52.3637 122.559 52.0763 123.192 51.7315C123.709 51.5015 124.169 51.2141 124.686 50.9842C125.318 50.6394 125.893 50.352 126.468 50.0071C127.33 49.5473 128.135 49.0875 128.939 48.6276C129.399 48.3403 129.917 48.1103 130.376 47.8229C130.951 47.4781 131.468 47.1907 132.043 46.8458C132.446 46.6159 132.79 46.386 133.193 46.1561C133.768 45.8112 134.285 45.4664 134.86 45.1215C135.147 44.9491 135.434 44.7766 135.722 44.5467C137.734 43.2822 139.63 42.0177 141.47 40.6957C141.642 40.5807 141.757 40.4658 141.929 40.4083C142.562 40.0059 143.136 39.5461 143.711 39.1438C143.826 39.0863 143.884 38.9713 143.999 38.9139C152.275 32.8787 158.368 27.1309 161.874 23.1074C160.495 26.6136 159.23 33.9708 158.253 44.0294C157.621 44.5467 156.989 45.064 156.299 45.6388C136.067 61.9625 99.5681 82.7121 51.8614 83.9191V69.1473H51.804Z" fill="#B1E3FA"/>
<path d="M178.428 98.5763C178.428 98.4614 178.371 98.3464 178.371 98.2314C178.428 98.3464 178.428 98.4614 178.428 98.5763Z" fill="#00568B"/>
<path d="M156.069 77.4814C168.599 78.1137 178.543 88.1149 178.543 100.358C178.543 112.6 168.599 122.602 156.069 123.234V77.4814Z" fill="#8ED8F8"/>
<path d="M24.3868 123.234C23.7545 123.119 23.1222 123.004 22.49 122.889C22.2601 122.832 22.0302 122.774 21.8003 122.717C21.168 122.544 20.5357 122.372 19.9035 122.199C19.7311 122.142 19.5586 122.084 19.3862 122.027C17.8343 121.51 16.2824 120.82 14.9029 120.015C14.7305 119.9 14.5006 119.785 14.3281 119.67C13.8108 119.383 13.351 119.095 12.8337 118.751C12.6038 118.578 12.3739 118.463 12.2014 118.291C11.7416 117.946 11.2818 117.601 10.8794 117.256C10.707 117.084 10.4771 116.969 10.3047 116.796C9.72988 116.279 9.1551 115.762 8.58032 115.244C8.40789 115.072 8.29293 114.957 8.1205 114.785C7.71815 114.382 7.37328 113.98 6.97094 113.52C6.74103 113.29 6.56859 113.003 6.33868 112.715C6.05129 112.371 5.82138 112.026 5.53399 111.681C5.30408 111.393 5.13164 111.106 4.90173 110.761C4.67182 110.416 4.44191 110.014 4.21199 109.669C4.03956 109.382 3.86713 109.037 3.69469 108.749C3.34983 108.175 3.06244 107.542 2.77505 106.91C2.60261 106.565 2.48766 106.22 2.3727 105.876C2.25775 105.531 2.14279 105.186 2.02783 104.898C6.16625 106.795 10.822 108.002 15.7076 108.232H27.663V123.579C26.8008 123.521 25.9387 123.464 25.0765 123.349C24.8466 123.291 24.6167 123.234 24.3868 123.234Z" fill="#001537"/>
<path d="M45.8846 108.232C47.8963 108.29 49.8506 108.29 51.8048 108.347V123.579H27.6641V108.232H45.8846Z" fill="#00335A"/>
<path d="M157.736 143.696C158.77 156.283 160.15 165.537 161.817 169.618C155.724 162.606 141.987 150.535 122.272 140.534C122.157 140.477 122.042 140.419 121.984 140.362C121.122 139.96 120.26 139.5 119.398 139.097C119.283 139.04 119.168 138.982 119.053 138.925C116.524 137.718 113.88 136.511 111.121 135.419C110.776 135.246 110.431 135.131 110.087 134.959C109.339 134.672 108.592 134.384 107.787 134.039C107.328 133.867 106.868 133.694 106.465 133.522C105.718 133.235 104.971 132.947 104.224 132.717C103.706 132.545 103.189 132.372 102.729 132.2C101.522 131.798 100.258 131.338 98.9933 130.936C98.361 130.706 97.7288 130.533 97.0965 130.361C96.4068 130.131 95.7745 129.958 95.0848 129.786C94.3951 129.614 93.7053 129.384 93.0731 129.211C92.4408 129.039 91.7511 128.866 91.1188 128.694C90.3141 128.464 89.5094 128.292 88.6473 128.062C88.0725 127.889 87.4402 127.774 86.8654 127.602C85.6009 127.314 84.3364 127.027 83.0719 126.74C82.4971 126.625 81.9223 126.51 81.3476 126.395C80.4854 126.222 79.5657 126.05 78.7036 125.877C78.1288 125.763 77.4965 125.648 76.8643 125.59C75.8872 125.418 74.9675 125.303 73.9904 125.13C73.4731 125.073 72.9558 124.958 72.4385 124.9C71.0015 124.728 69.5071 124.555 68.0127 124.383C67.6103 124.326 67.1505 124.326 66.7482 124.268C65.5986 124.153 64.449 124.038 63.2995 123.981C62.7247 123.923 62.2074 123.923 61.6326 123.866C60.5405 123.808 59.4485 123.751 58.3564 123.693C57.8391 123.693 57.3218 123.636 56.8045 123.636C55.2526 123.578 53.6432 123.578 52.0338 123.578H51.9763V108.347C97.6713 109.784 134.17 127.257 157.736 143.696Z" fill="#7EC0DC"/>
<path d="M161.817 23.1074C158.483 31.3842 156.069 61.0429 156.069 96.3918C156.069 131.683 158.54 161.342 161.817 169.619C159.115 166.515 154.919 162.434 149.401 158.008C144.803 138.178 142.447 117.946 142.332 97.7138C142.217 76.6194 144.573 55.4675 149.401 34.7755C154.919 30.2922 159.115 26.2112 161.817 23.1074Z" fill="#00568B"/>
<path d="M149.401 34.7755C154.919 30.3496 159.115 26.2112 161.817 23.1074C160.437 26.6136 159.173 33.9708 158.196 44.0294C157.563 44.5467 156.931 45.064 156.241 45.6388C153.137 48.1678 149.631 50.7543 145.78 53.3983C146.757 47.1332 147.964 40.9256 149.401 34.7755Z" fill="#1283C6"/>
<path d="M161.817 169.618C159.115 166.514 154.92 162.433 149.402 158.007C147.677 150.593 146.298 143.178 145.206 135.648C149.747 138.292 153.942 141.051 157.793 143.695C158.771 156.283 160.208 165.537 161.817 169.618Z" fill="#003D67"/>
<path d="M163.714 99.4956C163.714 105.416 166.531 110.186 170.037 110.186C173.543 110.186 176.359 105.416 176.359 99.4956C176.359 93.5754 173.543 88.8047 170.037 88.8047C166.531 88.8047 163.714 93.5754 163.714 99.4956Z" fill="#B9E5FB"/>
<path d="M86.3906 109H78.5586V93.8831C78.5586 92.0471 78.5977 90.3674 78.6758 88.844C78.194 89.4299 77.5951 90.0419 76.8789 90.6799L73.6367 93.3557L69.6328 88.4338L79.4375 80.4456H86.3906V109ZM111.461 94.762C111.461 99.814 110.615 103.518 108.922 105.875C107.229 108.219 104.638 109.391 101.148 109.391C97.737 109.391 95.1654 108.167 93.4336 105.719C91.7018 103.258 90.8359 99.6057 90.8359 94.762C90.8359 89.6838 91.6823 85.9599 93.375 83.5901C95.0677 81.2203 97.6589 80.0354 101.148 80.0354C104.547 80.0354 107.112 81.2724 108.844 83.7463C110.589 86.2073 111.461 89.8792 111.461 94.762ZM98.5117 94.762C98.5117 97.9911 98.7135 100.211 99.1172 101.422C99.5208 102.633 100.198 103.239 101.148 103.239C102.112 103.239 102.789 102.614 103.18 101.364C103.583 100.114 103.785 97.913 103.785 94.762C103.785 91.5979 103.583 89.3844 103.18 88.1213C102.776 86.8453 102.099 86.2073 101.148 86.2073C100.198 86.2073 99.5208 86.8193 99.1172 88.0432C98.7135 89.2672 98.5117 91.5068 98.5117 94.762ZM132.898 94.762C132.898 99.814 132.052 103.518 130.359 105.875C128.667 108.219 126.076 109.391 122.586 109.391C119.174 109.391 116.603 108.167 114.871 105.719C113.139 103.258 112.273 99.6057 112.273 94.762C112.273 89.6838 113.12 85.9599 114.812 83.5901C116.505 81.2203 119.096 80.0354 122.586 80.0354C125.984 80.0354 128.549 81.2724 130.281 83.7463C132.026 86.2073 132.898 89.8792 132.898 94.762ZM119.949 94.762C119.949 97.9911 120.151 100.211 120.555 101.422C120.958 102.633 121.635 103.239 122.586 103.239C123.549 103.239 124.227 102.614 124.617 101.364C125.021 100.114 125.223 97.913 125.223 94.762C125.223 91.5979 125.021 89.3844 124.617 88.1213C124.214 86.8453 123.536 86.2073 122.586 86.2073C121.635 86.2073 120.958 86.8193 120.555 88.0432C120.151 89.2672 119.949 91.5068 119.949 94.762Z" fill="#00568B"/>
<defs>
<linearGradient id="paint0_linear" x1="243.084" y1="11.9786" x2="259.828" y2="96.6306" gradientUnits="userSpaceOnUse">
<stop stop-color="#FF1D1D"/>
<stop offset="1" stop-color="#FF4172"/>
</linearGradient>
</defs>
</svg>
