<svg width="321" height="191" viewBox="0 0 321 191" fill="none" xmlns="http://www.w3.org/2000/svg">
<path d="M261.938 8.30997C240.721 12.5067 226.364 31.8214 227.558 52.9879L191.96 70.1053L230.962 67.6127C238.746 85.931 258.449 96.9641 278.682 92.9619C301.866 88.3761 316.942 65.6831 312.322 42.3259C307.702 18.9688 285.122 3.72417 261.938 8.30997Z" fill="url(#paint0_linear)" stroke="white" stroke-width="3.9279" stroke-miterlimit="10" stroke-linecap="round" stroke-linejoin="round"/>
<path d="M266.773 69.4772C266.606 68.5702 266.599 67.7015 266.815 66.7854C267.031 65.8693 267.421 65.0612 267.911 64.3768C268.463 63.6069 269.127 63.0305 269.878 62.5081C270.703 61.9699 271.567 61.641 272.53 61.4359C273.494 61.2307 274.409 61.1808 275.363 61.3403C276.317 61.4998 277.149 61.8303 277.845 62.2622C278.541 62.694 279.202 63.351 279.714 64.0395C280.239 64.7978 280.542 65.6034 280.71 66.5104C280.877 67.4173 280.883 68.2861 280.667 69.2021C280.451 70.1182 280.061 70.9263 279.571 71.6107C279.081 72.2951 278.356 72.957 277.605 73.4794C276.78 74.0176 275.916 74.3465 274.952 74.5517C273.989 74.7568 273.073 74.8067 272.119 74.6473C271.165 74.4878 270.334 74.1573 269.638 73.7254C268.855 73.2395 268.281 72.6366 267.769 71.9481C267.243 71.1898 266.941 70.3841 266.773 69.4772ZM264.342 48.3873L261.108 30.8763C260.567 27.9462 262.65 25.0376 265.763 24.3748C268.877 23.712 271.835 25.5475 272.376 28.4776L275.61 45.9887C276.151 48.9188 274.069 51.8273 270.955 52.4901C267.842 53.1529 264.883 51.3175 264.342 48.3873Z" fill="white"/>
<path d="M57.0541 157.892C57.284 159.099 58.5485 159.904 59.813 159.617L66.0207 158.41C67.2852 158.18 68.0899 156.973 67.8025 155.766L64.8711 141.856C64.6412 140.649 63.3767 139.844 62.1121 140.132L55.9045 141.339C54.64 141.569 53.8353 142.776 54.1227 143.983L57.0541 157.892Z" fill="#002C51"/>
<path d="M63.7206 146.57V145.363C64.3529 145.421 64.9851 145.478 65.6174 145.536L67.8015 155.767C68.0314 156.974 67.2268 158.181 66.0197 158.411L64.3529 158.756L59.8121 159.675C58.5476 159.905 57.3405 159.158 57.0532 157.951L56.8232 156.859C60.9042 155.077 63.7206 151.169 63.7206 146.57Z" fill="#001133"/>
<path d="M27.9706 120.533C27.9706 120.533 39.811 180.77 49.0075 186.92C49.0075 186.92 58.089 193.818 71.8838 188.415C71.8838 188.415 56.767 132.546 57.2269 120.821L27.9706 120.533Z" fill="#8ED8F8"/>
<path d="M64.526 189.506C62.2844 181.23 50.214 135.477 49.007 119.958L57.2263 120.015C56.7665 131.798 71.8832 187.61 71.8832 187.61C69.2392 188.644 66.8251 189.219 64.526 189.506Z" fill="#76B4CF"/>
<path d="M66.4222 116.394V125.303C66.4222 130.878 61.7665 135.419 55.9612 135.419H33.7747C28.0269 135.419 23.3137 130.878 23.3137 125.303V116.394H66.4222Z" fill="#002C51"/>
<path d="M31.763 127.66H57.9729C61.2492 127.66 64.1806 126.453 66.3647 124.441V125.361C66.3647 130.936 61.709 135.477 55.9037 135.477H33.7747C28.0269 135.477 23.3137 130.936 23.3137 125.361V124.441C25.5554 126.396 28.4867 127.66 31.763 127.66Z" fill="#001537"/>
<path d="M27.9699 69.2051V123.579C12.9107 122.89 0.955284 110.992 0.955284 96.3922C0.897806 81.7928 12.9107 69.8948 27.9699 69.2051Z" fill="#002C51"/>
<path d="M52.1113 69.1475H27.9706V123.522H52.1113V69.1475Z" fill="#00568B"/>
<path d="M162.123 23.1074C158.79 31.3842 156.376 61.0429 156.376 96.3918C156.376 131.683 158.847 161.342 162.123 169.619C150.283 155.996 109.991 123.579 52.1106 123.579V69.1473C109.991 69.1473 150.283 36.7297 162.123 23.1074Z" fill="#8ED8F8"/>
<path d="M154.479 96.3911C154.479 136.856 157.87 169.618 162.123 169.618C166.319 169.618 169.768 136.798 169.768 96.3911C169.768 55.9266 166.377 23.1641 162.123 23.1641C161.204 23.1067 154.479 55.9266 154.479 96.3911Z" fill="#002447"/>
<path d="M1.35693 91.6792C1.35693 91.6218 1.35693 91.6218 1.35693 91.6792C1.47189 90.9895 1.64433 90.3572 1.81676 89.725C1.87424 89.5526 1.87424 89.4376 1.93171 89.2652C2.10415 88.6904 2.27658 88.0581 2.50649 87.4834C2.56397 87.3109 2.62145 87.1385 2.67893 86.9661C2.90884 86.3913 3.13875 85.8165 3.36866 85.2992C3.42614 85.1268 3.5411 84.9543 3.59858 84.7819C3.88597 84.2646 4.11588 83.6898 4.46074 83.1725C4.5757 83.0001 4.63318 82.8276 4.74813 82.7127C5.03552 82.1954 5.38039 81.6781 5.72526 81.1608C5.84021 81.0458 5.89769 80.9309 6.01265 80.8159C7.16221 79.2065 8.54168 77.7121 10.0361 76.3901C10.2085 76.2751 10.3235 76.1027 10.4959 75.9878C10.8408 75.7004 11.2431 75.413 11.588 75.1256C11.8754 74.8957 12.1628 74.6658 12.4502 74.4933C12.7951 74.2634 13.1399 74.0335 13.4848 73.8036C13.8297 73.5737 14.1745 73.3438 14.5194 73.1713C14.8643 72.9414 15.2091 72.769 15.554 72.5966C15.9563 72.3667 16.3587 72.1942 16.761 72.0218C17.1059 71.8494 17.4508 71.6769 17.7956 71.562C18.2555 71.3895 18.6578 71.2171 19.1176 71.0447C19.4625 70.9297 19.8074 70.8147 20.1522 70.6998C20.6121 70.5274 21.1294 70.4124 21.6467 70.2974C21.9915 70.24 22.2789 70.125 22.6238 70.0675C23.1986 69.9526 23.7733 69.8376 24.3481 69.7227C24.6355 69.6652 24.9229 69.6077 25.2103 69.5502C26.0725 69.4353 26.9346 69.3203 27.8543 69.3203V84.0922H20.8994V84.1496C13.4273 84.3795 6.58743 87.196 1.35693 91.6792Z" fill="#00639D"/>
<path d="M52.1113 83.9193C50.6744 83.9768 49.2374 83.9768 47.8005 83.9768H27.9706V69.1475H52.1113V83.9193Z" fill="#1283C6"/>
<path d="M52.1106 69.1473C53.7775 69.1473 55.3868 69.0898 56.9962 69.0898C57.5135 69.0898 57.9734 69.0323 58.4907 69.0323C59.6402 68.9748 60.7898 68.9174 61.8819 68.8599C62.3992 68.8024 62.9165 68.8024 63.4338 68.7449C64.6983 68.63 65.9053 68.5725 67.1698 68.4001C67.5147 68.3426 67.8021 68.3426 68.147 68.2851C69.6989 68.1127 71.1933 67.9402 72.6877 67.7103C73.0901 67.6529 73.4924 67.5954 73.8948 67.5379C75.0443 67.3655 76.1364 67.193 77.2285 67.0206C77.7458 66.9631 78.2056 66.8482 78.7229 66.7907C79.815 66.6182 80.8496 66.3883 81.8842 66.2159C82.2865 66.1584 82.7464 66.0435 83.1487 65.986C84.5856 65.6986 85.9651 65.4112 87.4021 65.0663C87.632 65.0089 87.8619 64.9514 88.0918 64.8939C89.2414 64.6065 90.4484 64.3191 91.598 64.0317C92.0578 63.9168 92.5176 63.8018 92.9774 63.6294C93.8971 63.342 94.8742 63.1121 95.7939 62.8247C96.2537 62.7097 96.7135 62.5373 97.1733 62.4223C98.2654 62.0775 99.3575 61.7326 100.45 61.3878C100.679 61.3303 100.909 61.2153 101.139 61.1578C102.404 60.7555 103.668 60.2957 104.875 59.8358C105.335 59.6634 105.738 59.491 106.14 59.376C106.945 59.0886 107.807 58.7438 108.611 58.4564C109.071 58.2839 109.531 58.1115 110.048 57.8816C110.853 57.5367 111.658 57.2493 112.405 56.9045C112.807 56.732 113.21 56.5596 113.612 56.3872C114.704 55.9273 115.796 55.41 116.888 54.9502C117.291 54.7778 117.75 54.5479 118.153 54.3754C118.843 54.0306 119.532 53.7432 120.222 53.3983C120.739 53.1684 121.199 52.881 121.716 52.6511C122.291 52.3637 122.866 52.0763 123.498 51.7315C124.016 51.5015 124.475 51.2141 124.993 50.9842C125.625 50.6394 126.2 50.352 126.774 50.0071C127.637 49.5473 128.441 49.0875 129.246 48.6276C129.706 48.3403 130.223 48.1103 130.683 47.8229C131.258 47.4781 131.775 47.1907 132.35 46.8458C132.752 46.6159 133.097 46.386 133.499 46.1561C134.074 45.8112 134.591 45.4664 135.166 45.1215C135.454 44.9491 135.741 44.7766 136.028 44.5467C138.04 43.2822 139.937 42.0177 141.776 40.6957C141.949 40.5807 142.064 40.4658 142.236 40.4083C142.868 40.0059 143.443 39.5461 144.018 39.1438C144.133 39.0863 144.19 38.9713 144.305 38.9139C152.582 32.8787 158.675 27.1309 162.181 23.1074C160.801 26.6136 159.537 33.9708 158.56 44.0294C157.928 44.5467 157.295 45.064 156.606 45.6388C136.373 61.9625 99.8748 82.7121 52.1681 83.9191V69.1473H52.1106Z" fill="#B1E3FA"/>
<path d="M178.735 98.5763C178.735 98.4614 178.677 98.3464 178.677 98.2314C178.735 98.3464 178.735 98.4614 178.735 98.5763Z" fill="#00568B"/>
<path d="M156.375 77.4814C168.906 78.1137 178.849 88.1149 178.849 100.358C178.849 112.6 168.906 122.602 156.375 123.234V77.4814Z" fill="#8ED8F8"/>
<path d="M24.6934 123.234C24.0611 123.119 23.4289 123.004 22.7966 122.889C22.5667 122.832 22.3368 122.774 22.1069 122.717C21.4746 122.544 20.8424 122.372 20.2101 122.199C20.0377 122.142 19.8653 122.084 19.6928 122.027C18.1409 121.51 16.589 120.82 15.2095 120.015C15.0371 119.9 14.8072 119.785 14.6348 119.67C14.1175 119.383 13.6576 119.095 13.1403 118.751C12.9104 118.578 12.6805 118.463 12.5081 118.291C12.0483 117.946 11.5884 117.601 11.1861 117.256C11.0136 117.084 10.7837 116.969 10.6113 116.796C10.0365 116.279 9.46174 115.762 8.88696 115.244C8.71453 115.072 8.59957 114.957 8.42714 114.785C8.02479 114.382 7.67993 113.98 7.27758 113.52C7.04767 113.29 6.87524 113.003 6.64532 112.715C6.35793 112.371 6.12802 112.026 5.84063 111.681C5.61072 111.393 5.43829 111.106 5.20837 110.761C4.97846 110.416 4.74855 110.014 4.51864 109.669C4.3462 109.382 4.17377 109.037 4.00133 108.749C3.65647 108.175 3.36908 107.542 3.08169 106.91C2.90925 106.565 2.7943 106.22 2.67934 105.876C2.56439 105.531 2.44943 105.186 2.33447 104.898C6.47289 106.795 11.1286 108.002 16.0142 108.232H27.9697V123.579C27.1075 123.521 26.2453 123.464 25.3831 123.349C25.1532 123.291 24.9233 123.234 24.6934 123.234Z" fill="#001537"/>
<path d="M46.1911 108.232C48.2028 108.29 50.1571 108.29 52.1113 108.347V123.579H27.9706V108.232H46.1911Z" fill="#00335A"/>
<path d="M158.043 143.696C159.077 156.283 160.457 165.537 162.123 169.618C156.031 162.606 142.294 150.535 122.579 140.534C122.464 140.477 122.349 140.419 122.291 140.362C121.429 139.96 120.567 139.5 119.705 139.097C119.59 139.04 119.475 138.982 119.36 138.925C116.831 137.718 114.187 136.511 111.428 135.419C111.083 135.246 110.738 135.131 110.393 134.959C109.646 134.672 108.899 134.384 108.094 134.039C107.634 133.867 107.175 133.694 106.772 133.522C106.025 133.235 105.278 132.947 104.531 132.717C104.013 132.545 103.496 132.372 103.036 132.2C101.829 131.798 100.565 131.338 99.3001 130.936C98.6678 130.706 98.0355 130.533 97.4033 130.361C96.7136 130.131 96.0813 129.958 95.3916 129.786C94.7018 129.614 94.0121 129.384 93.3798 129.211C92.7476 129.039 92.0578 128.866 91.4256 128.694C90.6209 128.464 89.8162 128.292 88.954 128.062C88.3792 127.889 87.747 127.774 87.1722 127.602C85.9077 127.314 84.6432 127.027 83.3787 126.74C82.8039 126.625 82.2291 126.51 81.6543 126.395C80.7922 126.222 79.8725 126.05 79.0103 125.877C78.4356 125.763 77.8033 125.648 77.171 125.59C76.1939 125.418 75.2743 125.303 74.2971 125.13C73.7798 125.073 73.2625 124.958 72.7452 124.9C71.3083 124.728 69.8139 124.555 68.3194 124.383C67.9171 124.326 67.4573 124.326 67.0549 124.268C65.9054 124.153 64.7558 124.038 63.6062 123.981C63.0315 123.923 62.5142 123.923 61.9394 123.866C60.8473 123.808 59.7552 123.751 58.6631 123.693C58.1458 123.693 57.6285 123.636 57.1112 123.636C55.5593 123.578 53.9499 123.578 52.3406 123.578H52.2831V108.347C97.9781 109.784 134.477 127.257 158.043 143.696Z" fill="#7EC0DC"/>
<path d="M162.123 23.1074C158.79 31.3842 156.376 61.0429 156.376 96.3918C156.376 131.683 158.847 161.342 162.123 169.619C159.422 166.515 155.226 162.434 149.708 158.008C145.11 138.178 142.753 117.946 142.638 97.7138C142.523 76.6194 144.88 55.4675 149.708 34.7755C155.226 30.2922 159.422 26.2112 162.123 23.1074Z" fill="#00568B"/>
<path d="M149.708 34.7755C155.226 30.3496 159.422 26.2112 162.123 23.1074C160.744 26.6136 159.479 33.9708 158.502 44.0294C157.87 44.5467 157.238 45.064 156.548 45.6388C153.444 48.1678 149.938 50.7543 146.087 53.3983C147.064 47.1332 148.271 40.9256 149.708 34.7755Z" fill="#1283C6"/>
<path d="M162.124 169.618C159.422 166.514 155.226 162.433 149.708 158.007C147.984 150.593 146.605 143.178 145.513 135.648C150.053 138.292 154.249 141.051 158.1 143.695C159.077 156.283 160.514 165.537 162.124 169.618Z" fill="#003D67"/>
<path d="M164.021 99.4956C164.021 105.416 166.837 110.186 170.343 110.186C173.849 110.186 176.666 105.416 176.666 99.4956C176.666 93.5754 173.849 88.8047 170.343 88.8047C166.837 88.8047 164.021 93.5754 164.021 99.4956Z" fill="#B9E5FB"/>
<path d="M102.416 109H94.584V93.8831C94.584 92.0471 94.623 90.3674 94.7012 88.844C94.2194 89.4299 93.6204 90.0419 92.9043 90.6799L89.6621 93.3557L85.6582 88.4338L95.4629 80.4456H102.416V109ZM127.486 94.762C127.486 99.814 126.64 103.518 124.947 105.875C123.255 108.219 120.663 109.391 117.174 109.391C113.762 109.391 111.191 108.167 109.459 105.719C107.727 103.258 106.861 99.6057 106.861 94.762C106.861 89.6838 107.708 85.9599 109.4 83.5901C111.093 81.2203 113.684 80.0354 117.174 80.0354C120.572 80.0354 123.137 81.2724 124.869 83.7463C126.614 86.2073 127.486 89.8792 127.486 94.762ZM114.537 94.762C114.537 97.9911 114.739 100.211 115.143 101.422C115.546 102.633 116.223 103.239 117.174 103.239C118.137 103.239 118.814 102.614 119.205 101.364C119.609 100.114 119.811 97.913 119.811 94.762C119.811 91.5979 119.609 89.3844 119.205 88.1213C118.801 86.8453 118.124 86.2073 117.174 86.2073C116.223 86.2073 115.546 86.8193 115.143 88.0432C114.739 89.2672 114.537 91.5068 114.537 94.762Z" fill="#00568B"/>
<defs>
<linearGradient id="paint0_linear" x1="243.391" y1="11.9786" x2="260.135" y2="96.6306" gradientUnits="userSpaceOnUse">
<stop stop-color="#FFC700"/>
<stop offset="1" stop-color="#FF4070"/>
</linearGradient>
</defs>
</svg>
