<svg width="320" height="191" viewBox="0 0 320 191" fill="none" xmlns="http://www.w3.org/2000/svg">
<path d="M261.199 8.30997C239.982 12.5067 225.625 31.8214 226.819 52.9879L191.221 70.1053L230.223 67.6127C238.007 85.931 257.71 96.9641 277.943 92.9619C301.127 88.3761 316.203 65.6831 311.583 42.3259C306.963 18.9688 284.383 3.72417 261.199 8.30997Z" fill="url(#paint0_linear)" stroke="white" stroke-width="3.9279" stroke-miterlimit="10" stroke-linecap="round" stroke-linejoin="round"/>
<path d="M266.034 69.4772C265.867 68.5702 265.86 67.7015 266.076 66.7854C266.293 65.8693 266.683 65.0612 267.173 64.3768C267.724 63.6069 268.388 63.0305 269.139 62.5081C269.964 61.9699 270.828 61.641 271.792 61.4359C272.755 61.2307 273.671 61.1808 274.625 61.3403C275.579 61.4998 276.41 61.8303 277.106 62.2622C277.802 62.694 278.463 63.351 278.975 64.0395C279.5 64.7978 279.803 65.6034 279.971 66.5104C280.138 67.4173 280.145 68.2861 279.929 69.2021C279.713 70.1182 279.323 70.9263 278.833 71.6107C278.343 72.2951 277.617 72.957 276.866 73.4794C276.041 74.0176 275.177 74.3465 274.214 74.5517C273.25 74.7568 272.335 74.8067 271.381 74.6473C270.427 74.4878 269.595 74.1573 268.899 73.7254C268.116 73.2395 267.542 72.6366 267.03 71.9481C266.505 71.1898 266.202 70.3841 266.034 69.4772ZM263.604 48.3873L260.37 30.8763C259.829 27.9462 261.911 25.0376 265.024 24.3748C268.138 23.712 271.096 25.5475 271.637 28.4776L274.871 45.9887C275.412 48.9188 273.33 51.8273 270.216 52.4901C267.103 53.1529 264.145 51.3175 263.604 48.3873Z" fill="white"/>
<path d="M56.3153 157.892C56.5452 159.099 57.8097 159.904 59.0743 159.617L65.2819 158.41C66.5464 158.18 67.3511 156.973 67.0637 155.766L64.1323 141.856C63.9024 140.649 62.6379 139.844 61.3734 140.132L55.1658 141.339C53.9012 141.569 53.0965 142.776 53.3839 143.983L56.3153 157.892Z" fill="#002C51"/>
<path d="M62.9818 146.57V145.363C63.6141 145.421 64.2463 145.478 64.8786 145.536L67.0628 155.767C67.2927 156.974 66.488 158.181 65.2809 158.411L63.6141 158.756L59.0733 159.675C57.8088 159.905 56.6018 159.158 56.3144 157.951L56.0845 156.859C60.1654 155.077 62.9818 151.169 62.9818 146.57Z" fill="#001133"/>
<path d="M27.2319 120.533C27.2319 120.533 39.0724 180.77 48.2689 186.92C48.2689 186.92 57.3504 193.818 71.1451 188.415C71.1451 188.415 56.0284 132.546 56.4882 120.821L27.2319 120.533Z" fill="#8ED8F8"/>
<path d="M63.7871 189.506C61.5455 181.23 49.4751 135.477 48.2681 119.958L56.4874 120.015C56.0276 131.798 71.1443 187.61 71.1443 187.61C68.5003 188.644 66.0862 189.219 63.7871 189.506Z" fill="#76B4CF"/>
<path d="M65.6834 116.394V125.303C65.6834 130.878 61.0277 135.419 55.2224 135.419H33.0359C27.2881 135.419 22.575 130.878 22.575 125.303V116.394H65.6834Z" fill="#002C51"/>
<path d="M31.0242 127.66H57.2342C60.5104 127.66 63.4418 126.453 65.6259 124.441V125.361C65.6259 130.936 60.9702 135.477 55.165 135.477H33.0359C27.2881 135.477 22.575 130.936 22.575 125.361V124.441C24.8166 126.396 27.748 127.66 31.0242 127.66Z" fill="#001537"/>
<path d="M27.2312 69.2051V123.579C12.1719 122.89 0.216514 110.992 0.216514 96.3922C0.159036 81.7928 12.1719 69.8948 27.2312 69.2051Z" fill="#002C51"/>
<path d="M51.3727 69.1475H27.2319V123.522H51.3727V69.1475Z" fill="#00568B"/>
<path d="M161.385 23.1074C158.051 31.3842 155.637 61.0429 155.637 96.3918C155.637 131.683 158.108 161.342 161.385 169.619C149.544 155.996 109.252 123.579 51.3718 123.579V69.1473C109.252 69.1473 149.544 36.7297 161.385 23.1074Z" fill="#8ED8F8"/>
<path d="M153.74 96.3911C153.74 136.856 157.131 169.618 161.385 169.618C165.58 169.618 169.029 136.798 169.029 96.3911C169.029 55.9266 165.638 23.1641 161.385 23.1641C160.465 23.1067 153.74 55.9266 153.74 96.3911Z" fill="#002447"/>
<path d="M0.618164 91.6792C0.618164 91.6218 0.618164 91.6218 0.618164 91.6792C0.73312 90.9895 0.905556 90.3572 1.07799 89.725C1.13547 89.5526 1.13547 89.4376 1.19294 89.2652C1.36538 88.6904 1.53781 88.0581 1.76772 87.4834C1.8252 87.3109 1.88268 87.1385 1.94016 86.9661C2.17007 86.3913 2.39998 85.8165 2.62989 85.2992C2.68737 85.1268 2.80233 84.9543 2.85981 84.7819C3.1472 84.2646 3.37711 83.6898 3.72198 83.1725C3.83693 83.0001 3.89441 82.8276 4.00937 82.7127C4.29675 82.1954 4.64162 81.6781 4.98649 81.1608C5.10144 81.0458 5.15892 80.9309 5.27388 80.8159C6.42344 79.2065 7.80291 77.7121 9.29734 76.3901C9.46977 76.2751 9.58473 76.1027 9.75716 75.9878C10.102 75.7004 10.5044 75.413 10.8492 75.1256C11.1366 74.8957 11.424 74.6658 11.7114 74.4933C12.0563 74.2634 12.4011 74.0335 12.746 73.8036C13.0909 73.5737 13.4358 73.3438 13.7806 73.1713C14.1255 72.9414 14.4704 72.769 14.8152 72.5966C15.2176 72.3667 15.6199 72.1942 16.0223 72.0218C16.3671 71.8494 16.712 71.6769 17.0569 71.562C17.5167 71.3895 17.919 71.2171 18.3789 71.0447C18.7237 70.9297 19.0686 70.8147 19.4135 70.6998C19.8733 70.5274 20.3906 70.4124 20.9079 70.2974C21.2528 70.24 21.5401 70.125 21.885 70.0675C22.4598 69.9526 23.0346 69.8376 23.6094 69.7227C23.8967 69.6652 24.1841 69.6077 24.4715 69.5502C25.3337 69.4353 26.1959 69.3203 27.1155 69.3203V84.0922H20.1607V84.1496C12.6885 84.3795 5.84866 87.196 0.618164 91.6792Z" fill="#00639D"/>
<path d="M51.3727 83.9193C49.9357 83.9768 48.4988 83.9768 47.0618 83.9768H27.2319V69.1475H51.3727V83.9193Z" fill="#1283C6"/>
<path d="M51.3718 69.1473C53.0387 69.1473 54.6481 69.0898 56.2575 69.0898C56.7748 69.0898 57.2346 69.0323 57.7519 69.0323C58.9014 68.9748 60.051 68.9174 61.1431 68.8599C61.6604 68.8024 62.1777 68.8024 62.695 68.7449C63.9595 68.63 65.1665 68.5725 66.4311 68.4001C66.7759 68.3426 67.0633 68.3426 67.4082 68.2851C68.9601 68.1127 70.4545 67.9402 71.9489 67.7103C72.3513 67.6529 72.7536 67.5954 73.156 67.5379C74.3055 67.3655 75.3976 67.193 76.4897 67.0206C77.007 66.9631 77.4668 66.8482 77.9841 66.7907C79.0762 66.6182 80.1108 66.3883 81.1454 66.2159C81.5478 66.1584 82.0076 66.0435 82.4099 65.986C83.8469 65.6986 85.2264 65.4112 86.6633 65.0663C86.8932 65.0089 87.1231 64.9514 87.353 64.8939C88.5026 64.6065 89.7096 64.3191 90.8592 64.0317C91.319 63.9168 91.7788 63.8018 92.2387 63.6294C93.1583 63.342 94.1354 63.1121 95.0551 62.8247C95.5149 62.7097 95.9747 62.5373 96.4346 62.4223C97.5266 62.0775 98.6187 61.7326 99.7108 61.3878C99.9407 61.3303 100.171 61.2153 100.401 61.1578C101.665 60.7555 102.93 60.2957 104.137 59.8358C104.596 59.6634 104.999 59.491 105.401 59.376C106.206 59.0886 107.068 58.7438 107.873 58.4564C108.332 58.2839 108.792 58.1115 109.31 57.8816C110.114 57.5367 110.919 57.2493 111.666 56.9045C112.069 56.732 112.471 56.5596 112.873 56.3872C113.965 55.9273 115.057 55.41 116.15 54.9502C116.552 54.7778 117.012 54.5479 117.414 54.3754C118.104 54.0306 118.793 53.7432 119.483 53.3983C120.001 53.1684 120.46 52.881 120.978 52.6511C121.552 52.3637 122.127 52.0763 122.759 51.7315C123.277 51.5015 123.737 51.2141 124.254 50.9842C124.886 50.6394 125.461 50.352 126.036 50.0071C126.898 49.5473 127.703 49.0875 128.507 48.6276C128.967 48.3403 129.484 48.1103 129.944 47.8229C130.519 47.4781 131.036 47.1907 131.611 46.8458C132.013 46.6159 132.358 46.386 132.761 46.1561C133.335 45.8112 133.853 45.4664 134.427 45.1215C134.715 44.9491 135.002 44.7766 135.29 44.5467C137.301 43.2822 139.198 42.0177 141.037 40.6957C141.21 40.5807 141.325 40.4658 141.497 40.4083C142.13 40.0059 142.704 39.5461 143.279 39.1438C143.394 39.0863 143.452 38.9713 143.566 38.9139C151.843 32.8787 157.936 27.1309 161.442 23.1074C160.063 26.6136 158.798 33.9708 157.821 44.0294C157.189 44.5467 156.557 45.064 155.867 45.6388C135.635 61.9625 99.136 82.7121 51.4293 83.9191V69.1473H51.3718Z" fill="#B1E3FA"/>
<path d="M177.996 98.5763C177.996 98.4614 177.938 98.3464 177.938 98.2314C177.996 98.3464 177.996 98.4614 177.996 98.5763Z" fill="#00568B"/>
<path d="M155.637 77.4814C168.167 78.1137 178.111 88.1149 178.111 100.358C178.111 112.6 168.167 122.602 155.637 123.234V77.4814Z" fill="#8ED8F8"/>
<path d="M23.9546 123.234C23.3224 123.119 22.6901 123.004 22.0579 122.889C21.828 122.832 21.598 122.774 21.3681 122.717C20.7359 122.544 20.1036 122.372 19.4714 122.199C19.2989 122.142 19.1265 122.084 18.9541 122.027C17.4021 121.51 15.8502 120.82 14.4708 120.015C14.2983 119.9 14.0684 119.785 13.896 119.67C13.3787 119.383 12.9189 119.095 12.4016 118.751C12.1716 118.578 11.9417 118.463 11.7693 118.291C11.3095 117.946 10.8497 117.601 10.4473 117.256C10.2749 117.084 10.045 116.969 9.87253 116.796C9.29775 116.279 8.72297 115.762 8.14819 115.244C7.97576 115.072 7.8608 114.957 7.68837 114.785C7.28602 114.382 6.94116 113.98 6.53881 113.52C6.3089 113.29 6.13647 113.003 5.90655 112.715C5.61916 112.371 5.38925 112.026 5.10186 111.681C4.87195 111.393 4.69952 111.106 4.4696 110.761C4.23969 110.416 4.00978 110.014 3.77987 109.669C3.60743 109.382 3.435 109.037 3.26257 108.749C2.9177 108.175 2.63031 107.542 2.34292 106.91C2.17048 106.565 2.05553 106.22 1.94057 105.876C1.82562 105.531 1.71066 105.186 1.5957 104.898C5.73412 106.795 10.3898 108.002 15.2755 108.232H27.2309V123.579C26.3687 123.521 25.5065 123.464 24.6444 123.349C24.4145 123.291 24.1845 123.234 23.9546 123.234Z" fill="#001537"/>
<path d="M45.4525 108.232C47.4642 108.29 49.4184 108.29 51.3727 108.347V123.579H27.2319V108.232H45.4525Z" fill="#00335A"/>
<path d="M157.304 143.696C158.339 156.283 159.718 165.537 161.385 169.618C155.292 162.606 141.555 150.535 121.84 140.534C121.725 140.477 121.61 140.419 121.553 140.362C120.69 139.96 119.828 139.5 118.966 139.097C118.851 139.04 118.736 138.982 118.621 138.925C116.092 137.718 113.448 136.511 110.689 135.419C110.344 135.246 110 135.131 109.655 134.959C108.907 134.672 108.16 134.384 107.356 134.039C106.896 133.867 106.436 133.694 106.034 133.522C105.286 133.235 104.539 132.947 103.792 132.717C103.275 132.545 102.757 132.372 102.297 132.2C101.09 131.798 99.8259 131.338 98.5614 130.936C97.9292 130.706 97.2969 130.533 96.6646 130.361C95.9749 130.131 95.3426 129.958 94.6529 129.786C93.9632 129.614 93.2734 129.384 92.6412 129.211C92.0089 129.039 91.3192 128.866 90.6869 128.694C89.8822 128.464 89.0775 128.292 88.2154 128.062C87.6406 127.889 87.0083 127.774 86.4336 127.602C85.169 127.314 83.9045 127.027 82.64 126.74C82.0652 126.625 81.4905 126.51 80.9157 126.395C80.0535 126.222 79.1339 126.05 78.2717 125.877C77.6969 125.763 77.0647 125.648 76.4324 125.59C75.4553 125.418 74.5356 125.303 73.5585 125.13C73.0412 125.073 72.5239 124.958 72.0066 124.9C70.5696 124.728 69.0752 124.555 67.5808 124.383C67.1784 124.326 66.7186 124.326 66.3163 124.268C65.1667 124.153 64.0172 124.038 62.8676 123.981C62.2928 123.923 61.7755 123.923 61.2007 123.866C60.1087 123.808 59.0166 123.751 57.9245 123.693C57.4072 123.693 56.8899 123.636 56.3726 123.636C54.8207 123.578 53.2113 123.578 51.6019 123.578H51.5444V108.347C97.2394 109.784 133.738 127.257 157.304 143.696Z" fill="#7EC0DC"/>
<path d="M161.385 23.1074C158.051 31.3842 155.637 61.0429 155.637 96.3918C155.637 131.683 158.108 161.342 161.385 169.619C158.683 166.515 154.487 162.434 148.969 158.008C144.371 138.178 142.014 117.946 141.9 97.7138C141.785 76.6194 144.141 55.4675 148.969 34.7755C154.487 30.2922 158.683 26.2112 161.385 23.1074Z" fill="#00568B"/>
<path d="M148.969 34.7755C154.487 30.3496 158.683 26.2112 161.384 23.1074C160.005 26.6136 158.741 33.9708 157.763 44.0294C157.131 44.5467 156.499 45.064 155.809 45.6388C152.705 48.1678 149.199 50.7543 145.348 53.3983C146.325 47.1332 147.532 40.9256 148.969 34.7755Z" fill="#1283C6"/>
<path d="M161.385 169.618C158.684 166.514 154.488 162.433 148.97 158.007C147.245 150.593 145.866 143.178 144.774 135.648C149.315 138.292 153.511 141.051 157.362 143.695C158.339 156.283 159.776 165.537 161.385 169.618Z" fill="#003D67"/>
<path d="M163.282 99.4956C163.282 105.416 166.098 110.186 169.605 110.186C173.111 110.186 175.927 105.416 175.927 99.4956C175.927 93.5754 173.111 88.8047 169.605 88.8047C166.098 88.8047 163.282 93.5754 163.282 99.4956Z" fill="#B9E5FB"/>
<path d="M98.0796 109L107.884 86.8713H95.521V80.4846H116.126V85.0354L106.068 109H98.0796Z" fill="#00568B"/>
<defs>
<linearGradient id="paint0_linear" x1="242.652" y1="11.9786" x2="259.396" y2="96.6306" gradientUnits="userSpaceOnUse">
<stop stop-color="#FFC700"/>
<stop offset="1" stop-color="#FF4070"/>
</linearGradient>
</defs>
</svg>
