<svg width="321" height="191" viewBox="0 0 321 191" fill="none" xmlns="http://www.w3.org/2000/svg">
<path d="M261.586 8.30997C240.37 12.5067 226.012 31.8214 227.206 52.9879L191.609 70.1053L230.61 67.6127C238.395 85.931 258.098 96.9641 278.331 92.9619C301.514 88.3761 316.59 65.6831 311.97 42.3259C307.35 18.9688 284.77 3.72417 261.586 8.30997Z" fill="url(#paint0_linear)" stroke="white" stroke-width="3.9279" stroke-miterlimit="10" stroke-linecap="round" stroke-linejoin="round"/>
<path d="M266.421 69.4772C266.254 68.5702 266.247 67.7015 266.464 66.7854C266.68 65.8693 267.07 65.0612 267.56 64.3768C268.111 63.6069 268.775 63.0305 269.526 62.5081C270.351 61.9699 271.215 61.641 272.179 61.4358C273.142 61.2307 274.058 61.1808 275.012 61.3403C275.966 61.4997 276.797 61.8303 277.493 62.2621C278.189 62.694 278.85 63.351 279.362 64.0395C279.887 64.7977 280.19 65.6034 280.358 66.5103C280.525 67.4173 280.532 68.286 280.316 69.2021C280.1 70.1182 279.709 70.9263 279.22 71.6107C278.73 72.295 278.004 72.957 277.253 73.4794C276.428 74.0176 275.564 74.3465 274.601 74.5517C273.637 74.7568 272.722 74.8067 271.768 74.6472C270.814 74.4878 269.982 74.1572 269.286 73.7254C268.503 73.2395 267.929 72.6365 267.417 71.948C266.892 71.1898 266.589 70.3841 266.421 69.4772ZM263.991 48.3873L260.757 30.8763C260.216 27.9462 262.298 25.0376 265.411 24.3748C268.525 23.712 271.483 25.5475 272.025 28.4776L275.258 45.9886C275.799 48.9187 273.717 51.8273 270.604 52.4901C267.49 53.1529 264.532 51.3175 263.991 48.3873Z" fill="white"/>
<path d="M56.7025 157.892C56.9324 159.099 58.197 159.904 59.4615 159.617L65.6691 158.41C66.9336 158.18 67.7383 156.973 67.4509 155.766L64.5195 141.856C64.2896 140.649 63.0251 139.844 61.7606 140.132L55.553 141.339C54.2884 141.569 53.4838 142.776 53.7711 143.983L56.7025 157.892Z" fill="#002C51"/>
<path d="M63.369 146.57V145.363C64.0013 145.421 64.6335 145.478 65.2658 145.536L67.45 155.767C67.6799 156.974 66.8752 158.181 65.6682 158.411L64.0013 158.756L59.4605 159.675C58.196 159.905 56.989 159.158 56.7016 157.951L56.4717 156.859C60.5526 155.077 63.369 151.169 63.369 146.57Z" fill="#001133"/>
<path d="M27.6191 120.533C27.6191 120.533 39.4596 180.77 48.6561 186.92C48.6561 186.92 57.7376 193.818 71.5323 188.415C71.5323 188.415 56.4156 132.546 56.8754 120.821L27.6191 120.533Z" fill="#8ED8F8"/>
<path d="M64.1743 189.506C61.9327 181.23 49.8623 135.477 48.6553 119.958L56.8746 120.015C56.4148 131.798 71.5315 187.61 71.5315 187.61C68.8875 188.644 66.4734 189.219 64.1743 189.506Z" fill="#76B4CF"/>
<path d="M66.0709 116.394V125.303C66.0709 130.878 61.4152 135.419 55.6099 135.419H33.4234C27.6756 135.419 22.9624 130.878 22.9624 125.303V116.394H66.0709Z" fill="#002C51"/>
<path d="M31.4117 127.66H57.6216C60.8979 127.66 63.8292 126.453 66.0134 124.441V125.361C66.0134 130.936 61.3577 135.477 55.5524 135.477H33.4234C27.6756 135.477 22.9624 130.936 22.9624 125.361V124.441C25.204 126.396 28.1354 127.66 31.4117 127.66Z" fill="#001537"/>
<path d="M27.6184 69.2051V123.579C12.5591 122.89 0.603721 110.992 0.603721 96.3922C0.546243 81.7928 12.5591 69.8948 27.6184 69.2051Z" fill="#002C51"/>
<path d="M51.7599 69.1475H27.6191V123.522H51.7599V69.1475Z" fill="#00568B"/>
<path d="M161.772 23.1074C158.438 31.3842 156.024 61.0429 156.024 96.3918C156.024 131.683 158.496 161.342 161.772 169.619C149.932 155.996 109.64 123.579 51.7593 123.579V69.1473C109.64 69.1473 149.932 36.7297 161.772 23.1074Z" fill="#8ED8F8"/>
<path d="M154.127 96.3911C154.127 136.856 157.519 169.618 161.772 169.618C165.968 169.618 169.417 136.798 169.417 96.3911C169.417 55.9266 166.025 23.1641 161.772 23.1641C160.852 23.1067 154.127 55.9266 154.127 96.3911Z" fill="#002447"/>
<path d="M1.00537 91.6792C1.00537 91.6218 1.00537 91.6218 1.00537 91.6792C1.12033 90.9895 1.29276 90.3572 1.4652 89.725C1.52267 89.5526 1.52267 89.4376 1.58015 89.2652C1.75258 88.6904 1.92502 88.0581 2.15493 87.4834C2.21241 87.3109 2.26989 87.1385 2.32737 86.9661C2.55728 86.3913 2.78719 85.8165 3.0171 85.2992C3.07458 85.1268 3.18953 84.9543 3.24701 84.7819C3.5344 84.2646 3.76431 83.6898 4.10918 83.1725C4.22414 83.0001 4.28162 82.8276 4.39657 82.7127C4.68396 82.1954 5.02883 81.6781 5.3737 81.1608C5.48865 81.0458 5.54613 80.9309 5.66109 80.8159C6.81065 79.2065 8.19012 77.7121 9.68454 76.3901C9.85698 76.2751 9.97194 76.1027 10.1444 75.9878C10.4892 75.7004 10.8916 75.413 11.2365 75.1256C11.5238 74.8957 11.8112 74.6658 12.0986 74.4933C12.4435 74.2634 12.7884 74.0335 13.1332 73.8036C13.4781 73.5737 13.823 73.3438 14.1678 73.1713C14.5127 72.9414 14.8576 72.769 15.2024 72.5966C15.6048 72.3667 16.0071 72.1942 16.4095 72.0218C16.7543 71.8494 17.0992 71.6769 17.4441 71.562C17.9039 71.3895 18.3062 71.2171 18.7661 71.0447C19.1109 70.9297 19.4558 70.8147 19.8007 70.6998C20.2605 70.5274 20.7778 70.4124 21.2951 70.2974C21.64 70.24 21.9274 70.125 22.2722 70.0675C22.847 69.9526 23.4218 69.8376 23.9966 69.7227C24.2839 69.6652 24.5713 69.6077 24.8587 69.5502C25.7209 69.4353 26.5831 69.3203 27.5027 69.3203V84.0922H20.5479V84.1496C13.0757 84.3795 6.23587 87.196 1.00537 91.6792Z" fill="#00639D"/>
<path d="M51.7599 83.9193C50.3229 83.9768 48.886 83.9768 47.449 83.9768H27.6191V69.1475H51.7599V83.9193Z" fill="#1283C6"/>
<path d="M51.7593 69.1473C53.4261 69.1473 55.0355 69.0898 56.6449 69.0898C57.1622 69.0898 57.622 69.0323 58.1393 69.0323C59.2889 68.9748 60.4385 68.9174 61.5305 68.8599C62.0478 68.8024 62.5651 68.8024 63.0824 68.7449C64.347 68.63 65.554 68.5725 66.8185 68.4001C67.1634 68.3426 67.4508 68.3426 67.7956 68.2851C69.3475 68.1127 70.842 67.9402 72.3364 67.7103C72.7387 67.6529 73.1411 67.5954 73.5434 67.5379C74.693 67.3655 75.7851 67.193 76.8772 67.0206C77.3945 66.9631 77.8543 66.8482 78.3716 66.7907C79.4637 66.6182 80.4983 66.3883 81.5329 66.2159C81.9352 66.1584 82.395 66.0435 82.7974 65.986C84.2343 65.6986 85.6138 65.4112 87.0508 65.0663C87.2807 65.0089 87.5106 64.9514 87.7405 64.8939C88.89 64.6065 90.0971 64.3191 91.2467 64.0317C91.7065 63.9168 92.1663 63.8018 92.6261 63.6294C93.5458 63.342 94.5229 63.1121 95.4425 62.8247C95.9024 62.7097 96.3622 62.5373 96.822 62.4223C97.9141 62.0775 99.0062 61.7326 100.098 61.3878C100.328 61.3303 100.558 61.2153 100.788 61.1578C102.053 60.7555 103.317 60.2957 104.524 59.8358C104.984 59.6634 105.386 59.491 105.789 59.376C106.593 59.0886 107.455 58.7438 108.26 58.4564C108.72 58.2839 109.18 58.1115 109.697 57.8816C110.502 57.5367 111.306 57.2493 112.054 56.9045C112.456 56.732 112.858 56.5596 113.261 56.3872C114.353 55.9273 115.445 55.41 116.537 54.9502C116.939 54.7778 117.399 54.5479 117.801 54.3754C118.491 54.0306 119.181 53.7432 119.871 53.3983C120.388 53.1684 120.848 52.881 121.365 52.6511C121.94 52.3637 122.515 52.0763 123.147 51.7315C123.664 51.5015 124.124 51.2141 124.641 50.9842C125.274 50.6394 125.848 50.352 126.423 50.0071C127.285 49.5473 128.09 49.0875 128.895 48.6276C129.355 48.3403 129.872 48.1103 130.332 47.8229C130.906 47.4781 131.424 47.1907 131.999 46.8458C132.401 46.6159 132.746 46.386 133.148 46.1561C133.723 45.8112 134.24 45.4664 134.815 45.1215C135.102 44.9491 135.39 44.7766 135.677 44.5467C137.689 43.2822 139.586 42.0177 141.425 40.6957C141.597 40.5807 141.712 40.4658 141.885 40.4083C142.517 40.0059 143.092 39.5461 143.667 39.1438C143.782 39.0863 143.839 38.9713 143.954 38.9139C152.231 32.8787 158.323 27.1309 161.83 23.1074C160.45 26.6136 159.186 33.9708 158.208 44.0294C157.576 44.5467 156.944 45.064 156.254 45.6388C136.022 61.9625 99.5235 82.7121 51.8168 83.9191V69.1473H51.7593Z" fill="#B1E3FA"/>
<path d="M178.383 98.5763C178.383 98.4614 178.326 98.3464 178.326 98.2314C178.383 98.3464 178.383 98.4614 178.383 98.5763Z" fill="#00568B"/>
<path d="M156.024 77.4814C168.554 78.1137 178.498 88.1149 178.498 100.358C178.498 112.6 168.554 122.602 156.024 123.234V77.4814Z" fill="#8ED8F8"/>
<path d="M24.3418 123.234C23.7096 123.119 23.0773 123.004 22.4451 122.889C22.2152 122.832 21.9852 122.774 21.7553 122.717C21.1231 122.544 20.4908 122.372 19.8586 122.199C19.6861 122.142 19.5137 122.084 19.3413 122.027C17.7894 121.51 16.2374 120.82 14.858 120.015C14.6855 119.9 14.4556 119.785 14.2832 119.67C13.7659 119.383 13.3061 119.095 12.7888 118.751C12.5589 118.578 12.3289 118.463 12.1565 118.291C11.6967 117.946 11.2369 117.601 10.8345 117.256C10.6621 117.084 10.4322 116.969 10.2597 116.796C9.68496 116.279 9.11018 115.762 8.5354 115.244C8.36296 115.072 8.24801 114.957 8.07558 114.785C7.67323 114.382 7.32836 113.98 6.92602 113.52C6.69611 113.29 6.52367 113.003 6.29376 112.715C6.00637 112.371 5.77646 112.026 5.48907 111.681C5.25916 111.393 5.08672 111.106 4.85681 110.761C4.6269 110.416 4.39698 110.014 4.16707 109.669C3.99464 109.382 3.82221 109.037 3.64977 108.749C3.3049 108.175 3.01751 107.542 2.73012 106.91C2.55769 106.565 2.44274 106.22 2.32778 105.876C2.21282 105.531 2.09787 105.186 1.98291 104.898C6.12132 106.795 10.777 108.002 15.6627 108.232H27.6181V123.579C26.7559 123.521 25.8937 123.464 25.0316 123.349C24.8017 123.291 24.5718 123.234 24.3418 123.234Z" fill="#001537"/>
<path d="M45.8397 108.232C47.8514 108.29 49.8056 108.29 51.7599 108.347V123.579H27.6191V108.232H45.8397Z" fill="#00335A"/>
<path d="M157.691 143.696C158.726 156.283 160.105 165.537 161.772 169.618C155.679 162.606 141.942 150.535 122.227 140.534C122.112 140.477 121.997 140.419 121.94 140.362C121.078 139.96 120.215 139.5 119.353 139.097C119.238 139.04 119.123 138.982 119.008 138.925C116.479 137.718 113.835 136.511 111.076 135.419C110.732 135.246 110.387 135.131 110.042 134.959C109.295 134.672 108.547 134.384 107.743 134.039C107.283 133.867 106.823 133.694 106.421 133.522C105.674 133.235 104.926 132.947 104.179 132.717C103.662 132.545 103.145 132.372 102.685 132.2C101.478 131.798 100.213 131.338 98.9486 130.936C98.3164 130.706 97.6841 130.533 97.0518 130.361C96.3621 130.131 95.7299 129.958 95.0401 129.786C94.3504 129.614 93.6606 129.384 93.0284 129.211C92.3961 129.039 91.7064 128.866 91.0741 128.694C90.2695 128.464 89.4648 128.292 88.6026 128.062C88.0278 127.889 87.3955 127.774 86.8208 127.602C85.5563 127.314 84.2917 127.027 83.0272 126.74C82.4524 126.625 81.8777 126.51 81.3029 126.395C80.4407 126.222 79.5211 126.05 78.6589 125.877C78.0841 125.763 77.4519 125.648 76.8196 125.59C75.8425 125.418 74.9228 125.303 73.9457 125.13C73.4284 125.073 72.9111 124.958 72.3938 124.9C70.9569 124.728 69.4624 124.555 67.968 124.383C67.5657 124.326 67.1058 124.326 66.7035 124.268C65.5539 124.153 64.4044 124.038 63.2548 123.981C62.68 123.923 62.1627 123.923 61.5879 123.866C60.4959 123.808 59.4038 123.751 58.3117 123.693C57.7944 123.693 57.2771 123.636 56.7598 123.636C55.2079 123.578 53.5985 123.578 51.9891 123.578H51.9316V108.347C97.6266 109.784 134.125 127.257 157.691 143.696Z" fill="#7EC0DC"/>
<path d="M161.772 23.1074C158.438 31.3842 156.024 61.0429 156.024 96.3918C156.024 131.683 158.496 161.342 161.772 169.619C159.07 166.515 154.874 162.434 149.357 158.008C144.758 138.178 142.402 117.946 142.287 97.7138C142.172 76.6194 144.528 55.4675 149.357 34.7755C154.874 30.2922 159.07 26.2112 161.772 23.1074Z" fill="#00568B"/>
<path d="M149.356 34.7755C154.874 30.3496 159.07 26.2112 161.772 23.1074C160.392 26.6136 159.128 33.9708 158.151 44.0294C157.518 44.5467 156.886 45.064 156.196 45.6388C153.093 48.1678 149.586 50.7543 145.735 53.3983C146.712 47.1332 147.92 40.9256 149.356 34.7755Z" fill="#1283C6"/>
<path d="M161.772 169.618C159.071 166.514 154.875 162.433 149.357 158.007C147.633 150.593 146.253 143.178 145.161 135.648C149.702 138.292 153.898 141.051 157.749 143.695C158.726 156.283 160.163 165.537 161.772 169.618Z" fill="#003D67"/>
<path d="M163.669 99.4956C163.669 105.416 166.485 110.186 169.992 110.186C173.498 110.186 176.314 105.416 176.314 99.4956C176.314 93.5754 173.498 88.8047 169.992 88.8047C166.485 88.8047 163.669 93.5754 163.669 99.4956Z" fill="#B9E5FB"/>
<path d="M95.0332 109H87.2012V93.8831C87.2012 92.0471 87.2402 90.3674 87.3184 88.844C86.8366 89.4299 86.2376 90.0419 85.5215 90.6799L82.2793 93.3557L78.2754 88.4338L88.0801 80.4456H95.0332V109ZM125.553 109H116.842L111.197 98.0823L108.912 99.4495V109H101.158V80.4456H108.912V92.8479C109.303 92.0797 110.09 90.8622 111.275 89.1956L117.271 80.4456H125.709L116.705 93.2385L125.553 109Z" fill="#00568B"/>
<defs>
<linearGradient id="paint0_linear" x1="243.039" y1="11.9786" x2="259.784" y2="96.6306" gradientUnits="userSpaceOnUse">
<stop stop-color="#FF1D1D"/>
<stop offset="1" stop-color="#FF4172"/>
</linearGradient>
</defs>
</svg>
