<svg width="321" height="191" viewBox="0 0 321 191" fill="none" xmlns="http://www.w3.org/2000/svg">
<path d="M261.848 8.30997C240.631 12.5067 226.274 31.8214 227.467 52.9879L191.87 70.1053L230.871 67.6127C238.656 85.931 258.359 96.9641 278.592 92.9619C301.776 88.3761 316.851 65.6831 312.231 42.3259C307.611 18.9688 285.031 3.72417 261.848 8.30997Z" fill="url(#paint0_linear)" stroke="white" stroke-width="3.9279" stroke-miterlimit="10" stroke-linecap="round" stroke-linejoin="round"/>
<path d="M266.683 69.4771C266.515 68.5702 266.509 67.7014 266.725 66.7854C266.941 65.8693 267.331 65.0612 267.821 64.3768C268.372 63.6069 269.036 63.0305 269.787 62.508C270.612 61.9698 271.476 61.6409 272.44 61.4358C273.404 61.2306 274.319 61.1808 275.273 61.3402C276.227 61.4997 277.058 61.8302 277.754 62.2621C278.45 62.6939 279.111 63.3509 279.623 64.0394C280.149 64.7977 280.452 65.6033 280.619 66.5102C280.787 67.4172 280.793 68.2859 280.577 69.202C280.361 70.1181 279.971 70.9262 279.481 71.6106C278.991 72.295 278.266 72.9569 277.515 73.4793C276.689 74.0175 275.826 74.3464 274.862 74.5516C273.898 74.7567 272.983 74.8066 272.029 74.6472C271.075 74.4877 270.243 74.1572 269.547 73.7253C268.764 73.2395 268.19 72.6365 267.678 71.948C267.153 71.1897 266.85 70.3841 266.683 69.4771ZM264.252 48.3873L261.018 30.8763C260.477 27.9462 262.559 25.0376 265.673 24.3748C268.786 23.712 271.745 25.5474 272.286 28.4776L275.52 45.9886C276.061 48.9187 273.978 51.8273 270.865 52.4901C267.751 53.1529 264.793 51.3174 264.252 48.3873Z" fill="white"/>
<path d="M56.9638 157.892C57.1937 159.099 58.4582 159.904 59.7227 159.617L65.9303 158.41C67.1948 158.18 67.9995 156.973 67.7121 155.766L64.7808 141.856C64.5508 140.649 63.2863 139.844 62.0218 140.132L55.8142 141.339C54.5497 141.569 53.745 142.776 54.0324 143.983L56.9638 157.892Z" fill="#002C51"/>
<path d="M63.6303 146.57V145.363C64.2625 145.421 64.8948 145.478 65.527 145.536L67.7112 155.767C67.9411 156.974 67.1364 158.181 65.9294 158.411L64.2625 158.756L59.7218 159.675C58.4572 159.905 57.2502 159.158 56.9628 157.951L56.7329 156.859C60.8138 155.077 63.6303 151.169 63.6303 146.57Z" fill="#001133"/>
<path d="M27.8804 120.533C27.8804 120.533 39.7208 180.77 48.9173 186.92C48.9173 186.92 57.9988 193.818 71.7935 188.415C71.7935 188.415 56.6768 132.546 57.1367 120.821L27.8804 120.533Z" fill="#8ED8F8"/>
<path d="M64.4356 189.506C62.1939 181.23 50.1235 135.477 48.9165 119.958L57.1359 120.015C56.676 131.798 71.7927 187.61 71.7927 187.61C69.1488 188.644 66.7347 189.219 64.4356 189.506Z" fill="#76B4CF"/>
<path d="M66.3321 116.394V125.303C66.3321 130.878 61.6764 135.419 55.8711 135.419H33.6846C27.9368 135.419 23.2236 130.878 23.2236 125.303V116.394H66.3321Z" fill="#002C51"/>
<path d="M31.6729 127.66H57.8829C61.1591 127.66 64.0905 126.453 66.2746 124.441V125.361C66.2746 130.936 61.6189 135.477 55.8136 135.477H33.6846C27.9368 135.477 23.2236 130.936 23.2236 125.361V124.441C25.4653 126.396 28.3966 127.66 31.6729 127.66Z" fill="#001537"/>
<path d="M27.8796 69.2051V123.579C12.8204 122.89 0.864951 110.992 0.864951 96.3922C0.807474 81.7928 12.8204 69.8948 27.8796 69.2051Z" fill="#002C51"/>
<path d="M52.0211 69.1475H27.8804V123.522H52.0211V69.1475Z" fill="#00568B"/>
<path d="M162.033 23.1074C158.7 31.3842 156.286 61.0429 156.286 96.3918C156.286 131.683 158.757 161.342 162.033 169.619C150.193 155.996 109.901 123.579 52.0205 123.579V69.1473C109.901 69.1473 150.193 36.7297 162.033 23.1074Z" fill="#8ED8F8"/>
<path d="M154.389 96.3911C154.389 136.856 157.78 169.618 162.033 169.618C166.229 169.618 169.678 136.798 169.678 96.3911C169.678 55.9266 166.287 23.1641 162.033 23.1641C161.114 23.1067 154.389 55.9266 154.389 96.3911Z" fill="#002447"/>
<path d="M1.2666 91.6792C1.2666 91.6218 1.2666 91.6218 1.2666 91.6792C1.38156 90.9895 1.55399 90.3572 1.72643 89.725C1.78391 89.5526 1.7839 89.4376 1.84138 89.2652C2.01382 88.6904 2.18625 88.0581 2.41616 87.4834C2.47364 87.3109 2.53112 87.1385 2.5886 86.9661C2.81851 86.3913 3.04842 85.8165 3.27833 85.2992C3.33581 85.1268 3.45077 84.9543 3.50824 84.7819C3.79563 84.2646 4.02554 83.6898 4.37041 83.1725C4.48537 83.0001 4.54285 82.8276 4.6578 82.7127C4.94519 82.1954 5.29006 81.6781 5.63493 81.1608C5.74988 81.0458 5.80736 80.9309 5.92232 80.8159C7.07188 79.2065 8.45135 77.7121 9.94577 76.3901C10.1182 76.2751 10.2332 76.1027 10.4056 75.9878C10.7505 75.7004 11.1528 75.413 11.4977 75.1256C11.7851 74.8957 12.0725 74.6658 12.3599 74.4933C12.7047 74.2634 13.0496 74.0335 13.3945 73.8036C13.7393 73.5737 14.0842 73.3438 14.4291 73.1713C14.7739 72.9414 15.1188 72.769 15.4637 72.5966C15.866 72.3667 16.2684 72.1942 16.6707 72.0218C17.0156 71.8494 17.3604 71.6769 17.7053 71.562C18.1651 71.3895 18.5675 71.2171 19.0273 71.0447C19.3722 70.9297 19.717 70.8147 20.0619 70.6998C20.5217 70.5274 21.039 70.4124 21.5563 70.2974C21.9012 70.24 22.1886 70.125 22.5334 70.0675C23.1082 69.9526 23.683 69.8376 24.2578 69.7227C24.5452 69.6652 24.8326 69.6077 25.12 69.5502C25.9821 69.4353 26.8443 69.3203 27.7639 69.3203V84.0922H20.8091V84.1496C13.337 84.3795 6.4971 87.196 1.2666 91.6792Z" fill="#00639D"/>
<path d="M52.0211 83.9193C50.5842 83.9768 49.1472 83.9768 47.7103 83.9768H27.8804V69.1475H52.0211V83.9193Z" fill="#1283C6"/>
<path d="M52.0205 69.1473C53.6874 69.1473 55.2968 69.0898 56.9061 69.0898C57.4234 69.0898 57.8833 69.0323 58.4006 69.0323C59.5501 68.9748 60.6997 68.9174 61.7918 68.8599C62.3091 68.8024 62.8264 68.8024 63.3437 68.7449C64.6082 68.63 65.8152 68.5725 67.0797 68.4001C67.4246 68.3426 67.712 68.3426 68.0569 68.2851C69.6088 68.1127 71.1032 67.9402 72.5976 67.7103C73 67.6529 73.4023 67.5954 73.8047 67.5379C74.9542 67.3655 76.0463 67.193 77.1384 67.0206C77.6557 66.9631 78.1155 66.8482 78.6328 66.7907C79.7249 66.6182 80.7595 66.3883 81.7941 66.2159C82.1964 66.1584 82.6563 66.0435 83.0586 65.986C84.4956 65.6986 85.875 65.4112 87.312 65.0663C87.5419 65.0089 87.7718 64.9514 88.0017 64.8939C89.1513 64.6065 90.3583 64.3191 91.5079 64.0317C91.9677 63.9168 92.4275 63.8018 92.8873 63.6294C93.807 63.342 94.7841 63.1121 95.7038 62.8247C96.1636 62.7097 96.6234 62.5373 97.0832 62.4223C98.1753 62.0775 99.2674 61.7326 100.359 61.3878C100.589 61.3303 100.819 61.2153 101.049 61.1578C102.314 60.7555 103.578 60.2957 104.785 59.8358C105.245 59.6634 105.647 59.491 106.05 59.376C106.854 59.0886 107.717 58.7438 108.521 58.4564C108.981 58.2839 109.441 58.1115 109.958 57.8816C110.763 57.5367 111.568 57.2493 112.315 56.9045C112.717 56.732 113.12 56.5596 113.522 56.3872C114.614 55.9273 115.706 55.41 116.798 54.9502C117.201 54.7778 117.66 54.5479 118.063 54.3754C118.752 54.0306 119.442 53.7432 120.132 53.3983C120.649 53.1684 121.109 52.881 121.626 52.6511C122.201 52.3637 122.776 52.0763 123.408 51.7315C123.925 51.5015 124.385 51.2141 124.903 50.9842C125.535 50.6394 126.11 50.352 126.684 50.0071C127.547 49.5473 128.351 49.0875 129.156 48.6276C129.616 48.3403 130.133 48.1103 130.593 47.8229C131.168 47.4781 131.685 47.1907 132.26 46.8458C132.662 46.6159 133.007 46.386 133.409 46.1561C133.984 45.8112 134.501 45.4664 135.076 45.1215C135.364 44.9491 135.651 44.7766 135.938 44.5467C137.95 43.2822 139.847 42.0177 141.686 40.6957C141.859 40.5807 141.974 40.4658 142.146 40.4083C142.778 40.0059 143.353 39.5461 143.928 39.1438C144.043 39.0863 144.1 38.9713 144.215 38.9139C152.492 32.8787 158.585 27.1309 162.091 23.1074C160.711 26.6136 159.447 33.9708 158.47 44.0294C157.837 44.5467 157.205 45.064 156.515 45.6388C136.283 61.9625 99.7847 82.7121 52.078 83.9191V69.1473H52.0205Z" fill="#B1E3FA"/>
<path d="M178.644 98.5763C178.644 98.4614 178.587 98.3464 178.587 98.2314C178.644 98.3464 178.644 98.4614 178.644 98.5763Z" fill="#00568B"/>
<path d="M156.285 77.4814C168.815 78.1137 178.759 88.1149 178.759 100.358C178.759 112.6 168.815 122.602 156.285 123.234V77.4814Z" fill="#8ED8F8"/>
<path d="M24.6031 123.234C23.9708 123.119 23.3386 123.004 22.7063 122.889C22.4764 122.832 22.2465 122.774 22.0166 122.717C21.3843 122.544 20.7521 122.372 20.1198 122.199C19.9474 122.142 19.7749 122.084 19.6025 122.027C18.0506 121.51 16.4987 120.82 15.1192 120.015C14.9468 119.9 14.7169 119.785 14.5444 119.67C14.0271 119.383 13.5673 119.095 13.05 118.751C12.8201 118.578 12.5902 118.463 12.4177 118.291C11.9579 117.946 11.4981 117.601 11.0957 117.256C10.9233 117.084 10.6934 116.969 10.521 116.796C9.94619 116.279 9.37141 115.762 8.79663 115.244C8.62419 115.072 8.50924 114.957 8.33681 114.785C7.93446 114.382 7.58959 113.98 7.18725 113.52C6.95734 113.29 6.7849 113.003 6.55499 112.715C6.2676 112.371 6.03769 112.026 5.7503 111.681C5.52039 111.393 5.34795 111.106 5.11804 110.761C4.88813 110.416 4.65822 110.014 4.4283 109.669C4.25587 109.382 4.08344 109.037 3.911 108.749C3.56613 108.175 3.27874 107.542 2.99135 106.91C2.81892 106.565 2.70397 106.22 2.58901 105.876C2.47405 105.531 2.3591 105.186 2.24414 104.898C6.38255 106.795 11.0383 108.002 15.9239 108.232H27.8793V123.579C27.0171 123.521 26.155 123.464 25.2928 123.349C25.0629 123.291 24.833 123.234 24.6031 123.234Z" fill="#001537"/>
<path d="M46.1009 108.232C48.1126 108.29 50.0669 108.29 52.0211 108.347V123.579H27.8804V108.232H46.1009Z" fill="#00335A"/>
<path d="M157.952 143.696C158.987 156.283 160.366 165.537 162.033 169.618C155.941 162.606 142.203 150.535 122.488 140.534C122.373 140.477 122.259 140.419 122.201 140.362C121.339 139.96 120.477 139.5 119.615 139.097C119.5 139.04 119.385 138.982 119.27 138.925C116.741 137.718 114.097 136.511 111.338 135.419C110.993 135.246 110.648 135.131 110.303 134.959C109.556 134.672 108.809 134.384 108.004 134.039C107.544 133.867 107.084 133.694 106.682 133.522C105.935 133.235 105.188 132.947 104.44 132.717C103.923 132.545 103.406 132.372 102.946 132.2C101.739 131.798 100.474 131.338 99.2099 130.936C98.5776 130.706 97.9453 130.533 97.3131 130.361C96.6233 130.131 95.9911 129.958 95.3013 129.786C94.6116 129.614 93.9219 129.384 93.2896 129.211C92.6574 129.039 91.9676 128.866 91.3354 128.694C90.5307 128.464 89.726 128.292 88.8638 128.062C88.289 127.889 87.6568 127.774 87.082 127.602C85.8175 127.314 84.553 127.027 83.2885 126.74C82.7137 126.625 82.1389 126.51 81.5641 126.395C80.7019 126.222 79.7823 126.05 78.9201 125.877C78.3453 125.763 77.7131 125.648 77.0808 125.59C76.1037 125.418 75.1841 125.303 74.2069 125.13C73.6896 125.073 73.1723 124.958 72.655 124.9C71.2181 124.728 69.7237 124.555 68.2292 124.383C67.8269 124.326 67.3671 124.326 66.9647 124.268C65.8151 124.153 64.6656 124.038 63.516 123.981C62.9412 123.923 62.424 123.923 61.8492 123.866C60.7571 123.808 59.665 123.751 58.5729 123.693C58.0556 123.693 57.5383 123.636 57.021 123.636C55.4691 123.578 53.8597 123.578 52.2504 123.578H52.1929V108.347C97.8879 109.784 134.386 127.257 157.952 143.696Z" fill="#7EC0DC"/>
<path d="M162.033 23.1074C158.699 31.3842 156.285 61.0429 156.285 96.3918C156.285 131.683 158.757 161.342 162.033 169.619C159.332 166.515 155.136 162.434 149.618 158.008C145.02 138.178 142.663 117.946 142.548 97.7138C142.433 76.6194 144.79 55.4675 149.618 34.7755C155.136 30.2922 159.332 26.2112 162.033 23.1074Z" fill="#00568B"/>
<path d="M149.618 34.7755C155.136 30.3496 159.331 26.2112 162.033 23.1074C160.653 26.6136 159.389 33.9708 158.412 44.0294C157.78 44.5467 157.147 45.064 156.458 45.6388C153.354 48.1678 149.848 50.7543 145.997 53.3983C146.974 47.1332 148.181 40.9256 149.618 34.7755Z" fill="#1283C6"/>
<path d="M162.033 169.618C159.332 166.514 155.136 162.433 149.618 158.007C147.894 150.593 146.514 143.178 145.422 135.648C149.963 138.292 154.159 141.051 158.01 143.695C158.987 156.283 160.424 165.537 162.033 169.618Z" fill="#003D67"/>
<path d="M163.93 99.4956C163.93 105.416 166.747 110.186 170.253 110.186C173.759 110.186 176.575 105.416 176.575 99.4956C176.575 93.5754 173.759 88.8047 170.253 88.8047C166.747 88.8047 163.93 93.5754 163.93 99.4956Z" fill="#B9E5FB"/>
<path d="M72.2905 109L82.0952 86.8713H69.7319V80.4846H90.3374V85.0354L80.2788 109H72.2905ZM102.615 90.2893C104.255 90.2893 105.733 90.6734 107.048 91.4417C108.376 92.1969 109.405 93.2711 110.134 94.6643C110.876 96.0575 111.248 97.6656 111.248 99.4885C111.248 102.679 110.284 105.127 108.357 106.832C106.443 108.538 103.539 109.391 99.646 109.391C96.3127 109.391 93.5913 108.877 91.4819 107.848V101.52C92.6147 102.041 93.8908 102.47 95.3101 102.809C96.7424 103.147 97.9728 103.317 99.0015 103.317C100.434 103.317 101.534 103.017 102.302 102.418C103.07 101.806 103.455 100.908 103.455 99.7229C103.455 98.6292 103.064 97.7763 102.283 97.1643C101.501 96.5523 100.317 96.2463 98.728 96.2463C97.5171 96.2463 96.2085 96.4742 94.8022 96.9299L91.9702 95.5237L93.0444 80.4456H109.333V86.8713H99.6069L99.2554 90.6409C100.271 90.4456 100.994 90.3414 101.423 90.3284C101.853 90.3023 102.25 90.2893 102.615 90.2893ZM133.115 94.762C133.115 99.814 132.268 103.518 130.576 105.875C128.883 108.219 126.292 109.391 122.802 109.391C119.391 109.391 116.819 108.167 115.087 105.719C113.356 103.258 112.49 99.6057 112.49 94.762C112.49 89.6838 113.336 85.9599 115.029 83.5901C116.722 81.2203 119.313 80.0354 122.802 80.0354C126.201 80.0354 128.766 81.2724 130.498 83.7463C132.242 86.2073 133.115 89.8792 133.115 94.762ZM120.166 94.762C120.166 97.9911 120.367 100.211 120.771 101.422C121.175 102.633 121.852 103.239 122.802 103.239C123.766 103.239 124.443 102.614 124.833 101.364C125.237 100.114 125.439 97.913 125.439 94.762C125.439 91.5979 125.237 89.3844 124.833 88.1213C124.43 86.8453 123.753 86.2073 122.802 86.2073C121.852 86.2073 121.175 86.8193 120.771 88.0432C120.367 89.2672 120.166 91.5068 120.166 94.762Z" fill="#00568B"/>
<defs>
<linearGradient id="paint0_linear" x1="243.3" y1="11.9786" x2="260.045" y2="96.6306" gradientUnits="userSpaceOnUse">
<stop stop-color="#FF1D1D"/>
<stop offset="1" stop-color="#FF4172"/>
</linearGradient>
</defs>
</svg>
