<svg width="215" height="136" viewBox="0 0 215 136" fill="none" xmlns="http://www.w3.org/2000/svg">
<path d="M213.4 0H0.699951V135.8H213.4V0Z" fill="url(#paint0_linear)"/>
<path opacity="0.0163934" d="M0.199951 131.3C0.199951 131.3 0.199951 122.8 8.69995 116.2C17.2 109.6 92.0999 62.6002 95.3999 60.7002C98.2 59.2002 105 56.7002 106.6 56.7002C108.3 56.7002 115.1 59.2002 117.8 60.7002C121.1 62.5002 196.1 109.6 204.5 116.2C213 122.8 213 131.3 213 131.3H0.199951Z" fill="#FEFEFE"/>
<path opacity="0.0327869" d="M0.199951 131.4C0.199951 131.4 0.199951 122.9 8.69995 116.3C17.2 109.7 92.0999 62.6998 95.3999 60.7998C98.2 59.2998 105 56.7998 106.6 56.7998C108.3 56.7998 115.1 59.2998 117.8 60.7998C121.1 62.5998 196.1 109.7 204.5 116.3C213 122.9 213 131.4 213 131.4H0.199951Z" fill="#FDFDFD"/>
<path opacity="0.0491803" d="M0.299805 131.5C0.299805 131.5 0.299805 123 8.7998 116.4C17.2998 109.8 92.1998 62.8004 95.4998 60.9004C98.2998 59.4004 105.1 56.9004 106.7 56.9004C108.4 56.9004 115.2 59.4004 117.9 60.9004C121.2 62.7004 196.2 109.8 204.6 116.4C213.1 123 213.1 131.5 213.1 131.5H0.299805Z" fill="#FCFCFC"/>
<path opacity="0.0655738" d="M0.299805 131.6C0.299805 131.6 0.299805 123.1 8.7998 116.5C17.2998 109.9 92.1998 62.9 95.4998 61C98.2998 59.5 105.1 57 106.7 57C108.4 57 115.2 59.5 117.9 61C121.2 62.8 196.2 109.9 204.6 116.5C213.1 123.1 213.1 131.6 213.1 131.6H0.299805Z" fill="#FBFBFB"/>
<path opacity="0.0819672" d="M0.299805 131.6C0.299805 131.6 0.299805 123.1 8.7998 116.5C17.2998 109.9 92.1998 62.9 95.4998 61C98.2998 59.5 105.1 57 106.7 57C108.4 57 115.2 59.5 117.9 61C121.2 62.8 196.2 109.9 204.6 116.5C213.1 123.1 213.1 131.6 213.1 131.6H0.299805Z" fill="#FAFAFA"/>
<path opacity="0.0983607" d="M0.299805 131.7C0.299805 131.7 0.299805 123.2 8.7998 116.6C17.2998 110 92.1998 62.9996 95.4998 61.0996C98.2998 59.5996 105.1 57.0996 106.7 57.0996C108.4 57.0996 115.2 59.5996 117.9 61.0996C121.2 62.8996 196.2 110 204.6 116.6C213.1 123.2 213.1 131.7 213.1 131.7H0.299805Z" fill="#F9F9F9"/>
<path opacity="0.1148" d="M0.299805 131.8C0.299805 131.8 0.299805 123.3 8.7998 116.7C17.2998 110.1 92.1998 63.1002 95.4998 61.2002C98.2998 59.7002 105.1 57.2002 106.7 57.2002C108.4 57.2002 115.2 59.7002 117.9 61.2002C121.2 63.0002 196.2 110.1 204.6 116.7C213.1 123.3 213.1 131.8 213.1 131.8H0.299805Z" fill="#F8F8F8"/>
<path opacity="0.1311" d="M0.299805 131.9C0.299805 131.9 0.299805 123.4 8.7998 116.8C17.2998 110.2 92.1998 63.1998 95.4998 61.2998C98.2998 59.7998 105.1 57.2998 106.7 57.2998C108.4 57.2998 115.2 59.7998 117.9 61.2998C121.2 63.0998 196.2 110.2 204.6 116.8C213.1 123.4 213.1 131.9 213.1 131.9H0.299805Z" fill="#F7F7F7"/>
<path opacity="0.1475" d="M0.299805 131.9C0.299805 131.9 0.299805 123.4 8.7998 116.8C17.2998 110.2 92.1998 63.1998 95.4998 61.2998C98.2998 59.7998 105.1 57.2998 106.7 57.2998C108.4 57.2998 115.2 59.7998 117.9 61.2998C121.2 63.0998 196.2 110.2 204.6 116.8C213.1 123.4 213.1 131.9 213.1 131.9H0.299805Z" fill="#F6F6F6"/>
<path opacity="0.1639" d="M0.399902 132C0.399902 132 0.399902 123.5 8.8999 116.9C17.3999 110.3 92.2999 63.3004 95.5999 61.4004C98.3999 59.9004 105.2 57.4004 106.8 57.4004C108.5 57.4004 115.3 59.9004 118 61.4004C121.3 63.2004 196.3 110.3 204.7 116.9C213.2 123.5 213.2 132 213.2 132H0.399902Z" fill="#F5F5F5"/>
<path opacity="0.1803" d="M0.399902 132.1C0.399902 132.1 0.399902 123.6 8.8999 117C17.3999 110.4 92.2999 63.4 95.5999 61.5C98.3999 60 105.2 57.5 106.8 57.5C108.5 57.5 115.3 60 118 61.5C121.3 63.3 196.3 110.4 204.7 117C213.2 123.6 213.2 132.1 213.2 132.1H0.399902Z" fill="#F4F4F4"/>
<path opacity="0.1967" d="M0.399902 132.2C0.399902 132.2 0.399902 123.7 8.8999 117.1C17.3999 110.5 92.2999 63.4996 95.5999 61.5996C98.3999 60.0996 105.2 57.5996 106.8 57.5996C108.5 57.5996 115.3 60.0996 118 61.5996C121.3 63.3996 196.3 110.5 204.7 117.1C213.2 123.7 213.2 132.2 213.2 132.2H0.399902Z" fill="#F3F3F3"/>
<path opacity="0.2131" d="M0.399902 132.2C0.399902 132.2 0.399902 123.7 8.8999 117.1C17.3999 110.5 92.2999 63.4996 95.5999 61.5996C98.3999 60.0996 105.2 57.5996 106.8 57.5996C108.5 57.5996 115.3 60.0996 118 61.5996C121.3 63.3996 196.3 110.5 204.7 117.1C213.2 123.7 213.2 132.2 213.2 132.2H0.399902Z" fill="#F2F2F3"/>
<path opacity="0.2295" d="M0.399902 132.3C0.399902 132.3 0.399902 123.8 8.8999 117.2C17.3999 110.6 92.2999 63.6002 95.5999 61.7002C98.3999 60.2002 105.2 57.7002 106.8 57.7002C108.5 57.7002 115.3 60.2002 118 61.7002C121.3 63.5002 196.3 110.6 204.7 117.2C213.2 123.8 213.2 132.3 213.2 132.3H0.399902Z" fill="#F1F1F2"/>
<path opacity="0.2459" d="M0.399902 132.4C0.399902 132.4 0.399902 123.9 8.8999 117.3C17.3999 110.7 92.2999 63.6998 95.5999 61.7998C98.3999 60.2998 105.2 57.7998 106.8 57.7998C108.5 57.7998 115.3 60.2998 118 61.7998C121.3 63.5998 196.3 110.7 204.7 117.3C213.2 123.9 213.2 132.4 213.2 132.4H0.399902Z" fill="#F0F0F1"/>
<path opacity="0.2623" d="M0.399902 132.5C0.399902 132.5 0.399902 124 8.8999 117.4C17.3999 110.8 92.2999 63.8004 95.5999 61.9004C98.3999 60.4004 105.2 57.9004 106.8 57.9004C108.5 57.9004 115.3 60.4004 118 61.9004C121.3 63.7004 196.3 110.8 204.7 117.4C213.2 124 213.2 132.5 213.2 132.5H0.399902Z" fill="#EFF0F0"/>
<path opacity="0.2787" d="M0.5 132.5C0.5 132.5 0.5 124 9 117.4C17.5 110.8 92.4 63.8004 95.7 61.9004C98.5 60.4004 105.3 57.9004 106.9 57.9004C108.6 57.9004 115.4 60.4004 118.1 61.9004C121.4 63.7004 196.4 110.8 204.8 117.4C213.3 124 213.3 132.5 213.3 132.5H0.5Z" fill="#EEEFEF"/>
<path opacity="0.2951" d="M0.5 132.6C0.5 132.6 0.5 124.1 9 117.5C17.5 110.9 92.4 63.9 95.7 62C98.5 60.5 105.3 58 106.9 58C108.6 58 115.4 60.5 118.1 62C121.4 63.8 196.4 110.9 204.8 117.5C213.3 124.1 213.3 132.6 213.3 132.6H0.5Z" fill="#EDEEEE"/>
<path opacity="0.3115" d="M0.5 132.7C0.5 132.7 0.5 124.2 9 117.6C17.5 111 92.4 63.9996 95.7 62.0996C98.5 60.5996 105.3 58.0996 106.9 58.0996C108.6 58.0996 115.4 60.5996 118.1 62.0996C121.4 63.8996 196.4 111 204.8 117.6C213.3 124.2 213.3 132.7 213.3 132.7H0.5Z" fill="#ECEDED"/>
<path opacity="0.3279" d="M0.5 132.8C0.5 132.8 0.5 124.3 9 117.7C17.5 111.1 92.4 64.1002 95.7 62.2002C98.5 60.7002 105.3 58.2002 106.9 58.2002C108.6 58.2002 115.4 60.7002 118.1 62.2002C121.4 64.0002 196.4 111.1 204.8 117.7C213.3 124.3 213.3 132.8 213.3 132.8H0.5Z" fill="#EBECEC"/>
<path opacity="0.3443" d="M0.5 132.8C0.5 132.8 0.5 124.3 9 117.7C17.5 111.1 92.4 64.1002 95.7 62.2002C98.5 60.7002 105.3 58.2002 106.9 58.2002C108.6 58.2002 115.4 60.7002 118.1 62.2002C121.4 64.0002 196.4 111.1 204.8 117.7C213.3 124.3 213.3 132.8 213.3 132.8H0.5Z" fill="#EAEBEB"/>
<path opacity="0.3607" d="M0.5 132.9C0.5 132.9 0.5 124.4 9 117.8C17.5 111.2 92.4 64.1998 95.7 62.2998C98.5 60.7998 105.3 58.2998 106.9 58.2998C108.6 58.2998 115.4 60.7998 118.1 62.2998C121.4 64.0998 196.4 111.2 204.8 117.8C213.3 124.4 213.3 132.9 213.3 132.9H0.5Z" fill="#E9EAEA"/>
<path opacity="0.377" d="M0.600098 133C0.600098 133 0.600098 124.5 9.1001 117.9C17.6001 111.3 92.5001 64.3004 95.8001 62.4004C98.6001 60.9004 105.4 58.4004 107 58.4004C108.7 58.4004 115.5 60.9004 118.2 62.4004C121.5 64.2004 196.5 111.3 204.9 117.9C213.4 124.5 213.4 133 213.4 133H0.600098Z" fill="#E9E9E9"/>
<path opacity="0.3934" d="M0.600098 133.1C0.600098 133.1 0.600098 124.6 9.1001 118C17.6001 111.4 92.5001 64.4 95.8001 62.5C98.6001 61 105.4 58.5 107 58.5C108.7 58.5 115.5 61 118.2 62.5C121.5 64.3 196.5 111.4 204.9 118C213.4 124.6 213.4 133.1 213.4 133.1H0.600098Z" fill="#E8E8E8"/>
<path opacity="0.4098" d="M0.600098 133.1C0.600098 133.1 0.600098 124.6 9.1001 118C17.6001 111.4 92.5001 64.4 95.8001 62.5C98.6001 61 105.4 58.5 107 58.5C108.7 58.5 115.5 61 118.2 62.5C121.5 64.3 196.5 111.4 204.9 118C213.4 124.6 213.4 133.1 213.4 133.1H0.600098Z" fill="#E7E7E7"/>
<path opacity="0.4262" d="M0.600098 133.2C0.600098 133.2 0.600098 124.7 9.1001 118.1C17.6001 111.5 92.5001 64.4996 95.8001 62.5996C98.6001 61.0996 105.4 58.5996 107 58.5996C108.7 58.5996 115.5 61.0996 118.2 62.5996C121.5 64.3996 196.5 111.5 204.9 118.1C213.4 124.7 213.4 133.2 213.4 133.2H0.600098Z" fill="#E6E6E6"/>
<path opacity="0.4426" d="M0.600098 133.3C0.600098 133.3 0.600098 124.8 9.1001 118.2C17.6001 111.6 92.5001 64.6002 95.8001 62.7002C98.6001 61.2002 105.4 58.7002 107 58.7002C108.7 58.7002 115.5 61.2002 118.2 62.7002C121.5 64.5002 196.5 111.6 204.9 118.2C213.4 124.8 213.4 133.3 213.4 133.3H0.600098Z" fill="#E5E5E5"/>
<path opacity="0.459" d="M0.600098 133.4C0.600098 133.4 0.600098 124.9 9.1001 118.3C17.6001 111.7 92.5001 64.6998 95.8001 62.7998C98.6001 61.2998 105.4 58.7998 107 58.7998C108.7 58.7998 115.5 61.2998 118.2 62.7998C121.5 64.5998 196.5 111.7 204.9 118.3C213.4 124.9 213.4 133.4 213.4 133.4H0.600098Z" fill="#E4E4E4"/>
<path opacity="0.4754" d="M0.600098 133.4C0.600098 133.4 0.600098 124.9 9.1001 118.3C17.6001 111.7 92.5001 64.6998 95.8001 62.7998C98.6001 61.2998 105.4 58.7998 107 58.7998C108.7 58.7998 115.5 61.2998 118.2 62.7998C121.5 64.5998 196.5 111.7 204.9 118.3C213.4 124.9 213.4 133.4 213.4 133.4H0.600098Z" fill="#E3E3E3"/>
<path opacity="0.4918" d="M0.699951 133.5C0.699951 133.5 0.699951 125 9.19995 118.4C17.7 111.8 92.5999 64.8004 95.8999 62.9004C98.7 61.4004 105.5 58.9004 107.1 58.9004C108.8 58.9004 115.6 61.4004 118.3 62.9004C121.6 64.7004 196.6 111.8 205 118.4C213.5 125 213.5 133.5 213.5 133.5H0.699951Z" fill="#E2E2E2"/>
<path opacity="0.5082" d="M0.699951 133.6C0.699951 133.6 0.699951 125.1 9.19995 118.5C17.7 111.9 92.5999 64.9 95.8999 63C98.7 61.5 105.5 59 107.1 59C108.8 59 115.6 61.5 118.3 63C121.6 64.8 196.6 111.9 205 118.5C213.5 125.1 213.5 133.6 213.5 133.6H0.699951Z" fill="#E1E1E1"/>
<path opacity="0.5246" d="M0.699951 133.6C0.699951 133.6 0.699951 125.1 9.19995 118.5C17.7 111.9 92.5999 64.9 95.8999 63C98.7 61.5 105.5 59 107.1 59C108.8 59 115.6 61.5 118.3 63C121.6 64.8 196.6 111.9 205 118.5C213.5 125.1 213.5 133.6 213.5 133.6H0.699951Z" fill="#E0E0E0"/>
<path opacity="0.541" d="M0.699951 133.7C0.699951 133.7 0.699951 125.2 9.19995 118.6C17.7 112 92.5999 64.9996 95.8999 63.0996C98.7 61.5996 105.5 59.0996 107.1 59.0996C108.8 59.0996 115.6 61.5996 118.3 63.0996C121.6 64.8996 196.6 112 205 118.6C213.5 125.2 213.5 133.7 213.5 133.7H0.699951Z" fill="#DFDFDF"/>
<path opacity="0.5574" d="M0.699951 133.8C0.699951 133.8 0.699951 125.3 9.19995 118.7C17.7 112.1 92.5999 65.1002 95.8999 63.2002C98.7 61.7002 105.5 59.2002 107.1 59.2002C108.8 59.2002 115.6 61.7002 118.3 63.2002C121.6 65.0002 196.6 112.1 205 118.7C213.5 125.3 213.5 133.8 213.5 133.8H0.699951Z" fill="#DEDEDE"/>
<path opacity="0.5738" d="M0.699951 133.9C0.699951 133.9 0.699951 125.4 9.19995 118.8C17.7 112.2 92.5999 65.1998 95.8999 63.2998C98.7 61.7998 105.5 59.2998 107.1 59.2998C108.8 59.2998 115.6 61.7998 118.3 63.2998C121.6 65.0998 196.6 112.2 205 118.8C213.5 125.4 213.5 133.9 213.5 133.9H0.699951Z" fill="#DDDDDD"/>
<path opacity="0.5902" d="M0.699951 133.9C0.699951 133.9 0.699951 125.4 9.19995 118.8C17.7 112.2 92.5999 65.1998 95.8999 63.2998C98.7 61.7998 105.5 59.2998 107.1 59.2998C108.8 59.2998 115.6 61.7998 118.3 63.2998C121.6 65.0998 196.6 112.2 205 118.8C213.5 125.4 213.5 133.9 213.5 133.9H0.699951Z" fill="#DCDCDC"/>
<path opacity="0.6066" d="M0.799805 134C0.799805 134 0.799805 125.5 9.2998 118.9C17.7998 112.3 92.6998 65.3004 95.9998 63.4004C98.7998 61.9004 105.6 59.4004 107.2 59.4004C108.9 59.4004 115.7 61.9004 118.4 63.4004C121.7 65.2004 196.7 112.3 205.1 118.9C213.5 125.5 213.5 134 213.5 134H0.799805Z" fill="#DBDBDB"/>
<path opacity="0.623" d="M0.799805 134.1C0.799805 134.1 0.799805 125.6 9.2998 119C17.7998 112.4 92.6998 65.4 95.9998 63.5C98.7998 62 105.6 59.5 107.2 59.5C108.9 59.5 115.7 62 118.4 63.5C121.7 65.3 196.7 112.4 205.1 119C213.5 125.6 213.5 134.1 213.5 134.1H0.799805Z" fill="#DADADA"/>
<path opacity="0.6393" d="M0.799805 134.2C0.799805 134.2 0.799805 125.7 9.2998 119.1C17.7998 112.5 92.6998 65.4996 95.9998 63.5996C98.7998 62.0996 105.6 59.5996 107.2 59.5996C108.9 59.5996 115.7 62.0996 118.4 63.5996C121.7 65.3996 196.7 112.5 205.1 119.1C213.5 125.7 213.5 134.2 213.5 134.2H0.799805Z" fill="#D9D9DA"/>
<path opacity="0.6557" d="M0.799805 134.2C0.799805 134.2 0.799805 125.7 9.2998 119.1C17.7998 112.5 92.6998 65.4996 95.9998 63.5996C98.7998 62.0996 105.6 59.5996 107.2 59.5996C108.9 59.5996 115.7 62.0996 118.4 63.5996C121.7 65.3996 196.7 112.5 205.1 119.1C213.5 125.7 213.5 134.2 213.5 134.2H0.799805Z" fill="#D8D8D9"/>
<path opacity="0.6721" d="M0.799805 134.3C0.799805 134.3 0.799805 125.8 9.2998 119.2C17.7998 112.6 92.6998 65.6002 95.9998 63.7002C98.7998 62.2002 105.6 59.7002 107.2 59.7002C108.9 59.7002 115.7 62.2002 118.4 63.7002C121.7 65.5002 196.7 112.6 205.1 119.2C213.5 125.8 213.5 134.3 213.5 134.3H0.799805Z" fill="#D7D7D8"/>
<path opacity="0.6885" d="M0.799805 134.4C0.799805 134.4 0.799805 125.9 9.2998 119.3C17.7998 112.7 92.6998 65.6998 95.9998 63.7998C98.7998 62.2998 105.6 59.7998 107.2 59.7998C108.9 59.7998 115.7 62.2998 118.4 63.7998C121.7 65.5998 196.7 112.7 205.1 119.3C213.5 125.9 213.5 134.4 213.5 134.4H0.799805Z" fill="#D6D6D7"/>
<path opacity="0.7049" d="M0.799805 134.5C0.799805 134.5 0.799805 126 9.2998 119.4C17.7998 112.8 92.6998 65.8004 95.9998 63.9004C98.7998 62.4004 105.6 59.9004 107.2 59.9004C108.9 59.9004 115.7 62.4004 118.4 63.9004C121.7 65.7004 196.7 112.8 205.1 119.4C213.5 126 213.5 134.5 213.5 134.5H0.799805Z" fill="#D5D5D6"/>
<path opacity="0.7213" d="M0.899902 134.5C0.899902 134.5 0.899902 126 9.3999 119.4C17.8999 112.8 92.7999 65.8004 96.0999 63.9004C98.8999 62.4004 105.7 59.9004 107.3 59.9004C109 59.9004 115.8 62.4004 118.5 63.9004C121.8 65.7004 196.8 112.8 205.2 119.4C213.6 126 213.6 134.5 213.6 134.5H0.899902Z" fill="#D4D4D5"/>
<path opacity="0.7377" d="M0.899902 134.6C0.899902 134.6 0.899902 126.1 9.3999 119.5C17.8999 112.9 92.7999 65.9 96.0999 64C98.8999 62.5 105.7 60 107.3 60C109 60 115.8 62.5 118.5 64C121.8 65.8 196.8 112.9 205.2 119.5C213.6 126.1 213.6 134.6 213.6 134.6H0.899902Z" fill="#D3D3D4"/>
<path opacity="0.7541" d="M0.899902 134.7C0.899902 134.7 0.899902 126.2 9.3999 119.6C17.8999 113 92.7999 65.9996 96.0999 64.0996C98.8999 62.5996 105.7 60.0996 107.3 60.0996C109 60.0996 115.8 62.5996 118.5 64.0996C121.8 65.8996 196.8 113 205.2 119.6C213.6 126.2 213.6 134.7 213.6 134.7H0.899902Z" fill="#D2D2D3"/>
<path opacity="0.7705" d="M0.899902 134.8C0.899902 134.8 0.899902 126.3 9.3999 119.7C17.8999 113.1 92.7999 66.1002 96.0999 64.2002C98.8999 62.7002 105.7 60.2002 107.3 60.2002C109 60.2002 115.8 62.7002 118.5 64.2002C121.8 66.0002 196.8 113.1 205.2 119.7C213.6 126.3 213.6 134.8 213.6 134.8H0.899902Z" fill="#D1D2D2"/>
<path opacity="0.7869" d="M0.899902 134.8C0.899902 134.8 0.899902 126.3 9.3999 119.7C17.8999 113.1 92.7999 66.1002 96.0999 64.2002C98.8999 62.7002 105.7 60.2002 107.3 60.2002C109 60.2002 115.8 62.7002 118.5 64.2002C121.8 66.0002 196.8 113.1 205.2 119.7C213.6 126.3 213.6 134.8 213.6 134.8H0.899902Z" fill="#D0D1D1"/>
<path opacity="0.8033" d="M0.899902 134.9C0.899902 134.9 0.899902 126.4 9.3999 119.8C17.8999 113.2 92.7999 66.1998 96.0999 64.2998C98.8999 62.7998 105.7 60.2998 107.3 60.2998C109 60.2998 115.8 62.7998 118.5 64.2998C121.8 66.0998 196.8 113.2 205.2 119.8C213.6 126.4 213.6 134.9 213.6 134.9H0.899902Z" fill="#CFD0D0"/>
<path opacity="0.8197" d="M1 135C1 135 1 126.5 9.5 119.9C18 113.3 92.9 66.3004 96.2 64.4004C99 62.9004 105.8 60.4004 107.4 60.4004C109.1 60.4004 115.9 62.9004 118.6 64.4004C121.9 66.2004 196.9 113.3 205.3 119.9C213.7 126.5 213.7 135 213.7 135H1Z" fill="#CECFCF"/>
<path opacity="0.8361" d="M1 135.1C1 135.1 1 126.6 9.5 120C18 113.4 92.9 66.4 96.2 64.5C99 63 105.8 60.5 107.4 60.5C109.1 60.5 115.9 63 118.6 64.5C121.9 66.3 196.9 113.4 205.3 120C213.7 126.6 213.7 135.1 213.7 135.1H1Z" fill="#CDCECE"/>
<path opacity="0.8525" d="M1 135.1C1 135.1 1 126.6 9.5 120C18 113.4 92.9 66.4 96.2 64.5C99 63 105.8 60.5 107.4 60.5C109.1 60.5 115.9 63 118.6 64.5C121.9 66.3 196.9 113.4 205.3 120C213.7 126.6 213.7 135.1 213.7 135.1H1Z" fill="#CCCDCD"/>
<path opacity="0.8689" d="M1 135.2C1 135.2 1 126.7 9.5 120.1C18 113.5 92.9 66.4996 96.2 64.5996C99 63.0996 105.8 60.5996 107.4 60.5996C109.1 60.5996 115.9 63.0996 118.6 64.5996C121.9 66.3996 196.9 113.5 205.3 120.1C213.7 126.7 213.7 135.2 213.7 135.2H1Z" fill="#CBCCCC"/>
<path opacity="0.8852" d="M1 135.3C1 135.3 1 126.8 9.5 120.2C18 113.6 92.9 66.6002 96.2 64.7002C99 63.2002 105.8 60.7002 107.4 60.7002C109.1 60.7002 115.9 63.2002 118.6 64.7002C121.9 66.5002 196.9 113.6 205.3 120.2C213.7 126.8 213.7 135.3 213.7 135.3H1Z" fill="#CACBCB"/>
<path opacity="0.9016" d="M1 135.4C1 135.4 1 126.9 9.5 120.3C18 113.7 92.9 66.6998 96.2 64.7998C99 63.2998 105.8 60.7998 107.4 60.7998C109.1 60.7998 115.9 63.2998 118.6 64.7998C121.9 66.5998 196.9 113.7 205.3 120.3C213.7 126.9 213.7 135.4 213.7 135.4H1Z" fill="#C9CACA"/>
<path opacity="0.918" d="M1 135.4C1 135.4 1 126.9 9.5 120.3C18 113.7 92.9 66.6998 96.2 64.7998C99 63.2998 105.8 60.7998 107.4 60.7998C109.1 60.7998 115.9 63.2998 118.6 64.7998C121.9 66.5998 196.9 113.7 205.3 120.3C213.7 126.9 213.7 135.4 213.7 135.4H1Z" fill="#C8C9C9"/>
<path opacity="0.9344" d="M1.1001 135.5C1.1001 135.5 1.1001 127 9.6001 120.4C18.1001 113.8 93.0001 66.8004 96.3001 64.9004C99.1001 63.4004 105.9 60.9004 107.5 60.9004C109.2 60.9004 116 63.4004 118.7 64.9004C122 66.7004 197 113.8 205.4 120.4C213.8 127 213.8 135.5 213.8 135.5H1.1001Z" fill="#C7C8C8"/>
<path opacity="0.9508" d="M1.1001 135.6C1.1001 135.6 1.1001 127.1 9.6001 120.5C18.1001 113.9 93.0001 66.9 96.3001 65C99.1001 63.5 105.9 61 107.5 61C109.2 61 116 63.5 118.7 65C122 66.8 197 113.9 205.4 120.5C213.8 127.1 213.8 135.6 213.8 135.6H1.1001Z" fill="#C6C7C7"/>
<path opacity="0.9672" d="M1.1001 135.7C1.1001 135.7 1.1001 127.2 9.6001 120.6C18.1001 114 93.0001 66.9996 96.3001 65.0996C99.1001 63.5996 105.9 61.0996 107.5 61.0996C109.2 61.0996 116 63.5996 118.7 65.0996C122 66.8996 197 114 205.4 120.6C213.8 127.2 213.8 135.7 213.8 135.7H1.1001Z" fill="#C5C6C6"/>
<path opacity="0.9836" d="M1.1001 135.7C1.1001 135.7 1.1001 127.2 9.6001 120.6C18.1001 114 93.0001 66.9996 96.3001 65.0996C99.1001 63.5996 105.9 61.0996 107.5 61.0996C109.2 61.0996 116 63.5996 118.7 65.0996C122 66.8996 197 114 205.4 120.6C213.8 127.2 213.8 135.7 213.8 135.7H1.1001Z" fill="#C4C5C5"/>
<path d="M1.1001 135.8C1.1001 135.8 1.1001 127.3 9.6001 120.7C18.1001 114.1 93.0001 67.1002 96.3001 65.2002C99.1001 63.7002 105.9 61.2002 107.5 61.2002C109.2 61.2002 116 63.7002 118.7 65.2002C122 67.0002 197 114.1 205.4 120.7C213.8 127.3 213.8 135.8 213.8 135.8H1.1001Z" fill="#B0B0B0"/>
<path d="M1.1001 135.8C1.1001 135.8 1.1001 127.3 9.6001 120.7C18.1001 114.1 93.0001 67.1002 96.3001 65.2002C99.1001 63.7002 103.9 61.2002 107.5 61.2002C111.1 61.2002 116 63.7002 118.7 65.2002C122 67.0002 197 114.1 205.4 120.7C213.8 127.3 213.8 135.8 213.8 135.8H1.1001Z" fill="url(#paint1_linear)"/>
<path opacity="0.0163934" d="M214.3 4.5C214.3 4.5 214.3 19 205.8 26.2C197.3 33.4 122.4 80.8 119.1 82.8C116.3 84.5 109.5 87.2 107.9 87.2C106.2 87.2 99.4 84.5 96.7 82.8C93.4 80.8 18.4 33.4 10 26.2C1.5 19 1.5 4.5 1.5 4.5H214.3Z" fill="#FEFEFE"/>
<path opacity="0.0327869" d="M214.3 4.40039C214.3 4.40039 214.3 18.8004 205.8 26.0004C197.3 33.2004 122.4 80.6004 119.1 82.6004C116.3 84.3004 109.5 86.9004 107.9 86.9004C106.2 86.9004 99.4 84.2004 96.7 82.6004C93.4 80.6004 18.4 33.2004 10 26.0004C1.5 18.8004 1.5 4.40039 1.5 4.40039H214.3Z" fill="#FDFDFD"/>
<path opacity="0.0491803" d="M214.3 4.40039C214.3 4.40039 214.3 18.7004 205.8 25.9004C197.3 33.1004 122.4 80.5004 119.1 82.5004C116.3 84.2004 109.5 86.8004 107.9 86.8004C106.2 86.8004 99.4 84.1004 96.7 82.5004C93.4 80.5004 18.4 33.1004 10 25.9004C1.5 18.7004 1.5 4.40039 1.5 4.40039H214.3Z" fill="#FCFCFC"/>
<path opacity="0.0655738" d="M214.3 4.2998C214.3 4.2998 214.3 18.4998 205.8 25.6998C197.3 32.7998 122.4 80.2998 119.1 82.2998C116.3 83.9998 109.5 86.5998 107.9 86.5998C106.2 86.5998 99.4 83.8998 96.7 82.2998C93.4 80.2998 18.4 32.8998 10 25.6998C1.5 18.4998 1.5 4.2998 1.5 4.2998H214.3Z" fill="#FBFBFB"/>
<path opacity="0.0819672" d="M214.2 4.2002C214.2 4.2002 214.2 18.3002 205.7 25.5002C197.2 32.6002 122.3 80.1002 119 82.0002C116.2 83.7002 109.4 86.3002 107.8 86.3002C106.1 86.3002 99.3001 83.6002 96.6002 82.0002C93.3001 80.0002 18.3001 32.6002 9.90015 25.5002C1.40015 18.4002 1.40015 4.2002 1.40015 4.2002H214.2Z" fill="#FAFAFA"/>
<path opacity="0.0983607" d="M214.2 4.09961C214.2 4.09961 214.2 18.0996 205.7 25.2996C197.2 32.3996 122.3 79.7996 119 81.7996C116.2 83.3996 109.4 86.0996 107.8 86.0996C106.1 86.0996 99.3001 83.3996 96.6002 81.7996C93.3001 79.7996 18.3001 32.3996 9.90015 25.2996C1.40015 18.1996 1.40015 4.09961 1.40015 4.09961H214.2Z" fill="#F9F9F9"/>
<path opacity="0.1148" d="M214.2 4.09961C214.2 4.09961 214.2 17.9996 205.7 25.1996C197.2 32.2996 122.3 79.6996 119 81.6996C116.2 83.2996 109.4 85.9996 107.8 85.9996C106.1 85.9996 99.3001 83.2996 96.6002 81.6996C93.3001 79.6996 18.3001 32.2996 9.90015 25.1996C1.40015 18.0996 1.40015 4.09961 1.40015 4.09961H214.2Z" fill="#F8F8F8"/>
<path opacity="0.1311" d="M214.2 4C214.2 4 214.2 17.8 205.7 24.9C197.2 32 122.3 79.4 119 81.4C116.2 83 109.4 85.7 107.8 85.7C106.1 85.7 99.3001 83 96.6002 81.4C93.3001 79.4 18.3001 32 9.90015 24.9C1.40015 17.8 1.40015 4 1.40015 4H214.2Z" fill="#F7F7F7"/>
<path opacity="0.1475" d="M214.2 3.90039C214.2 3.90039 214.2 17.6004 205.7 24.7004C197.2 31.8004 122.3 79.2004 119 81.2004C116.2 82.8004 109.4 85.5004 107.8 85.5004C106.1 85.5004 99.3001 82.8004 96.6002 81.2004C93.3001 79.2004 18.3001 31.8004 9.90015 24.7004C1.40015 17.6004 1.40015 3.90039 1.40015 3.90039H214.2Z" fill="#F6F6F6"/>
<path opacity="0.1639" d="M214.2 3.7998C214.2 3.7998 214.2 17.3998 205.7 24.4998C197.2 31.5998 122.3 78.9998 119 80.8998C116.2 82.4998 109.4 85.1998 107.8 85.1998C106.1 85.1998 99.3001 82.4998 96.6002 80.8998C93.3001 78.8998 18.3001 31.4998 9.90015 24.4998C1.40015 17.3998 1.40015 3.7998 1.40015 3.7998H214.2Z" fill="#F5F5F5"/>
<path opacity="0.1803" d="M214.2 3.7998C214.2 3.7998 214.2 17.2998 205.7 24.3998C197.2 31.4998 122.3 78.8998 119 80.7998C116.2 82.3998 109.4 85.0998 107.8 85.0998C106.1 85.0998 99.3001 82.3998 96.6002 80.7998C93.3001 78.7998 18.3001 31.4998 9.90015 24.3998C1.40015 17.2998 1.40015 3.7998 1.40015 3.7998H214.2Z" fill="#F4F4F4"/>
<path opacity="0.1967" d="M214.1 3.7002C214.1 3.7002 214.1 17.1002 205.6 24.2002C197.1 31.3002 122.2 78.6002 118.9 80.6002C116.1 82.2002 109.3 84.9002 107.7 84.9002C106 84.9002 99.2 82.2002 96.5 80.6002C93.2 78.6002 18.2 31.3002 9.80005 24.2002C1.30005 17.1002 1.30005 3.7002 1.30005 3.7002H214.1Z" fill="#F3F3F3"/>
<path opacity="0.2131" d="M214.1 3.59961C214.1 3.59961 214.1 16.8996 205.6 23.9996C197.1 31.0996 122.2 78.3996 118.9 80.3996C116.1 81.9996 109.3 84.6996 107.7 84.6996C106 84.6996 99.2 81.9996 96.5 80.3996C93.2 78.3996 18.2 31.0996 9.80005 23.9996C1.30005 16.8996 1.30005 3.59961 1.30005 3.59961H214.1Z" fill="#F2F2F3"/>
<path opacity="0.2295" d="M214.1 3.5C214.1 3.5 214.1 16.7 205.6 23.8C197.1 30.9 122.2 78.2 118.9 80.2C116.1 81.8 109.3 84.5 107.7 84.5C106 84.5 99.2 81.8 96.5 80.2C93.2 78.2 18.2 30.9 9.80005 23.8C1.30005 16.7 1.30005 3.5 1.30005 3.5H214.1Z" fill="#F1F1F2"/>
<path opacity="0.2459" d="M214.1 3.5C214.1 3.5 214.1 16.6 205.6 23.7C197.1 30.7 122.2 78.1 118.9 80.1C116.1 81.7 109.3 84.4 107.7 84.4C106 84.4 99.2 81.8 96.5 80.1C93.2 78.1 18.2 30.8 9.80005 23.7C1.30005 16.7 1.30005 3.5 1.30005 3.5H214.1Z" fill="#F0F0F1"/>
<path opacity="0.2623" d="M214.1 3.40039C214.1 3.40039 214.1 16.4004 205.6 23.5004C197.1 30.5004 122.2 77.9004 118.9 79.8004C116.1 81.4004 109.3 84.1004 107.7 84.1004C106 84.1004 99.2 81.5004 96.5 79.8004C93.2 77.8004 18.2 30.5004 9.80005 23.5004C1.30005 16.5004 1.30005 3.40039 1.30005 3.40039H214.1Z" fill="#EFF0F0"/>
<path opacity="0.2787" d="M214.1 3.2998C214.1 3.2998 214.1 16.1998 205.6 23.1998C197.1 30.1998 122.2 77.5998 118.9 79.4998C116.1 81.0998 109.3 83.7998 107.7 83.7998C106 83.7998 99.2 81.1998 96.5 79.4998C93.2 77.4998 18.2 30.1998 9.80005 23.1998C1.30005 16.1998 1.30005 3.2998 1.30005 3.2998H214.1Z" fill="#EEEFEF"/>
<path opacity="0.2951" d="M214 3.2002C214 3.2002 214 16.0002 205.5 23.0002C197 30.0002 122.1 77.3002 118.8 79.3002C116 80.9002 109.2 83.6002 107.6 83.6002C105.9 83.6002 99.1002 81.0002 96.4002 79.3002C93.1002 77.4002 18.1002 30.0002 9.7002 23.0002C1.2002 16.0002 1.2002 3.2002 1.2002 3.2002H214Z" fill="#EDEEEE"/>
<path opacity="0.3115" d="M214 3.2002C214 3.2002 214 15.9002 205.5 22.9002C197 29.9002 122.1 77.2002 118.8 79.2002C116 80.8002 109.2 83.5002 107.6 83.5002C105.9 83.5002 99.1002 80.9002 96.4002 79.2002C93.1002 77.3002 18.1002 29.9002 9.7002 22.9002C1.2002 15.9002 1.2002 3.2002 1.2002 3.2002H214Z" fill="#ECEDED"/>
<path opacity="0.3279" d="M214 3.09961C214 3.09961 214 15.6996 205.5 22.6996C197 29.6996 122.1 76.9996 118.8 78.9996C116 80.5996 109.2 83.1996 107.6 83.1996C105.9 83.1996 99.1002 80.5996 96.4002 78.9996C93.1002 77.0996 18.1002 29.6996 9.7002 22.6996C1.2002 15.6996 1.2002 3.09961 1.2002 3.09961H214Z" fill="#EBECEC"/>
<path opacity="0.3443" d="M214 3C214 3 214 15.5 205.5 22.5C197 29.5 122.1 76.8 118.8 78.7C116 80.3 109.2 82.9 107.6 82.9C105.9 82.9 99.1002 80.3 96.4002 78.7C93.1002 76.8 18.1002 29.4 9.7002 22.5C1.2002 15.5 1.2002 3 1.2002 3H214Z" fill="#EAEBEB"/>
<path opacity="0.3607" d="M214 2.90039C214 2.90039 214 15.3004 205.5 22.3004C197 29.3004 122.1 76.6004 118.8 78.5004C116 80.1004 109.2 82.7004 107.6 82.7004C105.9 82.7004 99.1002 80.1004 96.4002 78.5004C93.1002 76.6004 18.1002 29.3004 9.7002 22.3004C1.2002 15.3004 1.2002 2.90039 1.2002 2.90039H214Z" fill="#E9EAEA"/>
<path opacity="0.377" d="M214 2.90039C214 2.90039 214 15.2004 205.5 22.2004C197 29.2004 122.1 76.5004 118.8 78.4004C116 80.0004 109.2 82.6004 107.6 82.6004C105.9 82.6004 99.1002 80.0004 96.4002 78.4004C93.1002 76.5004 18.1002 29.2004 9.7002 22.2004C1.2002 15.2004 1.2002 2.90039 1.2002 2.90039H214Z" fill="#E9E9E9"/>
<path opacity="0.3934" d="M214 2.7998C214 2.7998 214 14.9998 205.5 21.9998C197 28.9998 122.1 76.2998 118.8 78.1998C116 79.7998 109.2 82.3998 107.6 82.3998C105.9 82.3998 99.1002 79.7998 96.4002 78.1998C93.1002 76.2998 18.1002 28.9998 9.7002 21.9998C1.2002 14.9998 1.2002 2.7998 1.2002 2.7998H214Z" fill="#E8E8E8"/>
<path opacity="0.4098" d="M213.9 2.7002C213.9 2.7002 213.9 14.8002 205.4 21.8002C196.9 28.8002 122 76.0002 118.7 78.0002C115.9 79.6002 109.1 82.2002 107.5 82.2002C105.8 82.2002 99.0001 79.6002 96.3001 78.0002C93.0001 76.1002 18.0001 28.8002 9.6001 21.8002C1.1001 14.8002 1.1001 2.7002 1.1001 2.7002H213.9Z" fill="#E7E7E7"/>
<path opacity="0.4262" d="M213.9 2.59961C213.9 2.59961 213.9 14.5996 205.4 21.4996C196.9 28.3996 122 75.6996 118.7 77.5996C115.9 79.1996 109.1 81.7996 107.5 81.7996C105.8 81.7996 99.0001 79.1996 96.3001 77.5996C93.0001 75.6996 18.0001 28.3996 9.6001 21.4996C1.1001 14.5996 1.1001 2.59961 1.1001 2.59961H213.9Z" fill="#E6E6E6"/>
<path opacity="0.4426" d="M213.9 2.59961C213.9 2.59961 213.9 14.4996 205.4 21.3996C196.9 28.2996 122 75.5996 118.7 77.4996C115.9 79.0996 109.1 81.6996 107.5 81.6996C105.8 81.6996 99.0001 79.0996 96.3001 77.4996C93.0001 75.5996 18.1001 28.2996 9.6001 21.3996C1.1001 14.4996 1.1001 2.59961 1.1001 2.59961H213.9Z" fill="#E5E5E5"/>
<path opacity="0.459" d="M213.9 2.5C213.9 2.5 213.9 14.3 205.4 21.2C196.9 28.1 122 75.4 118.7 77.3C115.9 78.9 109.1 81.5 107.5 81.5C105.8 81.5 99.0001 78.9 96.3001 77.3C93.0001 75.4 18.0001 28.1 9.6001 21.2C1.1001 14.3 1.1001 2.5 1.1001 2.5H213.9Z" fill="#E4E4E4"/>
<path opacity="0.4754" d="M213.9 2.40039C213.9 2.40039 213.9 14.1004 205.4 21.0004C196.9 27.9004 122 75.2004 118.7 77.1004C115.9 78.7004 109.1 81.3004 107.5 81.3004C105.8 81.3004 99.0001 78.7004 96.3001 77.1004C93.0001 75.2004 18.0001 27.9004 9.6001 21.0004C1.1001 14.1004 1.1001 2.40039 1.1001 2.40039H213.9Z" fill="#E3E3E3"/>
<path opacity="0.4918" d="M213.9 2.2998C213.9 2.2998 213.9 13.8998 205.4 20.7998C196.9 27.6998 122 74.9998 118.7 76.8998C115.9 78.4998 109.1 81.0998 107.5 81.0998C105.8 81.0998 99.0001 78.4998 96.3001 76.8998C93.0001 74.9998 18.0001 27.6998 9.6001 20.7998C1.1001 13.8998 1.1001 2.2998 1.1001 2.2998H213.9Z" fill="#E2E2E2"/>
<path opacity="0.5082" d="M213.9 2.2998C213.9 2.2998 213.9 13.7998 205.4 20.6998C196.9 27.5998 122 74.7998 118.7 76.7998C115.9 78.3998 109.1 80.9998 107.5 80.9998C105.8 80.9998 99.0001 78.3998 96.3001 76.7998C93.0001 74.7998 18.0001 27.4998 9.6001 20.6998C1.1001 13.7998 1.1001 2.2998 1.1001 2.2998H213.9Z" fill="#E1E1E1"/>
<path opacity="0.5246" d="M213.8 2.2002C213.8 2.2002 213.8 13.6002 205.3 20.5002C196.8 27.4002 121.9 74.6002 118.6 76.5002C115.8 78.1002 109 80.7002 107.4 80.7002C105.7 80.7002 98.9 78.1002 96.2 76.5002C92.9 74.6002 17.9 27.4002 9.5 20.5002C1 13.6002 1 2.2002 1 2.2002H213.8Z" fill="#E0E0E0"/>
<path opacity="0.541" d="M213.8 2.09961C213.8 2.09961 213.8 13.3996 205.3 20.2996C196.8 27.1996 121.9 74.3996 118.6 76.2996C115.8 77.8996 109 80.4996 107.4 80.4996C105.7 80.4996 98.9 77.8996 96.2 76.2996C92.9 74.3996 17.9 27.1996 9.5 20.2996C1 13.3996 1 2.09961 1 2.09961H213.8Z" fill="#DFDFDF"/>
<path opacity="0.5574" d="M213.8 2C213.8 2 213.8 13.2 205.3 20.1C196.8 27 121.9 74.2 118.6 76.1C115.8 77.7 109 80.3 107.4 80.3C105.7 80.3 98.9 77.7 96.2 76.1C92.9 74.2 17.9 27 9.5 20.1C1 13.2 1 2 1 2H213.8Z" fill="#DEDEDE"/>
<path opacity="0.5738" d="M213.8 2C213.8 2 213.8 13.1 205.3 19.9C196.8 26.8 121.9 74 118.6 75.9C115.8 77.5 109 80.1 107.4 80.1C105.7 80.1 98.9 77.5 96.2 75.9C92.9 74 17.9 26.8 9.5 19.9C1 13 1 2 1 2H213.8Z" fill="#DDDDDD"/>
<path opacity="0.5902" d="M213.8 1.90039C213.8 1.90039 213.8 12.9004 205.3 19.7004C196.8 26.5004 121.9 73.8004 118.6 75.7004C115.8 77.3004 109 79.9004 107.4 79.9004C105.7 79.9004 98.9 77.3004 96.2 75.7004C92.9 73.8004 17.9 26.6004 9.5 19.7004C1 12.9004 1 1.90039 1 1.90039H213.8Z" fill="#DCDCDC"/>
<path opacity="0.6066" d="M213.8 1.7998C213.8 1.7998 213.8 12.6998 205.3 19.4998C196.8 26.2998 121.9 73.4998 118.6 75.3998C115.8 76.9998 109 79.5998 107.4 79.5998C105.7 79.5998 98.9 76.9998 96.2 75.3998C92.9 73.4998 17.9 26.2998 9.5 19.4998C1 12.6998 1 1.7998 1 1.7998H213.8Z" fill="#DBDBDB"/>
<path opacity="0.623" d="M213.7 1.7002C213.7 1.7002 213.7 12.5002 205.2 19.3002C196.7 26.1002 121.8 73.3002 118.5 75.2002C115.7 76.8002 108.9 79.3002 107.3 79.3002C105.6 79.3002 98.8 76.7002 96.1 75.2002C92.8 73.3002 17.8 26.1002 9.4 19.3002C1 12.5002 1 1.7002 1 1.7002H213.7Z" fill="#DADADA"/>
<path opacity="0.6393" d="M213.7 1.7002C213.7 1.7002 213.7 12.4002 205.2 19.2002C196.7 26.0002 121.8 73.2002 118.5 75.1002C115.7 76.7002 108.9 79.2002 107.3 79.2002C105.6 79.2002 98.8 76.6002 96.1 75.1002C92.8 73.2002 17.8 26.0002 9.4 19.2002C1 12.3002 1 1.7002 1 1.7002H213.7Z" fill="#D9D9DA"/>
<path opacity="0.6557" d="M213.7 1.59961C213.7 1.59961 213.7 12.1996 205.2 18.9996C196.7 25.7996 121.8 72.9996 118.5 74.8996C115.7 76.4996 108.9 78.9996 107.3 78.9996C105.6 78.9996 98.8 76.3996 96.1 74.8996C92.8 72.9996 17.8 25.7996 9.4 18.9996C1 12.1996 1 1.59961 1 1.59961H213.7Z" fill="#D8D8D9"/>
<path opacity="0.6721" d="M213.7 1.5C213.7 1.5 213.7 12 205.2 18.8C196.7 25.6 121.8 72.8 118.5 74.7C115.7 76.3 108.9 78.8 107.3 78.8C105.6 78.8 98.8 76.2 96.1 74.7C92.8 72.8 17.8 25.6 9.4 18.8C1 12 1 1.5 1 1.5H213.7Z" fill="#D7D7D8"/>
<path opacity="0.6885" d="M213.7 1.40039C213.7 1.40039 213.7 11.8004 205.2 18.6004C196.7 25.4004 121.8 72.6004 118.5 74.4004C115.7 76.0004 108.9 78.5004 107.3 78.5004C105.6 78.5004 98.8001 75.9004 96.1002 74.4004C92.8001 72.5004 17.8001 25.3004 9.40015 18.6004C0.900146 11.8004 0.900146 1.40039 0.900146 1.40039H213.7Z" fill="#D6D6D7"/>
<path opacity="0.7049" d="M213.7 1.40039C213.7 1.40039 213.7 11.7004 205.2 18.5004C196.7 25.3004 121.8 72.4004 118.5 74.3004C115.7 75.9004 108.9 78.4004 107.3 78.4004C105.6 78.4004 98.8001 75.9004 96.1002 74.3004C92.8001 72.4004 17.8001 25.3004 9.40015 18.5004C0.900146 11.7004 0.900146 1.40039 0.900146 1.40039H213.7Z" fill="#D5D5D6"/>
<path opacity="0.7213" d="M213.7 1.2998C213.7 1.2998 213.7 11.4998 205.2 18.2998C196.7 25.0998 121.8 72.1998 118.5 74.0998C115.7 75.6998 108.9 78.1998 107.3 78.1998C105.6 78.1998 98.8001 75.6998 96.1002 74.0998C92.8001 72.1998 17.8001 25.0998 9.40015 18.2998C0.900146 11.4998 0.900146 1.2998 0.900146 1.2998H213.7Z" fill="#D4D4D5"/>
<path opacity="0.7377" d="M213.6 1.2002C213.6 1.2002 213.6 11.3002 205.1 18.0002C196.6 24.8002 121.7 71.9002 118.4 73.8002C115.6 75.4002 108.8 77.9002 107.2 77.9002C105.5 77.9002 98.7 75.4002 96 73.8002C92.7 71.9002 17.7 24.8002 9.30005 18.0002C0.800049 11.2002 0.800049 1.2002 0.800049 1.2002H213.6Z" fill="#D3D3D4"/>
<path opacity="0.7541" d="M213.6 1.09961C213.6 1.09961 213.6 11.0996 205.1 17.7996C196.6 24.5996 121.7 71.6996 118.4 73.5996C115.6 75.1996 108.8 77.6996 107.2 77.6996C105.5 77.6996 98.7 75.1996 96 73.5996C92.7 71.6996 17.7 24.5996 9.30005 17.7996C0.800049 10.9996 0.800049 1.09961 0.800049 1.09961H213.6Z" fill="#D2D2D3"/>
<path opacity="0.7705" d="M213.6 1.09961C213.6 1.09961 213.6 10.9996 205.1 17.6996C196.6 24.3996 121.7 71.5996 118.4 73.3996C115.6 74.9996 108.8 77.4996 107.2 77.4996C105.5 77.4996 98.7 74.9996 96 73.3996C92.7 71.4996 17.7 24.3996 9.30005 17.6996C0.800049 10.9996 0.800049 1.09961 0.800049 1.09961H213.6Z" fill="#D1D2D2"/>
<path opacity="0.7869" d="M213.6 1C213.6 1 213.6 10.8 205.1 17.5C196.6 24.2 121.7 71.4 118.4 73.2C115.6 74.8 108.8 77.3 107.2 77.3C105.5 77.3 98.7 74.8 96 73.2C92.7 71.3 17.7 24.2 9.30005 17.5C0.800049 10.8 0.800049 1 0.800049 1H213.6Z" fill="#D0D1D1"/>
<path opacity="0.8033" d="M213.6 0.900391C213.6 0.900391 213.6 10.6004 205.1 17.3004C196.6 24.0004 121.7 71.1004 118.4 73.0004C115.6 74.6004 108.8 77.1004 107.2 77.1004C105.5 77.1004 98.7 74.6004 96 73.0004C92.7 71.1004 17.7 24.0004 9.30005 17.3004C0.800049 10.6004 0.800049 0.900391 0.800049 0.900391H213.6Z" fill="#CFD0D0"/>
<path opacity="0.8197" d="M213.6 0.799805C213.6 0.799805 213.6 10.3998 205.1 17.0998C196.6 23.7998 121.7 70.8998 118.4 72.7998C115.6 74.3998 108.8 76.8998 107.2 76.8998C105.5 76.8998 98.7 74.3998 96 72.7998C92.7 70.8998 17.7 23.7998 9.30005 17.0998C0.800049 10.3998 0.800049 0.799805 0.800049 0.799805H213.6Z" fill="#CECFCF"/>
<path opacity="0.8361" d="M213.6 0.799805C213.6 0.799805 213.6 10.2998 205.1 16.9998C196.6 23.6998 121.7 70.7998 118.4 72.6998C115.6 74.2998 108.8 76.7998 107.2 76.7998C105.5 76.7998 98.7 74.2998 96 72.6998C92.7 70.7998 17.7 23.6998 9.30005 16.9998C0.800049 10.2998 0.800049 0.799805 0.800049 0.799805H213.6Z" fill="#CDCECE"/>
<path opacity="0.8525" d="M213.5 0.700195C213.5 0.700195 213.5 10.1002 205 16.8002C196.5 23.5002 121.6 70.6002 118.3 72.5002C115.5 74.0002 108.7 76.6002 107.1 76.6002C105.4 76.6002 98.6002 74.1002 95.9002 72.5002C92.6002 70.6002 17.6002 23.5002 9.2002 16.8002C0.700195 10.1002 0.700195 0.700195 0.700195 0.700195H213.5Z" fill="#CCCDCD"/>
<path opacity="0.8689" d="M213.5 0.599609C213.5 0.599609 213.5 9.89961 205 16.5996C196.5 23.2996 121.6 70.3996 118.3 72.1996C115.5 73.6996 108.7 76.2996 107.1 76.2996C105.4 76.2996 98.6002 73.7996 95.9002 72.1996C92.6002 70.2996 17.7002 23.2996 9.2002 16.5996C0.700195 9.89961 0.700195 0.599609 0.700195 0.599609H213.5Z" fill="#CBCCCC"/>
<path opacity="0.8852" d="M213.5 0.5C213.5 0.5 213.5 9.7 205 16.3C196.5 23 121.6 70.1 118.3 71.9C115.5 73.4 108.7 76 107.1 76C105.4 76 98.6002 73.5 95.9002 71.9C92.6002 70 17.6002 23 9.2002 16.3C0.700195 9.6 0.700195 0.5 0.700195 0.5H213.5Z" fill="#CACBCB"/>
<path opacity="0.9016" d="M213.5 0.5C213.5 0.5 213.5 9.6 205 16.2C196.5 22.9 121.6 69.9 118.3 71.8C115.5 73.3 108.7 75.8 107.1 75.8C105.4 75.8 98.6002 73.3 95.9002 71.8C92.6002 69.9 17.6002 22.9 9.2002 16.2C0.700195 9.5 0.700195 0.5 0.700195 0.5H213.5Z" fill="#C9CACA"/>
<path opacity="0.918" d="M213.5 0.400391C213.5 0.400391 213.5 9.40039 205 16.0004C196.5 22.7004 121.6 69.7004 118.3 71.6004C115.5 73.1004 108.7 75.6004 107.1 75.6004C105.4 75.6004 98.6002 73.1004 95.9002 71.6004C92.6002 69.8004 17.6002 22.7004 9.2002 16.0004C0.700195 9.30039 0.700195 0.400391 0.700195 0.400391H213.5Z" fill="#C8C9C9"/>
<path opacity="0.9344" d="M213.5 0.299805C213.5 0.299805 213.5 9.1998 205 15.7998C196.5 22.4998 121.6 69.4998 118.3 71.3998C115.5 72.8998 108.7 75.3998 107.1 75.3998C105.4 75.3998 98.6002 72.8998 95.9002 71.3998C92.6002 69.5998 17.6002 22.4998 9.2002 15.7998C0.700195 9.1998 0.700195 0.299805 0.700195 0.299805H213.5Z" fill="#C7C8C8"/>
<path opacity="0.9508" d="M213.4 0.200195C213.4 0.200195 213.4 9.00019 204.9 15.6002C196.4 22.2002 121.5 69.3002 118.2 71.1002C115.4 72.6002 108.6 75.1002 107 75.1002C105.3 75.1002 98.5002 72.6002 95.8002 71.1002C92.6002 69.3002 17.6002 22.3002 9.2002 15.6002C0.700195 9.00019 0.700195 0.200195 0.700195 0.200195H213.4Z" fill="#C6C7C7"/>
<path opacity="0.9672" d="M213.4 0.200195C213.4 0.200195 213.4 8.90019 204.9 15.5002C196.4 22.1002 121.5 69.2002 118.2 71.0002C115.4 72.5002 108.6 75.0002 107 75.0002C105.3 75.0002 98.5001 72.5002 95.8001 71.0002C92.5001 69.2002 17.5001 22.1002 9.1001 15.5002C0.600098 8.90019 0.600098 0.200195 0.600098 0.200195H213.4Z" fill="#C5C6C6"/>
<path opacity="0.9836" d="M213.4 0.0996094C213.4 0.0996094 213.4 8.69961 204.9 15.2996C196.4 21.8996 121.5 68.9996 118.2 70.7996C115.4 72.2996 108.6 74.7996 107 74.7996C105.3 74.7996 98.5001 72.2996 95.8001 70.7996C92.5001 68.9996 17.5001 21.8996 9.1001 15.2996C0.600098 8.69961 0.600098 0.0996094 0.600098 0.0996094H213.4Z" fill="#C4C5C5"/>
<path d="M213.4 0C213.4 0 213.4 8.5 204.9 15.1C196.4 21.7 121.5 68.7 118.2 70.6C115.4 72.1 108.6 74.6 107 74.6C105.3 74.6 98.5001 72.1 95.8001 70.6C92.5001 68.8 17.5001 21.7 9.1001 15.1C0.600098 8.5 0.600098 0 0.600098 0H213.4Z" fill="#B0B0B0"/>
<path d="M213.4 0C213.4 0 213.4 8.5 204.9 15.1C196.4 21.7 121.5 68.7 118.2 70.6C115.4 72.1 110.6 74.6 107 74.6C103.4 74.6 98.5001 72.1 95.8001 70.6C92.5001 68.8 17.5001 21.7 9.1001 15.1C0.600098 8.5 0.600098 0 0.600098 0H213.4Z" fill="url(#paint2_linear)"/>
<circle cx="105.7" cy="71.5" r="49.5" fill="#FFD34F"/>
<path d="M121.177 55.2734C121.177 58.8151 120.096 61.862 117.934 64.4141C115.773 66.9401 112.648 68.776 108.559 69.9219V70.1562C118.091 71.3542 122.856 75.8594 122.856 83.6719C122.856 88.9844 120.747 93.1641 116.528 96.2109C112.335 99.2578 106.502 100.781 99.0281 100.781C95.9552 100.781 93.1036 100.56 90.4734 100.117C87.8692 99.6745 85.0437 98.8672 81.9968 97.6953V84.8828C84.4968 86.1589 87.0359 87.1094 89.614 87.7344C92.2182 88.3333 94.614 88.6328 96.8015 88.6328C100.187 88.6328 102.648 88.1641 104.184 87.2266C105.747 86.263 106.528 84.7656 106.528 82.7344C106.528 81.1719 106.124 79.974 105.317 79.1406C104.51 78.2812 103.208 77.6432 101.411 77.2266C99.614 76.7839 97.2703 76.5625 94.3796 76.5625H90.864V64.9609H94.4578C102.296 64.9609 106.216 62.9557 106.216 58.9453C106.216 57.4349 105.63 56.3151 104.458 55.5859C103.312 54.8568 101.762 54.4922 99.8093 54.4922C96.1635 54.4922 92.3875 55.7161 88.4812 58.1641L82.075 47.8516C85.0958 45.7682 88.1817 44.2839 91.3328 43.3984C94.5098 42.513 98.1427 42.0703 102.231 42.0703C108.143 42.0703 112.778 43.2422 116.137 45.5859C119.497 47.9297 121.177 51.1589 121.177 55.2734Z" fill="url(#paint3_linear)"/>
<defs>
<linearGradient id="paint0_linear" x1="107.033" y1="0.0203" x2="107.033" y2="135.813" gradientUnits="userSpaceOnUse">
<stop stop-color="#D5D5D0"/>
<stop offset="0.1161" stop-color="#E0E0DA"/>
<stop offset="0.3441" stop-color="#EFEFE7"/>
<stop offset="0.6097" stop-color="#F8F8EF"/>
<stop offset="1" stop-color="#FBFBF1"/>
</linearGradient>
<linearGradient id="paint1_linear" x1="107.489" y1="-58.6198" x2="107.489" y2="135.813" gradientUnits="userSpaceOnUse">
<stop stop-color="#D5D5D0"/>
<stop offset="0.1161" stop-color="#E0E0DA"/>
<stop offset="0.3441" stop-color="#EFEFE7"/>
<stop offset="0.6097" stop-color="#F8F8EF"/>
<stop offset="1" stop-color="#FBFBF1"/>
</linearGradient>
<linearGradient id="paint2_linear" x1="107.034" y1="194.454" x2="107.034" y2="0.0209994" gradientUnits="userSpaceOnUse">
<stop stop-color="#D5D5D0"/>
<stop offset="0.1161" stop-color="#E0E0DA"/>
<stop offset="0.3441" stop-color="#EFEFE7"/>
<stop offset="0.6097" stop-color="#F8F8EF"/>
<stop offset="1" stop-color="#FBFBF1"/>
</linearGradient>
<linearGradient id="paint3_linear" x1="99.6306" y1="-1.41571" x2="102.663" y2="138.356" gradientUnits="userSpaceOnUse">
<stop stop-color="#D91B24"/>
<stop offset="1" stop-color="#393C5A"/>
</linearGradient>
</defs>
</svg>
