<svg width="215" height="136" viewBox="0 0 215 136" fill="none" xmlns="http://www.w3.org/2000/svg">
<path d="M213.2 0H0.500488V135.8H213.2V0Z" fill="url(#paint0_linear)"/>
<path opacity="0.0163934" d="M0.000488281 131.3C0.000488281 131.3 0.000488281 122.8 8.50049 116.2C17.0005 109.6 91.9005 62.6002 95.2005 60.7002C98.0005 59.2002 104.8 56.7002 106.4 56.7002C108.1 56.7002 114.9 59.2002 117.6 60.7002C120.9 62.5002 195.9 109.6 204.3 116.2C212.8 122.8 212.8 131.3 212.8 131.3H0.000488281Z" fill="#FEFEFE"/>
<path opacity="0.0327869" d="M0.000488281 131.4C0.000488281 131.4 0.000488281 122.9 8.50049 116.3C17.0005 109.7 91.9005 62.6998 95.2005 60.7998C98.0005 59.2998 104.8 56.7998 106.4 56.7998C108.1 56.7998 114.9 59.2998 117.6 60.7998C120.9 62.5998 195.9 109.7 204.3 116.3C212.8 122.9 212.8 131.4 212.8 131.4H0.000488281Z" fill="#FDFDFD"/>
<path opacity="0.0491803" d="M0.100586 131.5C0.100586 131.5 0.100586 123 8.60059 116.4C17.1006 109.8 92.0006 62.8004 95.3006 60.9004C98.1006 59.4004 104.901 56.9004 106.501 56.9004C108.201 56.9004 115.001 59.4004 117.701 60.9004C121.001 62.7004 196.001 109.8 204.401 116.4C212.901 123 212.901 131.5 212.901 131.5H0.100586Z" fill="#FCFCFC"/>
<path opacity="0.0655738" d="M0.100586 131.6C0.100586 131.6 0.100586 123.1 8.60059 116.5C17.1006 109.9 92.0006 62.9 95.3006 61C98.1006 59.5 104.901 57 106.501 57C108.201 57 115.001 59.5 117.701 61C121.001 62.8 196.001 109.9 204.401 116.5C212.901 123.1 212.901 131.6 212.901 131.6H0.100586Z" fill="#FBFBFB"/>
<path opacity="0.0819672" d="M0.100586 131.6C0.100586 131.6 0.100586 123.1 8.60059 116.5C17.1006 109.9 92.0006 62.9 95.3006 61C98.1006 59.5 104.901 57 106.501 57C108.201 57 115.001 59.5 117.701 61C121.001 62.8 196.001 109.9 204.401 116.5C212.901 123.1 212.901 131.6 212.901 131.6H0.100586Z" fill="#FAFAFA"/>
<path opacity="0.0983607" d="M0.100586 131.7C0.100586 131.7 0.100586 123.2 8.60059 116.6C17.1006 110 92.0006 62.9996 95.3006 61.0996C98.1006 59.5996 104.901 57.0996 106.501 57.0996C108.201 57.0996 115.001 59.5996 117.701 61.0996C121.001 62.8996 196.001 110 204.401 116.6C212.901 123.2 212.901 131.7 212.901 131.7H0.100586Z" fill="#F9F9F9"/>
<path opacity="0.1148" d="M0.100586 131.8C0.100586 131.8 0.100586 123.3 8.60059 116.7C17.1006 110.1 92.0006 63.1002 95.3006 61.2002C98.1006 59.7002 104.901 57.2002 106.501 57.2002C108.201 57.2002 115.001 59.7002 117.701 61.2002C121.001 63.0002 196.001 110.1 204.401 116.7C212.901 123.3 212.901 131.8 212.901 131.8H0.100586Z" fill="#F8F8F8"/>
<path opacity="0.1311" d="M0.100586 131.9C0.100586 131.9 0.100586 123.4 8.60059 116.8C17.1006 110.2 92.0006 63.1998 95.3006 61.2998C98.1006 59.7998 104.901 57.2998 106.501 57.2998C108.201 57.2998 115.001 59.7998 117.701 61.2998C121.001 63.0998 196.001 110.2 204.401 116.8C212.901 123.4 212.901 131.9 212.901 131.9H0.100586Z" fill="#F7F7F7"/>
<path opacity="0.1475" d="M0.100586 131.9C0.100586 131.9 0.100586 123.4 8.60059 116.8C17.1006 110.2 92.0006 63.1998 95.3006 61.2998C98.1006 59.7998 104.901 57.2998 106.501 57.2998C108.201 57.2998 115.001 59.7998 117.701 61.2998C121.001 63.0998 196.001 110.2 204.401 116.8C212.901 123.4 212.901 131.9 212.901 131.9H0.100586Z" fill="#F6F6F6"/>
<path opacity="0.1639" d="M0.200439 132C0.200439 132 0.200439 123.5 8.70044 116.9C17.2004 110.3 92.1004 63.3004 95.4004 61.4004C98.2004 59.9004 105 57.4004 106.6 57.4004C108.3 57.4004 115.1 59.9004 117.8 61.4004C121.1 63.2004 196.1 110.3 204.5 116.9C213 123.5 213 132 213 132H0.200439Z" fill="#F5F5F5"/>
<path opacity="0.1803" d="M0.200439 132.1C0.200439 132.1 0.200439 123.6 8.70044 117C17.2004 110.4 92.1004 63.4 95.4004 61.5C98.2004 60 105 57.5 106.6 57.5C108.3 57.5 115.1 60 117.8 61.5C121.1 63.3 196.1 110.4 204.5 117C213 123.6 213 132.1 213 132.1H0.200439Z" fill="#F4F4F4"/>
<path opacity="0.1967" d="M0.200439 132.2C0.200439 132.2 0.200439 123.7 8.70044 117.1C17.2004 110.5 92.1004 63.4996 95.4004 61.5996C98.2004 60.0996 105 57.5996 106.6 57.5996C108.3 57.5996 115.1 60.0996 117.8 61.5996C121.1 63.3996 196.1 110.5 204.5 117.1C213 123.7 213 132.2 213 132.2H0.200439Z" fill="#F3F3F3"/>
<path opacity="0.2131" d="M0.200439 132.2C0.200439 132.2 0.200439 123.7 8.70044 117.1C17.2004 110.5 92.1004 63.4996 95.4004 61.5996C98.2004 60.0996 105 57.5996 106.6 57.5996C108.3 57.5996 115.1 60.0996 117.8 61.5996C121.1 63.3996 196.1 110.5 204.5 117.1C213 123.7 213 132.2 213 132.2H0.200439Z" fill="#F2F2F3"/>
<path opacity="0.2295" d="M0.200439 132.3C0.200439 132.3 0.200439 123.8 8.70044 117.2C17.2004 110.6 92.1004 63.6002 95.4004 61.7002C98.2004 60.2002 105 57.7002 106.6 57.7002C108.3 57.7002 115.1 60.2002 117.8 61.7002C121.1 63.5002 196.1 110.6 204.5 117.2C213 123.8 213 132.3 213 132.3H0.200439Z" fill="#F1F1F2"/>
<path opacity="0.2459" d="M0.200439 132.4C0.200439 132.4 0.200439 123.9 8.70044 117.3C17.2004 110.7 92.1004 63.6998 95.4004 61.7998C98.2004 60.2998 105 57.7998 106.6 57.7998C108.3 57.7998 115.1 60.2998 117.8 61.7998C121.1 63.5998 196.1 110.7 204.5 117.3C213 123.9 213 132.4 213 132.4H0.200439Z" fill="#F0F0F1"/>
<path opacity="0.2623" d="M0.200439 132.5C0.200439 132.5 0.200439 124 8.70044 117.4C17.2004 110.8 92.1004 63.8004 95.4004 61.9004C98.2004 60.4004 105 57.9004 106.6 57.9004C108.3 57.9004 115.1 60.4004 117.8 61.9004C121.1 63.7004 196.1 110.8 204.5 117.4C213 124 213 132.5 213 132.5H0.200439Z" fill="#EFF0F0"/>
<path opacity="0.2787" d="M0.300537 132.5C0.300537 132.5 0.300537 124 8.80054 117.4C17.3005 110.8 92.2005 63.8004 95.5005 61.9004C98.3005 60.4004 105.101 57.9004 106.701 57.9004C108.401 57.9004 115.201 60.4004 117.901 61.9004C121.201 63.7004 196.201 110.8 204.601 117.4C213.101 124 213.101 132.5 213.101 132.5H0.300537Z" fill="#EEEFEF"/>
<path opacity="0.2951" d="M0.300537 132.6C0.300537 132.6 0.300537 124.1 8.80054 117.5C17.3005 110.9 92.2005 63.9 95.5005 62C98.3005 60.5 105.101 58 106.701 58C108.401 58 115.201 60.5 117.901 62C121.201 63.8 196.201 110.9 204.601 117.5C213.101 124.1 213.101 132.6 213.101 132.6H0.300537Z" fill="#EDEEEE"/>
<path opacity="0.3115" d="M0.300537 132.7C0.300537 132.7 0.300537 124.2 8.80054 117.6C17.3005 111 92.2005 63.9996 95.5005 62.0996C98.3005 60.5996 105.101 58.0996 106.701 58.0996C108.401 58.0996 115.201 60.5996 117.901 62.0996C121.201 63.8996 196.201 111 204.601 117.6C213.101 124.2 213.101 132.7 213.101 132.7H0.300537Z" fill="#ECEDED"/>
<path opacity="0.3279" d="M0.300537 132.8C0.300537 132.8 0.300537 124.3 8.80054 117.7C17.3005 111.1 92.2005 64.1002 95.5005 62.2002C98.3005 60.7002 105.101 58.2002 106.701 58.2002C108.401 58.2002 115.201 60.7002 117.901 62.2002C121.201 64.0002 196.201 111.1 204.601 117.7C213.101 124.3 213.101 132.8 213.101 132.8H0.300537Z" fill="#EBECEC"/>
<path opacity="0.3443" d="M0.300537 132.8C0.300537 132.8 0.300537 124.3 8.80054 117.7C17.3005 111.1 92.2005 64.1002 95.5005 62.2002C98.3005 60.7002 105.101 58.2002 106.701 58.2002C108.401 58.2002 115.201 60.7002 117.901 62.2002C121.201 64.0002 196.201 111.1 204.601 117.7C213.101 124.3 213.101 132.8 213.101 132.8H0.300537Z" fill="#EAEBEB"/>
<path opacity="0.3607" d="M0.300537 132.9C0.300537 132.9 0.300537 124.4 8.80054 117.8C17.3005 111.2 92.2005 64.1998 95.5005 62.2998C98.3005 60.7998 105.101 58.2998 106.701 58.2998C108.401 58.2998 115.201 60.7998 117.901 62.2998C121.201 64.0998 196.201 111.2 204.601 117.8C213.101 124.4 213.101 132.9 213.101 132.9H0.300537Z" fill="#E9EAEA"/>
<path opacity="0.377" d="M0.400391 133C0.400391 133 0.400391 124.5 8.90039 117.9C17.4004 111.3 92.3004 64.3004 95.6004 62.4004C98.4004 60.9004 105.2 58.4004 106.8 58.4004C108.5 58.4004 115.3 60.9004 118 62.4004C121.3 64.2004 196.3 111.3 204.7 117.9C213.2 124.5 213.2 133 213.2 133H0.400391Z" fill="#E9E9E9"/>
<path opacity="0.3934" d="M0.400391 133.1C0.400391 133.1 0.400391 124.6 8.90039 118C17.4004 111.4 92.3004 64.4 95.6004 62.5C98.4004 61 105.2 58.5 106.8 58.5C108.5 58.5 115.3 61 118 62.5C121.3 64.3 196.3 111.4 204.7 118C213.2 124.6 213.2 133.1 213.2 133.1H0.400391Z" fill="#E8E8E8"/>
<path opacity="0.4098" d="M0.400391 133.1C0.400391 133.1 0.400391 124.6 8.90039 118C17.4004 111.4 92.3004 64.4 95.6004 62.5C98.4004 61 105.2 58.5 106.8 58.5C108.5 58.5 115.3 61 118 62.5C121.3 64.3 196.3 111.4 204.7 118C213.2 124.6 213.2 133.1 213.2 133.1H0.400391Z" fill="#E7E7E7"/>
<path opacity="0.4262" d="M0.400391 133.2C0.400391 133.2 0.400391 124.7 8.90039 118.1C17.4004 111.5 92.3004 64.4996 95.6004 62.5996C98.4004 61.0996 105.2 58.5996 106.8 58.5996C108.5 58.5996 115.3 61.0996 118 62.5996C121.3 64.3996 196.3 111.5 204.7 118.1C213.2 124.7 213.2 133.2 213.2 133.2H0.400391Z" fill="#E6E6E6"/>
<path opacity="0.4426" d="M0.400391 133.3C0.400391 133.3 0.400391 124.8 8.90039 118.2C17.4004 111.6 92.3004 64.6002 95.6004 62.7002C98.4004 61.2002 105.2 58.7002 106.8 58.7002C108.5 58.7002 115.3 61.2002 118 62.7002C121.3 64.5002 196.3 111.6 204.7 118.2C213.2 124.8 213.2 133.3 213.2 133.3H0.400391Z" fill="#E5E5E5"/>
<path opacity="0.459" d="M0.400391 133.4C0.400391 133.4 0.400391 124.9 8.90039 118.3C17.4004 111.7 92.3004 64.6998 95.6004 62.7998C98.4004 61.2998 105.2 58.7998 106.8 58.7998C108.5 58.7998 115.3 61.2998 118 62.7998C121.3 64.5998 196.3 111.7 204.7 118.3C213.2 124.9 213.2 133.4 213.2 133.4H0.400391Z" fill="#E4E4E4"/>
<path opacity="0.4754" d="M0.400391 133.4C0.400391 133.4 0.400391 124.9 8.90039 118.3C17.4004 111.7 92.3004 64.6998 95.6004 62.7998C98.4004 61.2998 105.2 58.7998 106.8 58.7998C108.5 58.7998 115.3 61.2998 118 62.7998C121.3 64.5998 196.3 111.7 204.7 118.3C213.2 124.9 213.2 133.4 213.2 133.4H0.400391Z" fill="#E3E3E3"/>
<path opacity="0.4918" d="M0.500488 133.5C0.500488 133.5 0.500488 125 9.00049 118.4C17.5005 111.8 92.4005 64.8004 95.7005 62.9004C98.5005 61.4004 105.3 58.9004 106.9 58.9004C108.6 58.9004 115.4 61.4004 118.1 62.9004C121.4 64.7004 196.4 111.8 204.8 118.4C213.3 125 213.3 133.5 213.3 133.5H0.500488Z" fill="#E2E2E2"/>
<path opacity="0.5082" d="M0.500488 133.6C0.500488 133.6 0.500488 125.1 9.00049 118.5C17.5005 111.9 92.4005 64.9 95.7005 63C98.5005 61.5 105.3 59 106.9 59C108.6 59 115.4 61.5 118.1 63C121.4 64.8 196.4 111.9 204.8 118.5C213.3 125.1 213.3 133.6 213.3 133.6H0.500488Z" fill="#E1E1E1"/>
<path opacity="0.5246" d="M0.500488 133.6C0.500488 133.6 0.500488 125.1 9.00049 118.5C17.5005 111.9 92.4005 64.9 95.7005 63C98.5005 61.5 105.3 59 106.9 59C108.6 59 115.4 61.5 118.1 63C121.4 64.8 196.4 111.9 204.8 118.5C213.3 125.1 213.3 133.6 213.3 133.6H0.500488Z" fill="#E0E0E0"/>
<path opacity="0.541" d="M0.500488 133.7C0.500488 133.7 0.500488 125.2 9.00049 118.6C17.5005 112 92.4005 64.9996 95.7005 63.0996C98.5005 61.5996 105.3 59.0996 106.9 59.0996C108.6 59.0996 115.4 61.5996 118.1 63.0996C121.4 64.8996 196.4 112 204.8 118.6C213.3 125.2 213.3 133.7 213.3 133.7H0.500488Z" fill="#DFDFDF"/>
<path opacity="0.5574" d="M0.500488 133.8C0.500488 133.8 0.500488 125.3 9.00049 118.7C17.5005 112.1 92.4005 65.1002 95.7005 63.2002C98.5005 61.7002 105.3 59.2002 106.9 59.2002C108.6 59.2002 115.4 61.7002 118.1 63.2002C121.4 65.0002 196.4 112.1 204.8 118.7C213.3 125.3 213.3 133.8 213.3 133.8H0.500488Z" fill="#DEDEDE"/>
<path opacity="0.5738" d="M0.500488 133.9C0.500488 133.9 0.500488 125.4 9.00049 118.8C17.5005 112.2 92.4005 65.1998 95.7005 63.2998C98.5005 61.7998 105.3 59.2998 106.9 59.2998C108.6 59.2998 115.4 61.7998 118.1 63.2998C121.4 65.0998 196.4 112.2 204.8 118.8C213.3 125.4 213.3 133.9 213.3 133.9H0.500488Z" fill="#DDDDDD"/>
<path opacity="0.5902" d="M0.500488 133.9C0.500488 133.9 0.500488 125.4 9.00049 118.8C17.5005 112.2 92.4005 65.1998 95.7005 63.2998C98.5005 61.7998 105.3 59.2998 106.9 59.2998C108.6 59.2998 115.4 61.7998 118.1 63.2998C121.4 65.0998 196.4 112.2 204.8 118.8C213.3 125.4 213.3 133.9 213.3 133.9H0.500488Z" fill="#DCDCDC"/>
<path opacity="0.6066" d="M0.600586 134C0.600586 134 0.600586 125.5 9.10059 118.9C17.6006 112.3 92.5006 65.3004 95.8006 63.4004C98.6006 61.9004 105.401 59.4004 107.001 59.4004C108.701 59.4004 115.501 61.9004 118.201 63.4004C121.501 65.2004 196.501 112.3 204.901 118.9C213.301 125.5 213.301 134 213.301 134H0.600586Z" fill="#DBDBDB"/>
<path opacity="0.623" d="M0.600586 134.1C0.600586 134.1 0.600586 125.6 9.10059 119C17.6006 112.4 92.5006 65.4 95.8006 63.5C98.6006 62 105.401 59.5 107.001 59.5C108.701 59.5 115.501 62 118.201 63.5C121.501 65.3 196.501 112.4 204.901 119C213.301 125.6 213.301 134.1 213.301 134.1H0.600586Z" fill="#DADADA"/>
<path opacity="0.6393" d="M0.600586 134.2C0.600586 134.2 0.600586 125.7 9.10059 119.1C17.6006 112.5 92.5006 65.4996 95.8006 63.5996C98.6006 62.0996 105.401 59.5996 107.001 59.5996C108.701 59.5996 115.501 62.0996 118.201 63.5996C121.501 65.3996 196.501 112.5 204.901 119.1C213.301 125.7 213.301 134.2 213.301 134.2H0.600586Z" fill="#D9D9DA"/>
<path opacity="0.6557" d="M0.600586 134.2C0.600586 134.2 0.600586 125.7 9.10059 119.1C17.6006 112.5 92.5006 65.4996 95.8006 63.5996C98.6006 62.0996 105.401 59.5996 107.001 59.5996C108.701 59.5996 115.501 62.0996 118.201 63.5996C121.501 65.3996 196.501 112.5 204.901 119.1C213.301 125.7 213.301 134.2 213.301 134.2H0.600586Z" fill="#D8D8D9"/>
<path opacity="0.6721" d="M0.600586 134.3C0.600586 134.3 0.600586 125.8 9.10059 119.2C17.6006 112.6 92.5006 65.6002 95.8006 63.7002C98.6006 62.2002 105.401 59.7002 107.001 59.7002C108.701 59.7002 115.501 62.2002 118.201 63.7002C121.501 65.5002 196.501 112.6 204.901 119.2C213.301 125.8 213.301 134.3 213.301 134.3H0.600586Z" fill="#D7D7D8"/>
<path opacity="0.6885" d="M0.600586 134.4C0.600586 134.4 0.600586 125.9 9.10059 119.3C17.6006 112.7 92.5006 65.6998 95.8006 63.7998C98.6006 62.2998 105.401 59.7998 107.001 59.7998C108.701 59.7998 115.501 62.2998 118.201 63.7998C121.501 65.5998 196.501 112.7 204.901 119.3C213.301 125.9 213.301 134.4 213.301 134.4H0.600586Z" fill="#D6D6D7"/>
<path opacity="0.7049" d="M0.600586 134.5C0.600586 134.5 0.600586 126 9.10059 119.4C17.6006 112.8 92.5006 65.8004 95.8006 63.9004C98.6006 62.4004 105.401 59.9004 107.001 59.9004C108.701 59.9004 115.501 62.4004 118.201 63.9004C121.501 65.7004 196.501 112.8 204.901 119.4C213.301 126 213.301 134.5 213.301 134.5H0.600586Z" fill="#D5D5D6"/>
<path opacity="0.7213" d="M0.700439 134.5C0.700439 134.5 0.700439 126 9.20044 119.4C17.7004 112.8 92.6004 65.8004 95.9004 63.9004C98.7004 62.4004 105.5 59.9004 107.1 59.9004C108.8 59.9004 115.6 62.4004 118.3 63.9004C121.6 65.7004 196.6 112.8 205 119.4C213.4 126 213.4 134.5 213.4 134.5H0.700439Z" fill="#D4D4D5"/>
<path opacity="0.7377" d="M0.700439 134.6C0.700439 134.6 0.700439 126.1 9.20044 119.5C17.7004 112.9 92.6004 65.9 95.9004 64C98.7004 62.5 105.5 60 107.1 60C108.8 60 115.6 62.5 118.3 64C121.6 65.8 196.6 112.9 205 119.5C213.4 126.1 213.4 134.6 213.4 134.6H0.700439Z" fill="#D3D3D4"/>
<path opacity="0.7541" d="M0.700439 134.7C0.700439 134.7 0.700439 126.2 9.20044 119.6C17.7004 113 92.6004 65.9996 95.9004 64.0996C98.7004 62.5996 105.5 60.0996 107.1 60.0996C108.8 60.0996 115.6 62.5996 118.3 64.0996C121.6 65.8996 196.6 113 205 119.6C213.4 126.2 213.4 134.7 213.4 134.7H0.700439Z" fill="#D2D2D3"/>
<path opacity="0.7705" d="M0.700439 134.8C0.700439 134.8 0.700439 126.3 9.20044 119.7C17.7004 113.1 92.6004 66.1002 95.9004 64.2002C98.7004 62.7002 105.5 60.2002 107.1 60.2002C108.8 60.2002 115.6 62.7002 118.3 64.2002C121.6 66.0002 196.6 113.1 205 119.7C213.4 126.3 213.4 134.8 213.4 134.8H0.700439Z" fill="#D1D2D2"/>
<path opacity="0.7869" d="M0.700439 134.8C0.700439 134.8 0.700439 126.3 9.20044 119.7C17.7004 113.1 92.6004 66.1002 95.9004 64.2002C98.7004 62.7002 105.5 60.2002 107.1 60.2002C108.8 60.2002 115.6 62.7002 118.3 64.2002C121.6 66.0002 196.6 113.1 205 119.7C213.4 126.3 213.4 134.8 213.4 134.8H0.700439Z" fill="#D0D1D1"/>
<path opacity="0.8033" d="M0.700439 134.9C0.700439 134.9 0.700439 126.4 9.20044 119.8C17.7004 113.2 92.6004 66.1998 95.9004 64.2998C98.7004 62.7998 105.5 60.2998 107.1 60.2998C108.8 60.2998 115.6 62.7998 118.3 64.2998C121.6 66.0998 196.6 113.2 205 119.8C213.4 126.4 213.4 134.9 213.4 134.9H0.700439Z" fill="#CFD0D0"/>
<path opacity="0.8197" d="M0.800537 135C0.800537 135 0.800537 126.5 9.30054 119.9C17.8005 113.3 92.7005 66.3004 96.0005 64.4004C98.8005 62.9004 105.601 60.4004 107.201 60.4004C108.901 60.4004 115.701 62.9004 118.401 64.4004C121.701 66.2004 196.701 113.3 205.101 119.9C213.501 126.5 213.501 135 213.501 135H0.800537Z" fill="#CECFCF"/>
<path opacity="0.8361" d="M0.800537 135.1C0.800537 135.1 0.800537 126.6 9.30054 120C17.8005 113.4 92.7005 66.4 96.0005 64.5C98.8005 63 105.601 60.5 107.201 60.5C108.901 60.5 115.701 63 118.401 64.5C121.701 66.3 196.701 113.4 205.101 120C213.501 126.6 213.501 135.1 213.501 135.1H0.800537Z" fill="#CDCECE"/>
<path opacity="0.8525" d="M0.800537 135.1C0.800537 135.1 0.800537 126.6 9.30054 120C17.8005 113.4 92.7005 66.4 96.0005 64.5C98.8005 63 105.601 60.5 107.201 60.5C108.901 60.5 115.701 63 118.401 64.5C121.701 66.3 196.701 113.4 205.101 120C213.501 126.6 213.501 135.1 213.501 135.1H0.800537Z" fill="#CCCDCD"/>
<path opacity="0.8689" d="M0.800537 135.2C0.800537 135.2 0.800537 126.7 9.30054 120.1C17.8005 113.5 92.7005 66.4996 96.0005 64.5996C98.8005 63.0996 105.601 60.5996 107.201 60.5996C108.901 60.5996 115.701 63.0996 118.401 64.5996C121.701 66.3996 196.701 113.5 205.101 120.1C213.501 126.7 213.501 135.2 213.501 135.2H0.800537Z" fill="#CBCCCC"/>
<path opacity="0.8852" d="M0.800537 135.3C0.800537 135.3 0.800537 126.8 9.30054 120.2C17.8005 113.6 92.7005 66.6002 96.0005 64.7002C98.8005 63.2002 105.601 60.7002 107.201 60.7002C108.901 60.7002 115.701 63.2002 118.401 64.7002C121.701 66.5002 196.701 113.6 205.101 120.2C213.501 126.8 213.501 135.3 213.501 135.3H0.800537Z" fill="#CACBCB"/>
<path opacity="0.9016" d="M0.800537 135.4C0.800537 135.4 0.800537 126.9 9.30054 120.3C17.8005 113.7 92.7005 66.6998 96.0005 64.7998C98.8005 63.2998 105.601 60.7998 107.201 60.7998C108.901 60.7998 115.701 63.2998 118.401 64.7998C121.701 66.5998 196.701 113.7 205.101 120.3C213.501 126.9 213.501 135.4 213.501 135.4H0.800537Z" fill="#C9CACA"/>
<path opacity="0.918" d="M0.800537 135.4C0.800537 135.4 0.800537 126.9 9.30054 120.3C17.8005 113.7 92.7005 66.6998 96.0005 64.7998C98.8005 63.2998 105.601 60.7998 107.201 60.7998C108.901 60.7998 115.701 63.2998 118.401 64.7998C121.701 66.5998 196.701 113.7 205.101 120.3C213.501 126.9 213.501 135.4 213.501 135.4H0.800537Z" fill="#C8C9C9"/>
<path opacity="0.9344" d="M0.900391 135.5C0.900391 135.5 0.900391 127 9.40039 120.4C17.9004 113.8 92.8004 66.8004 96.1004 64.9004C98.9004 63.4004 105.7 60.9004 107.3 60.9004C109 60.9004 115.8 63.4004 118.5 64.9004C121.8 66.7004 196.8 113.8 205.2 120.4C213.6 127 213.6 135.5 213.6 135.5H0.900391Z" fill="#C7C8C8"/>
<path opacity="0.9508" d="M0.900391 135.6C0.900391 135.6 0.900391 127.1 9.40039 120.5C17.9004 113.9 92.8004 66.9 96.1004 65C98.9004 63.5 105.7 61 107.3 61C109 61 115.8 63.5 118.5 65C121.8 66.8 196.8 113.9 205.2 120.5C213.6 127.1 213.6 135.6 213.6 135.6H0.900391Z" fill="#C6C7C7"/>
<path opacity="0.9672" d="M0.900391 135.7C0.900391 135.7 0.900391 127.2 9.40039 120.6C17.9004 114 92.8004 66.9996 96.1004 65.0996C98.9004 63.5996 105.7 61.0996 107.3 61.0996C109 61.0996 115.8 63.5996 118.5 65.0996C121.8 66.8996 196.8 114 205.2 120.6C213.6 127.2 213.6 135.7 213.6 135.7H0.900391Z" fill="#C5C6C6"/>
<path opacity="0.9836" d="M0.900391 135.7C0.900391 135.7 0.900391 127.2 9.40039 120.6C17.9004 114 92.8004 66.9996 96.1004 65.0996C98.9004 63.5996 105.7 61.0996 107.3 61.0996C109 61.0996 115.8 63.5996 118.5 65.0996C121.8 66.8996 196.8 114 205.2 120.6C213.6 127.2 213.6 135.7 213.6 135.7H0.900391Z" fill="#C4C5C5"/>
<path d="M0.900391 135.8C0.900391 135.8 0.900391 127.3 9.40039 120.7C17.9004 114.1 92.8004 67.1002 96.1004 65.2002C98.9004 63.7002 105.7 61.2002 107.3 61.2002C109 61.2002 115.8 63.7002 118.5 65.2002C121.8 67.0002 196.8 114.1 205.2 120.7C213.6 127.3 213.6 135.8 213.6 135.8H0.900391Z" fill="#B0B0B0"/>
<path d="M0.900391 135.8C0.900391 135.8 0.900391 127.3 9.40039 120.7C17.9004 114.1 92.8004 67.1002 96.1004 65.2002C98.9004 63.7002 103.7 61.2002 107.3 61.2002C110.9 61.2002 115.8 63.7002 118.5 65.2002C121.8 67.0002 196.8 114.1 205.2 120.7C213.6 127.3 213.6 135.8 213.6 135.8H0.900391Z" fill="url(#paint1_linear)"/>
<path opacity="0.0163934" d="M214.101 4.5C214.101 4.5 214.101 19 205.601 26.2C197.101 33.4 122.201 80.8 118.901 82.8C116.101 84.5 109.301 87.2 107.701 87.2C106.001 87.2 99.2005 84.5 96.5005 82.8C93.2005 80.8 18.2005 33.4 9.80054 26.2C1.30054 19 1.30054 4.5 1.30054 4.5H214.101Z" fill="#FEFEFE"/>
<path opacity="0.0327869" d="M214.101 4.40039C214.101 4.40039 214.101 18.8004 205.601 26.0004C197.101 33.2004 122.201 80.6004 118.901 82.6004C116.101 84.3004 109.301 86.9004 107.701 86.9004C106.001 86.9004 99.2005 84.2004 96.5005 82.6004C93.2005 80.6004 18.2005 33.2004 9.80054 26.0004C1.30054 18.8004 1.30054 4.40039 1.30054 4.40039H214.101Z" fill="#FDFDFD"/>
<path opacity="0.0491803" d="M214.101 4.40039C214.101 4.40039 214.101 18.7004 205.601 25.9004C197.101 33.1004 122.201 80.5004 118.901 82.5004C116.101 84.2004 109.301 86.8004 107.701 86.8004C106.001 86.8004 99.2005 84.1004 96.5005 82.5004C93.2005 80.5004 18.2005 33.1004 9.80054 25.9004C1.30054 18.7004 1.30054 4.40039 1.30054 4.40039H214.101Z" fill="#FCFCFC"/>
<path opacity="0.0655738" d="M214.101 4.2998C214.101 4.2998 214.101 18.4998 205.601 25.6998C197.101 32.7998 122.201 80.2998 118.901 82.2998C116.101 83.9998 109.301 86.5998 107.701 86.5998C106.001 86.5998 99.2005 83.8998 96.5005 82.2998C93.2005 80.2998 18.2005 32.8998 9.80054 25.6998C1.30054 18.4998 1.30054 4.2998 1.30054 4.2998H214.101Z" fill="#FBFBFB"/>
<path opacity="0.0819672" d="M214 4.2002C214 4.2002 214 18.3002 205.5 25.5002C197 32.6002 122.1 80.1002 118.8 82.0002C116 83.7002 109.2 86.3002 107.6 86.3002C105.9 86.3002 99.1004 83.6002 96.4004 82.0002C93.1004 80.0002 18.1004 32.6002 9.70044 25.5002C1.20044 18.4002 1.20044 4.2002 1.20044 4.2002H214Z" fill="#FAFAFA"/>
<path opacity="0.0983607" d="M214 4.09961C214 4.09961 214 18.0996 205.5 25.2996C197 32.3996 122.1 79.7996 118.8 81.7996C116 83.3996 109.2 86.0996 107.6 86.0996C105.9 86.0996 99.1004 83.3996 96.4004 81.7996C93.1004 79.7996 18.1004 32.3996 9.70044 25.2996C1.20044 18.1996 1.20044 4.09961 1.20044 4.09961H214Z" fill="#F9F9F9"/>
<path opacity="0.1148" d="M214 4.09961C214 4.09961 214 17.9996 205.5 25.1996C197 32.2996 122.1 79.6996 118.8 81.6996C116 83.2996 109.2 85.9996 107.6 85.9996C105.9 85.9996 99.1004 83.2996 96.4004 81.6996C93.1004 79.6996 18.1004 32.2996 9.70044 25.1996C1.20044 18.0996 1.20044 4.09961 1.20044 4.09961H214Z" fill="#F8F8F8"/>
<path opacity="0.1311" d="M214 4C214 4 214 17.8 205.5 24.9C197 32 122.1 79.4 118.8 81.4C116 83 109.2 85.7 107.6 85.7C105.9 85.7 99.1004 83 96.4004 81.4C93.1004 79.4 18.1004 32 9.70044 24.9C1.20044 17.8 1.20044 4 1.20044 4H214Z" fill="#F7F7F7"/>
<path opacity="0.1475" d="M214 3.90039C214 3.90039 214 17.6004 205.5 24.7004C197 31.8004 122.1 79.2004 118.8 81.2004C116 82.8004 109.2 85.5004 107.6 85.5004C105.9 85.5004 99.1004 82.8004 96.4004 81.2004C93.1004 79.2004 18.1004 31.8004 9.70044 24.7004C1.20044 17.6004 1.20044 3.90039 1.20044 3.90039H214Z" fill="#F6F6F6"/>
<path opacity="0.1639" d="M214 3.7998C214 3.7998 214 17.3998 205.5 24.4998C197 31.5998 122.1 78.9998 118.8 80.8998C116 82.4998 109.2 85.1998 107.6 85.1998C105.9 85.1998 99.1004 82.4998 96.4004 80.8998C93.1004 78.8998 18.1004 31.4998 9.70044 24.4998C1.20044 17.3998 1.20044 3.7998 1.20044 3.7998H214Z" fill="#F5F5F5"/>
<path opacity="0.1803" d="M214 3.7998C214 3.7998 214 17.2998 205.5 24.3998C197 31.4998 122.1 78.8998 118.8 80.7998C116 82.3998 109.2 85.0998 107.6 85.0998C105.9 85.0998 99.1004 82.3998 96.4004 80.7998C93.1004 78.7998 18.1004 31.4998 9.70044 24.3998C1.20044 17.2998 1.20044 3.7998 1.20044 3.7998H214Z" fill="#F4F4F4"/>
<path opacity="0.1967" d="M213.901 3.7002C213.901 3.7002 213.901 17.1002 205.401 24.2002C196.901 31.3002 122.001 78.6002 118.701 80.6002C115.901 82.2002 109.101 84.9002 107.501 84.9002C105.801 84.9002 99.0006 82.2002 96.3006 80.6002C93.0006 78.6002 18.0006 31.3002 9.60059 24.2002C1.10059 17.1002 1.10059 3.7002 1.10059 3.7002H213.901Z" fill="#F3F3F3"/>
<path opacity="0.2131" d="M213.901 3.59961C213.901 3.59961 213.901 16.8996 205.401 23.9996C196.901 31.0996 122.001 78.3996 118.701 80.3996C115.901 81.9996 109.101 84.6996 107.501 84.6996C105.801 84.6996 99.0006 81.9996 96.3006 80.3996C93.0006 78.3996 18.0006 31.0996 9.60059 23.9996C1.10059 16.8996 1.10059 3.59961 1.10059 3.59961H213.901Z" fill="#F2F2F3"/>
<path opacity="0.2295" d="M213.901 3.5C213.901 3.5 213.901 16.7 205.401 23.8C196.901 30.9 122.001 78.2 118.701 80.2C115.901 81.8 109.101 84.5 107.501 84.5C105.801 84.5 99.0006 81.8 96.3006 80.2C93.0006 78.2 18.0006 30.9 9.60059 23.8C1.10059 16.7 1.10059 3.5 1.10059 3.5H213.901Z" fill="#F1F1F2"/>
<path opacity="0.2459" d="M213.901 3.5C213.901 3.5 213.901 16.6 205.401 23.7C196.901 30.7 122.001 78.1 118.701 80.1C115.901 81.7 109.101 84.4 107.501 84.4C105.801 84.4 99.0006 81.8 96.3006 80.1C93.0006 78.1 18.0006 30.8 9.60059 23.7C1.10059 16.7 1.10059 3.5 1.10059 3.5H213.901Z" fill="#F0F0F1"/>
<path opacity="0.2623" d="M213.901 3.40039C213.901 3.40039 213.901 16.4004 205.401 23.5004C196.901 30.5004 122.001 77.9004 118.701 79.8004C115.901 81.4004 109.101 84.1004 107.501 84.1004C105.801 84.1004 99.0006 81.5004 96.3006 79.8004C93.0006 77.8004 18.0006 30.5004 9.60059 23.5004C1.10059 16.5004 1.10059 3.40039 1.10059 3.40039H213.901Z" fill="#EFF0F0"/>
<path opacity="0.2787" d="M213.901 3.2998C213.901 3.2998 213.901 16.1998 205.401 23.1998C196.901 30.1998 122.001 77.5998 118.701 79.4998C115.901 81.0998 109.101 83.7998 107.501 83.7998C105.801 83.7998 99.0006 81.1998 96.3006 79.4998C93.0006 77.4998 18.0006 30.1998 9.60059 23.1998C1.10059 16.1998 1.10059 3.2998 1.10059 3.2998H213.901Z" fill="#EEEFEF"/>
<path opacity="0.2951" d="M213.8 3.2002C213.8 3.2002 213.8 16.0002 205.3 23.0002C196.8 30.0002 121.9 77.3002 118.6 79.3002C115.8 80.9002 109 83.6002 107.4 83.6002C105.701 83.6002 98.9005 81.0002 96.2005 79.3002C92.9005 77.4002 17.9005 30.0002 9.50049 23.0002C1.00049 16.0002 1.00049 3.2002 1.00049 3.2002H213.8Z" fill="#EDEEEE"/>
<path opacity="0.3115" d="M213.8 3.2002C213.8 3.2002 213.8 15.9002 205.3 22.9002C196.8 29.9002 121.9 77.2002 118.6 79.2002C115.8 80.8002 109 83.5002 107.4 83.5002C105.701 83.5002 98.9005 80.9002 96.2005 79.2002C92.9005 77.3002 17.9005 29.9002 9.50049 22.9002C1.00049 15.9002 1.00049 3.2002 1.00049 3.2002H213.8Z" fill="#ECEDED"/>
<path opacity="0.3279" d="M213.8 3.09961C213.8 3.09961 213.8 15.6996 205.3 22.6996C196.8 29.6996 121.9 76.9996 118.6 78.9996C115.8 80.5996 109 83.1996 107.4 83.1996C105.701 83.1996 98.9005 80.5996 96.2005 78.9996C92.9005 77.0996 17.9005 29.6996 9.50049 22.6996C1.00049 15.6996 1.00049 3.09961 1.00049 3.09961H213.8Z" fill="#EBECEC"/>
<path opacity="0.3443" d="M213.8 3C213.8 3 213.8 15.5 205.3 22.5C196.8 29.5 121.9 76.8 118.6 78.7C115.8 80.3 109 82.9 107.4 82.9C105.701 82.9 98.9005 80.3 96.2005 78.7C92.9005 76.8 17.9005 29.4 9.50049 22.5C1.00049 15.5 1.00049 3 1.00049 3H213.8Z" fill="#EAEBEB"/>
<path opacity="0.3607" d="M213.8 2.90039C213.8 2.90039 213.8 15.3004 205.3 22.3004C196.8 29.3004 121.9 76.6004 118.6 78.5004C115.8 80.1004 109 82.7004 107.4 82.7004C105.701 82.7004 98.9005 80.1004 96.2005 78.5004C92.9005 76.6004 17.9005 29.3004 9.50049 22.3004C1.00049 15.3004 1.00049 2.90039 1.00049 2.90039H213.8Z" fill="#E9EAEA"/>
<path opacity="0.377" d="M213.8 2.90039C213.8 2.90039 213.8 15.2004 205.3 22.2004C196.8 29.2004 121.9 76.5004 118.6 78.4004C115.8 80.0004 109 82.6004 107.4 82.6004C105.701 82.6004 98.9005 80.0004 96.2005 78.4004C92.9005 76.5004 17.9005 29.2004 9.50049 22.2004C1.00049 15.2004 1.00049 2.90039 1.00049 2.90039H213.8Z" fill="#E9E9E9"/>
<path opacity="0.3934" d="M213.8 2.7998C213.8 2.7998 213.8 14.9998 205.3 21.9998C196.8 28.9998 121.9 76.2998 118.6 78.1998C115.8 79.7998 109 82.3998 107.4 82.3998C105.701 82.3998 98.9005 79.7998 96.2005 78.1998C92.9005 76.2998 17.9005 28.9998 9.50049 21.9998C1.00049 14.9998 1.00049 2.7998 1.00049 2.7998H213.8Z" fill="#E8E8E8"/>
<path opacity="0.4098" d="M213.7 2.7002C213.7 2.7002 213.7 14.8002 205.2 21.8002C196.7 28.8002 121.8 76.0002 118.5 78.0002C115.7 79.6002 108.9 82.2002 107.3 82.2002C105.6 82.2002 98.8004 79.6002 96.1004 78.0002C92.8004 76.1002 17.8004 28.8002 9.40039 21.8002C0.900391 14.8002 0.900391 2.7002 0.900391 2.7002H213.7Z" fill="#E7E7E7"/>
<path opacity="0.4262" d="M213.7 2.59961C213.7 2.59961 213.7 14.5996 205.2 21.4996C196.7 28.3996 121.8 75.6996 118.5 77.5996C115.7 79.1996 108.9 81.7996 107.3 81.7996C105.6 81.7996 98.8004 79.1996 96.1004 77.5996C92.8004 75.6996 17.8004 28.3996 9.40039 21.4996C0.900391 14.5996 0.900391 2.59961 0.900391 2.59961H213.7Z" fill="#E6E6E6"/>
<path opacity="0.4426" d="M213.7 2.59961C213.7 2.59961 213.7 14.4996 205.2 21.3996C196.7 28.2996 121.8 75.5996 118.5 77.4996C115.7 79.0996 108.9 81.6996 107.3 81.6996C105.6 81.6996 98.8004 79.0996 96.1004 77.4996C92.8004 75.5996 17.9004 28.2996 9.40039 21.3996C0.900391 14.4996 0.900391 2.59961 0.900391 2.59961H213.7Z" fill="#E5E5E5"/>
<path opacity="0.459" d="M213.7 2.5C213.7 2.5 213.7 14.3 205.2 21.2C196.7 28.1 121.8 75.4 118.5 77.3C115.7 78.9 108.9 81.5 107.3 81.5C105.6 81.5 98.8004 78.9 96.1004 77.3C92.8004 75.4 17.8004 28.1 9.40039 21.2C0.900391 14.3 0.900391 2.5 0.900391 2.5H213.7Z" fill="#E4E4E4"/>
<path opacity="0.4754" d="M213.7 2.40039C213.7 2.40039 213.7 14.1004 205.2 21.0004C196.7 27.9004 121.8 75.2004 118.5 77.1004C115.7 78.7004 108.9 81.3004 107.3 81.3004C105.6 81.3004 98.8004 78.7004 96.1004 77.1004C92.8004 75.2004 17.8004 27.9004 9.40039 21.0004C0.900391 14.1004 0.900391 2.40039 0.900391 2.40039H213.7Z" fill="#E3E3E3"/>
<path opacity="0.4918" d="M213.7 2.2998C213.7 2.2998 213.7 13.8998 205.2 20.7998C196.7 27.6998 121.8 74.9998 118.5 76.8998C115.7 78.4998 108.9 81.0998 107.3 81.0998C105.6 81.0998 98.8004 78.4998 96.1004 76.8998C92.8004 74.9998 17.8004 27.6998 9.40039 20.7998C0.900391 13.8998 0.900391 2.2998 0.900391 2.2998H213.7Z" fill="#E2E2E2"/>
<path opacity="0.5082" d="M213.7 2.2998C213.7 2.2998 213.7 13.7998 205.2 20.6998C196.7 27.5998 121.8 74.7998 118.5 76.7998C115.7 78.3998 108.9 80.9998 107.3 80.9998C105.6 80.9998 98.8004 78.3998 96.1004 76.7998C92.8004 74.7998 17.8004 27.4998 9.40039 20.6998C0.900391 13.7998 0.900391 2.2998 0.900391 2.2998H213.7Z" fill="#E1E1E1"/>
<path opacity="0.5246" d="M213.601 2.2002C213.601 2.2002 213.601 13.6002 205.101 20.5002C196.601 27.4002 121.701 74.6002 118.401 76.5002C115.601 78.1002 108.801 80.7002 107.201 80.7002C105.501 80.7002 98.7005 78.1002 96.0005 76.5002C92.7005 74.6002 17.7005 27.4002 9.30054 20.5002C0.800537 13.6002 0.800537 2.2002 0.800537 2.2002H213.601Z" fill="#E0E0E0"/>
<path opacity="0.541" d="M213.601 2.09961C213.601 2.09961 213.601 13.3996 205.101 20.2996C196.601 27.1996 121.701 74.3996 118.401 76.2996C115.601 77.8996 108.801 80.4996 107.201 80.4996C105.501 80.4996 98.7005 77.8996 96.0005 76.2996C92.7005 74.3996 17.7005 27.1996 9.30054 20.2996C0.800537 13.3996 0.800537 2.09961 0.800537 2.09961H213.601Z" fill="#DFDFDF"/>
<path opacity="0.5574" d="M213.601 2C213.601 2 213.601 13.2 205.101 20.1C196.601 27 121.701 74.2 118.401 76.1C115.601 77.7 108.801 80.3 107.201 80.3C105.501 80.3 98.7005 77.7 96.0005 76.1C92.7005 74.2 17.7005 27 9.30054 20.1C0.800537 13.2 0.800537 2 0.800537 2H213.601Z" fill="#DEDEDE"/>
<path opacity="0.5738" d="M213.601 2C213.601 2 213.601 13.1 205.101 19.9C196.601 26.8 121.701 74 118.401 75.9C115.601 77.5 108.801 80.1 107.201 80.1C105.501 80.1 98.7005 77.5 96.0005 75.9C92.7005 74 17.7005 26.8 9.30054 19.9C0.800537 13 0.800537 2 0.800537 2H213.601Z" fill="#DDDDDD"/>
<path opacity="0.5902" d="M213.601 1.90039C213.601 1.90039 213.601 12.9004 205.101 19.7004C196.601 26.5004 121.701 73.8004 118.401 75.7004C115.601 77.3004 108.801 79.9004 107.201 79.9004C105.501 79.9004 98.7005 77.3004 96.0005 75.7004C92.7005 73.8004 17.7005 26.6004 9.30054 19.7004C0.800537 12.9004 0.800537 1.90039 0.800537 1.90039H213.601Z" fill="#DCDCDC"/>
<path opacity="0.6066" d="M213.601 1.7998C213.601 1.7998 213.601 12.6998 205.101 19.4998C196.601 26.2998 121.701 73.4998 118.401 75.3998C115.601 76.9998 108.801 79.5998 107.201 79.5998C105.501 79.5998 98.7005 76.9998 96.0005 75.3998C92.7005 73.4998 17.7005 26.2998 9.30054 19.4998C0.800537 12.6998 0.800537 1.7998 0.800537 1.7998H213.601Z" fill="#DBDBDB"/>
<path opacity="0.623" d="M213.501 1.7002C213.501 1.7002 213.501 12.5002 205.001 19.3002C196.501 26.1002 121.601 73.3002 118.301 75.2002C115.501 76.8002 108.701 79.3002 107.101 79.3002C105.401 79.3002 98.6005 76.7002 95.9005 75.2002C92.6005 73.3002 17.6005 26.1002 9.20054 19.3002C0.800539 12.5002 0.800537 1.7002 0.800537 1.7002H213.501Z" fill="#DADADA"/>
<path opacity="0.6393" d="M213.501 1.7002C213.501 1.7002 213.501 12.4002 205.001 19.2002C196.501 26.0002 121.601 73.2002 118.301 75.1002C115.501 76.7002 108.701 79.2002 107.101 79.2002C105.401 79.2002 98.6005 76.6002 95.9005 75.1002C92.6005 73.2002 17.6005 26.0002 9.20054 19.2002C0.800539 12.3002 0.800537 1.7002 0.800537 1.7002H213.501Z" fill="#D9D9DA"/>
<path opacity="0.6557" d="M213.501 1.59961C213.501 1.59961 213.501 12.1996 205.001 18.9996C196.501 25.7996 121.601 72.9996 118.301 74.8996C115.501 76.4996 108.701 78.9996 107.101 78.9996C105.401 78.9996 98.6005 76.3996 95.9005 74.8996C92.6005 72.9996 17.6005 25.7996 9.20054 18.9996C0.800539 12.1996 0.800537 1.59961 0.800537 1.59961H213.501Z" fill="#D8D8D9"/>
<path opacity="0.6721" d="M213.501 1.5C213.501 1.5 213.501 12 205.001 18.8C196.501 25.6 121.601 72.8 118.301 74.7C115.501 76.3 108.701 78.8 107.101 78.8C105.401 78.8 98.6005 76.2 95.9005 74.7C92.6005 72.8 17.6005 25.6 9.20054 18.8C0.800539 12 0.800537 1.5 0.800537 1.5H213.501Z" fill="#D7D7D8"/>
<path opacity="0.6885" d="M213.5 1.40039C213.5 1.40039 213.5 11.8004 205 18.6004C196.5 25.4004 121.6 72.6004 118.3 74.4004C115.5 76.0004 108.7 78.5004 107.1 78.5004C105.4 78.5004 98.6004 75.9004 95.9004 74.4004C92.6004 72.5004 17.6004 25.3004 9.20044 18.6004C0.700439 11.8004 0.700439 1.40039 0.700439 1.40039H213.5Z" fill="#D6D6D7"/>
<path opacity="0.7049" d="M213.5 1.40039C213.5 1.40039 213.5 11.7004 205 18.5004C196.5 25.3004 121.6 72.4004 118.3 74.3004C115.5 75.9004 108.7 78.4004 107.1 78.4004C105.4 78.4004 98.6004 75.9004 95.9004 74.3004C92.6004 72.4004 17.6004 25.3004 9.20044 18.5004C0.700439 11.7004 0.700439 1.40039 0.700439 1.40039H213.5Z" fill="#D5D5D6"/>
<path opacity="0.7213" d="M213.5 1.2998C213.5 1.2998 213.5 11.4998 205 18.2998C196.5 25.0998 121.6 72.1998 118.3 74.0998C115.5 75.6998 108.7 78.1998 107.1 78.1998C105.4 78.1998 98.6004 75.6998 95.9004 74.0998C92.6004 72.1998 17.6004 25.0998 9.20044 18.2998C0.700439 11.4998 0.700439 1.2998 0.700439 1.2998H213.5Z" fill="#D4D4D5"/>
<path opacity="0.7377" d="M213.401 1.2002C213.401 1.2002 213.401 11.3002 204.901 18.0002C196.401 24.8002 121.501 71.9002 118.201 73.8002C115.401 75.4002 108.601 77.9002 107.001 77.9002C105.301 77.9002 98.5006 75.4002 95.8006 73.8002C92.5006 71.9002 17.5006 24.8002 9.10059 18.0002C0.600586 11.2002 0.600586 1.2002 0.600586 1.2002H213.401Z" fill="#D3D3D4"/>
<path opacity="0.7541" d="M213.401 1.09961C213.401 1.09961 213.401 11.0996 204.901 17.7996C196.401 24.5996 121.501 71.6996 118.201 73.5996C115.401 75.1996 108.601 77.6996 107.001 77.6996C105.301 77.6996 98.5006 75.1996 95.8006 73.5996C92.5006 71.6996 17.5006 24.5996 9.10059 17.7996C0.600586 10.9996 0.600586 1.09961 0.600586 1.09961H213.401Z" fill="#D2D2D3"/>
<path opacity="0.7705" d="M213.401 1.09961C213.401 1.09961 213.401 10.9996 204.901 17.6996C196.401 24.3996 121.501 71.5996 118.201 73.3996C115.401 74.9996 108.601 77.4996 107.001 77.4996C105.301 77.4996 98.5006 74.9996 95.8006 73.3996C92.5006 71.4996 17.5006 24.3996 9.10059 17.6996C0.600586 10.9996 0.600586 1.09961 0.600586 1.09961H213.401Z" fill="#D1D2D2"/>
<path opacity="0.7869" d="M213.401 1C213.401 1 213.401 10.8 204.901 17.5C196.401 24.2 121.501 71.4 118.201 73.2C115.401 74.8 108.601 77.3 107.001 77.3C105.301 77.3 98.5006 74.8 95.8006 73.2C92.5006 71.3 17.5006 24.2 9.10059 17.5C0.600586 10.8 0.600586 1 0.600586 1H213.401Z" fill="#D0D1D1"/>
<path opacity="0.8033" d="M213.401 0.900391C213.401 0.900391 213.401 10.6004 204.901 17.3004C196.401 24.0004 121.501 71.1004 118.201 73.0004C115.401 74.6004 108.601 77.1004 107.001 77.1004C105.301 77.1004 98.5006 74.6004 95.8006 73.0004C92.5006 71.1004 17.5006 24.0004 9.10059 17.3004C0.600586 10.6004 0.600586 0.900391 0.600586 0.900391H213.401Z" fill="#CFD0D0"/>
<path opacity="0.8197" d="M213.401 0.799805C213.401 0.799805 213.401 10.3998 204.901 17.0998C196.401 23.7998 121.501 70.8998 118.201 72.7998C115.401 74.3998 108.601 76.8998 107.001 76.8998C105.301 76.8998 98.5006 74.3998 95.8006 72.7998C92.5006 70.8998 17.5006 23.7998 9.10059 17.0998C0.600586 10.3998 0.600586 0.799805 0.600586 0.799805H213.401Z" fill="#CECFCF"/>
<path opacity="0.8361" d="M213.401 0.799805C213.401 0.799805 213.401 10.2998 204.901 16.9998C196.401 23.6998 121.501 70.7998 118.201 72.6998C115.401 74.2998 108.601 76.7998 107.001 76.7998C105.301 76.7998 98.5006 74.2998 95.8006 72.6998C92.5006 70.7998 17.5006 23.6998 9.10059 16.9998C0.600586 10.2998 0.600586 0.799805 0.600586 0.799805H213.401Z" fill="#CDCECE"/>
<path opacity="0.8525" d="M213.3 0.700195C213.3 0.700195 213.3 10.1002 204.8 16.8002C196.3 23.5002 121.4 70.6002 118.1 72.5002C115.3 74.0002 108.5 76.6002 106.9 76.6002C105.201 76.6002 98.4005 74.1002 95.7005 72.5002C92.4005 70.6002 17.4005 23.5002 9.00049 16.8002C0.500488 10.1002 0.500488 0.700195 0.500488 0.700195H213.3Z" fill="#CCCDCD"/>
<path opacity="0.8689" d="M213.3 0.599609C213.3 0.599609 213.3 9.89961 204.8 16.5996C196.3 23.2996 121.4 70.3996 118.1 72.1996C115.3 73.6996 108.5 76.2996 106.9 76.2996C105.201 76.2996 98.4005 73.7996 95.7005 72.1996C92.4005 70.2996 17.5005 23.2996 9.00049 16.5996C0.500488 9.89961 0.500488 0.599609 0.500488 0.599609H213.3Z" fill="#CBCCCC"/>
<path opacity="0.8852" d="M213.3 0.5C213.3 0.5 213.3 9.7 204.8 16.3C196.3 23 121.4 70.1 118.1 71.9C115.3 73.4 108.5 76 106.9 76C105.201 76 98.4005 73.5 95.7005 71.9C92.4005 70 17.4005 23 9.00049 16.3C0.500488 9.6 0.500488 0.5 0.500488 0.5H213.3Z" fill="#CACBCB"/>
<path opacity="0.9016" d="M213.3 0.5C213.3 0.5 213.3 9.6 204.8 16.2C196.3 22.9 121.4 69.9 118.1 71.8C115.3 73.3 108.5 75.8 106.9 75.8C105.201 75.8 98.4005 73.3 95.7005 71.8C92.4005 69.9 17.4005 22.9 9.00049 16.2C0.500488 9.5 0.500488 0.5 0.500488 0.5H213.3Z" fill="#C9CACA"/>
<path opacity="0.918" d="M213.3 0.400391C213.3 0.400391 213.3 9.40039 204.8 16.0004C196.3 22.7004 121.4 69.7004 118.1 71.6004C115.3 73.1004 108.5 75.6004 106.9 75.6004C105.201 75.6004 98.4005 73.1004 95.7005 71.6004C92.4005 69.8004 17.4005 22.7004 9.00049 16.0004C0.500488 9.30039 0.500488 0.400391 0.500488 0.400391H213.3Z" fill="#C8C9C9"/>
<path opacity="0.9344" d="M213.3 0.299805C213.3 0.299805 213.3 9.1998 204.8 15.7998C196.3 22.4998 121.4 69.4998 118.1 71.3998C115.3 72.8998 108.5 75.3998 106.9 75.3998C105.201 75.3998 98.4005 72.8998 95.7005 71.3998C92.4005 69.5998 17.4005 22.4998 9.00049 15.7998C0.500488 9.1998 0.500488 0.299805 0.500488 0.299805H213.3Z" fill="#C7C8C8"/>
<path opacity="0.9508" d="M213.2 0.200195C213.2 0.200195 213.2 9.00019 204.7 15.6002C196.2 22.2002 121.3 69.3002 118 71.1002C115.2 72.6002 108.4 75.1002 106.8 75.1002C105.1 75.1002 98.3005 72.6002 95.6005 71.1002C92.4005 69.3002 17.4005 22.3002 9.00049 15.6002C0.500488 9.00019 0.500488 0.200195 0.500488 0.200195H213.2Z" fill="#C6C7C7"/>
<path opacity="0.9672" d="M213.2 0.200195C213.2 0.200195 213.2 8.90019 204.7 15.5002C196.2 22.1002 121.3 69.2002 118 71.0002C115.2 72.5002 108.4 75.0002 106.8 75.0002C105.1 75.0002 98.3004 72.5002 95.6004 71.0002C92.3004 69.2002 17.3004 22.1002 8.90039 15.5002C0.400391 8.90019 0.400391 0.200195 0.400391 0.200195H213.2Z" fill="#C5C6C6"/>
<path opacity="0.9836" d="M213.2 0.0996094C213.2 0.0996094 213.2 8.69961 204.7 15.2996C196.2 21.8996 121.3 68.9996 118 70.7996C115.2 72.2996 108.4 74.7996 106.8 74.7996C105.1 74.7996 98.3004 72.2996 95.6004 70.7996C92.3004 68.9996 17.3004 21.8996 8.90039 15.2996C0.400391 8.69961 0.400391 0.0996094 0.400391 0.0996094H213.2Z" fill="#C4C5C5"/>
<path d="M213.2 0C213.2 0 213.2 8.5 204.7 15.1C196.2 21.7 121.3 68.7 118 70.6C115.2 72.1 108.4 74.6 106.8 74.6C105.1 74.6 98.3004 72.1 95.6004 70.6C92.3004 68.8 17.3004 21.7 8.90039 15.1C0.400391 8.5 0.400391 0 0.400391 0H213.2Z" fill="#B0B0B0"/>
<path d="M213.2 0C213.2 0 213.2 8.5 204.7 15.1C196.2 21.7 121.3 68.7 118 70.6C115.2 72.1 110.4 74.6 106.8 74.6C103.2 74.6 98.3004 72.1 95.6004 70.6C92.3004 68.8 17.3004 21.7 8.90039 15.1C0.400391 8.5 0.400391 0 0.400391 0H213.2Z" fill="url(#paint2_linear)"/>
<circle cx="105.5" cy="71.5" r="49.5" fill="#FFD34F"/>
<path d="M72.084 98L90.4678 56.5083H67.2866V44.5332H105.922V53.0659L87.062 98H72.084ZM128.942 62.917C132.018 62.917 134.789 63.6372 137.255 65.0776C139.745 66.4937 141.674 68.5078 143.041 71.1201C144.433 73.7324 145.128 76.7476 145.128 80.1655C145.128 86.147 143.322 90.7368 139.708 93.9351C136.12 97.1333 130.675 98.7324 123.375 98.7324C117.125 98.7324 112.023 97.7681 108.068 95.8394V83.9741C110.192 84.9507 112.584 85.7563 115.246 86.3911C117.931 87.0259 120.238 87.3433 122.167 87.3433C124.853 87.3433 126.916 86.7817 128.356 85.6587C129.796 84.5112 130.517 82.8267 130.517 80.605C130.517 78.5542 129.784 76.9551 128.319 75.8076C126.854 74.6602 124.633 74.0864 121.654 74.0864C119.384 74.0864 116.93 74.5137 114.293 75.3682L108.983 72.7314L110.998 44.46H141.54V56.5083H123.302L122.643 63.5762C124.547 63.21 125.902 63.0146 126.708 62.9902C127.514 62.9414 128.258 62.917 128.942 62.917Z" fill="url(#paint3_linear)"/>
<defs>
<linearGradient id="paint0_linear" x1="106.834" y1="0.0203" x2="106.834" y2="135.813" gradientUnits="userSpaceOnUse">
<stop stop-color="#D5D5D0"/>
<stop offset="0.1161" stop-color="#E0E0DA"/>
<stop offset="0.3441" stop-color="#EFEFE7"/>
<stop offset="0.6097" stop-color="#F8F8EF"/>
<stop offset="1" stop-color="#FBFBF1"/>
</linearGradient>
<linearGradient id="paint1_linear" x1="107.289" y1="-58.6198" x2="107.289" y2="135.813" gradientUnits="userSpaceOnUse">
<stop stop-color="#D5D5D0"/>
<stop offset="0.1161" stop-color="#E0E0DA"/>
<stop offset="0.3441" stop-color="#EFEFE7"/>
<stop offset="0.6097" stop-color="#F8F8EF"/>
<stop offset="1" stop-color="#FBFBF1"/>
</linearGradient>
<linearGradient id="paint2_linear" x1="106.834" y1="194.454" x2="106.834" y2="0.0209994" gradientUnits="userSpaceOnUse">
<stop stop-color="#D5D5D0"/>
<stop offset="0.1161" stop-color="#E0E0DA"/>
<stop offset="0.3441" stop-color="#EFEFE7"/>
<stop offset="0.6097" stop-color="#F8F8EF"/>
<stop offset="1" stop-color="#FBFBF1"/>
</linearGradient>
<linearGradient id="paint3_linear" x1="100.949" y1="3.57429" x2="102.418" y2="134.415" gradientUnits="userSpaceOnUse">
<stop stop-color="#D91B24"/>
<stop offset="1" stop-color="#393C5A"/>
</linearGradient>
</defs>
</svg>
