<svg width="215" height="136" viewBox="0 0 215 136" fill="none" xmlns="http://www.w3.org/2000/svg">
<path d="M214 0H1.30029V135.8H214V0Z" fill="url(#paint0_linear)"/>
<path opacity="0.0163934" d="M0.800293 131.3C0.800293 131.3 0.800293 122.8 9.30029 116.2C17.8003 109.6 92.7003 62.6002 96.0003 60.7002C98.8003 59.2002 105.6 56.7002 107.2 56.7002C108.9 56.7002 115.7 59.2002 118.4 60.7002C121.7 62.5002 196.7 109.6 205.1 116.2C213.6 122.8 213.6 131.3 213.6 131.3H0.800293Z" fill="#FEFEFE"/>
<path opacity="0.0327869" d="M0.800293 131.4C0.800293 131.4 0.800293 122.9 9.30029 116.3C17.8003 109.7 92.7003 62.6998 96.0003 60.7998C98.8003 59.2998 105.6 56.7998 107.2 56.7998C108.9 56.7998 115.7 59.2998 118.4 60.7998C121.7 62.5998 196.7 109.7 205.1 116.3C213.6 122.9 213.6 131.4 213.6 131.4H0.800293Z" fill="#FDFDFD"/>
<path opacity="0.0491803" d="M0.900391 131.5C0.900391 131.5 0.900391 123 9.40039 116.4C17.9004 109.8 92.8004 62.8004 96.1004 60.9004C98.9004 59.4004 105.7 56.9004 107.3 56.9004C109 56.9004 115.8 59.4004 118.5 60.9004C121.8 62.7004 196.8 109.8 205.2 116.4C213.7 123 213.7 131.5 213.7 131.5H0.900391Z" fill="#FCFCFC"/>
<path opacity="0.0655738" d="M0.900391 131.6C0.900391 131.6 0.900391 123.1 9.40039 116.5C17.9004 109.9 92.8004 62.9 96.1004 61C98.9004 59.5 105.7 57 107.3 57C109 57 115.8 59.5 118.5 61C121.8 62.8 196.8 109.9 205.2 116.5C213.7 123.1 213.7 131.6 213.7 131.6H0.900391Z" fill="#FBFBFB"/>
<path opacity="0.0819672" d="M0.900391 131.6C0.900391 131.6 0.900391 123.1 9.40039 116.5C17.9004 109.9 92.8004 62.9 96.1004 61C98.9004 59.5 105.7 57 107.3 57C109 57 115.8 59.5 118.5 61C121.8 62.8 196.8 109.9 205.2 116.5C213.7 123.1 213.7 131.6 213.7 131.6H0.900391Z" fill="#FAFAFA"/>
<path opacity="0.0983607" d="M0.900391 131.7C0.900391 131.7 0.900391 123.2 9.40039 116.6C17.9004 110 92.8004 62.9996 96.1004 61.0996C98.9004 59.5996 105.7 57.0996 107.3 57.0996C109 57.0996 115.8 59.5996 118.5 61.0996C121.8 62.8996 196.8 110 205.2 116.6C213.7 123.2 213.7 131.7 213.7 131.7H0.900391Z" fill="#F9F9F9"/>
<path opacity="0.1148" d="M0.900391 131.8C0.900391 131.8 0.900391 123.3 9.40039 116.7C17.9004 110.1 92.8004 63.1002 96.1004 61.2002C98.9004 59.7002 105.7 57.2002 107.3 57.2002C109 57.2002 115.8 59.7002 118.5 61.2002C121.8 63.0002 196.8 110.1 205.2 116.7C213.7 123.3 213.7 131.8 213.7 131.8H0.900391Z" fill="#F8F8F8"/>
<path opacity="0.1311" d="M0.900391 131.9C0.900391 131.9 0.900391 123.4 9.40039 116.8C17.9004 110.2 92.8004 63.1998 96.1004 61.2998C98.9004 59.7998 105.7 57.2998 107.3 57.2998C109 57.2998 115.8 59.7998 118.5 61.2998C121.8 63.0998 196.8 110.2 205.2 116.8C213.7 123.4 213.7 131.9 213.7 131.9H0.900391Z" fill="#F7F7F7"/>
<path opacity="0.1475" d="M0.900391 131.9C0.900391 131.9 0.900391 123.4 9.40039 116.8C17.9004 110.2 92.8004 63.1998 96.1004 61.2998C98.9004 59.7998 105.7 57.2998 107.3 57.2998C109 57.2998 115.8 59.7998 118.5 61.2998C121.8 63.0998 196.8 110.2 205.2 116.8C213.7 123.4 213.7 131.9 213.7 131.9H0.900391Z" fill="#F6F6F6"/>
<path opacity="0.1639" d="M1.00024 132C1.00024 132 1.00024 123.5 9.50024 116.9C18.0002 110.3 92.9002 63.3004 96.2002 61.4004C99.0003 59.9004 105.8 57.4004 107.4 57.4004C109.1 57.4004 115.9 59.9004 118.6 61.4004C121.9 63.2004 196.9 110.3 205.3 116.9C213.8 123.5 213.8 132 213.8 132H1.00024Z" fill="#F5F5F5"/>
<path opacity="0.1803" d="M1.00024 132.1C1.00024 132.1 1.00024 123.6 9.50024 117C18.0002 110.4 92.9002 63.4 96.2002 61.5C99.0003 60 105.8 57.5 107.4 57.5C109.1 57.5 115.9 60 118.6 61.5C121.9 63.3 196.9 110.4 205.3 117C213.8 123.6 213.8 132.1 213.8 132.1H1.00024Z" fill="#F4F4F4"/>
<path opacity="0.1967" d="M1.00024 132.2C1.00024 132.2 1.00024 123.7 9.50024 117.1C18.0002 110.5 92.9002 63.4996 96.2002 61.5996C99.0003 60.0996 105.8 57.5996 107.4 57.5996C109.1 57.5996 115.9 60.0996 118.6 61.5996C121.9 63.3996 196.9 110.5 205.3 117.1C213.8 123.7 213.8 132.2 213.8 132.2H1.00024Z" fill="#F3F3F3"/>
<path opacity="0.2131" d="M1.00024 132.2C1.00024 132.2 1.00024 123.7 9.50024 117.1C18.0002 110.5 92.9002 63.4996 96.2002 61.5996C99.0003 60.0996 105.8 57.5996 107.4 57.5996C109.1 57.5996 115.9 60.0996 118.6 61.5996C121.9 63.3996 196.9 110.5 205.3 117.1C213.8 123.7 213.8 132.2 213.8 132.2H1.00024Z" fill="#F2F2F3"/>
<path opacity="0.2295" d="M1.00024 132.3C1.00024 132.3 1.00024 123.8 9.50024 117.2C18.0002 110.6 92.9002 63.6002 96.2002 61.7002C99.0003 60.2002 105.8 57.7002 107.4 57.7002C109.1 57.7002 115.9 60.2002 118.6 61.7002C121.9 63.5002 196.9 110.6 205.3 117.2C213.8 123.8 213.8 132.3 213.8 132.3H1.00024Z" fill="#F1F1F2"/>
<path opacity="0.2459" d="M1.00024 132.4C1.00024 132.4 1.00024 123.9 9.50024 117.3C18.0002 110.7 92.9002 63.6998 96.2002 61.7998C99.0003 60.2998 105.8 57.7998 107.4 57.7998C109.1 57.7998 115.9 60.2998 118.6 61.7998C121.9 63.5998 196.9 110.7 205.3 117.3C213.8 123.9 213.8 132.4 213.8 132.4H1.00024Z" fill="#F0F0F1"/>
<path opacity="0.2623" d="M1.00024 132.5C1.00024 132.5 1.00024 124 9.50024 117.4C18.0002 110.8 92.9002 63.8004 96.2002 61.9004C99.0003 60.4004 105.8 57.9004 107.4 57.9004C109.1 57.9004 115.9 60.4004 118.6 61.9004C121.9 63.7004 196.9 110.8 205.3 117.4C213.8 124 213.8 132.5 213.8 132.5H1.00024Z" fill="#EFF0F0"/>
<path opacity="0.2787" d="M1.10034 132.5C1.10034 132.5 1.10034 124 9.60034 117.4C18.1003 110.8 93.0003 63.8004 96.3003 61.9004C99.1003 60.4004 105.9 57.9004 107.5 57.9004C109.2 57.9004 116 60.4004 118.7 61.9004C122 63.7004 197 110.8 205.4 117.4C213.9 124 213.9 132.5 213.9 132.5H1.10034Z" fill="#EEEFEF"/>
<path opacity="0.2951" d="M1.10034 132.6C1.10034 132.6 1.10034 124.1 9.60034 117.5C18.1003 110.9 93.0003 63.9 96.3003 62C99.1003 60.5 105.9 58 107.5 58C109.2 58 116 60.5 118.7 62C122 63.8 197 110.9 205.4 117.5C213.9 124.1 213.9 132.6 213.9 132.6H1.10034Z" fill="#EDEEEE"/>
<path opacity="0.3115" d="M1.10034 132.7C1.10034 132.7 1.10034 124.2 9.60034 117.6C18.1003 111 93.0003 63.9996 96.3003 62.0996C99.1003 60.5996 105.9 58.0996 107.5 58.0996C109.2 58.0996 116 60.5996 118.7 62.0996C122 63.8996 197 111 205.4 117.6C213.9 124.2 213.9 132.7 213.9 132.7H1.10034Z" fill="#ECEDED"/>
<path opacity="0.3279" d="M1.10034 132.8C1.10034 132.8 1.10034 124.3 9.60034 117.7C18.1003 111.1 93.0003 64.1002 96.3003 62.2002C99.1003 60.7002 105.9 58.2002 107.5 58.2002C109.2 58.2002 116 60.7002 118.7 62.2002C122 64.0002 197 111.1 205.4 117.7C213.9 124.3 213.9 132.8 213.9 132.8H1.10034Z" fill="#EBECEC"/>
<path opacity="0.3443" d="M1.10034 132.8C1.10034 132.8 1.10034 124.3 9.60034 117.7C18.1003 111.1 93.0003 64.1002 96.3003 62.2002C99.1003 60.7002 105.9 58.2002 107.5 58.2002C109.2 58.2002 116 60.7002 118.7 62.2002C122 64.0002 197 111.1 205.4 117.7C213.9 124.3 213.9 132.8 213.9 132.8H1.10034Z" fill="#EAEBEB"/>
<path opacity="0.3607" d="M1.10034 132.9C1.10034 132.9 1.10034 124.4 9.60034 117.8C18.1003 111.2 93.0003 64.1998 96.3003 62.2998C99.1003 60.7998 105.9 58.2998 107.5 58.2998C109.2 58.2998 116 60.7998 118.7 62.2998C122 64.0998 197 111.2 205.4 117.8C213.9 124.4 213.9 132.9 213.9 132.9H1.10034Z" fill="#E9EAEA"/>
<path opacity="0.377" d="M1.2002 133C1.2002 133 1.2002 124.5 9.7002 117.9C18.2002 111.3 93.1002 64.3004 96.4002 62.4004C99.2002 60.9004 106 58.4004 107.6 58.4004C109.3 58.4004 116.1 60.9004 118.8 62.4004C122.1 64.2004 197.1 111.3 205.5 117.9C214 124.5 214 133 214 133H1.2002Z" fill="#E9E9E9"/>
<path opacity="0.3934" d="M1.2002 133.1C1.2002 133.1 1.2002 124.6 9.7002 118C18.2002 111.4 93.1002 64.4 96.4002 62.5C99.2002 61 106 58.5 107.6 58.5C109.3 58.5 116.1 61 118.8 62.5C122.1 64.3 197.1 111.4 205.5 118C214 124.6 214 133.1 214 133.1H1.2002Z" fill="#E8E8E8"/>
<path opacity="0.4098" d="M1.2002 133.1C1.2002 133.1 1.2002 124.6 9.7002 118C18.2002 111.4 93.1002 64.4 96.4002 62.5C99.2002 61 106 58.5 107.6 58.5C109.3 58.5 116.1 61 118.8 62.5C122.1 64.3 197.1 111.4 205.5 118C214 124.6 214 133.1 214 133.1H1.2002Z" fill="#E7E7E7"/>
<path opacity="0.4262" d="M1.2002 133.2C1.2002 133.2 1.2002 124.7 9.7002 118.1C18.2002 111.5 93.1002 64.4996 96.4002 62.5996C99.2002 61.0996 106 58.5996 107.6 58.5996C109.3 58.5996 116.1 61.0996 118.8 62.5996C122.1 64.3996 197.1 111.5 205.5 118.1C214 124.7 214 133.2 214 133.2H1.2002Z" fill="#E6E6E6"/>
<path opacity="0.4426" d="M1.2002 133.3C1.2002 133.3 1.2002 124.8 9.7002 118.2C18.2002 111.6 93.1002 64.6002 96.4002 62.7002C99.2002 61.2002 106 58.7002 107.6 58.7002C109.3 58.7002 116.1 61.2002 118.8 62.7002C122.1 64.5002 197.1 111.6 205.5 118.2C214 124.8 214 133.3 214 133.3H1.2002Z" fill="#E5E5E5"/>
<path opacity="0.459" d="M1.2002 133.4C1.2002 133.4 1.2002 124.9 9.7002 118.3C18.2002 111.7 93.1002 64.6998 96.4002 62.7998C99.2002 61.2998 106 58.7998 107.6 58.7998C109.3 58.7998 116.1 61.2998 118.8 62.7998C122.1 64.5998 197.1 111.7 205.5 118.3C214 124.9 214 133.4 214 133.4H1.2002Z" fill="#E4E4E4"/>
<path opacity="0.4754" d="M1.2002 133.4C1.2002 133.4 1.2002 124.9 9.7002 118.3C18.2002 111.7 93.1002 64.6998 96.4002 62.7998C99.2002 61.2998 106 58.7998 107.6 58.7998C109.3 58.7998 116.1 61.2998 118.8 62.7998C122.1 64.5998 197.1 111.7 205.5 118.3C214 124.9 214 133.4 214 133.4H1.2002Z" fill="#E3E3E3"/>
<path opacity="0.4918" d="M1.30029 133.5C1.30029 133.5 1.30029 125 9.80029 118.4C18.3003 111.8 93.2003 64.8004 96.5003 62.9004C99.3003 61.4004 106.1 58.9004 107.7 58.9004C109.4 58.9004 116.2 61.4004 118.9 62.9004C122.2 64.7004 197.2 111.8 205.6 118.4C214.1 125 214.1 133.5 214.1 133.5H1.30029Z" fill="#E2E2E2"/>
<path opacity="0.5082" d="M1.30029 133.6C1.30029 133.6 1.30029 125.1 9.80029 118.5C18.3003 111.9 93.2003 64.9 96.5003 63C99.3003 61.5 106.1 59 107.7 59C109.4 59 116.2 61.5 118.9 63C122.2 64.8 197.2 111.9 205.6 118.5C214.1 125.1 214.1 133.6 214.1 133.6H1.30029Z" fill="#E1E1E1"/>
<path opacity="0.5246" d="M1.30029 133.6C1.30029 133.6 1.30029 125.1 9.80029 118.5C18.3003 111.9 93.2003 64.9 96.5003 63C99.3003 61.5 106.1 59 107.7 59C109.4 59 116.2 61.5 118.9 63C122.2 64.8 197.2 111.9 205.6 118.5C214.1 125.1 214.1 133.6 214.1 133.6H1.30029Z" fill="#E0E0E0"/>
<path opacity="0.541" d="M1.30029 133.7C1.30029 133.7 1.30029 125.2 9.80029 118.6C18.3003 112 93.2003 64.9996 96.5003 63.0996C99.3003 61.5996 106.1 59.0996 107.7 59.0996C109.4 59.0996 116.2 61.5996 118.9 63.0996C122.2 64.8996 197.2 112 205.6 118.6C214.1 125.2 214.1 133.7 214.1 133.7H1.30029Z" fill="#DFDFDF"/>
<path opacity="0.5574" d="M1.30029 133.8C1.30029 133.8 1.30029 125.3 9.80029 118.7C18.3003 112.1 93.2003 65.1002 96.5003 63.2002C99.3003 61.7002 106.1 59.2002 107.7 59.2002C109.4 59.2002 116.2 61.7002 118.9 63.2002C122.2 65.0002 197.2 112.1 205.6 118.7C214.1 125.3 214.1 133.8 214.1 133.8H1.30029Z" fill="#DEDEDE"/>
<path opacity="0.5738" d="M1.30029 133.9C1.30029 133.9 1.30029 125.4 9.80029 118.8C18.3003 112.2 93.2003 65.1998 96.5003 63.2998C99.3003 61.7998 106.1 59.2998 107.7 59.2998C109.4 59.2998 116.2 61.7998 118.9 63.2998C122.2 65.0998 197.2 112.2 205.6 118.8C214.1 125.4 214.1 133.9 214.1 133.9H1.30029Z" fill="#DDDDDD"/>
<path opacity="0.5902" d="M1.30029 133.9C1.30029 133.9 1.30029 125.4 9.80029 118.8C18.3003 112.2 93.2003 65.1998 96.5003 63.2998C99.3003 61.7998 106.1 59.2998 107.7 59.2998C109.4 59.2998 116.2 61.7998 118.9 63.2998C122.2 65.0998 197.2 112.2 205.6 118.8C214.1 125.4 214.1 133.9 214.1 133.9H1.30029Z" fill="#DCDCDC"/>
<path opacity="0.6066" d="M1.40039 134C1.40039 134 1.40039 125.5 9.90039 118.9C18.4004 112.3 93.3004 65.3004 96.6004 63.4004C99.4004 61.9004 106.2 59.4004 107.8 59.4004C109.5 59.4004 116.3 61.9004 119 63.4004C122.3 65.2004 197.3 112.3 205.7 118.9C214.1 125.5 214.1 134 214.1 134H1.40039Z" fill="#DBDBDB"/>
<path opacity="0.623" d="M1.40039 134.1C1.40039 134.1 1.40039 125.6 9.90039 119C18.4004 112.4 93.3004 65.4 96.6004 63.5C99.4004 62 106.2 59.5 107.8 59.5C109.5 59.5 116.3 62 119 63.5C122.3 65.3 197.3 112.4 205.7 119C214.1 125.6 214.1 134.1 214.1 134.1H1.40039Z" fill="#DADADA"/>
<path opacity="0.6393" d="M1.40039 134.2C1.40039 134.2 1.40039 125.7 9.90039 119.1C18.4004 112.5 93.3004 65.4996 96.6004 63.5996C99.4004 62.0996 106.2 59.5996 107.8 59.5996C109.5 59.5996 116.3 62.0996 119 63.5996C122.3 65.3996 197.3 112.5 205.7 119.1C214.1 125.7 214.1 134.2 214.1 134.2H1.40039Z" fill="#D9D9DA"/>
<path opacity="0.6557" d="M1.40039 134.2C1.40039 134.2 1.40039 125.7 9.90039 119.1C18.4004 112.5 93.3004 65.4996 96.6004 63.5996C99.4004 62.0996 106.2 59.5996 107.8 59.5996C109.5 59.5996 116.3 62.0996 119 63.5996C122.3 65.3996 197.3 112.5 205.7 119.1C214.1 125.7 214.1 134.2 214.1 134.2H1.40039Z" fill="#D8D8D9"/>
<path opacity="0.6721" d="M1.40039 134.3C1.40039 134.3 1.40039 125.8 9.90039 119.2C18.4004 112.6 93.3004 65.6002 96.6004 63.7002C99.4004 62.2002 106.2 59.7002 107.8 59.7002C109.5 59.7002 116.3 62.2002 119 63.7002C122.3 65.5002 197.3 112.6 205.7 119.2C214.1 125.8 214.1 134.3 214.1 134.3H1.40039Z" fill="#D7D7D8"/>
<path opacity="0.6885" d="M1.40039 134.4C1.40039 134.4 1.40039 125.9 9.90039 119.3C18.4004 112.7 93.3004 65.6998 96.6004 63.7998C99.4004 62.2998 106.2 59.7998 107.8 59.7998C109.5 59.7998 116.3 62.2998 119 63.7998C122.3 65.5998 197.3 112.7 205.7 119.3C214.1 125.9 214.1 134.4 214.1 134.4H1.40039Z" fill="#D6D6D7"/>
<path opacity="0.7049" d="M1.40039 134.5C1.40039 134.5 1.40039 126 9.90039 119.4C18.4004 112.8 93.3004 65.8004 96.6004 63.9004C99.4004 62.4004 106.2 59.9004 107.8 59.9004C109.5 59.9004 116.3 62.4004 119 63.9004C122.3 65.7004 197.3 112.8 205.7 119.4C214.1 126 214.1 134.5 214.1 134.5H1.40039Z" fill="#D5D5D6"/>
<path opacity="0.7213" d="M1.50024 134.5C1.50024 134.5 1.50024 126 10.0002 119.4C18.5002 112.8 93.4002 65.8004 96.7002 63.9004C99.5003 62.4004 106.3 59.9004 107.9 59.9004C109.6 59.9004 116.4 62.4004 119.1 63.9004C122.4 65.7004 197.4 112.8 205.8 119.4C214.2 126 214.2 134.5 214.2 134.5H1.50024Z" fill="#D4D4D5"/>
<path opacity="0.7377" d="M1.50024 134.6C1.50024 134.6 1.50024 126.1 10.0002 119.5C18.5002 112.9 93.4002 65.9 96.7002 64C99.5003 62.5 106.3 60 107.9 60C109.6 60 116.4 62.5 119.1 64C122.4 65.8 197.4 112.9 205.8 119.5C214.2 126.1 214.2 134.6 214.2 134.6H1.50024Z" fill="#D3D3D4"/>
<path opacity="0.7541" d="M1.50024 134.7C1.50024 134.7 1.50024 126.2 10.0002 119.6C18.5002 113 93.4002 65.9996 96.7002 64.0996C99.5003 62.5996 106.3 60.0996 107.9 60.0996C109.6 60.0996 116.4 62.5996 119.1 64.0996C122.4 65.8996 197.4 113 205.8 119.6C214.2 126.2 214.2 134.7 214.2 134.7H1.50024Z" fill="#D2D2D3"/>
<path opacity="0.7705" d="M1.50024 134.8C1.50024 134.8 1.50024 126.3 10.0002 119.7C18.5002 113.1 93.4002 66.1002 96.7002 64.2002C99.5003 62.7002 106.3 60.2002 107.9 60.2002C109.6 60.2002 116.4 62.7002 119.1 64.2002C122.4 66.0002 197.4 113.1 205.8 119.7C214.2 126.3 214.2 134.8 214.2 134.8H1.50024Z" fill="#D1D2D2"/>
<path opacity="0.7869" d="M1.50024 134.8C1.50024 134.8 1.50024 126.3 10.0002 119.7C18.5002 113.1 93.4002 66.1002 96.7002 64.2002C99.5003 62.7002 106.3 60.2002 107.9 60.2002C109.6 60.2002 116.4 62.7002 119.1 64.2002C122.4 66.0002 197.4 113.1 205.8 119.7C214.2 126.3 214.2 134.8 214.2 134.8H1.50024Z" fill="#D0D1D1"/>
<path opacity="0.8033" d="M1.50024 134.9C1.50024 134.9 1.50024 126.4 10.0002 119.8C18.5002 113.2 93.4002 66.1998 96.7002 64.2998C99.5003 62.7998 106.3 60.2998 107.9 60.2998C109.6 60.2998 116.4 62.7998 119.1 64.2998C122.4 66.0998 197.4 113.2 205.8 119.8C214.2 126.4 214.2 134.9 214.2 134.9H1.50024Z" fill="#CFD0D0"/>
<path opacity="0.8197" d="M1.60034 135C1.60034 135 1.60034 126.5 10.1003 119.9C18.6003 113.3 93.5003 66.3004 96.8003 64.4004C99.6003 62.9004 106.4 60.4004 108 60.4004C109.7 60.4004 116.5 62.9004 119.2 64.4004C122.5 66.2004 197.5 113.3 205.9 119.9C214.3 126.5 214.3 135 214.3 135H1.60034Z" fill="#CECFCF"/>
<path opacity="0.8361" d="M1.60034 135.1C1.60034 135.1 1.60034 126.6 10.1003 120C18.6003 113.4 93.5003 66.4 96.8003 64.5C99.6003 63 106.4 60.5 108 60.5C109.7 60.5 116.5 63 119.2 64.5C122.5 66.3 197.5 113.4 205.9 120C214.3 126.6 214.3 135.1 214.3 135.1H1.60034Z" fill="#CDCECE"/>
<path opacity="0.8525" d="M1.60034 135.1C1.60034 135.1 1.60034 126.6 10.1003 120C18.6003 113.4 93.5003 66.4 96.8003 64.5C99.6003 63 106.4 60.5 108 60.5C109.7 60.5 116.5 63 119.2 64.5C122.5 66.3 197.5 113.4 205.9 120C214.3 126.6 214.3 135.1 214.3 135.1H1.60034Z" fill="#CCCDCD"/>
<path opacity="0.8689" d="M1.60034 135.2C1.60034 135.2 1.60034 126.7 10.1003 120.1C18.6003 113.5 93.5003 66.4996 96.8003 64.5996C99.6003 63.0996 106.4 60.5996 108 60.5996C109.7 60.5996 116.5 63.0996 119.2 64.5996C122.5 66.3996 197.5 113.5 205.9 120.1C214.3 126.7 214.3 135.2 214.3 135.2H1.60034Z" fill="#CBCCCC"/>
<path opacity="0.8852" d="M1.60034 135.3C1.60034 135.3 1.60034 126.8 10.1003 120.2C18.6003 113.6 93.5003 66.6002 96.8003 64.7002C99.6003 63.2002 106.4 60.7002 108 60.7002C109.7 60.7002 116.5 63.2002 119.2 64.7002C122.5 66.5002 197.5 113.6 205.9 120.2C214.3 126.8 214.3 135.3 214.3 135.3H1.60034Z" fill="#CACBCB"/>
<path opacity="0.9016" d="M1.60034 135.4C1.60034 135.4 1.60034 126.9 10.1003 120.3C18.6003 113.7 93.5003 66.6998 96.8003 64.7998C99.6003 63.2998 106.4 60.7998 108 60.7998C109.7 60.7998 116.5 63.2998 119.2 64.7998C122.5 66.5998 197.5 113.7 205.9 120.3C214.3 126.9 214.3 135.4 214.3 135.4H1.60034Z" fill="#C9CACA"/>
<path opacity="0.918" d="M1.60034 135.4C1.60034 135.4 1.60034 126.9 10.1003 120.3C18.6003 113.7 93.5003 66.6998 96.8003 64.7998C99.6003 63.2998 106.4 60.7998 108 60.7998C109.7 60.7998 116.5 63.2998 119.2 64.7998C122.5 66.5998 197.5 113.7 205.9 120.3C214.3 126.9 214.3 135.4 214.3 135.4H1.60034Z" fill="#C8C9C9"/>
<path opacity="0.9344" d="M1.7002 135.5C1.7002 135.5 1.7002 127 10.2002 120.4C18.7002 113.8 93.6002 66.8004 96.9002 64.9004C99.7002 63.4004 106.5 60.9004 108.1 60.9004C109.8 60.9004 116.6 63.4004 119.3 64.9004C122.6 66.7004 197.6 113.8 206 120.4C214.4 127 214.4 135.5 214.4 135.5H1.7002Z" fill="#C7C8C8"/>
<path opacity="0.9508" d="M1.7002 135.6C1.7002 135.6 1.7002 127.1 10.2002 120.5C18.7002 113.9 93.6002 66.9 96.9002 65C99.7002 63.5 106.5 61 108.1 61C109.8 61 116.6 63.5 119.3 65C122.6 66.8 197.6 113.9 206 120.5C214.4 127.1 214.4 135.6 214.4 135.6H1.7002Z" fill="#C6C7C7"/>
<path opacity="0.9672" d="M1.7002 135.7C1.7002 135.7 1.7002 127.2 10.2002 120.6C18.7002 114 93.6002 66.9996 96.9002 65.0996C99.7002 63.5996 106.5 61.0996 108.1 61.0996C109.8 61.0996 116.6 63.5996 119.3 65.0996C122.6 66.8996 197.6 114 206 120.6C214.4 127.2 214.4 135.7 214.4 135.7H1.7002Z" fill="#C5C6C6"/>
<path opacity="0.9836" d="M1.7002 135.7C1.7002 135.7 1.7002 127.2 10.2002 120.6C18.7002 114 93.6002 66.9996 96.9002 65.0996C99.7002 63.5996 106.5 61.0996 108.1 61.0996C109.8 61.0996 116.6 63.5996 119.3 65.0996C122.6 66.8996 197.6 114 206 120.6C214.4 127.2 214.4 135.7 214.4 135.7H1.7002Z" fill="#C4C5C5"/>
<path d="M1.7002 135.8C1.7002 135.8 1.7002 127.3 10.2002 120.7C18.7002 114.1 93.6002 67.1002 96.9002 65.2002C99.7002 63.7002 106.5 61.2002 108.1 61.2002C109.8 61.2002 116.6 63.7002 119.3 65.2002C122.6 67.0002 197.6 114.1 206 120.7C214.4 127.3 214.4 135.8 214.4 135.8H1.7002Z" fill="#B0B0B0"/>
<path d="M1.7002 135.8C1.7002 135.8 1.7002 127.3 10.2002 120.7C18.7002 114.1 93.6002 67.1002 96.9002 65.2002C99.7002 63.7002 104.5 61.2002 108.1 61.2002C111.7 61.2002 116.6 63.7002 119.3 65.2002C122.6 67.0002 197.6 114.1 206 120.7C214.4 127.3 214.4 135.8 214.4 135.8H1.7002Z" fill="url(#paint1_linear)"/>
<path opacity="0.0163934" d="M214.9 4.5C214.9 4.5 214.9 19 206.4 26.2C197.9 33.4 123 80.8 119.7 82.8C116.9 84.5 110.1 87.2 108.5 87.2C106.8 87.2 100 84.5 97.3003 82.8C94.0003 80.8 19.0003 33.4 10.6003 26.2C2.10034 19 2.10034 4.5 2.10034 4.5H214.9Z" fill="#FEFEFE"/>
<path opacity="0.0327869" d="M214.9 4.40039C214.9 4.40039 214.9 18.8004 206.4 26.0004C197.9 33.2004 123 80.6004 119.7 82.6004C116.9 84.3004 110.1 86.9004 108.5 86.9004C106.8 86.9004 100 84.2004 97.3003 82.6004C94.0003 80.6004 19.0003 33.2004 10.6003 26.0004C2.10034 18.8004 2.10034 4.40039 2.10034 4.40039H214.9Z" fill="#FDFDFD"/>
<path opacity="0.0491803" d="M214.9 4.40039C214.9 4.40039 214.9 18.7004 206.4 25.9004C197.9 33.1004 123 80.5004 119.7 82.5004C116.9 84.2004 110.1 86.8004 108.5 86.8004C106.8 86.8004 100 84.1004 97.3003 82.5004C94.0003 80.5004 19.0003 33.1004 10.6003 25.9004C2.10034 18.7004 2.10034 4.40039 2.10034 4.40039H214.9Z" fill="#FCFCFC"/>
<path opacity="0.0655738" d="M214.9 4.2998C214.9 4.2998 214.9 18.4998 206.4 25.6998C197.9 32.7998 123 80.2998 119.7 82.2998C116.9 83.9998 110.1 86.5998 108.5 86.5998C106.8 86.5998 100 83.8998 97.3003 82.2998C94.0003 80.2998 19.0003 32.8998 10.6003 25.6998C2.10034 18.4998 2.10034 4.2998 2.10034 4.2998H214.9Z" fill="#FBFBFB"/>
<path opacity="0.0819672" d="M214.8 4.2002C214.8 4.2002 214.8 18.3002 206.3 25.5002C197.8 32.6002 122.9 80.1002 119.6 82.0002C116.8 83.7002 110 86.3002 108.4 86.3002C106.7 86.3002 99.9002 83.6002 97.2002 82.0002C93.9002 80.0002 18.9002 32.6002 10.5002 25.5002C2.00024 18.4002 2.00024 4.2002 2.00024 4.2002H214.8Z" fill="#FAFAFA"/>
<path opacity="0.0983607" d="M214.8 4.09961C214.8 4.09961 214.8 18.0996 206.3 25.2996C197.8 32.3996 122.9 79.7996 119.6 81.7996C116.8 83.3996 110 86.0996 108.4 86.0996C106.7 86.0996 99.9002 83.3996 97.2002 81.7996C93.9002 79.7996 18.9002 32.3996 10.5002 25.2996C2.00024 18.1996 2.00024 4.09961 2.00024 4.09961H214.8Z" fill="#F9F9F9"/>
<path opacity="0.1148" d="M214.8 4.09961C214.8 4.09961 214.8 17.9996 206.3 25.1996C197.8 32.2996 122.9 79.6996 119.6 81.6996C116.8 83.2996 110 85.9996 108.4 85.9996C106.7 85.9996 99.9002 83.2996 97.2002 81.6996C93.9002 79.6996 18.9002 32.2996 10.5002 25.1996C2.00024 18.0996 2.00024 4.09961 2.00024 4.09961H214.8Z" fill="#F8F8F8"/>
<path opacity="0.1311" d="M214.8 4C214.8 4 214.8 17.8 206.3 24.9C197.8 32 122.9 79.4 119.6 81.4C116.8 83 110 85.7 108.4 85.7C106.7 85.7 99.9002 83 97.2002 81.4C93.9002 79.4 18.9002 32 10.5002 24.9C2.00024 17.8 2.00024 4 2.00024 4H214.8Z" fill="#F7F7F7"/>
<path opacity="0.1475" d="M214.8 3.90039C214.8 3.90039 214.8 17.6004 206.3 24.7004C197.8 31.8004 122.9 79.2004 119.6 81.2004C116.8 82.8004 110 85.5004 108.4 85.5004C106.7 85.5004 99.9002 82.8004 97.2002 81.2004C93.9002 79.2004 18.9002 31.8004 10.5002 24.7004C2.00024 17.6004 2.00024 3.90039 2.00024 3.90039H214.8Z" fill="#F6F6F6"/>
<path opacity="0.1639" d="M214.8 3.7998C214.8 3.7998 214.8 17.3998 206.3 24.4998C197.8 31.5998 122.9 78.9998 119.6 80.8998C116.8 82.4998 110 85.1998 108.4 85.1998C106.7 85.1998 99.9002 82.4998 97.2002 80.8998C93.9002 78.8998 18.9002 31.4998 10.5002 24.4998C2.00024 17.3998 2.00024 3.7998 2.00024 3.7998H214.8Z" fill="#F5F5F5"/>
<path opacity="0.1803" d="M214.8 3.7998C214.8 3.7998 214.8 17.2998 206.3 24.3998C197.8 31.4998 122.9 78.8998 119.6 80.7998C116.8 82.3998 110 85.0998 108.4 85.0998C106.7 85.0998 99.9002 82.3998 97.2002 80.7998C93.9002 78.7998 18.9002 31.4998 10.5002 24.3998C2.00024 17.2998 2.00024 3.7998 2.00024 3.7998H214.8Z" fill="#F4F4F4"/>
<path opacity="0.1967" d="M214.7 3.7002C214.7 3.7002 214.7 17.1002 206.2 24.2002C197.7 31.3002 122.8 78.6002 119.5 80.6002C116.7 82.2002 109.9 84.9002 108.3 84.9002C106.6 84.9002 99.8004 82.2002 97.1004 80.6002C93.8004 78.6002 18.8004 31.3002 10.4004 24.2002C1.90039 17.1002 1.90039 3.7002 1.90039 3.7002H214.7Z" fill="#F3F3F3"/>
<path opacity="0.2131" d="M214.7 3.59961C214.7 3.59961 214.7 16.8996 206.2 23.9996C197.7 31.0996 122.8 78.3996 119.5 80.3996C116.7 81.9996 109.9 84.6996 108.3 84.6996C106.6 84.6996 99.8004 81.9996 97.1004 80.3996C93.8004 78.3996 18.8004 31.0996 10.4004 23.9996C1.90039 16.8996 1.90039 3.59961 1.90039 3.59961H214.7Z" fill="#F2F2F3"/>
<path opacity="0.2295" d="M214.7 3.5C214.7 3.5 214.7 16.7 206.2 23.8C197.7 30.9 122.8 78.2 119.5 80.2C116.7 81.8 109.9 84.5 108.3 84.5C106.6 84.5 99.8004 81.8 97.1004 80.2C93.8004 78.2 18.8004 30.9 10.4004 23.8C1.90039 16.7 1.90039 3.5 1.90039 3.5H214.7Z" fill="#F1F1F2"/>
<path opacity="0.2459" d="M214.7 3.5C214.7 3.5 214.7 16.6 206.2 23.7C197.7 30.7 122.8 78.1 119.5 80.1C116.7 81.7 109.9 84.4 108.3 84.4C106.6 84.4 99.8004 81.8 97.1004 80.1C93.8004 78.1 18.8004 30.8 10.4004 23.7C1.90039 16.7 1.90039 3.5 1.90039 3.5H214.7Z" fill="#F0F0F1"/>
<path opacity="0.2623" d="M214.7 3.40039C214.7 3.40039 214.7 16.4004 206.2 23.5004C197.7 30.5004 122.8 77.9004 119.5 79.8004C116.7 81.4004 109.9 84.1004 108.3 84.1004C106.6 84.1004 99.8004 81.5004 97.1004 79.8004C93.8004 77.8004 18.8004 30.5004 10.4004 23.5004C1.90039 16.5004 1.90039 3.40039 1.90039 3.40039H214.7Z" fill="#EFF0F0"/>
<path opacity="0.2787" d="M214.7 3.2998C214.7 3.2998 214.7 16.1998 206.2 23.1998C197.7 30.1998 122.8 77.5998 119.5 79.4998C116.7 81.0998 109.9 83.7998 108.3 83.7998C106.6 83.7998 99.8004 81.1998 97.1004 79.4998C93.8004 77.4998 18.8004 30.1998 10.4004 23.1998C1.90039 16.1998 1.90039 3.2998 1.90039 3.2998H214.7Z" fill="#EEEFEF"/>
<path opacity="0.2951" d="M214.6 3.2002C214.6 3.2002 214.6 16.0002 206.1 23.0002C197.6 30.0002 122.7 77.3002 119.4 79.3002C116.6 80.9002 109.8 83.6002 108.2 83.6002C106.5 83.6002 99.7003 81.0002 97.0003 79.3002C93.7003 77.4002 18.7003 30.0002 10.3003 23.0002C1.80029 16.0002 1.80029 3.2002 1.80029 3.2002H214.6Z" fill="#EDEEEE"/>
<path opacity="0.3115" d="M214.6 3.2002C214.6 3.2002 214.6 15.9002 206.1 22.9002C197.6 29.9002 122.7 77.2002 119.4 79.2002C116.6 80.8002 109.8 83.5002 108.2 83.5002C106.5 83.5002 99.7003 80.9002 97.0003 79.2002C93.7003 77.3002 18.7003 29.9002 10.3003 22.9002C1.80029 15.9002 1.80029 3.2002 1.80029 3.2002H214.6Z" fill="#ECEDED"/>
<path opacity="0.3279" d="M214.6 3.09961C214.6 3.09961 214.6 15.6996 206.1 22.6996C197.6 29.6996 122.7 76.9996 119.4 78.9996C116.6 80.5996 109.8 83.1996 108.2 83.1996C106.5 83.1996 99.7003 80.5996 97.0003 78.9996C93.7003 77.0996 18.7003 29.6996 10.3003 22.6996C1.80029 15.6996 1.80029 3.09961 1.80029 3.09961H214.6Z" fill="#EBECEC"/>
<path opacity="0.3443" d="M214.6 3C214.6 3 214.6 15.5 206.1 22.5C197.6 29.5 122.7 76.8 119.4 78.7C116.6 80.3 109.8 82.9 108.2 82.9C106.5 82.9 99.7003 80.3 97.0003 78.7C93.7003 76.8 18.7003 29.4 10.3003 22.5C1.80029 15.5 1.80029 3 1.80029 3H214.6Z" fill="#EAEBEB"/>
<path opacity="0.3607" d="M214.6 2.90039C214.6 2.90039 214.6 15.3004 206.1 22.3004C197.6 29.3004 122.7 76.6004 119.4 78.5004C116.6 80.1004 109.8 82.7004 108.2 82.7004C106.5 82.7004 99.7003 80.1004 97.0003 78.5004C93.7003 76.6004 18.7003 29.3004 10.3003 22.3004C1.80029 15.3004 1.80029 2.90039 1.80029 2.90039H214.6Z" fill="#E9EAEA"/>
<path opacity="0.377" d="M214.6 2.90039C214.6 2.90039 214.6 15.2004 206.1 22.2004C197.6 29.2004 122.7 76.5004 119.4 78.4004C116.6 80.0004 109.8 82.6004 108.2 82.6004C106.5 82.6004 99.7003 80.0004 97.0003 78.4004C93.7003 76.5004 18.7003 29.2004 10.3003 22.2004C1.80029 15.2004 1.80029 2.90039 1.80029 2.90039H214.6Z" fill="#E9E9E9"/>
<path opacity="0.3934" d="M214.6 2.7998C214.6 2.7998 214.6 14.9998 206.1 21.9998C197.6 28.9998 122.7 76.2998 119.4 78.1998C116.6 79.7998 109.8 82.3998 108.2 82.3998C106.5 82.3998 99.7003 79.7998 97.0003 78.1998C93.7003 76.2998 18.7003 28.9998 10.3003 21.9998C1.80029 14.9998 1.80029 2.7998 1.80029 2.7998H214.6Z" fill="#E8E8E8"/>
<path opacity="0.4098" d="M214.5 2.7002C214.5 2.7002 214.5 14.8002 206 21.8002C197.5 28.8002 122.6 76.0002 119.3 78.0002C116.5 79.6002 109.7 82.2002 108.1 82.2002C106.4 82.2002 99.6002 79.6002 96.9002 78.0002C93.6002 76.1002 18.6002 28.8002 10.2002 21.8002C1.7002 14.8002 1.7002 2.7002 1.7002 2.7002H214.5Z" fill="#E7E7E7"/>
<path opacity="0.4262" d="M214.5 2.59961C214.5 2.59961 214.5 14.5996 206 21.4996C197.5 28.3996 122.6 75.6996 119.3 77.5996C116.5 79.1996 109.7 81.7996 108.1 81.7996C106.4 81.7996 99.6002 79.1996 96.9002 77.5996C93.6002 75.6996 18.6002 28.3996 10.2002 21.4996C1.7002 14.5996 1.7002 2.59961 1.7002 2.59961H214.5Z" fill="#E6E6E6"/>
<path opacity="0.4426" d="M214.5 2.59961C214.5 2.59961 214.5 14.4996 206 21.3996C197.5 28.2996 122.6 75.5996 119.3 77.4996C116.5 79.0996 109.7 81.6996 108.1 81.6996C106.4 81.6996 99.6002 79.0996 96.9002 77.4996C93.6002 75.5996 18.7002 28.2996 10.2002 21.3996C1.7002 14.4996 1.7002 2.59961 1.7002 2.59961H214.5Z" fill="#E5E5E5"/>
<path opacity="0.459" d="M214.5 2.5C214.5 2.5 214.5 14.3 206 21.2C197.5 28.1 122.6 75.4 119.3 77.3C116.5 78.9 109.7 81.5 108.1 81.5C106.4 81.5 99.6002 78.9 96.9002 77.3C93.6002 75.4 18.6002 28.1 10.2002 21.2C1.7002 14.3 1.7002 2.5 1.7002 2.5H214.5Z" fill="#E4E4E4"/>
<path opacity="0.4754" d="M214.5 2.40039C214.5 2.40039 214.5 14.1004 206 21.0004C197.5 27.9004 122.6 75.2004 119.3 77.1004C116.5 78.7004 109.7 81.3004 108.1 81.3004C106.4 81.3004 99.6002 78.7004 96.9002 77.1004C93.6002 75.2004 18.6002 27.9004 10.2002 21.0004C1.7002 14.1004 1.7002 2.40039 1.7002 2.40039H214.5Z" fill="#E3E3E3"/>
<path opacity="0.4918" d="M214.5 2.2998C214.5 2.2998 214.5 13.8998 206 20.7998C197.5 27.6998 122.6 74.9998 119.3 76.8998C116.5 78.4998 109.7 81.0998 108.1 81.0998C106.4 81.0998 99.6002 78.4998 96.9002 76.8998C93.6002 74.9998 18.6002 27.6998 10.2002 20.7998C1.7002 13.8998 1.7002 2.2998 1.7002 2.2998H214.5Z" fill="#E2E2E2"/>
<path opacity="0.5082" d="M214.5 2.2998C214.5 2.2998 214.5 13.7998 206 20.6998C197.5 27.5998 122.6 74.7998 119.3 76.7998C116.5 78.3998 109.7 80.9998 108.1 80.9998C106.4 80.9998 99.6002 78.3998 96.9002 76.7998C93.6002 74.7998 18.6002 27.4998 10.2002 20.6998C1.7002 13.7998 1.7002 2.2998 1.7002 2.2998H214.5Z" fill="#E1E1E1"/>
<path opacity="0.5246" d="M214.4 2.2002C214.4 2.2002 214.4 13.6002 205.9 20.5002C197.4 27.4002 122.5 74.6002 119.2 76.5002C116.4 78.1002 109.6 80.7002 108 80.7002C106.3 80.7002 99.5003 78.1002 96.8003 76.5002C93.5003 74.6002 18.5003 27.4002 10.1003 20.5002C1.60034 13.6002 1.60034 2.2002 1.60034 2.2002H214.4Z" fill="#E0E0E0"/>
<path opacity="0.541" d="M214.4 2.09961C214.4 2.09961 214.4 13.3996 205.9 20.2996C197.4 27.1996 122.5 74.3996 119.2 76.2996C116.4 77.8996 109.6 80.4996 108 80.4996C106.3 80.4996 99.5003 77.8996 96.8003 76.2996C93.5003 74.3996 18.5003 27.1996 10.1003 20.2996C1.60034 13.3996 1.60034 2.09961 1.60034 2.09961H214.4Z" fill="#DFDFDF"/>
<path opacity="0.5574" d="M214.4 2C214.4 2 214.4 13.2 205.9 20.1C197.4 27 122.5 74.2 119.2 76.1C116.4 77.7 109.6 80.3 108 80.3C106.3 80.3 99.5003 77.7 96.8003 76.1C93.5003 74.2 18.5003 27 10.1003 20.1C1.60034 13.2 1.60034 2 1.60034 2H214.4Z" fill="#DEDEDE"/>
<path opacity="0.5738" d="M214.4 2C214.4 2 214.4 13.1 205.9 19.9C197.4 26.8 122.5 74 119.2 75.9C116.4 77.5 109.6 80.1 108 80.1C106.3 80.1 99.5003 77.5 96.8003 75.9C93.5003 74 18.5003 26.8 10.1003 19.9C1.60034 13 1.60034 2 1.60034 2H214.4Z" fill="#DDDDDD"/>
<path opacity="0.5902" d="M214.4 1.90039C214.4 1.90039 214.4 12.9004 205.9 19.7004C197.4 26.5004 122.5 73.8004 119.2 75.7004C116.4 77.3004 109.6 79.9004 108 79.9004C106.3 79.9004 99.5003 77.3004 96.8003 75.7004C93.5003 73.8004 18.5003 26.6004 10.1003 19.7004C1.60034 12.9004 1.60034 1.90039 1.60034 1.90039H214.4Z" fill="#DCDCDC"/>
<path opacity="0.6066" d="M214.4 1.7998C214.4 1.7998 214.4 12.6998 205.9 19.4998C197.4 26.2998 122.5 73.4998 119.2 75.3998C116.4 76.9998 109.6 79.5998 108 79.5998C106.3 79.5998 99.5003 76.9998 96.8003 75.3998C93.5003 73.4998 18.5003 26.2998 10.1003 19.4998C1.60034 12.6998 1.60034 1.7998 1.60034 1.7998H214.4Z" fill="#DBDBDB"/>
<path opacity="0.623" d="M214.3 1.7002C214.3 1.7002 214.3 12.5002 205.8 19.3002C197.3 26.1002 122.4 73.3002 119.1 75.2002C116.3 76.8002 109.5 79.3002 107.9 79.3002C106.2 79.3002 99.4003 76.7002 96.7003 75.2002C93.4003 73.3002 18.4003 26.1002 10.0003 19.3002C1.60034 12.5002 1.60034 1.7002 1.60034 1.7002H214.3Z" fill="#DADADA"/>
<path opacity="0.6393" d="M214.3 1.7002C214.3 1.7002 214.3 12.4002 205.8 19.2002C197.3 26.0002 122.4 73.2002 119.1 75.1002C116.3 76.7002 109.5 79.2002 107.9 79.2002C106.2 79.2002 99.4003 76.6002 96.7003 75.1002C93.4003 73.2002 18.4003 26.0002 10.0003 19.2002C1.60034 12.3002 1.60034 1.7002 1.60034 1.7002H214.3Z" fill="#D9D9DA"/>
<path opacity="0.6557" d="M214.3 1.59961C214.3 1.59961 214.3 12.1996 205.8 18.9996C197.3 25.7996 122.4 72.9996 119.1 74.8996C116.3 76.4996 109.5 78.9996 107.9 78.9996C106.2 78.9996 99.4003 76.3996 96.7003 74.8996C93.4003 72.9996 18.4003 25.7996 10.0003 18.9996C1.60034 12.1996 1.60034 1.59961 1.60034 1.59961H214.3Z" fill="#D8D8D9"/>
<path opacity="0.6721" d="M214.3 1.5C214.3 1.5 214.3 12 205.8 18.8C197.3 25.6 122.4 72.8 119.1 74.7C116.3 76.3 109.5 78.8 107.9 78.8C106.2 78.8 99.4003 76.2 96.7003 74.7C93.4003 72.8 18.4003 25.6 10.0003 18.8C1.60034 12 1.60034 1.5 1.60034 1.5H214.3Z" fill="#D7D7D8"/>
<path opacity="0.6885" d="M214.3 1.40039C214.3 1.40039 214.3 11.8004 205.8 18.6004C197.3 25.4004 122.4 72.6004 119.1 74.4004C116.3 76.0004 109.5 78.5004 107.9 78.5004C106.2 78.5004 99.4002 75.9004 96.7002 74.4004C93.4002 72.5004 18.4002 25.3004 10.0002 18.6004C1.50024 11.8004 1.50024 1.40039 1.50024 1.40039H214.3Z" fill="#D6D6D7"/>
<path opacity="0.7049" d="M214.3 1.40039C214.3 1.40039 214.3 11.7004 205.8 18.5004C197.3 25.3004 122.4 72.4004 119.1 74.3004C116.3 75.9004 109.5 78.4004 107.9 78.4004C106.2 78.4004 99.4002 75.9004 96.7002 74.3004C93.4002 72.4004 18.4002 25.3004 10.0002 18.5004C1.50024 11.7004 1.50024 1.40039 1.50024 1.40039H214.3Z" fill="#D5D5D6"/>
<path opacity="0.7213" d="M214.3 1.2998C214.3 1.2998 214.3 11.4998 205.8 18.2998C197.3 25.0998 122.4 72.1998 119.1 74.0998C116.3 75.6998 109.5 78.1998 107.9 78.1998C106.2 78.1998 99.4002 75.6998 96.7002 74.0998C93.4002 72.1998 18.4002 25.0998 10.0002 18.2998C1.50024 11.4998 1.50024 1.2998 1.50024 1.2998H214.3Z" fill="#D4D4D5"/>
<path opacity="0.7377" d="M214.2 1.2002C214.2 1.2002 214.2 11.3002 205.7 18.0002C197.2 24.8002 122.3 71.9002 119 73.8002C116.2 75.4002 109.4 77.9002 107.8 77.9002C106.1 77.9002 99.3004 75.4002 96.6004 73.8002C93.3004 71.9002 18.3004 24.8002 9.90039 18.0002C1.40039 11.2002 1.40039 1.2002 1.40039 1.2002H214.2Z" fill="#D3D3D4"/>
<path opacity="0.7541" d="M214.2 1.09961C214.2 1.09961 214.2 11.0996 205.7 17.7996C197.2 24.5996 122.3 71.6996 119 73.5996C116.2 75.1996 109.4 77.6996 107.8 77.6996C106.1 77.6996 99.3004 75.1996 96.6004 73.5996C93.3004 71.6996 18.3004 24.5996 9.90039 17.7996C1.40039 10.9996 1.40039 1.09961 1.40039 1.09961H214.2Z" fill="#D2D2D3"/>
<path opacity="0.7705" d="M214.2 1.09961C214.2 1.09961 214.2 10.9996 205.7 17.6996C197.2 24.3996 122.3 71.5996 119 73.3996C116.2 74.9996 109.4 77.4996 107.8 77.4996C106.1 77.4996 99.3004 74.9996 96.6004 73.3996C93.3004 71.4996 18.3004 24.3996 9.90039 17.6996C1.40039 10.9996 1.40039 1.09961 1.40039 1.09961H214.2Z" fill="#D1D2D2"/>
<path opacity="0.7869" d="M214.2 1C214.2 1 214.2 10.8 205.7 17.5C197.2 24.2 122.3 71.4 119 73.2C116.2 74.8 109.4 77.3 107.8 77.3C106.1 77.3 99.3004 74.8 96.6004 73.2C93.3004 71.3 18.3004 24.2 9.90039 17.5C1.40039 10.8 1.40039 1 1.40039 1H214.2Z" fill="#D0D1D1"/>
<path opacity="0.8033" d="M214.2 0.900391C214.2 0.900391 214.2 10.6004 205.7 17.3004C197.2 24.0004 122.3 71.1004 119 73.0004C116.2 74.6004 109.4 77.1004 107.8 77.1004C106.1 77.1004 99.3004 74.6004 96.6004 73.0004C93.3004 71.1004 18.3004 24.0004 9.90039 17.3004C1.40039 10.6004 1.40039 0.900391 1.40039 0.900391H214.2Z" fill="#CFD0D0"/>
<path opacity="0.8197" d="M214.2 0.799805C214.2 0.799805 214.2 10.3998 205.7 17.0998C197.2 23.7998 122.3 70.8998 119 72.7998C116.2 74.3998 109.4 76.8998 107.8 76.8998C106.1 76.8998 99.3004 74.3998 96.6004 72.7998C93.3004 70.8998 18.3004 23.7998 9.90039 17.0998C1.40039 10.3998 1.40039 0.799805 1.40039 0.799805H214.2Z" fill="#CECFCF"/>
<path opacity="0.8361" d="M214.2 0.799805C214.2 0.799805 214.2 10.2998 205.7 16.9998C197.2 23.6998 122.3 70.7998 119 72.6998C116.2 74.2998 109.4 76.7998 107.8 76.7998C106.1 76.7998 99.3004 74.2998 96.6004 72.6998C93.3004 70.7998 18.3004 23.6998 9.90039 16.9998C1.40039 10.2998 1.40039 0.799805 1.40039 0.799805H214.2Z" fill="#CDCECE"/>
<path opacity="0.8525" d="M214.1 0.700195C214.1 0.700195 214.1 10.1002 205.6 16.8002C197.1 23.5002 122.2 70.6002 118.9 72.5002C116.1 74.0002 109.3 76.6002 107.7 76.6002C106 76.6002 99.2003 74.1002 96.5003 72.5002C93.2003 70.6002 18.2003 23.5002 9.80029 16.8002C1.30029 10.1002 1.30029 0.700195 1.30029 0.700195H214.1Z" fill="#CCCDCD"/>
<path opacity="0.8689" d="M214.1 0.599609C214.1 0.599609 214.1 9.89961 205.6 16.5996C197.1 23.2996 122.2 70.3996 118.9 72.1996C116.1 73.6996 109.3 76.2996 107.7 76.2996C106 76.2996 99.2003 73.7996 96.5003 72.1996C93.2003 70.2996 18.3003 23.2996 9.80029 16.5996C1.30029 9.89961 1.30029 0.599609 1.30029 0.599609H214.1Z" fill="#CBCCCC"/>
<path opacity="0.8852" d="M214.1 0.5C214.1 0.5 214.1 9.7 205.6 16.3C197.1 23 122.2 70.1 118.9 71.9C116.1 73.4 109.3 76 107.7 76C106 76 99.2003 73.5 96.5003 71.9C93.2003 70 18.2003 23 9.80029 16.3C1.30029 9.6 1.30029 0.5 1.30029 0.5H214.1Z" fill="#CACBCB"/>
<path opacity="0.9016" d="M214.1 0.5C214.1 0.5 214.1 9.6 205.6 16.2C197.1 22.9 122.2 69.9 118.9 71.8C116.1 73.3 109.3 75.8 107.7 75.8C106 75.8 99.2003 73.3 96.5003 71.8C93.2003 69.9 18.2003 22.9 9.80029 16.2C1.30029 9.5 1.30029 0.5 1.30029 0.5H214.1Z" fill="#C9CACA"/>
<path opacity="0.918" d="M214.1 0.400391C214.1 0.400391 214.1 9.40039 205.6 16.0004C197.1 22.7004 122.2 69.7004 118.9 71.6004C116.1 73.1004 109.3 75.6004 107.7 75.6004C106 75.6004 99.2003 73.1004 96.5003 71.6004C93.2003 69.8004 18.2003 22.7004 9.80029 16.0004C1.30029 9.30039 1.30029 0.400391 1.30029 0.400391H214.1Z" fill="#C8C9C9"/>
<path opacity="0.9344" d="M214.1 0.299805C214.1 0.299805 214.1 9.1998 205.6 15.7998C197.1 22.4998 122.2 69.4998 118.9 71.3998C116.1 72.8998 109.3 75.3998 107.7 75.3998C106 75.3998 99.2003 72.8998 96.5003 71.3998C93.2003 69.5998 18.2003 22.4998 9.80029 15.7998C1.30029 9.1998 1.30029 0.299805 1.30029 0.299805H214.1Z" fill="#C7C8C8"/>
<path opacity="0.9508" d="M214 0.200195C214 0.200195 214 9.00019 205.5 15.6002C197 22.2002 122.1 69.3002 118.8 71.1002C116 72.6002 109.2 75.1002 107.6 75.1002C105.9 75.1002 99.1003 72.6002 96.4003 71.1002C93.2003 69.3002 18.2003 22.3002 9.80029 15.6002C1.30029 9.00019 1.30029 0.200195 1.30029 0.200195H214Z" fill="#C6C7C7"/>
<path opacity="0.9672" d="M214 0.200195C214 0.200195 214 8.90019 205.5 15.5002C197 22.1002 122.1 69.2002 118.8 71.0002C116 72.5002 109.2 75.0002 107.6 75.0002C105.9 75.0002 99.1002 72.5002 96.4002 71.0002C93.1002 69.2002 18.1002 22.1002 9.7002 15.5002C1.2002 8.90019 1.2002 0.200195 1.2002 0.200195H214Z" fill="#C5C6C6"/>
<path opacity="0.9836" d="M214 0.0996094C214 0.0996094 214 8.69961 205.5 15.2996C197 21.8996 122.1 68.9996 118.8 70.7996C116 72.2996 109.2 74.7996 107.6 74.7996C105.9 74.7996 99.1002 72.2996 96.4002 70.7996C93.1002 68.9996 18.1002 21.8996 9.7002 15.2996C1.2002 8.69961 1.2002 0.0996094 1.2002 0.0996094H214Z" fill="#C4C5C5"/>
<path d="M214 0C214 0 214 8.5 205.5 15.1C197 21.7 122.1 68.7 118.8 70.6C116 72.1 109.2 74.6 107.6 74.6C105.9 74.6 99.1002 72.1 96.4002 70.6C93.1002 68.8 18.1002 21.7 9.7002 15.1C1.2002 8.5 1.2002 0 1.2002 0H214Z" fill="#B0B0B0"/>
<path d="M214 0C214 0 214 8.5 205.5 15.1C197 21.7 122.1 68.7 118.8 70.6C116 72.1 111.2 74.6 107.6 74.6C104 74.6 99.1002 72.1 96.4002 70.6C93.1002 68.8 18.1002 21.7 9.7002 15.1C1.2002 8.5 1.2002 0 1.2002 0H214Z" fill="url(#paint2_linear)"/>
<circle cx="106.3" cy="71.5" r="49.5" fill="#FFD34F"/>
<path d="M106.319 98H67.4639V88.4785L80.5376 75.2583C84.2729 71.3521 86.7144 68.6909 87.8618 67.2749C89.0093 65.8345 89.8027 64.6016 90.2422 63.5762C90.7061 62.5508 90.938 61.4766 90.938 60.3535C90.938 58.9619 90.4863 57.8633 89.583 57.0576C88.6797 56.252 87.4102 55.8491 85.7744 55.8491C84.0898 55.8491 82.3809 56.3374 80.6475 57.314C78.9385 58.2661 76.9976 59.6821 74.8247 61.562L66.8779 52.2603C69.6367 49.7944 71.9561 48.0366 73.8359 46.9868C75.7158 45.9126 77.7544 45.0947 79.9517 44.5332C82.1733 43.9717 84.6636 43.6909 87.4224 43.6909C90.8892 43.6909 93.9775 44.3013 96.6875 45.522C99.4219 46.7427 101.534 48.4883 103.023 50.7588C104.537 53.0049 105.293 55.5317 105.293 58.3394C105.293 60.439 105.025 62.3799 104.488 64.1621C103.975 65.9443 103.169 67.7021 102.071 69.4355C100.972 71.1445 99.5073 72.9512 97.6763 74.8555C95.8696 76.7598 92 80.373 86.0674 85.6953V86.0615H106.319V98ZM129.742 62.917C132.818 62.917 135.589 63.6372 138.055 65.0776C140.545 66.4937 142.474 68.5078 143.841 71.1201C145.232 73.7324 145.928 76.7476 145.928 80.1655C145.928 86.147 144.122 90.7368 140.508 93.9351C136.919 97.1333 131.475 98.7324 124.175 98.7324C117.925 98.7324 112.823 97.7681 108.868 95.8394V83.9741C110.992 84.9507 113.384 85.7563 116.045 86.3911C118.731 87.0259 121.038 87.3433 122.967 87.3433C125.652 87.3433 127.715 86.7817 129.156 85.6587C130.596 84.5112 131.316 82.8267 131.316 80.605C131.316 78.5542 130.584 76.9551 129.119 75.8076C127.654 74.6602 125.433 74.0864 122.454 74.0864C120.184 74.0864 117.73 74.5137 115.093 75.3682L109.783 72.7314L111.797 44.46H142.339V56.5083H124.102L123.443 63.5762C125.347 63.21 126.702 63.0146 127.508 62.9902C128.313 62.9414 129.058 62.917 129.742 62.917Z" fill="url(#paint3_linear)"/>
<defs>
<linearGradient id="paint0_linear" x1="107.634" y1="0.0203" x2="107.634" y2="135.813" gradientUnits="userSpaceOnUse">
<stop stop-color="#D5D5D0"/>
<stop offset="0.1161" stop-color="#E0E0DA"/>
<stop offset="0.3441" stop-color="#EFEFE7"/>
<stop offset="0.6097" stop-color="#F8F8EF"/>
<stop offset="1" stop-color="#FBFBF1"/>
</linearGradient>
<linearGradient id="paint1_linear" x1="108.089" y1="-58.6198" x2="108.089" y2="135.813" gradientUnits="userSpaceOnUse">
<stop stop-color="#D5D5D0"/>
<stop offset="0.1161" stop-color="#E0E0DA"/>
<stop offset="0.3441" stop-color="#EFEFE7"/>
<stop offset="0.6097" stop-color="#F8F8EF"/>
<stop offset="1" stop-color="#FBFBF1"/>
</linearGradient>
<linearGradient id="paint2_linear" x1="107.634" y1="194.454" x2="107.634" y2="0.0209994" gradientUnits="userSpaceOnUse">
<stop stop-color="#D5D5D0"/>
<stop offset="0.1161" stop-color="#E0E0DA"/>
<stop offset="0.3441" stop-color="#EFEFE7"/>
<stop offset="0.6097" stop-color="#F8F8EF"/>
<stop offset="1" stop-color="#FBFBF1"/>
</linearGradient>
<linearGradient id="paint3_linear" x1="101.749" y1="3.57429" x2="103.218" y2="134.415" gradientUnits="userSpaceOnUse">
<stop stop-color="#D91B24"/>
<stop offset="1" stop-color="#393C5A"/>
</linearGradient>
</defs>
</svg>
