<svg width="215" height="136" viewBox="0 0 215 136" fill="none" xmlns="http://www.w3.org/2000/svg">
<path d="M213.7 0H1V135.8H213.7V0Z" fill="url(#paint0_linear)"/>
<path opacity="0.0163934" d="M0.5 131.3C0.5 131.3 0.5 122.8 9 116.2C17.5 109.6 92.4 62.6002 95.7 60.7002C98.5 59.2002 105.3 56.7002 106.9 56.7002C108.6 56.7002 115.4 59.2002 118.1 60.7002C121.4 62.5002 196.4 109.6 204.8 116.2C213.3 122.8 213.3 131.3 213.3 131.3H0.5Z" fill="#FEFEFE"/>
<path opacity="0.0327869" d="M0.5 131.4C0.5 131.4 0.5 122.9 9 116.3C17.5 109.7 92.4 62.6998 95.7 60.7998C98.5 59.2998 105.3 56.7998 106.9 56.7998C108.6 56.7998 115.4 59.2998 118.1 60.7998C121.4 62.5998 196.4 109.7 204.8 116.3C213.3 122.9 213.3 131.4 213.3 131.4H0.5Z" fill="#FDFDFD"/>
<path opacity="0.0491803" d="M0.599976 131.5C0.599976 131.5 0.599976 123 9.09998 116.4C17.6 109.8 92.5 62.8004 95.8 60.9004C98.6 59.4004 105.4 56.9004 107 56.9004C108.7 56.9004 115.5 59.4004 118.2 60.9004C121.5 62.7004 196.5 109.8 204.9 116.4C213.4 123 213.4 131.5 213.4 131.5H0.599976Z" fill="#FCFCFC"/>
<path opacity="0.0655738" d="M0.599976 131.6C0.599976 131.6 0.599976 123.1 9.09998 116.5C17.6 109.9 92.5 62.9 95.8 61C98.6 59.5 105.4 57 107 57C108.7 57 115.5 59.5 118.2 61C121.5 62.8 196.5 109.9 204.9 116.5C213.4 123.1 213.4 131.6 213.4 131.6H0.599976Z" fill="#FBFBFB"/>
<path opacity="0.0819672" d="M0.599976 131.6C0.599976 131.6 0.599976 123.1 9.09998 116.5C17.6 109.9 92.5 62.9 95.8 61C98.6 59.5 105.4 57 107 57C108.7 57 115.5 59.5 118.2 61C121.5 62.8 196.5 109.9 204.9 116.5C213.4 123.1 213.4 131.6 213.4 131.6H0.599976Z" fill="#FAFAFA"/>
<path opacity="0.0983607" d="M0.599976 131.7C0.599976 131.7 0.599976 123.2 9.09998 116.6C17.6 110 92.5 62.9996 95.8 61.0996C98.6 59.5996 105.4 57.0996 107 57.0996C108.7 57.0996 115.5 59.5996 118.2 61.0996C121.5 62.8996 196.5 110 204.9 116.6C213.4 123.2 213.4 131.7 213.4 131.7H0.599976Z" fill="#F9F9F9"/>
<path opacity="0.1148" d="M0.599976 131.8C0.599976 131.8 0.599976 123.3 9.09998 116.7C17.6 110.1 92.5 63.1002 95.8 61.2002C98.6 59.7002 105.4 57.2002 107 57.2002C108.7 57.2002 115.5 59.7002 118.2 61.2002C121.5 63.0002 196.5 110.1 204.9 116.7C213.4 123.3 213.4 131.8 213.4 131.8H0.599976Z" fill="#F8F8F8"/>
<path opacity="0.1311" d="M0.599976 131.9C0.599976 131.9 0.599976 123.4 9.09998 116.8C17.6 110.2 92.5 63.1998 95.8 61.2998C98.6 59.7998 105.4 57.2998 107 57.2998C108.7 57.2998 115.5 59.7998 118.2 61.2998C121.5 63.0998 196.5 110.2 204.9 116.8C213.4 123.4 213.4 131.9 213.4 131.9H0.599976Z" fill="#F7F7F7"/>
<path opacity="0.1475" d="M0.599976 131.9C0.599976 131.9 0.599976 123.4 9.09998 116.8C17.6 110.2 92.5 63.1998 95.8 61.2998C98.6 59.7998 105.4 57.2998 107 57.2998C108.7 57.2998 115.5 59.7998 118.2 61.2998C121.5 63.0998 196.5 110.2 204.9 116.8C213.4 123.4 213.4 131.9 213.4 131.9H0.599976Z" fill="#F6F6F6"/>
<path opacity="0.1639" d="M0.699951 132C0.699951 132 0.699951 123.5 9.19995 116.9C17.7 110.3 92.6 63.3004 95.9 61.4004C98.7 59.9004 105.5 57.4004 107.1 57.4004C108.8 57.4004 115.6 59.9004 118.3 61.4004C121.6 63.2004 196.6 110.3 205 116.9C213.5 123.5 213.5 132 213.5 132H0.699951Z" fill="#F5F5F5"/>
<path opacity="0.1803" d="M0.699951 132.1C0.699951 132.1 0.699951 123.6 9.19995 117C17.7 110.4 92.6 63.4 95.9 61.5C98.7 60 105.5 57.5 107.1 57.5C108.8 57.5 115.6 60 118.3 61.5C121.6 63.3 196.6 110.4 205 117C213.5 123.6 213.5 132.1 213.5 132.1H0.699951Z" fill="#F4F4F4"/>
<path opacity="0.1967" d="M0.699951 132.2C0.699951 132.2 0.699951 123.7 9.19995 117.1C17.7 110.5 92.6 63.4996 95.9 61.5996C98.7 60.0996 105.5 57.5996 107.1 57.5996C108.8 57.5996 115.6 60.0996 118.3 61.5996C121.6 63.3996 196.6 110.5 205 117.1C213.5 123.7 213.5 132.2 213.5 132.2H0.699951Z" fill="#F3F3F3"/>
<path opacity="0.2131" d="M0.699951 132.2C0.699951 132.2 0.699951 123.7 9.19995 117.1C17.7 110.5 92.6 63.4996 95.9 61.5996C98.7 60.0996 105.5 57.5996 107.1 57.5996C108.8 57.5996 115.6 60.0996 118.3 61.5996C121.6 63.3996 196.6 110.5 205 117.1C213.5 123.7 213.5 132.2 213.5 132.2H0.699951Z" fill="#F2F2F3"/>
<path opacity="0.2295" d="M0.699951 132.3C0.699951 132.3 0.699951 123.8 9.19995 117.2C17.7 110.6 92.6 63.6002 95.9 61.7002C98.7 60.2002 105.5 57.7002 107.1 57.7002C108.8 57.7002 115.6 60.2002 118.3 61.7002C121.6 63.5002 196.6 110.6 205 117.2C213.5 123.8 213.5 132.3 213.5 132.3H0.699951Z" fill="#F1F1F2"/>
<path opacity="0.2459" d="M0.699951 132.4C0.699951 132.4 0.699951 123.9 9.19995 117.3C17.7 110.7 92.6 63.6998 95.9 61.7998C98.7 60.2998 105.5 57.7998 107.1 57.7998C108.8 57.7998 115.6 60.2998 118.3 61.7998C121.6 63.5998 196.6 110.7 205 117.3C213.5 123.9 213.5 132.4 213.5 132.4H0.699951Z" fill="#F0F0F1"/>
<path opacity="0.2623" d="M0.699951 132.5C0.699951 132.5 0.699951 124 9.19995 117.4C17.7 110.8 92.6 63.8004 95.9 61.9004C98.7 60.4004 105.5 57.9004 107.1 57.9004C108.8 57.9004 115.6 60.4004 118.3 61.9004C121.6 63.7004 196.6 110.8 205 117.4C213.5 124 213.5 132.5 213.5 132.5H0.699951Z" fill="#EFF0F0"/>
<path opacity="0.2787" d="M0.800049 132.5C0.800049 132.5 0.800049 124 9.30005 117.4C17.8 110.8 92.7 63.8004 96 61.9004C98.8 60.4004 105.6 57.9004 107.2 57.9004C108.9 57.9004 115.7 60.4004 118.4 61.9004C121.7 63.7004 196.7 110.8 205.1 117.4C213.6 124 213.6 132.5 213.6 132.5H0.800049Z" fill="#EEEFEF"/>
<path opacity="0.2951" d="M0.800049 132.6C0.800049 132.6 0.800049 124.1 9.30005 117.5C17.8 110.9 92.7 63.9 96 62C98.8 60.5 105.6 58 107.2 58C108.9 58 115.7 60.5 118.4 62C121.7 63.8 196.7 110.9 205.1 117.5C213.6 124.1 213.6 132.6 213.6 132.6H0.800049Z" fill="#EDEEEE"/>
<path opacity="0.3115" d="M0.800049 132.7C0.800049 132.7 0.800049 124.2 9.30005 117.6C17.8 111 92.7 63.9996 96 62.0996C98.8 60.5996 105.6 58.0996 107.2 58.0996C108.9 58.0996 115.7 60.5996 118.4 62.0996C121.7 63.8996 196.7 111 205.1 117.6C213.6 124.2 213.6 132.7 213.6 132.7H0.800049Z" fill="#ECEDED"/>
<path opacity="0.3279" d="M0.800049 132.8C0.800049 132.8 0.800049 124.3 9.30005 117.7C17.8 111.1 92.7 64.1002 96 62.2002C98.8 60.7002 105.6 58.2002 107.2 58.2002C108.9 58.2002 115.7 60.7002 118.4 62.2002C121.7 64.0002 196.7 111.1 205.1 117.7C213.6 124.3 213.6 132.8 213.6 132.8H0.800049Z" fill="#EBECEC"/>
<path opacity="0.3443" d="M0.800049 132.8C0.800049 132.8 0.800049 124.3 9.30005 117.7C17.8 111.1 92.7 64.1002 96 62.2002C98.8 60.7002 105.6 58.2002 107.2 58.2002C108.9 58.2002 115.7 60.7002 118.4 62.2002C121.7 64.0002 196.7 111.1 205.1 117.7C213.6 124.3 213.6 132.8 213.6 132.8H0.800049Z" fill="#EAEBEB"/>
<path opacity="0.3607" d="M0.800049 132.9C0.800049 132.9 0.800049 124.4 9.30005 117.8C17.8 111.2 92.7 64.1998 96 62.2998C98.8 60.7998 105.6 58.2998 107.2 58.2998C108.9 58.2998 115.7 60.7998 118.4 62.2998C121.7 64.0998 196.7 111.2 205.1 117.8C213.6 124.4 213.6 132.9 213.6 132.9H0.800049Z" fill="#E9EAEA"/>
<path opacity="0.377" d="M0.900024 133C0.900024 133 0.900024 124.5 9.40002 117.9C17.9 111.3 92.8 64.3004 96.1 62.4004C98.9 60.9004 105.7 58.4004 107.3 58.4004C109 58.4004 115.8 60.9004 118.5 62.4004C121.8 64.2004 196.8 111.3 205.2 117.9C213.7 124.5 213.7 133 213.7 133H0.900024Z" fill="#E9E9E9"/>
<path opacity="0.3934" d="M0.900024 133.1C0.900024 133.1 0.900024 124.6 9.40002 118C17.9 111.4 92.8 64.4 96.1 62.5C98.9 61 105.7 58.5 107.3 58.5C109 58.5 115.8 61 118.5 62.5C121.8 64.3 196.8 111.4 205.2 118C213.7 124.6 213.7 133.1 213.7 133.1H0.900024Z" fill="#E8E8E8"/>
<path opacity="0.4098" d="M0.900024 133.1C0.900024 133.1 0.900024 124.6 9.40002 118C17.9 111.4 92.8 64.4 96.1 62.5C98.9 61 105.7 58.5 107.3 58.5C109 58.5 115.8 61 118.5 62.5C121.8 64.3 196.8 111.4 205.2 118C213.7 124.6 213.7 133.1 213.7 133.1H0.900024Z" fill="#E7E7E7"/>
<path opacity="0.4262" d="M0.900024 133.2C0.900024 133.2 0.900024 124.7 9.40002 118.1C17.9 111.5 92.8 64.4996 96.1 62.5996C98.9 61.0996 105.7 58.5996 107.3 58.5996C109 58.5996 115.8 61.0996 118.5 62.5996C121.8 64.3996 196.8 111.5 205.2 118.1C213.7 124.7 213.7 133.2 213.7 133.2H0.900024Z" fill="#E6E6E6"/>
<path opacity="0.4426" d="M0.900024 133.3C0.900024 133.3 0.900024 124.8 9.40002 118.2C17.9 111.6 92.8 64.6002 96.1 62.7002C98.9 61.2002 105.7 58.7002 107.3 58.7002C109 58.7002 115.8 61.2002 118.5 62.7002C121.8 64.5002 196.8 111.6 205.2 118.2C213.7 124.8 213.7 133.3 213.7 133.3H0.900024Z" fill="#E5E5E5"/>
<path opacity="0.459" d="M0.900024 133.4C0.900024 133.4 0.900024 124.9 9.40002 118.3C17.9 111.7 92.8 64.6998 96.1 62.7998C98.9 61.2998 105.7 58.7998 107.3 58.7998C109 58.7998 115.8 61.2998 118.5 62.7998C121.8 64.5998 196.8 111.7 205.2 118.3C213.7 124.9 213.7 133.4 213.7 133.4H0.900024Z" fill="#E4E4E4"/>
<path opacity="0.4754" d="M0.900024 133.4C0.900024 133.4 0.900024 124.9 9.40002 118.3C17.9 111.7 92.8 64.6998 96.1 62.7998C98.9 61.2998 105.7 58.7998 107.3 58.7998C109 58.7998 115.8 61.2998 118.5 62.7998C121.8 64.5998 196.8 111.7 205.2 118.3C213.7 124.9 213.7 133.4 213.7 133.4H0.900024Z" fill="#E3E3E3"/>
<path opacity="0.4918" d="M1 133.5C1 133.5 1 125 9.5 118.4C18 111.8 92.9 64.8004 96.2 62.9004C99 61.4004 105.8 58.9004 107.4 58.9004C109.1 58.9004 115.9 61.4004 118.6 62.9004C121.9 64.7004 196.9 111.8 205.3 118.4C213.8 125 213.8 133.5 213.8 133.5H1Z" fill="#E2E2E2"/>
<path opacity="0.5082" d="M1 133.6C1 133.6 1 125.1 9.5 118.5C18 111.9 92.9 64.9 96.2 63C99 61.5 105.8 59 107.4 59C109.1 59 115.9 61.5 118.6 63C121.9 64.8 196.9 111.9 205.3 118.5C213.8 125.1 213.8 133.6 213.8 133.6H1Z" fill="#E1E1E1"/>
<path opacity="0.5246" d="M1 133.6C1 133.6 1 125.1 9.5 118.5C18 111.9 92.9 64.9 96.2 63C99 61.5 105.8 59 107.4 59C109.1 59 115.9 61.5 118.6 63C121.9 64.8 196.9 111.9 205.3 118.5C213.8 125.1 213.8 133.6 213.8 133.6H1Z" fill="#E0E0E0"/>
<path opacity="0.541" d="M1 133.7C1 133.7 1 125.2 9.5 118.6C18 112 92.9 64.9996 96.2 63.0996C99 61.5996 105.8 59.0996 107.4 59.0996C109.1 59.0996 115.9 61.5996 118.6 63.0996C121.9 64.8996 196.9 112 205.3 118.6C213.8 125.2 213.8 133.7 213.8 133.7H1Z" fill="#DFDFDF"/>
<path opacity="0.5574" d="M1 133.8C1 133.8 1 125.3 9.5 118.7C18 112.1 92.9 65.1002 96.2 63.2002C99 61.7002 105.8 59.2002 107.4 59.2002C109.1 59.2002 115.9 61.7002 118.6 63.2002C121.9 65.0002 196.9 112.1 205.3 118.7C213.8 125.3 213.8 133.8 213.8 133.8H1Z" fill="#DEDEDE"/>
<path opacity="0.5738" d="M1 133.9C1 133.9 1 125.4 9.5 118.8C18 112.2 92.9 65.1998 96.2 63.2998C99 61.7998 105.8 59.2998 107.4 59.2998C109.1 59.2998 115.9 61.7998 118.6 63.2998C121.9 65.0998 196.9 112.2 205.3 118.8C213.8 125.4 213.8 133.9 213.8 133.9H1Z" fill="#DDDDDD"/>
<path opacity="0.5902" d="M1 133.9C1 133.9 1 125.4 9.5 118.8C18 112.2 92.9 65.1998 96.2 63.2998C99 61.7998 105.8 59.2998 107.4 59.2998C109.1 59.2998 115.9 61.7998 118.6 63.2998C121.9 65.0998 196.9 112.2 205.3 118.8C213.8 125.4 213.8 133.9 213.8 133.9H1Z" fill="#DCDCDC"/>
<path opacity="0.6066" d="M1.09998 134C1.09998 134 1.09998 125.5 9.59998 118.9C18.1 112.3 93 65.3004 96.3 63.4004C99.1 61.9004 105.9 59.4004 107.5 59.4004C109.2 59.4004 116 61.9004 118.7 63.4004C122 65.2004 197 112.3 205.4 118.9C213.8 125.5 213.8 134 213.8 134H1.09998Z" fill="#DBDBDB"/>
<path opacity="0.623" d="M1.09998 134.1C1.09998 134.1 1.09998 125.6 9.59998 119C18.1 112.4 93 65.4 96.3 63.5C99.1 62 105.9 59.5 107.5 59.5C109.2 59.5 116 62 118.7 63.5C122 65.3 197 112.4 205.4 119C213.8 125.6 213.8 134.1 213.8 134.1H1.09998Z" fill="#DADADA"/>
<path opacity="0.6393" d="M1.09998 134.2C1.09998 134.2 1.09998 125.7 9.59998 119.1C18.1 112.5 93 65.4996 96.3 63.5996C99.1 62.0996 105.9 59.5996 107.5 59.5996C109.2 59.5996 116 62.0996 118.7 63.5996C122 65.3996 197 112.5 205.4 119.1C213.8 125.7 213.8 134.2 213.8 134.2H1.09998Z" fill="#D9D9DA"/>
<path opacity="0.6557" d="M1.09998 134.2C1.09998 134.2 1.09998 125.7 9.59998 119.1C18.1 112.5 93 65.4996 96.3 63.5996C99.1 62.0996 105.9 59.5996 107.5 59.5996C109.2 59.5996 116 62.0996 118.7 63.5996C122 65.3996 197 112.5 205.4 119.1C213.8 125.7 213.8 134.2 213.8 134.2H1.09998Z" fill="#D8D8D9"/>
<path opacity="0.6721" d="M1.09998 134.3C1.09998 134.3 1.09998 125.8 9.59998 119.2C18.1 112.6 93 65.6002 96.3 63.7002C99.1 62.2002 105.9 59.7002 107.5 59.7002C109.2 59.7002 116 62.2002 118.7 63.7002C122 65.5002 197 112.6 205.4 119.2C213.8 125.8 213.8 134.3 213.8 134.3H1.09998Z" fill="#D7D7D8"/>
<path opacity="0.6885" d="M1.09998 134.4C1.09998 134.4 1.09998 125.9 9.59998 119.3C18.1 112.7 93 65.6998 96.3 63.7998C99.1 62.2998 105.9 59.7998 107.5 59.7998C109.2 59.7998 116 62.2998 118.7 63.7998C122 65.5998 197 112.7 205.4 119.3C213.8 125.9 213.8 134.4 213.8 134.4H1.09998Z" fill="#D6D6D7"/>
<path opacity="0.7049" d="M1.09998 134.5C1.09998 134.5 1.09998 126 9.59998 119.4C18.1 112.8 93 65.8004 96.3 63.9004C99.1 62.4004 105.9 59.9004 107.5 59.9004C109.2 59.9004 116 62.4004 118.7 63.9004C122 65.7004 197 112.8 205.4 119.4C213.8 126 213.8 134.5 213.8 134.5H1.09998Z" fill="#D5D5D6"/>
<path opacity="0.7213" d="M1.19995 134.5C1.19995 134.5 1.19995 126 9.69995 119.4C18.2 112.8 93.1 65.8004 96.4 63.9004C99.2 62.4004 106 59.9004 107.6 59.9004C109.3 59.9004 116.1 62.4004 118.8 63.9004C122.1 65.7004 197.1 112.8 205.5 119.4C213.9 126 213.9 134.5 213.9 134.5H1.19995Z" fill="#D4D4D5"/>
<path opacity="0.7377" d="M1.19995 134.6C1.19995 134.6 1.19995 126.1 9.69995 119.5C18.2 112.9 93.1 65.9 96.4 64C99.2 62.5 106 60 107.6 60C109.3 60 116.1 62.5 118.8 64C122.1 65.8 197.1 112.9 205.5 119.5C213.9 126.1 213.9 134.6 213.9 134.6H1.19995Z" fill="#D3D3D4"/>
<path opacity="0.7541" d="M1.19995 134.7C1.19995 134.7 1.19995 126.2 9.69995 119.6C18.2 113 93.1 65.9996 96.4 64.0996C99.2 62.5996 106 60.0996 107.6 60.0996C109.3 60.0996 116.1 62.5996 118.8 64.0996C122.1 65.8996 197.1 113 205.5 119.6C213.9 126.2 213.9 134.7 213.9 134.7H1.19995Z" fill="#D2D2D3"/>
<path opacity="0.7705" d="M1.19995 134.8C1.19995 134.8 1.19995 126.3 9.69995 119.7C18.2 113.1 93.1 66.1002 96.4 64.2002C99.2 62.7002 106 60.2002 107.6 60.2002C109.3 60.2002 116.1 62.7002 118.8 64.2002C122.1 66.0002 197.1 113.1 205.5 119.7C213.9 126.3 213.9 134.8 213.9 134.8H1.19995Z" fill="#D1D2D2"/>
<path opacity="0.7869" d="M1.19995 134.8C1.19995 134.8 1.19995 126.3 9.69995 119.7C18.2 113.1 93.1 66.1002 96.4 64.2002C99.2 62.7002 106 60.2002 107.6 60.2002C109.3 60.2002 116.1 62.7002 118.8 64.2002C122.1 66.0002 197.1 113.1 205.5 119.7C213.9 126.3 213.9 134.8 213.9 134.8H1.19995Z" fill="#D0D1D1"/>
<path opacity="0.8033" d="M1.19995 134.9C1.19995 134.9 1.19995 126.4 9.69995 119.8C18.2 113.2 93.1 66.1998 96.4 64.2998C99.2 62.7998 106 60.2998 107.6 60.2998C109.3 60.2998 116.1 62.7998 118.8 64.2998C122.1 66.0998 197.1 113.2 205.5 119.8C213.9 126.4 213.9 134.9 213.9 134.9H1.19995Z" fill="#CFD0D0"/>
<path opacity="0.8197" d="M1.30005 135C1.30005 135 1.30005 126.5 9.80005 119.9C18.3 113.3 93.2 66.3004 96.5 64.4004C99.3 62.9004 106.1 60.4004 107.7 60.4004C109.4 60.4004 116.2 62.9004 118.9 64.4004C122.2 66.2004 197.2 113.3 205.6 119.9C214 126.5 214 135 214 135H1.30005Z" fill="#CECFCF"/>
<path opacity="0.8361" d="M1.30005 135.1C1.30005 135.1 1.30005 126.6 9.80005 120C18.3 113.4 93.2 66.4 96.5 64.5C99.3 63 106.1 60.5 107.7 60.5C109.4 60.5 116.2 63 118.9 64.5C122.2 66.3 197.2 113.4 205.6 120C214 126.6 214 135.1 214 135.1H1.30005Z" fill="#CDCECE"/>
<path opacity="0.8525" d="M1.30005 135.1C1.30005 135.1 1.30005 126.6 9.80005 120C18.3 113.4 93.2 66.4 96.5 64.5C99.3 63 106.1 60.5 107.7 60.5C109.4 60.5 116.2 63 118.9 64.5C122.2 66.3 197.2 113.4 205.6 120C214 126.6 214 135.1 214 135.1H1.30005Z" fill="#CCCDCD"/>
<path opacity="0.8689" d="M1.30005 135.2C1.30005 135.2 1.30005 126.7 9.80005 120.1C18.3 113.5 93.2 66.4996 96.5 64.5996C99.3 63.0996 106.1 60.5996 107.7 60.5996C109.4 60.5996 116.2 63.0996 118.9 64.5996C122.2 66.3996 197.2 113.5 205.6 120.1C214 126.7 214 135.2 214 135.2H1.30005Z" fill="#CBCCCC"/>
<path opacity="0.8852" d="M1.30005 135.3C1.30005 135.3 1.30005 126.8 9.80005 120.2C18.3 113.6 93.2 66.6002 96.5 64.7002C99.3 63.2002 106.1 60.7002 107.7 60.7002C109.4 60.7002 116.2 63.2002 118.9 64.7002C122.2 66.5002 197.2 113.6 205.6 120.2C214 126.8 214 135.3 214 135.3H1.30005Z" fill="#CACBCB"/>
<path opacity="0.9016" d="M1.30005 135.4C1.30005 135.4 1.30005 126.9 9.80005 120.3C18.3 113.7 93.2 66.6998 96.5 64.7998C99.3 63.2998 106.1 60.7998 107.7 60.7998C109.4 60.7998 116.2 63.2998 118.9 64.7998C122.2 66.5998 197.2 113.7 205.6 120.3C214 126.9 214 135.4 214 135.4H1.30005Z" fill="#C9CACA"/>
<path opacity="0.918" d="M1.30005 135.4C1.30005 135.4 1.30005 126.9 9.80005 120.3C18.3 113.7 93.2 66.6998 96.5 64.7998C99.3 63.2998 106.1 60.7998 107.7 60.7998C109.4 60.7998 116.2 63.2998 118.9 64.7998C122.2 66.5998 197.2 113.7 205.6 120.3C214 126.9 214 135.4 214 135.4H1.30005Z" fill="#C8C9C9"/>
<path opacity="0.9344" d="M1.40002 135.5C1.40002 135.5 1.40002 127 9.90002 120.4C18.4 113.8 93.3 66.8004 96.6 64.9004C99.4 63.4004 106.2 60.9004 107.8 60.9004C109.5 60.9004 116.3 63.4004 119 64.9004C122.3 66.7004 197.3 113.8 205.7 120.4C214.1 127 214.1 135.5 214.1 135.5H1.40002Z" fill="#C7C8C8"/>
<path opacity="0.9508" d="M1.40002 135.6C1.40002 135.6 1.40002 127.1 9.90002 120.5C18.4 113.9 93.3 66.9 96.6 65C99.4 63.5 106.2 61 107.8 61C109.5 61 116.3 63.5 119 65C122.3 66.8 197.3 113.9 205.7 120.5C214.1 127.1 214.1 135.6 214.1 135.6H1.40002Z" fill="#C6C7C7"/>
<path opacity="0.9672" d="M1.40002 135.7C1.40002 135.7 1.40002 127.2 9.90002 120.6C18.4 114 93.3 66.9996 96.6 65.0996C99.4 63.5996 106.2 61.0996 107.8 61.0996C109.5 61.0996 116.3 63.5996 119 65.0996C122.3 66.8996 197.3 114 205.7 120.6C214.1 127.2 214.1 135.7 214.1 135.7H1.40002Z" fill="#C5C6C6"/>
<path opacity="0.9836" d="M1.40002 135.7C1.40002 135.7 1.40002 127.2 9.90002 120.6C18.4 114 93.3 66.9996 96.6 65.0996C99.4 63.5996 106.2 61.0996 107.8 61.0996C109.5 61.0996 116.3 63.5996 119 65.0996C122.3 66.8996 197.3 114 205.7 120.6C214.1 127.2 214.1 135.7 214.1 135.7H1.40002Z" fill="#C4C5C5"/>
<path d="M1.40002 135.8C1.40002 135.8 1.40002 127.3 9.90002 120.7C18.4 114.1 93.3 67.1002 96.6 65.2002C99.4 63.7002 106.2 61.2002 107.8 61.2002C109.5 61.2002 116.3 63.7002 119 65.2002C122.3 67.0002 197.3 114.1 205.7 120.7C214.1 127.3 214.1 135.8 214.1 135.8H1.40002Z" fill="#B0B0B0"/>
<path d="M1.40002 135.8C1.40002 135.8 1.40002 127.3 9.90002 120.7C18.4 114.1 93.3 67.1002 96.6 65.2002C99.4 63.7002 104.2 61.2002 107.8 61.2002C111.4 61.2002 116.3 63.7002 119 65.2002C122.3 67.0002 197.3 114.1 205.7 120.7C214.1 127.3 214.1 135.8 214.1 135.8H1.40002Z" fill="url(#paint1_linear)"/>
<path opacity="0.0163934" d="M214.6 4.5C214.6 4.5 214.6 19 206.1 26.2C197.6 33.4 122.7 80.8 119.4 82.8C116.6 84.5 109.8 87.2 108.2 87.2C106.5 87.2 99.7 84.5 97 82.8C93.7 80.8 18.7 33.4 10.3 26.2C1.80005 19 1.80005 4.5 1.80005 4.5H214.6Z" fill="#FEFEFE"/>
<path opacity="0.0327869" d="M214.6 4.40039C214.6 4.40039 214.6 18.8004 206.1 26.0004C197.6 33.2004 122.7 80.6004 119.4 82.6004C116.6 84.3004 109.8 86.9004 108.2 86.9004C106.5 86.9004 99.7 84.2004 97 82.6004C93.7 80.6004 18.7 33.2004 10.3 26.0004C1.80005 18.8004 1.80005 4.40039 1.80005 4.40039H214.6Z" fill="#FDFDFD"/>
<path opacity="0.0491803" d="M214.6 4.40039C214.6 4.40039 214.6 18.7004 206.1 25.9004C197.6 33.1004 122.7 80.5004 119.4 82.5004C116.6 84.2004 109.8 86.8004 108.2 86.8004C106.5 86.8004 99.7 84.1004 97 82.5004C93.7 80.5004 18.7 33.1004 10.3 25.9004C1.80005 18.7004 1.80005 4.40039 1.80005 4.40039H214.6Z" fill="#FCFCFC"/>
<path opacity="0.0655738" d="M214.6 4.2998C214.6 4.2998 214.6 18.4998 206.1 25.6998C197.6 32.7998 122.7 80.2998 119.4 82.2998C116.6 83.9998 109.8 86.5998 108.2 86.5998C106.5 86.5998 99.7 83.8998 97 82.2998C93.7 80.2998 18.7 32.8998 10.3 25.6998C1.80005 18.4998 1.80005 4.2998 1.80005 4.2998H214.6Z" fill="#FBFBFB"/>
<path opacity="0.0819672" d="M214.5 4.2002C214.5 4.2002 214.5 18.3002 206 25.5002C197.5 32.6002 122.6 80.1002 119.3 82.0002C116.5 83.7002 109.7 86.3002 108.1 86.3002C106.4 86.3002 99.6 83.6002 96.9 82.0002C93.6 80.0002 18.6 32.6002 10.2 25.5002C1.69995 18.4002 1.69995 4.2002 1.69995 4.2002H214.5Z" fill="#FAFAFA"/>
<path opacity="0.0983607" d="M214.5 4.09961C214.5 4.09961 214.5 18.0996 206 25.2996C197.5 32.3996 122.6 79.7996 119.3 81.7996C116.5 83.3996 109.7 86.0996 108.1 86.0996C106.4 86.0996 99.6 83.3996 96.9 81.7996C93.6 79.7996 18.6 32.3996 10.2 25.2996C1.69995 18.1996 1.69995 4.09961 1.69995 4.09961H214.5Z" fill="#F9F9F9"/>
<path opacity="0.1148" d="M214.5 4.09961C214.5 4.09961 214.5 17.9996 206 25.1996C197.5 32.2996 122.6 79.6996 119.3 81.6996C116.5 83.2996 109.7 85.9996 108.1 85.9996C106.4 85.9996 99.6 83.2996 96.9 81.6996C93.6 79.6996 18.6 32.2996 10.2 25.1996C1.69995 18.0996 1.69995 4.09961 1.69995 4.09961H214.5Z" fill="#F8F8F8"/>
<path opacity="0.1311" d="M214.5 4C214.5 4 214.5 17.8 206 24.9C197.5 32 122.6 79.4 119.3 81.4C116.5 83 109.7 85.7 108.1 85.7C106.4 85.7 99.6 83 96.9 81.4C93.6 79.4 18.6 32 10.2 24.9C1.69995 17.8 1.69995 4 1.69995 4H214.5Z" fill="#F7F7F7"/>
<path opacity="0.1475" d="M214.5 3.90039C214.5 3.90039 214.5 17.6004 206 24.7004C197.5 31.8004 122.6 79.2004 119.3 81.2004C116.5 82.8004 109.7 85.5004 108.1 85.5004C106.4 85.5004 99.6 82.8004 96.9 81.2004C93.6 79.2004 18.6 31.8004 10.2 24.7004C1.69995 17.6004 1.69995 3.90039 1.69995 3.90039H214.5Z" fill="#F6F6F6"/>
<path opacity="0.1639" d="M214.5 3.7998C214.5 3.7998 214.5 17.3998 206 24.4998C197.5 31.5998 122.6 78.9998 119.3 80.8998C116.5 82.4998 109.7 85.1998 108.1 85.1998C106.4 85.1998 99.6 82.4998 96.9 80.8998C93.6 78.8998 18.6 31.4998 10.2 24.4998C1.69995 17.3998 1.69995 3.7998 1.69995 3.7998H214.5Z" fill="#F5F5F5"/>
<path opacity="0.1803" d="M214.5 3.7998C214.5 3.7998 214.5 17.2998 206 24.3998C197.5 31.4998 122.6 78.8998 119.3 80.7998C116.5 82.3998 109.7 85.0998 108.1 85.0998C106.4 85.0998 99.6 82.3998 96.9 80.7998C93.6 78.7998 18.6 31.4998 10.2 24.3998C1.69995 17.2998 1.69995 3.7998 1.69995 3.7998H214.5Z" fill="#F4F4F4"/>
<path opacity="0.1967" d="M214.4 3.7002C214.4 3.7002 214.4 17.1002 205.9 24.2002C197.4 31.3002 122.5 78.6002 119.2 80.6002C116.4 82.2002 109.6 84.9002 108 84.9002C106.3 84.9002 99.5 82.2002 96.8 80.6002C93.5 78.6002 18.5 31.3002 10.1 24.2002C1.59998 17.1002 1.59998 3.7002 1.59998 3.7002H214.4Z" fill="#F3F3F3"/>
<path opacity="0.2131" d="M214.4 3.59961C214.4 3.59961 214.4 16.8996 205.9 23.9996C197.4 31.0996 122.5 78.3996 119.2 80.3996C116.4 81.9996 109.6 84.6996 108 84.6996C106.3 84.6996 99.5 81.9996 96.8 80.3996C93.5 78.3996 18.5 31.0996 10.1 23.9996C1.59998 16.8996 1.59998 3.59961 1.59998 3.59961H214.4Z" fill="#F2F2F3"/>
<path opacity="0.2295" d="M214.4 3.5C214.4 3.5 214.4 16.7 205.9 23.8C197.4 30.9 122.5 78.2 119.2 80.2C116.4 81.8 109.6 84.5 108 84.5C106.3 84.5 99.5 81.8 96.8 80.2C93.5 78.2 18.5 30.9 10.1 23.8C1.59998 16.7 1.59998 3.5 1.59998 3.5H214.4Z" fill="#F1F1F2"/>
<path opacity="0.2459" d="M214.4 3.5C214.4 3.5 214.4 16.6 205.9 23.7C197.4 30.7 122.5 78.1 119.2 80.1C116.4 81.7 109.6 84.4 108 84.4C106.3 84.4 99.5 81.8 96.8 80.1C93.5 78.1 18.5 30.8 10.1 23.7C1.59998 16.7 1.59998 3.5 1.59998 3.5H214.4Z" fill="#F0F0F1"/>
<path opacity="0.2623" d="M214.4 3.40039C214.4 3.40039 214.4 16.4004 205.9 23.5004C197.4 30.5004 122.5 77.9004 119.2 79.8004C116.4 81.4004 109.6 84.1004 108 84.1004C106.3 84.1004 99.5 81.5004 96.8 79.8004C93.5 77.8004 18.5 30.5004 10.1 23.5004C1.59998 16.5004 1.59998 3.40039 1.59998 3.40039H214.4Z" fill="#EFF0F0"/>
<path opacity="0.2787" d="M214.4 3.2998C214.4 3.2998 214.4 16.1998 205.9 23.1998C197.4 30.1998 122.5 77.5998 119.2 79.4998C116.4 81.0998 109.6 83.7998 108 83.7998C106.3 83.7998 99.5 81.1998 96.8 79.4998C93.5 77.4998 18.5 30.1998 10.1 23.1998C1.59998 16.1998 1.59998 3.2998 1.59998 3.2998H214.4Z" fill="#EEEFEF"/>
<path opacity="0.2951" d="M214.3 3.2002C214.3 3.2002 214.3 16.0002 205.8 23.0002C197.3 30.0002 122.4 77.3002 119.1 79.3002C116.3 80.9002 109.5 83.6002 107.9 83.6002C106.2 83.6002 99.4 81.0002 96.7 79.3002C93.4 77.4002 18.4 30.0002 10 23.0002C1.5 16.0002 1.5 3.2002 1.5 3.2002H214.3Z" fill="#EDEEEE"/>
<path opacity="0.3115" d="M214.3 3.2002C214.3 3.2002 214.3 15.9002 205.8 22.9002C197.3 29.9002 122.4 77.2002 119.1 79.2002C116.3 80.8002 109.5 83.5002 107.9 83.5002C106.2 83.5002 99.4 80.9002 96.7 79.2002C93.4 77.3002 18.4 29.9002 10 22.9002C1.5 15.9002 1.5 3.2002 1.5 3.2002H214.3Z" fill="#ECEDED"/>
<path opacity="0.3279" d="M214.3 3.09961C214.3 3.09961 214.3 15.6996 205.8 22.6996C197.3 29.6996 122.4 76.9996 119.1 78.9996C116.3 80.5996 109.5 83.1996 107.9 83.1996C106.2 83.1996 99.4 80.5996 96.7 78.9996C93.4 77.0996 18.4 29.6996 10 22.6996C1.5 15.6996 1.5 3.09961 1.5 3.09961H214.3Z" fill="#EBECEC"/>
<path opacity="0.3443" d="M214.3 3C214.3 3 214.3 15.5 205.8 22.5C197.3 29.5 122.4 76.8 119.1 78.7C116.3 80.3 109.5 82.9 107.9 82.9C106.2 82.9 99.4 80.3 96.7 78.7C93.4 76.8 18.4 29.4 10 22.5C1.5 15.5 1.5 3 1.5 3H214.3Z" fill="#EAEBEB"/>
<path opacity="0.3607" d="M214.3 2.90039C214.3 2.90039 214.3 15.3004 205.8 22.3004C197.3 29.3004 122.4 76.6004 119.1 78.5004C116.3 80.1004 109.5 82.7004 107.9 82.7004C106.2 82.7004 99.4 80.1004 96.7 78.5004C93.4 76.6004 18.4 29.3004 10 22.3004C1.5 15.3004 1.5 2.90039 1.5 2.90039H214.3Z" fill="#E9EAEA"/>
<path opacity="0.377" d="M214.3 2.90039C214.3 2.90039 214.3 15.2004 205.8 22.2004C197.3 29.2004 122.4 76.5004 119.1 78.4004C116.3 80.0004 109.5 82.6004 107.9 82.6004C106.2 82.6004 99.4 80.0004 96.7 78.4004C93.4 76.5004 18.4 29.2004 10 22.2004C1.5 15.2004 1.5 2.90039 1.5 2.90039H214.3Z" fill="#E9E9E9"/>
<path opacity="0.3934" d="M214.3 2.7998C214.3 2.7998 214.3 14.9998 205.8 21.9998C197.3 28.9998 122.4 76.2998 119.1 78.1998C116.3 79.7998 109.5 82.3998 107.9 82.3998C106.2 82.3998 99.4 79.7998 96.7 78.1998C93.4 76.2998 18.4 28.9998 10 21.9998C1.5 14.9998 1.5 2.7998 1.5 2.7998H214.3Z" fill="#E8E8E8"/>
<path opacity="0.4098" d="M214.2 2.7002C214.2 2.7002 214.2 14.8002 205.7 21.8002C197.2 28.8002 122.3 76.0002 119 78.0002C116.2 79.6002 109.4 82.2002 107.8 82.2002C106.1 82.2002 99.3 79.6002 96.6 78.0002C93.3 76.1002 18.3 28.8002 9.90002 21.8002C1.40002 14.8002 1.40002 2.7002 1.40002 2.7002H214.2Z" fill="#E7E7E7"/>
<path opacity="0.4262" d="M214.2 2.59961C214.2 2.59961 214.2 14.5996 205.7 21.4996C197.2 28.3996 122.3 75.6996 119 77.5996C116.2 79.1996 109.4 81.7996 107.8 81.7996C106.1 81.7996 99.3 79.1996 96.6 77.5996C93.3 75.6996 18.3 28.3996 9.90002 21.4996C1.40002 14.5996 1.40002 2.59961 1.40002 2.59961H214.2Z" fill="#E6E6E6"/>
<path opacity="0.4426" d="M214.2 2.59961C214.2 2.59961 214.2 14.4996 205.7 21.3996C197.2 28.2996 122.3 75.5996 119 77.4996C116.2 79.0996 109.4 81.6996 107.8 81.6996C106.1 81.6996 99.3 79.0996 96.6 77.4996C93.3 75.5996 18.4 28.2996 9.90002 21.3996C1.40002 14.4996 1.40002 2.59961 1.40002 2.59961H214.2Z" fill="#E5E5E5"/>
<path opacity="0.459" d="M214.2 2.5C214.2 2.5 214.2 14.3 205.7 21.2C197.2 28.1 122.3 75.4 119 77.3C116.2 78.9 109.4 81.5 107.8 81.5C106.1 81.5 99.3 78.9 96.6 77.3C93.3 75.4 18.3 28.1 9.90002 21.2C1.40002 14.3 1.40002 2.5 1.40002 2.5H214.2Z" fill="#E4E4E4"/>
<path opacity="0.4754" d="M214.2 2.40039C214.2 2.40039 214.2 14.1004 205.7 21.0004C197.2 27.9004 122.3 75.2004 119 77.1004C116.2 78.7004 109.4 81.3004 107.8 81.3004C106.1 81.3004 99.3 78.7004 96.6 77.1004C93.3 75.2004 18.3 27.9004 9.90002 21.0004C1.40002 14.1004 1.40002 2.40039 1.40002 2.40039H214.2Z" fill="#E3E3E3"/>
<path opacity="0.4918" d="M214.2 2.2998C214.2 2.2998 214.2 13.8998 205.7 20.7998C197.2 27.6998 122.3 74.9998 119 76.8998C116.2 78.4998 109.4 81.0998 107.8 81.0998C106.1 81.0998 99.3 78.4998 96.6 76.8998C93.3 74.9998 18.3 27.6998 9.90002 20.7998C1.40002 13.8998 1.40002 2.2998 1.40002 2.2998H214.2Z" fill="#E2E2E2"/>
<path opacity="0.5082" d="M214.2 2.2998C214.2 2.2998 214.2 13.7998 205.7 20.6998C197.2 27.5998 122.3 74.7998 119 76.7998C116.2 78.3998 109.4 80.9998 107.8 80.9998C106.1 80.9998 99.3 78.3998 96.6 76.7998C93.3 74.7998 18.3 27.4998 9.90002 20.6998C1.40002 13.7998 1.40002 2.2998 1.40002 2.2998H214.2Z" fill="#E1E1E1"/>
<path opacity="0.5246" d="M214.1 2.2002C214.1 2.2002 214.1 13.6002 205.6 20.5002C197.1 27.4002 122.2 74.6002 118.9 76.5002C116.1 78.1002 109.3 80.7002 107.7 80.7002C106 80.7002 99.2 78.1002 96.5 76.5002C93.2 74.6002 18.2 27.4002 9.80005 20.5002C1.30005 13.6002 1.30005 2.2002 1.30005 2.2002H214.1Z" fill="#E0E0E0"/>
<path opacity="0.541" d="M214.1 2.09961C214.1 2.09961 214.1 13.3996 205.6 20.2996C197.1 27.1996 122.2 74.3996 118.9 76.2996C116.1 77.8996 109.3 80.4996 107.7 80.4996C106 80.4996 99.2 77.8996 96.5 76.2996C93.2 74.3996 18.2 27.1996 9.80005 20.2996C1.30005 13.3996 1.30005 2.09961 1.30005 2.09961H214.1Z" fill="#DFDFDF"/>
<path opacity="0.5574" d="M214.1 2C214.1 2 214.1 13.2 205.6 20.1C197.1 27 122.2 74.2 118.9 76.1C116.1 77.7 109.3 80.3 107.7 80.3C106 80.3 99.2 77.7 96.5 76.1C93.2 74.2 18.2 27 9.80005 20.1C1.30005 13.2 1.30005 2 1.30005 2H214.1Z" fill="#DEDEDE"/>
<path opacity="0.5738" d="M214.1 2C214.1 2 214.1 13.1 205.6 19.9C197.1 26.8 122.2 74 118.9 75.9C116.1 77.5 109.3 80.1 107.7 80.1C106 80.1 99.2 77.5 96.5 75.9C93.2 74 18.2 26.8 9.80005 19.9C1.30005 13 1.30005 2 1.30005 2H214.1Z" fill="#DDDDDD"/>
<path opacity="0.5902" d="M214.1 1.90039C214.1 1.90039 214.1 12.9004 205.6 19.7004C197.1 26.5004 122.2 73.8004 118.9 75.7004C116.1 77.3004 109.3 79.9004 107.7 79.9004C106 79.9004 99.2 77.3004 96.5 75.7004C93.2 73.8004 18.2 26.6004 9.80005 19.7004C1.30005 12.9004 1.30005 1.90039 1.30005 1.90039H214.1Z" fill="#DCDCDC"/>
<path opacity="0.6066" d="M214.1 1.7998C214.1 1.7998 214.1 12.6998 205.6 19.4998C197.1 26.2998 122.2 73.4998 118.9 75.3998C116.1 76.9998 109.3 79.5998 107.7 79.5998C106 79.5998 99.2 76.9998 96.5 75.3998C93.2 73.4998 18.2 26.2998 9.80005 19.4998C1.30005 12.6998 1.30005 1.7998 1.30005 1.7998H214.1Z" fill="#DBDBDB"/>
<path opacity="0.623" d="M214 1.7002C214 1.7002 214 12.5002 205.5 19.3002C197 26.1002 122.1 73.3002 118.8 75.2002C116 76.8002 109.2 79.3002 107.6 79.3002C105.9 79.3002 99.1001 76.7002 96.4001 75.2002C93.1001 73.3002 18.1 26.1002 9.70005 19.3002C1.30005 12.5002 1.30005 1.7002 1.30005 1.7002H214Z" fill="#DADADA"/>
<path opacity="0.6393" d="M214 1.7002C214 1.7002 214 12.4002 205.5 19.2002C197 26.0002 122.1 73.2002 118.8 75.1002C116 76.7002 109.2 79.2002 107.6 79.2002C105.9 79.2002 99.1001 76.6002 96.4001 75.1002C93.1001 73.2002 18.1 26.0002 9.70005 19.2002C1.30005 12.3002 1.30005 1.7002 1.30005 1.7002H214Z" fill="#D9D9DA"/>
<path opacity="0.6557" d="M214 1.59961C214 1.59961 214 12.1996 205.5 18.9996C197 25.7996 122.1 72.9996 118.8 74.8996C116 76.4996 109.2 78.9996 107.6 78.9996C105.9 78.9996 99.1001 76.3996 96.4001 74.8996C93.1001 72.9996 18.1 25.7996 9.70005 18.9996C1.30005 12.1996 1.30005 1.59961 1.30005 1.59961H214Z" fill="#D8D8D9"/>
<path opacity="0.6721" d="M214 1.5C214 1.5 214 12 205.5 18.8C197 25.6 122.1 72.8 118.8 74.7C116 76.3 109.2 78.8 107.6 78.8C105.9 78.8 99.1001 76.2 96.4001 74.7C93.1001 72.8 18.1 25.6 9.70005 18.8C1.30005 12 1.30005 1.5 1.30005 1.5H214Z" fill="#D7D7D8"/>
<path opacity="0.6885" d="M214 1.40039C214 1.40039 214 11.8004 205.5 18.6004C197 25.4004 122.1 72.6004 118.8 74.4004C116 76.0004 109.2 78.5004 107.6 78.5004C105.9 78.5004 99.1 75.9004 96.4 74.4004C93.1 72.5004 18.1 25.3004 9.69995 18.6004C1.19995 11.8004 1.19995 1.40039 1.19995 1.40039H214Z" fill="#D6D6D7"/>
<path opacity="0.7049" d="M214 1.40039C214 1.40039 214 11.7004 205.5 18.5004C197 25.3004 122.1 72.4004 118.8 74.3004C116 75.9004 109.2 78.4004 107.6 78.4004C105.9 78.4004 99.1 75.9004 96.4 74.3004C93.1 72.4004 18.1 25.3004 9.69995 18.5004C1.19995 11.7004 1.19995 1.40039 1.19995 1.40039H214Z" fill="#D5D5D6"/>
<path opacity="0.7213" d="M214 1.2998C214 1.2998 214 11.4998 205.5 18.2998C197 25.0998 122.1 72.1998 118.8 74.0998C116 75.6998 109.2 78.1998 107.6 78.1998C105.9 78.1998 99.1 75.6998 96.4 74.0998C93.1 72.1998 18.1 25.0998 9.69995 18.2998C1.19995 11.4998 1.19995 1.2998 1.19995 1.2998H214Z" fill="#D4D4D5"/>
<path opacity="0.7377" d="M213.9 1.2002C213.9 1.2002 213.9 11.3002 205.4 18.0002C196.9 24.8002 122 71.9002 118.7 73.8002C115.9 75.4002 109.1 77.9002 107.5 77.9002C105.8 77.9002 99 75.4002 96.3 73.8002C93 71.9002 18 24.8002 9.59998 18.0002C1.09998 11.2002 1.09998 1.2002 1.09998 1.2002H213.9Z" fill="#D3D3D4"/>
<path opacity="0.7541" d="M213.9 1.09961C213.9 1.09961 213.9 11.0996 205.4 17.7996C196.9 24.5996 122 71.6996 118.7 73.5996C115.9 75.1996 109.1 77.6996 107.5 77.6996C105.8 77.6996 99 75.1996 96.3 73.5996C93 71.6996 18 24.5996 9.59998 17.7996C1.09998 10.9996 1.09998 1.09961 1.09998 1.09961H213.9Z" fill="#D2D2D3"/>
<path opacity="0.7705" d="M213.9 1.09961C213.9 1.09961 213.9 10.9996 205.4 17.6996C196.9 24.3996 122 71.5996 118.7 73.3996C115.9 74.9996 109.1 77.4996 107.5 77.4996C105.8 77.4996 99 74.9996 96.3 73.3996C93 71.4996 18 24.3996 9.59998 17.6996C1.09998 10.9996 1.09998 1.09961 1.09998 1.09961H213.9Z" fill="#D1D2D2"/>
<path opacity="0.7869" d="M213.9 1C213.9 1 213.9 10.8 205.4 17.5C196.9 24.2 122 71.4 118.7 73.2C115.9 74.8 109.1 77.3 107.5 77.3C105.8 77.3 99 74.8 96.3 73.2C93 71.3 18 24.2 9.59998 17.5C1.09998 10.8 1.09998 1 1.09998 1H213.9Z" fill="#D0D1D1"/>
<path opacity="0.8033" d="M213.9 0.900391C213.9 0.900391 213.9 10.6004 205.4 17.3004C196.9 24.0004 122 71.1004 118.7 73.0004C115.9 74.6004 109.1 77.1004 107.5 77.1004C105.8 77.1004 99 74.6004 96.3 73.0004C93 71.1004 18 24.0004 9.59998 17.3004C1.09998 10.6004 1.09998 0.900391 1.09998 0.900391H213.9Z" fill="#CFD0D0"/>
<path opacity="0.8197" d="M213.9 0.799805C213.9 0.799805 213.9 10.3998 205.4 17.0998C196.9 23.7998 122 70.8998 118.7 72.7998C115.9 74.3998 109.1 76.8998 107.5 76.8998C105.8 76.8998 99 74.3998 96.3 72.7998C93 70.8998 18 23.7998 9.59998 17.0998C1.09998 10.3998 1.09998 0.799805 1.09998 0.799805H213.9Z" fill="#CECFCF"/>
<path opacity="0.8361" d="M213.9 0.799805C213.9 0.799805 213.9 10.2998 205.4 16.9998C196.9 23.6998 122 70.7998 118.7 72.6998C115.9 74.2998 109.1 76.7998 107.5 76.7998C105.8 76.7998 99 74.2998 96.3 72.6998C93 70.7998 18 23.6998 9.59998 16.9998C1.09998 10.2998 1.09998 0.799805 1.09998 0.799805H213.9Z" fill="#CDCECE"/>
<path opacity="0.8525" d="M213.8 0.700195C213.8 0.700195 213.8 10.1002 205.3 16.8002C196.8 23.5002 121.9 70.6002 118.6 72.5002C115.8 74.0002 109 76.6002 107.4 76.6002C105.7 76.6002 98.9 74.1002 96.2 72.5002C92.9 70.6002 17.9 23.5002 9.5 16.8002C1 10.1002 1 0.700195 1 0.700195H213.8Z" fill="#CCCDCD"/>
<path opacity="0.8689" d="M213.8 0.599609C213.8 0.599609 213.8 9.89961 205.3 16.5996C196.8 23.2996 121.9 70.3996 118.6 72.1996C115.8 73.6996 109 76.2996 107.4 76.2996C105.7 76.2996 98.9 73.7996 96.2 72.1996C92.9 70.2996 18 23.2996 9.5 16.5996C1 9.89961 1 0.599609 1 0.599609H213.8Z" fill="#CBCCCC"/>
<path opacity="0.8852" d="M213.8 0.5C213.8 0.5 213.8 9.7 205.3 16.3C196.8 23 121.9 70.1 118.6 71.9C115.8 73.4 109 76 107.4 76C105.7 76 98.9 73.5 96.2 71.9C92.9 70 17.9 23 9.5 16.3C1 9.6 1 0.5 1 0.5H213.8Z" fill="#CACBCB"/>
<path opacity="0.9016" d="M213.8 0.5C213.8 0.5 213.8 9.6 205.3 16.2C196.8 22.9 121.9 69.9 118.6 71.8C115.8 73.3 109 75.8 107.4 75.8C105.7 75.8 98.9 73.3 96.2 71.8C92.9 69.9 17.9 22.9 9.5 16.2C1 9.5 1 0.5 1 0.5H213.8Z" fill="#C9CACA"/>
<path opacity="0.918" d="M213.8 0.400391C213.8 0.400391 213.8 9.40039 205.3 16.0004C196.8 22.7004 121.9 69.7004 118.6 71.6004C115.8 73.1004 109 75.6004 107.4 75.6004C105.7 75.6004 98.9 73.1004 96.2 71.6004C92.9 69.8004 17.9 22.7004 9.5 16.0004C1 9.30039 1 0.400391 1 0.400391H213.8Z" fill="#C8C9C9"/>
<path opacity="0.9344" d="M213.8 0.299805C213.8 0.299805 213.8 9.1998 205.3 15.7998C196.8 22.4998 121.9 69.4998 118.6 71.3998C115.8 72.8998 109 75.3998 107.4 75.3998C105.7 75.3998 98.9 72.8998 96.2 71.3998C92.9 69.5998 17.9 22.4998 9.5 15.7998C1 9.1998 1 0.299805 1 0.299805H213.8Z" fill="#C7C8C8"/>
<path opacity="0.9508" d="M213.7 0.200195C213.7 0.200195 213.7 9.00019 205.2 15.6002C196.7 22.2002 121.8 69.3002 118.5 71.1002C115.7 72.6002 108.9 75.1002 107.3 75.1002C105.6 75.1002 98.8 72.6002 96.1 71.1002C92.9 69.3002 17.9 22.3002 9.5 15.6002C1 9.00019 1 0.200195 1 0.200195H213.7Z" fill="#C6C7C7"/>
<path opacity="0.9672" d="M213.7 0.200195C213.7 0.200195 213.7 8.90019 205.2 15.5002C196.7 22.1002 121.8 69.2002 118.5 71.0002C115.7 72.5002 108.9 75.0002 107.3 75.0002C105.6 75.0002 98.8 72.5002 96.1 71.0002C92.8 69.2002 17.8 22.1002 9.40002 15.5002C0.900024 8.90019 0.900024 0.200195 0.900024 0.200195H213.7Z" fill="#C5C6C6"/>
<path opacity="0.9836" d="M213.7 0.0996094C213.7 0.0996094 213.7 8.69961 205.2 15.2996C196.7 21.8996 121.8 68.9996 118.5 70.7996C115.7 72.2996 108.9 74.7996 107.3 74.7996C105.6 74.7996 98.8 72.2996 96.1 70.7996C92.8 68.9996 17.8 21.8996 9.40002 15.2996C0.900024 8.69961 0.900024 0.0996094 0.900024 0.0996094H213.7Z" fill="#C4C5C5"/>
<path d="M213.7 0C213.7 0 213.7 8.5 205.2 15.1C196.7 21.7 121.8 68.7 118.5 70.6C115.7 72.1 108.9 74.6 107.3 74.6C105.6 74.6 98.8 72.1 96.1 70.6C92.8 68.8 17.8 21.7 9.40002 15.1C0.900024 8.5 0.900024 0 0.900024 0H213.7Z" fill="#B0B0B0"/>
<path d="M213.7 0C213.7 0 213.7 8.5 205.2 15.1C196.7 21.7 121.8 68.7 118.5 70.6C115.7 72.1 110.9 74.6 107.3 74.6C103.7 74.6 98.8 72.1 96.1 70.6C92.8 68.8 17.8 21.7 9.40002 15.1C0.900024 8.5 0.900024 0 0.900024 0H213.7Z" fill="url(#paint2_linear)"/>
<circle cx="106" cy="71.5" r="49.5" fill="#FFD34F"/>
<path d="M94.4219 100H78.7578V69.7656C78.7578 66.0938 78.8359 62.7344 78.9922 59.6875C78.0286 60.8594 76.8307 62.0833 75.3984 63.3594L68.9141 68.7109L60.9062 58.8672L80.5156 42.8906H94.4219V100ZM144.562 71.5234C144.562 81.6276 142.87 89.0365 139.484 93.75C136.099 98.4375 130.917 100.781 123.938 100.781C117.115 100.781 111.971 98.3333 108.508 93.4375C105.044 88.5156 103.312 81.2109 103.312 71.5234C103.312 61.3672 105.005 53.9193 108.391 49.1797C111.776 44.4401 116.958 42.0703 123.938 42.0703C130.734 42.0703 135.865 44.5443 139.328 49.4922C142.818 54.4141 144.562 61.7578 144.562 71.5234ZM118.664 71.5234C118.664 77.9818 119.068 82.4219 119.875 84.8438C120.682 87.2656 122.036 88.4766 123.938 88.4766C125.865 88.4766 127.219 87.2266 128 84.7266C128.807 82.2266 129.211 77.8255 129.211 71.5234C129.211 65.1953 128.807 60.7682 128 58.2422C127.193 55.6901 125.839 54.4141 123.938 54.4141C122.036 54.4141 120.682 55.638 119.875 58.0859C119.068 60.5339 118.664 65.013 118.664 71.5234Z" fill="url(#paint3_linear)"/>
<defs>
<linearGradient id="paint0_linear" x1="107.333" y1="0.0203" x2="107.333" y2="135.813" gradientUnits="userSpaceOnUse">
<stop stop-color="#D5D5D0"/>
<stop offset="0.1161" stop-color="#E0E0DA"/>
<stop offset="0.3441" stop-color="#EFEFE7"/>
<stop offset="0.6097" stop-color="#F8F8EF"/>
<stop offset="1" stop-color="#FBFBF1"/>
</linearGradient>
<linearGradient id="paint1_linear" x1="107.789" y1="-58.6198" x2="107.789" y2="135.813" gradientUnits="userSpaceOnUse">
<stop stop-color="#D5D5D0"/>
<stop offset="0.1161" stop-color="#E0E0DA"/>
<stop offset="0.3441" stop-color="#EFEFE7"/>
<stop offset="0.6097" stop-color="#F8F8EF"/>
<stop offset="1" stop-color="#FBFBF1"/>
</linearGradient>
<linearGradient id="paint2_linear" x1="107.334" y1="194.454" x2="107.334" y2="0.0209994" gradientUnits="userSpaceOnUse">
<stop stop-color="#D5D5D0"/>
<stop offset="0.1161" stop-color="#E0E0DA"/>
<stop offset="0.3441" stop-color="#EFEFE7"/>
<stop offset="0.6097" stop-color="#F8F8EF"/>
<stop offset="1" stop-color="#FBFBF1"/>
</linearGradient>
<linearGradient id="paint3_linear" x1="96.6225" y1="-1.41571" x2="98.2064" y2="138.404" gradientUnits="userSpaceOnUse">
<stop stop-color="#D91B24"/>
<stop offset="1" stop-color="#393C5A"/>
</linearGradient>
</defs>
</svg>
