<svg width="278" height="176" viewBox="0 0 278 176" fill="none" xmlns="http://www.w3.org/2000/svg">
<path d="M276.263 0H0.911865V175.8H276.263V0Z" fill="url(#paint0_linear)"/>
<path opacity="0.0163934" d="M0.264648 169.975C0.264648 169.975 0.264648 158.971 11.2683 150.427C22.272 141.883 119.234 81.0392 123.506 78.5796C127.131 76.6377 135.934 73.4014 138.005 73.4014C140.206 73.4014 149.009 76.6377 152.504 78.5796C156.776 80.9098 253.867 141.883 264.741 150.427C275.745 158.971 275.745 169.975 275.745 169.975H0.264648Z" fill="#FEFEFE"/>
<path opacity="0.0327869" d="M0.264648 170.105C0.264648 170.105 0.264648 159.101 11.2683 150.557C22.272 142.013 119.234 81.1691 123.506 78.7095C127.131 76.7676 135.934 73.5312 138.005 73.5312C140.206 73.5312 149.009 76.7676 152.504 78.7095C156.776 81.0396 253.867 142.013 264.741 150.557C275.745 159.101 275.745 170.105 275.745 170.105H0.264648Z" fill="#FDFDFD"/>
<path opacity="0.0491803" d="M0.393555 170.234C0.393555 170.234 0.393555 159.23 11.3972 150.686C22.4009 142.142 119.363 81.298 123.635 78.8384C127.26 76.8965 136.062 73.6602 138.134 73.6602C140.334 73.6602 149.137 76.8965 152.633 78.8384C156.905 81.1686 253.996 142.142 264.87 150.686C275.874 159.23 275.874 170.234 275.874 170.234H0.393555Z" fill="#FCFCFC"/>
<path opacity="0.0655738" d="M0.393555 170.363C0.393555 170.363 0.393555 159.359 11.3972 150.815C22.4009 142.271 119.363 81.4269 123.635 78.9673C127.26 77.0254 136.062 73.7891 138.134 73.7891C140.334 73.7891 149.137 77.0254 152.633 78.9673C156.905 81.2975 253.996 142.271 264.87 150.815C275.874 159.359 275.874 170.363 275.874 170.363H0.393555Z" fill="#FBFBFB"/>
<path opacity="0.0819672" d="M0.393555 170.363C0.393555 170.363 0.393555 159.359 11.3972 150.815C22.4009 142.271 119.363 81.4269 123.635 78.9673C127.26 77.0254 136.062 73.7891 138.134 73.7891C140.334 73.7891 149.137 77.0254 152.633 78.9673C156.905 81.2975 253.996 142.271 264.87 150.815C275.874 159.359 275.874 170.363 275.874 170.363H0.393555Z" fill="#FAFAFA"/>
<path opacity="0.0983607" d="M0.393555 170.492C0.393555 170.492 0.393555 159.489 11.3972 150.945C22.4009 142.401 119.363 81.5568 123.635 79.0971C127.26 77.1553 136.062 73.9189 138.134 73.9189C140.334 73.9189 149.137 77.1553 152.633 79.0971C156.905 81.4273 253.996 142.401 264.87 150.945C275.874 159.489 275.874 170.492 275.874 170.492H0.393555Z" fill="#F9F9F9"/>
<path opacity="0.1148" d="M0.393555 170.622C0.393555 170.622 0.393555 159.619 11.3972 151.075C22.4009 142.531 119.363 81.6867 123.635 79.227C127.26 77.2852 136.062 74.0488 138.134 74.0488C140.334 74.0488 149.137 77.2852 152.633 79.227C156.905 81.5572 253.996 142.531 264.87 151.075C275.874 159.619 275.874 170.622 275.874 170.622H0.393555Z" fill="#F8F8F8"/>
<path opacity="0.1311" d="M0.393555 170.751C0.393555 170.751 0.393555 159.748 11.3972 151.204C22.4009 142.659 119.363 81.8156 123.635 79.3559C127.26 77.4141 136.062 74.1777 138.134 74.1777C140.334 74.1777 149.137 77.4141 152.633 79.3559C156.905 81.6861 253.996 142.659 264.87 151.204C275.874 159.748 275.874 170.751 275.874 170.751H0.393555Z" fill="#F7F7F7"/>
<path opacity="0.1475" d="M0.393555 170.751C0.393555 170.751 0.393555 159.748 11.3972 151.204C22.4009 142.659 119.363 81.8156 123.635 79.3559C127.26 77.4141 136.062 74.1777 138.134 74.1777C140.334 74.1777 149.137 77.4141 152.633 79.3559C156.905 81.6861 253.996 142.659 264.87 151.204C275.874 159.748 275.874 170.751 275.874 170.751H0.393555Z" fill="#F6F6F6"/>
<path opacity="0.1639" d="M0.523926 170.881C0.523926 170.881 0.523926 159.877 11.5276 151.333C22.5313 142.789 119.493 81.9455 123.765 79.4858C127.39 77.544 136.193 74.3076 138.264 74.3076C140.465 74.3076 149.268 77.544 152.763 79.4858C157.035 81.816 254.126 142.789 265.001 151.333C276.004 159.877 276.004 170.881 276.004 170.881H0.523926Z" fill="#F5F5F5"/>
<path opacity="0.1803" d="M0.523926 171.01C0.523926 171.01 0.523926 160.006 11.5276 151.462C22.5313 142.918 119.493 82.0744 123.765 79.6147C127.39 77.6729 136.193 74.4365 138.264 74.4365C140.465 74.4365 149.268 77.6729 152.763 79.6147C157.035 81.9449 254.126 142.918 265.001 151.462C276.004 160.006 276.004 171.01 276.004 171.01H0.523926Z" fill="#F4F4F4"/>
<path opacity="0.1967" d="M0.523926 171.14C0.523926 171.14 0.523926 160.136 11.5276 151.592C22.5313 143.048 119.493 82.2043 123.765 79.7446C127.39 77.8028 136.193 74.5664 138.264 74.5664C140.465 74.5664 149.268 77.8028 152.763 79.7446C157.035 82.0748 254.126 143.048 265.001 151.592C276.004 160.136 276.004 171.14 276.004 171.14H0.523926Z" fill="#F3F3F3"/>
<path opacity="0.2131" d="M0.523926 171.14C0.523926 171.14 0.523926 160.136 11.5276 151.592C22.5313 143.048 119.493 82.2043 123.765 79.7446C127.39 77.8028 136.193 74.5664 138.264 74.5664C140.465 74.5664 149.268 77.8028 152.763 79.7446C157.035 82.0748 254.126 143.048 265.001 151.592C276.004 160.136 276.004 171.14 276.004 171.14H0.523926Z" fill="#F2F2F3"/>
<path opacity="0.2295" d="M0.523926 171.269C0.523926 171.269 0.523926 160.265 11.5276 151.721C22.5313 143.177 119.493 82.3332 123.765 79.8735C127.39 77.9317 136.193 74.6953 138.264 74.6953C140.465 74.6953 149.268 77.9317 152.763 79.8735C157.035 82.2037 254.126 143.177 265.001 151.721C276.004 160.265 276.004 171.269 276.004 171.269H0.523926Z" fill="#F1F1F2"/>
<path opacity="0.2459" d="M0.523926 171.399C0.523926 171.399 0.523926 160.395 11.5276 151.851C22.5313 143.307 119.493 82.463 123.765 80.0034C127.39 78.0616 136.193 74.8252 138.264 74.8252C140.465 74.8252 149.268 78.0616 152.763 80.0034C157.035 82.3336 254.126 143.307 265.001 151.851C276.004 160.395 276.004 171.399 276.004 171.399H0.523926Z" fill="#F0F0F1"/>
<path opacity="0.2623" d="M0.523926 171.529C0.523926 171.529 0.523926 160.525 11.5276 151.981C22.5313 143.437 119.493 82.5929 123.765 80.1333C127.39 78.1915 136.193 74.9551 138.264 74.9551C140.465 74.9551 149.268 78.1915 152.763 80.1333C157.035 82.4635 254.126 143.437 265.001 151.981C276.004 160.525 276.004 171.529 276.004 171.529H0.523926Z" fill="#EFF0F0"/>
<path opacity="0.2787" d="M0.652832 171.529C0.652832 171.529 0.652832 160.525 11.6565 151.981C22.6602 143.437 119.622 82.5929 123.894 80.1333C127.519 78.1915 136.322 74.9551 138.393 74.9551C140.594 74.9551 149.397 78.1915 152.892 80.1333C157.164 82.4635 254.255 143.437 265.13 151.981C276.133 160.525 276.133 171.529 276.133 171.529H0.652832Z" fill="#EEEFEF"/>
<path opacity="0.2951" d="M0.652832 171.657C0.652832 171.657 0.652832 160.654 11.6565 152.11C22.6602 143.566 119.622 82.7218 123.894 80.2622C127.519 78.3204 136.322 75.084 138.393 75.084C140.594 75.084 149.397 78.3204 152.892 80.2622C157.164 82.5924 254.255 143.566 265.13 152.11C276.133 160.654 276.133 171.657 276.133 171.657H0.652832Z" fill="#EDEEEE"/>
<path opacity="0.3115" d="M0.652832 171.787C0.652832 171.787 0.652832 160.784 11.6565 152.24C22.6602 143.696 119.622 82.8517 123.894 80.3921C127.519 78.4502 136.322 75.2139 138.393 75.2139C140.594 75.2139 149.397 78.4502 152.892 80.3921C157.164 82.7223 254.255 143.696 265.13 152.24C276.133 160.784 276.133 171.787 276.133 171.787H0.652832Z" fill="#ECEDED"/>
<path opacity="0.3279" d="M0.652832 171.916C0.652832 171.916 0.652832 160.913 11.6565 152.369C22.6602 143.825 119.622 82.9806 123.894 80.521C127.519 78.5792 136.322 75.3428 138.393 75.3428C140.594 75.3428 149.397 78.5792 152.892 80.521C157.164 82.8512 254.255 143.825 265.13 152.369C276.133 160.913 276.133 171.916 276.133 171.916H0.652832Z" fill="#EBECEC"/>
<path opacity="0.3443" d="M0.652832 171.916C0.652832 171.916 0.652832 160.913 11.6565 152.369C22.6602 143.825 119.622 82.9806 123.894 80.521C127.519 78.5792 136.322 75.3428 138.393 75.3428C140.594 75.3428 149.397 78.5792 152.892 80.521C157.164 82.8512 254.255 143.825 265.13 152.369C276.133 160.913 276.133 171.916 276.133 171.916H0.652832Z" fill="#EAEBEB"/>
<path opacity="0.3607" d="M0.652832 172.046C0.652832 172.046 0.652832 161.042 11.6565 152.498C22.6602 143.954 119.622 83.1105 123.894 80.6509C127.519 78.709 136.322 75.4727 138.393 75.4727C140.594 75.4727 149.397 78.709 152.892 80.6509C157.164 82.9811 254.255 143.954 265.13 152.498C276.133 161.042 276.133 172.046 276.133 172.046H0.652832Z" fill="#E9EAEA"/>
<path opacity="0.377" d="M0.782959 172.176C0.782959 172.176 0.782959 161.172 11.7866 152.628C22.7903 144.084 119.752 83.2404 124.024 80.7807C127.649 78.8389 136.452 75.6025 138.523 75.6025C140.724 75.6025 149.527 78.8389 153.022 80.7807C157.294 83.1109 254.385 144.084 265.26 152.628C276.263 161.172 276.263 172.176 276.263 172.176H0.782959Z" fill="#E9E9E9"/>
<path opacity="0.3934" d="M0.782959 172.305C0.782959 172.305 0.782959 161.301 11.7866 152.757C22.7903 144.213 119.752 83.3693 124.024 80.9096C127.649 78.9678 136.452 75.7314 138.523 75.7314C140.724 75.7314 149.527 78.9678 153.022 80.9096C157.294 83.2398 254.385 144.213 265.26 152.757C276.263 161.301 276.263 172.305 276.263 172.305H0.782959Z" fill="#E8E8E8"/>
<path opacity="0.4098" d="M0.782959 172.305C0.782959 172.305 0.782959 161.301 11.7866 152.757C22.7903 144.213 119.752 83.3693 124.024 80.9096C127.649 78.9678 136.452 75.7314 138.523 75.7314C140.724 75.7314 149.527 78.9678 153.022 80.9096C157.294 83.2398 254.385 144.213 265.26 152.757C276.263 161.301 276.263 172.305 276.263 172.305H0.782959Z" fill="#E7E7E7"/>
<path opacity="0.4262" d="M0.782959 172.434C0.782959 172.434 0.782959 161.43 11.7866 152.886C22.7903 144.342 119.752 83.4982 124.024 81.0386C127.649 79.0967 136.452 75.8604 138.523 75.8604C140.724 75.8604 149.527 79.0967 153.022 81.0386C157.294 83.3687 254.385 144.342 265.26 152.886C276.263 161.43 276.263 172.434 276.263 172.434H0.782959Z" fill="#E6E6E6"/>
<path opacity="0.4426" d="M0.782959 172.564C0.782959 172.564 0.782959 161.56 11.7866 153.016C22.7903 144.472 119.752 83.6281 124.024 81.1684C127.649 79.2266 136.452 75.9902 138.523 75.9902C140.724 75.9902 149.527 79.2266 153.022 81.1684C157.294 83.4986 254.385 144.472 265.26 153.016C276.263 161.56 276.263 172.564 276.263 172.564H0.782959Z" fill="#E5E5E5"/>
<path opacity="0.459" d="M0.782959 172.694C0.782959 172.694 0.782959 161.69 11.7866 153.146C22.7903 144.602 119.752 83.758 124.024 81.2983C127.649 79.3565 136.452 76.1201 138.523 76.1201C140.724 76.1201 149.527 79.3565 153.022 81.2983C157.294 83.6285 254.385 144.602 265.26 153.146C276.263 161.69 276.263 172.694 276.263 172.694H0.782959Z" fill="#E4E4E4"/>
<path opacity="0.4754" d="M0.782959 172.694C0.782959 172.694 0.782959 161.69 11.7866 153.146C22.7903 144.602 119.752 83.758 124.024 81.2983C127.649 79.3565 136.452 76.1201 138.523 76.1201C140.724 76.1201 149.527 79.3565 153.022 81.2983C157.294 83.6285 254.385 144.602 265.26 153.146C276.263 161.69 276.263 172.694 276.263 172.694H0.782959Z" fill="#E3E3E3"/>
<path opacity="0.4918" d="M0.911865 172.823C0.911865 172.823 0.911865 161.819 11.9155 153.275C22.9192 144.731 119.881 83.8869 124.153 81.4272C127.778 79.4854 136.581 76.249 138.652 76.249C140.853 76.249 149.656 79.4854 153.151 81.4272C157.423 83.7574 254.514 144.731 265.389 153.275C276.392 161.819 276.392 172.823 276.392 172.823H0.911865Z" fill="#E2E2E2"/>
<path opacity="0.5082" d="M0.911865 172.951C0.911865 172.951 0.911865 161.948 11.9155 153.404C22.9192 144.86 119.881 84.0158 124.153 81.5561C127.778 79.6143 136.581 76.3779 138.652 76.3779C140.853 76.3779 149.656 79.6143 153.151 81.5561C157.423 83.8863 254.514 144.86 265.389 153.404C276.392 161.948 276.392 172.951 276.392 172.951H0.911865Z" fill="#E1E1E1"/>
<path opacity="0.5246" d="M0.911865 172.951C0.911865 172.951 0.911865 161.948 11.9155 153.404C22.9192 144.86 119.881 84.0158 124.153 81.5561C127.778 79.6143 136.581 76.3779 138.652 76.3779C140.853 76.3779 149.656 79.6143 153.151 81.5561C157.423 83.8863 254.514 144.86 265.389 153.404C276.392 161.948 276.392 172.951 276.392 172.951H0.911865Z" fill="#E0E0E0"/>
<path opacity="0.541" d="M0.911865 173.081C0.911865 173.081 0.911865 162.078 11.9155 153.534C22.9192 144.99 119.881 84.1457 124.153 81.686C127.778 79.7442 136.581 76.5078 138.652 76.5078C140.853 76.5078 149.656 79.7442 153.151 81.686C157.423 84.0162 254.514 144.99 265.389 153.534C276.392 162.078 276.392 173.081 276.392 173.081H0.911865Z" fill="#DFDFDF"/>
<path opacity="0.5574" d="M0.911865 173.211C0.911865 173.211 0.911865 162.207 11.9155 153.663C22.9192 145.119 119.881 84.2755 124.153 81.8159C127.778 79.8741 136.581 76.6377 138.652 76.6377C140.853 76.6377 149.656 79.8741 153.151 81.8159C157.423 84.1461 254.514 145.119 265.389 153.663C276.392 162.207 276.392 173.211 276.392 173.211H0.911865Z" fill="#DEDEDE"/>
<path opacity="0.5738" d="M0.911865 173.341C0.911865 173.341 0.911865 162.337 11.9155 153.793C22.9192 145.249 119.881 84.4054 124.153 81.9458C127.778 80.004 136.581 76.7676 138.652 76.7676C140.853 76.7676 149.656 80.004 153.151 81.9458C157.423 84.276 254.514 145.249 265.389 153.793C276.392 162.337 276.392 173.341 276.392 173.341H0.911865Z" fill="#DDDDDD"/>
<path opacity="0.5902" d="M0.911865 173.341C0.911865 173.341 0.911865 162.337 11.9155 153.793C22.9192 145.249 119.881 84.4054 124.153 81.9458C127.778 80.004 136.581 76.7676 138.652 76.7676C140.853 76.7676 149.656 80.004 153.151 81.9458C157.423 84.276 254.514 145.249 265.389 153.793C276.392 162.337 276.392 173.341 276.392 173.341H0.911865Z" fill="#DCDCDC"/>
<path opacity="0.6066" d="M1.04077 173.47C1.04077 173.47 1.04077 162.466 12.0445 153.922C23.0481 145.378 120.01 84.5343 124.282 82.0747C127.907 80.1329 136.71 76.8965 138.781 76.8965C140.982 76.8965 149.785 80.1329 153.28 82.0747C157.552 84.4049 254.643 145.378 265.517 153.922C276.392 162.466 276.392 173.47 276.392 173.47H1.04077Z" fill="#DBDBDB"/>
<path opacity="0.623" d="M1.04077 173.599C1.04077 173.599 1.04077 162.595 12.0445 154.051C23.0481 145.507 120.01 84.6632 124.282 82.2036C127.907 80.2618 136.71 77.0254 138.781 77.0254C140.982 77.0254 149.785 80.2618 153.28 82.2036C157.552 84.5338 254.643 145.507 265.517 154.051C276.392 162.595 276.392 173.599 276.392 173.599H1.04077Z" fill="#DADADA"/>
<path opacity="0.6393" d="M1.04077 173.729C1.04077 173.729 1.04077 162.725 12.0445 154.181C23.0481 145.637 120.01 84.7931 124.282 82.3335C127.907 80.3917 136.71 77.1553 138.781 77.1553C140.982 77.1553 149.785 80.3917 153.28 82.3335C157.552 84.6637 254.643 145.637 265.517 154.181C276.392 162.725 276.392 173.729 276.392 173.729H1.04077Z" fill="#D9D9DA"/>
<path opacity="0.6557" d="M1.04077 173.729C1.04077 173.729 1.04077 162.725 12.0445 154.181C23.0481 145.637 120.01 84.7931 124.282 82.3335C127.907 80.3917 136.71 77.1553 138.781 77.1553C140.982 77.1553 149.785 80.3917 153.28 82.3335C157.552 84.6637 254.643 145.637 265.517 154.181C276.392 162.725 276.392 173.729 276.392 173.729H1.04077Z" fill="#D8D8D9"/>
<path opacity="0.6721" d="M1.04077 173.859C1.04077 173.859 1.04077 162.855 12.0445 154.311C23.0481 145.767 120.01 84.923 124.282 82.4634C127.907 80.5215 136.71 77.2852 138.781 77.2852C140.982 77.2852 149.785 80.5215 153.28 82.4634C157.552 84.7936 254.643 145.767 265.517 154.311C276.392 162.855 276.392 173.859 276.392 173.859H1.04077Z" fill="#D7D7D8"/>
<path opacity="0.6885" d="M1.04077 173.988C1.04077 173.988 1.04077 162.984 12.0445 154.44C23.0481 145.896 120.01 85.0519 124.282 82.5923C127.907 80.6504 136.71 77.4141 138.781 77.4141C140.982 77.4141 149.785 80.6504 153.28 82.5923C157.552 84.9225 254.643 145.896 265.517 154.44C276.392 162.984 276.392 173.988 276.392 173.988H1.04077Z" fill="#D6D6D7"/>
<path opacity="0.7049" d="M1.04077 174.117C1.04077 174.117 1.04077 163.114 12.0445 154.57C23.0481 146.026 120.01 85.1818 124.282 82.7221C127.907 80.7803 136.71 77.5439 138.781 77.5439C140.982 77.5439 149.785 80.7803 153.28 82.7221C157.552 85.0523 254.643 146.026 265.517 154.57C276.392 163.114 276.392 174.117 276.392 174.117H1.04077Z" fill="#D5D5D6"/>
<path opacity="0.7213" d="M1.17114 174.117C1.17114 174.117 1.17114 163.114 12.1748 154.57C23.1785 146.026 120.14 85.1818 124.412 82.7221C128.037 80.7803 136.84 77.5439 138.911 77.5439C141.112 77.5439 149.915 80.7803 153.41 82.7221C157.682 85.0523 254.774 146.026 265.648 154.57C276.522 163.114 276.522 174.117 276.522 174.117H1.17114Z" fill="#D4D4D5"/>
<path opacity="0.7377" d="M1.17114 174.246C1.17114 174.246 1.17114 163.243 12.1748 154.699C23.1785 146.155 120.14 85.3107 124.412 82.8511C128.037 80.9092 136.84 77.6729 138.911 77.6729C141.112 77.6729 149.915 80.9092 153.41 82.8511C157.682 85.1812 254.774 146.155 265.648 154.699C276.522 163.243 276.522 174.246 276.522 174.246H1.17114Z" fill="#D3D3D4"/>
<path opacity="0.7541" d="M1.17114 174.376C1.17114 174.376 1.17114 163.373 12.1748 154.829C23.1785 146.284 120.14 85.4406 124.412 82.9809C128.037 81.0391 136.84 77.8027 138.911 77.8027C141.112 77.8027 149.915 81.0391 153.41 82.9809C157.682 85.3111 254.774 146.284 265.648 154.829C276.522 163.373 276.522 174.376 276.522 174.376H1.17114Z" fill="#D2D2D3"/>
<path opacity="0.7705" d="M1.17114 174.505C1.17114 174.505 1.17114 163.501 12.1748 154.957C23.1785 146.413 120.14 85.5695 124.412 83.1098C128.037 81.168 136.84 77.9316 138.911 77.9316C141.112 77.9316 149.915 81.168 153.41 83.1098C157.682 85.44 254.774 146.413 265.648 154.957C276.522 163.501 276.522 174.505 276.522 174.505H1.17114Z" fill="#D1D2D2"/>
<path opacity="0.7869" d="M1.17114 174.505C1.17114 174.505 1.17114 163.501 12.1748 154.957C23.1785 146.413 120.14 85.5695 124.412 83.1098C128.037 81.168 136.84 77.9316 138.911 77.9316C141.112 77.9316 149.915 81.168 153.41 83.1098C157.682 85.44 254.774 146.413 265.648 154.957C276.522 163.501 276.522 174.505 276.522 174.505H1.17114Z" fill="#D0D1D1"/>
<path opacity="0.8033" d="M1.17114 174.635C1.17114 174.635 1.17114 163.631 12.1748 155.087C23.1785 146.543 120.14 85.6994 124.412 83.2397C128.037 81.2979 136.84 78.0615 138.911 78.0615C141.112 78.0615 149.915 81.2979 153.41 83.2397C157.682 85.5699 254.774 146.543 265.648 155.087C276.522 163.631 276.522 174.635 276.522 174.635H1.17114Z" fill="#CFD0D0"/>
<path opacity="0.8197" d="M1.30005 174.765C1.30005 174.765 1.30005 163.761 12.3037 155.217C23.3074 146.673 120.269 85.8293 124.541 83.3696C128.166 81.4278 136.969 78.1914 139.04 78.1914C141.241 78.1914 150.044 81.4278 153.539 83.3696C157.811 85.6998 254.903 146.673 265.777 155.217C276.651 163.761 276.651 174.765 276.651 174.765H1.30005Z" fill="#CECFCF"/>
<path opacity="0.8361" d="M1.30005 174.894C1.30005 174.894 1.30005 163.89 12.3037 155.346C23.3074 146.802 120.269 85.9582 124.541 83.4985C128.166 81.5567 136.969 78.3203 139.04 78.3203C141.241 78.3203 150.044 81.5567 153.539 83.4985C157.811 85.8287 254.903 146.802 265.777 155.346C276.651 163.89 276.651 174.894 276.651 174.894H1.30005Z" fill="#CDCECE"/>
<path opacity="0.8525" d="M1.30005 174.894C1.30005 174.894 1.30005 163.89 12.3037 155.346C23.3074 146.802 120.269 85.9582 124.541 83.4985C128.166 81.5567 136.969 78.3203 139.04 78.3203C141.241 78.3203 150.044 81.5567 153.539 83.4985C157.811 85.8287 254.903 146.802 265.777 155.346C276.651 163.89 276.651 174.894 276.651 174.894H1.30005Z" fill="#CCCDCD"/>
<path opacity="0.8689" d="M1.30005 175.024C1.30005 175.024 1.30005 164.02 12.3037 155.476C23.3074 146.932 120.269 86.088 124.541 83.6284C128.166 81.6866 136.969 78.4502 139.04 78.4502C141.241 78.4502 150.044 81.6866 153.539 83.6284C157.811 85.9586 254.903 146.932 265.777 155.476C276.651 164.02 276.651 175.024 276.651 175.024H1.30005Z" fill="#CBCCCC"/>
<path opacity="0.8852" d="M1.30005 175.153C1.30005 175.153 1.30005 164.149 12.3037 155.605C23.3074 147.061 120.269 86.217 124.541 83.7573C128.166 81.8155 136.969 78.5791 139.04 78.5791C141.241 78.5791 150.044 81.8155 153.539 83.7573C157.811 86.0875 254.903 147.061 265.777 155.605C276.651 164.149 276.651 175.153 276.651 175.153H1.30005Z" fill="#CACBCB"/>
<path opacity="0.9016" d="M1.30005 175.282C1.30005 175.282 1.30005 164.279 12.3037 155.735C23.3074 147.191 120.269 86.3468 124.541 83.8872C128.166 81.9454 136.969 78.709 139.04 78.709C141.241 78.709 150.044 81.9454 153.539 83.8872C157.811 86.2174 254.903 147.191 265.777 155.735C276.651 164.279 276.651 175.282 276.651 175.282H1.30005Z" fill="#C9CACA"/>
<path opacity="0.918" d="M1.30005 175.282C1.30005 175.282 1.30005 164.279 12.3037 155.735C23.3074 147.191 120.269 86.3468 124.541 83.8872C128.166 81.9454 136.969 78.709 139.04 78.709C141.241 78.709 150.044 81.9454 153.539 83.8872C157.811 86.2174 254.903 147.191 265.777 155.735C276.651 164.279 276.651 175.282 276.651 175.282H1.30005Z" fill="#C8C9C9"/>
<path opacity="0.9344" d="M1.43018 175.412C1.43018 175.412 1.43018 164.409 12.4339 155.865C23.4375 147.321 120.399 86.4767 124.671 84.0171C128.296 82.0752 137.099 78.8389 139.17 78.8389C141.371 78.8389 150.174 82.0752 153.669 84.0171C157.941 86.3473 255.033 147.321 265.907 155.865C276.781 164.409 276.781 175.412 276.781 175.412H1.43018Z" fill="#C7C8C8"/>
<path opacity="0.9508" d="M1.43018 175.541C1.43018 175.541 1.43018 164.538 12.4339 155.994C23.4375 147.45 120.399 86.6056 124.671 84.146C128.296 82.2042 137.099 78.9678 139.17 78.9678C141.371 78.9678 150.174 82.2042 153.669 84.146C157.941 86.4762 255.033 147.45 265.907 155.994C276.781 164.538 276.781 175.541 276.781 175.541H1.43018Z" fill="#C6C7C7"/>
<path opacity="0.9672" d="M1.43018 175.67C1.43018 175.67 1.43018 164.666 12.4339 156.122C23.4375 147.578 120.399 86.7345 124.671 84.2749C128.296 82.3331 137.099 79.0967 139.17 79.0967C141.371 79.0967 150.174 82.3331 153.669 84.2749C157.941 86.6051 255.033 147.578 265.907 156.122C276.781 164.666 276.781 175.67 276.781 175.67H1.43018Z" fill="#C5C6C6"/>
<path opacity="0.9836" d="M1.43018 175.67C1.43018 175.67 1.43018 164.666 12.4339 156.122C23.4375 147.578 120.399 86.7345 124.671 84.2749C128.296 82.3331 137.099 79.0967 139.17 79.0967C141.371 79.0967 150.174 82.3331 153.669 84.2749C157.941 86.6051 255.033 147.578 265.907 156.122C276.781 164.666 276.781 175.67 276.781 175.67H1.43018Z" fill="#C4C5C5"/>
<path d="M1.43018 175.8C1.43018 175.8 1.43018 164.796 12.4339 156.252C23.4375 147.708 120.399 86.8644 124.671 84.4048C128.296 82.4629 137.099 79.2266 139.17 79.2266C141.371 79.2266 150.174 82.4629 153.669 84.4048C157.941 86.735 255.033 147.708 265.907 156.252C276.781 164.796 276.781 175.8 276.781 175.8H1.43018Z" fill="#B0B0B0"/>
<path d="M1.43018 175.8C1.43018 175.8 1.43018 164.796 12.4339 156.252C23.4375 147.708 120.399 86.8644 124.671 84.4048C128.296 82.4629 134.51 79.2266 139.17 79.2266C143.831 79.2266 150.174 82.4629 153.669 84.4048C157.941 86.735 255.033 147.708 265.907 156.252C276.781 164.796 276.781 175.8 276.781 175.8H1.43018Z" fill="url(#paint1_linear)"/>
<path opacity="0.0163934" d="M277.429 5.8252C277.429 5.8252 277.429 24.5962 266.425 33.9169C255.421 43.2377 158.459 104.599 154.187 107.189C150.563 109.389 141.76 112.885 139.688 112.885C137.488 112.885 128.685 109.389 125.189 107.189C120.917 104.599 23.8261 43.2377 12.9519 33.9169C1.94824 24.5962 1.94824 5.8252 1.94824 5.8252H277.429Z" fill="#FEFEFE"/>
<path opacity="0.0327869" d="M277.429 5.69629C277.429 5.69629 277.429 24.3378 266.425 33.6586C255.421 42.9794 158.459 104.341 154.187 106.93C150.563 109.131 141.76 112.497 139.688 112.497C137.488 112.497 128.685 109.001 125.189 106.93C120.917 104.341 23.8261 42.9794 12.9519 33.6586C1.94824 24.3378 1.94824 5.69629 1.94824 5.69629H277.429Z" fill="#FDFDFD"/>
<path opacity="0.0491803" d="M277.429 5.69629C277.429 5.69629 277.429 24.2084 266.425 33.5291C255.421 42.8499 158.459 104.212 154.187 106.801C150.563 109.001 141.76 112.367 139.688 112.367C137.488 112.367 128.685 108.872 125.189 106.801C120.917 104.212 23.8261 42.8499 12.9519 33.5291C1.94824 24.2084 1.94824 5.69629 1.94824 5.69629H277.429Z" fill="#FCFCFC"/>
<path opacity="0.0655738" d="M277.429 5.56641C277.429 5.56641 277.429 23.949 266.425 33.2698C255.421 42.4611 158.459 103.952 154.187 106.541C150.563 108.742 141.76 112.108 139.688 112.108C137.488 112.108 128.685 108.613 125.189 106.541C120.917 103.952 23.8261 42.5906 12.9519 33.2698C1.94824 23.949 1.94824 5.56641 1.94824 5.56641H277.429Z" fill="#FBFBFB"/>
<path opacity="0.0819672" d="M277.299 5.4375C277.299 5.4375 277.299 23.6907 266.295 33.0114C255.291 42.2027 158.329 103.694 154.057 106.154C150.433 108.354 141.63 111.72 139.558 111.72C137.358 111.72 128.555 108.225 125.059 106.154C120.787 103.564 23.696 42.2027 12.8218 33.0114C1.81812 23.8201 1.81812 5.4375 1.81812 5.4375H277.299Z" fill="#FAFAFA"/>
<path opacity="0.0983607" d="M277.299 5.30762C277.299 5.30762 277.299 23.4313 266.295 32.7521C255.291 41.9434 158.329 103.305 154.057 105.894C150.433 107.965 141.63 111.461 139.558 111.461C137.358 111.461 128.555 107.965 125.059 105.894C120.787 103.305 23.696 41.9434 12.8218 32.7521C1.81812 23.5608 1.81812 5.30762 1.81812 5.30762H277.299Z" fill="#F9F9F9"/>
<path opacity="0.1148" d="M277.299 5.30762C277.299 5.30762 277.299 23.3019 266.295 32.6226C255.291 41.814 158.329 103.176 154.057 105.765C150.433 107.836 141.63 111.331 139.558 111.331C137.358 111.331 128.555 107.836 125.059 105.765C120.787 103.176 23.696 41.814 12.8218 32.6226C1.81812 23.4313 1.81812 5.30762 1.81812 5.30762H277.299Z" fill="#F8F8F8"/>
<path opacity="0.1311" d="M277.299 5.17773C277.299 5.17773 277.299 23.0425 266.295 32.2338C255.291 41.4252 158.329 102.787 154.057 105.376C150.433 107.447 141.63 110.943 139.558 110.943C137.358 110.943 128.555 107.447 125.059 105.376C120.787 102.787 23.696 41.4252 12.8218 32.2338C1.81812 23.0425 1.81812 5.17773 1.81812 5.17773H277.299Z" fill="#F7F7F7"/>
<path opacity="0.1475" d="M277.299 5.04883C277.299 5.04883 277.299 22.7842 266.295 31.9755C255.291 41.1668 158.329 102.529 154.057 105.118C150.433 107.189 141.63 110.684 139.558 110.684C137.358 110.684 128.555 107.189 125.059 105.118C120.787 102.529 23.696 41.1668 12.8218 31.9755C1.81812 22.7842 1.81812 5.04883 1.81812 5.04883H277.299Z" fill="#F6F6F6"/>
<path opacity="0.1639" d="M277.299 4.91895C277.299 4.91895 277.299 22.5248 266.295 31.7161C255.291 40.9075 158.329 102.269 154.057 104.729C150.433 106.8 141.63 110.295 139.558 110.295C137.358 110.295 128.555 106.8 125.059 104.729C120.787 102.14 23.696 40.778 12.8218 31.7161C1.81812 22.5248 1.81812 4.91895 1.81812 4.91895H277.299Z" fill="#F5F5F5"/>
<path opacity="0.1803" d="M277.299 4.91895C277.299 4.91895 277.299 22.3954 266.295 31.5867C255.291 40.778 158.329 102.14 154.057 104.599C150.433 106.671 141.63 110.166 139.558 110.166C137.358 110.166 128.555 106.671 125.059 104.599C120.787 102.01 23.696 40.778 12.8218 31.5867C1.81812 22.3954 1.81812 4.91895 1.81812 4.91895H277.299Z" fill="#F4F4F4"/>
<path opacity="0.1967" d="M277.17 4.79004C277.17 4.79004 277.17 22.137 266.166 31.3283C255.162 40.5196 158.2 101.752 153.928 104.341C150.304 106.412 141.501 109.908 139.429 109.908C137.229 109.908 128.426 106.412 124.93 104.341C120.658 101.752 23.5671 40.5196 12.6929 31.3283C1.68921 22.137 1.68921 4.79004 1.68921 4.79004H277.17Z" fill="#F3F3F3"/>
<path opacity="0.2131" d="M277.17 4.66016C277.17 4.66016 277.17 21.8777 266.166 31.069C255.162 40.2603 158.2 101.493 153.928 104.082C150.304 106.153 141.501 109.648 139.429 109.648C137.229 109.648 128.426 106.153 124.93 104.082C120.658 101.493 23.5671 40.2603 12.6929 31.069C1.68921 21.8777 1.68921 4.66016 1.68921 4.66016H277.17Z" fill="#F2F2F3"/>
<path opacity="0.2295" d="M277.17 4.53125C277.17 4.53125 277.17 21.6193 266.166 30.8106C255.162 40.0019 158.2 101.234 153.928 103.823C150.304 105.895 141.501 109.39 139.429 109.39C137.229 109.39 128.426 105.895 124.93 103.823C120.658 101.234 23.5671 40.0019 12.6929 30.8106C1.68921 21.6193 1.68921 4.53125 1.68921 4.53125H277.17Z" fill="#F1F1F2"/>
<path opacity="0.2459" d="M277.17 4.53125C277.17 4.53125 277.17 21.4899 266.166 30.6812C255.162 39.743 158.2 101.105 153.928 103.694C150.304 105.765 141.501 109.26 139.429 109.26C137.229 109.26 128.426 105.895 124.93 103.694C120.658 101.105 23.5671 39.8725 12.6929 30.6812C1.68921 21.6193 1.68921 4.53125 1.68921 4.53125H277.17Z" fill="#F0F0F1"/>
<path opacity="0.2623" d="M277.17 4.40137C277.17 4.40137 277.17 21.2305 266.166 30.4218C255.162 39.4837 158.2 100.845 153.928 103.305C150.304 105.376 141.501 108.872 139.429 108.872C137.229 108.872 128.426 105.506 124.93 103.305C120.658 100.716 23.5671 39.4837 12.6929 30.4218C1.68921 21.36 1.68921 4.40137 1.68921 4.40137H277.17Z" fill="#EFF0F0"/>
<path opacity="0.2787" d="M277.17 4.27148C277.17 4.27148 277.17 20.9712 266.166 30.033C255.162 39.0949 158.2 100.457 153.928 102.916C150.304 104.988 141.501 108.483 139.429 108.483C137.229 108.483 128.426 105.117 124.93 102.916C120.658 100.327 23.5671 39.0949 12.6929 30.033C1.68921 20.9712 1.68921 4.27148 1.68921 4.27148H277.17Z" fill="#EEEFEF"/>
<path opacity="0.2951" d="M277.039 4.14258C277.039 4.14258 277.039 20.7128 266.036 29.7747C255.032 38.8365 158.07 100.069 153.798 102.658C150.174 104.729 141.371 108.224 139.299 108.224C137.099 108.224 128.296 104.859 124.8 102.658C120.528 100.198 23.437 38.8365 12.5628 29.7747C1.55908 20.7128 1.55908 4.14258 1.55908 4.14258H277.039Z" fill="#EDEEEE"/>
<path opacity="0.3115" d="M277.039 4.14258C277.039 4.14258 277.039 20.5834 266.036 29.6452C255.032 38.7071 158.07 99.9393 153.798 102.528C150.174 104.6 141.371 108.095 139.299 108.095C137.099 108.095 128.296 104.729 124.8 102.528C120.528 100.069 23.437 38.7071 12.5628 29.6452C1.55908 20.5834 1.55908 4.14258 1.55908 4.14258H277.039Z" fill="#ECEDED"/>
<path opacity="0.3279" d="M277.039 4.01367C277.039 4.01367 277.039 20.325 266.036 29.3869C255.032 38.4487 158.07 99.681 153.798 102.27C150.174 104.341 141.371 107.707 139.299 107.707C137.099 107.707 128.296 104.341 124.8 102.27C120.528 99.8104 23.437 38.4487 12.5628 29.3869C1.55908 20.325 1.55908 4.01367 1.55908 4.01367H277.039Z" fill="#EBECEC"/>
<path opacity="0.3443" d="M277.039 3.88379C277.039 3.88379 277.039 20.0657 266.036 29.1275C255.032 38.1894 158.07 99.4216 153.798 101.881C150.174 103.953 141.371 107.318 139.299 107.318C137.099 107.318 128.296 103.953 124.8 101.881C120.528 99.4216 23.437 38.0599 12.5628 29.1275C1.55908 20.0657 1.55908 3.88379 1.55908 3.88379H277.039Z" fill="#EAEBEB"/>
<path opacity="0.3607" d="M277.039 3.75391C277.039 3.75391 277.039 19.8063 266.036 28.8682C255.032 37.93 158.07 99.1623 153.798 101.622C150.174 103.693 141.371 107.059 139.299 107.059C137.099 107.059 128.296 103.693 124.8 101.622C120.528 99.1623 23.437 37.93 12.5628 28.8682C1.55908 19.8063 1.55908 3.75391 1.55908 3.75391H277.039Z" fill="#E9EAEA"/>
<path opacity="0.377" d="M277.039 3.75391C277.039 3.75391 277.039 19.6769 266.036 28.7387C255.032 37.8006 158.07 99.0328 153.798 101.492C150.174 103.564 141.371 106.93 139.299 106.93C137.099 106.93 128.296 103.564 124.8 101.492C120.528 99.0328 23.437 37.8006 12.5628 28.7387C1.55908 19.6769 1.55908 3.75391 1.55908 3.75391H277.039Z" fill="#E9E9E9"/>
<path opacity="0.3934" d="M277.039 3.62402C277.039 3.62402 277.039 19.4175 266.036 28.4794C255.032 37.5413 158.07 98.7735 153.798 101.233C150.174 103.304 141.371 106.67 139.299 106.67C137.099 106.67 128.296 103.304 124.8 101.233C120.528 98.7735 23.437 37.5413 12.5628 28.4794C1.55908 19.4175 1.55908 3.62402 1.55908 3.62402H277.039Z" fill="#E8E8E8"/>
<path opacity="0.4098" d="M276.91 3.49512C276.91 3.49512 276.91 19.1592 265.907 28.221C254.903 37.2829 157.941 98.3857 153.669 100.975C150.044 103.046 141.241 106.412 139.17 106.412C136.969 106.412 128.166 103.046 124.671 100.975C120.399 98.5151 23.3078 37.2829 12.4336 28.221C1.42993 19.1592 1.42993 3.49512 1.42993 3.49512H276.91Z" fill="#E7E7E7"/>
<path opacity="0.4262" d="M276.91 3.36621C276.91 3.36621 276.91 18.9008 265.907 27.8332C254.903 36.7656 157.941 97.9979 153.669 100.458C150.044 102.529 141.241 105.895 139.17 105.895C136.969 105.895 128.166 102.529 124.671 100.458C120.399 97.9979 23.3078 36.7656 12.4336 27.8332C1.42993 18.9008 1.42993 3.36621 1.42993 3.36621H276.91Z" fill="#E6E6E6"/>
<path opacity="0.4426" d="M276.91 3.36621C276.91 3.36621 276.91 18.7714 265.907 27.7038C254.903 36.6362 157.941 97.8684 153.669 100.328C150.044 102.399 141.241 105.765 139.17 105.765C136.969 105.765 128.166 102.399 124.671 100.328C120.399 97.8684 23.4373 36.6362 12.4336 27.7038C1.42993 18.7714 1.42993 3.36621 1.42993 3.36621H276.91Z" fill="#E5E5E5"/>
<path opacity="0.459" d="M276.91 3.23633C276.91 3.23633 276.91 18.512 265.907 27.4444C254.903 36.3768 157.941 97.6091 153.669 100.069C150.044 102.14 141.241 105.506 139.17 105.506C136.969 105.506 128.166 102.14 124.671 100.069C120.399 97.6091 23.3078 36.3768 12.4336 27.4444C1.42993 18.512 1.42993 3.23633 1.42993 3.23633H276.91Z" fill="#E4E4E4"/>
<path opacity="0.4754" d="M276.91 3.10645C276.91 3.10645 276.91 18.2527 265.907 27.1851C254.903 36.1175 157.941 97.3497 153.669 99.8094C150.044 101.881 141.241 105.247 139.17 105.247C136.969 105.247 128.166 101.881 124.671 99.8094C120.399 97.3497 23.3078 36.1175 12.4336 27.1851C1.42993 18.2527 1.42993 3.10645 1.42993 3.10645H276.91Z" fill="#E3E3E3"/>
<path opacity="0.4918" d="M276.91 2.97754C276.91 2.97754 276.91 17.9943 265.907 26.9267C254.903 35.8591 157.941 97.0914 153.669 99.551C150.044 101.622 141.241 104.988 139.17 104.988C136.969 104.988 128.166 101.622 124.671 99.551C120.399 97.0914 23.3078 35.8591 12.4336 26.9267C1.42993 17.9943 1.42993 2.97754 1.42993 2.97754H276.91Z" fill="#E2E2E2"/>
<path opacity="0.5082" d="M276.91 2.97754C276.91 2.97754 276.91 17.8649 265.907 26.7973C254.903 35.7297 157.941 96.8325 153.669 99.4216C150.044 101.493 141.241 104.859 139.17 104.859C136.969 104.859 128.166 101.493 124.671 99.4216C120.399 96.8325 23.3078 35.6002 12.4336 26.7973C1.42993 17.8649 1.42993 2.97754 1.42993 2.97754H276.91Z" fill="#E1E1E1"/>
<path opacity="0.5246" d="M276.781 2.84863C276.781 2.84863 276.781 17.6065 265.778 26.5389C254.774 35.4713 157.812 96.5741 153.54 99.0338C149.915 101.105 141.113 104.471 139.041 104.471C136.84 104.471 128.038 101.105 124.542 99.0338C120.27 96.5741 23.1789 35.4713 12.3047 26.5389C1.30103 17.6065 1.30103 2.84863 1.30103 2.84863H276.781Z" fill="#E0E0E0"/>
<path opacity="0.541" d="M276.781 2.71875C276.781 2.71875 276.781 17.3472 265.778 26.2796C254.774 35.212 157.812 96.3148 153.54 98.7744C149.915 100.846 141.113 104.212 139.041 104.212C136.84 104.212 128.038 100.846 124.542 98.7744C120.27 96.3148 23.1789 35.212 12.3047 26.2796C1.30103 17.3472 1.30103 2.71875 1.30103 2.71875H276.781Z" fill="#DFDFDF"/>
<path opacity="0.5574" d="M276.781 2.58887C276.781 2.58887 276.781 17.0878 265.778 26.0202C254.774 34.9526 157.812 96.0555 153.54 98.5151C149.915 100.586 141.113 103.952 139.041 103.952C136.84 103.952 128.038 100.586 124.542 98.5151C120.27 96.0555 23.1789 34.9526 12.3047 26.0202C1.30103 17.0878 1.30103 2.58887 1.30103 2.58887H276.781Z" fill="#DEDEDE"/>
<path opacity="0.5738" d="M276.781 2.58887C276.781 2.58887 276.781 16.9584 265.778 25.7613C254.774 34.6937 157.812 95.7965 153.54 98.2562C149.915 100.327 141.113 103.693 139.041 103.693C136.84 103.693 128.038 100.327 124.542 98.2562C120.27 95.7965 23.1789 34.6937 12.3047 25.7613C1.30103 16.8289 1.30103 2.58887 1.30103 2.58887H276.781Z" fill="#DDDDDD"/>
<path opacity="0.5902" d="M276.781 2.45996C276.781 2.45996 276.781 16.7 265.778 25.503C254.774 34.3059 157.812 95.5382 153.54 97.9978C149.915 100.069 141.113 103.435 139.041 103.435C136.84 103.435 128.038 100.069 124.542 97.9978C120.27 95.5382 23.1789 34.4354 12.3047 25.503C1.30103 16.7 1.30103 2.45996 1.30103 2.45996H276.781Z" fill="#DCDCDC"/>
<path opacity="0.6066" d="M276.781 2.33008C276.781 2.33008 276.781 16.4407 265.778 25.2436C254.774 34.0466 157.812 95.1494 153.54 97.609C149.915 99.6803 141.113 103.046 139.041 103.046C136.84 103.046 128.038 99.6803 124.542 97.609C120.27 95.1494 23.1789 34.0466 12.3047 25.2436C1.30103 16.4407 1.30103 2.33008 1.30103 2.33008H276.781Z" fill="#DBDBDB"/>
<path opacity="0.623" d="M276.652 2.20117C276.652 2.20117 276.652 16.1823 265.648 24.9853C254.645 33.7882 157.683 94.891 153.411 97.3507C149.786 99.4219 140.983 102.658 138.912 102.658C136.711 102.658 127.908 99.2925 124.413 97.3507C120.141 94.891 23.0495 33.7882 12.1753 24.9853C1.30103 16.1823 1.30103 2.20117 1.30103 2.20117H276.652Z" fill="#DADADA"/>
<path opacity="0.6393" d="M276.652 2.20117C276.652 2.20117 276.652 16.0529 265.648 24.8558C254.645 33.6588 157.683 94.7616 153.411 97.2212C149.786 99.2925 140.983 102.529 138.912 102.529C136.711 102.529 127.908 99.163 124.413 97.2212C120.141 94.7616 23.0495 33.6588 12.1753 24.8558C1.30103 15.9234 1.30103 2.20117 1.30103 2.20117H276.652Z" fill="#D9D9DA"/>
<path opacity="0.6557" d="M276.652 2.07129C276.652 2.07129 276.652 15.7935 265.648 24.5965C254.645 33.3994 157.683 94.5022 153.411 96.9619C149.786 99.0332 140.983 102.27 138.912 102.27C136.711 102.27 127.908 98.9037 124.413 96.9619C120.141 94.5022 23.0495 33.3994 12.1753 24.5965C1.30103 15.7935 1.30103 2.07129 1.30103 2.07129H276.652Z" fill="#D8D8D9"/>
<path opacity="0.6721" d="M276.652 1.94141C276.652 1.94141 276.652 15.5342 265.648 24.3371C254.645 33.1401 157.683 94.2429 153.411 96.7025C149.786 98.7738 140.983 102.01 138.912 102.01C136.711 102.01 127.908 98.6443 124.413 96.7025C120.141 94.2429 23.0495 33.1401 12.1753 24.3371C1.30103 15.5342 1.30103 1.94141 1.30103 1.94141H276.652Z" fill="#D7D7D8"/>
<path opacity="0.6885" d="M276.651 1.8125C276.651 1.8125 276.651 15.2758 265.648 24.0788C254.644 32.8817 157.682 93.9845 153.41 96.3147C149.785 98.386 140.982 101.622 138.911 101.622C136.71 101.622 127.907 98.2565 124.412 96.3147C120.14 93.8551 23.0488 32.7523 12.1746 24.0788C1.1709 15.2758 1.1709 1.8125 1.1709 1.8125H276.651Z" fill="#D6D6D7"/>
<path opacity="0.7049" d="M276.651 1.8125C276.651 1.8125 276.651 15.1464 265.648 23.9493C254.644 32.7523 157.682 93.7256 153.41 96.1853C149.785 98.2565 140.982 101.493 138.911 101.493C136.71 101.493 127.907 98.2565 124.412 96.1853C120.14 93.7256 23.0488 32.7523 12.1746 23.9493C1.1709 15.1464 1.1709 1.8125 1.1709 1.8125H276.651Z" fill="#D5D5D6"/>
<path opacity="0.7213" d="M276.651 1.68262C276.651 1.68262 276.651 14.887 265.648 23.69C254.644 32.4929 157.682 93.4663 153.41 95.9259C149.785 97.9972 140.982 101.234 138.911 101.234C136.71 101.234 127.907 97.9972 124.412 95.9259C120.14 93.4663 23.0488 32.4929 12.1746 23.69C1.1709 14.887 1.1709 1.68262 1.1709 1.68262H276.651Z" fill="#D4D4D5"/>
<path opacity="0.7377" d="M276.522 1.55371C276.522 1.55371 276.522 14.6287 265.519 23.3022C254.515 32.1051 157.553 93.0785 153.281 95.5381C149.656 97.6094 140.853 100.846 138.782 100.846C136.581 100.846 127.779 97.6094 124.283 95.5381C120.011 93.0785 22.9199 32.1051 12.0457 23.3022C1.04199 14.4992 1.04199 1.55371 1.04199 1.55371H276.522Z" fill="#D3D3D4"/>
<path opacity="0.7541" d="M276.522 1.42383C276.522 1.42383 276.522 14.3693 265.519 23.0428C254.515 31.8458 157.553 92.8191 153.281 95.2788C149.656 97.35 140.853 100.586 138.782 100.586C136.581 100.586 127.779 97.35 124.283 95.2788C120.011 92.8191 22.9199 31.8458 12.0457 23.0428C1.04199 14.2399 1.04199 1.42383 1.04199 1.42383H276.522Z" fill="#D2D2D3"/>
<path opacity="0.7705" d="M276.522 1.42383C276.522 1.42383 276.522 14.2399 265.519 22.9134C254.515 31.5869 157.553 92.6897 153.281 95.0199C149.656 97.0911 140.853 100.327 138.782 100.327C136.581 100.327 127.779 97.0911 124.283 95.0199C120.011 92.5602 22.9199 31.5869 12.0457 22.9134C1.04199 14.2399 1.04199 1.42383 1.04199 1.42383H276.522Z" fill="#D1D2D2"/>
<path opacity="0.7869" d="M276.522 1.29492C276.522 1.29492 276.522 13.9815 265.519 22.655C254.515 31.3285 157.553 92.4313 153.281 94.7615C149.656 96.8328 140.853 100.069 138.782 100.069C136.581 100.069 127.779 96.8328 124.283 94.7615C120.011 92.3018 22.9199 31.3285 12.0457 22.655C1.04199 13.9815 1.04199 1.29492 1.04199 1.29492H276.522Z" fill="#D0D1D1"/>
<path opacity="0.8033" d="M276.522 1.16504C276.522 1.16504 276.522 13.7222 265.519 22.3957C254.515 31.0692 157.553 92.0425 153.281 94.5022C149.656 96.5734 140.853 99.8098 138.782 99.8098C136.581 99.8098 127.779 96.5734 124.283 94.5022C120.011 92.0425 22.9199 31.0692 12.0457 22.3957C1.04199 13.7222 1.04199 1.16504 1.04199 1.16504H276.522Z" fill="#CFD0D0"/>
<path opacity="0.8197" d="M276.522 1.03516C276.522 1.03516 276.522 13.4628 265.519 22.1363C254.515 30.8098 157.553 91.7832 153.281 94.2428C149.656 96.3141 140.853 99.5505 138.782 99.5505C136.581 99.5505 127.779 96.3141 124.283 94.2428C120.011 91.7832 22.9199 30.8098 12.0457 22.1363C1.04199 13.4628 1.04199 1.03516 1.04199 1.03516H276.522Z" fill="#CECFCF"/>
<path opacity="0.8361" d="M276.522 1.03516C276.522 1.03516 276.522 13.3334 265.519 22.0069C254.515 30.6804 157.553 91.6537 153.281 94.1134C149.656 96.1846 140.853 99.421 138.782 99.421C136.581 99.421 127.779 96.1846 124.283 94.1134C120.011 91.6537 22.9199 30.6804 12.0457 22.0069C1.04199 13.3334 1.04199 1.03516 1.04199 1.03516H276.522Z" fill="#CDCECE"/>
<path opacity="0.8525" d="M276.392 0.90625C276.392 0.90625 276.392 13.075 265.388 21.7485C254.385 30.422 157.423 91.3953 153.151 93.855C149.526 95.7968 140.723 99.1627 138.652 99.1627C136.451 99.1627 127.648 95.9263 124.153 93.855C119.881 91.3953 22.7895 30.422 11.9153 21.7485C0.911621 13.075 0.911621 0.90625 0.911621 0.90625H276.392Z" fill="#CCCDCD"/>
<path opacity="0.8689" d="M276.392 0.777344C276.392 0.777344 276.392 12.8167 265.388 21.4902C254.385 30.1636 157.423 91.137 153.151 93.4672C149.526 95.409 140.723 98.7748 138.652 98.7748C136.451 98.7748 127.648 95.5385 124.153 93.4672C119.881 91.0075 22.919 30.1636 11.9153 21.4902C0.911621 12.8167 0.911621 0.777344 0.911621 0.777344H276.392Z" fill="#CBCCCC"/>
<path opacity="0.8852" d="M276.392 0.647461C276.392 0.647461 276.392 12.5573 265.388 21.1014C254.385 29.7749 157.423 90.7482 153.151 93.0784C149.526 95.0202 140.723 98.386 138.652 98.386C136.451 98.386 127.648 95.1497 124.153 93.0784C119.881 90.6187 22.7895 29.7749 11.9153 21.1014C0.911621 12.4279 0.911621 0.647461 0.911621 0.647461H276.392Z" fill="#CACBCB"/>
<path opacity="0.9016" d="M276.392 0.647461C276.392 0.647461 276.392 12.4279 265.388 20.9719C254.385 29.6454 157.423 90.4893 153.151 92.9489C149.526 94.8908 140.723 98.1271 138.652 98.1271C136.451 98.1271 127.648 94.8908 124.153 92.9489C119.881 90.4893 22.7895 29.6454 11.9153 20.9719C0.911621 12.2984 0.911621 0.647461 0.911621 0.647461H276.392Z" fill="#C9CACA"/>
<path opacity="0.918" d="M276.392 0.517578C276.392 0.517578 276.392 12.1685 265.388 20.7126C254.385 29.3861 157.423 90.2299 153.151 92.6896C149.526 94.6314 140.723 97.8678 138.652 97.8678C136.451 97.8678 127.648 94.6314 124.153 92.6896C119.881 90.3594 22.7895 29.3861 11.9153 20.7126C0.911621 12.0391 0.911621 0.517578 0.911621 0.517578H276.392Z" fill="#C8C9C9"/>
<path opacity="0.9344" d="M276.392 0.387695C276.392 0.387695 276.392 11.9092 265.388 20.4532C254.385 29.1267 157.423 89.9706 153.151 92.4303C149.526 94.3721 140.723 97.6085 138.652 97.6085C136.451 97.6085 127.648 94.3721 124.153 92.4303C119.881 90.1001 22.7895 29.1267 11.9153 20.4532C0.911621 11.9092 0.911621 0.387695 0.911621 0.387695H276.392Z" fill="#C7C8C8"/>
<path opacity="0.9508" d="M276.263 0.258789C276.263 0.258789 276.263 11.6508 265.259 20.1949C254.255 28.7389 157.293 89.7123 153.021 92.0424C149.397 93.9843 140.594 97.2206 138.522 97.2206C136.322 97.2206 127.519 93.9843 124.023 92.0424C119.881 89.7123 22.7895 28.8684 11.9153 20.1949C0.911621 11.6508 0.911621 0.258789 0.911621 0.258789H276.263Z" fill="#C6C7C7"/>
<path opacity="0.9672" d="M276.263 0.258789C276.263 0.258789 276.263 11.5214 265.259 20.0654C254.256 28.6095 157.294 89.5828 153.022 91.913C149.397 93.8548 140.594 97.0912 138.523 97.0912C136.322 97.0912 127.519 93.8548 124.024 91.913C119.752 89.5828 22.6606 28.6095 11.7864 20.0654C0.782715 11.5214 0.782715 0.258789 0.782715 0.258789H276.263Z" fill="#C5C6C6"/>
<path opacity="0.9836" d="M276.263 0.129883C276.263 0.129883 276.263 11.263 265.259 19.8071C254.256 28.3511 157.294 89.3244 153.022 91.6546C149.397 93.5964 140.594 96.8328 138.523 96.8328C136.322 96.8328 127.519 93.5964 124.024 91.6546C119.752 89.3244 22.6606 28.3511 11.7864 19.8071C0.782715 11.263 0.782715 0.129883 0.782715 0.129883H276.263Z" fill="#C4C5C5"/>
<path d="M276.264 0C276.264 0 276.264 11.0037 265.26 19.5477C254.257 28.0918 157.295 88.9357 153.023 91.3953C149.398 93.3371 140.595 96.5735 138.524 96.5735C136.323 96.5735 127.52 93.3371 124.025 91.3953C119.753 89.0651 22.6616 28.0918 11.7874 19.5477C0.783691 11.0037 0.783691 0 0.783691 0H276.264Z" fill="#B0B0B0"/>
<path d="M276.264 0C276.264 0 276.264 11.0037 265.26 19.5477C254.257 28.0918 157.295 88.9357 153.023 91.3953C149.398 93.3371 143.184 96.5735 138.524 96.5735C133.864 96.5735 127.52 93.3371 124.025 91.3953C119.753 89.0651 22.6616 28.0918 11.7874 19.5477C0.783691 11.0037 0.783691 0 0.783691 0H276.264Z" fill="url(#paint2_linear)"/>
<circle cx="136.84" cy="92.5598" r="64.0803" fill="url(#paint3_linear)"/>
<path d="M116.248 117H78.4288V107.732L91.1539 94.8647C94.7896 91.0627 97.166 88.4725 98.2828 87.0942C99.3997 85.6922 100.172 84.4922 100.6 83.4941C101.051 82.4961 101.277 81.4505 101.277 80.3574C101.277 79.0029 100.837 77.9336 99.9581 77.1494C99.0789 76.3652 97.8432 75.9731 96.2511 75.9731C94.6114 75.9731 92.948 76.4484 91.2608 77.3989C89.5974 78.3257 87.7083 79.7039 85.5934 81.5337L77.8585 72.48C80.5437 70.0799 82.8012 68.369 84.631 67.3472C86.4607 66.3016 88.4449 65.5055 90.5836 64.959C92.746 64.4124 95.1699 64.1392 97.8551 64.1392C101.229 64.1392 104.235 64.7332 106.873 65.9214C109.535 67.1095 111.59 68.8086 113.04 71.0186C114.513 73.2048 115.25 75.6642 115.25 78.397C115.25 80.4406 114.988 82.3298 114.465 84.0645C113.966 85.7992 113.182 87.5101 112.113 89.1973C111.044 90.8607 109.618 92.6191 107.836 94.4727C106.077 96.3262 102.311 99.8431 96.5362 105.023V105.38H116.248V117ZM139.046 82.8525C142.04 82.8525 144.737 83.5535 147.137 84.9556C149.561 86.3338 151.438 88.2943 152.769 90.8369C154.124 93.3796 154.801 96.3143 154.801 99.6411C154.801 105.463 153.042 109.931 149.525 113.043C146.032 116.156 140.733 117.713 133.628 117.713C127.545 117.713 122.578 116.774 118.729 114.897V103.348C120.796 104.299 123.125 105.083 125.715 105.701C128.329 106.319 130.574 106.627 132.452 106.627C135.066 106.627 137.074 106.081 138.476 104.988C139.878 103.871 140.579 102.231 140.579 100.069C140.579 98.0728 139.866 96.5163 138.44 95.3994C137.014 94.2826 134.852 93.7241 131.953 93.7241C129.743 93.7241 127.354 94.14 124.788 94.9717L119.62 92.4053L121.58 64.8877H151.308V76.6147H133.557L132.915 83.4941C134.769 83.1377 136.087 82.9476 136.872 82.9238C137.656 82.8763 138.381 82.8525 139.046 82.8525ZM194.708 91.0151C194.708 100.235 193.164 106.996 190.075 111.297C186.985 115.574 182.257 117.713 175.888 117.713C169.662 117.713 164.969 115.479 161.808 111.012C158.648 106.521 157.068 99.855 157.068 91.0151C157.068 81.7476 158.612 74.9513 161.702 70.6265C164.791 66.3016 169.52 64.1392 175.888 64.1392C182.09 64.1392 186.772 66.3966 189.932 70.9116C193.116 75.4028 194.708 82.104 194.708 91.0151ZM171.076 91.0151C171.076 96.9084 171.444 100.96 172.181 103.17C172.918 105.38 174.153 106.485 175.888 106.485C177.647 106.485 178.882 105.344 179.595 103.063C180.332 100.782 180.7 96.7658 180.7 91.0151C180.7 85.2407 180.332 81.201 179.595 78.896C178.858 76.5672 177.623 75.4028 175.888 75.4028C174.153 75.4028 172.918 76.5197 172.181 78.7534C171.444 80.9871 171.076 85.0744 171.076 91.0151Z" fill="url(#paint4_linear)"/>
<defs>
<linearGradient id="paint0_linear" x1="138.566" y1="0.0262794" x2="138.566" y2="175.817" gradientUnits="userSpaceOnUse">
<stop stop-color="#D5D5D0"/>
<stop offset="0.1161" stop-color="#E0E0DA"/>
<stop offset="0.3441" stop-color="#EFEFE7"/>
<stop offset="0.6097" stop-color="#F8F8EF"/>
<stop offset="1" stop-color="#FBFBF1"/>
</linearGradient>
<linearGradient id="paint1_linear" x1="139.156" y1="-75.8865" x2="139.156" y2="175.816" gradientUnits="userSpaceOnUse">
<stop stop-color="#D5D5D0"/>
<stop offset="0.1161" stop-color="#E0E0DA"/>
<stop offset="0.3441" stop-color="#EFEFE7"/>
<stop offset="0.6097" stop-color="#F8F8EF"/>
<stop offset="1" stop-color="#FBFBF1"/>
</linearGradient>
<linearGradient id="paint2_linear" x1="138.567" y1="251.73" x2="138.567" y2="0.0271849" gradientUnits="userSpaceOnUse">
<stop stop-color="#D5D5D0"/>
<stop offset="0.1161" stop-color="#E0E0DA"/>
<stop offset="0.3441" stop-color="#EFEFE7"/>
<stop offset="0.6097" stop-color="#F8F8EF"/>
<stop offset="1" stop-color="#FBFBF1"/>
</linearGradient>
<linearGradient id="paint3_linear" x1="136.84" y1="28.4795" x2="136.84" y2="156.64" gradientUnits="userSpaceOnUse">
<stop stop-color="#FFC700"/>
<stop offset="1" stop-color="#FC9517"/>
</linearGradient>
<linearGradient id="paint4_linear" x1="128.21" y1="20.3314" x2="129.806" y2="189.661" gradientUnits="userSpaceOnUse">
<stop stop-color="#D91B24"/>
<stop offset="1" stop-color="#393C5A"/>
</linearGradient>
</defs>
</svg>
