<svg width="278" height="176" viewBox="0 0 278 176" fill="none" xmlns="http://www.w3.org/2000/svg">
<path d="M276.099 0H0.747803V175.8H276.099V0Z" fill="url(#paint0_linear)"/>
<path opacity="0.0163934" d="M0.100586 169.975C0.100586 169.975 0.100586 158.971 11.1043 150.427C22.1079 141.883 119.07 81.0392 123.342 78.5796C126.967 76.6377 135.77 73.4014 137.841 73.4014C140.042 73.4014 148.844 76.6377 152.34 78.5796C156.612 80.9098 253.703 141.883 264.577 150.427C275.581 158.971 275.581 169.975 275.581 169.975H0.100586Z" fill="#FEFEFE"/>
<path opacity="0.0327869" d="M0.100586 170.105C0.100586 170.105 0.100586 159.101 11.1043 150.557C22.1079 142.013 119.07 81.1691 123.342 78.7095C126.967 76.7676 135.77 73.5312 137.841 73.5312C140.042 73.5312 148.844 76.7676 152.34 78.7095C156.612 81.0396 253.703 142.013 264.577 150.557C275.581 159.101 275.581 170.105 275.581 170.105H0.100586Z" fill="#FDFDFD"/>
<path opacity="0.0491803" d="M0.229492 170.234C0.229492 170.234 0.229492 159.23 11.2332 150.686C22.2369 142.142 119.199 81.298 123.471 78.8384C127.095 76.8965 135.898 73.6602 137.97 73.6602C140.17 73.6602 148.973 76.8965 152.469 78.8384C156.741 81.1686 253.832 142.142 264.706 150.686C275.71 159.23 275.71 170.234 275.71 170.234H0.229492Z" fill="#FCFCFC"/>
<path opacity="0.0655738" d="M0.229492 170.363C0.229492 170.363 0.229492 159.359 11.2332 150.815C22.2369 142.271 119.199 81.4269 123.471 78.9673C127.095 77.0254 135.898 73.7891 137.97 73.7891C140.17 73.7891 148.973 77.0254 152.469 78.9673C156.741 81.2975 253.832 142.271 264.706 150.815C275.71 159.359 275.71 170.363 275.71 170.363H0.229492Z" fill="#FBFBFB"/>
<path opacity="0.0819672" d="M0.229492 170.363C0.229492 170.363 0.229492 159.359 11.2332 150.815C22.2369 142.271 119.199 81.4269 123.471 78.9673C127.095 77.0254 135.898 73.7891 137.97 73.7891C140.17 73.7891 148.973 77.0254 152.469 78.9673C156.741 81.2975 253.832 142.271 264.706 150.815C275.71 159.359 275.71 170.363 275.71 170.363H0.229492Z" fill="#FAFAFA"/>
<path opacity="0.0983607" d="M0.229492 170.492C0.229492 170.492 0.229492 159.489 11.2332 150.945C22.2369 142.401 119.199 81.5568 123.471 79.0971C127.095 77.1553 135.898 73.9189 137.97 73.9189C140.17 73.9189 148.973 77.1553 152.469 79.0971C156.741 81.4273 253.832 142.401 264.706 150.945C275.71 159.489 275.71 170.492 275.71 170.492H0.229492Z" fill="#F9F9F9"/>
<path opacity="0.1148" d="M0.229492 170.622C0.229492 170.622 0.229492 159.619 11.2332 151.075C22.2369 142.531 119.199 81.6867 123.471 79.227C127.095 77.2852 135.898 74.0488 137.97 74.0488C140.17 74.0488 148.973 77.2852 152.469 79.227C156.741 81.5572 253.832 142.531 264.706 151.075C275.71 159.619 275.71 170.622 275.71 170.622H0.229492Z" fill="#F8F8F8"/>
<path opacity="0.1311" d="M0.229492 170.751C0.229492 170.751 0.229492 159.748 11.2332 151.204C22.2369 142.659 119.199 81.8156 123.471 79.3559C127.095 77.4141 135.898 74.1777 137.97 74.1777C140.17 74.1777 148.973 77.4141 152.469 79.3559C156.741 81.6861 253.832 142.659 264.706 151.204C275.71 159.748 275.71 170.751 275.71 170.751H0.229492Z" fill="#F7F7F7"/>
<path opacity="0.1475" d="M0.229492 170.751C0.229492 170.751 0.229492 159.748 11.2332 151.204C22.2369 142.659 119.199 81.8156 123.471 79.3559C127.095 77.4141 135.898 74.1777 137.97 74.1777C140.17 74.1777 148.973 77.4141 152.469 79.3559C156.741 81.6861 253.832 142.659 264.706 151.204C275.71 159.748 275.71 170.751 275.71 170.751H0.229492Z" fill="#F6F6F6"/>
<path opacity="0.1639" d="M0.359863 170.881C0.359863 170.881 0.359863 159.877 11.3635 151.333C22.3672 142.789 119.329 81.9455 123.601 79.4858C127.226 77.544 136.029 74.3076 138.1 74.3076C140.301 74.3076 149.104 77.544 152.599 79.4858C156.871 81.816 253.962 142.789 264.837 151.333C275.84 159.877 275.84 170.881 275.84 170.881H0.359863Z" fill="#F5F5F5"/>
<path opacity="0.1803" d="M0.359863 171.01C0.359863 171.01 0.359863 160.006 11.3635 151.462C22.3672 142.918 119.329 82.0744 123.601 79.6147C127.226 77.6729 136.029 74.4365 138.1 74.4365C140.301 74.4365 149.104 77.6729 152.599 79.6147C156.871 81.9449 253.962 142.918 264.837 151.462C275.84 160.006 275.84 171.01 275.84 171.01H0.359863Z" fill="#F4F4F4"/>
<path opacity="0.1967" d="M0.359863 171.14C0.359863 171.14 0.359863 160.136 11.3635 151.592C22.3672 143.048 119.329 82.2043 123.601 79.7446C127.226 77.8028 136.029 74.5664 138.1 74.5664C140.301 74.5664 149.104 77.8028 152.599 79.7446C156.871 82.0748 253.962 143.048 264.837 151.592C275.84 160.136 275.84 171.14 275.84 171.14H0.359863Z" fill="#F3F3F3"/>
<path opacity="0.2131" d="M0.359863 171.14C0.359863 171.14 0.359863 160.136 11.3635 151.592C22.3672 143.048 119.329 82.2043 123.601 79.7446C127.226 77.8028 136.029 74.5664 138.1 74.5664C140.301 74.5664 149.104 77.8028 152.599 79.7446C156.871 82.0748 253.962 143.048 264.837 151.592C275.84 160.136 275.84 171.14 275.84 171.14H0.359863Z" fill="#F2F2F3"/>
<path opacity="0.2295" d="M0.359863 171.269C0.359863 171.269 0.359863 160.265 11.3635 151.721C22.3672 143.177 119.329 82.3332 123.601 79.8735C127.226 77.9317 136.029 74.6953 138.1 74.6953C140.301 74.6953 149.104 77.9317 152.599 79.8735C156.871 82.2037 253.962 143.177 264.837 151.721C275.84 160.265 275.84 171.269 275.84 171.269H0.359863Z" fill="#F1F1F2"/>
<path opacity="0.2459" d="M0.359863 171.399C0.359863 171.399 0.359863 160.395 11.3635 151.851C22.3672 143.307 119.329 82.463 123.601 80.0034C127.226 78.0616 136.029 74.8252 138.1 74.8252C140.301 74.8252 149.104 78.0616 152.599 80.0034C156.871 82.3336 253.962 143.307 264.837 151.851C275.84 160.395 275.84 171.399 275.84 171.399H0.359863Z" fill="#F0F0F1"/>
<path opacity="0.2623" d="M0.359863 171.529C0.359863 171.529 0.359863 160.525 11.3635 151.981C22.3672 143.437 119.329 82.5929 123.601 80.1333C127.226 78.1915 136.029 74.9551 138.1 74.9551C140.301 74.9551 149.104 78.1915 152.599 80.1333C156.871 82.4635 253.962 143.437 264.837 151.981C275.84 160.525 275.84 171.529 275.84 171.529H0.359863Z" fill="#EFF0F0"/>
<path opacity="0.2787" d="M0.48877 171.529C0.48877 171.529 0.48877 160.525 11.4925 151.981C22.4961 143.437 119.458 82.5929 123.73 80.1333C127.355 78.1915 136.158 74.9551 138.229 74.9551C140.43 74.9551 149.233 78.1915 152.728 80.1333C157 82.4635 254.091 143.437 264.965 151.981C275.969 160.525 275.969 171.529 275.969 171.529H0.48877Z" fill="#EEEFEF"/>
<path opacity="0.2951" d="M0.48877 171.657C0.48877 171.657 0.48877 160.654 11.4925 152.11C22.4961 143.566 119.458 82.7218 123.73 80.2622C127.355 78.3204 136.158 75.084 138.229 75.084C140.43 75.084 149.233 78.3204 152.728 80.2622C157 82.5924 254.091 143.566 264.965 152.11C275.969 160.654 275.969 171.657 275.969 171.657H0.48877Z" fill="#EDEEEE"/>
<path opacity="0.3115" d="M0.48877 171.787C0.48877 171.787 0.48877 160.784 11.4925 152.24C22.4961 143.696 119.458 82.8517 123.73 80.3921C127.355 78.4502 136.158 75.2139 138.229 75.2139C140.43 75.2139 149.233 78.4502 152.728 80.3921C157 82.7223 254.091 143.696 264.965 152.24C275.969 160.784 275.969 171.787 275.969 171.787H0.48877Z" fill="#ECEDED"/>
<path opacity="0.3279" d="M0.48877 171.916C0.48877 171.916 0.48877 160.913 11.4925 152.369C22.4961 143.825 119.458 82.9806 123.73 80.521C127.355 78.5792 136.158 75.3428 138.229 75.3428C140.43 75.3428 149.233 78.5792 152.728 80.521C157 82.8512 254.091 143.825 264.965 152.369C275.969 160.913 275.969 171.916 275.969 171.916H0.48877Z" fill="#EBECEC"/>
<path opacity="0.3443" d="M0.48877 171.916C0.48877 171.916 0.48877 160.913 11.4925 152.369C22.4961 143.825 119.458 82.9806 123.73 80.521C127.355 78.5792 136.158 75.3428 138.229 75.3428C140.43 75.3428 149.233 78.5792 152.728 80.521C157 82.8512 254.091 143.825 264.965 152.369C275.969 160.913 275.969 171.916 275.969 171.916H0.48877Z" fill="#EAEBEB"/>
<path opacity="0.3607" d="M0.48877 172.046C0.48877 172.046 0.48877 161.042 11.4925 152.498C22.4961 143.954 119.458 83.1105 123.73 80.6509C127.355 78.709 136.158 75.4727 138.229 75.4727C140.43 75.4727 149.233 78.709 152.728 80.6509C157 82.9811 254.091 143.954 264.965 152.498C275.969 161.042 275.969 172.046 275.969 172.046H0.48877Z" fill="#E9EAEA"/>
<path opacity="0.377" d="M0.618896 172.176C0.618896 172.176 0.618896 161.172 11.6226 152.628C22.6263 144.084 119.588 83.2404 123.86 80.7807C127.485 78.8389 136.288 75.6025 138.359 75.6025C140.56 75.6025 149.363 78.8389 152.858 80.7807C157.13 83.1109 254.221 144.084 265.096 152.628C276.099 161.172 276.099 172.176 276.099 172.176H0.618896Z" fill="#E9E9E9"/>
<path opacity="0.3934" d="M0.618896 172.305C0.618896 172.305 0.618896 161.301 11.6226 152.757C22.6263 144.213 119.588 83.3693 123.86 80.9096C127.485 78.9678 136.288 75.7314 138.359 75.7314C140.56 75.7314 149.363 78.9678 152.858 80.9096C157.13 83.2398 254.221 144.213 265.096 152.757C276.099 161.301 276.099 172.305 276.099 172.305H0.618896Z" fill="#E8E8E8"/>
<path opacity="0.4098" d="M0.618896 172.305C0.618896 172.305 0.618896 161.301 11.6226 152.757C22.6263 144.213 119.588 83.3693 123.86 80.9096C127.485 78.9678 136.288 75.7314 138.359 75.7314C140.56 75.7314 149.363 78.9678 152.858 80.9096C157.13 83.2398 254.221 144.213 265.096 152.757C276.099 161.301 276.099 172.305 276.099 172.305H0.618896Z" fill="#E7E7E7"/>
<path opacity="0.4262" d="M0.618896 172.434C0.618896 172.434 0.618896 161.43 11.6226 152.886C22.6263 144.342 119.588 83.4982 123.86 81.0386C127.485 79.0967 136.288 75.8604 138.359 75.8604C140.56 75.8604 149.363 79.0967 152.858 81.0386C157.13 83.3687 254.221 144.342 265.096 152.886C276.099 161.43 276.099 172.434 276.099 172.434H0.618896Z" fill="#E6E6E6"/>
<path opacity="0.4426" d="M0.618896 172.564C0.618896 172.564 0.618896 161.56 11.6226 153.016C22.6263 144.472 119.588 83.6281 123.86 81.1684C127.485 79.2266 136.288 75.9902 138.359 75.9902C140.56 75.9902 149.363 79.2266 152.858 81.1684C157.13 83.4986 254.221 144.472 265.096 153.016C276.099 161.56 276.099 172.564 276.099 172.564H0.618896Z" fill="#E5E5E5"/>
<path opacity="0.459" d="M0.618896 172.694C0.618896 172.694 0.618896 161.69 11.6226 153.146C22.6263 144.602 119.588 83.758 123.86 81.2983C127.485 79.3565 136.288 76.1201 138.359 76.1201C140.56 76.1201 149.363 79.3565 152.858 81.2983C157.13 83.6285 254.221 144.602 265.096 153.146C276.099 161.69 276.099 172.694 276.099 172.694H0.618896Z" fill="#E4E4E4"/>
<path opacity="0.4754" d="M0.618896 172.694C0.618896 172.694 0.618896 161.69 11.6226 153.146C22.6263 144.602 119.588 83.758 123.86 81.2983C127.485 79.3565 136.288 76.1201 138.359 76.1201C140.56 76.1201 149.363 79.3565 152.858 81.2983C157.13 83.6285 254.221 144.602 265.096 153.146C276.099 161.69 276.099 172.694 276.099 172.694H0.618896Z" fill="#E3E3E3"/>
<path opacity="0.4918" d="M0.747803 172.823C0.747803 172.823 0.747803 161.819 11.7515 153.275C22.7552 144.731 119.717 83.8869 123.989 81.4272C127.614 79.4854 136.417 76.249 138.488 76.249C140.689 76.249 149.492 79.4854 152.987 81.4272C157.259 83.7574 254.35 144.731 265.225 153.275C276.228 161.819 276.228 172.823 276.228 172.823H0.747803Z" fill="#E2E2E2"/>
<path opacity="0.5082" d="M0.747803 172.951C0.747803 172.951 0.747803 161.948 11.7515 153.404C22.7552 144.86 119.717 84.0158 123.989 81.5561C127.614 79.6143 136.417 76.3779 138.488 76.3779C140.689 76.3779 149.492 79.6143 152.987 81.5561C157.259 83.8863 254.35 144.86 265.225 153.404C276.228 161.948 276.228 172.951 276.228 172.951H0.747803Z" fill="#E1E1E1"/>
<path opacity="0.5246" d="M0.747803 172.951C0.747803 172.951 0.747803 161.948 11.7515 153.404C22.7552 144.86 119.717 84.0158 123.989 81.5561C127.614 79.6143 136.417 76.3779 138.488 76.3779C140.689 76.3779 149.492 79.6143 152.987 81.5561C157.259 83.8863 254.35 144.86 265.225 153.404C276.228 161.948 276.228 172.951 276.228 172.951H0.747803Z" fill="#E0E0E0"/>
<path opacity="0.541" d="M0.747803 173.081C0.747803 173.081 0.747803 162.078 11.7515 153.534C22.7552 144.99 119.717 84.1457 123.989 81.686C127.614 79.7442 136.417 76.5078 138.488 76.5078C140.689 76.5078 149.492 79.7442 152.987 81.686C157.259 84.0162 254.35 144.99 265.225 153.534C276.228 162.078 276.228 173.081 276.228 173.081H0.747803Z" fill="#DFDFDF"/>
<path opacity="0.5574" d="M0.747803 173.211C0.747803 173.211 0.747803 162.207 11.7515 153.663C22.7552 145.119 119.717 84.2755 123.989 81.8159C127.614 79.8741 136.417 76.6377 138.488 76.6377C140.689 76.6377 149.492 79.8741 152.987 81.8159C157.259 84.1461 254.35 145.119 265.225 153.663C276.228 162.207 276.228 173.211 276.228 173.211H0.747803Z" fill="#DEDEDE"/>
<path opacity="0.5738" d="M0.747803 173.341C0.747803 173.341 0.747803 162.337 11.7515 153.793C22.7552 145.249 119.717 84.4054 123.989 81.9458C127.614 80.004 136.417 76.7676 138.488 76.7676C140.689 76.7676 149.492 80.004 152.987 81.9458C157.259 84.276 254.35 145.249 265.225 153.793C276.228 162.337 276.228 173.341 276.228 173.341H0.747803Z" fill="#DDDDDD"/>
<path opacity="0.5902" d="M0.747803 173.341C0.747803 173.341 0.747803 162.337 11.7515 153.793C22.7552 145.249 119.717 84.4054 123.989 81.9458C127.614 80.004 136.417 76.7676 138.488 76.7676C140.689 76.7676 149.492 80.004 152.987 81.9458C157.259 84.276 254.35 145.249 265.225 153.793C276.228 162.337 276.228 173.341 276.228 173.341H0.747803Z" fill="#DCDCDC"/>
<path opacity="0.6066" d="M0.876709 173.47C0.876709 173.47 0.876709 162.466 11.8804 153.922C22.8841 145.378 119.846 84.5343 124.118 82.0747C127.743 80.1329 136.546 76.8965 138.617 76.8965C140.818 76.8965 149.621 80.1329 153.116 82.0747C157.388 84.4049 254.479 145.378 265.353 153.922C276.228 162.466 276.228 173.47 276.228 173.47H0.876709Z" fill="#DBDBDB"/>
<path opacity="0.623" d="M0.876709 173.599C0.876709 173.599 0.876709 162.595 11.8804 154.051C22.8841 145.507 119.846 84.6632 124.118 82.2036C127.743 80.2618 136.546 77.0254 138.617 77.0254C140.818 77.0254 149.621 80.2618 153.116 82.2036C157.388 84.5338 254.479 145.507 265.353 154.051C276.228 162.595 276.228 173.599 276.228 173.599H0.876709Z" fill="#DADADA"/>
<path opacity="0.6393" d="M0.876709 173.729C0.876709 173.729 0.876709 162.725 11.8804 154.181C22.8841 145.637 119.846 84.7931 124.118 82.3335C127.743 80.3917 136.546 77.1553 138.617 77.1553C140.818 77.1553 149.621 80.3917 153.116 82.3335C157.388 84.6637 254.479 145.637 265.353 154.181C276.228 162.725 276.228 173.729 276.228 173.729H0.876709Z" fill="#D9D9DA"/>
<path opacity="0.6557" d="M0.876709 173.729C0.876709 173.729 0.876709 162.725 11.8804 154.181C22.8841 145.637 119.846 84.7931 124.118 82.3335C127.743 80.3917 136.546 77.1553 138.617 77.1553C140.818 77.1553 149.621 80.3917 153.116 82.3335C157.388 84.6637 254.479 145.637 265.353 154.181C276.228 162.725 276.228 173.729 276.228 173.729H0.876709Z" fill="#D8D8D9"/>
<path opacity="0.6721" d="M0.876709 173.859C0.876709 173.859 0.876709 162.855 11.8804 154.311C22.8841 145.767 119.846 84.923 124.118 82.4634C127.743 80.5215 136.546 77.2852 138.617 77.2852C140.818 77.2852 149.621 80.5215 153.116 82.4634C157.388 84.7936 254.479 145.767 265.353 154.311C276.228 162.855 276.228 173.859 276.228 173.859H0.876709Z" fill="#D7D7D8"/>
<path opacity="0.6885" d="M0.876709 173.988C0.876709 173.988 0.876709 162.984 11.8804 154.44C22.8841 145.896 119.846 85.0519 124.118 82.5923C127.743 80.6504 136.546 77.4141 138.617 77.4141C140.818 77.4141 149.621 80.6504 153.116 82.5923C157.388 84.9225 254.479 145.896 265.353 154.44C276.228 162.984 276.228 173.988 276.228 173.988H0.876709Z" fill="#D6D6D7"/>
<path opacity="0.7049" d="M0.876709 174.117C0.876709 174.117 0.876709 163.114 11.8804 154.57C22.8841 146.026 119.846 85.1818 124.118 82.7221C127.743 80.7803 136.546 77.5439 138.617 77.5439C140.818 77.5439 149.621 80.7803 153.116 82.7221C157.388 85.0523 254.479 146.026 265.353 154.57C276.228 163.114 276.228 174.117 276.228 174.117H0.876709Z" fill="#D5D5D6"/>
<path opacity="0.7213" d="M1.00708 174.117C1.00708 174.117 1.00708 163.114 12.0108 154.57C23.0144 146.026 119.976 85.1818 124.248 82.7221C127.873 80.7803 136.676 77.5439 138.747 77.5439C140.948 77.5439 149.751 80.7803 153.246 82.7221C157.518 85.0523 254.61 146.026 265.484 154.57C276.358 163.114 276.358 174.117 276.358 174.117H1.00708Z" fill="#D4D4D5"/>
<path opacity="0.7377" d="M1.00708 174.246C1.00708 174.246 1.00708 163.243 12.0108 154.699C23.0144 146.155 119.976 85.3107 124.248 82.8511C127.873 80.9092 136.676 77.6729 138.747 77.6729C140.948 77.6729 149.751 80.9092 153.246 82.8511C157.518 85.1812 254.61 146.155 265.484 154.699C276.358 163.243 276.358 174.246 276.358 174.246H1.00708Z" fill="#D3D3D4"/>
<path opacity="0.7541" d="M1.00708 174.376C1.00708 174.376 1.00708 163.373 12.0108 154.829C23.0144 146.284 119.976 85.4406 124.248 82.9809C127.873 81.0391 136.676 77.8027 138.747 77.8027C140.948 77.8027 149.751 81.0391 153.246 82.9809C157.518 85.3111 254.61 146.284 265.484 154.829C276.358 163.373 276.358 174.376 276.358 174.376H1.00708Z" fill="#D2D2D3"/>
<path opacity="0.7705" d="M1.00708 174.505C1.00708 174.505 1.00708 163.501 12.0108 154.957C23.0144 146.413 119.976 85.5695 124.248 83.1098C127.873 81.168 136.676 77.9316 138.747 77.9316C140.948 77.9316 149.751 81.168 153.246 83.1098C157.518 85.44 254.61 146.413 265.484 154.957C276.358 163.501 276.358 174.505 276.358 174.505H1.00708Z" fill="#D1D2D2"/>
<path opacity="0.7869" d="M1.00708 174.505C1.00708 174.505 1.00708 163.501 12.0108 154.957C23.0144 146.413 119.976 85.5695 124.248 83.1098C127.873 81.168 136.676 77.9316 138.747 77.9316C140.948 77.9316 149.751 81.168 153.246 83.1098C157.518 85.44 254.61 146.413 265.484 154.957C276.358 163.501 276.358 174.505 276.358 174.505H1.00708Z" fill="#D0D1D1"/>
<path opacity="0.8033" d="M1.00708 174.635C1.00708 174.635 1.00708 163.631 12.0108 155.087C23.0144 146.543 119.976 85.6994 124.248 83.2397C127.873 81.2979 136.676 78.0615 138.747 78.0615C140.948 78.0615 149.751 81.2979 153.246 83.2397C157.518 85.5699 254.61 146.543 265.484 155.087C276.358 163.631 276.358 174.635 276.358 174.635H1.00708Z" fill="#CFD0D0"/>
<path opacity="0.8197" d="M1.13599 174.765C1.13599 174.765 1.13599 163.761 12.1397 155.217C23.1433 146.673 120.105 85.8293 124.377 83.3696C128.002 81.4278 136.805 78.1914 138.876 78.1914C141.077 78.1914 149.88 81.4278 153.375 83.3696C157.647 85.6998 254.738 146.673 265.613 155.217C276.487 163.761 276.487 174.765 276.487 174.765H1.13599Z" fill="#CECFCF"/>
<path opacity="0.8361" d="M1.13599 174.894C1.13599 174.894 1.13599 163.89 12.1397 155.346C23.1433 146.802 120.105 85.9582 124.377 83.4985C128.002 81.5567 136.805 78.3203 138.876 78.3203C141.077 78.3203 149.88 81.5567 153.375 83.4985C157.647 85.8287 254.738 146.802 265.613 155.346C276.487 163.89 276.487 174.894 276.487 174.894H1.13599Z" fill="#CDCECE"/>
<path opacity="0.8525" d="M1.13599 174.894C1.13599 174.894 1.13599 163.89 12.1397 155.346C23.1433 146.802 120.105 85.9582 124.377 83.4985C128.002 81.5567 136.805 78.3203 138.876 78.3203C141.077 78.3203 149.88 81.5567 153.375 83.4985C157.647 85.8287 254.738 146.802 265.613 155.346C276.487 163.89 276.487 174.894 276.487 174.894H1.13599Z" fill="#CCCDCD"/>
<path opacity="0.8689" d="M1.13599 175.024C1.13599 175.024 1.13599 164.02 12.1397 155.476C23.1433 146.932 120.105 86.088 124.377 83.6284C128.002 81.6866 136.805 78.4502 138.876 78.4502C141.077 78.4502 149.88 81.6866 153.375 83.6284C157.647 85.9586 254.738 146.932 265.613 155.476C276.487 164.02 276.487 175.024 276.487 175.024H1.13599Z" fill="#CBCCCC"/>
<path opacity="0.8852" d="M1.13599 175.153C1.13599 175.153 1.13599 164.149 12.1397 155.605C23.1433 147.061 120.105 86.217 124.377 83.7573C128.002 81.8155 136.805 78.5791 138.876 78.5791C141.077 78.5791 149.88 81.8155 153.375 83.7573C157.647 86.0875 254.738 147.061 265.613 155.605C276.487 164.149 276.487 175.153 276.487 175.153H1.13599Z" fill="#CACBCB"/>
<path opacity="0.9016" d="M1.13599 175.282C1.13599 175.282 1.13599 164.279 12.1397 155.735C23.1433 147.191 120.105 86.3468 124.377 83.8872C128.002 81.9454 136.805 78.709 138.876 78.709C141.077 78.709 149.88 81.9454 153.375 83.8872C157.647 86.2174 254.738 147.191 265.613 155.735C276.487 164.279 276.487 175.282 276.487 175.282H1.13599Z" fill="#C9CACA"/>
<path opacity="0.918" d="M1.13599 175.282C1.13599 175.282 1.13599 164.279 12.1397 155.735C23.1433 147.191 120.105 86.3468 124.377 83.8872C128.002 81.9454 136.805 78.709 138.876 78.709C141.077 78.709 149.88 81.9454 153.375 83.8872C157.647 86.2174 254.738 147.191 265.613 155.735C276.487 164.279 276.487 175.282 276.487 175.282H1.13599Z" fill="#C8C9C9"/>
<path opacity="0.9344" d="M1.26611 175.412C1.26611 175.412 1.26611 164.409 12.2698 155.865C23.2735 147.321 120.235 86.4767 124.507 84.0171C128.132 82.0752 136.935 78.8389 139.006 78.8389C141.207 78.8389 150.01 82.0752 153.505 84.0171C157.777 86.3473 254.869 147.321 265.743 155.865C276.617 164.409 276.617 175.412 276.617 175.412H1.26611Z" fill="#C7C8C8"/>
<path opacity="0.9508" d="M1.26611 175.541C1.26611 175.541 1.26611 164.538 12.2698 155.994C23.2735 147.45 120.235 86.6056 124.507 84.146C128.132 82.2042 136.935 78.9678 139.006 78.9678C141.207 78.9678 150.01 82.2042 153.505 84.146C157.777 86.4762 254.869 147.45 265.743 155.994C276.617 164.538 276.617 175.541 276.617 175.541H1.26611Z" fill="#C6C7C7"/>
<path opacity="0.9672" d="M1.26611 175.67C1.26611 175.67 1.26611 164.666 12.2698 156.122C23.2735 147.578 120.235 86.7345 124.507 84.2749C128.132 82.3331 136.935 79.0967 139.006 79.0967C141.207 79.0967 150.01 82.3331 153.505 84.2749C157.777 86.6051 254.869 147.578 265.743 156.122C276.617 164.666 276.617 175.67 276.617 175.67H1.26611Z" fill="#C5C6C6"/>
<path opacity="0.9836" d="M1.26611 175.67C1.26611 175.67 1.26611 164.666 12.2698 156.122C23.2735 147.578 120.235 86.7345 124.507 84.2749C128.132 82.3331 136.935 79.0967 139.006 79.0967C141.207 79.0967 150.01 82.3331 153.505 84.2749C157.777 86.6051 254.869 147.578 265.743 156.122C276.617 164.666 276.617 175.67 276.617 175.67H1.26611Z" fill="#C4C5C5"/>
<path d="M1.26611 175.8C1.26611 175.8 1.26611 164.796 12.2698 156.252C23.2735 147.708 120.235 86.8644 124.507 84.4048C128.132 82.4629 136.935 79.2266 139.006 79.2266C141.207 79.2266 150.01 82.4629 153.505 84.4048C157.777 86.735 254.869 147.708 265.743 156.252C276.617 164.796 276.617 175.8 276.617 175.8H1.26611Z" fill="#B0B0B0"/>
<path d="M1.26611 175.8C1.26611 175.8 1.26611 164.796 12.2698 156.252C23.2735 147.708 120.235 86.8644 124.507 84.4048C128.132 82.4629 134.346 79.2266 139.006 79.2266C143.667 79.2266 150.01 82.4629 153.505 84.4048C157.777 86.735 254.869 147.708 265.743 156.252C276.617 164.796 276.617 175.8 276.617 175.8H1.26611Z" fill="url(#paint1_linear)"/>
<path opacity="0.0163934" d="M277.265 5.8252C277.265 5.8252 277.265 24.5962 266.261 33.9169C255.257 43.2377 158.295 104.599 154.023 107.189C150.399 109.389 141.596 112.885 139.524 112.885C137.324 112.885 128.521 109.389 125.025 107.189C120.753 104.599 23.6621 43.2377 12.7879 33.9169C1.78418 24.5962 1.78418 5.8252 1.78418 5.8252H277.265Z" fill="#FEFEFE"/>
<path opacity="0.0327869" d="M277.265 5.69629C277.265 5.69629 277.265 24.3378 266.261 33.6586C255.257 42.9794 158.295 104.341 154.023 106.93C150.399 109.131 141.596 112.497 139.524 112.497C137.324 112.497 128.521 109.001 125.025 106.93C120.753 104.341 23.6621 42.9794 12.7879 33.6586C1.78418 24.3378 1.78418 5.69629 1.78418 5.69629H277.265Z" fill="#FDFDFD"/>
<path opacity="0.0491803" d="M277.265 5.69629C277.265 5.69629 277.265 24.2084 266.261 33.5291C255.257 42.8499 158.295 104.212 154.023 106.801C150.399 109.001 141.596 112.367 139.524 112.367C137.324 112.367 128.521 108.872 125.025 106.801C120.753 104.212 23.6621 42.8499 12.7879 33.5291C1.78418 24.2084 1.78418 5.69629 1.78418 5.69629H277.265Z" fill="#FCFCFC"/>
<path opacity="0.0655738" d="M277.265 5.56641C277.265 5.56641 277.265 23.949 266.261 33.2698C255.257 42.4611 158.295 103.952 154.023 106.541C150.399 108.742 141.596 112.108 139.524 112.108C137.324 112.108 128.521 108.613 125.025 106.541C120.753 103.952 23.6621 42.5906 12.7879 33.2698C1.78418 23.949 1.78418 5.56641 1.78418 5.56641H277.265Z" fill="#FBFBFB"/>
<path opacity="0.0819672" d="M277.134 5.4375C277.134 5.4375 277.134 23.6907 266.131 33.0114C255.127 42.2027 158.165 103.694 153.893 106.154C150.268 108.354 141.466 111.72 139.394 111.72C137.194 111.72 128.391 108.225 124.895 106.154C120.623 103.564 23.532 42.2027 12.6577 33.0114C1.65405 23.8201 1.65405 5.4375 1.65405 5.4375H277.134Z" fill="#FAFAFA"/>
<path opacity="0.0983607" d="M277.134 5.30762C277.134 5.30762 277.134 23.4313 266.131 32.7521C255.127 41.9434 158.165 103.305 153.893 105.894C150.268 107.965 141.466 111.461 139.394 111.461C137.194 111.461 128.391 107.965 124.895 105.894C120.623 103.305 23.532 41.9434 12.6577 32.7521C1.65405 23.5608 1.65405 5.30762 1.65405 5.30762H277.134Z" fill="#F9F9F9"/>
<path opacity="0.1148" d="M277.134 5.30762C277.134 5.30762 277.134 23.3019 266.131 32.6226C255.127 41.814 158.165 103.176 153.893 105.765C150.268 107.836 141.466 111.331 139.394 111.331C137.194 111.331 128.391 107.836 124.895 105.765C120.623 103.176 23.532 41.814 12.6577 32.6226C1.65405 23.4313 1.65405 5.30762 1.65405 5.30762H277.134Z" fill="#F8F8F8"/>
<path opacity="0.1311" d="M277.134 5.17773C277.134 5.17773 277.134 23.0425 266.131 32.2338C255.127 41.4252 158.165 102.787 153.893 105.376C150.268 107.447 141.466 110.943 139.394 110.943C137.194 110.943 128.391 107.447 124.895 105.376C120.623 102.787 23.532 41.4252 12.6577 32.2338C1.65405 23.0425 1.65405 5.17773 1.65405 5.17773H277.134Z" fill="#F7F7F7"/>
<path opacity="0.1475" d="M277.134 5.04883C277.134 5.04883 277.134 22.7842 266.131 31.9755C255.127 41.1668 158.165 102.529 153.893 105.118C150.268 107.189 141.466 110.684 139.394 110.684C137.194 110.684 128.391 107.189 124.895 105.118C120.623 102.529 23.532 41.1668 12.6577 31.9755C1.65405 22.7842 1.65405 5.04883 1.65405 5.04883H277.134Z" fill="#F6F6F6"/>
<path opacity="0.1639" d="M277.134 4.91895C277.134 4.91895 277.134 22.5248 266.131 31.7161C255.127 40.9075 158.165 102.269 153.893 104.729C150.268 106.8 141.466 110.295 139.394 110.295C137.194 110.295 128.391 106.8 124.895 104.729C120.623 102.14 23.532 40.778 12.6577 31.7161C1.65405 22.5248 1.65405 4.91895 1.65405 4.91895H277.134Z" fill="#F5F5F5"/>
<path opacity="0.1803" d="M277.134 4.91895C277.134 4.91895 277.134 22.3954 266.131 31.5867C255.127 40.778 158.165 102.14 153.893 104.599C150.268 106.671 141.466 110.166 139.394 110.166C137.194 110.166 128.391 106.671 124.895 104.599C120.623 102.01 23.532 40.778 12.6577 31.5867C1.65405 22.3954 1.65405 4.91895 1.65405 4.91895H277.134Z" fill="#F4F4F4"/>
<path opacity="0.1967" d="M277.006 4.79004C277.006 4.79004 277.006 22.137 266.002 31.3283C254.998 40.5196 158.036 101.752 153.764 104.341C150.14 106.412 141.337 109.908 139.265 109.908C137.065 109.908 128.262 106.412 124.766 104.341C120.494 101.752 23.4031 40.5196 12.5288 31.3283C1.52515 22.137 1.52515 4.79004 1.52515 4.79004H277.006Z" fill="#F3F3F3"/>
<path opacity="0.2131" d="M277.006 4.66016C277.006 4.66016 277.006 21.8777 266.002 31.069C254.998 40.2603 158.036 101.493 153.764 104.082C150.14 106.153 141.337 109.648 139.265 109.648C137.065 109.648 128.262 106.153 124.766 104.082C120.494 101.493 23.4031 40.2603 12.5288 31.069C1.52515 21.8777 1.52515 4.66016 1.52515 4.66016H277.006Z" fill="#F2F2F3"/>
<path opacity="0.2295" d="M277.006 4.53125C277.006 4.53125 277.006 21.6193 266.002 30.8106C254.998 40.0019 158.036 101.234 153.764 103.823C150.14 105.895 141.337 109.39 139.265 109.39C137.065 109.39 128.262 105.895 124.766 103.823C120.494 101.234 23.4031 40.0019 12.5288 30.8106C1.52515 21.6193 1.52515 4.53125 1.52515 4.53125H277.006Z" fill="#F1F1F2"/>
<path opacity="0.2459" d="M277.006 4.53125C277.006 4.53125 277.006 21.4899 266.002 30.6812C254.998 39.743 158.036 101.105 153.764 103.694C150.14 105.765 141.337 109.26 139.265 109.26C137.065 109.26 128.262 105.895 124.766 103.694C120.494 101.105 23.4031 39.8725 12.5288 30.6812C1.52515 21.6193 1.52515 4.53125 1.52515 4.53125H277.006Z" fill="#F0F0F1"/>
<path opacity="0.2623" d="M277.006 4.40137C277.006 4.40137 277.006 21.2305 266.002 30.4218C254.998 39.4837 158.036 100.845 153.764 103.305C150.14 105.376 141.337 108.872 139.265 108.872C137.065 108.872 128.262 105.506 124.766 103.305C120.494 100.716 23.4031 39.4837 12.5288 30.4218C1.52515 21.36 1.52515 4.40137 1.52515 4.40137H277.006Z" fill="#EFF0F0"/>
<path opacity="0.2787" d="M277.006 4.27148C277.006 4.27148 277.006 20.9712 266.002 30.033C254.998 39.0949 158.036 100.457 153.764 102.916C150.14 104.988 141.337 108.483 139.265 108.483C137.065 108.483 128.262 105.117 124.766 102.916C120.494 100.327 23.4031 39.0949 12.5288 30.033C1.52515 20.9712 1.52515 4.27148 1.52515 4.27148H277.006Z" fill="#EEEFEF"/>
<path opacity="0.2951" d="M276.875 4.14258C276.875 4.14258 276.875 20.7128 265.872 29.7747C254.868 38.8365 157.906 100.069 153.634 102.658C150.009 104.729 141.207 108.224 139.135 108.224C136.934 108.224 128.132 104.859 124.636 102.658C120.364 100.198 23.2729 38.8365 12.3987 29.7747C1.39502 20.7128 1.39502 4.14258 1.39502 4.14258H276.875Z" fill="#EDEEEE"/>
<path opacity="0.3115" d="M276.875 4.14258C276.875 4.14258 276.875 20.5834 265.872 29.6452C254.868 38.7071 157.906 99.9393 153.634 102.528C150.009 104.6 141.207 108.095 139.135 108.095C136.934 108.095 128.132 104.729 124.636 102.528C120.364 100.069 23.2729 38.7071 12.3987 29.6452C1.39502 20.5834 1.39502 4.14258 1.39502 4.14258H276.875Z" fill="#ECEDED"/>
<path opacity="0.3279" d="M276.875 4.01367C276.875 4.01367 276.875 20.325 265.872 29.3869C254.868 38.4487 157.906 99.681 153.634 102.27C150.009 104.341 141.207 107.707 139.135 107.707C136.934 107.707 128.132 104.341 124.636 102.27C120.364 99.8104 23.2729 38.4487 12.3987 29.3869C1.39502 20.325 1.39502 4.01367 1.39502 4.01367H276.875Z" fill="#EBECEC"/>
<path opacity="0.3443" d="M276.875 3.88379C276.875 3.88379 276.875 20.0657 265.872 29.1275C254.868 38.1894 157.906 99.4216 153.634 101.881C150.009 103.953 141.207 107.318 139.135 107.318C136.934 107.318 128.132 103.953 124.636 101.881C120.364 99.4216 23.2729 38.0599 12.3987 29.1275C1.39502 20.0657 1.39502 3.88379 1.39502 3.88379H276.875Z" fill="#EAEBEB"/>
<path opacity="0.3607" d="M276.875 3.75391C276.875 3.75391 276.875 19.8063 265.872 28.8682C254.868 37.93 157.906 99.1623 153.634 101.622C150.009 103.693 141.207 107.059 139.135 107.059C136.934 107.059 128.132 103.693 124.636 101.622C120.364 99.1623 23.2729 37.93 12.3987 28.8682C1.39502 19.8063 1.39502 3.75391 1.39502 3.75391H276.875Z" fill="#E9EAEA"/>
<path opacity="0.377" d="M276.875 3.75391C276.875 3.75391 276.875 19.6769 265.872 28.7387C254.868 37.8006 157.906 99.0328 153.634 101.492C150.009 103.564 141.207 106.93 139.135 106.93C136.934 106.93 128.132 103.564 124.636 101.492C120.364 99.0328 23.2729 37.8006 12.3987 28.7387C1.39502 19.6769 1.39502 3.75391 1.39502 3.75391H276.875Z" fill="#E9E9E9"/>
<path opacity="0.3934" d="M276.875 3.62402C276.875 3.62402 276.875 19.4175 265.872 28.4794C254.868 37.5413 157.906 98.7735 153.634 101.233C150.009 103.304 141.207 106.67 139.135 106.67C136.934 106.67 128.132 103.304 124.636 101.233C120.364 98.7735 23.2729 37.5413 12.3987 28.4794C1.39502 19.4175 1.39502 3.62402 1.39502 3.62402H276.875Z" fill="#E8E8E8"/>
<path opacity="0.4098" d="M276.746 3.49512C276.746 3.49512 276.746 19.1592 265.743 28.221C254.739 37.2829 157.777 98.3857 153.505 100.975C149.88 103.046 141.077 106.412 139.006 106.412C136.805 106.412 128.002 103.046 124.507 100.975C120.235 98.5151 23.1438 37.2829 12.2696 28.221C1.26587 19.1592 1.26587 3.49512 1.26587 3.49512H276.746Z" fill="#E7E7E7"/>
<path opacity="0.4262" d="M276.746 3.36621C276.746 3.36621 276.746 18.9008 265.743 27.8332C254.739 36.7656 157.777 97.9979 153.505 100.458C149.88 102.529 141.077 105.895 139.006 105.895C136.805 105.895 128.002 102.529 124.507 100.458C120.235 97.9979 23.1438 36.7656 12.2696 27.8332C1.26587 18.9008 1.26587 3.36621 1.26587 3.36621H276.746Z" fill="#E6E6E6"/>
<path opacity="0.4426" d="M276.746 3.36621C276.746 3.36621 276.746 18.7714 265.743 27.7038C254.739 36.6362 157.777 97.8684 153.505 100.328C149.88 102.399 141.077 105.765 139.006 105.765C136.805 105.765 128.002 102.399 124.507 100.328C120.235 97.8684 23.2732 36.6362 12.2696 27.7038C1.26587 18.7714 1.26587 3.36621 1.26587 3.36621H276.746Z" fill="#E5E5E5"/>
<path opacity="0.459" d="M276.746 3.23633C276.746 3.23633 276.746 18.512 265.743 27.4444C254.739 36.3768 157.777 97.6091 153.505 100.069C149.88 102.14 141.077 105.506 139.006 105.506C136.805 105.506 128.002 102.14 124.507 100.069C120.235 97.6091 23.1438 36.3768 12.2696 27.4444C1.26587 18.512 1.26587 3.23633 1.26587 3.23633H276.746Z" fill="#E4E4E4"/>
<path opacity="0.4754" d="M276.746 3.10645C276.746 3.10645 276.746 18.2527 265.743 27.1851C254.739 36.1175 157.777 97.3497 153.505 99.8094C149.88 101.881 141.077 105.247 139.006 105.247C136.805 105.247 128.002 101.881 124.507 99.8094C120.235 97.3497 23.1438 36.1175 12.2696 27.1851C1.26587 18.2527 1.26587 3.10645 1.26587 3.10645H276.746Z" fill="#E3E3E3"/>
<path opacity="0.4918" d="M276.746 2.97754C276.746 2.97754 276.746 17.9943 265.743 26.9267C254.739 35.8591 157.777 97.0914 153.505 99.551C149.88 101.622 141.077 104.988 139.006 104.988C136.805 104.988 128.002 101.622 124.507 99.551C120.235 97.0914 23.1438 35.8591 12.2696 26.9267C1.26587 17.9943 1.26587 2.97754 1.26587 2.97754H276.746Z" fill="#E2E2E2"/>
<path opacity="0.5082" d="M276.746 2.97754C276.746 2.97754 276.746 17.8649 265.743 26.7973C254.739 35.7297 157.777 96.8325 153.505 99.4216C149.88 101.493 141.077 104.859 139.006 104.859C136.805 104.859 128.002 101.493 124.507 99.4216C120.235 96.8325 23.1438 35.6002 12.2696 26.7973C1.26587 17.8649 1.26587 2.97754 1.26587 2.97754H276.746Z" fill="#E1E1E1"/>
<path opacity="0.5246" d="M276.617 2.84863C276.617 2.84863 276.617 17.6065 265.614 26.5389C254.61 35.4713 157.648 96.5741 153.376 99.0338C149.751 101.105 140.948 104.471 138.877 104.471C136.676 104.471 127.873 101.105 124.378 99.0338C120.106 96.5741 23.0149 35.4713 12.1406 26.5389C1.13696 17.6065 1.13696 2.84863 1.13696 2.84863H276.617Z" fill="#E0E0E0"/>
<path opacity="0.541" d="M276.617 2.71875C276.617 2.71875 276.617 17.3472 265.614 26.2796C254.61 35.212 157.648 96.3148 153.376 98.7744C149.751 100.846 140.948 104.212 138.877 104.212C136.676 104.212 127.873 100.846 124.378 98.7744C120.106 96.3148 23.0149 35.212 12.1406 26.2796C1.13696 17.3472 1.13696 2.71875 1.13696 2.71875H276.617Z" fill="#DFDFDF"/>
<path opacity="0.5574" d="M276.617 2.58887C276.617 2.58887 276.617 17.0878 265.614 26.0202C254.61 34.9526 157.648 96.0555 153.376 98.5151C149.751 100.586 140.948 103.952 138.877 103.952C136.676 103.952 127.873 100.586 124.378 98.5151C120.106 96.0555 23.0149 34.9526 12.1406 26.0202C1.13696 17.0878 1.13696 2.58887 1.13696 2.58887H276.617Z" fill="#DEDEDE"/>
<path opacity="0.5738" d="M276.617 2.58887C276.617 2.58887 276.617 16.9584 265.614 25.7613C254.61 34.6937 157.648 95.7965 153.376 98.2562C149.751 100.327 140.948 103.693 138.877 103.693C136.676 103.693 127.873 100.327 124.378 98.2562C120.106 95.7965 23.0149 34.6937 12.1406 25.7613C1.13696 16.8289 1.13696 2.58887 1.13696 2.58887H276.617Z" fill="#DDDDDD"/>
<path opacity="0.5902" d="M276.617 2.45996C276.617 2.45996 276.617 16.7 265.614 25.503C254.61 34.3059 157.648 95.5382 153.376 97.9978C149.751 100.069 140.948 103.435 138.877 103.435C136.676 103.435 127.873 100.069 124.378 97.9978C120.106 95.5382 23.0149 34.4354 12.1406 25.503C1.13696 16.7 1.13696 2.45996 1.13696 2.45996H276.617Z" fill="#DCDCDC"/>
<path opacity="0.6066" d="M276.617 2.33008C276.617 2.33008 276.617 16.4407 265.614 25.2436C254.61 34.0466 157.648 95.1494 153.376 97.609C149.751 99.6803 140.948 103.046 138.877 103.046C136.676 103.046 127.873 99.6803 124.378 97.609C120.106 95.1494 23.0149 34.0466 12.1406 25.2436C1.13696 16.4407 1.13696 2.33008 1.13696 2.33008H276.617Z" fill="#DBDBDB"/>
<path opacity="0.623" d="M276.488 2.20117C276.488 2.20117 276.488 16.1823 265.484 24.9853C254.481 33.7882 157.519 94.891 153.247 97.3507C149.622 99.4219 140.819 102.658 138.748 102.658C136.547 102.658 127.744 99.2925 124.249 97.3507C119.977 94.891 22.8854 33.7882 12.0112 24.9853C1.13697 16.1823 1.13696 2.20117 1.13696 2.20117H276.488Z" fill="#DADADA"/>
<path opacity="0.6393" d="M276.488 2.20117C276.488 2.20117 276.488 16.0529 265.484 24.8558C254.481 33.6588 157.519 94.7616 153.247 97.2212C149.622 99.2925 140.819 102.529 138.748 102.529C136.547 102.529 127.744 99.163 124.249 97.2212C119.977 94.7616 22.8854 33.6588 12.0112 24.8558C1.13697 15.9234 1.13696 2.20117 1.13696 2.20117H276.488Z" fill="#D9D9DA"/>
<path opacity="0.6557" d="M276.488 2.07129C276.488 2.07129 276.488 15.7935 265.484 24.5965C254.481 33.3994 157.519 94.5022 153.247 96.9619C149.622 99.0332 140.819 102.27 138.748 102.27C136.547 102.27 127.744 98.9037 124.249 96.9619C119.977 94.5022 22.8854 33.3994 12.0112 24.5965C1.13697 15.7935 1.13696 2.07129 1.13696 2.07129H276.488Z" fill="#D8D8D9"/>
<path opacity="0.6721" d="M276.488 1.94141C276.488 1.94141 276.488 15.5342 265.484 24.3371C254.481 33.1401 157.519 94.2429 153.247 96.7025C149.622 98.7738 140.819 102.01 138.748 102.01C136.547 102.01 127.744 98.6443 124.249 96.7025C119.977 94.2429 22.8854 33.1401 12.0112 24.3371C1.13697 15.5342 1.13696 1.94141 1.13696 1.94141H276.488Z" fill="#D7D7D8"/>
<path opacity="0.6885" d="M276.487 1.8125C276.487 1.8125 276.487 15.2758 265.484 24.0788C254.48 32.8817 157.518 93.9845 153.246 96.3147C149.621 98.386 140.818 101.622 138.747 101.622C136.546 101.622 127.743 98.2565 124.248 96.3147C119.976 93.8551 22.8847 32.7523 12.0105 24.0788C1.00684 15.2758 1.00684 1.8125 1.00684 1.8125H276.487Z" fill="#D6D6D7"/>
<path opacity="0.7049" d="M276.487 1.8125C276.487 1.8125 276.487 15.1464 265.484 23.9493C254.48 32.7523 157.518 93.7256 153.246 96.1853C149.621 98.2565 140.818 101.493 138.747 101.493C136.546 101.493 127.743 98.2565 124.248 96.1853C119.976 93.7256 22.8847 32.7523 12.0105 23.9493C1.00684 15.1464 1.00684 1.8125 1.00684 1.8125H276.487Z" fill="#D5D5D6"/>
<path opacity="0.7213" d="M276.487 1.68262C276.487 1.68262 276.487 14.887 265.484 23.69C254.48 32.4929 157.518 93.4663 153.246 95.9259C149.621 97.9972 140.818 101.234 138.747 101.234C136.546 101.234 127.743 97.9972 124.248 95.9259C119.976 93.4663 22.8847 32.4929 12.0105 23.69C1.00684 14.887 1.00684 1.68262 1.00684 1.68262H276.487Z" fill="#D4D4D5"/>
<path opacity="0.7377" d="M276.358 1.55371C276.358 1.55371 276.358 14.6287 265.355 23.3022C254.351 32.1051 157.389 93.0785 153.117 95.5381C149.492 97.6094 140.689 100.846 138.618 100.846C136.417 100.846 127.614 97.6094 124.119 95.5381C119.847 93.0785 22.7558 32.1051 11.8816 23.3022C0.87793 14.4992 0.87793 1.55371 0.87793 1.55371H276.358Z" fill="#D3D3D4"/>
<path opacity="0.7541" d="M276.358 1.42383C276.358 1.42383 276.358 14.3693 265.355 23.0428C254.351 31.8458 157.389 92.8191 153.117 95.2788C149.492 97.35 140.689 100.586 138.618 100.586C136.417 100.586 127.614 97.35 124.119 95.2788C119.847 92.8191 22.7558 31.8458 11.8816 23.0428C0.87793 14.2399 0.87793 1.42383 0.87793 1.42383H276.358Z" fill="#D2D2D3"/>
<path opacity="0.7705" d="M276.358 1.42383C276.358 1.42383 276.358 14.2399 265.355 22.9134C254.351 31.5869 157.389 92.6897 153.117 95.0199C149.492 97.0911 140.689 100.327 138.618 100.327C136.417 100.327 127.614 97.0911 124.119 95.0199C119.847 92.5602 22.7558 31.5869 11.8816 22.9134C0.87793 14.2399 0.87793 1.42383 0.87793 1.42383H276.358Z" fill="#D1D2D2"/>
<path opacity="0.7869" d="M276.358 1.29492C276.358 1.29492 276.358 13.9815 265.355 22.655C254.351 31.3285 157.389 92.4313 153.117 94.7615C149.492 96.8328 140.689 100.069 138.618 100.069C136.417 100.069 127.614 96.8328 124.119 94.7615C119.847 92.3018 22.7558 31.3285 11.8816 22.655C0.87793 13.9815 0.87793 1.29492 0.87793 1.29492H276.358Z" fill="#D0D1D1"/>
<path opacity="0.8033" d="M276.358 1.16504C276.358 1.16504 276.358 13.7222 265.355 22.3957C254.351 31.0692 157.389 92.0425 153.117 94.5022C149.492 96.5734 140.689 99.8098 138.618 99.8098C136.417 99.8098 127.614 96.5734 124.119 94.5022C119.847 92.0425 22.7558 31.0692 11.8816 22.3957C0.87793 13.7222 0.87793 1.16504 0.87793 1.16504H276.358Z" fill="#CFD0D0"/>
<path opacity="0.8197" d="M276.358 1.03516C276.358 1.03516 276.358 13.4628 265.355 22.1363C254.351 30.8098 157.389 91.7832 153.117 94.2428C149.492 96.3141 140.689 99.5505 138.618 99.5505C136.417 99.5505 127.614 96.3141 124.119 94.2428C119.847 91.7832 22.7558 30.8098 11.8816 22.1363C0.87793 13.4628 0.87793 1.03516 0.87793 1.03516H276.358Z" fill="#CECFCF"/>
<path opacity="0.8361" d="M276.358 1.03516C276.358 1.03516 276.358 13.3334 265.355 22.0069C254.351 30.6804 157.389 91.6537 153.117 94.1134C149.492 96.1846 140.689 99.421 138.618 99.421C136.417 99.421 127.614 96.1846 124.119 94.1134C119.847 91.6537 22.7558 30.6804 11.8816 22.0069C0.87793 13.3334 0.87793 1.03516 0.87793 1.03516H276.358Z" fill="#CDCECE"/>
<path opacity="0.8525" d="M276.228 0.90625C276.228 0.90625 276.228 13.075 265.224 21.7485C254.221 30.422 157.259 91.3953 152.987 93.855C149.362 95.7968 140.559 99.1627 138.488 99.1627C136.287 99.1627 127.484 95.9263 123.989 93.855C119.717 91.3953 22.6255 30.422 11.7512 21.7485C0.747559 13.075 0.747559 0.90625 0.747559 0.90625H276.228Z" fill="#CCCDCD"/>
<path opacity="0.8689" d="M276.228 0.777344C276.228 0.777344 276.228 12.8167 265.224 21.4902C254.221 30.1636 157.259 91.137 152.987 93.4672C149.362 95.409 140.559 98.7748 138.488 98.7748C136.287 98.7748 127.484 95.5385 123.989 93.4672C119.717 91.0075 22.7549 30.1636 11.7512 21.4902C0.747559 12.8167 0.747559 0.777344 0.747559 0.777344H276.228Z" fill="#CBCCCC"/>
<path opacity="0.8852" d="M276.228 0.647461C276.228 0.647461 276.228 12.5573 265.224 21.1014C254.221 29.7749 157.259 90.7482 152.987 93.0784C149.362 95.0202 140.559 98.386 138.488 98.386C136.287 98.386 127.484 95.1497 123.989 93.0784C119.717 90.6187 22.6255 29.7749 11.7512 21.1014C0.747559 12.4279 0.747559 0.647461 0.747559 0.647461H276.228Z" fill="#CACBCB"/>
<path opacity="0.9016" d="M276.228 0.647461C276.228 0.647461 276.228 12.4279 265.224 20.9719C254.221 29.6454 157.259 90.4893 152.987 92.9489C149.362 94.8908 140.559 98.1271 138.488 98.1271C136.287 98.1271 127.484 94.8908 123.989 92.9489C119.717 90.4893 22.6255 29.6454 11.7512 20.9719C0.747559 12.2984 0.747559 0.647461 0.747559 0.647461H276.228Z" fill="#C9CACA"/>
<path opacity="0.918" d="M276.228 0.517578C276.228 0.517578 276.228 12.1685 265.224 20.7126C254.221 29.3861 157.259 90.2299 152.987 92.6896C149.362 94.6314 140.559 97.8678 138.488 97.8678C136.287 97.8678 127.484 94.6314 123.989 92.6896C119.717 90.3594 22.6255 29.3861 11.7512 20.7126C0.747559 12.0391 0.747559 0.517578 0.747559 0.517578H276.228Z" fill="#C8C9C9"/>
<path opacity="0.9344" d="M276.228 0.387695C276.228 0.387695 276.228 11.9092 265.224 20.4532C254.221 29.1267 157.259 89.9706 152.987 92.4303C149.362 94.3721 140.559 97.6085 138.488 97.6085C136.287 97.6085 127.484 94.3721 123.989 92.4303C119.717 90.1001 22.6255 29.1267 11.7512 20.4532C0.747559 11.9092 0.747559 0.387695 0.747559 0.387695H276.228Z" fill="#C7C8C8"/>
<path opacity="0.9508" d="M276.099 0.258789C276.099 0.258789 276.099 11.6508 265.095 20.1949C254.091 28.7389 157.129 89.7123 152.857 92.0424C149.233 93.9843 140.43 97.2206 138.358 97.2206C136.158 97.2206 127.355 93.9843 123.859 92.0424C119.717 89.7123 22.6255 28.8684 11.7512 20.1949C0.747559 11.6508 0.747559 0.258789 0.747559 0.258789H276.099Z" fill="#C6C7C7"/>
<path opacity="0.9672" d="M276.099 0.258789C276.099 0.258789 276.099 11.5214 265.095 20.0654C254.092 28.6095 157.13 89.5828 152.858 91.913C149.233 93.8548 140.43 97.0912 138.359 97.0912C136.158 97.0912 127.355 93.8548 123.86 91.913C119.588 89.5828 22.4966 28.6095 11.6223 20.0654C0.618652 11.5214 0.618652 0.258789 0.618652 0.258789H276.099Z" fill="#C5C6C6"/>
<path opacity="0.9836" d="M276.099 0.129883C276.099 0.129883 276.099 11.263 265.095 19.8071C254.092 28.3511 157.13 89.3244 152.858 91.6546C149.233 93.5964 140.43 96.8328 138.359 96.8328C136.158 96.8328 127.355 93.5964 123.86 91.6546C119.588 89.3244 22.4966 28.3511 11.6223 19.8071C0.618652 11.263 0.618652 0.129883 0.618652 0.129883H276.099Z" fill="#C4C5C5"/>
<path d="M276.1 0C276.1 0 276.1 11.0037 265.096 19.5477C254.093 28.0918 157.131 88.9357 152.859 91.3953C149.234 93.3371 140.431 96.5735 138.36 96.5735C136.159 96.5735 127.356 93.3371 123.861 91.3953C119.589 89.0651 22.4975 28.0918 11.6233 19.5477C0.619629 11.0037 0.619629 0 0.619629 0H276.1Z" fill="#B0B0B0"/>
<path d="M276.1 0C276.1 0 276.1 11.0037 265.096 19.5477C254.093 28.0918 157.131 88.9357 152.859 91.3953C149.234 93.3371 143.02 96.5735 138.36 96.5735C133.699 96.5735 127.356 93.3371 123.861 91.3953C119.589 89.0651 22.4975 28.0918 11.6233 19.5477C0.619629 11.0037 0.619629 0 0.619629 0H276.1Z" fill="url(#paint2_linear)"/>
<circle cx="136.676" cy="92.5598" r="64.0803" fill="url(#paint3_linear)"/>
<path d="M109.668 117H95.3741V89.4111C95.3741 86.0605 95.4454 82.9951 95.588 80.2148C94.7088 81.2842 93.6157 82.401 92.3087 83.5654L86.3917 88.4487L79.0846 79.4663L96.9781 64.8877H109.668V117ZM155.421 91.0151C155.421 100.235 153.876 106.996 150.787 111.297C147.698 115.574 142.969 117.713 136.601 117.713C130.375 117.713 125.681 115.479 122.521 111.012C119.361 106.521 117.78 99.855 117.78 91.0151C117.78 81.7476 119.325 74.9513 122.414 70.6265C125.503 66.3016 130.232 64.1392 136.601 64.1392C142.803 64.1392 147.484 66.3966 150.645 70.9116C153.829 75.4028 155.421 82.104 155.421 91.0151ZM131.789 91.0151C131.789 96.9084 132.157 100.96 132.894 103.17C133.63 105.38 134.866 106.485 136.601 106.485C138.359 106.485 139.595 105.344 140.308 103.063C141.044 100.782 141.413 96.7658 141.413 91.0151C141.413 85.2407 141.044 81.201 140.308 78.896C139.571 76.5672 138.335 75.4028 136.601 75.4028C134.866 75.4028 133.63 76.5197 132.894 78.7534C132.157 80.9871 131.789 85.0744 131.789 91.0151ZM194.544 91.0151C194.544 100.235 193 106.996 189.911 111.297C186.821 115.574 182.093 117.713 175.724 117.713C169.498 117.713 164.805 115.479 161.644 111.012C158.484 106.521 156.904 99.855 156.904 91.0151C156.904 81.7476 158.448 74.9513 161.537 70.6265C164.627 66.3016 169.356 64.1392 175.724 64.1392C181.926 64.1392 186.607 66.3966 189.768 70.9116C192.952 75.4028 194.544 82.104 194.544 91.0151ZM170.912 91.0151C170.912 96.9084 171.28 100.96 172.017 103.17C172.754 105.38 173.989 106.485 175.724 106.485C177.482 106.485 178.718 105.344 179.431 103.063C180.168 100.782 180.536 96.7658 180.536 91.0151C180.536 85.2407 180.168 81.201 179.431 78.896C178.694 76.5672 177.459 75.4028 175.724 75.4028C173.989 75.4028 172.754 76.5197 172.017 78.7534C171.28 80.9871 170.912 85.0744 170.912 91.0151Z" fill="url(#paint4_linear)"/>
<defs>
<linearGradient id="paint0_linear" x1="138.402" y1="0.0262794" x2="138.402" y2="175.817" gradientUnits="userSpaceOnUse">
<stop stop-color="#D5D5D0"/>
<stop offset="0.1161" stop-color="#E0E0DA"/>
<stop offset="0.3441" stop-color="#EFEFE7"/>
<stop offset="0.6097" stop-color="#F8F8EF"/>
<stop offset="1" stop-color="#FBFBF1"/>
</linearGradient>
<linearGradient id="paint1_linear" x1="138.991" y1="-75.8865" x2="138.991" y2="175.816" gradientUnits="userSpaceOnUse">
<stop stop-color="#D5D5D0"/>
<stop offset="0.1161" stop-color="#E0E0DA"/>
<stop offset="0.3441" stop-color="#EFEFE7"/>
<stop offset="0.6097" stop-color="#F8F8EF"/>
<stop offset="1" stop-color="#FBFBF1"/>
</linearGradient>
<linearGradient id="paint2_linear" x1="138.403" y1="251.73" x2="138.403" y2="0.0271849" gradientUnits="userSpaceOnUse">
<stop stop-color="#D5D5D0"/>
<stop offset="0.1161" stop-color="#E0E0DA"/>
<stop offset="0.3441" stop-color="#EFEFE7"/>
<stop offset="0.6097" stop-color="#F8F8EF"/>
<stop offset="1" stop-color="#FBFBF1"/>
</linearGradient>
<linearGradient id="paint3_linear" x1="136.676" y1="28.4795" x2="136.676" y2="156.64" gradientUnits="userSpaceOnUse">
<stop stop-color="#FFC700"/>
<stop offset="1" stop-color="#FC9517"/>
</linearGradient>
<linearGradient id="paint4_linear" x1="128.045" y1="20.3314" x2="129.641" y2="189.661" gradientUnits="userSpaceOnUse">
<stop stop-color="#D91B24"/>
<stop offset="1" stop-color="#393C5A"/>
</linearGradient>
</defs>
</svg>
