<svg width="215" height="136" viewBox="0 0 215 136" fill="none" xmlns="http://www.w3.org/2000/svg">
<path d="M213.9 0H1.2002V135.8H213.9V0Z" fill="url(#paint0_linear)"/>
<path opacity="0.0163934" d="M0.700195 131.3C0.700195 131.3 0.700195 122.8 9.2002 116.2C17.7002 109.6 92.6002 62.6002 95.9002 60.7002C98.7002 59.2002 105.5 56.7002 107.1 56.7002C108.8 56.7002 115.6 59.2002 118.3 60.7002C121.6 62.5002 196.6 109.6 205 116.2C213.5 122.8 213.5 131.3 213.5 131.3H0.700195Z" fill="#FEFEFE"/>
<path opacity="0.0327869" d="M0.700195 131.4C0.700195 131.4 0.700195 122.9 9.2002 116.3C17.7002 109.7 92.6002 62.6998 95.9002 60.7998C98.7002 59.2998 105.5 56.7998 107.1 56.7998C108.8 56.7998 115.6 59.2998 118.3 60.7998C121.6 62.5998 196.6 109.7 205 116.3C213.5 122.9 213.5 131.4 213.5 131.4H0.700195Z" fill="#FDFDFD"/>
<path opacity="0.0491803" d="M0.800293 131.5C0.800293 131.5 0.800293 123 9.30029 116.4C17.8003 109.8 92.7003 62.8004 96.0003 60.9004C98.8003 59.4004 105.6 56.9004 107.2 56.9004C108.9 56.9004 115.7 59.4004 118.4 60.9004C121.7 62.7004 196.7 109.8 205.1 116.4C213.6 123 213.6 131.5 213.6 131.5H0.800293Z" fill="#FCFCFC"/>
<path opacity="0.0655738" d="M0.800293 131.6C0.800293 131.6 0.800293 123.1 9.30029 116.5C17.8003 109.9 92.7003 62.9 96.0003 61C98.8003 59.5 105.6 57 107.2 57C108.9 57 115.7 59.5 118.4 61C121.7 62.8 196.7 109.9 205.1 116.5C213.6 123.1 213.6 131.6 213.6 131.6H0.800293Z" fill="#FBFBFB"/>
<path opacity="0.0819672" d="M0.800293 131.6C0.800293 131.6 0.800293 123.1 9.30029 116.5C17.8003 109.9 92.7003 62.9 96.0003 61C98.8003 59.5 105.6 57 107.2 57C108.9 57 115.7 59.5 118.4 61C121.7 62.8 196.7 109.9 205.1 116.5C213.6 123.1 213.6 131.6 213.6 131.6H0.800293Z" fill="#FAFAFA"/>
<path opacity="0.0983607" d="M0.800293 131.7C0.800293 131.7 0.800293 123.2 9.30029 116.6C17.8003 110 92.7003 62.9996 96.0003 61.0996C98.8003 59.5996 105.6 57.0996 107.2 57.0996C108.9 57.0996 115.7 59.5996 118.4 61.0996C121.7 62.8996 196.7 110 205.1 116.6C213.6 123.2 213.6 131.7 213.6 131.7H0.800293Z" fill="#F9F9F9"/>
<path opacity="0.1148" d="M0.800293 131.8C0.800293 131.8 0.800293 123.3 9.30029 116.7C17.8003 110.1 92.7003 63.1002 96.0003 61.2002C98.8003 59.7002 105.6 57.2002 107.2 57.2002C108.9 57.2002 115.7 59.7002 118.4 61.2002C121.7 63.0002 196.7 110.1 205.1 116.7C213.6 123.3 213.6 131.8 213.6 131.8H0.800293Z" fill="#F8F8F8"/>
<path opacity="0.1311" d="M0.800293 131.9C0.800293 131.9 0.800293 123.4 9.30029 116.8C17.8003 110.2 92.7003 63.1998 96.0003 61.2998C98.8003 59.7998 105.6 57.2998 107.2 57.2998C108.9 57.2998 115.7 59.7998 118.4 61.2998C121.7 63.0998 196.7 110.2 205.1 116.8C213.6 123.4 213.6 131.9 213.6 131.9H0.800293Z" fill="#F7F7F7"/>
<path opacity="0.1475" d="M0.800293 131.9C0.800293 131.9 0.800293 123.4 9.30029 116.8C17.8003 110.2 92.7003 63.1998 96.0003 61.2998C98.8003 59.7998 105.6 57.2998 107.2 57.2998C108.9 57.2998 115.7 59.7998 118.4 61.2998C121.7 63.0998 196.7 110.2 205.1 116.8C213.6 123.4 213.6 131.9 213.6 131.9H0.800293Z" fill="#F6F6F6"/>
<path opacity="0.1639" d="M0.900146 132C0.900146 132 0.900146 123.5 9.40015 116.9C17.9001 110.3 92.8001 63.3004 96.1002 61.4004C98.9002 59.9004 105.7 57.4004 107.3 57.4004C109 57.4004 115.8 59.9004 118.5 61.4004C121.8 63.2004 196.8 110.3 205.2 116.9C213.7 123.5 213.7 132 213.7 132H0.900146Z" fill="#F5F5F5"/>
<path opacity="0.1803" d="M0.900146 132.1C0.900146 132.1 0.900146 123.6 9.40015 117C17.9001 110.4 92.8001 63.4 96.1002 61.5C98.9002 60 105.7 57.5 107.3 57.5C109 57.5 115.8 60 118.5 61.5C121.8 63.3 196.8 110.4 205.2 117C213.7 123.6 213.7 132.1 213.7 132.1H0.900146Z" fill="#F4F4F4"/>
<path opacity="0.1967" d="M0.900146 132.2C0.900146 132.2 0.900146 123.7 9.40015 117.1C17.9001 110.5 92.8001 63.4996 96.1002 61.5996C98.9002 60.0996 105.7 57.5996 107.3 57.5996C109 57.5996 115.8 60.0996 118.5 61.5996C121.8 63.3996 196.8 110.5 205.2 117.1C213.7 123.7 213.7 132.2 213.7 132.2H0.900146Z" fill="#F3F3F3"/>
<path opacity="0.2131" d="M0.900146 132.2C0.900146 132.2 0.900146 123.7 9.40015 117.1C17.9001 110.5 92.8001 63.4996 96.1002 61.5996C98.9002 60.0996 105.7 57.5996 107.3 57.5996C109 57.5996 115.8 60.0996 118.5 61.5996C121.8 63.3996 196.8 110.5 205.2 117.1C213.7 123.7 213.7 132.2 213.7 132.2H0.900146Z" fill="#F2F2F3"/>
<path opacity="0.2295" d="M0.900146 132.3C0.900146 132.3 0.900146 123.8 9.40015 117.2C17.9001 110.6 92.8001 63.6002 96.1002 61.7002C98.9002 60.2002 105.7 57.7002 107.3 57.7002C109 57.7002 115.8 60.2002 118.5 61.7002C121.8 63.5002 196.8 110.6 205.2 117.2C213.7 123.8 213.7 132.3 213.7 132.3H0.900146Z" fill="#F1F1F2"/>
<path opacity="0.2459" d="M0.900146 132.4C0.900146 132.4 0.900146 123.9 9.40015 117.3C17.9001 110.7 92.8001 63.6998 96.1002 61.7998C98.9002 60.2998 105.7 57.7998 107.3 57.7998C109 57.7998 115.8 60.2998 118.5 61.7998C121.8 63.5998 196.8 110.7 205.2 117.3C213.7 123.9 213.7 132.4 213.7 132.4H0.900146Z" fill="#F0F0F1"/>
<path opacity="0.2623" d="M0.900146 132.5C0.900146 132.5 0.900146 124 9.40015 117.4C17.9001 110.8 92.8001 63.8004 96.1002 61.9004C98.9002 60.4004 105.7 57.9004 107.3 57.9004C109 57.9004 115.8 60.4004 118.5 61.9004C121.8 63.7004 196.8 110.8 205.2 117.4C213.7 124 213.7 132.5 213.7 132.5H0.900146Z" fill="#EFF0F0"/>
<path opacity="0.2787" d="M1.00024 132.5C1.00024 132.5 1.00024 124 9.50024 117.4C18.0002 110.8 92.9002 63.8004 96.2002 61.9004C99.0002 60.4004 105.8 57.9004 107.4 57.9004C109.1 57.9004 115.9 60.4004 118.6 61.9004C121.9 63.7004 196.9 110.8 205.3 117.4C213.8 124 213.8 132.5 213.8 132.5H1.00024Z" fill="#EEEFEF"/>
<path opacity="0.2951" d="M1.00024 132.6C1.00024 132.6 1.00024 124.1 9.50024 117.5C18.0002 110.9 92.9002 63.9 96.2002 62C99.0002 60.5 105.8 58 107.4 58C109.1 58 115.9 60.5 118.6 62C121.9 63.8 196.9 110.9 205.3 117.5C213.8 124.1 213.8 132.6 213.8 132.6H1.00024Z" fill="#EDEEEE"/>
<path opacity="0.3115" d="M1.00024 132.7C1.00024 132.7 1.00024 124.2 9.50024 117.6C18.0002 111 92.9002 63.9996 96.2002 62.0996C99.0002 60.5996 105.8 58.0996 107.4 58.0996C109.1 58.0996 115.9 60.5996 118.6 62.0996C121.9 63.8996 196.9 111 205.3 117.6C213.8 124.2 213.8 132.7 213.8 132.7H1.00024Z" fill="#ECEDED"/>
<path opacity="0.3279" d="M1.00024 132.8C1.00024 132.8 1.00024 124.3 9.50024 117.7C18.0002 111.1 92.9002 64.1002 96.2002 62.2002C99.0002 60.7002 105.8 58.2002 107.4 58.2002C109.1 58.2002 115.9 60.7002 118.6 62.2002C121.9 64.0002 196.9 111.1 205.3 117.7C213.8 124.3 213.8 132.8 213.8 132.8H1.00024Z" fill="#EBECEC"/>
<path opacity="0.3443" d="M1.00024 132.8C1.00024 132.8 1.00024 124.3 9.50024 117.7C18.0002 111.1 92.9002 64.1002 96.2002 62.2002C99.0002 60.7002 105.8 58.2002 107.4 58.2002C109.1 58.2002 115.9 60.7002 118.6 62.2002C121.9 64.0002 196.9 111.1 205.3 117.7C213.8 124.3 213.8 132.8 213.8 132.8H1.00024Z" fill="#EAEBEB"/>
<path opacity="0.3607" d="M1.00024 132.9C1.00024 132.9 1.00024 124.4 9.50024 117.8C18.0002 111.2 92.9002 64.1998 96.2002 62.2998C99.0002 60.7998 105.8 58.2998 107.4 58.2998C109.1 58.2998 115.9 60.7998 118.6 62.2998C121.9 64.0998 196.9 111.2 205.3 117.8C213.8 124.4 213.8 132.9 213.8 132.9H1.00024Z" fill="#E9EAEA"/>
<path opacity="0.377" d="M1.1001 133C1.1001 133 1.1001 124.5 9.6001 117.9C18.1001 111.3 93.0001 64.3004 96.3001 62.4004C99.1001 60.9004 105.9 58.4004 107.5 58.4004C109.2 58.4004 116 60.9004 118.7 62.4004C122 64.2004 197 111.3 205.4 117.9C213.9 124.5 213.9 133 213.9 133H1.1001Z" fill="#E9E9E9"/>
<path opacity="0.3934" d="M1.1001 133.1C1.1001 133.1 1.1001 124.6 9.6001 118C18.1001 111.4 93.0001 64.4 96.3001 62.5C99.1001 61 105.9 58.5 107.5 58.5C109.2 58.5 116 61 118.7 62.5C122 64.3 197 111.4 205.4 118C213.9 124.6 213.9 133.1 213.9 133.1H1.1001Z" fill="#E8E8E8"/>
<path opacity="0.4098" d="M1.1001 133.1C1.1001 133.1 1.1001 124.6 9.6001 118C18.1001 111.4 93.0001 64.4 96.3001 62.5C99.1001 61 105.9 58.5 107.5 58.5C109.2 58.5 116 61 118.7 62.5C122 64.3 197 111.4 205.4 118C213.9 124.6 213.9 133.1 213.9 133.1H1.1001Z" fill="#E7E7E7"/>
<path opacity="0.4262" d="M1.1001 133.2C1.1001 133.2 1.1001 124.7 9.6001 118.1C18.1001 111.5 93.0001 64.4996 96.3001 62.5996C99.1001 61.0996 105.9 58.5996 107.5 58.5996C109.2 58.5996 116 61.0996 118.7 62.5996C122 64.3996 197 111.5 205.4 118.1C213.9 124.7 213.9 133.2 213.9 133.2H1.1001Z" fill="#E6E6E6"/>
<path opacity="0.4426" d="M1.1001 133.3C1.1001 133.3 1.1001 124.8 9.6001 118.2C18.1001 111.6 93.0001 64.6002 96.3001 62.7002C99.1001 61.2002 105.9 58.7002 107.5 58.7002C109.2 58.7002 116 61.2002 118.7 62.7002C122 64.5002 197 111.6 205.4 118.2C213.9 124.8 213.9 133.3 213.9 133.3H1.1001Z" fill="#E5E5E5"/>
<path opacity="0.459" d="M1.1001 133.4C1.1001 133.4 1.1001 124.9 9.6001 118.3C18.1001 111.7 93.0001 64.6998 96.3001 62.7998C99.1001 61.2998 105.9 58.7998 107.5 58.7998C109.2 58.7998 116 61.2998 118.7 62.7998C122 64.5998 197 111.7 205.4 118.3C213.9 124.9 213.9 133.4 213.9 133.4H1.1001Z" fill="#E4E4E4"/>
<path opacity="0.4754" d="M1.1001 133.4C1.1001 133.4 1.1001 124.9 9.6001 118.3C18.1001 111.7 93.0001 64.6998 96.3001 62.7998C99.1001 61.2998 105.9 58.7998 107.5 58.7998C109.2 58.7998 116 61.2998 118.7 62.7998C122 64.5998 197 111.7 205.4 118.3C213.9 124.9 213.9 133.4 213.9 133.4H1.1001Z" fill="#E3E3E3"/>
<path opacity="0.4918" d="M1.2002 133.5C1.2002 133.5 1.2002 125 9.7002 118.4C18.2002 111.8 93.1002 64.8004 96.4002 62.9004C99.2002 61.4004 106 58.9004 107.6 58.9004C109.3 58.9004 116.1 61.4004 118.8 62.9004C122.1 64.7004 197.1 111.8 205.5 118.4C214 125 214 133.5 214 133.5H1.2002Z" fill="#E2E2E2"/>
<path opacity="0.5082" d="M1.2002 133.6C1.2002 133.6 1.2002 125.1 9.7002 118.5C18.2002 111.9 93.1002 64.9 96.4002 63C99.2002 61.5 106 59 107.6 59C109.3 59 116.1 61.5 118.8 63C122.1 64.8 197.1 111.9 205.5 118.5C214 125.1 214 133.6 214 133.6H1.2002Z" fill="#E1E1E1"/>
<path opacity="0.5246" d="M1.2002 133.6C1.2002 133.6 1.2002 125.1 9.7002 118.5C18.2002 111.9 93.1002 64.9 96.4002 63C99.2002 61.5 106 59 107.6 59C109.3 59 116.1 61.5 118.8 63C122.1 64.8 197.1 111.9 205.5 118.5C214 125.1 214 133.6 214 133.6H1.2002Z" fill="#E0E0E0"/>
<path opacity="0.541" d="M1.2002 133.7C1.2002 133.7 1.2002 125.2 9.7002 118.6C18.2002 112 93.1002 64.9996 96.4002 63.0996C99.2002 61.5996 106 59.0996 107.6 59.0996C109.3 59.0996 116.1 61.5996 118.8 63.0996C122.1 64.8996 197.1 112 205.5 118.6C214 125.2 214 133.7 214 133.7H1.2002Z" fill="#DFDFDF"/>
<path opacity="0.5574" d="M1.2002 133.8C1.2002 133.8 1.2002 125.3 9.7002 118.7C18.2002 112.1 93.1002 65.1002 96.4002 63.2002C99.2002 61.7002 106 59.2002 107.6 59.2002C109.3 59.2002 116.1 61.7002 118.8 63.2002C122.1 65.0002 197.1 112.1 205.5 118.7C214 125.3 214 133.8 214 133.8H1.2002Z" fill="#DEDEDE"/>
<path opacity="0.5738" d="M1.2002 133.9C1.2002 133.9 1.2002 125.4 9.7002 118.8C18.2002 112.2 93.1002 65.1998 96.4002 63.2998C99.2002 61.7998 106 59.2998 107.6 59.2998C109.3 59.2998 116.1 61.7998 118.8 63.2998C122.1 65.0998 197.1 112.2 205.5 118.8C214 125.4 214 133.9 214 133.9H1.2002Z" fill="#DDDDDD"/>
<path opacity="0.5902" d="M1.2002 133.9C1.2002 133.9 1.2002 125.4 9.7002 118.8C18.2002 112.2 93.1002 65.1998 96.4002 63.2998C99.2002 61.7998 106 59.2998 107.6 59.2998C109.3 59.2998 116.1 61.7998 118.8 63.2998C122.1 65.0998 197.1 112.2 205.5 118.8C214 125.4 214 133.9 214 133.9H1.2002Z" fill="#DCDCDC"/>
<path opacity="0.6066" d="M1.30029 134C1.30029 134 1.30029 125.5 9.80029 118.9C18.3003 112.3 93.2003 65.3004 96.5003 63.4004C99.3003 61.9004 106.1 59.4004 107.7 59.4004C109.4 59.4004 116.2 61.9004 118.9 63.4004C122.2 65.2004 197.2 112.3 205.6 118.9C214 125.5 214 134 214 134H1.30029Z" fill="#DBDBDB"/>
<path opacity="0.623" d="M1.30029 134.1C1.30029 134.1 1.30029 125.6 9.80029 119C18.3003 112.4 93.2003 65.4 96.5003 63.5C99.3003 62 106.1 59.5 107.7 59.5C109.4 59.5 116.2 62 118.9 63.5C122.2 65.3 197.2 112.4 205.6 119C214 125.6 214 134.1 214 134.1H1.30029Z" fill="#DADADA"/>
<path opacity="0.6393" d="M1.30029 134.2C1.30029 134.2 1.30029 125.7 9.80029 119.1C18.3003 112.5 93.2003 65.4996 96.5003 63.5996C99.3003 62.0996 106.1 59.5996 107.7 59.5996C109.4 59.5996 116.2 62.0996 118.9 63.5996C122.2 65.3996 197.2 112.5 205.6 119.1C214 125.7 214 134.2 214 134.2H1.30029Z" fill="#D9D9DA"/>
<path opacity="0.6557" d="M1.30029 134.2C1.30029 134.2 1.30029 125.7 9.80029 119.1C18.3003 112.5 93.2003 65.4996 96.5003 63.5996C99.3003 62.0996 106.1 59.5996 107.7 59.5996C109.4 59.5996 116.2 62.0996 118.9 63.5996C122.2 65.3996 197.2 112.5 205.6 119.1C214 125.7 214 134.2 214 134.2H1.30029Z" fill="#D8D8D9"/>
<path opacity="0.6721" d="M1.30029 134.3C1.30029 134.3 1.30029 125.8 9.80029 119.2C18.3003 112.6 93.2003 65.6002 96.5003 63.7002C99.3003 62.2002 106.1 59.7002 107.7 59.7002C109.4 59.7002 116.2 62.2002 118.9 63.7002C122.2 65.5002 197.2 112.6 205.6 119.2C214 125.8 214 134.3 214 134.3H1.30029Z" fill="#D7D7D8"/>
<path opacity="0.6885" d="M1.30029 134.4C1.30029 134.4 1.30029 125.9 9.80029 119.3C18.3003 112.7 93.2003 65.6998 96.5003 63.7998C99.3003 62.2998 106.1 59.7998 107.7 59.7998C109.4 59.7998 116.2 62.2998 118.9 63.7998C122.2 65.5998 197.2 112.7 205.6 119.3C214 125.9 214 134.4 214 134.4H1.30029Z" fill="#D6D6D7"/>
<path opacity="0.7049" d="M1.30029 134.5C1.30029 134.5 1.30029 126 9.80029 119.4C18.3003 112.8 93.2003 65.8004 96.5003 63.9004C99.3003 62.4004 106.1 59.9004 107.7 59.9004C109.4 59.9004 116.2 62.4004 118.9 63.9004C122.2 65.7004 197.2 112.8 205.6 119.4C214 126 214 134.5 214 134.5H1.30029Z" fill="#D5D5D6"/>
<path opacity="0.7213" d="M1.40015 134.5C1.40015 134.5 1.40015 126 9.90015 119.4C18.4001 112.8 93.3001 65.8004 96.6002 63.9004C99.4002 62.4004 106.2 59.9004 107.8 59.9004C109.5 59.9004 116.3 62.4004 119 63.9004C122.3 65.7004 197.3 112.8 205.7 119.4C214.1 126 214.1 134.5 214.1 134.5H1.40015Z" fill="#D4D4D5"/>
<path opacity="0.7377" d="M1.40015 134.6C1.40015 134.6 1.40015 126.1 9.90015 119.5C18.4001 112.9 93.3001 65.9 96.6002 64C99.4002 62.5 106.2 60 107.8 60C109.5 60 116.3 62.5 119 64C122.3 65.8 197.3 112.9 205.7 119.5C214.1 126.1 214.1 134.6 214.1 134.6H1.40015Z" fill="#D3D3D4"/>
<path opacity="0.7541" d="M1.40015 134.7C1.40015 134.7 1.40015 126.2 9.90015 119.6C18.4001 113 93.3001 65.9996 96.6002 64.0996C99.4002 62.5996 106.2 60.0996 107.8 60.0996C109.5 60.0996 116.3 62.5996 119 64.0996C122.3 65.8996 197.3 113 205.7 119.6C214.1 126.2 214.1 134.7 214.1 134.7H1.40015Z" fill="#D2D2D3"/>
<path opacity="0.7705" d="M1.40015 134.8C1.40015 134.8 1.40015 126.3 9.90015 119.7C18.4001 113.1 93.3001 66.1002 96.6002 64.2002C99.4002 62.7002 106.2 60.2002 107.8 60.2002C109.5 60.2002 116.3 62.7002 119 64.2002C122.3 66.0002 197.3 113.1 205.7 119.7C214.1 126.3 214.1 134.8 214.1 134.8H1.40015Z" fill="#D1D2D2"/>
<path opacity="0.7869" d="M1.40015 134.8C1.40015 134.8 1.40015 126.3 9.90015 119.7C18.4001 113.1 93.3001 66.1002 96.6002 64.2002C99.4002 62.7002 106.2 60.2002 107.8 60.2002C109.5 60.2002 116.3 62.7002 119 64.2002C122.3 66.0002 197.3 113.1 205.7 119.7C214.1 126.3 214.1 134.8 214.1 134.8H1.40015Z" fill="#D0D1D1"/>
<path opacity="0.8033" d="M1.40015 134.9C1.40015 134.9 1.40015 126.4 9.90015 119.8C18.4001 113.2 93.3001 66.1998 96.6002 64.2998C99.4002 62.7998 106.2 60.2998 107.8 60.2998C109.5 60.2998 116.3 62.7998 119 64.2998C122.3 66.0998 197.3 113.2 205.7 119.8C214.1 126.4 214.1 134.9 214.1 134.9H1.40015Z" fill="#CFD0D0"/>
<path opacity="0.8197" d="M1.50024 135C1.50024 135 1.50024 126.5 10.0002 119.9C18.5002 113.3 93.4002 66.3004 96.7002 64.4004C99.5002 62.9004 106.3 60.4004 107.9 60.4004C109.6 60.4004 116.4 62.9004 119.1 64.4004C122.4 66.2004 197.4 113.3 205.8 119.9C214.2 126.5 214.2 135 214.2 135H1.50024Z" fill="#CECFCF"/>
<path opacity="0.8361" d="M1.50024 135.1C1.50024 135.1 1.50024 126.6 10.0002 120C18.5002 113.4 93.4002 66.4 96.7002 64.5C99.5002 63 106.3 60.5 107.9 60.5C109.6 60.5 116.4 63 119.1 64.5C122.4 66.3 197.4 113.4 205.8 120C214.2 126.6 214.2 135.1 214.2 135.1H1.50024Z" fill="#CDCECE"/>
<path opacity="0.8525" d="M1.50024 135.1C1.50024 135.1 1.50024 126.6 10.0002 120C18.5002 113.4 93.4002 66.4 96.7002 64.5C99.5002 63 106.3 60.5 107.9 60.5C109.6 60.5 116.4 63 119.1 64.5C122.4 66.3 197.4 113.4 205.8 120C214.2 126.6 214.2 135.1 214.2 135.1H1.50024Z" fill="#CCCDCD"/>
<path opacity="0.8689" d="M1.50024 135.2C1.50024 135.2 1.50024 126.7 10.0002 120.1C18.5002 113.5 93.4002 66.4996 96.7002 64.5996C99.5002 63.0996 106.3 60.5996 107.9 60.5996C109.6 60.5996 116.4 63.0996 119.1 64.5996C122.4 66.3996 197.4 113.5 205.8 120.1C214.2 126.7 214.2 135.2 214.2 135.2H1.50024Z" fill="#CBCCCC"/>
<path opacity="0.8852" d="M1.50024 135.3C1.50024 135.3 1.50024 126.8 10.0002 120.2C18.5002 113.6 93.4002 66.6002 96.7002 64.7002C99.5002 63.2002 106.3 60.7002 107.9 60.7002C109.6 60.7002 116.4 63.2002 119.1 64.7002C122.4 66.5002 197.4 113.6 205.8 120.2C214.2 126.8 214.2 135.3 214.2 135.3H1.50024Z" fill="#CACBCB"/>
<path opacity="0.9016" d="M1.50024 135.4C1.50024 135.4 1.50024 126.9 10.0002 120.3C18.5002 113.7 93.4002 66.6998 96.7002 64.7998C99.5002 63.2998 106.3 60.7998 107.9 60.7998C109.6 60.7998 116.4 63.2998 119.1 64.7998C122.4 66.5998 197.4 113.7 205.8 120.3C214.2 126.9 214.2 135.4 214.2 135.4H1.50024Z" fill="#C9CACA"/>
<path opacity="0.918" d="M1.50024 135.4C1.50024 135.4 1.50024 126.9 10.0002 120.3C18.5002 113.7 93.4002 66.6998 96.7002 64.7998C99.5002 63.2998 106.3 60.7998 107.9 60.7998C109.6 60.7998 116.4 63.2998 119.1 64.7998C122.4 66.5998 197.4 113.7 205.8 120.3C214.2 126.9 214.2 135.4 214.2 135.4H1.50024Z" fill="#C8C9C9"/>
<path opacity="0.9344" d="M1.6001 135.5C1.6001 135.5 1.6001 127 10.1001 120.4C18.6001 113.8 93.5001 66.8004 96.8001 64.9004C99.6001 63.4004 106.4 60.9004 108 60.9004C109.7 60.9004 116.5 63.4004 119.2 64.9004C122.5 66.7004 197.5 113.8 205.9 120.4C214.3 127 214.3 135.5 214.3 135.5H1.6001Z" fill="#C7C8C8"/>
<path opacity="0.9508" d="M1.6001 135.6C1.6001 135.6 1.6001 127.1 10.1001 120.5C18.6001 113.9 93.5001 66.9 96.8001 65C99.6001 63.5 106.4 61 108 61C109.7 61 116.5 63.5 119.2 65C122.5 66.8 197.5 113.9 205.9 120.5C214.3 127.1 214.3 135.6 214.3 135.6H1.6001Z" fill="#C6C7C7"/>
<path opacity="0.9672" d="M1.6001 135.7C1.6001 135.7 1.6001 127.2 10.1001 120.6C18.6001 114 93.5001 66.9996 96.8001 65.0996C99.6001 63.5996 106.4 61.0996 108 61.0996C109.7 61.0996 116.5 63.5996 119.2 65.0996C122.5 66.8996 197.5 114 205.9 120.6C214.3 127.2 214.3 135.7 214.3 135.7H1.6001Z" fill="#C5C6C6"/>
<path opacity="0.9836" d="M1.6001 135.7C1.6001 135.7 1.6001 127.2 10.1001 120.6C18.6001 114 93.5001 66.9996 96.8001 65.0996C99.6001 63.5996 106.4 61.0996 108 61.0996C109.7 61.0996 116.5 63.5996 119.2 65.0996C122.5 66.8996 197.5 114 205.9 120.6C214.3 127.2 214.3 135.7 214.3 135.7H1.6001Z" fill="#C4C5C5"/>
<path d="M1.6001 135.8C1.6001 135.8 1.6001 127.3 10.1001 120.7C18.6001 114.1 93.5001 67.1002 96.8001 65.2002C99.6001 63.7002 106.4 61.2002 108 61.2002C109.7 61.2002 116.5 63.7002 119.2 65.2002C122.5 67.0002 197.5 114.1 205.9 120.7C214.3 127.3 214.3 135.8 214.3 135.8H1.6001Z" fill="#B0B0B0"/>
<path d="M1.6001 135.8C1.6001 135.8 1.6001 127.3 10.1001 120.7C18.6001 114.1 93.5001 67.1002 96.8001 65.2002C99.6001 63.7002 104.4 61.2002 108 61.2002C111.6 61.2002 116.5 63.7002 119.2 65.2002C122.5 67.0002 197.5 114.1 205.9 120.7C214.3 127.3 214.3 135.8 214.3 135.8H1.6001Z" fill="url(#paint1_linear)"/>
<path opacity="0.0163934" d="M214.8 4.5C214.8 4.5 214.8 19 206.3 26.2C197.8 33.4 122.9 80.8 119.6 82.8C116.8 84.5 110 87.2 108.4 87.2C106.7 87.2 99.9002 84.5 97.2002 82.8C93.9002 80.8 18.9002 33.4 10.5002 26.2C2.00024 19 2.00024 4.5 2.00024 4.5H214.8Z" fill="#FEFEFE"/>
<path opacity="0.0327869" d="M214.8 4.40039C214.8 4.40039 214.8 18.8004 206.3 26.0004C197.8 33.2004 122.9 80.6004 119.6 82.6004C116.8 84.3004 110 86.9004 108.4 86.9004C106.7 86.9004 99.9002 84.2004 97.2002 82.6004C93.9002 80.6004 18.9002 33.2004 10.5002 26.0004C2.00024 18.8004 2.00024 4.40039 2.00024 4.40039H214.8Z" fill="#FDFDFD"/>
<path opacity="0.0491803" d="M214.8 4.40039C214.8 4.40039 214.8 18.7004 206.3 25.9004C197.8 33.1004 122.9 80.5004 119.6 82.5004C116.8 84.2004 110 86.8004 108.4 86.8004C106.7 86.8004 99.9002 84.1004 97.2002 82.5004C93.9002 80.5004 18.9002 33.1004 10.5002 25.9004C2.00024 18.7004 2.00024 4.40039 2.00024 4.40039H214.8Z" fill="#FCFCFC"/>
<path opacity="0.0655738" d="M214.8 4.2998C214.8 4.2998 214.8 18.4998 206.3 25.6998C197.8 32.7998 122.9 80.2998 119.6 82.2998C116.8 83.9998 110 86.5998 108.4 86.5998C106.7 86.5998 99.9002 83.8998 97.2002 82.2998C93.9002 80.2998 18.9002 32.8998 10.5002 25.6998C2.00024 18.4998 2.00024 4.2998 2.00024 4.2998H214.8Z" fill="#FBFBFB"/>
<path opacity="0.0819672" d="M214.7 4.2002C214.7 4.2002 214.7 18.3002 206.2 25.5002C197.7 32.6002 122.8 80.1002 119.5 82.0002C116.7 83.7002 109.9 86.3002 108.3 86.3002C106.6 86.3002 99.8001 83.6002 97.1002 82.0002C93.8001 80.0002 18.8001 32.6002 10.4001 25.5002C1.90015 18.4002 1.90015 4.2002 1.90015 4.2002H214.7Z" fill="#FAFAFA"/>
<path opacity="0.0983607" d="M214.7 4.09961C214.7 4.09961 214.7 18.0996 206.2 25.2996C197.7 32.3996 122.8 79.7996 119.5 81.7996C116.7 83.3996 109.9 86.0996 108.3 86.0996C106.6 86.0996 99.8001 83.3996 97.1002 81.7996C93.8001 79.7996 18.8001 32.3996 10.4001 25.2996C1.90015 18.1996 1.90015 4.09961 1.90015 4.09961H214.7Z" fill="#F9F9F9"/>
<path opacity="0.1148" d="M214.7 4.09961C214.7 4.09961 214.7 17.9996 206.2 25.1996C197.7 32.2996 122.8 79.6996 119.5 81.6996C116.7 83.2996 109.9 85.9996 108.3 85.9996C106.6 85.9996 99.8001 83.2996 97.1002 81.6996C93.8001 79.6996 18.8001 32.2996 10.4001 25.1996C1.90015 18.0996 1.90015 4.09961 1.90015 4.09961H214.7Z" fill="#F8F8F8"/>
<path opacity="0.1311" d="M214.7 4C214.7 4 214.7 17.8 206.2 24.9C197.7 32 122.8 79.4 119.5 81.4C116.7 83 109.9 85.7 108.3 85.7C106.6 85.7 99.8001 83 97.1002 81.4C93.8001 79.4 18.8001 32 10.4001 24.9C1.90015 17.8 1.90015 4 1.90015 4H214.7Z" fill="#F7F7F7"/>
<path opacity="0.1475" d="M214.7 3.90039C214.7 3.90039 214.7 17.6004 206.2 24.7004C197.7 31.8004 122.8 79.2004 119.5 81.2004C116.7 82.8004 109.9 85.5004 108.3 85.5004C106.6 85.5004 99.8001 82.8004 97.1002 81.2004C93.8001 79.2004 18.8001 31.8004 10.4001 24.7004C1.90015 17.6004 1.90015 3.90039 1.90015 3.90039H214.7Z" fill="#F6F6F6"/>
<path opacity="0.1639" d="M214.7 3.7998C214.7 3.7998 214.7 17.3998 206.2 24.4998C197.7 31.5998 122.8 78.9998 119.5 80.8998C116.7 82.4998 109.9 85.1998 108.3 85.1998C106.6 85.1998 99.8001 82.4998 97.1002 80.8998C93.8001 78.8998 18.8001 31.4998 10.4001 24.4998C1.90015 17.3998 1.90015 3.7998 1.90015 3.7998H214.7Z" fill="#F5F5F5"/>
<path opacity="0.1803" d="M214.7 3.7998C214.7 3.7998 214.7 17.2998 206.2 24.3998C197.7 31.4998 122.8 78.8998 119.5 80.7998C116.7 82.3998 109.9 85.0998 108.3 85.0998C106.6 85.0998 99.8001 82.3998 97.1002 80.7998C93.8001 78.7998 18.8001 31.4998 10.4001 24.3998C1.90015 17.2998 1.90015 3.7998 1.90015 3.7998H214.7Z" fill="#F4F4F4"/>
<path opacity="0.1967" d="M214.6 3.7002C214.6 3.7002 214.6 17.1002 206.1 24.2002C197.6 31.3002 122.7 78.6002 119.4 80.6002C116.6 82.2002 109.8 84.9002 108.2 84.9002C106.5 84.9002 99.7003 82.2002 97.0003 80.6002C93.7003 78.6002 18.7003 31.3002 10.3003 24.2002C1.80029 17.1002 1.80029 3.7002 1.80029 3.7002H214.6Z" fill="#F3F3F3"/>
<path opacity="0.2131" d="M214.6 3.59961C214.6 3.59961 214.6 16.8996 206.1 23.9996C197.6 31.0996 122.7 78.3996 119.4 80.3996C116.6 81.9996 109.8 84.6996 108.2 84.6996C106.5 84.6996 99.7003 81.9996 97.0003 80.3996C93.7003 78.3996 18.7003 31.0996 10.3003 23.9996C1.80029 16.8996 1.80029 3.59961 1.80029 3.59961H214.6Z" fill="#F2F2F3"/>
<path opacity="0.2295" d="M214.6 3.5C214.6 3.5 214.6 16.7 206.1 23.8C197.6 30.9 122.7 78.2 119.4 80.2C116.6 81.8 109.8 84.5 108.2 84.5C106.5 84.5 99.7003 81.8 97.0003 80.2C93.7003 78.2 18.7003 30.9 10.3003 23.8C1.80029 16.7 1.80029 3.5 1.80029 3.5H214.6Z" fill="#F1F1F2"/>
<path opacity="0.2459" d="M214.6 3.5C214.6 3.5 214.6 16.6 206.1 23.7C197.6 30.7 122.7 78.1 119.4 80.1C116.6 81.7 109.8 84.4 108.2 84.4C106.5 84.4 99.7003 81.8 97.0003 80.1C93.7003 78.1 18.7003 30.8 10.3003 23.7C1.80029 16.7 1.80029 3.5 1.80029 3.5H214.6Z" fill="#F0F0F1"/>
<path opacity="0.2623" d="M214.6 3.40039C214.6 3.40039 214.6 16.4004 206.1 23.5004C197.6 30.5004 122.7 77.9004 119.4 79.8004C116.6 81.4004 109.8 84.1004 108.2 84.1004C106.5 84.1004 99.7003 81.5004 97.0003 79.8004C93.7003 77.8004 18.7003 30.5004 10.3003 23.5004C1.80029 16.5004 1.80029 3.40039 1.80029 3.40039H214.6Z" fill="#EFF0F0"/>
<path opacity="0.2787" d="M214.6 3.2998C214.6 3.2998 214.6 16.1998 206.1 23.1998C197.6 30.1998 122.7 77.5998 119.4 79.4998C116.6 81.0998 109.8 83.7998 108.2 83.7998C106.5 83.7998 99.7003 81.1998 97.0003 79.4998C93.7003 77.4998 18.7003 30.1998 10.3003 23.1998C1.80029 16.1998 1.80029 3.2998 1.80029 3.2998H214.6Z" fill="#EEEFEF"/>
<path opacity="0.2951" d="M214.5 3.2002C214.5 3.2002 214.5 16.0002 206 23.0002C197.5 30.0002 122.6 77.3002 119.3 79.3002C116.5 80.9002 109.7 83.6002 108.1 83.6002C106.4 83.6002 99.6002 81.0002 96.9002 79.3002C93.6002 77.4002 18.6002 30.0002 10.2002 23.0002C1.7002 16.0002 1.7002 3.2002 1.7002 3.2002H214.5Z" fill="#EDEEEE"/>
<path opacity="0.3115" d="M214.5 3.2002C214.5 3.2002 214.5 15.9002 206 22.9002C197.5 29.9002 122.6 77.2002 119.3 79.2002C116.5 80.8002 109.7 83.5002 108.1 83.5002C106.4 83.5002 99.6002 80.9002 96.9002 79.2002C93.6002 77.3002 18.6002 29.9002 10.2002 22.9002C1.7002 15.9002 1.7002 3.2002 1.7002 3.2002H214.5Z" fill="#ECEDED"/>
<path opacity="0.3279" d="M214.5 3.09961C214.5 3.09961 214.5 15.6996 206 22.6996C197.5 29.6996 122.6 76.9996 119.3 78.9996C116.5 80.5996 109.7 83.1996 108.1 83.1996C106.4 83.1996 99.6002 80.5996 96.9002 78.9996C93.6002 77.0996 18.6002 29.6996 10.2002 22.6996C1.7002 15.6996 1.7002 3.09961 1.7002 3.09961H214.5Z" fill="#EBECEC"/>
<path opacity="0.3443" d="M214.5 3C214.5 3 214.5 15.5 206 22.5C197.5 29.5 122.6 76.8 119.3 78.7C116.5 80.3 109.7 82.9 108.1 82.9C106.4 82.9 99.6002 80.3 96.9002 78.7C93.6002 76.8 18.6002 29.4 10.2002 22.5C1.7002 15.5 1.7002 3 1.7002 3H214.5Z" fill="#EAEBEB"/>
<path opacity="0.3607" d="M214.5 2.90039C214.5 2.90039 214.5 15.3004 206 22.3004C197.5 29.3004 122.6 76.6004 119.3 78.5004C116.5 80.1004 109.7 82.7004 108.1 82.7004C106.4 82.7004 99.6002 80.1004 96.9002 78.5004C93.6002 76.6004 18.6002 29.3004 10.2002 22.3004C1.7002 15.3004 1.7002 2.90039 1.7002 2.90039H214.5Z" fill="#E9EAEA"/>
<path opacity="0.377" d="M214.5 2.90039C214.5 2.90039 214.5 15.2004 206 22.2004C197.5 29.2004 122.6 76.5004 119.3 78.4004C116.5 80.0004 109.7 82.6004 108.1 82.6004C106.4 82.6004 99.6002 80.0004 96.9002 78.4004C93.6002 76.5004 18.6002 29.2004 10.2002 22.2004C1.7002 15.2004 1.7002 2.90039 1.7002 2.90039H214.5Z" fill="#E9E9E9"/>
<path opacity="0.3934" d="M214.5 2.7998C214.5 2.7998 214.5 14.9998 206 21.9998C197.5 28.9998 122.6 76.2998 119.3 78.1998C116.5 79.7998 109.7 82.3998 108.1 82.3998C106.4 82.3998 99.6002 79.7998 96.9002 78.1998C93.6002 76.2998 18.6002 28.9998 10.2002 21.9998C1.7002 14.9998 1.7002 2.7998 1.7002 2.7998H214.5Z" fill="#E8E8E8"/>
<path opacity="0.4098" d="M214.4 2.7002C214.4 2.7002 214.4 14.8002 205.9 21.8002C197.4 28.8002 122.5 76.0002 119.2 78.0002C116.4 79.6002 109.6 82.2002 108 82.2002C106.3 82.2002 99.5001 79.6002 96.8001 78.0002C93.5001 76.1002 18.5001 28.8002 10.1001 21.8002C1.6001 14.8002 1.6001 2.7002 1.6001 2.7002H214.4Z" fill="#E7E7E7"/>
<path opacity="0.4262" d="M214.4 2.59961C214.4 2.59961 214.4 14.5996 205.9 21.4996C197.4 28.3996 122.5 75.6996 119.2 77.5996C116.4 79.1996 109.6 81.7996 108 81.7996C106.3 81.7996 99.5001 79.1996 96.8001 77.5996C93.5001 75.6996 18.5001 28.3996 10.1001 21.4996C1.6001 14.5996 1.6001 2.59961 1.6001 2.59961H214.4Z" fill="#E6E6E6"/>
<path opacity="0.4426" d="M214.4 2.59961C214.4 2.59961 214.4 14.4996 205.9 21.3996C197.4 28.2996 122.5 75.5996 119.2 77.4996C116.4 79.0996 109.6 81.6996 108 81.6996C106.3 81.6996 99.5001 79.0996 96.8001 77.4996C93.5001 75.5996 18.6001 28.2996 10.1001 21.3996C1.6001 14.4996 1.6001 2.59961 1.6001 2.59961H214.4Z" fill="#E5E5E5"/>
<path opacity="0.459" d="M214.4 2.5C214.4 2.5 214.4 14.3 205.9 21.2C197.4 28.1 122.5 75.4 119.2 77.3C116.4 78.9 109.6 81.5 108 81.5C106.3 81.5 99.5001 78.9 96.8001 77.3C93.5001 75.4 18.5001 28.1 10.1001 21.2C1.6001 14.3 1.6001 2.5 1.6001 2.5H214.4Z" fill="#E4E4E4"/>
<path opacity="0.4754" d="M214.4 2.40039C214.4 2.40039 214.4 14.1004 205.9 21.0004C197.4 27.9004 122.5 75.2004 119.2 77.1004C116.4 78.7004 109.6 81.3004 108 81.3004C106.3 81.3004 99.5001 78.7004 96.8001 77.1004C93.5001 75.2004 18.5001 27.9004 10.1001 21.0004C1.6001 14.1004 1.6001 2.40039 1.6001 2.40039H214.4Z" fill="#E3E3E3"/>
<path opacity="0.4918" d="M214.4 2.2998C214.4 2.2998 214.4 13.8998 205.9 20.7998C197.4 27.6998 122.5 74.9998 119.2 76.8998C116.4 78.4998 109.6 81.0998 108 81.0998C106.3 81.0998 99.5001 78.4998 96.8001 76.8998C93.5001 74.9998 18.5001 27.6998 10.1001 20.7998C1.6001 13.8998 1.6001 2.2998 1.6001 2.2998H214.4Z" fill="#E2E2E2"/>
<path opacity="0.5082" d="M214.4 2.2998C214.4 2.2998 214.4 13.7998 205.9 20.6998C197.4 27.5998 122.5 74.7998 119.2 76.7998C116.4 78.3998 109.6 80.9998 108 80.9998C106.3 80.9998 99.5001 78.3998 96.8001 76.7998C93.5001 74.7998 18.5001 27.4998 10.1001 20.6998C1.6001 13.7998 1.6001 2.2998 1.6001 2.2998H214.4Z" fill="#E1E1E1"/>
<path opacity="0.5246" d="M214.3 2.2002C214.3 2.2002 214.3 13.6002 205.8 20.5002C197.3 27.4002 122.4 74.6002 119.1 76.5002C116.3 78.1002 109.5 80.7002 107.9 80.7002C106.2 80.7002 99.4002 78.1002 96.7002 76.5002C93.4002 74.6002 18.4002 27.4002 10.0002 20.5002C1.50024 13.6002 1.50024 2.2002 1.50024 2.2002H214.3Z" fill="#E0E0E0"/>
<path opacity="0.541" d="M214.3 2.09961C214.3 2.09961 214.3 13.3996 205.8 20.2996C197.3 27.1996 122.4 74.3996 119.1 76.2996C116.3 77.8996 109.5 80.4996 107.9 80.4996C106.2 80.4996 99.4002 77.8996 96.7002 76.2996C93.4002 74.3996 18.4002 27.1996 10.0002 20.2996C1.50024 13.3996 1.50024 2.09961 1.50024 2.09961H214.3Z" fill="#DFDFDF"/>
<path opacity="0.5574" d="M214.3 2C214.3 2 214.3 13.2 205.8 20.1C197.3 27 122.4 74.2 119.1 76.1C116.3 77.7 109.5 80.3 107.9 80.3C106.2 80.3 99.4002 77.7 96.7002 76.1C93.4002 74.2 18.4002 27 10.0002 20.1C1.50024 13.2 1.50024 2 1.50024 2H214.3Z" fill="#DEDEDE"/>
<path opacity="0.5738" d="M214.3 2C214.3 2 214.3 13.1 205.8 19.9C197.3 26.8 122.4 74 119.1 75.9C116.3 77.5 109.5 80.1 107.9 80.1C106.2 80.1 99.4002 77.5 96.7002 75.9C93.4002 74 18.4002 26.8 10.0002 19.9C1.50024 13 1.50024 2 1.50024 2H214.3Z" fill="#DDDDDD"/>
<path opacity="0.5902" d="M214.3 1.90039C214.3 1.90039 214.3 12.9004 205.8 19.7004C197.3 26.5004 122.4 73.8004 119.1 75.7004C116.3 77.3004 109.5 79.9004 107.9 79.9004C106.2 79.9004 99.4002 77.3004 96.7002 75.7004C93.4002 73.8004 18.4002 26.6004 10.0002 19.7004C1.50024 12.9004 1.50024 1.90039 1.50024 1.90039H214.3Z" fill="#DCDCDC"/>
<path opacity="0.6066" d="M214.3 1.7998C214.3 1.7998 214.3 12.6998 205.8 19.4998C197.3 26.2998 122.4 73.4998 119.1 75.3998C116.3 76.9998 109.5 79.5998 107.9 79.5998C106.2 79.5998 99.4002 76.9998 96.7002 75.3998C93.4002 73.4998 18.4002 26.2998 10.0002 19.4998C1.50024 12.6998 1.50024 1.7998 1.50024 1.7998H214.3Z" fill="#DBDBDB"/>
<path opacity="0.623" d="M214.2 1.7002C214.2 1.7002 214.2 12.5002 205.7 19.3002C197.2 26.1002 122.3 73.3002 119 75.2002C116.2 76.8002 109.4 79.3002 107.8 79.3002C106.1 79.3002 99.3002 76.7002 96.6003 75.2002C93.3002 73.3002 18.3002 26.1002 9.90025 19.3002C1.50025 12.5002 1.50024 1.7002 1.50024 1.7002H214.2Z" fill="#DADADA"/>
<path opacity="0.6393" d="M214.2 1.7002C214.2 1.7002 214.2 12.4002 205.7 19.2002C197.2 26.0002 122.3 73.2002 119 75.1002C116.2 76.7002 109.4 79.2002 107.8 79.2002C106.1 79.2002 99.3002 76.6002 96.6003 75.1002C93.3002 73.2002 18.3002 26.0002 9.90025 19.2002C1.50025 12.3002 1.50024 1.7002 1.50024 1.7002H214.2Z" fill="#D9D9DA"/>
<path opacity="0.6557" d="M214.2 1.59961C214.2 1.59961 214.2 12.1996 205.7 18.9996C197.2 25.7996 122.3 72.9996 119 74.8996C116.2 76.4996 109.4 78.9996 107.8 78.9996C106.1 78.9996 99.3002 76.3996 96.6003 74.8996C93.3002 72.9996 18.3002 25.7996 9.90025 18.9996C1.50025 12.1996 1.50024 1.59961 1.50024 1.59961H214.2Z" fill="#D8D8D9"/>
<path opacity="0.6721" d="M214.2 1.5C214.2 1.5 214.2 12 205.7 18.8C197.2 25.6 122.3 72.8 119 74.7C116.2 76.3 109.4 78.8 107.8 78.8C106.1 78.8 99.3002 76.2 96.6003 74.7C93.3002 72.8 18.3002 25.6 9.90025 18.8C1.50025 12 1.50024 1.5 1.50024 1.5H214.2Z" fill="#D7D7D8"/>
<path opacity="0.6885" d="M214.2 1.40039C214.2 1.40039 214.2 11.8004 205.7 18.6004C197.2 25.4004 122.3 72.6004 119 74.4004C116.2 76.0004 109.4 78.5004 107.8 78.5004C106.1 78.5004 99.3001 75.9004 96.6002 74.4004C93.3001 72.5004 18.3001 25.3004 9.90015 18.6004C1.40015 11.8004 1.40015 1.40039 1.40015 1.40039H214.2Z" fill="#D6D6D7"/>
<path opacity="0.7049" d="M214.2 1.40039C214.2 1.40039 214.2 11.7004 205.7 18.5004C197.2 25.3004 122.3 72.4004 119 74.3004C116.2 75.9004 109.4 78.4004 107.8 78.4004C106.1 78.4004 99.3001 75.9004 96.6002 74.3004C93.3001 72.4004 18.3001 25.3004 9.90015 18.5004C1.40015 11.7004 1.40015 1.40039 1.40015 1.40039H214.2Z" fill="#D5D5D6"/>
<path opacity="0.7213" d="M214.2 1.2998C214.2 1.2998 214.2 11.4998 205.7 18.2998C197.2 25.0998 122.3 72.1998 119 74.0998C116.2 75.6998 109.4 78.1998 107.8 78.1998C106.1 78.1998 99.3001 75.6998 96.6002 74.0998C93.3001 72.1998 18.3001 25.0998 9.90015 18.2998C1.40015 11.4998 1.40015 1.2998 1.40015 1.2998H214.2Z" fill="#D4D4D5"/>
<path opacity="0.7377" d="M214.1 1.2002C214.1 1.2002 214.1 11.3002 205.6 18.0002C197.1 24.8002 122.2 71.9002 118.9 73.8002C116.1 75.4002 109.3 77.9002 107.7 77.9002C106 77.9002 99.2003 75.4002 96.5003 73.8002C93.2003 71.9002 18.2003 24.8002 9.80029 18.0002C1.30029 11.2002 1.30029 1.2002 1.30029 1.2002H214.1Z" fill="#D3D3D4"/>
<path opacity="0.7541" d="M214.1 1.09961C214.1 1.09961 214.1 11.0996 205.6 17.7996C197.1 24.5996 122.2 71.6996 118.9 73.5996C116.1 75.1996 109.3 77.6996 107.7 77.6996C106 77.6996 99.2003 75.1996 96.5003 73.5996C93.2003 71.6996 18.2003 24.5996 9.80029 17.7996C1.30029 10.9996 1.30029 1.09961 1.30029 1.09961H214.1Z" fill="#D2D2D3"/>
<path opacity="0.7705" d="M214.1 1.09961C214.1 1.09961 214.1 10.9996 205.6 17.6996C197.1 24.3996 122.2 71.5996 118.9 73.3996C116.1 74.9996 109.3 77.4996 107.7 77.4996C106 77.4996 99.2003 74.9996 96.5003 73.3996C93.2003 71.4996 18.2003 24.3996 9.80029 17.6996C1.30029 10.9996 1.30029 1.09961 1.30029 1.09961H214.1Z" fill="#D1D2D2"/>
<path opacity="0.7869" d="M214.1 1C214.1 1 214.1 10.8 205.6 17.5C197.1 24.2 122.2 71.4 118.9 73.2C116.1 74.8 109.3 77.3 107.7 77.3C106 77.3 99.2003 74.8 96.5003 73.2C93.2003 71.3 18.2003 24.2 9.80029 17.5C1.30029 10.8 1.30029 1 1.30029 1H214.1Z" fill="#D0D1D1"/>
<path opacity="0.8033" d="M214.1 0.900391C214.1 0.900391 214.1 10.6004 205.6 17.3004C197.1 24.0004 122.2 71.1004 118.9 73.0004C116.1 74.6004 109.3 77.1004 107.7 77.1004C106 77.1004 99.2003 74.6004 96.5003 73.0004C93.2003 71.1004 18.2003 24.0004 9.80029 17.3004C1.30029 10.6004 1.30029 0.900391 1.30029 0.900391H214.1Z" fill="#CFD0D0"/>
<path opacity="0.8197" d="M214.1 0.799805C214.1 0.799805 214.1 10.3998 205.6 17.0998C197.1 23.7998 122.2 70.8998 118.9 72.7998C116.1 74.3998 109.3 76.8998 107.7 76.8998C106 76.8998 99.2003 74.3998 96.5003 72.7998C93.2003 70.8998 18.2003 23.7998 9.80029 17.0998C1.30029 10.3998 1.30029 0.799805 1.30029 0.799805H214.1Z" fill="#CECFCF"/>
<path opacity="0.8361" d="M214.1 0.799805C214.1 0.799805 214.1 10.2998 205.6 16.9998C197.1 23.6998 122.2 70.7998 118.9 72.6998C116.1 74.2998 109.3 76.7998 107.7 76.7998C106 76.7998 99.2003 74.2998 96.5003 72.6998C93.2003 70.7998 18.2003 23.6998 9.80029 16.9998C1.30029 10.2998 1.30029 0.799805 1.30029 0.799805H214.1Z" fill="#CDCECE"/>
<path opacity="0.8525" d="M214 0.700195C214 0.700195 214 10.1002 205.5 16.8002C197 23.5002 122.1 70.6002 118.8 72.5002C116 74.0002 109.2 76.6002 107.6 76.6002C105.9 76.6002 99.1002 74.1002 96.4002 72.5002C93.1002 70.6002 18.1002 23.5002 9.7002 16.8002C1.2002 10.1002 1.2002 0.700195 1.2002 0.700195H214Z" fill="#CCCDCD"/>
<path opacity="0.8689" d="M214 0.599609C214 0.599609 214 9.89961 205.5 16.5996C197 23.2996 122.1 70.3996 118.8 72.1996C116 73.6996 109.2 76.2996 107.6 76.2996C105.9 76.2996 99.1002 73.7996 96.4002 72.1996C93.1002 70.2996 18.2002 23.2996 9.7002 16.5996C1.2002 9.89961 1.2002 0.599609 1.2002 0.599609H214Z" fill="#CBCCCC"/>
<path opacity="0.8852" d="M214 0.5C214 0.5 214 9.7 205.5 16.3C197 23 122.1 70.1 118.8 71.9C116 73.4 109.2 76 107.6 76C105.9 76 99.1002 73.5 96.4002 71.9C93.1002 70 18.1002 23 9.7002 16.3C1.2002 9.6 1.2002 0.5 1.2002 0.5H214Z" fill="#CACBCB"/>
<path opacity="0.9016" d="M214 0.5C214 0.5 214 9.6 205.5 16.2C197 22.9 122.1 69.9 118.8 71.8C116 73.3 109.2 75.8 107.6 75.8C105.9 75.8 99.1002 73.3 96.4002 71.8C93.1002 69.9 18.1002 22.9 9.7002 16.2C1.2002 9.5 1.2002 0.5 1.2002 0.5H214Z" fill="#C9CACA"/>
<path opacity="0.918" d="M214 0.400391C214 0.400391 214 9.40039 205.5 16.0004C197 22.7004 122.1 69.7004 118.8 71.6004C116 73.1004 109.2 75.6004 107.6 75.6004C105.9 75.6004 99.1002 73.1004 96.4002 71.6004C93.1002 69.8004 18.1002 22.7004 9.7002 16.0004C1.2002 9.30039 1.2002 0.400391 1.2002 0.400391H214Z" fill="#C8C9C9"/>
<path opacity="0.9344" d="M214 0.299805C214 0.299805 214 9.1998 205.5 15.7998C197 22.4998 122.1 69.4998 118.8 71.3998C116 72.8998 109.2 75.3998 107.6 75.3998C105.9 75.3998 99.1002 72.8998 96.4002 71.3998C93.1002 69.5998 18.1002 22.4998 9.7002 15.7998C1.2002 9.1998 1.2002 0.299805 1.2002 0.299805H214Z" fill="#C7C8C8"/>
<path opacity="0.9508" d="M213.9 0.200195C213.9 0.200195 213.9 9.00019 205.4 15.6002C196.9 22.2002 122 69.3002 118.7 71.1002C115.9 72.6002 109.1 75.1002 107.5 75.1002C105.8 75.1002 99.0002 72.6002 96.3002 71.1002C93.1002 69.3002 18.1002 22.3002 9.7002 15.6002C1.2002 9.00019 1.2002 0.200195 1.2002 0.200195H213.9Z" fill="#C6C7C7"/>
<path opacity="0.9672" d="M213.9 0.200195C213.9 0.200195 213.9 8.90019 205.4 15.5002C196.9 22.1002 122 69.2002 118.7 71.0002C115.9 72.5002 109.1 75.0002 107.5 75.0002C105.8 75.0002 99.0001 72.5002 96.3001 71.0002C93.0001 69.2002 18.0001 22.1002 9.6001 15.5002C1.1001 8.90019 1.1001 0.200195 1.1001 0.200195H213.9Z" fill="#C5C6C6"/>
<path opacity="0.9836" d="M213.9 0.0996094C213.9 0.0996094 213.9 8.69961 205.4 15.2996C196.9 21.8996 122 68.9996 118.7 70.7996C115.9 72.2996 109.1 74.7996 107.5 74.7996C105.8 74.7996 99.0001 72.2996 96.3001 70.7996C93.0001 68.9996 18.0001 21.8996 9.6001 15.2996C1.1001 8.69961 1.1001 0.0996094 1.1001 0.0996094H213.9Z" fill="#C4C5C5"/>
<path d="M213.9 0C213.9 0 213.9 8.5 205.4 15.1C196.9 21.7 122 68.7 118.7 70.6C115.9 72.1 109.1 74.6 107.5 74.6C105.8 74.6 99.0001 72.1 96.3001 70.6C93.0001 68.8 18.0001 21.7 9.6001 15.1C1.1001 8.5 1.1001 0 1.1001 0H213.9Z" fill="#B0B0B0"/>
<path d="M213.9 0C213.9 0 213.9 8.5 205.4 15.1C196.9 21.7 122 68.7 118.7 70.6C115.9 72.1 111.1 74.6 107.5 74.6C103.9 74.6 99.0001 72.1 96.3001 70.6C93.0001 68.8 18.0001 21.7 9.6001 15.1C1.1001 8.5 1.1001 0 1.1001 0H213.9Z" fill="url(#paint2_linear)"/>
<circle cx="106.2" cy="71.5" r="49.5" fill="#FFD34F"/>
<path d="M106.219 98H67.3638V88.4785L80.4375 75.2583C84.1729 71.3521 86.6143 68.6909 87.7617 67.2749C88.9092 65.8345 89.7026 64.6016 90.1421 63.5762C90.606 62.5508 90.8379 61.4766 90.8379 60.3535C90.8379 58.9619 90.3862 57.8633 89.4829 57.0576C88.5796 56.252 87.3101 55.8491 85.6743 55.8491C83.9897 55.8491 82.2808 56.3374 80.5474 57.314C78.8384 58.2661 76.8975 59.6821 74.7246 61.562L66.7778 52.2603C69.5366 49.7944 71.856 48.0366 73.7358 46.9868C75.6157 45.9126 77.6543 45.0947 79.8516 44.5332C82.0732 43.9717 84.5635 43.6909 87.3223 43.6909C90.7891 43.6909 93.8774 44.3013 96.5874 45.522C99.3218 46.7427 101.434 48.4883 102.923 50.7588C104.437 53.0049 105.193 55.5317 105.193 58.3394C105.193 60.439 104.925 62.3799 104.388 64.1621C103.875 65.9443 103.069 67.7021 101.971 69.4355C100.872 71.1445 99.4072 72.9512 97.5762 74.8555C95.7695 76.7598 91.8999 80.373 85.9673 85.6953V86.0615H106.219V98ZM146.634 71.3032C146.634 80.7759 145.047 87.7217 141.873 92.1406C138.699 96.5352 133.841 98.7324 127.298 98.7324C120.901 98.7324 116.08 96.4375 112.833 91.8477C109.585 87.2334 107.962 80.3853 107.962 71.3032C107.962 61.7817 109.549 54.7993 112.723 50.356C115.896 45.9126 120.755 43.6909 127.298 43.6909C133.67 43.6909 138.479 46.0103 141.727 50.6489C144.998 55.2632 146.634 62.1479 146.634 71.3032ZM122.354 71.3032C122.354 77.3579 122.732 81.5205 123.489 83.791C124.246 86.0615 125.516 87.1968 127.298 87.1968C129.104 87.1968 130.374 86.0249 131.106 83.6812C131.863 81.3374 132.242 77.2114 132.242 71.3032C132.242 65.3706 131.863 61.2202 131.106 58.8521C130.35 56.4595 129.08 55.2632 127.298 55.2632C125.516 55.2632 124.246 56.4106 123.489 58.7056C122.732 61.0005 122.354 65.1997 122.354 71.3032Z" fill="url(#paint3_linear)"/>
<defs>
<linearGradient id="paint0_linear" x1="107.534" y1="0.0203" x2="107.534" y2="135.813" gradientUnits="userSpaceOnUse">
<stop stop-color="#D5D5D0"/>
<stop offset="0.1161" stop-color="#E0E0DA"/>
<stop offset="0.3441" stop-color="#EFEFE7"/>
<stop offset="0.6097" stop-color="#F8F8EF"/>
<stop offset="1" stop-color="#FBFBF1"/>
</linearGradient>
<linearGradient id="paint1_linear" x1="107.989" y1="-58.6198" x2="107.989" y2="135.813" gradientUnits="userSpaceOnUse">
<stop stop-color="#D5D5D0"/>
<stop offset="0.1161" stop-color="#E0E0DA"/>
<stop offset="0.3441" stop-color="#EFEFE7"/>
<stop offset="0.6097" stop-color="#F8F8EF"/>
<stop offset="1" stop-color="#FBFBF1"/>
</linearGradient>
<linearGradient id="paint2_linear" x1="107.534" y1="194.454" x2="107.534" y2="0.0209994" gradientUnits="userSpaceOnUse">
<stop stop-color="#D5D5D0"/>
<stop offset="0.1161" stop-color="#E0E0DA"/>
<stop offset="0.3441" stop-color="#EFEFE7"/>
<stop offset="0.6097" stop-color="#F8F8EF"/>
<stop offset="1" stop-color="#FBFBF1"/>
</linearGradient>
<linearGradient id="paint3_linear" x1="101.649" y1="3.57429" x2="103.118" y2="134.415" gradientUnits="userSpaceOnUse">
<stop stop-color="#D91B24"/>
<stop offset="1" stop-color="#393C5A"/>
</linearGradient>
</defs>
</svg>
