<svg width="278" height="176" viewBox="0 0 278 176" fill="none" xmlns="http://www.w3.org/2000/svg">
<path d="M276.427 0H1.07617V175.8H276.427V0Z" fill="url(#paint0_linear)"/>
<path opacity="0.0163934" d="M0.428711 169.975C0.428711 169.975 0.428711 158.971 11.4324 150.427C22.4361 141.883 119.398 81.0392 123.67 78.5796C127.295 76.6377 136.098 73.4014 138.169 73.4014C140.37 73.4014 149.173 76.6377 152.668 78.5796C156.94 80.9098 254.031 141.883 264.905 150.427C275.909 158.971 275.909 169.975 275.909 169.975H0.428711Z" fill="#FEFEFE"/>
<path opacity="0.0327869" d="M0.428711 170.105C0.428711 170.105 0.428711 159.101 11.4324 150.557C22.4361 142.013 119.398 81.1691 123.67 78.7095C127.295 76.7676 136.098 73.5312 138.169 73.5312C140.37 73.5312 149.173 76.7676 152.668 78.7095C156.94 81.0396 254.031 142.013 264.905 150.557C275.909 159.101 275.909 170.105 275.909 170.105H0.428711Z" fill="#FDFDFD"/>
<path opacity="0.0491803" d="M0.557617 170.234C0.557617 170.234 0.557617 159.23 11.5613 150.686C22.565 142.142 119.527 81.298 123.799 78.8384C127.424 76.8965 136.227 73.6602 138.298 73.6602C140.499 73.6602 149.301 76.8965 152.797 78.8384C157.069 81.1686 254.16 142.142 265.034 150.686C276.038 159.23 276.038 170.234 276.038 170.234H0.557617Z" fill="#FCFCFC"/>
<path opacity="0.0655738" d="M0.557617 170.363C0.557617 170.363 0.557617 159.359 11.5613 150.815C22.565 142.271 119.527 81.4269 123.799 78.9673C127.424 77.0254 136.227 73.7891 138.298 73.7891C140.499 73.7891 149.301 77.0254 152.797 78.9673C157.069 81.2975 254.16 142.271 265.034 150.815C276.038 159.359 276.038 170.363 276.038 170.363H0.557617Z" fill="#FBFBFB"/>
<path opacity="0.0819672" d="M0.557617 170.363C0.557617 170.363 0.557617 159.359 11.5613 150.815C22.565 142.271 119.527 81.4269 123.799 78.9673C127.424 77.0254 136.227 73.7891 138.298 73.7891C140.499 73.7891 149.301 77.0254 152.797 78.9673C157.069 81.2975 254.16 142.271 265.034 150.815C276.038 159.359 276.038 170.363 276.038 170.363H0.557617Z" fill="#FAFAFA"/>
<path opacity="0.0983607" d="M0.557617 170.492C0.557617 170.492 0.557617 159.489 11.5613 150.945C22.565 142.401 119.527 81.5568 123.799 79.0971C127.424 77.1553 136.227 73.9189 138.298 73.9189C140.499 73.9189 149.301 77.1553 152.797 79.0971C157.069 81.4273 254.16 142.401 265.034 150.945C276.038 159.489 276.038 170.492 276.038 170.492H0.557617Z" fill="#F9F9F9"/>
<path opacity="0.1148" d="M0.557617 170.622C0.557617 170.622 0.557617 159.619 11.5613 151.075C22.565 142.531 119.527 81.6867 123.799 79.227C127.424 77.2852 136.227 74.0488 138.298 74.0488C140.499 74.0488 149.301 77.2852 152.797 79.227C157.069 81.5572 254.16 142.531 265.034 151.075C276.038 159.619 276.038 170.622 276.038 170.622H0.557617Z" fill="#F8F8F8"/>
<path opacity="0.1311" d="M0.557617 170.751C0.557617 170.751 0.557617 159.748 11.5613 151.204C22.565 142.659 119.527 81.8156 123.799 79.3559C127.424 77.4141 136.227 74.1777 138.298 74.1777C140.499 74.1777 149.301 77.4141 152.797 79.3559C157.069 81.6861 254.16 142.659 265.034 151.204C276.038 159.748 276.038 170.751 276.038 170.751H0.557617Z" fill="#F7F7F7"/>
<path opacity="0.1475" d="M0.557617 170.751C0.557617 170.751 0.557617 159.748 11.5613 151.204C22.565 142.659 119.527 81.8156 123.799 79.3559C127.424 77.4141 136.227 74.1777 138.298 74.1777C140.499 74.1777 149.301 77.4141 152.797 79.3559C157.069 81.6861 254.16 142.659 265.034 151.204C276.038 159.748 276.038 170.751 276.038 170.751H0.557617Z" fill="#F6F6F6"/>
<path opacity="0.1639" d="M0.687988 170.881C0.687988 170.881 0.687988 159.877 11.6917 151.333C22.6954 142.789 119.657 81.9455 123.929 79.4858C127.554 77.544 136.357 74.3076 138.428 74.3076C140.629 74.3076 149.432 77.544 152.927 79.4858C157.199 81.816 254.29 142.789 265.165 151.333C276.168 159.877 276.168 170.881 276.168 170.881H0.687988Z" fill="#F5F5F5"/>
<path opacity="0.1803" d="M0.687988 171.01C0.687988 171.01 0.687988 160.006 11.6917 151.462C22.6954 142.918 119.657 82.0744 123.929 79.6147C127.554 77.6729 136.357 74.4365 138.428 74.4365C140.629 74.4365 149.432 77.6729 152.927 79.6147C157.199 81.9449 254.29 142.918 265.165 151.462C276.168 160.006 276.168 171.01 276.168 171.01H0.687988Z" fill="#F4F4F4"/>
<path opacity="0.1967" d="M0.687988 171.14C0.687988 171.14 0.687988 160.136 11.6917 151.592C22.6954 143.048 119.657 82.2043 123.929 79.7446C127.554 77.8028 136.357 74.5664 138.428 74.5664C140.629 74.5664 149.432 77.8028 152.927 79.7446C157.199 82.0748 254.29 143.048 265.165 151.592C276.168 160.136 276.168 171.14 276.168 171.14H0.687988Z" fill="#F3F3F3"/>
<path opacity="0.2131" d="M0.687988 171.14C0.687988 171.14 0.687988 160.136 11.6917 151.592C22.6954 143.048 119.657 82.2043 123.929 79.7446C127.554 77.8028 136.357 74.5664 138.428 74.5664C140.629 74.5664 149.432 77.8028 152.927 79.7446C157.199 82.0748 254.29 143.048 265.165 151.592C276.168 160.136 276.168 171.14 276.168 171.14H0.687988Z" fill="#F2F2F3"/>
<path opacity="0.2295" d="M0.687988 171.269C0.687988 171.269 0.687988 160.265 11.6917 151.721C22.6954 143.177 119.657 82.3332 123.929 79.8735C127.554 77.9317 136.357 74.6953 138.428 74.6953C140.629 74.6953 149.432 77.9317 152.927 79.8735C157.199 82.2037 254.29 143.177 265.165 151.721C276.168 160.265 276.168 171.269 276.168 171.269H0.687988Z" fill="#F1F1F2"/>
<path opacity="0.2459" d="M0.687988 171.399C0.687988 171.399 0.687988 160.395 11.6917 151.851C22.6954 143.307 119.657 82.463 123.929 80.0034C127.554 78.0616 136.357 74.8252 138.428 74.8252C140.629 74.8252 149.432 78.0616 152.927 80.0034C157.199 82.3336 254.29 143.307 265.165 151.851C276.168 160.395 276.168 171.399 276.168 171.399H0.687988Z" fill="#F0F0F1"/>
<path opacity="0.2623" d="M0.687988 171.529C0.687988 171.529 0.687988 160.525 11.6917 151.981C22.6954 143.437 119.657 82.5929 123.929 80.1333C127.554 78.1915 136.357 74.9551 138.428 74.9551C140.629 74.9551 149.432 78.1915 152.927 80.1333C157.199 82.4635 254.29 143.437 265.165 151.981C276.168 160.525 276.168 171.529 276.168 171.529H0.687988Z" fill="#EFF0F0"/>
<path opacity="0.2787" d="M0.816895 171.529C0.816895 171.529 0.816895 160.525 11.8206 151.981C22.8243 143.437 119.786 82.5929 124.058 80.1333C127.683 78.1915 136.486 74.9551 138.557 74.9551C140.758 74.9551 149.561 78.1915 153.056 80.1333C157.328 82.4635 254.419 143.437 265.294 151.981C276.297 160.525 276.297 171.529 276.297 171.529H0.816895Z" fill="#EEEFEF"/>
<path opacity="0.2951" d="M0.816895 171.657C0.816895 171.657 0.816895 160.654 11.8206 152.11C22.8243 143.566 119.786 82.7218 124.058 80.2622C127.683 78.3204 136.486 75.084 138.557 75.084C140.758 75.084 149.561 78.3204 153.056 80.2622C157.328 82.5924 254.419 143.566 265.294 152.11C276.297 160.654 276.297 171.657 276.297 171.657H0.816895Z" fill="#EDEEEE"/>
<path opacity="0.3115" d="M0.816895 171.787C0.816895 171.787 0.816895 160.784 11.8206 152.24C22.8243 143.696 119.786 82.8517 124.058 80.3921C127.683 78.4502 136.486 75.2139 138.557 75.2139C140.758 75.2139 149.561 78.4502 153.056 80.3921C157.328 82.7223 254.419 143.696 265.294 152.24C276.297 160.784 276.297 171.787 276.297 171.787H0.816895Z" fill="#ECEDED"/>
<path opacity="0.3279" d="M0.816895 171.916C0.816895 171.916 0.816895 160.913 11.8206 152.369C22.8243 143.825 119.786 82.9806 124.058 80.521C127.683 78.5792 136.486 75.3428 138.557 75.3428C140.758 75.3428 149.561 78.5792 153.056 80.521C157.328 82.8512 254.419 143.825 265.294 152.369C276.297 160.913 276.297 171.916 276.297 171.916H0.816895Z" fill="#EBECEC"/>
<path opacity="0.3443" d="M0.816895 171.916C0.816895 171.916 0.816895 160.913 11.8206 152.369C22.8243 143.825 119.786 82.9806 124.058 80.521C127.683 78.5792 136.486 75.3428 138.557 75.3428C140.758 75.3428 149.561 78.5792 153.056 80.521C157.328 82.8512 254.419 143.825 265.294 152.369C276.297 160.913 276.297 171.916 276.297 171.916H0.816895Z" fill="#EAEBEB"/>
<path opacity="0.3607" d="M0.816895 172.046C0.816895 172.046 0.816895 161.042 11.8206 152.498C22.8243 143.954 119.786 83.1105 124.058 80.6509C127.683 78.709 136.486 75.4727 138.557 75.4727C140.758 75.4727 149.561 78.709 153.056 80.6509C157.328 82.9811 254.419 143.954 265.294 152.498C276.297 161.042 276.297 172.046 276.297 172.046H0.816895Z" fill="#E9EAEA"/>
<path opacity="0.377" d="M0.947266 172.176C0.947266 172.176 0.947266 161.172 11.9509 152.628C22.9546 144.084 119.916 83.2404 124.189 80.7807C127.813 78.8389 136.616 75.6025 138.687 75.6025C140.888 75.6025 149.691 78.8389 153.186 80.7807C157.458 83.1109 254.55 144.084 265.424 152.628C276.428 161.172 276.428 172.176 276.428 172.176H0.947266Z" fill="#E9E9E9"/>
<path opacity="0.3934" d="M0.947266 172.305C0.947266 172.305 0.947266 161.301 11.9509 152.757C22.9546 144.213 119.916 83.3693 124.189 80.9096C127.813 78.9678 136.616 75.7314 138.687 75.7314C140.888 75.7314 149.691 78.9678 153.186 80.9096C157.458 83.2398 254.55 144.213 265.424 152.757C276.428 161.301 276.428 172.305 276.428 172.305H0.947266Z" fill="#E8E8E8"/>
<path opacity="0.4098" d="M0.947266 172.305C0.947266 172.305 0.947266 161.301 11.9509 152.757C22.9546 144.213 119.916 83.3693 124.189 80.9096C127.813 78.9678 136.616 75.7314 138.687 75.7314C140.888 75.7314 149.691 78.9678 153.186 80.9096C157.458 83.2398 254.55 144.213 265.424 152.757C276.428 161.301 276.428 172.305 276.428 172.305H0.947266Z" fill="#E7E7E7"/>
<path opacity="0.4262" d="M0.947266 172.434C0.947266 172.434 0.947266 161.43 11.9509 152.886C22.9546 144.342 119.916 83.4982 124.189 81.0386C127.813 79.0967 136.616 75.8604 138.687 75.8604C140.888 75.8604 149.691 79.0967 153.186 81.0386C157.458 83.3687 254.55 144.342 265.424 152.886C276.428 161.43 276.428 172.434 276.428 172.434H0.947266Z" fill="#E6E6E6"/>
<path opacity="0.4426" d="M0.947266 172.564C0.947266 172.564 0.947266 161.56 11.9509 153.016C22.9546 144.472 119.916 83.6281 124.189 81.1684C127.813 79.2266 136.616 75.9902 138.687 75.9902C140.888 75.9902 149.691 79.2266 153.186 81.1684C157.458 83.4986 254.55 144.472 265.424 153.016C276.428 161.56 276.428 172.564 276.428 172.564H0.947266Z" fill="#E5E5E5"/>
<path opacity="0.459" d="M0.947266 172.694C0.947266 172.694 0.947266 161.69 11.9509 153.146C22.9546 144.602 119.916 83.758 124.189 81.2983C127.813 79.3565 136.616 76.1201 138.687 76.1201C140.888 76.1201 149.691 79.3565 153.186 81.2983C157.458 83.6285 254.55 144.602 265.424 153.146C276.428 161.69 276.428 172.694 276.428 172.694H0.947266Z" fill="#E4E4E4"/>
<path opacity="0.4754" d="M0.947266 172.694C0.947266 172.694 0.947266 161.69 11.9509 153.146C22.9546 144.602 119.916 83.758 124.189 81.2983C127.813 79.3565 136.616 76.1201 138.687 76.1201C140.888 76.1201 149.691 79.3565 153.186 81.2983C157.458 83.6285 254.55 144.602 265.424 153.146C276.428 161.69 276.428 172.694 276.428 172.694H0.947266Z" fill="#E3E3E3"/>
<path opacity="0.4918" d="M1.07617 172.823C1.07617 172.823 1.07617 161.819 12.0799 153.275C23.0835 144.731 120.045 83.8869 124.317 81.4272C127.942 79.4854 136.745 76.249 138.816 76.249C141.017 76.249 149.82 79.4854 153.315 81.4272C157.587 83.7574 254.679 144.731 265.553 153.275C276.557 161.819 276.557 172.823 276.557 172.823H1.07617Z" fill="#E2E2E2"/>
<path opacity="0.5082" d="M1.07617 172.951C1.07617 172.951 1.07617 161.948 12.0799 153.404C23.0835 144.86 120.045 84.0158 124.317 81.5561C127.942 79.6143 136.745 76.3779 138.816 76.3779C141.017 76.3779 149.82 79.6143 153.315 81.5561C157.587 83.8863 254.679 144.86 265.553 153.404C276.557 161.948 276.557 172.951 276.557 172.951H1.07617Z" fill="#E1E1E1"/>
<path opacity="0.5246" d="M1.07617 172.951C1.07617 172.951 1.07617 161.948 12.0799 153.404C23.0835 144.86 120.045 84.0158 124.317 81.5561C127.942 79.6143 136.745 76.3779 138.816 76.3779C141.017 76.3779 149.82 79.6143 153.315 81.5561C157.587 83.8863 254.679 144.86 265.553 153.404C276.557 161.948 276.557 172.951 276.557 172.951H1.07617Z" fill="#E0E0E0"/>
<path opacity="0.541" d="M1.07617 173.081C1.07617 173.081 1.07617 162.078 12.0799 153.534C23.0835 144.99 120.045 84.1457 124.317 81.686C127.942 79.7442 136.745 76.5078 138.816 76.5078C141.017 76.5078 149.82 79.7442 153.315 81.686C157.587 84.0162 254.679 144.99 265.553 153.534C276.557 162.078 276.557 173.081 276.557 173.081H1.07617Z" fill="#DFDFDF"/>
<path opacity="0.5574" d="M1.07617 173.211C1.07617 173.211 1.07617 162.207 12.0799 153.663C23.0835 145.119 120.045 84.2755 124.317 81.8159C127.942 79.8741 136.745 76.6377 138.816 76.6377C141.017 76.6377 149.82 79.8741 153.315 81.8159C157.587 84.1461 254.679 145.119 265.553 153.663C276.557 162.207 276.557 173.211 276.557 173.211H1.07617Z" fill="#DEDEDE"/>
<path opacity="0.5738" d="M1.07617 173.341C1.07617 173.341 1.07617 162.337 12.0799 153.793C23.0835 145.249 120.045 84.4054 124.317 81.9458C127.942 80.004 136.745 76.7676 138.816 76.7676C141.017 76.7676 149.82 80.004 153.315 81.9458C157.587 84.276 254.679 145.249 265.553 153.793C276.557 162.337 276.557 173.341 276.557 173.341H1.07617Z" fill="#DDDDDD"/>
<path opacity="0.5902" d="M1.07617 173.341C1.07617 173.341 1.07617 162.337 12.0799 153.793C23.0835 145.249 120.045 84.4054 124.317 81.9458C127.942 80.004 136.745 76.7676 138.816 76.7676C141.017 76.7676 149.82 80.004 153.315 81.9458C157.587 84.276 254.679 145.249 265.553 153.793C276.557 162.337 276.557 173.341 276.557 173.341H1.07617Z" fill="#DCDCDC"/>
<path opacity="0.6066" d="M1.20508 173.47C1.20508 173.47 1.20508 162.466 12.2088 153.922C23.2124 145.378 120.174 84.5343 124.446 82.0747C128.071 80.1329 136.874 76.8965 138.945 76.8965C141.146 76.8965 149.949 80.1329 153.444 82.0747C157.716 84.4049 254.808 145.378 265.682 153.922C276.556 162.466 276.556 173.47 276.556 173.47H1.20508Z" fill="#DBDBDB"/>
<path opacity="0.623" d="M1.20508 173.599C1.20508 173.599 1.20508 162.595 12.2088 154.051C23.2124 145.507 120.174 84.6632 124.446 82.2036C128.071 80.2618 136.874 77.0254 138.945 77.0254C141.146 77.0254 149.949 80.2618 153.444 82.2036C157.716 84.5338 254.808 145.507 265.682 154.051C276.556 162.595 276.556 173.599 276.556 173.599H1.20508Z" fill="#DADADA"/>
<path opacity="0.6393" d="M1.20508 173.729C1.20508 173.729 1.20508 162.725 12.2088 154.181C23.2124 145.637 120.174 84.7931 124.446 82.3335C128.071 80.3917 136.874 77.1553 138.945 77.1553C141.146 77.1553 149.949 80.3917 153.444 82.3335C157.716 84.6637 254.808 145.637 265.682 154.181C276.556 162.725 276.556 173.729 276.556 173.729H1.20508Z" fill="#D9D9DA"/>
<path opacity="0.6557" d="M1.20508 173.729C1.20508 173.729 1.20508 162.725 12.2088 154.181C23.2124 145.637 120.174 84.7931 124.446 82.3335C128.071 80.3917 136.874 77.1553 138.945 77.1553C141.146 77.1553 149.949 80.3917 153.444 82.3335C157.716 84.6637 254.808 145.637 265.682 154.181C276.556 162.725 276.556 173.729 276.556 173.729H1.20508Z" fill="#D8D8D9"/>
<path opacity="0.6721" d="M1.20508 173.859C1.20508 173.859 1.20508 162.855 12.2088 154.311C23.2124 145.767 120.174 84.923 124.446 82.4634C128.071 80.5215 136.874 77.2852 138.945 77.2852C141.146 77.2852 149.949 80.5215 153.444 82.4634C157.716 84.7936 254.808 145.767 265.682 154.311C276.556 162.855 276.556 173.859 276.556 173.859H1.20508Z" fill="#D7D7D8"/>
<path opacity="0.6885" d="M1.20508 173.988C1.20508 173.988 1.20508 162.984 12.2088 154.44C23.2124 145.896 120.174 85.0519 124.446 82.5923C128.071 80.6504 136.874 77.4141 138.945 77.4141C141.146 77.4141 149.949 80.6504 153.444 82.5923C157.716 84.9225 254.808 145.896 265.682 154.44C276.556 162.984 276.556 173.988 276.556 173.988H1.20508Z" fill="#D6D6D7"/>
<path opacity="0.7049" d="M1.20508 174.117C1.20508 174.117 1.20508 163.114 12.2088 154.57C23.2124 146.026 120.174 85.1818 124.446 82.7221C128.071 80.7803 136.874 77.5439 138.945 77.5439C141.146 77.5439 149.949 80.7803 153.444 82.7221C157.716 85.0523 254.808 146.026 265.682 154.57C276.556 163.114 276.556 174.117 276.556 174.117H1.20508Z" fill="#D5D5D6"/>
<path opacity="0.7213" d="M1.33496 174.117C1.33496 174.117 1.33496 163.114 12.3386 154.57C23.3423 146.026 120.304 85.1818 124.576 82.7221C128.201 80.7803 137.004 77.5439 139.075 77.5439C141.276 77.5439 150.079 80.7803 153.574 82.7221C157.846 85.0523 254.937 146.026 265.812 154.57C276.686 163.114 276.686 174.117 276.686 174.117H1.33496Z" fill="#D4D4D5"/>
<path opacity="0.7377" d="M1.33496 174.246C1.33496 174.246 1.33496 163.243 12.3386 154.699C23.3423 146.155 120.304 85.3107 124.576 82.8511C128.201 80.9092 137.004 77.6729 139.075 77.6729C141.276 77.6729 150.079 80.9092 153.574 82.8511C157.846 85.1812 254.937 146.155 265.812 154.699C276.686 163.243 276.686 174.246 276.686 174.246H1.33496Z" fill="#D3D3D4"/>
<path opacity="0.7541" d="M1.33496 174.376C1.33496 174.376 1.33496 163.373 12.3386 154.829C23.3423 146.284 120.304 85.4406 124.576 82.9809C128.201 81.0391 137.004 77.8027 139.075 77.8027C141.276 77.8027 150.079 81.0391 153.574 82.9809C157.846 85.3111 254.937 146.284 265.812 154.829C276.686 163.373 276.686 174.376 276.686 174.376H1.33496Z" fill="#D2D2D3"/>
<path opacity="0.7705" d="M1.33496 174.505C1.33496 174.505 1.33496 163.501 12.3386 154.957C23.3423 146.413 120.304 85.5695 124.576 83.1098C128.201 81.168 137.004 77.9316 139.075 77.9316C141.276 77.9316 150.079 81.168 153.574 83.1098C157.846 85.44 254.937 146.413 265.812 154.957C276.686 163.501 276.686 174.505 276.686 174.505H1.33496Z" fill="#D1D2D2"/>
<path opacity="0.7869" d="M1.33496 174.505C1.33496 174.505 1.33496 163.501 12.3386 154.957C23.3423 146.413 120.304 85.5695 124.576 83.1098C128.201 81.168 137.004 77.9316 139.075 77.9316C141.276 77.9316 150.079 81.168 153.574 83.1098C157.846 85.44 254.937 146.413 265.812 154.957C276.686 163.501 276.686 174.505 276.686 174.505H1.33496Z" fill="#D0D1D1"/>
<path opacity="0.8033" d="M1.33496 174.635C1.33496 174.635 1.33496 163.631 12.3386 155.087C23.3423 146.543 120.304 85.6994 124.576 83.2397C128.201 81.2979 137.004 78.0615 139.075 78.0615C141.276 78.0615 150.079 81.2979 153.574 83.2397C157.846 85.5699 254.937 146.543 265.812 155.087C276.686 163.631 276.686 174.635 276.686 174.635H1.33496Z" fill="#CFD0D0"/>
<path opacity="0.8197" d="M1.46387 174.765C1.46387 174.765 1.46387 163.761 12.4675 155.217C23.4712 146.673 120.433 85.8293 124.705 83.3696C128.33 81.4278 137.133 78.1914 139.204 78.1914C141.405 78.1914 150.208 81.4278 153.703 83.3696C157.975 85.6998 255.066 146.673 265.941 155.217C276.815 163.761 276.815 174.765 276.815 174.765H1.46387Z" fill="#CECFCF"/>
<path opacity="0.8361" d="M1.46387 174.894C1.46387 174.894 1.46387 163.89 12.4675 155.346C23.4712 146.802 120.433 85.9582 124.705 83.4985C128.33 81.5567 137.133 78.3203 139.204 78.3203C141.405 78.3203 150.208 81.5567 153.703 83.4985C157.975 85.8287 255.066 146.802 265.941 155.346C276.815 163.89 276.815 174.894 276.815 174.894H1.46387Z" fill="#CDCECE"/>
<path opacity="0.8525" d="M1.46387 174.894C1.46387 174.894 1.46387 163.89 12.4675 155.346C23.4712 146.802 120.433 85.9582 124.705 83.4985C128.33 81.5567 137.133 78.3203 139.204 78.3203C141.405 78.3203 150.208 81.5567 153.703 83.4985C157.975 85.8287 255.066 146.802 265.941 155.346C276.815 163.89 276.815 174.894 276.815 174.894H1.46387Z" fill="#CCCDCD"/>
<path opacity="0.8689" d="M1.46387 175.024C1.46387 175.024 1.46387 164.02 12.4675 155.476C23.4712 146.932 120.433 86.088 124.705 83.6284C128.33 81.6866 137.133 78.4502 139.204 78.4502C141.405 78.4502 150.208 81.6866 153.703 83.6284C157.975 85.9586 255.066 146.932 265.941 155.476C276.815 164.02 276.815 175.024 276.815 175.024H1.46387Z" fill="#CBCCCC"/>
<path opacity="0.8852" d="M1.46387 175.153C1.46387 175.153 1.46387 164.149 12.4675 155.605C23.4712 147.061 120.433 86.217 124.705 83.7573C128.33 81.8155 137.133 78.5791 139.204 78.5791C141.405 78.5791 150.208 81.8155 153.703 83.7573C157.975 86.0875 255.066 147.061 265.941 155.605C276.815 164.149 276.815 175.153 276.815 175.153H1.46387Z" fill="#CACBCB"/>
<path opacity="0.9016" d="M1.46387 175.282C1.46387 175.282 1.46387 164.279 12.4675 155.735C23.4712 147.191 120.433 86.3468 124.705 83.8872C128.33 81.9454 137.133 78.709 139.204 78.709C141.405 78.709 150.208 81.9454 153.703 83.8872C157.975 86.2174 255.066 147.191 265.941 155.735C276.815 164.279 276.815 175.282 276.815 175.282H1.46387Z" fill="#C9CACA"/>
<path opacity="0.918" d="M1.46387 175.282C1.46387 175.282 1.46387 164.279 12.4675 155.735C23.4712 147.191 120.433 86.3468 124.705 83.8872C128.33 81.9454 137.133 78.709 139.204 78.709C141.405 78.709 150.208 81.9454 153.703 83.8872C157.975 86.2174 255.066 147.191 265.941 155.735C276.815 164.279 276.815 175.282 276.815 175.282H1.46387Z" fill="#C8C9C9"/>
<path opacity="0.9344" d="M1.59424 175.412C1.59424 175.412 1.59424 164.409 12.5979 155.865C23.6016 147.321 120.563 86.4767 124.835 84.0171C128.46 82.0752 137.263 78.8389 139.334 78.8389C141.535 78.8389 150.338 82.0752 153.833 84.0171C158.105 86.3473 255.197 147.321 266.071 155.865C276.945 164.409 276.945 175.412 276.945 175.412H1.59424Z" fill="#C7C8C8"/>
<path opacity="0.9508" d="M1.59424 175.541C1.59424 175.541 1.59424 164.538 12.5979 155.994C23.6016 147.45 120.563 86.6056 124.835 84.146C128.46 82.2042 137.263 78.9678 139.334 78.9678C141.535 78.9678 150.338 82.2042 153.833 84.146C158.105 86.4762 255.197 147.45 266.071 155.994C276.945 164.538 276.945 175.541 276.945 175.541H1.59424Z" fill="#C6C7C7"/>
<path opacity="0.9672" d="M1.59424 175.67C1.59424 175.67 1.59424 164.666 12.5979 156.122C23.6016 147.578 120.563 86.7345 124.835 84.2749C128.46 82.3331 137.263 79.0967 139.334 79.0967C141.535 79.0967 150.338 82.3331 153.833 84.2749C158.105 86.6051 255.197 147.578 266.071 156.122C276.945 164.666 276.945 175.67 276.945 175.67H1.59424Z" fill="#C5C6C6"/>
<path opacity="0.9836" d="M1.59424 175.67C1.59424 175.67 1.59424 164.666 12.5979 156.122C23.6016 147.578 120.563 86.7345 124.835 84.2749C128.46 82.3331 137.263 79.0967 139.334 79.0967C141.535 79.0967 150.338 82.3331 153.833 84.2749C158.105 86.6051 255.197 147.578 266.071 156.122C276.945 164.666 276.945 175.67 276.945 175.67H1.59424Z" fill="#C4C5C5"/>
<path d="M1.59424 175.8C1.59424 175.8 1.59424 164.796 12.5979 156.252C23.6016 147.708 120.563 86.8644 124.835 84.4048C128.46 82.4629 137.263 79.2266 139.334 79.2266C141.535 79.2266 150.338 82.4629 153.833 84.4048C158.105 86.735 255.197 147.708 266.071 156.252C276.945 164.796 276.945 175.8 276.945 175.8H1.59424Z" fill="#B0B0B0"/>
<path d="M1.59424 175.8C1.59424 175.8 1.59424 164.796 12.5979 156.252C23.6016 147.708 120.563 86.8644 124.835 84.4048C128.46 82.4629 134.674 79.2266 139.334 79.2266C143.995 79.2266 150.338 82.4629 153.833 84.4048C158.105 86.735 255.197 147.708 266.071 156.252C276.945 164.796 276.945 175.8 276.945 175.8H1.59424Z" fill="url(#paint1_linear)"/>
<path opacity="0.0163934" d="M277.593 5.8252C277.593 5.8252 277.593 24.5962 266.589 33.9169C255.585 43.2377 158.624 104.599 154.351 107.189C150.727 109.389 141.924 112.885 139.852 112.885C137.652 112.885 128.849 109.389 125.354 107.189C121.082 104.599 23.9902 43.2377 13.116 33.9169C2.1123 24.5962 2.1123 5.8252 2.1123 5.8252H277.593Z" fill="#FEFEFE"/>
<path opacity="0.0327869" d="M277.593 5.69629C277.593 5.69629 277.593 24.3378 266.589 33.6586C255.585 42.9794 158.624 104.341 154.351 106.93C150.727 109.131 141.924 112.497 139.852 112.497C137.652 112.497 128.849 109.001 125.354 106.93C121.082 104.341 23.9902 42.9794 13.116 33.6586C2.1123 24.3378 2.1123 5.69629 2.1123 5.69629H277.593Z" fill="#FDFDFD"/>
<path opacity="0.0491803" d="M277.593 5.69629C277.593 5.69629 277.593 24.2084 266.589 33.5291C255.585 42.8499 158.624 104.212 154.351 106.801C150.727 109.001 141.924 112.367 139.852 112.367C137.652 112.367 128.849 108.872 125.354 106.801C121.082 104.212 23.9902 42.8499 13.116 33.5291C2.1123 24.2084 2.1123 5.69629 2.1123 5.69629H277.593Z" fill="#FCFCFC"/>
<path opacity="0.0655738" d="M277.593 5.56641C277.593 5.56641 277.593 23.949 266.589 33.2698C255.585 42.4611 158.624 103.952 154.351 106.541C150.727 108.742 141.924 112.108 139.852 112.108C137.652 112.108 128.849 108.613 125.354 106.541C121.082 103.952 23.9902 42.5906 13.116 33.2698C2.1123 23.949 2.1123 5.56641 2.1123 5.56641H277.593Z" fill="#FBFBFB"/>
<path opacity="0.0819672" d="M277.463 5.4375C277.463 5.4375 277.463 23.6907 266.459 33.0114C255.455 42.2027 158.494 103.694 154.222 106.154C150.597 108.354 141.794 111.72 139.723 111.72C137.522 111.72 128.719 108.225 125.224 106.154C120.952 103.564 23.8603 42.2027 12.9861 33.0114C1.98242 23.8201 1.98242 5.4375 1.98242 5.4375H277.463Z" fill="#FAFAFA"/>
<path opacity="0.0983607" d="M277.463 5.30762C277.463 5.30762 277.463 23.4313 266.459 32.7521C255.455 41.9434 158.494 103.305 154.222 105.894C150.597 107.965 141.794 111.461 139.723 111.461C137.522 111.461 128.719 107.965 125.224 105.894C120.952 103.305 23.8603 41.9434 12.9861 32.7521C1.98242 23.5608 1.98242 5.30762 1.98242 5.30762H277.463Z" fill="#F9F9F9"/>
<path opacity="0.1148" d="M277.463 5.30762C277.463 5.30762 277.463 23.3019 266.459 32.6226C255.455 41.814 158.494 103.176 154.222 105.765C150.597 107.836 141.794 111.331 139.723 111.331C137.522 111.331 128.719 107.836 125.224 105.765C120.952 103.176 23.8603 41.814 12.9861 32.6226C1.98242 23.4313 1.98242 5.30762 1.98242 5.30762H277.463Z" fill="#F8F8F8"/>
<path opacity="0.1311" d="M277.463 5.17773C277.463 5.17773 277.463 23.0425 266.459 32.2338C255.455 41.4252 158.494 102.787 154.222 105.376C150.597 107.447 141.794 110.943 139.723 110.943C137.522 110.943 128.719 107.447 125.224 105.376C120.952 102.787 23.8603 41.4252 12.9861 32.2338C1.98242 23.0425 1.98242 5.17773 1.98242 5.17773H277.463Z" fill="#F7F7F7"/>
<path opacity="0.1475" d="M277.463 5.04883C277.463 5.04883 277.463 22.7842 266.459 31.9755C255.455 41.1668 158.494 102.529 154.222 105.118C150.597 107.189 141.794 110.684 139.723 110.684C137.522 110.684 128.719 107.189 125.224 105.118C120.952 102.529 23.8603 41.1668 12.9861 31.9755C1.98242 22.7842 1.98242 5.04883 1.98242 5.04883H277.463Z" fill="#F6F6F6"/>
<path opacity="0.1639" d="M277.463 4.91895C277.463 4.91895 277.463 22.5248 266.459 31.7161C255.455 40.9075 158.494 102.269 154.222 104.729C150.597 106.8 141.794 110.295 139.723 110.295C137.522 110.295 128.719 106.8 125.224 104.729C120.952 102.14 23.8603 40.778 12.9861 31.7161C1.98242 22.5248 1.98242 4.91895 1.98242 4.91895H277.463Z" fill="#F5F5F5"/>
<path opacity="0.1803" d="M277.463 4.91895C277.463 4.91895 277.463 22.3954 266.459 31.5867C255.455 40.778 158.494 102.14 154.222 104.599C150.597 106.671 141.794 110.166 139.723 110.166C137.522 110.166 128.719 106.671 125.224 104.599C120.952 102.01 23.8603 40.778 12.9861 31.5867C1.98242 22.3954 1.98242 4.91895 1.98242 4.91895H277.463Z" fill="#F4F4F4"/>
<path opacity="0.1967" d="M277.333 4.79004C277.333 4.79004 277.333 22.137 266.33 31.3283C255.326 40.5196 158.364 101.752 154.092 104.341C150.467 106.412 141.665 109.908 139.593 109.908C137.392 109.908 128.59 106.412 125.094 104.341C120.822 101.752 23.7309 40.5196 12.8567 31.3283C1.85303 22.137 1.85303 4.79004 1.85303 4.79004H277.333Z" fill="#F3F3F3"/>
<path opacity="0.2131" d="M277.333 4.66016C277.333 4.66016 277.333 21.8777 266.33 31.069C255.326 40.2603 158.364 101.493 154.092 104.082C150.467 106.153 141.665 109.648 139.593 109.648C137.392 109.648 128.59 106.153 125.094 104.082C120.822 101.493 23.7309 40.2603 12.8567 31.069C1.85303 21.8777 1.85303 4.66016 1.85303 4.66016H277.333Z" fill="#F2F2F3"/>
<path opacity="0.2295" d="M277.333 4.53125C277.333 4.53125 277.333 21.6193 266.33 30.8106C255.326 40.0019 158.364 101.234 154.092 103.823C150.467 105.895 141.665 109.39 139.593 109.39C137.392 109.39 128.59 105.895 125.094 103.823C120.822 101.234 23.7309 40.0019 12.8567 30.8106C1.85303 21.6193 1.85303 4.53125 1.85303 4.53125H277.333Z" fill="#F1F1F2"/>
<path opacity="0.2459" d="M277.333 4.53125C277.333 4.53125 277.333 21.4899 266.33 30.6812C255.326 39.743 158.364 101.105 154.092 103.694C150.467 105.765 141.665 109.26 139.593 109.26C137.392 109.26 128.59 105.895 125.094 103.694C120.822 101.105 23.7309 39.8725 12.8567 30.6812C1.85303 21.6193 1.85303 4.53125 1.85303 4.53125H277.333Z" fill="#F0F0F1"/>
<path opacity="0.2623" d="M277.333 4.40137C277.333 4.40137 277.333 21.2305 266.33 30.4218C255.326 39.4837 158.364 100.845 154.092 103.305C150.467 105.376 141.665 108.872 139.593 108.872C137.392 108.872 128.59 105.506 125.094 103.305C120.822 100.716 23.7309 39.4837 12.8567 30.4218C1.85303 21.36 1.85303 4.40137 1.85303 4.40137H277.333Z" fill="#EFF0F0"/>
<path opacity="0.2787" d="M277.333 4.27148C277.333 4.27148 277.333 20.9712 266.33 30.033C255.326 39.0949 158.364 100.457 154.092 102.916C150.467 104.988 141.665 108.483 139.593 108.483C137.392 108.483 128.59 105.117 125.094 102.916C120.822 100.327 23.7309 39.0949 12.8567 30.033C1.85303 20.9712 1.85303 4.27148 1.85303 4.27148H277.333Z" fill="#EEEFEF"/>
<path opacity="0.2951" d="M277.204 4.14258C277.204 4.14258 277.204 20.7128 266.2 29.7747C255.196 38.8365 158.234 100.069 153.962 102.658C150.338 104.729 141.535 108.224 139.463 108.224C137.263 108.224 128.46 104.859 124.964 102.658C120.692 100.198 23.6011 38.8365 12.7268 29.7747C1.72314 20.7128 1.72314 4.14258 1.72314 4.14258H277.204Z" fill="#EDEEEE"/>
<path opacity="0.3115" d="M277.204 4.14258C277.204 4.14258 277.204 20.5834 266.2 29.6452C255.196 38.7071 158.234 99.9393 153.962 102.528C150.338 104.6 141.535 108.095 139.463 108.095C137.263 108.095 128.46 104.729 124.964 102.528C120.692 100.069 23.6011 38.7071 12.7268 29.6452C1.72314 20.5834 1.72314 4.14258 1.72314 4.14258H277.204Z" fill="#ECEDED"/>
<path opacity="0.3279" d="M277.204 4.01367C277.204 4.01367 277.204 20.325 266.2 29.3869C255.196 38.4487 158.234 99.681 153.962 102.27C150.338 104.341 141.535 107.707 139.463 107.707C137.263 107.707 128.46 104.341 124.964 102.27C120.692 99.8104 23.6011 38.4487 12.7268 29.3869C1.72314 20.325 1.72314 4.01367 1.72314 4.01367H277.204Z" fill="#EBECEC"/>
<path opacity="0.3443" d="M277.204 3.88379C277.204 3.88379 277.204 20.0657 266.2 29.1275C255.196 38.1894 158.234 99.4216 153.962 101.881C150.338 103.953 141.535 107.318 139.463 107.318C137.263 107.318 128.46 103.953 124.964 101.881C120.692 99.4216 23.6011 38.0599 12.7268 29.1275C1.72314 20.0657 1.72314 3.88379 1.72314 3.88379H277.204Z" fill="#EAEBEB"/>
<path opacity="0.3607" d="M277.204 3.75391C277.204 3.75391 277.204 19.8063 266.2 28.8682C255.196 37.93 158.234 99.1623 153.962 101.622C150.338 103.693 141.535 107.059 139.463 107.059C137.263 107.059 128.46 103.693 124.964 101.622C120.692 99.1623 23.6011 37.93 12.7268 28.8682C1.72314 19.8063 1.72314 3.75391 1.72314 3.75391H277.204Z" fill="#E9EAEA"/>
<path opacity="0.377" d="M277.204 3.75391C277.204 3.75391 277.204 19.6769 266.2 28.7387C255.196 37.8006 158.234 99.0328 153.962 101.492C150.338 103.564 141.535 106.93 139.463 106.93C137.263 106.93 128.46 103.564 124.964 101.492C120.692 99.0328 23.6011 37.8006 12.7268 28.7387C1.72314 19.6769 1.72314 3.75391 1.72314 3.75391H277.204Z" fill="#E9E9E9"/>
<path opacity="0.3934" d="M277.204 3.62402C277.204 3.62402 277.204 19.4175 266.2 28.4794C255.196 37.5413 158.234 98.7735 153.962 101.233C150.338 103.304 141.535 106.67 139.463 106.67C137.263 106.67 128.46 103.304 124.964 101.233C120.692 98.7735 23.6011 37.5413 12.7268 28.4794C1.72314 19.4175 1.72314 3.62402 1.72314 3.62402H277.204Z" fill="#E8E8E8"/>
<path opacity="0.4098" d="M277.075 3.49512C277.075 3.49512 277.075 19.1592 266.071 28.221C255.067 37.2829 158.105 98.3857 153.833 100.975C150.209 103.046 141.406 106.412 139.334 106.412C137.134 106.412 128.331 103.046 124.835 100.975C120.563 98.5151 23.4721 37.2829 12.5979 28.221C1.59424 19.1592 1.59424 3.49512 1.59424 3.49512H277.075Z" fill="#E7E7E7"/>
<path opacity="0.4262" d="M277.075 3.36621C277.075 3.36621 277.075 18.9008 266.071 27.8332C255.067 36.7656 158.105 97.9979 153.833 100.458C150.209 102.529 141.406 105.895 139.334 105.895C137.134 105.895 128.331 102.529 124.835 100.458C120.563 97.9979 23.4721 36.7656 12.5979 27.8332C1.59424 18.9008 1.59424 3.36621 1.59424 3.36621H277.075Z" fill="#E6E6E6"/>
<path opacity="0.4426" d="M277.075 3.36621C277.075 3.36621 277.075 18.7714 266.071 27.7038C255.067 36.6362 158.105 97.8684 153.833 100.328C150.209 102.399 141.406 105.765 139.334 105.765C137.134 105.765 128.331 102.399 124.835 100.328C120.563 97.8684 23.6016 36.6362 12.5979 27.7038C1.59424 18.7714 1.59424 3.36621 1.59424 3.36621H277.075Z" fill="#E5E5E5"/>
<path opacity="0.459" d="M277.075 3.23633C277.075 3.23633 277.075 18.512 266.071 27.4444C255.067 36.3768 158.105 97.6091 153.833 100.069C150.209 102.14 141.406 105.506 139.334 105.506C137.134 105.506 128.331 102.14 124.835 100.069C120.563 97.6091 23.4721 36.3768 12.5979 27.4444C1.59424 18.512 1.59424 3.23633 1.59424 3.23633H277.075Z" fill="#E4E4E4"/>
<path opacity="0.4754" d="M277.075 3.10645C277.075 3.10645 277.075 18.2527 266.071 27.1851C255.067 36.1175 158.105 97.3497 153.833 99.8094C150.209 101.881 141.406 105.247 139.334 105.247C137.134 105.247 128.331 101.881 124.835 99.8094C120.563 97.3497 23.4721 36.1175 12.5979 27.1851C1.59424 18.2527 1.59424 3.10645 1.59424 3.10645H277.075Z" fill="#E3E3E3"/>
<path opacity="0.4918" d="M277.075 2.97754C277.075 2.97754 277.075 17.9943 266.071 26.9267C255.067 35.8591 158.105 97.0914 153.833 99.551C150.209 101.622 141.406 104.988 139.334 104.988C137.134 104.988 128.331 101.622 124.835 99.551C120.563 97.0914 23.4721 35.8591 12.5979 26.9267C1.59424 17.9943 1.59424 2.97754 1.59424 2.97754H277.075Z" fill="#E2E2E2"/>
<path opacity="0.5082" d="M277.075 2.97754C277.075 2.97754 277.075 17.8649 266.071 26.7973C255.067 35.7297 158.105 96.8325 153.833 99.4216C150.209 101.493 141.406 104.859 139.334 104.859C137.134 104.859 128.331 101.493 124.835 99.4216C120.563 96.8325 23.4721 35.6002 12.5979 26.7973C1.59424 17.8649 1.59424 2.97754 1.59424 2.97754H277.075Z" fill="#E1E1E1"/>
<path opacity="0.5246" d="M276.946 2.84863C276.946 2.84863 276.946 17.6065 265.942 26.5389C254.938 35.4713 157.977 96.5741 153.705 99.0338C150.08 101.105 141.277 104.471 139.206 104.471C137.005 104.471 128.202 101.105 124.707 99.0338C120.435 96.5741 23.3432 35.4713 12.469 26.5389C1.46533 17.6065 1.46533 2.84863 1.46533 2.84863H276.946Z" fill="#E0E0E0"/>
<path opacity="0.541" d="M276.946 2.71875C276.946 2.71875 276.946 17.3472 265.942 26.2796C254.938 35.212 157.977 96.3148 153.705 98.7744C150.08 100.846 141.277 104.212 139.206 104.212C137.005 104.212 128.202 100.846 124.707 98.7744C120.435 96.3148 23.3432 35.212 12.469 26.2796C1.46533 17.3472 1.46533 2.71875 1.46533 2.71875H276.946Z" fill="#DFDFDF"/>
<path opacity="0.5574" d="M276.946 2.58887C276.946 2.58887 276.946 17.0878 265.942 26.0202C254.938 34.9526 157.977 96.0555 153.705 98.5151C150.08 100.586 141.277 103.952 139.206 103.952C137.005 103.952 128.202 100.586 124.707 98.5151C120.435 96.0555 23.3432 34.9526 12.469 26.0202C1.46533 17.0878 1.46533 2.58887 1.46533 2.58887H276.946Z" fill="#DEDEDE"/>
<path opacity="0.5738" d="M276.946 2.58887C276.946 2.58887 276.946 16.9584 265.942 25.7613C254.938 34.6937 157.977 95.7965 153.705 98.2562C150.08 100.327 141.277 103.693 139.206 103.693C137.005 103.693 128.202 100.327 124.707 98.2562C120.435 95.7965 23.3432 34.6937 12.469 25.7613C1.46533 16.8289 1.46533 2.58887 1.46533 2.58887H276.946Z" fill="#DDDDDD"/>
<path opacity="0.5902" d="M276.946 2.45996C276.946 2.45996 276.946 16.7 265.942 25.503C254.938 34.3059 157.977 95.5382 153.705 97.9978C150.08 100.069 141.277 103.435 139.206 103.435C137.005 103.435 128.202 100.069 124.707 97.9978C120.435 95.5382 23.3432 34.4354 12.469 25.503C1.46533 16.7 1.46533 2.45996 1.46533 2.45996H276.946Z" fill="#DCDCDC"/>
<path opacity="0.6066" d="M276.946 2.33008C276.946 2.33008 276.946 16.4407 265.942 25.2436C254.938 34.0466 157.977 95.1494 153.705 97.609C150.08 99.6803 141.277 103.046 139.206 103.046C137.005 103.046 128.202 99.6803 124.707 97.609C120.435 95.1494 23.3432 34.0466 12.469 25.2436C1.46533 16.4407 1.46533 2.33008 1.46533 2.33008H276.946Z" fill="#DBDBDB"/>
<path opacity="0.623" d="M276.816 2.20117C276.816 2.20117 276.816 16.1823 265.813 24.9853C254.809 33.7882 157.847 94.891 153.575 97.3507C149.95 99.4219 141.147 102.658 139.076 102.658C136.875 102.658 128.072 99.2925 124.577 97.3507C120.305 94.891 23.2138 33.7882 12.3396 24.9853C1.46533 16.1823 1.46533 2.20117 1.46533 2.20117H276.816Z" fill="#DADADA"/>
<path opacity="0.6393" d="M276.816 2.20117C276.816 2.20117 276.816 16.0529 265.813 24.8558C254.809 33.6588 157.847 94.7616 153.575 97.2212C149.95 99.2925 141.147 102.529 139.076 102.529C136.875 102.529 128.072 99.163 124.577 97.2212C120.305 94.7616 23.2138 33.6588 12.3396 24.8558C1.46533 15.9234 1.46533 2.20117 1.46533 2.20117H276.816Z" fill="#D9D9DA"/>
<path opacity="0.6557" d="M276.816 2.07129C276.816 2.07129 276.816 15.7935 265.813 24.5965C254.809 33.3994 157.847 94.5022 153.575 96.9619C149.95 99.0332 141.147 102.27 139.076 102.27C136.875 102.27 128.072 98.9037 124.577 96.9619C120.305 94.5022 23.2138 33.3994 12.3396 24.5965C1.46533 15.7935 1.46533 2.07129 1.46533 2.07129H276.816Z" fill="#D8D8D9"/>
<path opacity="0.6721" d="M276.816 1.94141C276.816 1.94141 276.816 15.5342 265.813 24.3371C254.809 33.1401 157.847 94.2429 153.575 96.7025C149.95 98.7738 141.147 102.01 139.076 102.01C136.875 102.01 128.072 98.6443 124.577 96.7025C120.305 94.2429 23.2138 33.1401 12.3396 24.3371C1.46533 15.5342 1.46533 1.94141 1.46533 1.94141H276.816Z" fill="#D7D7D8"/>
<path opacity="0.6885" d="M276.815 1.8125C276.815 1.8125 276.815 15.2758 265.812 24.0788C254.808 32.8817 157.846 93.9845 153.574 96.3147C149.949 98.386 141.146 101.622 139.075 101.622C136.874 101.622 128.072 98.2565 124.576 96.3147C120.304 93.8551 23.2129 32.7523 12.3386 24.0788C1.33496 15.2758 1.33496 1.8125 1.33496 1.8125H276.815Z" fill="#D6D6D7"/>
<path opacity="0.7049" d="M276.815 1.8125C276.815 1.8125 276.815 15.1464 265.812 23.9493C254.808 32.7523 157.846 93.7256 153.574 96.1853C149.949 98.2565 141.146 101.493 139.075 101.493C136.874 101.493 128.072 98.2565 124.576 96.1853C120.304 93.7256 23.2129 32.7523 12.3386 23.9493C1.33496 15.1464 1.33496 1.8125 1.33496 1.8125H276.815Z" fill="#D5D5D6"/>
<path opacity="0.7213" d="M276.815 1.68262C276.815 1.68262 276.815 14.887 265.812 23.69C254.808 32.4929 157.846 93.4663 153.574 95.9259C149.949 97.9972 141.146 101.234 139.075 101.234C136.874 101.234 128.072 97.9972 124.576 95.9259C120.304 93.4663 23.2129 32.4929 12.3386 23.69C1.33496 14.887 1.33496 1.68262 1.33496 1.68262H276.815Z" fill="#D4D4D5"/>
<path opacity="0.7377" d="M276.686 1.55371C276.686 1.55371 276.686 14.6287 265.683 23.3022C254.679 32.1051 157.717 93.0785 153.445 95.5381C149.82 97.6094 141.018 100.846 138.946 100.846C136.746 100.846 127.943 97.6094 124.447 95.5381C120.175 93.0785 23.084 32.1051 12.2097 23.3022C1.20605 14.4992 1.20605 1.55371 1.20605 1.55371H276.686Z" fill="#D3D3D4"/>
<path opacity="0.7541" d="M276.686 1.42383C276.686 1.42383 276.686 14.3693 265.683 23.0428C254.679 31.8458 157.717 92.8191 153.445 95.2788C149.82 97.35 141.018 100.586 138.946 100.586C136.746 100.586 127.943 97.35 124.447 95.2788C120.175 92.8191 23.084 31.8458 12.2097 23.0428C1.20605 14.2399 1.20605 1.42383 1.20605 1.42383H276.686Z" fill="#D2D2D3"/>
<path opacity="0.7705" d="M276.686 1.42383C276.686 1.42383 276.686 14.2399 265.683 22.9134C254.679 31.5869 157.717 92.6897 153.445 95.0199C149.82 97.0911 141.018 100.327 138.946 100.327C136.746 100.327 127.943 97.0911 124.447 95.0199C120.175 92.5602 23.084 31.5869 12.2097 22.9134C1.20605 14.2399 1.20605 1.42383 1.20605 1.42383H276.686Z" fill="#D1D2D2"/>
<path opacity="0.7869" d="M276.686 1.29492C276.686 1.29492 276.686 13.9815 265.683 22.655C254.679 31.3285 157.717 92.4313 153.445 94.7615C149.82 96.8328 141.018 100.069 138.946 100.069C136.746 100.069 127.943 96.8328 124.447 94.7615C120.175 92.3018 23.084 31.3285 12.2097 22.655C1.20605 13.9815 1.20605 1.29492 1.20605 1.29492H276.686Z" fill="#D0D1D1"/>
<path opacity="0.8033" d="M276.686 1.16504C276.686 1.16504 276.686 13.7222 265.683 22.3957C254.679 31.0692 157.717 92.0425 153.445 94.5022C149.82 96.5734 141.018 99.8098 138.946 99.8098C136.746 99.8098 127.943 96.5734 124.447 94.5022C120.175 92.0425 23.084 31.0692 12.2097 22.3957C1.20605 13.7222 1.20605 1.16504 1.20605 1.16504H276.686Z" fill="#CFD0D0"/>
<path opacity="0.8197" d="M276.686 1.03516C276.686 1.03516 276.686 13.4628 265.683 22.1363C254.679 30.8098 157.717 91.7832 153.445 94.2428C149.82 96.3141 141.018 99.5505 138.946 99.5505C136.746 99.5505 127.943 96.3141 124.447 94.2428C120.175 91.7832 23.084 30.8098 12.2097 22.1363C1.20605 13.4628 1.20605 1.03516 1.20605 1.03516H276.686Z" fill="#CECFCF"/>
<path opacity="0.8361" d="M276.686 1.03516C276.686 1.03516 276.686 13.3334 265.683 22.0069C254.679 30.6804 157.717 91.6537 153.445 94.1134C149.82 96.1846 141.018 99.421 138.946 99.421C136.746 99.421 127.943 96.1846 124.447 94.1134C120.175 91.6537 23.084 30.6804 12.2097 22.0069C1.20605 13.3334 1.20605 1.03516 1.20605 1.03516H276.686Z" fill="#CDCECE"/>
<path opacity="0.8525" d="M276.556 0.90625C276.556 0.90625 276.556 13.075 265.552 21.7485C254.549 30.422 157.587 91.3953 153.315 93.855C149.69 95.7968 140.887 99.1627 138.816 99.1627C136.615 99.1627 127.812 95.9263 124.317 93.855C120.045 91.3953 22.9536 30.422 12.0794 21.7485C1.07568 13.075 1.07568 0.90625 1.07568 0.90625H276.556Z" fill="#CCCDCD"/>
<path opacity="0.8689" d="M276.556 0.777344C276.556 0.777344 276.556 12.8167 265.552 21.4902C254.549 30.1636 157.587 91.137 153.315 93.4672C149.69 95.409 140.887 98.7748 138.816 98.7748C136.615 98.7748 127.812 95.5385 124.317 93.4672C120.045 91.0075 23.083 30.1636 12.0794 21.4902C1.07568 12.8167 1.07568 0.777344 1.07568 0.777344H276.556Z" fill="#CBCCCC"/>
<path opacity="0.8852" d="M276.556 0.647461C276.556 0.647461 276.556 12.5573 265.552 21.1014C254.549 29.7749 157.587 90.7482 153.315 93.0784C149.69 95.0202 140.887 98.386 138.816 98.386C136.615 98.386 127.812 95.1497 124.317 93.0784C120.045 90.6187 22.9536 29.7749 12.0794 21.1014C1.07568 12.4279 1.07568 0.647461 1.07568 0.647461H276.556Z" fill="#CACBCB"/>
<path opacity="0.9016" d="M276.556 0.647461C276.556 0.647461 276.556 12.4279 265.552 20.9719C254.549 29.6454 157.587 90.4893 153.315 92.9489C149.69 94.8908 140.887 98.1271 138.816 98.1271C136.615 98.1271 127.812 94.8908 124.317 92.9489C120.045 90.4893 22.9536 29.6454 12.0794 20.9719C1.07568 12.2984 1.07568 0.647461 1.07568 0.647461H276.556Z" fill="#C9CACA"/>
<path opacity="0.918" d="M276.556 0.517578C276.556 0.517578 276.556 12.1685 265.552 20.7126C254.549 29.3861 157.587 90.2299 153.315 92.6896C149.69 94.6314 140.887 97.8678 138.816 97.8678C136.615 97.8678 127.812 94.6314 124.317 92.6896C120.045 90.3594 22.9536 29.3861 12.0794 20.7126C1.07568 12.0391 1.07568 0.517578 1.07568 0.517578H276.556Z" fill="#C8C9C9"/>
<path opacity="0.9344" d="M276.556 0.387695C276.556 0.387695 276.556 11.9092 265.552 20.4532C254.549 29.1267 157.587 89.9706 153.315 92.4303C149.69 94.3721 140.887 97.6085 138.816 97.6085C136.615 97.6085 127.812 94.3721 124.317 92.4303C120.045 90.1001 22.9536 29.1267 12.0794 20.4532C1.07568 11.9092 1.07568 0.387695 1.07568 0.387695H276.556Z" fill="#C7C8C8"/>
<path opacity="0.9508" d="M276.427 0.258789C276.427 0.258789 276.427 11.6508 265.423 20.1949C254.419 28.7389 157.457 89.7123 153.185 92.0424C149.561 93.9843 140.758 97.2206 138.686 97.2206C136.486 97.2206 127.683 93.9843 124.187 92.0424C120.045 89.7123 22.9536 28.8684 12.0794 20.1949C1.07568 11.6508 1.07568 0.258789 1.07568 0.258789H276.427Z" fill="#C6C7C7"/>
<path opacity="0.9672" d="M276.427 0.258789C276.427 0.258789 276.427 11.5214 265.424 20.0654C254.42 28.6095 157.458 89.5828 153.186 91.913C149.561 93.8548 140.758 97.0912 138.687 97.0912C136.486 97.0912 127.683 93.8548 124.188 91.913C119.916 89.5828 22.8247 28.6095 11.9505 20.0654C0.946777 11.5214 0.946777 0.258789 0.946777 0.258789H276.427Z" fill="#C5C6C6"/>
<path opacity="0.9836" d="M276.427 0.129883C276.427 0.129883 276.427 11.263 265.424 19.8071C254.42 28.3511 157.458 89.3244 153.186 91.6546C149.561 93.5964 140.758 96.8328 138.687 96.8328C136.486 96.8328 127.683 93.5964 124.188 91.6546C119.916 89.3244 22.8247 28.3511 11.9505 19.8071C0.946777 11.263 0.946777 0.129883 0.946777 0.129883H276.427Z" fill="#C4C5C5"/>
<path d="M276.428 0C276.428 0 276.428 11.0037 265.424 19.5477C254.421 28.0918 157.459 88.9357 153.187 91.3953C149.562 93.3371 140.759 96.5735 138.688 96.5735C136.487 96.5735 127.684 93.3371 124.189 91.3953C119.917 89.0651 22.8257 28.0918 11.9514 19.5477C0.947754 11.0037 0.947754 0 0.947754 0H276.428Z" fill="#B0B0B0"/>
<path d="M276.428 0C276.428 0 276.428 11.0037 265.424 19.5477C254.421 28.0918 157.459 88.9357 153.187 91.3953C149.562 93.3371 143.348 96.5735 138.688 96.5735C134.028 96.5735 127.684 93.3371 124.189 91.3953C119.917 89.0651 22.8257 28.0918 11.9514 19.5477C0.947754 11.0037 0.947754 0 0.947754 0H276.428Z" fill="url(#paint2_linear)"/>
<circle cx="137.004" cy="92.5598" r="64.0803" fill="url(#paint3_linear)"/>
<path d="M100.087 82.8525C103.081 82.8525 105.778 83.5535 108.178 84.9556C110.602 86.3338 112.479 88.2943 113.81 90.8369C115.164 93.3796 115.841 96.3143 115.841 99.6411C115.841 105.463 114.083 109.931 110.566 113.043C107.073 116.156 101.774 117.713 94.6686 117.713C88.5852 117.713 83.6188 116.774 79.7691 114.897V103.348C81.8365 104.299 84.1653 105.083 86.7555 105.701C89.3694 106.319 91.615 106.627 93.4923 106.627C96.1062 106.627 98.1142 106.081 99.5162 104.988C100.918 103.871 101.619 102.231 101.619 100.069C101.619 98.0728 100.906 96.5163 99.4806 95.3994C98.0548 94.2826 95.8924 93.7241 92.9933 93.7241C90.7833 93.7241 88.3951 94.14 85.8287 94.9717L80.6603 92.4053L82.6207 64.8877H112.348V76.6147H94.5973L93.9557 83.4941C95.8092 83.1377 97.128 82.9476 97.9122 82.9238C98.6964 82.8763 99.4212 82.8525 100.087 82.8525ZM155.749 91.0151C155.749 100.235 154.204 106.996 151.115 111.297C148.026 115.574 143.297 117.713 136.929 117.713C130.703 117.713 126.01 115.479 122.849 111.012C119.689 106.521 118.108 99.855 118.108 91.0151C118.108 81.7476 119.653 74.9513 122.742 70.6265C125.831 66.3016 130.56 64.1392 136.929 64.1392C143.131 64.1392 147.812 66.3966 150.973 70.9116C154.157 75.4028 155.749 82.104 155.749 91.0151ZM132.117 91.0151C132.117 96.9084 132.485 100.96 133.222 103.17C133.958 105.38 135.194 106.485 136.929 106.485C138.687 106.485 139.923 105.344 140.636 103.063C141.372 100.782 141.741 96.7658 141.741 91.0151C141.741 85.2407 141.372 81.201 140.636 78.896C139.899 76.5672 138.663 75.4028 136.929 75.4028C135.194 75.4028 133.958 76.5197 133.222 78.7534C132.485 80.9871 132.117 85.0744 132.117 91.0151ZM194.872 91.0151C194.872 100.235 193.328 106.996 190.239 111.297C187.149 115.574 182.421 117.713 176.052 117.713C169.826 117.713 165.133 115.479 161.973 111.012C158.812 106.521 157.232 99.855 157.232 91.0151C157.232 81.7476 158.776 74.9513 161.866 70.6265C164.955 66.3016 169.684 64.1392 176.052 64.1392C182.254 64.1392 186.936 66.3966 190.096 70.9116C193.28 75.4028 194.872 82.104 194.872 91.0151ZM171.24 91.0151C171.24 96.9084 171.608 100.96 172.345 103.17C173.082 105.38 174.317 106.485 176.052 106.485C177.811 106.485 179.046 105.344 179.759 103.063C180.496 100.782 180.864 96.7658 180.864 91.0151C180.864 85.2407 180.496 81.201 179.759 78.896C179.023 76.5672 177.787 75.4028 176.052 75.4028C174.317 75.4028 173.082 76.5197 172.345 78.7534C171.608 80.9871 171.24 85.0744 171.24 91.0151Z" fill="url(#paint4_linear)"/>
<defs>
<linearGradient id="paint0_linear" x1="138.73" y1="0.0262794" x2="138.73" y2="175.817" gradientUnits="userSpaceOnUse">
<stop stop-color="#D5D5D0"/>
<stop offset="0.1161" stop-color="#E0E0DA"/>
<stop offset="0.3441" stop-color="#EFEFE7"/>
<stop offset="0.6097" stop-color="#F8F8EF"/>
<stop offset="1" stop-color="#FBFBF1"/>
</linearGradient>
<linearGradient id="paint1_linear" x1="139.32" y1="-75.8865" x2="139.32" y2="175.816" gradientUnits="userSpaceOnUse">
<stop stop-color="#D5D5D0"/>
<stop offset="0.1161" stop-color="#E0E0DA"/>
<stop offset="0.3441" stop-color="#EFEFE7"/>
<stop offset="0.6097" stop-color="#F8F8EF"/>
<stop offset="1" stop-color="#FBFBF1"/>
</linearGradient>
<linearGradient id="paint2_linear" x1="138.731" y1="251.73" x2="138.731" y2="0.0271849" gradientUnits="userSpaceOnUse">
<stop stop-color="#D5D5D0"/>
<stop offset="0.1161" stop-color="#E0E0DA"/>
<stop offset="0.3441" stop-color="#EFEFE7"/>
<stop offset="0.6097" stop-color="#F8F8EF"/>
<stop offset="1" stop-color="#FBFBF1"/>
</linearGradient>
<linearGradient id="paint3_linear" x1="137.004" y1="28.4795" x2="137.004" y2="156.64" gradientUnits="userSpaceOnUse">
<stop stop-color="#FFC700"/>
<stop offset="1" stop-color="#FC9517"/>
</linearGradient>
<linearGradient id="paint4_linear" x1="128.374" y1="20.3314" x2="129.97" y2="189.661" gradientUnits="userSpaceOnUse">
<stop stop-color="#D91B24"/>
<stop offset="1" stop-color="#393C5A"/>
</linearGradient>
</defs>
</svg>
