<svg width="215" height="136" viewBox="0 0 215 136" fill="none" xmlns="http://www.w3.org/2000/svg">
<path d="M213.6 0H0.899902V135.8H213.6V0Z" fill="url(#paint0_linear)"/>
<path opacity="0.0163934" d="M0.399902 131.3C0.399902 131.3 0.399902 122.8 8.8999 116.2C17.3999 109.6 92.2999 62.6002 95.5999 60.7002C98.3999 59.2002 105.2 56.7002 106.8 56.7002C108.5 56.7002 115.3 59.2002 118 60.7002C121.3 62.5002 196.3 109.6 204.7 116.2C213.2 122.8 213.2 131.3 213.2 131.3H0.399902Z" fill="#FEFEFE"/>
<path opacity="0.0327869" d="M0.399902 131.4C0.399902 131.4 0.399902 122.9 8.8999 116.3C17.3999 109.7 92.2999 62.6998 95.5999 60.7998C98.3999 59.2998 105.2 56.7998 106.8 56.7998C108.5 56.7998 115.3 59.2998 118 60.7998C121.3 62.5998 196.3 109.7 204.7 116.3C213.2 122.9 213.2 131.4 213.2 131.4H0.399902Z" fill="#FDFDFD"/>
<path opacity="0.0491803" d="M0.5 131.5C0.5 131.5 0.5 123 9 116.4C17.5 109.8 92.4 62.8004 95.7 60.9004C98.5 59.4004 105.3 56.9004 106.9 56.9004C108.6 56.9004 115.4 59.4004 118.1 60.9004C121.4 62.7004 196.4 109.8 204.8 116.4C213.3 123 213.3 131.5 213.3 131.5H0.5Z" fill="#FCFCFC"/>
<path opacity="0.0655738" d="M0.5 131.6C0.5 131.6 0.5 123.1 9 116.5C17.5 109.9 92.4 62.9 95.7 61C98.5 59.5 105.3 57 106.9 57C108.6 57 115.4 59.5 118.1 61C121.4 62.8 196.4 109.9 204.8 116.5C213.3 123.1 213.3 131.6 213.3 131.6H0.5Z" fill="#FBFBFB"/>
<path opacity="0.0819672" d="M0.5 131.6C0.5 131.6 0.5 123.1 9 116.5C17.5 109.9 92.4 62.9 95.7 61C98.5 59.5 105.3 57 106.9 57C108.6 57 115.4 59.5 118.1 61C121.4 62.8 196.4 109.9 204.8 116.5C213.3 123.1 213.3 131.6 213.3 131.6H0.5Z" fill="#FAFAFA"/>
<path opacity="0.0983607" d="M0.5 131.7C0.5 131.7 0.5 123.2 9 116.6C17.5 110 92.4 62.9996 95.7 61.0996C98.5 59.5996 105.3 57.0996 106.9 57.0996C108.6 57.0996 115.4 59.5996 118.1 61.0996C121.4 62.8996 196.4 110 204.8 116.6C213.3 123.2 213.3 131.7 213.3 131.7H0.5Z" fill="#F9F9F9"/>
<path opacity="0.1148" d="M0.5 131.8C0.5 131.8 0.5 123.3 9 116.7C17.5 110.1 92.4 63.1002 95.7 61.2002C98.5 59.7002 105.3 57.2002 106.9 57.2002C108.6 57.2002 115.4 59.7002 118.1 61.2002C121.4 63.0002 196.4 110.1 204.8 116.7C213.3 123.3 213.3 131.8 213.3 131.8H0.5Z" fill="#F8F8F8"/>
<path opacity="0.1311" d="M0.5 131.9C0.5 131.9 0.5 123.4 9 116.8C17.5 110.2 92.4 63.1998 95.7 61.2998C98.5 59.7998 105.3 57.2998 106.9 57.2998C108.6 57.2998 115.4 59.7998 118.1 61.2998C121.4 63.0998 196.4 110.2 204.8 116.8C213.3 123.4 213.3 131.9 213.3 131.9H0.5Z" fill="#F7F7F7"/>
<path opacity="0.1475" d="M0.5 131.9C0.5 131.9 0.5 123.4 9 116.8C17.5 110.2 92.4 63.1998 95.7 61.2998C98.5 59.7998 105.3 57.2998 106.9 57.2998C108.6 57.2998 115.4 59.7998 118.1 61.2998C121.4 63.0998 196.4 110.2 204.8 116.8C213.3 123.4 213.3 131.9 213.3 131.9H0.5Z" fill="#F6F6F6"/>
<path opacity="0.1639" d="M0.599854 132C0.599854 132 0.599854 123.5 9.09985 116.9C17.5999 110.3 92.4999 63.3004 95.7999 61.4004C98.5999 59.9004 105.4 57.4004 107 57.4004C108.7 57.4004 115.5 59.9004 118.2 61.4004C121.5 63.2004 196.5 110.3 204.9 116.9C213.4 123.5 213.4 132 213.4 132H0.599854Z" fill="#F5F5F5"/>
<path opacity="0.1803" d="M0.599854 132.1C0.599854 132.1 0.599854 123.6 9.09985 117C17.5999 110.4 92.4999 63.4 95.7999 61.5C98.5999 60 105.4 57.5 107 57.5C108.7 57.5 115.5 60 118.2 61.5C121.5 63.3 196.5 110.4 204.9 117C213.4 123.6 213.4 132.1 213.4 132.1H0.599854Z" fill="#F4F4F4"/>
<path opacity="0.1967" d="M0.599854 132.2C0.599854 132.2 0.599854 123.7 9.09985 117.1C17.5999 110.5 92.4999 63.4996 95.7999 61.5996C98.5999 60.0996 105.4 57.5996 107 57.5996C108.7 57.5996 115.5 60.0996 118.2 61.5996C121.5 63.3996 196.5 110.5 204.9 117.1C213.4 123.7 213.4 132.2 213.4 132.2H0.599854Z" fill="#F3F3F3"/>
<path opacity="0.2131" d="M0.599854 132.2C0.599854 132.2 0.599854 123.7 9.09985 117.1C17.5999 110.5 92.4999 63.4996 95.7999 61.5996C98.5999 60.0996 105.4 57.5996 107 57.5996C108.7 57.5996 115.5 60.0996 118.2 61.5996C121.5 63.3996 196.5 110.5 204.9 117.1C213.4 123.7 213.4 132.2 213.4 132.2H0.599854Z" fill="#F2F2F3"/>
<path opacity="0.2295" d="M0.599854 132.3C0.599854 132.3 0.599854 123.8 9.09985 117.2C17.5999 110.6 92.4999 63.6002 95.7999 61.7002C98.5999 60.2002 105.4 57.7002 107 57.7002C108.7 57.7002 115.5 60.2002 118.2 61.7002C121.5 63.5002 196.5 110.6 204.9 117.2C213.4 123.8 213.4 132.3 213.4 132.3H0.599854Z" fill="#F1F1F2"/>
<path opacity="0.2459" d="M0.599854 132.4C0.599854 132.4 0.599854 123.9 9.09985 117.3C17.5999 110.7 92.4999 63.6998 95.7999 61.7998C98.5999 60.2998 105.4 57.7998 107 57.7998C108.7 57.7998 115.5 60.2998 118.2 61.7998C121.5 63.5998 196.5 110.7 204.9 117.3C213.4 123.9 213.4 132.4 213.4 132.4H0.599854Z" fill="#F0F0F1"/>
<path opacity="0.2623" d="M0.599854 132.5C0.599854 132.5 0.599854 124 9.09985 117.4C17.5999 110.8 92.4999 63.8004 95.7999 61.9004C98.5999 60.4004 105.4 57.9004 107 57.9004C108.7 57.9004 115.5 60.4004 118.2 61.9004C121.5 63.7004 196.5 110.8 204.9 117.4C213.4 124 213.4 132.5 213.4 132.5H0.599854Z" fill="#EFF0F0"/>
<path opacity="0.2787" d="M0.699951 132.5C0.699951 132.5 0.699951 124 9.19995 117.4C17.7 110.8 92.5999 63.8004 95.8999 61.9004C98.7 60.4004 105.5 57.9004 107.1 57.9004C108.8 57.9004 115.6 60.4004 118.3 61.9004C121.6 63.7004 196.6 110.8 205 117.4C213.5 124 213.5 132.5 213.5 132.5H0.699951Z" fill="#EEEFEF"/>
<path opacity="0.2951" d="M0.699951 132.6C0.699951 132.6 0.699951 124.1 9.19995 117.5C17.7 110.9 92.5999 63.9 95.8999 62C98.7 60.5 105.5 58 107.1 58C108.8 58 115.6 60.5 118.3 62C121.6 63.8 196.6 110.9 205 117.5C213.5 124.1 213.5 132.6 213.5 132.6H0.699951Z" fill="#EDEEEE"/>
<path opacity="0.3115" d="M0.699951 132.7C0.699951 132.7 0.699951 124.2 9.19995 117.6C17.7 111 92.5999 63.9996 95.8999 62.0996C98.7 60.5996 105.5 58.0996 107.1 58.0996C108.8 58.0996 115.6 60.5996 118.3 62.0996C121.6 63.8996 196.6 111 205 117.6C213.5 124.2 213.5 132.7 213.5 132.7H0.699951Z" fill="#ECEDED"/>
<path opacity="0.3279" d="M0.699951 132.8C0.699951 132.8 0.699951 124.3 9.19995 117.7C17.7 111.1 92.5999 64.1002 95.8999 62.2002C98.7 60.7002 105.5 58.2002 107.1 58.2002C108.8 58.2002 115.6 60.7002 118.3 62.2002C121.6 64.0002 196.6 111.1 205 117.7C213.5 124.3 213.5 132.8 213.5 132.8H0.699951Z" fill="#EBECEC"/>
<path opacity="0.3443" d="M0.699951 132.8C0.699951 132.8 0.699951 124.3 9.19995 117.7C17.7 111.1 92.5999 64.1002 95.8999 62.2002C98.7 60.7002 105.5 58.2002 107.1 58.2002C108.8 58.2002 115.6 60.7002 118.3 62.2002C121.6 64.0002 196.6 111.1 205 117.7C213.5 124.3 213.5 132.8 213.5 132.8H0.699951Z" fill="#EAEBEB"/>
<path opacity="0.3607" d="M0.699951 132.9C0.699951 132.9 0.699951 124.4 9.19995 117.8C17.7 111.2 92.5999 64.1998 95.8999 62.2998C98.7 60.7998 105.5 58.2998 107.1 58.2998C108.8 58.2998 115.6 60.7998 118.3 62.2998C121.6 64.0998 196.6 111.2 205 117.8C213.5 124.4 213.5 132.9 213.5 132.9H0.699951Z" fill="#E9EAEA"/>
<path opacity="0.377" d="M0.799805 133C0.799805 133 0.799805 124.5 9.2998 117.9C17.7998 111.3 92.6998 64.3004 95.9998 62.4004C98.7998 60.9004 105.6 58.4004 107.2 58.4004C108.9 58.4004 115.7 60.9004 118.4 62.4004C121.7 64.2004 196.7 111.3 205.1 117.9C213.6 124.5 213.6 133 213.6 133H0.799805Z" fill="#E9E9E9"/>
<path opacity="0.3934" d="M0.799805 133.1C0.799805 133.1 0.799805 124.6 9.2998 118C17.7998 111.4 92.6998 64.4 95.9998 62.5C98.7998 61 105.6 58.5 107.2 58.5C108.9 58.5 115.7 61 118.4 62.5C121.7 64.3 196.7 111.4 205.1 118C213.6 124.6 213.6 133.1 213.6 133.1H0.799805Z" fill="#E8E8E8"/>
<path opacity="0.4098" d="M0.799805 133.1C0.799805 133.1 0.799805 124.6 9.2998 118C17.7998 111.4 92.6998 64.4 95.9998 62.5C98.7998 61 105.6 58.5 107.2 58.5C108.9 58.5 115.7 61 118.4 62.5C121.7 64.3 196.7 111.4 205.1 118C213.6 124.6 213.6 133.1 213.6 133.1H0.799805Z" fill="#E7E7E7"/>
<path opacity="0.4262" d="M0.799805 133.2C0.799805 133.2 0.799805 124.7 9.2998 118.1C17.7998 111.5 92.6998 64.4996 95.9998 62.5996C98.7998 61.0996 105.6 58.5996 107.2 58.5996C108.9 58.5996 115.7 61.0996 118.4 62.5996C121.7 64.3996 196.7 111.5 205.1 118.1C213.6 124.7 213.6 133.2 213.6 133.2H0.799805Z" fill="#E6E6E6"/>
<path opacity="0.4426" d="M0.799805 133.3C0.799805 133.3 0.799805 124.8 9.2998 118.2C17.7998 111.6 92.6998 64.6002 95.9998 62.7002C98.7998 61.2002 105.6 58.7002 107.2 58.7002C108.9 58.7002 115.7 61.2002 118.4 62.7002C121.7 64.5002 196.7 111.6 205.1 118.2C213.6 124.8 213.6 133.3 213.6 133.3H0.799805Z" fill="#E5E5E5"/>
<path opacity="0.459" d="M0.799805 133.4C0.799805 133.4 0.799805 124.9 9.2998 118.3C17.7998 111.7 92.6998 64.6998 95.9998 62.7998C98.7998 61.2998 105.6 58.7998 107.2 58.7998C108.9 58.7998 115.7 61.2998 118.4 62.7998C121.7 64.5998 196.7 111.7 205.1 118.3C213.6 124.9 213.6 133.4 213.6 133.4H0.799805Z" fill="#E4E4E4"/>
<path opacity="0.4754" d="M0.799805 133.4C0.799805 133.4 0.799805 124.9 9.2998 118.3C17.7998 111.7 92.6998 64.6998 95.9998 62.7998C98.7998 61.2998 105.6 58.7998 107.2 58.7998C108.9 58.7998 115.7 61.2998 118.4 62.7998C121.7 64.5998 196.7 111.7 205.1 118.3C213.6 124.9 213.6 133.4 213.6 133.4H0.799805Z" fill="#E3E3E3"/>
<path opacity="0.4918" d="M0.899902 133.5C0.899902 133.5 0.899902 125 9.3999 118.4C17.8999 111.8 92.7999 64.8004 96.0999 62.9004C98.8999 61.4004 105.7 58.9004 107.3 58.9004C109 58.9004 115.8 61.4004 118.5 62.9004C121.8 64.7004 196.8 111.8 205.2 118.4C213.7 125 213.7 133.5 213.7 133.5H0.899902Z" fill="#E2E2E2"/>
<path opacity="0.5082" d="M0.899902 133.6C0.899902 133.6 0.899902 125.1 9.3999 118.5C17.8999 111.9 92.7999 64.9 96.0999 63C98.8999 61.5 105.7 59 107.3 59C109 59 115.8 61.5 118.5 63C121.8 64.8 196.8 111.9 205.2 118.5C213.7 125.1 213.7 133.6 213.7 133.6H0.899902Z" fill="#E1E1E1"/>
<path opacity="0.5246" d="M0.899902 133.6C0.899902 133.6 0.899902 125.1 9.3999 118.5C17.8999 111.9 92.7999 64.9 96.0999 63C98.8999 61.5 105.7 59 107.3 59C109 59 115.8 61.5 118.5 63C121.8 64.8 196.8 111.9 205.2 118.5C213.7 125.1 213.7 133.6 213.7 133.6H0.899902Z" fill="#E0E0E0"/>
<path opacity="0.541" d="M0.899902 133.7C0.899902 133.7 0.899902 125.2 9.3999 118.6C17.8999 112 92.7999 64.9996 96.0999 63.0996C98.8999 61.5996 105.7 59.0996 107.3 59.0996C109 59.0996 115.8 61.5996 118.5 63.0996C121.8 64.8996 196.8 112 205.2 118.6C213.7 125.2 213.7 133.7 213.7 133.7H0.899902Z" fill="#DFDFDF"/>
<path opacity="0.5574" d="M0.899902 133.8C0.899902 133.8 0.899902 125.3 9.3999 118.7C17.8999 112.1 92.7999 65.1002 96.0999 63.2002C98.8999 61.7002 105.7 59.2002 107.3 59.2002C109 59.2002 115.8 61.7002 118.5 63.2002C121.8 65.0002 196.8 112.1 205.2 118.7C213.7 125.3 213.7 133.8 213.7 133.8H0.899902Z" fill="#DEDEDE"/>
<path opacity="0.5738" d="M0.899902 133.9C0.899902 133.9 0.899902 125.4 9.3999 118.8C17.8999 112.2 92.7999 65.1998 96.0999 63.2998C98.8999 61.7998 105.7 59.2998 107.3 59.2998C109 59.2998 115.8 61.7998 118.5 63.2998C121.8 65.0998 196.8 112.2 205.2 118.8C213.7 125.4 213.7 133.9 213.7 133.9H0.899902Z" fill="#DDDDDD"/>
<path opacity="0.5902" d="M0.899902 133.9C0.899902 133.9 0.899902 125.4 9.3999 118.8C17.8999 112.2 92.7999 65.1998 96.0999 63.2998C98.8999 61.7998 105.7 59.2998 107.3 59.2998C109 59.2998 115.8 61.7998 118.5 63.2998C121.8 65.0998 196.8 112.2 205.2 118.8C213.7 125.4 213.7 133.9 213.7 133.9H0.899902Z" fill="#DCDCDC"/>
<path opacity="0.6066" d="M1 134C1 134 1 125.5 9.5 118.9C18 112.3 92.9 65.3004 96.2 63.4004C99 61.9004 105.8 59.4004 107.4 59.4004C109.1 59.4004 115.9 61.9004 118.6 63.4004C121.9 65.2004 196.9 112.3 205.3 118.9C213.7 125.5 213.7 134 213.7 134H1Z" fill="#DBDBDB"/>
<path opacity="0.623" d="M1 134.1C1 134.1 1 125.6 9.5 119C18 112.4 92.9 65.4 96.2 63.5C99 62 105.8 59.5 107.4 59.5C109.1 59.5 115.9 62 118.6 63.5C121.9 65.3 196.9 112.4 205.3 119C213.7 125.6 213.7 134.1 213.7 134.1H1Z" fill="#DADADA"/>
<path opacity="0.6393" d="M1 134.2C1 134.2 1 125.7 9.5 119.1C18 112.5 92.9 65.4996 96.2 63.5996C99 62.0996 105.8 59.5996 107.4 59.5996C109.1 59.5996 115.9 62.0996 118.6 63.5996C121.9 65.3996 196.9 112.5 205.3 119.1C213.7 125.7 213.7 134.2 213.7 134.2H1Z" fill="#D9D9DA"/>
<path opacity="0.6557" d="M1 134.2C1 134.2 1 125.7 9.5 119.1C18 112.5 92.9 65.4996 96.2 63.5996C99 62.0996 105.8 59.5996 107.4 59.5996C109.1 59.5996 115.9 62.0996 118.6 63.5996C121.9 65.3996 196.9 112.5 205.3 119.1C213.7 125.7 213.7 134.2 213.7 134.2H1Z" fill="#D8D8D9"/>
<path opacity="0.6721" d="M1 134.3C1 134.3 1 125.8 9.5 119.2C18 112.6 92.9 65.6002 96.2 63.7002C99 62.2002 105.8 59.7002 107.4 59.7002C109.1 59.7002 115.9 62.2002 118.6 63.7002C121.9 65.5002 196.9 112.6 205.3 119.2C213.7 125.8 213.7 134.3 213.7 134.3H1Z" fill="#D7D7D8"/>
<path opacity="0.6885" d="M1 134.4C1 134.4 1 125.9 9.5 119.3C18 112.7 92.9 65.6998 96.2 63.7998C99 62.2998 105.8 59.7998 107.4 59.7998C109.1 59.7998 115.9 62.2998 118.6 63.7998C121.9 65.5998 196.9 112.7 205.3 119.3C213.7 125.9 213.7 134.4 213.7 134.4H1Z" fill="#D6D6D7"/>
<path opacity="0.7049" d="M1 134.5C1 134.5 1 126 9.5 119.4C18 112.8 92.9 65.8004 96.2 63.9004C99 62.4004 105.8 59.9004 107.4 59.9004C109.1 59.9004 115.9 62.4004 118.6 63.9004C121.9 65.7004 196.9 112.8 205.3 119.4C213.7 126 213.7 134.5 213.7 134.5H1Z" fill="#D5D5D6"/>
<path opacity="0.7213" d="M1.09985 134.5C1.09985 134.5 1.09985 126 9.59985 119.4C18.0999 112.8 92.9999 65.8004 96.2999 63.9004C99.0999 62.4004 105.9 59.9004 107.5 59.9004C109.2 59.9004 116 62.4004 118.7 63.9004C122 65.7004 197 112.8 205.4 119.4C213.8 126 213.8 134.5 213.8 134.5H1.09985Z" fill="#D4D4D5"/>
<path opacity="0.7377" d="M1.09985 134.6C1.09985 134.6 1.09985 126.1 9.59985 119.5C18.0999 112.9 92.9999 65.9 96.2999 64C99.0999 62.5 105.9 60 107.5 60C109.2 60 116 62.5 118.7 64C122 65.8 197 112.9 205.4 119.5C213.8 126.1 213.8 134.6 213.8 134.6H1.09985Z" fill="#D3D3D4"/>
<path opacity="0.7541" d="M1.09985 134.7C1.09985 134.7 1.09985 126.2 9.59985 119.6C18.0999 113 92.9999 65.9996 96.2999 64.0996C99.0999 62.5996 105.9 60.0996 107.5 60.0996C109.2 60.0996 116 62.5996 118.7 64.0996C122 65.8996 197 113 205.4 119.6C213.8 126.2 213.8 134.7 213.8 134.7H1.09985Z" fill="#D2D2D3"/>
<path opacity="0.7705" d="M1.09985 134.8C1.09985 134.8 1.09985 126.3 9.59985 119.7C18.0999 113.1 92.9999 66.1002 96.2999 64.2002C99.0999 62.7002 105.9 60.2002 107.5 60.2002C109.2 60.2002 116 62.7002 118.7 64.2002C122 66.0002 197 113.1 205.4 119.7C213.8 126.3 213.8 134.8 213.8 134.8H1.09985Z" fill="#D1D2D2"/>
<path opacity="0.7869" d="M1.09985 134.8C1.09985 134.8 1.09985 126.3 9.59985 119.7C18.0999 113.1 92.9999 66.1002 96.2999 64.2002C99.0999 62.7002 105.9 60.2002 107.5 60.2002C109.2 60.2002 116 62.7002 118.7 64.2002C122 66.0002 197 113.1 205.4 119.7C213.8 126.3 213.8 134.8 213.8 134.8H1.09985Z" fill="#D0D1D1"/>
<path opacity="0.8033" d="M1.09985 134.9C1.09985 134.9 1.09985 126.4 9.59985 119.8C18.0999 113.2 92.9999 66.1998 96.2999 64.2998C99.0999 62.7998 105.9 60.2998 107.5 60.2998C109.2 60.2998 116 62.7998 118.7 64.2998C122 66.0998 197 113.2 205.4 119.8C213.8 126.4 213.8 134.9 213.8 134.9H1.09985Z" fill="#CFD0D0"/>
<path opacity="0.8197" d="M1.19995 135C1.19995 135 1.19995 126.5 9.69995 119.9C18.2 113.3 93.0999 66.3004 96.3999 64.4004C99.2 62.9004 106 60.4004 107.6 60.4004C109.3 60.4004 116.1 62.9004 118.8 64.4004C122.1 66.2004 197.1 113.3 205.5 119.9C213.9 126.5 213.9 135 213.9 135H1.19995Z" fill="#CECFCF"/>
<path opacity="0.8361" d="M1.19995 135.1C1.19995 135.1 1.19995 126.6 9.69995 120C18.2 113.4 93.0999 66.4 96.3999 64.5C99.2 63 106 60.5 107.6 60.5C109.3 60.5 116.1 63 118.8 64.5C122.1 66.3 197.1 113.4 205.5 120C213.9 126.6 213.9 135.1 213.9 135.1H1.19995Z" fill="#CDCECE"/>
<path opacity="0.8525" d="M1.19995 135.1C1.19995 135.1 1.19995 126.6 9.69995 120C18.2 113.4 93.0999 66.4 96.3999 64.5C99.2 63 106 60.5 107.6 60.5C109.3 60.5 116.1 63 118.8 64.5C122.1 66.3 197.1 113.4 205.5 120C213.9 126.6 213.9 135.1 213.9 135.1H1.19995Z" fill="#CCCDCD"/>
<path opacity="0.8689" d="M1.19995 135.2C1.19995 135.2 1.19995 126.7 9.69995 120.1C18.2 113.5 93.0999 66.4996 96.3999 64.5996C99.2 63.0996 106 60.5996 107.6 60.5996C109.3 60.5996 116.1 63.0996 118.8 64.5996C122.1 66.3996 197.1 113.5 205.5 120.1C213.9 126.7 213.9 135.2 213.9 135.2H1.19995Z" fill="#CBCCCC"/>
<path opacity="0.8852" d="M1.19995 135.3C1.19995 135.3 1.19995 126.8 9.69995 120.2C18.2 113.6 93.0999 66.6002 96.3999 64.7002C99.2 63.2002 106 60.7002 107.6 60.7002C109.3 60.7002 116.1 63.2002 118.8 64.7002C122.1 66.5002 197.1 113.6 205.5 120.2C213.9 126.8 213.9 135.3 213.9 135.3H1.19995Z" fill="#CACBCB"/>
<path opacity="0.9016" d="M1.19995 135.4C1.19995 135.4 1.19995 126.9 9.69995 120.3C18.2 113.7 93.0999 66.6998 96.3999 64.7998C99.2 63.2998 106 60.7998 107.6 60.7998C109.3 60.7998 116.1 63.2998 118.8 64.7998C122.1 66.5998 197.1 113.7 205.5 120.3C213.9 126.9 213.9 135.4 213.9 135.4H1.19995Z" fill="#C9CACA"/>
<path opacity="0.918" d="M1.19995 135.4C1.19995 135.4 1.19995 126.9 9.69995 120.3C18.2 113.7 93.0999 66.6998 96.3999 64.7998C99.2 63.2998 106 60.7998 107.6 60.7998C109.3 60.7998 116.1 63.2998 118.8 64.7998C122.1 66.5998 197.1 113.7 205.5 120.3C213.9 126.9 213.9 135.4 213.9 135.4H1.19995Z" fill="#C8C9C9"/>
<path opacity="0.9344" d="M1.2998 135.5C1.2998 135.5 1.2998 127 9.7998 120.4C18.2998 113.8 93.1998 66.8004 96.4998 64.9004C99.2998 63.4004 106.1 60.9004 107.7 60.9004C109.4 60.9004 116.2 63.4004 118.9 64.9004C122.2 66.7004 197.2 113.8 205.6 120.4C214 127 214 135.5 214 135.5H1.2998Z" fill="#C7C8C8"/>
<path opacity="0.9508" d="M1.2998 135.6C1.2998 135.6 1.2998 127.1 9.7998 120.5C18.2998 113.9 93.1998 66.9 96.4998 65C99.2998 63.5 106.1 61 107.7 61C109.4 61 116.2 63.5 118.9 65C122.2 66.8 197.2 113.9 205.6 120.5C214 127.1 214 135.6 214 135.6H1.2998Z" fill="#C6C7C7"/>
<path opacity="0.9672" d="M1.2998 135.7C1.2998 135.7 1.2998 127.2 9.7998 120.6C18.2998 114 93.1998 66.9996 96.4998 65.0996C99.2998 63.5996 106.1 61.0996 107.7 61.0996C109.4 61.0996 116.2 63.5996 118.9 65.0996C122.2 66.8996 197.2 114 205.6 120.6C214 127.2 214 135.7 214 135.7H1.2998Z" fill="#C5C6C6"/>
<path opacity="0.9836" d="M1.2998 135.7C1.2998 135.7 1.2998 127.2 9.7998 120.6C18.2998 114 93.1998 66.9996 96.4998 65.0996C99.2998 63.5996 106.1 61.0996 107.7 61.0996C109.4 61.0996 116.2 63.5996 118.9 65.0996C122.2 66.8996 197.2 114 205.6 120.6C214 127.2 214 135.7 214 135.7H1.2998Z" fill="#C4C5C5"/>
<path d="M1.2998 135.8C1.2998 135.8 1.2998 127.3 9.7998 120.7C18.2998 114.1 93.1998 67.1002 96.4998 65.2002C99.2998 63.7002 106.1 61.2002 107.7 61.2002C109.4 61.2002 116.2 63.7002 118.9 65.2002C122.2 67.0002 197.2 114.1 205.6 120.7C214 127.3 214 135.8 214 135.8H1.2998Z" fill="#B0B0B0"/>
<path d="M1.2998 135.8C1.2998 135.8 1.2998 127.3 9.7998 120.7C18.2998 114.1 93.1998 67.1002 96.4998 65.2002C99.2998 63.7002 104.1 61.2002 107.7 61.2002C111.3 61.2002 116.2 63.7002 118.9 65.2002C122.2 67.0002 197.2 114.1 205.6 120.7C214 127.3 214 135.8 214 135.8H1.2998Z" fill="url(#paint1_linear)"/>
<path opacity="0.0163934" d="M214.5 4.5C214.5 4.5 214.5 19 206 26.2C197.5 33.4 122.6 80.8 119.3 82.8C116.5 84.5 109.7 87.2 108.1 87.2C106.4 87.2 99.5997 84.5 96.8997 82.8C93.5997 80.8 18.5997 33.4 10.1997 26.2C1.69971 19 1.69971 4.5 1.69971 4.5H214.5Z" fill="#FEFEFE"/>
<path opacity="0.0327869" d="M214.5 4.40039C214.5 4.40039 214.5 18.8004 206 26.0004C197.5 33.2004 122.6 80.6004 119.3 82.6004C116.5 84.3004 109.7 86.9004 108.1 86.9004C106.4 86.9004 99.5997 84.2004 96.8997 82.6004C93.5997 80.6004 18.5997 33.2004 10.1997 26.0004C1.69971 18.8004 1.69971 4.40039 1.69971 4.40039H214.5Z" fill="#FDFDFD"/>
<path opacity="0.0491803" d="M214.5 4.40039C214.5 4.40039 214.5 18.7004 206 25.9004C197.5 33.1004 122.6 80.5004 119.3 82.5004C116.5 84.2004 109.7 86.8004 108.1 86.8004C106.4 86.8004 99.5997 84.1004 96.8997 82.5004C93.5997 80.5004 18.5997 33.1004 10.1997 25.9004C1.69971 18.7004 1.69971 4.40039 1.69971 4.40039H214.5Z" fill="#FCFCFC"/>
<path opacity="0.0655738" d="M214.5 4.2998C214.5 4.2998 214.5 18.4998 206 25.6998C197.5 32.7998 122.6 80.2998 119.3 82.2998C116.5 83.9998 109.7 86.5998 108.1 86.5998C106.4 86.5998 99.5997 83.8998 96.8997 82.2998C93.5997 80.2998 18.5997 32.8998 10.1997 25.6998C1.69971 18.4998 1.69971 4.2998 1.69971 4.2998H214.5Z" fill="#FBFBFB"/>
<path opacity="0.0819672" d="M214.4 4.2002C214.4 4.2002 214.4 18.3002 205.9 25.5002C197.4 32.6002 122.5 80.1002 119.2 82.0002C116.4 83.7002 109.6 86.3002 108 86.3002C106.3 86.3002 99.4996 83.6002 96.7996 82.0002C93.4996 80.0002 18.4996 32.6002 10.0996 25.5002C1.59961 18.4002 1.59961 4.2002 1.59961 4.2002H214.4Z" fill="#FAFAFA"/>
<path opacity="0.0983607" d="M214.4 4.09961C214.4 4.09961 214.4 18.0996 205.9 25.2996C197.4 32.3996 122.5 79.7996 119.2 81.7996C116.4 83.3996 109.6 86.0996 108 86.0996C106.3 86.0996 99.4996 83.3996 96.7996 81.7996C93.4996 79.7996 18.4996 32.3996 10.0996 25.2996C1.59961 18.1996 1.59961 4.09961 1.59961 4.09961H214.4Z" fill="#F9F9F9"/>
<path opacity="0.1148" d="M214.4 4.09961C214.4 4.09961 214.4 17.9996 205.9 25.1996C197.4 32.2996 122.5 79.6996 119.2 81.6996C116.4 83.2996 109.6 85.9996 108 85.9996C106.3 85.9996 99.4996 83.2996 96.7996 81.6996C93.4996 79.6996 18.4996 32.2996 10.0996 25.1996C1.59961 18.0996 1.59961 4.09961 1.59961 4.09961H214.4Z" fill="#F8F8F8"/>
<path opacity="0.1311" d="M214.4 4C214.4 4 214.4 17.8 205.9 24.9C197.4 32 122.5 79.4 119.2 81.4C116.4 83 109.6 85.7 108 85.7C106.3 85.7 99.4996 83 96.7996 81.4C93.4996 79.4 18.4996 32 10.0996 24.9C1.59961 17.8 1.59961 4 1.59961 4H214.4Z" fill="#F7F7F7"/>
<path opacity="0.1475" d="M214.4 3.90039C214.4 3.90039 214.4 17.6004 205.9 24.7004C197.4 31.8004 122.5 79.2004 119.2 81.2004C116.4 82.8004 109.6 85.5004 108 85.5004C106.3 85.5004 99.4996 82.8004 96.7996 81.2004C93.4996 79.2004 18.4996 31.8004 10.0996 24.7004C1.59961 17.6004 1.59961 3.90039 1.59961 3.90039H214.4Z" fill="#F6F6F6"/>
<path opacity="0.1639" d="M214.4 3.7998C214.4 3.7998 214.4 17.3998 205.9 24.4998C197.4 31.5998 122.5 78.9998 119.2 80.8998C116.4 82.4998 109.6 85.1998 108 85.1998C106.3 85.1998 99.4996 82.4998 96.7996 80.8998C93.4996 78.8998 18.4996 31.4998 10.0996 24.4998C1.59961 17.3998 1.59961 3.7998 1.59961 3.7998H214.4Z" fill="#F5F5F5"/>
<path opacity="0.1803" d="M214.4 3.7998C214.4 3.7998 214.4 17.2998 205.9 24.3998C197.4 31.4998 122.5 78.8998 119.2 80.7998C116.4 82.3998 109.6 85.0998 108 85.0998C106.3 85.0998 99.4996 82.3998 96.7996 80.7998C93.4996 78.7998 18.4996 31.4998 10.0996 24.3998C1.59961 17.2998 1.59961 3.7998 1.59961 3.7998H214.4Z" fill="#F4F4F4"/>
<path opacity="0.1967" d="M214.3 3.7002C214.3 3.7002 214.3 17.1002 205.8 24.2002C197.3 31.3002 122.4 78.6002 119.1 80.6002C116.3 82.2002 109.5 84.9002 107.9 84.9002C106.2 84.9002 99.3997 82.2002 96.6998 80.6002C93.3997 78.6002 18.3998 31.3002 9.99976 24.2002C1.49976 17.1002 1.49976 3.7002 1.49976 3.7002H214.3Z" fill="#F3F3F3"/>
<path opacity="0.2131" d="M214.3 3.59961C214.3 3.59961 214.3 16.8996 205.8 23.9996C197.3 31.0996 122.4 78.3996 119.1 80.3996C116.3 81.9996 109.5 84.6996 107.9 84.6996C106.2 84.6996 99.3997 81.9996 96.6998 80.3996C93.3997 78.3996 18.3998 31.0996 9.99976 23.9996C1.49976 16.8996 1.49976 3.59961 1.49976 3.59961H214.3Z" fill="#F2F2F3"/>
<path opacity="0.2295" d="M214.3 3.5C214.3 3.5 214.3 16.7 205.8 23.8C197.3 30.9 122.4 78.2 119.1 80.2C116.3 81.8 109.5 84.5 107.9 84.5C106.2 84.5 99.3997 81.8 96.6998 80.2C93.3997 78.2 18.3998 30.9 9.99976 23.8C1.49976 16.7 1.49976 3.5 1.49976 3.5H214.3Z" fill="#F1F1F2"/>
<path opacity="0.2459" d="M214.3 3.5C214.3 3.5 214.3 16.6 205.8 23.7C197.3 30.7 122.4 78.1 119.1 80.1C116.3 81.7 109.5 84.4 107.9 84.4C106.2 84.4 99.3997 81.8 96.6998 80.1C93.3997 78.1 18.3998 30.8 9.99976 23.7C1.49976 16.7 1.49976 3.5 1.49976 3.5H214.3Z" fill="#F0F0F1"/>
<path opacity="0.2623" d="M214.3 3.40039C214.3 3.40039 214.3 16.4004 205.8 23.5004C197.3 30.5004 122.4 77.9004 119.1 79.8004C116.3 81.4004 109.5 84.1004 107.9 84.1004C106.2 84.1004 99.3997 81.5004 96.6998 79.8004C93.3997 77.8004 18.3998 30.5004 9.99976 23.5004C1.49976 16.5004 1.49976 3.40039 1.49976 3.40039H214.3Z" fill="#EFF0F0"/>
<path opacity="0.2787" d="M214.3 3.2998C214.3 3.2998 214.3 16.1998 205.8 23.1998C197.3 30.1998 122.4 77.5998 119.1 79.4998C116.3 81.0998 109.5 83.7998 107.9 83.7998C106.2 83.7998 99.3997 81.1998 96.6998 79.4998C93.3997 77.4998 18.3998 30.1998 9.99976 23.1998C1.49976 16.1998 1.49976 3.2998 1.49976 3.2998H214.3Z" fill="#EEEFEF"/>
<path opacity="0.2951" d="M214.2 3.2002C214.2 3.2002 214.2 16.0002 205.7 23.0002C197.2 30.0002 122.3 77.3002 119 79.3002C116.2 80.9002 109.4 83.6002 107.8 83.6002C106.1 83.6002 99.2999 81.0002 96.5999 79.3002C93.2999 77.4002 18.2999 30.0002 9.8999 23.0002C1.3999 16.0002 1.3999 3.2002 1.3999 3.2002H214.2Z" fill="#EDEEEE"/>
<path opacity="0.3115" d="M214.2 3.2002C214.2 3.2002 214.2 15.9002 205.7 22.9002C197.2 29.9002 122.3 77.2002 119 79.2002C116.2 80.8002 109.4 83.5002 107.8 83.5002C106.1 83.5002 99.2999 80.9002 96.5999 79.2002C93.2999 77.3002 18.2999 29.9002 9.8999 22.9002C1.3999 15.9002 1.3999 3.2002 1.3999 3.2002H214.2Z" fill="#ECEDED"/>
<path opacity="0.3279" d="M214.2 3.09961C214.2 3.09961 214.2 15.6996 205.7 22.6996C197.2 29.6996 122.3 76.9996 119 78.9996C116.2 80.5996 109.4 83.1996 107.8 83.1996C106.1 83.1996 99.2999 80.5996 96.5999 78.9996C93.2999 77.0996 18.2999 29.6996 9.8999 22.6996C1.3999 15.6996 1.3999 3.09961 1.3999 3.09961H214.2Z" fill="#EBECEC"/>
<path opacity="0.3443" d="M214.2 3C214.2 3 214.2 15.5 205.7 22.5C197.2 29.5 122.3 76.8 119 78.7C116.2 80.3 109.4 82.9 107.8 82.9C106.1 82.9 99.2999 80.3 96.5999 78.7C93.2999 76.8 18.2999 29.4 9.8999 22.5C1.3999 15.5 1.3999 3 1.3999 3H214.2Z" fill="#EAEBEB"/>
<path opacity="0.3607" d="M214.2 2.90039C214.2 2.90039 214.2 15.3004 205.7 22.3004C197.2 29.3004 122.3 76.6004 119 78.5004C116.2 80.1004 109.4 82.7004 107.8 82.7004C106.1 82.7004 99.2999 80.1004 96.5999 78.5004C93.2999 76.6004 18.2999 29.3004 9.8999 22.3004C1.3999 15.3004 1.3999 2.90039 1.3999 2.90039H214.2Z" fill="#E9EAEA"/>
<path opacity="0.377" d="M214.2 2.90039C214.2 2.90039 214.2 15.2004 205.7 22.2004C197.2 29.2004 122.3 76.5004 119 78.4004C116.2 80.0004 109.4 82.6004 107.8 82.6004C106.1 82.6004 99.2999 80.0004 96.5999 78.4004C93.2999 76.5004 18.2999 29.2004 9.8999 22.2004C1.3999 15.2004 1.3999 2.90039 1.3999 2.90039H214.2Z" fill="#E9E9E9"/>
<path opacity="0.3934" d="M214.2 2.7998C214.2 2.7998 214.2 14.9998 205.7 21.9998C197.2 28.9998 122.3 76.2998 119 78.1998C116.2 79.7998 109.4 82.3998 107.8 82.3998C106.1 82.3998 99.2999 79.7998 96.5999 78.1998C93.2999 76.2998 18.2999 28.9998 9.8999 21.9998C1.3999 14.9998 1.3999 2.7998 1.3999 2.7998H214.2Z" fill="#E8E8E8"/>
<path opacity="0.4098" d="M214.1 2.7002C214.1 2.7002 214.1 14.8002 205.6 21.8002C197.1 28.8002 122.2 76.0002 118.9 78.0002C116.1 79.6002 109.3 82.2002 107.7 82.2002C106 82.2002 99.1998 79.6002 96.4998 78.0002C93.1998 76.1002 18.1998 28.8002 9.7998 21.8002C1.2998 14.8002 1.2998 2.7002 1.2998 2.7002H214.1Z" fill="#E7E7E7"/>
<path opacity="0.4262" d="M214.1 2.59961C214.1 2.59961 214.1 14.5996 205.6 21.4996C197.1 28.3996 122.2 75.6996 118.9 77.5996C116.1 79.1996 109.3 81.7996 107.7 81.7996C106 81.7996 99.1998 79.1996 96.4998 77.5996C93.1998 75.6996 18.1998 28.3996 9.7998 21.4996C1.2998 14.5996 1.2998 2.59961 1.2998 2.59961H214.1Z" fill="#E6E6E6"/>
<path opacity="0.4426" d="M214.1 2.59961C214.1 2.59961 214.1 14.4996 205.6 21.3996C197.1 28.2996 122.2 75.5996 118.9 77.4996C116.1 79.0996 109.3 81.6996 107.7 81.6996C106 81.6996 99.1998 79.0996 96.4998 77.4996C93.1998 75.5996 18.2998 28.2996 9.7998 21.3996C1.2998 14.4996 1.2998 2.59961 1.2998 2.59961H214.1Z" fill="#E5E5E5"/>
<path opacity="0.459" d="M214.1 2.5C214.1 2.5 214.1 14.3 205.6 21.2C197.1 28.1 122.2 75.4 118.9 77.3C116.1 78.9 109.3 81.5 107.7 81.5C106 81.5 99.1998 78.9 96.4998 77.3C93.1998 75.4 18.1998 28.1 9.7998 21.2C1.2998 14.3 1.2998 2.5 1.2998 2.5H214.1Z" fill="#E4E4E4"/>
<path opacity="0.4754" d="M214.1 2.40039C214.1 2.40039 214.1 14.1004 205.6 21.0004C197.1 27.9004 122.2 75.2004 118.9 77.1004C116.1 78.7004 109.3 81.3004 107.7 81.3004C106 81.3004 99.1998 78.7004 96.4998 77.1004C93.1998 75.2004 18.1998 27.9004 9.7998 21.0004C1.2998 14.1004 1.2998 2.40039 1.2998 2.40039H214.1Z" fill="#E3E3E3"/>
<path opacity="0.4918" d="M214.1 2.2998C214.1 2.2998 214.1 13.8998 205.6 20.7998C197.1 27.6998 122.2 74.9998 118.9 76.8998C116.1 78.4998 109.3 81.0998 107.7 81.0998C106 81.0998 99.1998 78.4998 96.4998 76.8998C93.1998 74.9998 18.1998 27.6998 9.7998 20.7998C1.2998 13.8998 1.2998 2.2998 1.2998 2.2998H214.1Z" fill="#E2E2E2"/>
<path opacity="0.5082" d="M214.1 2.2998C214.1 2.2998 214.1 13.7998 205.6 20.6998C197.1 27.5998 122.2 74.7998 118.9 76.7998C116.1 78.3998 109.3 80.9998 107.7 80.9998C106 80.9998 99.1998 78.3998 96.4998 76.7998C93.1998 74.7998 18.1998 27.4998 9.7998 20.6998C1.2998 13.7998 1.2998 2.2998 1.2998 2.2998H214.1Z" fill="#E1E1E1"/>
<path opacity="0.5246" d="M214 2.2002C214 2.2002 214 13.6002 205.5 20.5002C197 27.4002 122.1 74.6002 118.8 76.5002C116 78.1002 109.2 80.7002 107.6 80.7002C105.9 80.7002 99.0997 78.1002 96.3997 76.5002C93.0997 74.6002 18.0997 27.4002 9.69971 20.5002C1.19971 13.6002 1.19971 2.2002 1.19971 2.2002H214Z" fill="#E0E0E0"/>
<path opacity="0.541" d="M214 2.09961C214 2.09961 214 13.3996 205.5 20.2996C197 27.1996 122.1 74.3996 118.8 76.2996C116 77.8996 109.2 80.4996 107.6 80.4996C105.9 80.4996 99.0997 77.8996 96.3997 76.2996C93.0997 74.3996 18.0997 27.1996 9.69971 20.2996C1.19971 13.3996 1.19971 2.09961 1.19971 2.09961H214Z" fill="#DFDFDF"/>
<path opacity="0.5574" d="M214 2C214 2 214 13.2 205.5 20.1C197 27 122.1 74.2 118.8 76.1C116 77.7 109.2 80.3 107.6 80.3C105.9 80.3 99.0997 77.7 96.3997 76.1C93.0997 74.2 18.0997 27 9.69971 20.1C1.19971 13.2 1.19971 2 1.19971 2H214Z" fill="#DEDEDE"/>
<path opacity="0.5738" d="M214 2C214 2 214 13.1 205.5 19.9C197 26.8 122.1 74 118.8 75.9C116 77.5 109.2 80.1 107.6 80.1C105.9 80.1 99.0997 77.5 96.3997 75.9C93.0997 74 18.0997 26.8 9.69971 19.9C1.19971 13 1.19971 2 1.19971 2H214Z" fill="#DDDDDD"/>
<path opacity="0.5902" d="M214 1.90039C214 1.90039 214 12.9004 205.5 19.7004C197 26.5004 122.1 73.8004 118.8 75.7004C116 77.3004 109.2 79.9004 107.6 79.9004C105.9 79.9004 99.0997 77.3004 96.3997 75.7004C93.0997 73.8004 18.0997 26.6004 9.69971 19.7004C1.19971 12.9004 1.19971 1.90039 1.19971 1.90039H214Z" fill="#DCDCDC"/>
<path opacity="0.6066" d="M214 1.7998C214 1.7998 214 12.6998 205.5 19.4998C197 26.2998 122.1 73.4998 118.8 75.3998C116 76.9998 109.2 79.5998 107.6 79.5998C105.9 79.5998 99.0997 76.9998 96.3997 75.3998C93.0997 73.4998 18.0997 26.2998 9.69971 19.4998C1.19971 12.6998 1.19971 1.7998 1.19971 1.7998H214Z" fill="#DBDBDB"/>
<path opacity="0.623" d="M213.9 1.7002C213.9 1.7002 213.9 12.5002 205.4 19.3002C196.9 26.1002 122 73.3002 118.7 75.2002C115.9 76.8002 109.1 79.3002 107.5 79.3002C105.8 79.3002 98.9997 76.7002 96.2997 75.2002C92.9997 73.3002 17.9997 26.1002 9.59971 19.3002C1.19971 12.5002 1.19971 1.7002 1.19971 1.7002H213.9Z" fill="#DADADA"/>
<path opacity="0.6393" d="M213.9 1.7002C213.9 1.7002 213.9 12.4002 205.4 19.2002C196.9 26.0002 122 73.2002 118.7 75.1002C115.9 76.7002 109.1 79.2002 107.5 79.2002C105.8 79.2002 98.9997 76.6002 96.2997 75.1002C92.9997 73.2002 17.9997 26.0002 9.59971 19.2002C1.19971 12.3002 1.19971 1.7002 1.19971 1.7002H213.9Z" fill="#D9D9DA"/>
<path opacity="0.6557" d="M213.9 1.59961C213.9 1.59961 213.9 12.1996 205.4 18.9996C196.9 25.7996 122 72.9996 118.7 74.8996C115.9 76.4996 109.1 78.9996 107.5 78.9996C105.8 78.9996 98.9997 76.3996 96.2997 74.8996C92.9997 72.9996 17.9997 25.7996 9.59971 18.9996C1.19971 12.1996 1.19971 1.59961 1.19971 1.59961H213.9Z" fill="#D8D8D9"/>
<path opacity="0.6721" d="M213.9 1.5C213.9 1.5 213.9 12 205.4 18.8C196.9 25.6 122 72.8 118.7 74.7C115.9 76.3 109.1 78.8 107.5 78.8C105.8 78.8 98.9997 76.2 96.2997 74.7C92.9997 72.8 17.9997 25.6 9.59971 18.8C1.19971 12 1.19971 1.5 1.19971 1.5H213.9Z" fill="#D7D7D8"/>
<path opacity="0.6885" d="M213.9 1.40039C213.9 1.40039 213.9 11.8004 205.4 18.6004C196.9 25.4004 122 72.6004 118.7 74.4004C115.9 76.0004 109.1 78.5004 107.5 78.5004C105.8 78.5004 98.9996 75.9004 96.2996 74.4004C92.9996 72.5004 17.9996 25.3004 9.59961 18.6004C1.09961 11.8004 1.09961 1.40039 1.09961 1.40039H213.9Z" fill="#D6D6D7"/>
<path opacity="0.7049" d="M213.9 1.40039C213.9 1.40039 213.9 11.7004 205.4 18.5004C196.9 25.3004 122 72.4004 118.7 74.3004C115.9 75.9004 109.1 78.4004 107.5 78.4004C105.8 78.4004 98.9996 75.9004 96.2996 74.3004C92.9996 72.4004 17.9996 25.3004 9.59961 18.5004C1.09961 11.7004 1.09961 1.40039 1.09961 1.40039H213.9Z" fill="#D5D5D6"/>
<path opacity="0.7213" d="M213.9 1.2998C213.9 1.2998 213.9 11.4998 205.4 18.2998C196.9 25.0998 122 72.1998 118.7 74.0998C115.9 75.6998 109.1 78.1998 107.5 78.1998C105.8 78.1998 98.9996 75.6998 96.2996 74.0998C92.9996 72.1998 17.9996 25.0998 9.59961 18.2998C1.09961 11.4998 1.09961 1.2998 1.09961 1.2998H213.9Z" fill="#D4D4D5"/>
<path opacity="0.7377" d="M213.8 1.2002C213.8 1.2002 213.8 11.3002 205.3 18.0002C196.8 24.8002 121.9 71.9002 118.6 73.8002C115.8 75.4002 109 77.9002 107.4 77.9002C105.7 77.9002 98.8997 75.4002 96.1998 73.8002C92.8997 71.9002 17.8998 24.8002 9.49976 18.0002C0.999756 11.2002 0.999756 1.2002 0.999756 1.2002H213.8Z" fill="#D3D3D4"/>
<path opacity="0.7541" d="M213.8 1.09961C213.8 1.09961 213.8 11.0996 205.3 17.7996C196.8 24.5996 121.9 71.6996 118.6 73.5996C115.8 75.1996 109 77.6996 107.4 77.6996C105.7 77.6996 98.8997 75.1996 96.1998 73.5996C92.8997 71.6996 17.8998 24.5996 9.49976 17.7996C0.999756 10.9996 0.999756 1.09961 0.999756 1.09961H213.8Z" fill="#D2D2D3"/>
<path opacity="0.7705" d="M213.8 1.09961C213.8 1.09961 213.8 10.9996 205.3 17.6996C196.8 24.3996 121.9 71.5996 118.6 73.3996C115.8 74.9996 109 77.4996 107.4 77.4996C105.7 77.4996 98.8997 74.9996 96.1998 73.3996C92.8997 71.4996 17.8998 24.3996 9.49976 17.6996C0.999756 10.9996 0.999756 1.09961 0.999756 1.09961H213.8Z" fill="#D1D2D2"/>
<path opacity="0.7869" d="M213.8 1C213.8 1 213.8 10.8 205.3 17.5C196.8 24.2 121.9 71.4 118.6 73.2C115.8 74.8 109 77.3 107.4 77.3C105.7 77.3 98.8997 74.8 96.1998 73.2C92.8997 71.3 17.8998 24.2 9.49976 17.5C0.999756 10.8 0.999756 1 0.999756 1H213.8Z" fill="#D0D1D1"/>
<path opacity="0.8033" d="M213.8 0.900391C213.8 0.900391 213.8 10.6004 205.3 17.3004C196.8 24.0004 121.9 71.1004 118.6 73.0004C115.8 74.6004 109 77.1004 107.4 77.1004C105.7 77.1004 98.8997 74.6004 96.1998 73.0004C92.8997 71.1004 17.8998 24.0004 9.49976 17.3004C0.999756 10.6004 0.999756 0.900391 0.999756 0.900391H213.8Z" fill="#CFD0D0"/>
<path opacity="0.8197" d="M213.8 0.799805C213.8 0.799805 213.8 10.3998 205.3 17.0998C196.8 23.7998 121.9 70.8998 118.6 72.7998C115.8 74.3998 109 76.8998 107.4 76.8998C105.7 76.8998 98.8997 74.3998 96.1998 72.7998C92.8997 70.8998 17.8998 23.7998 9.49976 17.0998C0.999756 10.3998 0.999756 0.799805 0.999756 0.799805H213.8Z" fill="#CECFCF"/>
<path opacity="0.8361" d="M213.8 0.799805C213.8 0.799805 213.8 10.2998 205.3 16.9998C196.8 23.6998 121.9 70.7998 118.6 72.6998C115.8 74.2998 109 76.7998 107.4 76.7998C105.7 76.7998 98.8997 74.2998 96.1998 72.6998C92.8997 70.7998 17.8998 23.6998 9.49976 16.9998C0.999756 10.2998 0.999756 0.799805 0.999756 0.799805H213.8Z" fill="#CDCECE"/>
<path opacity="0.8525" d="M213.7 0.700195C213.7 0.700195 213.7 10.1002 205.2 16.8002C196.7 23.5002 121.8 70.6002 118.5 72.5002C115.7 74.0002 108.9 76.6002 107.3 76.6002C105.6 76.6002 98.7999 74.1002 96.0999 72.5002C92.7999 70.6002 17.7999 23.5002 9.3999 16.8002C0.899902 10.1002 0.899902 0.700195 0.899902 0.700195H213.7Z" fill="#CCCDCD"/>
<path opacity="0.8689" d="M213.7 0.599609C213.7 0.599609 213.7 9.89961 205.2 16.5996C196.7 23.2996 121.8 70.3996 118.5 72.1996C115.7 73.6996 108.9 76.2996 107.3 76.2996C105.6 76.2996 98.7999 73.7996 96.0999 72.1996C92.7999 70.2996 17.8999 23.2996 9.3999 16.5996C0.899902 9.89961 0.899902 0.599609 0.899902 0.599609H213.7Z" fill="#CBCCCC"/>
<path opacity="0.8852" d="M213.7 0.5C213.7 0.5 213.7 9.7 205.2 16.3C196.7 23 121.8 70.1 118.5 71.9C115.7 73.4 108.9 76 107.3 76C105.6 76 98.7999 73.5 96.0999 71.9C92.7999 70 17.7999 23 9.3999 16.3C0.899902 9.6 0.899902 0.5 0.899902 0.5H213.7Z" fill="#CACBCB"/>
<path opacity="0.9016" d="M213.7 0.5C213.7 0.5 213.7 9.6 205.2 16.2C196.7 22.9 121.8 69.9 118.5 71.8C115.7 73.3 108.9 75.8 107.3 75.8C105.6 75.8 98.7999 73.3 96.0999 71.8C92.7999 69.9 17.7999 22.9 9.3999 16.2C0.899902 9.5 0.899902 0.5 0.899902 0.5H213.7Z" fill="#C9CACA"/>
<path opacity="0.918" d="M213.7 0.400391C213.7 0.400391 213.7 9.40039 205.2 16.0004C196.7 22.7004 121.8 69.7004 118.5 71.6004C115.7 73.1004 108.9 75.6004 107.3 75.6004C105.6 75.6004 98.7999 73.1004 96.0999 71.6004C92.7999 69.8004 17.7999 22.7004 9.3999 16.0004C0.899902 9.30039 0.899902 0.400391 0.899902 0.400391H213.7Z" fill="#C8C9C9"/>
<path opacity="0.9344" d="M213.7 0.299805C213.7 0.299805 213.7 9.1998 205.2 15.7998C196.7 22.4998 121.8 69.4998 118.5 71.3998C115.7 72.8998 108.9 75.3998 107.3 75.3998C105.6 75.3998 98.7999 72.8998 96.0999 71.3998C92.7999 69.5998 17.7999 22.4998 9.3999 15.7998C0.899902 9.1998 0.899902 0.299805 0.899902 0.299805H213.7Z" fill="#C7C8C8"/>
<path opacity="0.9508" d="M213.6 0.200195C213.6 0.200195 213.6 9.00019 205.1 15.6002C196.6 22.2002 121.7 69.3002 118.4 71.1002C115.6 72.6002 108.8 75.1002 107.2 75.1002C105.5 75.1002 98.6999 72.6002 95.9999 71.1002C92.7999 69.3002 17.7999 22.3002 9.3999 15.6002C0.899902 9.00019 0.899902 0.200195 0.899902 0.200195H213.6Z" fill="#C6C7C7"/>
<path opacity="0.9672" d="M213.6 0.200195C213.6 0.200195 213.6 8.90019 205.1 15.5002C196.6 22.1002 121.7 69.2002 118.4 71.0002C115.6 72.5002 108.8 75.0002 107.2 75.0002C105.5 75.0002 98.6998 72.5002 95.9998 71.0002C92.6998 69.2002 17.6998 22.1002 9.2998 15.5002C0.799805 8.90019 0.799805 0.200195 0.799805 0.200195H213.6Z" fill="#C5C6C6"/>
<path opacity="0.9836" d="M213.6 0.0996094C213.6 0.0996094 213.6 8.69961 205.1 15.2996C196.6 21.8996 121.7 68.9996 118.4 70.7996C115.6 72.2996 108.8 74.7996 107.2 74.7996C105.5 74.7996 98.6998 72.2996 95.9998 70.7996C92.6998 68.9996 17.6998 21.8996 9.2998 15.2996C0.799805 8.69961 0.799805 0.0996094 0.799805 0.0996094H213.6Z" fill="#C4C5C5"/>
<path d="M213.6 0C213.6 0 213.6 8.5 205.1 15.1C196.6 21.7 121.7 68.7 118.4 70.6C115.6 72.1 108.8 74.6 107.2 74.6C105.5 74.6 98.6998 72.1 95.9998 70.6C92.6998 68.8 17.6998 21.7 9.2998 15.1C0.799805 8.5 0.799805 0 0.799805 0H213.6Z" fill="#B0B0B0"/>
<path d="M213.6 0C213.6 0 213.6 8.5 205.1 15.1C196.6 21.7 121.7 68.7 118.4 70.6C115.6 72.1 110.8 74.6 107.2 74.6C103.6 74.6 98.6998 72.1 95.9998 70.6C92.6998 68.8 17.6998 21.7 9.2998 15.1C0.799805 8.5 0.799805 0 0.799805 0H213.6Z" fill="url(#paint2_linear)"/>
<circle cx="105.9" cy="71.5" r="49.5" fill="#FFD34F"/>
<path d="M87.6265 100L107.236 55.7422H82.5093V42.9688H123.72V52.0703L103.603 100H87.6265Z" fill="url(#paint3_linear)"/>
<defs>
<linearGradient id="paint0_linear" x1="107.233" y1="0.0203" x2="107.233" y2="135.813" gradientUnits="userSpaceOnUse">
<stop stop-color="#D5D5D0"/>
<stop offset="0.1161" stop-color="#E0E0DA"/>
<stop offset="0.3441" stop-color="#EFEFE7"/>
<stop offset="0.6097" stop-color="#F8F8EF"/>
<stop offset="1" stop-color="#FBFBF1"/>
</linearGradient>
<linearGradient id="paint1_linear" x1="107.688" y1="-58.6198" x2="107.688" y2="135.813" gradientUnits="userSpaceOnUse">
<stop stop-color="#D5D5D0"/>
<stop offset="0.1161" stop-color="#E0E0DA"/>
<stop offset="0.3441" stop-color="#EFEFE7"/>
<stop offset="0.6097" stop-color="#F8F8EF"/>
<stop offset="1" stop-color="#FBFBF1"/>
</linearGradient>
<linearGradient id="paint2_linear" x1="107.233" y1="194.454" x2="107.233" y2="0.0209994" gradientUnits="userSpaceOnUse">
<stop stop-color="#D5D5D0"/>
<stop offset="0.1161" stop-color="#E0E0DA"/>
<stop offset="0.3441" stop-color="#EFEFE7"/>
<stop offset="0.6097" stop-color="#F8F8EF"/>
<stop offset="1" stop-color="#FBFBF1"/>
</linearGradient>
<linearGradient id="paint3_linear" x1="99.8305" y1="-1.41571" x2="102.863" y2="138.356" gradientUnits="userSpaceOnUse">
<stop stop-color="#D91B24"/>
<stop offset="1" stop-color="#393C5A"/>
</linearGradient>
</defs>
</svg>
