<svg width="215" height="136" viewBox="0 0 215 136" fill="none" xmlns="http://www.w3.org/2000/svg">
<path d="M214.1 0H1.40039V135.8H214.1V0Z" fill="url(#paint0_linear)"/>
<path opacity="0.0163934" d="M0.900391 131.3C0.900391 131.3 0.900391 122.8 9.40039 116.2C17.9004 109.6 92.8004 62.6002 96.1004 60.7002C98.9004 59.2002 105.7 56.7002 107.3 56.7002C109 56.7002 115.8 59.2002 118.5 60.7002C121.8 62.5002 196.8 109.6 205.2 116.2C213.7 122.8 213.7 131.3 213.7 131.3H0.900391Z" fill="#FEFEFE"/>
<path opacity="0.0327869" d="M0.900391 131.4C0.900391 131.4 0.900391 122.9 9.40039 116.3C17.9004 109.7 92.8004 62.6998 96.1004 60.7998C98.9004 59.2998 105.7 56.7998 107.3 56.7998C109 56.7998 115.8 59.2998 118.5 60.7998C121.8 62.5998 196.8 109.7 205.2 116.3C213.7 122.9 213.7 131.4 213.7 131.4H0.900391Z" fill="#FDFDFD"/>
<path opacity="0.0491803" d="M1.00049 131.5C1.00049 131.5 1.00049 123 9.50049 116.4C18.0005 109.8 92.9005 62.8004 96.2005 60.9004C99.0005 59.4004 105.8 56.9004 107.4 56.9004C109.1 56.9004 115.9 59.4004 118.6 60.9004C121.9 62.7004 196.9 109.8 205.3 116.4C213.8 123 213.8 131.5 213.8 131.5H1.00049Z" fill="#FCFCFC"/>
<path opacity="0.0655738" d="M1.00049 131.6C1.00049 131.6 1.00049 123.1 9.50049 116.5C18.0005 109.9 92.9005 62.9 96.2005 61C99.0005 59.5 105.8 57 107.4 57C109.1 57 115.9 59.5 118.6 61C121.9 62.8 196.9 109.9 205.3 116.5C213.8 123.1 213.8 131.6 213.8 131.6H1.00049Z" fill="#FBFBFB"/>
<path opacity="0.0819672" d="M1.00049 131.6C1.00049 131.6 1.00049 123.1 9.50049 116.5C18.0005 109.9 92.9005 62.9 96.2005 61C99.0005 59.5 105.8 57 107.4 57C109.1 57 115.9 59.5 118.6 61C121.9 62.8 196.9 109.9 205.3 116.5C213.8 123.1 213.8 131.6 213.8 131.6H1.00049Z" fill="#FAFAFA"/>
<path opacity="0.0983607" d="M1.00049 131.7C1.00049 131.7 1.00049 123.2 9.50049 116.6C18.0005 110 92.9005 62.9996 96.2005 61.0996C99.0005 59.5996 105.8 57.0996 107.4 57.0996C109.1 57.0996 115.9 59.5996 118.6 61.0996C121.9 62.8996 196.9 110 205.3 116.6C213.8 123.2 213.8 131.7 213.8 131.7H1.00049Z" fill="#F9F9F9"/>
<path opacity="0.1148" d="M1.00049 131.8C1.00049 131.8 1.00049 123.3 9.50049 116.7C18.0005 110.1 92.9005 63.1002 96.2005 61.2002C99.0005 59.7002 105.8 57.2002 107.4 57.2002C109.1 57.2002 115.9 59.7002 118.6 61.2002C121.9 63.0002 196.9 110.1 205.3 116.7C213.8 123.3 213.8 131.8 213.8 131.8H1.00049Z" fill="#F8F8F8"/>
<path opacity="0.1311" d="M1.00049 131.9C1.00049 131.9 1.00049 123.4 9.50049 116.8C18.0005 110.2 92.9005 63.1998 96.2005 61.2998C99.0005 59.7998 105.8 57.2998 107.4 57.2998C109.1 57.2998 115.9 59.7998 118.6 61.2998C121.9 63.0998 196.9 110.2 205.3 116.8C213.8 123.4 213.8 131.9 213.8 131.9H1.00049Z" fill="#F7F7F7"/>
<path opacity="0.1475" d="M1.00049 131.9C1.00049 131.9 1.00049 123.4 9.50049 116.8C18.0005 110.2 92.9005 63.1998 96.2005 61.2998C99.0005 59.7998 105.8 57.2998 107.4 57.2998C109.1 57.2998 115.9 59.7998 118.6 61.2998C121.9 63.0998 196.9 110.2 205.3 116.8C213.8 123.4 213.8 131.9 213.8 131.9H1.00049Z" fill="#F6F6F6"/>
<path opacity="0.1639" d="M1.10034 132C1.10034 132 1.10034 123.5 9.60034 116.9C18.1003 110.3 93.0003 63.3004 96.3003 61.4004C99.1003 59.9004 105.9 57.4004 107.5 57.4004C109.2 57.4004 116 59.9004 118.7 61.4004C122 63.2004 197 110.3 205.4 116.9C213.9 123.5 213.9 132 213.9 132H1.10034Z" fill="#F5F5F5"/>
<path opacity="0.1803" d="M1.10034 132.1C1.10034 132.1 1.10034 123.6 9.60034 117C18.1003 110.4 93.0003 63.4 96.3003 61.5C99.1003 60 105.9 57.5 107.5 57.5C109.2 57.5 116 60 118.7 61.5C122 63.3 197 110.4 205.4 117C213.9 123.6 213.9 132.1 213.9 132.1H1.10034Z" fill="#F4F4F4"/>
<path opacity="0.1967" d="M1.10034 132.2C1.10034 132.2 1.10034 123.7 9.60034 117.1C18.1003 110.5 93.0003 63.4996 96.3003 61.5996C99.1003 60.0996 105.9 57.5996 107.5 57.5996C109.2 57.5996 116 60.0996 118.7 61.5996C122 63.3996 197 110.5 205.4 117.1C213.9 123.7 213.9 132.2 213.9 132.2H1.10034Z" fill="#F3F3F3"/>
<path opacity="0.2131" d="M1.10034 132.2C1.10034 132.2 1.10034 123.7 9.60034 117.1C18.1003 110.5 93.0003 63.4996 96.3003 61.5996C99.1003 60.0996 105.9 57.5996 107.5 57.5996C109.2 57.5996 116 60.0996 118.7 61.5996C122 63.3996 197 110.5 205.4 117.1C213.9 123.7 213.9 132.2 213.9 132.2H1.10034Z" fill="#F2F2F3"/>
<path opacity="0.2295" d="M1.10034 132.3C1.10034 132.3 1.10034 123.8 9.60034 117.2C18.1003 110.6 93.0003 63.6002 96.3003 61.7002C99.1003 60.2002 105.9 57.7002 107.5 57.7002C109.2 57.7002 116 60.2002 118.7 61.7002C122 63.5002 197 110.6 205.4 117.2C213.9 123.8 213.9 132.3 213.9 132.3H1.10034Z" fill="#F1F1F2"/>
<path opacity="0.2459" d="M1.10034 132.4C1.10034 132.4 1.10034 123.9 9.60034 117.3C18.1003 110.7 93.0003 63.6998 96.3003 61.7998C99.1003 60.2998 105.9 57.7998 107.5 57.7998C109.2 57.7998 116 60.2998 118.7 61.7998C122 63.5998 197 110.7 205.4 117.3C213.9 123.9 213.9 132.4 213.9 132.4H1.10034Z" fill="#F0F0F1"/>
<path opacity="0.2623" d="M1.10034 132.5C1.10034 132.5 1.10034 124 9.60034 117.4C18.1003 110.8 93.0003 63.8004 96.3003 61.9004C99.1003 60.4004 105.9 57.9004 107.5 57.9004C109.2 57.9004 116 60.4004 118.7 61.9004C122 63.7004 197 110.8 205.4 117.4C213.9 124 213.9 132.5 213.9 132.5H1.10034Z" fill="#EFF0F0"/>
<path opacity="0.2787" d="M1.20044 132.5C1.20044 132.5 1.20044 124 9.70044 117.4C18.2004 110.8 93.1004 63.8004 96.4004 61.9004C99.2004 60.4004 106 57.9004 107.6 57.9004C109.3 57.9004 116.1 60.4004 118.8 61.9004C122.1 63.7004 197.1 110.8 205.5 117.4C214 124 214 132.5 214 132.5H1.20044Z" fill="#EEEFEF"/>
<path opacity="0.2951" d="M1.20044 132.6C1.20044 132.6 1.20044 124.1 9.70044 117.5C18.2004 110.9 93.1004 63.9 96.4004 62C99.2004 60.5 106 58 107.6 58C109.3 58 116.1 60.5 118.8 62C122.1 63.8 197.1 110.9 205.5 117.5C214 124.1 214 132.6 214 132.6H1.20044Z" fill="#EDEEEE"/>
<path opacity="0.3115" d="M1.20044 132.7C1.20044 132.7 1.20044 124.2 9.70044 117.6C18.2004 111 93.1004 63.9996 96.4004 62.0996C99.2004 60.5996 106 58.0996 107.6 58.0996C109.3 58.0996 116.1 60.5996 118.8 62.0996C122.1 63.8996 197.1 111 205.5 117.6C214 124.2 214 132.7 214 132.7H1.20044Z" fill="#ECEDED"/>
<path opacity="0.3279" d="M1.20044 132.8C1.20044 132.8 1.20044 124.3 9.70044 117.7C18.2004 111.1 93.1004 64.1002 96.4004 62.2002C99.2004 60.7002 106 58.2002 107.6 58.2002C109.3 58.2002 116.1 60.7002 118.8 62.2002C122.1 64.0002 197.1 111.1 205.5 117.7C214 124.3 214 132.8 214 132.8H1.20044Z" fill="#EBECEC"/>
<path opacity="0.3443" d="M1.20044 132.8C1.20044 132.8 1.20044 124.3 9.70044 117.7C18.2004 111.1 93.1004 64.1002 96.4004 62.2002C99.2004 60.7002 106 58.2002 107.6 58.2002C109.3 58.2002 116.1 60.7002 118.8 62.2002C122.1 64.0002 197.1 111.1 205.5 117.7C214 124.3 214 132.8 214 132.8H1.20044Z" fill="#EAEBEB"/>
<path opacity="0.3607" d="M1.20044 132.9C1.20044 132.9 1.20044 124.4 9.70044 117.8C18.2004 111.2 93.1004 64.1998 96.4004 62.2998C99.2004 60.7998 106 58.2998 107.6 58.2998C109.3 58.2998 116.1 60.7998 118.8 62.2998C122.1 64.0998 197.1 111.2 205.5 117.8C214 124.4 214 132.9 214 132.9H1.20044Z" fill="#E9EAEA"/>
<path opacity="0.377" d="M1.30029 133C1.30029 133 1.30029 124.5 9.80029 117.9C18.3003 111.3 93.2003 64.3004 96.5003 62.4004C99.3003 60.9004 106.1 58.4004 107.7 58.4004C109.4 58.4004 116.2 60.9004 118.9 62.4004C122.2 64.2004 197.2 111.3 205.6 117.9C214.1 124.5 214.1 133 214.1 133H1.30029Z" fill="#E9E9E9"/>
<path opacity="0.3934" d="M1.30029 133.1C1.30029 133.1 1.30029 124.6 9.80029 118C18.3003 111.4 93.2003 64.4 96.5003 62.5C99.3003 61 106.1 58.5 107.7 58.5C109.4 58.5 116.2 61 118.9 62.5C122.2 64.3 197.2 111.4 205.6 118C214.1 124.6 214.1 133.1 214.1 133.1H1.30029Z" fill="#E8E8E8"/>
<path opacity="0.4098" d="M1.30029 133.1C1.30029 133.1 1.30029 124.6 9.80029 118C18.3003 111.4 93.2003 64.4 96.5003 62.5C99.3003 61 106.1 58.5 107.7 58.5C109.4 58.5 116.2 61 118.9 62.5C122.2 64.3 197.2 111.4 205.6 118C214.1 124.6 214.1 133.1 214.1 133.1H1.30029Z" fill="#E7E7E7"/>
<path opacity="0.4262" d="M1.30029 133.2C1.30029 133.2 1.30029 124.7 9.80029 118.1C18.3003 111.5 93.2003 64.4996 96.5003 62.5996C99.3003 61.0996 106.1 58.5996 107.7 58.5996C109.4 58.5996 116.2 61.0996 118.9 62.5996C122.2 64.3996 197.2 111.5 205.6 118.1C214.1 124.7 214.1 133.2 214.1 133.2H1.30029Z" fill="#E6E6E6"/>
<path opacity="0.4426" d="M1.30029 133.3C1.30029 133.3 1.30029 124.8 9.80029 118.2C18.3003 111.6 93.2003 64.6002 96.5003 62.7002C99.3003 61.2002 106.1 58.7002 107.7 58.7002C109.4 58.7002 116.2 61.2002 118.9 62.7002C122.2 64.5002 197.2 111.6 205.6 118.2C214.1 124.8 214.1 133.3 214.1 133.3H1.30029Z" fill="#E5E5E5"/>
<path opacity="0.459" d="M1.30029 133.4C1.30029 133.4 1.30029 124.9 9.80029 118.3C18.3003 111.7 93.2003 64.6998 96.5003 62.7998C99.3003 61.2998 106.1 58.7998 107.7 58.7998C109.4 58.7998 116.2 61.2998 118.9 62.7998C122.2 64.5998 197.2 111.7 205.6 118.3C214.1 124.9 214.1 133.4 214.1 133.4H1.30029Z" fill="#E4E4E4"/>
<path opacity="0.4754" d="M1.30029 133.4C1.30029 133.4 1.30029 124.9 9.80029 118.3C18.3003 111.7 93.2003 64.6998 96.5003 62.7998C99.3003 61.2998 106.1 58.7998 107.7 58.7998C109.4 58.7998 116.2 61.2998 118.9 62.7998C122.2 64.5998 197.2 111.7 205.6 118.3C214.1 124.9 214.1 133.4 214.1 133.4H1.30029Z" fill="#E3E3E3"/>
<path opacity="0.4918" d="M1.40039 133.5C1.40039 133.5 1.40039 125 9.90039 118.4C18.4004 111.8 93.3004 64.8004 96.6004 62.9004C99.4004 61.4004 106.2 58.9004 107.8 58.9004C109.5 58.9004 116.3 61.4004 119 62.9004C122.3 64.7004 197.3 111.8 205.7 118.4C214.2 125 214.2 133.5 214.2 133.5H1.40039Z" fill="#E2E2E2"/>
<path opacity="0.5082" d="M1.40039 133.6C1.40039 133.6 1.40039 125.1 9.90039 118.5C18.4004 111.9 93.3004 64.9 96.6004 63C99.4004 61.5 106.2 59 107.8 59C109.5 59 116.3 61.5 119 63C122.3 64.8 197.3 111.9 205.7 118.5C214.2 125.1 214.2 133.6 214.2 133.6H1.40039Z" fill="#E1E1E1"/>
<path opacity="0.5246" d="M1.40039 133.6C1.40039 133.6 1.40039 125.1 9.90039 118.5C18.4004 111.9 93.3004 64.9 96.6004 63C99.4004 61.5 106.2 59 107.8 59C109.5 59 116.3 61.5 119 63C122.3 64.8 197.3 111.9 205.7 118.5C214.2 125.1 214.2 133.6 214.2 133.6H1.40039Z" fill="#E0E0E0"/>
<path opacity="0.541" d="M1.40039 133.7C1.40039 133.7 1.40039 125.2 9.90039 118.6C18.4004 112 93.3004 64.9996 96.6004 63.0996C99.4004 61.5996 106.2 59.0996 107.8 59.0996C109.5 59.0996 116.3 61.5996 119 63.0996C122.3 64.8996 197.3 112 205.7 118.6C214.2 125.2 214.2 133.7 214.2 133.7H1.40039Z" fill="#DFDFDF"/>
<path opacity="0.5574" d="M1.40039 133.8C1.40039 133.8 1.40039 125.3 9.90039 118.7C18.4004 112.1 93.3004 65.1002 96.6004 63.2002C99.4004 61.7002 106.2 59.2002 107.8 59.2002C109.5 59.2002 116.3 61.7002 119 63.2002C122.3 65.0002 197.3 112.1 205.7 118.7C214.2 125.3 214.2 133.8 214.2 133.8H1.40039Z" fill="#DEDEDE"/>
<path opacity="0.5738" d="M1.40039 133.9C1.40039 133.9 1.40039 125.4 9.90039 118.8C18.4004 112.2 93.3004 65.1998 96.6004 63.2998C99.4004 61.7998 106.2 59.2998 107.8 59.2998C109.5 59.2998 116.3 61.7998 119 63.2998C122.3 65.0998 197.3 112.2 205.7 118.8C214.2 125.4 214.2 133.9 214.2 133.9H1.40039Z" fill="#DDDDDD"/>
<path opacity="0.5902" d="M1.40039 133.9C1.40039 133.9 1.40039 125.4 9.90039 118.8C18.4004 112.2 93.3004 65.1998 96.6004 63.2998C99.4004 61.7998 106.2 59.2998 107.8 59.2998C109.5 59.2998 116.3 61.7998 119 63.2998C122.3 65.0998 197.3 112.2 205.7 118.8C214.2 125.4 214.2 133.9 214.2 133.9H1.40039Z" fill="#DCDCDC"/>
<path opacity="0.6066" d="M1.50049 134C1.50049 134 1.50049 125.5 10.0005 118.9C18.5005 112.3 93.4005 65.3004 96.7005 63.4004C99.5005 61.9004 106.3 59.4004 107.9 59.4004C109.6 59.4004 116.4 61.9004 119.1 63.4004C122.4 65.2004 197.4 112.3 205.8 118.9C214.2 125.5 214.2 134 214.2 134H1.50049Z" fill="#DBDBDB"/>
<path opacity="0.623" d="M1.50049 134.1C1.50049 134.1 1.50049 125.6 10.0005 119C18.5005 112.4 93.4005 65.4 96.7005 63.5C99.5005 62 106.3 59.5 107.9 59.5C109.6 59.5 116.4 62 119.1 63.5C122.4 65.3 197.4 112.4 205.8 119C214.2 125.6 214.2 134.1 214.2 134.1H1.50049Z" fill="#DADADA"/>
<path opacity="0.6393" d="M1.50049 134.2C1.50049 134.2 1.50049 125.7 10.0005 119.1C18.5005 112.5 93.4005 65.4996 96.7005 63.5996C99.5005 62.0996 106.3 59.5996 107.9 59.5996C109.6 59.5996 116.4 62.0996 119.1 63.5996C122.4 65.3996 197.4 112.5 205.8 119.1C214.2 125.7 214.2 134.2 214.2 134.2H1.50049Z" fill="#D9D9DA"/>
<path opacity="0.6557" d="M1.50049 134.2C1.50049 134.2 1.50049 125.7 10.0005 119.1C18.5005 112.5 93.4005 65.4996 96.7005 63.5996C99.5005 62.0996 106.3 59.5996 107.9 59.5996C109.6 59.5996 116.4 62.0996 119.1 63.5996C122.4 65.3996 197.4 112.5 205.8 119.1C214.2 125.7 214.2 134.2 214.2 134.2H1.50049Z" fill="#D8D8D9"/>
<path opacity="0.6721" d="M1.50049 134.3C1.50049 134.3 1.50049 125.8 10.0005 119.2C18.5005 112.6 93.4005 65.6002 96.7005 63.7002C99.5005 62.2002 106.3 59.7002 107.9 59.7002C109.6 59.7002 116.4 62.2002 119.1 63.7002C122.4 65.5002 197.4 112.6 205.8 119.2C214.2 125.8 214.2 134.3 214.2 134.3H1.50049Z" fill="#D7D7D8"/>
<path opacity="0.6885" d="M1.50049 134.4C1.50049 134.4 1.50049 125.9 10.0005 119.3C18.5005 112.7 93.4005 65.6998 96.7005 63.7998C99.5005 62.2998 106.3 59.7998 107.9 59.7998C109.6 59.7998 116.4 62.2998 119.1 63.7998C122.4 65.5998 197.4 112.7 205.8 119.3C214.2 125.9 214.2 134.4 214.2 134.4H1.50049Z" fill="#D6D6D7"/>
<path opacity="0.7049" d="M1.50049 134.5C1.50049 134.5 1.50049 126 10.0005 119.4C18.5005 112.8 93.4005 65.8004 96.7005 63.9004C99.5005 62.4004 106.3 59.9004 107.9 59.9004C109.6 59.9004 116.4 62.4004 119.1 63.9004C122.4 65.7004 197.4 112.8 205.8 119.4C214.2 126 214.2 134.5 214.2 134.5H1.50049Z" fill="#D5D5D6"/>
<path opacity="0.7213" d="M1.60034 134.5C1.60034 134.5 1.60034 126 10.1003 119.4C18.6003 112.8 93.5003 65.8004 96.8003 63.9004C99.6003 62.4004 106.4 59.9004 108 59.9004C109.7 59.9004 116.5 62.4004 119.2 63.9004C122.5 65.7004 197.5 112.8 205.9 119.4C214.3 126 214.3 134.5 214.3 134.5H1.60034Z" fill="#D4D4D5"/>
<path opacity="0.7377" d="M1.60034 134.6C1.60034 134.6 1.60034 126.1 10.1003 119.5C18.6003 112.9 93.5003 65.9 96.8003 64C99.6003 62.5 106.4 60 108 60C109.7 60 116.5 62.5 119.2 64C122.5 65.8 197.5 112.9 205.9 119.5C214.3 126.1 214.3 134.6 214.3 134.6H1.60034Z" fill="#D3D3D4"/>
<path opacity="0.7541" d="M1.60034 134.7C1.60034 134.7 1.60034 126.2 10.1003 119.6C18.6003 113 93.5003 65.9996 96.8003 64.0996C99.6003 62.5996 106.4 60.0996 108 60.0996C109.7 60.0996 116.5 62.5996 119.2 64.0996C122.5 65.8996 197.5 113 205.9 119.6C214.3 126.2 214.3 134.7 214.3 134.7H1.60034Z" fill="#D2D2D3"/>
<path opacity="0.7705" d="M1.60034 134.8C1.60034 134.8 1.60034 126.3 10.1003 119.7C18.6003 113.1 93.5003 66.1002 96.8003 64.2002C99.6003 62.7002 106.4 60.2002 108 60.2002C109.7 60.2002 116.5 62.7002 119.2 64.2002C122.5 66.0002 197.5 113.1 205.9 119.7C214.3 126.3 214.3 134.8 214.3 134.8H1.60034Z" fill="#D1D2D2"/>
<path opacity="0.7869" d="M1.60034 134.8C1.60034 134.8 1.60034 126.3 10.1003 119.7C18.6003 113.1 93.5003 66.1002 96.8003 64.2002C99.6003 62.7002 106.4 60.2002 108 60.2002C109.7 60.2002 116.5 62.7002 119.2 64.2002C122.5 66.0002 197.5 113.1 205.9 119.7C214.3 126.3 214.3 134.8 214.3 134.8H1.60034Z" fill="#D0D1D1"/>
<path opacity="0.8033" d="M1.60034 134.9C1.60034 134.9 1.60034 126.4 10.1003 119.8C18.6003 113.2 93.5003 66.1998 96.8003 64.2998C99.6003 62.7998 106.4 60.2998 108 60.2998C109.7 60.2998 116.5 62.7998 119.2 64.2998C122.5 66.0998 197.5 113.2 205.9 119.8C214.3 126.4 214.3 134.9 214.3 134.9H1.60034Z" fill="#CFD0D0"/>
<path opacity="0.8197" d="M1.70044 135C1.70044 135 1.70044 126.5 10.2004 119.9C18.7004 113.3 93.6004 66.3004 96.9004 64.4004C99.7004 62.9004 106.5 60.4004 108.1 60.4004C109.8 60.4004 116.6 62.9004 119.3 64.4004C122.6 66.2004 197.6 113.3 206 119.9C214.4 126.5 214.4 135 214.4 135H1.70044Z" fill="#CECFCF"/>
<path opacity="0.8361" d="M1.70044 135.1C1.70044 135.1 1.70044 126.6 10.2004 120C18.7004 113.4 93.6004 66.4 96.9004 64.5C99.7004 63 106.5 60.5 108.1 60.5C109.8 60.5 116.6 63 119.3 64.5C122.6 66.3 197.6 113.4 206 120C214.4 126.6 214.4 135.1 214.4 135.1H1.70044Z" fill="#CDCECE"/>
<path opacity="0.8525" d="M1.70044 135.1C1.70044 135.1 1.70044 126.6 10.2004 120C18.7004 113.4 93.6004 66.4 96.9004 64.5C99.7004 63 106.5 60.5 108.1 60.5C109.8 60.5 116.6 63 119.3 64.5C122.6 66.3 197.6 113.4 206 120C214.4 126.6 214.4 135.1 214.4 135.1H1.70044Z" fill="#CCCDCD"/>
<path opacity="0.8689" d="M1.70044 135.2C1.70044 135.2 1.70044 126.7 10.2004 120.1C18.7004 113.5 93.6004 66.4996 96.9004 64.5996C99.7004 63.0996 106.5 60.5996 108.1 60.5996C109.8 60.5996 116.6 63.0996 119.3 64.5996C122.6 66.3996 197.6 113.5 206 120.1C214.4 126.7 214.4 135.2 214.4 135.2H1.70044Z" fill="#CBCCCC"/>
<path opacity="0.8852" d="M1.70044 135.3C1.70044 135.3 1.70044 126.8 10.2004 120.2C18.7004 113.6 93.6004 66.6002 96.9004 64.7002C99.7004 63.2002 106.5 60.7002 108.1 60.7002C109.8 60.7002 116.6 63.2002 119.3 64.7002C122.6 66.5002 197.6 113.6 206 120.2C214.4 126.8 214.4 135.3 214.4 135.3H1.70044Z" fill="#CACBCB"/>
<path opacity="0.9016" d="M1.70044 135.4C1.70044 135.4 1.70044 126.9 10.2004 120.3C18.7004 113.7 93.6004 66.6998 96.9004 64.7998C99.7004 63.2998 106.5 60.7998 108.1 60.7998C109.8 60.7998 116.6 63.2998 119.3 64.7998C122.6 66.5998 197.6 113.7 206 120.3C214.4 126.9 214.4 135.4 214.4 135.4H1.70044Z" fill="#C9CACA"/>
<path opacity="0.918" d="M1.70044 135.4C1.70044 135.4 1.70044 126.9 10.2004 120.3C18.7004 113.7 93.6004 66.6998 96.9004 64.7998C99.7004 63.2998 106.5 60.7998 108.1 60.7998C109.8 60.7998 116.6 63.2998 119.3 64.7998C122.6 66.5998 197.6 113.7 206 120.3C214.4 126.9 214.4 135.4 214.4 135.4H1.70044Z" fill="#C8C9C9"/>
<path opacity="0.9344" d="M1.80029 135.5C1.80029 135.5 1.80029 127 10.3003 120.4C18.8003 113.8 93.7003 66.8004 97.0003 64.9004C99.8003 63.4004 106.6 60.9004 108.2 60.9004C109.9 60.9004 116.7 63.4004 119.4 64.9004C122.7 66.7004 197.7 113.8 206.1 120.4C214.5 127 214.5 135.5 214.5 135.5H1.80029Z" fill="#C7C8C8"/>
<path opacity="0.9508" d="M1.80029 135.6C1.80029 135.6 1.80029 127.1 10.3003 120.5C18.8003 113.9 93.7003 66.9 97.0003 65C99.8003 63.5 106.6 61 108.2 61C109.9 61 116.7 63.5 119.4 65C122.7 66.8 197.7 113.9 206.1 120.5C214.5 127.1 214.5 135.6 214.5 135.6H1.80029Z" fill="#C6C7C7"/>
<path opacity="0.9672" d="M1.80029 135.7C1.80029 135.7 1.80029 127.2 10.3003 120.6C18.8003 114 93.7003 66.9996 97.0003 65.0996C99.8003 63.5996 106.6 61.0996 108.2 61.0996C109.9 61.0996 116.7 63.5996 119.4 65.0996C122.7 66.8996 197.7 114 206.1 120.6C214.5 127.2 214.5 135.7 214.5 135.7H1.80029Z" fill="#C5C6C6"/>
<path opacity="0.9836" d="M1.80029 135.7C1.80029 135.7 1.80029 127.2 10.3003 120.6C18.8003 114 93.7003 66.9996 97.0003 65.0996C99.8003 63.5996 106.6 61.0996 108.2 61.0996C109.9 61.0996 116.7 63.5996 119.4 65.0996C122.7 66.8996 197.7 114 206.1 120.6C214.5 127.2 214.5 135.7 214.5 135.7H1.80029Z" fill="#C4C5C5"/>
<path d="M1.80029 135.8C1.80029 135.8 1.80029 127.3 10.3003 120.7C18.8003 114.1 93.7003 67.1002 97.0003 65.2002C99.8003 63.7002 106.6 61.2002 108.2 61.2002C109.9 61.2002 116.7 63.7002 119.4 65.2002C122.7 67.0002 197.7 114.1 206.1 120.7C214.5 127.3 214.5 135.8 214.5 135.8H1.80029Z" fill="#B0B0B0"/>
<path d="M1.80029 135.8C1.80029 135.8 1.80029 127.3 10.3003 120.7C18.8003 114.1 93.7003 67.1002 97.0003 65.2002C99.8003 63.7002 104.6 61.2002 108.2 61.2002C111.8 61.2002 116.7 63.7002 119.4 65.2002C122.7 67.0002 197.7 114.1 206.1 120.7C214.5 127.3 214.5 135.8 214.5 135.8H1.80029Z" fill="url(#paint1_linear)"/>
<path opacity="0.0163934" d="M215 4.5C215 4.5 215 19 206.5 26.2C198 33.4 123.1 80.8 119.8 82.8C117 84.5 110.2 87.2 108.6 87.2C106.9 87.2 100.1 84.5 97.4004 82.8C94.1004 80.8 19.1004 33.4 10.7004 26.2C2.20044 19 2.20044 4.5 2.20044 4.5H215Z" fill="#FEFEFE"/>
<path opacity="0.0327869" d="M215 4.40039C215 4.40039 215 18.8004 206.5 26.0004C198 33.2004 123.1 80.6004 119.8 82.6004C117 84.3004 110.2 86.9004 108.6 86.9004C106.9 86.9004 100.1 84.2004 97.4004 82.6004C94.1004 80.6004 19.1004 33.2004 10.7004 26.0004C2.20044 18.8004 2.20044 4.40039 2.20044 4.40039H215Z" fill="#FDFDFD"/>
<path opacity="0.0491803" d="M215 4.40039C215 4.40039 215 18.7004 206.5 25.9004C198 33.1004 123.1 80.5004 119.8 82.5004C117 84.2004 110.2 86.8004 108.6 86.8004C106.9 86.8004 100.1 84.1004 97.4004 82.5004C94.1004 80.5004 19.1004 33.1004 10.7004 25.9004C2.20044 18.7004 2.20044 4.40039 2.20044 4.40039H215Z" fill="#FCFCFC"/>
<path opacity="0.0655738" d="M215 4.2998C215 4.2998 215 18.4998 206.5 25.6998C198 32.7998 123.1 80.2998 119.8 82.2998C117 83.9998 110.2 86.5998 108.6 86.5998C106.9 86.5998 100.1 83.8998 97.4004 82.2998C94.1004 80.2998 19.1004 32.8998 10.7004 25.6998C2.20044 18.4998 2.20044 4.2998 2.20044 4.2998H215Z" fill="#FBFBFB"/>
<path opacity="0.0819672" d="M214.9 4.2002C214.9 4.2002 214.9 18.3002 206.4 25.5002C197.9 32.6002 123 80.1002 119.7 82.0002C116.9 83.7002 110.1 86.3002 108.5 86.3002C106.8 86.3002 100 83.6002 97.3003 82.0002C94.0003 80.0002 19.0003 32.6002 10.6003 25.5002C2.10034 18.4002 2.10034 4.2002 2.10034 4.2002H214.9Z" fill="#FAFAFA"/>
<path opacity="0.0983607" d="M214.9 4.09961C214.9 4.09961 214.9 18.0996 206.4 25.2996C197.9 32.3996 123 79.7996 119.7 81.7996C116.9 83.3996 110.1 86.0996 108.5 86.0996C106.8 86.0996 100 83.3996 97.3003 81.7996C94.0003 79.7996 19.0003 32.3996 10.6003 25.2996C2.10034 18.1996 2.10034 4.09961 2.10034 4.09961H214.9Z" fill="#F9F9F9"/>
<path opacity="0.1148" d="M214.9 4.09961C214.9 4.09961 214.9 17.9996 206.4 25.1996C197.9 32.2996 123 79.6996 119.7 81.6996C116.9 83.2996 110.1 85.9996 108.5 85.9996C106.8 85.9996 100 83.2996 97.3003 81.6996C94.0003 79.6996 19.0003 32.2996 10.6003 25.1996C2.10034 18.0996 2.10034 4.09961 2.10034 4.09961H214.9Z" fill="#F8F8F8"/>
<path opacity="0.1311" d="M214.9 4C214.9 4 214.9 17.8 206.4 24.9C197.9 32 123 79.4 119.7 81.4C116.9 83 110.1 85.7 108.5 85.7C106.8 85.7 100 83 97.3003 81.4C94.0003 79.4 19.0003 32 10.6003 24.9C2.10034 17.8 2.10034 4 2.10034 4H214.9Z" fill="#F7F7F7"/>
<path opacity="0.1475" d="M214.9 3.90039C214.9 3.90039 214.9 17.6004 206.4 24.7004C197.9 31.8004 123 79.2004 119.7 81.2004C116.9 82.8004 110.1 85.5004 108.5 85.5004C106.8 85.5004 100 82.8004 97.3003 81.2004C94.0003 79.2004 19.0003 31.8004 10.6003 24.7004C2.10034 17.6004 2.10034 3.90039 2.10034 3.90039H214.9Z" fill="#F6F6F6"/>
<path opacity="0.1639" d="M214.9 3.7998C214.9 3.7998 214.9 17.3998 206.4 24.4998C197.9 31.5998 123 78.9998 119.7 80.8998C116.9 82.4998 110.1 85.1998 108.5 85.1998C106.8 85.1998 100 82.4998 97.3003 80.8998C94.0003 78.8998 19.0003 31.4998 10.6003 24.4998C2.10034 17.3998 2.10034 3.7998 2.10034 3.7998H214.9Z" fill="#F5F5F5"/>
<path opacity="0.1803" d="M214.9 3.7998C214.9 3.7998 214.9 17.2998 206.4 24.3998C197.9 31.4998 123 78.8998 119.7 80.7998C116.9 82.3998 110.1 85.0998 108.5 85.0998C106.8 85.0998 100 82.3998 97.3003 80.7998C94.0003 78.7998 19.0003 31.4998 10.6003 24.3998C2.10034 17.2998 2.10034 3.7998 2.10034 3.7998H214.9Z" fill="#F4F4F4"/>
<path opacity="0.1967" d="M214.8 3.7002C214.8 3.7002 214.8 17.1002 206.3 24.2002C197.8 31.3002 122.9 78.6002 119.6 80.6002C116.8 82.2002 110 84.9002 108.4 84.9002C106.7 84.9002 99.9005 82.2002 97.2005 80.6002C93.9005 78.6002 18.9005 31.3002 10.5005 24.2002C2.00049 17.1002 2.00049 3.7002 2.00049 3.7002H214.8Z" fill="#F3F3F3"/>
<path opacity="0.2131" d="M214.8 3.59961C214.8 3.59961 214.8 16.8996 206.3 23.9996C197.8 31.0996 122.9 78.3996 119.6 80.3996C116.8 81.9996 110 84.6996 108.4 84.6996C106.7 84.6996 99.9005 81.9996 97.2005 80.3996C93.9005 78.3996 18.9005 31.0996 10.5005 23.9996C2.00049 16.8996 2.00049 3.59961 2.00049 3.59961H214.8Z" fill="#F2F2F3"/>
<path opacity="0.2295" d="M214.8 3.5C214.8 3.5 214.8 16.7 206.3 23.8C197.8 30.9 122.9 78.2 119.6 80.2C116.8 81.8 110 84.5 108.4 84.5C106.7 84.5 99.9005 81.8 97.2005 80.2C93.9005 78.2 18.9005 30.9 10.5005 23.8C2.00049 16.7 2.00049 3.5 2.00049 3.5H214.8Z" fill="#F1F1F2"/>
<path opacity="0.2459" d="M214.8 3.5C214.8 3.5 214.8 16.6 206.3 23.7C197.8 30.7 122.9 78.1 119.6 80.1C116.8 81.7 110 84.4 108.4 84.4C106.7 84.4 99.9005 81.8 97.2005 80.1C93.9005 78.1 18.9005 30.8 10.5005 23.7C2.00049 16.7 2.00049 3.5 2.00049 3.5H214.8Z" fill="#F0F0F1"/>
<path opacity="0.2623" d="M214.8 3.40039C214.8 3.40039 214.8 16.4004 206.3 23.5004C197.8 30.5004 122.9 77.9004 119.6 79.8004C116.8 81.4004 110 84.1004 108.4 84.1004C106.7 84.1004 99.9005 81.5004 97.2005 79.8004C93.9005 77.8004 18.9005 30.5004 10.5005 23.5004C2.00049 16.5004 2.00049 3.40039 2.00049 3.40039H214.8Z" fill="#EFF0F0"/>
<path opacity="0.2787" d="M214.8 3.2998C214.8 3.2998 214.8 16.1998 206.3 23.1998C197.8 30.1998 122.9 77.5998 119.6 79.4998C116.8 81.0998 110 83.7998 108.4 83.7998C106.7 83.7998 99.9005 81.1998 97.2005 79.4998C93.9005 77.4998 18.9005 30.1998 10.5005 23.1998C2.00049 16.1998 2.00049 3.2998 2.00049 3.2998H214.8Z" fill="#EEEFEF"/>
<path opacity="0.2951" d="M214.7 3.2002C214.7 3.2002 214.7 16.0002 206.2 23.0002C197.7 30.0002 122.8 77.3002 119.5 79.3002C116.7 80.9002 109.9 83.6002 108.3 83.6002C106.6 83.6002 99.8004 81.0002 97.1004 79.3002C93.8004 77.4002 18.8004 30.0002 10.4004 23.0002C1.90039 16.0002 1.90039 3.2002 1.90039 3.2002H214.7Z" fill="#EDEEEE"/>
<path opacity="0.3115" d="M214.7 3.2002C214.7 3.2002 214.7 15.9002 206.2 22.9002C197.7 29.9002 122.8 77.2002 119.5 79.2002C116.7 80.8002 109.9 83.5002 108.3 83.5002C106.6 83.5002 99.8004 80.9002 97.1004 79.2002C93.8004 77.3002 18.8004 29.9002 10.4004 22.9002C1.90039 15.9002 1.90039 3.2002 1.90039 3.2002H214.7Z" fill="#ECEDED"/>
<path opacity="0.3279" d="M214.7 3.09961C214.7 3.09961 214.7 15.6996 206.2 22.6996C197.7 29.6996 122.8 76.9996 119.5 78.9996C116.7 80.5996 109.9 83.1996 108.3 83.1996C106.6 83.1996 99.8004 80.5996 97.1004 78.9996C93.8004 77.0996 18.8004 29.6996 10.4004 22.6996C1.90039 15.6996 1.90039 3.09961 1.90039 3.09961H214.7Z" fill="#EBECEC"/>
<path opacity="0.3443" d="M214.7 3C214.7 3 214.7 15.5 206.2 22.5C197.7 29.5 122.8 76.8 119.5 78.7C116.7 80.3 109.9 82.9 108.3 82.9C106.6 82.9 99.8004 80.3 97.1004 78.7C93.8004 76.8 18.8004 29.4 10.4004 22.5C1.90039 15.5 1.90039 3 1.90039 3H214.7Z" fill="#EAEBEB"/>
<path opacity="0.3607" d="M214.7 2.90039C214.7 2.90039 214.7 15.3004 206.2 22.3004C197.7 29.3004 122.8 76.6004 119.5 78.5004C116.7 80.1004 109.9 82.7004 108.3 82.7004C106.6 82.7004 99.8004 80.1004 97.1004 78.5004C93.8004 76.6004 18.8004 29.3004 10.4004 22.3004C1.90039 15.3004 1.90039 2.90039 1.90039 2.90039H214.7Z" fill="#E9EAEA"/>
<path opacity="0.377" d="M214.7 2.90039C214.7 2.90039 214.7 15.2004 206.2 22.2004C197.7 29.2004 122.8 76.5004 119.5 78.4004C116.7 80.0004 109.9 82.6004 108.3 82.6004C106.6 82.6004 99.8004 80.0004 97.1004 78.4004C93.8004 76.5004 18.8004 29.2004 10.4004 22.2004C1.90039 15.2004 1.90039 2.90039 1.90039 2.90039H214.7Z" fill="#E9E9E9"/>
<path opacity="0.3934" d="M214.7 2.7998C214.7 2.7998 214.7 14.9998 206.2 21.9998C197.7 28.9998 122.8 76.2998 119.5 78.1998C116.7 79.7998 109.9 82.3998 108.3 82.3998C106.6 82.3998 99.8004 79.7998 97.1004 78.1998C93.8004 76.2998 18.8004 28.9998 10.4004 21.9998C1.90039 14.9998 1.90039 2.7998 1.90039 2.7998H214.7Z" fill="#E8E8E8"/>
<path opacity="0.4098" d="M214.6 2.7002C214.6 2.7002 214.6 14.8002 206.1 21.8002C197.6 28.8002 122.7 76.0002 119.4 78.0002C116.6 79.6002 109.8 82.2002 108.2 82.2002C106.5 82.2002 99.7003 79.6002 97.0003 78.0002C93.7003 76.1002 18.7003 28.8002 10.3003 21.8002C1.80029 14.8002 1.80029 2.7002 1.80029 2.7002H214.6Z" fill="#E7E7E7"/>
<path opacity="0.4262" d="M214.6 2.59961C214.6 2.59961 214.6 14.5996 206.1 21.4996C197.6 28.3996 122.7 75.6996 119.4 77.5996C116.6 79.1996 109.8 81.7996 108.2 81.7996C106.5 81.7996 99.7003 79.1996 97.0003 77.5996C93.7003 75.6996 18.7003 28.3996 10.3003 21.4996C1.80029 14.5996 1.80029 2.59961 1.80029 2.59961H214.6Z" fill="#E6E6E6"/>
<path opacity="0.4426" d="M214.6 2.59961C214.6 2.59961 214.6 14.4996 206.1 21.3996C197.6 28.2996 122.7 75.5996 119.4 77.4996C116.6 79.0996 109.8 81.6996 108.2 81.6996C106.5 81.6996 99.7003 79.0996 97.0003 77.4996C93.7003 75.5996 18.8003 28.2996 10.3003 21.3996C1.80029 14.4996 1.80029 2.59961 1.80029 2.59961H214.6Z" fill="#E5E5E5"/>
<path opacity="0.459" d="M214.6 2.5C214.6 2.5 214.6 14.3 206.1 21.2C197.6 28.1 122.7 75.4 119.4 77.3C116.6 78.9 109.8 81.5 108.2 81.5C106.5 81.5 99.7003 78.9 97.0003 77.3C93.7003 75.4 18.7003 28.1 10.3003 21.2C1.80029 14.3 1.80029 2.5 1.80029 2.5H214.6Z" fill="#E4E4E4"/>
<path opacity="0.4754" d="M214.6 2.40039C214.6 2.40039 214.6 14.1004 206.1 21.0004C197.6 27.9004 122.7 75.2004 119.4 77.1004C116.6 78.7004 109.8 81.3004 108.2 81.3004C106.5 81.3004 99.7003 78.7004 97.0003 77.1004C93.7003 75.2004 18.7003 27.9004 10.3003 21.0004C1.80029 14.1004 1.80029 2.40039 1.80029 2.40039H214.6Z" fill="#E3E3E3"/>
<path opacity="0.4918" d="M214.6 2.2998C214.6 2.2998 214.6 13.8998 206.1 20.7998C197.6 27.6998 122.7 74.9998 119.4 76.8998C116.6 78.4998 109.8 81.0998 108.2 81.0998C106.5 81.0998 99.7003 78.4998 97.0003 76.8998C93.7003 74.9998 18.7003 27.6998 10.3003 20.7998C1.80029 13.8998 1.80029 2.2998 1.80029 2.2998H214.6Z" fill="#E2E2E2"/>
<path opacity="0.5082" d="M214.6 2.2998C214.6 2.2998 214.6 13.7998 206.1 20.6998C197.6 27.5998 122.7 74.7998 119.4 76.7998C116.6 78.3998 109.8 80.9998 108.2 80.9998C106.5 80.9998 99.7003 78.3998 97.0003 76.7998C93.7003 74.7998 18.7003 27.4998 10.3003 20.6998C1.80029 13.7998 1.80029 2.2998 1.80029 2.2998H214.6Z" fill="#E1E1E1"/>
<path opacity="0.5246" d="M214.5 2.2002C214.5 2.2002 214.5 13.6002 206 20.5002C197.5 27.4002 122.6 74.6002 119.3 76.5002C116.5 78.1002 109.7 80.7002 108.1 80.7002C106.4 80.7002 99.6004 78.1002 96.9004 76.5002C93.6004 74.6002 18.6004 27.4002 10.2004 20.5002C1.70044 13.6002 1.70044 2.2002 1.70044 2.2002H214.5Z" fill="#E0E0E0"/>
<path opacity="0.541" d="M214.5 2.09961C214.5 2.09961 214.5 13.3996 206 20.2996C197.5 27.1996 122.6 74.3996 119.3 76.2996C116.5 77.8996 109.7 80.4996 108.1 80.4996C106.4 80.4996 99.6004 77.8996 96.9004 76.2996C93.6004 74.3996 18.6004 27.1996 10.2004 20.2996C1.70044 13.3996 1.70044 2.09961 1.70044 2.09961H214.5Z" fill="#DFDFDF"/>
<path opacity="0.5574" d="M214.5 2C214.5 2 214.5 13.2 206 20.1C197.5 27 122.6 74.2 119.3 76.1C116.5 77.7 109.7 80.3 108.1 80.3C106.4 80.3 99.6004 77.7 96.9004 76.1C93.6004 74.2 18.6004 27 10.2004 20.1C1.70044 13.2 1.70044 2 1.70044 2H214.5Z" fill="#DEDEDE"/>
<path opacity="0.5738" d="M214.5 2C214.5 2 214.5 13.1 206 19.9C197.5 26.8 122.6 74 119.3 75.9C116.5 77.5 109.7 80.1 108.1 80.1C106.4 80.1 99.6004 77.5 96.9004 75.9C93.6004 74 18.6004 26.8 10.2004 19.9C1.70044 13 1.70044 2 1.70044 2H214.5Z" fill="#DDDDDD"/>
<path opacity="0.5902" d="M214.5 1.90039C214.5 1.90039 214.5 12.9004 206 19.7004C197.5 26.5004 122.6 73.8004 119.3 75.7004C116.5 77.3004 109.7 79.9004 108.1 79.9004C106.4 79.9004 99.6004 77.3004 96.9004 75.7004C93.6004 73.8004 18.6004 26.6004 10.2004 19.7004C1.70044 12.9004 1.70044 1.90039 1.70044 1.90039H214.5Z" fill="#DCDCDC"/>
<path opacity="0.6066" d="M214.5 1.7998C214.5 1.7998 214.5 12.6998 206 19.4998C197.5 26.2998 122.6 73.4998 119.3 75.3998C116.5 76.9998 109.7 79.5998 108.1 79.5998C106.4 79.5998 99.6004 76.9998 96.9004 75.3998C93.6004 73.4998 18.6004 26.2998 10.2004 19.4998C1.70044 12.6998 1.70044 1.7998 1.70044 1.7998H214.5Z" fill="#DBDBDB"/>
<path opacity="0.623" d="M214.4 1.7002C214.4 1.7002 214.4 12.5002 205.9 19.3002C197.4 26.1002 122.5 73.3002 119.2 75.2002C116.4 76.8002 109.6 79.3002 108 79.3002C106.3 79.3002 99.5004 76.7002 96.8004 75.2002C93.5004 73.3002 18.5004 26.1002 10.1004 19.3002C1.70044 12.5002 1.70044 1.7002 1.70044 1.7002H214.4Z" fill="#DADADA"/>
<path opacity="0.6393" d="M214.4 1.7002C214.4 1.7002 214.4 12.4002 205.9 19.2002C197.4 26.0002 122.5 73.2002 119.2 75.1002C116.4 76.7002 109.6 79.2002 108 79.2002C106.3 79.2002 99.5004 76.6002 96.8004 75.1002C93.5004 73.2002 18.5004 26.0002 10.1004 19.2002C1.70044 12.3002 1.70044 1.7002 1.70044 1.7002H214.4Z" fill="#D9D9DA"/>
<path opacity="0.6557" d="M214.4 1.59961C214.4 1.59961 214.4 12.1996 205.9 18.9996C197.4 25.7996 122.5 72.9996 119.2 74.8996C116.4 76.4996 109.6 78.9996 108 78.9996C106.3 78.9996 99.5004 76.3996 96.8004 74.8996C93.5004 72.9996 18.5004 25.7996 10.1004 18.9996C1.70044 12.1996 1.70044 1.59961 1.70044 1.59961H214.4Z" fill="#D8D8D9"/>
<path opacity="0.6721" d="M214.4 1.5C214.4 1.5 214.4 12 205.9 18.8C197.4 25.6 122.5 72.8 119.2 74.7C116.4 76.3 109.6 78.8 108 78.8C106.3 78.8 99.5004 76.2 96.8004 74.7C93.5004 72.8 18.5004 25.6 10.1004 18.8C1.70044 12 1.70044 1.5 1.70044 1.5H214.4Z" fill="#D7D7D8"/>
<path opacity="0.6885" d="M214.4 1.40039C214.4 1.40039 214.4 11.8004 205.9 18.6004C197.4 25.4004 122.5 72.6004 119.2 74.4004C116.4 76.0004 109.6 78.5004 108 78.5004C106.3 78.5004 99.5003 75.9004 96.8003 74.4004C93.5003 72.5004 18.5003 25.3004 10.1003 18.6004C1.60034 11.8004 1.60034 1.40039 1.60034 1.40039H214.4Z" fill="#D6D6D7"/>
<path opacity="0.7049" d="M214.4 1.40039C214.4 1.40039 214.4 11.7004 205.9 18.5004C197.4 25.3004 122.5 72.4004 119.2 74.3004C116.4 75.9004 109.6 78.4004 108 78.4004C106.3 78.4004 99.5003 75.9004 96.8003 74.3004C93.5003 72.4004 18.5003 25.3004 10.1003 18.5004C1.60034 11.7004 1.60034 1.40039 1.60034 1.40039H214.4Z" fill="#D5D5D6"/>
<path opacity="0.7213" d="M214.4 1.2998C214.4 1.2998 214.4 11.4998 205.9 18.2998C197.4 25.0998 122.5 72.1998 119.2 74.0998C116.4 75.6998 109.6 78.1998 108 78.1998C106.3 78.1998 99.5003 75.6998 96.8003 74.0998C93.5003 72.1998 18.5003 25.0998 10.1003 18.2998C1.60034 11.4998 1.60034 1.2998 1.60034 1.2998H214.4Z" fill="#D4D4D5"/>
<path opacity="0.7377" d="M214.3 1.2002C214.3 1.2002 214.3 11.3002 205.8 18.0002C197.3 24.8002 122.4 71.9002 119.1 73.8002C116.3 75.4002 109.5 77.9002 107.9 77.9002C106.2 77.9002 99.4005 75.4002 96.7005 73.8002C93.4005 71.9002 18.4005 24.8002 10.0005 18.0002C1.50049 11.2002 1.50049 1.2002 1.50049 1.2002H214.3Z" fill="#D3D3D4"/>
<path opacity="0.7541" d="M214.3 1.09961C214.3 1.09961 214.3 11.0996 205.8 17.7996C197.3 24.5996 122.4 71.6996 119.1 73.5996C116.3 75.1996 109.5 77.6996 107.9 77.6996C106.2 77.6996 99.4005 75.1996 96.7005 73.5996C93.4005 71.6996 18.4005 24.5996 10.0005 17.7996C1.50049 10.9996 1.50049 1.09961 1.50049 1.09961H214.3Z" fill="#D2D2D3"/>
<path opacity="0.7705" d="M214.3 1.09961C214.3 1.09961 214.3 10.9996 205.8 17.6996C197.3 24.3996 122.4 71.5996 119.1 73.3996C116.3 74.9996 109.5 77.4996 107.9 77.4996C106.2 77.4996 99.4005 74.9996 96.7005 73.3996C93.4005 71.4996 18.4005 24.3996 10.0005 17.6996C1.50049 10.9996 1.50049 1.09961 1.50049 1.09961H214.3Z" fill="#D1D2D2"/>
<path opacity="0.7869" d="M214.3 1C214.3 1 214.3 10.8 205.8 17.5C197.3 24.2 122.4 71.4 119.1 73.2C116.3 74.8 109.5 77.3 107.9 77.3C106.2 77.3 99.4005 74.8 96.7005 73.2C93.4005 71.3 18.4005 24.2 10.0005 17.5C1.50049 10.8 1.50049 1 1.50049 1H214.3Z" fill="#D0D1D1"/>
<path opacity="0.8033" d="M214.3 0.900391C214.3 0.900391 214.3 10.6004 205.8 17.3004C197.3 24.0004 122.4 71.1004 119.1 73.0004C116.3 74.6004 109.5 77.1004 107.9 77.1004C106.2 77.1004 99.4005 74.6004 96.7005 73.0004C93.4005 71.1004 18.4005 24.0004 10.0005 17.3004C1.50049 10.6004 1.50049 0.900391 1.50049 0.900391H214.3Z" fill="#CFD0D0"/>
<path opacity="0.8197" d="M214.3 0.799805C214.3 0.799805 214.3 10.3998 205.8 17.0998C197.3 23.7998 122.4 70.8998 119.1 72.7998C116.3 74.3998 109.5 76.8998 107.9 76.8998C106.2 76.8998 99.4005 74.3998 96.7005 72.7998C93.4005 70.8998 18.4005 23.7998 10.0005 17.0998C1.50049 10.3998 1.50049 0.799805 1.50049 0.799805H214.3Z" fill="#CECFCF"/>
<path opacity="0.8361" d="M214.3 0.799805C214.3 0.799805 214.3 10.2998 205.8 16.9998C197.3 23.6998 122.4 70.7998 119.1 72.6998C116.3 74.2998 109.5 76.7998 107.9 76.7998C106.2 76.7998 99.4005 74.2998 96.7005 72.6998C93.4005 70.7998 18.4005 23.6998 10.0005 16.9998C1.50049 10.2998 1.50049 0.799805 1.50049 0.799805H214.3Z" fill="#CDCECE"/>
<path opacity="0.8525" d="M214.2 0.700195C214.2 0.700195 214.2 10.1002 205.7 16.8002C197.2 23.5002 122.3 70.6002 119 72.5002C116.2 74.0002 109.4 76.6002 107.8 76.6002C106.1 76.6002 99.3004 74.1002 96.6004 72.5002C93.3004 70.6002 18.3004 23.5002 9.90039 16.8002C1.40039 10.1002 1.40039 0.700195 1.40039 0.700195H214.2Z" fill="#CCCDCD"/>
<path opacity="0.8689" d="M214.2 0.599609C214.2 0.599609 214.2 9.89961 205.7 16.5996C197.2 23.2996 122.3 70.3996 119 72.1996C116.2 73.6996 109.4 76.2996 107.8 76.2996C106.1 76.2996 99.3004 73.7996 96.6004 72.1996C93.3004 70.2996 18.4004 23.2996 9.90039 16.5996C1.40039 9.89961 1.40039 0.599609 1.40039 0.599609H214.2Z" fill="#CBCCCC"/>
<path opacity="0.8852" d="M214.2 0.5C214.2 0.5 214.2 9.7 205.7 16.3C197.2 23 122.3 70.1 119 71.9C116.2 73.4 109.4 76 107.8 76C106.1 76 99.3004 73.5 96.6004 71.9C93.3004 70 18.3004 23 9.90039 16.3C1.40039 9.6 1.40039 0.5 1.40039 0.5H214.2Z" fill="#CACBCB"/>
<path opacity="0.9016" d="M214.2 0.5C214.2 0.5 214.2 9.6 205.7 16.2C197.2 22.9 122.3 69.9 119 71.8C116.2 73.3 109.4 75.8 107.8 75.8C106.1 75.8 99.3004 73.3 96.6004 71.8C93.3004 69.9 18.3004 22.9 9.90039 16.2C1.40039 9.5 1.40039 0.5 1.40039 0.5H214.2Z" fill="#C9CACA"/>
<path opacity="0.918" d="M214.2 0.400391C214.2 0.400391 214.2 9.40039 205.7 16.0004C197.2 22.7004 122.3 69.7004 119 71.6004C116.2 73.1004 109.4 75.6004 107.8 75.6004C106.1 75.6004 99.3004 73.1004 96.6004 71.6004C93.3004 69.8004 18.3004 22.7004 9.90039 16.0004C1.40039 9.30039 1.40039 0.400391 1.40039 0.400391H214.2Z" fill="#C8C9C9"/>
<path opacity="0.9344" d="M214.2 0.299805C214.2 0.299805 214.2 9.1998 205.7 15.7998C197.2 22.4998 122.3 69.4998 119 71.3998C116.2 72.8998 109.4 75.3998 107.8 75.3998C106.1 75.3998 99.3004 72.8998 96.6004 71.3998C93.3004 69.5998 18.3004 22.4998 9.90039 15.7998C1.40039 9.1998 1.40039 0.299805 1.40039 0.299805H214.2Z" fill="#C7C8C8"/>
<path opacity="0.9508" d="M214.1 0.200195C214.1 0.200195 214.1 9.00019 205.6 15.6002C197.1 22.2002 122.2 69.3002 118.9 71.1002C116.1 72.6002 109.3 75.1002 107.7 75.1002C106 75.1002 99.2004 72.6002 96.5004 71.1002C93.3004 69.3002 18.3004 22.3002 9.90039 15.6002C1.40039 9.00019 1.40039 0.200195 1.40039 0.200195H214.1Z" fill="#C6C7C7"/>
<path opacity="0.9672" d="M214.1 0.200195C214.1 0.200195 214.1 8.90019 205.6 15.5002C197.1 22.1002 122.2 69.2002 118.9 71.0002C116.1 72.5002 109.3 75.0002 107.7 75.0002C106 75.0002 99.2003 72.5002 96.5003 71.0002C93.2003 69.2002 18.2003 22.1002 9.80029 15.5002C1.30029 8.90019 1.30029 0.200195 1.30029 0.200195H214.1Z" fill="#C5C6C6"/>
<path opacity="0.9836" d="M214.1 0.0996094C214.1 0.0996094 214.1 8.69961 205.6 15.2996C197.1 21.8996 122.2 68.9996 118.9 70.7996C116.1 72.2996 109.3 74.7996 107.7 74.7996C106 74.7996 99.2003 72.2996 96.5003 70.7996C93.2003 68.9996 18.2003 21.8996 9.80029 15.2996C1.30029 8.69961 1.30029 0.0996094 1.30029 0.0996094H214.1Z" fill="#C4C5C5"/>
<path d="M214.1 0C214.1 0 214.1 8.5 205.6 15.1C197.1 21.7 122.2 68.7 118.9 70.6C116.1 72.1 109.3 74.6 107.7 74.6C106 74.6 99.2003 72.1 96.5003 70.6C93.2003 68.8 18.2003 21.7 9.80029 15.1C1.30029 8.5 1.30029 0 1.30029 0H214.1Z" fill="#B0B0B0"/>
<path d="M214.1 0C214.1 0 214.1 8.5 205.6 15.1C197.1 21.7 122.2 68.7 118.9 70.6C116.1 72.1 111.3 74.6 107.7 74.6C104.1 74.6 99.2003 72.1 96.5003 70.6C93.2003 68.8 18.2003 21.7 9.80029 15.1C1.30029 8.5 1.30029 0 1.30029 0H214.1Z" fill="url(#paint2_linear)"/>
<circle cx="106.4" cy="71.5" r="49.5" fill="#FFD34F"/>
<path d="M89.6465 62.917C92.7227 62.917 95.4937 63.6372 97.9595 65.0776C100.45 66.4937 102.378 68.5078 103.746 71.1201C105.137 73.7324 105.833 76.7476 105.833 80.1655C105.833 86.147 104.026 90.7368 100.413 93.9351C96.8242 97.1333 91.3799 98.7324 84.0801 98.7324C77.8301 98.7324 72.7275 97.7681 68.7725 95.8394V83.9741C70.8965 84.9507 73.2891 85.7563 75.9502 86.3911C78.6357 87.0259 80.9429 87.3433 82.8716 87.3433C85.5571 87.3433 87.6201 86.7817 89.0605 85.6587C90.501 84.5112 91.2212 82.8267 91.2212 80.605C91.2212 78.5542 90.4888 76.9551 89.0239 75.8076C87.5591 74.6602 85.3374 74.0864 82.3589 74.0864C80.0884 74.0864 77.6348 74.5137 74.998 75.3682L69.688 72.7314L71.7021 44.46H102.244V56.5083H84.0068L83.3477 63.5762C85.252 63.21 86.6069 63.0146 87.4126 62.9902C88.2183 62.9414 88.9629 62.917 89.6465 62.917ZM146.834 71.3032C146.834 80.7759 145.247 87.7217 142.073 92.1406C138.899 96.5352 134.041 98.7324 127.498 98.7324C121.102 98.7324 116.28 96.4375 113.033 91.8477C109.786 87.2334 108.162 80.3853 108.162 71.3032C108.162 61.7817 109.749 54.7993 112.923 50.356C116.097 45.9126 120.955 43.6909 127.498 43.6909C133.87 43.6909 138.68 46.0103 141.927 50.6489C145.198 55.2632 146.834 62.1479 146.834 71.3032ZM122.554 71.3032C122.554 77.3579 122.933 81.5205 123.689 83.791C124.446 86.0615 125.716 87.1968 127.498 87.1968C129.305 87.1968 130.574 86.0249 131.307 83.6812C132.063 81.3374 132.442 77.2114 132.442 71.3032C132.442 65.3706 132.063 61.2202 131.307 58.8521C130.55 56.4595 129.28 55.2632 127.498 55.2632C125.716 55.2632 124.446 56.4106 123.689 58.7056C122.933 61.0005 122.554 65.1997 122.554 71.3032Z" fill="url(#paint3_linear)"/>
<defs>
<linearGradient id="paint0_linear" x1="107.734" y1="0.0203" x2="107.734" y2="135.813" gradientUnits="userSpaceOnUse">
<stop stop-color="#D5D5D0"/>
<stop offset="0.1161" stop-color="#E0E0DA"/>
<stop offset="0.3441" stop-color="#EFEFE7"/>
<stop offset="0.6097" stop-color="#F8F8EF"/>
<stop offset="1" stop-color="#FBFBF1"/>
</linearGradient>
<linearGradient id="paint1_linear" x1="108.189" y1="-58.6198" x2="108.189" y2="135.813" gradientUnits="userSpaceOnUse">
<stop stop-color="#D5D5D0"/>
<stop offset="0.1161" stop-color="#E0E0DA"/>
<stop offset="0.3441" stop-color="#EFEFE7"/>
<stop offset="0.6097" stop-color="#F8F8EF"/>
<stop offset="1" stop-color="#FBFBF1"/>
</linearGradient>
<linearGradient id="paint2_linear" x1="107.734" y1="194.454" x2="107.734" y2="0.0209994" gradientUnits="userSpaceOnUse">
<stop stop-color="#D5D5D0"/>
<stop offset="0.1161" stop-color="#E0E0DA"/>
<stop offset="0.3441" stop-color="#EFEFE7"/>
<stop offset="0.6097" stop-color="#F8F8EF"/>
<stop offset="1" stop-color="#FBFBF1"/>
</linearGradient>
<linearGradient id="paint3_linear" x1="101.849" y1="3.57429" x2="103.318" y2="134.415" gradientUnits="userSpaceOnUse">
<stop stop-color="#D91B24"/>
<stop offset="1" stop-color="#393C5A"/>
</linearGradient>
</defs>
</svg>
