<svg width="215" height="136" viewBox="0 0 215 136" fill="none" xmlns="http://www.w3.org/2000/svg">
<path d="M213.3 0H0.600098V135.8H213.3V0Z" fill="url(#paint0_linear)"/>
<path opacity="0.0163934" d="M0.100098 131.3C0.100098 131.3 0.100098 122.8 8.6001 116.2C17.1001 109.6 92.0001 62.6002 95.3001 60.7002C98.1001 59.2002 104.9 56.7002 106.5 56.7002C108.2 56.7002 115 59.2002 117.7 60.7002C121 62.5002 196 109.6 204.4 116.2C212.9 122.8 212.9 131.3 212.9 131.3H0.100098Z" fill="#FEFEFE"/>
<path opacity="0.0327869" d="M0.100098 131.4C0.100098 131.4 0.100098 122.9 8.6001 116.3C17.1001 109.7 92.0001 62.6998 95.3001 60.7998C98.1001 59.2998 104.9 56.7998 106.5 56.7998C108.2 56.7998 115 59.2998 117.7 60.7998C121 62.5998 196 109.7 204.4 116.3C212.9 122.9 212.9 131.4 212.9 131.4H0.100098Z" fill="#FDFDFD"/>
<path opacity="0.0491803" d="M0.200195 131.5C0.200195 131.5 0.200195 123 8.7002 116.4C17.2002 109.8 92.1002 62.8004 95.4002 60.9004C98.2002 59.4004 105 56.9004 106.6 56.9004C108.3 56.9004 115.1 59.4004 117.8 60.9004C121.1 62.7004 196.1 109.8 204.5 116.4C213 123 213 131.5 213 131.5H0.200195Z" fill="#FCFCFC"/>
<path opacity="0.0655738" d="M0.200195 131.6C0.200195 131.6 0.200195 123.1 8.7002 116.5C17.2002 109.9 92.1002 62.9 95.4002 61C98.2002 59.5 105 57 106.6 57C108.3 57 115.1 59.5 117.8 61C121.1 62.8 196.1 109.9 204.5 116.5C213 123.1 213 131.6 213 131.6H0.200195Z" fill="#FBFBFB"/>
<path opacity="0.0819672" d="M0.200195 131.6C0.200195 131.6 0.200195 123.1 8.7002 116.5C17.2002 109.9 92.1002 62.9 95.4002 61C98.2002 59.5 105 57 106.6 57C108.3 57 115.1 59.5 117.8 61C121.1 62.8 196.1 109.9 204.5 116.5C213 123.1 213 131.6 213 131.6H0.200195Z" fill="#FAFAFA"/>
<path opacity="0.0983607" d="M0.200195 131.7C0.200195 131.7 0.200195 123.2 8.7002 116.6C17.2002 110 92.1002 62.9996 95.4002 61.0996C98.2002 59.5996 105 57.0996 106.6 57.0996C108.3 57.0996 115.1 59.5996 117.8 61.0996C121.1 62.8996 196.1 110 204.5 116.6C213 123.2 213 131.7 213 131.7H0.200195Z" fill="#F9F9F9"/>
<path opacity="0.1148" d="M0.200195 131.8C0.200195 131.8 0.200195 123.3 8.7002 116.7C17.2002 110.1 92.1002 63.1002 95.4002 61.2002C98.2002 59.7002 105 57.2002 106.6 57.2002C108.3 57.2002 115.1 59.7002 117.8 61.2002C121.1 63.0002 196.1 110.1 204.5 116.7C213 123.3 213 131.8 213 131.8H0.200195Z" fill="#F8F8F8"/>
<path opacity="0.1311" d="M0.200195 131.9C0.200195 131.9 0.200195 123.4 8.7002 116.8C17.2002 110.2 92.1002 63.1998 95.4002 61.2998C98.2002 59.7998 105 57.2998 106.6 57.2998C108.3 57.2998 115.1 59.7998 117.8 61.2998C121.1 63.0998 196.1 110.2 204.5 116.8C213 123.4 213 131.9 213 131.9H0.200195Z" fill="#F7F7F7"/>
<path opacity="0.1475" d="M0.200195 131.9C0.200195 131.9 0.200195 123.4 8.7002 116.8C17.2002 110.2 92.1002 63.1998 95.4002 61.2998C98.2002 59.7998 105 57.2998 106.6 57.2998C108.3 57.2998 115.1 59.7998 117.8 61.2998C121.1 63.0998 196.1 110.2 204.5 116.8C213 123.4 213 131.9 213 131.9H0.200195Z" fill="#F6F6F6"/>
<path opacity="0.1639" d="M0.300049 132C0.300049 132 0.300049 123.5 8.80005 116.9C17.3 110.3 92.2001 63.3004 95.5001 61.4004C98.3001 59.9004 105.1 57.4004 106.7 57.4004C108.4 57.4004 115.2 59.9004 117.9 61.4004C121.2 63.2004 196.2 110.3 204.6 116.9C213.1 123.5 213.1 132 213.1 132H0.300049Z" fill="#F5F5F5"/>
<path opacity="0.1803" d="M0.300049 132.1C0.300049 132.1 0.300049 123.6 8.80005 117C17.3 110.4 92.2001 63.4 95.5001 61.5C98.3001 60 105.1 57.5 106.7 57.5C108.4 57.5 115.2 60 117.9 61.5C121.2 63.3 196.2 110.4 204.6 117C213.1 123.6 213.1 132.1 213.1 132.1H0.300049Z" fill="#F4F4F4"/>
<path opacity="0.1967" d="M0.300049 132.2C0.300049 132.2 0.300049 123.7 8.80005 117.1C17.3 110.5 92.2001 63.4996 95.5001 61.5996C98.3001 60.0996 105.1 57.5996 106.7 57.5996C108.4 57.5996 115.2 60.0996 117.9 61.5996C121.2 63.3996 196.2 110.5 204.6 117.1C213.1 123.7 213.1 132.2 213.1 132.2H0.300049Z" fill="#F3F3F3"/>
<path opacity="0.2131" d="M0.300049 132.2C0.300049 132.2 0.300049 123.7 8.80005 117.1C17.3 110.5 92.2001 63.4996 95.5001 61.5996C98.3001 60.0996 105.1 57.5996 106.7 57.5996C108.4 57.5996 115.2 60.0996 117.9 61.5996C121.2 63.3996 196.2 110.5 204.6 117.1C213.1 123.7 213.1 132.2 213.1 132.2H0.300049Z" fill="#F2F2F3"/>
<path opacity="0.2295" d="M0.300049 132.3C0.300049 132.3 0.300049 123.8 8.80005 117.2C17.3 110.6 92.2001 63.6002 95.5001 61.7002C98.3001 60.2002 105.1 57.7002 106.7 57.7002C108.4 57.7002 115.2 60.2002 117.9 61.7002C121.2 63.5002 196.2 110.6 204.6 117.2C213.1 123.8 213.1 132.3 213.1 132.3H0.300049Z" fill="#F1F1F2"/>
<path opacity="0.2459" d="M0.300049 132.4C0.300049 132.4 0.300049 123.9 8.80005 117.3C17.3 110.7 92.2001 63.6998 95.5001 61.7998C98.3001 60.2998 105.1 57.7998 106.7 57.7998C108.4 57.7998 115.2 60.2998 117.9 61.7998C121.2 63.5998 196.2 110.7 204.6 117.3C213.1 123.9 213.1 132.4 213.1 132.4H0.300049Z" fill="#F0F0F1"/>
<path opacity="0.2623" d="M0.300049 132.5C0.300049 132.5 0.300049 124 8.80005 117.4C17.3 110.8 92.2001 63.8004 95.5001 61.9004C98.3001 60.4004 105.1 57.9004 106.7 57.9004C108.4 57.9004 115.2 60.4004 117.9 61.9004C121.2 63.7004 196.2 110.8 204.6 117.4C213.1 124 213.1 132.5 213.1 132.5H0.300049Z" fill="#EFF0F0"/>
<path opacity="0.2787" d="M0.400146 132.5C0.400146 132.5 0.400146 124 8.90015 117.4C17.4001 110.8 92.3001 63.8004 95.6001 61.9004C98.4001 60.4004 105.2 57.9004 106.8 57.9004C108.5 57.9004 115.3 60.4004 118 61.9004C121.3 63.7004 196.3 110.8 204.7 117.4C213.2 124 213.2 132.5 213.2 132.5H0.400146Z" fill="#EEEFEF"/>
<path opacity="0.2951" d="M0.400146 132.6C0.400146 132.6 0.400146 124.1 8.90015 117.5C17.4001 110.9 92.3001 63.9 95.6001 62C98.4001 60.5 105.2 58 106.8 58C108.5 58 115.3 60.5 118 62C121.3 63.8 196.3 110.9 204.7 117.5C213.2 124.1 213.2 132.6 213.2 132.6H0.400146Z" fill="#EDEEEE"/>
<path opacity="0.3115" d="M0.400146 132.7C0.400146 132.7 0.400146 124.2 8.90015 117.6C17.4001 111 92.3001 63.9996 95.6001 62.0996C98.4001 60.5996 105.2 58.0996 106.8 58.0996C108.5 58.0996 115.3 60.5996 118 62.0996C121.3 63.8996 196.3 111 204.7 117.6C213.2 124.2 213.2 132.7 213.2 132.7H0.400146Z" fill="#ECEDED"/>
<path opacity="0.3279" d="M0.400146 132.8C0.400146 132.8 0.400146 124.3 8.90015 117.7C17.4001 111.1 92.3001 64.1002 95.6001 62.2002C98.4001 60.7002 105.2 58.2002 106.8 58.2002C108.5 58.2002 115.3 60.7002 118 62.2002C121.3 64.0002 196.3 111.1 204.7 117.7C213.2 124.3 213.2 132.8 213.2 132.8H0.400146Z" fill="#EBECEC"/>
<path opacity="0.3443" d="M0.400146 132.8C0.400146 132.8 0.400146 124.3 8.90015 117.7C17.4001 111.1 92.3001 64.1002 95.6001 62.2002C98.4001 60.7002 105.2 58.2002 106.8 58.2002C108.5 58.2002 115.3 60.7002 118 62.2002C121.3 64.0002 196.3 111.1 204.7 117.7C213.2 124.3 213.2 132.8 213.2 132.8H0.400146Z" fill="#EAEBEB"/>
<path opacity="0.3607" d="M0.400146 132.9C0.400146 132.9 0.400146 124.4 8.90015 117.8C17.4001 111.2 92.3001 64.1998 95.6001 62.2998C98.4001 60.7998 105.2 58.2998 106.8 58.2998C108.5 58.2998 115.3 60.7998 118 62.2998C121.3 64.0998 196.3 111.2 204.7 117.8C213.2 124.4 213.2 132.9 213.2 132.9H0.400146Z" fill="#E9EAEA"/>
<path opacity="0.377" d="M0.5 133C0.5 133 0.5 124.5 9 117.9C17.5 111.3 92.4 64.3004 95.7 62.4004C98.5 60.9004 105.3 58.4004 106.9 58.4004C108.6 58.4004 115.4 60.9004 118.1 62.4004C121.4 64.2004 196.4 111.3 204.8 117.9C213.3 124.5 213.3 133 213.3 133H0.5Z" fill="#E9E9E9"/>
<path opacity="0.3934" d="M0.5 133.1C0.5 133.1 0.5 124.6 9 118C17.5 111.4 92.4 64.4 95.7 62.5C98.5 61 105.3 58.5 106.9 58.5C108.6 58.5 115.4 61 118.1 62.5C121.4 64.3 196.4 111.4 204.8 118C213.3 124.6 213.3 133.1 213.3 133.1H0.5Z" fill="#E8E8E8"/>
<path opacity="0.4098" d="M0.5 133.1C0.5 133.1 0.5 124.6 9 118C17.5 111.4 92.4 64.4 95.7 62.5C98.5 61 105.3 58.5 106.9 58.5C108.6 58.5 115.4 61 118.1 62.5C121.4 64.3 196.4 111.4 204.8 118C213.3 124.6 213.3 133.1 213.3 133.1H0.5Z" fill="#E7E7E7"/>
<path opacity="0.4262" d="M0.5 133.2C0.5 133.2 0.5 124.7 9 118.1C17.5 111.5 92.4 64.4996 95.7 62.5996C98.5 61.0996 105.3 58.5996 106.9 58.5996C108.6 58.5996 115.4 61.0996 118.1 62.5996C121.4 64.3996 196.4 111.5 204.8 118.1C213.3 124.7 213.3 133.2 213.3 133.2H0.5Z" fill="#E6E6E6"/>
<path opacity="0.4426" d="M0.5 133.3C0.5 133.3 0.5 124.8 9 118.2C17.5 111.6 92.4 64.6002 95.7 62.7002C98.5 61.2002 105.3 58.7002 106.9 58.7002C108.6 58.7002 115.4 61.2002 118.1 62.7002C121.4 64.5002 196.4 111.6 204.8 118.2C213.3 124.8 213.3 133.3 213.3 133.3H0.5Z" fill="#E5E5E5"/>
<path opacity="0.459" d="M0.5 133.4C0.5 133.4 0.5 124.9 9 118.3C17.5 111.7 92.4 64.6998 95.7 62.7998C98.5 61.2998 105.3 58.7998 106.9 58.7998C108.6 58.7998 115.4 61.2998 118.1 62.7998C121.4 64.5998 196.4 111.7 204.8 118.3C213.3 124.9 213.3 133.4 213.3 133.4H0.5Z" fill="#E4E4E4"/>
<path opacity="0.4754" d="M0.5 133.4C0.5 133.4 0.5 124.9 9 118.3C17.5 111.7 92.4 64.6998 95.7 62.7998C98.5 61.2998 105.3 58.7998 106.9 58.7998C108.6 58.7998 115.4 61.2998 118.1 62.7998C121.4 64.5998 196.4 111.7 204.8 118.3C213.3 124.9 213.3 133.4 213.3 133.4H0.5Z" fill="#E3E3E3"/>
<path opacity="0.4918" d="M0.600098 133.5C0.600098 133.5 0.600098 125 9.1001 118.4C17.6001 111.8 92.5001 64.8004 95.8001 62.9004C98.6001 61.4004 105.4 58.9004 107 58.9004C108.7 58.9004 115.5 61.4004 118.2 62.9004C121.5 64.7004 196.5 111.8 204.9 118.4C213.4 125 213.4 133.5 213.4 133.5H0.600098Z" fill="#E2E2E2"/>
<path opacity="0.5082" d="M0.600098 133.6C0.600098 133.6 0.600098 125.1 9.1001 118.5C17.6001 111.9 92.5001 64.9 95.8001 63C98.6001 61.5 105.4 59 107 59C108.7 59 115.5 61.5 118.2 63C121.5 64.8 196.5 111.9 204.9 118.5C213.4 125.1 213.4 133.6 213.4 133.6H0.600098Z" fill="#E1E1E1"/>
<path opacity="0.5246" d="M0.600098 133.6C0.600098 133.6 0.600098 125.1 9.1001 118.5C17.6001 111.9 92.5001 64.9 95.8001 63C98.6001 61.5 105.4 59 107 59C108.7 59 115.5 61.5 118.2 63C121.5 64.8 196.5 111.9 204.9 118.5C213.4 125.1 213.4 133.6 213.4 133.6H0.600098Z" fill="#E0E0E0"/>
<path opacity="0.541" d="M0.600098 133.7C0.600098 133.7 0.600098 125.2 9.1001 118.6C17.6001 112 92.5001 64.9996 95.8001 63.0996C98.6001 61.5996 105.4 59.0996 107 59.0996C108.7 59.0996 115.5 61.5996 118.2 63.0996C121.5 64.8996 196.5 112 204.9 118.6C213.4 125.2 213.4 133.7 213.4 133.7H0.600098Z" fill="#DFDFDF"/>
<path opacity="0.5574" d="M0.600098 133.8C0.600098 133.8 0.600098 125.3 9.1001 118.7C17.6001 112.1 92.5001 65.1002 95.8001 63.2002C98.6001 61.7002 105.4 59.2002 107 59.2002C108.7 59.2002 115.5 61.7002 118.2 63.2002C121.5 65.0002 196.5 112.1 204.9 118.7C213.4 125.3 213.4 133.8 213.4 133.8H0.600098Z" fill="#DEDEDE"/>
<path opacity="0.5738" d="M0.600098 133.9C0.600098 133.9 0.600098 125.4 9.1001 118.8C17.6001 112.2 92.5001 65.1998 95.8001 63.2998C98.6001 61.7998 105.4 59.2998 107 59.2998C108.7 59.2998 115.5 61.7998 118.2 63.2998C121.5 65.0998 196.5 112.2 204.9 118.8C213.4 125.4 213.4 133.9 213.4 133.9H0.600098Z" fill="#DDDDDD"/>
<path opacity="0.5902" d="M0.600098 133.9C0.600098 133.9 0.600098 125.4 9.1001 118.8C17.6001 112.2 92.5001 65.1998 95.8001 63.2998C98.6001 61.7998 105.4 59.2998 107 59.2998C108.7 59.2998 115.5 61.7998 118.2 63.2998C121.5 65.0998 196.5 112.2 204.9 118.8C213.4 125.4 213.4 133.9 213.4 133.9H0.600098Z" fill="#DCDCDC"/>
<path opacity="0.6066" d="M0.700195 134C0.700195 134 0.700195 125.5 9.2002 118.9C17.7002 112.3 92.6002 65.3004 95.9002 63.4004C98.7002 61.9004 105.5 59.4004 107.1 59.4004C108.8 59.4004 115.6 61.9004 118.3 63.4004C121.6 65.2004 196.6 112.3 205 118.9C213.4 125.5 213.4 134 213.4 134H0.700195Z" fill="#DBDBDB"/>
<path opacity="0.623" d="M0.700195 134.1C0.700195 134.1 0.700195 125.6 9.2002 119C17.7002 112.4 92.6002 65.4 95.9002 63.5C98.7002 62 105.5 59.5 107.1 59.5C108.8 59.5 115.6 62 118.3 63.5C121.6 65.3 196.6 112.4 205 119C213.4 125.6 213.4 134.1 213.4 134.1H0.700195Z" fill="#DADADA"/>
<path opacity="0.6393" d="M0.700195 134.2C0.700195 134.2 0.700195 125.7 9.2002 119.1C17.7002 112.5 92.6002 65.4996 95.9002 63.5996C98.7002 62.0996 105.5 59.5996 107.1 59.5996C108.8 59.5996 115.6 62.0996 118.3 63.5996C121.6 65.3996 196.6 112.5 205 119.1C213.4 125.7 213.4 134.2 213.4 134.2H0.700195Z" fill="#D9D9DA"/>
<path opacity="0.6557" d="M0.700195 134.2C0.700195 134.2 0.700195 125.7 9.2002 119.1C17.7002 112.5 92.6002 65.4996 95.9002 63.5996C98.7002 62.0996 105.5 59.5996 107.1 59.5996C108.8 59.5996 115.6 62.0996 118.3 63.5996C121.6 65.3996 196.6 112.5 205 119.1C213.4 125.7 213.4 134.2 213.4 134.2H0.700195Z" fill="#D8D8D9"/>
<path opacity="0.6721" d="M0.700195 134.3C0.700195 134.3 0.700195 125.8 9.2002 119.2C17.7002 112.6 92.6002 65.6002 95.9002 63.7002C98.7002 62.2002 105.5 59.7002 107.1 59.7002C108.8 59.7002 115.6 62.2002 118.3 63.7002C121.6 65.5002 196.6 112.6 205 119.2C213.4 125.8 213.4 134.3 213.4 134.3H0.700195Z" fill="#D7D7D8"/>
<path opacity="0.6885" d="M0.700195 134.4C0.700195 134.4 0.700195 125.9 9.2002 119.3C17.7002 112.7 92.6002 65.6998 95.9002 63.7998C98.7002 62.2998 105.5 59.7998 107.1 59.7998C108.8 59.7998 115.6 62.2998 118.3 63.7998C121.6 65.5998 196.6 112.7 205 119.3C213.4 125.9 213.4 134.4 213.4 134.4H0.700195Z" fill="#D6D6D7"/>
<path opacity="0.7049" d="M0.700195 134.5C0.700195 134.5 0.700195 126 9.2002 119.4C17.7002 112.8 92.6002 65.8004 95.9002 63.9004C98.7002 62.4004 105.5 59.9004 107.1 59.9004C108.8 59.9004 115.6 62.4004 118.3 63.9004C121.6 65.7004 196.6 112.8 205 119.4C213.4 126 213.4 134.5 213.4 134.5H0.700195Z" fill="#D5D5D6"/>
<path opacity="0.7213" d="M0.800049 134.5C0.800049 134.5 0.800049 126 9.30005 119.4C17.8 112.8 92.7001 65.8004 96.0001 63.9004C98.8001 62.4004 105.6 59.9004 107.2 59.9004C108.9 59.9004 115.7 62.4004 118.4 63.9004C121.7 65.7004 196.7 112.8 205.1 119.4C213.5 126 213.5 134.5 213.5 134.5H0.800049Z" fill="#D4D4D5"/>
<path opacity="0.7377" d="M0.800049 134.6C0.800049 134.6 0.800049 126.1 9.30005 119.5C17.8 112.9 92.7001 65.9 96.0001 64C98.8001 62.5 105.6 60 107.2 60C108.9 60 115.7 62.5 118.4 64C121.7 65.8 196.7 112.9 205.1 119.5C213.5 126.1 213.5 134.6 213.5 134.6H0.800049Z" fill="#D3D3D4"/>
<path opacity="0.7541" d="M0.800049 134.7C0.800049 134.7 0.800049 126.2 9.30005 119.6C17.8 113 92.7001 65.9996 96.0001 64.0996C98.8001 62.5996 105.6 60.0996 107.2 60.0996C108.9 60.0996 115.7 62.5996 118.4 64.0996C121.7 65.8996 196.7 113 205.1 119.6C213.5 126.2 213.5 134.7 213.5 134.7H0.800049Z" fill="#D2D2D3"/>
<path opacity="0.7705" d="M0.800049 134.8C0.800049 134.8 0.800049 126.3 9.30005 119.7C17.8 113.1 92.7001 66.1002 96.0001 64.2002C98.8001 62.7002 105.6 60.2002 107.2 60.2002C108.9 60.2002 115.7 62.7002 118.4 64.2002C121.7 66.0002 196.7 113.1 205.1 119.7C213.5 126.3 213.5 134.8 213.5 134.8H0.800049Z" fill="#D1D2D2"/>
<path opacity="0.7869" d="M0.800049 134.8C0.800049 134.8 0.800049 126.3 9.30005 119.7C17.8 113.1 92.7001 66.1002 96.0001 64.2002C98.8001 62.7002 105.6 60.2002 107.2 60.2002C108.9 60.2002 115.7 62.7002 118.4 64.2002C121.7 66.0002 196.7 113.1 205.1 119.7C213.5 126.3 213.5 134.8 213.5 134.8H0.800049Z" fill="#D0D1D1"/>
<path opacity="0.8033" d="M0.800049 134.9C0.800049 134.9 0.800049 126.4 9.30005 119.8C17.8 113.2 92.7001 66.1998 96.0001 64.2998C98.8001 62.7998 105.6 60.2998 107.2 60.2998C108.9 60.2998 115.7 62.7998 118.4 64.2998C121.7 66.0998 196.7 113.2 205.1 119.8C213.5 126.4 213.5 134.9 213.5 134.9H0.800049Z" fill="#CFD0D0"/>
<path opacity="0.8197" d="M0.900146 135C0.900146 135 0.900146 126.5 9.40015 119.9C17.9001 113.3 92.8001 66.3004 96.1001 64.4004C98.9001 62.9004 105.7 60.4004 107.3 60.4004C109 60.4004 115.8 62.9004 118.5 64.4004C121.8 66.2004 196.8 113.3 205.2 119.9C213.6 126.5 213.6 135 213.6 135H0.900146Z" fill="#CECFCF"/>
<path opacity="0.8361" d="M0.900146 135.1C0.900146 135.1 0.900146 126.6 9.40015 120C17.9001 113.4 92.8001 66.4 96.1001 64.5C98.9001 63 105.7 60.5 107.3 60.5C109 60.5 115.8 63 118.5 64.5C121.8 66.3 196.8 113.4 205.2 120C213.6 126.6 213.6 135.1 213.6 135.1H0.900146Z" fill="#CDCECE"/>
<path opacity="0.8525" d="M0.900146 135.1C0.900146 135.1 0.900146 126.6 9.40015 120C17.9001 113.4 92.8001 66.4 96.1001 64.5C98.9001 63 105.7 60.5 107.3 60.5C109 60.5 115.8 63 118.5 64.5C121.8 66.3 196.8 113.4 205.2 120C213.6 126.6 213.6 135.1 213.6 135.1H0.900146Z" fill="#CCCDCD"/>
<path opacity="0.8689" d="M0.900146 135.2C0.900146 135.2 0.900146 126.7 9.40015 120.1C17.9001 113.5 92.8001 66.4996 96.1001 64.5996C98.9001 63.0996 105.7 60.5996 107.3 60.5996C109 60.5996 115.8 63.0996 118.5 64.5996C121.8 66.3996 196.8 113.5 205.2 120.1C213.6 126.7 213.6 135.2 213.6 135.2H0.900146Z" fill="#CBCCCC"/>
<path opacity="0.8852" d="M0.900146 135.3C0.900146 135.3 0.900146 126.8 9.40015 120.2C17.9001 113.6 92.8001 66.6002 96.1001 64.7002C98.9001 63.2002 105.7 60.7002 107.3 60.7002C109 60.7002 115.8 63.2002 118.5 64.7002C121.8 66.5002 196.8 113.6 205.2 120.2C213.6 126.8 213.6 135.3 213.6 135.3H0.900146Z" fill="#CACBCB"/>
<path opacity="0.9016" d="M0.900146 135.4C0.900146 135.4 0.900146 126.9 9.40015 120.3C17.9001 113.7 92.8001 66.6998 96.1001 64.7998C98.9001 63.2998 105.7 60.7998 107.3 60.7998C109 60.7998 115.8 63.2998 118.5 64.7998C121.8 66.5998 196.8 113.7 205.2 120.3C213.6 126.9 213.6 135.4 213.6 135.4H0.900146Z" fill="#C9CACA"/>
<path opacity="0.918" d="M0.900146 135.4C0.900146 135.4 0.900146 126.9 9.40015 120.3C17.9001 113.7 92.8001 66.6998 96.1001 64.7998C98.9001 63.2998 105.7 60.7998 107.3 60.7998C109 60.7998 115.8 63.2998 118.5 64.7998C121.8 66.5998 196.8 113.7 205.2 120.3C213.6 126.9 213.6 135.4 213.6 135.4H0.900146Z" fill="#C8C9C9"/>
<path opacity="0.9344" d="M1 135.5C1 135.5 1 127 9.5 120.4C18 113.8 92.9 66.8004 96.2 64.9004C99 63.4004 105.8 60.9004 107.4 60.9004C109.1 60.9004 115.9 63.4004 118.6 64.9004C121.9 66.7004 196.9 113.8 205.3 120.4C213.7 127 213.7 135.5 213.7 135.5H1Z" fill="#C7C8C8"/>
<path opacity="0.9508" d="M1 135.6C1 135.6 1 127.1 9.5 120.5C18 113.9 92.9 66.9 96.2 65C99 63.5 105.8 61 107.4 61C109.1 61 115.9 63.5 118.6 65C121.9 66.8 196.9 113.9 205.3 120.5C213.7 127.1 213.7 135.6 213.7 135.6H1Z" fill="#C6C7C7"/>
<path opacity="0.9672" d="M1 135.7C1 135.7 1 127.2 9.5 120.6C18 114 92.9 66.9996 96.2 65.0996C99 63.5996 105.8 61.0996 107.4 61.0996C109.1 61.0996 115.9 63.5996 118.6 65.0996C121.9 66.8996 196.9 114 205.3 120.6C213.7 127.2 213.7 135.7 213.7 135.7H1Z" fill="#C5C6C6"/>
<path opacity="0.9836" d="M1 135.7C1 135.7 1 127.2 9.5 120.6C18 114 92.9 66.9996 96.2 65.0996C99 63.5996 105.8 61.0996 107.4 61.0996C109.1 61.0996 115.9 63.5996 118.6 65.0996C121.9 66.8996 196.9 114 205.3 120.6C213.7 127.2 213.7 135.7 213.7 135.7H1Z" fill="#C4C5C5"/>
<path d="M1 135.8C1 135.8 1 127.3 9.5 120.7C18 114.1 92.9 67.1002 96.2 65.2002C99 63.7002 105.8 61.2002 107.4 61.2002C109.1 61.2002 115.9 63.7002 118.6 65.2002C121.9 67.0002 196.9 114.1 205.3 120.7C213.7 127.3 213.7 135.8 213.7 135.8H1Z" fill="#B0B0B0"/>
<path d="M1 135.8C1 135.8 1 127.3 9.5 120.7C18 114.1 92.9 67.1002 96.2 65.2002C99 63.7002 103.8 61.2002 107.4 61.2002C111 61.2002 115.9 63.7002 118.6 65.2002C121.9 67.0002 196.9 114.1 205.3 120.7C213.7 127.3 213.7 135.8 213.7 135.8H1Z" fill="url(#paint1_linear)"/>
<path opacity="0.0163934" d="M214.2 4.5C214.2 4.5 214.2 19 205.7 26.2C197.2 33.4 122.3 80.8 119 82.8C116.2 84.5 109.4 87.2 107.8 87.2C106.1 87.2 99.2999 84.5 96.5999 82.8C93.2999 80.8 18.2999 33.4 9.8999 26.2C1.3999 19 1.3999 4.5 1.3999 4.5H214.2Z" fill="#FEFEFE"/>
<path opacity="0.0327869" d="M214.2 4.40039C214.2 4.40039 214.2 18.8004 205.7 26.0004C197.2 33.2004 122.3 80.6004 119 82.6004C116.2 84.3004 109.4 86.9004 107.8 86.9004C106.1 86.9004 99.2999 84.2004 96.5999 82.6004C93.2999 80.6004 18.2999 33.2004 9.8999 26.0004C1.3999 18.8004 1.3999 4.40039 1.3999 4.40039H214.2Z" fill="#FDFDFD"/>
<path opacity="0.0491803" d="M214.2 4.40039C214.2 4.40039 214.2 18.7004 205.7 25.9004C197.2 33.1004 122.3 80.5004 119 82.5004C116.2 84.2004 109.4 86.8004 107.8 86.8004C106.1 86.8004 99.2999 84.1004 96.5999 82.5004C93.2999 80.5004 18.2999 33.1004 9.8999 25.9004C1.3999 18.7004 1.3999 4.40039 1.3999 4.40039H214.2Z" fill="#FCFCFC"/>
<path opacity="0.0655738" d="M214.2 4.2998C214.2 4.2998 214.2 18.4998 205.7 25.6998C197.2 32.7998 122.3 80.2998 119 82.2998C116.2 83.9998 109.4 86.5998 107.8 86.5998C106.1 86.5998 99.2999 83.8998 96.5999 82.2998C93.2999 80.2998 18.2999 32.8998 9.8999 25.6998C1.3999 18.4998 1.3999 4.2998 1.3999 4.2998H214.2Z" fill="#FBFBFB"/>
<path opacity="0.0819672" d="M214.1 4.2002C214.1 4.2002 214.1 18.3002 205.6 25.5002C197.1 32.6002 122.2 80.1002 118.9 82.0002C116.1 83.7002 109.3 86.3002 107.7 86.3002C106 86.3002 99.2001 83.6002 96.5001 82.0002C93.2001 80.0002 18.2 32.6002 9.80005 25.5002C1.30005 18.4002 1.30005 4.2002 1.30005 4.2002H214.1Z" fill="#FAFAFA"/>
<path opacity="0.0983607" d="M214.1 4.09961C214.1 4.09961 214.1 18.0996 205.6 25.2996C197.1 32.3996 122.2 79.7996 118.9 81.7996C116.1 83.3996 109.3 86.0996 107.7 86.0996C106 86.0996 99.2001 83.3996 96.5001 81.7996C93.2001 79.7996 18.2 32.3996 9.80005 25.2996C1.30005 18.1996 1.30005 4.09961 1.30005 4.09961H214.1Z" fill="#F9F9F9"/>
<path opacity="0.1148" d="M214.1 4.09961C214.1 4.09961 214.1 17.9996 205.6 25.1996C197.1 32.2996 122.2 79.6996 118.9 81.6996C116.1 83.2996 109.3 85.9996 107.7 85.9996C106 85.9996 99.2001 83.2996 96.5001 81.6996C93.2001 79.6996 18.2 32.2996 9.80005 25.1996C1.30005 18.0996 1.30005 4.09961 1.30005 4.09961H214.1Z" fill="#F8F8F8"/>
<path opacity="0.1311" d="M214.1 4C214.1 4 214.1 17.8 205.6 24.9C197.1 32 122.2 79.4 118.9 81.4C116.1 83 109.3 85.7 107.7 85.7C106 85.7 99.2001 83 96.5001 81.4C93.2001 79.4 18.2 32 9.80005 24.9C1.30005 17.8 1.30005 4 1.30005 4H214.1Z" fill="#F7F7F7"/>
<path opacity="0.1475" d="M214.1 3.90039C214.1 3.90039 214.1 17.6004 205.6 24.7004C197.1 31.8004 122.2 79.2004 118.9 81.2004C116.1 82.8004 109.3 85.5004 107.7 85.5004C106 85.5004 99.2001 82.8004 96.5001 81.2004C93.2001 79.2004 18.2 31.8004 9.80005 24.7004C1.30005 17.6004 1.30005 3.90039 1.30005 3.90039H214.1Z" fill="#F6F6F6"/>
<path opacity="0.1639" d="M214.1 3.7998C214.1 3.7998 214.1 17.3998 205.6 24.4998C197.1 31.5998 122.2 78.9998 118.9 80.8998C116.1 82.4998 109.3 85.1998 107.7 85.1998C106 85.1998 99.2001 82.4998 96.5001 80.8998C93.2001 78.8998 18.2 31.4998 9.80005 24.4998C1.30005 17.3998 1.30005 3.7998 1.30005 3.7998H214.1Z" fill="#F5F5F5"/>
<path opacity="0.1803" d="M214.1 3.7998C214.1 3.7998 214.1 17.2998 205.6 24.3998C197.1 31.4998 122.2 78.8998 118.9 80.7998C116.1 82.3998 109.3 85.0998 107.7 85.0998C106 85.0998 99.2001 82.3998 96.5001 80.7998C93.2001 78.7998 18.2 31.4998 9.80005 24.3998C1.30005 17.2998 1.30005 3.7998 1.30005 3.7998H214.1Z" fill="#F4F4F4"/>
<path opacity="0.1967" d="M214 3.7002C214 3.7002 214 17.1002 205.5 24.2002C197 31.3002 122.1 78.6002 118.8 80.6002C116 82.2002 109.2 84.9002 107.6 84.9002C105.9 84.9002 99.0999 82.2002 96.3999 80.6002C93.0999 78.6002 18.1 31.3002 9.69995 24.2002C1.19995 17.1002 1.19995 3.7002 1.19995 3.7002H214Z" fill="#F3F3F3"/>
<path opacity="0.2131" d="M214 3.59961C214 3.59961 214 16.8996 205.5 23.9996C197 31.0996 122.1 78.3996 118.8 80.3996C116 81.9996 109.2 84.6996 107.6 84.6996C105.9 84.6996 99.0999 81.9996 96.3999 80.3996C93.0999 78.3996 18.1 31.0996 9.69995 23.9996C1.19995 16.8996 1.19995 3.59961 1.19995 3.59961H214Z" fill="#F2F2F3"/>
<path opacity="0.2295" d="M214 3.5C214 3.5 214 16.7 205.5 23.8C197 30.9 122.1 78.2 118.8 80.2C116 81.8 109.2 84.5 107.6 84.5C105.9 84.5 99.0999 81.8 96.3999 80.2C93.0999 78.2 18.1 30.9 9.69995 23.8C1.19995 16.7 1.19995 3.5 1.19995 3.5H214Z" fill="#F1F1F2"/>
<path opacity="0.2459" d="M214 3.5C214 3.5 214 16.6 205.5 23.7C197 30.7 122.1 78.1 118.8 80.1C116 81.7 109.2 84.4 107.6 84.4C105.9 84.4 99.0999 81.8 96.3999 80.1C93.0999 78.1 18.1 30.8 9.69995 23.7C1.19995 16.7 1.19995 3.5 1.19995 3.5H214Z" fill="#F0F0F1"/>
<path opacity="0.2623" d="M214 3.40039C214 3.40039 214 16.4004 205.5 23.5004C197 30.5004 122.1 77.9004 118.8 79.8004C116 81.4004 109.2 84.1004 107.6 84.1004C105.9 84.1004 99.0999 81.5004 96.3999 79.8004C93.0999 77.8004 18.1 30.5004 9.69995 23.5004C1.19995 16.5004 1.19995 3.40039 1.19995 3.40039H214Z" fill="#EFF0F0"/>
<path opacity="0.2787" d="M214 3.2998C214 3.2998 214 16.1998 205.5 23.1998C197 30.1998 122.1 77.5998 118.8 79.4998C116 81.0998 109.2 83.7998 107.6 83.7998C105.9 83.7998 99.0999 81.1998 96.3999 79.4998C93.0999 77.4998 18.1 30.1998 9.69995 23.1998C1.19995 16.1998 1.19995 3.2998 1.19995 3.2998H214Z" fill="#EEEFEF"/>
<path opacity="0.2951" d="M213.9 3.2002C213.9 3.2002 213.9 16.0002 205.4 23.0002C196.9 30.0002 122 77.3002 118.7 79.3002C115.9 80.9002 109.1 83.6002 107.5 83.6002C105.8 83.6002 99.0001 81.0002 96.3001 79.3002C93.0001 77.4002 18.0001 30.0002 9.6001 23.0002C1.1001 16.0002 1.1001 3.2002 1.1001 3.2002H213.9Z" fill="#EDEEEE"/>
<path opacity="0.3115" d="M213.9 3.2002C213.9 3.2002 213.9 15.9002 205.4 22.9002C196.9 29.9002 122 77.2002 118.7 79.2002C115.9 80.8002 109.1 83.5002 107.5 83.5002C105.8 83.5002 99.0001 80.9002 96.3001 79.2002C93.0001 77.3002 18.0001 29.9002 9.6001 22.9002C1.1001 15.9002 1.1001 3.2002 1.1001 3.2002H213.9Z" fill="#ECEDED"/>
<path opacity="0.3279" d="M213.9 3.09961C213.9 3.09961 213.9 15.6996 205.4 22.6996C196.9 29.6996 122 76.9996 118.7 78.9996C115.9 80.5996 109.1 83.1996 107.5 83.1996C105.8 83.1996 99.0001 80.5996 96.3001 78.9996C93.0001 77.0996 18.0001 29.6996 9.6001 22.6996C1.1001 15.6996 1.1001 3.09961 1.1001 3.09961H213.9Z" fill="#EBECEC"/>
<path opacity="0.3443" d="M213.9 3C213.9 3 213.9 15.5 205.4 22.5C196.9 29.5 122 76.8 118.7 78.7C115.9 80.3 109.1 82.9 107.5 82.9C105.8 82.9 99.0001 80.3 96.3001 78.7C93.0001 76.8 18.0001 29.4 9.6001 22.5C1.1001 15.5 1.1001 3 1.1001 3H213.9Z" fill="#EAEBEB"/>
<path opacity="0.3607" d="M213.9 2.90039C213.9 2.90039 213.9 15.3004 205.4 22.3004C196.9 29.3004 122 76.6004 118.7 78.5004C115.9 80.1004 109.1 82.7004 107.5 82.7004C105.8 82.7004 99.0001 80.1004 96.3001 78.5004C93.0001 76.6004 18.0001 29.3004 9.6001 22.3004C1.1001 15.3004 1.1001 2.90039 1.1001 2.90039H213.9Z" fill="#E9EAEA"/>
<path opacity="0.377" d="M213.9 2.90039C213.9 2.90039 213.9 15.2004 205.4 22.2004C196.9 29.2004 122 76.5004 118.7 78.4004C115.9 80.0004 109.1 82.6004 107.5 82.6004C105.8 82.6004 99.0001 80.0004 96.3001 78.4004C93.0001 76.5004 18.0001 29.2004 9.6001 22.2004C1.1001 15.2004 1.1001 2.90039 1.1001 2.90039H213.9Z" fill="#E9E9E9"/>
<path opacity="0.3934" d="M213.9 2.7998C213.9 2.7998 213.9 14.9998 205.4 21.9998C196.9 28.9998 122 76.2998 118.7 78.1998C115.9 79.7998 109.1 82.3998 107.5 82.3998C105.8 82.3998 99.0001 79.7998 96.3001 78.1998C93.0001 76.2998 18.0001 28.9998 9.6001 21.9998C1.1001 14.9998 1.1001 2.7998 1.1001 2.7998H213.9Z" fill="#E8E8E8"/>
<path opacity="0.4098" d="M213.8 2.7002C213.8 2.7002 213.8 14.8002 205.3 21.8002C196.8 28.8002 121.9 76.0002 118.6 78.0002C115.8 79.6002 109 82.2002 107.4 82.2002C105.7 82.2002 98.9 79.6002 96.2 78.0002C92.9 76.1002 17.9 28.8002 9.5 21.8002C1 14.8002 1 2.7002 1 2.7002H213.8Z" fill="#E7E7E7"/>
<path opacity="0.4262" d="M213.8 2.59961C213.8 2.59961 213.8 14.5996 205.3 21.4996C196.8 28.3996 121.9 75.6996 118.6 77.5996C115.8 79.1996 109 81.7996 107.4 81.7996C105.7 81.7996 98.9 79.1996 96.2 77.5996C92.9 75.6996 17.9 28.3996 9.5 21.4996C1 14.5996 1 2.59961 1 2.59961H213.8Z" fill="#E6E6E6"/>
<path opacity="0.4426" d="M213.8 2.59961C213.8 2.59961 213.8 14.4996 205.3 21.3996C196.8 28.2996 121.9 75.5996 118.6 77.4996C115.8 79.0996 109 81.6996 107.4 81.6996C105.7 81.6996 98.9 79.0996 96.2 77.4996C92.9 75.5996 18 28.2996 9.5 21.3996C1 14.4996 1 2.59961 1 2.59961H213.8Z" fill="#E5E5E5"/>
<path opacity="0.459" d="M213.8 2.5C213.8 2.5 213.8 14.3 205.3 21.2C196.8 28.1 121.9 75.4 118.6 77.3C115.8 78.9 109 81.5 107.4 81.5C105.7 81.5 98.9 78.9 96.2 77.3C92.9 75.4 17.9 28.1 9.5 21.2C1 14.3 1 2.5 1 2.5H213.8Z" fill="#E4E4E4"/>
<path opacity="0.4754" d="M213.8 2.40039C213.8 2.40039 213.8 14.1004 205.3 21.0004C196.8 27.9004 121.9 75.2004 118.6 77.1004C115.8 78.7004 109 81.3004 107.4 81.3004C105.7 81.3004 98.9 78.7004 96.2 77.1004C92.9 75.2004 17.9 27.9004 9.5 21.0004C1 14.1004 1 2.40039 1 2.40039H213.8Z" fill="#E3E3E3"/>
<path opacity="0.4918" d="M213.8 2.2998C213.8 2.2998 213.8 13.8998 205.3 20.7998C196.8 27.6998 121.9 74.9998 118.6 76.8998C115.8 78.4998 109 81.0998 107.4 81.0998C105.7 81.0998 98.9 78.4998 96.2 76.8998C92.9 74.9998 17.9 27.6998 9.5 20.7998C1 13.8998 1 2.2998 1 2.2998H213.8Z" fill="#E2E2E2"/>
<path opacity="0.5082" d="M213.8 2.2998C213.8 2.2998 213.8 13.7998 205.3 20.6998C196.8 27.5998 121.9 74.7998 118.6 76.7998C115.8 78.3998 109 80.9998 107.4 80.9998C105.7 80.9998 98.9 78.3998 96.2 76.7998C92.9 74.7998 17.9 27.4998 9.5 20.6998C1 13.7998 1 2.2998 1 2.2998H213.8Z" fill="#E1E1E1"/>
<path opacity="0.5246" d="M213.7 2.2002C213.7 2.2002 213.7 13.6002 205.2 20.5002C196.7 27.4002 121.8 74.6002 118.5 76.5002C115.7 78.1002 108.9 80.7002 107.3 80.7002C105.6 80.7002 98.7999 78.1002 96.0999 76.5002C92.7999 74.6002 17.7999 27.4002 9.3999 20.5002C0.899902 13.6002 0.899902 2.2002 0.899902 2.2002H213.7Z" fill="#E0E0E0"/>
<path opacity="0.541" d="M213.7 2.09961C213.7 2.09961 213.7 13.3996 205.2 20.2996C196.7 27.1996 121.8 74.3996 118.5 76.2996C115.7 77.8996 108.9 80.4996 107.3 80.4996C105.6 80.4996 98.7999 77.8996 96.0999 76.2996C92.7999 74.3996 17.7999 27.1996 9.3999 20.2996C0.899902 13.3996 0.899902 2.09961 0.899902 2.09961H213.7Z" fill="#DFDFDF"/>
<path opacity="0.5574" d="M213.7 2C213.7 2 213.7 13.2 205.2 20.1C196.7 27 121.8 74.2 118.5 76.1C115.7 77.7 108.9 80.3 107.3 80.3C105.6 80.3 98.7999 77.7 96.0999 76.1C92.7999 74.2 17.7999 27 9.3999 20.1C0.899902 13.2 0.899902 2 0.899902 2H213.7Z" fill="#DEDEDE"/>
<path opacity="0.5738" d="M213.7 2C213.7 2 213.7 13.1 205.2 19.9C196.7 26.8 121.8 74 118.5 75.9C115.7 77.5 108.9 80.1 107.3 80.1C105.6 80.1 98.7999 77.5 96.0999 75.9C92.7999 74 17.7999 26.8 9.3999 19.9C0.899902 13 0.899902 2 0.899902 2H213.7Z" fill="#DDDDDD"/>
<path opacity="0.5902" d="M213.7 1.90039C213.7 1.90039 213.7 12.9004 205.2 19.7004C196.7 26.5004 121.8 73.8004 118.5 75.7004C115.7 77.3004 108.9 79.9004 107.3 79.9004C105.6 79.9004 98.7999 77.3004 96.0999 75.7004C92.7999 73.8004 17.7999 26.6004 9.3999 19.7004C0.899902 12.9004 0.899902 1.90039 0.899902 1.90039H213.7Z" fill="#DCDCDC"/>
<path opacity="0.6066" d="M213.7 1.7998C213.7 1.7998 213.7 12.6998 205.2 19.4998C196.7 26.2998 121.8 73.4998 118.5 75.3998C115.7 76.9998 108.9 79.5998 107.3 79.5998C105.6 79.5998 98.7999 76.9998 96.0999 75.3998C92.7999 73.4998 17.7999 26.2998 9.3999 19.4998C0.899902 12.6998 0.899902 1.7998 0.899902 1.7998H213.7Z" fill="#DBDBDB"/>
<path opacity="0.623" d="M213.6 1.7002C213.6 1.7002 213.6 12.5002 205.1 19.3002C196.6 26.1002 121.7 73.3002 118.4 75.2002C115.6 76.8002 108.8 79.3002 107.2 79.3002C105.5 79.3002 98.6999 76.7002 95.9999 75.2002C92.6999 73.3002 17.6999 26.1002 9.2999 19.3002C0.899904 12.5002 0.899902 1.7002 0.899902 1.7002H213.6Z" fill="#DADADA"/>
<path opacity="0.6393" d="M213.6 1.7002C213.6 1.7002 213.6 12.4002 205.1 19.2002C196.6 26.0002 121.7 73.2002 118.4 75.1002C115.6 76.7002 108.8 79.2002 107.2 79.2002C105.5 79.2002 98.6999 76.6002 95.9999 75.1002C92.6999 73.2002 17.6999 26.0002 9.2999 19.2002C0.899904 12.3002 0.899902 1.7002 0.899902 1.7002H213.6Z" fill="#D9D9DA"/>
<path opacity="0.6557" d="M213.6 1.59961C213.6 1.59961 213.6 12.1996 205.1 18.9996C196.6 25.7996 121.7 72.9996 118.4 74.8996C115.6 76.4996 108.8 78.9996 107.2 78.9996C105.5 78.9996 98.6999 76.3996 95.9999 74.8996C92.6999 72.9996 17.6999 25.7996 9.2999 18.9996C0.899904 12.1996 0.899902 1.59961 0.899902 1.59961H213.6Z" fill="#D8D8D9"/>
<path opacity="0.6721" d="M213.6 1.5C213.6 1.5 213.6 12 205.1 18.8C196.6 25.6 121.7 72.8 118.4 74.7C115.6 76.3 108.8 78.8 107.2 78.8C105.5 78.8 98.6999 76.2 95.9999 74.7C92.6999 72.8 17.6999 25.6 9.2999 18.8C0.899904 12 0.899902 1.5 0.899902 1.5H213.6Z" fill="#D7D7D8"/>
<path opacity="0.6885" d="M213.6 1.40039C213.6 1.40039 213.6 11.8004 205.1 18.6004C196.6 25.4004 121.7 72.6004 118.4 74.4004C115.6 76.0004 108.8 78.5004 107.2 78.5004C105.5 78.5004 98.7001 75.9004 96.0001 74.4004C92.7001 72.5004 17.7 25.3004 9.30005 18.6004C0.800049 11.8004 0.800049 1.40039 0.800049 1.40039H213.6Z" fill="#D6D6D7"/>
<path opacity="0.7049" d="M213.6 1.40039C213.6 1.40039 213.6 11.7004 205.1 18.5004C196.6 25.3004 121.7 72.4004 118.4 74.3004C115.6 75.9004 108.8 78.4004 107.2 78.4004C105.5 78.4004 98.7001 75.9004 96.0001 74.3004C92.7001 72.4004 17.7 25.3004 9.30005 18.5004C0.800049 11.7004 0.800049 1.40039 0.800049 1.40039H213.6Z" fill="#D5D5D6"/>
<path opacity="0.7213" d="M213.6 1.2998C213.6 1.2998 213.6 11.4998 205.1 18.2998C196.6 25.0998 121.7 72.1998 118.4 74.0998C115.6 75.6998 108.8 78.1998 107.2 78.1998C105.5 78.1998 98.7001 75.6998 96.0001 74.0998C92.7001 72.1998 17.7 25.0998 9.30005 18.2998C0.800049 11.4998 0.800049 1.2998 0.800049 1.2998H213.6Z" fill="#D4D4D5"/>
<path opacity="0.7377" d="M213.5 1.2002C213.5 1.2002 213.5 11.3002 205 18.0002C196.5 24.8002 121.6 71.9002 118.3 73.8002C115.5 75.4002 108.7 77.9002 107.1 77.9002C105.4 77.9002 98.5999 75.4002 95.8999 73.8002C92.5999 71.9002 17.6 24.8002 9.19995 18.0002C0.699951 11.2002 0.699951 1.2002 0.699951 1.2002H213.5Z" fill="#D3D3D4"/>
<path opacity="0.7541" d="M213.5 1.09961C213.5 1.09961 213.5 11.0996 205 17.7996C196.5 24.5996 121.6 71.6996 118.3 73.5996C115.5 75.1996 108.7 77.6996 107.1 77.6996C105.4 77.6996 98.5999 75.1996 95.8999 73.5996C92.5999 71.6996 17.6 24.5996 9.19995 17.7996C0.699951 10.9996 0.699951 1.09961 0.699951 1.09961H213.5Z" fill="#D2D2D3"/>
<path opacity="0.7705" d="M213.5 1.09961C213.5 1.09961 213.5 10.9996 205 17.6996C196.5 24.3996 121.6 71.5996 118.3 73.3996C115.5 74.9996 108.7 77.4996 107.1 77.4996C105.4 77.4996 98.5999 74.9996 95.8999 73.3996C92.5999 71.4996 17.6 24.3996 9.19995 17.6996C0.699951 10.9996 0.699951 1.09961 0.699951 1.09961H213.5Z" fill="#D1D2D2"/>
<path opacity="0.7869" d="M213.5 1C213.5 1 213.5 10.8 205 17.5C196.5 24.2 121.6 71.4 118.3 73.2C115.5 74.8 108.7 77.3 107.1 77.3C105.4 77.3 98.5999 74.8 95.8999 73.2C92.5999 71.3 17.6 24.2 9.19995 17.5C0.699951 10.8 0.699951 1 0.699951 1H213.5Z" fill="#D0D1D1"/>
<path opacity="0.8033" d="M213.5 0.900391C213.5 0.900391 213.5 10.6004 205 17.3004C196.5 24.0004 121.6 71.1004 118.3 73.0004C115.5 74.6004 108.7 77.1004 107.1 77.1004C105.4 77.1004 98.5999 74.6004 95.8999 73.0004C92.5999 71.1004 17.6 24.0004 9.19995 17.3004C0.699951 10.6004 0.699951 0.900391 0.699951 0.900391H213.5Z" fill="#CFD0D0"/>
<path opacity="0.8197" d="M213.5 0.799805C213.5 0.799805 213.5 10.3998 205 17.0998C196.5 23.7998 121.6 70.8998 118.3 72.7998C115.5 74.3998 108.7 76.8998 107.1 76.8998C105.4 76.8998 98.5999 74.3998 95.8999 72.7998C92.5999 70.8998 17.6 23.7998 9.19995 17.0998C0.699951 10.3998 0.699951 0.799805 0.699951 0.799805H213.5Z" fill="#CECFCF"/>
<path opacity="0.8361" d="M213.5 0.799805C213.5 0.799805 213.5 10.2998 205 16.9998C196.5 23.6998 121.6 70.7998 118.3 72.6998C115.5 74.2998 108.7 76.7998 107.1 76.7998C105.4 76.7998 98.5999 74.2998 95.8999 72.6998C92.5999 70.7998 17.6 23.6998 9.19995 16.9998C0.699951 10.2998 0.699951 0.799805 0.699951 0.799805H213.5Z" fill="#CDCECE"/>
<path opacity="0.8525" d="M213.4 0.700195C213.4 0.700195 213.4 10.1002 204.9 16.8002C196.4 23.5002 121.5 70.6002 118.2 72.5002C115.4 74.0002 108.6 76.6002 107 76.6002C105.3 76.6002 98.5001 74.1002 95.8001 72.5002C92.5001 70.6002 17.5001 23.5002 9.1001 16.8002C0.600098 10.1002 0.600098 0.700195 0.600098 0.700195H213.4Z" fill="#CCCDCD"/>
<path opacity="0.8689" d="M213.4 0.599609C213.4 0.599609 213.4 9.89961 204.9 16.5996C196.4 23.2996 121.5 70.3996 118.2 72.1996C115.4 73.6996 108.6 76.2996 107 76.2996C105.3 76.2996 98.5001 73.7996 95.8001 72.1996C92.5001 70.2996 17.6001 23.2996 9.1001 16.5996C0.600098 9.89961 0.600098 0.599609 0.600098 0.599609H213.4Z" fill="#CBCCCC"/>
<path opacity="0.8852" d="M213.4 0.5C213.4 0.5 213.4 9.7 204.9 16.3C196.4 23 121.5 70.1 118.2 71.9C115.4 73.4 108.6 76 107 76C105.3 76 98.5001 73.5 95.8001 71.9C92.5001 70 17.5001 23 9.1001 16.3C0.600098 9.6 0.600098 0.5 0.600098 0.5H213.4Z" fill="#CACBCB"/>
<path opacity="0.9016" d="M213.4 0.5C213.4 0.5 213.4 9.6 204.9 16.2C196.4 22.9 121.5 69.9 118.2 71.8C115.4 73.3 108.6 75.8 107 75.8C105.3 75.8 98.5001 73.3 95.8001 71.8C92.5001 69.9 17.5001 22.9 9.1001 16.2C0.600098 9.5 0.600098 0.5 0.600098 0.5H213.4Z" fill="#C9CACA"/>
<path opacity="0.918" d="M213.4 0.400391C213.4 0.400391 213.4 9.40039 204.9 16.0004C196.4 22.7004 121.5 69.7004 118.2 71.6004C115.4 73.1004 108.6 75.6004 107 75.6004C105.3 75.6004 98.5001 73.1004 95.8001 71.6004C92.5001 69.8004 17.5001 22.7004 9.1001 16.0004C0.600098 9.30039 0.600098 0.400391 0.600098 0.400391H213.4Z" fill="#C8C9C9"/>
<path opacity="0.9344" d="M213.4 0.299805C213.4 0.299805 213.4 9.1998 204.9 15.7998C196.4 22.4998 121.5 69.4998 118.2 71.3998C115.4 72.8998 108.6 75.3998 107 75.3998C105.3 75.3998 98.5001 72.8998 95.8001 71.3998C92.5001 69.5998 17.5001 22.4998 9.1001 15.7998C0.600098 9.1998 0.600098 0.299805 0.600098 0.299805H213.4Z" fill="#C7C8C8"/>
<path opacity="0.9508" d="M213.3 0.200195C213.3 0.200195 213.3 9.00019 204.8 15.6002C196.3 22.2002 121.4 69.3002 118.1 71.1002C115.3 72.6002 108.5 75.1002 106.9 75.1002C105.2 75.1002 98.4001 72.6002 95.7001 71.1002C92.5001 69.3002 17.5001 22.3002 9.1001 15.6002C0.600098 9.00019 0.600098 0.200195 0.600098 0.200195H213.3Z" fill="#C6C7C7"/>
<path opacity="0.9672" d="M213.3 0.200195C213.3 0.200195 213.3 8.90019 204.8 15.5002C196.3 22.1002 121.4 69.2002 118.1 71.0002C115.3 72.5002 108.5 75.0002 106.9 75.0002C105.2 75.0002 98.4 72.5002 95.7 71.0002C92.4 69.2002 17.4 22.1002 9 15.5002C0.5 8.90019 0.5 0.200195 0.5 0.200195H213.3Z" fill="#C5C6C6"/>
<path opacity="0.9836" d="M213.3 0.0996094C213.3 0.0996094 213.3 8.69961 204.8 15.2996C196.3 21.8996 121.4 68.9996 118.1 70.7996C115.3 72.2996 108.5 74.7996 106.9 74.7996C105.2 74.7996 98.4 72.2996 95.7 70.7996C92.4 68.9996 17.4 21.8996 9 15.2996C0.5 8.69961 0.5 0.0996094 0.5 0.0996094H213.3Z" fill="#C4C5C5"/>
<path d="M213.3 0C213.3 0 213.3 8.5 204.8 15.1C196.3 21.7 121.4 68.7 118.1 70.6C115.3 72.1 108.5 74.6 106.9 74.6C105.2 74.6 98.4 72.1 95.7 70.6C92.4 68.8 17.4 21.7 9 15.1C0.5 8.5 0.5 0 0.5 0H213.3Z" fill="#B0B0B0"/>
<path d="M213.3 0C213.3 0 213.3 8.5 204.8 15.1C196.3 21.7 121.4 68.7 118.1 70.6C115.3 72.1 110.5 74.6 106.9 74.6C103.3 74.6 98.4 72.1 95.7 70.6C92.4 68.8 17.4 21.7 9 15.1C0.5 8.5 0.5 0 0.5 0H213.3Z" fill="url(#paint2_linear)"/>
<circle cx="105.6" cy="71.5" r="49.5" fill="#FFD34F"/>
<path d="M122.991 100H81.5454V89.8438L95.4907 75.7422C99.4751 71.5755 102.079 68.737 103.303 67.2266C104.527 65.6901 105.374 64.375 105.842 63.2812C106.337 62.1875 106.584 61.0417 106.584 59.8438C106.584 58.3594 106.103 57.1875 105.139 56.3281C104.176 55.4688 102.821 55.0391 101.077 55.0391C99.2798 55.0391 97.4569 55.5599 95.6079 56.6016C93.785 57.6172 91.7147 59.1276 89.397 61.1328L80.9204 51.2109C83.8631 48.5807 86.3371 46.7057 88.3423 45.5859C90.3475 44.4401 92.522 43.5677 94.8657 42.9688C97.2355 42.3698 99.8918 42.0703 102.834 42.0703C106.532 42.0703 109.827 42.7214 112.717 44.0234C115.634 45.3255 117.887 47.1875 119.475 49.6094C121.09 52.0052 121.897 54.7005 121.897 57.6953C121.897 59.9349 121.611 62.0052 121.038 63.9062C120.491 65.8073 119.631 67.6823 118.459 69.5312C117.288 71.3542 115.725 73.2812 113.772 75.3125C111.845 77.3438 107.717 81.1979 101.389 86.875V87.2656H122.991V100Z" fill="url(#paint3_linear)"/>
<defs>
<linearGradient id="paint0_linear" x1="106.934" y1="0.0203" x2="106.934" y2="135.813" gradientUnits="userSpaceOnUse">
<stop stop-color="#D5D5D0"/>
<stop offset="0.1161" stop-color="#E0E0DA"/>
<stop offset="0.3441" stop-color="#EFEFE7"/>
<stop offset="0.6097" stop-color="#F8F8EF"/>
<stop offset="1" stop-color="#FBFBF1"/>
</linearGradient>
<linearGradient id="paint1_linear" x1="107.389" y1="-58.6198" x2="107.389" y2="135.813" gradientUnits="userSpaceOnUse">
<stop stop-color="#D5D5D0"/>
<stop offset="0.1161" stop-color="#E0E0DA"/>
<stop offset="0.3441" stop-color="#EFEFE7"/>
<stop offset="0.6097" stop-color="#F8F8EF"/>
<stop offset="1" stop-color="#FBFBF1"/>
</linearGradient>
<linearGradient id="paint2_linear" x1="106.934" y1="194.454" x2="106.934" y2="0.0209994" gradientUnits="userSpaceOnUse">
<stop stop-color="#D5D5D0"/>
<stop offset="0.1161" stop-color="#E0E0DA"/>
<stop offset="0.3441" stop-color="#EFEFE7"/>
<stop offset="0.6097" stop-color="#F8F8EF"/>
<stop offset="1" stop-color="#FBFBF1"/>
</linearGradient>
<linearGradient id="paint3_linear" x1="99.5307" y1="-1.41571" x2="102.563" y2="138.356" gradientUnits="userSpaceOnUse">
<stop stop-color="#D91B24"/>
<stop offset="1" stop-color="#393C5A"/>
</linearGradient>
</defs>
</svg>
