<svg width="215" height="136" viewBox="0 0 215 136" fill="none" xmlns="http://www.w3.org/2000/svg">
<path d="M213.8 0H1.1001V135.8H213.8V0Z" fill="url(#paint0_linear)"/>
<path opacity="0.0163934" d="M0.600098 131.3C0.600098 131.3 0.600098 122.8 9.1001 116.2C17.6001 109.6 92.5001 62.6002 95.8001 60.7002C98.6001 59.2002 105.4 56.7002 107 56.7002C108.7 56.7002 115.5 59.2002 118.2 60.7002C121.5 62.5002 196.5 109.6 204.9 116.2C213.4 122.8 213.4 131.3 213.4 131.3H0.600098Z" fill="#FEFEFE"/>
<path opacity="0.0327869" d="M0.600098 131.4C0.600098 131.4 0.600098 122.9 9.1001 116.3C17.6001 109.7 92.5001 62.6998 95.8001 60.7998C98.6001 59.2998 105.4 56.7998 107 56.7998C108.7 56.7998 115.5 59.2998 118.2 60.7998C121.5 62.5998 196.5 109.7 204.9 116.3C213.4 122.9 213.4 131.4 213.4 131.4H0.600098Z" fill="#FDFDFD"/>
<path opacity="0.0491803" d="M0.700073 131.5C0.700073 131.5 0.700073 123 9.20007 116.4C17.7001 109.8 92.6001 62.8004 95.9001 60.9004C98.7001 59.4004 105.5 56.9004 107.1 56.9004C108.8 56.9004 115.6 59.4004 118.3 60.9004C121.6 62.7004 196.6 109.8 205 116.4C213.5 123 213.5 131.5 213.5 131.5H0.700073Z" fill="#FCFCFC"/>
<path opacity="0.0655738" d="M0.700073 131.6C0.700073 131.6 0.700073 123.1 9.20007 116.5C17.7001 109.9 92.6001 62.9 95.9001 61C98.7001 59.5 105.5 57 107.1 57C108.8 57 115.6 59.5 118.3 61C121.6 62.8 196.6 109.9 205 116.5C213.5 123.1 213.5 131.6 213.5 131.6H0.700073Z" fill="#FBFBFB"/>
<path opacity="0.0819672" d="M0.700073 131.6C0.700073 131.6 0.700073 123.1 9.20007 116.5C17.7001 109.9 92.6001 62.9 95.9001 61C98.7001 59.5 105.5 57 107.1 57C108.8 57 115.6 59.5 118.3 61C121.6 62.8 196.6 109.9 205 116.5C213.5 123.1 213.5 131.6 213.5 131.6H0.700073Z" fill="#FAFAFA"/>
<path opacity="0.0983607" d="M0.700073 131.7C0.700073 131.7 0.700073 123.2 9.20007 116.6C17.7001 110 92.6001 62.9996 95.9001 61.0996C98.7001 59.5996 105.5 57.0996 107.1 57.0996C108.8 57.0996 115.6 59.5996 118.3 61.0996C121.6 62.8996 196.6 110 205 116.6C213.5 123.2 213.5 131.7 213.5 131.7H0.700073Z" fill="#F9F9F9"/>
<path opacity="0.1148" d="M0.700073 131.8C0.700073 131.8 0.700073 123.3 9.20007 116.7C17.7001 110.1 92.6001 63.1002 95.9001 61.2002C98.7001 59.7002 105.5 57.2002 107.1 57.2002C108.8 57.2002 115.6 59.7002 118.3 61.2002C121.6 63.0002 196.6 110.1 205 116.7C213.5 123.3 213.5 131.8 213.5 131.8H0.700073Z" fill="#F8F8F8"/>
<path opacity="0.1311" d="M0.700073 131.9C0.700073 131.9 0.700073 123.4 9.20007 116.8C17.7001 110.2 92.6001 63.1998 95.9001 61.2998C98.7001 59.7998 105.5 57.2998 107.1 57.2998C108.8 57.2998 115.6 59.7998 118.3 61.2998C121.6 63.0998 196.6 110.2 205 116.8C213.5 123.4 213.5 131.9 213.5 131.9H0.700073Z" fill="#F7F7F7"/>
<path opacity="0.1475" d="M0.700073 131.9C0.700073 131.9 0.700073 123.4 9.20007 116.8C17.7001 110.2 92.6001 63.1998 95.9001 61.2998C98.7001 59.7998 105.5 57.2998 107.1 57.2998C108.8 57.2998 115.6 59.7998 118.3 61.2998C121.6 63.0998 196.6 110.2 205 116.8C213.5 123.4 213.5 131.9 213.5 131.9H0.700073Z" fill="#F6F6F6"/>
<path opacity="0.1639" d="M0.800049 132C0.800049 132 0.800049 123.5 9.30005 116.9C17.8 110.3 92.7001 63.3004 96.0001 61.4004C98.8001 59.9004 105.6 57.4004 107.2 57.4004C108.9 57.4004 115.7 59.9004 118.4 61.4004C121.7 63.2004 196.7 110.3 205.1 116.9C213.6 123.5 213.6 132 213.6 132H0.800049Z" fill="#F5F5F5"/>
<path opacity="0.1803" d="M0.800049 132.1C0.800049 132.1 0.800049 123.6 9.30005 117C17.8 110.4 92.7001 63.4 96.0001 61.5C98.8001 60 105.6 57.5 107.2 57.5C108.9 57.5 115.7 60 118.4 61.5C121.7 63.3 196.7 110.4 205.1 117C213.6 123.6 213.6 132.1 213.6 132.1H0.800049Z" fill="#F4F4F4"/>
<path opacity="0.1967" d="M0.800049 132.2C0.800049 132.2 0.800049 123.7 9.30005 117.1C17.8 110.5 92.7001 63.4996 96.0001 61.5996C98.8001 60.0996 105.6 57.5996 107.2 57.5996C108.9 57.5996 115.7 60.0996 118.4 61.5996C121.7 63.3996 196.7 110.5 205.1 117.1C213.6 123.7 213.6 132.2 213.6 132.2H0.800049Z" fill="#F3F3F3"/>
<path opacity="0.2131" d="M0.800049 132.2C0.800049 132.2 0.800049 123.7 9.30005 117.1C17.8 110.5 92.7001 63.4996 96.0001 61.5996C98.8001 60.0996 105.6 57.5996 107.2 57.5996C108.9 57.5996 115.7 60.0996 118.4 61.5996C121.7 63.3996 196.7 110.5 205.1 117.1C213.6 123.7 213.6 132.2 213.6 132.2H0.800049Z" fill="#F2F2F3"/>
<path opacity="0.2295" d="M0.800049 132.3C0.800049 132.3 0.800049 123.8 9.30005 117.2C17.8 110.6 92.7001 63.6002 96.0001 61.7002C98.8001 60.2002 105.6 57.7002 107.2 57.7002C108.9 57.7002 115.7 60.2002 118.4 61.7002C121.7 63.5002 196.7 110.6 205.1 117.2C213.6 123.8 213.6 132.3 213.6 132.3H0.800049Z" fill="#F1F1F2"/>
<path opacity="0.2459" d="M0.800049 132.4C0.800049 132.4 0.800049 123.9 9.30005 117.3C17.8 110.7 92.7001 63.6998 96.0001 61.7998C98.8001 60.2998 105.6 57.7998 107.2 57.7998C108.9 57.7998 115.7 60.2998 118.4 61.7998C121.7 63.5998 196.7 110.7 205.1 117.3C213.6 123.9 213.6 132.4 213.6 132.4H0.800049Z" fill="#F0F0F1"/>
<path opacity="0.2623" d="M0.800049 132.5C0.800049 132.5 0.800049 124 9.30005 117.4C17.8 110.8 92.7001 63.8004 96.0001 61.9004C98.8001 60.4004 105.6 57.9004 107.2 57.9004C108.9 57.9004 115.7 60.4004 118.4 61.9004C121.7 63.7004 196.7 110.8 205.1 117.4C213.6 124 213.6 132.5 213.6 132.5H0.800049Z" fill="#EFF0F0"/>
<path opacity="0.2787" d="M0.900146 132.5C0.900146 132.5 0.900146 124 9.40015 117.4C17.9001 110.8 92.8001 63.8004 96.1001 61.9004C98.9001 60.4004 105.7 57.9004 107.3 57.9004C109 57.9004 115.8 60.4004 118.5 61.9004C121.8 63.7004 196.8 110.8 205.2 117.4C213.7 124 213.7 132.5 213.7 132.5H0.900146Z" fill="#EEEFEF"/>
<path opacity="0.2951" d="M0.900146 132.6C0.900146 132.6 0.900146 124.1 9.40015 117.5C17.9001 110.9 92.8001 63.9 96.1001 62C98.9001 60.5 105.7 58 107.3 58C109 58 115.8 60.5 118.5 62C121.8 63.8 196.8 110.9 205.2 117.5C213.7 124.1 213.7 132.6 213.7 132.6H0.900146Z" fill="#EDEEEE"/>
<path opacity="0.3115" d="M0.900146 132.7C0.900146 132.7 0.900146 124.2 9.40015 117.6C17.9001 111 92.8001 63.9996 96.1001 62.0996C98.9001 60.5996 105.7 58.0996 107.3 58.0996C109 58.0996 115.8 60.5996 118.5 62.0996C121.8 63.8996 196.8 111 205.2 117.6C213.7 124.2 213.7 132.7 213.7 132.7H0.900146Z" fill="#ECEDED"/>
<path opacity="0.3279" d="M0.900146 132.8C0.900146 132.8 0.900146 124.3 9.40015 117.7C17.9001 111.1 92.8001 64.1002 96.1001 62.2002C98.9001 60.7002 105.7 58.2002 107.3 58.2002C109 58.2002 115.8 60.7002 118.5 62.2002C121.8 64.0002 196.8 111.1 205.2 117.7C213.7 124.3 213.7 132.8 213.7 132.8H0.900146Z" fill="#EBECEC"/>
<path opacity="0.3443" d="M0.900146 132.8C0.900146 132.8 0.900146 124.3 9.40015 117.7C17.9001 111.1 92.8001 64.1002 96.1001 62.2002C98.9001 60.7002 105.7 58.2002 107.3 58.2002C109 58.2002 115.8 60.7002 118.5 62.2002C121.8 64.0002 196.8 111.1 205.2 117.7C213.7 124.3 213.7 132.8 213.7 132.8H0.900146Z" fill="#EAEBEB"/>
<path opacity="0.3607" d="M0.900146 132.9C0.900146 132.9 0.900146 124.4 9.40015 117.8C17.9001 111.2 92.8001 64.1998 96.1001 62.2998C98.9001 60.7998 105.7 58.2998 107.3 58.2998C109 58.2998 115.8 60.7998 118.5 62.2998C121.8 64.0998 196.8 111.2 205.2 117.8C213.7 124.4 213.7 132.9 213.7 132.9H0.900146Z" fill="#E9EAEA"/>
<path opacity="0.377" d="M1.00012 133C1.00012 133 1.00012 124.5 9.50012 117.9C18.0001 111.3 92.9001 64.3004 96.2001 62.4004C99.0001 60.9004 105.8 58.4004 107.4 58.4004C109.1 58.4004 115.9 60.9004 118.6 62.4004C121.9 64.2004 196.9 111.3 205.3 117.9C213.8 124.5 213.8 133 213.8 133H1.00012Z" fill="#E9E9E9"/>
<path opacity="0.3934" d="M1.00012 133.1C1.00012 133.1 1.00012 124.6 9.50012 118C18.0001 111.4 92.9001 64.4 96.2001 62.5C99.0001 61 105.8 58.5 107.4 58.5C109.1 58.5 115.9 61 118.6 62.5C121.9 64.3 196.9 111.4 205.3 118C213.8 124.6 213.8 133.1 213.8 133.1H1.00012Z" fill="#E8E8E8"/>
<path opacity="0.4098" d="M1.00012 133.1C1.00012 133.1 1.00012 124.6 9.50012 118C18.0001 111.4 92.9001 64.4 96.2001 62.5C99.0001 61 105.8 58.5 107.4 58.5C109.1 58.5 115.9 61 118.6 62.5C121.9 64.3 196.9 111.4 205.3 118C213.8 124.6 213.8 133.1 213.8 133.1H1.00012Z" fill="#E7E7E7"/>
<path opacity="0.4262" d="M1.00012 133.2C1.00012 133.2 1.00012 124.7 9.50012 118.1C18.0001 111.5 92.9001 64.4996 96.2001 62.5996C99.0001 61.0996 105.8 58.5996 107.4 58.5996C109.1 58.5996 115.9 61.0996 118.6 62.5996C121.9 64.3996 196.9 111.5 205.3 118.1C213.8 124.7 213.8 133.2 213.8 133.2H1.00012Z" fill="#E6E6E6"/>
<path opacity="0.4426" d="M1.00012 133.3C1.00012 133.3 1.00012 124.8 9.50012 118.2C18.0001 111.6 92.9001 64.6002 96.2001 62.7002C99.0001 61.2002 105.8 58.7002 107.4 58.7002C109.1 58.7002 115.9 61.2002 118.6 62.7002C121.9 64.5002 196.9 111.6 205.3 118.2C213.8 124.8 213.8 133.3 213.8 133.3H1.00012Z" fill="#E5E5E5"/>
<path opacity="0.459" d="M1.00012 133.4C1.00012 133.4 1.00012 124.9 9.50012 118.3C18.0001 111.7 92.9001 64.6998 96.2001 62.7998C99.0001 61.2998 105.8 58.7998 107.4 58.7998C109.1 58.7998 115.9 61.2998 118.6 62.7998C121.9 64.5998 196.9 111.7 205.3 118.3C213.8 124.9 213.8 133.4 213.8 133.4H1.00012Z" fill="#E4E4E4"/>
<path opacity="0.4754" d="M1.00012 133.4C1.00012 133.4 1.00012 124.9 9.50012 118.3C18.0001 111.7 92.9001 64.6998 96.2001 62.7998C99.0001 61.2998 105.8 58.7998 107.4 58.7998C109.1 58.7998 115.9 61.2998 118.6 62.7998C121.9 64.5998 196.9 111.7 205.3 118.3C213.8 124.9 213.8 133.4 213.8 133.4H1.00012Z" fill="#E3E3E3"/>
<path opacity="0.4918" d="M1.1001 133.5C1.1001 133.5 1.1001 125 9.6001 118.4C18.1001 111.8 93.0001 64.8004 96.3001 62.9004C99.1001 61.4004 105.9 58.9004 107.5 58.9004C109.2 58.9004 116 61.4004 118.7 62.9004C122 64.7004 197 111.8 205.4 118.4C213.9 125 213.9 133.5 213.9 133.5H1.1001Z" fill="#E2E2E2"/>
<path opacity="0.5082" d="M1.1001 133.6C1.1001 133.6 1.1001 125.1 9.6001 118.5C18.1001 111.9 93.0001 64.9 96.3001 63C99.1001 61.5 105.9 59 107.5 59C109.2 59 116 61.5 118.7 63C122 64.8 197 111.9 205.4 118.5C213.9 125.1 213.9 133.6 213.9 133.6H1.1001Z" fill="#E1E1E1"/>
<path opacity="0.5246" d="M1.1001 133.6C1.1001 133.6 1.1001 125.1 9.6001 118.5C18.1001 111.9 93.0001 64.9 96.3001 63C99.1001 61.5 105.9 59 107.5 59C109.2 59 116 61.5 118.7 63C122 64.8 197 111.9 205.4 118.5C213.9 125.1 213.9 133.6 213.9 133.6H1.1001Z" fill="#E0E0E0"/>
<path opacity="0.541" d="M1.1001 133.7C1.1001 133.7 1.1001 125.2 9.6001 118.6C18.1001 112 93.0001 64.9996 96.3001 63.0996C99.1001 61.5996 105.9 59.0996 107.5 59.0996C109.2 59.0996 116 61.5996 118.7 63.0996C122 64.8996 197 112 205.4 118.6C213.9 125.2 213.9 133.7 213.9 133.7H1.1001Z" fill="#DFDFDF"/>
<path opacity="0.5574" d="M1.1001 133.8C1.1001 133.8 1.1001 125.3 9.6001 118.7C18.1001 112.1 93.0001 65.1002 96.3001 63.2002C99.1001 61.7002 105.9 59.2002 107.5 59.2002C109.2 59.2002 116 61.7002 118.7 63.2002C122 65.0002 197 112.1 205.4 118.7C213.9 125.3 213.9 133.8 213.9 133.8H1.1001Z" fill="#DEDEDE"/>
<path opacity="0.5738" d="M1.1001 133.9C1.1001 133.9 1.1001 125.4 9.6001 118.8C18.1001 112.2 93.0001 65.1998 96.3001 63.2998C99.1001 61.7998 105.9 59.2998 107.5 59.2998C109.2 59.2998 116 61.7998 118.7 63.2998C122 65.0998 197 112.2 205.4 118.8C213.9 125.4 213.9 133.9 213.9 133.9H1.1001Z" fill="#DDDDDD"/>
<path opacity="0.5902" d="M1.1001 133.9C1.1001 133.9 1.1001 125.4 9.6001 118.8C18.1001 112.2 93.0001 65.1998 96.3001 63.2998C99.1001 61.7998 105.9 59.2998 107.5 59.2998C109.2 59.2998 116 61.7998 118.7 63.2998C122 65.0998 197 112.2 205.4 118.8C213.9 125.4 213.9 133.9 213.9 133.9H1.1001Z" fill="#DCDCDC"/>
<path opacity="0.6066" d="M1.20007 134C1.20007 134 1.20007 125.5 9.70007 118.9C18.2001 112.3 93.1001 65.3004 96.4001 63.4004C99.2001 61.9004 106 59.4004 107.6 59.4004C109.3 59.4004 116.1 61.9004 118.8 63.4004C122.1 65.2004 197.1 112.3 205.5 118.9C213.9 125.5 213.9 134 213.9 134H1.20007Z" fill="#DBDBDB"/>
<path opacity="0.623" d="M1.20007 134.1C1.20007 134.1 1.20007 125.6 9.70007 119C18.2001 112.4 93.1001 65.4 96.4001 63.5C99.2001 62 106 59.5 107.6 59.5C109.3 59.5 116.1 62 118.8 63.5C122.1 65.3 197.1 112.4 205.5 119C213.9 125.6 213.9 134.1 213.9 134.1H1.20007Z" fill="#DADADA"/>
<path opacity="0.6393" d="M1.20007 134.2C1.20007 134.2 1.20007 125.7 9.70007 119.1C18.2001 112.5 93.1001 65.4996 96.4001 63.5996C99.2001 62.0996 106 59.5996 107.6 59.5996C109.3 59.5996 116.1 62.0996 118.8 63.5996C122.1 65.3996 197.1 112.5 205.5 119.1C213.9 125.7 213.9 134.2 213.9 134.2H1.20007Z" fill="#D9D9DA"/>
<path opacity="0.6557" d="M1.20007 134.2C1.20007 134.2 1.20007 125.7 9.70007 119.1C18.2001 112.5 93.1001 65.4996 96.4001 63.5996C99.2001 62.0996 106 59.5996 107.6 59.5996C109.3 59.5996 116.1 62.0996 118.8 63.5996C122.1 65.3996 197.1 112.5 205.5 119.1C213.9 125.7 213.9 134.2 213.9 134.2H1.20007Z" fill="#D8D8D9"/>
<path opacity="0.6721" d="M1.20007 134.3C1.20007 134.3 1.20007 125.8 9.70007 119.2C18.2001 112.6 93.1001 65.6002 96.4001 63.7002C99.2001 62.2002 106 59.7002 107.6 59.7002C109.3 59.7002 116.1 62.2002 118.8 63.7002C122.1 65.5002 197.1 112.6 205.5 119.2C213.9 125.8 213.9 134.3 213.9 134.3H1.20007Z" fill="#D7D7D8"/>
<path opacity="0.6885" d="M1.20007 134.4C1.20007 134.4 1.20007 125.9 9.70007 119.3C18.2001 112.7 93.1001 65.6998 96.4001 63.7998C99.2001 62.2998 106 59.7998 107.6 59.7998C109.3 59.7998 116.1 62.2998 118.8 63.7998C122.1 65.5998 197.1 112.7 205.5 119.3C213.9 125.9 213.9 134.4 213.9 134.4H1.20007Z" fill="#D6D6D7"/>
<path opacity="0.7049" d="M1.20007 134.5C1.20007 134.5 1.20007 126 9.70007 119.4C18.2001 112.8 93.1001 65.8004 96.4001 63.9004C99.2001 62.4004 106 59.9004 107.6 59.9004C109.3 59.9004 116.1 62.4004 118.8 63.9004C122.1 65.7004 197.1 112.8 205.5 119.4C213.9 126 213.9 134.5 213.9 134.5H1.20007Z" fill="#D5D5D6"/>
<path opacity="0.7213" d="M1.30005 134.5C1.30005 134.5 1.30005 126 9.80005 119.4C18.3 112.8 93.2001 65.8004 96.5001 63.9004C99.3001 62.4004 106.1 59.9004 107.7 59.9004C109.4 59.9004 116.2 62.4004 118.9 63.9004C122.2 65.7004 197.2 112.8 205.6 119.4C214 126 214 134.5 214 134.5H1.30005Z" fill="#D4D4D5"/>
<path opacity="0.7377" d="M1.30005 134.6C1.30005 134.6 1.30005 126.1 9.80005 119.5C18.3 112.9 93.2001 65.9 96.5001 64C99.3001 62.5 106.1 60 107.7 60C109.4 60 116.2 62.5 118.9 64C122.2 65.8 197.2 112.9 205.6 119.5C214 126.1 214 134.6 214 134.6H1.30005Z" fill="#D3D3D4"/>
<path opacity="0.7541" d="M1.30005 134.7C1.30005 134.7 1.30005 126.2 9.80005 119.6C18.3 113 93.2001 65.9996 96.5001 64.0996C99.3001 62.5996 106.1 60.0996 107.7 60.0996C109.4 60.0996 116.2 62.5996 118.9 64.0996C122.2 65.8996 197.2 113 205.6 119.6C214 126.2 214 134.7 214 134.7H1.30005Z" fill="#D2D2D3"/>
<path opacity="0.7705" d="M1.30005 134.8C1.30005 134.8 1.30005 126.3 9.80005 119.7C18.3 113.1 93.2001 66.1002 96.5001 64.2002C99.3001 62.7002 106.1 60.2002 107.7 60.2002C109.4 60.2002 116.2 62.7002 118.9 64.2002C122.2 66.0002 197.2 113.1 205.6 119.7C214 126.3 214 134.8 214 134.8H1.30005Z" fill="#D1D2D2"/>
<path opacity="0.7869" d="M1.30005 134.8C1.30005 134.8 1.30005 126.3 9.80005 119.7C18.3 113.1 93.2001 66.1002 96.5001 64.2002C99.3001 62.7002 106.1 60.2002 107.7 60.2002C109.4 60.2002 116.2 62.7002 118.9 64.2002C122.2 66.0002 197.2 113.1 205.6 119.7C214 126.3 214 134.8 214 134.8H1.30005Z" fill="#D0D1D1"/>
<path opacity="0.8033" d="M1.30005 134.9C1.30005 134.9 1.30005 126.4 9.80005 119.8C18.3 113.2 93.2001 66.1998 96.5001 64.2998C99.3001 62.7998 106.1 60.2998 107.7 60.2998C109.4 60.2998 116.2 62.7998 118.9 64.2998C122.2 66.0998 197.2 113.2 205.6 119.8C214 126.4 214 134.9 214 134.9H1.30005Z" fill="#CFD0D0"/>
<path opacity="0.8197" d="M1.40015 135C1.40015 135 1.40015 126.5 9.90015 119.9C18.4001 113.3 93.3001 66.3004 96.6001 64.4004C99.4001 62.9004 106.2 60.4004 107.8 60.4004C109.5 60.4004 116.3 62.9004 119 64.4004C122.3 66.2004 197.3 113.3 205.7 119.9C214.1 126.5 214.1 135 214.1 135H1.40015Z" fill="#CECFCF"/>
<path opacity="0.8361" d="M1.40015 135.1C1.40015 135.1 1.40015 126.6 9.90015 120C18.4001 113.4 93.3001 66.4 96.6001 64.5C99.4001 63 106.2 60.5 107.8 60.5C109.5 60.5 116.3 63 119 64.5C122.3 66.3 197.3 113.4 205.7 120C214.1 126.6 214.1 135.1 214.1 135.1H1.40015Z" fill="#CDCECE"/>
<path opacity="0.8525" d="M1.40015 135.1C1.40015 135.1 1.40015 126.6 9.90015 120C18.4001 113.4 93.3001 66.4 96.6001 64.5C99.4001 63 106.2 60.5 107.8 60.5C109.5 60.5 116.3 63 119 64.5C122.3 66.3 197.3 113.4 205.7 120C214.1 126.6 214.1 135.1 214.1 135.1H1.40015Z" fill="#CCCDCD"/>
<path opacity="0.8689" d="M1.40015 135.2C1.40015 135.2 1.40015 126.7 9.90015 120.1C18.4001 113.5 93.3001 66.4996 96.6001 64.5996C99.4001 63.0996 106.2 60.5996 107.8 60.5996C109.5 60.5996 116.3 63.0996 119 64.5996C122.3 66.3996 197.3 113.5 205.7 120.1C214.1 126.7 214.1 135.2 214.1 135.2H1.40015Z" fill="#CBCCCC"/>
<path opacity="0.8852" d="M1.40015 135.3C1.40015 135.3 1.40015 126.8 9.90015 120.2C18.4001 113.6 93.3001 66.6002 96.6001 64.7002C99.4001 63.2002 106.2 60.7002 107.8 60.7002C109.5 60.7002 116.3 63.2002 119 64.7002C122.3 66.5002 197.3 113.6 205.7 120.2C214.1 126.8 214.1 135.3 214.1 135.3H1.40015Z" fill="#CACBCB"/>
<path opacity="0.9016" d="M1.40015 135.4C1.40015 135.4 1.40015 126.9 9.90015 120.3C18.4001 113.7 93.3001 66.6998 96.6001 64.7998C99.4001 63.2998 106.2 60.7998 107.8 60.7998C109.5 60.7998 116.3 63.2998 119 64.7998C122.3 66.5998 197.3 113.7 205.7 120.3C214.1 126.9 214.1 135.4 214.1 135.4H1.40015Z" fill="#C9CACA"/>
<path opacity="0.918" d="M1.40015 135.4C1.40015 135.4 1.40015 126.9 9.90015 120.3C18.4001 113.7 93.3001 66.6998 96.6001 64.7998C99.4001 63.2998 106.2 60.7998 107.8 60.7998C109.5 60.7998 116.3 63.2998 119 64.7998C122.3 66.5998 197.3 113.7 205.7 120.3C214.1 126.9 214.1 135.4 214.1 135.4H1.40015Z" fill="#C8C9C9"/>
<path opacity="0.9344" d="M1.50012 135.5C1.50012 135.5 1.50012 127 10.0001 120.4C18.5001 113.8 93.4001 66.8004 96.7001 64.9004C99.5001 63.4004 106.3 60.9004 107.9 60.9004C109.6 60.9004 116.4 63.4004 119.1 64.9004C122.4 66.7004 197.4 113.8 205.8 120.4C214.2 127 214.2 135.5 214.2 135.5H1.50012Z" fill="#C7C8C8"/>
<path opacity="0.9508" d="M1.50012 135.6C1.50012 135.6 1.50012 127.1 10.0001 120.5C18.5001 113.9 93.4001 66.9 96.7001 65C99.5001 63.5 106.3 61 107.9 61C109.6 61 116.4 63.5 119.1 65C122.4 66.8 197.4 113.9 205.8 120.5C214.2 127.1 214.2 135.6 214.2 135.6H1.50012Z" fill="#C6C7C7"/>
<path opacity="0.9672" d="M1.50012 135.7C1.50012 135.7 1.50012 127.2 10.0001 120.6C18.5001 114 93.4001 66.9996 96.7001 65.0996C99.5001 63.5996 106.3 61.0996 107.9 61.0996C109.6 61.0996 116.4 63.5996 119.1 65.0996C122.4 66.8996 197.4 114 205.8 120.6C214.2 127.2 214.2 135.7 214.2 135.7H1.50012Z" fill="#C5C6C6"/>
<path opacity="0.9836" d="M1.50012 135.7C1.50012 135.7 1.50012 127.2 10.0001 120.6C18.5001 114 93.4001 66.9996 96.7001 65.0996C99.5001 63.5996 106.3 61.0996 107.9 61.0996C109.6 61.0996 116.4 63.5996 119.1 65.0996C122.4 66.8996 197.4 114 205.8 120.6C214.2 127.2 214.2 135.7 214.2 135.7H1.50012Z" fill="#C4C5C5"/>
<path d="M1.50012 135.8C1.50012 135.8 1.50012 127.3 10.0001 120.7C18.5001 114.1 93.4001 67.1002 96.7001 65.2002C99.5001 63.7002 106.3 61.2002 107.9 61.2002C109.6 61.2002 116.4 63.7002 119.1 65.2002C122.4 67.0002 197.4 114.1 205.8 120.7C214.2 127.3 214.2 135.8 214.2 135.8H1.50012Z" fill="#B0B0B0"/>
<path d="M1.50012 135.8C1.50012 135.8 1.50012 127.3 10.0001 120.7C18.5001 114.1 93.4001 67.1002 96.7001 65.2002C99.5001 63.7002 104.3 61.2002 107.9 61.2002C111.5 61.2002 116.4 63.7002 119.1 65.2002C122.4 67.0002 197.4 114.1 205.8 120.7C214.2 127.3 214.2 135.8 214.2 135.8H1.50012Z" fill="url(#paint1_linear)"/>
<path opacity="0.0163934" d="M214.7 4.5C214.7 4.5 214.7 19 206.2 26.2C197.7 33.4 122.8 80.8 119.5 82.8C116.7 84.5 109.9 87.2 108.3 87.2C106.6 87.2 99.8001 84.5 97.1001 82.8C93.8001 80.8 18.8001 33.4 10.4001 26.2C1.90015 19 1.90015 4.5 1.90015 4.5H214.7Z" fill="#FEFEFE"/>
<path opacity="0.0327869" d="M214.7 4.40039C214.7 4.40039 214.7 18.8004 206.2 26.0004C197.7 33.2004 122.8 80.6004 119.5 82.6004C116.7 84.3004 109.9 86.9004 108.3 86.9004C106.6 86.9004 99.8001 84.2004 97.1001 82.6004C93.8001 80.6004 18.8001 33.2004 10.4001 26.0004C1.90015 18.8004 1.90015 4.40039 1.90015 4.40039H214.7Z" fill="#FDFDFD"/>
<path opacity="0.0491803" d="M214.7 4.40039C214.7 4.40039 214.7 18.7004 206.2 25.9004C197.7 33.1004 122.8 80.5004 119.5 82.5004C116.7 84.2004 109.9 86.8004 108.3 86.8004C106.6 86.8004 99.8001 84.1004 97.1001 82.5004C93.8001 80.5004 18.8001 33.1004 10.4001 25.9004C1.90015 18.7004 1.90015 4.40039 1.90015 4.40039H214.7Z" fill="#FCFCFC"/>
<path opacity="0.0655738" d="M214.7 4.2998C214.7 4.2998 214.7 18.4998 206.2 25.6998C197.7 32.7998 122.8 80.2998 119.5 82.2998C116.7 83.9998 109.9 86.5998 108.3 86.5998C106.6 86.5998 99.8001 83.8998 97.1001 82.2998C93.8001 80.2998 18.8001 32.8998 10.4001 25.6998C1.90015 18.4998 1.90015 4.2998 1.90015 4.2998H214.7Z" fill="#FBFBFB"/>
<path opacity="0.0819672" d="M214.6 4.2002C214.6 4.2002 214.6 18.3002 206.1 25.5002C197.6 32.6002 122.7 80.1002 119.4 82.0002C116.6 83.7002 109.8 86.3002 108.2 86.3002C106.5 86.3002 99.7001 83.6002 97.0001 82.0002C93.7001 80.0002 18.7 32.6002 10.3 25.5002C1.80005 18.4002 1.80005 4.2002 1.80005 4.2002H214.6Z" fill="#FAFAFA"/>
<path opacity="0.0983607" d="M214.6 4.09961C214.6 4.09961 214.6 18.0996 206.1 25.2996C197.6 32.3996 122.7 79.7996 119.4 81.7996C116.6 83.3996 109.8 86.0996 108.2 86.0996C106.5 86.0996 99.7001 83.3996 97.0001 81.7996C93.7001 79.7996 18.7 32.3996 10.3 25.2996C1.80005 18.1996 1.80005 4.09961 1.80005 4.09961H214.6Z" fill="#F9F9F9"/>
<path opacity="0.1148" d="M214.6 4.09961C214.6 4.09961 214.6 17.9996 206.1 25.1996C197.6 32.2996 122.7 79.6996 119.4 81.6996C116.6 83.2996 109.8 85.9996 108.2 85.9996C106.5 85.9996 99.7001 83.2996 97.0001 81.6996C93.7001 79.6996 18.7 32.2996 10.3 25.1996C1.80005 18.0996 1.80005 4.09961 1.80005 4.09961H214.6Z" fill="#F8F8F8"/>
<path opacity="0.1311" d="M214.6 4C214.6 4 214.6 17.8 206.1 24.9C197.6 32 122.7 79.4 119.4 81.4C116.6 83 109.8 85.7 108.2 85.7C106.5 85.7 99.7001 83 97.0001 81.4C93.7001 79.4 18.7 32 10.3 24.9C1.80005 17.8 1.80005 4 1.80005 4H214.6Z" fill="#F7F7F7"/>
<path opacity="0.1475" d="M214.6 3.90039C214.6 3.90039 214.6 17.6004 206.1 24.7004C197.6 31.8004 122.7 79.2004 119.4 81.2004C116.6 82.8004 109.8 85.5004 108.2 85.5004C106.5 85.5004 99.7001 82.8004 97.0001 81.2004C93.7001 79.2004 18.7 31.8004 10.3 24.7004C1.80005 17.6004 1.80005 3.90039 1.80005 3.90039H214.6Z" fill="#F6F6F6"/>
<path opacity="0.1639" d="M214.6 3.7998C214.6 3.7998 214.6 17.3998 206.1 24.4998C197.6 31.5998 122.7 78.9998 119.4 80.8998C116.6 82.4998 109.8 85.1998 108.2 85.1998C106.5 85.1998 99.7001 82.4998 97.0001 80.8998C93.7001 78.8998 18.7 31.4998 10.3 24.4998C1.80005 17.3998 1.80005 3.7998 1.80005 3.7998H214.6Z" fill="#F5F5F5"/>
<path opacity="0.1803" d="M214.6 3.7998C214.6 3.7998 214.6 17.2998 206.1 24.3998C197.6 31.4998 122.7 78.8998 119.4 80.7998C116.6 82.3998 109.8 85.0998 108.2 85.0998C106.5 85.0998 99.7001 82.3998 97.0001 80.7998C93.7001 78.7998 18.7 31.4998 10.3 24.3998C1.80005 17.2998 1.80005 3.7998 1.80005 3.7998H214.6Z" fill="#F4F4F4"/>
<path opacity="0.1967" d="M214.5 3.7002C214.5 3.7002 214.5 17.1002 206 24.2002C197.5 31.3002 122.6 78.6002 119.3 80.6002C116.5 82.2002 109.7 84.9002 108.1 84.9002C106.4 84.9002 99.6001 82.2002 96.9001 80.6002C93.6001 78.6002 18.6001 31.3002 10.2001 24.2002C1.70007 17.1002 1.70007 3.7002 1.70007 3.7002H214.5Z" fill="#F3F3F3"/>
<path opacity="0.2131" d="M214.5 3.59961C214.5 3.59961 214.5 16.8996 206 23.9996C197.5 31.0996 122.6 78.3996 119.3 80.3996C116.5 81.9996 109.7 84.6996 108.1 84.6996C106.4 84.6996 99.6001 81.9996 96.9001 80.3996C93.6001 78.3996 18.6001 31.0996 10.2001 23.9996C1.70007 16.8996 1.70007 3.59961 1.70007 3.59961H214.5Z" fill="#F2F2F3"/>
<path opacity="0.2295" d="M214.5 3.5C214.5 3.5 214.5 16.7 206 23.8C197.5 30.9 122.6 78.2 119.3 80.2C116.5 81.8 109.7 84.5 108.1 84.5C106.4 84.5 99.6001 81.8 96.9001 80.2C93.6001 78.2 18.6001 30.9 10.2001 23.8C1.70007 16.7 1.70007 3.5 1.70007 3.5H214.5Z" fill="#F1F1F2"/>
<path opacity="0.2459" d="M214.5 3.5C214.5 3.5 214.5 16.6 206 23.7C197.5 30.7 122.6 78.1 119.3 80.1C116.5 81.7 109.7 84.4 108.1 84.4C106.4 84.4 99.6001 81.8 96.9001 80.1C93.6001 78.1 18.6001 30.8 10.2001 23.7C1.70007 16.7 1.70007 3.5 1.70007 3.5H214.5Z" fill="#F0F0F1"/>
<path opacity="0.2623" d="M214.5 3.40039C214.5 3.40039 214.5 16.4004 206 23.5004C197.5 30.5004 122.6 77.9004 119.3 79.8004C116.5 81.4004 109.7 84.1004 108.1 84.1004C106.4 84.1004 99.6001 81.5004 96.9001 79.8004C93.6001 77.8004 18.6001 30.5004 10.2001 23.5004C1.70007 16.5004 1.70007 3.40039 1.70007 3.40039H214.5Z" fill="#EFF0F0"/>
<path opacity="0.2787" d="M214.5 3.2998C214.5 3.2998 214.5 16.1998 206 23.1998C197.5 30.1998 122.6 77.5998 119.3 79.4998C116.5 81.0998 109.7 83.7998 108.1 83.7998C106.4 83.7998 99.6001 81.1998 96.9001 79.4998C93.6001 77.4998 18.6001 30.1998 10.2001 23.1998C1.70007 16.1998 1.70007 3.2998 1.70007 3.2998H214.5Z" fill="#EEEFEF"/>
<path opacity="0.2951" d="M214.4 3.2002C214.4 3.2002 214.4 16.0002 205.9 23.0002C197.4 30.0002 122.5 77.3002 119.2 79.3002C116.4 80.9002 109.6 83.6002 108 83.6002C106.3 83.6002 99.5001 81.0002 96.8001 79.3002C93.5001 77.4002 18.5001 30.0002 10.1001 23.0002C1.6001 16.0002 1.6001 3.2002 1.6001 3.2002H214.4Z" fill="#EDEEEE"/>
<path opacity="0.3115" d="M214.4 3.2002C214.4 3.2002 214.4 15.9002 205.9 22.9002C197.4 29.9002 122.5 77.2002 119.2 79.2002C116.4 80.8002 109.6 83.5002 108 83.5002C106.3 83.5002 99.5001 80.9002 96.8001 79.2002C93.5001 77.3002 18.5001 29.9002 10.1001 22.9002C1.6001 15.9002 1.6001 3.2002 1.6001 3.2002H214.4Z" fill="#ECEDED"/>
<path opacity="0.3279" d="M214.4 3.09961C214.4 3.09961 214.4 15.6996 205.9 22.6996C197.4 29.6996 122.5 76.9996 119.2 78.9996C116.4 80.5996 109.6 83.1996 108 83.1996C106.3 83.1996 99.5001 80.5996 96.8001 78.9996C93.5001 77.0996 18.5001 29.6996 10.1001 22.6996C1.6001 15.6996 1.6001 3.09961 1.6001 3.09961H214.4Z" fill="#EBECEC"/>
<path opacity="0.3443" d="M214.4 3C214.4 3 214.4 15.5 205.9 22.5C197.4 29.5 122.5 76.8 119.2 78.7C116.4 80.3 109.6 82.9 108 82.9C106.3 82.9 99.5001 80.3 96.8001 78.7C93.5001 76.8 18.5001 29.4 10.1001 22.5C1.6001 15.5 1.6001 3 1.6001 3H214.4Z" fill="#EAEBEB"/>
<path opacity="0.3607" d="M214.4 2.90039C214.4 2.90039 214.4 15.3004 205.9 22.3004C197.4 29.3004 122.5 76.6004 119.2 78.5004C116.4 80.1004 109.6 82.7004 108 82.7004C106.3 82.7004 99.5001 80.1004 96.8001 78.5004C93.5001 76.6004 18.5001 29.3004 10.1001 22.3004C1.6001 15.3004 1.6001 2.90039 1.6001 2.90039H214.4Z" fill="#E9EAEA"/>
<path opacity="0.377" d="M214.4 2.90039C214.4 2.90039 214.4 15.2004 205.9 22.2004C197.4 29.2004 122.5 76.5004 119.2 78.4004C116.4 80.0004 109.6 82.6004 108 82.6004C106.3 82.6004 99.5001 80.0004 96.8001 78.4004C93.5001 76.5004 18.5001 29.2004 10.1001 22.2004C1.6001 15.2004 1.6001 2.90039 1.6001 2.90039H214.4Z" fill="#E9E9E9"/>
<path opacity="0.3934" d="M214.4 2.7998C214.4 2.7998 214.4 14.9998 205.9 21.9998C197.4 28.9998 122.5 76.2998 119.2 78.1998C116.4 79.7998 109.6 82.3998 108 82.3998C106.3 82.3998 99.5001 79.7998 96.8001 78.1998C93.5001 76.2998 18.5001 28.9998 10.1001 21.9998C1.6001 14.9998 1.6001 2.7998 1.6001 2.7998H214.4Z" fill="#E8E8E8"/>
<path opacity="0.4098" d="M214.3 2.7002C214.3 2.7002 214.3 14.8002 205.8 21.8002C197.3 28.8002 122.4 76.0002 119.1 78.0002C116.3 79.6002 109.5 82.2002 107.9 82.2002C106.2 82.2002 99.4001 79.6002 96.7001 78.0002C93.4001 76.1002 18.4001 28.8002 10.0001 21.8002C1.50012 14.8002 1.50012 2.7002 1.50012 2.7002H214.3Z" fill="#E7E7E7"/>
<path opacity="0.4262" d="M214.3 2.59961C214.3 2.59961 214.3 14.5996 205.8 21.4996C197.3 28.3996 122.4 75.6996 119.1 77.5996C116.3 79.1996 109.5 81.7996 107.9 81.7996C106.2 81.7996 99.4001 79.1996 96.7001 77.5996C93.4001 75.6996 18.4001 28.3996 10.0001 21.4996C1.50012 14.5996 1.50012 2.59961 1.50012 2.59961H214.3Z" fill="#E6E6E6"/>
<path opacity="0.4426" d="M214.3 2.59961C214.3 2.59961 214.3 14.4996 205.8 21.3996C197.3 28.2996 122.4 75.5996 119.1 77.4996C116.3 79.0996 109.5 81.6996 107.9 81.6996C106.2 81.6996 99.4001 79.0996 96.7001 77.4996C93.4001 75.5996 18.5001 28.2996 10.0001 21.3996C1.50012 14.4996 1.50012 2.59961 1.50012 2.59961H214.3Z" fill="#E5E5E5"/>
<path opacity="0.459" d="M214.3 2.5C214.3 2.5 214.3 14.3 205.8 21.2C197.3 28.1 122.4 75.4 119.1 77.3C116.3 78.9 109.5 81.5 107.9 81.5C106.2 81.5 99.4001 78.9 96.7001 77.3C93.4001 75.4 18.4001 28.1 10.0001 21.2C1.50012 14.3 1.50012 2.5 1.50012 2.5H214.3Z" fill="#E4E4E4"/>
<path opacity="0.4754" d="M214.3 2.40039C214.3 2.40039 214.3 14.1004 205.8 21.0004C197.3 27.9004 122.4 75.2004 119.1 77.1004C116.3 78.7004 109.5 81.3004 107.9 81.3004C106.2 81.3004 99.4001 78.7004 96.7001 77.1004C93.4001 75.2004 18.4001 27.9004 10.0001 21.0004C1.50012 14.1004 1.50012 2.40039 1.50012 2.40039H214.3Z" fill="#E3E3E3"/>
<path opacity="0.4918" d="M214.3 2.2998C214.3 2.2998 214.3 13.8998 205.8 20.7998C197.3 27.6998 122.4 74.9998 119.1 76.8998C116.3 78.4998 109.5 81.0998 107.9 81.0998C106.2 81.0998 99.4001 78.4998 96.7001 76.8998C93.4001 74.9998 18.4001 27.6998 10.0001 20.7998C1.50012 13.8998 1.50012 2.2998 1.50012 2.2998H214.3Z" fill="#E2E2E2"/>
<path opacity="0.5082" d="M214.3 2.2998C214.3 2.2998 214.3 13.7998 205.8 20.6998C197.3 27.5998 122.4 74.7998 119.1 76.7998C116.3 78.3998 109.5 80.9998 107.9 80.9998C106.2 80.9998 99.4001 78.3998 96.7001 76.7998C93.4001 74.7998 18.4001 27.4998 10.0001 20.6998C1.50012 13.7998 1.50012 2.2998 1.50012 2.2998H214.3Z" fill="#E1E1E1"/>
<path opacity="0.5246" d="M214.2 2.2002C214.2 2.2002 214.2 13.6002 205.7 20.5002C197.2 27.4002 122.3 74.6002 119 76.5002C116.2 78.1002 109.4 80.7002 107.8 80.7002C106.1 80.7002 99.3001 78.1002 96.6001 76.5002C93.3001 74.6002 18.3001 27.4002 9.90015 20.5002C1.40015 13.6002 1.40015 2.2002 1.40015 2.2002H214.2Z" fill="#E0E0E0"/>
<path opacity="0.541" d="M214.2 2.09961C214.2 2.09961 214.2 13.3996 205.7 20.2996C197.2 27.1996 122.3 74.3996 119 76.2996C116.2 77.8996 109.4 80.4996 107.8 80.4996C106.1 80.4996 99.3001 77.8996 96.6001 76.2996C93.3001 74.3996 18.3001 27.1996 9.90015 20.2996C1.40015 13.3996 1.40015 2.09961 1.40015 2.09961H214.2Z" fill="#DFDFDF"/>
<path opacity="0.5574" d="M214.2 2C214.2 2 214.2 13.2 205.7 20.1C197.2 27 122.3 74.2 119 76.1C116.2 77.7 109.4 80.3 107.8 80.3C106.1 80.3 99.3001 77.7 96.6001 76.1C93.3001 74.2 18.3001 27 9.90015 20.1C1.40015 13.2 1.40015 2 1.40015 2H214.2Z" fill="#DEDEDE"/>
<path opacity="0.5738" d="M214.2 2C214.2 2 214.2 13.1 205.7 19.9C197.2 26.8 122.3 74 119 75.9C116.2 77.5 109.4 80.1 107.8 80.1C106.1 80.1 99.3001 77.5 96.6001 75.9C93.3001 74 18.3001 26.8 9.90015 19.9C1.40015 13 1.40015 2 1.40015 2H214.2Z" fill="#DDDDDD"/>
<path opacity="0.5902" d="M214.2 1.90039C214.2 1.90039 214.2 12.9004 205.7 19.7004C197.2 26.5004 122.3 73.8004 119 75.7004C116.2 77.3004 109.4 79.9004 107.8 79.9004C106.1 79.9004 99.3001 77.3004 96.6001 75.7004C93.3001 73.8004 18.3001 26.6004 9.90015 19.7004C1.40015 12.9004 1.40015 1.90039 1.40015 1.90039H214.2Z" fill="#DCDCDC"/>
<path opacity="0.6066" d="M214.2 1.7998C214.2 1.7998 214.2 12.6998 205.7 19.4998C197.2 26.2998 122.3 73.4998 119 75.3998C116.2 76.9998 109.4 79.5998 107.8 79.5998C106.1 79.5998 99.3001 76.9998 96.6001 75.3998C93.3001 73.4998 18.3001 26.2998 9.90015 19.4998C1.40015 12.6998 1.40015 1.7998 1.40015 1.7998H214.2Z" fill="#DBDBDB"/>
<path opacity="0.623" d="M214.1 1.7002C214.1 1.7002 214.1 12.5002 205.6 19.3002C197.1 26.1002 122.2 73.3002 118.9 75.2002C116.1 76.8002 109.3 79.3002 107.7 79.3002C106 79.3002 99.2001 76.7002 96.5002 75.2002C93.2001 73.3002 18.2001 26.1002 9.80015 19.3002C1.40015 12.5002 1.40015 1.7002 1.40015 1.7002H214.1Z" fill="#DADADA"/>
<path opacity="0.6393" d="M214.1 1.7002C214.1 1.7002 214.1 12.4002 205.6 19.2002C197.1 26.0002 122.2 73.2002 118.9 75.1002C116.1 76.7002 109.3 79.2002 107.7 79.2002C106 79.2002 99.2001 76.6002 96.5002 75.1002C93.2001 73.2002 18.2001 26.0002 9.80015 19.2002C1.40015 12.3002 1.40015 1.7002 1.40015 1.7002H214.1Z" fill="#D9D9DA"/>
<path opacity="0.6557" d="M214.1 1.59961C214.1 1.59961 214.1 12.1996 205.6 18.9996C197.1 25.7996 122.2 72.9996 118.9 74.8996C116.1 76.4996 109.3 78.9996 107.7 78.9996C106 78.9996 99.2001 76.3996 96.5002 74.8996C93.2001 72.9996 18.2001 25.7996 9.80015 18.9996C1.40015 12.1996 1.40015 1.59961 1.40015 1.59961H214.1Z" fill="#D8D8D9"/>
<path opacity="0.6721" d="M214.1 1.5C214.1 1.5 214.1 12 205.6 18.8C197.1 25.6 122.2 72.8 118.9 74.7C116.1 76.3 109.3 78.8 107.7 78.8C106 78.8 99.2001 76.2 96.5002 74.7C93.2001 72.8 18.2001 25.6 9.80015 18.8C1.40015 12 1.40015 1.5 1.40015 1.5H214.1Z" fill="#D7D7D8"/>
<path opacity="0.6885" d="M214.1 1.40039C214.1 1.40039 214.1 11.8004 205.6 18.6004C197.1 25.4004 122.2 72.6004 118.9 74.4004C116.1 76.0004 109.3 78.5004 107.7 78.5004C106 78.5004 99.2001 75.9004 96.5001 74.4004C93.2001 72.5004 18.2 25.3004 9.80005 18.6004C1.30005 11.8004 1.30005 1.40039 1.30005 1.40039H214.1Z" fill="#D6D6D7"/>
<path opacity="0.7049" d="M214.1 1.40039C214.1 1.40039 214.1 11.7004 205.6 18.5004C197.1 25.3004 122.2 72.4004 118.9 74.3004C116.1 75.9004 109.3 78.4004 107.7 78.4004C106 78.4004 99.2001 75.9004 96.5001 74.3004C93.2001 72.4004 18.2 25.3004 9.80005 18.5004C1.30005 11.7004 1.30005 1.40039 1.30005 1.40039H214.1Z" fill="#D5D5D6"/>
<path opacity="0.7213" d="M214.1 1.2998C214.1 1.2998 214.1 11.4998 205.6 18.2998C197.1 25.0998 122.2 72.1998 118.9 74.0998C116.1 75.6998 109.3 78.1998 107.7 78.1998C106 78.1998 99.2001 75.6998 96.5001 74.0998C93.2001 72.1998 18.2 25.0998 9.80005 18.2998C1.30005 11.4998 1.30005 1.2998 1.30005 1.2998H214.1Z" fill="#D4D4D5"/>
<path opacity="0.7377" d="M214 1.2002C214 1.2002 214 11.3002 205.5 18.0002C197 24.8002 122.1 71.9002 118.8 73.8002C116 75.4002 109.2 77.9002 107.6 77.9002C105.9 77.9002 99.1001 75.4002 96.4001 73.8002C93.1001 71.9002 18.1001 24.8002 9.70007 18.0002C1.20007 11.2002 1.20007 1.2002 1.20007 1.2002H214Z" fill="#D3D3D4"/>
<path opacity="0.7541" d="M214 1.09961C214 1.09961 214 11.0996 205.5 17.7996C197 24.5996 122.1 71.6996 118.8 73.5996C116 75.1996 109.2 77.6996 107.6 77.6996C105.9 77.6996 99.1001 75.1996 96.4001 73.5996C93.1001 71.6996 18.1001 24.5996 9.70007 17.7996C1.20007 10.9996 1.20007 1.09961 1.20007 1.09961H214Z" fill="#D2D2D3"/>
<path opacity="0.7705" d="M214 1.09961C214 1.09961 214 10.9996 205.5 17.6996C197 24.3996 122.1 71.5996 118.8 73.3996C116 74.9996 109.2 77.4996 107.6 77.4996C105.9 77.4996 99.1001 74.9996 96.4001 73.3996C93.1001 71.4996 18.1001 24.3996 9.70007 17.6996C1.20007 10.9996 1.20007 1.09961 1.20007 1.09961H214Z" fill="#D1D2D2"/>
<path opacity="0.7869" d="M214 1C214 1 214 10.8 205.5 17.5C197 24.2 122.1 71.4 118.8 73.2C116 74.8 109.2 77.3 107.6 77.3C105.9 77.3 99.1001 74.8 96.4001 73.2C93.1001 71.3 18.1001 24.2 9.70007 17.5C1.20007 10.8 1.20007 1 1.20007 1H214Z" fill="#D0D1D1"/>
<path opacity="0.8033" d="M214 0.900391C214 0.900391 214 10.6004 205.5 17.3004C197 24.0004 122.1 71.1004 118.8 73.0004C116 74.6004 109.2 77.1004 107.6 77.1004C105.9 77.1004 99.1001 74.6004 96.4001 73.0004C93.1001 71.1004 18.1001 24.0004 9.70007 17.3004C1.20007 10.6004 1.20007 0.900391 1.20007 0.900391H214Z" fill="#CFD0D0"/>
<path opacity="0.8197" d="M214 0.799805C214 0.799805 214 10.3998 205.5 17.0998C197 23.7998 122.1 70.8998 118.8 72.7998C116 74.3998 109.2 76.8998 107.6 76.8998C105.9 76.8998 99.1001 74.3998 96.4001 72.7998C93.1001 70.8998 18.1001 23.7998 9.70007 17.0998C1.20007 10.3998 1.20007 0.799805 1.20007 0.799805H214Z" fill="#CECFCF"/>
<path opacity="0.8361" d="M214 0.799805C214 0.799805 214 10.2998 205.5 16.9998C197 23.6998 122.1 70.7998 118.8 72.6998C116 74.2998 109.2 76.7998 107.6 76.7998C105.9 76.7998 99.1001 74.2998 96.4001 72.6998C93.1001 70.7998 18.1001 23.6998 9.70007 16.9998C1.20007 10.2998 1.20007 0.799805 1.20007 0.799805H214Z" fill="#CDCECE"/>
<path opacity="0.8525" d="M213.9 0.700195C213.9 0.700195 213.9 10.1002 205.4 16.8002C196.9 23.5002 122 70.6002 118.7 72.5002C115.9 74.0002 109.1 76.6002 107.5 76.6002C105.8 76.6002 99.0001 74.1002 96.3001 72.5002C93.0001 70.6002 18.0001 23.5002 9.6001 16.8002C1.1001 10.1002 1.1001 0.700195 1.1001 0.700195H213.9Z" fill="#CCCDCD"/>
<path opacity="0.8689" d="M213.9 0.599609C213.9 0.599609 213.9 9.89961 205.4 16.5996C196.9 23.2996 122 70.3996 118.7 72.1996C115.9 73.6996 109.1 76.2996 107.5 76.2996C105.8 76.2996 99.0001 73.7996 96.3001 72.1996C93.0001 70.2996 18.1001 23.2996 9.6001 16.5996C1.1001 9.89961 1.1001 0.599609 1.1001 0.599609H213.9Z" fill="#CBCCCC"/>
<path opacity="0.8852" d="M213.9 0.5C213.9 0.5 213.9 9.7 205.4 16.3C196.9 23 122 70.1 118.7 71.9C115.9 73.4 109.1 76 107.5 76C105.8 76 99.0001 73.5 96.3001 71.9C93.0001 70 18.0001 23 9.6001 16.3C1.1001 9.6 1.1001 0.5 1.1001 0.5H213.9Z" fill="#CACBCB"/>
<path opacity="0.9016" d="M213.9 0.5C213.9 0.5 213.9 9.6 205.4 16.2C196.9 22.9 122 69.9 118.7 71.8C115.9 73.3 109.1 75.8 107.5 75.8C105.8 75.8 99.0001 73.3 96.3001 71.8C93.0001 69.9 18.0001 22.9 9.6001 16.2C1.1001 9.5 1.1001 0.5 1.1001 0.5H213.9Z" fill="#C9CACA"/>
<path opacity="0.918" d="M213.9 0.400391C213.9 0.400391 213.9 9.40039 205.4 16.0004C196.9 22.7004 122 69.7004 118.7 71.6004C115.9 73.1004 109.1 75.6004 107.5 75.6004C105.8 75.6004 99.0001 73.1004 96.3001 71.6004C93.0001 69.8004 18.0001 22.7004 9.6001 16.0004C1.1001 9.30039 1.1001 0.400391 1.1001 0.400391H213.9Z" fill="#C8C9C9"/>
<path opacity="0.9344" d="M213.9 0.299805C213.9 0.299805 213.9 9.1998 205.4 15.7998C196.9 22.4998 122 69.4998 118.7 71.3998C115.9 72.8998 109.1 75.3998 107.5 75.3998C105.8 75.3998 99.0001 72.8998 96.3001 71.3998C93.0001 69.5998 18.0001 22.4998 9.6001 15.7998C1.1001 9.1998 1.1001 0.299805 1.1001 0.299805H213.9Z" fill="#C7C8C8"/>
<path opacity="0.9508" d="M213.8 0.200195C213.8 0.200195 213.8 9.00019 205.3 15.6002C196.8 22.2002 121.9 69.3002 118.6 71.1002C115.8 72.6002 109 75.1002 107.4 75.1002C105.7 75.1002 98.9001 72.6002 96.2001 71.1002C93.0001 69.3002 18.0001 22.3002 9.6001 15.6002C1.1001 9.00019 1.1001 0.200195 1.1001 0.200195H213.8Z" fill="#C6C7C7"/>
<path opacity="0.9672" d="M213.8 0.200195C213.8 0.200195 213.8 8.90019 205.3 15.5002C196.8 22.1002 121.9 69.2002 118.6 71.0002C115.8 72.5002 109 75.0002 107.4 75.0002C105.7 75.0002 98.9001 72.5002 96.2001 71.0002C92.9001 69.2002 17.9001 22.1002 9.50012 15.5002C1.00012 8.90019 1.00012 0.200195 1.00012 0.200195H213.8Z" fill="#C5C6C6"/>
<path opacity="0.9836" d="M213.8 0.0996094C213.8 0.0996094 213.8 8.69961 205.3 15.2996C196.8 21.8996 121.9 68.9996 118.6 70.7996C115.8 72.2996 109 74.7996 107.4 74.7996C105.7 74.7996 98.9001 72.2996 96.2001 70.7996C92.9001 68.9996 17.9001 21.8996 9.50012 15.2996C1.00012 8.69961 1.00012 0.0996094 1.00012 0.0996094H213.8Z" fill="#C4C5C5"/>
<path d="M213.8 0C213.8 0 213.8 8.5 205.3 15.1C196.8 21.7 121.9 68.7 118.6 70.6C115.8 72.1 109 74.6 107.4 74.6C105.7 74.6 98.9001 72.1 96.2001 70.6C92.9001 68.8 17.9001 21.7 9.50012 15.1C1.00012 8.5 1.00012 0 1.00012 0H213.8Z" fill="#B0B0B0"/>
<path d="M213.8 0C213.8 0 213.8 8.5 205.3 15.1C196.8 21.7 121.9 68.7 118.6 70.6C115.8 72.1 111 74.6 107.4 74.6C103.8 74.6 98.9001 72.1 96.2001 70.6C92.9001 68.8 17.9001 21.7 9.50012 15.1C1.00012 8.5 1.00012 0 1.00012 0H213.8Z" fill="url(#paint2_linear)"/>
<circle cx="106.1" cy="71.5" r="49.5" fill="#FFD34F"/>
<path d="M94.522 100H78.8579V69.7656C78.8579 66.0938 78.936 62.7344 79.0923 59.6875C78.1287 60.8594 76.9308 62.0833 75.4985 63.3594L69.0142 68.7109L61.0063 58.8672L80.6157 42.8906H94.522V100ZM126.538 62.5781C129.819 62.5781 132.775 63.3464 135.405 64.8828C138.061 66.3932 140.118 68.5417 141.577 71.3281C143.061 74.1146 143.803 77.3307 143.803 80.9766C143.803 87.3568 141.876 92.2526 138.022 95.6641C134.194 99.0755 128.387 100.781 120.6 100.781C113.933 100.781 108.491 99.7526 104.272 97.6953V85.0391C106.538 86.0807 109.09 86.9401 111.928 87.6172C114.793 88.2943 117.254 88.6328 119.311 88.6328C122.176 88.6328 124.376 88.0339 125.913 86.8359C127.449 85.612 128.217 83.8151 128.217 81.4453C128.217 79.2578 127.436 77.5521 125.874 76.3281C124.311 75.1042 121.941 74.4922 118.764 74.4922C116.342 74.4922 113.725 74.9479 110.913 75.8594L105.249 73.0469L107.397 42.8906H139.975V55.7422H120.522L119.819 63.2812C121.85 62.8906 123.295 62.6823 124.155 62.6562C125.014 62.6042 125.808 62.5781 126.538 62.5781Z" fill="url(#paint3_linear)"/>
<defs>
<linearGradient id="paint0_linear" x1="107.434" y1="0.0203" x2="107.434" y2="135.813" gradientUnits="userSpaceOnUse">
<stop stop-color="#D5D5D0"/>
<stop offset="0.1161" stop-color="#E0E0DA"/>
<stop offset="0.3441" stop-color="#EFEFE7"/>
<stop offset="0.6097" stop-color="#F8F8EF"/>
<stop offset="1" stop-color="#FBFBF1"/>
</linearGradient>
<linearGradient id="paint1_linear" x1="107.889" y1="-58.6198" x2="107.889" y2="135.813" gradientUnits="userSpaceOnUse">
<stop stop-color="#D5D5D0"/>
<stop offset="0.1161" stop-color="#E0E0DA"/>
<stop offset="0.3441" stop-color="#EFEFE7"/>
<stop offset="0.6097" stop-color="#F8F8EF"/>
<stop offset="1" stop-color="#FBFBF1"/>
</linearGradient>
<linearGradient id="paint2_linear" x1="107.434" y1="194.454" x2="107.434" y2="0.0209994" gradientUnits="userSpaceOnUse">
<stop stop-color="#D5D5D0"/>
<stop offset="0.1161" stop-color="#E0E0DA"/>
<stop offset="0.3441" stop-color="#EFEFE7"/>
<stop offset="0.6097" stop-color="#F8F8EF"/>
<stop offset="1" stop-color="#FBFBF1"/>
</linearGradient>
<linearGradient id="paint3_linear" x1="96.7225" y1="-1.41571" x2="98.3065" y2="138.404" gradientUnits="userSpaceOnUse">
<stop stop-color="#D91B24"/>
<stop offset="1" stop-color="#393C5A"/>
</linearGradient>
</defs>
</svg>
