<svg width="215" height="136" viewBox="0 0 215 136" fill="none" xmlns="http://www.w3.org/2000/svg">
<path d="M213.2 0H0.5V135.8H213.2V0Z" fill="url(#paint0_linear)"/>
<path opacity="0.0163934" d="M0 131.3C0 131.3 0 122.8 8.5 116.2C17 109.6 91.9 62.6002 95.2 60.7002C98 59.2002 104.8 56.7002 106.4 56.7002C108.1 56.7002 114.9 59.2002 117.6 60.7002C120.9 62.5002 195.9 109.6 204.3 116.2C212.8 122.8 212.8 131.3 212.8 131.3H0Z" fill="#FEFEFE"/>
<path opacity="0.0327869" d="M0 131.4C0 131.4 0 122.9 8.5 116.3C17 109.7 91.9 62.6998 95.2 60.7998C98 59.2998 104.8 56.7998 106.4 56.7998C108.1 56.7998 114.9 59.2998 117.6 60.7998C120.9 62.5998 195.9 109.7 204.3 116.3C212.8 122.9 212.8 131.4 212.8 131.4H0Z" fill="#FDFDFD"/>
<path opacity="0.0491803" d="M0.100098 131.5C0.100098 131.5 0.100098 123 8.6001 116.4C17.1001 109.8 92.0001 62.8004 95.3001 60.9004C98.1001 59.4004 104.9 56.9004 106.5 56.9004C108.2 56.9004 115 59.4004 117.7 60.9004C121 62.7004 196 109.8 204.4 116.4C212.9 123 212.9 131.5 212.9 131.5H0.100098Z" fill="#FCFCFC"/>
<path opacity="0.0655738" d="M0.100098 131.6C0.100098 131.6 0.100098 123.1 8.6001 116.5C17.1001 109.9 92.0001 62.9 95.3001 61C98.1001 59.5 104.9 57 106.5 57C108.2 57 115 59.5 117.7 61C121 62.8 196 109.9 204.4 116.5C212.9 123.1 212.9 131.6 212.9 131.6H0.100098Z" fill="#FBFBFB"/>
<path opacity="0.0819672" d="M0.100098 131.6C0.100098 131.6 0.100098 123.1 8.6001 116.5C17.1001 109.9 92.0001 62.9 95.3001 61C98.1001 59.5 104.9 57 106.5 57C108.2 57 115 59.5 117.7 61C121 62.8 196 109.9 204.4 116.5C212.9 123.1 212.9 131.6 212.9 131.6H0.100098Z" fill="#FAFAFA"/>
<path opacity="0.0983607" d="M0.100098 131.7C0.100098 131.7 0.100098 123.2 8.6001 116.6C17.1001 110 92.0001 62.9996 95.3001 61.0996C98.1001 59.5996 104.9 57.0996 106.5 57.0996C108.2 57.0996 115 59.5996 117.7 61.0996C121 62.8996 196 110 204.4 116.6C212.9 123.2 212.9 131.7 212.9 131.7H0.100098Z" fill="#F9F9F9"/>
<path opacity="0.1148" d="M0.100098 131.8C0.100098 131.8 0.100098 123.3 8.6001 116.7C17.1001 110.1 92.0001 63.1002 95.3001 61.2002C98.1001 59.7002 104.9 57.2002 106.5 57.2002C108.2 57.2002 115 59.7002 117.7 61.2002C121 63.0002 196 110.1 204.4 116.7C212.9 123.3 212.9 131.8 212.9 131.8H0.100098Z" fill="#F8F8F8"/>
<path opacity="0.1311" d="M0.100098 131.9C0.100098 131.9 0.100098 123.4 8.6001 116.8C17.1001 110.2 92.0001 63.1998 95.3001 61.2998C98.1001 59.7998 104.9 57.2998 106.5 57.2998C108.2 57.2998 115 59.7998 117.7 61.2998C121 63.0998 196 110.2 204.4 116.8C212.9 123.4 212.9 131.9 212.9 131.9H0.100098Z" fill="#F7F7F7"/>
<path opacity="0.1475" d="M0.100098 131.9C0.100098 131.9 0.100098 123.4 8.6001 116.8C17.1001 110.2 92.0001 63.1998 95.3001 61.2998C98.1001 59.7998 104.9 57.2998 106.5 57.2998C108.2 57.2998 115 59.7998 117.7 61.2998C121 63.0998 196 110.2 204.4 116.8C212.9 123.4 212.9 131.9 212.9 131.9H0.100098Z" fill="#F6F6F6"/>
<path opacity="0.1639" d="M0.199951 132C0.199951 132 0.199951 123.5 8.69995 116.9C17.2 110.3 92.1 63.3004 95.4 61.4004C98.2 59.9004 105 57.4004 106.6 57.4004C108.3 57.4004 115.1 59.9004 117.8 61.4004C121.1 63.2004 196.1 110.3 204.5 116.9C213 123.5 213 132 213 132H0.199951Z" fill="#F5F5F5"/>
<path opacity="0.1803" d="M0.199951 132.1C0.199951 132.1 0.199951 123.6 8.69995 117C17.2 110.4 92.1 63.4 95.4 61.5C98.2 60 105 57.5 106.6 57.5C108.3 57.5 115.1 60 117.8 61.5C121.1 63.3 196.1 110.4 204.5 117C213 123.6 213 132.1 213 132.1H0.199951Z" fill="#F4F4F4"/>
<path opacity="0.1967" d="M0.199951 132.2C0.199951 132.2 0.199951 123.7 8.69995 117.1C17.2 110.5 92.1 63.4996 95.4 61.5996C98.2 60.0996 105 57.5996 106.6 57.5996C108.3 57.5996 115.1 60.0996 117.8 61.5996C121.1 63.3996 196.1 110.5 204.5 117.1C213 123.7 213 132.2 213 132.2H0.199951Z" fill="#F3F3F3"/>
<path opacity="0.2131" d="M0.199951 132.2C0.199951 132.2 0.199951 123.7 8.69995 117.1C17.2 110.5 92.1 63.4996 95.4 61.5996C98.2 60.0996 105 57.5996 106.6 57.5996C108.3 57.5996 115.1 60.0996 117.8 61.5996C121.1 63.3996 196.1 110.5 204.5 117.1C213 123.7 213 132.2 213 132.2H0.199951Z" fill="#F2F2F3"/>
<path opacity="0.2295" d="M0.199951 132.3C0.199951 132.3 0.199951 123.8 8.69995 117.2C17.2 110.6 92.1 63.6002 95.4 61.7002C98.2 60.2002 105 57.7002 106.6 57.7002C108.3 57.7002 115.1 60.2002 117.8 61.7002C121.1 63.5002 196.1 110.6 204.5 117.2C213 123.8 213 132.3 213 132.3H0.199951Z" fill="#F1F1F2"/>
<path opacity="0.2459" d="M0.199951 132.4C0.199951 132.4 0.199951 123.9 8.69995 117.3C17.2 110.7 92.1 63.6998 95.4 61.7998C98.2 60.2998 105 57.7998 106.6 57.7998C108.3 57.7998 115.1 60.2998 117.8 61.7998C121.1 63.5998 196.1 110.7 204.5 117.3C213 123.9 213 132.4 213 132.4H0.199951Z" fill="#F0F0F1"/>
<path opacity="0.2623" d="M0.199951 132.5C0.199951 132.5 0.199951 124 8.69995 117.4C17.2 110.8 92.1 63.8004 95.4 61.9004C98.2 60.4004 105 57.9004 106.6 57.9004C108.3 57.9004 115.1 60.4004 117.8 61.9004C121.1 63.7004 196.1 110.8 204.5 117.4C213 124 213 132.5 213 132.5H0.199951Z" fill="#EFF0F0"/>
<path opacity="0.2787" d="M0.300049 132.5C0.300049 132.5 0.300049 124 8.80005 117.4C17.3 110.8 92.2 63.8004 95.5 61.9004C98.3 60.4004 105.1 57.9004 106.7 57.9004C108.4 57.9004 115.2 60.4004 117.9 61.9004C121.2 63.7004 196.2 110.8 204.6 117.4C213.1 124 213.1 132.5 213.1 132.5H0.300049Z" fill="#EEEFEF"/>
<path opacity="0.2951" d="M0.300049 132.6C0.300049 132.6 0.300049 124.1 8.80005 117.5C17.3 110.9 92.2 63.9 95.5 62C98.3 60.5 105.1 58 106.7 58C108.4 58 115.2 60.5 117.9 62C121.2 63.8 196.2 110.9 204.6 117.5C213.1 124.1 213.1 132.6 213.1 132.6H0.300049Z" fill="#EDEEEE"/>
<path opacity="0.3115" d="M0.300049 132.7C0.300049 132.7 0.300049 124.2 8.80005 117.6C17.3 111 92.2 63.9996 95.5 62.0996C98.3 60.5996 105.1 58.0996 106.7 58.0996C108.4 58.0996 115.2 60.5996 117.9 62.0996C121.2 63.8996 196.2 111 204.6 117.6C213.1 124.2 213.1 132.7 213.1 132.7H0.300049Z" fill="#ECEDED"/>
<path opacity="0.3279" d="M0.300049 132.8C0.300049 132.8 0.300049 124.3 8.80005 117.7C17.3 111.1 92.2 64.1002 95.5 62.2002C98.3 60.7002 105.1 58.2002 106.7 58.2002C108.4 58.2002 115.2 60.7002 117.9 62.2002C121.2 64.0002 196.2 111.1 204.6 117.7C213.1 124.3 213.1 132.8 213.1 132.8H0.300049Z" fill="#EBECEC"/>
<path opacity="0.3443" d="M0.300049 132.8C0.300049 132.8 0.300049 124.3 8.80005 117.7C17.3 111.1 92.2 64.1002 95.5 62.2002C98.3 60.7002 105.1 58.2002 106.7 58.2002C108.4 58.2002 115.2 60.7002 117.9 62.2002C121.2 64.0002 196.2 111.1 204.6 117.7C213.1 124.3 213.1 132.8 213.1 132.8H0.300049Z" fill="#EAEBEB"/>
<path opacity="0.3607" d="M0.300049 132.9C0.300049 132.9 0.300049 124.4 8.80005 117.8C17.3 111.2 92.2 64.1998 95.5 62.2998C98.3 60.7998 105.1 58.2998 106.7 58.2998C108.4 58.2998 115.2 60.7998 117.9 62.2998C121.2 64.0998 196.2 111.2 204.6 117.8C213.1 124.4 213.1 132.9 213.1 132.9H0.300049Z" fill="#E9EAEA"/>
<path opacity="0.377" d="M0.399902 133C0.399902 133 0.399902 124.5 8.8999 117.9C17.3999 111.3 92.2999 64.3004 95.5999 62.4004C98.3999 60.9004 105.2 58.4004 106.8 58.4004C108.5 58.4004 115.3 60.9004 118 62.4004C121.3 64.2004 196.3 111.3 204.7 117.9C213.2 124.5 213.2 133 213.2 133H0.399902Z" fill="#E9E9E9"/>
<path opacity="0.3934" d="M0.399902 133.1C0.399902 133.1 0.399902 124.6 8.8999 118C17.3999 111.4 92.2999 64.4 95.5999 62.5C98.3999 61 105.2 58.5 106.8 58.5C108.5 58.5 115.3 61 118 62.5C121.3 64.3 196.3 111.4 204.7 118C213.2 124.6 213.2 133.1 213.2 133.1H0.399902Z" fill="#E8E8E8"/>
<path opacity="0.4098" d="M0.399902 133.1C0.399902 133.1 0.399902 124.6 8.8999 118C17.3999 111.4 92.2999 64.4 95.5999 62.5C98.3999 61 105.2 58.5 106.8 58.5C108.5 58.5 115.3 61 118 62.5C121.3 64.3 196.3 111.4 204.7 118C213.2 124.6 213.2 133.1 213.2 133.1H0.399902Z" fill="#E7E7E7"/>
<path opacity="0.4262" d="M0.399902 133.2C0.399902 133.2 0.399902 124.7 8.8999 118.1C17.3999 111.5 92.2999 64.4996 95.5999 62.5996C98.3999 61.0996 105.2 58.5996 106.8 58.5996C108.5 58.5996 115.3 61.0996 118 62.5996C121.3 64.3996 196.3 111.5 204.7 118.1C213.2 124.7 213.2 133.2 213.2 133.2H0.399902Z" fill="#E6E6E6"/>
<path opacity="0.4426" d="M0.399902 133.3C0.399902 133.3 0.399902 124.8 8.8999 118.2C17.3999 111.6 92.2999 64.6002 95.5999 62.7002C98.3999 61.2002 105.2 58.7002 106.8 58.7002C108.5 58.7002 115.3 61.2002 118 62.7002C121.3 64.5002 196.3 111.6 204.7 118.2C213.2 124.8 213.2 133.3 213.2 133.3H0.399902Z" fill="#E5E5E5"/>
<path opacity="0.459" d="M0.399902 133.4C0.399902 133.4 0.399902 124.9 8.8999 118.3C17.3999 111.7 92.2999 64.6998 95.5999 62.7998C98.3999 61.2998 105.2 58.7998 106.8 58.7998C108.5 58.7998 115.3 61.2998 118 62.7998C121.3 64.5998 196.3 111.7 204.7 118.3C213.2 124.9 213.2 133.4 213.2 133.4H0.399902Z" fill="#E4E4E4"/>
<path opacity="0.4754" d="M0.399902 133.4C0.399902 133.4 0.399902 124.9 8.8999 118.3C17.3999 111.7 92.2999 64.6998 95.5999 62.7998C98.3999 61.2998 105.2 58.7998 106.8 58.7998C108.5 58.7998 115.3 61.2998 118 62.7998C121.3 64.5998 196.3 111.7 204.7 118.3C213.2 124.9 213.2 133.4 213.2 133.4H0.399902Z" fill="#E3E3E3"/>
<path opacity="0.4918" d="M0.5 133.5C0.5 133.5 0.5 125 9 118.4C17.5 111.8 92.4 64.8004 95.7 62.9004C98.5 61.4004 105.3 58.9004 106.9 58.9004C108.6 58.9004 115.4 61.4004 118.1 62.9004C121.4 64.7004 196.4 111.8 204.8 118.4C213.3 125 213.3 133.5 213.3 133.5H0.5Z" fill="#E2E2E2"/>
<path opacity="0.5082" d="M0.5 133.6C0.5 133.6 0.5 125.1 9 118.5C17.5 111.9 92.4 64.9 95.7 63C98.5 61.5 105.3 59 106.9 59C108.6 59 115.4 61.5 118.1 63C121.4 64.8 196.4 111.9 204.8 118.5C213.3 125.1 213.3 133.6 213.3 133.6H0.5Z" fill="#E1E1E1"/>
<path opacity="0.5246" d="M0.5 133.6C0.5 133.6 0.5 125.1 9 118.5C17.5 111.9 92.4 64.9 95.7 63C98.5 61.5 105.3 59 106.9 59C108.6 59 115.4 61.5 118.1 63C121.4 64.8 196.4 111.9 204.8 118.5C213.3 125.1 213.3 133.6 213.3 133.6H0.5Z" fill="#E0E0E0"/>
<path opacity="0.541" d="M0.5 133.7C0.5 133.7 0.5 125.2 9 118.6C17.5 112 92.4 64.9996 95.7 63.0996C98.5 61.5996 105.3 59.0996 106.9 59.0996C108.6 59.0996 115.4 61.5996 118.1 63.0996C121.4 64.8996 196.4 112 204.8 118.6C213.3 125.2 213.3 133.7 213.3 133.7H0.5Z" fill="#DFDFDF"/>
<path opacity="0.5574" d="M0.5 133.8C0.5 133.8 0.5 125.3 9 118.7C17.5 112.1 92.4 65.1002 95.7 63.2002C98.5 61.7002 105.3 59.2002 106.9 59.2002C108.6 59.2002 115.4 61.7002 118.1 63.2002C121.4 65.0002 196.4 112.1 204.8 118.7C213.3 125.3 213.3 133.8 213.3 133.8H0.5Z" fill="#DEDEDE"/>
<path opacity="0.5738" d="M0.5 133.9C0.5 133.9 0.5 125.4 9 118.8C17.5 112.2 92.4 65.1998 95.7 63.2998C98.5 61.7998 105.3 59.2998 106.9 59.2998C108.6 59.2998 115.4 61.7998 118.1 63.2998C121.4 65.0998 196.4 112.2 204.8 118.8C213.3 125.4 213.3 133.9 213.3 133.9H0.5Z" fill="#DDDDDD"/>
<path opacity="0.5902" d="M0.5 133.9C0.5 133.9 0.5 125.4 9 118.8C17.5 112.2 92.4 65.1998 95.7 63.2998C98.5 61.7998 105.3 59.2998 106.9 59.2998C108.6 59.2998 115.4 61.7998 118.1 63.2998C121.4 65.0998 196.4 112.2 204.8 118.8C213.3 125.4 213.3 133.9 213.3 133.9H0.5Z" fill="#DCDCDC"/>
<path opacity="0.6066" d="M0.600098 134C0.600098 134 0.600098 125.5 9.1001 118.9C17.6001 112.3 92.5001 65.3004 95.8001 63.4004C98.6001 61.9004 105.4 59.4004 107 59.4004C108.7 59.4004 115.5 61.9004 118.2 63.4004C121.5 65.2004 196.5 112.3 204.9 118.9C213.3 125.5 213.3 134 213.3 134H0.600098Z" fill="#DBDBDB"/>
<path opacity="0.623" d="M0.600098 134.1C0.600098 134.1 0.600098 125.6 9.1001 119C17.6001 112.4 92.5001 65.4 95.8001 63.5C98.6001 62 105.4 59.5 107 59.5C108.7 59.5 115.5 62 118.2 63.5C121.5 65.3 196.5 112.4 204.9 119C213.3 125.6 213.3 134.1 213.3 134.1H0.600098Z" fill="#DADADA"/>
<path opacity="0.6393" d="M0.600098 134.2C0.600098 134.2 0.600098 125.7 9.1001 119.1C17.6001 112.5 92.5001 65.4996 95.8001 63.5996C98.6001 62.0996 105.4 59.5996 107 59.5996C108.7 59.5996 115.5 62.0996 118.2 63.5996C121.5 65.3996 196.5 112.5 204.9 119.1C213.3 125.7 213.3 134.2 213.3 134.2H0.600098Z" fill="#D9D9DA"/>
<path opacity="0.6557" d="M0.600098 134.2C0.600098 134.2 0.600098 125.7 9.1001 119.1C17.6001 112.5 92.5001 65.4996 95.8001 63.5996C98.6001 62.0996 105.4 59.5996 107 59.5996C108.7 59.5996 115.5 62.0996 118.2 63.5996C121.5 65.3996 196.5 112.5 204.9 119.1C213.3 125.7 213.3 134.2 213.3 134.2H0.600098Z" fill="#D8D8D9"/>
<path opacity="0.6721" d="M0.600098 134.3C0.600098 134.3 0.600098 125.8 9.1001 119.2C17.6001 112.6 92.5001 65.6002 95.8001 63.7002C98.6001 62.2002 105.4 59.7002 107 59.7002C108.7 59.7002 115.5 62.2002 118.2 63.7002C121.5 65.5002 196.5 112.6 204.9 119.2C213.3 125.8 213.3 134.3 213.3 134.3H0.600098Z" fill="#D7D7D8"/>
<path opacity="0.6885" d="M0.600098 134.4C0.600098 134.4 0.600098 125.9 9.1001 119.3C17.6001 112.7 92.5001 65.6998 95.8001 63.7998C98.6001 62.2998 105.4 59.7998 107 59.7998C108.7 59.7998 115.5 62.2998 118.2 63.7998C121.5 65.5998 196.5 112.7 204.9 119.3C213.3 125.9 213.3 134.4 213.3 134.4H0.600098Z" fill="#D6D6D7"/>
<path opacity="0.7049" d="M0.600098 134.5C0.600098 134.5 0.600098 126 9.1001 119.4C17.6001 112.8 92.5001 65.8004 95.8001 63.9004C98.6001 62.4004 105.4 59.9004 107 59.9004C108.7 59.9004 115.5 62.4004 118.2 63.9004C121.5 65.7004 196.5 112.8 204.9 119.4C213.3 126 213.3 134.5 213.3 134.5H0.600098Z" fill="#D5D5D6"/>
<path opacity="0.7213" d="M0.699951 134.5C0.699951 134.5 0.699951 126 9.19995 119.4C17.7 112.8 92.6 65.8004 95.9 63.9004C98.7 62.4004 105.5 59.9004 107.1 59.9004C108.8 59.9004 115.6 62.4004 118.3 63.9004C121.6 65.7004 196.6 112.8 205 119.4C213.4 126 213.4 134.5 213.4 134.5H0.699951Z" fill="#D4D4D5"/>
<path opacity="0.7377" d="M0.699951 134.6C0.699951 134.6 0.699951 126.1 9.19995 119.5C17.7 112.9 92.6 65.9 95.9 64C98.7 62.5 105.5 60 107.1 60C108.8 60 115.6 62.5 118.3 64C121.6 65.8 196.6 112.9 205 119.5C213.4 126.1 213.4 134.6 213.4 134.6H0.699951Z" fill="#D3D3D4"/>
<path opacity="0.7541" d="M0.699951 134.7C0.699951 134.7 0.699951 126.2 9.19995 119.6C17.7 113 92.6 65.9996 95.9 64.0996C98.7 62.5996 105.5 60.0996 107.1 60.0996C108.8 60.0996 115.6 62.5996 118.3 64.0996C121.6 65.8996 196.6 113 205 119.6C213.4 126.2 213.4 134.7 213.4 134.7H0.699951Z" fill="#D2D2D3"/>
<path opacity="0.7705" d="M0.699951 134.8C0.699951 134.8 0.699951 126.3 9.19995 119.7C17.7 113.1 92.6 66.1002 95.9 64.2002C98.7 62.7002 105.5 60.2002 107.1 60.2002C108.8 60.2002 115.6 62.7002 118.3 64.2002C121.6 66.0002 196.6 113.1 205 119.7C213.4 126.3 213.4 134.8 213.4 134.8H0.699951Z" fill="#D1D2D2"/>
<path opacity="0.7869" d="M0.699951 134.8C0.699951 134.8 0.699951 126.3 9.19995 119.7C17.7 113.1 92.6 66.1002 95.9 64.2002C98.7 62.7002 105.5 60.2002 107.1 60.2002C108.8 60.2002 115.6 62.7002 118.3 64.2002C121.6 66.0002 196.6 113.1 205 119.7C213.4 126.3 213.4 134.8 213.4 134.8H0.699951Z" fill="#D0D1D1"/>
<path opacity="0.8033" d="M0.699951 134.9C0.699951 134.9 0.699951 126.4 9.19995 119.8C17.7 113.2 92.6 66.1998 95.9 64.2998C98.7 62.7998 105.5 60.2998 107.1 60.2998C108.8 60.2998 115.6 62.7998 118.3 64.2998C121.6 66.0998 196.6 113.2 205 119.8C213.4 126.4 213.4 134.9 213.4 134.9H0.699951Z" fill="#CFD0D0"/>
<path opacity="0.8197" d="M0.800049 135C0.800049 135 0.800049 126.5 9.30005 119.9C17.8 113.3 92.7 66.3004 96 64.4004C98.8 62.9004 105.6 60.4004 107.2 60.4004C108.9 60.4004 115.7 62.9004 118.4 64.4004C121.7 66.2004 196.7 113.3 205.1 119.9C213.5 126.5 213.5 135 213.5 135H0.800049Z" fill="#CECFCF"/>
<path opacity="0.8361" d="M0.800049 135.1C0.800049 135.1 0.800049 126.6 9.30005 120C17.8 113.4 92.7 66.4 96 64.5C98.8 63 105.6 60.5 107.2 60.5C108.9 60.5 115.7 63 118.4 64.5C121.7 66.3 196.7 113.4 205.1 120C213.5 126.6 213.5 135.1 213.5 135.1H0.800049Z" fill="#CDCECE"/>
<path opacity="0.8525" d="M0.800049 135.1C0.800049 135.1 0.800049 126.6 9.30005 120C17.8 113.4 92.7 66.4 96 64.5C98.8 63 105.6 60.5 107.2 60.5C108.9 60.5 115.7 63 118.4 64.5C121.7 66.3 196.7 113.4 205.1 120C213.5 126.6 213.5 135.1 213.5 135.1H0.800049Z" fill="#CCCDCD"/>
<path opacity="0.8689" d="M0.800049 135.2C0.800049 135.2 0.800049 126.7 9.30005 120.1C17.8 113.5 92.7 66.4996 96 64.5996C98.8 63.0996 105.6 60.5996 107.2 60.5996C108.9 60.5996 115.7 63.0996 118.4 64.5996C121.7 66.3996 196.7 113.5 205.1 120.1C213.5 126.7 213.5 135.2 213.5 135.2H0.800049Z" fill="#CBCCCC"/>
<path opacity="0.8852" d="M0.800049 135.3C0.800049 135.3 0.800049 126.8 9.30005 120.2C17.8 113.6 92.7 66.6002 96 64.7002C98.8 63.2002 105.6 60.7002 107.2 60.7002C108.9 60.7002 115.7 63.2002 118.4 64.7002C121.7 66.5002 196.7 113.6 205.1 120.2C213.5 126.8 213.5 135.3 213.5 135.3H0.800049Z" fill="#CACBCB"/>
<path opacity="0.9016" d="M0.800049 135.4C0.800049 135.4 0.800049 126.9 9.30005 120.3C17.8 113.7 92.7 66.6998 96 64.7998C98.8 63.2998 105.6 60.7998 107.2 60.7998C108.9 60.7998 115.7 63.2998 118.4 64.7998C121.7 66.5998 196.7 113.7 205.1 120.3C213.5 126.9 213.5 135.4 213.5 135.4H0.800049Z" fill="#C9CACA"/>
<path opacity="0.918" d="M0.800049 135.4C0.800049 135.4 0.800049 126.9 9.30005 120.3C17.8 113.7 92.7 66.6998 96 64.7998C98.8 63.2998 105.6 60.7998 107.2 60.7998C108.9 60.7998 115.7 63.2998 118.4 64.7998C121.7 66.5998 196.7 113.7 205.1 120.3C213.5 126.9 213.5 135.4 213.5 135.4H0.800049Z" fill="#C8C9C9"/>
<path opacity="0.9344" d="M0.899902 135.5C0.899902 135.5 0.899902 127 9.3999 120.4C17.8999 113.8 92.7999 66.8004 96.0999 64.9004C98.8999 63.4004 105.7 60.9004 107.3 60.9004C109 60.9004 115.8 63.4004 118.5 64.9004C121.8 66.7004 196.8 113.8 205.2 120.4C213.6 127 213.6 135.5 213.6 135.5H0.899902Z" fill="#C7C8C8"/>
<path opacity="0.9508" d="M0.899902 135.6C0.899902 135.6 0.899902 127.1 9.3999 120.5C17.8999 113.9 92.7999 66.9 96.0999 65C98.8999 63.5 105.7 61 107.3 61C109 61 115.8 63.5 118.5 65C121.8 66.8 196.8 113.9 205.2 120.5C213.6 127.1 213.6 135.6 213.6 135.6H0.899902Z" fill="#C6C7C7"/>
<path opacity="0.9672" d="M0.899902 135.7C0.899902 135.7 0.899902 127.2 9.3999 120.6C17.8999 114 92.7999 66.9996 96.0999 65.0996C98.8999 63.5996 105.7 61.0996 107.3 61.0996C109 61.0996 115.8 63.5996 118.5 65.0996C121.8 66.8996 196.8 114 205.2 120.6C213.6 127.2 213.6 135.7 213.6 135.7H0.899902Z" fill="#C5C6C6"/>
<path opacity="0.9836" d="M0.899902 135.7C0.899902 135.7 0.899902 127.2 9.3999 120.6C17.8999 114 92.7999 66.9996 96.0999 65.0996C98.8999 63.5996 105.7 61.0996 107.3 61.0996C109 61.0996 115.8 63.5996 118.5 65.0996C121.8 66.8996 196.8 114 205.2 120.6C213.6 127.2 213.6 135.7 213.6 135.7H0.899902Z" fill="#C4C5C5"/>
<path d="M0.899902 135.8C0.899902 135.8 0.899902 127.3 9.3999 120.7C17.8999 114.1 92.7999 67.1002 96.0999 65.2002C98.8999 63.7002 105.7 61.2002 107.3 61.2002C109 61.2002 115.8 63.7002 118.5 65.2002C121.8 67.0002 196.8 114.1 205.2 120.7C213.6 127.3 213.6 135.8 213.6 135.8H0.899902Z" fill="#B0B0B0"/>
<path d="M0.899902 135.8C0.899902 135.8 0.899902 127.3 9.3999 120.7C17.8999 114.1 92.7999 67.1002 96.0999 65.2002C98.8999 63.7002 103.7 61.2002 107.3 61.2002C110.9 61.2002 115.8 63.7002 118.5 65.2002C121.8 67.0002 196.8 114.1 205.2 120.7C213.6 127.3 213.6 135.8 213.6 135.8H0.899902Z" fill="url(#paint1_linear)"/>
<path opacity="0.0163934" d="M214.1 4.5C214.1 4.5 214.1 19 205.6 26.2C197.1 33.4 122.2 80.8 118.9 82.8C116.1 84.5 109.3 87.2 107.7 87.2C106 87.2 99.1998 84.5 96.4998 82.8C93.1998 80.8 18.1998 33.4 9.7998 26.2C1.2998 19 1.2998 4.5 1.2998 4.5H214.1Z" fill="#FEFEFE"/>
<path opacity="0.0327869" d="M214.1 4.40039C214.1 4.40039 214.1 18.8004 205.6 26.0004C197.1 33.2004 122.2 80.6004 118.9 82.6004C116.1 84.3004 109.3 86.9004 107.7 86.9004C106 86.9004 99.1998 84.2004 96.4998 82.6004C93.1998 80.6004 18.1998 33.2004 9.7998 26.0004C1.2998 18.8004 1.2998 4.40039 1.2998 4.40039H214.1Z" fill="#FDFDFD"/>
<path opacity="0.0491803" d="M214.1 4.40039C214.1 4.40039 214.1 18.7004 205.6 25.9004C197.1 33.1004 122.2 80.5004 118.9 82.5004C116.1 84.2004 109.3 86.8004 107.7 86.8004C106 86.8004 99.1998 84.1004 96.4998 82.5004C93.1998 80.5004 18.1998 33.1004 9.7998 25.9004C1.2998 18.7004 1.2998 4.40039 1.2998 4.40039H214.1Z" fill="#FCFCFC"/>
<path opacity="0.0655738" d="M214.1 4.2998C214.1 4.2998 214.1 18.4998 205.6 25.6998C197.1 32.7998 122.2 80.2998 118.9 82.2998C116.1 83.9998 109.3 86.5998 107.7 86.5998C106 86.5998 99.1998 83.8998 96.4998 82.2998C93.1998 80.2998 18.1998 32.8998 9.7998 25.6998C1.2998 18.4998 1.2998 4.2998 1.2998 4.2998H214.1Z" fill="#FBFBFB"/>
<path opacity="0.0819672" d="M214 4.2002C214 4.2002 214 18.3002 205.5 25.5002C197 32.6002 122.1 80.1002 118.8 82.0002C116 83.7002 109.2 86.3002 107.6 86.3002C105.9 86.3002 99.1 83.6002 96.4 82.0002C93.1 80.0002 18.1 32.6002 9.69995 25.5002C1.19995 18.4002 1.19995 4.2002 1.19995 4.2002H214Z" fill="#FAFAFA"/>
<path opacity="0.0983607" d="M214 4.09961C214 4.09961 214 18.0996 205.5 25.2996C197 32.3996 122.1 79.7996 118.8 81.7996C116 83.3996 109.2 86.0996 107.6 86.0996C105.9 86.0996 99.1 83.3996 96.4 81.7996C93.1 79.7996 18.1 32.3996 9.69995 25.2996C1.19995 18.1996 1.19995 4.09961 1.19995 4.09961H214Z" fill="#F9F9F9"/>
<path opacity="0.1148" d="M214 4.09961C214 4.09961 214 17.9996 205.5 25.1996C197 32.2996 122.1 79.6996 118.8 81.6996C116 83.2996 109.2 85.9996 107.6 85.9996C105.9 85.9996 99.1 83.2996 96.4 81.6996C93.1 79.6996 18.1 32.2996 9.69995 25.1996C1.19995 18.0996 1.19995 4.09961 1.19995 4.09961H214Z" fill="#F8F8F8"/>
<path opacity="0.1311" d="M214 4C214 4 214 17.8 205.5 24.9C197 32 122.1 79.4 118.8 81.4C116 83 109.2 85.7 107.6 85.7C105.9 85.7 99.1 83 96.4 81.4C93.1 79.4 18.1 32 9.69995 24.9C1.19995 17.8 1.19995 4 1.19995 4H214Z" fill="#F7F7F7"/>
<path opacity="0.1475" d="M214 3.90039C214 3.90039 214 17.6004 205.5 24.7004C197 31.8004 122.1 79.2004 118.8 81.2004C116 82.8004 109.2 85.5004 107.6 85.5004C105.9 85.5004 99.1 82.8004 96.4 81.2004C93.1 79.2004 18.1 31.8004 9.69995 24.7004C1.19995 17.6004 1.19995 3.90039 1.19995 3.90039H214Z" fill="#F6F6F6"/>
<path opacity="0.1639" d="M214 3.7998C214 3.7998 214 17.3998 205.5 24.4998C197 31.5998 122.1 78.9998 118.8 80.8998C116 82.4998 109.2 85.1998 107.6 85.1998C105.9 85.1998 99.1 82.4998 96.4 80.8998C93.1 78.8998 18.1 31.4998 9.69995 24.4998C1.19995 17.3998 1.19995 3.7998 1.19995 3.7998H214Z" fill="#F5F5F5"/>
<path opacity="0.1803" d="M214 3.7998C214 3.7998 214 17.2998 205.5 24.3998C197 31.4998 122.1 78.8998 118.8 80.7998C116 82.3998 109.2 85.0998 107.6 85.0998C105.9 85.0998 99.1 82.3998 96.4 80.7998C93.1 78.7998 18.1 31.4998 9.69995 24.3998C1.19995 17.2998 1.19995 3.7998 1.19995 3.7998H214Z" fill="#F4F4F4"/>
<path opacity="0.1967" d="M213.9 3.7002C213.9 3.7002 213.9 17.1002 205.4 24.2002C196.9 31.3002 122 78.6002 118.7 80.6002C115.9 82.2002 109.1 84.9002 107.5 84.9002C105.8 84.9002 98.9998 82.2002 96.2999 80.6002C92.9998 78.6002 17.9999 31.3002 9.59985 24.2002C1.09985 17.1002 1.09985 3.7002 1.09985 3.7002H213.9Z" fill="#F3F3F3"/>
<path opacity="0.2131" d="M213.9 3.59961C213.9 3.59961 213.9 16.8996 205.4 23.9996C196.9 31.0996 122 78.3996 118.7 80.3996C115.9 81.9996 109.1 84.6996 107.5 84.6996C105.8 84.6996 98.9998 81.9996 96.2999 80.3996C92.9998 78.3996 17.9999 31.0996 9.59985 23.9996C1.09985 16.8996 1.09985 3.59961 1.09985 3.59961H213.9Z" fill="#F2F2F3"/>
<path opacity="0.2295" d="M213.9 3.5C213.9 3.5 213.9 16.7 205.4 23.8C196.9 30.9 122 78.2 118.7 80.2C115.9 81.8 109.1 84.5 107.5 84.5C105.8 84.5 98.9998 81.8 96.2999 80.2C92.9998 78.2 17.9999 30.9 9.59985 23.8C1.09985 16.7 1.09985 3.5 1.09985 3.5H213.9Z" fill="#F1F1F2"/>
<path opacity="0.2459" d="M213.9 3.5C213.9 3.5 213.9 16.6 205.4 23.7C196.9 30.7 122 78.1 118.7 80.1C115.9 81.7 109.1 84.4 107.5 84.4C105.8 84.4 98.9998 81.8 96.2999 80.1C92.9998 78.1 17.9999 30.8 9.59985 23.7C1.09985 16.7 1.09985 3.5 1.09985 3.5H213.9Z" fill="#F0F0F1"/>
<path opacity="0.2623" d="M213.9 3.40039C213.9 3.40039 213.9 16.4004 205.4 23.5004C196.9 30.5004 122 77.9004 118.7 79.8004C115.9 81.4004 109.1 84.1004 107.5 84.1004C105.8 84.1004 98.9998 81.5004 96.2999 79.8004C92.9998 77.8004 17.9999 30.5004 9.59985 23.5004C1.09985 16.5004 1.09985 3.40039 1.09985 3.40039H213.9Z" fill="#EFF0F0"/>
<path opacity="0.2787" d="M213.9 3.2998C213.9 3.2998 213.9 16.1998 205.4 23.1998C196.9 30.1998 122 77.5998 118.7 79.4998C115.9 81.0998 109.1 83.7998 107.5 83.7998C105.8 83.7998 98.9998 81.1998 96.2999 79.4998C92.9998 77.4998 17.9999 30.1998 9.59985 23.1998C1.09985 16.1998 1.09985 3.2998 1.09985 3.2998H213.9Z" fill="#EEEFEF"/>
<path opacity="0.2951" d="M213.8 3.2002C213.8 3.2002 213.8 16.0002 205.3 23.0002C196.8 30.0002 121.9 77.3002 118.6 79.3002C115.8 80.9002 109 83.6002 107.4 83.6002C105.7 83.6002 98.9 81.0002 96.2 79.3002C92.9 77.4002 17.9 30.0002 9.5 23.0002C1 16.0002 1 3.2002 1 3.2002H213.8Z" fill="#EDEEEE"/>
<path opacity="0.3115" d="M213.8 3.2002C213.8 3.2002 213.8 15.9002 205.3 22.9002C196.8 29.9002 121.9 77.2002 118.6 79.2002C115.8 80.8002 109 83.5002 107.4 83.5002C105.7 83.5002 98.9 80.9002 96.2 79.2002C92.9 77.3002 17.9 29.9002 9.5 22.9002C1 15.9002 1 3.2002 1 3.2002H213.8Z" fill="#ECEDED"/>
<path opacity="0.3279" d="M213.8 3.09961C213.8 3.09961 213.8 15.6996 205.3 22.6996C196.8 29.6996 121.9 76.9996 118.6 78.9996C115.8 80.5996 109 83.1996 107.4 83.1996C105.7 83.1996 98.9 80.5996 96.2 78.9996C92.9 77.0996 17.9 29.6996 9.5 22.6996C1 15.6996 1 3.09961 1 3.09961H213.8Z" fill="#EBECEC"/>
<path opacity="0.3443" d="M213.8 3C213.8 3 213.8 15.5 205.3 22.5C196.8 29.5 121.9 76.8 118.6 78.7C115.8 80.3 109 82.9 107.4 82.9C105.7 82.9 98.9 80.3 96.2 78.7C92.9 76.8 17.9 29.4 9.5 22.5C1 15.5 1 3 1 3H213.8Z" fill="#EAEBEB"/>
<path opacity="0.3607" d="M213.8 2.90039C213.8 2.90039 213.8 15.3004 205.3 22.3004C196.8 29.3004 121.9 76.6004 118.6 78.5004C115.8 80.1004 109 82.7004 107.4 82.7004C105.7 82.7004 98.9 80.1004 96.2 78.5004C92.9 76.6004 17.9 29.3004 9.5 22.3004C1 15.3004 1 2.90039 1 2.90039H213.8Z" fill="#E9EAEA"/>
<path opacity="0.377" d="M213.8 2.90039C213.8 2.90039 213.8 15.2004 205.3 22.2004C196.8 29.2004 121.9 76.5004 118.6 78.4004C115.8 80.0004 109 82.6004 107.4 82.6004C105.7 82.6004 98.9 80.0004 96.2 78.4004C92.9 76.5004 17.9 29.2004 9.5 22.2004C1 15.2004 1 2.90039 1 2.90039H213.8Z" fill="#E9E9E9"/>
<path opacity="0.3934" d="M213.8 2.7998C213.8 2.7998 213.8 14.9998 205.3 21.9998C196.8 28.9998 121.9 76.2998 118.6 78.1998C115.8 79.7998 109 82.3998 107.4 82.3998C105.7 82.3998 98.9 79.7998 96.2 78.1998C92.9 76.2998 17.9 28.9998 9.5 21.9998C1 14.9998 1 2.7998 1 2.7998H213.8Z" fill="#E8E8E8"/>
<path opacity="0.4098" d="M213.7 2.7002C213.7 2.7002 213.7 14.8002 205.2 21.8002C196.7 28.8002 121.8 76.0002 118.5 78.0002C115.7 79.6002 108.9 82.2002 107.3 82.2002C105.6 82.2002 98.7999 79.6002 96.0999 78.0002C92.7999 76.1002 17.7999 28.8002 9.3999 21.8002C0.899902 14.8002 0.899902 2.7002 0.899902 2.7002H213.7Z" fill="#E7E7E7"/>
<path opacity="0.4262" d="M213.7 2.59961C213.7 2.59961 213.7 14.5996 205.2 21.4996C196.7 28.3996 121.8 75.6996 118.5 77.5996C115.7 79.1996 108.9 81.7996 107.3 81.7996C105.6 81.7996 98.7999 79.1996 96.0999 77.5996C92.7999 75.6996 17.7999 28.3996 9.3999 21.4996C0.899902 14.5996 0.899902 2.59961 0.899902 2.59961H213.7Z" fill="#E6E6E6"/>
<path opacity="0.4426" d="M213.7 2.59961C213.7 2.59961 213.7 14.4996 205.2 21.3996C196.7 28.2996 121.8 75.5996 118.5 77.4996C115.7 79.0996 108.9 81.6996 107.3 81.6996C105.6 81.6996 98.7999 79.0996 96.0999 77.4996C92.7999 75.5996 17.8999 28.2996 9.3999 21.3996C0.899902 14.4996 0.899902 2.59961 0.899902 2.59961H213.7Z" fill="#E5E5E5"/>
<path opacity="0.459" d="M213.7 2.5C213.7 2.5 213.7 14.3 205.2 21.2C196.7 28.1 121.8 75.4 118.5 77.3C115.7 78.9 108.9 81.5 107.3 81.5C105.6 81.5 98.7999 78.9 96.0999 77.3C92.7999 75.4 17.7999 28.1 9.3999 21.2C0.899902 14.3 0.899902 2.5 0.899902 2.5H213.7Z" fill="#E4E4E4"/>
<path opacity="0.4754" d="M213.7 2.40039C213.7 2.40039 213.7 14.1004 205.2 21.0004C196.7 27.9004 121.8 75.2004 118.5 77.1004C115.7 78.7004 108.9 81.3004 107.3 81.3004C105.6 81.3004 98.7999 78.7004 96.0999 77.1004C92.7999 75.2004 17.7999 27.9004 9.3999 21.0004C0.899902 14.1004 0.899902 2.40039 0.899902 2.40039H213.7Z" fill="#E3E3E3"/>
<path opacity="0.4918" d="M213.7 2.2998C213.7 2.2998 213.7 13.8998 205.2 20.7998C196.7 27.6998 121.8 74.9998 118.5 76.8998C115.7 78.4998 108.9 81.0998 107.3 81.0998C105.6 81.0998 98.7999 78.4998 96.0999 76.8998C92.7999 74.9998 17.7999 27.6998 9.3999 20.7998C0.899902 13.8998 0.899902 2.2998 0.899902 2.2998H213.7Z" fill="#E2E2E2"/>
<path opacity="0.5082" d="M213.7 2.2998C213.7 2.2998 213.7 13.7998 205.2 20.6998C196.7 27.5998 121.8 74.7998 118.5 76.7998C115.7 78.3998 108.9 80.9998 107.3 80.9998C105.6 80.9998 98.7999 78.3998 96.0999 76.7998C92.7999 74.7998 17.7999 27.4998 9.3999 20.6998C0.899902 13.7998 0.899902 2.2998 0.899902 2.2998H213.7Z" fill="#E1E1E1"/>
<path opacity="0.5246" d="M213.6 2.2002C213.6 2.2002 213.6 13.6002 205.1 20.5002C196.6 27.4002 121.7 74.6002 118.4 76.5002C115.6 78.1002 108.8 80.7002 107.2 80.7002C105.5 80.7002 98.6998 78.1002 95.9998 76.5002C92.6998 74.6002 17.6998 27.4002 9.2998 20.5002C0.799805 13.6002 0.799805 2.2002 0.799805 2.2002H213.6Z" fill="#E0E0E0"/>
<path opacity="0.541" d="M213.6 2.09961C213.6 2.09961 213.6 13.3996 205.1 20.2996C196.6 27.1996 121.7 74.3996 118.4 76.2996C115.6 77.8996 108.8 80.4996 107.2 80.4996C105.5 80.4996 98.6998 77.8996 95.9998 76.2996C92.6998 74.3996 17.6998 27.1996 9.2998 20.2996C0.799805 13.3996 0.799805 2.09961 0.799805 2.09961H213.6Z" fill="#DFDFDF"/>
<path opacity="0.5574" d="M213.6 2C213.6 2 213.6 13.2 205.1 20.1C196.6 27 121.7 74.2 118.4 76.1C115.6 77.7 108.8 80.3 107.2 80.3C105.5 80.3 98.6998 77.7 95.9998 76.1C92.6998 74.2 17.6998 27 9.2998 20.1C0.799805 13.2 0.799805 2 0.799805 2H213.6Z" fill="#DEDEDE"/>
<path opacity="0.5738" d="M213.6 2C213.6 2 213.6 13.1 205.1 19.9C196.6 26.8 121.7 74 118.4 75.9C115.6 77.5 108.8 80.1 107.2 80.1C105.5 80.1 98.6998 77.5 95.9998 75.9C92.6998 74 17.6998 26.8 9.2998 19.9C0.799805 13 0.799805 2 0.799805 2H213.6Z" fill="#DDDDDD"/>
<path opacity="0.5902" d="M213.6 1.90039C213.6 1.90039 213.6 12.9004 205.1 19.7004C196.6 26.5004 121.7 73.8004 118.4 75.7004C115.6 77.3004 108.8 79.9004 107.2 79.9004C105.5 79.9004 98.6998 77.3004 95.9998 75.7004C92.6998 73.8004 17.6998 26.6004 9.2998 19.7004C0.799805 12.9004 0.799805 1.90039 0.799805 1.90039H213.6Z" fill="#DCDCDC"/>
<path opacity="0.6066" d="M213.6 1.7998C213.6 1.7998 213.6 12.6998 205.1 19.4998C196.6 26.2998 121.7 73.4998 118.4 75.3998C115.6 76.9998 108.8 79.5998 107.2 79.5998C105.5 79.5998 98.6998 76.9998 95.9998 75.3998C92.6998 73.4998 17.6998 26.2998 9.2998 19.4998C0.799805 12.6998 0.799805 1.7998 0.799805 1.7998H213.6Z" fill="#DBDBDB"/>
<path opacity="0.623" d="M213.5 1.7002C213.5 1.7002 213.5 12.5002 205 19.3002C196.5 26.1002 121.6 73.3002 118.3 75.2002C115.5 76.8002 108.7 79.3002 107.1 79.3002C105.4 79.3002 98.5998 76.7002 95.8998 75.2002C92.5998 73.3002 17.5998 26.1002 9.19981 19.3002C0.799807 12.5002 0.799805 1.7002 0.799805 1.7002H213.5Z" fill="#DADADA"/>
<path opacity="0.6393" d="M213.5 1.7002C213.5 1.7002 213.5 12.4002 205 19.2002C196.5 26.0002 121.6 73.2002 118.3 75.1002C115.5 76.7002 108.7 79.2002 107.1 79.2002C105.4 79.2002 98.5998 76.6002 95.8998 75.1002C92.5998 73.2002 17.5998 26.0002 9.19981 19.2002C0.799807 12.3002 0.799805 1.7002 0.799805 1.7002H213.5Z" fill="#D9D9DA"/>
<path opacity="0.6557" d="M213.5 1.59961C213.5 1.59961 213.5 12.1996 205 18.9996C196.5 25.7996 121.6 72.9996 118.3 74.8996C115.5 76.4996 108.7 78.9996 107.1 78.9996C105.4 78.9996 98.5998 76.3996 95.8998 74.8996C92.5998 72.9996 17.5998 25.7996 9.19981 18.9996C0.799807 12.1996 0.799805 1.59961 0.799805 1.59961H213.5Z" fill="#D8D8D9"/>
<path opacity="0.6721" d="M213.5 1.5C213.5 1.5 213.5 12 205 18.8C196.5 25.6 121.6 72.8 118.3 74.7C115.5 76.3 108.7 78.8 107.1 78.8C105.4 78.8 98.5998 76.2 95.8998 74.7C92.5998 72.8 17.5998 25.6 9.19981 18.8C0.799807 12 0.799805 1.5 0.799805 1.5H213.5Z" fill="#D7D7D8"/>
<path opacity="0.6885" d="M213.5 1.40039C213.5 1.40039 213.5 11.8004 205 18.6004C196.5 25.4004 121.6 72.6004 118.3 74.4004C115.5 76.0004 108.7 78.5004 107.1 78.5004C105.4 78.5004 98.6 75.9004 95.9 74.4004C92.6 72.5004 17.6 25.3004 9.19995 18.6004C0.699951 11.8004 0.699951 1.40039 0.699951 1.40039H213.5Z" fill="#D6D6D7"/>
<path opacity="0.7049" d="M213.5 1.40039C213.5 1.40039 213.5 11.7004 205 18.5004C196.5 25.3004 121.6 72.4004 118.3 74.3004C115.5 75.9004 108.7 78.4004 107.1 78.4004C105.4 78.4004 98.6 75.9004 95.9 74.3004C92.6 72.4004 17.6 25.3004 9.19995 18.5004C0.699951 11.7004 0.699951 1.40039 0.699951 1.40039H213.5Z" fill="#D5D5D6"/>
<path opacity="0.7213" d="M213.5 1.2998C213.5 1.2998 213.5 11.4998 205 18.2998C196.5 25.0998 121.6 72.1998 118.3 74.0998C115.5 75.6998 108.7 78.1998 107.1 78.1998C105.4 78.1998 98.6 75.6998 95.9 74.0998C92.6 72.1998 17.6 25.0998 9.19995 18.2998C0.699951 11.4998 0.699951 1.2998 0.699951 1.2998H213.5Z" fill="#D4D4D5"/>
<path opacity="0.7377" d="M213.4 1.2002C213.4 1.2002 213.4 11.3002 204.9 18.0002C196.4 24.8002 121.5 71.9002 118.2 73.8002C115.4 75.4002 108.6 77.9002 107 77.9002C105.3 77.9002 98.4998 75.4002 95.7999 73.8002C92.4998 71.9002 17.4999 24.8002 9.09985 18.0002C0.599854 11.2002 0.599854 1.2002 0.599854 1.2002H213.4Z" fill="#D3D3D4"/>
<path opacity="0.7541" d="M213.4 1.09961C213.4 1.09961 213.4 11.0996 204.9 17.7996C196.4 24.5996 121.5 71.6996 118.2 73.5996C115.4 75.1996 108.6 77.6996 107 77.6996C105.3 77.6996 98.4998 75.1996 95.7999 73.5996C92.4998 71.6996 17.4999 24.5996 9.09985 17.7996C0.599854 10.9996 0.599854 1.09961 0.599854 1.09961H213.4Z" fill="#D2D2D3"/>
<path opacity="0.7705" d="M213.4 1.09961C213.4 1.09961 213.4 10.9996 204.9 17.6996C196.4 24.3996 121.5 71.5996 118.2 73.3996C115.4 74.9996 108.6 77.4996 107 77.4996C105.3 77.4996 98.4998 74.9996 95.7999 73.3996C92.4998 71.4996 17.4999 24.3996 9.09985 17.6996C0.599854 10.9996 0.599854 1.09961 0.599854 1.09961H213.4Z" fill="#D1D2D2"/>
<path opacity="0.7869" d="M213.4 1C213.4 1 213.4 10.8 204.9 17.5C196.4 24.2 121.5 71.4 118.2 73.2C115.4 74.8 108.6 77.3 107 77.3C105.3 77.3 98.4998 74.8 95.7999 73.2C92.4998 71.3 17.4999 24.2 9.09985 17.5C0.599854 10.8 0.599854 1 0.599854 1H213.4Z" fill="#D0D1D1"/>
<path opacity="0.8033" d="M213.4 0.900391C213.4 0.900391 213.4 10.6004 204.9 17.3004C196.4 24.0004 121.5 71.1004 118.2 73.0004C115.4 74.6004 108.6 77.1004 107 77.1004C105.3 77.1004 98.4998 74.6004 95.7999 73.0004C92.4998 71.1004 17.4999 24.0004 9.09985 17.3004C0.599854 10.6004 0.599854 0.900391 0.599854 0.900391H213.4Z" fill="#CFD0D0"/>
<path opacity="0.8197" d="M213.4 0.799805C213.4 0.799805 213.4 10.3998 204.9 17.0998C196.4 23.7998 121.5 70.8998 118.2 72.7998C115.4 74.3998 108.6 76.8998 107 76.8998C105.3 76.8998 98.4998 74.3998 95.7999 72.7998C92.4998 70.8998 17.4999 23.7998 9.09985 17.0998C0.599854 10.3998 0.599854 0.799805 0.599854 0.799805H213.4Z" fill="#CECFCF"/>
<path opacity="0.8361" d="M213.4 0.799805C213.4 0.799805 213.4 10.2998 204.9 16.9998C196.4 23.6998 121.5 70.7998 118.2 72.6998C115.4 74.2998 108.6 76.7998 107 76.7998C105.3 76.7998 98.4998 74.2998 95.7999 72.6998C92.4998 70.7998 17.4999 23.6998 9.09985 16.9998C0.599854 10.2998 0.599854 0.799805 0.599854 0.799805H213.4Z" fill="#CDCECE"/>
<path opacity="0.8525" d="M213.3 0.700195C213.3 0.700195 213.3 10.1002 204.8 16.8002C196.3 23.5002 121.4 70.6002 118.1 72.5002C115.3 74.0002 108.5 76.6002 106.9 76.6002C105.2 76.6002 98.4 74.1002 95.7 72.5002C92.4 70.6002 17.4 23.5002 9 16.8002C0.5 10.1002 0.5 0.700195 0.5 0.700195H213.3Z" fill="#CCCDCD"/>
<path opacity="0.8689" d="M213.3 0.599609C213.3 0.599609 213.3 9.89961 204.8 16.5996C196.3 23.2996 121.4 70.3996 118.1 72.1996C115.3 73.6996 108.5 76.2996 106.9 76.2996C105.2 76.2996 98.4 73.7996 95.7 72.1996C92.4 70.2996 17.5 23.2996 9 16.5996C0.5 9.89961 0.5 0.599609 0.5 0.599609H213.3Z" fill="#CBCCCC"/>
<path opacity="0.8852" d="M213.3 0.5C213.3 0.5 213.3 9.7 204.8 16.3C196.3 23 121.4 70.1 118.1 71.9C115.3 73.4 108.5 76 106.9 76C105.2 76 98.4 73.5 95.7 71.9C92.4 70 17.4 23 9 16.3C0.5 9.6 0.5 0.5 0.5 0.5H213.3Z" fill="#CACBCB"/>
<path opacity="0.9016" d="M213.3 0.5C213.3 0.5 213.3 9.6 204.8 16.2C196.3 22.9 121.4 69.9 118.1 71.8C115.3 73.3 108.5 75.8 106.9 75.8C105.2 75.8 98.4 73.3 95.7 71.8C92.4 69.9 17.4 22.9 9 16.2C0.5 9.5 0.5 0.5 0.5 0.5H213.3Z" fill="#C9CACA"/>
<path opacity="0.918" d="M213.3 0.400391C213.3 0.400391 213.3 9.40039 204.8 16.0004C196.3 22.7004 121.4 69.7004 118.1 71.6004C115.3 73.1004 108.5 75.6004 106.9 75.6004C105.2 75.6004 98.4 73.1004 95.7 71.6004C92.4 69.8004 17.4 22.7004 9 16.0004C0.5 9.30039 0.5 0.400391 0.5 0.400391H213.3Z" fill="#C8C9C9"/>
<path opacity="0.9344" d="M213.3 0.299805C213.3 0.299805 213.3 9.1998 204.8 15.7998C196.3 22.4998 121.4 69.4998 118.1 71.3998C115.3 72.8998 108.5 75.3998 106.9 75.3998C105.2 75.3998 98.4 72.8998 95.7 71.3998C92.4 69.5998 17.4 22.4998 9 15.7998C0.5 9.1998 0.5 0.299805 0.5 0.299805H213.3Z" fill="#C7C8C8"/>
<path opacity="0.9508" d="M213.2 0.200195C213.2 0.200195 213.2 9.00019 204.7 15.6002C196.2 22.2002 121.3 69.3002 118 71.1002C115.2 72.6002 108.4 75.1002 106.8 75.1002C105.1 75.1002 98.3 72.6002 95.6 71.1002C92.4 69.3002 17.4 22.3002 9 15.6002C0.5 9.00019 0.5 0.200195 0.5 0.200195H213.2Z" fill="#C6C7C7"/>
<path opacity="0.9672" d="M213.2 0.200195C213.2 0.200195 213.2 8.90019 204.7 15.5002C196.2 22.1002 121.3 69.2002 118 71.0002C115.2 72.5002 108.4 75.0002 106.8 75.0002C105.1 75.0002 98.2999 72.5002 95.5999 71.0002C92.2999 69.2002 17.2999 22.1002 8.8999 15.5002C0.399902 8.90019 0.399902 0.200195 0.399902 0.200195H213.2Z" fill="#C5C6C6"/>
<path opacity="0.9836" d="M213.2 0.0996094C213.2 0.0996094 213.2 8.69961 204.7 15.2996C196.2 21.8996 121.3 68.9996 118 70.7996C115.2 72.2996 108.4 74.7996 106.8 74.7996C105.1 74.7996 98.2999 72.2996 95.5999 70.7996C92.2999 68.9996 17.2999 21.8996 8.8999 15.2996C0.399902 8.69961 0.399902 0.0996094 0.399902 0.0996094H213.2Z" fill="#C4C5C5"/>
<path d="M213.2 0C213.2 0 213.2 8.5 204.7 15.1C196.2 21.7 121.3 68.7 118 70.6C115.2 72.1 108.4 74.6 106.8 74.6C105.1 74.6 98.2999 72.1 95.5999 70.6C92.2999 68.8 17.2999 21.7 8.8999 15.1C0.399902 8.5 0.399902 0 0.399902 0H213.2Z" fill="#B0B0B0"/>
<path d="M213.2 0C213.2 0 213.2 8.5 204.7 15.1C196.2 21.7 121.3 68.7 118 70.6C115.2 72.1 110.4 74.6 106.8 74.6C103.2 74.6 98.2999 72.1 95.5999 70.6C92.2999 68.8 17.2999 21.7 8.8999 15.1C0.399902 8.5 0.399902 0 0.399902 0H213.2Z" fill="url(#paint2_linear)"/>
<circle cx="105.5" cy="71.5" r="49.5" fill="#FFD34F"/>
<path d="M115.859 100H100.195V69.7656C100.195 66.0938 100.273 62.7344 100.43 59.6875C99.4661 60.8594 98.2682 62.0833 96.8359 63.3594L90.3516 68.7109L82.3438 58.8672L101.953 42.8906H115.859V100Z" fill="url(#paint3_linear)"/>
<defs>
<linearGradient id="paint0_linear" x1="106.833" y1="0.0203" x2="106.833" y2="135.813" gradientUnits="userSpaceOnUse">
<stop stop-color="#D5D5D0"/>
<stop offset="0.1161" stop-color="#E0E0DA"/>
<stop offset="0.3441" stop-color="#EFEFE7"/>
<stop offset="0.6097" stop-color="#F8F8EF"/>
<stop offset="1" stop-color="#FBFBF1"/>
</linearGradient>
<linearGradient id="paint1_linear" x1="107.288" y1="-58.6198" x2="107.288" y2="135.813" gradientUnits="userSpaceOnUse">
<stop stop-color="#D5D5D0"/>
<stop offset="0.1161" stop-color="#E0E0DA"/>
<stop offset="0.3441" stop-color="#EFEFE7"/>
<stop offset="0.6097" stop-color="#F8F8EF"/>
<stop offset="1" stop-color="#FBFBF1"/>
</linearGradient>
<linearGradient id="paint2_linear" x1="106.833" y1="194.454" x2="106.833" y2="0.0209994" gradientUnits="userSpaceOnUse">
<stop stop-color="#D5D5D0"/>
<stop offset="0.1161" stop-color="#E0E0DA"/>
<stop offset="0.3441" stop-color="#EFEFE7"/>
<stop offset="0.6097" stop-color="#F8F8EF"/>
<stop offset="1" stop-color="#FBFBF1"/>
</linearGradient>
<linearGradient id="paint3_linear" x1="99.4306" y1="-1.41571" x2="102.463" y2="138.356" gradientUnits="userSpaceOnUse">
<stop stop-color="#D91B24"/>
<stop offset="1" stop-color="#393C5A"/>
</linearGradient>
</defs>
</svg>
