<svg width="278" height="176" viewBox="0 0 278 176" fill="none" xmlns="http://www.w3.org/2000/svg">
<path d="M276.591 0H1.24023V175.8H276.591V0Z" fill="url(#paint0_linear)"/>
<path opacity="0.0163934" d="M0.592773 169.975C0.592773 169.975 0.592773 158.971 11.5965 150.427C22.6001 141.883 119.562 81.0392 123.834 78.5796C127.459 76.6377 136.262 73.4014 138.333 73.4014C140.534 73.4014 149.337 76.6377 152.832 78.5796C157.104 80.9098 254.195 141.883 265.069 150.427C276.073 158.971 276.073 169.975 276.073 169.975H0.592773Z" fill="#FEFEFE"/>
<path opacity="0.0327869" d="M0.592773 170.105C0.592773 170.105 0.592773 159.101 11.5965 150.557C22.6001 142.013 119.562 81.1691 123.834 78.7095C127.459 76.7676 136.262 73.5312 138.333 73.5312C140.534 73.5312 149.337 76.7676 152.832 78.7095C157.104 81.0396 254.195 142.013 265.069 150.557C276.073 159.101 276.073 170.105 276.073 170.105H0.592773Z" fill="#FDFDFD"/>
<path opacity="0.0491803" d="M0.72168 170.234C0.72168 170.234 0.72168 159.23 11.7254 150.686C22.729 142.142 119.691 81.298 123.963 78.8384C127.588 76.8965 136.391 73.6602 138.462 73.6602C140.663 73.6602 149.466 76.8965 152.961 78.8384C157.233 81.1686 254.324 142.142 265.198 150.686C276.202 159.23 276.202 170.234 276.202 170.234H0.72168Z" fill="#FCFCFC"/>
<path opacity="0.0655738" d="M0.72168 170.363C0.72168 170.363 0.72168 159.359 11.7254 150.815C22.729 142.271 119.691 81.4269 123.963 78.9673C127.588 77.0254 136.391 73.7891 138.462 73.7891C140.663 73.7891 149.466 77.0254 152.961 78.9673C157.233 81.2975 254.324 142.271 265.198 150.815C276.202 159.359 276.202 170.363 276.202 170.363H0.72168Z" fill="#FBFBFB"/>
<path opacity="0.0819672" d="M0.72168 170.363C0.72168 170.363 0.72168 159.359 11.7254 150.815C22.729 142.271 119.691 81.4269 123.963 78.9673C127.588 77.0254 136.391 73.7891 138.462 73.7891C140.663 73.7891 149.466 77.0254 152.961 78.9673C157.233 81.2975 254.324 142.271 265.198 150.815C276.202 159.359 276.202 170.363 276.202 170.363H0.72168Z" fill="#FAFAFA"/>
<path opacity="0.0983607" d="M0.72168 170.492C0.72168 170.492 0.72168 159.489 11.7254 150.945C22.729 142.401 119.691 81.5568 123.963 79.0971C127.588 77.1553 136.391 73.9189 138.462 73.9189C140.663 73.9189 149.466 77.1553 152.961 79.0971C157.233 81.4273 254.324 142.401 265.198 150.945C276.202 159.489 276.202 170.492 276.202 170.492H0.72168Z" fill="#F9F9F9"/>
<path opacity="0.1148" d="M0.72168 170.622C0.72168 170.622 0.72168 159.619 11.7254 151.075C22.729 142.531 119.691 81.6867 123.963 79.227C127.588 77.2852 136.391 74.0488 138.462 74.0488C140.663 74.0488 149.466 77.2852 152.961 79.227C157.233 81.5572 254.324 142.531 265.198 151.075C276.202 159.619 276.202 170.622 276.202 170.622H0.72168Z" fill="#F8F8F8"/>
<path opacity="0.1311" d="M0.72168 170.751C0.72168 170.751 0.72168 159.748 11.7254 151.204C22.729 142.659 119.691 81.8156 123.963 79.3559C127.588 77.4141 136.391 74.1777 138.462 74.1777C140.663 74.1777 149.466 77.4141 152.961 79.3559C157.233 81.6861 254.324 142.659 265.198 151.204C276.202 159.748 276.202 170.751 276.202 170.751H0.72168Z" fill="#F7F7F7"/>
<path opacity="0.1475" d="M0.72168 170.751C0.72168 170.751 0.72168 159.748 11.7254 151.204C22.729 142.659 119.691 81.8156 123.963 79.3559C127.588 77.4141 136.391 74.1777 138.462 74.1777C140.663 74.1777 149.466 77.4141 152.961 79.3559C157.233 81.6861 254.324 142.659 265.198 151.204C276.202 159.748 276.202 170.751 276.202 170.751H0.72168Z" fill="#F6F6F6"/>
<path opacity="0.1639" d="M0.852051 170.881C0.852051 170.881 0.852051 159.877 11.8557 151.333C22.8594 142.789 119.821 81.9455 124.093 79.4858C127.718 77.544 136.521 74.3076 138.592 74.3076C140.793 74.3076 149.596 77.544 153.091 79.4858C157.363 81.816 254.455 142.789 265.329 151.333C276.332 159.877 276.332 170.881 276.332 170.881H0.852051Z" fill="#F5F5F5"/>
<path opacity="0.1803" d="M0.852051 171.01C0.852051 171.01 0.852051 160.006 11.8557 151.462C22.8594 142.918 119.821 82.0744 124.093 79.6147C127.718 77.6729 136.521 74.4365 138.592 74.4365C140.793 74.4365 149.596 77.6729 153.091 79.6147C157.363 81.9449 254.455 142.918 265.329 151.462C276.332 160.006 276.332 171.01 276.332 171.01H0.852051Z" fill="#F4F4F4"/>
<path opacity="0.1967" d="M0.852051 171.14C0.852051 171.14 0.852051 160.136 11.8557 151.592C22.8594 143.048 119.821 82.2043 124.093 79.7446C127.718 77.8028 136.521 74.5664 138.592 74.5664C140.793 74.5664 149.596 77.8028 153.091 79.7446C157.363 82.0748 254.455 143.048 265.329 151.592C276.332 160.136 276.332 171.14 276.332 171.14H0.852051Z" fill="#F3F3F3"/>
<path opacity="0.2131" d="M0.852051 171.14C0.852051 171.14 0.852051 160.136 11.8557 151.592C22.8594 143.048 119.821 82.2043 124.093 79.7446C127.718 77.8028 136.521 74.5664 138.592 74.5664C140.793 74.5664 149.596 77.8028 153.091 79.7446C157.363 82.0748 254.455 143.048 265.329 151.592C276.332 160.136 276.332 171.14 276.332 171.14H0.852051Z" fill="#F2F2F3"/>
<path opacity="0.2295" d="M0.852051 171.269C0.852051 171.269 0.852051 160.265 11.8557 151.721C22.8594 143.177 119.821 82.3332 124.093 79.8735C127.718 77.9317 136.521 74.6953 138.592 74.6953C140.793 74.6953 149.596 77.9317 153.091 79.8735C157.363 82.2037 254.455 143.177 265.329 151.721C276.332 160.265 276.332 171.269 276.332 171.269H0.852051Z" fill="#F1F1F2"/>
<path opacity="0.2459" d="M0.852051 171.399C0.852051 171.399 0.852051 160.395 11.8557 151.851C22.8594 143.307 119.821 82.463 124.093 80.0034C127.718 78.0616 136.521 74.8252 138.592 74.8252C140.793 74.8252 149.596 78.0616 153.091 80.0034C157.363 82.3336 254.455 143.307 265.329 151.851C276.332 160.395 276.332 171.399 276.332 171.399H0.852051Z" fill="#F0F0F1"/>
<path opacity="0.2623" d="M0.852051 171.529C0.852051 171.529 0.852051 160.525 11.8557 151.981C22.8594 143.437 119.821 82.5929 124.093 80.1333C127.718 78.1915 136.521 74.9551 138.592 74.9551C140.793 74.9551 149.596 78.1915 153.091 80.1333C157.363 82.4635 254.455 143.437 265.329 151.981C276.332 160.525 276.332 171.529 276.332 171.529H0.852051Z" fill="#EFF0F0"/>
<path opacity="0.2787" d="M0.980957 171.529C0.980957 171.529 0.980957 160.525 11.9846 151.981C22.9883 143.437 119.95 82.5929 124.222 80.1333C127.847 78.1915 136.65 74.9551 138.721 74.9551C140.922 74.9551 149.725 78.1915 153.22 80.1333C157.492 82.4635 254.583 143.437 265.458 151.981C276.461 160.525 276.461 171.529 276.461 171.529H0.980957Z" fill="#EEEFEF"/>
<path opacity="0.2951" d="M0.980957 171.657C0.980957 171.657 0.980957 160.654 11.9846 152.11C22.9883 143.566 119.95 82.7218 124.222 80.2622C127.847 78.3204 136.65 75.084 138.721 75.084C140.922 75.084 149.725 78.3204 153.22 80.2622C157.492 82.5924 254.583 143.566 265.458 152.11C276.461 160.654 276.461 171.657 276.461 171.657H0.980957Z" fill="#EDEEEE"/>
<path opacity="0.3115" d="M0.980957 171.787C0.980957 171.787 0.980957 160.784 11.9846 152.24C22.9883 143.696 119.95 82.8517 124.222 80.3921C127.847 78.4502 136.65 75.2139 138.721 75.2139C140.922 75.2139 149.725 78.4502 153.22 80.3921C157.492 82.7223 254.583 143.696 265.458 152.24C276.461 160.784 276.461 171.787 276.461 171.787H0.980957Z" fill="#ECEDED"/>
<path opacity="0.3279" d="M0.980957 171.916C0.980957 171.916 0.980957 160.913 11.9846 152.369C22.9883 143.825 119.95 82.9806 124.222 80.521C127.847 78.5792 136.65 75.3428 138.721 75.3428C140.922 75.3428 149.725 78.5792 153.22 80.521C157.492 82.8512 254.583 143.825 265.458 152.369C276.461 160.913 276.461 171.916 276.461 171.916H0.980957Z" fill="#EBECEC"/>
<path opacity="0.3443" d="M0.980957 171.916C0.980957 171.916 0.980957 160.913 11.9846 152.369C22.9883 143.825 119.95 82.9806 124.222 80.521C127.847 78.5792 136.65 75.3428 138.721 75.3428C140.922 75.3428 149.725 78.5792 153.22 80.521C157.492 82.8512 254.583 143.825 265.458 152.369C276.461 160.913 276.461 171.916 276.461 171.916H0.980957Z" fill="#EAEBEB"/>
<path opacity="0.3607" d="M0.980957 172.046C0.980957 172.046 0.980957 161.042 11.9846 152.498C22.9883 143.954 119.95 83.1105 124.222 80.6509C127.847 78.709 136.65 75.4727 138.721 75.4727C140.922 75.4727 149.725 78.709 153.22 80.6509C157.492 82.9811 254.583 143.954 265.458 152.498C276.461 161.042 276.461 172.046 276.461 172.046H0.980957Z" fill="#E9EAEA"/>
<path opacity="0.377" d="M1.11133 172.176C1.11133 172.176 1.11133 161.172 12.115 152.628C23.1187 144.084 120.081 83.2404 124.353 80.7807C127.977 78.8389 136.78 75.6025 138.852 75.6025C141.052 75.6025 149.855 78.8389 153.351 80.7807C157.623 83.1109 254.714 144.084 265.588 152.628C276.592 161.172 276.592 172.176 276.592 172.176H1.11133Z" fill="#E9E9E9"/>
<path opacity="0.3934" d="M1.11133 172.305C1.11133 172.305 1.11133 161.301 12.115 152.757C23.1187 144.213 120.081 83.3693 124.353 80.9096C127.977 78.9678 136.78 75.7314 138.852 75.7314C141.052 75.7314 149.855 78.9678 153.351 80.9096C157.623 83.2398 254.714 144.213 265.588 152.757C276.592 161.301 276.592 172.305 276.592 172.305H1.11133Z" fill="#E8E8E8"/>
<path opacity="0.4098" d="M1.11133 172.305C1.11133 172.305 1.11133 161.301 12.115 152.757C23.1187 144.213 120.081 83.3693 124.353 80.9096C127.977 78.9678 136.78 75.7314 138.852 75.7314C141.052 75.7314 149.855 78.9678 153.351 80.9096C157.623 83.2398 254.714 144.213 265.588 152.757C276.592 161.301 276.592 172.305 276.592 172.305H1.11133Z" fill="#E7E7E7"/>
<path opacity="0.4262" d="M1.11133 172.434C1.11133 172.434 1.11133 161.43 12.115 152.886C23.1187 144.342 120.081 83.4982 124.353 81.0386C127.977 79.0967 136.78 75.8604 138.852 75.8604C141.052 75.8604 149.855 79.0967 153.351 81.0386C157.623 83.3687 254.714 144.342 265.588 152.886C276.592 161.43 276.592 172.434 276.592 172.434H1.11133Z" fill="#E6E6E6"/>
<path opacity="0.4426" d="M1.11133 172.564C1.11133 172.564 1.11133 161.56 12.115 153.016C23.1187 144.472 120.081 83.6281 124.353 81.1684C127.977 79.2266 136.78 75.9902 138.852 75.9902C141.052 75.9902 149.855 79.2266 153.351 81.1684C157.623 83.4986 254.714 144.472 265.588 153.016C276.592 161.56 276.592 172.564 276.592 172.564H1.11133Z" fill="#E5E5E5"/>
<path opacity="0.459" d="M1.11133 172.694C1.11133 172.694 1.11133 161.69 12.115 153.146C23.1187 144.602 120.081 83.758 124.353 81.2983C127.977 79.3565 136.78 76.1201 138.852 76.1201C141.052 76.1201 149.855 79.3565 153.351 81.2983C157.623 83.6285 254.714 144.602 265.588 153.146C276.592 161.69 276.592 172.694 276.592 172.694H1.11133Z" fill="#E4E4E4"/>
<path opacity="0.4754" d="M1.11133 172.694C1.11133 172.694 1.11133 161.69 12.115 153.146C23.1187 144.602 120.081 83.758 124.353 81.2983C127.977 79.3565 136.78 76.1201 138.852 76.1201C141.052 76.1201 149.855 79.3565 153.351 81.2983C157.623 83.6285 254.714 144.602 265.588 153.146C276.592 161.69 276.592 172.694 276.592 172.694H1.11133Z" fill="#E3E3E3"/>
<path opacity="0.4918" d="M1.24023 172.823C1.24023 172.823 1.24023 161.819 12.2439 153.275C23.2476 144.731 120.209 83.8869 124.481 81.4272C128.106 79.4854 136.909 76.249 138.98 76.249C141.181 76.249 149.984 79.4854 153.479 81.4272C157.751 83.7574 254.843 144.731 265.717 153.275C276.721 161.819 276.721 172.823 276.721 172.823H1.24023Z" fill="#E2E2E2"/>
<path opacity="0.5082" d="M1.24023 172.951C1.24023 172.951 1.24023 161.948 12.2439 153.404C23.2476 144.86 120.209 84.0158 124.481 81.5561C128.106 79.6143 136.909 76.3779 138.98 76.3779C141.181 76.3779 149.984 79.6143 153.479 81.5561C157.751 83.8863 254.843 144.86 265.717 153.404C276.721 161.948 276.721 172.951 276.721 172.951H1.24023Z" fill="#E1E1E1"/>
<path opacity="0.5246" d="M1.24023 172.951C1.24023 172.951 1.24023 161.948 12.2439 153.404C23.2476 144.86 120.209 84.0158 124.481 81.5561C128.106 79.6143 136.909 76.3779 138.98 76.3779C141.181 76.3779 149.984 79.6143 153.479 81.5561C157.751 83.8863 254.843 144.86 265.717 153.404C276.721 161.948 276.721 172.951 276.721 172.951H1.24023Z" fill="#E0E0E0"/>
<path opacity="0.541" d="M1.24023 173.081C1.24023 173.081 1.24023 162.078 12.2439 153.534C23.2476 144.99 120.209 84.1457 124.481 81.686C128.106 79.7442 136.909 76.5078 138.98 76.5078C141.181 76.5078 149.984 79.7442 153.479 81.686C157.751 84.0162 254.843 144.99 265.717 153.534C276.721 162.078 276.721 173.081 276.721 173.081H1.24023Z" fill="#DFDFDF"/>
<path opacity="0.5574" d="M1.24023 173.211C1.24023 173.211 1.24023 162.207 12.2439 153.663C23.2476 145.119 120.209 84.2755 124.481 81.8159C128.106 79.8741 136.909 76.6377 138.98 76.6377C141.181 76.6377 149.984 79.8741 153.479 81.8159C157.751 84.1461 254.843 145.119 265.717 153.663C276.721 162.207 276.721 173.211 276.721 173.211H1.24023Z" fill="#DEDEDE"/>
<path opacity="0.5738" d="M1.24023 173.341C1.24023 173.341 1.24023 162.337 12.2439 153.793C23.2476 145.249 120.209 84.4054 124.481 81.9458C128.106 80.004 136.909 76.7676 138.98 76.7676C141.181 76.7676 149.984 80.004 153.479 81.9458C157.751 84.276 254.843 145.249 265.717 153.793C276.721 162.337 276.721 173.341 276.721 173.341H1.24023Z" fill="#DDDDDD"/>
<path opacity="0.5902" d="M1.24023 173.341C1.24023 173.341 1.24023 162.337 12.2439 153.793C23.2476 145.249 120.209 84.4054 124.481 81.9458C128.106 80.004 136.909 76.7676 138.98 76.7676C141.181 76.7676 149.984 80.004 153.479 81.9458C157.751 84.276 254.843 145.249 265.717 153.793C276.721 162.337 276.721 173.341 276.721 173.341H1.24023Z" fill="#DCDCDC"/>
<path opacity="0.6066" d="M1.36914 173.47C1.36914 173.47 1.36914 162.466 12.3728 153.922C23.3765 145.378 120.338 84.5343 124.61 82.0747C128.235 80.1329 137.038 76.8965 139.109 76.8965C141.31 76.8965 150.113 80.1329 153.608 82.0747C157.88 84.4049 254.972 145.378 265.846 153.922C276.72 162.466 276.72 173.47 276.72 173.47H1.36914Z" fill="#DBDBDB"/>
<path opacity="0.623" d="M1.36914 173.599C1.36914 173.599 1.36914 162.595 12.3728 154.051C23.3765 145.507 120.338 84.6632 124.61 82.2036C128.235 80.2618 137.038 77.0254 139.109 77.0254C141.31 77.0254 150.113 80.2618 153.608 82.2036C157.88 84.5338 254.972 145.507 265.846 154.051C276.72 162.595 276.72 173.599 276.72 173.599H1.36914Z" fill="#DADADA"/>
<path opacity="0.6393" d="M1.36914 173.729C1.36914 173.729 1.36914 162.725 12.3728 154.181C23.3765 145.637 120.338 84.7931 124.61 82.3335C128.235 80.3917 137.038 77.1553 139.109 77.1553C141.31 77.1553 150.113 80.3917 153.608 82.3335C157.88 84.6637 254.972 145.637 265.846 154.181C276.72 162.725 276.72 173.729 276.72 173.729H1.36914Z" fill="#D9D9DA"/>
<path opacity="0.6557" d="M1.36914 173.729C1.36914 173.729 1.36914 162.725 12.3728 154.181C23.3765 145.637 120.338 84.7931 124.61 82.3335C128.235 80.3917 137.038 77.1553 139.109 77.1553C141.31 77.1553 150.113 80.3917 153.608 82.3335C157.88 84.6637 254.972 145.637 265.846 154.181C276.72 162.725 276.72 173.729 276.72 173.729H1.36914Z" fill="#D8D8D9"/>
<path opacity="0.6721" d="M1.36914 173.859C1.36914 173.859 1.36914 162.855 12.3728 154.311C23.3765 145.767 120.338 84.923 124.61 82.4634C128.235 80.5215 137.038 77.2852 139.109 77.2852C141.31 77.2852 150.113 80.5215 153.608 82.4634C157.88 84.7936 254.972 145.767 265.846 154.311C276.72 162.855 276.72 173.859 276.72 173.859H1.36914Z" fill="#D7D7D8"/>
<path opacity="0.6885" d="M1.36914 173.988C1.36914 173.988 1.36914 162.984 12.3728 154.44C23.3765 145.896 120.338 85.0519 124.61 82.5923C128.235 80.6504 137.038 77.4141 139.109 77.4141C141.31 77.4141 150.113 80.6504 153.608 82.5923C157.88 84.9225 254.972 145.896 265.846 154.44C276.72 162.984 276.72 173.988 276.72 173.988H1.36914Z" fill="#D6D6D7"/>
<path opacity="0.7049" d="M1.36914 174.117C1.36914 174.117 1.36914 163.114 12.3728 154.57C23.3765 146.026 120.338 85.1818 124.61 82.7221C128.235 80.7803 137.038 77.5439 139.109 77.5439C141.31 77.5439 150.113 80.7803 153.608 82.7221C157.88 85.0523 254.972 146.026 265.846 154.57C276.72 163.114 276.72 174.117 276.72 174.117H1.36914Z" fill="#D5D5D6"/>
<path opacity="0.7213" d="M1.49902 174.117C1.49902 174.117 1.49902 163.114 12.5027 154.57C23.5064 146.026 120.468 85.1818 124.74 82.7221C128.365 80.7803 137.168 77.5439 139.239 77.5439C141.44 77.5439 150.243 80.7803 153.738 82.7221C158.01 85.0523 255.102 146.026 265.976 154.57C276.85 163.114 276.85 174.117 276.85 174.117H1.49902Z" fill="#D4D4D5"/>
<path opacity="0.7377" d="M1.49902 174.246C1.49902 174.246 1.49902 163.243 12.5027 154.699C23.5064 146.155 120.468 85.3107 124.74 82.8511C128.365 80.9092 137.168 77.6729 139.239 77.6729C141.44 77.6729 150.243 80.9092 153.738 82.8511C158.01 85.1812 255.102 146.155 265.976 154.699C276.85 163.243 276.85 174.246 276.85 174.246H1.49902Z" fill="#D3D3D4"/>
<path opacity="0.7541" d="M1.49902 174.376C1.49902 174.376 1.49902 163.373 12.5027 154.829C23.5064 146.284 120.468 85.4406 124.74 82.9809C128.365 81.0391 137.168 77.8027 139.239 77.8027C141.44 77.8027 150.243 81.0391 153.738 82.9809C158.01 85.3111 255.102 146.284 265.976 154.829C276.85 163.373 276.85 174.376 276.85 174.376H1.49902Z" fill="#D2D2D3"/>
<path opacity="0.7705" d="M1.49902 174.505C1.49902 174.505 1.49902 163.501 12.5027 154.957C23.5064 146.413 120.468 85.5695 124.74 83.1098C128.365 81.168 137.168 77.9316 139.239 77.9316C141.44 77.9316 150.243 81.168 153.738 83.1098C158.01 85.44 255.102 146.413 265.976 154.957C276.85 163.501 276.85 174.505 276.85 174.505H1.49902Z" fill="#D1D2D2"/>
<path opacity="0.7869" d="M1.49902 174.505C1.49902 174.505 1.49902 163.501 12.5027 154.957C23.5064 146.413 120.468 85.5695 124.74 83.1098C128.365 81.168 137.168 77.9316 139.239 77.9316C141.44 77.9316 150.243 81.168 153.738 83.1098C158.01 85.44 255.102 146.413 265.976 154.957C276.85 163.501 276.85 174.505 276.85 174.505H1.49902Z" fill="#D0D1D1"/>
<path opacity="0.8033" d="M1.49902 174.635C1.49902 174.635 1.49902 163.631 12.5027 155.087C23.5064 146.543 120.468 85.6994 124.74 83.2397C128.365 81.2979 137.168 78.0615 139.239 78.0615C141.44 78.0615 150.243 81.2979 153.738 83.2397C158.01 85.5699 255.102 146.543 265.976 155.087C276.85 163.631 276.85 174.635 276.85 174.635H1.49902Z" fill="#CFD0D0"/>
<path opacity="0.8197" d="M1.62793 174.765C1.62793 174.765 1.62793 163.761 12.6316 155.217C23.6353 146.673 120.597 85.8293 124.869 83.3696C128.494 81.4278 137.297 78.1914 139.368 78.1914C141.569 78.1914 150.372 81.4278 153.867 83.3696C158.139 85.6998 255.23 146.673 266.105 155.217C276.979 163.761 276.979 174.765 276.979 174.765H1.62793Z" fill="#CECFCF"/>
<path opacity="0.8361" d="M1.62793 174.894C1.62793 174.894 1.62793 163.89 12.6316 155.346C23.6353 146.802 120.597 85.9582 124.869 83.4985C128.494 81.5567 137.297 78.3203 139.368 78.3203C141.569 78.3203 150.372 81.5567 153.867 83.4985C158.139 85.8287 255.23 146.802 266.105 155.346C276.979 163.89 276.979 174.894 276.979 174.894H1.62793Z" fill="#CDCECE"/>
<path opacity="0.8525" d="M1.62793 174.894C1.62793 174.894 1.62793 163.89 12.6316 155.346C23.6353 146.802 120.597 85.9582 124.869 83.4985C128.494 81.5567 137.297 78.3203 139.368 78.3203C141.569 78.3203 150.372 81.5567 153.867 83.4985C158.139 85.8287 255.23 146.802 266.105 155.346C276.979 163.89 276.979 174.894 276.979 174.894H1.62793Z" fill="#CCCDCD"/>
<path opacity="0.8689" d="M1.62793 175.024C1.62793 175.024 1.62793 164.02 12.6316 155.476C23.6353 146.932 120.597 86.088 124.869 83.6284C128.494 81.6866 137.297 78.4502 139.368 78.4502C141.569 78.4502 150.372 81.6866 153.867 83.6284C158.139 85.9586 255.23 146.932 266.105 155.476C276.979 164.02 276.979 175.024 276.979 175.024H1.62793Z" fill="#CBCCCC"/>
<path opacity="0.8852" d="M1.62793 175.153C1.62793 175.153 1.62793 164.149 12.6316 155.605C23.6353 147.061 120.597 86.217 124.869 83.7573C128.494 81.8155 137.297 78.5791 139.368 78.5791C141.569 78.5791 150.372 81.8155 153.867 83.7573C158.139 86.0875 255.23 147.061 266.105 155.605C276.979 164.149 276.979 175.153 276.979 175.153H1.62793Z" fill="#CACBCB"/>
<path opacity="0.9016" d="M1.62793 175.282C1.62793 175.282 1.62793 164.279 12.6316 155.735C23.6353 147.191 120.597 86.3468 124.869 83.8872C128.494 81.9454 137.297 78.709 139.368 78.709C141.569 78.709 150.372 81.9454 153.867 83.8872C158.139 86.2174 255.23 147.191 266.105 155.735C276.979 164.279 276.979 175.282 276.979 175.282H1.62793Z" fill="#C9CACA"/>
<path opacity="0.918" d="M1.62793 175.282C1.62793 175.282 1.62793 164.279 12.6316 155.735C23.6353 147.191 120.597 86.3468 124.869 83.8872C128.494 81.9454 137.297 78.709 139.368 78.709C141.569 78.709 150.372 81.9454 153.867 83.8872C158.139 86.2174 255.23 147.191 266.105 155.735C276.979 164.279 276.979 175.282 276.979 175.282H1.62793Z" fill="#C8C9C9"/>
<path opacity="0.9344" d="M1.7583 175.412C1.7583 175.412 1.7583 164.409 12.762 155.865C23.7657 147.321 120.728 86.4767 125 84.0171C128.624 82.0752 137.427 78.8389 139.499 78.8389C141.699 78.8389 150.502 82.0752 153.997 84.0171C158.27 86.3473 255.361 147.321 266.235 155.865C277.109 164.409 277.109 175.412 277.109 175.412H1.7583Z" fill="#C7C8C8"/>
<path opacity="0.9508" d="M1.7583 175.541C1.7583 175.541 1.7583 164.538 12.762 155.994C23.7657 147.45 120.728 86.6056 125 84.146C128.624 82.2042 137.427 78.9678 139.499 78.9678C141.699 78.9678 150.502 82.2042 153.997 84.146C158.27 86.4762 255.361 147.45 266.235 155.994C277.109 164.538 277.109 175.541 277.109 175.541H1.7583Z" fill="#C6C7C7"/>
<path opacity="0.9672" d="M1.7583 175.67C1.7583 175.67 1.7583 164.666 12.762 156.122C23.7657 147.578 120.728 86.7345 125 84.2749C128.624 82.3331 137.427 79.0967 139.499 79.0967C141.699 79.0967 150.502 82.3331 153.997 84.2749C158.27 86.6051 255.361 147.578 266.235 156.122C277.109 164.666 277.109 175.67 277.109 175.67H1.7583Z" fill="#C5C6C6"/>
<path opacity="0.9836" d="M1.7583 175.67C1.7583 175.67 1.7583 164.666 12.762 156.122C23.7657 147.578 120.728 86.7345 125 84.2749C128.624 82.3331 137.427 79.0967 139.499 79.0967C141.699 79.0967 150.502 82.3331 153.997 84.2749C158.27 86.6051 255.361 147.578 266.235 156.122C277.109 164.666 277.109 175.67 277.109 175.67H1.7583Z" fill="#C4C5C5"/>
<path d="M1.7583 175.8C1.7583 175.8 1.7583 164.796 12.762 156.252C23.7657 147.708 120.728 86.8644 125 84.4048C128.624 82.4629 137.427 79.2266 139.499 79.2266C141.699 79.2266 150.502 82.4629 153.997 84.4048C158.27 86.735 255.361 147.708 266.235 156.252C277.109 164.796 277.109 175.8 277.109 175.8H1.7583Z" fill="#B0B0B0"/>
<path d="M1.7583 175.8C1.7583 175.8 1.7583 164.796 12.762 156.252C23.7657 147.708 120.728 86.8644 125 84.4048C128.624 82.4629 134.838 79.2266 139.499 79.2266C144.159 79.2266 150.502 82.4629 153.997 84.4048C158.27 86.735 255.361 147.708 266.235 156.252C277.109 164.796 277.109 175.8 277.109 175.8H1.7583Z" fill="url(#paint1_linear)"/>
<path opacity="0.0163934" d="M277.757 5.8252C277.757 5.8252 277.757 24.5962 266.753 33.9169C255.749 43.2377 158.788 104.599 154.516 107.189C150.891 109.389 142.088 112.885 140.017 112.885C137.816 112.885 129.013 109.389 125.518 107.189C121.246 104.599 24.1543 43.2377 13.28 33.9169C2.27637 24.5962 2.27637 5.8252 2.27637 5.8252H277.757Z" fill="#FEFEFE"/>
<path opacity="0.0327869" d="M277.757 5.69629C277.757 5.69629 277.757 24.3378 266.753 33.6586C255.749 42.9794 158.788 104.341 154.516 106.93C150.891 109.131 142.088 112.497 140.017 112.497C137.816 112.497 129.013 109.001 125.518 106.93C121.246 104.341 24.1543 42.9794 13.28 33.6586C2.27637 24.3378 2.27637 5.69629 2.27637 5.69629H277.757Z" fill="#FDFDFD"/>
<path opacity="0.0491803" d="M277.757 5.69629C277.757 5.69629 277.757 24.2084 266.753 33.5291C255.749 42.8499 158.788 104.212 154.516 106.801C150.891 109.001 142.088 112.367 140.017 112.367C137.816 112.367 129.013 108.872 125.518 106.801C121.246 104.212 24.1543 42.8499 13.28 33.5291C2.27637 24.2084 2.27637 5.69629 2.27637 5.69629H277.757Z" fill="#FCFCFC"/>
<path opacity="0.0655738" d="M277.757 5.56641C277.757 5.56641 277.757 23.949 266.753 33.2698C255.749 42.4611 158.788 103.952 154.516 106.541C150.891 108.742 142.088 112.108 140.017 112.108C137.816 112.108 129.013 108.613 125.518 106.541C121.246 103.952 24.1543 42.5906 13.28 33.2698C2.27637 23.949 2.27637 5.56641 2.27637 5.56641H277.757Z" fill="#FBFBFB"/>
<path opacity="0.0819672" d="M277.627 5.4375C277.627 5.4375 277.627 23.6907 266.623 33.0114C255.62 42.2027 158.658 103.694 154.386 106.154C150.761 108.354 141.958 111.72 139.887 111.72C137.686 111.72 128.883 108.225 125.388 106.154C121.116 103.564 24.0244 42.2027 13.1502 33.0114C2.14648 23.8201 2.14648 5.4375 2.14648 5.4375H277.627Z" fill="#FAFAFA"/>
<path opacity="0.0983607" d="M277.627 5.30762C277.627 5.30762 277.627 23.4313 266.623 32.7521C255.62 41.9434 158.658 103.305 154.386 105.894C150.761 107.965 141.958 111.461 139.887 111.461C137.686 111.461 128.883 107.965 125.388 105.894C121.116 103.305 24.0244 41.9434 13.1502 32.7521C2.14648 23.5608 2.14648 5.30762 2.14648 5.30762H277.627Z" fill="#F9F9F9"/>
<path opacity="0.1148" d="M277.627 5.30762C277.627 5.30762 277.627 23.3019 266.623 32.6226C255.62 41.814 158.658 103.176 154.386 105.765C150.761 107.836 141.958 111.331 139.887 111.331C137.686 111.331 128.883 107.836 125.388 105.765C121.116 103.176 24.0244 41.814 13.1502 32.6226C2.14648 23.4313 2.14648 5.30762 2.14648 5.30762H277.627Z" fill="#F8F8F8"/>
<path opacity="0.1311" d="M277.627 5.17773C277.627 5.17773 277.627 23.0425 266.623 32.2338C255.62 41.4252 158.658 102.787 154.386 105.376C150.761 107.447 141.958 110.943 139.887 110.943C137.686 110.943 128.883 107.447 125.388 105.376C121.116 102.787 24.0244 41.4252 13.1502 32.2338C2.14648 23.0425 2.14648 5.17773 2.14648 5.17773H277.627Z" fill="#F7F7F7"/>
<path opacity="0.1475" d="M277.627 5.04883C277.627 5.04883 277.627 22.7842 266.623 31.9755C255.62 41.1668 158.658 102.529 154.386 105.118C150.761 107.189 141.958 110.684 139.887 110.684C137.686 110.684 128.883 107.189 125.388 105.118C121.116 102.529 24.0244 41.1668 13.1502 31.9755C2.14648 22.7842 2.14648 5.04883 2.14648 5.04883H277.627Z" fill="#F6F6F6"/>
<path opacity="0.1639" d="M277.627 4.91895C277.627 4.91895 277.627 22.5248 266.623 31.7161C255.62 40.9075 158.658 102.269 154.386 104.729C150.761 106.8 141.958 110.295 139.887 110.295C137.686 110.295 128.883 106.8 125.388 104.729C121.116 102.14 24.0244 40.778 13.1502 31.7161C2.14648 22.5248 2.14648 4.91895 2.14648 4.91895H277.627Z" fill="#F5F5F5"/>
<path opacity="0.1803" d="M277.627 4.91895C277.627 4.91895 277.627 22.3954 266.623 31.5867C255.62 40.778 158.658 102.14 154.386 104.599C150.761 106.671 141.958 110.166 139.887 110.166C137.686 110.166 128.883 106.671 125.388 104.599C121.116 102.01 24.0244 40.778 13.1502 31.5867C2.14648 22.3954 2.14648 4.91895 2.14648 4.91895H277.627Z" fill="#F4F4F4"/>
<path opacity="0.1967" d="M277.497 4.79004C277.497 4.79004 277.497 22.137 266.494 31.3283C255.49 40.5196 158.528 101.752 154.256 104.341C150.632 106.412 141.829 109.908 139.757 109.908C137.557 109.908 128.754 106.412 125.258 104.341C120.986 101.752 23.895 40.5196 13.0208 31.3283C2.01709 22.137 2.01709 4.79004 2.01709 4.79004H277.497Z" fill="#F3F3F3"/>
<path opacity="0.2131" d="M277.497 4.66016C277.497 4.66016 277.497 21.8777 266.494 31.069C255.49 40.2603 158.528 101.493 154.256 104.082C150.632 106.153 141.829 109.648 139.757 109.648C137.557 109.648 128.754 106.153 125.258 104.082C120.986 101.493 23.895 40.2603 13.0208 31.069C2.01709 21.8777 2.01709 4.66016 2.01709 4.66016H277.497Z" fill="#F2F2F3"/>
<path opacity="0.2295" d="M277.497 4.53125C277.497 4.53125 277.497 21.6193 266.494 30.8106C255.49 40.0019 158.528 101.234 154.256 103.823C150.632 105.895 141.829 109.39 139.757 109.39C137.557 109.39 128.754 105.895 125.258 103.823C120.986 101.234 23.895 40.0019 13.0208 30.8106C2.01709 21.6193 2.01709 4.53125 2.01709 4.53125H277.497Z" fill="#F1F1F2"/>
<path opacity="0.2459" d="M277.497 4.53125C277.497 4.53125 277.497 21.4899 266.494 30.6812C255.49 39.743 158.528 101.105 154.256 103.694C150.632 105.765 141.829 109.26 139.757 109.26C137.557 109.26 128.754 105.895 125.258 103.694C120.986 101.105 23.895 39.8725 13.0208 30.6812C2.01709 21.6193 2.01709 4.53125 2.01709 4.53125H277.497Z" fill="#F0F0F1"/>
<path opacity="0.2623" d="M277.497 4.40137C277.497 4.40137 277.497 21.2305 266.494 30.4218C255.49 39.4837 158.528 100.845 154.256 103.305C150.632 105.376 141.829 108.872 139.757 108.872C137.557 108.872 128.754 105.506 125.258 103.305C120.986 100.716 23.895 39.4837 13.0208 30.4218C2.01709 21.36 2.01709 4.40137 2.01709 4.40137H277.497Z" fill="#EFF0F0"/>
<path opacity="0.2787" d="M277.497 4.27148C277.497 4.27148 277.497 20.9712 266.494 30.033C255.49 39.0949 158.528 100.457 154.256 102.916C150.632 104.988 141.829 108.483 139.757 108.483C137.557 108.483 128.754 105.117 125.258 102.916C120.986 100.327 23.895 39.0949 13.0208 30.033C2.01709 20.9712 2.01709 4.27148 2.01709 4.27148H277.497Z" fill="#EEEFEF"/>
<path opacity="0.2951" d="M277.368 4.14258C277.368 4.14258 277.368 20.7128 266.364 29.7747C255.36 38.8365 158.398 100.069 154.126 102.658C150.502 104.729 141.699 108.224 139.627 108.224C137.427 108.224 128.624 104.859 125.128 102.658C120.856 100.198 23.7651 38.8365 12.8909 29.7747C1.88721 20.7128 1.88721 4.14258 1.88721 4.14258H277.368Z" fill="#EDEEEE"/>
<path opacity="0.3115" d="M277.368 4.14258C277.368 4.14258 277.368 20.5834 266.364 29.6452C255.36 38.7071 158.398 99.9393 154.126 102.528C150.502 104.6 141.699 108.095 139.627 108.095C137.427 108.095 128.624 104.729 125.128 102.528C120.856 100.069 23.7651 38.7071 12.8909 29.6452C1.88721 20.5834 1.88721 4.14258 1.88721 4.14258H277.368Z" fill="#ECEDED"/>
<path opacity="0.3279" d="M277.368 4.01367C277.368 4.01367 277.368 20.325 266.364 29.3869C255.36 38.4487 158.398 99.681 154.126 102.27C150.502 104.341 141.699 107.707 139.627 107.707C137.427 107.707 128.624 104.341 125.128 102.27C120.856 99.8104 23.7651 38.4487 12.8909 29.3869C1.88721 20.325 1.88721 4.01367 1.88721 4.01367H277.368Z" fill="#EBECEC"/>
<path opacity="0.3443" d="M277.368 3.88379C277.368 3.88379 277.368 20.0657 266.364 29.1275C255.36 38.1894 158.398 99.4216 154.126 101.881C150.502 103.953 141.699 107.318 139.627 107.318C137.427 107.318 128.624 103.953 125.128 101.881C120.856 99.4216 23.7651 38.0599 12.8909 29.1275C1.88721 20.0657 1.88721 3.88379 1.88721 3.88379H277.368Z" fill="#EAEBEB"/>
<path opacity="0.3607" d="M277.368 3.75391C277.368 3.75391 277.368 19.8063 266.364 28.8682C255.36 37.93 158.398 99.1623 154.126 101.622C150.502 103.693 141.699 107.059 139.627 107.059C137.427 107.059 128.624 103.693 125.128 101.622C120.856 99.1623 23.7651 37.93 12.8909 28.8682C1.88721 19.8063 1.88721 3.75391 1.88721 3.75391H277.368Z" fill="#E9EAEA"/>
<path opacity="0.377" d="M277.368 3.75391C277.368 3.75391 277.368 19.6769 266.364 28.7387C255.36 37.8006 158.398 99.0328 154.126 101.492C150.502 103.564 141.699 106.93 139.627 106.93C137.427 106.93 128.624 103.564 125.128 101.492C120.856 99.0328 23.7651 37.8006 12.8909 28.7387C1.88721 19.6769 1.88721 3.75391 1.88721 3.75391H277.368Z" fill="#E9E9E9"/>
<path opacity="0.3934" d="M277.368 3.62402C277.368 3.62402 277.368 19.4175 266.364 28.4794C255.36 37.5413 158.398 98.7735 154.126 101.233C150.502 103.304 141.699 106.67 139.627 106.67C137.427 106.67 128.624 103.304 125.128 101.233C120.856 98.7735 23.7651 37.5413 12.8909 28.4794C1.88721 19.4175 1.88721 3.62402 1.88721 3.62402H277.368Z" fill="#E8E8E8"/>
<path opacity="0.4098" d="M277.239 3.49512C277.239 3.49512 277.239 19.1592 266.235 28.221C255.231 37.2829 158.27 98.3857 153.997 100.975C150.373 103.046 141.57 106.412 139.499 106.412C137.298 106.412 128.495 103.046 125 100.975C120.728 98.5151 23.6362 37.2829 12.762 28.221C1.7583 19.1592 1.7583 3.49512 1.7583 3.49512H277.239Z" fill="#E7E7E7"/>
<path opacity="0.4262" d="M277.239 3.36621C277.239 3.36621 277.239 18.9008 266.235 27.8332C255.231 36.7656 158.27 97.9979 153.997 100.458C150.373 102.529 141.57 105.895 139.499 105.895C137.298 105.895 128.495 102.529 125 100.458C120.728 97.9979 23.6362 36.7656 12.762 27.8332C1.7583 18.9008 1.7583 3.36621 1.7583 3.36621H277.239Z" fill="#E6E6E6"/>
<path opacity="0.4426" d="M277.239 3.36621C277.239 3.36621 277.239 18.7714 266.235 27.7038C255.231 36.6362 158.27 97.8684 153.997 100.328C150.373 102.399 141.57 105.765 139.499 105.765C137.298 105.765 128.495 102.399 125 100.328C120.728 97.8684 23.7657 36.6362 12.762 27.7038C1.7583 18.7714 1.7583 3.36621 1.7583 3.36621H277.239Z" fill="#E5E5E5"/>
<path opacity="0.459" d="M277.239 3.23633C277.239 3.23633 277.239 18.512 266.235 27.4444C255.231 36.3768 158.27 97.6091 153.997 100.069C150.373 102.14 141.57 105.506 139.499 105.506C137.298 105.506 128.495 102.14 125 100.069C120.728 97.6091 23.6362 36.3768 12.762 27.4444C1.7583 18.512 1.7583 3.23633 1.7583 3.23633H277.239Z" fill="#E4E4E4"/>
<path opacity="0.4754" d="M277.239 3.10645C277.239 3.10645 277.239 18.2527 266.235 27.1851C255.231 36.1175 158.27 97.3497 153.997 99.8094C150.373 101.881 141.57 105.247 139.499 105.247C137.298 105.247 128.495 101.881 125 99.8094C120.728 97.3497 23.6362 36.1175 12.762 27.1851C1.7583 18.2527 1.7583 3.10645 1.7583 3.10645H277.239Z" fill="#E3E3E3"/>
<path opacity="0.4918" d="M277.239 2.97754C277.239 2.97754 277.239 17.9943 266.235 26.9267C255.231 35.8591 158.27 97.0914 153.997 99.551C150.373 101.622 141.57 104.988 139.499 104.988C137.298 104.988 128.495 101.622 125 99.551C120.728 97.0914 23.6362 35.8591 12.762 26.9267C1.7583 17.9943 1.7583 2.97754 1.7583 2.97754H277.239Z" fill="#E2E2E2"/>
<path opacity="0.5082" d="M277.239 2.97754C277.239 2.97754 277.239 17.8649 266.235 26.7973C255.231 35.7297 158.27 96.8325 153.997 99.4216C150.373 101.493 141.57 104.859 139.499 104.859C137.298 104.859 128.495 101.493 125 99.4216C120.728 96.8325 23.6362 35.6002 12.762 26.7973C1.7583 17.8649 1.7583 2.97754 1.7583 2.97754H277.239Z" fill="#E1E1E1"/>
<path opacity="0.5246" d="M277.11 2.84863C277.11 2.84863 277.11 17.6065 266.106 26.5389C255.102 35.4713 158.141 96.5741 153.869 99.0338C150.244 101.105 141.441 104.471 139.37 104.471C137.169 104.471 128.366 101.105 124.871 99.0338C120.599 96.5741 23.5073 35.4713 12.6331 26.5389C1.62939 17.6065 1.62939 2.84863 1.62939 2.84863H277.11Z" fill="#E0E0E0"/>
<path opacity="0.541" d="M277.11 2.71875C277.11 2.71875 277.11 17.3472 266.106 26.2796C255.102 35.212 158.141 96.3148 153.869 98.7744C150.244 100.846 141.441 104.212 139.37 104.212C137.169 104.212 128.366 100.846 124.871 98.7744C120.599 96.3148 23.5073 35.212 12.6331 26.2796C1.62939 17.3472 1.62939 2.71875 1.62939 2.71875H277.11Z" fill="#DFDFDF"/>
<path opacity="0.5574" d="M277.11 2.58887C277.11 2.58887 277.11 17.0878 266.106 26.0202C255.102 34.9526 158.141 96.0555 153.869 98.5151C150.244 100.586 141.441 103.952 139.37 103.952C137.169 103.952 128.366 100.586 124.871 98.5151C120.599 96.0555 23.5073 34.9526 12.6331 26.0202C1.62939 17.0878 1.62939 2.58887 1.62939 2.58887H277.11Z" fill="#DEDEDE"/>
<path opacity="0.5738" d="M277.11 2.58887C277.11 2.58887 277.11 16.9584 266.106 25.7613C255.102 34.6937 158.141 95.7965 153.869 98.2562C150.244 100.327 141.441 103.693 139.37 103.693C137.169 103.693 128.366 100.327 124.871 98.2562C120.599 95.7965 23.5073 34.6937 12.6331 25.7613C1.62939 16.8289 1.62939 2.58887 1.62939 2.58887H277.11Z" fill="#DDDDDD"/>
<path opacity="0.5902" d="M277.11 2.45996C277.11 2.45996 277.11 16.7 266.106 25.503C255.102 34.3059 158.141 95.5382 153.869 97.9978C150.244 100.069 141.441 103.435 139.37 103.435C137.169 103.435 128.366 100.069 124.871 97.9978C120.599 95.5382 23.5073 34.4354 12.6331 25.503C1.62939 16.7 1.62939 2.45996 1.62939 2.45996H277.11Z" fill="#DCDCDC"/>
<path opacity="0.6066" d="M277.11 2.33008C277.11 2.33008 277.11 16.4407 266.106 25.2436C255.102 34.0466 158.141 95.1494 153.869 97.609C150.244 99.6803 141.441 103.046 139.37 103.046C137.169 103.046 128.366 99.6803 124.871 97.609C120.599 95.1494 23.5073 34.0466 12.6331 25.2436C1.62939 16.4407 1.62939 2.33008 1.62939 2.33008H277.11Z" fill="#DBDBDB"/>
<path opacity="0.623" d="M276.98 2.20117C276.98 2.20117 276.98 16.1823 265.977 24.9853C254.973 33.7882 158.011 94.891 153.739 97.3507C150.114 99.4219 141.311 102.658 139.24 102.658C137.039 102.658 128.236 99.2925 124.741 97.3507C120.469 94.891 23.3778 33.7882 12.5036 24.9853C1.6294 16.1823 1.62939 2.20117 1.62939 2.20117H276.98Z" fill="#DADADA"/>
<path opacity="0.6393" d="M276.98 2.20117C276.98 2.20117 276.98 16.0529 265.977 24.8558C254.973 33.6588 158.011 94.7616 153.739 97.2212C150.114 99.2925 141.311 102.529 139.24 102.529C137.039 102.529 128.236 99.163 124.741 97.2212C120.469 94.7616 23.3778 33.6588 12.5036 24.8558C1.6294 15.9234 1.62939 2.20117 1.62939 2.20117H276.98Z" fill="#D9D9DA"/>
<path opacity="0.6557" d="M276.98 2.07129C276.98 2.07129 276.98 15.7935 265.977 24.5965C254.973 33.3994 158.011 94.5022 153.739 96.9619C150.114 99.0332 141.311 102.27 139.24 102.27C137.039 102.27 128.236 98.9037 124.741 96.9619C120.469 94.5022 23.3778 33.3994 12.5036 24.5965C1.6294 15.7935 1.62939 2.07129 1.62939 2.07129H276.98Z" fill="#D8D8D9"/>
<path opacity="0.6721" d="M276.98 1.94141C276.98 1.94141 276.98 15.5342 265.977 24.3371C254.973 33.1401 158.011 94.2429 153.739 96.7025C150.114 98.7738 141.311 102.01 139.24 102.01C137.039 102.01 128.236 98.6443 124.741 96.7025C120.469 94.2429 23.3778 33.1401 12.5036 24.3371C1.6294 15.5342 1.62939 1.94141 1.62939 1.94141H276.98Z" fill="#D7D7D8"/>
<path opacity="0.6885" d="M276.979 1.8125C276.979 1.8125 276.979 15.2758 265.976 24.0788C254.972 32.8817 158.01 93.9845 153.738 96.3147C150.113 98.386 141.311 101.622 139.239 101.622C137.038 101.622 128.236 98.2565 124.74 96.3147C120.468 93.8551 23.3769 32.7523 12.5027 24.0788C1.49902 15.2758 1.49902 1.8125 1.49902 1.8125H276.979Z" fill="#D6D6D7"/>
<path opacity="0.7049" d="M276.979 1.8125C276.979 1.8125 276.979 15.1464 265.976 23.9493C254.972 32.7523 158.01 93.7256 153.738 96.1853C150.113 98.2565 141.311 101.493 139.239 101.493C137.038 101.493 128.236 98.2565 124.74 96.1853C120.468 93.7256 23.3769 32.7523 12.5027 23.9493C1.49902 15.1464 1.49902 1.8125 1.49902 1.8125H276.979Z" fill="#D5D5D6"/>
<path opacity="0.7213" d="M276.979 1.68262C276.979 1.68262 276.979 14.887 265.976 23.69C254.972 32.4929 158.01 93.4663 153.738 95.9259C150.113 97.9972 141.311 101.234 139.239 101.234C137.038 101.234 128.236 97.9972 124.74 95.9259C120.468 93.4663 23.3769 32.4929 12.5027 23.69C1.49902 14.887 1.49902 1.68262 1.49902 1.68262H276.979Z" fill="#D4D4D5"/>
<path opacity="0.7377" d="M276.851 1.55371C276.851 1.55371 276.851 14.6287 265.847 23.3022C254.843 32.1051 157.881 93.0785 153.609 95.5381C149.985 97.6094 141.182 100.846 139.11 100.846C136.91 100.846 128.107 97.6094 124.611 95.5381C120.339 93.0785 23.248 32.1051 12.3738 23.3022C1.37012 14.4992 1.37012 1.55371 1.37012 1.55371H276.851Z" fill="#D3D3D4"/>
<path opacity="0.7541" d="M276.851 1.42383C276.851 1.42383 276.851 14.3693 265.847 23.0428C254.843 31.8458 157.881 92.8191 153.609 95.2788C149.985 97.35 141.182 100.586 139.11 100.586C136.91 100.586 128.107 97.35 124.611 95.2788C120.339 92.8191 23.248 31.8458 12.3738 23.0428C1.37012 14.2399 1.37012 1.42383 1.37012 1.42383H276.851Z" fill="#D2D2D3"/>
<path opacity="0.7705" d="M276.851 1.42383C276.851 1.42383 276.851 14.2399 265.847 22.9134C254.843 31.5869 157.881 92.6897 153.609 95.0199C149.985 97.0911 141.182 100.327 139.11 100.327C136.91 100.327 128.107 97.0911 124.611 95.0199C120.339 92.5602 23.248 31.5869 12.3738 22.9134C1.37012 14.2399 1.37012 1.42383 1.37012 1.42383H276.851Z" fill="#D1D2D2"/>
<path opacity="0.7869" d="M276.851 1.29492C276.851 1.29492 276.851 13.9815 265.847 22.655C254.843 31.3285 157.881 92.4313 153.609 94.7615C149.985 96.8328 141.182 100.069 139.11 100.069C136.91 100.069 128.107 96.8328 124.611 94.7615C120.339 92.3018 23.248 31.3285 12.3738 22.655C1.37012 13.9815 1.37012 1.29492 1.37012 1.29492H276.851Z" fill="#D0D1D1"/>
<path opacity="0.8033" d="M276.851 1.16504C276.851 1.16504 276.851 13.7222 265.847 22.3957C254.843 31.0692 157.881 92.0425 153.609 94.5022C149.985 96.5734 141.182 99.8098 139.11 99.8098C136.91 99.8098 128.107 96.5734 124.611 94.5022C120.339 92.0425 23.248 31.0692 12.3738 22.3957C1.37012 13.7222 1.37012 1.16504 1.37012 1.16504H276.851Z" fill="#CFD0D0"/>
<path opacity="0.8197" d="M276.851 1.03516C276.851 1.03516 276.851 13.4628 265.847 22.1363C254.843 30.8098 157.881 91.7832 153.609 94.2428C149.985 96.3141 141.182 99.5505 139.11 99.5505C136.91 99.5505 128.107 96.3141 124.611 94.2428C120.339 91.7832 23.248 30.8098 12.3738 22.1363C1.37012 13.4628 1.37012 1.03516 1.37012 1.03516H276.851Z" fill="#CECFCF"/>
<path opacity="0.8361" d="M276.851 1.03516C276.851 1.03516 276.851 13.3334 265.847 22.0069C254.843 30.6804 157.881 91.6537 153.609 94.1134C149.985 96.1846 141.182 99.421 139.11 99.421C136.91 99.421 128.107 96.1846 124.611 94.1134C120.339 91.6537 23.248 30.6804 12.3738 22.0069C1.37012 13.3334 1.37012 1.03516 1.37012 1.03516H276.851Z" fill="#CDCECE"/>
<path opacity="0.8525" d="M276.72 0.90625C276.72 0.90625 276.72 13.075 265.716 21.7485C254.713 30.422 157.751 91.3953 153.479 93.855C149.854 95.7968 141.051 99.1627 138.98 99.1627C136.779 99.1627 127.976 95.9263 124.481 93.855C120.209 91.3953 23.1177 30.422 12.2434 21.7485C1.23975 13.075 1.23975 0.90625 1.23975 0.90625H276.72Z" fill="#CCCDCD"/>
<path opacity="0.8689" d="M276.72 0.777344C276.72 0.777344 276.72 12.8167 265.716 21.4902C254.713 30.1636 157.751 91.137 153.479 93.4672C149.854 95.409 141.051 98.7748 138.98 98.7748C136.779 98.7748 127.976 95.5385 124.481 93.4672C120.209 91.0075 23.2471 30.1636 12.2434 21.4902C1.23975 12.8167 1.23975 0.777344 1.23975 0.777344H276.72Z" fill="#CBCCCC"/>
<path opacity="0.8852" d="M276.72 0.647461C276.72 0.647461 276.72 12.5573 265.716 21.1014C254.713 29.7749 157.751 90.7482 153.479 93.0784C149.854 95.0202 141.051 98.386 138.98 98.386C136.779 98.386 127.976 95.1497 124.481 93.0784C120.209 90.6187 23.1177 29.7749 12.2434 21.1014C1.23975 12.4279 1.23975 0.647461 1.23975 0.647461H276.72Z" fill="#CACBCB"/>
<path opacity="0.9016" d="M276.72 0.647461C276.72 0.647461 276.72 12.4279 265.716 20.9719C254.713 29.6454 157.751 90.4893 153.479 92.9489C149.854 94.8908 141.051 98.1271 138.98 98.1271C136.779 98.1271 127.976 94.8908 124.481 92.9489C120.209 90.4893 23.1177 29.6454 12.2434 20.9719C1.23975 12.2984 1.23975 0.647461 1.23975 0.647461H276.72Z" fill="#C9CACA"/>
<path opacity="0.918" d="M276.72 0.517578C276.72 0.517578 276.72 12.1685 265.716 20.7126C254.713 29.3861 157.751 90.2299 153.479 92.6896C149.854 94.6314 141.051 97.8678 138.98 97.8678C136.779 97.8678 127.976 94.6314 124.481 92.6896C120.209 90.3594 23.1177 29.3861 12.2434 20.7126C1.23975 12.0391 1.23975 0.517578 1.23975 0.517578H276.72Z" fill="#C8C9C9"/>
<path opacity="0.9344" d="M276.72 0.387695C276.72 0.387695 276.72 11.9092 265.716 20.4532C254.713 29.1267 157.751 89.9706 153.479 92.4303C149.854 94.3721 141.051 97.6085 138.98 97.6085C136.779 97.6085 127.976 94.3721 124.481 92.4303C120.209 90.1001 23.1177 29.1267 12.2434 20.4532C1.23975 11.9092 1.23975 0.387695 1.23975 0.387695H276.72Z" fill="#C7C8C8"/>
<path opacity="0.9508" d="M276.591 0.258789C276.591 0.258789 276.591 11.6508 265.587 20.1949C254.583 28.7389 157.621 89.7123 153.349 92.0424C149.725 93.9843 140.922 97.2206 138.85 97.2206C136.65 97.2206 127.847 93.9843 124.352 92.0424C120.209 89.7123 23.1177 28.8684 12.2434 20.1949C1.23975 11.6508 1.23975 0.258789 1.23975 0.258789H276.591Z" fill="#C6C7C7"/>
<path opacity="0.9672" d="M276.591 0.258789C276.591 0.258789 276.591 11.5214 265.588 20.0654C254.584 28.6095 157.622 89.5828 153.35 91.913C149.725 93.8548 140.922 97.0912 138.851 97.0912C136.65 97.0912 127.847 93.8548 124.352 91.913C120.08 89.5828 22.9887 28.6095 12.1145 20.0654C1.11084 11.5214 1.11084 0.258789 1.11084 0.258789H276.591Z" fill="#C5C6C6"/>
<path opacity="0.9836" d="M276.591 0.129883C276.591 0.129883 276.591 11.263 265.588 19.8071C254.584 28.3511 157.622 89.3244 153.35 91.6546C149.725 93.5964 140.922 96.8328 138.851 96.8328C136.65 96.8328 127.847 93.5964 124.352 91.6546C120.08 89.3244 22.9887 28.3511 12.1145 19.8071C1.11084 11.263 1.11084 0.129883 1.11084 0.129883H276.591Z" fill="#C4C5C5"/>
<path d="M276.592 0C276.592 0 276.592 11.0037 265.589 19.5477C254.585 28.0918 157.623 88.9357 153.351 91.3953C149.726 93.3371 140.923 96.5735 138.852 96.5735C136.651 96.5735 127.848 93.3371 124.353 91.3953C120.081 89.0651 22.9897 28.0918 12.1155 19.5477C1.11182 11.0037 1.11182 0 1.11182 0H276.592Z" fill="#B0B0B0"/>
<path d="M276.592 0C276.592 0 276.592 11.0037 265.589 19.5477C254.585 28.0918 157.623 88.9357 153.351 91.3953C149.726 93.3371 143.512 96.5735 138.852 96.5735C134.192 96.5735 127.848 93.3371 124.353 91.3953C120.081 89.0651 22.9897 28.0918 12.1155 19.5477C1.11182 11.0037 1.11182 0 1.11182 0H276.592Z" fill="url(#paint2_linear)"/>
<circle cx="137.168" cy="92.5598" r="64.0803" fill="url(#paint3_linear)"/>
<path d="M121.952 121H106.288V90.7656C106.288 87.0938 106.366 83.7344 106.522 80.6875C105.559 81.8594 104.361 83.0833 102.929 84.3594L96.4443 89.7109L88.4365 79.8672L108.046 63.8906H121.952V121ZM182.991 121H165.569L154.28 99.1641L149.71 101.898V121H134.202V63.8906H149.71V88.6953C150.491 87.1589 152.067 84.724 154.437 81.3906L166.429 63.8906H183.304L165.296 89.4766L182.991 121Z" fill="url(#paint4_linear)"/>
<defs>
<linearGradient id="paint0_linear" x1="138.894" y1="0.0262794" x2="138.894" y2="175.817" gradientUnits="userSpaceOnUse">
<stop stop-color="#D5D5D0"/>
<stop offset="0.1161" stop-color="#E0E0DA"/>
<stop offset="0.3441" stop-color="#EFEFE7"/>
<stop offset="0.6097" stop-color="#F8F8EF"/>
<stop offset="1" stop-color="#FBFBF1"/>
</linearGradient>
<linearGradient id="paint1_linear" x1="139.484" y1="-75.8865" x2="139.484" y2="175.816" gradientUnits="userSpaceOnUse">
<stop stop-color="#D5D5D0"/>
<stop offset="0.1161" stop-color="#E0E0DA"/>
<stop offset="0.3441" stop-color="#EFEFE7"/>
<stop offset="0.6097" stop-color="#F8F8EF"/>
<stop offset="1" stop-color="#FBFBF1"/>
</linearGradient>
<linearGradient id="paint2_linear" x1="138.895" y1="251.73" x2="138.895" y2="0.0271849" gradientUnits="userSpaceOnUse">
<stop stop-color="#D5D5D0"/>
<stop offset="0.1161" stop-color="#E0E0DA"/>
<stop offset="0.3441" stop-color="#EFEFE7"/>
<stop offset="0.6097" stop-color="#F8F8EF"/>
<stop offset="1" stop-color="#FBFBF1"/>
</linearGradient>
<linearGradient id="paint3_linear" x1="137.168" y1="28.4795" x2="137.168" y2="156.64" gradientUnits="userSpaceOnUse">
<stop stop-color="#FFC700"/>
<stop offset="1" stop-color="#FC9517"/>
</linearGradient>
<linearGradient id="paint4_linear" x1="125.538" y1="16.3314" x2="127.134" y2="185.661" gradientUnits="userSpaceOnUse">
<stop stop-color="#D91B24"/>
<stop offset="1" stop-color="#393C5A"/>
</linearGradient>
</defs>
</svg>
