<svg width="215" height="136" viewBox="0 0 215 136" fill="none" xmlns="http://www.w3.org/2000/svg">
<path d="M213.5 0H0.800049V135.8H213.5V0Z" fill="url(#paint0_linear)"/>
<path opacity="0.0163934" d="M0.300049 131.3C0.300049 131.3 0.300049 122.8 8.80005 116.2C17.3 109.6 92.2 62.6002 95.5 60.7002C98.3 59.2002 105.1 56.7002 106.7 56.7002C108.4 56.7002 115.2 59.2002 117.9 60.7002C121.2 62.5002 196.2 109.6 204.6 116.2C213.1 122.8 213.1 131.3 213.1 131.3H0.300049Z" fill="#FEFEFE"/>
<path opacity="0.0327869" d="M0.300049 131.4C0.300049 131.4 0.300049 122.9 8.80005 116.3C17.3 109.7 92.2 62.6998 95.5 60.7998C98.3 59.2998 105.1 56.7998 106.7 56.7998C108.4 56.7998 115.2 59.2998 117.9 60.7998C121.2 62.5998 196.2 109.7 204.6 116.3C213.1 122.9 213.1 131.4 213.1 131.4H0.300049Z" fill="#FDFDFD"/>
<path opacity="0.0491803" d="M0.399902 131.5C0.399902 131.5 0.399902 123 8.8999 116.4C17.3999 109.8 92.2999 62.8004 95.5999 60.9004C98.3999 59.4004 105.2 56.9004 106.8 56.9004C108.5 56.9004 115.3 59.4004 118 60.9004C121.3 62.7004 196.3 109.8 204.7 116.4C213.2 123 213.2 131.5 213.2 131.5H0.399902Z" fill="#FCFCFC"/>
<path opacity="0.0655738" d="M0.399902 131.6C0.399902 131.6 0.399902 123.1 8.8999 116.5C17.3999 109.9 92.2999 62.9 95.5999 61C98.3999 59.5 105.2 57 106.8 57C108.5 57 115.3 59.5 118 61C121.3 62.8 196.3 109.9 204.7 116.5C213.2 123.1 213.2 131.6 213.2 131.6H0.399902Z" fill="#FBFBFB"/>
<path opacity="0.0819672" d="M0.399902 131.6C0.399902 131.6 0.399902 123.1 8.8999 116.5C17.3999 109.9 92.2999 62.9 95.5999 61C98.3999 59.5 105.2 57 106.8 57C108.5 57 115.3 59.5 118 61C121.3 62.8 196.3 109.9 204.7 116.5C213.2 123.1 213.2 131.6 213.2 131.6H0.399902Z" fill="#FAFAFA"/>
<path opacity="0.0983607" d="M0.399902 131.7C0.399902 131.7 0.399902 123.2 8.8999 116.6C17.3999 110 92.2999 62.9996 95.5999 61.0996C98.3999 59.5996 105.2 57.0996 106.8 57.0996C108.5 57.0996 115.3 59.5996 118 61.0996C121.3 62.8996 196.3 110 204.7 116.6C213.2 123.2 213.2 131.7 213.2 131.7H0.399902Z" fill="#F9F9F9"/>
<path opacity="0.1148" d="M0.399902 131.8C0.399902 131.8 0.399902 123.3 8.8999 116.7C17.3999 110.1 92.2999 63.1002 95.5999 61.2002C98.3999 59.7002 105.2 57.2002 106.8 57.2002C108.5 57.2002 115.3 59.7002 118 61.2002C121.3 63.0002 196.3 110.1 204.7 116.7C213.2 123.3 213.2 131.8 213.2 131.8H0.399902Z" fill="#F8F8F8"/>
<path opacity="0.1311" d="M0.399902 131.9C0.399902 131.9 0.399902 123.4 8.8999 116.8C17.3999 110.2 92.2999 63.1998 95.5999 61.2998C98.3999 59.7998 105.2 57.2998 106.8 57.2998C108.5 57.2998 115.3 59.7998 118 61.2998C121.3 63.0998 196.3 110.2 204.7 116.8C213.2 123.4 213.2 131.9 213.2 131.9H0.399902Z" fill="#F7F7F7"/>
<path opacity="0.1475" d="M0.399902 131.9C0.399902 131.9 0.399902 123.4 8.8999 116.8C17.3999 110.2 92.2999 63.1998 95.5999 61.2998C98.3999 59.7998 105.2 57.2998 106.8 57.2998C108.5 57.2998 115.3 59.7998 118 61.2998C121.3 63.0998 196.3 110.2 204.7 116.8C213.2 123.4 213.2 131.9 213.2 131.9H0.399902Z" fill="#F6F6F6"/>
<path opacity="0.1639" d="M0.5 132C0.5 132 0.5 123.5 9 116.9C17.5 110.3 92.4 63.3004 95.7 61.4004C98.5 59.9004 105.3 57.4004 106.9 57.4004C108.6 57.4004 115.4 59.9004 118.1 61.4004C121.4 63.2004 196.4 110.3 204.8 116.9C213.3 123.5 213.3 132 213.3 132H0.5Z" fill="#F5F5F5"/>
<path opacity="0.1803" d="M0.5 132.1C0.5 132.1 0.5 123.6 9 117C17.5 110.4 92.4 63.4 95.7 61.5C98.5 60 105.3 57.5 106.9 57.5C108.6 57.5 115.4 60 118.1 61.5C121.4 63.3 196.4 110.4 204.8 117C213.3 123.6 213.3 132.1 213.3 132.1H0.5Z" fill="#F4F4F4"/>
<path opacity="0.1967" d="M0.5 132.2C0.5 132.2 0.5 123.7 9 117.1C17.5 110.5 92.4 63.4996 95.7 61.5996C98.5 60.0996 105.3 57.5996 106.9 57.5996C108.6 57.5996 115.4 60.0996 118.1 61.5996C121.4 63.3996 196.4 110.5 204.8 117.1C213.3 123.7 213.3 132.2 213.3 132.2H0.5Z" fill="#F3F3F3"/>
<path opacity="0.2131" d="M0.5 132.2C0.5 132.2 0.5 123.7 9 117.1C17.5 110.5 92.4 63.4996 95.7 61.5996C98.5 60.0996 105.3 57.5996 106.9 57.5996C108.6 57.5996 115.4 60.0996 118.1 61.5996C121.4 63.3996 196.4 110.5 204.8 117.1C213.3 123.7 213.3 132.2 213.3 132.2H0.5Z" fill="#F2F2F3"/>
<path opacity="0.2295" d="M0.5 132.3C0.5 132.3 0.5 123.8 9 117.2C17.5 110.6 92.4 63.6002 95.7 61.7002C98.5 60.2002 105.3 57.7002 106.9 57.7002C108.6 57.7002 115.4 60.2002 118.1 61.7002C121.4 63.5002 196.4 110.6 204.8 117.2C213.3 123.8 213.3 132.3 213.3 132.3H0.5Z" fill="#F1F1F2"/>
<path opacity="0.2459" d="M0.5 132.4C0.5 132.4 0.5 123.9 9 117.3C17.5 110.7 92.4 63.6998 95.7 61.7998C98.5 60.2998 105.3 57.7998 106.9 57.7998C108.6 57.7998 115.4 60.2998 118.1 61.7998C121.4 63.5998 196.4 110.7 204.8 117.3C213.3 123.9 213.3 132.4 213.3 132.4H0.5Z" fill="#F0F0F1"/>
<path opacity="0.2623" d="M0.5 132.5C0.5 132.5 0.5 124 9 117.4C17.5 110.8 92.4 63.8004 95.7 61.9004C98.5 60.4004 105.3 57.9004 106.9 57.9004C108.6 57.9004 115.4 60.4004 118.1 61.9004C121.4 63.7004 196.4 110.8 204.8 117.4C213.3 124 213.3 132.5 213.3 132.5H0.5Z" fill="#EFF0F0"/>
<path opacity="0.2787" d="M0.600098 132.5C0.600098 132.5 0.600098 124 9.1001 117.4C17.6001 110.8 92.5001 63.8004 95.8001 61.9004C98.6001 60.4004 105.4 57.9004 107 57.9004C108.7 57.9004 115.5 60.4004 118.2 61.9004C121.5 63.7004 196.5 110.8 204.9 117.4C213.4 124 213.4 132.5 213.4 132.5H0.600098Z" fill="#EEEFEF"/>
<path opacity="0.2951" d="M0.600098 132.6C0.600098 132.6 0.600098 124.1 9.1001 117.5C17.6001 110.9 92.5001 63.9 95.8001 62C98.6001 60.5 105.4 58 107 58C108.7 58 115.5 60.5 118.2 62C121.5 63.8 196.5 110.9 204.9 117.5C213.4 124.1 213.4 132.6 213.4 132.6H0.600098Z" fill="#EDEEEE"/>
<path opacity="0.3115" d="M0.600098 132.7C0.600098 132.7 0.600098 124.2 9.1001 117.6C17.6001 111 92.5001 63.9996 95.8001 62.0996C98.6001 60.5996 105.4 58.0996 107 58.0996C108.7 58.0996 115.5 60.5996 118.2 62.0996C121.5 63.8996 196.5 111 204.9 117.6C213.4 124.2 213.4 132.7 213.4 132.7H0.600098Z" fill="#ECEDED"/>
<path opacity="0.3279" d="M0.600098 132.8C0.600098 132.8 0.600098 124.3 9.1001 117.7C17.6001 111.1 92.5001 64.1002 95.8001 62.2002C98.6001 60.7002 105.4 58.2002 107 58.2002C108.7 58.2002 115.5 60.7002 118.2 62.2002C121.5 64.0002 196.5 111.1 204.9 117.7C213.4 124.3 213.4 132.8 213.4 132.8H0.600098Z" fill="#EBECEC"/>
<path opacity="0.3443" d="M0.600098 132.8C0.600098 132.8 0.600098 124.3 9.1001 117.7C17.6001 111.1 92.5001 64.1002 95.8001 62.2002C98.6001 60.7002 105.4 58.2002 107 58.2002C108.7 58.2002 115.5 60.7002 118.2 62.2002C121.5 64.0002 196.5 111.1 204.9 117.7C213.4 124.3 213.4 132.8 213.4 132.8H0.600098Z" fill="#EAEBEB"/>
<path opacity="0.3607" d="M0.600098 132.9C0.600098 132.9 0.600098 124.4 9.1001 117.8C17.6001 111.2 92.5001 64.1998 95.8001 62.2998C98.6001 60.7998 105.4 58.2998 107 58.2998C108.7 58.2998 115.5 60.7998 118.2 62.2998C121.5 64.0998 196.5 111.2 204.9 117.8C213.4 124.4 213.4 132.9 213.4 132.9H0.600098Z" fill="#E9EAEA"/>
<path opacity="0.377" d="M0.700195 133C0.700195 133 0.700195 124.5 9.2002 117.9C17.7002 111.3 92.6002 64.3004 95.9002 62.4004C98.7002 60.9004 105.5 58.4004 107.1 58.4004C108.8 58.4004 115.6 60.9004 118.3 62.4004C121.6 64.2004 196.6 111.3 205 117.9C213.5 124.5 213.5 133 213.5 133H0.700195Z" fill="#E9E9E9"/>
<path opacity="0.3934" d="M0.700195 133.1C0.700195 133.1 0.700195 124.6 9.2002 118C17.7002 111.4 92.6002 64.4 95.9002 62.5C98.7002 61 105.5 58.5 107.1 58.5C108.8 58.5 115.6 61 118.3 62.5C121.6 64.3 196.6 111.4 205 118C213.5 124.6 213.5 133.1 213.5 133.1H0.700195Z" fill="#E8E8E8"/>
<path opacity="0.4098" d="M0.700195 133.1C0.700195 133.1 0.700195 124.6 9.2002 118C17.7002 111.4 92.6002 64.4 95.9002 62.5C98.7002 61 105.5 58.5 107.1 58.5C108.8 58.5 115.6 61 118.3 62.5C121.6 64.3 196.6 111.4 205 118C213.5 124.6 213.5 133.1 213.5 133.1H0.700195Z" fill="#E7E7E7"/>
<path opacity="0.4262" d="M0.700195 133.2C0.700195 133.2 0.700195 124.7 9.2002 118.1C17.7002 111.5 92.6002 64.4996 95.9002 62.5996C98.7002 61.0996 105.5 58.5996 107.1 58.5996C108.8 58.5996 115.6 61.0996 118.3 62.5996C121.6 64.3996 196.6 111.5 205 118.1C213.5 124.7 213.5 133.2 213.5 133.2H0.700195Z" fill="#E6E6E6"/>
<path opacity="0.4426" d="M0.700195 133.3C0.700195 133.3 0.700195 124.8 9.2002 118.2C17.7002 111.6 92.6002 64.6002 95.9002 62.7002C98.7002 61.2002 105.5 58.7002 107.1 58.7002C108.8 58.7002 115.6 61.2002 118.3 62.7002C121.6 64.5002 196.6 111.6 205 118.2C213.5 124.8 213.5 133.3 213.5 133.3H0.700195Z" fill="#E5E5E5"/>
<path opacity="0.459" d="M0.700195 133.4C0.700195 133.4 0.700195 124.9 9.2002 118.3C17.7002 111.7 92.6002 64.6998 95.9002 62.7998C98.7002 61.2998 105.5 58.7998 107.1 58.7998C108.8 58.7998 115.6 61.2998 118.3 62.7998C121.6 64.5998 196.6 111.7 205 118.3C213.5 124.9 213.5 133.4 213.5 133.4H0.700195Z" fill="#E4E4E4"/>
<path opacity="0.4754" d="M0.700195 133.4C0.700195 133.4 0.700195 124.9 9.2002 118.3C17.7002 111.7 92.6002 64.6998 95.9002 62.7998C98.7002 61.2998 105.5 58.7998 107.1 58.7998C108.8 58.7998 115.6 61.2998 118.3 62.7998C121.6 64.5998 196.6 111.7 205 118.3C213.5 124.9 213.5 133.4 213.5 133.4H0.700195Z" fill="#E3E3E3"/>
<path opacity="0.4918" d="M0.800049 133.5C0.800049 133.5 0.800049 125 9.30005 118.4C17.8 111.8 92.7 64.8004 96 62.9004C98.8 61.4004 105.6 58.9004 107.2 58.9004C108.9 58.9004 115.7 61.4004 118.4 62.9004C121.7 64.7004 196.7 111.8 205.1 118.4C213.6 125 213.6 133.5 213.6 133.5H0.800049Z" fill="#E2E2E2"/>
<path opacity="0.5082" d="M0.800049 133.6C0.800049 133.6 0.800049 125.1 9.30005 118.5C17.8 111.9 92.7 64.9 96 63C98.8 61.5 105.6 59 107.2 59C108.9 59 115.7 61.5 118.4 63C121.7 64.8 196.7 111.9 205.1 118.5C213.6 125.1 213.6 133.6 213.6 133.6H0.800049Z" fill="#E1E1E1"/>
<path opacity="0.5246" d="M0.800049 133.6C0.800049 133.6 0.800049 125.1 9.30005 118.5C17.8 111.9 92.7 64.9 96 63C98.8 61.5 105.6 59 107.2 59C108.9 59 115.7 61.5 118.4 63C121.7 64.8 196.7 111.9 205.1 118.5C213.6 125.1 213.6 133.6 213.6 133.6H0.800049Z" fill="#E0E0E0"/>
<path opacity="0.541" d="M0.800049 133.7C0.800049 133.7 0.800049 125.2 9.30005 118.6C17.8 112 92.7 64.9996 96 63.0996C98.8 61.5996 105.6 59.0996 107.2 59.0996C108.9 59.0996 115.7 61.5996 118.4 63.0996C121.7 64.8996 196.7 112 205.1 118.6C213.6 125.2 213.6 133.7 213.6 133.7H0.800049Z" fill="#DFDFDF"/>
<path opacity="0.5574" d="M0.800049 133.8C0.800049 133.8 0.800049 125.3 9.30005 118.7C17.8 112.1 92.7 65.1002 96 63.2002C98.8 61.7002 105.6 59.2002 107.2 59.2002C108.9 59.2002 115.7 61.7002 118.4 63.2002C121.7 65.0002 196.7 112.1 205.1 118.7C213.6 125.3 213.6 133.8 213.6 133.8H0.800049Z" fill="#DEDEDE"/>
<path opacity="0.5738" d="M0.800049 133.9C0.800049 133.9 0.800049 125.4 9.30005 118.8C17.8 112.2 92.7 65.1998 96 63.2998C98.8 61.7998 105.6 59.2998 107.2 59.2998C108.9 59.2998 115.7 61.7998 118.4 63.2998C121.7 65.0998 196.7 112.2 205.1 118.8C213.6 125.4 213.6 133.9 213.6 133.9H0.800049Z" fill="#DDDDDD"/>
<path opacity="0.5902" d="M0.800049 133.9C0.800049 133.9 0.800049 125.4 9.30005 118.8C17.8 112.2 92.7 65.1998 96 63.2998C98.8 61.7998 105.6 59.2998 107.2 59.2998C108.9 59.2998 115.7 61.7998 118.4 63.2998C121.7 65.0998 196.7 112.2 205.1 118.8C213.6 125.4 213.6 133.9 213.6 133.9H0.800049Z" fill="#DCDCDC"/>
<path opacity="0.6066" d="M0.899902 134C0.899902 134 0.899902 125.5 9.3999 118.9C17.8999 112.3 92.7999 65.3004 96.0999 63.4004C98.8999 61.9004 105.7 59.4004 107.3 59.4004C109 59.4004 115.8 61.9004 118.5 63.4004C121.8 65.2004 196.8 112.3 205.2 118.9C213.6 125.5 213.6 134 213.6 134H0.899902Z" fill="#DBDBDB"/>
<path opacity="0.623" d="M0.899902 134.1C0.899902 134.1 0.899902 125.6 9.3999 119C17.8999 112.4 92.7999 65.4 96.0999 63.5C98.8999 62 105.7 59.5 107.3 59.5C109 59.5 115.8 62 118.5 63.5C121.8 65.3 196.8 112.4 205.2 119C213.6 125.6 213.6 134.1 213.6 134.1H0.899902Z" fill="#DADADA"/>
<path opacity="0.6393" d="M0.899902 134.2C0.899902 134.2 0.899902 125.7 9.3999 119.1C17.8999 112.5 92.7999 65.4996 96.0999 63.5996C98.8999 62.0996 105.7 59.5996 107.3 59.5996C109 59.5996 115.8 62.0996 118.5 63.5996C121.8 65.3996 196.8 112.5 205.2 119.1C213.6 125.7 213.6 134.2 213.6 134.2H0.899902Z" fill="#D9D9DA"/>
<path opacity="0.6557" d="M0.899902 134.2C0.899902 134.2 0.899902 125.7 9.3999 119.1C17.8999 112.5 92.7999 65.4996 96.0999 63.5996C98.8999 62.0996 105.7 59.5996 107.3 59.5996C109 59.5996 115.8 62.0996 118.5 63.5996C121.8 65.3996 196.8 112.5 205.2 119.1C213.6 125.7 213.6 134.2 213.6 134.2H0.899902Z" fill="#D8D8D9"/>
<path opacity="0.6721" d="M0.899902 134.3C0.899902 134.3 0.899902 125.8 9.3999 119.2C17.8999 112.6 92.7999 65.6002 96.0999 63.7002C98.8999 62.2002 105.7 59.7002 107.3 59.7002C109 59.7002 115.8 62.2002 118.5 63.7002C121.8 65.5002 196.8 112.6 205.2 119.2C213.6 125.8 213.6 134.3 213.6 134.3H0.899902Z" fill="#D7D7D8"/>
<path opacity="0.6885" d="M0.899902 134.4C0.899902 134.4 0.899902 125.9 9.3999 119.3C17.8999 112.7 92.7999 65.6998 96.0999 63.7998C98.8999 62.2998 105.7 59.7998 107.3 59.7998C109 59.7998 115.8 62.2998 118.5 63.7998C121.8 65.5998 196.8 112.7 205.2 119.3C213.6 125.9 213.6 134.4 213.6 134.4H0.899902Z" fill="#D6D6D7"/>
<path opacity="0.7049" d="M0.899902 134.5C0.899902 134.5 0.899902 126 9.3999 119.4C17.8999 112.8 92.7999 65.8004 96.0999 63.9004C98.8999 62.4004 105.7 59.9004 107.3 59.9004C109 59.9004 115.8 62.4004 118.5 63.9004C121.8 65.7004 196.8 112.8 205.2 119.4C213.6 126 213.6 134.5 213.6 134.5H0.899902Z" fill="#D5D5D6"/>
<path opacity="0.7213" d="M1 134.5C1 134.5 1 126 9.5 119.4C18 112.8 92.9 65.8004 96.2 63.9004C99 62.4004 105.8 59.9004 107.4 59.9004C109.1 59.9004 115.9 62.4004 118.6 63.9004C121.9 65.7004 196.9 112.8 205.3 119.4C213.7 126 213.7 134.5 213.7 134.5H1Z" fill="#D4D4D5"/>
<path opacity="0.7377" d="M1 134.6C1 134.6 1 126.1 9.5 119.5C18 112.9 92.9 65.9 96.2 64C99 62.5 105.8 60 107.4 60C109.1 60 115.9 62.5 118.6 64C121.9 65.8 196.9 112.9 205.3 119.5C213.7 126.1 213.7 134.6 213.7 134.6H1Z" fill="#D3D3D4"/>
<path opacity="0.7541" d="M1 134.7C1 134.7 1 126.2 9.5 119.6C18 113 92.9 65.9996 96.2 64.0996C99 62.5996 105.8 60.0996 107.4 60.0996C109.1 60.0996 115.9 62.5996 118.6 64.0996C121.9 65.8996 196.9 113 205.3 119.6C213.7 126.2 213.7 134.7 213.7 134.7H1Z" fill="#D2D2D3"/>
<path opacity="0.7705" d="M1 134.8C1 134.8 1 126.3 9.5 119.7C18 113.1 92.9 66.1002 96.2 64.2002C99 62.7002 105.8 60.2002 107.4 60.2002C109.1 60.2002 115.9 62.7002 118.6 64.2002C121.9 66.0002 196.9 113.1 205.3 119.7C213.7 126.3 213.7 134.8 213.7 134.8H1Z" fill="#D1D2D2"/>
<path opacity="0.7869" d="M1 134.8C1 134.8 1 126.3 9.5 119.7C18 113.1 92.9 66.1002 96.2 64.2002C99 62.7002 105.8 60.2002 107.4 60.2002C109.1 60.2002 115.9 62.7002 118.6 64.2002C121.9 66.0002 196.9 113.1 205.3 119.7C213.7 126.3 213.7 134.8 213.7 134.8H1Z" fill="#D0D1D1"/>
<path opacity="0.8033" d="M1 134.9C1 134.9 1 126.4 9.5 119.8C18 113.2 92.9 66.1998 96.2 64.2998C99 62.7998 105.8 60.2998 107.4 60.2998C109.1 60.2998 115.9 62.7998 118.6 64.2998C121.9 66.0998 196.9 113.2 205.3 119.8C213.7 126.4 213.7 134.9 213.7 134.9H1Z" fill="#CFD0D0"/>
<path opacity="0.8197" d="M1.1001 135C1.1001 135 1.1001 126.5 9.6001 119.9C18.1001 113.3 93.0001 66.3004 96.3001 64.4004C99.1001 62.9004 105.9 60.4004 107.5 60.4004C109.2 60.4004 116 62.9004 118.7 64.4004C122 66.2004 197 113.3 205.4 119.9C213.8 126.5 213.8 135 213.8 135H1.1001Z" fill="#CECFCF"/>
<path opacity="0.8361" d="M1.1001 135.1C1.1001 135.1 1.1001 126.6 9.6001 120C18.1001 113.4 93.0001 66.4 96.3001 64.5C99.1001 63 105.9 60.5 107.5 60.5C109.2 60.5 116 63 118.7 64.5C122 66.3 197 113.4 205.4 120C213.8 126.6 213.8 135.1 213.8 135.1H1.1001Z" fill="#CDCECE"/>
<path opacity="0.8525" d="M1.1001 135.1C1.1001 135.1 1.1001 126.6 9.6001 120C18.1001 113.4 93.0001 66.4 96.3001 64.5C99.1001 63 105.9 60.5 107.5 60.5C109.2 60.5 116 63 118.7 64.5C122 66.3 197 113.4 205.4 120C213.8 126.6 213.8 135.1 213.8 135.1H1.1001Z" fill="#CCCDCD"/>
<path opacity="0.8689" d="M1.1001 135.2C1.1001 135.2 1.1001 126.7 9.6001 120.1C18.1001 113.5 93.0001 66.4996 96.3001 64.5996C99.1001 63.0996 105.9 60.5996 107.5 60.5996C109.2 60.5996 116 63.0996 118.7 64.5996C122 66.3996 197 113.5 205.4 120.1C213.8 126.7 213.8 135.2 213.8 135.2H1.1001Z" fill="#CBCCCC"/>
<path opacity="0.8852" d="M1.1001 135.3C1.1001 135.3 1.1001 126.8 9.6001 120.2C18.1001 113.6 93.0001 66.6002 96.3001 64.7002C99.1001 63.2002 105.9 60.7002 107.5 60.7002C109.2 60.7002 116 63.2002 118.7 64.7002C122 66.5002 197 113.6 205.4 120.2C213.8 126.8 213.8 135.3 213.8 135.3H1.1001Z" fill="#CACBCB"/>
<path opacity="0.9016" d="M1.1001 135.4C1.1001 135.4 1.1001 126.9 9.6001 120.3C18.1001 113.7 93.0001 66.6998 96.3001 64.7998C99.1001 63.2998 105.9 60.7998 107.5 60.7998C109.2 60.7998 116 63.2998 118.7 64.7998C122 66.5998 197 113.7 205.4 120.3C213.8 126.9 213.8 135.4 213.8 135.4H1.1001Z" fill="#C9CACA"/>
<path opacity="0.918" d="M1.1001 135.4C1.1001 135.4 1.1001 126.9 9.6001 120.3C18.1001 113.7 93.0001 66.6998 96.3001 64.7998C99.1001 63.2998 105.9 60.7998 107.5 60.7998C109.2 60.7998 116 63.2998 118.7 64.7998C122 66.5998 197 113.7 205.4 120.3C213.8 126.9 213.8 135.4 213.8 135.4H1.1001Z" fill="#C8C9C9"/>
<path opacity="0.9344" d="M1.2002 135.5C1.2002 135.5 1.2002 127 9.7002 120.4C18.2002 113.8 93.1002 66.8004 96.4002 64.9004C99.2002 63.4004 106 60.9004 107.6 60.9004C109.3 60.9004 116.1 63.4004 118.8 64.9004C122.1 66.7004 197.1 113.8 205.5 120.4C213.9 127 213.9 135.5 213.9 135.5H1.2002Z" fill="#C7C8C8"/>
<path opacity="0.9508" d="M1.2002 135.6C1.2002 135.6 1.2002 127.1 9.7002 120.5C18.2002 113.9 93.1002 66.9 96.4002 65C99.2002 63.5 106 61 107.6 61C109.3 61 116.1 63.5 118.8 65C122.1 66.8 197.1 113.9 205.5 120.5C213.9 127.1 213.9 135.6 213.9 135.6H1.2002Z" fill="#C6C7C7"/>
<path opacity="0.9672" d="M1.2002 135.7C1.2002 135.7 1.2002 127.2 9.7002 120.6C18.2002 114 93.1002 66.9996 96.4002 65.0996C99.2002 63.5996 106 61.0996 107.6 61.0996C109.3 61.0996 116.1 63.5996 118.8 65.0996C122.1 66.8996 197.1 114 205.5 120.6C213.9 127.2 213.9 135.7 213.9 135.7H1.2002Z" fill="#C5C6C6"/>
<path opacity="0.9836" d="M1.2002 135.7C1.2002 135.7 1.2002 127.2 9.7002 120.6C18.2002 114 93.1002 66.9996 96.4002 65.0996C99.2002 63.5996 106 61.0996 107.6 61.0996C109.3 61.0996 116.1 63.5996 118.8 65.0996C122.1 66.8996 197.1 114 205.5 120.6C213.9 127.2 213.9 135.7 213.9 135.7H1.2002Z" fill="#C4C5C5"/>
<path d="M1.2002 135.8C1.2002 135.8 1.2002 127.3 9.7002 120.7C18.2002 114.1 93.1002 67.1002 96.4002 65.2002C99.2002 63.7002 106 61.2002 107.6 61.2002C109.3 61.2002 116.1 63.7002 118.8 65.2002C122.1 67.0002 197.1 114.1 205.5 120.7C213.9 127.3 213.9 135.8 213.9 135.8H1.2002Z" fill="#B0B0B0"/>
<path d="M1.2002 135.8C1.2002 135.8 1.2002 127.3 9.7002 120.7C18.2002 114.1 93.1002 67.1002 96.4002 65.2002C99.2002 63.7002 104 61.2002 107.6 61.2002C111.2 61.2002 116.1 63.7002 118.8 65.2002C122.1 67.0002 197.1 114.1 205.5 120.7C213.9 127.3 213.9 135.8 213.9 135.8H1.2002Z" fill="url(#paint1_linear)"/>
<path opacity="0.0163934" d="M214.4 4.5C214.4 4.5 214.4 19 205.9 26.2C197.4 33.4 122.5 80.8 119.2 82.8C116.4 84.5 109.6 87.2 108 87.2C106.3 87.2 99.5001 84.5 96.8001 82.8C93.5001 80.8 18.5001 33.4 10.1001 26.2C1.6001 19 1.6001 4.5 1.6001 4.5H214.4Z" fill="#FEFEFE"/>
<path opacity="0.0327869" d="M214.4 4.40039C214.4 4.40039 214.4 18.8004 205.9 26.0004C197.4 33.2004 122.5 80.6004 119.2 82.6004C116.4 84.3004 109.6 86.9004 108 86.9004C106.3 86.9004 99.5001 84.2004 96.8001 82.6004C93.5001 80.6004 18.5001 33.2004 10.1001 26.0004C1.6001 18.8004 1.6001 4.40039 1.6001 4.40039H214.4Z" fill="#FDFDFD"/>
<path opacity="0.0491803" d="M214.4 4.40039C214.4 4.40039 214.4 18.7004 205.9 25.9004C197.4 33.1004 122.5 80.5004 119.2 82.5004C116.4 84.2004 109.6 86.8004 108 86.8004C106.3 86.8004 99.5001 84.1004 96.8001 82.5004C93.5001 80.5004 18.5001 33.1004 10.1001 25.9004C1.6001 18.7004 1.6001 4.40039 1.6001 4.40039H214.4Z" fill="#FCFCFC"/>
<path opacity="0.0655738" d="M214.4 4.2998C214.4 4.2998 214.4 18.4998 205.9 25.6998C197.4 32.7998 122.5 80.2998 119.2 82.2998C116.4 83.9998 109.6 86.5998 108 86.5998C106.3 86.5998 99.5001 83.8998 96.8001 82.2998C93.5001 80.2998 18.5001 32.8998 10.1001 25.6998C1.6001 18.4998 1.6001 4.2998 1.6001 4.2998H214.4Z" fill="#FBFBFB"/>
<path opacity="0.0819672" d="M214.3 4.2002C214.3 4.2002 214.3 18.3002 205.8 25.5002C197.3 32.6002 122.4 80.1002 119.1 82.0002C116.3 83.7002 109.5 86.3002 107.9 86.3002C106.2 86.3002 99.4 83.6002 96.7 82.0002C93.4 80.0002 18.4 32.6002 10 25.5002C1.5 18.4002 1.5 4.2002 1.5 4.2002H214.3Z" fill="#FAFAFA"/>
<path opacity="0.0983607" d="M214.3 4.09961C214.3 4.09961 214.3 18.0996 205.8 25.2996C197.3 32.3996 122.4 79.7996 119.1 81.7996C116.3 83.3996 109.5 86.0996 107.9 86.0996C106.2 86.0996 99.4 83.3996 96.7 81.7996C93.4 79.7996 18.4 32.3996 10 25.2996C1.5 18.1996 1.5 4.09961 1.5 4.09961H214.3Z" fill="#F9F9F9"/>
<path opacity="0.1148" d="M214.3 4.09961C214.3 4.09961 214.3 17.9996 205.8 25.1996C197.3 32.2996 122.4 79.6996 119.1 81.6996C116.3 83.2996 109.5 85.9996 107.9 85.9996C106.2 85.9996 99.4 83.2996 96.7 81.6996C93.4 79.6996 18.4 32.2996 10 25.1996C1.5 18.0996 1.5 4.09961 1.5 4.09961H214.3Z" fill="#F8F8F8"/>
<path opacity="0.1311" d="M214.3 4C214.3 4 214.3 17.8 205.8 24.9C197.3 32 122.4 79.4 119.1 81.4C116.3 83 109.5 85.7 107.9 85.7C106.2 85.7 99.4 83 96.7 81.4C93.4 79.4 18.4 32 10 24.9C1.5 17.8 1.5 4 1.5 4H214.3Z" fill="#F7F7F7"/>
<path opacity="0.1475" d="M214.3 3.90039C214.3 3.90039 214.3 17.6004 205.8 24.7004C197.3 31.8004 122.4 79.2004 119.1 81.2004C116.3 82.8004 109.5 85.5004 107.9 85.5004C106.2 85.5004 99.4 82.8004 96.7 81.2004C93.4 79.2004 18.4 31.8004 10 24.7004C1.5 17.6004 1.5 3.90039 1.5 3.90039H214.3Z" fill="#F6F6F6"/>
<path opacity="0.1639" d="M214.3 3.7998C214.3 3.7998 214.3 17.3998 205.8 24.4998C197.3 31.5998 122.4 78.9998 119.1 80.8998C116.3 82.4998 109.5 85.1998 107.9 85.1998C106.2 85.1998 99.4 82.4998 96.7 80.8998C93.4 78.8998 18.4 31.4998 10 24.4998C1.5 17.3998 1.5 3.7998 1.5 3.7998H214.3Z" fill="#F5F5F5"/>
<path opacity="0.1803" d="M214.3 3.7998C214.3 3.7998 214.3 17.2998 205.8 24.3998C197.3 31.4998 122.4 78.8998 119.1 80.7998C116.3 82.3998 109.5 85.0998 107.9 85.0998C106.2 85.0998 99.4 82.3998 96.7 80.7998C93.4 78.7998 18.4 31.4998 10 24.3998C1.5 17.2998 1.5 3.7998 1.5 3.7998H214.3Z" fill="#F4F4F4"/>
<path opacity="0.1967" d="M214.2 3.7002C214.2 3.7002 214.2 17.1002 205.7 24.2002C197.2 31.3002 122.3 78.6002 119 80.6002C116.2 82.2002 109.4 84.9002 107.8 84.9002C106.1 84.9002 99.3001 82.2002 96.6001 80.6002C93.3001 78.6002 18.3001 31.3002 9.90015 24.2002C1.40015 17.1002 1.40015 3.7002 1.40015 3.7002H214.2Z" fill="#F3F3F3"/>
<path opacity="0.2131" d="M214.2 3.59961C214.2 3.59961 214.2 16.8996 205.7 23.9996C197.2 31.0996 122.3 78.3996 119 80.3996C116.2 81.9996 109.4 84.6996 107.8 84.6996C106.1 84.6996 99.3001 81.9996 96.6001 80.3996C93.3001 78.3996 18.3001 31.0996 9.90015 23.9996C1.40015 16.8996 1.40015 3.59961 1.40015 3.59961H214.2Z" fill="#F2F2F3"/>
<path opacity="0.2295" d="M214.2 3.5C214.2 3.5 214.2 16.7 205.7 23.8C197.2 30.9 122.3 78.2 119 80.2C116.2 81.8 109.4 84.5 107.8 84.5C106.1 84.5 99.3001 81.8 96.6001 80.2C93.3001 78.2 18.3001 30.9 9.90015 23.8C1.40015 16.7 1.40015 3.5 1.40015 3.5H214.2Z" fill="#F1F1F2"/>
<path opacity="0.2459" d="M214.2 3.5C214.2 3.5 214.2 16.6 205.7 23.7C197.2 30.7 122.3 78.1 119 80.1C116.2 81.7 109.4 84.4 107.8 84.4C106.1 84.4 99.3001 81.8 96.6001 80.1C93.3001 78.1 18.3001 30.8 9.90015 23.7C1.40015 16.7 1.40015 3.5 1.40015 3.5H214.2Z" fill="#F0F0F1"/>
<path opacity="0.2623" d="M214.2 3.40039C214.2 3.40039 214.2 16.4004 205.7 23.5004C197.2 30.5004 122.3 77.9004 119 79.8004C116.2 81.4004 109.4 84.1004 107.8 84.1004C106.1 84.1004 99.3001 81.5004 96.6001 79.8004C93.3001 77.8004 18.3001 30.5004 9.90015 23.5004C1.40015 16.5004 1.40015 3.40039 1.40015 3.40039H214.2Z" fill="#EFF0F0"/>
<path opacity="0.2787" d="M214.2 3.2998C214.2 3.2998 214.2 16.1998 205.7 23.1998C197.2 30.1998 122.3 77.5998 119 79.4998C116.2 81.0998 109.4 83.7998 107.8 83.7998C106.1 83.7998 99.3001 81.1998 96.6001 79.4998C93.3001 77.4998 18.3001 30.1998 9.90015 23.1998C1.40015 16.1998 1.40015 3.2998 1.40015 3.2998H214.2Z" fill="#EEEFEF"/>
<path opacity="0.2951" d="M214.1 3.2002C214.1 3.2002 214.1 16.0002 205.6 23.0002C197.1 30.0002 122.2 77.3002 118.9 79.3002C116.1 80.9002 109.3 83.6002 107.7 83.6002C106 83.6002 99.2003 81.0002 96.5003 79.3002C93.2003 77.4002 18.2003 30.0002 9.80029 23.0002C1.30029 16.0002 1.30029 3.2002 1.30029 3.2002H214.1Z" fill="#EDEEEE"/>
<path opacity="0.3115" d="M214.1 3.2002C214.1 3.2002 214.1 15.9002 205.6 22.9002C197.1 29.9002 122.2 77.2002 118.9 79.2002C116.1 80.8002 109.3 83.5002 107.7 83.5002C106 83.5002 99.2003 80.9002 96.5003 79.2002C93.2003 77.3002 18.2003 29.9002 9.80029 22.9002C1.30029 15.9002 1.30029 3.2002 1.30029 3.2002H214.1Z" fill="#ECEDED"/>
<path opacity="0.3279" d="M214.1 3.09961C214.1 3.09961 214.1 15.6996 205.6 22.6996C197.1 29.6996 122.2 76.9996 118.9 78.9996C116.1 80.5996 109.3 83.1996 107.7 83.1996C106 83.1996 99.2003 80.5996 96.5003 78.9996C93.2003 77.0996 18.2003 29.6996 9.80029 22.6996C1.30029 15.6996 1.30029 3.09961 1.30029 3.09961H214.1Z" fill="#EBECEC"/>
<path opacity="0.3443" d="M214.1 3C214.1 3 214.1 15.5 205.6 22.5C197.1 29.5 122.2 76.8 118.9 78.7C116.1 80.3 109.3 82.9 107.7 82.9C106 82.9 99.2003 80.3 96.5003 78.7C93.2003 76.8 18.2003 29.4 9.80029 22.5C1.30029 15.5 1.30029 3 1.30029 3H214.1Z" fill="#EAEBEB"/>
<path opacity="0.3607" d="M214.1 2.90039C214.1 2.90039 214.1 15.3004 205.6 22.3004C197.1 29.3004 122.2 76.6004 118.9 78.5004C116.1 80.1004 109.3 82.7004 107.7 82.7004C106 82.7004 99.2003 80.1004 96.5003 78.5004C93.2003 76.6004 18.2003 29.3004 9.80029 22.3004C1.30029 15.3004 1.30029 2.90039 1.30029 2.90039H214.1Z" fill="#E9EAEA"/>
<path opacity="0.377" d="M214.1 2.90039C214.1 2.90039 214.1 15.2004 205.6 22.2004C197.1 29.2004 122.2 76.5004 118.9 78.4004C116.1 80.0004 109.3 82.6004 107.7 82.6004C106 82.6004 99.2003 80.0004 96.5003 78.4004C93.2003 76.5004 18.2003 29.2004 9.80029 22.2004C1.30029 15.2004 1.30029 2.90039 1.30029 2.90039H214.1Z" fill="#E9E9E9"/>
<path opacity="0.3934" d="M214.1 2.7998C214.1 2.7998 214.1 14.9998 205.6 21.9998C197.1 28.9998 122.2 76.2998 118.9 78.1998C116.1 79.7998 109.3 82.3998 107.7 82.3998C106 82.3998 99.2003 79.7998 96.5003 78.1998C93.2003 76.2998 18.2003 28.9998 9.80029 21.9998C1.30029 14.9998 1.30029 2.7998 1.30029 2.7998H214.1Z" fill="#E8E8E8"/>
<path opacity="0.4098" d="M214 2.7002C214 2.7002 214 14.8002 205.5 21.8002C197 28.8002 122.1 76.0002 118.8 78.0002C116 79.6002 109.2 82.2002 107.6 82.2002C105.9 82.2002 99.1002 79.6002 96.4002 78.0002C93.1002 76.1002 18.1002 28.8002 9.7002 21.8002C1.2002 14.8002 1.2002 2.7002 1.2002 2.7002H214Z" fill="#E7E7E7"/>
<path opacity="0.4262" d="M214 2.59961C214 2.59961 214 14.5996 205.5 21.4996C197 28.3996 122.1 75.6996 118.8 77.5996C116 79.1996 109.2 81.7996 107.6 81.7996C105.9 81.7996 99.1002 79.1996 96.4002 77.5996C93.1002 75.6996 18.1002 28.3996 9.7002 21.4996C1.2002 14.5996 1.2002 2.59961 1.2002 2.59961H214Z" fill="#E6E6E6"/>
<path opacity="0.4426" d="M214 2.59961C214 2.59961 214 14.4996 205.5 21.3996C197 28.2996 122.1 75.5996 118.8 77.4996C116 79.0996 109.2 81.6996 107.6 81.6996C105.9 81.6996 99.1002 79.0996 96.4002 77.4996C93.1002 75.5996 18.2002 28.2996 9.7002 21.3996C1.2002 14.4996 1.2002 2.59961 1.2002 2.59961H214Z" fill="#E5E5E5"/>
<path opacity="0.459" d="M214 2.5C214 2.5 214 14.3 205.5 21.2C197 28.1 122.1 75.4 118.8 77.3C116 78.9 109.2 81.5 107.6 81.5C105.9 81.5 99.1002 78.9 96.4002 77.3C93.1002 75.4 18.1002 28.1 9.7002 21.2C1.2002 14.3 1.2002 2.5 1.2002 2.5H214Z" fill="#E4E4E4"/>
<path opacity="0.4754" d="M214 2.40039C214 2.40039 214 14.1004 205.5 21.0004C197 27.9004 122.1 75.2004 118.8 77.1004C116 78.7004 109.2 81.3004 107.6 81.3004C105.9 81.3004 99.1002 78.7004 96.4002 77.1004C93.1002 75.2004 18.1002 27.9004 9.7002 21.0004C1.2002 14.1004 1.2002 2.40039 1.2002 2.40039H214Z" fill="#E3E3E3"/>
<path opacity="0.4918" d="M214 2.2998C214 2.2998 214 13.8998 205.5 20.7998C197 27.6998 122.1 74.9998 118.8 76.8998C116 78.4998 109.2 81.0998 107.6 81.0998C105.9 81.0998 99.1002 78.4998 96.4002 76.8998C93.1002 74.9998 18.1002 27.6998 9.7002 20.7998C1.2002 13.8998 1.2002 2.2998 1.2002 2.2998H214Z" fill="#E2E2E2"/>
<path opacity="0.5082" d="M214 2.2998C214 2.2998 214 13.7998 205.5 20.6998C197 27.5998 122.1 74.7998 118.8 76.7998C116 78.3998 109.2 80.9998 107.6 80.9998C105.9 80.9998 99.1002 78.3998 96.4002 76.7998C93.1002 74.7998 18.1002 27.4998 9.7002 20.6998C1.2002 13.7998 1.2002 2.2998 1.2002 2.2998H214Z" fill="#E1E1E1"/>
<path opacity="0.5246" d="M213.9 2.2002C213.9 2.2002 213.9 13.6002 205.4 20.5002C196.9 27.4002 122 74.6002 118.7 76.5002C115.9 78.1002 109.1 80.7002 107.5 80.7002C105.8 80.7002 99.0001 78.1002 96.3001 76.5002C93.0001 74.6002 18.0001 27.4002 9.6001 20.5002C1.1001 13.6002 1.1001 2.2002 1.1001 2.2002H213.9Z" fill="#E0E0E0"/>
<path opacity="0.541" d="M213.9 2.09961C213.9 2.09961 213.9 13.3996 205.4 20.2996C196.9 27.1996 122 74.3996 118.7 76.2996C115.9 77.8996 109.1 80.4996 107.5 80.4996C105.8 80.4996 99.0001 77.8996 96.3001 76.2996C93.0001 74.3996 18.0001 27.1996 9.6001 20.2996C1.1001 13.3996 1.1001 2.09961 1.1001 2.09961H213.9Z" fill="#DFDFDF"/>
<path opacity="0.5574" d="M213.9 2C213.9 2 213.9 13.2 205.4 20.1C196.9 27 122 74.2 118.7 76.1C115.9 77.7 109.1 80.3 107.5 80.3C105.8 80.3 99.0001 77.7 96.3001 76.1C93.0001 74.2 18.0001 27 9.6001 20.1C1.1001 13.2 1.1001 2 1.1001 2H213.9Z" fill="#DEDEDE"/>
<path opacity="0.5738" d="M213.9 2C213.9 2 213.9 13.1 205.4 19.9C196.9 26.8 122 74 118.7 75.9C115.9 77.5 109.1 80.1 107.5 80.1C105.8 80.1 99.0001 77.5 96.3001 75.9C93.0001 74 18.0001 26.8 9.6001 19.9C1.1001 13 1.1001 2 1.1001 2H213.9Z" fill="#DDDDDD"/>
<path opacity="0.5902" d="M213.9 1.90039C213.9 1.90039 213.9 12.9004 205.4 19.7004C196.9 26.5004 122 73.8004 118.7 75.7004C115.9 77.3004 109.1 79.9004 107.5 79.9004C105.8 79.9004 99.0001 77.3004 96.3001 75.7004C93.0001 73.8004 18.0001 26.6004 9.6001 19.7004C1.1001 12.9004 1.1001 1.90039 1.1001 1.90039H213.9Z" fill="#DCDCDC"/>
<path opacity="0.6066" d="M213.9 1.7998C213.9 1.7998 213.9 12.6998 205.4 19.4998C196.9 26.2998 122 73.4998 118.7 75.3998C115.9 76.9998 109.1 79.5998 107.5 79.5998C105.8 79.5998 99.0001 76.9998 96.3001 75.3998C93.0001 73.4998 18.0001 26.2998 9.6001 19.4998C1.1001 12.6998 1.1001 1.7998 1.1001 1.7998H213.9Z" fill="#DBDBDB"/>
<path opacity="0.623" d="M213.8 1.7002C213.8 1.7002 213.8 12.5002 205.3 19.3002C196.8 26.1002 121.9 73.3002 118.6 75.2002C115.8 76.8002 109 79.3002 107.4 79.3002C105.7 79.3002 98.9001 76.7002 96.2001 75.2002C92.9001 73.3002 17.9001 26.1002 9.5001 19.3002C1.1001 12.5002 1.1001 1.7002 1.1001 1.7002H213.8Z" fill="#DADADA"/>
<path opacity="0.6393" d="M213.8 1.7002C213.8 1.7002 213.8 12.4002 205.3 19.2002C196.8 26.0002 121.9 73.2002 118.6 75.1002C115.8 76.7002 109 79.2002 107.4 79.2002C105.7 79.2002 98.9001 76.6002 96.2001 75.1002C92.9001 73.2002 17.9001 26.0002 9.5001 19.2002C1.1001 12.3002 1.1001 1.7002 1.1001 1.7002H213.8Z" fill="#D9D9DA"/>
<path opacity="0.6557" d="M213.8 1.59961C213.8 1.59961 213.8 12.1996 205.3 18.9996C196.8 25.7996 121.9 72.9996 118.6 74.8996C115.8 76.4996 109 78.9996 107.4 78.9996C105.7 78.9996 98.9001 76.3996 96.2001 74.8996C92.9001 72.9996 17.9001 25.7996 9.5001 18.9996C1.1001 12.1996 1.1001 1.59961 1.1001 1.59961H213.8Z" fill="#D8D8D9"/>
<path opacity="0.6721" d="M213.8 1.5C213.8 1.5 213.8 12 205.3 18.8C196.8 25.6 121.9 72.8 118.6 74.7C115.8 76.3 109 78.8 107.4 78.8C105.7 78.8 98.9001 76.2 96.2001 74.7C92.9001 72.8 17.9001 25.6 9.5001 18.8C1.1001 12 1.1001 1.5 1.1001 1.5H213.8Z" fill="#D7D7D8"/>
<path opacity="0.6885" d="M213.8 1.40039C213.8 1.40039 213.8 11.8004 205.3 18.6004C196.8 25.4004 121.9 72.6004 118.6 74.4004C115.8 76.0004 109 78.5004 107.4 78.5004C105.7 78.5004 98.9 75.9004 96.2 74.4004C92.9 72.5004 17.9 25.3004 9.5 18.6004C1 11.8004 1 1.40039 1 1.40039H213.8Z" fill="#D6D6D7"/>
<path opacity="0.7049" d="M213.8 1.40039C213.8 1.40039 213.8 11.7004 205.3 18.5004C196.8 25.3004 121.9 72.4004 118.6 74.3004C115.8 75.9004 109 78.4004 107.4 78.4004C105.7 78.4004 98.9 75.9004 96.2 74.3004C92.9 72.4004 17.9 25.3004 9.5 18.5004C1 11.7004 1 1.40039 1 1.40039H213.8Z" fill="#D5D5D6"/>
<path opacity="0.7213" d="M213.8 1.2998C213.8 1.2998 213.8 11.4998 205.3 18.2998C196.8 25.0998 121.9 72.1998 118.6 74.0998C115.8 75.6998 109 78.1998 107.4 78.1998C105.7 78.1998 98.9 75.6998 96.2 74.0998C92.9 72.1998 17.9 25.0998 9.5 18.2998C1 11.4998 1 1.2998 1 1.2998H213.8Z" fill="#D4D4D5"/>
<path opacity="0.7377" d="M213.7 1.2002C213.7 1.2002 213.7 11.3002 205.2 18.0002C196.7 24.8002 121.8 71.9002 118.5 73.8002C115.7 75.4002 108.9 77.9002 107.3 77.9002C105.6 77.9002 98.8001 75.4002 96.1001 73.8002C92.8001 71.9002 17.8001 24.8002 9.40015 18.0002C0.900146 11.2002 0.900146 1.2002 0.900146 1.2002H213.7Z" fill="#D3D3D4"/>
<path opacity="0.7541" d="M213.7 1.09961C213.7 1.09961 213.7 11.0996 205.2 17.7996C196.7 24.5996 121.8 71.6996 118.5 73.5996C115.7 75.1996 108.9 77.6996 107.3 77.6996C105.6 77.6996 98.8001 75.1996 96.1001 73.5996C92.8001 71.6996 17.8001 24.5996 9.40015 17.7996C0.900146 10.9996 0.900146 1.09961 0.900146 1.09961H213.7Z" fill="#D2D2D3"/>
<path opacity="0.7705" d="M213.7 1.09961C213.7 1.09961 213.7 10.9996 205.2 17.6996C196.7 24.3996 121.8 71.5996 118.5 73.3996C115.7 74.9996 108.9 77.4996 107.3 77.4996C105.6 77.4996 98.8001 74.9996 96.1001 73.3996C92.8001 71.4996 17.8001 24.3996 9.40015 17.6996C0.900146 10.9996 0.900146 1.09961 0.900146 1.09961H213.7Z" fill="#D1D2D2"/>
<path opacity="0.7869" d="M213.7 1C213.7 1 213.7 10.8 205.2 17.5C196.7 24.2 121.8 71.4 118.5 73.2C115.7 74.8 108.9 77.3 107.3 77.3C105.6 77.3 98.8001 74.8 96.1001 73.2C92.8001 71.3 17.8001 24.2 9.40015 17.5C0.900146 10.8 0.900146 1 0.900146 1H213.7Z" fill="#D0D1D1"/>
<path opacity="0.8033" d="M213.7 0.900391C213.7 0.900391 213.7 10.6004 205.2 17.3004C196.7 24.0004 121.8 71.1004 118.5 73.0004C115.7 74.6004 108.9 77.1004 107.3 77.1004C105.6 77.1004 98.8001 74.6004 96.1001 73.0004C92.8001 71.1004 17.8001 24.0004 9.40015 17.3004C0.900146 10.6004 0.900146 0.900391 0.900146 0.900391H213.7Z" fill="#CFD0D0"/>
<path opacity="0.8197" d="M213.7 0.799805C213.7 0.799805 213.7 10.3998 205.2 17.0998C196.7 23.7998 121.8 70.8998 118.5 72.7998C115.7 74.3998 108.9 76.8998 107.3 76.8998C105.6 76.8998 98.8001 74.3998 96.1001 72.7998C92.8001 70.8998 17.8001 23.7998 9.40015 17.0998C0.900146 10.3998 0.900146 0.799805 0.900146 0.799805H213.7Z" fill="#CECFCF"/>
<path opacity="0.8361" d="M213.7 0.799805C213.7 0.799805 213.7 10.2998 205.2 16.9998C196.7 23.6998 121.8 70.7998 118.5 72.6998C115.7 74.2998 108.9 76.7998 107.3 76.7998C105.6 76.7998 98.8001 74.2998 96.1001 72.6998C92.8001 70.7998 17.8001 23.6998 9.40015 16.9998C0.900146 10.2998 0.900146 0.799805 0.900146 0.799805H213.7Z" fill="#CDCECE"/>
<path opacity="0.8525" d="M213.6 0.700195C213.6 0.700195 213.6 10.1002 205.1 16.8002C196.6 23.5002 121.7 70.6002 118.4 72.5002C115.6 74.0002 108.8 76.6002 107.2 76.6002C105.5 76.6002 98.7003 74.1002 96.0003 72.5002C92.7003 70.6002 17.7003 23.5002 9.30029 16.8002C0.800293 10.1002 0.800293 0.700195 0.800293 0.700195H213.6Z" fill="#CCCDCD"/>
<path opacity="0.8689" d="M213.6 0.599609C213.6 0.599609 213.6 9.89961 205.1 16.5996C196.6 23.2996 121.7 70.3996 118.4 72.1996C115.6 73.6996 108.8 76.2996 107.2 76.2996C105.5 76.2996 98.7003 73.7996 96.0003 72.1996C92.7003 70.2996 17.8003 23.2996 9.30029 16.5996C0.800293 9.89961 0.800293 0.599609 0.800293 0.599609H213.6Z" fill="#CBCCCC"/>
<path opacity="0.8852" d="M213.6 0.5C213.6 0.5 213.6 9.7 205.1 16.3C196.6 23 121.7 70.1 118.4 71.9C115.6 73.4 108.8 76 107.2 76C105.5 76 98.7003 73.5 96.0003 71.9C92.7003 70 17.7003 23 9.30029 16.3C0.800293 9.6 0.800293 0.5 0.800293 0.5H213.6Z" fill="#CACBCB"/>
<path opacity="0.9016" d="M213.6 0.5C213.6 0.5 213.6 9.6 205.1 16.2C196.6 22.9 121.7 69.9 118.4 71.8C115.6 73.3 108.8 75.8 107.2 75.8C105.5 75.8 98.7003 73.3 96.0003 71.8C92.7003 69.9 17.7003 22.9 9.30029 16.2C0.800293 9.5 0.800293 0.5 0.800293 0.5H213.6Z" fill="#C9CACA"/>
<path opacity="0.918" d="M213.6 0.400391C213.6 0.400391 213.6 9.40039 205.1 16.0004C196.6 22.7004 121.7 69.7004 118.4 71.6004C115.6 73.1004 108.8 75.6004 107.2 75.6004C105.5 75.6004 98.7003 73.1004 96.0003 71.6004C92.7003 69.8004 17.7003 22.7004 9.30029 16.0004C0.800293 9.30039 0.800293 0.400391 0.800293 0.400391H213.6Z" fill="#C8C9C9"/>
<path opacity="0.9344" d="M213.6 0.299805C213.6 0.299805 213.6 9.1998 205.1 15.7998C196.6 22.4998 121.7 69.4998 118.4 71.3998C115.6 72.8998 108.8 75.3998 107.2 75.3998C105.5 75.3998 98.7003 72.8998 96.0003 71.3998C92.7003 69.5998 17.7003 22.4998 9.30029 15.7998C0.800293 9.1998 0.800293 0.299805 0.800293 0.299805H213.6Z" fill="#C7C8C8"/>
<path opacity="0.9508" d="M213.5 0.200195C213.5 0.200195 213.5 9.00019 205 15.6002C196.5 22.2002 121.6 69.3002 118.3 71.1002C115.5 72.6002 108.7 75.1002 107.1 75.1002C105.4 75.1002 98.6003 72.6002 95.9003 71.1002C92.7003 69.3002 17.7003 22.3002 9.30029 15.6002C0.800293 9.00019 0.800293 0.200195 0.800293 0.200195H213.5Z" fill="#C6C7C7"/>
<path opacity="0.9672" d="M213.5 0.200195C213.5 0.200195 213.5 8.90019 205 15.5002C196.5 22.1002 121.6 69.2002 118.3 71.0002C115.5 72.5002 108.7 75.0002 107.1 75.0002C105.4 75.0002 98.6002 72.5002 95.9002 71.0002C92.6002 69.2002 17.6002 22.1002 9.2002 15.5002C0.700195 8.90019 0.700195 0.200195 0.700195 0.200195H213.5Z" fill="#C5C6C6"/>
<path opacity="0.9836" d="M213.5 0.0996094C213.5 0.0996094 213.5 8.69961 205 15.2996C196.5 21.8996 121.6 68.9996 118.3 70.7996C115.5 72.2996 108.7 74.7996 107.1 74.7996C105.4 74.7996 98.6002 72.2996 95.9002 70.7996C92.6002 68.9996 17.6002 21.8996 9.2002 15.2996C0.700195 8.69961 0.700195 0.0996094 0.700195 0.0996094H213.5Z" fill="#C4C5C5"/>
<path d="M213.5 0C213.5 0 213.5 8.5 205 15.1C196.5 21.7 121.6 68.7 118.3 70.6C115.5 72.1 108.7 74.6 107.1 74.6C105.4 74.6 98.6002 72.1 95.9002 70.6C92.6002 68.8 17.6002 21.7 9.2002 15.1C0.700195 8.5 0.700195 0 0.700195 0H213.5Z" fill="#B0B0B0"/>
<path d="M213.5 0C213.5 0 213.5 8.5 205 15.1C196.5 21.7 121.6 68.7 118.3 70.6C115.5 72.1 110.7 74.6 107.1 74.6C103.5 74.6 98.6002 72.1 95.9002 70.6C92.6002 68.8 17.6002 21.7 9.2002 15.1C0.700195 8.5 0.700195 0 0.700195 0H213.5Z" fill="url(#paint2_linear)"/>
<circle cx="105.8" cy="71.5" r="49.5" fill="#FFD34F"/>
<path d="M105.3 62.5781C108.581 62.5781 111.537 63.3464 114.167 64.8828C116.823 66.3932 118.881 68.5417 120.339 71.3281C121.823 74.1146 122.566 77.3307 122.566 80.9766C122.566 87.3568 120.639 92.2526 116.784 95.6641C112.956 99.0755 107.149 100.781 99.3625 100.781C92.6959 100.781 87.2532 99.7526 83.0344 97.6953V85.0391C85.3 86.0807 87.8521 86.9401 90.6907 87.6172C93.5553 88.2943 96.0162 88.6328 98.0735 88.6328C100.938 88.6328 103.139 88.0339 104.675 86.8359C106.212 85.612 106.98 83.8151 106.98 81.4453C106.98 79.2578 106.198 77.5521 104.636 76.3281C103.073 75.1042 100.704 74.4922 97.5266 74.4922C95.1047 74.4922 92.4875 74.9479 89.675 75.8594L84.011 73.0469L86.1594 42.8906H118.738V55.7422H99.2844L98.5813 63.2812C100.613 62.8906 102.058 62.6823 102.917 62.6562C103.777 62.6042 104.571 62.5781 105.3 62.5781Z" fill="url(#paint3_linear)"/>
<defs>
<linearGradient id="paint0_linear" x1="107.134" y1="0.0203" x2="107.134" y2="135.813" gradientUnits="userSpaceOnUse">
<stop stop-color="#D5D5D0"/>
<stop offset="0.1161" stop-color="#E0E0DA"/>
<stop offset="0.3441" stop-color="#EFEFE7"/>
<stop offset="0.6097" stop-color="#F8F8EF"/>
<stop offset="1" stop-color="#FBFBF1"/>
</linearGradient>
<linearGradient id="paint1_linear" x1="107.589" y1="-58.6198" x2="107.589" y2="135.813" gradientUnits="userSpaceOnUse">
<stop stop-color="#D5D5D0"/>
<stop offset="0.1161" stop-color="#E0E0DA"/>
<stop offset="0.3441" stop-color="#EFEFE7"/>
<stop offset="0.6097" stop-color="#F8F8EF"/>
<stop offset="1" stop-color="#FBFBF1"/>
</linearGradient>
<linearGradient id="paint2_linear" x1="107.134" y1="194.454" x2="107.134" y2="0.0209994" gradientUnits="userSpaceOnUse">
<stop stop-color="#D5D5D0"/>
<stop offset="0.1161" stop-color="#E0E0DA"/>
<stop offset="0.3441" stop-color="#EFEFE7"/>
<stop offset="0.6097" stop-color="#F8F8EF"/>
<stop offset="1" stop-color="#FBFBF1"/>
</linearGradient>
<linearGradient id="paint3_linear" x1="99.7307" y1="-1.41571" x2="102.763" y2="138.356" gradientUnits="userSpaceOnUse">
<stop stop-color="#D91B24"/>
<stop offset="1" stop-color="#393C5A"/>
</linearGradient>
</defs>
</svg>
