<svg width="359" height="276" viewBox="0 0 359 276" fill="none" xmlns="http://www.w3.org/2000/svg">
<path fill-rule="evenodd" clip-rule="evenodd" d="M181.948 0V41.2104H171.948V0L181.948 0Z" fill="#FFD34F"/>
<path fill-rule="evenodd" clip-rule="evenodd" d="M252.349 30.1771L235.468 61.4572L226.668 56.7079L243.549 25.4277L252.349 30.1771Z" fill="#FFD34F"/>
<path fill-rule="evenodd" clip-rule="evenodd" d="M101.656 22.9028L129.461 52.6935L122.15 59.5167L94.3453 29.726L101.656 22.9028Z" fill="#FFD34F"/>
<path d="M245.374 89.7369C246.633 84.3593 252.013 81.0203 257.39 82.2789L348.917 103.701C354.294 104.959 357.633 110.339 356.375 115.716L321.279 265.664C320.021 271.042 314.641 274.381 309.264 273.122L217.737 251.7C212.36 250.442 209.021 245.062 210.279 239.685L245.374 89.7369Z" fill="url(#paint0_linear)"/>
<path d="M307.494 179.521C304.616 191.819 300.445 200.354 294.982 205.127C289.526 209.868 282.551 211.244 274.057 209.256C265.753 207.312 260.19 202.868 257.369 195.922C254.556 188.945 254.529 179.561 257.288 167.77C260.182 155.409 264.363 146.827 269.834 142.022C275.305 137.218 282.287 135.81 290.781 137.798C299.054 139.734 304.593 144.207 307.399 151.216C310.244 158.2 310.276 167.635 307.494 179.521ZM275.973 172.144C274.133 180.004 273.36 185.523 273.652 188.701C273.945 191.878 275.248 193.738 277.562 194.28C279.907 194.829 281.912 193.693 283.575 190.873C285.269 188.06 287.014 182.818 288.81 175.148C290.612 167.446 291.382 161.943 291.119 158.638C290.864 155.302 289.579 153.363 287.265 152.822C284.951 152.28 282.954 153.384 281.275 156.134C279.595 158.883 277.827 164.22 275.973 172.144Z" fill="url(#paint1_linear)"/>
<path d="M2.27841 115.711C1.02008 110.334 4.3594 104.954 9.73698 103.696L101.265 82.2786C106.642 81.0203 112.022 84.3596 113.28 89.7372L148.368 239.687C149.626 245.064 146.287 250.444 140.909 251.702L49.3813 273.119C44.0037 274.378 38.6243 271.038 37.3659 265.661L2.27841 115.711Z" fill="url(#paint2_linear)"/>
<path d="M100.308 170.825C103.185 183.123 103.235 192.622 100.457 199.323C97.6715 205.993 92.0315 210.321 83.537 212.309C75.2327 214.252 68.2756 212.738 62.6657 207.765C57.0484 202.761 52.8602 194.364 50.1012 182.573C47.2087 170.211 47.1477 160.664 49.9184 153.931C52.689 147.199 58.3215 142.838 66.8161 140.851C75.0887 138.915 82.0374 140.465 87.6621 145.501C93.3111 150.497 97.5262 158.939 100.308 170.825ZM68.7859 178.201C70.6253 186.061 72.3811 191.35 74.0534 194.068C75.7257 196.786 77.7188 197.874 80.0326 197.333C82.3781 196.784 83.6703 194.877 83.9092 191.611C84.1797 188.339 83.4176 182.867 81.6228 175.197C79.8205 167.495 78.0684 162.221 76.3664 159.377C74.657 156.5 72.6454 155.333 70.3316 155.874C68.0178 156.416 66.7182 158.291 66.4328 161.501C66.1474 164.71 66.9317 170.277 68.7859 178.201Z" fill="url(#paint3_linear)"/>
<path d="M121 97C121 91.4772 125.477 87 131 87H225C230.523 87 235 91.4772 235 97V251C235 256.523 230.523 261 225 261H131C125.477 261 121 256.523 121 251V97Z" fill="url(#paint4_linear)"/>
<path d="M202.078 171.404C202.078 184.035 199.962 193.296 195.73 199.188C191.499 205.047 185.021 207.977 176.297 207.977C167.768 207.977 161.339 204.917 157.01 198.797C152.68 192.645 150.516 183.514 150.516 171.404C150.516 158.709 152.632 149.399 156.863 143.475C161.095 137.55 167.573 134.588 176.297 134.588C184.793 134.588 191.206 137.68 195.535 143.865C199.897 150.018 202.078 159.197 202.078 171.404ZM169.705 171.404C169.705 179.477 170.21 185.027 171.219 188.055C172.228 191.082 173.921 192.596 176.297 192.596C178.706 192.596 180.398 191.033 181.375 187.908C182.384 184.783 182.889 179.282 182.889 171.404C182.889 163.494 182.384 157.96 181.375 154.803C180.366 151.613 178.673 150.018 176.297 150.018C173.921 150.018 172.228 151.548 171.219 154.607C170.21 157.667 169.705 163.266 169.705 171.404Z" fill="url(#paint5_linear)"/>
<defs>
<linearGradient id="paint0_linear" x1="303.153" y1="92.9898" x2="263.5" y2="262.411" gradientUnits="userSpaceOnUse">
<stop stop-color="#FFAA2E"/>
<stop offset="1" stop-color="#FC9517"/>
</linearGradient>
<linearGradient id="paint1_linear" x1="298.861" y1="104.167" x2="267.868" y2="236.588" gradientUnits="userSpaceOnUse">
<stop stop-color="#FFC700"/>
<stop offset="1" stop-color="#FF4070"/>
</linearGradient>
<linearGradient id="paint2_linear" x1="55.5008" y1="92.9872" x2="95.1452" y2="262.411" gradientUnits="userSpaceOnUse">
<stop stop-color="#FFAA2E"/>
<stop offset="1" stop-color="#FC9517"/>
</linearGradient>
<linearGradient id="paint3_linear" x1="59.1333" y1="107.126" x2="90.1197" y2="239.549" gradientUnits="userSpaceOnUse">
<stop stop-color="#FFC700"/>
<stop offset="1" stop-color="#FF4070"/>
</linearGradient>
<linearGradient id="paint4_linear" x1="178" y1="87" x2="178" y2="261" gradientUnits="userSpaceOnUse">
<stop stop-color="#FFC700"/>
<stop offset="1" stop-color="#FC9517"/>
</linearGradient>
<linearGradient id="paint5_linear" x1="176.5" y1="100" x2="176.5" y2="236" gradientUnits="userSpaceOnUse">
<stop stop-color="#FFC700"/>
<stop offset="1" stop-color="#FF4070"/>
</linearGradient>
</defs>
</svg>
