<svg width="359" height="343" viewBox="0 0 359 343" fill="none" xmlns="http://www.w3.org/2000/svg">
<path d="M178.176 0C172.27 0 167.376 4.8936 167.376 10.7997C167.376 12.9933 168.051 14.8495 169.063 16.537C169.401 16.3682 169.738 16.0307 170.245 15.862C173.957 14.1746 175.476 17.0432 178.851 17.7182C182.057 18.3932 184.757 16.0307 187.794 15.862C188.638 14.3433 188.975 12.6558 188.975 10.7997C188.975 4.72485 184.082 0 178.176 0Z" fill="#EBB33A"/>
<path d="M178.85 17.7195C175.476 17.0446 173.957 14.3446 170.244 15.8633C169.907 16.0321 169.569 16.2008 169.063 16.5383C170.919 19.5757 174.294 21.6007 178.175 21.6007C182.394 21.6007 185.938 19.2382 187.625 15.8633C184.588 15.8633 182.057 18.2258 178.85 17.7195Z" fill="#CE8A29"/>
<g opacity="0.4">
<path opacity="0.4" d="M178.345 1.85653C177.332 1.68778 176.826 3.03774 177.501 4.3877C178.345 5.73765 182.732 7.08762 184.251 6.41264C188.132 3.88147 181.551 1.85653 179.695 1.51904L178.345 1.85653Z" fill="#FFE18D"/>
</g>
<path d="M168.725 8.10059C170.412 8.43808 171.425 11.813 170.243 12.9942C167.712 15.3566 167.712 10.1255 168.05 8.77557L168.725 8.10059Z" fill="#FFA300"/>
<path d="M173.113 8.94434C172.1 9.28183 171.425 11.138 172.1 12.488C172.775 14.0067 174.631 14.6816 175.475 12.8255C176.15 11.138 174.631 10.463 173.619 9.45056L173.113 8.94434Z" fill="#FFA300"/>
<path d="M179.863 9.11279C178.007 8.94405 177.501 10.6315 178.007 11.9814C180.032 15.6938 183.069 10.6315 179.526 9.45028L179.863 9.11279Z" fill="#FFA300"/>
<path d="M187.288 8.94393C186.95 8.26895 185.094 9.45016 184.925 10.9689C184.588 14.3438 189.988 13.5 187.456 9.61891L187.288 8.94393Z" fill="#FFA300"/>
<path d="M229.472 35.2696C223.735 33.2446 217.997 32.7384 212.766 33.0759C220.866 37.9695 226.097 45.9005 227.11 55.8564C227.616 63.4499 226.603 71.8872 223.566 78.8057C221.879 83.3618 220.529 89.0991 218.166 93.824C218.841 93.9927 219.516 94.1615 220.191 94.1615C224.241 94.4989 228.291 93.824 232.341 93.149C240.103 83.6993 241.115 70.8747 241.115 58.3876C240.947 53.3253 236.897 42.5256 229.472 35.2696Z" fill="url(#paint0_linear)"/>
<path d="M240.44 41.007C236.728 38.4758 233.184 36.6196 229.472 35.2696C236.897 42.6944 240.946 53.3253 240.946 58.3876C240.946 70.8747 239.934 83.6993 232.172 93.149C228.122 93.824 224.072 94.499 220.022 94.1615C219.347 94.1615 218.672 93.9928 217.997 93.824C220.36 89.0992 221.71 83.3619 223.397 78.8058C226.266 71.8872 227.447 63.45 226.941 55.8565C226.097 45.9005 220.697 37.9695 212.597 33.076C208.21 33.4134 204.16 34.2572 200.279 35.4384C207.873 40.332 210.066 48.938 211.247 57.8814C212.429 68.5123 212.766 79.6495 209.054 89.7742C204.16 86.7368 199.267 83.5306 193.698 84.3743C196.06 77.962 197.242 71.7185 197.41 64.6312C197.917 54.5065 198.592 46.913 195.723 37.1258C186.779 40.6695 180.198 45.5631 177.667 47.4192C175.98 46.0693 169.399 41.007 160.118 37.1258C157.755 45.7318 158.937 53.4941 159.612 62.6063C160.455 71.5497 161.805 80.6619 164.674 89.4367C164.505 89.2679 164.336 89.2679 163.999 89.0992C159.949 87.243 154.38 86.7368 150.668 88.9304C143.243 73.5747 140.881 47.2505 152.693 34.7634C148.306 33.5822 143.581 32.9072 138.687 33.076C132.781 38.6445 130.925 49.4442 131.094 57.2064C131.094 64.7999 133.625 72.056 135.987 78.9745C136.831 81.8431 138.181 89.2679 139.7 93.6553C138.856 93.3178 137.844 92.9803 136.831 92.6428C132.781 90.9554 129.238 93.4865 125.188 92.1366C119.957 90.1116 117.932 78.1308 116.75 73.2372C115.232 65.6437 116.244 58.3877 117.932 50.9629C119.45 44.8881 121.644 40.5007 124.681 35.9446C121.475 37.1258 118.269 38.982 115.063 41.1757C115.063 41.1757 93.4637 72.5622 129.744 106.48C129.744 106.48 137.506 112.892 140.206 106.48C142.906 100.068 144.931 100.068 144.931 100.068C144.931 100.068 165.18 122.848 177.33 99.0551V94.499L177.498 85.893L177.667 94.499L177.836 99.0551C189.986 122.848 210.235 100.068 210.235 100.068C210.235 100.068 212.26 100.068 214.96 106.48C217.66 112.892 225.422 106.48 225.422 106.48C230.484 101.586 234.703 97.0302 237.909 92.6428C261.027 61.0876 240.44 41.007 240.44 41.007ZM149.824 89.4367C149.656 89.4367 149.656 89.6054 149.487 89.6054C149.656 89.6054 149.656 89.4367 149.824 89.4367ZM139.868 93.6553C140.375 93.824 140.712 93.9928 141.05 93.9928C140.712 93.824 140.375 93.824 139.868 93.6553ZM142.568 94.1615C142.737 94.1615 142.906 94.1615 142.906 94.1615C142.906 94.1615 142.737 94.1615 142.568 94.1615ZM141.556 94.1615C141.725 94.1615 141.893 94.1615 142.062 94.1615C141.893 94.1615 141.725 94.1615 141.556 94.1615ZM144.256 93.9928C144.087 93.9928 144.087 93.9928 143.918 93.9928C144.087 94.1615 144.256 93.9928 144.256 93.9928ZM145.1 93.824C145.268 93.824 145.268 93.824 145.437 93.6553C145.268 93.6553 145.1 93.824 145.1 93.824ZM148.812 90.4491C148.643 90.6179 148.643 90.6179 148.474 90.7866C148.643 90.6179 148.643 90.4491 148.812 90.4491ZM147.968 91.6303C147.968 91.7991 147.799 91.7991 147.799 91.9678C147.799 91.7991 147.799 91.7991 147.968 91.6303ZM211.247 90.7866C212.597 91.6303 214.116 92.3053 215.635 92.8116C214.116 92.3053 212.766 91.6303 211.247 90.7866ZM215.804 92.9803C216.478 93.3178 217.322 93.4865 217.997 93.6553C217.153 93.4865 216.478 93.149 215.804 92.9803Z" fill="url(#paint1_linear)"/>
<path d="M178.007 94.3296L177.838 85.7236L177.669 94.3296C172.607 95.342 168.894 91.4609 164.844 89.0985C164.844 89.436 165.013 89.6047 165.013 89.9422C167.544 98.7169 175.475 96.692 182.731 94.8358C188.469 93.3171 189.987 92.4734 192.519 87.0735C192.856 86.0611 193.362 85.0486 193.7 84.0361C191.844 84.2049 190.156 84.8799 188.131 86.0611C184.588 88.4235 182.563 92.9796 178.007 94.3296Z" fill="url(#paint2_linear)"/>
<path d="M160.287 36.9565C157.925 35.944 155.562 35.1003 152.862 34.4253C141.05 46.9124 143.244 73.2366 150.838 88.5923C154.719 86.3986 160.118 86.9049 164.168 88.7611C164.337 88.9298 164.506 88.9298 164.843 89.0985C162.143 80.3238 160.625 71.3804 159.781 62.2682C159.106 53.3247 157.925 45.5624 160.287 36.9565Z" fill="url(#paint3_linear)"/>
<path d="M211.248 57.7121C210.067 48.7686 207.873 40.3314 200.28 35.269C198.761 35.7753 197.243 36.2815 195.893 36.7877C198.761 46.5749 198.255 54.1684 197.58 64.2931C197.411 71.3804 196.23 77.4552 193.868 84.0362C199.268 83.3613 204.161 86.5674 209.223 89.4361C212.767 79.4801 212.43 68.343 211.248 57.7121Z" fill="url(#paint4_linear)"/>
<path d="M131.095 57.2055C130.927 49.4432 132.783 38.6436 138.858 32.9062C134.301 33.075 129.577 33.9187 124.852 35.7749C121.814 40.331 119.621 44.7184 118.102 50.7932C116.415 58.3867 115.402 65.6427 116.921 73.0675C118.102 77.9611 120.127 89.9419 125.358 91.9669C129.408 93.4856 132.952 90.7856 137.001 92.4731C138.014 92.8106 139.026 93.3168 139.87 93.4856C138.183 88.9295 137.001 81.6735 136.158 78.8048C133.795 71.8863 131.095 64.6302 131.095 57.2055Z" fill="url(#paint5_linear)"/>
<path d="M164 34.4248L157.25 31.8936C147.969 27.3375 139.026 28.1813 139.026 28.1813C138.351 28.1813 137.845 28.1813 137.338 28.1813C128.226 31.5562 124.514 42.0183 124.008 50.9618C123.333 65.8113 127.382 81.6733 133.626 95.0041C135.313 99.2227 138.013 103.273 140.376 107.154C145.101 104.791 148.644 99.8977 148.644 99.8977C142.063 84.7107 139.026 74.9235 140.038 58.724C140.376 49.1056 141.388 36.6185 152.357 33.5811C153.875 32.9061 158.263 33.4123 161.638 34.0873L164 34.4248Z" fill="#ECB43C"/>
<path d="M105.446 71.041C107.977 87.4092 126.539 106.14 134.133 108.165C132.277 106.646 130.589 104.959 128.902 103.102C117.933 89.9404 112.027 76.272 112.365 58.7226C112.702 46.0668 122.658 29.8673 137.17 28.0111C110.846 26.6611 102.915 55.5165 105.446 71.041Z" fill="#ECB43C"/>
<path d="M122.659 129.765C122.659 132.128 125.021 134.152 127.721 134.152H228.799C231.668 134.152 233.862 132.296 233.862 129.765V104.285C233.862 97.8724 231.499 99.8973 228.799 99.8973H127.721C124.853 99.8973 122.659 96.8599 122.659 104.285V129.765Z" fill="url(#paint6_linear)"/>
<path d="M192.688 34.5919L198.763 31.7232C208.044 27.1671 216.987 28.0108 216.987 28.0108C217.662 28.0108 220.193 28.0108 220.868 28.0108C229.98 31.3857 231.499 41.8479 232.174 50.7914C232.849 65.6409 228.799 81.5029 222.556 94.8337C220.868 99.0523 218.168 103.102 215.806 106.983C211.081 104.621 207.537 99.7273 207.537 99.7273C214.118 84.5403 217.156 74.7531 216.143 58.5536C215.806 48.9352 214.793 36.4481 203.825 33.4107C202.306 32.7357 197.919 33.2419 194.544 33.9169L192.688 34.5919Z" fill="#ECB43C"/>
<path d="M252.59 71.0414C249.89 87.4096 231.497 106.14 223.904 108.165C225.76 106.646 227.447 104.959 229.135 103.103C240.103 89.9408 246.009 76.2725 245.672 58.723C245.334 46.0672 242.128 30.8802 220.866 28.0115C252.928 26.3241 254.953 55.5169 252.59 71.0414Z" fill="#ECB43C"/>
<path d="M181.719 99.3909C187.119 85.8914 194.037 70.0294 194.037 55.3486C194.037 41.6803 194.037 24.2996 180.538 19.5747H175.306C161.807 24.2996 161.807 41.6803 161.807 55.3486C161.807 70.1981 165.351 85.5539 173.619 98.8847C173.788 98.8847 178.344 107.828 181.719 99.3909Z" fill="url(#paint7_linear)"/>
<path d="M228.799 99.8975C228.799 99.8975 229.136 100.066 229.811 100.066C230.486 100.066 231.499 100.235 232.68 99.8975C233.861 99.56 235.211 98.885 236.224 97.5351C236.73 96.8601 237.236 96.0164 237.574 95.1727C238.08 94.329 238.586 93.4852 239.092 92.4728C240.105 90.6166 241.117 88.5916 242.13 86.398C243.142 84.2043 244.155 81.8418 245.167 79.4794C246.18 76.9483 247.023 74.4171 247.867 71.8859C248.373 70.536 248.542 69.186 248.879 67.8361C249.048 66.4861 249.386 65.1361 249.554 63.7862C250.061 61.0863 249.892 58.2176 249.554 55.5177C249.217 52.8178 248.711 50.1179 248.036 47.5867C247.361 45.0555 246.517 42.6931 245.336 40.6682C244.155 38.6432 242.805 36.787 241.117 35.4371C240.442 34.7621 239.598 34.0871 238.755 33.5809C237.911 33.0747 237.236 32.5684 236.392 32.0622C235.717 31.7247 234.874 31.2185 234.367 30.881C233.692 30.5435 233.017 30.206 232.511 30.0373C231.33 29.531 230.486 29.1935 229.811 28.856C229.136 28.5185 228.799 28.5186 228.799 28.5186C228.799 28.5186 229.136 28.6873 229.811 28.856C230.486 29.0248 231.33 29.3623 232.511 29.8685C233.017 30.0373 233.692 30.3748 234.367 30.7122C235.042 31.0497 235.717 31.3872 236.561 31.7247C237.405 32.0622 238.08 32.5684 238.924 33.0747C239.767 33.5809 240.611 34.2559 241.455 34.9309C243.142 36.2808 244.83 38.137 246.011 40.1619C247.361 42.3556 248.373 44.718 249.048 47.4179C249.723 49.9491 250.229 52.8178 250.567 55.5177C250.904 58.3864 251.073 61.255 250.567 64.1237C250.398 65.6424 250.061 66.9923 249.892 68.3423C249.554 69.6922 249.217 71.0422 248.711 72.3922C247.867 75.0921 246.855 77.6232 245.842 80.1544C243.817 85.048 241.286 89.4354 239.092 93.1477C237.911 95.0039 237.067 96.6914 235.886 98.0413C234.705 99.3913 233.186 100.066 232.005 100.404C230.824 100.741 229.811 100.404 229.136 100.404C229.136 99.8975 228.799 99.8975 228.799 99.8975Z" fill="#BC7622"/>
<path d="M127.72 99.8972C127.72 99.8972 129.239 99.8972 132.108 99.7285C134.808 99.7285 138.858 99.5597 143.582 99.391C148.307 99.391 153.876 99.2223 159.782 99.0535C165.688 99.0535 172.1 99.0535 178.344 98.8848C184.587 98.8848 191 98.8848 196.906 99.0535C202.812 99.0535 208.38 99.2223 213.105 99.391C217.83 99.391 221.711 99.5597 224.58 99.7285C227.28 99.8972 228.967 99.8972 228.967 99.8972C228.967 99.8972 227.449 99.8972 224.58 100.066C221.88 100.066 217.83 100.235 213.105 100.403C208.38 100.403 202.812 100.572 196.906 100.741C191 100.741 184.587 100.741 178.344 100.91C172.1 100.91 165.688 100.91 159.782 100.741C153.876 100.741 148.307 100.572 143.582 100.403C138.858 100.403 134.976 100.235 132.108 100.066C129.239 99.8972 127.72 99.8972 127.72 99.8972Z" fill="#BC7622"/>
<path d="M116.414 38.1372C116.414 38.1372 115.908 39.1497 114.895 40.6684C114.389 41.5121 113.714 42.5246 113.208 43.7058C112.87 44.3808 112.701 44.887 112.364 45.562C112.195 45.8995 112.026 46.2369 111.858 46.5744C111.689 46.9119 111.689 47.2494 111.52 47.7557C111.351 48.5994 111.014 49.2744 110.676 50.1181C110.339 50.9618 110.339 51.8055 110.17 52.818C109.664 54.6742 109.664 56.5304 109.495 58.5553C109.495 59.5678 109.495 60.5802 109.495 61.5927C109.495 62.6052 109.664 63.6177 109.664 64.7989C109.833 66.9925 110.339 69.0175 110.676 71.2112L111.52 74.4173C111.858 75.4298 112.195 76.4422 112.533 77.4547C113.208 79.4796 113.883 81.5046 114.726 83.3608C115.57 85.217 116.245 87.0731 117.089 88.7606C117.932 90.448 118.607 92.1355 119.451 93.4854C119.789 94.1604 120.126 95.0041 120.632 95.5104C121.139 96.0166 121.476 96.6916 121.982 97.0291C122.489 97.3666 122.995 97.8728 123.332 98.2103C123.839 98.5478 124.345 98.7165 124.682 98.8853C125.526 99.2228 126.37 99.3915 126.876 99.3915C127.382 99.3915 127.72 99.3915 127.72 99.3915C127.72 99.3915 127.382 99.3915 126.876 99.3915C126.37 99.3915 125.526 99.3915 124.682 99.054C124.176 98.8853 123.67 98.7165 123.164 98.379C122.657 98.0415 122.151 97.7041 121.645 97.3666C121.139 96.8603 120.632 96.3541 120.126 95.8479C119.62 95.1729 119.282 94.4979 118.776 93.8229C117.932 92.3042 117.089 90.7855 116.245 89.0981C115.401 87.4106 114.389 85.5544 113.545 83.6983C112.701 81.8421 111.858 79.8171 111.183 77.7922C110.845 76.7797 110.508 75.7673 110.17 74.5861C109.833 73.5736 109.664 72.3924 109.326 71.3799C108.82 69.1862 108.483 66.9925 108.314 64.7989C108.145 63.7864 108.145 62.6052 108.145 61.5927C108.145 60.5802 108.145 59.399 108.145 58.3866C108.314 56.3616 108.483 54.3367 109.158 52.4805C109.326 51.468 109.495 50.6243 109.833 49.7806C110.17 48.9369 110.508 48.0931 110.676 47.2494C111.183 45.562 112.026 44.3808 112.701 43.1995C113.376 42.0183 114.051 41.0059 114.558 40.3309C115.739 38.9809 116.414 38.1372 116.414 38.1372Z" fill="#BC7622"/>
<path d="M123.333 129.595C123.333 129.595 125.02 129.595 128.057 129.427C131.095 129.427 135.482 129.258 140.713 129.089C145.944 129.089 152.019 128.92 158.6 128.752C165.181 128.752 172.1 128.752 179.018 128.583C185.937 128.583 192.855 128.583 199.436 128.752C206.017 128.752 212.092 128.921 217.323 129.089C222.554 129.089 226.942 129.258 229.979 129.427C233.017 129.595 234.704 129.595 234.704 129.595C234.704 129.595 233.017 129.595 229.979 129.764C226.942 129.764 222.554 129.933 217.323 130.102C212.092 130.102 206.017 130.27 199.436 130.439C192.855 130.439 185.937 130.439 179.018 130.608C172.1 130.608 165.181 130.608 158.6 130.439C152.019 130.439 145.944 130.27 140.713 130.102C135.482 130.102 131.095 129.933 128.057 129.764C125.02 129.595 123.333 129.595 123.333 129.595Z" fill="#BC7622"/>
<path d="M149.995 29.1931C149.995 29.1931 148.645 29.0243 146.451 29.5305C145.27 29.6993 144.089 30.0368 142.57 30.7118C141.22 31.3867 139.702 32.3992 138.352 33.5804C137.002 34.9304 135.821 36.6178 134.977 38.474C134.639 39.4865 134.133 40.499 133.964 41.6802C133.796 42.1864 133.627 42.8614 133.627 43.3676C133.627 43.8738 133.458 44.5488 133.458 45.0551C133.121 47.4175 132.952 49.7799 132.952 52.3111C132.952 54.8422 133.121 57.3734 133.289 59.9046C133.458 62.4357 133.796 64.9669 134.133 67.4981C134.471 70.0293 134.808 72.3917 135.314 74.7541C135.821 77.1165 136.158 79.3102 136.664 81.5039C137.171 83.6976 137.677 85.7225 138.183 87.5787C138.689 89.4349 139.195 91.1223 139.702 92.641C140.208 94.1597 140.714 95.3409 141.052 96.3534C141.389 97.3659 141.895 98.2096 142.064 98.7159C142.402 99.2221 142.402 99.5596 142.402 99.5596C142.402 99.5596 142.233 99.2221 141.895 98.7159C141.558 98.2096 141.052 97.5346 140.545 96.3534C140.039 95.3409 139.533 94.1597 138.858 92.641C138.183 91.1223 137.677 89.6036 137.002 87.7475C136.327 85.8913 135.821 83.8663 135.146 81.6726C134.639 79.479 133.964 77.2853 133.627 74.9229C133.121 72.5604 132.783 70.0293 132.446 67.4981C132.108 64.9669 131.771 62.4357 131.602 59.7358C131.433 57.2047 131.264 54.5048 131.433 51.9736C131.433 49.4424 131.602 46.7425 131.939 44.3801C132.108 43.7051 132.108 43.1989 132.277 42.5239C132.446 42.0177 132.614 41.3427 132.783 40.8364C133.121 39.6552 133.627 38.6428 133.964 37.6303C134.977 35.6054 136.327 33.7492 137.845 32.568C139.364 31.218 140.883 30.3743 142.402 29.868C143.92 29.3618 145.27 29.0243 146.451 28.8556C147.633 28.6868 148.476 28.6868 149.151 28.8556C149.658 29.1931 149.995 29.1931 149.995 29.1931Z" fill="#BC7622"/>
<path d="M208.886 29.1943C208.886 29.1943 209.223 29.1943 209.73 29.1943C210.405 29.1943 211.248 29.1943 212.43 29.1943C213.611 29.3631 214.961 29.5318 216.479 30.2068C217.998 30.713 219.517 31.7255 221.036 32.9067C222.554 34.2567 223.736 35.9441 224.917 37.9691C225.254 38.9815 225.929 40.1627 226.098 41.1752C226.267 41.6814 226.435 42.3564 226.604 42.8626C226.773 43.5376 226.773 44.0439 226.942 44.7188C227.279 47.0813 227.448 49.7812 227.448 52.3123C227.448 54.8435 227.448 57.5434 227.279 60.0746C227.11 62.6058 226.773 65.3057 226.435 67.8369C226.098 70.368 225.592 72.8992 225.254 75.2616C224.748 77.624 224.242 79.9865 223.736 82.0114C223.061 84.2051 222.554 86.23 221.879 88.0862C221.373 89.9424 220.698 91.6298 220.023 92.9798C219.348 94.4985 218.842 95.6797 218.336 96.6922C217.829 97.7046 217.323 98.3796 216.986 99.0546C216.648 99.5608 216.479 99.8983 216.479 99.8983C216.479 99.8983 216.648 99.5608 216.817 99.0546C217.154 98.5484 217.492 97.7046 217.829 96.6922C218.336 95.6797 218.673 94.3298 219.179 92.9798C219.686 91.4611 220.192 89.7736 220.698 87.9175C221.204 86.0613 221.711 84.0363 222.217 81.8427C222.723 79.649 223.061 77.4553 223.567 75.0929C224.073 72.7305 224.41 70.1993 224.748 67.8369C225.085 65.3057 225.254 62.7745 225.592 60.2433C225.76 57.7122 225.929 55.181 225.929 52.6498C225.929 50.1187 225.76 47.7562 225.423 45.3938C225.254 44.8876 225.254 44.2126 225.254 43.7064C225.085 43.2001 224.917 42.5252 224.917 42.0189C224.748 40.8377 224.242 39.8252 223.904 38.8128C223.061 36.9566 221.879 35.1004 220.529 33.9192C219.179 32.5692 217.661 31.7255 216.311 31.0505C214.961 30.3755 213.611 30.0381 212.43 29.8693C210.236 29.1943 208.886 29.1943 208.886 29.1943Z" fill="#BC7622"/>
<path d="M161.637 34.087L164 34.4245V34.5932L157.081 32.2308C155.563 31.7246 154.213 31.0496 152.694 30.5433L150.5 29.8684C149.825 29.6996 148.981 29.5309 148.138 29.3621C147.463 29.1934 146.619 29.0247 145.775 29.0247C144.932 28.8559 144.257 28.8559 143.413 28.8559C142.569 28.8559 141.894 28.6872 141.05 28.6872C140.207 28.6872 139.532 28.6872 138.688 28.6872H137.001H137.338C135.988 29.1934 134.638 29.8684 133.457 30.7121C132.276 31.5558 131.263 32.5683 130.251 33.7495C129.238 34.9307 128.563 36.1119 127.888 37.4619C127.213 38.8118 126.707 40.1618 126.201 41.5118C125.695 42.8617 125.357 44.3804 125.02 45.8991C124.682 47.4178 124.513 48.9365 124.345 50.2865C124.345 51.6364 124.345 53.3239 124.176 54.8426C124.176 56.3613 124.345 57.88 124.345 59.3987L124.513 61.5924C124.513 62.2673 124.682 63.1111 124.851 63.786C125.02 65.3047 125.188 66.8235 125.526 68.3422L126.37 72.8983L127.382 77.2856C127.72 78.8043 128.226 80.1543 128.563 81.673C128.901 83.1917 129.407 84.5416 129.913 86.0603C130.42 87.579 130.926 88.929 131.432 90.4477L133.119 94.6663L131.095 90.4477C130.42 89.0977 129.913 87.579 129.238 86.2291C128.563 84.8791 128.057 83.3604 127.551 81.8417C127.045 80.323 126.538 78.9731 126.201 77.4544L125.02 73.067L124.007 68.5109C123.67 66.9922 123.501 65.4735 123.332 63.9548C123.164 63.1111 123.164 62.4361 122.995 61.5924L122.826 59.2299C122.657 57.7112 122.489 56.1925 122.657 54.6738C122.657 53.1551 122.657 51.6364 122.657 49.949C122.826 46.9116 123.501 43.7054 124.513 40.8368C125.02 39.3181 125.695 37.9681 126.37 36.4494C127.213 35.0995 127.888 33.7495 128.901 32.5683C129.913 31.3871 131.095 30.2059 132.444 29.3621C133.794 28.3497 135.144 27.6747 136.663 27.1685C136.663 27.1685 136.832 27.1685 137.001 27.1685L138.688 27.3372H138.519C139.363 27.3372 140.207 27.3372 140.882 27.3372C141.725 27.3372 142.4 27.506 143.244 27.506C144.088 27.506 144.763 27.6747 145.607 27.8434C146.45 28.0122 147.125 28.0122 147.969 28.3497C148.813 28.5184 149.488 28.6872 150.331 28.8559L152.525 29.5309C153.369 29.6996 154.044 30.0371 154.719 30.3746L156.912 31.3871L163.662 34.087C163.662 34.087 163.662 34.087 163.662 34.2557C163.662 34.2557 163.662 34.2557 163.493 34.2557L161.637 34.087Z" fill="url(#paint8_linear)"/>
<path d="M194.207 34.087L192.519 34.762C192.519 34.762 192.519 34.762 192.35 34.762C192.35 34.762 192.35 34.762 192.35 34.5932L198.088 31.7246C199.1 31.2183 200.113 30.8808 200.956 30.3746C201.463 30.2059 201.969 29.8684 202.475 29.6996L203.994 29.1934C204.5 29.0247 205.006 28.8559 205.512 28.6872L207.031 28.3497C208.044 28.0122 209.225 27.8434 210.237 27.6747C211.25 27.506 212.431 27.3372 213.443 27.3372C214.456 27.3372 215.637 27.1685 216.65 27.3372H216.481L220.362 27.1685C220.531 27.1685 220.531 27.1685 220.531 27.1685C221.881 27.6747 223.231 28.3497 224.412 29.3621C225.593 30.2059 226.606 31.3871 227.449 32.5683C228.293 33.7495 228.968 35.0995 229.643 36.4494C230.149 37.7994 230.655 39.1493 230.993 40.4993C231.668 43.3679 232.005 46.2366 232.174 48.9365C232.174 49.6115 232.343 50.2865 232.343 51.1302V53.3239C232.343 54.6738 232.343 56.1925 232.174 57.5425C232.005 58.8924 232.005 60.4112 231.837 61.7611C231.668 63.1111 231.499 64.6298 231.33 65.9797L230.487 70.1983C230.149 71.5483 229.812 72.8983 229.474 74.417C229.137 75.7669 228.799 77.1169 228.293 78.4668C227.955 79.8168 227.449 81.1667 226.943 82.5167C226.437 83.8667 225.931 85.2166 225.424 86.3978L223.737 90.279L225.087 86.2291C225.593 84.8791 225.931 83.5292 226.268 82.1792C226.774 80.8293 227.112 79.4793 227.449 78.1293C227.787 76.7794 228.124 75.4294 228.462 74.0795C228.799 72.7295 229.137 71.3796 229.305 70.0296L229.98 65.811L230.487 61.5924C230.655 60.2424 230.655 58.8925 230.824 57.3737C230.993 56.0238 230.993 54.5051 230.824 53.1551V50.9615C230.824 50.2865 230.655 49.6115 230.655 48.9365C230.487 47.5866 230.318 46.2366 230.149 44.7179C229.98 43.3679 229.643 42.018 229.305 40.668C228.968 39.3181 228.63 37.9681 228.124 36.7869C227.618 35.437 226.943 34.2557 226.268 33.2433C225.424 32.2308 224.581 31.2183 223.568 30.3746C222.556 29.5309 221.374 29.0247 220.024 28.3497H220.362H216.65C215.637 28.3497 214.625 28.3497 213.612 28.3497C212.6 28.3497 211.587 28.5184 210.406 28.5184C209.394 28.6872 208.381 28.6872 207.369 29.0247L205.85 29.3621C205.344 29.3621 204.837 29.6996 204.331 29.6996C203.319 30.0371 202.306 30.2059 201.294 30.7121C200.281 31.0496 199.269 31.5558 198.256 31.8933L192.35 34.4245V34.2557L194.207 34.087Z" fill="#FFE18D"/>
<path d="M186.612 87.0717C187.625 84.2031 188.637 81.1657 189.481 78.297C189.819 76.7783 190.325 75.4284 190.662 73.9097C191 72.391 191.506 70.8723 191.675 69.5223L192.181 67.3286L192.518 65.1349C192.856 63.6162 192.856 62.0975 193.025 60.5788C193.193 59.0601 193.193 57.5414 193.193 56.0227C193.193 54.504 193.193 52.9853 193.193 51.4666C193.193 48.4292 193.025 45.3918 192.687 42.3544C192.518 40.8357 192.35 39.317 192.012 37.7983C191.843 37.1233 191.675 36.2796 191.506 35.6046C191.337 34.9297 191.168 34.0859 191 33.411C190.662 31.8923 190.156 30.5423 189.481 29.1923C188.806 27.8424 188.131 26.6612 187.119 25.48C186.275 24.2987 185.094 23.2863 183.912 22.4426C183.238 22.1051 182.731 21.5988 182.056 21.2613L180.031 20.4176H180.2H174.969H175.138L173.45 21.0926L171.763 21.9363L170.244 22.9488C169.738 23.2863 169.4 23.7925 168.894 24.13C168.557 24.6362 168.05 24.9737 167.713 25.48C167.375 25.9862 166.869 26.4924 166.701 26.9987C166.363 27.5049 166.026 28.0111 165.688 28.5174C165.351 29.0236 165.182 29.5298 164.844 30.2048C164.338 31.386 164.001 32.5672 163.494 33.7484C163.157 34.9297 162.819 36.1109 162.651 37.4608C162.144 39.992 161.807 42.3544 161.638 44.8856C161.638 42.3544 161.807 39.8232 162.144 37.2921C162.313 36.1109 162.482 34.7609 162.819 33.5797C163.157 32.3985 163.494 31.0485 164.001 29.8673C164.169 29.1923 164.507 28.6861 164.844 28.1799C165.013 27.5049 165.519 26.9987 165.688 26.4924C166.026 25.9862 166.363 25.48 166.701 24.805C167.038 24.2988 167.544 23.7925 167.882 23.2863C168.388 22.78 168.894 22.4426 169.232 21.9363L170.75 20.7551L172.438 19.7426L174.294 18.8989H174.463H179.694H179.863L182.056 19.9114C182.731 20.2489 183.406 20.7551 184.081 21.0926C185.431 22.1051 186.612 23.1175 187.625 24.2987C188.637 25.48 189.481 26.8299 190.156 28.3486C190.831 29.6986 191.337 31.2173 191.843 32.736C192.012 33.411 192.181 34.2547 192.35 35.0984C192.518 35.9421 192.687 36.6171 192.856 37.4608C193.193 38.9795 193.193 40.4982 193.362 42.0169C193.7 45.0543 193.7 48.2605 193.7 51.2979C193.7 52.8166 193.7 54.3353 193.7 55.854C193.531 57.3727 193.531 58.8914 193.362 60.5788C193.193 62.0975 193.025 63.6162 192.687 65.1349L192.181 67.3286L191.675 69.5223C191.337 71.041 190.831 72.5597 190.494 73.9097C189.987 75.4284 189.481 76.7783 188.975 78.297C188.975 81.3344 187.794 84.2031 186.612 87.0717Z" fill="#FFE18D"/>
<g opacity="0.7">
<path opacity="0.7" d="M169.739 10.1251C169.401 9.28143 168.726 8.60645 167.883 8.60645C166.533 8.77519 165.858 9.78766 166.195 11.1376C166.364 11.6438 166.533 11.9813 166.87 12.3188C168.051 12.3188 169.064 11.3064 169.739 10.1251Z" fill="white"/>
</g>
<path d="M169.74 10.126C169.065 11.3072 168.052 12.3197 166.871 12.3197C167.209 12.8259 167.884 12.9946 168.559 12.8259C169.74 12.4884 170.246 11.9822 170.077 10.801C169.908 10.6322 169.909 10.2947 169.74 10.126Z" fill="#C9C7BC"/>
<g opacity="0.7">
<path opacity="0.7" d="M175.645 10.1251C175.308 9.28143 174.633 8.60645 173.789 8.60645C172.439 8.77519 171.764 9.78766 172.102 11.1376C172.27 11.6438 172.439 11.9813 172.777 12.3188C173.958 12.3188 174.97 11.3064 175.645 10.1251Z" fill="white"/>
</g>
<path d="M175.645 10.126C174.97 11.3072 173.958 12.3197 172.776 12.3197C173.114 12.8259 173.789 12.9946 174.464 12.8259C175.645 12.4884 176.151 11.9822 175.983 10.801C175.814 10.6322 175.814 10.2947 175.645 10.126Z" fill="#C9C7BC"/>
<g opacity="0.7">
<path opacity="0.7" d="M186.613 10.1247C186.95 9.28094 187.625 8.60596 188.469 8.60596C189.819 8.7747 190.494 9.78717 190.156 11.1371C189.987 11.6434 189.819 11.9809 189.481 12.3183C188.3 12.3183 187.288 11.3059 186.613 10.1247Z" fill="white"/>
</g>
<path d="M186.612 10.125C187.287 11.3062 188.299 12.3187 189.48 12.3187C189.143 12.8249 188.468 12.9937 187.793 12.8249C186.612 12.4874 186.106 11.9812 186.274 10.8C186.443 10.6312 186.443 10.2937 186.612 10.125Z" fill="#C9C7BC"/>
<g opacity="0.7">
<path opacity="0.7" d="M178.85 10.1247C179.188 9.28094 179.863 8.60596 180.706 8.60596C182.056 8.7747 182.731 9.78717 182.394 11.1371C182.225 11.6434 182.056 11.9809 181.719 12.3183C180.538 12.3183 179.525 11.3059 178.85 10.1247Z" fill="white"/>
</g>
<path d="M178.849 10.125C179.524 11.3062 180.537 12.3187 181.718 12.3187C181.381 12.8249 180.706 12.9937 180.031 12.8249C178.849 12.4874 178.343 11.9812 178.512 10.8C178.681 10.6312 178.681 10.2937 178.849 10.125Z" fill="#C9C7BC"/>
<path d="M132.107 114.24C129.576 112.89 129.239 117.615 129.239 119.303C129.07 123.353 128.733 127.065 133.626 127.065C137.001 127.065 142.063 127.74 142.738 123.859C143.245 121.834 143.245 116.265 141.388 115.084L132.107 114.24Z" fill="#FFA300"/>
<path d="M156.407 115.085C151.683 116.097 153.708 123.185 158.432 123.185C160.964 123.185 162.82 121.16 162.145 118.46C161.47 115.76 158.939 115.085 156.745 114.916L156.407 115.085Z" fill="#FFA300"/>
<path d="M173.618 114.24C169.231 114.578 170.75 125.715 173.956 126.559C175.812 127.065 181.549 126.052 183.406 125.209C185.093 124.027 186.443 117.615 183.743 116.434L173.618 114.24Z" fill="#FFA300"/>
<path d="M197.582 115.422C193.363 114.916 192.013 122.847 196.738 123.859C198.763 124.366 200.45 123.016 200.788 120.991C201.294 118.628 199.607 117.278 198.088 115.76L197.582 115.422Z" fill="#FFA300"/>
<path d="M222.724 113.565C221.88 113.397 220.53 113.903 219.18 114.24C217.999 114.409 215.13 114.072 214.118 114.746C212.43 115.928 213.105 123.521 214.793 125.209C215.974 126.39 223.905 127.065 225.255 125.715C226.436 124.365 226.099 116.096 224.58 114.578C224.58 114.578 224.58 114.578 224.411 114.578L222.724 113.565Z" fill="#FFA300"/>
<path d="M136.833 123.014C134.301 119.301 131.77 117.951 129.239 119.47V122.508C129.239 124.026 130.589 125.376 132.108 125.376H138.689C140.207 125.376 141.557 124.026 141.557 122.508V120.82C140.207 120.483 139.026 121.158 136.833 123.014Z" fill="#912A2D"/>
<path d="M138.52 113.059H131.939C130.42 113.059 129.07 114.409 129.07 115.927V119.471C131.77 117.952 134.133 119.302 136.664 123.015C139.026 121.158 140.207 120.483 141.22 120.821V115.927C141.389 114.409 140.039 113.059 138.52 113.059Z" fill="#B22832"/>
<path d="M136.157 114.409C133.288 115.084 135.82 118.627 138.013 118.121C140.882 117.446 138.013 115.084 136.326 114.746L136.157 114.409Z" fill="#CE2C3F"/>
<path opacity="0.7" d="M160.626 117.109C159.951 116.266 158.769 115.759 157.588 115.759C155.394 115.759 153.707 117.615 153.707 119.64C153.707 120.822 154.213 121.834 155.057 122.678C157.251 122.003 159.444 119.472 160.626 117.109Z" fill="white"/>
<path d="M160.625 117.11C159.444 119.472 157.251 122.003 155.057 122.678C155.732 123.353 156.576 123.691 157.588 123.691C159.782 123.691 161.469 121.835 161.469 119.81C161.469 118.629 161.132 117.785 160.625 117.11Z" fill="#C9C7BC"/>
<path d="M184.081 119.133V115.927C184.081 114.409 182.731 113.059 181.212 113.059H174.631C173.113 113.059 171.763 114.409 171.763 115.927V119.471V119.977C173.281 120.146 174.8 121.158 176.656 121.496C180.369 121.833 182.225 121.158 184.081 119.133Z" fill="#B22832"/>
<path d="M176.825 121.327C174.8 121.159 173.45 120.146 171.931 119.809V122.34C171.931 123.858 173.281 125.208 174.8 125.208H181.381C182.9 125.208 184.25 123.858 184.25 122.34V120.652V118.965C182.225 121.159 180.369 121.833 176.825 121.327Z" fill="#912A2D"/>
<path d="M177.669 114.411C175.307 114.579 172.775 115.592 173.282 117.279C173.957 120.317 176.994 116.435 178.006 116.267C178.513 116.267 183.238 118.629 181.719 115.423C181.213 114.411 179.525 114.242 177.669 114.411Z" fill="#CE2C3F"/>
<path d="M219.178 123.014C221.71 119.302 224.241 117.952 226.772 119.471V122.508C226.772 124.027 225.422 125.377 223.903 125.377H217.322C215.804 125.377 214.454 124.027 214.454 122.508V120.821C215.635 120.483 216.816 121.158 219.178 123.014Z" fill="#912A2D"/>
<path d="M217.322 113.059H223.903C225.422 113.059 226.772 114.409 226.772 115.928V119.471C224.072 117.953 221.71 119.303 219.178 123.015C216.816 121.159 215.635 120.484 214.622 120.821V115.928C214.622 114.409 215.804 113.059 217.322 113.059Z" fill="#B22832"/>
<path d="M219.516 114.915C217.66 114.409 216.31 118.121 219.685 117.783C222.722 117.277 224.747 113.902 220.36 114.746L219.516 114.915Z" fill="#CE2C3F"/>
<path opacity="0.7" d="M195.219 117.11C195.893 116.266 197.075 115.76 198.256 115.76C200.45 115.76 202.137 117.616 202.137 119.641C202.137 120.823 201.631 121.835 200.787 122.679C198.593 122.004 196.568 119.473 195.219 117.11Z" fill="white"/>
<path d="M195.219 117.11C196.4 119.472 198.594 122.003 200.787 122.678C200.112 123.353 199.269 123.691 198.256 123.691C196.062 123.691 194.375 121.835 194.375 119.81C194.375 118.629 194.712 117.785 195.219 117.11Z" fill="#C9C7BC"/>
<path d="M176.656 82.5174C173.618 81.5049 172.775 87.411 175.475 88.9297C180.031 91.2921 179.356 85.386 177.331 83.1923L176.656 82.5174Z" fill="#FFA300"/>
<path d="M176.151 64.2914C172.269 63.6165 173.451 69.185 175.813 70.1975C177.5 71.0412 179.019 70.8725 179.188 68.6788C179.357 66.8226 178.175 65.6414 176.994 64.2914H176.151Z" fill="#FFA300"/>
<path d="M176.151 47.754C172.945 47.2477 171.426 51.1289 173.789 53.66C175.139 55.01 176.995 55.01 178.176 53.3225C179.189 51.6351 178.007 50.4539 177.501 48.9352L176.151 47.754Z" fill="#FFA300"/>
<path d="M176.993 33.2437C176.655 32.9062 175.305 32.5687 174.63 33.2437C172.774 34.4249 174.293 36.6186 175.305 37.7998C179.355 42.0184 179.861 35.7749 177.499 33.4124L176.993 33.2437Z" fill="#FFA300"/>
<g opacity="0.7">
<path opacity="0.7" d="M180.2 34.7609C179.693 33.4109 178.681 32.3985 177.5 32.5672C175.306 32.736 174.462 34.4234 174.969 36.4483C175.137 37.1233 175.475 37.7983 175.981 38.3045C177.5 38.1358 179.018 36.6171 180.2 34.7609Z" fill="white"/>
</g>
<path d="M180.199 34.7607C179.018 36.6169 177.668 38.1356 175.812 38.1356C176.487 38.8106 177.331 39.1481 178.343 38.8106C180.031 38.4731 180.874 37.4607 180.537 35.7732C180.368 35.4357 180.199 35.0982 180.199 34.7607Z" fill="#C9C7BC"/>
<g opacity="0.7">
<path opacity="0.7" d="M179.525 49.9474C179.019 48.5975 178.006 47.585 176.825 47.7538C174.631 47.9225 173.788 49.6099 174.294 51.6349C174.462 52.3098 174.8 52.9848 175.306 53.4911C176.994 53.1536 178.512 51.6349 179.525 49.9474Z" fill="white"/>
</g>
<path d="M179.524 49.9468C178.343 51.803 176.993 53.3217 175.137 53.3217C175.812 53.9966 176.656 54.3341 177.668 53.9967C179.356 53.6592 180.199 52.6467 179.862 50.9593C179.862 50.6218 179.693 50.2843 179.524 49.9468Z" fill="#C9C7BC"/>
<g opacity="0.7">
<path opacity="0.7" d="M179.862 66.654C179.356 65.304 178.344 64.2915 177.162 64.4603C174.969 64.629 174.125 66.3165 174.631 68.3414C174.8 69.0164 175.137 69.6914 175.644 70.1976C177.331 69.8601 178.85 68.3414 179.862 66.654Z" fill="white"/>
</g>
<path d="M179.86 66.6538C178.679 68.51 177.329 70.0287 175.473 70.0287C176.148 70.7037 176.991 71.0412 178.004 70.7037C179.691 70.3662 180.535 69.3537 180.197 67.6663C180.197 67.3288 180.029 66.9913 179.86 66.6538Z" fill="#C9C7BC"/>
<g opacity="0.7">
<path opacity="0.7" d="M180.368 84.3722C179.862 83.0223 178.85 82.0098 177.668 82.1786C175.475 82.3473 174.631 84.0348 175.137 86.0597C175.306 86.7347 175.643 87.4096 176.15 87.9159C177.837 87.7471 179.187 86.2284 180.368 84.3722Z" fill="white"/>
</g>
<path d="M180.369 84.3716C179.188 86.2278 177.838 87.7465 175.982 87.7465C176.657 88.4215 177.501 88.7589 178.513 88.4214C180.201 88.084 181.044 87.0715 180.707 85.384C180.538 85.0465 180.538 84.7091 180.369 84.3716Z" fill="#C9C7BC"/>
<path d="M245.374 156.737C246.633 151.359 252.013 148.02 257.39 149.279L348.917 170.701C354.294 171.959 357.633 177.339 356.375 182.716L321.279 332.664C320.021 338.042 314.641 341.381 309.264 340.122L217.737 318.7C212.36 317.442 209.021 312.062 210.279 306.685L245.374 156.737Z" fill="url(#paint9_linear)"/>
<path d="M290.912 280.368L290.538 266.54L267.955 261.254L261.388 273.457L240.754 268.628L279.767 204.142L304.822 210.006L311.451 285.175L290.912 280.368ZM290.245 250.223L289.92 238.112C289.816 235.413 289.728 231.932 289.656 227.669C289.616 223.414 289.641 220.378 289.732 218.56C289.068 220.11 287.875 222.639 286.151 226.147C284.459 229.662 280.895 236.534 275.459 246.762L290.245 250.223Z" fill="url(#paint10_linear)"/>
<path d="M2.27841 182.711C1.02008 177.334 4.3594 171.954 9.73698 170.696L101.265 149.279C106.642 148.02 112.022 151.36 113.28 156.737L148.368 306.687C149.626 312.064 146.287 317.444 140.909 318.702L49.3813 340.119C44.0037 341.378 38.6243 338.038 37.3659 332.661L2.27841 182.711Z" fill="url(#paint11_linear)"/>
<path d="M97.9474 273.296L91.476 261.07L68.8926 266.355L68.4226 280.205L47.7886 285.033L54.1355 209.932L79.1911 204.069L118.486 268.49L97.9474 273.296ZM83.9729 246.578L78.3076 235.869C77.0169 233.496 75.3935 230.416 73.4373 226.628C71.5128 222.832 70.1881 220.1 69.4633 218.431C69.5563 220.114 69.6087 222.91 69.6207 226.819C69.6644 230.72 69.5197 238.46 69.1867 250.038L83.9729 246.578Z" fill="url(#paint12_linear)"/>
<rect x="121" y="154" width="114" height="174" rx="10" fill="url(#paint13_linear)"/>
<path d="M193.514 274L189.998 260.621H166.805L163.191 274H142L165.291 202.32H191.023L214.607 274H193.514ZM185.994 244.801L182.918 233.082C182.202 230.478 181.323 227.109 180.281 222.975C179.272 218.84 178.605 215.878 178.279 214.088C177.986 215.748 177.4 218.482 176.521 222.291C175.675 226.1 173.771 233.603 170.809 244.801H185.994Z" fill="url(#paint14_linear)"/>
<defs>
<linearGradient id="paint0_linear" x1="225.09" y1="24.3139" x2="226.678" y2="102.888" gradientUnits="userSpaceOnUse">
<stop stop-color="#D91B24"/>
<stop offset="1" stop-color="#393C5A"/>
</linearGradient>
<linearGradient id="paint1_linear" x1="169.627" y1="22.1817" x2="170.132" y2="120.769" gradientUnits="userSpaceOnUse">
<stop stop-color="#D91B24"/>
<stop offset="1" stop-color="#393C5A"/>
</linearGradient>
<linearGradient id="paint2_linear" x1="177.388" y1="82.2802" x2="177.452" y2="98.2083" gradientUnits="userSpaceOnUse">
<stop stop-color="#D91B24"/>
<stop offset="1" stop-color="#393C5A"/>
</linearGradient>
<linearGradient id="paint3_linear" x1="153.384" y1="26.6929" x2="155.153" y2="96.7894" gradientUnits="userSpaceOnUse">
<stop stop-color="#D91B24"/>
<stop offset="1" stop-color="#393C5A"/>
</linearGradient>
<linearGradient id="paint4_linear" x1="201.779" y1="27.6083" x2="203.712" y2="97.0461" gradientUnits="userSpaceOnUse">
<stop stop-color="#D91B24"/>
<stop offset="1" stop-color="#393C5A"/>
</linearGradient>
<linearGradient id="paint5_linear" x1="126.476" y1="24.3386" x2="128.334" y2="102.012" gradientUnits="userSpaceOnUse">
<stop stop-color="#D91B24"/>
<stop offset="1" stop-color="#393C5A"/>
</linearGradient>
<linearGradient id="paint6_linear" x1="178.26" y1="99.2822" x2="178.26" y2="134.152" gradientUnits="userSpaceOnUse">
<stop stop-color="#FFC700"/>
<stop offset="1" stop-color="#FC9517"/>
</linearGradient>
<linearGradient id="paint7_linear" x1="177.922" y1="19.5747" x2="177.922" y2="103.014" gradientUnits="userSpaceOnUse">
<stop stop-color="#FFC700"/>
<stop offset="1" stop-color="#FC9517"/>
</linearGradient>
<linearGradient id="paint8_linear" x1="143.294" y1="27.1685" x2="143.294" y2="94.6663" gradientUnits="userSpaceOnUse">
<stop stop-color="#FFC700"/>
<stop offset="1" stop-color="#FC9517"/>
</linearGradient>
<linearGradient id="paint9_linear" x1="303.153" y1="159.99" x2="263.5" y2="329.411" gradientUnits="userSpaceOnUse">
<stop stop-color="#FFAA2E"/>
<stop offset="1" stop-color="#FC9517"/>
</linearGradient>
<linearGradient id="paint10_linear" x1="300.678" y1="172.762" x2="269.685" y2="305.183" gradientUnits="userSpaceOnUse">
<stop stop-color="#FFC700"/>
<stop offset="1" stop-color="#FF4070"/>
</linearGradient>
<linearGradient id="paint11_linear" x1="55.5008" y1="159.987" x2="95.1452" y2="329.411" gradientUnits="userSpaceOnUse">
<stop stop-color="#FFAA2E"/>
<stop offset="1" stop-color="#FC9517"/>
</linearGradient>
<linearGradient id="paint12_linear" x1="58.9495" y1="172.531" x2="89.9359" y2="304.954" gradientUnits="userSpaceOnUse">
<stop stop-color="#FFC700"/>
<stop offset="1" stop-color="#FF4070"/>
</linearGradient>
<linearGradient id="paint13_linear" x1="178" y1="154" x2="178" y2="328" gradientUnits="userSpaceOnUse">
<stop stop-color="#FFC700"/>
<stop offset="1" stop-color="#FC9517"/>
</linearGradient>
<linearGradient id="paint14_linear" x1="178.5" y1="167" x2="178.5" y2="303" gradientUnits="userSpaceOnUse">
<stop stop-color="#FFC700"/>
<stop offset="1" stop-color="#FF4070"/>
</linearGradient>
</defs>
</svg>
