<svg width="218" height="218" viewBox="0 0 218 218" fill="none" xmlns="http://www.w3.org/2000/svg">
<path d="M218 109C218 102.747 215.296 97.0016 211.071 92.9458C208.874 90.7489 208.198 87.369 209.381 84.6651C211.747 79.2574 212.085 73.0046 209.719 67.2589C207.354 61.6822 202.96 57.2884 197.383 55.2605C194.51 54.0775 192.482 51.3736 192.482 48.3318C192.651 42.586 190.454 36.6713 186.06 32.1085C182.005 28.0527 176.428 25.6868 170.513 25.6868C170.344 25.6868 170.175 25.6868 170.006 25.6868C166.795 25.6868 163.753 23.9969 162.74 20.955C160.712 15.5473 156.487 10.8155 150.572 8.44961C147.868 7.43566 145.164 6.75969 142.291 6.75969C139.081 6.75969 136.039 7.43566 133.335 8.6186C130.462 9.97054 127.251 9.29457 125.054 6.92868C120.998 2.70387 115.422 0 109.169 0C102.916 0 97.1705 2.70387 93.1147 6.92868C90.9178 9.29457 87.707 9.97054 84.8341 8.6186C81.9612 7.26666 78.9194 6.5907 75.7085 6.5907C71.3147 6.5907 67.0899 7.94264 63.2031 10.4775C61.3442 11.6605 59.6543 13.1814 58.4713 15.0403C57.1194 16.7302 56.1054 18.5891 55.4295 20.4481C54.2465 23.4899 51.3736 25.3488 48.1628 25.3488C47.9938 25.3488 47.8248 25.3488 47.6558 25.3488C41.7411 25.3488 36.3333 27.5457 32.1085 31.7705C27.7147 36.1643 25.5178 42.2481 25.6868 47.9938C25.8558 51.2047 23.8279 53.9085 20.786 55.0915C15.2093 57.1194 10.6465 61.5132 8.28062 67.2589C5.91472 73.0046 6.25271 79.2574 8.6186 84.4961C9.80155 87.369 9.29457 90.7488 6.92868 92.7767C2.70387 96.8326 0 102.409 0 108.662C0 114.915 2.70387 120.66 6.92868 124.716C9.12558 126.913 9.80155 130.293 8.6186 132.997C6.25271 138.405 5.91472 144.657 8.28062 150.403C10.6465 155.98 15.0403 160.374 20.6171 162.402C23.4899 163.585 25.5178 166.288 25.5178 169.33C25.3488 175.076 27.5457 180.991 31.9395 185.553C35.9953 189.609 41.5721 191.975 47.3178 191.975C47.4868 191.975 47.6558 191.975 47.8248 191.975C51.0357 191.975 54.0775 193.665 55.0915 196.707C57.1194 202.115 61.3442 206.847 67.2589 209.212C69.9628 210.395 72.6667 210.902 75.5395 210.902C78.7504 210.902 81.7922 210.226 84.4961 209.043C87.369 207.691 90.5798 208.367 92.7767 210.733C96.8326 214.958 102.409 217.662 108.662 217.662C114.915 217.662 120.66 214.958 124.716 210.733C126.913 208.367 130.124 207.691 132.997 209.043C135.87 210.395 138.912 211.071 142.122 211.071C144.995 211.071 147.868 210.564 150.572 209.381C156.318 207.016 160.543 202.453 162.571 197.045C163.753 194.003 166.795 192.313 170.006 192.313C170.175 192.313 170.175 192.313 170.344 192.313C176.259 192.313 181.667 190.116 185.891 185.891C190.285 181.498 192.482 175.414 192.313 169.668C192.144 166.457 194.172 163.754 197.214 162.571C202.791 160.543 207.354 156.149 209.719 150.403C212.085 144.657 211.747 138.405 209.381 133.166C208.198 130.293 208.705 126.913 211.071 124.885C215.296 120.829 218 115.084 218 109Z" fill="url(#paint0_linear)"/>
<path d="M109.169 204.143C161.714 204.143 204.311 161.546 204.311 109C204.311 56.4542 161.714 13.8574 109.169 13.8574C56.6227 13.8574 14.0259 56.4542 14.0259 109C14.0259 161.546 56.6227 204.143 109.169 204.143Z" fill="url(#paint1_linear)"/>
<path d="M109.168 190.623C154.248 190.623 190.792 154.079 190.792 109C190.792 63.9209 154.248 27.377 109.168 27.377C64.0891 27.377 27.5452 63.9209 27.5452 109C27.5452 154.079 64.0891 190.623 109.168 190.623Z" fill="#FFAA2E"/>
<path d="M45.4581 170.006C44.7822 170.682 44.7822 172.034 45.4581 172.71C45.7961 173.048 46.3031 173.217 46.8101 173.217C47.3171 173.217 47.824 173.048 48.162 172.71C48.838 172.034 48.838 170.682 48.162 170.006C47.4861 169.33 46.3031 169.33 45.4581 170.006Z" fill="white"/>
<path d="M52.2195 43.4305C52.7265 43.4305 53.0645 43.2615 53.4024 42.9235C54.2474 42.2475 54.2474 41.0646 53.5714 40.2196C52.8955 39.3746 51.7125 39.3746 50.8675 40.0506C50.0226 40.7266 50.0226 41.9095 50.6986 42.7545C51.2055 43.2614 51.7125 43.4305 52.2195 43.4305Z" fill="white"/>
<path d="M51.0353 175.413C50.3593 176.258 50.5283 177.441 51.2043 178.117C51.5423 178.455 52.0493 178.624 52.3872 178.624C52.8942 178.624 53.5702 178.455 53.9082 177.948C54.5841 177.103 54.4151 175.92 53.7392 175.244C52.8942 174.4 51.7113 174.569 51.0353 175.413Z" fill="white"/>
<path d="M46.6416 48.669C47.1486 48.669 47.6556 48.5 47.9936 48.162C48.6695 47.4861 48.6695 46.1341 47.9936 45.4581C47.3176 44.7822 45.9657 44.7822 45.2897 45.4581C44.6137 46.1341 44.6137 47.4861 45.2897 48.162C45.6277 48.5 46.1347 48.669 46.6416 48.669Z" fill="white"/>
<path d="M40.3893 164.26C39.5443 164.936 39.5443 166.119 40.2203 166.964C40.5583 167.471 41.0652 167.64 41.7412 167.64C42.2482 167.64 42.5862 167.471 42.9242 167.133C43.7691 166.457 43.7691 165.274 43.0932 164.429C42.4172 163.584 41.2342 163.584 40.3893 164.26Z" fill="white"/>
<path d="M35.8268 158.008C34.9819 158.684 34.8129 159.867 35.3198 160.712C35.6578 161.219 36.3338 161.557 36.8408 161.557C37.1788 161.557 37.6857 161.388 38.0237 161.219C38.8687 160.543 39.0377 159.36 38.5307 158.515C37.8547 157.67 36.6718 157.501 35.8268 158.008Z" fill="white"/>
<path d="M58.3032 38.6988C58.6412 38.6988 59.1481 38.5298 59.4861 38.3608C60.3311 37.6848 60.5001 36.5019 59.9931 35.6569C59.3171 34.8119 58.1342 34.6429 57.2892 35.1499C56.4443 35.8259 56.2753 37.0088 56.7822 37.8538C57.1202 38.3608 57.7962 38.6988 58.3032 38.6988Z" fill="white"/>
<path d="M41.4029 54.2472C41.9098 54.2472 42.5858 54.0782 42.9238 53.5712C43.5998 52.7263 43.4308 51.5433 42.7548 50.8673C41.9098 50.1914 40.7269 50.3604 40.0509 51.0363C39.375 51.8813 39.5439 53.0642 40.2199 53.7402C40.5579 54.2472 40.8959 54.2472 41.4029 54.2472Z" fill="white"/>
<path d="M36.6716 60.4997C37.3476 60.4997 37.8545 60.1617 38.1925 59.6548C38.8685 58.8098 38.5305 57.6269 37.6855 56.9509C36.8406 56.2749 35.6576 56.6129 34.9817 57.4579C34.3057 58.3028 34.6437 59.4858 35.4886 60.1617C35.9956 60.3307 36.3336 60.4997 36.6716 60.4997Z" fill="white"/>
<path d="M78.7508 28.0526C78.9198 28.0526 79.2578 28.0526 79.4268 27.8836C80.4407 27.5456 80.9477 26.3627 80.6097 25.3487C80.2717 24.3348 79.0888 23.8278 78.0748 24.1658C77.0609 24.5038 76.5539 25.6867 76.8919 26.7007C77.2299 27.5456 77.9058 28.0526 78.7508 28.0526Z" fill="white"/>
<path d="M72.8363 187.244C71.8223 186.737 70.6394 187.244 70.3014 188.089C69.7944 189.103 70.3014 190.286 71.1464 190.624C71.4843 190.793 71.6533 190.793 71.9913 190.793C72.6673 190.793 73.3433 190.286 73.6812 189.61C74.1882 188.765 73.6812 187.582 72.8363 187.244Z" fill="white"/>
<path d="M57.1186 180.145C56.4427 180.99 56.7806 182.173 57.6256 182.849C57.9636 183.018 58.3016 183.187 58.8086 183.187C59.4845 183.187 59.9915 182.849 60.3295 182.342C61.0055 181.497 60.6675 180.314 59.8225 179.638C58.8085 179.131 57.6256 179.3 57.1186 180.145Z" fill="white"/>
<path d="M86.0169 25.6871C86.1859 25.6871 86.3549 25.6871 86.5239 25.6871C87.5378 25.3491 88.2138 24.3352 87.8758 23.3212C87.5378 22.3073 86.5239 21.6313 85.5099 21.9693C84.496 22.3073 83.82 23.3212 84.158 24.3352C84.327 25.1801 85.1719 25.6871 86.0169 25.6871Z" fill="white"/>
<path d="M79.7651 190.116C78.7512 189.778 77.7372 190.285 77.2303 191.299C76.8923 192.313 77.3992 193.327 78.4132 193.834C78.5822 193.834 78.9202 194.003 79.0892 194.003C79.9341 194.003 80.6101 193.496 80.9481 192.651C81.2861 191.468 80.7791 190.454 79.7651 190.116Z" fill="white"/>
<path d="M64.724 34.6435C65.062 34.6435 65.4 34.4745 65.738 34.3055C66.5829 33.7986 66.9209 32.6156 66.4139 31.6017C65.907 30.7567 64.724 30.4187 63.7101 30.9257C62.8651 31.4327 62.5271 32.6156 63.0341 33.6296C63.5411 34.1366 64.217 34.6435 64.724 34.6435Z" fill="white"/>
<path d="M66.0764 183.694C65.2314 183.187 64.0484 183.525 63.3725 184.37C62.8655 185.215 63.2035 186.398 64.0484 187.074C64.3864 187.243 64.7244 187.243 65.0624 187.243C65.7384 187.243 66.4143 186.905 66.7523 186.229C67.2593 185.384 66.9213 184.201 66.0764 183.694Z" fill="white"/>
<path d="M71.6523 30.9258C71.9903 30.9258 72.1593 30.9258 72.4973 30.7568C73.5113 30.2498 73.8492 29.2359 73.3423 28.2219C72.8353 27.208 71.6523 26.87 70.8074 27.377C69.7934 27.8839 69.4554 28.8979 69.9624 29.9118C70.1314 30.5878 70.9764 30.9258 71.6523 30.9258Z" fill="white"/>
<path d="M25.8556 131.476C25.5176 130.463 24.5036 129.787 23.4897 130.125C22.4757 130.463 21.7997 131.476 22.1377 132.49C22.3067 133.335 23.1517 133.842 23.9966 133.842C24.1656 133.842 24.3346 133.842 24.5036 133.842C25.5176 133.504 26.0245 132.49 25.8556 131.476Z" fill="white"/>
<path d="M23.3212 88.213C23.4902 88.213 23.6592 88.213 23.8282 88.213C24.6731 88.213 25.5181 87.706 25.6871 86.6921C26.0251 85.6781 25.3491 84.6642 24.3352 84.3262C23.3212 83.9882 22.3073 84.6642 21.9693 85.6781C21.6313 86.8611 22.3073 87.875 23.3212 88.213Z" fill="white"/>
<path d="M31.6017 66.5824C31.9397 66.7514 32.2776 66.9204 32.6156 66.9204C33.2916 66.9204 33.9676 66.5824 34.3055 65.9064C34.8125 65.0615 34.4745 63.8785 33.6296 63.2026C32.7846 62.6956 31.6017 63.0336 30.9257 63.8785C30.4187 64.8925 30.7567 66.0754 31.6017 66.5824Z" fill="white"/>
<path d="M187.244 72.1599C187.582 72.8358 188.258 73.3428 188.934 73.3428C189.272 73.3428 189.441 73.3428 189.779 73.1738C190.793 72.6668 191.131 71.6529 190.624 70.6389C190.117 69.625 189.103 69.287 188.089 69.794C187.244 69.9629 186.737 71.1459 187.244 72.1599Z" fill="white"/>
<path d="M25.5174 80.7782C25.6864 80.7782 26.0244 80.9472 26.1934 80.9472C27.0384 80.9472 27.7143 80.4402 28.0523 79.5952C28.3903 78.5813 27.8833 77.5673 26.8694 77.0603C25.8554 76.7223 24.8415 77.2293 24.3345 78.2433C23.9965 79.2572 24.5035 80.4402 25.5174 80.7782Z" fill="white"/>
<path d="M28.2219 73.5119C28.3909 73.6809 28.7289 73.6808 29.0669 73.6808C29.7429 73.6808 30.4188 73.3429 30.7568 72.4979C31.2638 71.4839 30.7568 70.301 29.9118 69.963C28.8979 69.456 27.7149 69.963 27.377 70.808C26.87 71.9909 27.208 73.1739 28.2219 73.5119Z" fill="white"/>
<path d="M190.116 79.0884C190.454 79.9333 191.13 80.4403 191.975 80.4403C192.144 80.4403 192.482 80.4403 192.651 80.2713C193.665 79.9334 194.172 78.7504 193.834 77.7365C193.496 76.7225 192.313 76.2155 191.299 76.5535C190.285 76.8915 189.778 78.0744 190.116 79.0884Z" fill="white"/>
<path d="M195.017 101.057C195.186 102.071 196.031 102.747 196.876 102.747H197.045C198.059 102.578 198.904 101.733 198.735 100.719C198.735 99.7049 197.721 98.86 196.707 99.029C195.693 99.029 195.017 100.043 195.017 101.057Z" fill="white"/>
<path d="M31.7701 151.586C30.9252 152.093 30.5872 153.276 31.0942 154.29C31.4321 154.966 32.1081 155.304 32.7841 155.304C33.1221 155.304 33.4601 155.304 33.798 154.966C34.643 154.459 34.981 153.276 34.474 152.262C33.967 151.248 32.7841 150.91 31.7701 151.586Z" fill="white"/>
<path d="M192.482 86.1858C192.651 87.0307 193.496 87.5377 194.341 87.5377C194.51 87.5377 194.679 87.5377 194.848 87.5377C195.862 87.1997 196.538 86.1857 196.2 85.1718C195.862 84.1578 194.848 83.4819 193.834 83.8199C192.82 84.1578 192.144 85.1718 192.482 86.1858Z" fill="white"/>
<path d="M194.004 93.6222C194.173 94.4672 195.018 95.1431 195.863 95.1431C196.032 95.1431 196.032 95.1431 196.201 95.1431C197.215 94.9741 197.891 93.9602 197.722 92.9462C197.553 91.9323 196.539 91.2563 195.525 91.4253C194.511 91.5943 193.835 92.4393 194.004 93.6222Z" fill="white"/>
<path d="M28.0523 138.573C27.7143 137.559 26.5314 137.052 25.5174 137.39C24.5035 137.728 23.9965 138.911 24.3345 139.925C24.6725 140.77 25.3485 141.108 26.1934 141.108C26.3624 141.108 26.7004 141.108 26.8694 140.939C27.8833 140.77 28.3903 139.587 28.0523 138.573Z" fill="white"/>
<path d="M22.6454 126.237C23.6593 126.068 24.3353 125.054 24.1663 124.04C23.9973 123.026 22.9834 122.35 21.9694 122.519C20.9555 122.688 20.2795 123.702 20.4485 124.716C20.6175 125.561 21.4624 126.237 22.3074 126.237C22.3074 126.406 22.4764 126.406 22.6454 126.237Z" fill="white"/>
<path d="M86.8623 192.314C85.8483 191.976 84.8344 192.651 84.4964 193.665C84.1584 194.679 84.8344 195.693 85.8483 196.031C86.0173 196.031 86.1863 196.031 86.3553 196.031C87.2003 196.031 88.0452 195.524 88.2142 194.679C88.5522 193.665 87.8762 192.651 86.8623 192.314Z" fill="white"/>
<path d="M21.7997 95.65C21.9687 95.65 21.9687 95.65 22.1377 95.65C22.9827 95.65 23.8276 94.974 23.9966 94.129C24.1656 93.1151 23.4897 92.1011 22.4757 91.9321C21.4618 91.7631 20.4478 92.4391 20.2788 93.4531C20.1098 94.467 20.7858 95.481 21.7997 95.65Z" fill="white"/>
<path d="M30.9253 145.502C30.4183 144.488 29.4043 144.15 28.3904 144.488C27.3764 144.995 27.0384 146.178 27.5454 147.022C27.8834 147.698 28.5594 148.205 29.2353 148.205C29.5733 148.205 29.7423 148.205 30.0803 148.036C30.9253 147.698 31.4322 146.515 30.9253 145.502Z" fill="white"/>
<path d="M21.4624 118.633C22.4763 118.464 23.3213 117.619 23.1523 116.605C22.9833 115.591 22.1384 114.746 21.1244 114.915C20.1105 115.084 19.2655 115.929 19.4345 116.943C19.6035 117.957 20.4484 118.633 21.2934 118.633C21.2934 118.633 21.2934 118.633 21.4624 118.633Z" fill="white"/>
<path d="M21.1233 103.424H21.2923C22.3063 103.424 23.1512 102.748 23.1512 101.734C23.3202 100.72 22.4753 99.7057 21.4613 99.7057C20.4474 99.5367 19.4334 100.382 19.4334 101.396C19.2644 102.41 19.9404 103.255 21.1233 103.424Z" fill="white"/>
<path d="M20.9549 111.028C21.9689 111.028 22.8138 110.183 22.8138 109.169C22.8138 108.155 21.9689 107.311 20.9549 107.311C19.941 107.311 19.096 108.156 19.096 109.338C18.927 110.183 19.772 111.028 20.9549 111.028Z" fill="white"/>
<path d="M93.6226 23.9966C93.7916 23.9966 93.7916 23.9966 93.9606 23.9966C94.9745 23.8277 95.6505 22.8137 95.4815 21.7997C95.3125 20.7858 94.2986 20.1098 93.2846 20.2788C92.2707 20.4478 91.5947 21.4618 91.7637 22.4757C91.7637 23.3207 92.6086 23.9966 93.6226 23.9966Z" fill="white"/>
<path d="M179.808 158.346C179.132 159.191 179.47 160.374 180.315 161.05C180.653 161.219 180.991 161.388 181.498 161.388C182.174 161.388 182.681 161.05 183.019 160.543C183.695 159.698 183.357 158.515 182.512 157.839C181.667 157.332 180.484 157.501 179.808 158.346Z" fill="white"/>
<path d="M170.176 169.838C169.5 170.514 169.5 171.865 170.176 172.541C170.514 172.879 171.021 173.048 171.528 173.048C172.035 173.048 172.542 172.879 172.88 172.541C173.556 171.865 173.556 170.514 172.88 169.838C172.204 169.162 171.021 169.162 170.176 169.838Z" fill="white"/>
<path d="M176.597 53.9085C177.104 53.9085 177.442 53.7395 177.78 53.4015C178.625 52.7255 178.625 51.5426 177.949 50.6976C177.273 49.8527 176.09 49.8527 175.245 50.5286C174.4 51.2046 174.4 52.3876 175.076 53.2325C175.414 53.7395 175.921 53.9085 176.597 53.9085Z" fill="white"/>
<path d="M179.638 59.1478C179.976 59.6547 180.652 59.9927 181.159 59.9927C181.497 59.9927 182.004 59.8237 182.342 59.6547C183.187 58.9787 183.356 57.7958 182.849 56.9508C182.173 56.1059 180.99 55.9369 180.145 56.4439C179.3 57.1198 178.962 58.3028 179.638 59.1478Z" fill="white"/>
<path d="M158.684 179.638C157.84 180.314 157.671 181.497 158.178 182.342C158.515 182.849 159.191 183.187 159.698 183.187C160.036 183.187 160.543 183.018 160.881 182.849C161.726 182.173 161.895 180.99 161.388 180.145C160.712 179.131 159.529 178.962 158.684 179.638Z" fill="white"/>
<path d="M165.613 43.0924C166.12 43.0924 166.796 42.9234 167.134 42.4164C167.809 41.5715 167.64 40.3885 166.965 39.7126C166.12 39.0366 164.937 39.2056 164.261 39.8815C163.585 40.7265 163.754 41.9094 164.43 42.5854C164.768 42.9234 165.106 43.0924 165.613 43.0924Z" fill="white"/>
<path d="M171.358 48.1622C171.865 48.1622 172.372 47.9932 172.71 47.6552C173.386 46.9792 173.386 45.6273 172.71 44.9513C172.034 44.2753 170.682 44.2753 170.006 44.9513C169.33 45.6273 169.33 46.9792 170.006 47.6552C170.344 47.9932 170.851 48.1622 171.358 48.1622Z" fill="white"/>
<path d="M164.599 175.076C163.754 175.752 163.754 176.935 164.43 177.78C164.768 178.287 165.275 178.456 165.951 178.456C166.458 178.456 166.796 178.287 167.134 177.949C167.979 177.273 167.979 176.09 167.303 175.245C166.627 174.4 165.444 174.4 164.599 175.076Z" fill="white"/>
<path d="M175.245 164.429C174.569 165.274 174.738 166.457 175.414 167.133C175.752 167.471 176.259 167.64 176.597 167.64C177.104 167.64 177.611 167.471 178.118 166.964C178.794 166.119 178.625 164.936 177.949 164.26C177.104 163.415 175.921 163.584 175.245 164.429Z" fill="white"/>
<path d="M196.369 122.351C195.356 122.182 194.342 122.858 194.173 123.872C194.004 124.885 194.68 125.899 195.694 126.068C195.863 126.068 195.863 126.068 196.032 126.068C196.876 126.068 197.721 125.392 197.89 124.547C198.059 123.534 197.383 122.52 196.369 122.351Z" fill="white"/>
<path d="M197.214 114.745C196.2 114.576 195.186 115.421 195.186 116.435C195.017 117.449 195.862 118.463 196.876 118.463H197.045C198.059 118.463 198.904 117.618 198.904 116.604C199.073 115.759 198.228 114.745 197.214 114.745Z" fill="white"/>
<path d="M199.241 108.493C199.241 107.479 198.396 106.634 197.213 106.634C196.199 106.634 195.354 107.479 195.354 108.493V108.662V108.831C195.354 109.845 196.199 110.69 197.213 110.69C198.227 110.69 199.072 109.845 199.072 108.831V108.662C199.241 108.662 199.241 108.662 199.241 108.493Z" fill="white"/>
<path d="M194.848 129.787C193.834 129.449 192.82 130.125 192.482 131.139C192.144 132.153 192.82 133.167 193.834 133.504C194.003 133.504 194.172 133.504 194.341 133.504C195.186 133.504 196.031 132.998 196.2 132.153C196.538 131.139 195.862 130.125 194.848 129.787Z" fill="white"/>
<path d="M192.651 137.222C191.637 136.884 190.623 137.391 190.116 138.405C189.778 139.419 190.285 140.433 191.299 140.94C191.468 140.94 191.806 141.109 191.975 141.109C192.82 141.109 193.496 140.602 193.834 139.757C194.172 138.743 193.665 137.56 192.651 137.222Z" fill="white"/>
<path d="M186.568 151.417C185.723 150.91 184.54 151.248 183.864 152.093C183.357 152.938 183.695 154.121 184.54 154.797C184.878 154.966 185.216 154.966 185.554 154.966C186.23 154.966 186.906 154.628 187.244 153.952C187.751 153.107 187.413 151.924 186.568 151.417Z" fill="white"/>
<path d="M189.948 144.488C188.934 143.981 187.92 144.488 187.413 145.333C186.906 146.347 187.413 147.53 188.258 147.868C188.427 148.037 188.765 148.037 189.103 148.037C189.779 148.037 190.455 147.699 190.793 146.854C191.3 146.009 190.962 144.826 189.948 144.488Z" fill="white"/>
<path d="M185.384 66.4135C185.722 66.4135 186.06 66.2446 186.398 66.0756C187.243 65.5686 187.581 64.3857 187.074 63.3717C186.567 62.5267 185.384 62.1887 184.37 62.6957C183.525 63.2027 183.187 64.3856 183.694 65.3996C184.032 66.0756 184.708 66.4135 185.384 66.4135Z" fill="white"/>
<path d="M116.773 194.848C115.759 195.017 114.914 195.862 115.083 196.876C115.252 197.89 116.097 198.566 116.942 198.566H117.111C118.125 198.566 118.97 197.552 118.801 196.538C118.801 195.524 117.787 194.848 116.773 194.848Z" fill="white"/>
<path d="M94.2975 194.004C93.2835 193.835 92.2696 194.511 92.1006 195.525C91.9316 196.539 92.6076 197.553 93.6215 197.722C93.7905 197.722 93.7905 197.722 93.9595 197.722C94.8045 197.722 95.6494 197.046 95.8184 196.201C95.9874 195.187 95.3114 194.173 94.2975 194.004Z" fill="white"/>
<path d="M116.435 22.9826C117.618 22.9826 118.463 22.3067 118.463 21.2927C118.632 20.2788 117.787 19.2648 116.773 19.2648C115.759 19.0958 114.745 19.9408 114.745 20.9547C114.576 21.9687 115.252 22.8136 116.435 22.9826Z" fill="white"/>
<path d="M124.21 193.834C123.196 194.003 122.52 195.017 122.689 196.031C122.858 197.045 123.703 197.552 124.548 197.552C124.717 197.552 124.717 197.552 124.886 197.552C125.9 197.383 126.576 196.369 126.407 195.355C126.238 194.341 125.224 193.665 124.21 193.834Z" fill="white"/>
<path d="M109.169 195.186C108.155 195.186 107.31 196.03 107.31 197.044C107.31 198.058 108.155 198.903 109.169 198.903C110.183 198.903 111.028 198.058 111.028 197.044C111.197 196.03 110.352 195.186 109.169 195.186Z" fill="white"/>
<path d="M124.209 23.8282C125.054 23.8282 125.899 23.1522 126.068 22.3073C126.237 21.2933 125.561 20.2793 124.547 20.1104C123.534 19.9414 122.52 20.6173 122.351 21.6313C122.182 22.6452 122.858 23.6592 123.872 23.8282C124.041 23.8282 124.041 23.8282 124.209 23.8282Z" fill="white"/>
<path d="M108.831 22.6456C109.845 22.6456 110.69 21.8006 110.69 20.7866C110.69 19.7727 109.845 18.9277 108.831 18.9277C107.817 18.9277 106.972 19.7727 106.972 20.7866C106.972 21.8006 107.817 22.6456 108.831 22.6456Z" fill="white"/>
<path d="M101.226 22.9826H101.395C102.409 22.8136 103.254 21.9687 103.085 20.9547C102.916 19.9408 102.071 19.0958 101.057 19.2648C100.043 19.2648 99.1984 20.2788 99.3673 21.2927C99.3673 22.3067 100.212 22.9826 101.226 22.9826Z" fill="white"/>
<path d="M101.734 194.848C100.72 194.679 99.7057 195.524 99.7057 196.538C99.5367 197.552 100.382 198.566 101.396 198.566H101.565C102.579 198.566 103.424 197.721 103.424 196.707C103.593 195.862 102.748 195.017 101.734 194.848Z" fill="white"/>
<path d="M131.477 192.314C130.463 192.651 129.787 193.665 130.125 194.679C130.294 195.524 131.139 196.031 131.984 196.031C132.153 196.031 132.322 196.031 132.491 196.031C133.505 195.693 134.181 194.679 133.843 193.665C133.674 192.651 132.66 191.976 131.477 192.314Z" fill="white"/>
<path d="M152.092 33.9677C152.43 34.1367 152.768 34.1367 153.106 34.1367C153.782 34.1367 154.458 33.7987 154.796 33.1227C155.303 32.2778 154.965 31.0948 154.12 30.4189C153.275 29.9119 152.092 30.2499 151.416 31.0948C150.74 32.2778 151.078 33.4607 152.092 33.9677Z" fill="white"/>
<path d="M145.672 187.075C144.658 187.581 144.32 188.595 144.658 189.609C144.996 190.285 145.672 190.792 146.348 190.792C146.686 190.792 146.855 190.792 147.193 190.623C148.207 190.116 148.545 189.102 148.038 188.088C147.7 187.074 146.686 186.737 145.672 187.075Z" fill="white"/>
<path d="M145.333 30.5871C145.502 30.7561 145.84 30.7561 146.178 30.7561C146.854 30.7561 147.53 30.4181 147.868 29.5731C148.375 28.5592 147.868 27.5452 147.023 27.0382C146.009 26.5313 144.826 27.0382 144.488 28.0522C143.981 28.8972 144.319 30.0801 145.333 30.5871Z" fill="white"/>
<path d="M152.261 183.695C151.416 184.202 151.078 185.385 151.585 186.399C151.923 187.075 152.599 187.413 153.275 187.413C153.613 187.413 153.951 187.413 154.289 187.244C155.134 186.737 155.472 185.554 154.965 184.54C154.458 183.357 153.275 183.188 152.261 183.695Z" fill="white"/>
<path d="M131.138 25.5172C131.307 25.5172 131.476 25.5172 131.645 25.5172C132.49 25.5172 133.335 25.0102 133.504 24.1652C133.842 23.1513 133.166 22.1373 132.152 21.7993C131.138 21.4614 130.124 22.1373 129.786 23.1513C129.617 24.1652 130.124 25.1792 131.138 25.5172Z" fill="white"/>
<path d="M138.742 189.947C137.728 190.285 137.221 191.467 137.559 192.481C137.897 193.326 138.573 193.833 139.418 193.833C139.587 193.833 139.925 193.833 140.094 193.664C141.108 193.326 141.615 192.143 141.277 191.13C140.77 190.116 139.756 189.609 138.742 189.947Z" fill="white"/>
<path d="M159.529 38.3606C160.205 38.3606 160.712 38.0226 161.05 37.5156C161.726 36.6707 161.388 35.4877 160.543 34.8117C159.698 34.1358 158.516 34.4738 157.84 35.3187C157.164 36.1637 157.502 37.3466 158.347 38.0226C158.685 38.3606 159.192 38.3606 159.529 38.3606Z" fill="white"/>
<path d="M138.405 27.7152C138.574 27.7152 138.912 27.8842 139.081 27.8842C139.926 27.8842 140.602 27.3772 140.94 26.5322C141.278 25.5183 140.771 24.3353 139.757 23.9973C138.743 23.6594 137.56 24.1663 137.222 25.1803C136.884 26.1942 137.391 27.3772 138.405 27.7152Z" fill="white"/>
<path d="M109.17 33.46C67.5976 33.46 33.6301 67.2584 33.6301 109C33.6301 150.572 67.4286 184.539 109.17 184.539C150.742 184.539 184.709 150.741 184.709 109C184.54 67.2584 150.742 33.46 109.17 33.46ZM109.17 182.511C68.6115 182.511 35.658 149.558 35.658 109C35.658 68.4414 68.6115 35.4879 109.17 35.4879C149.728 35.4879 182.681 68.4414 182.681 109C182.681 149.389 149.728 182.511 109.17 182.511Z" fill="url(#paint2_linear)"/>
<path d="M176.935 106.972C175.921 106.972 175.076 107.817 175.076 108.831C175.076 145.164 145.502 174.738 109.169 174.738C80.2711 174.738 54.4152 155.473 46.1346 127.927C45.7966 126.913 44.7827 126.406 43.7687 126.575C42.7548 126.913 42.2478 127.927 42.4168 128.941C51.2044 158.177 78.5811 178.625 109.169 178.625C147.53 178.625 178.963 147.361 178.963 108.831C178.794 107.817 177.949 106.972 176.935 106.972Z" fill="url(#paint3_linear)"/>
<path d="M44.1066 89.5662C44.2756 89.5662 44.4445 89.7352 44.7825 89.7352C45.6275 89.7352 46.3035 89.2282 46.6414 88.3833C55.598 61.3445 80.7779 43.0934 109.169 43.0934C129.955 43.0934 149.727 53.0639 162.232 69.7941C162.908 70.6391 164.091 70.8081 164.936 70.1321C165.781 69.4562 165.95 68.2732 165.274 67.4282C152.093 49.6841 131.138 39.2065 109.169 39.2065C78.919 39.2065 52.3872 58.4717 42.9236 87.0314C42.5856 88.0453 43.0926 89.2283 44.1066 89.5662Z" fill="url(#paint4_linear)"/>
<path d="M86.5586 99.2393C90.0449 99.2393 93.1854 100.056 95.98 101.688C98.8022 103.293 100.988 105.576 102.538 108.536C104.115 111.497 104.903 114.914 104.903 118.788C104.903 125.567 102.856 130.768 98.7607 134.393C94.6934 138.018 88.5231 139.83 80.25 139.83C73.1667 139.83 67.3838 138.737 62.9014 136.551V123.104C65.3086 124.211 68.0202 125.124 71.0361 125.843C74.0798 126.563 76.6945 126.922 78.8804 126.922C81.924 126.922 84.262 126.286 85.8945 125.013C87.527 123.713 88.3433 121.804 88.3433 119.286C88.3433 116.961 87.5132 115.149 85.853 113.849C84.1929 112.548 81.675 111.898 78.2993 111.898C75.7261 111.898 72.9453 112.382 69.957 113.351L63.939 110.362L66.2217 78.3213H100.836V91.9761H80.167L79.4199 99.9863C81.5781 99.5713 83.1138 99.3499 84.0269 99.3223C84.9399 99.2669 85.7839 99.2393 86.5586 99.2393ZM162.951 139H144.44L132.445 115.799L127.589 118.705V139H111.112V78.3213H127.589V104.676C128.419 103.044 130.093 100.457 132.611 96.915L145.353 78.3213H163.283L144.149 105.506L162.951 139Z" fill="url(#paint5_linear)"/>
<defs>
<linearGradient id="paint0_linear" x1="109" y1="0" x2="109" y2="217.662" gradientUnits="userSpaceOnUse">
<stop stop-color="#FFC700"/>
<stop offset="1" stop-color="#FF4070"/>
</linearGradient>
<linearGradient id="paint1_linear" x1="96.7417" y1="-13.0544" x2="99.025" y2="231.044" gradientUnits="userSpaceOnUse">
<stop stop-color="#D91B24"/>
<stop offset="1" stop-color="#393C5A"/>
</linearGradient>
<linearGradient id="paint2_linear" x1="99.3033" y1="12.0931" x2="101.116" y2="205.898" gradientUnits="userSpaceOnUse">
<stop stop-color="#D91B24"/>
<stop offset="1" stop-color="#393C5A"/>
</linearGradient>
<linearGradient id="paint3_linear" x1="101.754" y1="96.8384" x2="102.205" y2="188.761" gradientUnits="userSpaceOnUse">
<stop stop-color="#D91B24"/>
<stop offset="1" stop-color="#393C5A"/>
</linearGradient>
<linearGradient id="paint4_linear" x1="96.231" y1="32.0603" x2="96.4803" y2="96.8833" gradientUnits="userSpaceOnUse">
<stop stop-color="#D91B24"/>
<stop offset="1" stop-color="#393C5A"/>
</linearGradient>
<linearGradient id="paint5_linear" x1="104.208" y1="31.5943" x2="105.761" y2="180.396" gradientUnits="userSpaceOnUse">
<stop stop-color="#D91B24"/>
<stop offset="1" stop-color="#393C5A"/>
</linearGradient>
</defs>
</svg>
