<svg width="298" height="393" viewBox="0 0 298 393" fill="none" xmlns="http://www.w3.org/2000/svg">
<path d="M148.888 16.6434V5.27431H145.723V3.98503H148.888V0H150.763V3.98503H153.928V5.39151H150.763V16.6434H148.888Z" fill="#96BCBB"/>
<path d="M149.826 10.6655C145.724 10.6655 142.325 14.0645 142.325 18.1668C142.325 19.6905 142.794 20.9797 143.497 22.1518C143.732 22.0346 143.966 21.8002 144.318 21.683C146.896 20.5109 147.951 22.5034 150.295 22.9722C152.522 23.4411 154.397 21.8002 156.507 21.683C157.093 20.6281 157.328 19.456 157.328 18.1668C157.328 13.9473 153.929 10.6655 149.826 10.6655Z" fill="#EBB33A"/>
<path d="M150.295 22.9731C147.951 22.5043 146.896 20.629 144.318 21.6839C144.083 21.8011 143.849 21.9183 143.497 22.1527C144.786 24.2624 147.13 25.6689 149.826 25.6689C152.756 25.6689 155.218 24.028 156.39 21.6839C154.28 21.6839 152.522 23.3247 150.295 22.9731Z" fill="#CE8A29"/>
<g opacity="0.4">
<path opacity="0.4" d="M149.944 11.9556C149.241 11.8384 148.889 12.776 149.358 13.7137C149.944 14.6514 152.992 15.589 154.047 15.1202C156.742 13.3621 152.171 11.9556 150.882 11.7212L149.944 11.9556Z" fill="#FFE18D"/>
</g>
<path d="M143.262 16.292C144.434 16.5264 145.137 18.8705 144.317 19.691C142.559 21.3319 142.559 17.6985 142.793 16.7608L143.262 16.292Z" fill="#FFA300"/>
<path d="M146.31 16.8779C145.607 17.1123 145.138 18.4016 145.607 19.3393C146.076 20.3941 147.365 20.863 147.951 19.5737C148.42 18.4016 147.365 17.9328 146.662 17.2295L146.31 16.8779Z" fill="#FFA300"/>
<path d="M150.998 16.9954C149.709 16.8782 149.358 18.0503 149.709 18.988C151.116 21.5665 153.225 18.0503 150.764 17.2299L150.998 16.9954Z" fill="#FFA300"/>
<path d="M156.155 16.8782C155.921 16.4094 154.632 17.2298 154.515 18.2847C154.28 20.6288 158.031 20.0428 156.273 17.347L156.155 16.8782Z" fill="#FFA300"/>
<path d="M185.456 35.1634C181.471 33.7569 177.486 33.4053 173.853 33.6397C179.478 37.0387 183.112 42.5474 183.815 49.4626C184.167 54.737 183.464 60.5973 181.354 65.4028C180.182 68.5674 179.244 72.5524 177.603 75.8342C178.072 75.9514 178.541 76.0686 179.01 76.0686C181.823 76.303 184.636 75.8342 187.449 75.3654C192.84 68.8018 193.543 59.8941 193.543 51.2207C193.426 47.7045 190.613 40.2033 185.456 35.1634Z" fill="url(#paint0_linear)"/>
<path d="M193.074 39.1481C190.496 37.39 188.034 36.1008 185.456 35.1631C190.613 40.3202 193.426 47.7042 193.426 51.2204C193.426 59.8937 192.723 68.8015 187.331 75.365C184.518 75.8339 181.705 76.3027 178.892 76.0683C178.423 76.0683 177.955 75.9511 177.486 75.8339C179.127 72.5521 180.064 68.5671 181.236 65.4025C183.229 60.597 184.049 54.7366 183.698 49.4623C183.112 42.5471 179.361 37.0384 173.735 33.6394C170.688 33.8738 167.875 34.4599 165.179 35.2803C170.453 38.6793 171.977 44.6569 172.798 50.8688C173.618 58.2528 173.852 65.9885 171.274 73.0209C167.875 70.9112 164.476 68.6843 160.608 69.2703C162.249 64.8164 163.069 60.4798 163.187 55.5571C163.538 48.5247 164.007 43.2504 162.015 36.4524C155.803 38.9137 151.231 42.3127 149.473 43.602C148.301 42.6643 143.73 39.1481 137.284 36.4524C135.643 42.4299 136.463 47.8214 136.932 54.1506C137.518 60.3626 138.456 66.6917 140.448 72.7865C140.331 72.6693 140.214 72.6693 139.98 72.5521C137.167 71.2628 133.299 70.9112 130.72 72.4349C125.563 61.7691 123.922 43.4848 132.127 34.8115C129.079 33.991 125.798 33.5222 122.399 33.6394C118.296 37.5072 117.007 45.0085 117.124 50.4C117.124 55.6743 118.882 60.7142 120.523 65.5197C121.109 67.5122 122.047 72.6693 123.102 75.7167C122.516 75.4823 121.813 75.2478 121.109 75.0134C118.296 73.8414 115.835 75.5995 113.022 74.6618C109.389 73.2553 107.982 64.9336 107.162 61.5346C106.107 56.2603 106.81 51.2204 107.982 46.0633C109.037 41.8439 110.561 38.7965 112.67 35.6319C110.443 36.4524 108.217 37.7416 105.99 39.2653C105.99 39.2653 90.9872 61.0658 116.187 84.6244C116.187 84.6244 121.578 89.0782 123.453 84.6244C125.329 80.1705 126.735 80.1705 126.735 80.1705C126.735 80.1705 140.8 95.9935 149.239 79.4673V76.3027L149.356 70.3251L149.473 76.3027L149.591 79.4673C158.029 95.9935 172.094 80.1705 172.094 80.1705C172.094 80.1705 173.501 80.1705 175.376 84.6244C177.251 89.0782 182.643 84.6244 182.643 84.6244C186.159 81.2254 189.089 78.0608 191.316 75.0134C207.374 53.0957 193.074 39.1481 193.074 39.1481ZM130.134 72.7865C130.017 72.7865 130.017 72.9037 129.9 72.9037C130.017 72.9037 130.017 72.7865 130.134 72.7865ZM123.219 75.7167C123.571 75.8339 123.805 75.9511 124.039 75.9511C123.805 75.8339 123.571 75.8339 123.219 75.7167ZM125.094 76.0683C125.212 76.0683 125.329 76.0683 125.329 76.0683C125.329 76.0683 125.212 76.0683 125.094 76.0683ZM124.391 76.0683C124.508 76.0683 124.626 76.0683 124.743 76.0683C124.626 76.0683 124.508 76.0683 124.391 76.0683ZM126.266 75.9511C126.149 75.9511 126.149 75.9511 126.032 75.9511C126.149 76.0683 126.266 75.9511 126.266 75.9511ZM126.852 75.8339C126.97 75.8339 126.97 75.8339 127.087 75.7167C126.97 75.7167 126.852 75.8339 126.852 75.8339ZM129.431 73.4897C129.314 73.6069 129.314 73.6069 129.197 73.7241C129.314 73.6069 129.314 73.4897 129.431 73.4897ZM128.845 74.3102C128.845 74.4274 128.728 74.4274 128.728 74.5446C128.728 74.4274 128.728 74.4274 128.845 74.3102ZM172.798 73.7241C173.735 74.3102 174.79 74.779 175.845 75.1306C174.79 74.779 173.852 74.3102 172.798 73.7241ZM175.962 75.2478C176.431 75.4823 177.017 75.5995 177.486 75.7167C176.9 75.5995 176.431 75.365 175.962 75.2478Z" fill="url(#paint1_linear)"/>
<path d="M149.709 76.1853L149.592 70.2077L149.475 76.1853C145.958 76.8885 143.38 74.1927 140.567 72.5518C140.567 72.7863 140.684 72.9035 140.684 73.1379C142.442 79.2326 147.951 77.8262 152.991 76.5369C156.976 75.482 158.031 74.896 159.789 71.1454C160.023 70.4421 160.375 69.7389 160.609 69.0356C159.32 69.1529 158.148 69.6217 156.741 70.4421C154.28 72.083 152.874 75.2476 149.709 76.1853Z" fill="url(#paint2_linear)"/>
<path d="M137.401 36.3348C135.76 35.6315 134.12 35.0455 132.244 34.5767C124.04 43.25 125.563 61.5342 130.838 72.2001C133.533 70.6764 137.284 71.028 140.097 72.3173C140.214 72.4345 140.331 72.4345 140.566 72.5517C138.691 66.4569 137.636 60.245 137.05 53.9158C136.581 47.7038 135.76 42.3123 137.401 36.3348Z" fill="url(#paint3_linear)"/>
<path d="M172.798 50.7511C171.978 44.5392 170.454 38.6788 165.18 35.1626C164.125 35.5142 163.07 35.8658 162.132 36.2175C164.125 43.0155 163.773 48.2898 163.304 55.3222C163.187 60.2449 162.367 64.4643 160.726 69.0354C164.476 68.5665 167.875 70.7935 171.392 72.786C173.853 65.8708 173.619 58.1351 172.798 50.7511Z" fill="url(#paint4_linear)"/>
<path d="M117.125 50.3993C117.008 45.0078 118.297 37.5065 122.516 33.5215C119.352 33.6387 116.07 34.2247 112.788 35.514C110.678 38.6786 109.155 41.726 108.1 45.9454C106.928 51.2197 106.225 56.2596 107.279 61.4167C108.1 64.8157 109.506 73.1374 113.14 74.5439C115.953 75.5988 118.414 73.7234 121.227 74.8955C121.93 75.1299 122.634 75.4815 123.22 75.5987C122.047 72.4342 121.227 67.3943 120.641 65.4018C119 60.5963 117.125 55.5564 117.125 50.3993Z" fill="url(#paint5_linear)"/>
<path d="M139.98 34.5762L135.292 32.8181C128.846 29.6535 122.634 30.2396 122.634 30.2396C122.165 30.2396 121.813 30.2396 121.462 30.2396C115.132 32.5837 112.554 39.8505 112.202 46.0625C111.733 56.3767 114.546 67.3941 118.883 76.6535C120.055 79.5837 121.93 82.3966 123.571 85.0924C126.853 83.4515 129.314 80.0525 129.314 80.0525C124.743 69.5039 122.634 62.7059 123.337 51.454C123.571 44.7732 124.275 36.0999 131.893 33.9902C132.948 33.5214 135.995 33.873 138.339 34.3418L139.98 34.5762Z" fill="#ECB43C"/>
<path d="M99.3099 60.0094C101.068 71.3784 113.961 84.3884 119.235 85.7949C117.946 84.74 116.774 83.5679 115.602 82.2787C107.983 73.1365 103.881 63.6428 104.115 51.4533C104.35 42.6628 111.265 31.4109 121.345 30.1216C103.06 29.184 97.5518 49.2263 99.3099 60.0094Z" fill="#ECB43C"/>
<path d="M111.265 100.798C111.265 102.439 112.906 103.845 114.781 103.845H184.988C186.981 103.845 188.504 102.556 188.504 100.798V83.0996C188.504 78.6457 186.864 80.0522 184.988 80.0522H114.781C112.789 80.0522 111.265 77.9425 111.265 83.0996V100.798Z" fill="#ECB43C"/>
<path d="M159.906 34.6925L164.125 32.7C170.572 29.5354 176.784 30.1214 176.784 30.1214C177.253 30.1214 179.011 30.1214 179.48 30.1214C185.809 32.4656 186.864 39.7324 187.332 45.9443C187.801 56.2585 184.988 67.276 180.652 76.5353C179.48 79.4655 177.604 82.2785 175.963 84.9742C172.682 83.3333 170.22 79.9343 170.22 79.9343C174.791 69.3857 176.901 62.5877 176.198 51.3359C175.963 44.6551 175.26 35.9818 167.642 33.872C166.587 33.4032 163.539 33.7548 161.195 34.2237L159.906 34.6925Z" fill="#ECB43C"/>
<path d="M201.514 60.0097C199.639 71.3787 186.863 84.3887 181.589 85.7952C182.878 84.7403 184.05 83.5683 185.222 82.279C192.841 73.1368 196.943 63.6431 196.708 51.4536C196.474 42.6631 194.247 32.1144 179.479 30.1219C201.748 28.9499 203.155 49.2266 201.514 60.0097Z" fill="#ECB43C"/>
<path d="M152.287 79.7006C156.038 70.324 160.843 59.3066 160.843 49.1096C160.843 39.6158 160.843 27.5435 151.467 24.2617H147.833C138.457 27.5435 138.457 39.6158 138.457 49.1096C138.457 59.4238 140.918 70.0896 146.661 79.3489C146.778 79.3489 149.943 85.5609 152.287 79.7006Z" fill="#ECB43C"/>
<path d="M184.988 80.0526C184.988 80.0526 185.222 80.1698 185.691 80.1698C186.16 80.1698 186.863 80.287 187.684 80.0526C188.504 79.8182 189.442 79.3494 190.145 78.4117C190.497 77.9429 190.848 77.3569 191.083 76.7708C191.434 76.1848 191.786 75.5988 192.137 74.8955C192.841 73.6062 193.544 72.1998 194.247 70.6761C194.95 69.1524 195.654 67.5115 196.357 65.8706C197.06 64.1125 197.646 62.3544 198.232 60.5963C198.584 59.6586 198.701 58.721 198.935 57.7833C199.053 56.8457 199.287 55.908 199.404 54.9704C199.756 53.095 199.639 51.1025 199.404 49.2272C199.17 47.3519 198.818 45.4766 198.349 43.7185C197.881 41.9604 197.295 40.3195 196.474 38.913C195.654 37.5065 194.716 36.2173 193.544 35.2796C193.075 34.8108 192.489 34.3419 191.903 33.9903C191.317 33.6387 190.848 33.2871 190.262 32.9355C189.793 32.701 189.207 32.3494 188.856 32.115C188.387 31.8806 187.918 31.6462 187.566 31.529C186.746 31.1774 186.16 30.9429 185.691 30.7085C185.222 30.4741 184.988 30.4741 184.988 30.4741C184.988 30.4741 185.222 30.5913 185.691 30.7085C186.16 30.8257 186.746 31.0602 187.566 31.4118C187.918 31.529 188.387 31.7634 188.856 31.9978C189.324 32.2322 189.793 32.4666 190.379 32.7011C190.965 32.9355 191.434 33.2871 192.02 33.6387C192.606 33.9903 193.192 34.4592 193.778 34.928C194.95 35.8656 196.122 37.1549 196.943 38.5614C197.881 40.0851 198.584 41.726 199.053 43.6013C199.521 45.3594 199.873 47.3519 200.107 49.2272C200.342 51.2197 200.459 53.2123 200.107 55.2048C199.99 56.2596 199.756 57.1973 199.639 58.1349C199.404 59.0726 199.17 60.0102 198.818 60.9479C198.232 62.8232 197.529 64.5813 196.826 66.3394C195.419 69.7384 193.661 72.7858 192.137 75.3643C191.317 76.6536 190.731 77.8257 189.91 78.7633C189.09 79.701 188.035 80.1698 187.215 80.4042C186.394 80.6387 185.691 80.4042 185.222 80.4042C185.222 80.0526 184.988 80.0526 184.988 80.0526Z" fill="#BC7622"/>
<path d="M114.781 80.0524C114.781 80.0524 115.836 80.0524 117.829 79.9352C119.704 79.9352 122.517 79.818 125.799 79.7007C129.081 79.7007 132.949 79.5835 137.051 79.4663C141.153 79.4663 145.607 79.4663 149.944 79.3491C154.28 79.3491 158.734 79.3491 162.836 79.4663C166.939 79.4663 170.806 79.5835 174.088 79.7007C177.37 79.7007 180.066 79.8179 182.058 79.9352C183.934 80.0524 185.106 80.0524 185.106 80.0524C185.106 80.0524 184.051 80.0524 182.058 80.1696C180.183 80.1696 177.37 80.2868 174.088 80.404C170.806 80.404 166.939 80.5212 162.836 80.6384C158.734 80.6384 154.28 80.6384 149.944 80.7556C145.607 80.7556 141.153 80.7556 137.051 80.6384C132.949 80.6384 129.081 80.5212 125.799 80.404C122.517 80.404 119.821 80.2868 117.829 80.1696C115.836 80.0524 114.781 80.0524 114.781 80.0524Z" fill="#BC7622"/>
<path d="M106.928 37.1553C106.928 37.1553 106.576 37.8585 105.873 38.9134C105.521 39.4994 105.053 40.2027 104.701 41.0231C104.467 41.4919 104.349 41.8435 104.115 42.3124C103.998 42.5468 103.881 42.7812 103.763 43.0156C103.646 43.25 103.646 43.4844 103.529 43.8361C103.412 44.4221 103.177 44.8909 102.943 45.477C102.709 46.063 102.709 46.649 102.591 47.3523C102.24 48.6416 102.24 49.9308 102.122 51.3373C102.122 52.0406 102.122 52.7438 102.122 53.447C102.122 54.1503 102.24 54.8535 102.24 55.674C102.357 57.1976 102.709 58.6041 102.943 60.1278L103.529 62.3547C103.763 63.058 103.998 63.7612 104.232 64.4645C104.701 65.871 105.17 67.2774 105.756 68.5667C106.342 69.856 106.811 71.1453 107.397 72.3173C107.983 73.4894 108.452 74.6615 109.038 75.5991C109.272 76.068 109.507 76.654 109.858 77.0056C110.21 77.3572 110.444 77.8261 110.796 78.0605C111.147 78.2949 111.499 78.6465 111.733 78.8809C112.085 79.1153 112.437 79.2325 112.671 79.3497C113.257 79.5842 113.843 79.7014 114.195 79.7014C114.546 79.7014 114.781 79.7014 114.781 79.7014C114.781 79.7014 114.546 79.7014 114.195 79.7014C113.843 79.7014 113.257 79.7014 112.671 79.467C112.319 79.3498 111.968 79.2325 111.616 78.9981C111.265 78.7637 110.913 78.5293 110.561 78.2949C110.21 77.9433 109.858 77.5916 109.506 77.24C109.155 76.7712 108.92 76.3024 108.569 75.8335C107.983 74.7787 107.397 73.7238 106.811 72.5517C106.225 71.3797 105.521 70.0904 104.935 68.8011C104.349 67.5119 103.763 66.1054 103.295 64.6989C103.06 63.9956 102.826 63.2924 102.591 62.472C102.357 61.7687 102.24 60.9483 102.005 60.245C101.654 58.7213 101.419 57.1976 101.302 55.674C101.185 54.9707 101.185 54.1503 101.185 53.447C101.185 52.7438 101.185 51.9233 101.185 51.2201C101.302 49.8136 101.419 48.4071 101.888 47.1179C102.005 46.4146 102.122 45.8286 102.357 45.2425C102.591 44.6565 102.826 44.0705 102.943 43.4844C103.295 42.3124 103.881 41.4919 104.349 40.6715C104.818 39.851 105.287 39.1478 105.639 38.679C106.459 37.7413 106.928 37.1553 106.928 37.1553Z" fill="#BC7622"/>
<path d="M111.734 100.68C111.734 100.68 112.906 100.68 115.015 100.563C117.125 100.563 120.173 100.446 123.806 100.329C127.439 100.329 131.659 100.211 136.23 100.094C140.801 100.094 145.606 100.094 150.412 99.9771C155.217 99.9771 160.023 99.977 164.594 100.094C169.165 100.094 173.384 100.211 177.018 100.329C180.651 100.329 183.699 100.446 185.808 100.563C187.918 100.68 189.09 100.68 189.09 100.68C189.09 100.68 187.918 100.68 185.808 100.797C183.699 100.797 180.651 100.915 177.018 101.032C173.384 101.032 169.165 101.149 164.594 101.266C160.023 101.266 155.217 101.266 150.412 101.384C145.606 101.384 140.801 101.384 136.23 101.266C131.659 101.266 127.439 101.149 123.806 101.032C120.173 101.032 117.125 100.915 115.015 100.797C112.906 100.68 111.734 100.68 111.734 100.68Z" fill="#BC7622"/>
<path d="M130.253 30.9429C130.253 30.9429 129.315 30.8257 127.791 31.1773C126.971 31.2945 126.151 31.529 125.096 31.9978C124.158 32.4666 123.103 33.1699 122.166 33.9903C121.228 34.928 120.407 36.1 119.821 37.3893C119.587 38.0925 119.235 38.7958 119.118 39.6162C119.001 39.9679 118.884 40.4367 118.884 40.7883C118.884 41.1399 118.767 41.6088 118.767 41.9604C118.532 43.6013 118.415 45.2422 118.415 47.0003C118.415 48.7584 118.532 50.5165 118.649 52.2746C118.767 54.0327 119.001 55.7908 119.235 57.5489C119.47 59.307 119.704 60.9479 120.056 62.5888C120.407 64.2297 120.642 65.7534 120.993 67.2771C121.345 68.8007 121.697 70.2072 122.048 71.4965C122.4 72.7858 122.752 73.9578 123.103 75.0127C123.455 76.0676 123.806 76.888 124.041 77.5913C124.275 78.2945 124.627 78.8805 124.744 79.2322C124.979 79.5838 124.979 79.8182 124.979 79.8182C124.979 79.8182 124.861 79.5838 124.627 79.2322C124.392 78.8805 124.041 78.4117 123.689 77.5913C123.338 76.888 122.986 76.0676 122.517 75.0127C122.048 73.9578 121.697 72.903 121.228 71.6137C120.759 70.3244 120.407 68.9179 119.939 67.3943C119.587 65.8706 119.118 64.3469 118.884 62.706C118.532 61.0651 118.298 59.307 118.063 57.5489C117.829 55.7908 117.594 54.0327 117.477 52.1574C117.36 50.3993 117.243 48.524 117.36 46.7659C117.36 45.0078 117.477 43.1324 117.712 41.4915C117.829 41.0227 117.829 40.6711 117.946 40.2023C118.063 39.8507 118.181 39.3818 118.298 39.0302C118.532 38.2098 118.884 37.5065 119.118 36.8033C119.821 35.3968 120.759 34.1075 121.814 33.2871C122.869 32.3494 123.924 31.7634 124.979 31.4118C126.033 31.0601 126.971 30.8257 127.791 30.7085C128.612 30.5913 129.198 30.5913 129.667 30.7085C130.018 30.9429 130.253 30.9429 130.253 30.9429Z" fill="#BC7622"/>
<path d="M171.158 30.9434C171.158 30.9434 171.392 30.9434 171.744 30.9434C172.213 30.9434 172.799 30.9434 173.619 30.9434C174.44 31.0606 175.377 31.1778 176.432 31.6466C177.487 31.9982 178.542 32.7015 179.597 33.5219C180.651 34.4596 181.472 35.6316 182.292 37.0381C182.527 37.7414 182.996 38.5618 183.113 39.265C183.23 39.6167 183.347 40.0855 183.464 40.4371C183.582 40.9059 183.582 41.2576 183.699 41.7264C183.933 43.3673 184.05 45.2426 184.05 47.0007C184.05 48.7588 184.05 50.6341 183.933 52.3922C183.816 54.1503 183.582 56.0256 183.347 57.7837C183.113 59.5418 182.761 61.2999 182.527 62.9408C182.175 64.5817 181.824 66.2226 181.472 67.6291C181.003 69.1528 180.651 70.5593 180.183 71.8486C179.831 73.1378 179.362 74.3099 178.893 75.2475C178.425 76.3024 178.073 77.1228 177.721 77.8261C177.37 78.5293 177.018 78.9982 176.784 79.467C176.549 79.8186 176.432 80.053 176.432 80.053C176.432 80.053 176.549 79.8186 176.666 79.467C176.901 79.1154 177.135 78.5293 177.37 77.8261C177.721 77.1228 177.956 76.1852 178.307 75.2475C178.659 74.1927 179.011 73.0206 179.362 71.7313C179.714 70.4421 180.065 69.0356 180.417 67.5119C180.769 65.9882 181.003 64.4645 181.355 62.8236C181.706 61.1827 181.941 59.4246 182.175 57.7837C182.41 56.0256 182.527 54.2675 182.761 52.5094C182.878 50.7513 182.996 48.9932 182.996 47.2351C182.996 45.477 182.878 43.8361 182.644 42.1952C182.527 41.8436 182.527 41.3748 182.527 41.0231C182.41 40.6715 182.292 40.2027 182.292 39.8511C182.175 39.0306 181.824 38.3274 181.589 37.6241C181.003 36.3349 180.183 35.0456 179.245 34.2251C178.307 33.2875 177.252 32.7015 176.315 32.2326C175.377 31.7638 174.44 31.5294 173.619 31.4122C172.095 30.9434 171.158 30.9434 171.158 30.9434Z" fill="#BC7622"/>
<path d="M138.339 34.3421L139.98 34.5765V34.6937L135.175 33.0528C134.12 32.7012 133.182 32.2324 132.127 31.8808L130.604 31.4119C130.135 31.2947 129.549 31.1775 128.963 31.0603C128.494 30.9431 127.908 30.8259 127.322 30.8259C126.736 30.7087 126.267 30.7087 125.681 30.7087C125.095 30.7087 124.626 30.5915 124.04 30.5915C123.454 30.5915 122.985 30.5915 122.399 30.5915H121.227H121.461C120.524 30.9431 119.586 31.4119 118.766 31.998C117.945 32.584 117.242 33.2872 116.539 34.1077C115.835 34.9281 115.367 35.7486 114.898 36.6862C114.429 37.6239 114.077 38.5615 113.726 39.4992C113.374 40.4369 113.14 41.4917 112.905 42.5466C112.671 43.6014 112.554 44.6563 112.436 45.594C112.436 46.5316 112.436 47.7037 112.319 48.7585C112.319 49.8134 112.436 50.8683 112.436 51.9231L112.554 53.4468C112.554 53.9156 112.671 54.5017 112.788 54.9705C112.905 56.0254 113.022 57.0802 113.257 58.1351L113.843 61.2997L114.546 64.347C114.781 65.4019 115.132 66.3396 115.367 67.3944C115.601 68.4493 115.953 69.387 116.304 70.4418C116.656 71.4967 117.008 72.4343 117.359 73.4892L118.531 76.4194L117.125 73.4892C116.656 72.5515 116.304 71.4967 115.835 70.559C115.367 69.6214 115.015 68.5665 114.663 67.5117C114.312 66.4568 113.96 65.5191 113.726 64.4643L112.905 61.4169L112.202 58.2523C111.968 57.1974 111.85 56.1426 111.733 55.0877C111.616 54.5017 111.616 54.0329 111.499 53.4468L111.382 51.8059C111.264 50.7511 111.147 49.6962 111.264 48.6413C111.264 47.5865 111.264 46.5316 111.264 45.3595C111.382 43.2498 111.85 41.0229 112.554 39.0304C112.905 37.9755 113.374 37.0379 113.843 35.983C114.429 35.0453 114.898 34.1077 115.601 33.2872C116.304 32.4668 117.125 31.6463 118.062 31.0603C119 30.3571 119.938 29.8882 120.993 29.5366C120.993 29.5366 121.11 29.5366 121.227 29.5366L122.399 29.6538H122.282C122.868 29.6538 123.454 29.6538 123.923 29.6538C124.509 29.6538 124.978 29.771 125.564 29.771C126.15 29.771 126.618 29.8882 127.205 30.0055C127.791 30.1227 128.259 30.1227 128.845 30.3571C129.431 30.4743 129.9 30.5915 130.486 30.7087L132.01 31.1775C132.596 31.2947 133.065 31.5291 133.534 31.7636L135.057 32.4668L139.746 34.3421C139.746 34.3421 139.746 34.3421 139.746 34.4593C139.746 34.4593 139.746 34.4593 139.628 34.4593L138.339 34.3421Z" fill="#FFE18D"/>
<path d="M160.961 34.3421L159.789 34.8109C159.789 34.8109 159.789 34.8109 159.672 34.8109C159.672 34.8109 159.672 34.8109 159.672 34.6937L163.657 32.7012C164.36 32.3496 165.063 32.1152 165.649 31.7636C166.001 31.6463 166.353 31.4119 166.704 31.2947L167.759 30.9431C168.111 30.8259 168.462 30.7087 168.814 30.5915L169.869 30.3571C170.572 30.1227 171.393 30.0055 172.096 29.8882C172.799 29.771 173.619 29.6538 174.323 29.6538C175.026 29.6538 175.846 29.5366 176.55 29.6538H176.432L179.128 29.5366C179.245 29.5366 179.245 29.5366 179.245 29.5366C180.183 29.8882 181.121 30.3571 181.941 31.0603C182.762 31.6463 183.465 32.4668 184.051 33.2872C184.637 34.1077 185.106 35.0453 185.575 35.983C185.926 36.9207 186.278 37.8583 186.512 38.796C186.981 40.7885 187.215 42.781 187.333 44.6563C187.333 45.1251 187.45 45.594 187.45 46.18V47.7037C187.45 48.6413 187.45 49.6962 187.333 50.6339C187.215 51.5715 187.215 52.6264 187.098 53.564C186.981 54.5017 186.864 55.5565 186.747 56.4942L186.161 59.4244C185.926 60.362 185.692 61.2997 185.457 62.3545C185.223 63.2922 184.989 64.2299 184.637 65.1675C184.403 66.1052 184.051 67.0428 183.699 67.9805C183.348 68.9181 182.996 69.8558 182.644 70.6762L181.472 73.372L182.41 70.559C182.762 69.6214 182.996 68.6837 183.23 67.7461C183.582 66.8084 183.816 65.8707 184.051 64.9331C184.285 63.9954 184.52 63.0578 184.754 62.1201C184.989 61.1825 185.223 60.2448 185.34 59.3072L185.809 56.377L186.161 53.4468C186.278 52.5092 186.278 51.5715 186.395 50.5167C186.512 49.579 186.512 48.5241 186.395 47.5865V46.0628C186.395 45.594 186.278 45.1251 186.278 44.6563C186.161 43.7187 186.043 42.781 185.926 41.7261C185.809 40.7885 185.575 39.8508 185.34 38.9132C185.106 37.9755 184.871 37.0379 184.52 36.2174C184.168 35.2798 183.699 34.4593 183.23 33.7561C182.644 33.0528 182.058 32.3496 181.355 31.7636C180.652 31.1775 179.831 30.8259 178.894 30.3571H179.128H176.55C175.846 30.3571 175.143 30.3571 174.44 30.3571C173.737 30.3571 173.033 30.4743 172.213 30.4743C171.51 30.5915 170.807 30.5915 170.103 30.8259L169.048 31.0603C168.697 31.0603 168.345 31.2947 167.994 31.2947C167.29 31.5291 166.587 31.6464 165.884 31.998C165.181 32.2324 164.477 32.584 163.774 32.8184L159.672 34.5765V34.4593L160.961 34.3421Z" fill="#FFE18D"/>
<path d="M155.686 71.144C156.39 69.1515 157.093 67.0418 157.679 65.0493C157.913 63.9944 158.265 63.0568 158.499 62.0019C158.734 60.947 159.085 59.8922 159.203 58.9545L159.554 57.4308L159.789 55.9072C160.023 54.8523 160.023 53.7974 160.14 52.7426C160.258 51.6877 160.258 50.6329 160.258 49.578C160.258 48.5231 160.258 47.4683 160.258 46.4134C160.258 44.3037 160.14 42.194 159.906 40.0842C159.789 39.0294 159.671 37.9745 159.437 36.9196C159.32 36.4508 159.203 35.8648 159.085 35.396C158.968 34.9271 158.851 34.3411 158.734 33.8723C158.499 32.8174 158.148 31.8798 157.679 30.9421C157.21 30.0044 156.741 29.184 156.038 28.3635C155.452 27.5431 154.632 26.8399 153.811 26.2538C153.342 26.0194 152.991 25.6678 152.522 25.4334L151.115 24.8473H151.233H147.599H147.716L146.544 25.3162L145.372 25.9022L144.317 26.6054C143.966 26.8399 143.731 27.1915 143.38 27.4259C143.145 27.7775 142.794 28.0119 142.559 28.3635C142.325 28.7152 141.973 29.0668 141.856 29.4184C141.622 29.77 141.387 30.1216 141.153 30.4733C140.918 30.8249 140.801 31.1765 140.567 31.6453C140.215 32.4658 139.981 33.2862 139.629 34.1067C139.395 34.9271 139.16 35.7476 139.043 36.6852C138.691 38.4433 138.457 40.0842 138.34 41.8423C138.34 40.0842 138.457 38.3261 138.691 36.568C138.809 35.7476 138.926 34.8099 139.16 33.9895C139.395 33.169 139.629 32.2314 139.981 31.4109C140.098 30.9421 140.332 30.5905 140.567 30.2389C140.684 29.77 141.036 29.4184 141.153 29.0668C141.387 28.7152 141.622 28.3635 141.856 27.8947C142.09 27.5431 142.442 27.1915 142.677 26.8399C143.028 26.4882 143.38 26.2538 143.614 25.9022L144.669 25.0818L145.841 24.3785L147.13 23.7925H147.248H150.881H150.998L152.522 24.4957C152.991 24.7301 153.46 25.0818 153.928 25.3162C154.866 26.0194 155.686 26.7226 156.39 27.5431C157.093 28.3635 157.679 29.3012 158.148 30.3561C158.617 31.2937 158.968 32.3486 159.32 33.4034C159.437 33.8723 159.554 34.4583 159.671 35.0443C159.789 35.6304 159.906 36.0992 160.023 36.6852C160.258 37.7401 160.258 38.795 160.375 39.8498C160.609 41.9595 160.609 44.1865 160.609 46.2962C160.609 47.3511 160.609 48.4059 160.609 49.4608C160.492 50.5156 160.492 51.5705 160.375 52.7426C160.258 53.7974 160.14 54.8523 159.906 55.9072L159.554 57.4308L159.203 58.9545C158.968 60.0094 158.617 61.0643 158.382 62.0019C158.031 63.0568 157.679 63.9944 157.327 65.0493C157.327 67.159 156.507 69.1515 155.686 71.144Z" fill="#FFE18D"/>
<g opacity="0.7">
<path opacity="0.7" d="M143.966 17.6989C143.732 17.1129 143.263 16.644 142.677 16.644C141.739 16.7612 141.271 17.4645 141.505 18.4021C141.622 18.7538 141.739 18.9882 141.974 19.2226C142.794 19.2226 143.498 18.5194 143.966 17.6989Z" fill="white"/>
</g>
<path d="M143.967 17.6987C143.498 18.5192 142.795 19.2224 141.974 19.2224C142.209 19.574 142.677 19.6912 143.146 19.574C143.967 19.3396 144.318 18.988 144.201 18.1676C144.084 18.0504 144.084 17.8159 143.967 17.6987Z" fill="#C9C7BC"/>
<g opacity="0.7">
<path opacity="0.7" d="M148.069 17.6989C147.834 17.1129 147.365 16.644 146.779 16.644C145.842 16.7612 145.373 17.4645 145.607 18.4021C145.725 18.7538 145.842 18.9882 146.076 19.2226C146.897 19.2226 147.6 18.5194 148.069 17.6989Z" fill="white"/>
</g>
<path d="M148.069 17.6987C147.6 18.5192 146.897 19.2224 146.076 19.2224C146.311 19.574 146.779 19.6912 147.248 19.574C148.069 19.3396 148.42 18.988 148.303 18.1676C148.186 18.0504 148.186 17.8159 148.069 17.6987Z" fill="#C9C7BC"/>
<g opacity="0.7">
<path opacity="0.7" d="M155.687 17.6984C155.921 17.1124 156.39 16.6436 156.976 16.6436C157.914 16.7608 158.383 17.464 158.148 18.4017C158.031 18.7533 157.914 18.9877 157.679 19.2221C156.859 19.2221 156.156 18.5189 155.687 17.6984Z" fill="white"/>
</g>
<path d="M155.686 17.6987C156.155 18.5192 156.858 19.2224 157.679 19.2224C157.444 19.574 156.976 19.6912 156.507 19.574C155.686 19.3396 155.335 18.988 155.452 18.1676C155.569 18.0504 155.569 17.8159 155.686 17.6987Z" fill="#C9C7BC"/>
<g opacity="0.7">
<path opacity="0.7" d="M150.295 17.6984C150.53 17.1124 150.999 16.6436 151.585 16.6436C152.522 16.7608 152.991 17.464 152.757 18.4017C152.64 18.7533 152.522 18.9877 152.288 19.2221C151.467 19.2221 150.764 18.5189 150.295 17.6984Z" fill="white"/>
</g>
<path d="M150.295 17.6987C150.764 18.5192 151.467 19.2224 152.287 19.2224C152.053 19.574 151.584 19.6912 151.115 19.574C150.295 19.3396 149.943 18.988 150.061 18.1676C150.178 18.0504 150.178 17.8159 150.295 17.6987Z" fill="#C9C7BC"/>
<path d="M117.828 90.0149C116.07 89.0772 115.836 92.359 115.836 93.5311C115.718 96.3441 115.484 98.9226 118.883 98.9226C121.227 98.9226 124.743 99.3914 125.212 96.6957C125.564 95.2892 125.564 91.4214 124.275 90.6009L117.828 90.0149Z" fill="#FFA300"/>
<path d="M134.707 90.6011C131.425 91.3043 132.832 96.227 136.113 96.227C137.872 96.227 139.161 94.8205 138.692 92.9452C138.223 91.0699 136.465 90.6011 134.941 90.4839L134.707 90.6011Z" fill="#FFA300"/>
<path d="M146.661 90.0146C143.614 90.2491 144.669 97.9847 146.896 98.5708C148.185 98.9224 152.17 98.2191 153.459 97.6331C154.631 96.8126 155.569 92.3588 153.694 91.5383L146.661 90.0146Z" fill="#FFA300"/>
<path d="M163.305 90.8355C160.375 90.4838 159.437 95.9926 162.719 96.6958C164.126 97.0474 165.298 96.1098 165.532 94.7033C165.884 93.0624 164.712 92.1247 163.657 91.0699L163.305 90.8355Z" fill="#FFA300"/>
<path d="M180.768 89.5457C180.182 89.4285 179.245 89.7802 178.307 90.0146C177.486 90.1318 175.494 89.8974 174.791 90.3662C173.619 91.1867 174.087 96.461 175.26 97.633C176.08 98.4535 181.589 98.9223 182.526 97.9846C183.347 97.047 183.112 91.3039 182.058 90.249C182.058 90.249 182.058 90.249 181.94 90.249L180.768 89.5457Z" fill="#FFA300"/>
<path d="M121.111 96.1091C119.353 93.5306 117.595 92.5929 115.836 93.6478V95.7575C115.836 96.8124 116.774 97.75 117.829 97.75H122.4C123.455 97.75 124.393 96.8124 124.393 95.7575V94.5854C123.455 94.351 122.634 94.8198 121.111 96.1091Z" fill="#912A2D"/>
<path d="M122.283 89.1938H117.712C116.657 89.1938 115.719 90.1315 115.719 91.1864V93.6477C117.595 92.5928 119.235 93.5305 120.994 96.109C122.634 94.8198 123.455 94.3509 124.158 94.5854V91.1864C124.275 90.1315 123.338 89.1938 122.283 89.1938Z" fill="#B22832"/>
<path d="M120.642 90.1318C118.649 90.6007 120.408 93.062 121.931 92.7104C123.924 92.2416 121.931 90.6007 120.759 90.3663L120.642 90.1318Z" fill="#CE2C3F"/>
<path opacity="0.7" d="M137.636 92.0075C137.167 91.4214 136.347 91.0698 135.527 91.0698C134.003 91.0698 132.831 92.3591 132.831 93.7656C132.831 94.586 133.182 95.2893 133.768 95.8753C135.292 95.4065 136.816 93.6484 137.636 92.0075Z" fill="white"/>
<path d="M137.636 92.0078C136.815 93.6487 135.292 95.4068 133.768 95.8756C134.237 96.3445 134.823 96.5789 135.526 96.5789C137.05 96.5789 138.222 95.2896 138.222 93.8831C138.222 93.0627 137.988 92.4766 137.636 92.0078Z" fill="#C9C7BC"/>
<path d="M153.928 93.4133V91.1864C153.928 90.1315 152.991 89.1938 151.936 89.1938H147.365C146.31 89.1938 145.372 90.1315 145.372 91.1864V93.6477V93.9993C146.427 94.1165 147.482 94.8198 148.771 95.0542C151.35 95.2886 152.639 94.8198 153.928 93.4133Z" fill="#B22832"/>
<path d="M148.889 94.9373C147.482 94.8201 146.544 94.1168 145.49 93.8824V95.6405C145.49 96.6954 146.427 97.633 147.482 97.633H152.053C153.108 97.633 154.046 96.6954 154.046 95.6405V94.4685V93.2964C152.639 94.8201 151.35 95.2889 148.889 94.9373Z" fill="#912A2D"/>
<path d="M149.475 90.1329C147.834 90.2501 146.076 90.9533 146.427 92.1254C146.896 94.2351 149.006 91.5393 149.709 91.4221C150.061 91.4221 153.343 93.063 152.288 90.8361C151.936 90.1329 150.764 90.0157 149.475 90.1329Z" fill="#CE2C3F"/>
<path d="M178.306 96.1091C180.064 93.5306 181.822 92.5929 183.581 93.6478V95.7575C183.581 96.8124 182.643 97.75 181.588 97.75H177.017C175.962 97.75 175.024 96.8124 175.024 95.7575V94.5854C175.845 94.351 176.665 94.8198 178.306 96.1091Z" fill="#912A2D"/>
<path d="M177.016 89.1943H181.587C182.642 89.1943 183.58 90.132 183.58 91.1868V93.6482C181.705 92.5933 180.064 93.531 178.306 96.1095C176.665 94.8203 175.844 94.3514 175.141 94.5858V91.1868C175.141 90.132 175.962 89.1943 177.016 89.1943Z" fill="#B22832"/>
<path d="M178.541 90.4832C177.251 90.1316 176.314 92.7102 178.658 92.4757C180.767 92.1241 182.174 89.78 179.127 90.366L178.541 90.4832Z" fill="#CE2C3F"/>
<path opacity="0.7" d="M161.664 92.008C162.132 91.4219 162.953 91.0703 163.773 91.0703C165.297 91.0703 166.469 92.3596 166.469 93.7661C166.469 94.5865 166.117 95.2898 165.531 95.8758C164.008 95.407 162.601 93.6489 161.664 92.008Z" fill="white"/>
<path d="M161.664 92.0078C162.484 93.6487 164.008 95.4068 165.532 95.8756C165.063 96.3445 164.477 96.5789 163.773 96.5789C162.25 96.5789 161.078 95.2896 161.078 93.8831C161.078 93.0627 161.312 92.4766 161.664 92.0078Z" fill="#C9C7BC"/>
<path d="M148.771 67.9805C146.661 67.2772 146.075 71.3795 147.95 72.4343C151.115 74.0752 150.646 69.973 149.239 68.4493L148.771 67.9805Z" fill="#FFA300"/>
<path d="M148.419 55.321C145.724 54.8522 146.544 58.72 148.185 59.4233C149.357 60.0093 150.412 59.8921 150.529 58.3684C150.646 57.0791 149.826 56.2587 149.006 55.321H148.419Z" fill="#FFA300"/>
<path d="M148.42 43.835C146.193 43.4833 145.138 46.1791 146.779 47.9372C147.717 48.8748 149.006 48.8748 149.826 47.7028C150.53 46.5307 149.709 45.7103 149.358 44.6554L148.42 43.835Z" fill="#FFA300"/>
<path d="M149.005 33.756C148.77 33.5216 147.833 33.2872 147.364 33.756C146.075 34.5765 147.13 36.1002 147.833 36.9206C150.646 39.8508 150.997 35.5141 149.356 33.8732L149.005 33.756Z" fill="#FFA300"/>
<g opacity="0.7">
<path opacity="0.7" d="M151.233 34.8099C150.881 33.8722 150.178 33.169 149.357 33.2862C147.834 33.4034 147.248 34.5755 147.599 35.982C147.716 36.4508 147.951 36.9196 148.302 37.2713C149.357 37.154 150.412 36.0992 151.233 34.8099Z" fill="white"/>
</g>
<path d="M151.232 34.8096C150.412 36.0988 149.474 37.1537 148.185 37.1537C148.654 37.6225 149.24 37.857 149.943 37.6225C151.115 37.3881 151.701 36.6849 151.467 35.5128C151.349 35.2784 151.232 35.044 151.232 34.8096Z" fill="#C9C7BC"/>
<g opacity="0.7">
<path opacity="0.7" d="M150.764 45.3582C150.412 44.4206 149.709 43.7174 148.889 43.8346C147.365 43.9518 146.779 45.1238 147.131 46.5303C147.248 46.9991 147.482 47.468 147.834 47.8196C149.006 47.5852 150.061 46.5303 150.764 45.3582Z" fill="white"/>
</g>
<path d="M150.764 45.3574C149.943 46.6467 149.006 47.7016 147.717 47.7016C148.185 48.1704 148.771 48.4048 149.475 48.1704C150.647 47.936 151.233 47.2327 150.998 46.0607C150.998 45.8263 150.881 45.5918 150.764 45.3574Z" fill="#C9C7BC"/>
<g opacity="0.7">
<path opacity="0.7" d="M150.997 56.9623C150.646 56.0246 149.943 55.3214 149.122 55.4386C147.598 55.5558 147.012 56.7278 147.364 58.1343C147.481 58.6032 147.716 59.072 148.067 59.4236C149.239 59.1892 150.294 58.1343 150.997 56.9623Z" fill="white"/>
</g>
<path d="M150.997 56.9619C150.176 58.2512 149.238 59.3061 147.949 59.3061C148.418 59.7749 149.004 60.0093 149.707 59.7749C150.879 59.5405 151.465 58.8372 151.231 57.6651C151.231 57.4307 151.114 57.1963 150.997 56.9619Z" fill="#C9C7BC"/>
<g opacity="0.7">
<path opacity="0.7" d="M151.35 69.2689C150.998 68.3312 150.295 67.628 149.475 67.7452C147.951 67.8624 147.365 69.0345 147.717 70.441C147.834 70.9098 148.068 71.3786 148.42 71.7302C149.592 71.613 150.53 70.5582 151.35 69.2689Z" fill="white"/>
</g>
<path d="M151.351 69.2686C150.53 70.5578 149.592 71.6127 148.303 71.6127C148.772 72.0815 149.358 72.3159 150.061 72.0815C151.233 71.8471 151.819 71.1439 151.585 69.9718C151.468 69.7374 151.468 69.503 151.351 69.2686Z" fill="#C9C7BC"/>
<path d="M279 243.899L270.413 261.513L273.808 280.727L260.628 295.139L258.432 314.554L241.657 324.561L234.069 342.575L215.298 347.379L203.117 362.591L183.547 361.99L167.571 372.999L149 366.994L130.429 372.999L114.453 361.99L94.8833 362.591L82.702 347.379L63.9309 342.575L56.3425 324.561L39.5683 314.554L37.3717 295.139L24.192 280.727L27.5868 261.513L19 243.899L27.5868 226.485L24.192 207.271L37.3717 192.859L39.5683 173.444L56.3425 163.437L63.9309 145.423L82.702 140.619L94.8833 125.407L114.453 126.008L130.429 114.999L149 121.004L167.571 114.999L183.547 126.008L203.117 125.407L215.298 140.619L234.069 145.423L241.657 163.437L258.432 173.444L260.628 192.859L273.808 207.271L270.413 226.485L279 243.899Z" fill="url(#paint6_linear)"/>
<path d="M191.401 350.599C250.274 327.181 279.016 260.472 255.599 201.599C232.182 142.726 165.472 113.983 106.599 137.401C47.726 160.818 18.9836 227.528 42.401 286.401C65.8184 345.274 132.528 374.016 191.401 350.599Z" fill="url(#paint7_linear)"/>
<path d="M149 317.999C189.869 317.999 223 284.868 223 243.999C223 203.13 189.869 169.999 149 169.999C108.131 169.999 75 203.13 75 243.999C75 284.868 108.131 317.999 149 317.999Z" fill="#EFC136"/>
<path d="M198.192 293.251C225.385 266.058 225.385 221.971 198.192 194.779C171 167.586 126.913 167.586 99.7204 194.779C72.5281 221.971 72.5281 266.058 99.7203 293.251C126.913 320.443 171 320.443 198.192 293.251Z" fill="#FFD34F"/>
<path d="M149.5 173.999C111.066 173.999 80 205.288 80 243.999H219C219 205.489 187.934 173.999 149.5 173.999Z" fill="#FFD34F"/>
<path d="M55 231.999L58.8 239.599L67 240.799L61 246.599L62.4 254.999L55 250.999L47.6 254.999L49 246.599L43 240.799L51.2 239.599L55 231.999Z" fill="#FFD34F"/>
<path d="M242.603 231.999L246.322 239.599L255 240.799L248.802 246.599L250.248 254.999L242.603 250.999L234.959 254.999L236.405 246.599L230 240.799L238.678 239.599L242.603 231.999Z" fill="#FFD34F"/>
<path d="M97.418 250.824C97.418 240.863 98.834 232.807 101.666 226.654C104.531 220.469 108.73 215.912 114.264 212.982C119.83 210.053 126.682 208.588 134.82 208.588C137.717 208.588 141.103 208.865 144.977 209.418V224.506C141.721 223.887 138.189 223.578 134.381 223.578C127.936 223.578 123.134 224.994 119.977 227.826C116.819 230.658 115.094 235.281 114.801 241.693H115.387C118.316 236.16 123.02 233.393 129.498 233.393C135.846 233.393 140.761 235.443 144.244 239.545C147.76 243.614 149.518 249.294 149.518 256.586C149.518 264.431 147.304 270.632 142.877 275.189C138.45 279.714 132.265 281.977 124.322 281.977C115.891 281.977 109.299 279.242 104.547 273.773C99.7943 268.305 97.418 260.655 97.418 250.824ZM123.883 266.693C125.934 266.693 127.594 265.928 128.863 264.398C130.165 262.836 130.816 260.362 130.816 256.977C130.816 251.182 128.57 248.285 124.078 248.285C121.865 248.285 120.058 249.034 118.658 250.531C117.291 252.029 116.607 253.852 116.607 256C116.607 259.125 117.275 261.697 118.609 263.715C119.944 265.701 121.702 266.693 123.883 266.693ZM193.59 281H174.01V243.207C174.01 238.617 174.107 234.418 174.303 230.609C173.098 232.074 171.601 233.604 169.811 235.199L161.705 241.889L151.695 229.584L176.207 209.613H193.59V281Z" fill="url(#paint8_linear)"/>
<defs>
<linearGradient id="paint0_linear" x1="182.412" y1="27.5538" x2="183.515" y2="82.13" gradientUnits="userSpaceOnUse">
<stop stop-color="#D91B24"/>
<stop offset="1" stop-color="#393C5A"/>
</linearGradient>
<linearGradient id="paint1_linear" x1="143.889" y1="26.0725" x2="144.24" y2="94.5495" gradientUnits="userSpaceOnUse">
<stop stop-color="#D91B24"/>
<stop offset="1" stop-color="#393C5A"/>
</linearGradient>
<linearGradient id="paint2_linear" x1="149.279" y1="67.816" x2="149.324" y2="78.8794" gradientUnits="userSpaceOnUse">
<stop stop-color="#D91B24"/>
<stop offset="1" stop-color="#393C5A"/>
</linearGradient>
<linearGradient id="paint3_linear" x1="132.607" y1="29.2059" x2="133.835" y2="77.8936" gradientUnits="userSpaceOnUse">
<stop stop-color="#D91B24"/>
<stop offset="1" stop-color="#393C5A"/>
</linearGradient>
<linearGradient id="paint4_linear" x1="166.221" y1="29.8416" x2="167.563" y2="78.0718" gradientUnits="userSpaceOnUse">
<stop stop-color="#D91B24"/>
<stop offset="1" stop-color="#393C5A"/>
</linearGradient>
<linearGradient id="paint5_linear" x1="113.916" y1="27.5706" x2="115.207" y2="81.5212" gradientUnits="userSpaceOnUse">
<stop stop-color="#D91B24"/>
<stop offset="1" stop-color="#393C5A"/>
</linearGradient>
<linearGradient id="paint6_linear" x1="149" y1="114.999" x2="149" y2="372.999" gradientUnits="userSpaceOnUse">
<stop stop-color="#FFC700"/>
<stop offset="1" stop-color="#FC9517"/>
</linearGradient>
<linearGradient id="paint7_linear" x1="80.6825" y1="112.787" x2="192.025" y2="385.26" gradientUnits="userSpaceOnUse">
<stop stop-color="#D91B24"/>
<stop offset="1" stop-color="#393C5A"/>
</linearGradient>
<linearGradient id="paint8_linear" x1="150.5" y1="174" x2="150.5" y2="310" gradientUnits="userSpaceOnUse">
<stop stop-color="#FFC700"/>
<stop offset="1" stop-color="#FF4070"/>
</linearGradient>
</defs>
</svg>
