<svg width="298" height="388" viewBox="0 0 298 388" fill="none" xmlns="http://www.w3.org/2000/svg">
<path d="M279 238.899L270.413 256.513L273.808 275.727L260.628 290.139L258.432 309.554L241.657 319.561L234.069 337.575L215.298 342.379L203.117 357.591L183.547 356.99L167.571 367.999L149 361.994L130.429 367.999L114.453 356.99L94.8833 357.591L82.702 342.379L63.9309 337.575L56.3425 319.561L39.5683 309.554L37.3717 290.139L24.192 275.727L27.5868 256.513L19 238.899L27.5868 221.485L24.192 202.271L37.3717 187.859L39.5683 168.444L56.3425 158.437L63.9309 140.423L82.702 135.619L94.8833 120.407L114.453 121.008L130.429 109.999L149 116.004L167.571 109.999L183.547 121.008L203.117 120.407L215.298 135.619L234.069 140.423L241.657 158.437L258.432 168.444L260.628 187.859L273.808 202.271L270.413 221.485L279 238.899Z" fill="url(#paint0_linear)"/>
<path d="M191.401 345.599C250.274 322.181 279.016 255.472 255.599 196.599C232.182 137.726 165.472 108.983 106.599 132.401C47.726 155.818 18.9836 222.528 42.401 281.401C65.8184 340.274 132.528 369.016 191.401 345.599Z" fill="url(#paint1_linear)"/>
<path d="M149 312.999C189.869 312.999 223 279.868 223 238.999C223 198.13 189.869 164.999 149 164.999C108.131 164.999 75 198.13 75 238.999C75 279.868 108.131 312.999 149 312.999Z" fill="#EFC136"/>
<path d="M198.192 288.251C225.385 261.058 225.385 216.971 198.192 189.779C171 162.586 126.913 162.586 99.7204 189.779C72.5281 216.971 72.5281 261.058 99.7203 288.251C126.913 315.443 171 315.443 198.192 288.251Z" fill="#FFD34F"/>
<path d="M149.5 168.999C111.066 168.999 80 200.288 80 238.999H219C219 200.489 187.934 168.999 149.5 168.999Z" fill="#FFD34F"/>
<path d="M55 226.999L58.8 234.599L67 235.799L61 241.599L62.4 249.999L55 245.999L47.6 249.999L49 241.599L43 235.799L51.2 234.599L55 226.999Z" fill="#FFD34F"/>
<path d="M242.603 226.999L246.322 234.599L255 235.799L248.802 241.599L250.248 249.999L242.603 245.999L234.959 249.999L236.405 241.599L230 235.799L238.678 234.599L242.603 226.999Z" fill="#FFD34F"/>
<path d="M95.418 244.824C95.418 234.863 96.834 226.807 99.666 220.654C102.531 214.469 106.73 209.912 112.264 206.982C117.83 204.053 124.682 202.588 132.82 202.588C135.717 202.588 139.103 202.865 142.977 203.418V218.506C139.721 217.887 136.189 217.578 132.381 217.578C125.936 217.578 121.134 218.994 117.977 221.826C114.819 224.658 113.094 229.281 112.801 235.693H113.387C116.316 230.16 121.02 227.393 127.498 227.393C133.846 227.393 138.761 229.443 142.244 233.545C145.76 237.614 147.518 243.294 147.518 250.586C147.518 258.431 145.304 264.632 140.877 269.189C136.45 273.714 130.265 275.977 122.322 275.977C113.891 275.977 107.299 273.242 102.547 267.773C97.7943 262.305 95.418 254.655 95.418 244.824ZM121.883 260.693C123.934 260.693 125.594 259.928 126.863 258.398C128.165 256.836 128.816 254.362 128.816 250.977C128.816 245.182 126.57 242.285 122.078 242.285C119.865 242.285 118.058 243.034 116.658 244.531C115.291 246.029 114.607 247.852 114.607 250C114.607 253.125 115.275 255.697 116.609 257.715C117.944 259.701 119.702 260.693 121.883 260.693ZM200.672 239.404C200.672 252.035 198.556 261.296 194.324 267.188C190.092 273.047 183.615 275.977 174.891 275.977C166.362 275.977 159.933 272.917 155.604 266.797C151.274 260.645 149.109 251.514 149.109 239.404C149.109 226.709 151.225 217.399 155.457 211.475C159.689 205.55 166.167 202.588 174.891 202.588C183.387 202.588 189.799 205.68 194.129 211.865C198.491 218.018 200.672 227.197 200.672 239.404ZM168.299 239.404C168.299 247.477 168.803 253.027 169.812 256.055C170.822 259.082 172.514 260.596 174.891 260.596C177.299 260.596 178.992 259.033 179.969 255.908C180.978 252.783 181.482 247.282 181.482 239.404C181.482 231.494 180.978 225.96 179.969 222.803C178.96 219.613 177.267 218.018 174.891 218.018C172.514 218.018 170.822 219.548 169.812 222.607C168.803 225.667 168.299 231.266 168.299 239.404Z" fill="url(#paint2_linear)"/>
<path d="M170.739 89.7344L173.999 33.1911L160.173 66.9147L149.606 0.366699L139.939 66.9147L126.112 33.1911L128.135 89.7344C129.035 89.5096 170.739 89.7344 170.739 89.7344Z" fill="#ECB43B"/>
<path d="M134.543 74.2212C134.093 75.1205 133.418 75.9074 133.418 77.0315C133.418 78.4929 134.767 79.8418 136.341 79.2797C138.365 78.3804 137.578 74.3336 135.329 74.3336L134.543 74.2212Z" fill="#D6982B"/>
<path d="M162.084 74.5586C159.723 73.9965 159.049 78.8302 161.859 79.2799C164.669 79.8419 163.096 76.2448 162.309 75.1206L162.084 74.5586Z" fill="#D6982B"/>
<path d="M174 33.1908C169.504 44.5445 165.007 55.7857 160.398 67.1394C160.286 67.3642 160.173 67.3642 159.948 67.3642C159.836 67.3642 159.724 67.2518 159.724 67.1394L154.328 33.8653L148.932 0.591302H150.056L145.11 33.8653C143.536 44.9941 141.738 56.0105 140.164 67.1394C140.164 67.3642 139.939 67.4766 139.827 67.4766C139.714 67.4766 139.602 67.3642 139.602 67.2518C134.993 56.0106 130.609 44.6569 126 33.3033C130.721 44.5445 135.555 55.6733 140.164 66.9145L139.489 67.0269C141.063 55.8981 142.525 44.8817 144.211 33.7529L148.932 0.4789C148.932 0.141663 149.269 -0.0831713 149.607 0.0292409C149.831 0.0292409 150.056 0.254076 150.056 0.4789L155.227 33.7529L160.398 67.0269L159.724 66.9145C164.445 55.5609 169.279 44.4321 174 33.1908Z" fill="#BC7622"/>
<path d="M170.965 94.2307C170.965 91.7577 161.41 89.7342 149.495 89.7342C137.691 89.7342 128.024 91.7577 128.024 94.2307C128.024 94.2307 127.237 95.13 127.012 91.9825C126.787 88.8349 128.361 87.486 128.361 87.486C130.16 85.3502 138.928 83.7764 149.495 83.7764C159.162 83.7764 167.256 85.1253 169.954 86.9239C169.954 86.9239 172.539 88.6101 171.977 92.0949C171.415 95.8045 170.965 94.2307 170.965 94.2307Z" fill="#F3D15C"/>
<path d="M127.574 88.9469C127.687 88.7221 127.799 88.3848 127.912 88.16C128.024 87.9352 128.249 87.7104 128.361 87.4856C129.036 86.8111 129.823 86.3614 130.722 85.9118C131.621 85.5745 132.521 85.2373 133.42 85.0125C135.218 84.5628 137.017 84.2256 138.928 83.8883C139.827 83.7759 140.727 83.6635 141.738 83.5511C142.638 83.4387 143.537 83.3263 144.549 83.3263C145.448 83.3263 146.347 83.2139 147.359 83.2139C148.258 83.2139 149.158 83.2139 150.169 83.2139C151.968 83.2139 153.879 83.3263 155.678 83.4387C156.577 83.4387 157.476 83.5511 158.488 83.6635C159.387 83.7759 160.286 83.8884 161.298 84.0008C162.197 84.1132 163.097 84.338 163.996 84.5628C164.895 84.7877 165.795 85.0125 166.694 85.2373C167.144 85.3497 167.593 85.4621 168.043 85.6869C168.493 85.9118 168.942 86.0242 169.279 86.249C169.729 86.4738 170.066 86.6986 170.516 87.0359C170.853 87.3731 171.078 87.7103 171.415 88.16C171.078 87.8228 170.741 87.4855 170.404 87.2607C170.066 87.0359 169.617 86.8111 169.167 86.6987C168.717 86.4738 168.268 86.3614 167.818 86.249C167.368 86.1366 166.919 86.0242 166.469 85.9118C165.57 85.6869 164.671 85.4621 163.771 85.3497C162.872 85.2373 161.973 85.1249 161.073 85.0125C160.174 84.9001 159.275 84.7876 158.375 84.7876C157.476 84.6752 156.577 84.6752 155.678 84.5628L152.98 84.4504H150.169C146.572 84.4504 142.863 84.5628 139.153 84.9001C137.354 85.1249 135.556 85.3497 133.757 85.6869C132.858 85.9118 131.959 86.1366 131.059 86.3614C130.16 86.5863 129.373 87.0359 128.699 87.5979C128.474 87.7103 128.361 87.9352 128.137 88.16C127.799 88.3848 127.687 88.7221 127.574 88.9469Z" fill="#BC7622"/>
<path d="M170.965 94.2309C170.965 96.7039 161.41 98.7274 149.494 98.7274C137.691 98.7274 128.023 96.7039 128.023 94.2309C128.023 91.7578 137.578 89.7344 149.494 89.7344C161.41 89.7344 170.965 91.7578 170.965 94.2309Z" fill="#CE8A29"/>
<path d="M170.965 94.231C170.965 94.231 170.965 94.4558 170.853 94.6806C170.74 95.0178 170.403 95.3551 169.841 95.6923C168.829 96.3668 167.143 97.0413 165.007 97.6033C162.984 98.1654 160.511 98.615 157.813 98.8398C155.115 99.1771 152.304 99.2895 149.494 99.2895C146.684 99.2895 143.761 99.1771 141.176 98.8398C138.478 98.615 136.117 98.1654 133.981 97.6033C131.958 97.0413 130.272 96.4792 129.148 95.6923C128.585 95.3551 128.248 94.9054 128.136 94.6806C128.023 94.3434 128.023 94.231 128.023 94.231C128.023 94.231 128.023 94.4558 128.136 94.6806C128.248 95.0178 128.698 95.2426 129.148 95.5799C130.159 96.1419 131.958 96.5916 133.981 97.0413C136.005 97.4909 138.478 97.7157 141.176 97.9405C143.761 98.1654 146.571 98.2778 149.382 98.2778C152.192 98.2778 155.002 98.1654 157.588 97.9405C160.173 97.7157 162.646 97.4909 164.782 97.0413C166.806 96.5916 168.604 96.1419 169.616 95.5799C170.178 95.2426 170.515 95.0178 170.628 94.6806C170.965 94.4558 170.965 94.231 170.965 94.231Z" fill="#FFE18D"/>
<path d="M132.746 76.9194V77.0319C132.521 78.156 133.083 78.7181 134.207 79.0553C135.332 79.3925 136.231 78.4932 136.456 77.4815C135.332 77.9311 133.87 77.5939 132.746 76.9194Z" fill="#C9C7BC"/>
<g opacity="0.7">
<path opacity="0.7" d="M134.769 74.896C133.757 74.7836 132.97 75.9077 132.745 76.9194C133.869 77.5939 135.331 77.9311 136.455 77.4814V77.3691C136.792 76.1325 136.23 75.0084 134.769 74.896Z" fill="white"/>
</g>
<g opacity="0.7">
<path opacity="0.7" d="M164.782 76.3574C164.445 75.4581 163.771 74.7836 162.984 74.896C161.522 75.0085 160.96 76.1326 161.297 77.4815C161.41 77.9312 161.635 78.3808 161.972 78.7181C162.984 78.6056 163.995 77.5939 164.782 76.3574Z" fill="white"/>
</g>
<path d="M164.782 76.3574C163.995 77.594 163.096 78.6057 161.859 78.6057C162.309 79.0553 162.871 79.2802 163.545 79.0553C164.669 78.8305 165.231 78.156 165.007 77.0319C164.894 76.9195 164.894 76.5822 164.782 76.3574Z" fill="#C9C7BC"/>
<path d="M148.37 67.5889C148.482 68.2633 147.358 69.4999 146.796 70.1743C145.897 71.4109 143.761 73.2095 143.761 74.7832C143.649 76.5818 147.471 80.4039 149.044 81.6404C150.056 80.7411 150.843 79.5045 151.742 78.6053C152.417 77.9308 153.766 77.3687 153.766 76.357L148.37 67.5889Z" fill="#D6982B"/>
<path d="M148.258 77.369C149.495 77.5938 150.394 75.458 151.518 75.0083C152.081 74.6711 152.643 74.6711 153.205 74.6711L148.708 67.814C148.258 69.0505 146.01 72.3104 144.999 74.109C145.111 74.109 145.223 74.109 145.336 74.2214C146.572 74.8959 146.91 77.0318 148.258 77.369Z" fill="#F2D1D7"/>
<path d="M151.518 75.0086C150.394 75.4582 149.607 77.5941 148.259 77.3692C146.797 77.1444 146.572 75.0086 145.336 74.3341C145.223 74.3341 145.111 74.2217 144.999 74.2217C144.661 74.7837 144.437 75.2334 144.437 75.4582C144.437 75.683 146.685 78.3809 148.821 80.9664C150.507 79.5051 152.53 77.2568 153.542 75.3458L153.092 74.6713C152.643 74.6713 152.081 74.6713 151.518 75.0086Z" fill="#E2AFBA"/>
<path d="M148.821 69.9497C147.922 70.6242 146.798 73.5469 149.158 73.4345C151.182 73.3221 150.057 70.849 149.046 70.0621L148.821 69.9497Z" fill="#F9E4E8"/>
<defs>
<linearGradient id="paint0_linear" x1="149" y1="109.999" x2="149" y2="367.999" gradientUnits="userSpaceOnUse">
<stop stop-color="#FFC700"/>
<stop offset="1" stop-color="#FC9517"/>
</linearGradient>
<linearGradient id="paint1_linear" x1="80.6825" y1="107.787" x2="192.025" y2="380.26" gradientUnits="userSpaceOnUse">
<stop stop-color="#D91B24"/>
<stop offset="1" stop-color="#393C5A"/>
</linearGradient>
<linearGradient id="paint2_linear" x1="148.5" y1="168" x2="148.5" y2="304" gradientUnits="userSpaceOnUse">
<stop stop-color="#FFC700"/>
<stop offset="1" stop-color="#FF4070"/>
</linearGradient>
</defs>
</svg>
