<svg width="190" height="305" viewBox="0 0 190 305" fill="none" xmlns="http://www.w3.org/2000/svg">
<rect y="84.5273" width="114" height="174" rx="10" fill="url(#paint0_linear)"/>
<path d="M72.5137 204.527L68.998 191.148H45.8047L42.1914 204.527H21L44.291 132.848H70.0234L93.6074 204.527H72.5137ZM64.9941 175.328L61.918 163.609C61.2018 161.005 60.3229 157.636 59.2812 153.502C58.2721 149.368 57.6048 146.406 57.2793 144.615C56.9863 146.275 56.4004 149.01 55.5215 152.818C54.6751 156.627 52.7708 164.13 49.8086 175.328H64.9941Z" fill="url(#paint1_linear)"/>
<rect x="80.54" y="104.527" width="114" height="174" rx="10" transform="rotate(17.23 80.54 104.527)" fill="url(#paint2_linear)"/>
<path d="M114.254 240.622L114.859 226.802L92.707 219.932L85.2929 231.64L65.0525 225.363L108.53 163.799L133.108 171.421L134.402 246.87L114.254 240.622ZM115.721 210.505L116.254 198.401C116.342 195.702 116.5 192.224 116.73 187.966C116.991 183.719 117.231 180.692 117.45 178.886C116.679 180.384 115.309 182.823 113.341 186.2C111.405 189.587 107.364 196.189 101.217 206.007L115.721 210.505Z" fill="url(#paint3_linear)"/>
<path d="M109.61 86.8673C105.986 86.6828 103.088 88.5666 99.5088 87.3644C96.2648 86.3817 93.9606 84.5112 90.3473 84.2429C86.6445 83.9617 83.5121 85.5553 79.8877 84.6881C76.4423 83.8468 73.6123 81.8146 70.111 81.3919C67.1465 81.0471 64.3274 81.6621 61.2847 81.9034C57.8839 82.0926 56.3738 81.1055 53.2976 79.5497C50.915 78.2652 48.5882 78.6103 46.1047 78.762C46.1379 81.9244 46.0706 83.7922 46.0706 83.7922L76.9453 88.2722L82.0463 89.0123L112.921 93.4923C112.921 93.4923 113.481 91.3546 114.387 87.9871C112.72 87.4893 111.143 87.0044 109.61 86.8673Z" fill="url(#paint4_linear)"/>
<path d="M105.774 52.8778C93.9222 46.3476 88.8615 18.475 88.8728 17.6715C88.681 18.4478 76.7925 43.6732 63.7333 46.5339C50.6854 49.3069 39.5571 26.4236 39.5571 26.4236C45.2847 39.0977 46.1052 66.3305 46.1943 77.7959C48.7881 77.6504 51.0436 77.275 53.4455 78.6216C56.5465 80.2527 58.0688 81.2876 61.4971 81.0891C64.5645 80.8363 67.3951 80.2793 70.3948 80.553C73.9245 80.9961 76.7774 83.1265 80.2506 84.0085C83.9043 84.9177 87.0734 83.1592 90.7948 83.5418C94.4485 83.7353 96.7714 85.6962 100.03 86.8143C103.639 88.0746 106.65 86.1133 110.214 86.2932C111.759 86.4368 113.36 86.8574 114.849 87.4399C117.973 76.0121 125.441 50.8353 134.024 40.589C134.103 40.6904 117.625 59.408 105.774 52.8778Z" fill="url(#paint5_linear)"/>
<path d="M82.7612 54.6417C82.5838 55.9755 79.8476 57.8426 78.7781 58.9556C76.2851 61.7647 76.0765 62.6407 78.4215 65.7929C79.05 66.6098 80.0907 68.484 80.8569 68.9584C82.5034 69.7424 82.9638 68.3592 83.8525 67.2198C84.4227 66.3965 85.6375 65.5765 85.5987 64.4831C85.7094 62.9582 84.0832 60.636 83.8205 59.1473L82.7612 54.6417Z" fill="#96BCBB"/>
<path d="M65.1608 59.5392C63.7979 59.4306 62.4105 61.5792 63.8239 62.69C66.1339 64.6551 68.2386 61.2547 65.4193 59.6674L65.1608 59.5392Z" fill="#96BCBB"/>
<path d="M54.1861 58.5602C52.8816 58.0078 50.9531 60.0783 52.1396 61.5181C54.0428 63.7863 56.6181 60.9961 54.5111 58.8791L54.1861 58.5602Z" fill="#96BCBB"/>
<path d="M100.201 63.7901C98.9752 63.3397 96.7495 64.1906 97.1326 66.1461C97.8012 69.4097 101.685 66.4491 100.797 64.1485L100.201 63.7901Z" fill="#96BCBB"/>
<path d="M111.135 66.4039C109.854 65.6742 107.625 67.2478 108.427 68.812C109.652 71.3422 112.912 68.9243 111.585 66.4696L111.135 66.4039Z" fill="#96BCBB"/>
<path d="M40.0012 26.5367C40.0012 26.5367 40.5127 27.513 41.5592 29.2886C42.6174 30.9758 44.1208 33.4493 46.2298 36.1915C48.3505 38.8453 51.0533 41.9446 54.5927 44.2644C56.3624 45.4243 58.4487 46.2698 60.6173 46.4961C61.6958 46.6535 62.8095 46.5455 63.8451 46.336C64.3297 46.1363 64.9823 46.0512 65.467 45.8514L66.233 45.6025L67.0107 45.2652C68.9728 44.2893 70.8021 42.9333 72.4635 41.4627C74.1248 39.992 75.6182 38.4067 76.9318 36.7951C79.649 33.5851 81.9168 30.3095 83.6764 27.4106C85.4361 24.5117 86.8556 22.1041 87.8215 20.3516C88.2986 19.5196 88.674 18.7629 88.9126 18.3469C89.1629 17.8425 89.288 17.5902 89.288 17.5902C89.288 17.5902 89.1629 17.8425 89.0024 18.36C88.7521 18.8645 88.4783 19.5458 88.0793 20.4794C87.2033 22.245 85.9518 24.7672 84.1804 27.7546C82.4207 30.6535 80.3209 34.0438 77.592 37.3423C76.2784 38.9538 74.7732 40.6276 73.1001 42.1867C71.4387 43.6574 69.5976 45.1018 67.534 46.1531L66.7562 46.4904L65.8886 46.8146C65.3023 47.0897 64.8412 47.1125 64.1768 47.2861C63.0514 47.4825 61.8478 47.5773 60.6677 47.4953C58.3193 47.2427 56.1549 46.2957 54.2953 45.1227C52.4358 43.9497 50.8929 42.4622 49.5297 41.001C48.1666 39.5398 46.9832 38.1048 45.9795 36.696C43.9722 33.8785 42.5586 31.4181 41.5121 29.6424C40.5009 27.6014 40.0012 26.5367 40.0012 26.5367Z" fill="#D5E2E0"/>
<path d="M89.0527 17.061C89.0527 17.061 89.1073 17.3395 89.2165 17.8964C89.3257 18.4533 89.5012 19.2002 89.7431 20.1372C90.2151 22.0995 90.8626 24.8087 91.8889 28.1141C92.9152 31.4196 94.254 35.1313 95.9287 39.0724C96.7719 40.9987 97.7948 42.9513 99.0093 44.8416C100.224 46.7319 101.63 48.56 103.262 50.0606C104.079 50.8109 104.997 51.4858 105.927 52.0723C106.958 52.5835 107.911 52.9931 109.068 53.2521C111.213 53.6553 113.44 53.4394 115.445 52.8303C119.455 51.6122 122.851 49.4932 125.595 47.4593C128.339 45.4253 130.419 43.5649 131.889 42.1565C133.347 40.8365 134.105 39.9554 134.105 39.9554C134.105 39.9554 133.437 40.8496 132.057 42.2712C130.677 43.6927 128.663 45.7431 126.009 47.7902C124.676 48.8579 123.164 49.8994 121.471 50.9147C119.779 51.93 117.919 52.8306 115.812 53.515C113.717 54.1109 111.388 54.4022 109.064 53.9727C107.895 53.8022 106.684 53.2648 105.743 52.7668C104.633 52.154 103.715 51.4791 102.821 50.6273C101.11 49.0251 99.7156 47.1086 98.5012 45.2183C97.2985 43.2395 96.2755 41.2869 95.444 39.2722C93.6795 35.318 92.544 31.4556 91.6075 28.1632C90.6711 24.8709 90.1252 22.0863 89.7548 20.0487C89.6146 19.0365 89.4391 18.2895 89.4198 17.7457C89.0175 17.3264 89.0527 17.061 89.0527 17.061Z" fill="#D5E2E0"/>
<path d="M117.903 82.8169C117.739 84.0143 116.359 84.7775 114.928 84.5746L46.3441 74.8472C44.824 74.6316 43.7902 73.526 43.9541 72.3286C44.1179 71.1312 45.4984 70.368 46.9291 70.5709L115.513 80.2983C116.932 80.5867 118.055 81.7051 117.903 82.8169Z" fill="#D5E2E0"/>
<path d="M116.222 94.8828C116.058 96.0802 114.678 96.8434 113.247 96.6405L44.6634 86.9131C43.1433 86.6975 42.1096 85.5919 42.2734 84.3945C42.4372 83.1971 43.8178 82.4339 45.2485 82.6368L113.832 92.3642C115.263 92.5671 116.386 93.6855 116.222 94.8828Z" fill="#D5E2E0"/>
<path d="M114.182 84.5122C114.182 84.5122 113.109 84.3619 111.22 84.1833C109.343 83.9202 106.739 83.6414 103.51 83.2749C100.292 82.8239 96.6156 82.3948 92.5816 81.9156C88.6487 81.3644 84.3582 80.7631 80.1454 80.2588C75.9443 79.6701 71.6539 79.0688 67.7326 78.4331C63.7997 77.8819 60.0572 77.2713 56.8511 76.7359C53.6332 76.2849 51.0528 75.8371 49.1874 75.4896C47.322 75.1421 46.2494 74.9917 46.2494 74.9917C46.2494 74.9917 47.322 75.1421 49.2108 75.3206C51.0879 75.5837 53.6917 75.8625 56.9213 76.229C60.1391 76.68 63.8156 77.1091 67.8496 77.5883C71.7825 78.1395 76.073 78.7408 80.2858 79.2451C84.4869 79.8339 88.7773 80.4351 92.6986 81.0708C96.6315 81.622 100.374 82.2326 103.58 82.768C106.798 83.219 109.378 83.6668 111.244 84.0143C113.109 84.3619 114.182 84.5122 114.182 84.5122Z" fill="#96BCBB"/>
<path d="M46.8598 70.6123C46.8598 70.6123 47.9324 70.7626 49.8211 70.9412C51.6982 71.2042 54.3915 71.4956 57.621 71.862C60.8389 72.313 64.6047 72.7546 68.6387 73.2338C72.661 73.7975 76.9515 74.3987 81.2537 74.9155C85.5441 75.5168 89.8346 76.118 93.8452 76.7662C97.8675 77.3299 101.61 77.9404 104.816 78.4759C108.034 78.9268 110.704 79.3871 112.569 79.7346C114.435 80.0821 115.507 80.2324 115.507 80.2324C115.507 80.2324 114.435 80.0821 112.546 79.9035C110.669 79.6405 107.976 79.3492 104.746 78.9827C101.528 78.5318 97.7623 78.0901 93.7283 77.6109C89.706 77.0472 85.4155 76.446 81.1133 75.9292C76.8228 75.328 72.5324 74.7267 68.5218 74.0785C64.4994 73.5149 60.757 72.9043 57.5508 72.3689C54.333 71.9179 51.6631 71.4577 49.7977 71.1102C47.9324 70.7626 46.8598 70.6123 46.8598 70.6123Z" fill="#96BCBB"/>
<path d="M47.0682 82.8497C47.0682 82.8497 48.1409 83.0001 49.9403 83.1661C51.728 83.4167 54.3318 83.6956 57.472 84.0496C60.6005 84.4881 64.1876 84.9047 68.0429 85.359C71.8864 85.8977 75.9981 86.474 80.2109 86.9784C84.3227 87.5547 88.4344 88.131 92.3556 88.7668C96.1992 89.3055 99.8523 89.9037 102.88 90.4142C106.008 90.8527 108.499 91.288 110.365 91.6356C112.141 91.9706 113.213 92.121 113.213 92.121C113.213 92.121 112.141 91.9706 110.341 91.8046C108.554 91.554 105.95 91.2751 102.81 90.9211C99.681 90.4826 96.0939 90.066 92.2387 89.6117C88.3951 89.073 84.2834 88.4967 80.0706 87.9923C75.9589 87.416 71.8472 86.8396 67.9259 86.2039C64.0823 85.6652 60.4292 85.067 57.4018 84.5565C54.2734 84.118 51.7823 83.6827 49.9169 83.3351C48.0515 82.9875 47.0682 82.8497 47.0682 82.8497Z" fill="#789694"/>
<path d="M38.0216 26.5123C39.9089 26.1693 41.186 22.6829 43.0734 21.622C43.4803 21.3245 43.8758 21.115 44.2714 20.9056C43.4691 19.2587 41.8756 18.0308 39.8866 17.7303C36.8127 17.2658 33.9647 19.3482 33.5803 22.3414C33.4334 23.4858 33.6594 24.5968 34.1792 25.5728C35.4901 26.1298 36.7897 26.7749 38.0216 26.5123Z" fill="url(#paint6_linear)"/>
<path d="M43.0317 21.6457C41.236 22.7192 39.8807 26.1006 37.9835 26.5312C36.7526 26.7935 35.4426 26.237 34.1439 25.5926C34.957 27.1499 36.5492 28.3766 38.4464 28.6631C41.5181 29.1272 44.364 27.0468 44.7481 24.0566C44.8837 23.0013 44.6579 21.8914 44.2175 21.018C43.8335 21.1393 43.4382 21.3485 43.0317 21.6457Z" fill="url(#paint7_linear)"/>
<path d="M38.3989 19.3615L38.2971 19.4359C37.6979 19.7943 37.3361 20.4579 37.6753 21.407C38.2065 23.0137 40.7616 22.5019 41.1347 21.032C41.4287 19.4603 39.6764 18.7465 38.3989 19.3615Z" fill="url(#paint8_linear)"/>
<path d="M88.7 14.7994C87.0554 13.3016 85.9402 11.9729 84.4307 11.5667C84.2955 11.9034 84.1491 12.3277 84.0927 12.7655C83.6983 15.8305 85.9061 18.663 89.0603 19.1387C91.4934 19.5056 93.7577 18.3294 94.8392 16.35C92.8115 17.1155 90.7388 16.8029 88.7 14.7994Z" fill="url(#paint9_linear)"/>
<path d="M90.5157 8.10614C87.8082 7.69733 85.315 9.20072 84.4575 11.5777C85.9692 11.985 87.0973 13.2295 88.733 14.8192C90.7748 16.8283 92.8505 17.1418 94.8811 16.3742C95.2309 15.8004 95.4001 15.1993 95.4904 14.4968C95.7951 11.4097 93.5841 8.56945 90.5157 8.10614Z" fill="url(#paint10_linear)"/>
<path d="M90.6117 9.51647C89.4814 9.7047 88.758 11.0315 89.9108 12.1032C92.3973 14.2741 94.2512 9.8869 91.1542 9.59845L90.6117 9.51647Z" fill="url(#paint11_linear)"/>
<path d="M81.5765 64.376C82.9025 64.8464 84.0928 62.7756 85.2375 62.4984C85.9062 62.3294 86.5522 62.337 87.0963 62.4191L83.2889 54.6422C82.6654 55.8983 79.877 58.898 78.5507 60.5881C78.6414 60.6018 78.8114 60.7175 78.9021 60.7312C80.1714 61.6431 80.1598 63.8919 81.5765 64.376Z" fill="url(#paint12_linear)"/>
<path d="M85.25 62.5869C84.0997 62.9502 82.8363 64.907 81.6071 64.4531C80.1072 63.9583 80.1188 61.7231 78.946 60.8303C78.867 60.7289 78.7768 60.7153 78.5964 60.6881C78.1565 61.248 77.8294 61.6461 77.8068 61.8216C77.7843 61.9972 79.859 65.1736 81.6857 68.1336C83.5917 66.9001 86.0505 64.9447 87.4717 63.1906L87.0996 62.5081C86.5582 62.4264 85.9267 62.3311 85.25 62.5869Z" fill="url(#paint13_linear)"/>
<path d="M84.5135 60.9381C86.3196 59.8583 84.128 55.2895 82.5376 57.5741C81.5266 58.9543 82.2191 62.2147 84.5135 60.9381Z" fill="url(#paint14_linear)"/>
<g opacity="0.7">
<path opacity="0.7" d="M65.8161 59.3651C66.7338 59.4138 67.2436 60.4806 67.2209 61.3769C67.2888 62.2868 66.7789 62.6597 65.8386 62.7875C64.8982 62.9154 64.2752 62.0115 64.1959 61.1897C64.06 60.0895 64.6265 59.2754 65.8161 59.3651Z" fill="white"/>
</g>
<g opacity="0.7">
<path opacity="0.7" d="M53.5163 58.6419C54.3081 58.2225 55.2356 58.9017 55.7784 59.7023C56.3213 60.503 56.0611 61.0925 55.3485 61.6136C54.6246 62.2229 53.6632 61.8081 53.1203 61.0074C52.3965 60.1794 52.521 59.2101 53.5163 58.6419Z" fill="white"/>
</g>
<path d="M136.07 40.1768C134.341 39.2874 133.991 35.5551 132.443 33.975C132.126 33.5682 131.799 33.2495 131.471 32.9308C132.657 31.5845 134.5 30.8756 136.489 31.1762C139.563 31.6406 141.777 34.4881 141.393 37.4812C141.246 38.6256 140.749 39.6274 140.003 40.4121C138.602 40.5593 137.189 40.7946 136.07 40.1768Z" fill="url(#paint15_linear)"/>
<path d="M132.427 34.0249C133.884 35.5898 134.336 39.2443 136.052 40.2209C137.17 40.838 138.57 40.6909 139.982 40.4559C138.807 41.713 136.967 42.4211 135.069 42.1345C131.998 41.6705 129.785 38.8258 130.169 35.8355C130.304 34.7801 130.801 33.7792 131.445 33.0696C131.784 33.3001 132.111 33.6185 132.427 34.0249Z" fill="url(#paint16_linear)"/>
<path d="M137.662 32.6406C136.956 33.7977 136.41 36.6036 138.39 37.083C141.645 37.7547 139.278 33.065 138.277 32.1917L137.662 32.6406Z" fill="url(#paint17_linear)"/>
<g opacity="0.7">
<path opacity="0.7" d="M100.318 64.1742C99.4226 63.9489 98.6634 64.8241 98.4595 65.6932C98.1648 66.5486 98.5614 67.0585 99.4338 67.4604C100.306 67.8622 101.133 67.1773 101.417 66.4101C101.734 65.3782 101.485 64.4405 100.318 64.1742Z" fill="white"/>
</g>
<g opacity="0.7">
<path opacity="0.7" d="M112.349 66.861C111.693 66.2227 110.63 66.6011 109.906 67.2105C109.182 67.8198 109.284 68.4641 109.838 69.1768C110.471 69.9913 111.41 69.8637 112.134 69.2544C112.948 68.6587 113.163 67.7029 112.349 66.861Z" fill="white"/>
</g>
<defs>
<linearGradient id="paint0_linear" x1="57" y1="84.5273" x2="57" y2="258.527" gradientUnits="userSpaceOnUse">
<stop stop-color="#FFAA2E"/>
<stop offset="1" stop-color="#FC9517"/>
</linearGradient>
<linearGradient id="paint1_linear" x1="57.5" y1="97.5273" x2="57.5" y2="233.527" gradientUnits="userSpaceOnUse">
<stop stop-color="#FFC700"/>
<stop offset="1" stop-color="#FF4070"/>
</linearGradient>
<linearGradient id="paint2_linear" x1="137.54" y1="104.527" x2="137.54" y2="278.527" gradientUnits="userSpaceOnUse">
<stop stop-color="#FFC700"/>
<stop offset="1" stop-color="#FC9517"/>
</linearGradient>
<linearGradient id="paint3_linear" x1="131.609" y1="133.976" x2="91.3243" y2="263.873" gradientUnits="userSpaceOnUse">
<stop stop-color="#FFC700"/>
<stop offset="1" stop-color="#FF4070"/>
</linearGradient>
<linearGradient id="paint4_linear" x1="80.7655" y1="81.9247" x2="79.8547" y2="88.2018" gradientUnits="userSpaceOnUse">
<stop stop-color="#00A4ED"/>
<stop offset="1" stop-color="#0009E3"/>
</linearGradient>
<linearGradient id="paint5_linear" x1="90.2987" y1="9.73684" x2="79.8903" y2="78.7132" gradientUnits="userSpaceOnUse">
<stop stop-color="#00A4ED"/>
<stop offset="1" stop-color="#0009E3"/>
</linearGradient>
<linearGradient id="paint6_linear" x1="39.4346" y1="17.662" x2="38.0678" y2="26.7075" gradientUnits="userSpaceOnUse">
<stop stop-color="#FF1D1D"/>
<stop offset="1" stop-color="#FF4172"/>
</linearGradient>
<linearGradient id="paint7_linear" x1="40.0165" y1="20.3834" x2="38.7586" y2="28.7103" gradientUnits="userSpaceOnUse">
<stop stop-color="#FF1D1D"/>
<stop offset="1" stop-color="#FF4172"/>
</linearGradient>
<linearGradient id="paint8_linear" x1="39.5568" y1="19.1439" x2="39.0637" y2="22.4067" gradientUnits="userSpaceOnUse">
<stop stop-color="#FF1D1D"/>
<stop offset="1" stop-color="#FF4172"/>
</linearGradient>
<linearGradient id="paint9_linear" x1="89.7477" y1="12.3685" x2="88.7342" y2="19.0895" gradientUnits="userSpaceOnUse">
<stop stop-color="#FF1D1D"/>
<stop offset="1" stop-color="#FF4172"/>
</linearGradient>
<linearGradient id="paint10_linear" x1="90.6059" y1="8.11976" x2="89.3733" y2="16.2832" gradientUnits="userSpaceOnUse">
<stop stop-color="#FF1D1D"/>
<stop offset="1" stop-color="#FF4172"/>
</linearGradient>
<linearGradient id="paint11_linear" x1="91.2326" y1="9.60523" x2="90.7733" y2="12.6453" gradientUnits="userSpaceOnUse">
<stop stop-color="#FF1D1D"/>
<stop offset="1" stop-color="#FF4172"/>
</linearGradient>
<linearGradient id="paint12_linear" x1="83.6969" y1="54.7038" x2="82.2178" y2="64.4953" gradientUnits="userSpaceOnUse">
<stop stop-color="#FF1D1D"/>
<stop offset="1" stop-color="#FF4172"/>
</linearGradient>
<linearGradient id="paint13_linear" x1="82.7916" y1="61.3211" x2="81.7619" y2="68.1451" gradientUnits="userSpaceOnUse">
<stop stop-color="#FF1D1D"/>
<stop offset="1" stop-color="#FF4172"/>
</linearGradient>
<linearGradient id="paint14_linear" x1="83.9358" y1="56.998" x2="83.3004" y2="61.2067" gradientUnits="userSpaceOnUse">
<stop stop-color="#FF1D1D"/>
<stop offset="1" stop-color="#FF4172"/>
</linearGradient>
<linearGradient id="paint15_linear" x1="136.941" y1="31.2445" x2="135.574" y2="40.29" gradientUnits="userSpaceOnUse">
<stop stop-color="#FF1D1D"/>
<stop offset="1" stop-color="#FF4172"/>
</linearGradient>
<linearGradient id="paint16_linear" x1="135.646" y1="33.7042" x2="134.388" y2="42.0315" gradientUnits="userSpaceOnUse">
<stop stop-color="#FF1D1D"/>
<stop offset="1" stop-color="#FF4172"/>
</linearGradient>
<linearGradient id="paint17_linear" x1="138.94" y1="32.2919" x2="138.22" y2="37.0629" gradientUnits="userSpaceOnUse">
<stop stop-color="#FF1D1D"/>
<stop offset="1" stop-color="#FF4172"/>
</linearGradient>
</defs>
</svg>
