<svg width="222" height="376" viewBox="0 0 222 376" fill="none" xmlns="http://www.w3.org/2000/svg">
<path d="M124.974 180.986C126.006 176.575 130.418 173.837 134.829 174.869L209.897 192.439C214.307 193.471 217.046 197.883 216.013 202.294L187.229 325.277C186.197 329.688 181.785 332.426 177.374 331.394L102.306 313.824C97.8957 312.792 95.1571 308.38 96.1894 303.969L124.974 180.986Z" fill="url(#paint0_linear)"/>
<path d="M162.322 282.385L162.015 271.043L143.493 266.708L138.107 276.717L121.184 272.756L153.182 219.867L173.731 224.676L179.168 286.327L162.322 282.385ZM161.775 257.661L161.509 247.727C161.424 245.514 161.351 242.659 161.292 239.163C161.259 235.673 161.28 233.182 161.354 231.692C160.81 232.963 159.831 235.037 158.417 237.914C157.03 240.797 154.106 246.434 149.648 254.822L161.775 257.661Z" fill="url(#paint1_linear)"/>
<path d="M1.8687 204.75C0.836644 200.34 3.57547 195.928 7.98603 194.895L83.0548 177.33C87.4653 176.298 91.8774 179.036 92.9095 183.447L121.687 306.432C122.719 310.843 119.981 315.255 115.57 316.287L40.5014 333.852C36.0908 334.885 31.6787 332.146 30.6466 327.735L1.8687 204.75Z" fill="url(#paint2_linear)"/>
<path d="M80.334 279.046L75.0263 269.019L56.504 273.353L56.1186 284.712L39.1951 288.672L44.4006 227.076L64.9506 222.268L97.1796 275.104L80.334 279.046ZM68.8725 257.133L64.226 248.349C63.1674 246.403 61.8359 243.877 60.2315 240.77C58.6531 237.657 57.5666 235.416 56.9721 234.047C57.0483 235.427 57.0914 237.721 57.1012 240.926C57.137 244.126 57.0183 250.474 56.7452 259.97L68.8725 257.133Z" fill="url(#paint3_linear)"/>
<rect x="77.0964" y="217.29" width="93.5" height="142.711" rx="10" fill="url(#paint4_linear)"/>
<path d="M136.57 315.711L133.687 304.738H114.664L111.701 315.711H94.3201L113.423 256.921H134.528L153.871 315.711H136.57ZM130.403 291.762L127.88 282.151C127.293 280.015 126.572 277.252 125.717 273.861C124.89 270.47 124.342 268.041 124.075 266.572C123.835 267.934 123.355 270.177 122.634 273.3C121.94 276.424 120.378 282.578 117.948 291.762H130.403Z" fill="url(#paint5_linear)"/>
<path d="M117.771 0C111.865 0 106.972 4.8936 106.972 10.7997C106.972 12.9933 107.647 14.8495 108.659 16.537C108.997 16.3682 109.334 16.0307 109.84 15.862C113.553 14.1746 115.071 17.0432 118.446 17.7182C121.652 18.3932 124.352 16.0307 127.39 15.862C128.233 14.3433 128.571 12.6558 128.571 10.7997C128.571 4.72485 123.677 0 117.771 0Z" fill="#EBB33A"/>
<path d="M118.446 17.7195C115.071 17.0446 113.553 14.3446 109.84 15.8633C109.503 16.0321 109.165 16.2008 108.659 16.5383C110.515 19.5757 113.89 21.6007 117.771 21.6007C121.99 21.6007 125.533 19.2382 127.221 15.8633C124.183 15.8633 121.652 18.2258 118.446 17.7195Z" fill="#CE8A29"/>
<g opacity="0.4">
<path opacity="0.4" d="M117.941 1.85653C116.928 1.68778 116.422 3.03774 117.097 4.3877C117.941 5.73765 122.328 7.08762 123.847 6.41264C127.728 3.88147 121.147 1.85653 119.291 1.51904L117.941 1.85653Z" fill="#FFE18D"/>
</g>
<path d="M108.321 8.10059C110.008 8.43808 111.021 11.813 109.839 12.9942C107.308 15.3566 107.308 10.1255 107.646 8.77557L108.321 8.10059Z" fill="#FFA300"/>
<path d="M112.708 8.94434C111.696 9.28183 111.021 11.138 111.696 12.488C112.371 14.0067 114.227 14.6816 115.071 12.8255C115.746 11.138 114.227 10.463 113.215 9.45056L112.708 8.94434Z" fill="#FFA300"/>
<path d="M119.459 9.11279C117.603 8.94405 117.097 10.6315 117.603 11.9814C119.628 15.6938 122.665 10.6315 119.122 9.45028L119.459 9.11279Z" fill="#FFA300"/>
<path d="M126.883 8.94393C126.546 8.26895 124.69 9.45016 124.521 10.9689C124.183 14.3438 129.583 13.5 127.052 9.61891L126.883 8.94393Z" fill="#FFA300"/>
<path d="M169.068 35.2696C163.33 33.2446 157.593 32.7384 152.362 33.0759C160.462 37.9695 165.693 45.9005 166.705 55.8564C167.212 63.4499 166.199 71.8872 163.162 78.8057C161.474 83.3618 160.124 89.0991 157.762 93.824C158.437 93.9927 159.112 94.1615 159.787 94.1615C163.837 94.4989 167.887 93.824 171.936 93.149C179.699 83.6993 180.711 70.8747 180.711 58.3876C180.542 53.3253 176.493 42.5256 169.068 35.2696Z" fill="url(#paint6_linear)"/>
<path d="M180.036 41.007C176.324 38.4758 172.78 36.6196 169.068 35.2696C176.492 42.6944 180.542 53.3253 180.542 58.3876C180.542 70.8747 179.53 83.6993 171.767 93.149C167.718 93.824 163.668 94.499 159.618 94.1615C158.943 94.1615 158.268 93.9928 157.593 93.824C159.955 89.0992 161.305 83.3619 162.993 78.8058C165.861 71.8872 167.043 63.45 166.536 55.8565C165.693 45.9005 160.293 37.9695 152.193 33.076C147.806 33.4134 143.756 34.2572 139.875 35.4384C147.468 40.332 149.662 48.938 150.843 57.8814C152.024 68.5123 152.362 79.6495 148.649 89.7742C143.756 86.7368 138.862 83.5306 133.294 84.3743C135.656 77.962 136.837 71.7185 137.006 64.6312C137.512 54.5065 138.187 46.913 135.319 37.1258C126.375 40.6695 119.794 45.5631 117.263 47.4192C115.575 46.0693 108.994 41.007 99.7135 37.1258C97.3511 45.7318 98.5323 53.4941 99.2073 62.6063C100.051 71.5497 101.401 80.6619 104.27 89.4367C104.101 89.2679 103.932 89.2679 103.595 89.0992C99.5447 87.243 93.9762 86.7368 90.2638 88.9304C82.839 73.5747 80.4766 47.2505 92.2887 34.7634C87.9014 33.5822 83.1765 32.9072 78.2829 33.076C72.3769 38.6445 70.5207 49.4442 70.6894 57.2064C70.6894 64.7999 73.2206 72.056 75.583 78.9745C76.4267 81.8431 77.7767 89.2679 79.2954 93.6553C78.4517 93.3178 77.4392 92.9803 76.4267 92.6428C72.3769 90.9554 68.8332 93.4865 64.7834 92.1366C59.5523 90.1116 57.5273 78.1308 56.3461 73.2372C54.8274 65.6437 55.8399 58.3877 57.5273 50.9629C59.046 44.8881 61.2397 40.5007 64.2771 35.9446C61.071 37.1258 57.8648 38.982 54.6587 41.1757C54.6587 41.1757 33.0594 72.5622 69.3395 106.48C69.3395 106.48 77.1017 112.892 79.8016 106.48C82.5015 100.068 84.5265 100.068 84.5265 100.068C84.5265 100.068 104.776 122.848 116.925 99.0551V94.499L117.094 85.893L117.263 94.499L117.432 99.0551C129.581 122.848 149.831 100.068 149.831 100.068C149.831 100.068 151.856 100.068 154.555 106.48C157.255 112.892 165.018 106.48 165.018 106.48C170.08 101.586 174.299 97.0302 177.505 92.6428C200.623 61.0876 180.036 41.007 180.036 41.007ZM89.4201 89.4367C89.2513 89.4367 89.2513 89.6054 89.0826 89.6054C89.2513 89.6054 89.2513 89.4367 89.4201 89.4367ZM79.4641 93.6553C79.9704 93.824 80.3079 93.9928 80.6454 93.9928C80.3079 93.824 79.9704 93.824 79.4641 93.6553ZM82.1641 94.1615C82.3328 94.1615 82.5015 94.1615 82.5015 94.1615C82.5015 94.1615 82.3328 94.1615 82.1641 94.1615ZM81.1516 94.1615C81.3203 94.1615 81.4891 94.1615 81.6578 94.1615C81.4891 94.1615 81.3203 94.1615 81.1516 94.1615ZM83.8515 93.9928C83.6828 93.9928 83.6828 93.9928 83.514 93.9928C83.6828 94.1615 83.8515 93.9928 83.8515 93.9928ZM84.6952 93.824C84.864 93.824 84.864 93.824 85.0327 93.6553C84.864 93.6553 84.6952 93.824 84.6952 93.824ZM88.4076 90.4491C88.2389 90.6179 88.2389 90.6179 88.0701 90.7866C88.2389 90.6179 88.2389 90.4491 88.4076 90.4491ZM87.5639 91.6303C87.5639 91.7991 87.3951 91.7991 87.3951 91.9678C87.3951 91.7991 87.3951 91.7991 87.5639 91.6303ZM150.843 90.7866C152.193 91.6303 153.712 92.3053 155.23 92.8116C153.712 92.3053 152.362 91.6303 150.843 90.7866ZM155.399 92.9803C156.074 93.3178 156.918 93.4865 157.593 93.6553C156.749 93.4865 156.074 93.149 155.399 92.9803Z" fill="url(#paint7_linear)"/>
<path d="M117.602 94.3296L117.433 85.7236L117.265 94.3296C112.202 95.342 108.49 91.4609 104.44 89.0985C104.44 89.436 104.609 89.6047 104.609 89.9422C107.14 98.7169 115.071 96.692 122.327 94.8358C128.064 93.3171 129.583 92.4734 132.114 87.0735C132.452 86.0611 132.958 85.0486 133.295 84.0361C131.439 84.2049 129.752 84.8799 127.727 86.0611C124.183 88.4235 122.158 92.9796 117.602 94.3296Z" fill="url(#paint8_linear)"/>
<path d="M99.8829 36.9565C97.5205 35.944 95.1581 35.1003 92.4582 34.4253C80.6461 46.9124 82.8397 73.2366 90.4332 88.5923C94.3144 86.3986 99.7142 86.9049 103.764 88.7611C103.933 88.9298 104.102 88.9298 104.439 89.0985C101.739 80.3238 100.22 71.3804 99.3767 62.2682C98.7017 53.3247 97.5205 45.5624 99.8829 36.9565Z" fill="url(#paint9_linear)"/>
<path d="M150.844 57.7121C149.663 48.7686 147.469 40.3314 139.876 35.269C138.357 35.7753 136.838 36.2815 135.488 36.7877C138.357 46.5749 137.851 54.1684 137.176 64.2931C137.007 71.3804 135.826 77.4552 133.463 84.0362C138.863 83.3613 143.757 86.5674 148.819 89.4361C152.363 79.4801 152.025 68.343 150.844 57.7121Z" fill="url(#paint10_linear)"/>
<path d="M70.6908 57.2055C70.5221 49.4432 72.3782 38.6436 78.4531 32.9062C73.8969 33.075 69.1721 33.9187 64.4473 35.7749C61.4099 40.331 59.2162 44.7184 57.6975 50.7932C56.01 58.3867 54.9976 65.6427 56.5163 73.0675C57.6975 77.9611 59.7224 89.9419 64.9535 91.9669C69.0034 93.4856 72.547 90.7856 76.5969 92.4731C77.6093 92.8106 78.6218 93.3168 79.4655 93.4856C77.7781 88.9295 76.5969 81.6735 75.7531 78.8048C73.3907 71.8863 70.6908 64.6302 70.6908 57.2055Z" fill="url(#paint11_linear)"/>
<path d="M103.596 34.4248L96.8457 31.8936C87.5648 27.3375 78.6213 28.1813 78.6213 28.1813C77.9463 28.1813 77.4401 28.1813 76.9339 28.1813C67.8217 31.5562 64.1093 42.0183 63.6031 50.9618C62.9281 65.8113 66.9779 81.6733 73.2215 95.0041C74.9089 99.2227 77.6089 103.273 79.9713 107.154C84.6961 104.791 88.2398 99.8977 88.2398 99.8977C81.6587 84.7107 78.6213 74.9235 79.6338 58.724C79.9713 49.1056 80.9837 36.6185 91.9521 33.5811C93.4708 32.9061 97.8582 33.4123 101.233 34.0873L103.596 34.4248Z" fill="#ECB43C"/>
<path d="M45.0418 71.041C47.573 87.4092 66.1349 106.14 73.7284 108.165C71.8722 106.646 70.1848 104.959 68.4973 103.102C57.5289 89.9404 51.6229 76.272 51.9604 58.7226C52.2979 46.0668 62.2538 29.8673 76.7658 28.0111C50.4417 26.6611 42.5107 55.5165 45.0418 71.041Z" fill="#ECB43C"/>
<path d="M62.2549 129.765C62.2549 132.128 64.6173 134.152 67.3172 134.152H168.395C171.264 134.152 173.458 132.296 173.458 129.765V104.285C173.458 97.8724 171.095 99.8973 168.395 99.8973H67.3172C64.4486 99.8973 62.2549 96.8599 62.2549 104.285V129.765Z" fill="#ECB43C"/>
<path d="M132.283 34.5919L138.358 31.7232C147.639 27.1671 156.583 28.0108 156.583 28.0108C157.258 28.0108 159.789 28.0108 160.464 28.0108C169.576 31.3857 171.095 41.8479 171.77 50.7914C172.445 65.6409 168.395 81.5029 162.151 94.8337C160.464 99.0523 157.764 103.102 155.401 106.983C150.677 104.621 147.133 99.7273 147.133 99.7273C153.714 84.5403 156.751 74.7531 155.739 58.5536C155.401 48.9352 154.389 36.4481 143.421 33.4107C141.902 32.7357 137.515 33.2419 134.14 33.9169L132.283 34.5919Z" fill="#ECB43C"/>
<path d="M192.186 71.0414C189.486 87.4096 171.093 106.14 163.499 108.165C165.356 106.646 167.043 104.959 168.73 103.103C179.699 89.9408 185.605 76.2725 185.267 58.723C184.93 46.0672 181.724 30.8802 160.462 28.0115C192.523 26.3241 194.548 55.5169 192.186 71.0414Z" fill="#ECB43C"/>
<path d="M121.314 99.3909C126.714 85.8914 133.633 70.0294 133.633 55.3486C133.633 41.6803 133.633 24.2996 120.133 19.5747H114.902C101.403 24.2996 101.403 41.6803 101.403 55.3486C101.403 70.1981 104.946 85.5539 113.215 98.8847C113.383 98.8847 117.94 107.828 121.314 99.3909Z" fill="#ECB43C"/>
<path d="M168.395 99.8975C168.395 99.8975 168.732 100.066 169.407 100.066C170.082 100.066 171.094 100.235 172.276 99.8975C173.457 99.56 174.807 98.885 175.819 97.5351C176.326 96.8601 176.832 96.0164 177.169 95.1727C177.676 94.329 178.182 93.4852 178.688 92.4728C179.7 90.6166 180.713 88.5916 181.725 86.398C182.738 84.2043 183.75 81.8418 184.763 79.4794C185.775 76.9483 186.619 74.4171 187.463 71.8859C187.969 70.536 188.138 69.186 188.475 67.8361C188.644 66.4861 188.981 65.1361 189.15 63.7862C189.656 61.0863 189.488 58.2176 189.15 55.5177C188.813 52.8178 188.306 50.1179 187.631 47.5867C186.956 45.0555 186.113 42.6931 184.932 40.6682C183.75 38.6432 182.4 36.787 180.713 35.4371C180.038 34.7621 179.194 34.0871 178.35 33.5809C177.507 33.0747 176.832 32.5684 175.988 32.0622C175.313 31.7247 174.469 31.2185 173.963 30.881C173.288 30.5435 172.613 30.206 172.107 30.0373C170.926 29.531 170.082 29.1935 169.407 28.856C168.732 28.5185 168.395 28.5186 168.395 28.5186C168.395 28.5186 168.732 28.6873 169.407 28.856C170.082 29.0248 170.926 29.3623 172.107 29.8685C172.613 30.0373 173.288 30.3748 173.963 30.7122C174.638 31.0497 175.313 31.3872 176.157 31.7247C177.001 32.0622 177.675 32.5684 178.519 33.0747C179.363 33.5809 180.207 34.2559 181.05 34.9309C182.738 36.2808 184.425 38.137 185.607 40.1619C186.956 42.3556 187.969 44.718 188.644 47.4179C189.319 49.9491 189.825 52.8178 190.163 55.5177C190.5 58.3864 190.669 61.255 190.163 64.1237C189.994 65.6424 189.656 66.9923 189.488 68.3423C189.15 69.6922 188.813 71.0422 188.306 72.3922C187.463 75.0921 186.45 77.6232 185.438 80.1544C183.413 85.048 180.882 89.4354 178.688 93.1477C177.507 95.0039 176.663 96.6914 175.482 98.0413C174.301 99.3913 172.782 100.066 171.601 100.404C170.419 100.741 169.407 100.404 168.732 100.404C168.732 99.8975 168.395 99.8975 168.395 99.8975Z" fill="#BC7622"/>
<path d="M67.3164 99.8972C67.3164 99.8972 68.8351 99.8972 71.7038 99.7285C74.4037 99.7285 78.4536 99.5597 83.1784 99.391C87.9033 99.391 93.4718 99.2223 99.3779 99.0535C105.284 99.0535 111.696 99.0535 117.94 98.8848C124.183 98.8848 130.596 98.8848 136.502 99.0535C142.408 99.0535 147.976 99.2223 152.701 99.391C157.426 99.391 161.307 99.5597 164.176 99.7285C166.876 99.8972 168.563 99.8972 168.563 99.8972C168.563 99.8972 167.044 99.8972 164.176 100.066C161.476 100.066 157.426 100.235 152.701 100.403C147.976 100.403 142.408 100.572 136.502 100.741C130.596 100.741 124.183 100.741 117.94 100.91C111.696 100.91 105.284 100.91 99.3779 100.741C93.4718 100.741 87.9033 100.572 83.1784 100.403C78.4536 100.403 74.5724 100.235 71.7038 100.066C68.8351 99.8972 67.3164 99.8972 67.3164 99.8972Z" fill="#BC7622"/>
<path d="M56.0092 38.1372C56.0092 38.1372 55.503 39.1497 54.4905 40.6684C53.9843 41.5121 53.3093 42.5246 52.8031 43.7058C52.4656 44.3808 52.2968 44.887 51.9593 45.562C51.7906 45.8995 51.6218 46.2369 51.4531 46.5744C51.2844 46.9119 51.2844 47.2494 51.1156 47.7557C50.9469 48.5994 50.6094 49.2744 50.2719 50.1181C49.9344 50.9618 49.9344 51.8055 49.7657 52.818C49.2594 54.6742 49.2594 56.5304 49.0907 58.5553C49.0907 59.5678 49.0907 60.5802 49.0907 61.5927C49.0907 62.6052 49.2594 63.6177 49.2594 64.7989C49.4282 66.9925 49.9344 69.0175 50.2719 71.2112L51.1156 74.4173C51.4531 75.4298 51.7906 76.4422 52.1281 77.4547C52.8031 79.4796 53.478 81.5046 54.3218 83.3608C55.1655 85.217 55.8405 87.0731 56.6842 88.7606C57.5279 90.448 58.2029 92.1355 59.0466 93.4854C59.3841 94.1604 59.7216 95.0041 60.2278 95.5104C60.7341 96.0166 61.0715 96.6916 61.5778 97.0291C62.084 97.3666 62.5903 97.8728 62.9277 98.2103C63.434 98.5478 63.9402 98.7165 64.2777 98.8853C65.1214 99.2228 65.9651 99.3915 66.4714 99.3915C66.9776 99.3915 67.3151 99.3915 67.3151 99.3915C67.3151 99.3915 66.9776 99.3915 66.4714 99.3915C65.9651 99.3915 65.1214 99.3915 64.2777 99.054C63.7715 98.8853 63.2652 98.7165 62.759 98.379C62.2528 98.0415 61.7465 97.7041 61.2403 97.3666C60.7341 96.8603 60.2278 96.3541 59.7216 95.8479C59.2154 95.1729 58.8779 94.4979 58.3716 93.8229C57.5279 92.3042 56.6842 90.7855 55.8405 89.0981C54.9967 87.4106 53.9843 85.5544 53.1405 83.6983C52.2968 81.8421 51.4531 79.8171 50.7781 77.7922C50.4406 76.7797 50.1031 75.7673 49.7657 74.5861C49.4282 73.5736 49.2594 72.3924 48.9219 71.3799C48.4157 69.1862 48.0782 66.9925 47.9095 64.7989C47.7407 63.7864 47.7407 62.6052 47.7407 61.5927C47.7407 60.5802 47.7407 59.399 47.7407 58.3866C47.9095 56.3616 48.0782 54.3367 48.7532 52.4805C48.9219 51.468 49.0907 50.6243 49.4282 49.7806C49.7657 48.9369 50.1031 48.0931 50.2719 47.2494C50.7781 45.562 51.6218 44.3808 52.2968 43.1995C52.9718 42.0183 53.6468 41.0059 54.153 40.3309C55.3342 38.9809 56.0092 38.1372 56.0092 38.1372Z" fill="#BC7622"/>
<path d="M62.9282 129.595C62.9282 129.595 64.6157 129.595 67.6531 129.427C70.6905 129.427 75.0778 129.258 80.3089 129.089C85.54 129.089 91.6148 128.92 98.1959 128.752C104.777 128.752 111.695 128.752 118.614 128.583C125.532 128.583 132.451 128.583 139.032 128.752C145.613 128.752 151.688 128.921 156.919 129.089C162.15 129.089 166.537 129.258 169.575 129.427C172.612 129.595 174.3 129.595 174.3 129.595C174.3 129.595 172.612 129.595 169.575 129.764C166.537 129.764 162.15 129.933 156.919 130.102C151.688 130.102 145.613 130.27 139.032 130.439C132.451 130.439 125.532 130.439 118.614 130.608C111.695 130.608 104.777 130.608 98.1959 130.439C91.6148 130.439 85.54 130.27 80.3089 130.102C75.0778 130.102 70.6905 129.933 67.6531 129.764C64.6157 129.595 62.9282 129.595 62.9282 129.595Z" fill="#BC7622"/>
<path d="M89.5908 29.1931C89.5908 29.1931 88.2408 29.0243 86.0472 29.5305C84.8659 29.6993 83.6847 30.0368 82.166 30.7118C80.8161 31.3867 79.2974 32.3992 77.9474 33.5804C76.5975 34.9304 75.4162 36.6178 74.5725 38.474C74.235 39.4865 73.7288 40.499 73.56 41.6802C73.3913 42.1864 73.2226 42.8614 73.2226 43.3676C73.2226 43.8738 73.0538 44.5488 73.0538 45.0551C72.7163 47.4175 72.5476 49.7799 72.5476 52.3111C72.5476 54.8422 72.7163 57.3734 72.8851 59.9046C73.0538 62.4357 73.3913 64.9669 73.7288 67.4981C74.0663 70.0293 74.4038 72.3917 74.91 74.7541C75.4162 77.1165 75.7537 79.3102 76.26 81.5039C76.7662 83.6976 77.2724 85.7225 77.7787 87.5787C78.2849 89.4349 78.7911 91.1223 79.2974 92.641C79.8036 94.1597 80.3098 95.3409 80.6473 96.3534C80.9848 97.3659 81.4911 98.2096 81.6598 98.7159C81.9973 99.2221 81.9973 99.5596 81.9973 99.5596C81.9973 99.5596 81.8285 99.2221 81.4911 98.7159C81.1536 98.2096 80.6473 97.5346 80.1411 96.3534C79.6349 95.3409 79.1286 94.1597 78.4536 92.641C77.7787 91.1223 77.2724 89.6036 76.5975 87.7475C75.9225 85.8913 75.4162 83.8663 74.7413 81.6726C74.235 79.479 73.5601 77.2853 73.2226 74.9229C72.7163 72.5604 72.3788 70.0293 72.0414 67.4981C71.7039 64.9669 71.3664 62.4357 71.1976 59.7358C71.0289 57.2047 70.8601 54.5048 71.0289 51.9736C71.0289 49.4424 71.1976 46.7425 71.5351 44.3801C71.7039 43.7051 71.7039 43.1989 71.8726 42.5239C72.0413 42.0177 72.2101 41.3427 72.3788 40.8364C72.7163 39.6552 73.2226 38.6428 73.56 37.6303C74.5725 35.6054 75.9225 33.7492 77.4412 32.568C78.9599 31.218 80.4786 30.3743 81.9973 29.868C83.516 29.3618 84.8659 29.0243 86.0472 28.8556C87.2284 28.6868 88.0721 28.6868 88.7471 28.8556C89.2533 29.1931 89.5908 29.1931 89.5908 29.1931Z" fill="#BC7622"/>
<path d="M148.482 29.1943C148.482 29.1943 148.819 29.1943 149.325 29.1943C150 29.1943 150.844 29.1943 152.025 29.1943C153.207 29.3631 154.556 29.5318 156.075 30.2068C157.594 30.713 159.113 31.7255 160.631 32.9067C162.15 34.2567 163.331 35.9441 164.512 37.9691C164.85 38.9815 165.525 40.1627 165.694 41.1752C165.862 41.6814 166.031 42.3564 166.2 42.8626C166.369 43.5376 166.369 44.0439 166.537 44.7188C166.875 47.0813 167.044 49.7812 167.044 52.3123C167.044 54.8435 167.044 57.5434 166.875 60.0746C166.706 62.6058 166.369 65.3057 166.031 67.8369C165.694 70.368 165.187 72.8992 164.85 75.2616C164.344 77.624 163.837 79.9865 163.331 82.0114C162.656 84.2051 162.15 86.23 161.475 88.0862C160.969 89.9424 160.294 91.6298 159.619 92.9798C158.944 94.4985 158.438 95.6797 157.931 96.6922C157.425 97.7046 156.919 98.3796 156.581 99.0546C156.244 99.5608 156.075 99.8983 156.075 99.8983C156.075 99.8983 156.244 99.5608 156.413 99.0546C156.75 98.5484 157.088 97.7046 157.425 96.6922C157.931 95.6797 158.269 94.3298 158.775 92.9798C159.281 91.4611 159.788 89.7736 160.294 87.9175C160.8 86.0613 161.306 84.0363 161.813 81.8427C162.319 79.649 162.656 77.4553 163.162 75.0929C163.669 72.7305 164.006 70.1993 164.344 67.8369C164.681 65.3057 164.85 62.7745 165.187 60.2433C165.356 57.7122 165.525 55.181 165.525 52.6498C165.525 50.1187 165.356 47.7562 165.019 45.3938C164.85 44.8876 164.85 44.2126 164.85 43.7064C164.681 43.2001 164.512 42.5252 164.512 42.0189C164.344 40.8377 163.837 39.8252 163.5 38.8128C162.656 36.9566 161.475 35.1004 160.125 33.9192C158.775 32.5692 157.256 31.7255 155.906 31.0505C154.556 30.3755 153.207 30.0381 152.025 29.8693C149.832 29.1943 148.482 29.1943 148.482 29.1943Z" fill="#BC7622"/>
<path d="M101.233 34.087L103.595 34.4245V34.5932L96.6769 32.2308C95.1582 31.7246 93.8083 31.0496 92.2896 30.5433L90.0959 29.8684C89.4209 29.6996 88.5772 29.5309 87.7334 29.3621C87.0585 29.1934 86.2147 29.0247 85.371 29.0247C84.5273 28.8559 83.8523 28.8559 83.0086 28.8559C82.1649 28.8559 81.4899 28.6872 80.6462 28.6872C79.8024 28.6872 79.1275 28.6872 78.2837 28.6872H76.5963H76.9338C75.5838 29.1934 74.2339 29.8684 73.0527 30.7121C71.8714 31.5558 70.859 32.5683 69.8465 33.7495C68.834 34.9307 68.1591 36.1119 67.4841 37.4619C66.8091 38.8118 66.3029 40.1618 65.7966 41.5118C65.2904 42.8617 64.9529 44.3804 64.6154 45.8991C64.2779 47.4178 64.1092 48.9365 63.9404 50.2865C63.9404 51.6364 63.9405 53.3239 63.7717 54.8426C63.7717 56.3613 63.9404 57.88 63.9404 59.3987L64.1092 61.5924C64.1092 62.2673 64.2779 63.1111 64.4467 63.786C64.6154 65.3047 64.7842 66.8235 65.1217 68.3422L65.9654 72.8983L66.9779 77.2856C67.3153 78.8043 67.8216 80.1543 68.1591 81.673C68.4966 83.1917 69.0028 84.5416 69.509 86.0603C70.0153 87.579 70.5215 88.929 71.0277 90.4477L72.7152 94.6663L70.6902 90.4477C70.0153 89.0977 69.509 87.579 68.834 86.2291C68.1591 84.8791 67.6528 83.3604 67.1466 81.8417C66.6404 80.323 66.1341 78.9731 65.7966 77.4544L64.6154 73.067L63.603 68.5109C63.2655 66.9922 63.0967 65.4735 62.928 63.9548C62.7592 63.1111 62.7592 62.4361 62.5905 61.5924L62.4217 59.2299C62.253 57.7112 62.0843 56.1925 62.253 54.6738C62.253 53.1551 62.253 51.6364 62.253 49.949C62.4217 46.9116 63.0967 43.7054 64.1092 40.8368C64.6154 39.3181 65.2904 37.9681 65.9654 36.4494C66.8091 35.0995 67.4841 33.7495 68.4965 32.5683C69.509 31.3871 70.6902 30.2059 72.0402 29.3621C73.3902 28.3497 74.7401 27.6747 76.2588 27.1685C76.2588 27.1685 76.4276 27.1685 76.5963 27.1685L78.2837 27.3372H78.115C78.9587 27.3372 79.8024 27.3372 80.4774 27.3372C81.3211 27.3372 81.9961 27.506 82.8398 27.506C83.6836 27.506 84.3585 27.6747 85.2023 27.8434C86.046 28.0122 86.721 28.0122 87.5647 28.3497C88.4084 28.5184 89.0834 28.6872 89.9271 28.8559L92.1208 29.5309C92.9645 29.6996 93.6395 30.0371 94.3145 30.3746L96.5082 31.3871L103.258 34.087C103.258 34.087 103.258 34.087 103.258 34.2557C103.258 34.2557 103.258 34.2557 103.089 34.2557L101.233 34.087Z" fill="#FFE18D"/>
<path d="M133.802 34.087L132.115 34.762C132.115 34.762 132.115 34.762 131.946 34.762C131.946 34.762 131.946 34.762 131.946 34.5932L137.683 31.7246C138.696 31.2183 139.708 30.8808 140.552 30.3746C141.058 30.2059 141.564 29.8684 142.071 29.6996L143.589 29.1934C144.096 29.0247 144.602 28.8559 145.108 28.6872L146.627 28.3497C147.639 28.0122 148.821 27.8434 149.833 27.6747C150.845 27.506 152.027 27.3372 153.039 27.3372C154.052 27.3372 155.233 27.1685 156.245 27.3372H156.077L159.958 27.1685C160.126 27.1685 160.126 27.1685 160.126 27.1685C161.476 27.6747 162.826 28.3497 164.008 29.3621C165.189 30.2059 166.201 31.3871 167.045 32.5683C167.889 33.7495 168.564 35.0995 169.239 36.4494C169.745 37.7994 170.251 39.1493 170.589 40.4993C171.264 43.3679 171.601 46.2366 171.77 48.9365C171.77 49.6115 171.939 50.2865 171.939 51.1302V53.3239C171.939 54.6738 171.939 56.1925 171.77 57.5425C171.601 58.8924 171.601 60.4112 171.432 61.7611C171.264 63.1111 171.095 64.6298 170.926 65.9797L170.082 70.1983C169.745 71.5483 169.407 72.8983 169.07 74.417C168.732 75.7669 168.395 77.1169 167.889 78.4668C167.551 79.8168 167.045 81.1667 166.539 82.5167C166.032 83.8667 165.526 85.2166 165.02 86.3978L163.333 90.279L164.682 86.2291C165.189 84.8791 165.526 83.5292 165.864 82.1792C166.37 80.8293 166.707 79.4793 167.045 78.1293C167.382 76.7794 167.72 75.4294 168.057 74.0795C168.395 72.7295 168.732 71.3796 168.901 70.0296L169.576 65.811L170.082 61.5924C170.251 60.2424 170.251 58.8925 170.42 57.3737C170.589 56.0238 170.589 54.5051 170.42 53.1551V50.9615C170.42 50.2865 170.251 49.6115 170.251 48.9365C170.082 47.5866 169.914 46.2366 169.745 44.7179C169.576 43.3679 169.239 42.018 168.901 40.668C168.564 39.3181 168.226 37.9681 167.72 36.7869C167.214 35.437 166.539 34.2557 165.864 33.2433C165.02 32.2308 164.176 31.2183 163.164 30.3746C162.151 29.5309 160.97 29.0247 159.62 28.3497H159.958H156.245C155.233 28.3497 154.22 28.3497 153.208 28.3497C152.195 28.3497 151.183 28.5184 150.002 28.5184C148.989 28.6872 147.977 28.6872 146.964 29.0247L145.446 29.3621C144.939 29.3621 144.433 29.6996 143.927 29.6996C142.914 30.0371 141.902 30.2059 140.89 30.7121C139.877 31.0496 138.865 31.5558 137.852 31.8933L131.946 34.4245V34.2557L133.802 34.087Z" fill="#FFE18D"/>
<path d="M126.208 87.0717C127.221 84.2031 128.233 81.1657 129.077 78.297C129.414 76.7783 129.92 75.4284 130.258 73.9097C130.595 72.391 131.102 70.8723 131.27 69.5223L131.777 67.3286L132.114 65.1349C132.452 63.6162 132.452 62.0975 132.62 60.5788C132.789 59.0601 132.789 57.5414 132.789 56.0227C132.789 54.504 132.789 52.9853 132.789 51.4666C132.789 48.4292 132.62 45.3918 132.283 42.3544C132.114 40.8357 131.945 39.317 131.608 37.7983C131.439 37.1233 131.27 36.2796 131.102 35.6046C130.933 34.9297 130.764 34.0859 130.595 33.411C130.258 31.8923 129.752 30.5423 129.077 29.1923C128.402 27.8424 127.727 26.6612 126.714 25.48C125.871 24.2987 124.689 23.2863 123.508 22.4426C122.833 22.1051 122.327 21.5988 121.652 21.2613L119.627 20.4176H119.796H114.565H114.733L113.046 21.0926L111.359 21.9363L109.84 22.9488C109.334 23.2863 108.996 23.7925 108.49 24.13C108.152 24.6362 107.646 24.9737 107.309 25.48C106.971 25.9862 106.465 26.4924 106.296 26.9987C105.959 27.5049 105.621 28.0111 105.284 28.5174C104.946 29.0236 104.778 29.5298 104.44 30.2048C103.934 31.386 103.596 32.5672 103.09 33.7484C102.753 34.9297 102.415 36.1109 102.246 37.4608C101.74 39.992 101.403 42.3544 101.234 44.8856C101.234 42.3544 101.403 39.8232 101.74 37.2921C101.909 36.1109 102.078 34.7609 102.415 33.5797C102.753 32.3985 103.09 31.0485 103.596 29.8673C103.765 29.1923 104.103 28.6861 104.44 28.1799C104.609 27.5049 105.115 26.9987 105.284 26.4924C105.621 25.9862 105.959 25.48 106.296 24.805C106.634 24.2988 107.14 23.7925 107.477 23.2863C107.984 22.78 108.49 22.4426 108.827 21.9363L110.346 20.7551L112.034 19.7426L113.89 18.8989H114.058H119.29H119.458L121.652 19.9114C122.327 20.2489 123.002 20.7551 123.677 21.0926C125.027 22.1051 126.208 23.1175 127.221 24.2987C128.233 25.48 129.077 26.8299 129.752 28.3486C130.427 29.6986 130.933 31.2173 131.439 32.736C131.608 33.411 131.777 34.2547 131.945 35.0984C132.114 35.9421 132.283 36.6171 132.452 37.4608C132.789 38.9795 132.789 40.4982 132.958 42.0169C133.295 45.0543 133.295 48.2605 133.295 51.2979C133.295 52.8166 133.295 54.3353 133.295 55.854C133.127 57.3727 133.127 58.8914 132.958 60.5788C132.789 62.0975 132.62 63.6162 132.283 65.1349L131.777 67.3286L131.27 69.5223C130.933 71.041 130.427 72.5597 130.089 73.9097C129.583 75.4284 129.077 76.7783 128.571 78.297C128.571 81.3344 127.389 84.2031 126.208 87.0717Z" fill="#FFE18D"/>
<g opacity="0.7">
<path opacity="0.7" d="M109.335 10.1251C108.997 9.28143 108.322 8.60645 107.479 8.60645C106.129 8.77519 105.454 9.78766 105.791 11.1376C105.96 11.6438 106.129 11.9813 106.466 12.3188C107.647 12.3188 108.66 11.3064 109.335 10.1251Z" fill="white"/>
</g>
<path d="M109.335 10.126C108.66 11.3072 107.648 12.3197 106.467 12.3197C106.804 12.8259 107.479 12.9946 108.154 12.8259C109.335 12.4884 109.842 11.9822 109.673 10.801C109.504 10.6322 109.504 10.2947 109.335 10.126Z" fill="#C9C7BC"/>
<g opacity="0.7">
<path opacity="0.7" d="M115.241 10.1251C114.903 9.28143 114.229 8.60645 113.385 8.60645C112.035 8.77519 111.36 9.78766 111.697 11.1376C111.866 11.6438 112.035 11.9813 112.372 12.3188C113.554 12.3188 114.566 11.3064 115.241 10.1251Z" fill="white"/>
</g>
<path d="M115.241 10.126C114.566 11.3072 113.553 12.3197 112.372 12.3197C112.71 12.8259 113.385 12.9946 114.06 12.8259C115.241 12.4884 115.747 11.9822 115.578 10.801C115.409 10.6322 115.409 10.2947 115.241 10.126Z" fill="#C9C7BC"/>
<g opacity="0.7">
<path opacity="0.7" d="M126.208 10.1247C126.545 9.28094 127.22 8.60596 128.064 8.60596C129.414 8.7747 130.089 9.78717 129.752 11.1371C129.583 11.6434 129.414 11.9809 129.077 12.3183C127.895 12.3183 126.883 11.3059 126.208 10.1247Z" fill="white"/>
</g>
<path d="M126.208 10.125C126.882 11.3062 127.895 12.3187 129.076 12.3187C128.739 12.8249 128.064 12.9937 127.389 12.8249C126.208 12.4874 125.701 11.9812 125.87 10.8C126.039 10.6312 126.039 10.2937 126.208 10.125Z" fill="#C9C7BC"/>
<g opacity="0.7">
<path opacity="0.7" d="M118.446 10.1247C118.783 9.28094 119.458 8.60596 120.302 8.60596C121.652 8.7747 122.327 9.78717 121.989 11.1371C121.821 11.6434 121.652 11.9809 121.314 12.3183C120.133 12.3183 119.121 11.3059 118.446 10.1247Z" fill="white"/>
</g>
<path d="M118.445 10.125C119.12 11.3062 120.133 12.3187 121.314 12.3187C120.976 12.8249 120.301 12.9937 119.627 12.8249C118.445 12.4874 117.939 11.9812 118.108 10.8C118.277 10.6312 118.277 10.2937 118.445 10.125Z" fill="#C9C7BC"/>
<path d="M71.7031 114.24C69.172 112.89 68.8345 117.615 68.8345 119.303C68.6657 123.353 68.3283 127.065 73.2218 127.065C76.5967 127.065 81.6591 127.74 82.3341 123.859C82.8403 121.834 82.8403 116.265 80.9841 115.084L71.7031 114.24Z" fill="#FFA300"/>
<path d="M96.0032 115.085C91.2783 116.097 93.3033 123.185 98.0281 123.185C100.559 123.185 102.415 121.16 101.741 118.46C101.066 115.76 98.5344 115.085 96.3407 114.916L96.0032 115.085Z" fill="#FFA300"/>
<path d="M113.214 114.24C108.827 114.578 110.345 125.715 113.552 126.559C115.408 127.065 121.145 126.052 123.001 125.209C124.689 124.027 126.039 117.615 123.339 116.434L113.214 114.24Z" fill="#FFA300"/>
<path d="M137.177 115.422C132.959 114.916 131.609 122.847 136.334 123.859C138.359 124.366 140.046 123.016 140.384 120.991C140.89 118.628 139.202 117.278 137.684 115.76L137.177 115.422Z" fill="#FFA300"/>
<path d="M162.32 113.565C161.476 113.397 160.126 113.903 158.776 114.24C157.595 114.409 154.726 114.072 153.714 114.746C152.026 115.928 152.701 123.521 154.389 125.209C155.57 126.39 163.501 127.065 164.851 125.715C166.032 124.365 165.694 116.096 164.176 114.578C164.176 114.578 164.176 114.578 164.007 114.578L162.32 113.565Z" fill="#FFA300"/>
<path d="M76.4282 123.014C73.8971 119.301 71.3659 117.951 68.8347 119.47V122.508C68.8347 124.026 70.1847 125.376 71.7034 125.376H78.2844C79.8031 125.376 81.1531 124.026 81.1531 122.508V120.82C79.8031 120.483 78.6219 121.158 76.4282 123.014Z" fill="#912A2D"/>
<path d="M78.1157 113.059H71.5347C70.016 113.059 68.666 114.409 68.666 115.927V119.471C71.3659 117.952 73.7284 119.302 76.2595 123.015C78.6219 121.158 79.8032 120.483 80.8156 120.821V115.927C80.9844 114.409 79.6344 113.059 78.1157 113.059Z" fill="#B22832"/>
<path d="M75.7528 114.409C72.8842 115.084 75.4153 118.627 77.609 118.121C80.4777 117.446 77.609 115.084 75.9216 114.746L75.7528 114.409Z" fill="#CE2C3F"/>
<path opacity="0.7" d="M100.221 117.109C99.5463 116.266 98.3651 115.759 97.1839 115.759C94.9902 115.759 93.3027 117.615 93.3027 119.64C93.3027 120.822 93.809 121.834 94.6527 122.678C96.8464 122.003 99.04 119.472 100.221 117.109Z" fill="white"/>
<path d="M100.221 117.11C99.04 119.472 96.8463 122.003 94.6526 122.678C95.3276 123.353 96.1713 123.691 97.1838 123.691C99.3774 123.691 101.065 121.835 101.065 119.81C101.065 118.629 100.727 117.785 100.221 117.11Z" fill="#C9C7BC"/>
<path d="M123.677 119.133V115.927C123.677 114.409 122.327 113.059 120.808 113.059H114.227C112.708 113.059 111.358 114.409 111.358 115.927V119.471V119.977C112.877 120.146 114.396 121.158 116.252 121.496C119.964 121.833 121.821 121.158 123.677 119.133Z" fill="#B22832"/>
<path d="M116.421 121.327C114.396 121.159 113.046 120.146 111.527 119.809V122.34C111.527 123.858 112.877 125.208 114.396 125.208H120.977C122.496 125.208 123.845 123.858 123.845 122.34V120.652V118.965C121.821 121.159 119.964 121.833 116.421 121.327Z" fill="#912A2D"/>
<path d="M117.265 114.411C114.902 114.579 112.371 115.592 112.878 117.279C113.553 120.317 116.59 116.435 117.602 116.267C118.109 116.267 122.833 118.629 121.315 115.423C120.809 114.411 119.121 114.242 117.265 114.411Z" fill="#CE2C3F"/>
<path d="M158.774 123.014C161.305 119.302 163.836 117.952 166.368 119.471V122.508C166.368 124.027 165.018 125.377 163.499 125.377H156.918C155.399 125.377 154.049 124.027 154.049 122.508V120.821C155.231 120.483 156.412 121.158 158.774 123.014Z" fill="#912A2D"/>
<path d="M156.918 113.059H163.499C165.018 113.059 166.368 114.409 166.368 115.928V119.471C163.668 117.953 161.305 119.303 158.774 123.015C156.412 121.159 155.23 120.484 154.218 120.821V115.928C154.218 114.409 155.399 113.059 156.918 113.059Z" fill="#B22832"/>
<path d="M159.112 114.915C157.255 114.409 155.905 118.121 159.28 117.783C162.318 117.277 164.343 113.902 159.955 114.746L159.112 114.915Z" fill="#CE2C3F"/>
<path opacity="0.7" d="M134.814 117.11C135.489 116.266 136.671 115.76 137.852 115.76C140.046 115.76 141.733 117.616 141.733 119.641C141.733 120.823 141.227 121.835 140.383 122.679C138.189 122.004 136.164 119.473 134.814 117.11Z" fill="white"/>
<path d="M134.814 117.11C135.996 119.472 138.189 122.003 140.383 122.678C139.708 123.353 138.864 123.691 137.852 123.691C135.658 123.691 133.971 121.835 133.971 119.81C133.971 118.629 134.308 117.785 134.814 117.11Z" fill="#C9C7BC"/>
<path d="M116.252 82.5174C113.214 81.5049 112.37 87.411 115.07 88.9297C119.626 91.2921 118.951 85.386 116.927 83.1923L116.252 82.5174Z" fill="#FFA300"/>
<path d="M115.746 64.2914C111.865 63.6165 113.046 69.185 115.409 70.1975C117.096 71.0412 118.615 70.8725 118.784 68.6788C118.952 66.8226 117.771 65.6414 116.59 64.2914H115.746Z" fill="#FFA300"/>
<path d="M115.747 47.754C112.541 47.2477 111.022 51.1289 113.384 53.66C114.734 55.01 116.591 55.01 117.772 53.3225C118.784 51.6351 117.603 50.4539 117.097 48.9352L115.747 47.754Z" fill="#FFA300"/>
<path d="M116.588 33.2437C116.251 32.9062 114.901 32.5687 114.226 33.2437C112.37 34.4249 113.889 36.6186 114.901 37.7998C118.951 42.0184 119.457 35.7749 117.095 33.4124L116.588 33.2437Z" fill="#FFA300"/>
<g opacity="0.7">
<path opacity="0.7" d="M119.795 34.7609C119.289 33.4109 118.277 32.3985 117.095 32.5672C114.902 32.736 114.058 34.4234 114.564 36.4483C114.733 37.1233 115.07 37.7983 115.577 38.3045C117.095 38.1358 118.614 36.6171 119.795 34.7609Z" fill="white"/>
</g>
<path d="M119.795 34.7607C118.614 36.6169 117.264 38.1356 115.407 38.1356C116.082 38.8106 116.926 39.1481 117.939 38.8106C119.626 38.4731 120.47 37.4607 120.132 35.7732C119.964 35.4357 119.795 35.0982 119.795 34.7607Z" fill="#C9C7BC"/>
<g opacity="0.7">
<path opacity="0.7" d="M119.121 49.9474C118.614 48.5975 117.602 47.585 116.421 47.7538C114.227 47.9225 113.383 49.6099 113.889 51.6349C114.058 52.3098 114.396 52.9848 114.902 53.4911C116.589 53.1536 118.108 51.6349 119.121 49.9474Z" fill="white"/>
</g>
<path d="M119.12 49.9468C117.939 51.803 116.589 53.3217 114.733 53.3217C115.408 53.9966 116.251 54.3341 117.264 53.9967C118.951 53.6592 119.795 52.6467 119.458 50.9593C119.458 50.6218 119.289 50.2843 119.12 49.9468Z" fill="#C9C7BC"/>
<g opacity="0.7">
<path opacity="0.7" d="M119.458 66.654C118.952 65.304 117.939 64.2915 116.758 64.4603C114.564 64.629 113.721 66.3165 114.227 68.3414C114.396 69.0164 114.733 69.6914 115.239 70.1976C116.927 69.8601 118.445 68.3414 119.458 66.654Z" fill="white"/>
</g>
<path d="M119.456 66.6538C118.275 68.51 116.925 70.0287 115.068 70.0287C115.743 70.7037 116.587 71.0412 117.6 70.7037C119.287 70.3662 120.131 69.3537 119.793 67.6663C119.793 67.3288 119.624 66.9913 119.456 66.6538Z" fill="#C9C7BC"/>
<g opacity="0.7">
<path opacity="0.7" d="M119.964 84.3722C119.458 83.0223 118.446 82.0098 117.264 82.1786C115.071 82.3473 114.227 84.0348 114.733 86.0597C114.902 86.7347 115.239 87.4096 115.746 87.9159C117.433 87.7471 118.783 86.2284 119.964 84.3722Z" fill="white"/>
</g>
<path d="M119.965 84.3716C118.784 86.2278 117.434 87.7465 115.578 87.7465C116.253 88.4215 117.096 88.7589 118.109 88.4214C119.796 88.084 120.64 87.0715 120.302 85.384C120.134 85.0465 120.134 84.7091 119.965 84.3716Z" fill="#C9C7BC"/>
<path d="M220.74 195.065C222.42 193.384 222.42 190.659 220.74 188.979L206.021 174.26C204.341 172.58 201.616 172.58 199.936 174.26L123.543 250.653C121.862 252.334 119.138 252.334 117.457 250.653L41.0645 174.26C39.3839 172.58 36.6591 172.58 34.9785 174.26L20.2604 188.979C18.5799 190.659 18.5799 193.384 20.2604 195.065L96.653 271.457C98.3336 273.138 98.3336 275.862 96.653 277.543L20.2604 353.936C18.5799 355.616 18.5799 358.341 20.2604 360.021L34.9785 374.74C36.6591 376.42 39.3839 376.42 41.0645 374.74L117.457 298.347C119.138 296.666 121.862 296.666 123.543 298.347L199.936 374.74C201.616 376.42 204.341 376.42 206.021 374.74L220.74 360.021C222.42 358.341 222.42 355.616 220.74 353.936L144.347 277.543C142.666 275.862 142.666 273.138 144.347 271.457L220.74 195.065Z" fill="url(#paint12_linear)"/>
<defs>
<linearGradient id="paint0_linear" x1="172.363" y1="183.654" x2="139.84" y2="322.609" gradientUnits="userSpaceOnUse">
<stop stop-color="#FFAA2E"/>
<stop offset="1" stop-color="#FC9517"/>
</linearGradient>
<linearGradient id="paint1_linear" x1="170.332" y1="194.129" x2="144.912" y2="302.738" gradientUnits="userSpaceOnUse">
<stop stop-color="#FFC700"/>
<stop offset="1" stop-color="#FF4070"/>
</linearGradient>
<linearGradient id="paint2_linear" x1="45.5204" y1="186.113" x2="78.0357" y2="325.07" gradientUnits="userSpaceOnUse">
<stop stop-color="#FFAA2E"/>
<stop offset="1" stop-color="#FC9517"/>
</linearGradient>
<linearGradient id="paint3_linear" x1="48.349" y1="196.401" x2="73.7632" y2="305.011" gradientUnits="userSpaceOnUse">
<stop stop-color="#FFC700"/>
<stop offset="1" stop-color="#FF4070"/>
</linearGradient>
<linearGradient id="paint4_linear" x1="123.846" y1="217.29" x2="123.846" y2="360" gradientUnits="userSpaceOnUse">
<stop stop-color="#FFC700"/>
<stop offset="1" stop-color="#FC9517"/>
</linearGradient>
<linearGradient id="paint5_linear" x1="124.256" y1="227.952" x2="124.256" y2="339.496" gradientUnits="userSpaceOnUse">
<stop stop-color="#FFC700"/>
<stop offset="1" stop-color="#FF4070"/>
</linearGradient>
<linearGradient id="paint6_linear" x1="164.685" y1="24.3139" x2="166.274" y2="102.888" gradientUnits="userSpaceOnUse">
<stop stop-color="#D91B24"/>
<stop offset="1" stop-color="#393C5A"/>
</linearGradient>
<linearGradient id="paint7_linear" x1="109.223" y1="22.1817" x2="109.728" y2="120.769" gradientUnits="userSpaceOnUse">
<stop stop-color="#D91B24"/>
<stop offset="1" stop-color="#393C5A"/>
</linearGradient>
<linearGradient id="paint8_linear" x1="116.983" y1="82.2802" x2="117.047" y2="98.2083" gradientUnits="userSpaceOnUse">
<stop stop-color="#D91B24"/>
<stop offset="1" stop-color="#393C5A"/>
</linearGradient>
<linearGradient id="paint9_linear" x1="92.98" y1="26.6929" x2="94.7485" y2="96.7894" gradientUnits="userSpaceOnUse">
<stop stop-color="#D91B24"/>
<stop offset="1" stop-color="#393C5A"/>
</linearGradient>
<linearGradient id="paint10_linear" x1="141.374" y1="27.6083" x2="143.308" y2="97.0461" gradientUnits="userSpaceOnUse">
<stop stop-color="#D91B24"/>
<stop offset="1" stop-color="#393C5A"/>
</linearGradient>
<linearGradient id="paint11_linear" x1="66.0714" y1="24.3386" x2="67.9291" y2="102.012" gradientUnits="userSpaceOnUse">
<stop stop-color="#D91B24"/>
<stop offset="1" stop-color="#393C5A"/>
</linearGradient>
<linearGradient id="paint12_linear" x1="107.243" y1="144.29" x2="109.679" y2="404.699" gradientUnits="userSpaceOnUse">
<stop stop-color="#D91B24"/>
<stop offset="1" stop-color="#393C5A"/>
</linearGradient>
</defs>
</svg>
