<svg width="349" height="23" viewBox="0 0 349 23" fill="none" xmlns="http://www.w3.org/2000/svg">
<path d="M11.9453 17H0.708984V15.2168L8.62598 3.49707H0.923828V1.29492H11.7305V3.09961L3.78125 14.7979H11.9453V17ZM21.8926 17L21.3877 15.3457H21.3018C20.7288 16.069 20.1523 16.5632 19.5723 16.8281C18.9922 17.0859 18.2474 17.2148 17.3379 17.2148C16.1706 17.2148 15.2575 16.8997 14.5986 16.2695C13.9469 15.6393 13.6211 14.7477 13.6211 13.5947C13.6211 12.3701 14.0758 11.4463 14.9854 10.8232C15.8949 10.2002 17.2806 9.86003 19.1426 9.80273L21.1943 9.73828V9.10449C21.1943 8.34538 21.0153 7.77962 20.6572 7.40723C20.3063 7.02767 19.7585 6.83789 19.0137 6.83789C18.4049 6.83789 17.8213 6.92741 17.2627 7.10645C16.7041 7.28548 16.167 7.49674 15.6514 7.74023L14.835 5.93555C15.4795 5.59896 16.1849 5.34473 16.9512 5.17285C17.7174 4.99382 18.4408 4.9043 19.1211 4.9043C20.6322 4.9043 21.7708 5.23372 22.5371 5.89258C23.3105 6.55143 23.6973 7.58626 23.6973 8.99707V17H21.8926ZM18.1328 15.2812C19.0495 15.2812 19.7835 15.027 20.335 14.5186C20.8936 14.0029 21.1729 13.2832 21.1729 12.3594V11.3281L19.6475 11.3926C18.4587 11.4355 17.5921 11.6361 17.0479 11.9941C16.5107 12.3451 16.2422 12.8857 16.2422 13.6162C16.2422 14.1462 16.3997 14.5579 16.7148 14.8516C17.0299 15.138 17.5026 15.2812 18.1328 15.2812ZM35.5996 17L35.2451 15.4424H35.1162C34.7653 15.9938 34.264 16.4271 33.6123 16.7422C32.9678 17.0573 32.2301 17.2148 31.3994 17.2148C29.96 17.2148 28.8857 16.8568 28.1768 16.1406C27.4678 15.4245 27.1133 14.3395 27.1133 12.8857V5.11914H29.6592V12.4453C29.6592 13.3548 29.8454 14.0387 30.2178 14.4971C30.5902 14.9482 31.1738 15.1738 31.9688 15.1738C33.0286 15.1738 33.8057 14.8587 34.2998 14.2285C34.8011 13.5911 35.0518 12.5277 35.0518 11.0381V5.11914H37.5869V17H35.5996ZM45.1924 17.2148C43.71 17.2148 42.5534 16.6777 41.7227 15.6035C40.8919 14.5293 40.4766 13.0218 40.4766 11.0811C40.4766 9.13314 40.8955 7.61849 41.7334 6.53711C42.5785 5.44857 43.7458 4.9043 45.2354 4.9043C46.7965 4.9043 47.9854 5.48079 48.8018 6.63379H48.9307C48.8089 5.78158 48.748 5.1084 48.748 4.61426V0.285156H51.2832V17H49.3066L48.8662 15.4424H48.748C47.9388 16.624 46.7536 17.2148 45.1924 17.2148ZM45.8691 15.1738C46.9076 15.1738 47.6631 14.8838 48.1357 14.3037C48.6084 13.7165 48.8519 12.7676 48.8662 11.457V11.1025C48.8662 9.60579 48.6227 8.54232 48.1357 7.91211C47.6488 7.2819 46.8861 6.9668 45.8477 6.9668C44.9596 6.9668 44.2757 7.32845 43.7959 8.05176C43.3161 8.7679 43.0762 9.79199 43.0762 11.124C43.0762 12.4417 43.3089 13.4479 43.7744 14.1426C44.2399 14.8301 44.9382 15.1738 45.8691 15.1738ZM60.0811 17.2148C58.2334 17.2148 56.7868 16.6777 55.7412 15.6035C54.7028 14.5221 54.1836 13.0361 54.1836 11.1455C54.1836 9.20475 54.667 7.67936 55.6338 6.56934C56.6006 5.45931 57.929 4.9043 59.6191 4.9043C61.1875 4.9043 62.4264 5.38053 63.3359 6.33301C64.2454 7.28548 64.7002 8.59603 64.7002 10.2646V11.6289H56.7832C56.819 12.7819 57.1305 13.6699 57.7178 14.293C58.305 14.9089 59.1322 15.2168 60.1992 15.2168C60.901 15.2168 61.5527 15.1523 62.1543 15.0234C62.763 14.8874 63.4147 14.6654 64.1094 14.3574V16.4092C63.4935 16.7028 62.8704 16.9105 62.2402 17.0322C61.61 17.154 60.8903 17.2148 60.0811 17.2148ZM59.6191 6.81641C58.8171 6.81641 58.1725 7.07064 57.6855 7.5791C57.2057 8.08757 56.9193 8.82878 56.8262 9.80273H62.2188C62.2044 8.82161 61.9681 8.0804 61.5098 7.5791C61.0514 7.07064 60.4212 6.81641 59.6191 6.81641ZM56.2354 1.7998H63.0996V3.66895H56.2354V1.7998ZM66.3545 22.2852C65.5954 22.2852 64.9652 22.1956 64.4639 22.0166V20.0186C64.9508 20.1475 65.4486 20.2119 65.957 20.2119C67.0312 20.2119 67.5684 19.6032 67.5684 18.3857V5.11914H70.0928V18.5576C70.0928 19.7822 69.7705 20.7096 69.126 21.3398C68.4886 21.9701 67.5648 22.2852 66.3545 22.2852ZM67.418 1.97168C67.418 1.52051 67.5397 1.17318 67.7832 0.929688C68.0339 0.686198 68.3883 0.564453 68.8467 0.564453C69.2907 0.564453 69.6344 0.686198 69.8779 0.929688C70.1286 1.17318 70.2539 1.52051 70.2539 1.97168C70.2539 2.40137 70.1286 2.74154 69.8779 2.99219C69.6344 3.23568 69.2907 3.35742 68.8467 3.35742C68.3883 3.35742 68.0339 3.23568 67.7832 2.99219C67.5397 2.74154 67.418 2.40137 67.418 1.97168ZM82.0918 17L81.7373 15.4424H81.6084C81.2575 15.9938 80.7562 16.4271 80.1045 16.7422C79.46 17.0573 78.7223 17.2148 77.8916 17.2148C76.4521 17.2148 75.3779 16.8568 74.6689 16.1406C73.96 15.4245 73.6055 14.3395 73.6055 12.8857V5.11914H76.1514V12.4453C76.1514 13.3548 76.3376 14.0387 76.71 14.4971C77.0824 14.9482 77.666 15.1738 78.4609 15.1738C79.5208 15.1738 80.2979 14.8587 80.792 14.2285C81.2933 13.5911 81.5439 12.5277 81.5439 11.0381V5.11914H84.0791V17H82.0918ZM97.6895 17H95.1543V9.67383C95.1543 8.76432 94.9824 8.08757 94.6387 7.64355C94.2949 7.19238 93.7578 6.9668 93.0273 6.9668C92.0534 6.9668 91.3372 7.28548 90.8789 7.92285C90.4277 8.55306 90.2021 9.60579 90.2021 11.0811V17H87.6777V5.11914H89.6543L90.0088 6.67676H90.1377C90.4671 6.111 90.9434 5.67415 91.5664 5.36621C92.1966 5.05827 92.8877 4.9043 93.6396 4.9043C95.4658 4.9043 96.6761 5.52734 97.2705 6.77344H97.4424C97.7933 6.1862 98.2874 5.72786 98.9248 5.39844C99.5622 5.06901 100.293 4.9043 101.116 4.9043C102.534 4.9043 103.565 5.26237 104.21 5.97852C104.862 6.69466 105.188 7.78678 105.188 9.25488V17H102.663V9.67383C102.663 8.76432 102.488 8.08757 102.137 7.64355C101.793 7.19238 101.256 6.9668 100.525 6.9668C99.5443 6.9668 98.8245 7.27474 98.3662 7.89062C97.915 8.49935 97.6895 9.4375 97.6895 10.7051V17ZM116.692 13.6162C116.692 14.7764 116.27 15.668 115.425 16.291C114.58 16.9069 113.369 17.2148 111.794 17.2148C110.211 17.2148 108.94 16.9749 107.98 16.4951V14.3145C109.377 14.959 110.677 15.2812 111.88 15.2812C113.434 15.2812 114.211 14.8122 114.211 13.874C114.211 13.5732 114.125 13.3226 113.953 13.1221C113.781 12.9215 113.498 12.7139 113.104 12.499C112.711 12.2842 112.163 12.0407 111.461 11.7686C110.093 11.2386 109.166 10.7087 108.679 10.1787C108.199 9.64876 107.959 8.96126 107.959 8.11621C107.959 7.09928 108.367 6.31152 109.184 5.75293C110.007 5.18717 111.124 4.9043 112.535 4.9043C113.932 4.9043 115.253 5.18717 116.499 5.75293L115.683 7.6543C114.401 7.12435 113.323 6.85938 112.449 6.85938C111.117 6.85938 110.451 7.23893 110.451 7.99805C110.451 8.37044 110.623 8.68555 110.967 8.94336C111.318 9.20117 112.077 9.55566 113.244 10.0068C114.225 10.3864 114.938 10.7337 115.382 11.0488C115.826 11.3639 116.155 11.7292 116.37 12.1445C116.585 12.5527 116.692 13.0433 116.692 13.6162ZM127.585 10.7266L129.014 8.94336L132.602 5.11914H135.513L130.732 10.2217L135.813 17H132.849L129.035 11.79L127.649 12.9287V17H125.146V0.285156H127.649V8.43848L127.521 10.7266H127.585ZM145.17 17L144.665 15.3457H144.579C144.006 16.069 143.43 16.5632 142.85 16.8281C142.27 17.0859 141.525 17.2148 140.615 17.2148C139.448 17.2148 138.535 16.8997 137.876 16.2695C137.224 15.6393 136.898 14.7477 136.898 13.5947C136.898 12.3701 137.353 11.4463 138.263 10.8232C139.172 10.2002 140.558 9.86003 142.42 9.80273L144.472 9.73828V9.10449C144.472 8.34538 144.293 7.77962 143.935 7.40723C143.584 7.02767 143.036 6.83789 142.291 6.83789C141.682 6.83789 141.099 6.92741 140.54 7.10645C139.981 7.28548 139.444 7.49674 138.929 7.74023L138.112 5.93555C138.757 5.59896 139.462 5.34473 140.229 5.17285C140.995 4.99382 141.718 4.9043 142.398 4.9043C143.91 4.9043 145.048 5.23372 145.814 5.89258C146.588 6.55143 146.975 7.58626 146.975 8.99707V17H145.17ZM141.41 15.2812C142.327 15.2812 143.061 15.027 143.612 14.5186C144.171 14.0029 144.45 13.2832 144.45 12.3594V11.3281L142.925 11.3926C141.736 11.4355 140.869 11.6361 140.325 11.9941C139.788 12.3451 139.52 12.8857 139.52 13.6162C139.52 14.1462 139.677 14.5579 139.992 14.8516C140.307 15.138 140.78 15.2812 141.41 15.2812ZM139.058 1.7998H145.922V3.66895H139.058V1.7998ZM156.481 17V1.29492H159.049V14.7979H165.698V17H156.481ZM170.661 17H168.137V5.11914H170.661V17ZM167.986 1.97168C167.986 1.52051 168.108 1.17318 168.352 0.929688C168.602 0.686198 168.957 0.564453 169.415 0.564453C169.859 0.564453 170.203 0.686198 170.446 0.929688C170.697 1.17318 170.822 1.52051 170.822 1.97168C170.822 2.40137 170.697 2.74154 170.446 2.99219C170.203 3.23568 169.859 3.35742 169.415 3.35742C168.957 3.35742 168.602 3.23568 168.352 2.99219C168.108 2.74154 167.986 2.40137 167.986 1.97168ZM179.47 17.2148C177.622 17.2148 176.175 16.6777 175.13 15.6035C174.091 14.5221 173.572 13.0361 173.572 11.1455C173.572 9.20475 174.056 7.67936 175.022 6.56934C175.989 5.45931 177.318 4.9043 179.008 4.9043C180.576 4.9043 181.815 5.38053 182.725 6.33301C183.634 7.28548 184.089 8.59603 184.089 10.2646V11.6289H176.172C176.208 12.7819 176.519 13.6699 177.106 14.293C177.694 14.9089 178.521 15.2168 179.588 15.2168C180.29 15.2168 180.941 15.1523 181.543 15.0234C182.152 14.8874 182.803 14.6654 183.498 14.3574V16.4092C182.882 16.7028 182.259 16.9105 181.629 17.0322C180.999 17.154 180.279 17.2148 179.47 17.2148ZM179.008 6.81641C178.206 6.81641 177.561 7.07064 177.074 7.5791C176.594 8.08757 176.308 8.82878 176.215 9.80273H181.607C181.593 8.82161 181.357 8.0804 180.898 7.5791C180.44 7.07064 179.81 6.81641 179.008 6.81641ZM189.481 17H186.957V0.285156H189.481V17ZM200.535 17L200.03 15.3457H199.944C199.371 16.069 198.795 16.5632 198.215 16.8281C197.635 17.0859 196.89 17.2148 195.98 17.2148C194.813 17.2148 193.9 16.8997 193.241 16.2695C192.59 15.6393 192.264 14.7477 192.264 13.5947C192.264 12.3701 192.718 11.4463 193.628 10.8232C194.537 10.2002 195.923 9.86003 197.785 9.80273L199.837 9.73828V9.10449C199.837 8.34538 199.658 7.77962 199.3 7.40723C198.949 7.02767 198.401 6.83789 197.656 6.83789C197.048 6.83789 196.464 6.92741 195.905 7.10645C195.347 7.28548 194.81 7.49674 194.294 7.74023L193.478 5.93555C194.122 5.59896 194.827 5.34473 195.594 5.17285C196.36 4.99382 197.083 4.9043 197.764 4.9043C199.275 4.9043 200.413 5.23372 201.18 5.89258C201.953 6.55143 202.34 7.58626 202.34 8.99707V17H200.535ZM196.775 15.2812C197.692 15.2812 198.426 15.027 198.978 14.5186C199.536 14.0029 199.815 13.2832 199.815 12.3594V11.3281L198.29 11.3926C197.101 11.4355 196.235 11.6361 195.69 11.9941C195.153 12.3451 194.885 12.8857 194.885 13.6162C194.885 14.1462 195.042 14.5579 195.357 14.8516C195.673 15.138 196.145 15.2812 196.775 15.2812ZM204.649 22.2852C203.89 22.2852 203.26 22.1956 202.759 22.0166V20.0186C203.246 20.1475 203.743 20.2119 204.252 20.2119C205.326 20.2119 205.863 19.6032 205.863 18.3857V5.11914H208.388V18.5576C208.388 19.7822 208.065 20.7096 207.421 21.3398C206.784 21.9701 205.86 22.2852 204.649 22.2852ZM205.713 1.97168C205.713 1.52051 205.835 1.17318 206.078 0.929688C206.329 0.686198 206.683 0.564453 207.142 0.564453C207.586 0.564453 207.929 0.686198 208.173 0.929688C208.424 1.17318 208.549 1.52051 208.549 1.97168C208.549 2.40137 208.424 2.74154 208.173 2.99219C207.929 3.23568 207.586 3.35742 207.142 3.35742C206.683 3.35742 206.329 3.23568 206.078 2.99219C205.835 2.74154 205.713 2.40137 205.713 1.97168ZM219.441 17L218.937 15.3457H218.851C218.278 16.069 217.701 16.5632 217.121 16.8281C216.541 17.0859 215.796 17.2148 214.887 17.2148C213.719 17.2148 212.806 16.8997 212.147 16.2695C211.496 15.6393 211.17 14.7477 211.17 13.5947C211.17 12.3701 211.625 11.4463 212.534 10.8232C213.444 10.2002 214.829 9.86003 216.691 9.80273L218.743 9.73828V9.10449C218.743 8.34538 218.564 7.77962 218.206 7.40723C217.855 7.02767 217.307 6.83789 216.562 6.83789C215.954 6.83789 215.37 6.92741 214.812 7.10645C214.253 7.28548 213.716 7.49674 213.2 7.74023L212.384 5.93555C213.028 5.59896 213.734 5.34473 214.5 5.17285C215.266 4.99382 215.99 4.9043 216.67 4.9043C218.181 4.9043 219.32 5.23372 220.086 5.89258C220.859 6.55143 221.246 7.58626 221.246 8.99707V17H219.441ZM215.682 15.2812C216.598 15.2812 217.332 15.027 217.884 14.5186C218.442 14.0029 218.722 13.2832 218.722 12.3594V11.3281L217.196 11.3926C216.007 11.4355 215.141 11.6361 214.597 11.9941C214.06 12.3451 213.791 12.8857 213.791 13.6162C213.791 14.1462 213.949 14.5579 214.264 14.8516C214.579 15.138 215.051 15.2812 215.682 15.2812ZM234.781 17H232.246V9.67383C232.246 8.76432 232.074 8.08757 231.73 7.64355C231.387 7.19238 230.85 6.9668 230.119 6.9668C229.145 6.9668 228.429 7.28548 227.971 7.92285C227.52 8.55306 227.294 9.60579 227.294 11.0811V17H224.77V5.11914H226.746L227.101 6.67676H227.229C227.559 6.111 228.035 5.67415 228.658 5.36621C229.288 5.05827 229.979 4.9043 230.731 4.9043C232.558 4.9043 233.768 5.52734 234.362 6.77344H234.534C234.885 6.1862 235.379 5.72786 236.017 5.39844C236.654 5.06901 237.384 4.9043 238.208 4.9043C239.626 4.9043 240.657 5.26237 241.302 5.97852C241.953 6.69466 242.279 7.78678 242.279 9.25488V17H239.755V9.67383C239.755 8.76432 239.579 8.08757 239.229 7.64355C238.885 7.19238 238.348 6.9668 237.617 6.9668C236.636 6.9668 235.916 7.27474 235.458 7.89062C235.007 8.49935 234.781 9.4375 234.781 10.7051V17ZM250.486 12.1768V10.0283H256.008V12.1768H250.486ZM274.13 9.14746C274.13 11.876 273.689 13.9027 272.809 15.2275C271.935 16.5524 270.596 17.2148 268.791 17.2148C267.044 17.2148 265.719 16.5309 264.816 15.1631C263.914 13.7952 263.463 11.79 263.463 9.14746C263.463 6.37598 263.9 4.33496 264.773 3.02441C265.654 1.70671 266.993 1.04785 268.791 1.04785C270.546 1.04785 271.874 1.73535 272.776 3.11035C273.679 4.48535 274.13 6.49772 274.13 9.14746ZM266.02 9.14746C266.02 11.2887 266.238 12.8177 266.675 13.7344C267.119 14.651 267.824 15.1094 268.791 15.1094C269.758 15.1094 270.463 14.6439 270.907 13.7129C271.358 12.7819 271.584 11.2601 271.584 9.14746C271.584 7.04199 271.358 5.52018 270.907 4.58203C270.463 3.63672 269.758 3.16406 268.791 3.16406C267.824 3.16406 267.119 3.62598 266.675 4.5498C266.238 5.47363 266.02 7.00618 266.02 9.14746ZM288.632 17.2148C287.128 17.2148 285.961 16.6742 285.13 15.5928H284.979C285.08 16.5954 285.13 17.2041 285.13 17.4189V22.2852H282.605V5.11914H284.646C284.704 5.34115 284.822 5.87109 285.001 6.70898H285.13C285.918 5.50586 287.099 4.9043 288.675 4.9043C290.157 4.9043 291.31 5.44141 292.134 6.51562C292.965 7.58984 293.38 9.09733 293.38 11.0381C293.38 12.9788 292.957 14.4935 292.112 15.582C291.274 16.6706 290.114 17.2148 288.632 17.2148ZM288.02 6.9668C287.017 6.9668 286.283 7.26042 285.817 7.84766C285.359 8.4349 285.13 9.37305 285.13 10.6621V11.0381C285.13 12.4847 285.359 13.5339 285.817 14.1855C286.276 14.8301 287.024 15.1523 288.062 15.1523C288.936 15.1523 289.609 14.7943 290.082 14.0781C290.555 13.362 290.791 12.3415 290.791 11.0166C290.791 9.68457 290.555 8.67839 290.082 7.99805C289.617 7.31055 288.929 6.9668 288.02 6.9668ZM304.691 17L304.337 15.4424H304.208C303.857 15.9938 303.356 16.4271 302.704 16.7422C302.06 17.0573 301.322 17.2148 300.491 17.2148C299.052 17.2148 297.978 16.8568 297.269 16.1406C296.56 15.4245 296.205 14.3395 296.205 12.8857V5.11914H298.751V12.4453C298.751 13.3548 298.937 14.0387 299.31 14.4971C299.682 14.9482 300.266 15.1738 301.061 15.1738C302.12 15.1738 302.897 14.8587 303.392 14.2285C303.893 13.5911 304.144 12.5277 304.144 11.0381V5.11914H306.679V17H304.691ZM320.729 17H318.194V9.69531C318.194 8.77865 318.008 8.09473 317.636 7.64355C317.271 7.19238 316.687 6.9668 315.885 6.9668C314.818 6.9668 314.037 7.2819 313.543 7.91211C313.049 8.54232 312.802 9.59863 312.802 11.0811V17H310.277V5.11914H312.254L312.608 6.67676H312.737C313.095 6.111 313.604 5.67415 314.263 5.36621C314.922 5.05827 315.652 4.9043 316.454 4.9043C319.304 4.9043 320.729 6.35449 320.729 9.25488V17ZM326.681 10.7266L328.109 8.94336L331.697 5.11914H334.608L329.828 10.2217L334.909 17H331.944L328.131 11.79L326.745 12.9287V17H324.242V0.285156H326.745V8.43848L326.616 10.7266H326.681ZM341.258 15.1738C341.874 15.1738 342.49 15.0771 343.105 14.8838V16.7852C342.826 16.9069 342.465 17.0072 342.021 17.0859C341.584 17.1719 341.129 17.2148 340.656 17.2148C338.264 17.2148 337.068 15.9544 337.068 13.4336V7.03125H335.446V5.91406L337.187 4.99023L338.046 2.47656H339.604V5.11914H342.987V7.03125H339.604V13.3906C339.604 13.9993 339.754 14.4505 340.055 14.7441C340.363 15.0306 340.764 15.1738 341.258 15.1738ZM348.015 17H345.49V5.11914H348.015V17ZM345.34 1.97168C345.34 1.52051 345.462 1.17318 345.705 0.929688C345.956 0.686198 346.31 0.564453 346.769 0.564453C347.213 0.564453 347.556 0.686198 347.8 0.929688C348.05 1.17318 348.176 1.52051 348.176 1.97168C348.176 2.40137 348.05 2.74154 347.8 2.99219C347.556 3.23568 347.213 3.35742 346.769 3.35742C346.31 3.35742 345.956 3.23568 345.705 2.99219C345.462 2.74154 345.34 2.40137 345.34 1.97168Z" fill="white"/>
</svg>
