<svg width="146" height="191" viewBox="0 0 146 191" fill="none" xmlns="http://www.w3.org/2000/svg">
<path fill-rule="evenodd" clip-rule="evenodd" d="M118.527 65.9368H134.3C137.315 65.9368 139.982 67.2125 141.954 69.1841C143.925 71.1556 145.201 73.939 145.201 76.8384V90.5234C145.201 93.5387 143.925 96.2061 141.954 98.1777C139.982 100.149 137.199 101.425 134.3 101.425H118.411C115.396 101.425 112.728 100.149 110.757 98.1777C108.785 96.2061 107.51 93.4227 107.51 90.5234V76.8384C107.51 73.823 108.785 71.1556 110.757 69.1841C112.728 67.0965 115.512 65.9368 118.527 65.9368ZM134.3 70.4598H118.411C116.672 70.4598 115.048 71.1556 113.888 72.3154C112.728 73.4751 112.033 75.0988 112.033 76.8384V90.5234C112.033 92.263 112.728 93.8866 113.888 95.0464C115.048 96.2061 116.672 96.902 118.411 96.902H134.3C136.039 96.902 137.663 96.2061 138.823 95.0464C139.982 93.8866 140.678 92.263 140.678 90.5234V76.8384C140.678 75.0988 139.982 73.4751 138.823 72.3154C137.663 71.1556 136.039 70.4598 134.3 70.4598Z" fill="url(#paint0_linear)"/>
<path fill-rule="evenodd" clip-rule="evenodd" d="M10.9026 65.9368H26.7911C29.8064 65.9368 32.4738 67.2125 34.4454 69.1841C36.417 71.1556 37.6927 73.939 37.6927 76.8384V90.5234C37.6927 93.5387 36.417 96.2061 34.4454 98.1777C32.4738 100.149 29.6904 101.425 26.7911 101.425H10.9026C7.88724 101.425 5.21983 100.149 3.24826 98.1777C1.27669 96.2061 0.000976562 93.4227 0.000976562 90.5234V76.8384C0.000976562 73.823 1.27669 71.1556 3.24826 69.1841C5.10385 67.0965 7.88724 65.9368 10.9026 65.9368ZM26.6751 70.4598H10.9026C9.16295 70.4598 7.53932 71.1556 6.37957 72.3154C5.21983 73.4751 4.52398 75.0988 4.52398 76.8384V90.5234C4.52398 92.263 5.21983 93.8866 6.37957 95.0464C7.53932 96.2061 9.16295 96.902 10.9026 96.902H26.7911C28.5307 96.902 30.1543 96.2061 31.3141 95.0464C32.4738 93.8866 33.1697 92.263 33.1697 90.5234V76.8384C33.1697 75.0988 32.4738 73.4751 31.3141 72.3154C30.0384 71.1556 28.4147 70.4598 26.6751 70.4598Z" fill="url(#paint1_linear)"/>
<path fill-rule="evenodd" clip-rule="evenodd" d="M24.8191 53.9915H120.15C126.529 53.9915 132.675 59.3263 131.748 65.5889L114.467 179.012C113.54 185.275 109.249 190.609 102.87 190.609H42.0993C35.7207 190.609 31.4297 185.275 30.5019 179.012L13.2217 65.5889C12.2939 59.3263 18.4406 53.9915 24.8191 53.9915Z" fill="url(#paint2_linear)"/>
<path fill-rule="evenodd" clip-rule="evenodd" d="M72.4851 53.9915H120.151C126.529 53.9915 132.676 59.3263 131.748 65.5889L114.468 179.012C113.54 185.275 109.249 190.609 102.87 190.609H72.4851V53.9915Z" fill="url(#paint3_linear)"/>
<path fill-rule="evenodd" clip-rule="evenodd" d="M8.93072 47.9607H136.155C138.706 47.9607 140.678 50.0482 140.678 52.4837V57.5866C140.678 60.138 138.59 62.1096 136.155 62.1096H8.93072C6.37928 62.1096 4.40771 60.022 4.40771 57.5866V52.4837C4.40771 50.0482 6.37928 47.9607 8.93072 47.9607Z" fill="#FF8C00"/>
<path fill-rule="evenodd" clip-rule="evenodd" d="M72.4846 47.9607H137.662C139.286 47.9607 140.678 50.0482 140.678 52.4837V57.5866C140.678 60.138 139.286 62.1096 137.662 62.1096H72.4846V47.9607Z" fill="#E77F00"/>
<path fill-rule="evenodd" clip-rule="evenodd" d="M88.2573 5.16619L72.8327 1.45501C69.9334 0.759163 66.918 1.33903 64.5985 2.73073C62.1631 4.2384 60.4235 6.55789 59.7276 9.45725L58.5679 14.3282L62.9749 15.3719L64.1346 10.501C64.5985 8.7614 65.6423 7.36971 67.034 6.55789C68.4257 5.74607 70.1653 5.39814 71.789 5.74607L87.2136 9.45725C88.9532 9.92115 90.3449 10.9649 91.1567 12.3566C91.9685 13.7483 92.3164 15.4879 91.9685 17.1116L90.8088 21.9825L95.2158 23.0263L96.3755 18.1553C97.0714 15.256 96.4915 12.2406 95.0998 9.92114C93.4762 7.71763 91.1567 5.86204 88.2573 5.16619Z" fill="#F68503"/>
<path fill-rule="evenodd" clip-rule="evenodd" d="M88.2564 5.16614L80.6021 3.31055L79.5583 7.71758L87.2127 9.57317C88.9523 10.0371 90.344 11.0808 91.1558 12.4725C91.9676 13.8642 92.3155 15.6038 91.9676 17.2275L90.8079 22.0984L95.2149 23.1422L96.3746 18.2713C97.0705 15.3719 96.4906 12.3566 95.0989 10.0371C93.4753 7.71758 91.1558 5.86199 88.2564 5.16614Z" fill="#ED7500"/>
<path fill-rule="evenodd" clip-rule="evenodd" d="M15.7735 0.411218L139.402 30.1007C141.838 30.6805 143.345 33.116 142.766 35.6674L141.606 40.5384C141.026 42.9738 138.59 44.4815 136.039 43.9016L12.5262 14.2122C10.0907 13.6323 8.58305 11.1968 9.16293 8.6454L10.3227 3.77448C10.9025 1.33901 13.338 -0.168654 15.7735 0.411218Z" fill="#E77F00"/>
<path fill-rule="evenodd" clip-rule="evenodd" d="M77.7031 15.2559L141.025 30.4485C142.649 30.7964 143.461 33.1159 142.881 35.5514L141.721 40.4223C141.141 42.8578 139.286 44.5974 137.778 44.1335L74.3398 29.0568L77.7031 15.2559Z" fill="#FF8C00"/>
<path fill-rule="evenodd" clip-rule="evenodd" d="M74.5615 83.678C75.4549 83.678 76.1995 83.678 77.093 83.678V74.4456L96.3024 90.0812L77.093 105.717V94.5485C76.1995 94.5485 75.4549 94.3996 74.5615 94.3996C65.9247 94.3996 58.0324 97.9734 52.3738 103.632C48.0554 107.95 44.9283 113.46 43.737 119.714L33.76 114.651C35.6958 107.504 39.5675 101.101 44.6305 95.8887C52.3738 88.4432 62.9464 83.678 74.5615 83.678ZM114.618 162.898L106.131 154.411C112.831 146.965 117.001 136.988 117.001 126.118C117.001 114.354 112.236 103.781 104.641 96.1865C103.301 94.8463 101.961 93.655 100.472 92.4637L91.6862 99.6114C93.622 100.803 95.26 102.292 96.8981 103.781C102.557 109.44 106.131 117.332 106.131 125.969C106.131 133.861 103.301 141.009 98.3872 146.518L92.4307 140.562L89.8993 165.281L114.618 162.898ZM26.3145 144.582L33.0154 120.757L55.0542 132.074L44.9283 136.541C46.5663 141.157 49.0978 145.178 52.3738 148.454C58.0324 154.113 65.9247 157.687 74.5615 157.687C78.5821 157.687 82.4537 156.942 86.0276 155.602L84.8363 167.366C81.5603 168.11 78.1353 168.557 74.5615 168.557C62.7975 168.557 52.2249 163.792 44.6305 156.197C40.312 151.879 37.036 146.667 34.8024 140.86L26.3145 144.582Z" fill="url(#paint4_linear)"/>
<path fill-rule="evenodd" clip-rule="evenodd" d="M74.5607 83.678C75.4542 83.678 76.1988 83.678 77.0922 83.678V74.4456L96.3017 90.0812L77.0922 105.717V94.5485C76.1988 94.5485 75.4542 94.3996 74.5607 94.3996C73.5184 94.3996 72.6249 94.3996 71.5825 94.5485V83.678C72.6249 83.8269 73.6673 83.678 74.5607 83.678ZM114.618 162.898L106.13 154.411C112.831 146.965 117 136.988 117 126.118C117 114.354 112.235 103.781 104.641 96.1865C103.3 94.8463 101.96 93.655 100.471 92.4637L91.6854 99.6114C93.6213 100.803 95.2593 102.292 96.8973 103.781C102.556 109.44 106.13 117.332 106.13 125.969C106.13 133.861 103.3 141.009 98.3864 146.518L92.43 140.562L89.8985 165.281L114.618 162.898ZM71.5825 157.389C72.6249 157.538 73.5184 157.538 74.5607 157.538C78.5813 157.538 82.453 156.793 86.0269 155.453L84.8356 167.217C81.5595 167.961 78.1346 168.408 74.5607 168.408C73.5184 168.408 72.6249 168.408 71.5825 168.259V157.389Z" fill="url(#paint5_linear)"/>
<path d="M67.3936 135.287H62.8672V122.895L62.9111 120.858L62.9844 118.632C62.2324 119.384 61.71 119.877 61.417 120.111L58.9561 122.089L56.7734 119.364L63.6729 113.871H67.3936V135.287ZM92.0615 135.287H86.9053L81.2949 126.264L79.376 127.641V135.287H74.835V113.871H79.376V123.671L81.1631 121.151L86.9639 113.871H92.0029L84.5322 123.349L92.0615 135.287Z" fill="#FFBF00"/>
<defs>
<linearGradient id="paint0_linear" x1="126.532" y1="61.6721" x2="126.532" y2="98.5879" gradientUnits="userSpaceOnUse">
<stop stop-color="#00A4ED"/>
<stop offset="1" stop-color="#0009E3"/>
</linearGradient>
<linearGradient id="paint1_linear" x1="19.0235" y1="61.6721" x2="19.0235" y2="98.5879" gradientUnits="userSpaceOnUse">
<stop stop-color="#00A4ED"/>
<stop offset="1" stop-color="#0009E3"/>
</linearGradient>
<linearGradient id="paint2_linear" x1="73.041" y1="37.5741" x2="73.041" y2="179.688" gradientUnits="userSpaceOnUse">
<stop stop-color="#00A4ED"/>
<stop offset="1" stop-color="#0009E3"/>
</linearGradient>
<linearGradient id="paint3_linear" x1="102.441" y1="37.5741" x2="102.441" y2="179.688" gradientUnits="userSpaceOnUse">
<stop stop-color="#00A4ED"/>
<stop offset="1" stop-color="#0009E3"/>
</linearGradient>
<linearGradient id="paint4_linear" x1="71.6577" y1="74.4456" x2="71.6577" y2="168.557" gradientUnits="userSpaceOnUse">
<stop stop-color="#FFC700"/>
<stop offset="1" stop-color="#FF4070"/>
</linearGradient>
<linearGradient id="paint5_linear" x1="94.2914" y1="74.4456" x2="94.2914" y2="168.408" gradientUnits="userSpaceOnUse">
<stop stop-color="#FFC700"/>
<stop offset="1" stop-color="#FF4070"/>
</linearGradient>
</defs>
</svg>
