<svg width="200" height="138" viewBox="0 0 200 138" fill="none" xmlns="http://www.w3.org/2000/svg">
<g filter="url(#filter0_d)">
<path d="M7.02159 94.9368C7.02159 94.9368 4.1037 97.8547 4.1037 109.04C4.1037 120.225 0.796759 121.879 31.5319 121.879C62.2669 121.879 58.571 121.49 58.571 110.693C58.571 110.693 71.896 111.082 93.8774 118.183C115.859 125.283 176.356 123.824 189.973 104.76C203.59 85.7941 189.876 90.3654 189.876 90.3654C189.876 90.3654 29.8784 79.5692 7.02159 94.9368Z" fill="#4C094E"/>
<path d="M15.3858 41.3445C15.3858 41.3445 7.11841 48.4447 7.11841 94.9364C7.11841 94.9364 53.6101 89.976 90.181 100.286C126.752 110.693 174.897 101.161 189.875 90.365C189.875 90.365 192.793 67.1192 171.59 65.4657C150.387 63.8122 115.567 65.0767 102.242 51.3626C88.8193 37.6485 89.3056 23.5454 89.3056 12.7492C89.3056 1.953 75.9806 -5.53625 64.0172 5.25994L15.3858 41.3445Z" fill="url(#paint0_linear)"/>
<path d="M74.7162 33.0775C74.7162 37.6488 71.0202 41.3448 66.4488 41.3448H15.3858C10.8144 41.3448 7.11841 37.6488 7.11841 33.0775V13.5276C7.11841 8.95625 10.8144 5.26025 15.3858 5.26025H66.4488C71.0202 5.26025 74.7162 8.95625 74.7162 13.5276V33.0775Z" fill="#4C094E"/>
<path d="M11.5924 124.018C11.5924 124.893 10.8143 125.672 9.9389 125.672H5.65933C4.78396 125.672 4.00586 124.893 4.00586 124.018V116.14C4.00586 115.264 4.78396 114.486 5.65933 114.486H9.9389C10.8143 114.486 11.5924 115.264 11.5924 116.14V124.018Z" fill="#4C094E"/>
<path d="M23.3609 124.018C23.3609 124.893 22.5828 125.672 21.7075 125.672H17.4279C16.5525 125.672 15.7744 124.893 15.7744 124.018V116.14C15.7744 115.264 16.5525 114.486 17.4279 114.486H21.7075C22.5828 114.486 23.3609 115.264 23.3609 116.14V124.018Z" fill="#4C094E"/>
<path d="M35.2288 124.018C35.2288 124.893 34.4507 125.672 33.5754 125.672H29.2958C28.4204 125.672 27.6423 124.893 27.6423 124.018V116.14C27.6423 115.264 28.4204 114.486 29.2958 114.486H33.5754C34.4507 114.486 35.2288 115.264 35.2288 116.14V124.018Z" fill="#4C094E"/>
<path d="M46.9976 124.018C46.9976 124.893 46.2195 125.672 45.3442 125.672H41.0646C40.1892 125.672 39.4111 124.893 39.4111 124.018V116.14C39.4111 115.264 40.1892 114.486 41.0646 114.486H45.3442C46.2195 114.486 46.9976 115.264 46.9976 116.14V124.018Z" fill="#4C094E"/>
<path d="M58.7662 124.018C58.7662 124.893 57.9881 125.672 57.1127 125.672H52.8332C51.9578 125.672 51.1797 124.893 51.1797 124.018V116.14C51.1797 115.264 51.9578 114.486 52.8332 114.486H57.1127C57.9881 114.486 58.7662 115.264 58.7662 116.14V124.018Z" fill="#4C094E"/>
<path d="M147.664 124.018C147.664 124.893 146.886 125.672 146.01 125.672H141.731C140.855 125.672 140.077 124.893 140.077 124.018V116.14C140.077 115.264 140.855 114.486 141.731 114.486H146.01C146.886 114.486 147.664 115.264 147.664 116.14V124.018Z" fill="#A67C52"/>
<path d="M100.492 124.018C100.492 124.893 99.7137 125.672 98.8383 125.672H94.5587C93.6834 125.672 92.9053 124.893 92.9053 124.018V116.14C92.9053 115.264 93.6834 114.486 94.5587 114.486H98.8383C99.7137 114.486 100.492 115.264 100.492 116.14V124.018Z" fill="#4C094E"/>
<path d="M112.358 124.018C112.358 124.893 111.58 125.672 110.705 125.672H106.425C105.55 125.672 104.771 124.893 104.771 124.018V116.14C104.771 115.264 105.55 114.486 106.425 114.486H110.705C111.58 114.486 112.358 115.264 112.358 116.14V124.018Z" fill="#4C094E"/>
<path d="M124.127 124.018C124.127 124.893 123.348 125.672 122.473 125.672H118.194C117.318 125.672 116.54 124.893 116.54 124.018V116.14C116.54 115.264 117.318 114.486 118.194 114.486H122.473C123.348 114.486 124.127 115.264 124.127 116.14V124.018Z" fill="#4C094E"/>
<path d="M135.895 124.018C135.895 124.893 135.117 125.672 134.242 125.672H129.962C129.087 125.672 128.309 124.893 128.309 124.018V116.14C128.309 115.264 129.087 114.486 129.962 114.486H134.242C135.117 114.486 135.895 115.264 135.895 116.14V124.018Z" fill="#4C094E"/>
<path d="M147.664 124.018C147.664 124.893 146.886 125.672 146.01 125.672H141.731C140.855 125.672 140.077 124.893 140.077 124.018V116.14C140.077 115.264 140.855 114.486 141.731 114.486H146.01C146.886 114.486 147.664 115.264 147.664 116.14V124.018Z" fill="#4C094E"/>
<path d="M159.432 124.018C159.432 124.893 158.654 125.672 157.779 125.672H153.499C152.624 125.672 151.846 124.893 151.846 124.018V116.14C151.846 115.264 152.624 114.486 153.499 114.486H157.779C158.654 114.486 159.432 115.264 159.432 116.14V124.018Z" fill="#4C094E"/>
<path d="M171.201 121.781C171.201 122.656 170.423 123.434 169.547 123.434H165.268C164.392 123.434 163.614 122.656 163.614 121.781V113.902C163.614 113.027 164.392 112.249 165.268 112.249H169.547C170.423 112.249 171.201 113.027 171.201 113.902V121.781Z" fill="#4C094E"/>
<path d="M183.067 118.376C183.067 119.252 182.289 120.03 181.414 120.03H177.134C176.259 120.03 175.48 119.252 175.48 118.376V110.498C175.48 109.623 176.259 108.845 177.134 108.845H181.414C182.289 108.845 183.067 109.623 183.067 110.498V118.376Z" fill="#4C094E"/>
<path d="M191.043 110.595C191.043 111.471 190.264 112.249 189.389 112.249H185.11C184.234 112.249 183.456 111.471 183.456 110.595V102.717C183.456 101.842 184.234 101.063 185.11 101.063H189.389C190.264 101.063 191.043 101.842 191.043 102.717V110.595Z" fill="#4C094E"/>
<path d="M90.8625 18.2931H79.9691C78.1211 18.2931 76.6621 16.8341 76.6621 14.9861C76.6621 13.1381 78.1211 11.6792 79.9691 11.6792H90.8625C92.7105 11.6792 94.1694 13.1381 94.1694 14.9861C94.1694 16.8341 92.6132 18.2931 90.8625 18.2931Z" fill="#333333"/>
<path d="M155.638 76.6506C155.249 76.6506 154.86 76.5533 154.471 76.456C152.721 75.7752 151.942 73.8299 152.623 72.1765L156.611 62.0611C157.292 60.3104 159.237 59.5323 160.891 60.2131C162.641 60.894 163.419 62.8392 162.739 64.4927L158.751 74.608C158.265 75.8725 157 76.6506 155.638 76.6506Z" fill="#333333"/>
<path d="M99.4205 66.0495C99.0315 65.9522 98.6424 65.855 98.2534 65.5632C96.6972 64.5905 96.3081 62.548 97.2808 60.9918L103.214 51.8491C104.186 50.2929 106.229 49.9038 107.785 50.8765C109.341 51.8491 109.73 53.8916 108.758 55.4478L102.825 64.5905C102.047 65.7577 100.685 66.244 99.4205 66.0495Z" fill="#333333"/>
<path d="M87.2643 53.2104C86.8752 53.0159 86.5834 52.7241 86.2916 52.4323C85.1245 51.0706 85.2217 48.9308 86.6807 47.7637L94.948 40.6635C96.3097 39.4963 98.4495 39.5936 99.6167 41.0525C100.784 42.4142 100.687 44.554 99.2276 45.7211L90.9603 52.8213C89.8904 53.6967 88.4314 53.794 87.2643 53.2104Z" fill="#333333"/>
<path d="M78.9969 35.3143C78.7051 35.0226 78.5106 34.6335 78.4133 34.2445C77.8297 32.4937 78.8024 30.6457 80.5531 30.0621L90.863 26.6579C92.6137 26.0744 94.4617 27.047 95.0453 28.7977C95.6289 30.5485 94.6562 32.3965 92.9055 32.98L82.5956 36.287C81.2339 36.7733 79.775 36.287 78.9969 35.3143Z" fill="#333333"/>
<path d="M120.138 74.1221C119.749 74.1221 119.359 74.1221 118.873 74.0249C117.122 73.5386 116.053 71.6906 116.636 69.9398L119.651 59.4354C120.138 57.6847 121.986 56.6148 123.736 57.1984C125.487 57.6847 126.557 59.5327 125.973 61.2834L122.958 71.7878C122.666 73.0522 121.499 73.9276 120.138 74.1221Z" fill="#333333"/>
<path d="M139.494 75.2891C139.104 75.2891 138.715 75.2891 138.229 75.1919C136.478 74.7055 135.408 72.8576 135.992 71.1068L139.007 60.6024C139.494 58.8517 141.342 57.7818 143.092 58.3654C144.843 58.8517 145.913 60.6997 145.329 62.4504L142.314 72.9548C142.022 74.2192 140.855 75.1919 139.494 75.2891Z" fill="#333333"/>
<g opacity="0.3">
<path opacity="0.3" d="M14.2181 36.4817C12.3701 36.4817 10.9111 35.0227 10.9111 33.1747V12.0687C10.9111 10.2207 12.3701 8.76172 14.2181 8.76172H34.4488C36.2968 8.76172 37.7557 10.2207 37.7557 12.0687C37.7557 13.9167 36.2968 15.3756 34.4488 15.3756H17.525V33.0775C17.525 34.9255 16.0661 36.4817 14.2181 36.4817Z" fill="#F2F2F2"/>
</g>
<g opacity="0.3">
<path opacity="0.3" d="M15.8734 91.4351C14.1227 91.4351 12.6637 90.0735 12.5665 88.3227C10.6212 55.8369 18.8886 47.375 19.8612 46.4996C21.2229 45.2352 23.3627 45.4298 24.5298 46.7914C25.697 48.1531 25.5997 50.1956 24.3353 51.4601C24.0435 51.7518 17.4296 59.3384 19.1804 88.0309C19.2776 89.8789 17.9159 91.4351 16.068 91.5324C15.9707 91.4351 15.8734 91.4351 15.8734 91.4351Z" fill="#F2F2F2"/>
</g>
</g>
<path d="M85.7264 123.191L74.2279 116.547L68.9158 128.905L48.7549 67.8899L65.5751 62.2389L85.7264 123.191Z" fill="#ED1CBF"/>
<path d="M23.4206 130.101L33.4445 120.983L40.9008 131.786L48.9357 67.6268L31.3814 65.89L23.4206 130.101Z" fill="#ED1CBF"/>
<path d="M26.5451 104.137C31.575 107.244 37.3657 109.255 43.5282 109.779L48.763 67.6232L31.3171 65.9403L26.5451 104.137Z" fill="#D919AF"/>
<path d="M65.5201 62.185L48.7534 67.8296L61.7388 107.04C67.6577 104.564 72.7671 100.668 76.6907 95.935L65.5201 62.185Z" fill="#D919AF"/>
<path d="M52.3421 105.89C71.2646 102.727 84.3478 85.1311 81.5642 66.5874C78.7807 48.0438 61.1846 35.5747 42.2621 38.737C23.3397 41.8993 10.2565 59.4955 13.04 78.0391C15.8235 96.5828 33.4197 109.052 52.3421 105.89Z" fill="#FFCF03"/>
<path d="M67.3444 44.1891C74.1533 49.2388 78.9733 56.8123 80.323 65.8037C83.1073 84.3524 70.0284 101.943 51.1008 105.106C41.9258 106.639 33.0562 104.512 26.0284 99.7567C33.2148 105.13 42.6636 107.612 52.4162 105.982C71.3438 102.819 84.4226 85.2283 81.6383 66.6796C80.1396 57.1331 74.8044 49.1945 67.3444 44.1891Z" fill="#FFA506"/>
<path d="M68.5452 68.6356C68.8519 70.7558 67.1775 72.8999 66.8118 74.945C66.4551 77.0524 67.2767 79.5307 66.2296 81.4383C65.1825 83.3458 62.5907 84.1787 61.0196 85.6657C59.4486 87.1527 58.6298 89.7238 56.6549 90.7055C54.7445 91.676 52.1853 90.9052 49.9912 91.2857C47.797 91.6662 45.5806 93.2651 43.4898 92.9884C41.3345 92.7229 39.8301 90.5547 37.9163 89.672C35.9934 88.727 33.3024 88.874 31.7681 87.4142C30.2984 85.9431 30.3803 83.308 29.3817 81.4356C28.4567 79.6144 26.2591 78.1417 25.9524 76.0215C25.6456 73.9013 27.3201 71.7572 27.6858 69.7121C28.0424 67.6047 27.2208 65.1263 28.268 63.2188C29.3151 61.3113 31.9069 60.4783 33.4779 58.9914C35.0489 57.5044 35.8678 54.9333 37.8427 53.9516C39.753 52.9811 42.3122 53.7519 44.5064 53.3714C46.7006 52.9909 48.9169 51.392 51.0077 51.6687C53.163 51.9342 54.6675 54.1024 56.5813 54.985C58.5042 55.9301 61.1952 55.7831 62.7294 57.2429C64.1992 58.714 64.1173 61.3491 65.1158 63.2215C66.0408 65.0427 68.2385 66.5154 68.5452 68.6356Z" fill="#FFEC03"/>
<path d="M52.9351 89.6917C50.2079 89.5893 49.4335 89.7235 46.8687 90.7436C45.9922 91.0874 44.7466 91.623 43.8715 91.5191C42.315 91.2776 40.773 89.3076 38.7766 88.3113C36.7801 87.3151 34.1355 87.3262 33.0605 86.298C31.9856 85.2698 32.012 82.7082 30.9954 80.7111C30.5374 79.8316 29.9038 79.1104 29.3438 78.4404C27.3515 76.101 27.2793 75.6021 28.5138 72.7032C28.9128 71.8029 29.2473 70.9139 29.4437 69.9849C29.8469 67.7415 29.0988 65.3142 29.8309 63.9727C30.563 62.6311 33.0813 61.7469 34.6989 60.124C36.3165 58.501 37.227 56.1058 38.6391 55.3495C39.442 54.9545 40.7779 55.0425 41.7085 55.0729C44.4357 55.1753 45.2101 55.041 47.7749 54.021C48.7159 53.666 49.897 53.1416 50.7721 53.2455C52.3286 53.487 53.8705 55.457 55.867 56.4533C57.928 57.4383 60.5081 57.4384 61.583 58.4666C62.6579 59.4948 62.6316 62.0564 63.6482 64.0535C64.1062 64.933 64.7398 65.6542 65.2998 66.3242C67.2921 68.6636 67.3643 69.1625 66.1297 72.0614C65.1457 74.4055 64.9868 75.1363 65.0986 77.7379C65.2089 80.7872 65.0604 81.1325 62.3367 82.8834C61.4873 83.4142 60.6379 83.9451 59.8891 84.7142C58.2715 86.3371 57.3611 88.7324 55.9489 89.4887C55.8198 89.5111 53.9302 89.7109 52.9351 89.6917Z" fill="#FFDC01"/>
<path d="M45.7899 95.826C47.2947 96.6347 47.9265 98.2949 47.9265 98.2949C47.9265 98.2949 46.0617 98.6896 44.5569 97.8808C43.052 97.072 42.4203 95.4118 42.4203 95.4118C42.4203 95.4118 44.2204 95.0287 45.7899 95.826Z" fill="#FFAA2E"/>
<path d="M44.5698 98.9291C46.1603 98.0881 47.9795 98.391 47.9795 98.391C47.9795 98.391 47.2335 100.08 45.643 100.921C44.0525 101.762 42.2332 101.46 42.2332 101.46C42.2332 101.46 42.9793 99.7701 44.5698 98.9291Z" fill="#FFAA2E"/>
<path d="M40.2236 95.1982C41.6315 96.221 42.0065 97.9368 42.0065 97.9368C42.0065 97.9368 40.0987 98.0851 38.6909 97.0623C37.283 96.0395 36.908 94.3237 36.908 94.3237C36.908 94.3237 38.8245 94.2375 40.2236 95.1982Z" fill="#FFAA2E"/>
<path d="M38.5821 98.1217C40.2694 97.5154 41.9842 98.0211 41.9842 98.0211C41.9842 98.0211 41.0209 99.5554 39.3423 100.222C37.655 100.829 35.9402 100.323 35.9402 100.323C35.9402 100.323 36.9035 98.7886 38.5821 98.1217Z" fill="#FFAA2E"/>
<path d="M35.7133 93.8192C36.8873 95.0194 37.0125 96.8541 37.0125 96.8541C37.0125 96.8541 35.1127 96.6793 33.9387 95.4792C32.7647 94.279 32.6396 92.4443 32.6396 92.4443C32.6396 92.4443 34.5305 92.5566 35.7133 93.8192Z" fill="#FFAA2E"/>
<path d="M33.6267 96.4314C35.3475 96.0682 36.9677 96.8365 36.9677 96.8365C36.9677 96.8365 35.7869 98.2191 34.0021 98.5936C32.2813 98.9568 30.6611 98.1885 30.6611 98.1885C30.6611 98.1885 31.906 96.7947 33.6267 96.4314Z" fill="#FFAA2E"/>
<path d="M31.3441 91.2452C32.2261 92.6977 31.807 94.509 31.807 94.509C31.807 94.509 30.0338 93.9218 29.1518 92.4693C28.2698 91.0168 28.6888 89.2055 28.6888 89.2055C28.6888 89.2055 30.462 89.7927 31.3441 91.2452Z" fill="#FFAA2E"/>
<path d="M28.6512 93.3691C30.4253 93.3681 31.7782 94.5587 31.7782 94.5587C31.7782 94.5587 30.2327 95.6993 28.5141 95.6285C26.74 95.6295 25.3871 94.4389 25.3871 94.4389C25.3871 94.4389 26.9326 93.2983 28.6512 93.3691Z" fill="#FFAA2E"/>
<path d="M27.7902 88.0911C28.2313 89.7544 27.3844 91.4511 27.3844 91.4511C27.3844 91.4511 25.8114 90.4385 25.3793 88.838C24.9383 87.1747 25.7851 85.478 25.7851 85.478C25.7851 85.478 27.3492 86.4277 27.7902 88.0911Z" fill="#FFAA2E"/>
<path d="M24.7174 89.4793C26.4276 89.9282 27.4153 91.3178 27.4153 91.3178C27.4153 91.3178 25.6772 92.0626 23.9757 91.6747C22.2656 91.2259 21.2778 89.8362 21.2778 89.8362C21.2778 89.8362 23.0715 89.0191 24.7174 89.4793Z" fill="#FFAA2E"/>
<path d="M24.5075 83.8546C24.6184 85.5771 23.4076 87.0796 23.4076 87.0796C23.4076 87.0796 22.0743 85.8293 22.0296 84.0951C21.9188 82.3726 23.1295 80.8701 23.1295 80.8701C23.1295 80.8701 24.4629 82.1204 24.5075 83.8546Z" fill="#FFAA2E"/>
<path d="M21.2887 84.6636C22.8475 85.4009 23.5445 87.0496 23.5445 87.0496C23.5445 87.0496 21.6922 87.5031 20.1334 86.7658C18.5745 86.0285 17.8775 84.3798 17.8775 84.3798C17.8775 84.3798 19.721 83.8646 21.2887 84.6636Z" fill="#FFAA2E"/>
<path d="M22.535 79.6707C22.3062 81.387 20.9393 82.7228 20.9393 82.7228C20.9393 82.7228 19.8466 81.2384 20.0754 79.5221C20.3041 77.8058 21.671 76.47 21.671 76.47C21.671 76.47 22.7638 77.9544 22.535 79.6707Z" fill="#FFAA2E"/>
<path d="M19.2468 79.9591C20.6455 80.9224 21.0308 82.7021 21.0308 82.7021C21.0308 82.7021 19.1252 82.848 17.7264 81.8846C16.3277 80.9213 15.9424 79.1416 15.9424 79.1416C15.9424 79.1416 17.8392 78.9336 19.2468 79.9591Z" fill="#FFAA2E"/>
<path d="M21.6256 74.8604C20.9876 76.515 19.3162 77.5165 19.3162 77.5165C19.3162 77.5165 18.6732 75.8307 19.3112 74.1761C19.9492 72.5215 21.6207 71.52 21.6207 71.52C21.6207 71.52 22.2636 73.2058 21.6256 74.8604Z" fill="#FFAA2E"/>
<path d="M18.3585 74.2898C19.4792 75.5685 19.4013 77.3797 19.4013 77.3797C19.4013 77.3797 17.5459 77.0652 16.4253 75.7865C15.3046 74.5077 15.3825 72.6965 15.3825 72.6965C15.3825 72.6965 17.229 72.9484 18.3585 74.2898Z" fill="#FFAA2E"/>
<path d="M21.6468 69.77C20.6552 71.2218 18.8085 71.8037 18.8085 71.8037C18.8085 71.8037 18.6173 69.9867 19.6089 68.5349C20.6004 67.0831 22.4472 66.5012 22.4472 66.5012C22.4472 66.5012 22.7033 68.3068 21.6468 69.77Z" fill="#FFAA2E"/>
<path d="M18.6792 68.4353C19.4406 69.977 18.8821 71.7505 18.8821 71.7505C18.8821 71.7505 17.1547 71.0228 16.3933 69.4811C15.6319 67.9394 16.1903 66.1659 16.1903 66.1659C16.1903 66.1659 17.9838 66.882 18.6792 68.4353Z" fill="#FFAA2E"/>
<path d="M22.8338 65.4137C21.5634 66.6507 19.6721 66.7873 19.6721 66.7873C19.6721 66.7873 19.8704 64.9731 21.2142 63.787C22.4847 62.55 24.3759 62.4134 24.3759 62.4134C24.3759 62.4134 24.1133 64.2388 22.8338 65.4137Z" fill="#FFAA2E"/>
<path d="M20.2355 63.4995C20.6153 65.1792 19.6431 66.833 19.6431 66.833C19.6431 66.833 18.1348 65.7352 17.7551 64.0555C17.3753 62.3758 18.3475 60.722 18.3475 60.722C18.3475 60.722 19.8558 61.8198 20.2355 63.4995Z" fill="#FFAA2E"/>
<path d="M24.4788 61.4343C22.9834 62.4506 21.1254 62.3288 21.1254 62.3288C21.1254 62.3288 21.6617 60.5932 23.0929 59.5879C24.5883 58.5716 26.4464 58.6934 26.4464 58.6934C26.4464 58.6934 25.91 60.4291 24.4788 61.4343Z" fill="#FFAA2E"/>
<path d="M22.2041 59.0826C22.2551 60.8187 21.0585 62.317 21.0585 62.317C21.0585 62.317 19.7862 60.985 19.6787 59.3233C19.6277 57.5872 20.8243 56.0889 20.8243 56.0889C20.8243 56.0889 22.1532 57.3466 22.2041 59.0826Z" fill="#FFAA2E"/>
<path d="M55.1282 94.1148C53.9198 95.4056 53.7763 97.2035 53.7763 97.2035C53.7763 97.2035 55.6585 96.9324 56.8669 95.6416C58.0754 94.3508 58.2188 92.5529 58.2188 92.5529C58.2188 92.5529 56.4013 92.8126 55.1282 94.1148Z" fill="#FFAA2E"/>
<path d="M57.2432 96.647C55.4968 96.3936 53.8508 97.3068 53.8508 97.3068C53.8508 97.3068 55.0299 98.6573 56.7763 98.9107C58.5227 99.164 60.1687 98.2509 60.1687 98.2509C60.1687 98.2509 58.9896 96.9004 57.2432 96.647Z" fill="#FFAA2E"/>
<path d="M59.5659 92.1689C58.5083 93.6302 58.6238 95.3921 58.6238 95.3921C58.6238 95.3921 60.479 94.8712 61.5366 93.4099C62.5941 91.9486 62.4786 90.1867 62.4786 90.1867C62.4786 90.1867 60.6321 90.7697 59.5659 92.1689Z" fill="#FFAA2E"/>
<path d="M62.0308 94.4004C60.257 94.4014 58.7671 95.4696 58.7671 95.4696C58.7671 95.4696 60.1112 96.5988 61.8936 96.6583C63.6674 96.6573 65.1573 95.5892 65.1573 95.5892C65.1573 95.5892 63.8132 94.4599 62.0308 94.4004Z" fill="#FFAA2E"/>
<path d="M63.3953 89.2777C62.6094 90.8261 62.9958 92.6144 62.9958 92.6144C62.9958 92.6144 64.7545 91.7896 65.5404 90.2413C66.3263 88.6929 65.9399 86.9046 65.9399 86.9046C65.9399 86.9046 64.2466 87.7178 63.3953 89.2777Z" fill="#FFAA2E"/>
<path d="M66.1913 91.0774C64.4532 91.3199 63.127 92.6042 63.127 92.6042C63.127 92.6042 64.6364 93.5156 66.4385 93.2619C68.1766 93.0194 69.5028 91.7351 69.5028 91.7351C69.5028 91.7351 67.938 90.8953 66.1913 91.0774Z" fill="#FFAA2E"/>
<path d="M66.6398 85.6328C66.2029 87.3186 67.1027 88.8966 67.1027 88.8966C67.1027 88.8966 68.6267 87.7263 69.0636 86.0406C69.5004 84.3548 68.6006 82.7768 68.6006 82.7768C68.6006 82.7768 67.0678 83.8843 66.6398 85.6328Z" fill="#FFAA2E"/>
<path d="M69.8629 86.7197C68.1755 87.3263 67.2207 88.9216 67.2207 88.9216C67.2207 88.9216 69.0084 89.4768 70.6231 88.8209C72.3105 88.2143 73.2652 86.619 73.2652 86.619C73.2652 86.619 71.5503 86.1131 69.8629 86.7197Z" fill="#FFAA2E"/>
<path d="M69.178 81.1885C69.2208 82.922 70.4978 84.2447 70.4978 84.2447C70.4978 84.2447 71.7124 82.7412 71.6786 81.0706C71.6357 79.3371 70.3588 78.0144 70.3588 78.0144C70.3588 78.0144 69.1442 79.518 69.178 81.1885Z" fill="#FFAA2E"/>
<path d="M72.4988 81.605C70.9968 82.6209 70.4427 84.2827 70.4427 84.2827C70.4427 84.2827 72.3023 84.3924 73.813 83.4375C75.315 82.4217 75.8691 80.7599 75.8691 80.7599C75.8691 80.7599 74.0009 80.5892 72.4988 81.605Z" fill="#FFAA2E"/>
<path d="M70.716 76.5124C71.0918 78.1885 72.6631 79.2035 72.6631 79.2035C72.6631 79.2035 73.582 77.5586 73.14 75.8941C72.7642 74.218 71.1929 73.203 71.1929 73.203C71.1929 73.203 70.274 74.8479 70.716 76.5124Z" fill="#FFAA2E"/>
<path d="M74.0468 76.204C72.7686 77.442 72.5629 79.2499 72.5629 79.2499C72.5629 79.2499 74.4502 79.0432 75.7284 77.8053C77.0065 76.5673 77.2123 74.7594 77.2123 74.7594C77.2123 74.7594 75.3249 74.966 74.0468 76.204Z" fill="#FFAA2E"/>
<path d="M71.292 71.9244C71.9884 73.4785 73.6616 74.2809 73.6616 74.2809C73.6616 74.2809 74.287 72.4949 73.5906 70.9408C72.8941 69.3867 71.221 68.5843 71.221 68.5843C71.221 68.5843 70.6616 70.3587 71.292 71.9244Z" fill="#FFAA2E"/>
<path d="M74.5331 71.1053C73.4693 72.5041 73.5953 74.3296 73.5953 74.3296C73.5953 74.3296 75.4482 73.8107 76.512 72.4119C77.5757 71.0131 77.4497 69.1876 77.4497 69.1876C77.4497 69.1876 75.6617 69.695 74.5331 71.1053Z" fill="#FFAA2E"/>
<path d="M70.6839 67.1948C71.75 68.5489 73.6177 68.9263 73.6177 68.9263C73.6177 68.9263 73.7613 67.1018 72.6953 65.7477C71.6292 64.3936 69.7615 64.0162 69.7615 64.0162C69.7615 64.0162 69.6179 65.8407 70.6839 67.1948Z" fill="#FFAA2E"/>
<path d="M73.6488 65.6361C72.9375 67.2381 73.5139 68.9338 73.5139 68.9338C73.5139 68.9338 75.1913 67.9958 75.9026 66.3938C76.6139 64.7918 76.0375 63.0962 76.0375 63.0962C76.0375 63.0962 74.2857 63.9831 73.6488 65.6361Z" fill="#FFAA2E"/>
<path d="M69.0176 62.3666C70.3624 63.405 72.2798 63.3211 72.2798 63.3211C72.2798 63.3211 71.9589 61.5272 70.6141 60.4887C69.2693 59.4503 67.3518 59.5342 67.3518 59.5342C67.3518 59.5342 67.6078 61.3396 69.0176 62.3666Z" fill="#FFAA2E"/>
<path d="M71.4636 60.1816C71.169 61.9087 72.1944 63.404 72.1944 63.404C72.1944 63.404 73.6346 62.12 73.9292 60.3929C74.2237 58.6657 73.1984 57.1704 73.1984 57.1704C73.1984 57.1704 71.7671 58.5173 71.4636 60.1816Z" fill="#FFAA2E"/>
<path d="M66.6152 58.6293C68.1733 59.3767 70.0106 58.868 70.0106 58.868C70.0106 58.868 69.3089 57.2096 67.6955 56.5353C66.1374 55.7879 64.3001 56.2966 64.3001 56.2966C64.3001 56.2966 65.0661 57.9439 66.6152 58.6293Z" fill="#FFAA2E"/>
<path d="M68.5233 56.0158C68.64 57.7407 70.0352 58.9872 70.0352 58.9872C70.0352 58.9872 71.1573 57.4369 71.0405 55.712C70.9238 53.9871 69.5287 52.7406 69.5287 52.7406C69.5287 52.7406 68.4066 54.2908 68.5233 56.0158Z" fill="#FFAA2E"/>
<path d="M63.6918 55.3694C65.4023 55.8327 67.1348 55.0914 67.1348 55.0914C67.1348 55.0914 66.1323 53.6213 64.4859 53.1469C62.7754 52.6837 61.0429 53.4249 61.0429 53.4249C61.0429 53.4249 62.0453 54.8951 63.6918 55.3694Z" fill="#FFAA2E"/>
<path d="M65.1555 52.4444C65.6008 54.1126 67.165 55.1359 67.165 55.1359C67.165 55.1359 67.9962 53.442 67.6258 51.8255C67.1804 50.1573 65.6162 49.134 65.6162 49.134C65.6162 49.134 64.7193 50.8393 65.1555 52.4444Z" fill="#FFAA2E"/>
<path d="M62.2434 50.5392C62.188 50.6126 62.1326 50.686 62.0127 50.7705L61.9573 50.8438C68.1537 54.4248 72.5862 60.4157 73.6488 67.7556C75.63 81.4401 65.0136 94.757 50.0068 97.3573C35 99.9577 21.1508 90.9438 19.1607 77.1971C18.1431 70.1682 20.3895 63.3389 24.8847 57.9053C24.7468 57.8654 24.5446 57.8367 24.4068 57.7968C19.9206 63.2926 17.6832 70.1841 18.7098 77.2752C20.727 91.2086 34.7965 100.376 50.0609 97.7305C65.3253 95.0856 76.1168 81.6108 74.0997 67.6774C73.0281 60.2753 68.5131 54.1713 62.2434 50.5392Z" fill="#FF9912"/>
<path d="M27.5826 57.6154C25.9087 58.2795 24.1838 57.6969 24.1838 57.6969C24.1838 57.6969 25.1298 56.0906 26.8126 55.4877C28.4866 54.8236 30.2115 55.4063 30.2115 55.4063C30.2115 55.4063 29.1926 56.9623 27.5826 57.6154Z" fill="#FFAA2E"/>
<path d="M26.0033 54.7661C25.6428 56.4419 24.1428 57.6689 24.1428 57.6689C24.1428 57.6689 23.2406 56.0818 23.6011 54.4059C23.9616 52.7301 25.4617 51.5031 25.4617 51.5031C25.4617 51.5031 26.3639 53.0903 26.0033 54.7661Z" fill="#FFAA2E"/>
<path d="M59.7292 52.5297C61.5105 52.6005 62.9849 51.4685 62.9849 51.4685C62.9849 51.4685 61.6274 50.2578 59.855 50.2482C58.0737 50.1775 56.5993 51.3095 56.5993 51.3095C56.5993 51.3095 57.9479 52.4589 59.7292 52.5297Z" fill="#FFAA2E"/>
<path d="M60.3711 49.3549C61.1896 50.8274 62.9644 51.4895 62.9644 51.4895C62.9644 51.4895 63.3721 49.6764 62.5537 48.2039C61.7352 46.7314 59.9604 46.0693 59.9604 46.0693C59.9604 46.0693 59.5527 47.8824 60.3711 49.3549Z" fill="#FFAA2E"/>
<path d="M37.2689 50.4016L34.7912 50.1067L32.8534 51.6551L32.4306 49.2767L30.3794 47.8793L32.5663 46.676L33.272 44.3668L35.0307 46.0064L37.5159 45.9133L36.4611 48.0875L37.2689 50.4016Z" fill="#FFEC03"/>
<path d="M52.7137 48.1913L54.9749 49.2316L54.937 46.7883L56.6356 44.9572L54.3027 44.3156L53.1287 42.1911L51.7245 44.2308L49.2313 44.7119L50.762 46.5835L50.4054 49.0283L52.7137 48.1913Z" fill="#FFEC03"/>
<path d="M45.9123 48.706L43.5163 48.0754L41.3299 49.2785L41.292 46.8363L39.4695 45.2078L41.8315 44.2976L42.886 42.1239L44.4161 43.9945L46.829 44.3001L45.4255 46.3388L45.9123 48.706Z" fill="#FFEC03"/>
<path d="M46.7351 70.4735C48.4391 70.2036 49.8692 70.4673 51.0255 71.2647C52.1897 72.0608 52.9036 73.2908 53.1671 74.9546C53.479 76.9239 53.1122 78.5351 52.0665 79.7883C51.0208 81.0416 49.3687 81.847 47.11 82.2048C45.1488 82.5154 43.5151 82.4487 42.2088 82.0047L41.699 78.7855C42.3874 79.0225 43.1708 79.1827 44.0492 79.2661C44.9262 79.3414 45.7426 79.3192 46.4981 79.1995C48.7728 78.8393 49.7625 77.7267 49.4671 75.862C49.1858 74.0856 47.8676 73.3839 45.5125 73.7569C45.0865 73.8244 44.6233 73.9431 44.1229 74.113C43.6212 74.2748 43.2172 74.4295 42.911 74.5768L41.302 74.016L40.5424 64.9287L50.1034 63.4144L50.6037 66.5732L44.3101 67.57L44.5326 71.0819L44.9413 70.9306C45.4137 70.7405 46.0117 70.5881 46.7351 70.4735Z" fill="#ED1CBF"/>
<defs>
<filter id="filter0_d" x="0" y="0" width="200" height="133.672" filterUnits="userSpaceOnUse" color-interpolation-filters="sRGB">
<feFlood flood-opacity="0" result="BackgroundImageFix"/>
<feColorMatrix in="SourceAlpha" type="matrix" values="0 0 0 0 0 0 0 0 0 0 0 0 0 0 0 0 0 0 127 0"/>
<feOffset dy="4"/>
<feGaussianBlur stdDeviation="2"/>
<feColorMatrix type="matrix" values="0 0 0 0 0 0 0 0 0 0 0 0 0 0 0 0 0 0 0.25 0"/>
<feBlend mode="normal" in2="BackgroundImageFix" result="effect1_dropShadow"/>
<feBlend mode="normal" in="SourceGraphic" in2="effect1_dropShadow" result="shape"/>
</filter>
<linearGradient id="paint0_linear" x1="98.5649" y1="0" x2="98.5649" y2="104.774" gradientUnits="userSpaceOnUse">
<stop stop-color="#FF9905"/>
<stop offset="1" stop-color="#C822AD"/>
</linearGradient>
</defs>
</svg>
