<svg width="146" height="191" viewBox="0 0 146 191" fill="none" xmlns="http://www.w3.org/2000/svg">
<path fill-rule="evenodd" clip-rule="evenodd" d="M118.926 65.9368H134.699C137.714 65.9368 140.381 67.2125 142.353 69.1841C144.324 71.1556 145.6 73.939 145.6 76.8384V90.5234C145.6 93.5387 144.324 96.2061 142.353 98.1777C140.381 100.149 137.598 101.425 134.699 101.425H118.81C115.795 101.425 113.127 100.149 111.156 98.1777C109.184 96.2061 107.908 93.4227 107.908 90.5234V76.8384C107.908 73.823 109.184 71.1556 111.156 69.1841C113.127 67.0965 115.911 65.9368 118.926 65.9368ZM134.699 70.4598H118.81C117.07 70.4598 115.447 71.1556 114.287 72.3154C113.127 73.4751 112.431 75.0988 112.431 76.8384V90.5234C112.431 92.263 113.127 93.8866 114.287 95.0464C115.447 96.2061 117.07 96.902 118.81 96.902H134.699C136.438 96.902 138.062 96.2061 139.222 95.0464C140.381 93.8866 141.077 92.263 141.077 90.5234V76.8384C141.077 75.0988 140.381 73.4751 139.222 72.3154C138.062 71.1556 136.438 70.4598 134.699 70.4598Z" fill="url(#paint0_linear)"/>
<path fill-rule="evenodd" clip-rule="evenodd" d="M11.3015 65.9368H27.19C30.2053 65.9368 32.8727 67.2125 34.8443 69.1841C36.8159 71.1556 38.0916 73.939 38.0916 76.8384V90.5234C38.0916 93.5387 36.8159 96.2061 34.8443 98.1777C32.8727 100.149 30.0894 101.425 27.19 101.425H11.3015C8.28616 101.425 5.61875 100.149 3.64719 98.1777C1.67562 96.2061 0.399902 93.4227 0.399902 90.5234V76.8384C0.399902 73.823 1.67562 71.1556 3.64719 69.1841C5.50278 67.0965 8.28616 65.9368 11.3015 65.9368ZM27.074 70.4598H11.3015C9.56188 70.4598 7.93824 71.1556 6.7785 72.3154C5.61875 73.4751 4.9229 75.0988 4.9229 76.8384V90.5234C4.9229 92.263 5.61875 93.8866 6.7785 95.0464C7.93824 96.2061 9.56188 96.902 11.3015 96.902H27.19C28.9296 96.902 30.5533 96.2061 31.713 95.0464C32.8727 93.8866 33.5686 92.263 33.5686 90.5234V76.8384C33.5686 75.0988 32.8727 73.4751 31.713 72.3154C30.4373 71.1556 28.8136 70.4598 27.074 70.4598Z" fill="url(#paint1_linear)"/>
<path fill-rule="evenodd" clip-rule="evenodd" d="M25.2181 53.9915H120.549C126.928 53.9915 133.074 59.3263 132.147 65.5889L114.866 179.012C113.939 185.275 109.647 190.609 103.269 190.609H42.4983C36.1197 190.609 31.8286 185.275 30.9008 179.012L13.6206 65.5889C12.6928 59.3263 18.8395 53.9915 25.2181 53.9915Z" fill="url(#paint2_linear)"/>
<path fill-rule="evenodd" clip-rule="evenodd" d="M72.8838 53.9915H120.549C126.928 53.9915 133.075 59.3263 132.147 65.5889L114.867 179.012C113.939 185.275 109.648 190.609 103.269 190.609H72.8838V53.9915Z" fill="url(#paint3_linear)"/>
<path fill-rule="evenodd" clip-rule="evenodd" d="M9.32965 47.9607H136.554C139.105 47.9607 141.077 50.0482 141.077 52.4837V57.5866C141.077 60.138 138.989 62.1096 136.554 62.1096H9.32965C6.77821 62.1096 4.80664 60.022 4.80664 57.5866V52.4837C4.80664 50.0482 6.77821 47.9607 9.32965 47.9607Z" fill="#FF8C00"/>
<path fill-rule="evenodd" clip-rule="evenodd" d="M72.8833 47.9607H138.061C139.685 47.9607 141.076 50.0482 141.076 52.4837V57.5866C141.076 60.138 139.685 62.1096 138.061 62.1096H72.8833V47.9607Z" fill="#E77F00"/>
<path fill-rule="evenodd" clip-rule="evenodd" d="M88.6563 5.16619L73.2317 1.45501C70.3323 0.759163 67.317 1.33903 64.9975 2.73073C62.562 4.2384 60.8224 6.55789 60.1265 9.45725L58.9668 14.3282L63.3738 15.3719L64.5336 10.501C64.9975 8.7614 66.0412 7.36971 67.4329 6.55789C68.8246 5.74607 70.5642 5.39814 72.1879 5.74607L87.6125 9.45725C89.3521 9.92115 90.7438 10.9649 91.5556 12.3566C92.3674 13.7483 92.7154 15.4879 92.3674 17.1116L91.2077 21.9825L95.6147 23.0263L96.7745 18.1553C97.4703 15.256 96.8904 12.2406 95.4987 9.92114C93.8751 7.71763 91.5556 5.86204 88.6563 5.16619Z" fill="#F68503"/>
<path fill-rule="evenodd" clip-rule="evenodd" d="M88.6556 5.16614L81.0013 3.31055L79.9575 7.71758L87.6118 9.57317C89.3514 10.0371 90.7431 11.0808 91.555 12.4725C92.3668 13.8642 92.7147 15.6038 92.3668 17.2275L91.207 22.0984L95.6141 23.1422L96.7738 18.2713C97.4697 15.3719 96.8898 12.3566 95.4981 10.0371C93.8744 7.71758 91.555 5.86199 88.6556 5.16614Z" fill="#ED7500"/>
<path fill-rule="evenodd" clip-rule="evenodd" d="M16.1724 0.411218L139.801 30.1007C142.237 30.6805 143.744 33.116 143.164 35.6674L142.005 40.5384C141.425 42.9738 138.989 44.4815 136.438 43.9016L12.9251 14.2122C10.4897 13.6323 8.98198 11.1968 9.56185 8.6454L10.7216 3.77448C11.3015 1.33901 13.7369 -0.168654 16.1724 0.411218Z" fill="#E77F00"/>
<path fill-rule="evenodd" clip-rule="evenodd" d="M78.102 15.2559L141.424 30.4485C143.048 30.7964 143.86 33.1159 143.28 35.5514L142.12 40.4223C141.54 42.8578 139.684 44.5974 138.177 44.1335L74.7388 29.0568L78.102 15.2559Z" fill="#FF8C00"/>
<path fill-rule="evenodd" clip-rule="evenodd" d="M74.9604 83.678C75.8539 83.678 76.5984 83.678 77.4919 83.678V74.4456L96.7013 90.0812L77.4919 105.717V94.5485C76.5984 94.5485 75.8539 94.3996 74.9604 94.3996C66.3236 94.3996 58.4313 97.9734 52.7727 103.632C48.4543 107.95 45.3272 113.46 44.1359 119.714L34.1589 114.651C36.0947 107.504 39.9664 101.101 45.0294 95.8887C52.7727 88.4432 63.3454 83.678 74.9604 83.678ZM115.017 162.898L106.529 154.411C113.23 146.965 117.4 136.988 117.4 126.118C117.4 114.354 112.635 103.781 105.04 96.1865C103.7 94.8463 102.36 93.655 100.871 92.4637L92.0851 99.6114C94.021 100.803 95.659 102.292 97.297 103.781C102.956 109.44 106.529 117.332 106.529 125.969C106.529 133.861 103.7 141.009 98.7861 146.518L92.8297 140.562L90.2982 165.281L115.017 162.898ZM26.7134 144.582L33.4144 120.757L55.4531 132.074L45.3272 136.541C46.9652 141.157 49.4967 145.178 52.7727 148.454C58.4313 154.113 66.3236 157.687 74.9604 157.687C78.981 157.687 82.8527 156.942 86.4265 155.602L85.2352 167.366C81.9592 168.11 78.5342 168.557 74.9604 168.557C63.1965 168.557 52.6238 163.792 45.0294 156.197C40.711 151.879 37.4349 146.667 35.2013 140.86L26.7134 144.582Z" fill="url(#paint4_linear)"/>
<path fill-rule="evenodd" clip-rule="evenodd" d="M74.9597 83.678C75.8531 83.678 76.5977 83.678 77.4911 83.678V74.4456L96.7006 90.0812L77.4911 105.717V94.5485C76.5977 94.5485 75.8531 94.3996 74.9597 94.3996C73.9173 94.3996 73.0238 94.3996 71.9814 94.5485V83.678C73.0238 83.8269 74.0662 83.678 74.9597 83.678ZM115.017 162.898L106.529 154.411C113.23 146.965 117.399 136.988 117.399 126.118C117.399 114.354 112.634 103.781 105.04 96.1865C103.699 94.8463 102.359 93.655 100.87 92.4637L92.0844 99.6114C94.0202 100.803 95.6582 102.292 97.2962 103.781C102.955 109.44 106.529 117.332 106.529 125.969C106.529 133.861 103.699 141.009 98.7853 146.518L92.8289 140.562L90.2974 165.281L115.017 162.898ZM71.9814 157.389C73.0238 157.538 73.9173 157.538 74.9597 157.538C78.9802 157.538 82.8519 156.793 86.4258 155.453L85.2345 167.217C81.9585 167.961 78.5335 168.408 74.9597 168.408C73.9173 168.408 73.0238 168.408 71.9814 168.259V157.389Z" fill="url(#paint5_linear)"/>
<path d="M69.4448 137.287H64.3149V123.242L64.3647 120.935L64.4478 118.411C63.5955 119.263 63.0034 119.822 62.6714 120.088L59.8823 122.329L57.4087 119.241L65.228 113.016H69.4448V137.287ZM93.019 125.151C93.019 129.39 92.3218 132.528 90.9272 134.564C89.5438 136.601 87.4077 137.619 84.519 137.619C81.7189 137.619 79.605 136.568 78.1772 134.465C76.7606 132.362 76.0522 129.257 76.0522 125.151C76.0522 120.868 76.744 117.714 78.1274 115.688C79.5109 113.652 81.6414 112.634 84.519 112.634C87.3192 112.634 89.4331 113.696 90.8608 115.821C92.2996 117.946 93.019 121.056 93.019 125.151ZM81.1489 125.151C81.1489 128.129 81.4035 130.265 81.9126 131.56C82.4328 132.843 83.3016 133.485 84.519 133.485C85.7144 133.485 86.5776 132.832 87.1089 131.526C87.6401 130.22 87.9058 128.095 87.9058 125.151C87.9058 122.174 87.6346 120.038 87.0923 118.743C86.561 117.437 85.7033 116.784 84.519 116.784C83.3127 116.784 82.4494 117.437 81.9292 118.743C81.409 120.038 81.1489 122.174 81.1489 125.151Z" fill="#FFBF00"/>
<defs>
<linearGradient id="paint0_linear" x1="126.931" y1="61.6721" x2="126.931" y2="98.5879" gradientUnits="userSpaceOnUse">
<stop stop-color="#00A4ED"/>
<stop offset="1" stop-color="#0009E3"/>
</linearGradient>
<linearGradient id="paint1_linear" x1="19.4224" y1="61.6721" x2="19.4224" y2="98.5879" gradientUnits="userSpaceOnUse">
<stop stop-color="#00A4ED"/>
<stop offset="1" stop-color="#0009E3"/>
</linearGradient>
<linearGradient id="paint2_linear" x1="73.44" y1="37.5741" x2="73.44" y2="179.688" gradientUnits="userSpaceOnUse">
<stop stop-color="#00A4ED"/>
<stop offset="1" stop-color="#0009E3"/>
</linearGradient>
<linearGradient id="paint3_linear" x1="102.84" y1="37.5741" x2="102.84" y2="179.688" gradientUnits="userSpaceOnUse">
<stop stop-color="#00A4ED"/>
<stop offset="1" stop-color="#0009E3"/>
</linearGradient>
<linearGradient id="paint4_linear" x1="72.0566" y1="74.4456" x2="72.0566" y2="168.557" gradientUnits="userSpaceOnUse">
<stop stop-color="#FFC700"/>
<stop offset="1" stop-color="#FF4070"/>
</linearGradient>
<linearGradient id="paint5_linear" x1="94.6903" y1="74.4456" x2="94.6903" y2="168.408" gradientUnits="userSpaceOnUse">
<stop stop-color="#FFC700"/>
<stop offset="1" stop-color="#FF4070"/>
</linearGradient>
</defs>
</svg>
