<svg width="200" height="137" viewBox="0 0 200 137" fill="none" xmlns="http://www.w3.org/2000/svg">
<g filter="url(#filter0_d)">
<path d="M7.02159 95.4368C7.02159 95.4368 4.1037 98.3547 4.1037 109.54C4.1037 120.725 0.796759 122.379 31.5319 122.379C62.2669 122.379 58.571 121.99 58.571 111.193C58.571 111.193 71.896 111.582 93.8774 118.683C115.859 125.783 176.356 124.324 189.973 105.26C203.59 86.2941 189.876 90.8654 189.876 90.8654C189.876 90.8654 29.8784 80.0692 7.02159 95.4368Z" fill="#4C094E"/>
<path d="M15.3858 41.8445C15.3858 41.8445 7.11841 48.9447 7.11841 95.4364C7.11841 95.4364 53.6101 90.476 90.181 100.786C126.752 111.193 174.897 101.661 189.875 90.865C189.875 90.865 192.793 67.6192 171.59 65.9657C150.387 64.3122 115.567 65.5767 102.242 51.8626C88.8193 38.1485 89.3056 24.0454 89.3056 13.2492C89.3056 2.453 75.9806 -5.03625 64.0172 5.75994L15.3858 41.8445Z" fill="url(#paint0_linear)"/>
<path d="M74.7162 33.5775C74.7162 38.1488 71.0202 41.8448 66.4488 41.8448H15.3858C10.8144 41.8448 7.11841 38.1488 7.11841 33.5775V14.0276C7.11841 9.45625 10.8144 5.76025 15.3858 5.76025H66.4488C71.0202 5.76025 74.7162 9.45625 74.7162 14.0276V33.5775Z" fill="#4C094E"/>
<path d="M11.5924 124.518C11.5924 125.393 10.8143 126.172 9.9389 126.172H5.65933C4.78396 126.172 4.00586 125.393 4.00586 124.518V116.64C4.00586 115.764 4.78396 114.986 5.65933 114.986H9.9389C10.8143 114.986 11.5924 115.764 11.5924 116.64V124.518Z" fill="#4C094E"/>
<path d="M23.3609 124.518C23.3609 125.393 22.5828 126.172 21.7075 126.172H17.4279C16.5525 126.172 15.7744 125.393 15.7744 124.518V116.64C15.7744 115.764 16.5525 114.986 17.4279 114.986H21.7075C22.5828 114.986 23.3609 115.764 23.3609 116.64V124.518Z" fill="#4C094E"/>
<path d="M35.2288 124.518C35.2288 125.393 34.4507 126.172 33.5754 126.172H29.2958C28.4204 126.172 27.6423 125.393 27.6423 124.518V116.64C27.6423 115.764 28.4204 114.986 29.2958 114.986H33.5754C34.4507 114.986 35.2288 115.764 35.2288 116.64V124.518Z" fill="#4C094E"/>
<path d="M46.9974 124.518C46.9974 125.393 46.2193 126.172 45.3439 126.172H41.0644C40.189 126.172 39.4109 125.393 39.4109 124.518V116.64C39.4109 115.764 40.189 114.986 41.0644 114.986H45.3439C46.2193 114.986 46.9974 115.764 46.9974 116.64V124.518Z" fill="#4C094E"/>
<path d="M58.7662 124.518C58.7662 125.393 57.9881 126.172 57.1127 126.172H52.8332C51.9578 126.172 51.1797 125.393 51.1797 124.518V116.64C51.1797 115.764 51.9578 114.986 52.8332 114.986H57.1127C57.9881 114.986 58.7662 115.764 58.7662 116.64V124.518Z" fill="#4C094E"/>
<path d="M147.664 124.518C147.664 125.393 146.886 126.172 146.01 126.172H141.731C140.855 126.172 140.077 125.393 140.077 124.518V116.64C140.077 115.764 140.855 114.986 141.731 114.986H146.01C146.886 114.986 147.664 115.764 147.664 116.64V124.518Z" fill="#A67C52"/>
<path d="M100.492 124.518C100.492 125.393 99.7137 126.172 98.8383 126.172H94.5587C93.6834 126.172 92.9053 125.393 92.9053 124.518V116.64C92.9053 115.764 93.6834 114.986 94.5587 114.986H98.8383C99.7137 114.986 100.492 115.764 100.492 116.64V124.518Z" fill="#4C094E"/>
<path d="M112.358 124.518C112.358 125.393 111.58 126.172 110.705 126.172H106.425C105.55 126.172 104.771 125.393 104.771 124.518V116.64C104.771 115.764 105.55 114.986 106.425 114.986H110.705C111.58 114.986 112.358 115.764 112.358 116.64V124.518Z" fill="#4C094E"/>
<path d="M124.127 124.518C124.127 125.393 123.348 126.172 122.473 126.172H118.194C117.318 126.172 116.54 125.393 116.54 124.518V116.64C116.54 115.764 117.318 114.986 118.194 114.986H122.473C123.348 114.986 124.127 115.764 124.127 116.64V124.518Z" fill="#4C094E"/>
<path d="M135.895 124.518C135.895 125.393 135.117 126.172 134.242 126.172H129.962C129.087 126.172 128.309 125.393 128.309 124.518V116.64C128.309 115.764 129.087 114.986 129.962 114.986H134.242C135.117 114.986 135.895 115.764 135.895 116.64V124.518Z" fill="#4C094E"/>
<path d="M147.664 124.518C147.664 125.393 146.886 126.172 146.01 126.172H141.731C140.855 126.172 140.077 125.393 140.077 124.518V116.64C140.077 115.764 140.855 114.986 141.731 114.986H146.01C146.886 114.986 147.664 115.764 147.664 116.64V124.518Z" fill="#4C094E"/>
<path d="M159.432 124.518C159.432 125.393 158.654 126.172 157.779 126.172H153.499C152.624 126.172 151.846 125.393 151.846 124.518V116.64C151.846 115.764 152.624 114.986 153.499 114.986H157.779C158.654 114.986 159.432 115.764 159.432 116.64V124.518Z" fill="#4C094E"/>
<path d="M171.201 122.281C171.201 123.156 170.423 123.934 169.547 123.934H165.268C164.392 123.934 163.614 123.156 163.614 122.281V114.402C163.614 113.527 164.392 112.749 165.268 112.749H169.547C170.423 112.749 171.201 113.527 171.201 114.402V122.281Z" fill="#4C094E"/>
<path d="M183.067 118.876C183.067 119.752 182.289 120.53 181.414 120.53H177.134C176.259 120.53 175.48 119.752 175.48 118.876V110.998C175.48 110.123 176.259 109.345 177.134 109.345H181.414C182.289 109.345 183.067 110.123 183.067 110.998V118.876Z" fill="#4C094E"/>
<path d="M191.043 111.095C191.043 111.971 190.264 112.749 189.389 112.749H185.11C184.234 112.749 183.456 111.971 183.456 111.095V103.217C183.456 102.342 184.234 101.563 185.11 101.563H189.389C190.264 101.563 191.043 102.342 191.043 103.217V111.095Z" fill="#4C094E"/>
<path d="M90.8625 18.7931H79.9691C78.1211 18.7931 76.6621 17.3341 76.6621 15.4861C76.6621 13.6381 78.1211 12.1792 79.9691 12.1792H90.8625C92.7105 12.1792 94.1694 13.6381 94.1694 15.4861C94.1694 17.3341 92.6132 18.7931 90.8625 18.7931Z" fill="#333333"/>
<path d="M155.638 77.1506C155.249 77.1506 154.86 77.0533 154.471 76.956C152.721 76.2752 151.942 74.3299 152.623 72.6765L156.611 62.5611C157.292 60.8104 159.237 60.0323 160.891 60.7131C162.641 61.394 163.419 63.3392 162.739 64.9927L158.751 75.108C158.265 76.3725 157 77.1506 155.638 77.1506Z" fill="#333333"/>
<path d="M99.4205 66.5495C99.0315 66.4522 98.6424 66.355 98.2534 66.0632C96.6972 65.0905 96.3081 63.048 97.2808 61.4918L103.214 52.3491C104.186 50.7929 106.229 50.4038 107.785 51.3765C109.341 52.3491 109.73 54.3916 108.758 55.9478L102.825 65.0905C102.047 66.2577 100.685 66.744 99.4205 66.5495Z" fill="#333333"/>
<path d="M87.2643 53.7104C86.8752 53.5159 86.5834 53.2241 86.2916 52.9323C85.1245 51.5706 85.2217 49.4308 86.6807 48.2637L94.948 41.1635C96.3097 39.9963 98.4495 40.0936 99.6167 41.5525C100.784 42.9142 100.687 45.054 99.2276 46.2211L90.9603 53.3213C89.8904 54.1967 88.4314 54.294 87.2643 53.7104Z" fill="#333333"/>
<path d="M78.9969 35.8143C78.7051 35.5226 78.5106 35.1335 78.4133 34.7445C77.8297 32.9937 78.8024 31.1457 80.5531 30.5621L90.863 27.1579C92.6137 26.5744 94.4617 27.547 95.0453 29.2977C95.6289 31.0485 94.6562 32.8965 92.9055 33.48L82.5956 36.787C81.2339 37.2733 79.775 36.787 78.9969 35.8143Z" fill="#333333"/>
<path d="M120.138 74.6221C119.749 74.6221 119.359 74.6221 118.873 74.5249C117.122 74.0386 116.053 72.1906 116.636 70.4398L119.651 59.9354C120.138 58.1847 121.986 57.1148 123.736 57.6984C125.487 58.1847 126.557 60.0327 125.973 61.7834L122.958 72.2878C122.666 73.5522 121.499 74.4276 120.138 74.6221Z" fill="#333333"/>
<path d="M139.494 75.7891C139.104 75.7891 138.715 75.7891 138.229 75.6919C136.478 75.2055 135.408 73.3576 135.992 71.6068L139.007 61.1024C139.494 59.3517 141.342 58.2818 143.092 58.8654C144.843 59.3517 145.913 61.1997 145.329 62.9504L142.314 73.4548C142.022 74.7192 140.855 75.6919 139.494 75.7891Z" fill="#333333"/>
<g opacity="0.3">
<path opacity="0.3" d="M14.2181 36.9817C12.3701 36.9817 10.9111 35.5227 10.9111 33.6747V12.5687C10.9111 10.7207 12.3701 9.26172 14.2181 9.26172H34.4488C36.2968 9.26172 37.7557 10.7207 37.7557 12.5687C37.7557 14.4167 36.2968 15.8756 34.4488 15.8756H17.525V33.5775C17.525 35.4255 16.0661 36.9817 14.2181 36.9817Z" fill="#F2F2F2"/>
</g>
<g opacity="0.3">
<path opacity="0.3" d="M15.8734 91.9351C14.1227 91.9351 12.6637 90.5735 12.5665 88.8227C10.6212 56.3369 18.8886 47.875 19.8612 46.9996C21.2229 45.7352 23.3627 45.9298 24.5298 47.2914C25.697 48.6531 25.5997 50.6956 24.3353 51.9601C24.0435 52.2518 17.4296 59.8384 19.1804 88.5309C19.2776 90.3789 17.9159 91.9351 16.068 92.0324C15.9707 91.9351 15.8734 91.9351 15.8734 91.9351Z" fill="#F2F2F2"/>
</g>
</g>
<path d="M89.7264 122.691L78.2279 116.047L72.9158 128.405L52.7549 67.3899L69.5752 61.7389L89.7264 122.691Z" fill="#ED1CBF"/>
<path d="M27.4209 129.601L37.4447 120.483L44.9011 131.286L52.936 67.1268L35.3816 65.39L27.4209 129.601Z" fill="#ED1CBF"/>
<path d="M30.5451 103.637C35.575 106.744 41.3657 108.755 47.5282 109.279L52.763 67.1232L35.3171 65.4403L30.5451 103.637Z" fill="#D919AF"/>
<path d="M69.5201 61.685L52.7534 67.3296L65.7388 106.54C71.6577 104.064 76.767 100.168 80.6907 95.435L69.5201 61.685Z" fill="#D919AF"/>
<path d="M56.3421 105.39C75.2646 102.227 88.3478 84.6311 85.5643 66.0874C82.7807 47.5438 65.1846 35.0747 46.2621 38.237C27.3397 41.3993 14.2565 58.9955 17.04 77.5391C19.8235 96.0828 37.4197 108.552 56.3421 105.39Z" fill="#FFCF03"/>
<path d="M71.3444 43.6891C78.1533 48.7388 82.9733 56.3123 84.3229 65.3037C87.1072 83.8524 74.0284 101.443 55.1008 104.606C45.9257 106.139 37.0562 104.012 30.0284 99.2567C37.2148 104.63 46.6636 107.112 56.4162 105.482C75.3437 102.319 88.4226 84.7283 85.6383 66.1796C84.1395 56.6331 78.8043 48.6945 71.3444 43.6891Z" fill="#FFA506"/>
<path d="M72.5452 68.1356C72.8519 70.2558 71.1775 72.3999 70.8118 74.445C70.4552 76.5524 71.2768 79.0308 70.2296 80.9383C69.1825 82.8458 66.5907 83.6788 65.0197 85.1657C63.4486 86.6527 62.6298 89.2238 60.6549 90.2055C58.7445 91.176 56.1854 90.4052 53.9912 90.7857C51.797 91.1662 49.5806 92.7651 47.4898 92.4884C45.3345 92.2229 43.8301 90.0547 41.9163 89.172C39.9934 88.227 37.3024 88.374 35.7681 86.9142C34.2984 85.4431 34.3803 82.808 33.3817 80.9356C32.4567 79.1144 30.2591 77.6417 29.9524 75.5215C29.6456 73.4013 31.3201 71.2572 31.6858 69.2121C32.0424 67.1047 31.2208 64.6263 32.268 62.7188C33.3151 60.8113 35.9069 59.9783 37.4779 58.4914C39.049 57.0044 39.8678 54.4333 41.8427 53.4516C43.753 52.4811 46.3122 53.2519 48.5064 52.8714C50.7006 52.4909 52.917 50.892 55.0077 51.1687C57.1631 51.4342 58.6675 53.6024 60.5813 54.4851C62.5042 55.4301 65.1952 55.2831 66.7295 56.7429C68.1992 58.214 68.1173 60.8491 69.1159 62.7215C70.0409 64.5427 72.2385 66.0154 72.5452 68.1356Z" fill="#FFEC03"/>
<path d="M56.9351 89.1917C54.2079 89.0893 53.4335 89.2236 50.8687 90.2436C49.9922 90.5874 48.7466 91.123 47.8715 91.0191C46.315 90.7776 44.773 88.8076 42.7766 87.8113C40.7801 86.8151 38.1355 86.8262 37.0605 85.798C35.9856 84.7698 36.012 82.2082 34.9954 80.2111C34.5374 79.3316 33.9038 78.6104 33.3438 77.9404C31.3515 75.601 31.2793 75.1021 32.5138 72.2032C32.9128 71.3029 33.2473 70.4139 33.4437 69.4849C33.8469 67.2415 33.0988 64.8142 33.8309 63.4727C34.563 62.1311 37.0813 61.2469 38.6989 59.624C40.3165 58.001 41.227 55.6058 42.6391 54.8495C43.442 54.4545 44.7779 54.5425 45.7085 54.5729C48.4357 54.6753 49.2101 54.5411 51.7749 53.521C52.7159 53.166 53.897 52.6416 54.7721 52.7455C56.3286 52.987 57.8705 54.957 59.867 55.9533C61.928 56.9383 64.5081 56.9384 65.583 57.9666C66.6579 58.9948 66.6316 61.5564 67.6482 63.5536C68.1062 64.433 68.7398 65.1542 69.2998 65.8242C71.2921 68.1636 71.3643 68.6625 70.1298 71.5614C69.1457 73.9055 68.9868 74.6363 69.0986 77.2379C69.2089 80.2872 69.0604 80.6325 66.3367 82.3834C65.4873 82.9142 64.6379 83.4451 63.8891 84.2142C62.2715 85.8371 61.3611 88.2324 59.9489 88.9887C59.8198 89.0111 57.9302 89.2109 56.9351 89.1917Z" fill="#FFDC01"/>
<path d="M49.7899 95.326C51.2947 96.1347 51.9265 97.7949 51.9265 97.7949C51.9265 97.7949 50.0617 98.1896 48.5569 97.3808C47.052 96.572 46.4203 94.9118 46.4203 94.9118C46.4203 94.9118 48.2204 94.5287 49.7899 95.326Z" fill="#FFAA2E"/>
<path d="M48.5698 98.4291C50.1603 97.5881 51.9795 97.891 51.9795 97.891C51.9795 97.891 51.2335 99.5805 49.643 100.421C48.0525 101.262 46.2332 100.96 46.2332 100.96C46.2332 100.96 46.9793 99.2701 48.5698 98.4291Z" fill="#FFAA2E"/>
<path d="M44.2236 94.6982C45.6315 95.721 46.0065 97.4368 46.0065 97.4368C46.0065 97.4368 44.0987 97.5851 42.6909 96.5623C41.283 95.5395 40.908 93.8237 40.908 93.8237C40.908 93.8237 42.8245 93.7375 44.2236 94.6982Z" fill="#FFAA2E"/>
<path d="M42.5821 97.6217C44.2693 97.0154 45.9842 97.5211 45.9842 97.5211C45.9842 97.5211 45.0209 99.0554 43.3423 99.7223C41.655 100.329 39.9402 99.8229 39.9402 99.8229C39.9402 99.8229 40.9035 98.2886 42.5821 97.6217Z" fill="#FFAA2E"/>
<path d="M39.7133 93.3192C40.8873 94.5194 41.0125 96.3541 41.0125 96.3541C41.0125 96.3541 39.1127 96.1793 37.9387 94.9792C36.7647 93.779 36.6396 91.9443 36.6396 91.9443C36.6396 91.9443 38.5305 92.0566 39.7133 93.3192Z" fill="#FFAA2E"/>
<path d="M37.6267 95.9314C39.3475 95.5682 40.9678 96.3365 40.9678 96.3365C40.9678 96.3365 39.787 97.7191 38.0021 98.0936C36.2814 98.4568 34.6611 97.6885 34.6611 97.6885C34.6611 97.6885 35.906 96.2947 37.6267 95.9314Z" fill="#FFAA2E"/>
<path d="M35.344 90.7452C36.226 92.1977 35.807 94.009 35.807 94.009C35.807 94.009 34.0338 93.4218 33.1518 91.9693C32.2698 90.5168 32.6888 88.7055 32.6888 88.7055C32.6888 88.7055 34.462 89.2927 35.344 90.7452Z" fill="#FFAA2E"/>
<path d="M32.6512 92.8691C34.4253 92.8681 35.7782 94.0586 35.7782 94.0586C35.7782 94.0586 34.2327 95.1993 32.5141 95.1285C30.74 95.1295 29.3871 93.9389 29.3871 93.9389C29.3871 93.9389 30.9326 92.7983 32.6512 92.8691Z" fill="#FFAA2E"/>
<path d="M31.7902 87.5911C32.2313 89.2544 31.3844 90.9511 31.3844 90.9511C31.3844 90.9511 29.8114 89.9385 29.3793 88.338C28.9383 86.6747 29.7851 84.978 29.7851 84.978C29.7851 84.978 31.3492 85.9277 31.7902 87.5911Z" fill="#FFAA2E"/>
<path d="M28.7174 88.9793C30.4276 89.4282 31.4154 90.8178 31.4154 90.8178C31.4154 90.8178 29.6773 91.5626 27.9757 91.1747C26.2656 90.7259 25.2778 89.3362 25.2778 89.3362C25.2778 89.3362 27.0715 88.5191 28.7174 88.9793Z" fill="#FFAA2E"/>
<path d="M28.5075 83.3546C28.6184 85.0771 27.4076 86.5796 27.4076 86.5796C27.4076 86.5796 26.0743 85.3293 26.0296 83.5951C25.9188 81.8726 27.1295 80.3701 27.1295 80.3701C27.1295 80.3701 28.4629 81.6204 28.5075 83.3546Z" fill="#FFAA2E"/>
<path d="M25.2889 84.1636C26.8478 84.9009 27.5448 86.5496 27.5448 86.5496C27.5448 86.5496 25.6925 87.0031 24.1336 86.2658C22.5748 85.5285 21.8778 83.8798 21.8778 83.8798C21.8778 83.8798 23.7213 83.3646 25.2889 84.1636Z" fill="#FFAA2E"/>
<path d="M26.535 79.1707C26.3062 80.887 24.9393 82.2228 24.9393 82.2228C24.9393 82.2228 23.8466 80.7384 24.0754 79.0221C24.3041 77.3058 25.671 75.97 25.671 75.97C25.671 75.97 26.7638 77.4544 26.535 79.1707Z" fill="#FFAA2E"/>
<path d="M23.2468 79.4591C24.6456 80.4224 25.0309 82.2021 25.0309 82.2021C25.0309 82.2021 23.1252 82.348 21.7264 81.3846C20.3277 80.4213 19.9424 78.6416 19.9424 78.6416C19.9424 78.6416 21.8392 78.4336 23.2468 79.4591Z" fill="#FFAA2E"/>
<path d="M25.6256 74.3604C24.9876 76.015 23.3162 77.0165 23.3162 77.0165C23.3162 77.0165 22.6732 75.3307 23.3112 73.6761C23.9492 72.0215 25.6207 71.02 25.6207 71.02C25.6207 71.02 26.2636 72.7058 25.6256 74.3604Z" fill="#FFAA2E"/>
<path d="M22.3586 73.7898C23.4792 75.0685 23.4014 76.8797 23.4014 76.8797C23.4014 76.8797 21.5459 76.5652 20.4253 75.2865C19.3046 74.0077 19.3825 72.1965 19.3825 72.1965C19.3825 72.1965 21.229 72.4484 22.3586 73.7898Z" fill="#FFAA2E"/>
<path d="M25.6468 69.27C24.6553 70.7218 22.8085 71.3037 22.8085 71.3037C22.8085 71.3037 22.6173 69.4867 23.6089 68.0349C24.6005 66.5831 26.4472 66.0012 26.4472 66.0012C26.4472 66.0012 26.7033 67.8068 25.6468 69.27Z" fill="#FFAA2E"/>
<path d="M22.6792 67.9353C23.4406 69.477 22.8821 71.2505 22.8821 71.2505C22.8821 71.2505 21.1547 70.5228 20.3933 68.9811C19.6319 67.4394 20.1903 65.6659 20.1903 65.6659C20.1903 65.6659 21.9838 66.382 22.6792 67.9353Z" fill="#FFAA2E"/>
<path d="M26.8338 64.9137C25.5634 66.1507 23.6721 66.2873 23.6721 66.2873C23.6721 66.2873 23.8704 64.4731 25.2142 63.287C26.4847 62.05 28.3759 61.9134 28.3759 61.9134C28.3759 61.9134 28.1133 63.7388 26.8338 64.9137Z" fill="#FFAA2E"/>
<path d="M24.2356 62.9995C24.6153 64.6792 23.6431 66.333 23.6431 66.333C23.6431 66.333 22.1348 65.2352 21.7551 63.5555C21.3753 61.8758 22.3475 60.222 22.3475 60.222C22.3475 60.222 23.8558 61.3198 24.2356 62.9995Z" fill="#FFAA2E"/>
<path d="M28.4788 60.9343C26.9834 61.9506 25.1254 61.8288 25.1254 61.8288C25.1254 61.8288 25.6617 60.0932 27.0929 59.0879C28.5883 58.0716 30.4463 58.1934 30.4463 58.1934C30.4463 58.1934 29.91 59.9291 28.4788 60.9343Z" fill="#FFAA2E"/>
<path d="M26.2041 58.5826C26.2551 60.3187 25.0585 61.817 25.0585 61.817C25.0585 61.817 23.7862 60.485 23.6787 58.8233C23.6277 57.0872 24.8243 55.5889 24.8243 55.5889C24.8243 55.5889 26.1532 56.8466 26.2041 58.5826Z" fill="#FFAA2E"/>
<path d="M59.1282 93.6148C57.9198 94.9056 57.7763 96.7035 57.7763 96.7035C57.7763 96.7035 59.6585 96.4324 60.8669 95.1416C62.0754 93.8508 62.2189 92.0529 62.2189 92.0529C62.2189 92.0529 60.4013 92.3126 59.1282 93.6148Z" fill="#FFAA2E"/>
<path d="M61.2434 96.147C59.497 95.8936 57.851 96.8068 57.851 96.8068C57.851 96.8068 59.0301 98.1573 60.7765 98.4106C62.5229 98.664 64.1689 97.7509 64.1689 97.7509C64.1689 97.7509 62.9898 96.4004 61.2434 96.147Z" fill="#FFAA2E"/>
<path d="M63.5659 91.6689C62.5083 93.1302 62.6238 94.8921 62.6238 94.8921C62.6238 94.8921 64.4791 94.3712 65.5366 92.9099C66.5941 91.4486 66.4786 89.6867 66.4786 89.6867C66.4786 89.6867 64.6322 90.2697 63.5659 91.6689Z" fill="#FFAA2E"/>
<path d="M66.0308 93.9004C64.257 93.9014 62.7671 94.9696 62.7671 94.9696C62.7671 94.9696 64.1112 96.0988 65.8936 96.1583C67.6674 96.1573 69.1572 95.0892 69.1572 95.0892C69.1572 95.0892 67.8132 93.9599 66.0308 93.9004Z" fill="#FFAA2E"/>
<path d="M67.3953 88.7777C66.6094 90.3261 66.9958 92.1144 66.9958 92.1144C66.9958 92.1144 68.7545 91.2896 69.5404 89.7413C70.3263 88.1929 69.9399 86.4046 69.9399 86.4046C69.9399 86.4046 68.2465 87.2178 67.3953 88.7777Z" fill="#FFAA2E"/>
<path d="M70.1913 90.5774C68.4532 90.8199 67.127 92.1042 67.127 92.1042C67.127 92.1042 68.6364 93.0156 70.4386 92.7619C72.1766 92.5194 73.5028 91.2351 73.5028 91.2351C73.5028 91.2351 71.938 90.3953 70.1913 90.5774Z" fill="#FFAA2E"/>
<path d="M70.6398 85.1328C70.2029 86.8186 71.1027 88.3966 71.1027 88.3966C71.1027 88.3966 72.6267 87.2263 73.0635 85.5406C73.5004 83.8548 72.6006 82.2768 72.6006 82.2768C72.6006 82.2768 71.0678 83.3843 70.6398 85.1328Z" fill="#FFAA2E"/>
<path d="M73.8628 86.2197C72.1755 86.8263 71.2207 88.4216 71.2207 88.4216C71.2207 88.4216 73.0084 88.9768 74.6231 88.3209C76.3105 87.7143 77.2652 86.119 77.2652 86.119C77.2652 86.119 75.5502 85.6131 73.8628 86.2197Z" fill="#FFAA2E"/>
<path d="M73.1783 80.6885C73.2211 82.422 74.4981 83.7447 74.4981 83.7447C74.4981 83.7447 75.7126 82.2412 75.6788 80.5706C75.636 78.8371 74.359 77.5144 74.359 77.5144C74.359 77.5144 73.1444 79.018 73.1783 80.6885Z" fill="#FFAA2E"/>
<path d="M76.4988 81.105C74.9968 82.1209 74.4427 83.7827 74.4427 83.7827C74.4427 83.7827 76.3023 83.8924 77.813 82.9375C79.315 81.9217 79.8691 80.2599 79.8691 80.2599C79.8691 80.2599 78.0009 80.0892 76.4988 81.105Z" fill="#FFAA2E"/>
<path d="M74.716 76.0124C75.0918 77.6885 76.6631 78.7035 76.6631 78.7035C76.6631 78.7035 77.582 77.0586 77.14 75.3941C76.7642 73.718 75.1929 72.703 75.1929 72.703C75.1929 72.703 74.274 74.3479 74.716 76.0124Z" fill="#FFAA2E"/>
<path d="M78.0468 75.704C76.7686 76.942 76.5629 78.7499 76.5629 78.7499C76.5629 78.7499 78.4502 78.5432 79.7284 77.3053C81.0065 76.0673 81.2123 74.2594 81.2123 74.2594C81.2123 74.2594 79.3249 74.466 78.0468 75.704Z" fill="#FFAA2E"/>
<path d="M75.292 71.4244C75.9884 72.9785 77.6616 73.7809 77.6616 73.7809C77.6616 73.7809 78.2871 71.9949 77.5906 70.4408C76.8941 68.8867 75.221 68.0843 75.221 68.0843C75.221 68.0843 74.6616 69.8587 75.292 71.4244Z" fill="#FFAA2E"/>
<path d="M78.5333 70.6053C77.4695 72.0041 77.5956 73.8296 77.5956 73.8296C77.5956 73.8296 79.4484 73.3107 80.5122 71.9119C81.576 70.5131 81.4499 68.6876 81.4499 68.6876C81.4499 68.6876 79.6619 69.195 78.5333 70.6053Z" fill="#FFAA2E"/>
<path d="M74.6839 66.6948C75.75 68.0489 77.6177 68.4263 77.6177 68.4263C77.6177 68.4263 77.7613 66.6018 76.6953 65.2477C75.6292 63.8936 73.7615 63.5162 73.7615 63.5162C73.7615 63.5162 73.6179 65.3407 74.6839 66.6948Z" fill="#FFAA2E"/>
<path d="M77.6488 65.1361C76.9375 66.7381 77.5139 68.4338 77.5139 68.4338C77.5139 68.4338 79.1913 67.4958 79.9026 65.8938C80.6139 64.2918 80.0376 62.5962 80.0376 62.5962C80.0376 62.5962 78.2857 63.4831 77.6488 65.1361Z" fill="#FFAA2E"/>
<path d="M73.0176 61.8666C74.3624 62.905 76.2799 62.8211 76.2799 62.8211C76.2799 62.8211 75.9589 61.0272 74.6141 59.9887C73.2693 58.9503 71.3518 59.0342 71.3518 59.0342C71.3518 59.0342 71.6078 60.8396 73.0176 61.8666Z" fill="#FFAA2E"/>
<path d="M75.4636 59.6816C75.169 61.4087 76.1944 62.904 76.1944 62.904C76.1944 62.904 77.6347 61.62 77.9292 59.8929C78.2238 58.1657 77.1984 56.6704 77.1984 56.6704C77.1984 56.6704 75.7671 58.0173 75.4636 59.6816Z" fill="#FFAA2E"/>
<path d="M70.6152 58.1293C72.1733 58.8767 74.0106 58.368 74.0106 58.368C74.0106 58.368 73.3089 56.7096 71.6955 56.0353C70.1374 55.2879 68.3001 55.7966 68.3001 55.7966C68.3001 55.7966 69.0661 57.4439 70.6152 58.1293Z" fill="#FFAA2E"/>
<path d="M72.5233 55.5158C72.64 57.2407 74.0352 58.4872 74.0352 58.4872C74.0352 58.4872 75.1573 56.9369 75.0406 55.212C74.9238 53.4871 73.5287 52.2406 73.5287 52.2406C73.5287 52.2406 72.4066 53.7908 72.5233 55.5158Z" fill="#FFAA2E"/>
<path d="M67.6917 54.8694C69.4023 55.3327 71.1348 54.5914 71.1348 54.5914C71.1348 54.5914 70.1323 53.1213 68.4859 52.6469C66.7754 52.1837 65.0429 52.9249 65.0429 52.9249C65.0429 52.9249 66.0453 54.3951 67.6917 54.8694Z" fill="#FFAA2E"/>
<path d="M69.1555 51.9444C69.6008 53.6126 71.1651 54.6359 71.1651 54.6359C71.1651 54.6359 71.9962 52.942 71.6258 51.3255C71.1804 49.6573 69.6162 48.634 69.6162 48.634C69.6162 48.634 68.7193 50.3393 69.1555 51.9444Z" fill="#FFAA2E"/>
<path d="M66.2433 50.0392C66.1879 50.1126 66.1325 50.186 66.0127 50.2705L65.9573 50.3438C72.1537 53.9248 76.5862 59.9157 77.6488 67.2556C79.6299 80.9401 69.0136 94.257 54.0068 96.8573C39 99.4577 25.1508 90.4438 23.1607 76.6971C22.1431 69.6682 24.3895 62.8389 28.8847 57.4053C28.7468 57.3654 28.5446 57.3367 28.4068 57.2968C23.9206 62.7926 21.6832 69.6841 22.7098 76.7752C24.727 90.7086 38.7964 99.8755 54.0608 97.2305C69.3252 94.5856 80.1168 81.1108 78.0996 67.1774C77.028 59.7753 72.5131 53.6713 66.2433 50.0392Z" fill="#FF9912"/>
<path d="M31.5826 57.1154C29.9087 57.7795 28.1838 57.1969 28.1838 57.1969C28.1838 57.1969 29.1298 55.5906 30.8127 54.9877C32.4866 54.3236 34.2115 54.9063 34.2115 54.9063C34.2115 54.9063 33.1926 56.4623 31.5826 57.1154Z" fill="#FFAA2E"/>
<path d="M30.0034 54.2661C29.6428 55.9419 28.1428 57.1689 28.1428 57.1689C28.1428 57.1689 27.2406 55.5818 27.6011 53.9059C27.9616 52.2301 29.4617 51.0031 29.4617 51.0031C29.4617 51.0031 30.3639 52.5903 30.0034 54.2661Z" fill="#FFAA2E"/>
<path d="M63.7292 52.0297C65.5105 52.1005 66.9849 50.9685 66.9849 50.9685C66.9849 50.9685 65.6274 49.7578 63.855 49.7482C62.0737 49.6775 60.5993 50.8095 60.5993 50.8095C60.5993 50.8095 61.9479 51.9589 63.7292 52.0297Z" fill="#FFAA2E"/>
<path d="M64.3711 48.8549C65.1896 50.3274 66.9643 50.9895 66.9643 50.9895C66.9643 50.9895 67.3721 49.1764 66.5536 47.7039C65.7352 46.2314 63.9604 45.5693 63.9604 45.5693C63.9604 45.5693 63.5527 47.3824 64.3711 48.8549Z" fill="#FFAA2E"/>
<path d="M41.2689 49.9016L38.7912 49.6067L36.8534 51.1551L36.4306 48.7767L34.3794 47.3793L36.5663 46.176L37.272 43.8668L39.0307 45.5064L41.5159 45.4133L40.4611 47.5875L41.2689 49.9016Z" fill="#FFEC03"/>
<path d="M56.7137 47.6913L58.9749 48.7316L58.937 46.2883L60.6356 44.4572L58.3027 43.8156L57.1287 41.6911L55.7245 43.7308L53.2313 44.2119L54.762 46.0835L54.4054 48.5283L56.7137 47.6913Z" fill="#FFEC03"/>
<path d="M49.9123 48.2064L47.5163 47.5759L45.3299 48.7789L45.292 46.3368L43.4695 44.7083L45.8315 43.7981L46.886 41.6244L48.4161 43.495L50.829 43.8006L49.4255 45.8393L49.9123 48.2064Z" fill="#FFEC03"/>
<path d="M55.3158 80.7915L51.5903 81.3815L49.9748 71.1815L49.7455 69.4999L49.5155 67.6577C48.9946 68.3747 48.6289 68.8487 48.4183 69.0798L46.6506 71.0283L44.499 69.0702L49.4616 63.6495L52.524 63.1645L55.3158 80.7915Z" fill="#ED1CBF"/>
<defs>
<filter id="filter0_d" x="0" y="0.5" width="200" height="133.672" filterUnits="userSpaceOnUse" color-interpolation-filters="sRGB">
<feFlood flood-opacity="0" result="BackgroundImageFix"/>
<feColorMatrix in="SourceAlpha" type="matrix" values="0 0 0 0 0 0 0 0 0 0 0 0 0 0 0 0 0 0 127 0"/>
<feOffset dy="4"/>
<feGaussianBlur stdDeviation="2"/>
<feColorMatrix type="matrix" values="0 0 0 0 0 0 0 0 0 0 0 0 0 0 0 0 0 0 0.25 0"/>
<feBlend mode="normal" in2="BackgroundImageFix" result="effect1_dropShadow"/>
<feBlend mode="normal" in="SourceGraphic" in2="effect1_dropShadow" result="shape"/>
</filter>
<linearGradient id="paint0_linear" x1="98.5649" y1="0.5" x2="98.5649" y2="105.274" gradientUnits="userSpaceOnUse">
<stop stop-color="#FF9905"/>
<stop offset="1" stop-color="#C822AD"/>
</linearGradient>
</defs>
</svg>
