<svg width="146" height="191" viewBox="0 0 146 191" fill="none" xmlns="http://www.w3.org/2000/svg">
<path fill-rule="evenodd" clip-rule="evenodd" d="M119.126 65.9368H134.899C137.914 65.9368 140.581 67.2125 142.553 69.1841C144.525 71.1556 145.8 73.939 145.8 76.8384V90.5234C145.8 93.5387 144.525 96.2061 142.553 98.1777C140.581 100.149 137.798 101.425 134.899 101.425H119.01C115.995 101.425 113.327 100.149 111.356 98.1777C109.384 96.2061 108.109 93.4227 108.109 90.5234V76.8384C108.109 73.823 109.384 71.1556 111.356 69.1841C113.327 67.0965 116.111 65.9368 119.126 65.9368ZM134.899 70.4598H119.01C117.271 70.4598 115.647 71.1556 114.487 72.3154C113.327 73.4751 112.632 75.0988 112.632 76.8384V90.5234C112.632 92.263 113.327 93.8866 114.487 95.0464C115.647 96.2061 117.271 96.902 119.01 96.902H134.899C136.638 96.902 138.262 96.2061 139.422 95.0464C140.581 93.8866 141.277 92.263 141.277 90.5234V76.8384C141.277 75.0988 140.581 73.4751 139.422 72.3154C138.262 71.1556 136.638 70.4598 134.899 70.4598Z" fill="url(#paint0_linear)"/>
<path fill-rule="evenodd" clip-rule="evenodd" d="M11.5017 65.9368H27.3902C30.4055 65.9368 33.0729 67.2125 35.0445 69.1841C37.0161 71.1556 38.2918 73.939 38.2918 76.8384V90.5234C38.2918 93.5387 37.0161 96.2061 35.0445 98.1777C33.0729 100.149 30.2896 101.425 27.3902 101.425H11.5017C8.48636 101.425 5.81895 100.149 3.84738 98.1777C1.87582 96.2061 0.600098 93.4227 0.600098 90.5234V76.8384C0.600098 73.823 1.87582 71.1556 3.84738 69.1841C5.70297 67.0965 8.48636 65.9368 11.5017 65.9368ZM27.2742 70.4598H11.5017C9.76208 70.4598 8.13844 71.1556 6.97869 72.3154C5.81895 73.4751 5.1231 75.0988 5.1231 76.8384V90.5234C5.1231 92.263 5.81895 93.8866 6.97869 95.0464C8.13844 96.2061 9.76208 96.902 11.5017 96.902H27.3902C29.1298 96.902 30.7535 96.2061 31.9132 95.0464C33.0729 93.8866 33.7688 92.263 33.7688 90.5234V76.8384C33.7688 75.0988 33.0729 73.4751 31.9132 72.3154C30.6375 71.1556 29.0138 70.4598 27.2742 70.4598Z" fill="url(#paint1_linear)"/>
<path fill-rule="evenodd" clip-rule="evenodd" d="M25.4183 53.9915H120.749C127.128 53.9915 133.274 59.3263 132.347 65.5889L115.067 179.012C114.139 185.275 109.848 190.609 103.469 190.609H42.6985C36.3199 190.609 32.0288 185.275 31.101 179.012L13.8208 65.5889C12.893 59.3263 19.0397 53.9915 25.4183 53.9915Z" fill="url(#paint2_linear)"/>
<path fill-rule="evenodd" clip-rule="evenodd" d="M73.084 53.9915H120.749C127.128 53.9915 133.275 59.3263 132.347 65.5889L115.067 179.012C114.139 185.275 109.848 190.609 103.469 190.609H73.084V53.9915Z" fill="url(#paint3_linear)"/>
<path fill-rule="evenodd" clip-rule="evenodd" d="M9.52984 47.9607H136.754C139.305 47.9607 141.277 50.0482 141.277 52.4837V57.5866C141.277 60.138 139.189 62.1096 136.754 62.1096H9.52984C6.9784 62.1096 5.00684 60.022 5.00684 57.5866V52.4837C5.00684 50.0482 6.9784 47.9607 9.52984 47.9607Z" fill="#FF8C00"/>
<path fill-rule="evenodd" clip-rule="evenodd" d="M73.0835 47.9607H138.261C139.885 47.9607 141.276 50.0482 141.276 52.4837V57.5866C141.276 60.138 139.885 62.1096 138.261 62.1096H73.0835V47.9607Z" fill="#E77F00"/>
<path fill-rule="evenodd" clip-rule="evenodd" d="M88.8565 5.16619L73.4319 1.45501C70.5325 0.759163 67.5172 1.33903 65.1977 2.73073C62.7622 4.2384 61.0226 6.55789 60.3267 9.45725L59.167 14.3282L63.574 15.3719L64.7338 10.501C65.1977 8.7614 66.2414 7.36971 67.6331 6.55789C69.0248 5.74607 70.7644 5.39814 72.3881 5.74607L87.8127 9.45725C89.5523 9.92115 90.944 10.9649 91.7558 12.3566C92.5676 13.7483 92.9156 15.4879 92.5676 17.1116L91.4079 21.9825L95.8149 23.0263L96.9747 18.1553C97.6705 15.256 97.0906 12.2406 95.6989 9.92114C94.0753 7.71763 91.7558 5.86204 88.8565 5.16619Z" fill="#F68503"/>
<path fill-rule="evenodd" clip-rule="evenodd" d="M88.8558 5.16614L81.2015 3.31055L80.1577 7.71758L87.812 9.57317C89.5516 10.0371 90.9433 11.0808 91.7552 12.4725C92.567 13.8642 92.9149 15.6038 92.567 17.2275L91.4072 22.0984L95.8143 23.1422L96.974 18.2713C97.6699 15.3719 97.09 12.3566 95.6983 10.0371C94.0746 7.71758 91.7552 5.86199 88.8558 5.16614Z" fill="#ED7500"/>
<path fill-rule="evenodd" clip-rule="evenodd" d="M16.3726 0.411218L140.001 30.1007C142.437 30.6805 143.945 33.116 143.365 35.6674L142.205 40.5384C141.625 42.9738 139.19 44.4815 136.638 43.9016L13.1253 14.2122C10.6898 13.6323 9.18218 11.1968 9.76205 8.6454L10.9218 3.77448C11.5017 1.33901 13.9371 -0.168654 16.3726 0.411218Z" fill="#E77F00"/>
<path fill-rule="evenodd" clip-rule="evenodd" d="M78.3022 15.2559L141.624 30.4485C143.248 30.7964 144.06 33.1159 143.48 35.5514L142.32 40.4223C141.74 42.8578 139.885 44.5974 138.377 44.1335L74.939 29.0568L78.3022 15.2559Z" fill="#FF8C00"/>
<path fill-rule="evenodd" clip-rule="evenodd" d="M75.1606 83.678C76.0541 83.678 76.7986 83.678 77.6921 83.678V74.4456L96.9015 90.0812L77.6921 105.717V94.5485C76.7986 94.5485 76.0541 94.3996 75.1606 94.3996C66.5238 94.3996 58.6315 97.9734 52.9729 103.632C48.6545 107.95 45.5274 113.46 44.3361 119.714L34.3591 114.651C36.2949 107.504 40.1666 101.101 45.2296 95.8887C52.9729 88.4432 63.5456 83.678 75.1606 83.678ZM115.218 162.898L106.73 154.411C113.431 146.965 117.6 136.988 117.6 126.118C117.6 114.354 112.835 103.781 105.241 96.1865C103.9 94.8463 102.56 93.655 101.071 92.4637L92.2853 99.6114C94.2211 100.803 95.8592 102.292 97.4972 103.781C103.156 109.44 106.73 117.332 106.73 125.969C106.73 133.861 103.9 141.009 98.9863 146.518L93.0299 140.562L90.4984 165.281L115.218 162.898ZM26.9136 144.582L33.6146 120.757L55.6533 132.074L45.5274 136.541C47.1654 141.157 49.6969 145.178 52.9729 148.454C58.6315 154.113 66.5238 157.687 75.1606 157.687C79.1812 157.687 83.0529 156.942 86.6267 155.602L85.4354 167.366C82.1594 168.11 78.7344 168.557 75.1606 168.557C63.3967 168.557 52.824 163.792 45.2296 156.197C40.9112 151.879 37.6351 146.667 35.4015 140.86L26.9136 144.582Z" fill="url(#paint4_linear)"/>
<path fill-rule="evenodd" clip-rule="evenodd" d="M75.1599 83.678C76.0533 83.678 76.7979 83.678 77.6913 83.678V74.4456L96.9008 90.0812L77.6913 105.717V94.5485C76.7979 94.5485 76.0533 94.3996 75.1599 94.3996C74.1175 94.3996 73.224 94.3996 72.1816 94.5485V83.678C73.224 83.8269 74.2664 83.678 75.1599 83.678ZM115.217 162.898L106.729 154.411C113.43 146.965 117.599 136.988 117.599 126.118C117.599 114.354 112.834 103.781 105.24 96.1865C103.9 94.8463 102.559 93.655 101.07 92.4637L92.2846 99.6114C94.2204 100.803 95.8584 102.292 97.4964 103.781C103.155 109.44 106.729 117.332 106.729 125.969C106.729 133.861 103.9 141.009 98.9855 146.518L93.0291 140.562L90.4976 165.281L115.217 162.898ZM72.1816 157.389C73.224 157.538 74.1175 157.538 75.1599 157.538C79.1804 157.538 83.0521 156.793 86.626 155.453L85.4347 167.217C82.1587 167.961 78.7337 168.408 75.1599 168.408C74.1175 168.408 73.224 168.408 72.1816 168.259V157.389Z" fill="url(#paint5_linear)"/>
<path d="M73.9282 137.287H56.9614V133.718L63.0542 127.559C64.8582 125.71 66.0369 124.432 66.5903 123.724C67.1437 123.004 67.5422 122.34 67.7856 121.731C68.0291 121.123 68.1509 120.492 68.1509 119.839C68.1509 118.865 67.8797 118.14 67.3374 117.664C66.8062 117.188 66.0923 116.95 65.1958 116.95C64.255 116.95 63.342 117.166 62.4565 117.598C61.5711 118.029 60.647 118.644 59.6841 119.44L56.895 116.137C58.0903 115.118 59.0809 114.399 59.8667 113.979C60.6525 113.558 61.5103 113.237 62.4399 113.016C63.3696 112.783 64.41 112.667 65.561 112.667C67.0773 112.667 68.4165 112.944 69.5786 113.497C70.7407 114.05 71.6427 114.825 72.2847 115.821C72.9266 116.817 73.2476 117.957 73.2476 119.241C73.2476 120.359 73.0483 121.41 72.6499 122.396C72.2625 123.369 71.6538 124.371 70.8237 125.4C70.0047 126.43 68.5549 127.896 66.4741 129.8L63.353 132.738V132.971H73.9282V137.287ZM85.2173 121.781C87.5636 121.781 89.4285 122.44 90.812 123.757C92.2065 125.074 92.9038 126.878 92.9038 129.169C92.9038 131.881 92.0682 133.967 90.397 135.428C88.7257 136.889 86.3351 137.619 83.2251 137.619C80.5246 137.619 78.3442 137.182 76.6841 136.308V131.875C77.5584 132.34 78.5767 132.722 79.7388 133.021C80.9009 133.308 82.0021 133.452 83.0425 133.452C86.1746 133.452 87.7407 132.168 87.7407 129.601C87.7407 127.155 86.1193 125.932 82.8765 125.932C82.2899 125.932 81.6424 125.993 80.9341 126.114C80.2257 126.225 79.6502 126.347 79.2075 126.479L77.1655 125.384L78.0786 113.016H91.2437V117.365H82.5776L82.1294 122.13L82.7104 122.014C83.3856 121.859 84.2212 121.781 85.2173 121.781Z" fill="#FFBF00"/>
<defs>
<linearGradient id="paint0_linear" x1="127.131" y1="61.6721" x2="127.131" y2="98.5879" gradientUnits="userSpaceOnUse">
<stop stop-color="#00A4ED"/>
<stop offset="1" stop-color="#0009E3"/>
</linearGradient>
<linearGradient id="paint1_linear" x1="19.6226" y1="61.6721" x2="19.6226" y2="98.5879" gradientUnits="userSpaceOnUse">
<stop stop-color="#00A4ED"/>
<stop offset="1" stop-color="#0009E3"/>
</linearGradient>
<linearGradient id="paint2_linear" x1="73.6402" y1="37.5741" x2="73.6402" y2="179.688" gradientUnits="userSpaceOnUse">
<stop stop-color="#00A4ED"/>
<stop offset="1" stop-color="#0009E3"/>
</linearGradient>
<linearGradient id="paint3_linear" x1="103.04" y1="37.5741" x2="103.04" y2="179.688" gradientUnits="userSpaceOnUse">
<stop stop-color="#00A4ED"/>
<stop offset="1" stop-color="#0009E3"/>
</linearGradient>
<linearGradient id="paint4_linear" x1="72.2568" y1="74.4456" x2="72.2568" y2="168.557" gradientUnits="userSpaceOnUse">
<stop stop-color="#FFC700"/>
<stop offset="1" stop-color="#FF4070"/>
</linearGradient>
<linearGradient id="paint5_linear" x1="94.8905" y1="74.4456" x2="94.8905" y2="168.408" gradientUnits="userSpaceOnUse">
<stop stop-color="#FFC700"/>
<stop offset="1" stop-color="#FF4070"/>
</linearGradient>
</defs>
</svg>
