<svg width="168" height="219" viewBox="0 0 168 219" fill="none" xmlns="http://www.w3.org/2000/svg">
<path fill-rule="evenodd" clip-rule="evenodd" d="M136.523 75.5059H154.664C158.132 75.5059 161.2 76.9731 163.467 79.2407C165.735 81.5083 167.202 84.7095 167.202 88.0442V103.784C167.202 107.252 165.735 110.32 163.467 112.587C161.2 114.855 157.998 116.322 154.664 116.322H136.39C132.922 116.322 129.854 114.855 127.586 112.587C125.319 110.32 123.851 107.118 123.851 103.784V88.0442C123.851 84.5761 125.319 81.5083 127.586 79.2407C129.854 76.8397 133.055 75.5059 136.523 75.5059ZM154.664 80.7079H136.39C134.389 80.7079 132.521 81.5082 131.188 82.8421C129.854 84.176 129.053 86.0434 129.053 88.0442V103.784C129.053 105.785 129.854 107.652 131.188 108.986C132.521 110.32 134.389 111.12 136.39 111.12H154.664C156.664 111.12 158.532 110.32 159.866 108.986C161.199 107.652 162 105.785 162 103.784V88.0442C162 86.0434 161.199 84.176 159.866 82.8421C158.532 81.5082 156.664 80.7079 154.664 80.7079Z" fill="url(#paint0_linear)"/>
<path fill-rule="evenodd" clip-rule="evenodd" d="M12.74 75.5059H31.0139C34.482 75.5059 37.5498 76.9731 39.8174 79.2407C42.085 81.5083 43.5522 84.7095 43.5522 88.0442V103.784C43.5522 107.252 42.085 110.32 39.8174 112.587C37.5498 114.855 34.3486 116.322 31.0139 116.322H12.74C9.27193 116.322 6.20405 114.855 3.93648 112.587C1.66891 110.32 0.20166 107.118 0.20166 103.784V88.0442C0.20166 84.5761 1.66891 81.5083 3.93648 79.2407C6.07066 76.8397 9.27193 75.5059 12.74 75.5059ZM30.8805 80.7079H12.74C10.7392 80.7079 8.87177 81.5082 7.53791 82.8421C6.20405 84.176 5.40373 86.0434 5.40373 88.0442V103.784C5.40373 105.785 6.20405 107.652 7.53791 108.986C8.87177 110.32 10.7392 111.12 12.74 111.12H31.0139C33.0147 111.12 34.8821 110.32 36.216 108.986C37.5498 107.652 38.3502 105.785 38.3502 103.784V88.0442C38.3502 86.0434 37.5498 84.176 36.216 82.8421C34.7487 81.5082 32.8813 80.7079 30.8805 80.7079Z" fill="url(#paint1_linear)"/>
<path fill-rule="evenodd" clip-rule="evenodd" d="M28.7465 61.7671H138.39C145.726 61.7671 152.796 67.9029 151.729 75.1057L131.854 205.558C130.787 212.76 125.852 218.896 118.516 218.896H48.621C41.2848 218.896 36.3495 212.76 35.2824 205.558L15.4078 75.1057C14.3407 67.9029 21.4102 61.7671 28.7465 61.7671Z" fill="url(#paint2_linear)"/>
<path fill-rule="evenodd" clip-rule="evenodd" d="M83.5686 61.7671H138.39C145.727 61.7671 152.796 67.9029 151.729 75.1057L131.854 205.558C130.787 212.76 125.852 218.896 118.516 218.896H83.5686V61.7671Z" fill="url(#paint3_linear)"/>
<path fill-rule="evenodd" clip-rule="evenodd" d="M10.4726 54.8311H156.797C159.732 54.8311 161.999 57.232 161.999 60.0331V65.9021C161.999 68.8366 159.599 71.1042 156.797 71.1042H10.4726C7.53808 71.1042 5.27051 68.7032 5.27051 65.9021V60.0331C5.27051 57.232 7.53808 54.8311 10.4726 54.8311Z" fill="#FF8C00"/>
<path fill-rule="evenodd" clip-rule="evenodd" d="M83.5681 54.8311H158.531C160.399 54.8311 161.999 57.232 161.999 60.0331V65.9021C161.999 68.8366 160.399 71.1042 158.531 71.1042H83.5681V54.8311Z" fill="#E77F00"/>
<path fill-rule="evenodd" clip-rule="evenodd" d="M101.708 5.61164L83.9681 1.34327C80.6334 0.542954 77.1653 1.20988 74.4976 2.81052C71.6965 4.54454 69.6957 7.21228 68.8954 10.5469L67.5615 16.1492L72.6302 17.3496L73.9641 11.7474C74.4976 9.74661 75.6981 8.14598 77.2987 7.21228C78.8994 6.27857 80.9002 5.87841 82.7676 6.27857L100.508 10.5469C102.509 11.0805 104.109 12.281 105.043 13.8816C105.977 15.4822 106.377 17.483 105.977 19.3504L104.643 24.9527L109.712 26.1531L111.045 20.5509C111.846 17.2163 111.179 13.7482 109.578 11.0805C107.711 8.54614 105.043 6.41196 101.708 5.61164Z" fill="#F68503"/>
<path fill-rule="evenodd" clip-rule="evenodd" d="M101.707 5.61172L92.9038 3.47754L91.7034 8.54623L100.507 10.6804C102.508 11.214 104.108 12.4144 105.042 14.0151C105.976 15.6157 106.376 17.6165 105.976 19.4839L104.642 25.0861L109.711 26.2866L111.044 20.6844C111.845 17.3497 111.178 13.8817 109.577 11.214C107.71 8.54623 105.042 6.41204 101.707 5.61172Z" fill="#ED7500"/>
<path fill-rule="evenodd" clip-rule="evenodd" d="M18.3424 0.142742L160.532 34.2897C163.333 34.9566 165.067 37.7577 164.401 40.6922L163.067 46.2944C162.4 49.0955 159.599 50.8296 156.664 50.1626L14.6076 16.0157C11.8065 15.3488 10.0725 12.5477 10.7394 9.61318L12.0733 4.01095C12.7402 1.20983 15.5413 -0.52419 18.3424 0.142742Z" fill="#E77F00"/>
<path fill-rule="evenodd" clip-rule="evenodd" d="M89.5691 17.2163L162.398 34.6899C164.266 35.0901 165.199 37.7578 164.532 40.5589L163.198 46.1611C162.531 48.9623 160.397 50.9631 158.663 50.4295L85.7009 33.0893L89.5691 17.2163Z" fill="#FF8C00"/>
<path fill-rule="evenodd" clip-rule="evenodd" d="M86.9606 91.9203C88.0303 91.9203 88.9216 91.9203 89.9912 91.9203V80.8677L112.988 99.5859L89.9912 118.304V104.934C88.9216 104.934 88.0303 104.756 86.9606 104.756C76.6211 104.756 67.1729 109.034 60.3987 115.808C55.2289 120.978 51.4852 127.574 50.0591 135.061L38.1151 129C40.4326 120.443 45.0676 112.778 51.1287 106.538C60.3986 97.6249 73.0557 91.9203 86.9606 91.9203ZM134.915 186.759L124.754 176.598C132.776 167.684 137.767 155.74 137.767 142.727C137.767 128.644 132.063 115.987 122.971 106.895C121.366 105.29 119.762 103.864 117.979 102.438L107.462 110.995C109.779 112.421 111.74 114.204 113.701 115.987C120.475 122.761 124.754 132.209 124.754 142.549C124.754 151.997 121.366 160.554 115.484 167.15L108.353 160.019L105.322 189.611L134.915 186.759ZM29.2017 164.832L37.2237 136.309L63.6075 149.858L51.4852 155.206C53.4462 160.732 56.4767 165.545 60.3987 169.467C67.1729 176.241 76.6211 180.52 86.9606 180.52C91.7739 180.52 96.4089 179.628 100.687 178.024L99.2612 192.107C95.3393 192.999 91.2391 193.533 86.9606 193.533C72.8774 193.533 60.2204 187.829 51.1287 178.737C45.9589 173.567 42.037 167.328 39.363 160.375L29.2017 164.832Z" fill="url(#paint4_linear)"/>
<path fill-rule="evenodd" clip-rule="evenodd" d="M86.9599 91.9203C88.0295 91.9203 88.9209 91.9203 89.9905 91.9203V80.8677L112.987 99.5859L89.9905 118.304V104.934C88.9209 104.934 88.0295 104.756 86.9599 104.756C85.712 104.756 84.6424 104.756 83.3945 104.934V91.9203C84.6424 92.0986 85.8903 91.9203 86.9599 91.9203ZM134.914 186.759L124.753 176.598C132.775 167.684 137.766 155.74 137.766 142.727C137.766 128.644 132.062 115.987 122.97 106.895C121.366 105.29 119.761 103.864 117.979 102.438L107.461 110.995C109.778 112.421 111.739 114.204 113.7 115.987C120.474 122.761 124.753 132.209 124.753 142.549C124.753 151.997 121.366 160.554 115.483 167.15L108.352 160.019L105.322 189.611L134.914 186.759ZM83.3945 180.163C84.6424 180.341 85.712 180.341 86.9599 180.341C91.7732 180.341 96.4081 179.45 100.687 177.846L99.2604 191.929C95.3385 192.82 91.2383 193.355 86.9599 193.355C85.712 193.355 84.6424 193.355 83.3945 193.177V180.163Z" fill="url(#paint5_linear)"/>
<path d="M76.1958 139.318C78.2661 139.318 79.9116 139.899 81.1323 141.062C82.3628 142.224 82.978 143.815 82.978 145.837C82.978 148.229 82.2407 150.07 80.7661 151.359C79.2915 152.648 77.1821 153.293 74.438 153.293C72.0552 153.293 70.1313 152.907 68.6665 152.136V148.225C69.438 148.635 70.3364 148.972 71.3618 149.235C72.3872 149.489 73.3589 149.616 74.2769 149.616C77.0405 149.616 78.4224 148.483 78.4224 146.218C78.4224 144.06 76.9917 142.98 74.1304 142.98C73.6128 142.98 73.0415 143.034 72.4165 143.142C71.7915 143.239 71.2837 143.347 70.8931 143.464L69.0913 142.497L69.897 131.584H81.5132V135.422H73.8667L73.4712 139.626L73.9839 139.523C74.5796 139.387 75.3169 139.318 76.1958 139.318ZM104.262 153H99.106L93.4956 143.977L91.5767 145.354V153H87.0356V131.584H91.5767V141.384L93.3638 138.864L99.1646 131.584H104.204L96.7329 141.062L104.262 153Z" fill="#FFBF00"/>
<defs>
<linearGradient id="paint0_linear" x1="145.73" y1="70.601" x2="145.73" y2="113.059" gradientUnits="userSpaceOnUse">
<stop stop-color="#00A4ED"/>
<stop offset="1" stop-color="#0009E3"/>
</linearGradient>
<linearGradient id="paint1_linear" x1="22.0801" y1="70.601" x2="22.0801" y2="113.059" gradientUnits="userSpaceOnUse">
<stop stop-color="#00A4ED"/>
<stop offset="1" stop-color="#0009E3"/>
</linearGradient>
<linearGradient id="paint2_linear" x1="84.2082" y1="42.8849" x2="84.2082" y2="206.335" gradientUnits="userSpaceOnUse">
<stop stop-color="#00A4ED"/>
<stop offset="1" stop-color="#0009E3"/>
</linearGradient>
<linearGradient id="paint3_linear" x1="118.022" y1="42.8849" x2="118.022" y2="206.335" gradientUnits="userSpaceOnUse">
<stop stop-color="#00A4ED"/>
<stop offset="1" stop-color="#0009E3"/>
</linearGradient>
<linearGradient id="paint4_linear" x1="83.4844" y1="80.8677" x2="83.4844" y2="193.533" gradientUnits="userSpaceOnUse">
<stop stop-color="#FFC700"/>
<stop offset="1" stop-color="#FF4070"/>
</linearGradient>
<linearGradient id="paint5_linear" x1="110.58" y1="80.8677" x2="110.58" y2="193.355" gradientUnits="userSpaceOnUse">
<stop stop-color="#FFC700"/>
<stop offset="1" stop-color="#FF4070"/>
</linearGradient>
</defs>
</svg>
