<svg width="146" height="191" viewBox="0 0 146 191" fill="none" xmlns="http://www.w3.org/2000/svg">
<path fill-rule="evenodd" clip-rule="evenodd" d="M119.127 65.9368H134.899C137.915 65.9368 140.582 67.2125 142.554 69.1841C144.525 71.1556 145.801 73.939 145.801 76.8384V90.5234C145.801 93.5387 144.525 96.2061 142.554 98.1777C140.582 100.149 137.799 101.425 134.899 101.425H119.011C115.996 101.425 113.328 100.149 111.357 98.1777C109.385 96.2061 108.109 93.4227 108.109 90.5234V76.8384C108.109 73.823 109.385 71.1556 111.357 69.1841C113.328 67.0965 116.111 65.9368 119.127 65.9368ZM134.899 70.4598H119.011C117.271 70.4598 115.648 71.1556 114.488 72.3154C113.328 73.4751 112.632 75.0988 112.632 76.8384V90.5234C112.632 92.263 113.328 93.8866 114.488 95.0464C115.648 96.2061 117.271 96.902 119.011 96.902H134.899C136.639 96.902 138.263 96.2061 139.422 95.0464C140.582 93.8866 141.278 92.263 141.278 90.5234V76.8384C141.278 75.0988 140.582 73.4751 139.422 72.3154C138.263 71.1556 136.639 70.4598 134.899 70.4598Z" fill="url(#paint0_linear)"/>
<path fill-rule="evenodd" clip-rule="evenodd" d="M11.5023 65.9368H27.3908C30.4061 65.9368 33.0736 67.2125 35.0451 69.1841C37.0167 71.1556 38.2924 73.939 38.2924 76.8384V90.5234C38.2924 93.5387 37.0167 96.2061 35.0451 98.1777C33.0736 100.149 30.2902 101.425 27.3908 101.425H11.5023C8.48697 101.425 5.81956 100.149 3.84799 98.1777C1.87643 96.2061 0.600708 93.4227 0.600708 90.5234V76.8384C0.600708 73.823 1.87643 71.1556 3.84799 69.1841C5.70358 67.0965 8.48697 65.9368 11.5023 65.9368ZM27.2748 70.4598H11.5023C9.76269 70.4598 8.13905 71.1556 6.9793 72.3154C5.81956 73.4751 5.12371 75.0988 5.12371 76.8384V90.5234C5.12371 92.263 5.81956 93.8866 6.9793 95.0464C8.13905 96.2061 9.76269 96.902 11.5023 96.902H27.3908C29.1304 96.902 30.7541 96.2061 31.9138 95.0464C33.0736 93.8866 33.7694 92.263 33.7694 90.5234V76.8384C33.7694 75.0988 33.0736 73.4751 31.9138 72.3154C30.6381 71.1556 29.0144 70.4598 27.2748 70.4598Z" fill="url(#paint1_linear)"/>
<path fill-rule="evenodd" clip-rule="evenodd" d="M25.4189 53.9915H120.75C127.128 53.9915 133.275 59.3263 132.347 65.5889L115.067 179.012C114.139 185.275 109.848 190.609 103.47 190.609H42.6991C36.3205 190.609 32.0294 185.275 31.1016 179.012L13.8214 65.5889C12.8936 59.3263 19.0403 53.9915 25.4189 53.9915Z" fill="url(#paint2_linear)"/>
<path fill-rule="evenodd" clip-rule="evenodd" d="M73.0848 53.9915H120.75C127.129 53.9915 133.276 59.3263 132.348 65.5889L115.068 179.012C114.14 185.275 109.849 190.609 103.47 190.609H73.0848V53.9915Z" fill="url(#paint3_linear)"/>
<path fill-rule="evenodd" clip-rule="evenodd" d="M9.53045 47.9607H136.754C139.306 47.9607 141.277 50.0482 141.277 52.4837V57.5866C141.277 60.138 139.19 62.1096 136.754 62.1096H9.53045C6.97901 62.1096 5.00745 60.022 5.00745 57.5866V52.4837C5.00745 50.0482 6.97901 47.9607 9.53045 47.9607Z" fill="#FF8C00"/>
<path fill-rule="evenodd" clip-rule="evenodd" d="M73.0844 47.9607H138.262C139.886 47.9607 141.277 50.0482 141.277 52.4837V57.5866C141.277 60.138 139.886 62.1096 138.262 62.1096H73.0844V47.9607Z" fill="#E77F00"/>
<path fill-rule="evenodd" clip-rule="evenodd" d="M88.8571 5.16619L73.4325 1.45501C70.5331 0.759163 67.5178 1.33903 65.1983 2.73073C62.7628 4.2384 61.0232 6.55789 60.3273 9.45725L59.1676 14.3282L63.5746 15.3719L64.7344 10.501C65.1983 8.7614 66.242 7.36971 67.6337 6.55789C69.0254 5.74607 70.765 5.39814 72.3887 5.74607L87.8133 9.45725C89.5529 9.92115 90.9446 10.9649 91.7564 12.3566C92.5683 13.7483 92.9162 15.4879 92.5682 17.1116L91.4085 21.9825L95.8155 23.0263L96.9753 18.1553C97.6711 15.256 97.0912 12.2406 95.6996 9.92114C94.0759 7.71763 91.7564 5.86204 88.8571 5.16619Z" fill="#F68503"/>
<path fill-rule="evenodd" clip-rule="evenodd" d="M88.8562 5.16614L81.2018 3.31055L80.1581 7.71758L87.8124 9.57317C89.552 10.0371 90.9437 11.0808 91.7555 12.4725C92.5673 13.8642 92.9153 15.6038 92.5673 17.2275L91.4076 22.0984L95.8146 23.1422L96.9744 18.2713C97.6702 15.3719 97.0903 12.3566 95.6987 10.0371C94.075 7.71758 91.7555 5.86199 88.8562 5.16614Z" fill="#ED7500"/>
<path fill-rule="evenodd" clip-rule="evenodd" d="M16.3732 0.411218L140.002 30.1007C142.437 30.6805 143.945 33.116 143.365 35.6674L142.205 40.5384C141.626 42.9738 139.19 44.4815 136.639 43.9016L13.1259 14.2122C10.6905 13.6323 9.18279 11.1968 9.76266 8.6454L10.9224 3.77448C11.5023 1.33901 13.9377 -0.168654 16.3732 0.411218Z" fill="#E77F00"/>
<path fill-rule="evenodd" clip-rule="evenodd" d="M78.3028 15.2559L141.625 30.4485C143.249 30.7964 144.06 33.1159 143.48 35.5514L142.321 40.4223C141.741 42.8578 139.885 44.5974 138.378 44.1335L74.9396 29.0568L78.3028 15.2559Z" fill="#FF8C00"/>
<path fill-rule="evenodd" clip-rule="evenodd" d="M75.1612 83.678C76.0547 83.678 76.7992 83.678 77.6927 83.678V74.4456L96.9022 90.0812L77.6927 105.717V94.5485C76.7992 94.5485 76.0547 94.3996 75.1612 94.3996C66.5244 94.3996 58.6321 97.9734 52.9735 103.632C48.6551 107.95 45.528 113.46 44.3367 119.714L34.3597 114.651C36.2956 107.504 40.1672 101.101 45.2302 95.8887C52.9735 88.4432 63.5462 83.678 75.1612 83.678ZM115.218 162.898L106.73 154.411C113.431 146.965 117.601 136.988 117.601 126.118C117.601 114.354 112.836 103.781 105.241 96.1865C103.901 94.8463 102.561 93.655 101.072 92.4637L92.2859 99.6114C94.2218 100.803 95.8598 102.292 97.4978 103.781C103.156 109.44 106.73 117.332 106.73 125.969C106.73 133.861 103.901 141.009 98.9869 146.518L93.0305 140.562L90.499 165.281L115.218 162.898ZM26.9142 144.582L33.6152 120.757L55.6539 132.074L45.528 136.541C47.166 141.157 49.6975 145.178 52.9735 148.454C58.6321 154.113 66.5244 157.687 75.1612 157.687C79.1818 157.687 83.0535 156.942 86.6273 155.602L85.436 167.366C82.16 168.11 78.7351 168.557 75.1612 168.557C63.3973 168.557 52.8246 163.792 45.2302 156.197C40.9118 151.879 37.6357 146.667 35.4021 140.86L26.9142 144.582Z" fill="url(#paint4_linear)"/>
<path fill-rule="evenodd" clip-rule="evenodd" d="M75.1605 83.678C76.0539 83.678 76.7985 83.678 77.6919 83.678V74.4456L96.9014 90.0812L77.6919 105.717V94.5485C76.7985 94.5485 76.0539 94.3996 75.1605 94.3996C74.1181 94.3996 73.2246 94.3996 72.1823 94.5485V83.678C73.2246 83.8269 74.267 83.678 75.1605 83.678ZM115.217 162.898L106.73 154.411C113.43 146.965 117.6 136.988 117.6 126.118C117.6 114.354 112.835 103.781 105.24 96.1865C103.9 94.8463 102.56 93.655 101.071 92.4637L92.2852 99.6114C94.221 100.803 95.859 102.292 97.497 103.781C103.156 109.44 106.73 117.332 106.73 125.969C106.73 133.861 103.9 141.009 98.9862 146.518L93.0297 140.562L90.4983 165.281L115.217 162.898ZM72.1823 157.389C73.2246 157.538 74.1181 157.538 75.1605 157.538C79.181 157.538 83.0527 156.793 86.6266 155.453L85.4353 167.217C82.1593 167.961 78.7343 168.408 75.1605 168.408C74.1181 168.408 73.2246 168.408 72.1823 168.259V157.389Z" fill="url(#paint5_linear)"/>
<path d="M67.7726 135.287H52.8019V132.138L58.1779 126.703C59.7697 125.072 60.8097 123.944 61.298 123.319C61.7863 122.685 62.1378 122.099 62.3527 121.562C62.5675 121.024 62.6749 120.468 62.6749 119.892C62.6749 119.032 62.4357 118.393 61.9572 117.973C61.4884 117.553 60.8585 117.343 60.0675 117.343C59.2374 117.343 58.4318 117.533 57.6505 117.914C56.8693 118.295 56.0538 118.837 55.2042 119.54L52.7433 116.625C53.798 115.727 54.672 115.092 55.3654 114.721C56.0587 114.35 56.8156 114.066 57.6359 113.871C58.4562 113.666 59.3741 113.563 60.3898 113.563C61.7277 113.563 62.9093 113.808 63.9347 114.296C64.9601 114.784 65.756 115.468 66.3224 116.347C66.8888 117.226 67.172 118.231 67.172 119.364C67.172 120.351 66.9962 121.278 66.6447 122.147C66.3029 123.007 65.7657 123.891 65.0333 124.799C64.3107 125.707 63.0314 127.001 61.1954 128.681L58.4415 131.273V131.479H67.7726V135.287ZM77.7335 121.605C79.8038 121.605 81.4493 122.187 82.67 123.349C83.9005 124.511 84.5157 126.103 84.5157 128.124C84.5157 130.517 83.7784 132.357 82.3038 133.646C80.8292 134.936 78.7198 135.58 75.9757 135.58C73.5929 135.58 71.6691 135.194 70.2042 134.423V130.512C70.9757 130.922 71.8741 131.259 72.8995 131.522C73.9249 131.776 74.8966 131.903 75.8146 131.903C78.5782 131.903 79.9601 130.771 79.9601 128.505C79.9601 126.347 78.5294 125.268 75.6681 125.268C75.1505 125.268 74.5792 125.321 73.9542 125.429C73.3292 125.526 72.8214 125.634 72.4308 125.751L70.629 124.784L71.4347 113.871H83.0509V117.709H75.4044L75.0089 121.913L75.5216 121.811C76.1173 121.674 76.8546 121.605 77.7335 121.605ZM101.933 124.579C101.933 128.319 101.318 131.088 100.087 132.885C98.8663 134.682 96.9816 135.58 94.4327 135.58C91.962 135.58 90.0968 134.652 88.837 132.797C87.587 130.941 86.962 128.202 86.962 124.579C86.962 120.8 87.5724 118.017 88.7931 116.229C90.0138 114.433 91.8937 113.534 94.4327 113.534C96.9034 113.534 98.7687 114.472 100.028 116.347C101.298 118.222 101.933 120.966 101.933 124.579ZM91.4591 124.579C91.4591 127.206 91.6837 129.091 92.1329 130.233C92.5919 131.366 93.3585 131.933 94.4327 131.933C95.4874 131.933 96.2491 131.356 96.7179 130.204C97.1866 129.052 97.421 127.177 97.421 124.579C97.421 121.952 97.1818 120.067 96.7032 118.925C96.2345 117.772 95.4777 117.196 94.4327 117.196C93.3683 117.196 92.6066 117.772 92.1476 118.925C91.6886 120.067 91.4591 121.952 91.4591 124.579Z" fill="#FFBF00"/>
<defs>
<linearGradient id="paint0_linear" x1="127.132" y1="61.6721" x2="127.132" y2="98.5879" gradientUnits="userSpaceOnUse">
<stop stop-color="#00A4ED"/>
<stop offset="1" stop-color="#0009E3"/>
</linearGradient>
<linearGradient id="paint1_linear" x1="19.6232" y1="61.6721" x2="19.6232" y2="98.5879" gradientUnits="userSpaceOnUse">
<stop stop-color="#00A4ED"/>
<stop offset="1" stop-color="#0009E3"/>
</linearGradient>
<linearGradient id="paint2_linear" x1="73.6408" y1="37.5741" x2="73.6408" y2="179.688" gradientUnits="userSpaceOnUse">
<stop stop-color="#00A4ED"/>
<stop offset="1" stop-color="#0009E3"/>
</linearGradient>
<linearGradient id="paint3_linear" x1="103.041" y1="37.5741" x2="103.041" y2="179.688" gradientUnits="userSpaceOnUse">
<stop stop-color="#00A4ED"/>
<stop offset="1" stop-color="#0009E3"/>
</linearGradient>
<linearGradient id="paint4_linear" x1="72.2574" y1="74.4456" x2="72.2574" y2="168.557" gradientUnits="userSpaceOnUse">
<stop stop-color="#FFC700"/>
<stop offset="1" stop-color="#FF4070"/>
</linearGradient>
<linearGradient id="paint5_linear" x1="94.8911" y1="74.4456" x2="94.8911" y2="168.408" gradientUnits="userSpaceOnUse">
<stop stop-color="#FFC700"/>
<stop offset="1" stop-color="#FF4070"/>
</linearGradient>
</defs>
</svg>
