<svg width="146" height="191" viewBox="0 0 146 191" fill="none" xmlns="http://www.w3.org/2000/svg">
<path fill-rule="evenodd" clip-rule="evenodd" d="M119.327 65.9368H135.099C138.115 65.9368 140.782 67.2125 142.754 69.1841C144.725 71.1556 146.001 73.939 146.001 76.8384V90.5234C146.001 93.5387 144.725 96.2061 142.754 98.1777C140.782 100.149 137.999 101.425 135.099 101.425H119.211C116.196 101.425 113.528 100.149 111.557 98.1777C109.585 96.2061 108.309 93.4227 108.309 90.5234V76.8384C108.309 73.823 109.585 71.1556 111.557 69.1841C113.528 67.0965 116.312 65.9368 119.327 65.9368ZM135.099 70.4598H119.211C117.471 70.4598 115.848 71.1556 114.688 72.3154C113.528 73.4751 112.832 75.0988 112.832 76.8384V90.5234C112.832 92.263 113.528 93.8866 114.688 95.0464C115.848 96.2061 117.471 96.902 119.211 96.902H135.099C136.839 96.902 138.463 96.2061 139.622 95.0464C140.782 93.8866 141.478 92.263 141.478 90.5234V76.8384C141.478 75.0988 140.782 73.4751 139.622 72.3154C138.463 71.1556 136.839 70.4598 135.099 70.4598Z" fill="url(#paint0_linear)"/>
<path fill-rule="evenodd" clip-rule="evenodd" d="M11.7024 65.9368H27.5909C30.6062 65.9368 33.2736 67.2125 35.2452 69.1841C37.2168 71.1556 38.4925 73.939 38.4925 76.8384V90.5234C38.4925 93.5387 37.2168 96.2061 35.2452 98.1777C33.2736 100.149 30.4902 101.425 27.5909 101.425H11.7024C8.68704 101.425 6.01963 100.149 4.04806 98.1777C2.0765 96.2061 0.800781 93.4227 0.800781 90.5234V76.8384C0.800781 73.823 2.0765 71.1556 4.04806 69.1841C5.90366 67.0965 8.68704 65.9368 11.7024 65.9368ZM27.4749 70.4598H11.7024C9.96276 70.4598 8.33912 71.1556 7.17938 72.3154C6.01963 73.4751 5.32378 75.0988 5.32378 76.8384V90.5234C5.32378 92.263 6.01963 93.8866 7.17938 95.0464C8.33912 96.2061 9.96276 96.902 11.7024 96.902H27.5909C29.3305 96.902 30.9541 96.2061 32.1139 95.0464C33.2736 93.8866 33.9695 92.263 33.9695 90.5234V76.8384C33.9695 75.0988 33.2736 73.4751 32.1139 72.3154C30.8382 71.1556 29.2145 70.4598 27.4749 70.4598Z" fill="url(#paint1_linear)"/>
<path fill-rule="evenodd" clip-rule="evenodd" d="M25.619 53.9915H120.95C127.329 53.9915 133.475 59.3263 132.547 65.5889L115.267 179.012C114.339 185.275 110.048 190.609 103.67 190.609H42.8991C36.5206 190.609 32.2295 185.275 31.3017 179.012L14.0215 65.5889C13.0937 59.3263 19.2404 53.9915 25.619 53.9915Z" fill="url(#paint2_linear)"/>
<path fill-rule="evenodd" clip-rule="evenodd" d="M73.2849 53.9915H120.95C127.329 53.9915 133.476 59.3263 132.548 65.5889L115.268 179.012C114.34 185.275 110.049 190.609 103.67 190.609H73.2849V53.9915Z" fill="url(#paint3_linear)"/>
<path fill-rule="evenodd" clip-rule="evenodd" d="M9.73053 47.9607H136.954C139.506 47.9607 141.477 50.0482 141.477 52.4837V57.5866C141.477 60.138 139.39 62.1096 136.954 62.1096H9.73053C7.17909 62.1096 5.20752 60.022 5.20752 57.5866V52.4837C5.20752 50.0482 7.17909 47.9607 9.73053 47.9607Z" fill="#FF8C00"/>
<path fill-rule="evenodd" clip-rule="evenodd" d="M73.2844 47.9607H138.462C140.086 47.9607 141.477 50.0482 141.477 52.4837V57.5866C141.477 60.138 140.086 62.1096 138.462 62.1096H73.2844V47.9607Z" fill="#E77F00"/>
<path fill-rule="evenodd" clip-rule="evenodd" d="M89.0571 5.16619L73.6325 1.45501C70.7332 0.759163 67.7178 1.33903 65.3984 2.73073C62.9629 4.2384 61.2233 6.55789 60.5274 9.45725L59.3677 14.3282L63.7747 15.3719L64.9345 10.501C65.3984 8.7614 66.4421 7.36971 67.8338 6.55789C69.2255 5.74607 70.9651 5.39814 72.5888 5.74607L88.0134 9.45725C89.753 9.92115 91.1447 10.9649 91.9565 12.3566C92.7683 13.7483 93.1162 15.4879 92.7683 17.1116L91.6086 21.9825L96.0156 23.0263L97.1754 18.1553C97.8712 15.256 97.2913 12.2406 95.8996 9.92114C94.276 7.71763 91.9565 5.86204 89.0571 5.16619Z" fill="#F68503"/>
<path fill-rule="evenodd" clip-rule="evenodd" d="M89.0562 5.16614L81.4019 3.31055L80.3582 7.71758L88.0125 9.57317C89.7521 10.0371 91.1438 11.0808 91.9556 12.4725C92.7674 13.8642 93.1153 15.6038 92.7674 17.2275L91.6077 22.0984L96.0147 23.1422L97.1744 18.2713C97.8703 15.3719 97.2904 12.3566 95.8987 10.0371C94.2751 7.71758 91.9556 5.86199 89.0562 5.16614Z" fill="#ED7500"/>
<path fill-rule="evenodd" clip-rule="evenodd" d="M16.5733 0.411218L140.202 30.1007C142.637 30.6805 144.145 33.116 143.565 35.6674L142.406 40.5384C141.826 42.9738 139.39 44.4815 136.839 43.9016L13.326 14.2122C10.8905 13.6323 9.38286 11.1968 9.96273 8.6454L11.1225 3.77448C11.7023 1.33901 14.1378 -0.168654 16.5733 0.411218Z" fill="#E77F00"/>
<path fill-rule="evenodd" clip-rule="evenodd" d="M78.5029 15.2559L141.825 30.4485C143.449 30.7964 144.26 33.1159 143.681 35.5514L142.521 40.4223C141.941 42.8578 140.085 44.5974 138.578 44.1335L75.1396 29.0568L78.5029 15.2559Z" fill="#FF8C00"/>
<path fill-rule="evenodd" clip-rule="evenodd" d="M75.3613 83.678C76.2547 83.678 76.9993 83.678 77.8928 83.678V74.4456L97.1022 90.0812L77.8928 105.717V94.5485C76.9993 94.5485 76.2547 94.3996 75.3613 94.3996C66.7245 94.3996 58.8322 97.9734 53.1736 103.632C48.8552 107.95 45.7281 113.46 44.5368 119.714L34.5598 114.651C36.4956 107.504 40.3673 101.101 45.4303 95.8887C53.1736 88.4432 63.7463 83.678 75.3613 83.678ZM115.418 162.898L106.93 154.411C113.631 146.965 117.801 136.988 117.801 126.118C117.801 114.354 113.036 103.781 105.441 96.1865C104.101 94.8463 102.761 93.655 101.272 92.4637L92.486 99.6114C94.4218 100.803 96.0598 102.292 97.6979 103.781C103.356 109.44 106.93 117.332 106.93 125.969C106.93 133.861 104.101 141.009 99.187 146.518L93.2305 140.562L90.6991 165.281L115.418 162.898ZM27.1143 144.582L33.8152 120.757L55.854 132.074L45.7281 136.541C47.3661 141.157 49.8976 145.178 53.1736 148.454C58.8322 154.113 66.7245 157.687 75.3613 157.687C79.3819 157.687 83.2535 156.942 86.8274 155.602L85.6361 167.366C82.3601 168.11 78.9351 168.557 75.3613 168.557C63.5973 168.557 53.0247 163.792 45.4303 156.197C41.1118 151.879 37.8358 146.667 35.6022 140.86L27.1143 144.582Z" fill="url(#paint4_linear)"/>
<path fill-rule="evenodd" clip-rule="evenodd" d="M75.3605 83.678C76.254 83.678 76.9986 83.678 77.892 83.678V74.4456L97.1015 90.0812L77.892 105.717V94.5485C76.9986 94.5485 76.254 94.3996 75.3605 94.3996C74.3182 94.3996 73.4247 94.3996 72.3823 94.5485V83.678C73.4247 83.8269 74.4671 83.678 75.3605 83.678ZM115.417 162.898L106.93 154.411C113.631 146.965 117.8 136.988 117.8 126.118C117.8 114.354 113.035 103.781 105.44 96.1865C104.1 94.8463 102.76 93.655 101.271 92.4637L92.4853 99.6114C94.4211 100.803 96.0591 102.292 97.6971 103.781C103.356 109.44 106.93 117.332 106.93 125.969C106.93 133.861 104.1 141.009 99.1862 146.518L93.2298 140.562L90.6983 165.281L115.417 162.898ZM72.3823 157.389C73.4247 157.538 74.3182 157.538 75.3605 157.538C79.3811 157.538 83.2528 156.793 86.8267 155.453L85.6354 167.217C82.3593 167.961 78.9344 168.408 75.3605 168.408C74.3182 168.408 73.4247 168.408 72.3823 168.259V157.389Z" fill="url(#paint5_linear)"/>
<path d="M60.7949 121.605C62.8652 121.605 64.5107 122.187 65.7314 123.349C66.9619 124.511 67.5771 126.103 67.5771 128.124C67.5771 130.517 66.8398 132.357 65.3652 133.646C63.8906 134.936 61.7812 135.58 59.0371 135.58C56.6543 135.58 54.7305 135.194 53.2656 134.423V130.512C54.0371 130.922 54.9355 131.259 55.9609 131.522C56.9863 131.776 57.958 131.903 58.876 131.903C61.6396 131.903 63.0215 130.771 63.0215 128.505C63.0215 126.347 61.5908 125.268 58.7295 125.268C58.2119 125.268 57.6406 125.321 57.0156 125.429C56.3906 125.526 55.8828 125.634 55.4922 125.751L53.6904 124.784L54.4961 113.871H66.1123V117.709H58.4658L58.0703 121.913L58.583 121.811C59.1787 121.674 59.916 121.605 60.7949 121.605ZM84.9941 124.579C84.9941 128.319 84.3789 131.088 83.1484 132.885C81.9277 134.682 80.043 135.58 77.4941 135.58C75.0234 135.58 73.1582 134.652 71.8984 132.797C70.6484 130.941 70.0234 128.202 70.0234 124.579C70.0234 120.8 70.6338 118.017 71.8545 116.229C73.0752 114.433 74.9551 113.534 77.4941 113.534C79.9648 113.534 81.8301 114.472 83.0898 116.347C84.3594 118.222 84.9941 120.966 84.9941 124.579ZM74.5205 124.579C74.5205 127.206 74.7451 129.091 75.1943 130.233C75.6533 131.366 76.4199 131.933 77.4941 131.933C78.5488 131.933 79.3105 131.356 79.7793 130.204C80.248 129.052 80.4824 127.177 80.4824 124.579C80.4824 121.952 80.2432 120.067 79.7646 118.925C79.2959 117.772 78.5391 117.196 77.4941 117.196C76.4297 117.196 75.668 117.772 75.209 118.925C74.75 120.067 74.5205 121.952 74.5205 124.579ZM102.133 124.579C102.133 128.319 101.518 131.088 100.287 132.885C99.0664 134.682 97.1816 135.58 94.6328 135.58C92.1621 135.58 90.2969 134.652 89.0371 132.797C87.7871 130.941 87.1621 128.202 87.1621 124.579C87.1621 120.8 87.7725 118.017 88.9932 116.229C90.2139 114.433 92.0938 113.534 94.6328 113.534C97.1035 113.534 98.9688 114.472 100.229 116.347C101.498 118.222 102.133 120.966 102.133 124.579ZM91.6592 124.579C91.6592 127.206 91.8838 129.091 92.333 130.233C92.792 131.366 93.5586 131.933 94.6328 131.933C95.6875 131.933 96.4492 131.356 96.918 130.204C97.3867 129.052 97.6211 127.177 97.6211 124.579C97.6211 121.952 97.3818 120.067 96.9033 118.925C96.4346 117.772 95.6777 117.196 94.6328 117.196C93.5684 117.196 92.8066 117.772 92.3477 118.925C91.8887 120.067 91.6592 121.952 91.6592 124.579Z" fill="#FFBF00"/>
<defs>
<linearGradient id="paint0_linear" x1="127.332" y1="61.6721" x2="127.332" y2="98.5879" gradientUnits="userSpaceOnUse">
<stop stop-color="#00A4ED"/>
<stop offset="1" stop-color="#0009E3"/>
</linearGradient>
<linearGradient id="paint1_linear" x1="19.8233" y1="61.6721" x2="19.8233" y2="98.5879" gradientUnits="userSpaceOnUse">
<stop stop-color="#00A4ED"/>
<stop offset="1" stop-color="#0009E3"/>
</linearGradient>
<linearGradient id="paint2_linear" x1="73.8408" y1="37.5741" x2="73.8408" y2="179.688" gradientUnits="userSpaceOnUse">
<stop stop-color="#00A4ED"/>
<stop offset="1" stop-color="#0009E3"/>
</linearGradient>
<linearGradient id="paint3_linear" x1="103.241" y1="37.5741" x2="103.241" y2="179.688" gradientUnits="userSpaceOnUse">
<stop stop-color="#00A4ED"/>
<stop offset="1" stop-color="#0009E3"/>
</linearGradient>
<linearGradient id="paint4_linear" x1="72.4575" y1="74.4456" x2="72.4575" y2="168.557" gradientUnits="userSpaceOnUse">
<stop stop-color="#FFC700"/>
<stop offset="1" stop-color="#FF4070"/>
</linearGradient>
<linearGradient id="paint5_linear" x1="95.0912" y1="74.4456" x2="95.0912" y2="168.408" gradientUnits="userSpaceOnUse">
<stop stop-color="#FFC700"/>
<stop offset="1" stop-color="#FF4070"/>
</linearGradient>
</defs>
</svg>
