<svg width="200" height="137" viewBox="0 0 200 137" fill="none" xmlns="http://www.w3.org/2000/svg">
<g filter="url(#filter0_d)">
<path d="M7.02159 95.4368C7.02159 95.4368 4.1037 98.3547 4.1037 109.54C4.1037 120.725 0.796759 122.379 31.5319 122.379C62.2669 122.379 58.571 121.99 58.571 111.193C58.571 111.193 71.896 111.582 93.8774 118.683C115.859 125.783 176.356 124.324 189.973 105.26C203.59 86.2941 189.876 90.8654 189.876 90.8654C189.876 90.8654 29.8784 80.0692 7.02159 95.4368Z" fill="#4C094E"/>
<path d="M15.386 41.8445C15.386 41.8445 7.11865 48.9447 7.11865 95.4364C7.11865 95.4364 53.6103 90.476 90.1812 100.786C126.752 111.193 174.897 101.661 189.876 90.865C189.876 90.865 192.794 67.6192 171.59 65.9657C150.387 64.3122 115.567 65.5767 102.242 51.8626C88.8195 38.1485 89.3058 24.0454 89.3058 13.2492C89.3058 2.453 75.9808 -5.03625 64.0175 5.75994L15.386 41.8445Z" fill="url(#paint0_linear)"/>
<path d="M74.7164 33.5775C74.7164 38.1488 71.0204 41.8448 66.4491 41.8448H15.386C10.8146 41.8448 7.11865 38.1488 7.11865 33.5775V14.0276C7.11865 9.45625 10.8146 5.76025 15.386 5.76025H66.4491C71.0204 5.76025 74.7164 9.45625 74.7164 14.0276V33.5775Z" fill="#4C094E"/>
<path d="M11.5924 124.518C11.5924 125.393 10.8143 126.172 9.9389 126.172H5.65933C4.78396 126.172 4.00586 125.393 4.00586 124.518V116.64C4.00586 115.764 4.78396 114.986 5.65933 114.986H9.9389C10.8143 114.986 11.5924 115.764 11.5924 116.64V124.518Z" fill="#4C094E"/>
<path d="M23.3609 124.518C23.3609 125.393 22.5828 126.172 21.7075 126.172H17.4279C16.5525 126.172 15.7744 125.393 15.7744 124.518V116.64C15.7744 115.764 16.5525 114.986 17.4279 114.986H21.7075C22.5828 114.986 23.3609 115.764 23.3609 116.64V124.518Z" fill="#4C094E"/>
<path d="M35.2288 124.518C35.2288 125.393 34.4507 126.172 33.5754 126.172H29.2958C28.4204 126.172 27.6423 125.393 27.6423 124.518V116.64C27.6423 115.764 28.4204 114.986 29.2958 114.986H33.5754C34.4507 114.986 35.2288 115.764 35.2288 116.64V124.518Z" fill="#4C094E"/>
<path d="M46.9976 124.518C46.9976 125.393 46.2195 126.172 45.3442 126.172H41.0646C40.1892 126.172 39.4111 125.393 39.4111 124.518V116.64C39.4111 115.764 40.1892 114.986 41.0646 114.986H45.3442C46.2195 114.986 46.9976 115.764 46.9976 116.64V124.518Z" fill="#4C094E"/>
<path d="M58.7662 124.518C58.7662 125.393 57.9881 126.172 57.1127 126.172H52.8332C51.9578 126.172 51.1797 125.393 51.1797 124.518V116.64C51.1797 115.764 51.9578 114.986 52.8332 114.986H57.1127C57.9881 114.986 58.7662 115.764 58.7662 116.64V124.518Z" fill="#4C094E"/>
<path d="M147.664 124.518C147.664 125.393 146.886 126.172 146.01 126.172H141.731C140.855 126.172 140.077 125.393 140.077 124.518V116.64C140.077 115.764 140.855 114.986 141.731 114.986H146.01C146.886 114.986 147.664 115.764 147.664 116.64V124.518Z" fill="#A67C52"/>
<path d="M100.492 124.518C100.492 125.393 99.7137 126.172 98.8383 126.172H94.5587C93.6834 126.172 92.9053 125.393 92.9053 124.518V116.64C92.9053 115.764 93.6834 114.986 94.5587 114.986H98.8383C99.7137 114.986 100.492 115.764 100.492 116.64V124.518Z" fill="#4C094E"/>
<path d="M112.358 124.518C112.358 125.393 111.58 126.172 110.705 126.172H106.425C105.55 126.172 104.771 125.393 104.771 124.518V116.64C104.771 115.764 105.55 114.986 106.425 114.986H110.705C111.58 114.986 112.358 115.764 112.358 116.64V124.518Z" fill="#4C094E"/>
<path d="M124.127 124.518C124.127 125.393 123.348 126.172 122.473 126.172H118.194C117.318 126.172 116.54 125.393 116.54 124.518V116.64C116.54 115.764 117.318 114.986 118.194 114.986H122.473C123.348 114.986 124.127 115.764 124.127 116.64V124.518Z" fill="#4C094E"/>
<path d="M135.895 124.518C135.895 125.393 135.117 126.172 134.242 126.172H129.962C129.087 126.172 128.309 125.393 128.309 124.518V116.64C128.309 115.764 129.087 114.986 129.962 114.986H134.242C135.117 114.986 135.895 115.764 135.895 116.64V124.518Z" fill="#4C094E"/>
<path d="M147.664 124.518C147.664 125.393 146.886 126.172 146.01 126.172H141.731C140.855 126.172 140.077 125.393 140.077 124.518V116.64C140.077 115.764 140.855 114.986 141.731 114.986H146.01C146.886 114.986 147.664 115.764 147.664 116.64V124.518Z" fill="#4C094E"/>
<path d="M159.432 124.518C159.432 125.393 158.654 126.172 157.779 126.172H153.499C152.624 126.172 151.846 125.393 151.846 124.518V116.64C151.846 115.764 152.624 114.986 153.499 114.986H157.779C158.654 114.986 159.432 115.764 159.432 116.64V124.518Z" fill="#4C094E"/>
<path d="M171.201 122.281C171.201 123.156 170.423 123.934 169.547 123.934H165.268C164.392 123.934 163.614 123.156 163.614 122.281V114.402C163.614 113.527 164.392 112.749 165.268 112.749H169.547C170.423 112.749 171.201 113.527 171.201 114.402V122.281Z" fill="#4C094E"/>
<path d="M183.067 118.876C183.067 119.752 182.289 120.53 181.414 120.53H177.134C176.259 120.53 175.48 119.752 175.48 118.876V110.998C175.48 110.123 176.259 109.345 177.134 109.345H181.414C182.289 109.345 183.067 110.123 183.067 110.998V118.876Z" fill="#4C094E"/>
<path d="M191.043 111.095C191.043 111.971 190.264 112.749 189.389 112.749H185.11C184.234 112.749 183.456 111.971 183.456 111.095V103.217C183.456 102.342 184.234 101.563 185.11 101.563H189.389C190.264 101.563 191.043 102.342 191.043 103.217V111.095Z" fill="#4C094E"/>
<path d="M90.8625 18.7931H79.9691C78.1211 18.7931 76.6621 17.3341 76.6621 15.4861C76.6621 13.6381 78.1211 12.1792 79.9691 12.1792H90.8625C92.7105 12.1792 94.1694 13.6381 94.1694 15.4861C94.1694 17.3341 92.6132 18.7931 90.8625 18.7931Z" fill="#333333"/>
<path d="M155.638 77.1506C155.249 77.1506 154.86 77.0533 154.471 76.956C152.721 76.2752 151.942 74.3299 152.623 72.6765L156.611 62.5611C157.292 60.8104 159.237 60.0323 160.891 60.7131C162.641 61.394 163.419 63.3392 162.739 64.9927L158.751 75.108C158.265 76.3725 157 77.1506 155.638 77.1506Z" fill="#333333"/>
<path d="M99.4205 66.5495C99.0315 66.4522 98.6424 66.355 98.2534 66.0632C96.6972 65.0905 96.3081 63.048 97.2808 61.4918L103.214 52.3491C104.186 50.7929 106.229 50.4038 107.785 51.3765C109.341 52.3491 109.73 54.3916 108.758 55.9478L102.825 65.0905C102.047 66.2577 100.685 66.744 99.4205 66.5495Z" fill="#333333"/>
<path d="M87.2643 53.7104C86.8752 53.5159 86.5834 53.2241 86.2916 52.9323C85.1245 51.5706 85.2217 49.4308 86.6807 48.2637L94.948 41.1635C96.3097 39.9963 98.4495 40.0936 99.6167 41.5525C100.784 42.9142 100.687 45.054 99.2276 46.2211L90.9603 53.3213C89.8904 54.1967 88.4314 54.294 87.2643 53.7104Z" fill="#333333"/>
<path d="M78.9969 35.8143C78.7051 35.5226 78.5106 35.1335 78.4133 34.7445C77.8297 32.9937 78.8024 31.1457 80.5531 30.5621L90.863 27.1579C92.6137 26.5744 94.4617 27.547 95.0453 29.2977C95.6289 31.0485 94.6562 32.8965 92.9055 33.48L82.5956 36.787C81.2339 37.2733 79.775 36.787 78.9969 35.8143Z" fill="#333333"/>
<path d="M120.138 74.6221C119.749 74.6221 119.359 74.6221 118.873 74.5249C117.122 74.0386 116.053 72.1906 116.636 70.4398L119.651 59.9354C120.138 58.1847 121.986 57.1148 123.736 57.6984C125.487 58.1847 126.557 60.0327 125.973 61.7834L122.958 72.2878C122.666 73.5522 121.499 74.4276 120.138 74.6221Z" fill="#333333"/>
<path d="M139.494 75.7891C139.105 75.7891 138.716 75.7891 138.229 75.6919C136.479 75.2055 135.409 73.3576 135.992 71.6068L139.007 61.1024C139.494 59.3517 141.342 58.2818 143.093 58.8654C144.843 59.3517 145.913 61.1997 145.33 62.9504L142.314 73.4548C142.023 74.7192 140.855 75.6919 139.494 75.7891Z" fill="#333333"/>
<g opacity="0.3">
<path opacity="0.3" d="M14.2181 36.9817C12.3701 36.9817 10.9111 35.5227 10.9111 33.6747V12.5687C10.9111 10.7207 12.3701 9.26172 14.2181 9.26172H34.4488C36.2968 9.26172 37.7557 10.7207 37.7557 12.5687C37.7557 14.4167 36.2968 15.8756 34.4488 15.8756H17.525V33.5775C17.525 35.4255 16.0661 36.9817 14.2181 36.9817Z" fill="#F2F2F2"/>
</g>
<g opacity="0.3">
<path opacity="0.3" d="M15.8737 91.9351C14.1229 91.9351 12.664 90.5735 12.5667 88.8227C10.6215 56.3369 18.8888 47.875 19.8614 46.9996C21.2231 45.7352 23.3629 45.9298 24.5301 47.2914C25.6972 48.6531 25.6 50.6956 24.3355 51.9601C24.0438 52.2518 17.4299 59.8384 19.1806 88.5309C19.2779 90.3789 17.9162 91.9351 16.0682 92.0324C15.9709 91.9351 15.8737 91.9351 15.8737 91.9351Z" fill="#F2F2F2"/>
</g>
</g>
<path d="M85.7263 122.691L74.2277 116.048L68.9155 128.406L48.7547 67.3904L65.5749 61.7394L85.7263 122.691Z" fill="#ED1CBF"/>
<path d="M23.4208 129.602L33.4446 120.483L40.901 131.286L48.9358 67.1273L31.3816 65.3905L23.4208 129.602Z" fill="#ED1CBF"/>
<path d="M26.5451 103.637C31.575 106.745 37.3657 108.755 43.5282 109.28L48.763 67.1237L31.3171 65.4408L26.5451 103.637Z" fill="#D919AF"/>
<path d="M65.5202 61.6855L48.7534 67.3301L61.7389 106.54C67.6578 104.064 72.7672 100.169 76.6909 95.4355L65.5202 61.6855Z" fill="#D919AF"/>
<path d="M52.3421 105.39C71.2646 102.228 84.3478 84.6316 81.5642 66.0879C78.7807 47.5442 61.1846 35.0752 42.2621 38.2375C23.3397 41.3998 10.2565 58.996 13.04 77.5396C15.8235 96.0833 33.4197 108.552 52.3421 105.39Z" fill="#FFCF03"/>
<path d="M67.3443 43.6896C74.1532 48.7393 78.9732 56.3128 80.3229 65.3042C83.1071 83.8529 70.0283 101.443 51.1008 104.606C41.9257 106.14 33.0562 104.012 26.0284 99.2572C33.2148 104.63 42.6636 107.112 52.4161 105.482C71.3437 102.319 84.4225 84.7288 81.6382 66.1801C80.1395 56.6336 74.8043 48.695 67.3443 43.6896Z" fill="#FFA506"/>
<path d="M68.5452 68.1361C68.8519 70.2563 67.1775 72.4004 66.8118 74.4455C66.4551 76.5528 67.2767 79.0312 66.2296 80.9387C65.1825 82.8463 62.5907 83.6792 61.0196 85.1662C59.4486 86.6532 58.6298 89.2243 56.6549 90.206C54.7445 91.1765 52.1853 90.4057 49.9912 90.7862C47.797 91.1667 45.5806 92.7656 43.4898 92.4889C41.3345 92.2234 39.8301 90.0552 37.9163 89.1725C35.9934 88.2275 33.3024 88.3745 31.7681 86.9146C30.2984 85.4436 30.3803 82.8085 29.3817 80.9361C28.4567 79.1149 26.2591 77.6422 25.9524 75.522C25.6456 73.4018 27.3201 71.2577 27.6858 69.2126C28.0424 67.1052 27.2208 64.6268 28.268 62.7193C29.3151 60.8118 31.9069 59.9788 33.4779 58.4919C35.0489 57.0049 35.8678 54.4338 37.8427 53.4521C39.753 52.4816 42.3122 53.2524 44.5064 52.8719C46.7006 52.4914 48.9169 50.8925 51.0077 51.1692C53.163 51.4347 54.6675 53.6029 56.5813 54.4855C58.5042 55.4306 61.1952 55.2835 62.7294 56.7434C64.1992 58.2145 64.1173 60.8496 65.1158 62.7219C66.0408 64.5432 68.2385 66.0159 68.5452 68.1361Z" fill="#FFEC03"/>
<path d="M52.9351 89.1922C50.2079 89.0897 49.4335 89.224 46.8687 90.2441C45.9922 90.5879 44.7466 91.1235 43.8715 91.0196C42.315 90.7781 40.773 88.8081 38.7766 87.8118C36.7801 86.8156 34.1355 86.8267 33.0605 85.7985C31.9856 84.7703 32.012 82.2087 30.9954 80.2115C30.5374 79.3321 29.9038 78.6109 29.3438 77.9409C27.3515 75.6015 27.2793 75.1026 28.5138 72.2037C28.9128 71.3034 29.2473 70.4144 29.4437 69.4854C29.8469 67.242 29.0988 64.8147 29.8309 63.4731C30.563 62.1316 33.0813 61.2474 34.6989 59.6245C36.3165 58.0015 37.227 55.6063 38.6391 54.85C39.442 54.455 40.7779 54.543 41.7084 54.5734C44.4357 54.6758 45.2101 54.5415 47.7749 53.5214C48.7159 53.1665 49.897 52.6421 50.7721 52.746C52.3286 52.9875 53.8705 54.9575 55.867 55.9538C57.928 56.9388 60.5081 56.9389 61.583 57.9671C62.6579 58.9953 62.6316 61.5569 63.6482 63.554C64.1062 64.4335 64.7398 65.1547 65.2998 65.8247C67.2921 68.1641 67.3643 68.663 66.1297 71.5619C65.1457 73.906 64.9868 74.6368 65.0986 77.2383C65.2089 80.2876 65.0604 80.633 62.3367 82.3839C61.4873 82.9147 60.6379 83.4456 59.8891 84.2147C58.2715 85.8376 57.3611 88.2329 55.9489 88.9892C55.8198 89.0115 53.9302 89.2114 52.9351 89.1922Z" fill="#FFDC01"/>
<path d="M45.7898 95.3264C47.2947 96.1352 47.9264 97.7954 47.9264 97.7954C47.9264 97.7954 46.0617 98.19 44.5568 97.3813C43.052 96.5725 42.4203 94.9123 42.4203 94.9123C42.4203 94.9123 44.2204 94.5292 45.7898 95.3264Z" fill="#FFAA2E"/>
<path d="M44.5696 98.4296C46.1601 97.5886 47.9794 97.8914 47.9794 97.8914C47.9794 97.8914 47.2333 99.5809 45.6428 100.422C44.0523 101.263 42.233 100.96 42.233 100.96C42.233 100.96 42.9791 99.2706 44.5696 98.4296Z" fill="#FFAA2E"/>
<path d="M40.2237 94.6987C41.6316 95.7215 42.0066 97.4373 42.0066 97.4373C42.0066 97.4373 40.0988 97.5856 38.6909 96.5628C37.283 95.54 36.908 93.8242 36.908 93.8242C36.908 93.8242 38.8245 93.738 40.2237 94.6987Z" fill="#FFAA2E"/>
<path d="M38.5821 97.6222C40.2693 97.0159 41.9841 97.5216 41.9841 97.5216C41.9841 97.5216 41.0208 99.0559 39.3422 99.7228C37.655 100.329 35.9402 99.8234 35.9402 99.8234C35.9402 99.8234 36.9035 98.2891 38.5821 97.6222Z" fill="#FFAA2E"/>
<path d="M35.7134 93.3197C36.8874 94.5199 37.0125 96.3546 37.0125 96.3546C37.0125 96.3546 35.1127 96.1798 33.9387 94.9797C32.7647 93.7795 32.6396 91.9448 32.6396 91.9448C32.6396 91.9448 34.5306 92.0571 35.7134 93.3197Z" fill="#FFAA2E"/>
<path d="M33.6268 95.9319C35.3475 95.5687 36.9678 96.337 36.9678 96.337C36.9678 96.337 35.787 97.7196 34.0021 98.0941C32.2814 98.4573 30.6611 97.689 30.6611 97.689C30.6611 97.689 31.906 96.2952 33.6268 95.9319Z" fill="#FFAA2E"/>
<path d="M31.3441 90.7457C32.2261 92.1982 31.807 94.0095 31.807 94.0095C31.807 94.0095 30.0338 93.4223 29.1518 91.9698C28.2698 90.5173 28.6888 88.706 28.6888 88.706C28.6888 88.706 30.462 89.2932 31.3441 90.7457Z" fill="#FFAA2E"/>
<path d="M28.6512 92.8696C30.4253 92.8686 31.7782 94.0591 31.7782 94.0591C31.7782 94.0591 30.2327 95.1998 28.5141 95.129C26.74 95.13 25.3871 93.9394 25.3871 93.9394C25.3871 93.9394 26.9326 92.7988 28.6512 92.8696Z" fill="#FFAA2E"/>
<path d="M27.7901 87.5916C28.2312 89.2549 27.3843 90.9516 27.3843 90.9516C27.3843 90.9516 25.8114 89.939 25.3793 88.3385C24.9383 86.6752 25.7851 84.9784 25.7851 84.9784C25.7851 84.9784 27.3491 85.9282 27.7901 87.5916Z" fill="#FFAA2E"/>
<path d="M24.7174 88.9798C26.4275 89.4287 27.4153 90.8183 27.4153 90.8183C27.4153 90.8183 25.6772 91.5631 23.9757 91.1752C22.2655 90.7263 21.2778 89.3367 21.2778 89.3367C21.2778 89.3367 23.0714 88.5196 24.7174 88.9798Z" fill="#FFAA2E"/>
<path d="M24.5075 83.3551C24.6183 85.0776 23.4076 86.5801 23.4076 86.5801C23.4076 86.5801 22.0743 85.3297 22.0296 83.5956C21.9188 81.873 23.1295 80.3706 23.1295 80.3706C23.1295 80.3706 24.4628 81.6209 24.5075 83.3551Z" fill="#FFAA2E"/>
<path d="M21.2889 84.1641C22.8477 84.9014 23.5447 86.5501 23.5447 86.5501C23.5447 86.5501 21.6924 87.0036 20.1336 86.2663C18.5748 85.529 17.8778 83.8803 17.8778 83.8803C17.8778 83.8803 19.7213 83.3651 21.2889 84.1641Z" fill="#FFAA2E"/>
<path d="M22.535 79.1712C22.3062 80.8875 20.9393 82.2233 20.9393 82.2233C20.9393 82.2233 19.8466 80.7389 20.0754 79.0226C20.3041 77.3063 21.671 75.9705 21.671 75.9705C21.671 75.9705 22.7638 77.4549 22.535 79.1712Z" fill="#FFAA2E"/>
<path d="M19.2469 79.4595C20.6457 80.4229 21.031 82.2026 21.031 82.2026C21.031 82.2026 19.1253 82.3484 17.7265 81.3851C16.3277 80.4218 15.9424 78.6421 15.9424 78.6421C15.9424 78.6421 17.8393 78.4341 19.2469 79.4595Z" fill="#FFAA2E"/>
<path d="M21.6256 74.3609C20.9876 76.0155 19.3162 77.017 19.3162 77.017C19.3162 77.017 18.6732 75.3312 19.3112 73.6766C19.9492 72.022 21.6206 71.0205 21.6206 71.0205C21.6206 71.0205 22.2635 72.7062 21.6256 74.3609Z" fill="#FFAA2E"/>
<path d="M18.3586 73.7903C19.4793 75.069 19.4015 76.8802 19.4015 76.8802C19.4015 76.8802 17.546 76.5657 16.4253 75.287C15.3046 74.0082 15.3825 72.197 15.3825 72.197C15.3825 72.197 17.229 72.4489 18.3586 73.7903Z" fill="#FFAA2E"/>
<path d="M21.6469 69.2705C20.6553 70.7223 18.8085 71.3042 18.8085 71.3042C18.8085 71.3042 18.6173 69.4872 19.6089 68.0354C20.6005 66.5836 22.4474 66.0017 22.4474 66.0017C22.4474 66.0017 22.7035 67.8072 21.6469 69.2705Z" fill="#FFAA2E"/>
<path d="M18.6792 67.9358C19.4406 69.4775 18.8822 71.251 18.8822 71.251C18.8822 71.251 17.1547 70.5233 16.3933 68.9816C15.6319 67.4399 16.1903 65.6664 16.1903 65.6664C16.1903 65.6664 17.9838 66.3825 18.6792 67.9358Z" fill="#FFAA2E"/>
<path d="M22.8339 64.9142C21.5634 66.1512 19.6721 66.2878 19.6721 66.2878C19.6721 66.2878 19.8704 64.4736 21.2142 63.2875C22.4847 62.0505 24.376 61.9139 24.376 61.9139C24.376 61.9139 24.1134 63.7393 22.8339 64.9142Z" fill="#FFAA2E"/>
<path d="M20.2357 63C20.6154 64.6797 19.6433 66.3335 19.6433 66.3335C19.6433 66.3335 18.135 65.2357 17.7553 63.556C17.3755 61.8763 18.3477 60.2225 18.3477 60.2225C18.3477 60.2225 19.8559 61.3203 20.2357 63Z" fill="#FFAA2E"/>
<path d="M24.4788 60.9348C22.9834 61.9511 21.1254 61.8293 21.1254 61.8293C21.1254 61.8293 21.6617 60.0937 23.093 59.0884C24.5883 58.0721 26.4464 58.1939 26.4464 58.1939C26.4464 58.1939 25.9101 59.9295 24.4788 60.9348Z" fill="#FFAA2E"/>
<path d="M22.2041 58.5831C22.2551 60.3191 21.0585 61.8175 21.0585 61.8175C21.0585 61.8175 19.7862 60.4855 19.6787 58.8238C19.6277 57.0877 20.8243 55.5894 20.8243 55.5894C20.8243 55.5894 22.1532 56.8471 22.2041 58.5831Z" fill="#FFAA2E"/>
<path d="M55.1283 93.6153C53.9198 94.9061 53.7763 96.704 53.7763 96.704C53.7763 96.704 55.6586 96.4329 56.8671 95.1421C58.0755 93.8513 58.219 92.0534 58.219 92.0534C58.219 92.0534 56.4014 92.313 55.1283 93.6153Z" fill="#FFAA2E"/>
<path d="M57.2433 96.1475C55.497 95.8941 53.851 96.8073 53.851 96.8073C53.851 96.8073 55.0301 98.1577 56.7764 98.4111C58.5228 98.6645 60.1688 97.7514 60.1688 97.7514C60.1688 97.7514 58.9897 96.4009 57.2433 96.1475Z" fill="#FFAA2E"/>
<path d="M59.5659 91.6694C58.5083 93.1307 58.6238 94.8926 58.6238 94.8926C58.6238 94.8926 60.4791 94.3717 61.5366 92.9104C62.5942 91.4491 62.4787 89.6872 62.4787 89.6872C62.4787 89.6872 60.6322 90.2702 59.5659 91.6694Z" fill="#FFAA2E"/>
<path d="M62.0307 93.9009C60.257 93.9019 58.7671 94.97 58.7671 94.97C58.7671 94.97 60.1111 96.0993 61.8936 96.1588C63.6674 96.1578 65.1572 95.0896 65.1572 95.0896C65.1572 95.0896 63.8132 93.9604 62.0307 93.9009Z" fill="#FFAA2E"/>
<path d="M63.3953 88.7782C62.6094 90.3266 62.9958 92.1149 62.9958 92.1149C62.9958 92.1149 64.7545 91.2901 65.5405 89.7418C66.3264 88.1934 65.94 86.4051 65.94 86.4051C65.94 86.4051 64.2466 87.2182 63.3953 88.7782Z" fill="#FFAA2E"/>
<path d="M66.1916 90.5779C64.4535 90.8204 63.1272 92.1047 63.1272 92.1047C63.1272 92.1047 64.6367 93.0161 66.4388 92.7624C68.1769 92.5199 69.5031 91.2356 69.5031 91.2356C69.5031 91.2356 67.9383 90.3958 66.1916 90.5779Z" fill="#FFAA2E"/>
<path d="M66.6398 85.1333C66.2029 86.8191 67.1027 88.3971 67.1027 88.3971C67.1027 88.3971 68.6267 87.2268 69.0636 85.5411C69.5005 83.8553 68.6006 82.2773 68.6006 82.2773C68.6006 82.2773 67.0678 83.3848 66.6398 85.1333Z" fill="#FFAA2E"/>
<path d="M69.8629 86.2202C68.1755 86.8268 67.2207 88.4221 67.2207 88.4221C67.2207 88.4221 69.0084 88.9773 70.6231 88.3214C72.3105 87.7148 73.2653 86.1195 73.2653 86.1195C73.2653 86.1195 71.5503 85.6136 69.8629 86.2202Z" fill="#FFAA2E"/>
<path d="M69.1782 80.689C69.221 82.4225 70.498 83.7452 70.498 83.7452C70.498 83.7452 71.7125 82.2416 71.6787 80.5711C71.6359 78.8376 70.3589 77.5149 70.3589 77.5149C70.3589 77.5149 69.1444 79.0184 69.1782 80.689Z" fill="#FFAA2E"/>
<path d="M72.4989 81.105C70.9968 82.1209 70.4427 83.7827 70.4427 83.7827C70.4427 83.7827 72.3023 83.8923 73.8131 82.9375C75.3151 81.9217 75.8693 80.2599 75.8693 80.2599C75.8693 80.2599 74.001 80.0892 72.4989 81.105Z" fill="#FFAA2E"/>
<path d="M70.7157 76.0124C71.0915 77.6885 72.6629 78.7035 72.6629 78.7035C72.6629 78.7035 73.5818 77.0586 73.1398 75.3941C72.764 73.718 71.1926 72.703 71.1926 72.703C71.1926 72.703 70.2736 74.3479 70.7157 76.0124Z" fill="#FFAA2E"/>
<path d="M74.0466 75.704C72.7685 76.942 72.5628 78.7499 72.5628 78.7499C72.5628 78.7499 74.4501 78.5432 75.7282 77.3053C77.0064 76.0673 77.2121 74.2594 77.2121 74.2594C77.2121 74.2594 75.3248 74.466 74.0466 75.704Z" fill="#FFAA2E"/>
<path d="M71.2919 71.4244C71.9884 72.9785 73.6615 73.7809 73.6615 73.7809C73.6615 73.7809 74.287 71.9949 73.5906 70.4408C72.8941 68.8867 71.2209 68.0843 71.2209 68.0843C71.2209 68.0843 70.6615 69.8587 71.2919 71.4244Z" fill="#FFAA2E"/>
<path d="M74.533 70.6053C73.4692 72.0041 73.5952 73.8296 73.5952 73.8296C73.5952 73.8296 75.4481 73.3107 76.5119 71.9119C77.5757 70.5131 77.4497 68.6876 77.4497 68.6876C77.4497 68.6876 75.6616 69.195 74.533 70.6053Z" fill="#FFAA2E"/>
<path d="M70.6838 66.6948C71.7498 68.0489 73.6175 68.4263 73.6175 68.4263C73.6175 68.4263 73.7611 66.6018 72.6951 65.2477C71.6291 63.8936 69.7614 63.5162 69.7614 63.5162C69.7614 63.5162 69.6178 65.3407 70.6838 66.6948Z" fill="#FFAA2E"/>
<path d="M73.6485 65.1362C72.9372 66.7381 73.5135 68.4338 73.5135 68.4338C73.5135 68.4338 75.191 67.4958 75.9023 65.8938C76.6136 64.2918 76.0373 62.5962 76.0373 62.5962C76.0373 62.5962 74.2854 63.4831 73.6485 65.1362Z" fill="#FFAA2E"/>
<path d="M69.0174 61.8666C70.3622 62.905 72.2797 62.8211 72.2797 62.8211C72.2797 62.8211 71.9587 61.0272 70.6139 59.9887C69.2691 58.9503 67.3517 59.0342 67.3517 59.0342C67.3517 59.0342 67.6077 60.8396 69.0174 61.8666Z" fill="#FFAA2E"/>
<path d="M71.4632 59.6816C71.1687 61.4087 72.194 62.904 72.194 62.904C72.194 62.904 73.6343 61.62 73.9289 59.8929C74.2234 58.1657 73.198 56.6704 73.198 56.6704C73.198 56.6704 71.7667 58.0173 71.4632 59.6816Z" fill="#FFAA2E"/>
<path d="M66.6152 58.1297C68.1733 58.8772 70.0107 58.3685 70.0107 58.3685C70.0107 58.3685 69.309 56.71 67.6956 56.0358C66.1375 55.2884 64.3001 55.797 64.3001 55.797C64.3001 55.797 65.0661 57.4443 66.6152 58.1297Z" fill="#FFAA2E"/>
<path d="M68.5233 55.5162C68.64 57.2412 70.0351 58.4877 70.0351 58.4877C70.0351 58.4877 71.1572 56.9374 71.0404 55.2125C70.9237 53.4876 69.5286 52.2411 69.5286 52.2411C69.5286 52.2411 68.4066 53.7913 68.5233 55.5162Z" fill="#FFAA2E"/>
<path d="M63.6918 54.8699C65.4023 55.3332 67.1349 54.5919 67.1349 54.5919C67.1349 54.5919 66.1324 53.1218 64.486 52.6474C62.7754 52.1842 61.0429 52.9254 61.0429 52.9254C61.0429 52.9254 62.0454 54.3956 63.6918 54.8699Z" fill="#FFAA2E"/>
<path d="M65.1555 51.9449C65.6008 53.6131 67.165 54.6364 67.165 54.6364C67.165 54.6364 67.9962 52.9424 67.6258 51.326C67.1804 49.6578 65.6162 48.6345 65.6162 48.6345C65.6162 48.6345 64.7193 50.3398 65.1555 51.9449Z" fill="#FFAA2E"/>
<path d="M62.2434 50.0397C62.188 50.1131 62.1326 50.1865 62.0128 50.271L61.9574 50.3443C68.1538 53.9254 72.5863 59.9162 73.6489 67.2561C75.63 80.9406 65.0137 94.2575 50.0069 96.8579C35.0001 99.4582 21.1508 90.4443 19.1607 76.6976C18.1431 69.6687 20.3895 62.8394 24.8847 57.4058C24.7469 57.3659 24.5446 57.3372 24.4068 57.2973C19.9206 62.7931 17.6832 69.6846 18.7098 76.7757C20.727 90.7091 34.7965 99.876 50.0609 97.2311C65.3253 94.5861 76.1169 81.1113 74.0997 67.1779C73.0281 59.7758 68.5132 53.6718 62.2434 50.0397Z" fill="#FF9912"/>
<path d="M27.5826 57.1159C25.9087 57.78 24.1838 57.1974 24.1838 57.1974C24.1838 57.1974 25.1298 55.5911 26.8126 54.9882C28.4866 54.3241 30.2115 54.9068 30.2115 54.9068C30.2115 54.9068 29.1926 56.4628 27.5826 57.1159Z" fill="#FFAA2E"/>
<path d="M26.0034 54.2666C25.6429 55.9424 24.1428 57.1694 24.1428 57.1694C24.1428 57.1694 23.2406 55.5822 23.6011 53.9064C23.9616 52.2306 25.4617 51.0036 25.4617 51.0036C25.4617 51.0036 26.3639 52.5908 26.0034 54.2666Z" fill="#FFAA2E"/>
<path d="M59.7292 52.0302C61.5105 52.101 62.9849 50.969 62.9849 50.969C62.9849 50.969 61.6274 49.7583 59.855 49.7487C58.0737 49.678 56.5993 50.81 56.5993 50.81C56.5993 50.81 57.9479 51.9594 59.7292 52.0302Z" fill="#FFAA2E"/>
<path d="M60.3711 48.8554C61.1896 50.3279 62.9644 50.99 62.9644 50.99C62.9644 50.99 63.3721 49.1769 62.5537 47.7044C61.7352 46.2319 59.9604 45.5698 59.9604 45.5698C59.9604 45.5698 59.5527 47.3829 60.3711 48.8554Z" fill="#FFAA2E"/>
<path d="M37.269 49.9021L34.7913 49.6072L32.8534 51.1556L32.4306 48.7772L30.3794 47.3798L32.5664 46.1765L33.272 43.8673L35.0308 45.5068L37.516 45.4138L36.4612 47.588L37.269 49.9021Z" fill="#FFEC03"/>
<path d="M52.7139 47.6918L54.975 48.7321L54.9371 46.2887L56.6357 44.4577L54.3029 43.8161L53.1288 41.6916L51.7247 43.7313L49.2315 44.2124L50.7622 46.084L50.4056 48.5288L52.7139 47.6918Z" fill="#FFEC03"/>
<path d="M45.9122 48.2069L43.5163 47.5764L41.3299 48.7794L41.292 46.3372L39.4695 44.7088L41.8315 43.7986L42.8859 41.6249L44.416 43.4955L46.8289 43.8011L45.4254 45.8398L45.9122 48.2069Z" fill="#FFEC03"/>
<path d="M36.572 82.7017L32.8464 83.2918L31.2309 73.0918L31.0016 71.4101L30.7717 69.568C30.2508 70.2849 29.885 70.7589 29.6745 70.99L27.9067 72.9385L25.7551 70.9805L30.7177 65.5598L33.7801 65.0747L36.572 82.7017ZM52.2966 71.1766C52.7842 74.2551 52.6387 76.614 51.8602 78.2534C51.0897 79.8915 49.6555 80.8766 47.5577 81.2089C45.5241 81.531 43.8679 81.0106 42.5892 79.6476C41.3184 78.2834 40.4469 76.1102 39.9746 73.1282C39.4819 70.0176 39.6215 67.6472 40.3932 66.0172C41.1637 64.3791 42.5939 63.3945 44.6837 63.0635C46.7173 62.7414 48.3747 63.2699 49.656 64.6489C50.9454 66.0267 51.8256 68.2026 52.2966 71.1766ZM43.676 72.5419C44.0185 74.7041 44.4491 76.2261 44.9678 77.108C45.4932 77.9806 46.198 78.3468 47.0822 78.2068C47.9503 78.0693 48.5021 77.4958 48.7377 76.4862C48.9733 75.4766 48.9218 73.9028 48.5831 71.7647C48.2407 69.6026 47.7981 68.0825 47.2553 67.2044C46.7192 66.3171 46.0212 65.9415 45.1611 66.0777C44.285 66.2165 43.7332 66.79 43.5056 67.7983C43.2768 68.7986 43.3336 70.3798 43.676 72.5419ZM70.9819 77.2517L66.7379 77.9239L60.9439 71.2283L59.544 72.6118L60.5408 78.9054L56.8032 79.4974L54.0113 61.8704L57.7489 61.2785L59.0265 69.3444L60.1689 67.0377L63.9943 60.2893L68.1418 59.6324L63.2284 68.407L70.9819 77.2517Z" fill="#ED1CBF"/>
<defs>
<filter id="filter0_d" x="0" y="0.5" width="200" height="133.672" filterUnits="userSpaceOnUse" color-interpolation-filters="sRGB">
<feFlood flood-opacity="0" result="BackgroundImageFix"/>
<feColorMatrix in="SourceAlpha" type="matrix" values="0 0 0 0 0 0 0 0 0 0 0 0 0 0 0 0 0 0 127 0"/>
<feOffset dy="4"/>
<feGaussianBlur stdDeviation="2"/>
<feColorMatrix type="matrix" values="0 0 0 0 0 0 0 0 0 0 0 0 0 0 0 0 0 0 0.25 0"/>
<feBlend mode="normal" in2="BackgroundImageFix" result="effect1_dropShadow"/>
<feBlend mode="normal" in="SourceGraphic" in2="effect1_dropShadow" result="shape"/>
</filter>
<linearGradient id="paint0_linear" x1="98.5651" y1="0.5" x2="98.5651" y2="105.274" gradientUnits="userSpaceOnUse">
<stop stop-color="#FF9905"/>
<stop offset="1" stop-color="#C822AD"/>
</linearGradient>
</defs>
</svg>
