<svg width="146" height="191" viewBox="0 0 146 191" fill="none" xmlns="http://www.w3.org/2000/svg">
<path fill-rule="evenodd" clip-rule="evenodd" d="M118.726 65.9368H134.499C137.514 65.9368 140.182 67.2125 142.153 69.1841C144.125 71.1556 145.4 73.939 145.4 76.8384V90.5234C145.4 93.5387 144.125 96.2061 142.153 98.1777C140.182 100.149 137.398 101.425 134.499 101.425H118.61C115.595 101.425 112.928 100.149 110.956 98.1777C108.984 96.2061 107.709 93.4227 107.709 90.5234V76.8384C107.709 73.823 108.984 71.1556 110.956 69.1841C112.928 67.0965 115.711 65.9368 118.726 65.9368ZM134.499 70.4598H118.61C116.871 70.4598 115.247 71.1556 114.087 72.3154C112.928 73.4751 112.232 75.0988 112.232 76.8384V90.5234C112.232 92.263 112.928 93.8866 114.087 95.0464C115.247 96.2061 116.871 96.902 118.61 96.902H134.499C136.238 96.902 137.862 96.2061 139.022 95.0464C140.182 93.8866 140.877 92.263 140.877 90.5234V76.8384C140.877 75.0988 140.182 73.4751 139.022 72.3154C137.862 71.1556 136.238 70.4598 134.499 70.4598Z" fill="url(#paint0_linear)"/>
<path fill-rule="evenodd" clip-rule="evenodd" d="M11.1018 65.9368H26.9903C30.0056 65.9368 32.673 67.2125 34.6446 69.1841C36.6162 71.1556 37.8919 73.939 37.8919 76.8384V90.5234C37.8919 93.5387 36.6162 96.2061 34.6446 98.1777C32.673 100.149 29.8897 101.425 26.9903 101.425H11.1018C8.08645 101.425 5.41904 100.149 3.44748 98.1777C1.47591 96.2061 0.200195 93.4227 0.200195 90.5234V76.8384C0.200195 73.823 1.47591 71.1556 3.44748 69.1841C5.30307 67.0965 8.08645 65.9368 11.1018 65.9368ZM26.8743 70.4598H11.1018C9.36217 70.4598 7.73853 71.1556 6.57879 72.3154C5.41904 73.4751 4.7232 75.0988 4.7232 76.8384V90.5234C4.7232 92.263 5.41904 93.8866 6.57879 95.0464C7.73853 96.2061 9.36217 96.902 11.1018 96.902H26.9903C28.7299 96.902 30.3535 96.2061 31.5133 95.0464C32.673 93.8866 33.3689 92.263 33.3689 90.5234V76.8384C33.3689 75.0988 32.673 73.4751 31.5133 72.3154C30.2376 71.1556 28.6139 70.4598 26.8743 70.4598Z" fill="url(#paint1_linear)"/>
<path fill-rule="evenodd" clip-rule="evenodd" d="M25.0184 53.9915H120.349C126.728 53.9915 132.875 59.3263 131.947 65.5889L114.667 179.012C113.739 185.275 109.448 190.609 103.069 190.609H42.2986C35.92 190.609 31.6289 185.275 30.7011 179.012L13.4209 65.5889C12.4931 59.3263 18.6398 53.9915 25.0184 53.9915Z" fill="url(#paint2_linear)"/>
<path fill-rule="evenodd" clip-rule="evenodd" d="M72.6841 53.9915H120.35C126.728 53.9915 132.875 59.3263 131.947 65.5889L114.667 179.012C113.739 185.275 109.448 190.609 103.069 190.609H72.6841V53.9915Z" fill="url(#paint3_linear)"/>
<path fill-rule="evenodd" clip-rule="evenodd" d="M9.12994 47.9607H136.354C138.905 47.9607 140.877 50.0482 140.877 52.4837V57.5866C140.877 60.138 138.789 62.1096 136.354 62.1096H9.12994C6.5785 62.1096 4.60693 60.022 4.60693 57.5866V52.4837C4.60693 50.0482 6.5785 47.9607 9.12994 47.9607Z" fill="#FF8C00"/>
<path fill-rule="evenodd" clip-rule="evenodd" d="M72.6836 47.9607H137.861C139.485 47.9607 140.877 50.0482 140.877 52.4837V57.5866C140.877 60.138 139.485 62.1096 137.861 62.1096H72.6836V47.9607Z" fill="#E77F00"/>
<path fill-rule="evenodd" clip-rule="evenodd" d="M88.4566 5.16619L73.032 1.45501C70.1326 0.759163 67.1173 1.33903 64.7978 2.73073C62.3623 4.2384 60.6227 6.55789 59.9268 9.45725L58.7671 14.3282L63.1741 15.3719L64.3339 10.501C64.7978 8.7614 65.8415 7.36971 67.2332 6.55789C68.6249 5.74607 70.3645 5.39814 71.9882 5.74607L87.4128 9.45725C89.1524 9.92115 90.5441 10.9649 91.3559 12.3566C92.1677 13.7483 92.5157 15.4879 92.1677 17.1116L91.008 21.9825L95.415 23.0263L96.5748 18.1553C97.2706 15.256 96.6907 12.2406 95.299 9.92114C93.6754 7.71763 91.3559 5.86204 88.4566 5.16619Z" fill="#F68503"/>
<path fill-rule="evenodd" clip-rule="evenodd" d="M88.4559 5.16614L80.8016 3.31055L79.7578 7.71758L87.4121 9.57317C89.1517 10.0371 90.5434 11.0808 91.3553 12.4725C92.1671 13.8642 92.515 15.6038 92.1671 17.2275L91.0073 22.0984L95.4144 23.1422L96.5741 18.2713C97.27 15.3719 96.6901 12.3566 95.2984 10.0371C93.6747 7.71758 91.3553 5.86199 88.4559 5.16614Z" fill="#ED7500"/>
<path fill-rule="evenodd" clip-rule="evenodd" d="M15.9727 0.411218L139.601 30.1007C142.037 30.6805 143.545 33.116 142.965 35.6674L141.805 40.5384C141.225 42.9738 138.79 44.4815 136.238 43.9016L12.7254 14.2122C10.2899 13.6323 8.78227 11.1968 9.36215 8.6454L10.5219 3.77448C11.1018 1.33901 13.5372 -0.168654 15.9727 0.411218Z" fill="#E77F00"/>
<path fill-rule="evenodd" clip-rule="evenodd" d="M77.9023 15.2559L141.224 30.4485C142.848 30.7964 143.66 33.1159 143.08 35.5514L141.92 40.4223C141.34 42.8578 139.485 44.5974 137.977 44.1335L74.5391 29.0568L77.9023 15.2559Z" fill="#FF8C00"/>
<path fill-rule="evenodd" clip-rule="evenodd" d="M74.7607 83.678C75.6542 83.678 76.3987 83.678 77.2922 83.678V74.4456L96.5016 90.0812L77.2922 105.717V94.5485C76.3987 94.5485 75.6542 94.3996 74.7607 94.3996C66.1239 94.3996 58.2316 97.9734 52.573 103.632C48.2546 107.95 45.1275 113.46 43.9362 119.714L33.9592 114.651C35.895 107.504 39.7667 101.101 44.8297 95.8887C52.573 88.4432 63.1457 83.678 74.7607 83.678ZM114.818 162.898L106.33 154.411C113.031 146.965 117.2 136.988 117.2 126.118C117.2 114.354 112.435 103.781 104.841 96.1865C103.5 94.8463 102.16 93.655 100.671 92.4637L91.8854 99.6114C93.8212 100.803 95.4593 102.292 97.0973 103.781C102.756 109.44 106.33 117.332 106.33 125.969C106.33 133.861 103.5 141.009 98.5864 146.518L92.63 140.562L90.0985 165.281L114.818 162.898ZM26.5137 144.582L33.2147 120.757L55.2534 132.074L45.1275 136.541C46.7655 141.157 49.297 145.178 52.573 148.454C58.2316 154.113 66.1239 157.687 74.7607 157.687C78.7813 157.687 82.653 156.942 86.2268 155.602L85.0355 167.366C81.7595 168.11 78.3345 168.557 74.7607 168.557C62.9968 168.557 52.4241 163.792 44.8297 156.197C40.5113 151.879 37.2352 146.667 35.0016 140.86L26.5137 144.582Z" fill="url(#paint4_linear)"/>
<path fill-rule="evenodd" clip-rule="evenodd" d="M74.7599 83.678C75.6534 83.678 76.398 83.678 77.2914 83.678V74.4456L96.5009 90.0812L77.2914 105.717V94.5485C76.398 94.5485 75.6534 94.3996 74.7599 94.3996C73.7176 94.3996 72.8241 94.3996 71.7817 94.5485V83.678C72.8241 83.8269 73.8665 83.678 74.7599 83.678ZM114.817 162.898L106.329 154.411C113.03 146.965 117.199 136.988 117.199 126.118C117.199 114.354 112.434 103.781 104.84 96.1865C103.5 94.8463 102.159 93.655 100.67 92.4637L91.8847 99.6114C93.8205 100.803 95.4585 102.292 97.0965 103.781C102.755 109.44 106.329 117.332 106.329 125.969C106.329 133.861 103.5 141.009 98.5856 146.518L92.6292 140.562L90.0977 165.281L114.817 162.898ZM71.7817 157.389C72.8241 157.538 73.7176 157.538 74.7599 157.538C78.7805 157.538 82.6522 156.793 86.2261 155.453L85.0348 167.217C81.7587 167.961 78.3338 168.408 74.7599 168.408C73.7176 168.408 72.8241 168.408 71.7817 168.259V157.389Z" fill="url(#paint5_linear)"/>
<path d="M58.9688 137.287L68.083 117.365H56.1133V113.049H73.5283V116.27L64.3477 137.287H58.9688ZM84.8174 121.781C87.1637 121.781 89.0286 122.44 90.4121 123.757C91.8066 125.074 92.5039 126.878 92.5039 129.169C92.5039 131.881 91.6683 133.967 89.9971 135.428C88.3258 136.889 85.9352 137.619 82.8252 137.619C80.1247 137.619 77.9443 137.182 76.2842 136.308V131.875C77.1585 132.34 78.1768 132.722 79.3389 133.021C80.501 133.308 81.6022 133.452 82.6426 133.452C85.7747 133.452 87.3408 132.168 87.3408 129.601C87.3408 127.155 85.7194 125.932 82.4766 125.932C81.89 125.932 81.2425 125.993 80.5342 126.114C79.8258 126.225 79.2503 126.347 78.8076 126.479L76.7656 125.384L77.6787 113.016H90.8438V117.365H82.1777L81.7295 122.13L82.3105 122.014C82.9857 121.859 83.8213 121.781 84.8174 121.781Z" fill="#FFBF00"/>
<defs>
<linearGradient id="paint0_linear" x1="126.731" y1="61.6721" x2="126.731" y2="98.5879" gradientUnits="userSpaceOnUse">
<stop stop-color="#00A4ED"/>
<stop offset="1" stop-color="#0009E3"/>
</linearGradient>
<linearGradient id="paint1_linear" x1="19.2227" y1="61.6721" x2="19.2227" y2="98.5879" gradientUnits="userSpaceOnUse">
<stop stop-color="#00A4ED"/>
<stop offset="1" stop-color="#0009E3"/>
</linearGradient>
<linearGradient id="paint2_linear" x1="73.2402" y1="37.5741" x2="73.2402" y2="179.688" gradientUnits="userSpaceOnUse">
<stop stop-color="#00A4ED"/>
<stop offset="1" stop-color="#0009E3"/>
</linearGradient>
<linearGradient id="paint3_linear" x1="102.64" y1="37.5741" x2="102.64" y2="179.688" gradientUnits="userSpaceOnUse">
<stop stop-color="#00A4ED"/>
<stop offset="1" stop-color="#0009E3"/>
</linearGradient>
<linearGradient id="paint4_linear" x1="71.8569" y1="74.4456" x2="71.8569" y2="168.557" gradientUnits="userSpaceOnUse">
<stop stop-color="#FFC700"/>
<stop offset="1" stop-color="#FF4070"/>
</linearGradient>
<linearGradient id="paint5_linear" x1="94.4906" y1="74.4456" x2="94.4906" y2="168.408" gradientUnits="userSpaceOnUse">
<stop stop-color="#FFC700"/>
<stop offset="1" stop-color="#FF4070"/>
</linearGradient>
</defs>
</svg>
