<svg width="200" height="137" viewBox="0 0 200 137" fill="none" xmlns="http://www.w3.org/2000/svg">
<g filter="url(#filter0_d)">
<path d="M7.02159 95.4368C7.02159 95.4368 4.1037 98.3547 4.1037 109.54C4.1037 120.725 0.796759 122.379 31.5319 122.379C62.2669 122.379 58.571 121.99 58.571 111.193C58.571 111.193 71.896 111.582 93.8774 118.683C115.859 125.783 176.356 124.324 189.973 105.26C203.59 86.2941 189.876 90.8654 189.876 90.8654C189.876 90.8654 29.8784 80.0692 7.02159 95.4368Z" fill="#4C094E"/>
<path d="M15.3858 41.8445C15.3858 41.8445 7.11841 48.9447 7.11841 95.4364C7.11841 95.4364 53.6101 90.476 90.181 100.786C126.752 111.193 174.897 101.661 189.875 90.865C189.875 90.865 192.793 67.6192 171.59 65.9657C150.387 64.3122 115.567 65.5767 102.242 51.8626C88.8193 38.1485 89.3056 24.0454 89.3056 13.2492C89.3056 2.453 75.9806 -5.03625 64.0172 5.75994L15.3858 41.8445Z" fill="url(#paint0_linear)"/>
<path d="M74.7162 33.5775C74.7162 38.1488 71.0202 41.8448 66.4488 41.8448H15.3858C10.8144 41.8448 7.11841 38.1488 7.11841 33.5775V14.0276C7.11841 9.45625 10.8144 5.76025 15.3858 5.76025H66.4488C71.0202 5.76025 74.7162 9.45625 74.7162 14.0276V33.5775Z" fill="#4C094E"/>
<path d="M11.5924 124.518C11.5924 125.393 10.8143 126.172 9.9389 126.172H5.65933C4.78396 126.172 4.00586 125.393 4.00586 124.518V116.64C4.00586 115.764 4.78396 114.986 5.65933 114.986H9.9389C10.8143 114.986 11.5924 115.764 11.5924 116.64V124.518Z" fill="#4C094E"/>
<path d="M23.3609 124.518C23.3609 125.393 22.5828 126.172 21.7075 126.172H17.4279C16.5525 126.172 15.7744 125.393 15.7744 124.518V116.64C15.7744 115.764 16.5525 114.986 17.4279 114.986H21.7075C22.5828 114.986 23.3609 115.764 23.3609 116.64V124.518Z" fill="#4C094E"/>
<path d="M35.2288 124.518C35.2288 125.393 34.4507 126.172 33.5754 126.172H29.2958C28.4204 126.172 27.6423 125.393 27.6423 124.518V116.64C27.6423 115.764 28.4204 114.986 29.2958 114.986H33.5754C34.4507 114.986 35.2288 115.764 35.2288 116.64V124.518Z" fill="#4C094E"/>
<path d="M46.9974 124.518C46.9974 125.393 46.2193 126.172 45.3439 126.172H41.0644C40.189 126.172 39.4109 125.393 39.4109 124.518V116.64C39.4109 115.764 40.189 114.986 41.0644 114.986H45.3439C46.2193 114.986 46.9974 115.764 46.9974 116.64V124.518Z" fill="#4C094E"/>
<path d="M58.7662 124.518C58.7662 125.393 57.9881 126.172 57.1127 126.172H52.8332C51.9578 126.172 51.1797 125.393 51.1797 124.518V116.64C51.1797 115.764 51.9578 114.986 52.8332 114.986H57.1127C57.9881 114.986 58.7662 115.764 58.7662 116.64V124.518Z" fill="#4C094E"/>
<path d="M147.664 124.518C147.664 125.393 146.886 126.172 146.01 126.172H141.731C140.855 126.172 140.077 125.393 140.077 124.518V116.64C140.077 115.764 140.855 114.986 141.731 114.986H146.01C146.886 114.986 147.664 115.764 147.664 116.64V124.518Z" fill="#A67C52"/>
<path d="M100.492 124.518C100.492 125.393 99.7137 126.172 98.8383 126.172H94.5587C93.6834 126.172 92.9053 125.393 92.9053 124.518V116.64C92.9053 115.764 93.6834 114.986 94.5587 114.986H98.8383C99.7137 114.986 100.492 115.764 100.492 116.64V124.518Z" fill="#4C094E"/>
<path d="M112.358 124.518C112.358 125.393 111.58 126.172 110.705 126.172H106.425C105.55 126.172 104.771 125.393 104.771 124.518V116.64C104.771 115.764 105.55 114.986 106.425 114.986H110.705C111.58 114.986 112.358 115.764 112.358 116.64V124.518Z" fill="#4C094E"/>
<path d="M124.127 124.518C124.127 125.393 123.348 126.172 122.473 126.172H118.194C117.318 126.172 116.54 125.393 116.54 124.518V116.64C116.54 115.764 117.318 114.986 118.194 114.986H122.473C123.348 114.986 124.127 115.764 124.127 116.64V124.518Z" fill="#4C094E"/>
<path d="M135.895 124.518C135.895 125.393 135.117 126.172 134.242 126.172H129.962C129.087 126.172 128.309 125.393 128.309 124.518V116.64C128.309 115.764 129.087 114.986 129.962 114.986H134.242C135.117 114.986 135.895 115.764 135.895 116.64V124.518Z" fill="#4C094E"/>
<path d="M147.664 124.518C147.664 125.393 146.886 126.172 146.01 126.172H141.731C140.855 126.172 140.077 125.393 140.077 124.518V116.64C140.077 115.764 140.855 114.986 141.731 114.986H146.01C146.886 114.986 147.664 115.764 147.664 116.64V124.518Z" fill="#4C094E"/>
<path d="M159.432 124.518C159.432 125.393 158.654 126.172 157.779 126.172H153.499C152.624 126.172 151.846 125.393 151.846 124.518V116.64C151.846 115.764 152.624 114.986 153.499 114.986H157.779C158.654 114.986 159.432 115.764 159.432 116.64V124.518Z" fill="#4C094E"/>
<path d="M171.201 122.281C171.201 123.156 170.423 123.934 169.547 123.934H165.268C164.392 123.934 163.614 123.156 163.614 122.281V114.402C163.614 113.527 164.392 112.749 165.268 112.749H169.547C170.423 112.749 171.201 113.527 171.201 114.402V122.281Z" fill="#4C094E"/>
<path d="M183.067 118.876C183.067 119.752 182.289 120.53 181.414 120.53H177.134C176.259 120.53 175.48 119.752 175.48 118.876V110.998C175.48 110.123 176.259 109.345 177.134 109.345H181.414C182.289 109.345 183.067 110.123 183.067 110.998V118.876Z" fill="#4C094E"/>
<path d="M191.043 111.095C191.043 111.971 190.264 112.749 189.389 112.749H185.11C184.234 112.749 183.456 111.971 183.456 111.095V103.217C183.456 102.342 184.234 101.563 185.11 101.563H189.389C190.264 101.563 191.043 102.342 191.043 103.217V111.095Z" fill="#4C094E"/>
<path d="M90.8625 18.7931H79.9691C78.1211 18.7931 76.6621 17.3341 76.6621 15.4861C76.6621 13.6381 78.1211 12.1792 79.9691 12.1792H90.8625C92.7105 12.1792 94.1694 13.6381 94.1694 15.4861C94.1694 17.3341 92.6132 18.7931 90.8625 18.7931Z" fill="#333333"/>
<path d="M155.638 77.1506C155.249 77.1506 154.86 77.0533 154.471 76.956C152.721 76.2752 151.942 74.3299 152.623 72.6765L156.611 62.5611C157.292 60.8104 159.237 60.0323 160.891 60.7131C162.641 61.394 163.419 63.3392 162.739 64.9927L158.751 75.108C158.265 76.3725 157 77.1506 155.638 77.1506Z" fill="#333333"/>
<path d="M99.4205 66.5495C99.0315 66.4522 98.6424 66.355 98.2534 66.0632C96.6972 65.0905 96.3081 63.048 97.2808 61.4918L103.214 52.3491C104.186 50.7929 106.229 50.4038 107.785 51.3765C109.341 52.3491 109.73 54.3916 108.758 55.9478L102.825 65.0905C102.047 66.2577 100.685 66.744 99.4205 66.5495Z" fill="#333333"/>
<path d="M87.2643 53.7104C86.8752 53.5159 86.5834 53.2241 86.2916 52.9323C85.1245 51.5706 85.2217 49.4308 86.6807 48.2637L94.948 41.1635C96.3097 39.9963 98.4495 40.0936 99.6167 41.5525C100.784 42.9142 100.687 45.054 99.2276 46.2211L90.9603 53.3213C89.8904 54.1967 88.4314 54.294 87.2643 53.7104Z" fill="#333333"/>
<path d="M78.9969 35.8143C78.7051 35.5226 78.5106 35.1335 78.4133 34.7445C77.8297 32.9937 78.8024 31.1457 80.5531 30.5621L90.863 27.1579C92.6137 26.5744 94.4617 27.547 95.0453 29.2977C95.6289 31.0485 94.6562 32.8965 92.9055 33.48L82.5956 36.787C81.2339 37.2733 79.775 36.787 78.9969 35.8143Z" fill="#333333"/>
<path d="M120.138 74.6221C119.749 74.6221 119.359 74.6221 118.873 74.5249C117.122 74.0386 116.053 72.1906 116.636 70.4398L119.651 59.9354C120.138 58.1847 121.986 57.1148 123.736 57.6984C125.487 58.1847 126.557 60.0327 125.973 61.7834L122.958 72.2878C122.666 73.5522 121.499 74.4276 120.138 74.6221Z" fill="#333333"/>
<path d="M139.494 75.7891C139.104 75.7891 138.715 75.7891 138.229 75.6919C136.478 75.2055 135.408 73.3576 135.992 71.6068L139.007 61.1024C139.494 59.3517 141.342 58.2818 143.092 58.8654C144.843 59.3517 145.913 61.1997 145.329 62.9504L142.314 73.4548C142.022 74.7192 140.855 75.6919 139.494 75.7891Z" fill="#333333"/>
<g opacity="0.3">
<path opacity="0.3" d="M14.2181 36.9817C12.3701 36.9817 10.9111 35.5227 10.9111 33.6747V12.5687C10.9111 10.7207 12.3701 9.26172 14.2181 9.26172H34.4488C36.2968 9.26172 37.7557 10.7207 37.7557 12.5687C37.7557 14.4167 36.2968 15.8756 34.4488 15.8756H17.525V33.5775C17.525 35.4255 16.0661 36.9817 14.2181 36.9817Z" fill="#F2F2F2"/>
</g>
<g opacity="0.3">
<path opacity="0.3" d="M15.8734 91.9351C14.1227 91.9351 12.6637 90.5735 12.5665 88.8227C10.6212 56.3369 18.8886 47.875 19.8612 46.9996C21.2229 45.7352 23.3627 45.9298 24.5298 47.2914C25.697 48.6531 25.5997 50.6956 24.3353 51.9601C24.0435 52.2518 17.4296 59.8384 19.1804 88.5309C19.2776 90.3789 17.9159 91.9351 16.068 92.0324C15.9707 91.9351 15.8734 91.9351 15.8734 91.9351Z" fill="#F2F2F2"/>
</g>
</g>
<path d="M82.7264 122.691L71.2279 116.047L65.9158 128.405L45.7549 67.3899L62.5751 61.7389L82.7264 122.691Z" fill="#ED1CBF"/>
<path d="M20.4209 129.601L30.4447 120.483L37.901 131.286L45.936 67.1268L28.3816 65.39L20.4209 129.601Z" fill="#ED1CBF"/>
<path d="M23.5451 103.637C28.575 106.744 34.3657 108.755 40.5282 109.279L45.763 67.1232L28.3171 65.4403L23.5451 103.637Z" fill="#D919AF"/>
<path d="M62.5201 61.685L45.7534 67.3296L58.7388 106.54C64.6577 104.064 69.767 100.168 73.6907 95.435L62.5201 61.685Z" fill="#D919AF"/>
<path d="M49.3421 105.39C68.2646 102.227 81.3478 84.6311 78.5643 66.0874C75.7807 47.5438 58.1846 35.0747 39.2621 38.237C20.3397 41.3993 7.25648 58.9955 10.04 77.5391C12.8235 96.0828 30.4197 108.552 49.3421 105.39Z" fill="#FFCF03"/>
<path d="M64.3444 43.6891C71.1533 48.7388 75.9733 56.3123 77.323 65.3037C80.1072 83.8524 67.0284 101.443 48.1008 104.606C38.9257 106.139 30.0562 104.012 23.0284 99.2567C30.2148 104.63 39.6636 107.112 49.4162 105.482C68.3438 102.319 81.4226 84.7283 78.6383 66.1796C77.1395 56.6331 71.8043 48.6945 64.3444 43.6891Z" fill="#FFA506"/>
<path d="M65.5452 68.1356C65.8519 70.2558 64.1775 72.3999 63.8118 74.445C63.4552 76.5524 64.2768 79.0308 63.2296 80.9383C62.1825 82.8458 59.5907 83.6788 58.0197 85.1657C56.4486 86.6527 55.6298 89.2238 53.6549 90.2055C51.7445 91.176 49.1854 90.4052 46.9912 90.7857C44.797 91.1662 42.5806 92.7651 40.4898 92.4884C38.3345 92.2229 36.8301 90.0547 34.9163 89.172C32.9934 88.227 30.3024 88.374 28.7681 86.9142C27.2984 85.4431 27.3803 82.808 26.3817 80.9356C25.4567 79.1144 23.2591 77.6417 22.9524 75.5215C22.6456 73.4013 24.3201 71.2572 24.6858 69.2121C25.0424 67.1047 24.2208 64.6263 25.268 62.7188C26.3151 60.8113 28.9069 59.9783 30.4779 58.4914C32.049 57.0044 32.8678 54.4333 34.8427 53.4516C36.753 52.4811 39.3122 53.2519 41.5064 52.8714C43.7006 52.4909 45.917 50.892 48.0077 51.1687C50.1631 51.4342 51.6675 53.6024 53.5813 54.4851C55.5042 55.4301 58.1952 55.2831 59.7295 56.7429C61.1992 58.214 61.1173 60.8491 62.1159 62.7215C63.0409 64.5427 65.2385 66.0154 65.5452 68.1356Z" fill="#FFEC03"/>
<path d="M49.9351 89.1917C47.2079 89.0893 46.4335 89.2236 43.8687 90.2436C42.9922 90.5874 41.7466 91.123 40.8715 91.0191C39.315 90.7776 37.7731 88.8076 35.7766 87.8113C33.7801 86.8151 31.1355 86.8262 30.0606 85.798C28.9856 84.7698 29.012 82.2082 27.9954 80.2111C27.5374 79.3316 26.9038 78.6104 26.3438 77.9404C24.3515 75.601 24.2793 75.1021 25.5138 72.2032C25.9128 71.3029 26.2473 70.4139 26.4437 69.4849C26.8469 67.2415 26.0988 64.8142 26.8309 63.4727C27.563 62.1311 30.0813 61.2469 31.6989 59.624C33.3165 58.001 34.227 55.6058 35.6391 54.8495C36.442 54.4545 37.7779 54.5425 38.7085 54.5729C41.4357 54.6753 42.2101 54.5411 44.7749 53.521C45.7159 53.166 46.897 52.6416 47.7721 52.7455C49.3286 52.987 50.8705 54.957 52.867 55.9533C54.928 56.9383 57.5081 56.9384 58.583 57.9666C59.658 58.9948 59.6316 61.5564 60.6482 63.5536C61.1062 64.433 61.7398 65.1542 62.2998 65.8242C64.2921 68.1636 64.3643 68.6625 63.1298 71.5614C62.1458 73.9055 61.9869 74.6363 62.0986 77.2379C62.2089 80.2872 62.0604 80.6325 59.3367 82.3834C58.4873 82.9142 57.6379 83.4451 56.8891 84.2142C55.2716 85.8371 54.3611 88.2324 52.9489 88.9887C52.8199 89.0111 50.9302 89.2109 49.9351 89.1917Z" fill="#FFDC01"/>
<path d="M42.7899 95.326C44.2947 96.1347 44.9265 97.7949 44.9265 97.7949C44.9265 97.7949 43.0617 98.1896 41.5569 97.3808C40.052 96.572 39.4203 94.9118 39.4203 94.9118C39.4203 94.9118 41.2204 94.5287 42.7899 95.326Z" fill="#FFAA2E"/>
<path d="M41.5698 98.4291C43.1603 97.5881 44.9795 97.891 44.9795 97.891C44.9795 97.891 44.2335 99.5805 42.643 100.421C41.0525 101.262 39.2333 100.96 39.2333 100.96C39.2333 100.96 39.9793 99.2701 41.5698 98.4291Z" fill="#FFAA2E"/>
<path d="M37.2236 94.6982C38.6315 95.721 39.0065 97.4368 39.0065 97.4368C39.0065 97.4368 37.0987 97.5851 35.6909 96.5623C34.283 95.5395 33.908 93.8237 33.908 93.8237C33.908 93.8237 35.8245 93.7375 37.2236 94.6982Z" fill="#FFAA2E"/>
<path d="M35.5821 97.6217C37.2694 97.0154 38.9842 97.5211 38.9842 97.5211C38.9842 97.5211 38.0209 99.0554 36.3423 99.7223C34.655 100.329 32.9402 99.8229 32.9402 99.8229C32.9402 99.8229 33.9035 98.2886 35.5821 97.6217Z" fill="#FFAA2E"/>
<path d="M32.7133 93.3192C33.8873 94.5194 34.0125 96.3541 34.0125 96.3541C34.0125 96.3541 32.1127 96.1793 30.9387 94.9792C29.7647 93.779 29.6396 91.9443 29.6396 91.9443C29.6396 91.9443 31.5305 92.0566 32.7133 93.3192Z" fill="#FFAA2E"/>
<path d="M30.6267 95.9314C32.3475 95.5682 33.9678 96.3365 33.9678 96.3365C33.9678 96.3365 32.787 97.7191 31.0021 98.0936C29.2814 98.4568 27.6611 97.6885 27.6611 97.6885C27.6611 97.6885 28.906 96.2947 30.6267 95.9314Z" fill="#FFAA2E"/>
<path d="M28.344 90.7452C29.226 92.1977 28.807 94.009 28.807 94.009C28.807 94.009 27.0338 93.4218 26.1518 91.9693C25.2698 90.5168 25.6888 88.7055 25.6888 88.7055C25.6888 88.7055 27.462 89.2927 28.344 90.7452Z" fill="#FFAA2E"/>
<path d="M25.6512 92.8691C27.4253 92.8681 28.7782 94.0587 28.7782 94.0587C28.7782 94.0587 27.2327 95.1993 25.5141 95.1285C23.74 95.1295 22.3871 93.9389 22.3871 93.9389C22.3871 93.9389 23.9326 92.7983 25.6512 92.8691Z" fill="#FFAA2E"/>
<path d="M24.7902 87.5911C25.2312 89.2544 24.3844 90.9511 24.3844 90.9511C24.3844 90.9511 22.8114 89.9385 22.3793 88.338C21.9383 86.6747 22.7851 84.978 22.7851 84.978C22.7851 84.978 24.3491 85.9277 24.7902 87.5911Z" fill="#FFAA2E"/>
<path d="M21.7174 88.9793C23.4276 89.4282 24.4154 90.8178 24.4154 90.8178C24.4154 90.8178 22.6773 91.5626 20.9757 91.1747C19.2656 90.7259 18.2778 89.3362 18.2778 89.3362C18.2778 89.3362 20.0715 88.5191 21.7174 88.9793Z" fill="#FFAA2E"/>
<path d="M21.5075 83.3546C21.6184 85.0771 20.4076 86.5796 20.4076 86.5796C20.4076 86.5796 19.0743 85.3293 19.0296 83.5951C18.9188 81.8726 20.1295 80.3701 20.1295 80.3701C20.1295 80.3701 21.4629 81.6204 21.5075 83.3546Z" fill="#FFAA2E"/>
<path d="M18.2889 84.1636C19.8478 84.9009 20.5447 86.5496 20.5447 86.5496C20.5447 86.5496 18.6925 87.0031 17.1336 86.2658C15.5748 85.5285 14.8778 83.8798 14.8778 83.8798C14.8778 83.8798 16.7213 83.3646 18.2889 84.1636Z" fill="#FFAA2E"/>
<path d="M19.535 79.1707C19.3062 80.887 17.9393 82.2228 17.9393 82.2228C17.9393 82.2228 16.8466 80.7384 17.0754 79.0221C17.3041 77.3058 18.671 75.97 18.671 75.97C18.671 75.97 19.7638 77.4544 19.535 79.1707Z" fill="#FFAA2E"/>
<path d="M16.2468 79.4591C17.6455 80.4224 18.0309 82.2021 18.0309 82.2021C18.0309 82.2021 16.1252 82.348 14.7264 81.3846C13.3277 80.4213 12.9424 78.6416 12.9424 78.6416C12.9424 78.6416 14.8392 78.4336 16.2468 79.4591Z" fill="#FFAA2E"/>
<path d="M18.6256 74.3604C17.9876 76.015 16.3162 77.0165 16.3162 77.0165C16.3162 77.0165 15.6732 75.3307 16.3112 73.6761C16.9492 72.0215 18.6206 71.02 18.6206 71.02C18.6206 71.02 19.2636 72.7058 18.6256 74.3604Z" fill="#FFAA2E"/>
<path d="M15.3586 73.7898C16.4792 75.0685 16.4014 76.8797 16.4014 76.8797C16.4014 76.8797 14.5459 76.5652 13.4253 75.2865C12.3046 74.0077 12.3825 72.1965 12.3825 72.1965C12.3825 72.1965 14.229 72.4484 15.3586 73.7898Z" fill="#FFAA2E"/>
<path d="M18.6468 69.27C17.6552 70.7218 15.8085 71.3037 15.8085 71.3037C15.8085 71.3037 15.6173 69.4867 16.6089 68.0349C17.6004 66.5831 19.4472 66.0012 19.4472 66.0012C19.4472 66.0012 19.7033 67.8068 18.6468 69.27Z" fill="#FFAA2E"/>
<path d="M15.6792 67.9353C16.4406 69.477 15.8822 71.2505 15.8822 71.2505C15.8822 71.2505 14.1547 70.5228 13.3933 68.9811C12.6319 67.4394 13.1903 65.6659 13.1903 65.6659C13.1903 65.6659 14.9838 66.382 15.6792 67.9353Z" fill="#FFAA2E"/>
<path d="M19.8338 64.9137C18.5634 66.1507 16.6721 66.2873 16.6721 66.2873C16.6721 66.2873 16.8704 64.4731 18.2142 63.287C19.4847 62.05 21.3759 61.9134 21.3759 61.9134C21.3759 61.9134 21.1133 63.7388 19.8338 64.9137Z" fill="#FFAA2E"/>
<path d="M17.2356 62.9995C17.6153 64.6792 16.6431 66.333 16.6431 66.333C16.6431 66.333 15.1348 65.2352 14.7551 63.5555C14.3753 61.8758 15.3475 60.222 15.3475 60.222C15.3475 60.222 16.8558 61.3198 17.2356 62.9995Z" fill="#FFAA2E"/>
<path d="M21.4788 60.9343C19.9834 61.9506 18.1254 61.8288 18.1254 61.8288C18.1254 61.8288 18.6617 60.0932 20.0929 59.0879C21.5883 58.0716 23.4464 58.1934 23.4464 58.1934C23.4464 58.1934 22.91 59.9291 21.4788 60.9343Z" fill="#FFAA2E"/>
<path d="M19.2041 58.5826C19.2551 60.3187 18.0585 61.817 18.0585 61.817C18.0585 61.817 16.7862 60.485 16.6787 58.8233C16.6277 57.0872 17.8243 55.5889 17.8243 55.5889C17.8243 55.5889 19.1532 56.8466 19.2041 58.5826Z" fill="#FFAA2E"/>
<path d="M52.1282 93.6148C50.9198 94.9056 50.7763 96.7035 50.7763 96.7035C50.7763 96.7035 52.6585 96.4324 53.8669 95.1416C55.0754 93.8508 55.2188 92.0529 55.2188 92.0529C55.2188 92.0529 53.4013 92.3126 52.1282 93.6148Z" fill="#FFAA2E"/>
<path d="M54.2434 96.147C52.497 95.8936 50.851 96.8068 50.851 96.8068C50.851 96.8068 52.0301 98.1573 53.7765 98.4106C55.5229 98.664 57.1689 97.7509 57.1689 97.7509C57.1689 97.7509 55.9898 96.4004 54.2434 96.147Z" fill="#FFAA2E"/>
<path d="M56.5659 91.6689C55.5083 93.1302 55.6238 94.8921 55.6238 94.8921C55.6238 94.8921 57.4791 94.3712 58.5366 92.9099C59.5941 91.4486 59.4786 89.6867 59.4786 89.6867C59.4786 89.6867 57.6322 90.2697 56.5659 91.6689Z" fill="#FFAA2E"/>
<path d="M59.0308 93.9004C57.257 93.9014 55.7671 94.9696 55.7671 94.9696C55.7671 94.9696 57.1112 96.0988 58.8936 96.1583C60.6674 96.1573 62.1573 95.0892 62.1573 95.0892C62.1573 95.0892 60.8132 93.9599 59.0308 93.9004Z" fill="#FFAA2E"/>
<path d="M60.3953 88.7777C59.6094 90.3261 59.9958 92.1144 59.9958 92.1144C59.9958 92.1144 61.7545 91.2896 62.5404 89.7413C63.3263 88.1929 62.9399 86.4046 62.9399 86.4046C62.9399 86.4046 61.2466 87.2178 60.3953 88.7777Z" fill="#FFAA2E"/>
<path d="M63.1913 90.5774C61.4532 90.8199 60.127 92.1042 60.127 92.1042C60.127 92.1042 61.6364 93.0156 63.4386 92.7619C65.1766 92.5194 66.5028 91.2351 66.5028 91.2351C66.5028 91.2351 64.938 90.3953 63.1913 90.5774Z" fill="#FFAA2E"/>
<path d="M63.6398 85.1328C63.2029 86.8186 64.1027 88.3966 64.1027 88.3966C64.1027 88.3966 65.6267 87.2263 66.0636 85.5406C66.5004 83.8548 65.6006 82.2768 65.6006 82.2768C65.6006 82.2768 64.0678 83.3843 63.6398 85.1328Z" fill="#FFAA2E"/>
<path d="M66.8628 86.2197C65.1754 86.8263 64.2207 88.4216 64.2207 88.4216C64.2207 88.4216 66.0084 88.9768 67.6231 88.3209C69.3104 87.7143 70.2652 86.119 70.2652 86.119C70.2652 86.119 68.5502 85.6131 66.8628 86.2197Z" fill="#FFAA2E"/>
<path d="M66.178 80.6885C66.2208 82.422 67.4978 83.7447 67.4978 83.7447C67.4978 83.7447 68.7124 82.2412 68.6785 80.5706C68.6357 78.8371 67.3587 77.5144 67.3587 77.5144C67.3587 77.5144 66.1442 79.018 66.178 80.6885Z" fill="#FFAA2E"/>
<path d="M69.4988 81.105C67.9968 82.1209 67.4427 83.7827 67.4427 83.7827C67.4427 83.7827 69.3023 83.8924 70.813 82.9375C72.315 81.9217 72.8691 80.2599 72.8691 80.2599C72.8691 80.2599 71.0009 80.0892 69.4988 81.105Z" fill="#FFAA2E"/>
<path d="M67.716 76.0124C68.0918 77.6885 69.6631 78.7035 69.6631 78.7035C69.6631 78.7035 70.582 77.0586 70.14 75.3941C69.7642 73.718 68.1929 72.703 68.1929 72.703C68.1929 72.703 67.274 74.3479 67.716 76.0124Z" fill="#FFAA2E"/>
<path d="M71.047 75.704C69.7689 76.942 69.5631 78.7499 69.5631 78.7499C69.5631 78.7499 71.4505 78.5432 72.7286 77.3053C74.0068 76.0673 74.2125 74.2594 74.2125 74.2594C74.2125 74.2594 72.3252 74.466 71.047 75.704Z" fill="#FFAA2E"/>
<path d="M68.2922 71.4244C68.9887 72.9785 70.6618 73.7809 70.6618 73.7809C70.6618 73.7809 71.2873 71.9949 70.5908 70.4408C69.8944 68.8867 68.2213 68.0843 68.2213 68.0843C68.2213 68.0843 67.6619 69.8587 68.2922 71.4244Z" fill="#FFAA2E"/>
<path d="M71.5333 70.6053C70.4695 72.0041 70.5956 73.8296 70.5956 73.8296C70.5956 73.8296 72.4484 73.3107 73.5122 71.9119C74.576 70.5131 74.4499 68.6876 74.4499 68.6876C74.4499 68.6876 72.6619 69.195 71.5333 70.6053Z" fill="#FFAA2E"/>
<path d="M67.6839 66.6948C68.75 68.0489 70.6177 68.4263 70.6177 68.4263C70.6177 68.4263 70.7613 66.6018 69.6953 65.2477C68.6292 63.8936 66.7615 63.5162 66.7615 63.5162C66.7615 63.5162 66.6179 65.3407 67.6839 66.6948Z" fill="#FFAA2E"/>
<path d="M70.6488 65.1361C69.9375 66.7381 70.5139 68.4338 70.5139 68.4338C70.5139 68.4338 72.1914 67.4958 72.9026 65.8938C73.6139 64.2918 73.0376 62.5962 73.0376 62.5962C73.0376 62.5962 71.2857 63.4831 70.6488 65.1361Z" fill="#FFAA2E"/>
<path d="M66.0176 61.8666C67.3624 62.905 69.2799 62.8211 69.2799 62.8211C69.2799 62.8211 68.9589 61.0272 67.6141 59.9887C66.2693 58.9503 64.3518 59.0342 64.3518 59.0342C64.3518 59.0342 64.6078 60.8396 66.0176 61.8666Z" fill="#FFAA2E"/>
<path d="M68.4636 59.6816C68.169 61.4087 69.1944 62.904 69.1944 62.904C69.1944 62.904 70.6347 61.62 70.9292 59.8929C71.2238 58.1657 70.1984 56.6704 70.1984 56.6704C70.1984 56.6704 68.7671 58.0173 68.4636 59.6816Z" fill="#FFAA2E"/>
<path d="M63.6152 58.1293C65.1733 58.8767 67.0106 58.368 67.0106 58.368C67.0106 58.368 66.309 56.7096 64.6955 56.0353C63.1374 55.2879 61.3001 55.7966 61.3001 55.7966C61.3001 55.7966 62.0661 57.4439 63.6152 58.1293Z" fill="#FFAA2E"/>
<path d="M65.5231 55.5158C65.6398 57.2407 67.0349 58.4872 67.0349 58.4872C67.0349 58.4872 68.157 56.9369 68.0403 55.212C67.9236 53.4871 66.5284 52.2406 66.5284 52.2406C66.5284 52.2406 65.4063 53.7908 65.5231 55.5158Z" fill="#FFAA2E"/>
<path d="M60.6918 54.8694C62.4023 55.3327 64.1348 54.5914 64.1348 54.5914C64.1348 54.5914 63.1323 53.1213 61.4859 52.6469C59.7754 52.1837 58.0429 52.9249 58.0429 52.9249C58.0429 52.9249 59.0453 54.3951 60.6918 54.8694Z" fill="#FFAA2E"/>
<path d="M62.1555 51.9444C62.6008 53.6126 64.1651 54.6359 64.1651 54.6359C64.1651 54.6359 64.9962 52.942 64.6258 51.3255C64.1804 49.6573 62.6162 48.634 62.6162 48.634C62.6162 48.634 61.7193 50.3393 62.1555 51.9444Z" fill="#FFAA2E"/>
<path d="M59.2433 50.0392C59.1879 50.1126 59.1325 50.186 59.0127 50.2705L58.9573 50.3438C65.1537 53.9248 69.5862 59.9157 70.6488 67.2556C72.6299 80.9401 62.0136 94.257 47.0068 96.8573C32 99.4577 18.1508 90.4438 16.1607 76.6971C15.1431 69.6682 17.3895 62.8389 21.8847 57.4053C21.7468 57.3654 21.5446 57.3367 21.4068 57.2968C16.9206 62.7926 14.6832 69.6841 15.7098 76.7752C17.727 90.7086 31.7964 99.8755 47.0608 97.2306C62.3253 94.5856 73.1168 81.1108 71.0997 67.1774C70.028 59.7753 65.5131 53.6713 59.2433 50.0392Z" fill="#FF9912"/>
<path d="M24.5824 57.1154C22.9084 57.7795 21.1835 57.1969 21.1835 57.1969C21.1835 57.1969 22.1295 55.5906 23.8124 54.9877C25.4864 54.3236 27.2113 54.9063 27.2113 54.9063C27.2113 54.9063 26.1923 56.4623 24.5824 57.1154Z" fill="#FFAA2E"/>
<path d="M23.0034 54.2661C22.6428 55.9419 21.1428 57.1689 21.1428 57.1689C21.1428 57.1689 20.2406 55.5818 20.6011 53.9059C20.9616 52.2301 22.4617 51.0031 22.4617 51.0031C22.4617 51.0031 23.3639 52.5903 23.0034 54.2661Z" fill="#FFAA2E"/>
<path d="M56.7292 52.0297C58.5105 52.1005 59.9849 50.9685 59.9849 50.9685C59.9849 50.9685 58.6274 49.7578 56.855 49.7482C55.0737 49.6775 53.5993 50.8095 53.5993 50.8095C53.5993 50.8095 54.9479 51.9589 56.7292 52.0297Z" fill="#FFAA2E"/>
<path d="M57.3711 48.8549C58.1896 50.3274 59.9643 50.9895 59.9643 50.9895C59.9643 50.9895 60.372 49.1764 59.5536 47.7039C58.7352 46.2314 56.9604 45.5693 56.9604 45.5693C56.9604 45.5693 56.5527 47.3824 57.3711 48.8549Z" fill="#FFAA2E"/>
<path d="M34.2689 49.9016L31.7912 49.6067L29.8534 51.1551L29.4306 48.7767L27.3794 47.3793L29.5663 46.176L30.272 43.8668L32.0307 45.5064L34.5159 45.4133L33.4611 47.5875L34.2689 49.9016Z" fill="#FFEC03"/>
<path d="M49.7137 47.6913L51.9749 48.7316L51.937 46.2883L53.6356 44.4572L51.3027 43.8156L50.1287 41.6911L48.7245 43.7308L46.2313 44.2119L47.762 46.0835L47.4054 48.5283L49.7137 47.6913Z" fill="#FFEC03"/>
<path d="M42.9123 48.2064L40.5163 47.5759L38.3299 48.7789L38.292 46.3368L36.4695 44.7083L38.8315 43.7981L39.886 41.6244L41.4161 43.495L43.829 43.8006L42.4255 45.8393L42.9123 48.2064Z" fill="#FFEC03"/>
<path d="M48.5718 66.7232C48.7462 67.8244 48.561 68.8137 48.0161 69.691C47.4711 70.5682 46.6188 71.2471 45.4589 71.7274L45.4704 71.7997C46.9211 71.7512 48.0669 72.0147 48.9078 72.5901C49.7475 73.1574 50.2596 74.0239 50.4442 75.1894C50.7128 76.8853 50.3073 78.3049 49.2278 79.4482C48.1469 80.5834 46.4651 81.3318 44.1824 81.6933C42.2694 81.9963 40.5231 81.9474 38.9436 81.5467L38.4414 78.3758C39.1793 78.6132 39.9754 78.7755 40.8296 78.8626C41.6839 78.9498 42.5129 78.9297 43.3167 78.8024C44.5465 78.6077 45.4216 78.2548 45.9422 77.7439C46.4628 77.233 46.6498 76.5154 46.5034 75.591C46.3723 74.7631 45.9418 74.2299 45.2119 73.9912C44.4819 73.7525 43.3775 73.7503 41.8985 73.9845L40.5602 74.1965L40.1077 71.339L41.4701 71.1232C42.8365 70.9068 43.8052 70.5721 44.3761 70.1191C44.9538 69.6569 45.1739 68.9917 45.0364 68.1236C44.8251 66.7893 43.8835 66.2546 42.2116 66.5194C41.6329 66.611 41.0574 66.8011 40.4851 67.0895C39.9209 67.3766 39.3106 67.8152 38.6543 68.4053L36.5234 66.1102C37.9477 64.6982 39.773 63.8158 41.9995 63.4632C43.8241 63.1742 45.3214 63.3161 46.4915 63.8888C47.6696 64.4602 48.3631 65.405 48.5718 66.7232Z" fill="#ED1CBF"/>
<defs>
<filter id="filter0_d" x="0" y="0.5" width="200" height="133.672" filterUnits="userSpaceOnUse" color-interpolation-filters="sRGB">
<feFlood flood-opacity="0" result="BackgroundImageFix"/>
<feColorMatrix in="SourceAlpha" type="matrix" values="0 0 0 0 0 0 0 0 0 0 0 0 0 0 0 0 0 0 127 0"/>
<feOffset dy="4"/>
<feGaussianBlur stdDeviation="2"/>
<feColorMatrix type="matrix" values="0 0 0 0 0 0 0 0 0 0 0 0 0 0 0 0 0 0 0.25 0"/>
<feBlend mode="normal" in2="BackgroundImageFix" result="effect1_dropShadow"/>
<feBlend mode="normal" in="SourceGraphic" in2="effect1_dropShadow" result="shape"/>
</filter>
<linearGradient id="paint0_linear" x1="98.5649" y1="0.5" x2="98.5649" y2="105.274" gradientUnits="userSpaceOnUse">
<stop stop-color="#FF9905"/>
<stop offset="1" stop-color="#C822AD"/>
</linearGradient>
</defs>
</svg>
