<svg width="146" height="191" viewBox="0 0 146 191" fill="none" xmlns="http://www.w3.org/2000/svg">
<path fill-rule="evenodd" clip-rule="evenodd" d="M118.526 65.9368H134.299C137.314 65.9368 139.981 67.2125 141.953 69.1841C143.925 71.1556 145.2 73.939 145.2 76.8384V90.5234C145.2 93.5387 143.925 96.2061 141.953 98.1777C139.981 100.149 137.198 101.425 134.299 101.425H118.41C115.395 101.425 112.727 100.149 110.756 98.1777C108.784 96.2061 107.509 93.4227 107.509 90.5234V76.8384C107.509 73.823 108.784 71.1556 110.756 69.1841C112.727 67.0965 115.511 65.9368 118.526 65.9368ZM134.299 70.4598H118.41C116.671 70.4598 115.047 71.1556 113.887 72.3154C112.727 73.4751 112.032 75.0988 112.032 76.8384V90.5234C112.032 92.263 112.727 93.8866 113.887 95.0464C115.047 96.2061 116.671 96.902 118.41 96.902H134.299C136.038 96.902 137.662 96.2061 138.822 95.0464C139.981 93.8866 140.677 92.263 140.677 90.5234V76.8384C140.677 75.0988 139.981 73.4751 138.822 72.3154C137.662 71.1556 136.038 70.4598 134.299 70.4598Z" fill="url(#paint0_linear)"/>
<path fill-rule="evenodd" clip-rule="evenodd" d="M10.9016 65.9368H26.7901C29.8054 65.9368 32.4728 67.2125 34.4444 69.1841C36.416 71.1556 37.6917 73.939 37.6917 76.8384V90.5234C37.6917 93.5387 36.416 96.2061 34.4444 98.1777C32.4728 100.149 29.6895 101.425 26.7901 101.425H10.9016C7.88626 101.425 5.21885 100.149 3.24728 98.1777C1.27572 96.2061 0 93.4227 0 90.5234V76.8384C0 73.823 1.27572 71.1556 3.24728 69.1841C5.10287 67.0965 7.88626 65.9368 10.9016 65.9368ZM26.6741 70.4598H10.9016C9.16198 70.4598 7.53834 71.1556 6.37859 72.3154C5.21885 73.4751 4.523 75.0988 4.523 76.8384V90.5234C4.523 92.263 5.21885 93.8866 6.37859 95.0464C7.53834 96.2061 9.16198 96.902 10.9016 96.902H26.7901C28.5297 96.902 30.1534 96.2061 31.3131 95.0464C32.4728 93.8866 33.1687 92.263 33.1687 90.5234V76.8384C33.1687 75.0988 32.4728 73.4751 31.3131 72.3154C30.0374 71.1556 28.4137 70.4598 26.6741 70.4598Z" fill="url(#paint1_linear)"/>
<path fill-rule="evenodd" clip-rule="evenodd" d="M24.8182 53.9915H120.149C126.528 53.9915 132.674 59.3263 131.747 65.5889L114.466 179.012C113.539 185.275 109.248 190.609 102.869 190.609H42.0984C35.7198 190.609 31.4287 185.275 30.5009 179.012L13.2207 65.5889C12.2929 59.3263 18.4396 53.9915 24.8182 53.9915Z" fill="url(#paint2_linear)"/>
<path fill-rule="evenodd" clip-rule="evenodd" d="M72.4839 53.9915H120.149C126.528 53.9915 132.675 59.3263 131.747 65.5889L114.467 179.012C113.539 185.275 109.248 190.609 102.869 190.609H72.4839V53.9915Z" fill="url(#paint3_linear)"/>
<path fill-rule="evenodd" clip-rule="evenodd" d="M8.92974 47.9607H136.154C138.705 47.9607 140.677 50.0482 140.677 52.4837V57.5866C140.677 60.138 138.589 62.1096 136.154 62.1096H8.92974C6.37831 62.1096 4.40674 60.022 4.40674 57.5866V52.4837C4.40674 50.0482 6.37831 47.9607 8.92974 47.9607Z" fill="#FF8C00"/>
<path fill-rule="evenodd" clip-rule="evenodd" d="M72.4834 47.9607H137.661C139.285 47.9607 140.676 50.0482 140.676 52.4837V57.5866C140.676 60.138 139.285 62.1096 137.661 62.1096H72.4834V47.9607Z" fill="#E77F00"/>
<path fill-rule="evenodd" clip-rule="evenodd" d="M88.2564 5.16619L72.8318 1.45501C69.9324 0.759163 66.9171 1.33903 64.5976 2.73073C62.1621 4.2384 60.4225 6.55789 59.7266 9.45725L58.5669 14.3282L62.9739 15.3719L64.1337 10.501C64.5976 8.7614 65.6413 7.36971 67.033 6.55789C68.4247 5.74607 70.1643 5.39814 71.788 5.74607L87.2126 9.45725C88.9522 9.92115 90.3439 10.9649 91.1557 12.3566C91.9675 13.7483 92.3155 15.4879 91.9675 17.1116L90.8078 21.9825L95.2148 23.0263L96.3746 18.1553C97.0704 15.256 96.4905 12.2406 95.0988 9.92114C93.4752 7.71763 91.1557 5.86204 88.2564 5.16619Z" fill="#F68503"/>
<path fill-rule="evenodd" clip-rule="evenodd" d="M88.2557 5.16614L80.6014 3.31055L79.5576 7.71758L87.2119 9.57317C88.9515 10.0371 90.3432 11.0808 91.1551 12.4725C91.9669 13.8642 92.3148 15.6038 91.9669 17.2275L90.8071 22.0984L95.2142 23.1422L96.3739 18.2713C97.0698 15.3719 96.4899 12.3566 95.0982 10.0371C93.4745 7.71758 91.1551 5.86199 88.2557 5.16614Z" fill="#ED7500"/>
<path fill-rule="evenodd" clip-rule="evenodd" d="M15.7725 0.411218L139.401 30.1007C141.837 30.6805 143.344 33.116 142.765 35.6674L141.605 40.5384C141.025 42.9738 138.589 44.4815 136.038 43.9016L12.5252 14.2122C10.0897 13.6323 8.58208 11.1968 9.16195 8.6454L10.3217 3.77448C10.9016 1.33901 13.337 -0.168654 15.7725 0.411218Z" fill="#E77F00"/>
<path fill-rule="evenodd" clip-rule="evenodd" d="M77.7021 15.2559L141.024 30.4485C142.648 30.7964 143.46 33.1159 142.88 35.5514L141.72 40.4223C141.14 42.8578 139.285 44.5974 137.777 44.1335L74.3389 29.0568L77.7021 15.2559Z" fill="#FF8C00"/>
<path fill-rule="evenodd" clip-rule="evenodd" d="M74.5605 83.678C75.454 83.678 76.1985 83.678 77.092 83.678V74.4456L96.3014 90.0812L77.092 105.717V94.5485C76.1985 94.5485 75.454 94.3996 74.5605 94.3996C65.9237 94.3996 58.0314 97.9734 52.3728 103.632C48.0544 107.95 44.9273 113.46 43.736 119.714L33.759 114.651C35.6948 107.504 39.5665 101.101 44.6295 95.8887C52.3728 88.4432 62.9455 83.678 74.5605 83.678ZM114.617 162.898L106.13 154.411C112.831 146.965 117 136.988 117 126.118C117 114.354 112.235 103.781 104.64 96.1865C103.3 94.8463 101.96 93.655 100.471 92.4637L91.6852 99.6114C93.621 100.803 95.2591 102.292 96.8971 103.781C102.556 109.44 106.13 117.332 106.13 125.969C106.13 133.861 103.3 141.009 98.3862 146.518L92.4298 140.562L89.8983 165.281L114.617 162.898ZM26.3135 144.582L33.0145 120.757L55.0532 132.074L44.9273 136.541C46.5653 141.157 49.0968 145.178 52.3728 148.454C58.0314 154.113 65.9237 157.687 74.5605 157.687C78.5811 157.687 82.4528 156.942 86.0266 155.602L84.8353 167.366C81.5593 168.11 78.1343 168.557 74.5605 168.557C62.7966 168.557 52.2239 163.792 44.6295 156.197C40.3111 151.879 37.035 146.667 34.8014 140.86L26.3135 144.582Z" fill="url(#paint4_linear)"/>
<path fill-rule="evenodd" clip-rule="evenodd" d="M74.5598 83.678C75.4532 83.678 76.1978 83.678 77.0912 83.678V74.4456L96.3007 90.0812L77.0912 105.717V94.5485C76.1978 94.5485 75.4532 94.3996 74.5598 94.3996C73.5174 94.3996 72.6239 94.3996 71.5815 94.5485V83.678C72.6239 83.8269 73.6663 83.678 74.5598 83.678ZM114.617 162.898L106.129 154.411C112.83 146.965 116.999 136.988 116.999 126.118C116.999 114.354 112.234 103.781 104.64 96.1865C103.3 94.8463 101.959 93.655 100.47 92.4637L91.6845 99.6114C93.6203 100.803 95.2583 102.292 96.8963 103.781C102.555 109.44 106.129 117.332 106.129 125.969C106.129 133.861 103.299 141.009 98.3854 146.518L92.429 140.562L89.8975 165.281L114.617 162.898ZM71.5815 157.389C72.6239 157.538 73.5174 157.538 74.5598 157.538C78.5803 157.538 82.452 156.793 86.0259 155.453L84.8346 167.217C81.5586 167.961 78.1336 168.408 74.5598 168.408C73.5174 168.408 72.6239 168.408 71.5815 168.259V157.389Z" fill="url(#paint5_linear)"/>
<path d="M65.1934 121.781C67.5397 121.781 69.4046 122.44 70.7881 123.757C72.1826 125.074 72.8799 126.878 72.8799 129.169C72.8799 131.881 72.0443 133.967 70.373 135.428C68.7018 136.889 66.3112 137.619 63.2012 137.619C60.5007 137.619 58.3203 137.182 56.6602 136.308V131.875C57.5345 132.34 58.5527 132.722 59.7148 133.021C60.877 133.308 61.9782 133.452 63.0186 133.452C66.1507 133.452 67.7168 132.168 67.7168 129.601C67.7168 127.155 66.0954 125.932 62.8525 125.932C62.266 125.932 61.6185 125.993 60.9102 126.114C60.2018 126.225 59.6263 126.347 59.1836 126.479L57.1416 125.384L58.0547 113.016H71.2197V117.365H62.5537L62.1055 122.13L62.6865 122.014C63.3617 121.859 64.1973 121.781 65.1934 121.781ZM92.6191 125.151C92.6191 129.39 91.9219 132.528 90.5273 134.564C89.1439 136.601 87.0078 137.619 84.1191 137.619C81.319 137.619 79.2051 136.568 77.7773 134.465C76.3607 132.362 75.6523 129.257 75.6523 125.151C75.6523 120.868 76.3441 117.714 77.7275 115.688C79.111 113.652 81.2415 112.634 84.1191 112.634C86.9193 112.634 89.0332 113.696 90.4609 115.821C91.8997 117.946 92.6191 121.056 92.6191 125.151ZM80.749 125.151C80.749 128.129 81.0036 130.265 81.5127 131.56C82.0329 132.843 82.9017 133.485 84.1191 133.485C85.3145 133.485 86.1777 132.832 86.709 131.526C87.2402 130.22 87.5059 128.095 87.5059 125.151C87.5059 122.174 87.2347 120.038 86.6924 118.743C86.1611 117.437 85.3034 116.784 84.1191 116.784C82.9128 116.784 82.0495 117.437 81.5293 118.743C81.0091 120.038 80.749 122.174 80.749 125.151Z" fill="#FFBF00"/>
<defs>
<linearGradient id="paint0_linear" x1="126.531" y1="61.6721" x2="126.531" y2="98.5879" gradientUnits="userSpaceOnUse">
<stop stop-color="#00A4ED"/>
<stop offset="1" stop-color="#0009E3"/>
</linearGradient>
<linearGradient id="paint1_linear" x1="19.0225" y1="61.6721" x2="19.0225" y2="98.5879" gradientUnits="userSpaceOnUse">
<stop stop-color="#00A4ED"/>
<stop offset="1" stop-color="#0009E3"/>
</linearGradient>
<linearGradient id="paint2_linear" x1="73.0401" y1="37.5741" x2="73.0401" y2="179.688" gradientUnits="userSpaceOnUse">
<stop stop-color="#00A4ED"/>
<stop offset="1" stop-color="#0009E3"/>
</linearGradient>
<linearGradient id="paint3_linear" x1="102.44" y1="37.5741" x2="102.44" y2="179.688" gradientUnits="userSpaceOnUse">
<stop stop-color="#00A4ED"/>
<stop offset="1" stop-color="#0009E3"/>
</linearGradient>
<linearGradient id="paint4_linear" x1="71.6567" y1="74.4456" x2="71.6567" y2="168.557" gradientUnits="userSpaceOnUse">
<stop stop-color="#FFC700"/>
<stop offset="1" stop-color="#FF4070"/>
</linearGradient>
<linearGradient id="paint5_linear" x1="94.2904" y1="74.4456" x2="94.2904" y2="168.408" gradientUnits="userSpaceOnUse">
<stop stop-color="#FFC700"/>
<stop offset="1" stop-color="#FF4070"/>
</linearGradient>
</defs>
</svg>
