<svg width="99" height="190" viewBox="0 0 99 190" fill="none" xmlns="http://www.w3.org/2000/svg">
<path d="M52.1839 68.8921H46.8152V101.577H52.1839V68.8921Z" fill="#FFB10F"/>
<path d="M58.1117 105.314H40.9316C40.9316 103.252 42.6067 101.534 44.7112 101.534H54.3321C56.4366 101.577 58.1117 103.252 58.1117 105.314Z" fill="#FFDC01"/>
<path d="M87.532 174.807H11.5103L15.8053 109.05H83.6664L87.532 174.807Z" fill="url(#paint0_linear)"/>
<path d="M83.6662 109.05H15.8051L15.5474 112.959C31.6966 119.187 57.7244 132.243 67.6029 154.277C71.5114 162.996 74.3461 169.653 76.4506 174.807H87.5317L83.6662 109.05Z" fill="url(#paint1_linear)"/>
<path d="M84.5263 105.314H14.5176V109.05H84.5263V105.314Z" fill="#FFB10F"/>
<path d="M94.4907 185.201H4.51025V178.243C4.51025 176.353 6.05646 174.807 7.94626 174.807H91.0547C92.9445 174.807 94.4907 176.353 94.4907 178.243V185.201Z" fill="#FFB10F"/>
<path d="M91.0542 174.807H76.3652C78.255 174.807 79.8012 176.353 79.8012 178.243V185.201H94.4902V178.243C94.4902 176.353 92.9869 174.807 91.0542 174.807Z" fill="#FFA30F"/>
<path d="M99 185.115H0V189.195H99V185.115Z" fill="#D67205"/>
<path d="M99 187.907H0V189.152H99V187.907Z" fill="#BD6504"/>
<path d="M46.8152 76.4084L49.9076 75.1199L52.1839 76.0648V68.8921H46.8152V76.4084Z" fill="#E09C0D"/>
<path d="M76.3656 81.133L49.8653 70.4814L23.5369 81.5625L25.4267 53.0866L6.78638 31.4397L34.4892 24.4818L49.264 0.0432129L64.4684 24.2241L92.2571 30.7525L73.9604 52.6571L76.3656 81.133Z" fill="#FFDC01"/>
<path d="M27.7031 79.8013C42.7356 63.2226 52.6571 36.5076 53.1725 6.22777L49.264 0L34.4892 24.4386L6.78638 31.4395L25.4697 53.0434L23.5369 81.5193L27.7031 79.8013Z" fill="#FFDC01"/>
<path d="M69.4854 136H31.5146C31.5146 137.81 30.4082 139.233 29 139.233V162.767C30.4082 162.767 31.5146 164.19 31.5146 166H69.4854C69.4854 164.19 70.5918 162.767 72 162.767V139.168C70.6421 139.233 69.4854 137.746 69.4854 136Z" fill="#FFCC00"/>
<path d="M73.445 177.599H63.5665C63.0081 177.599 63.0081 176.74 63.5665 176.74H73.445C73.7027 176.74 73.8745 176.912 73.8745 177.169C73.8745 177.427 73.6597 177.599 73.445 177.599Z" fill="#F9C569"/>
<path d="M59.0129 177.599H50.337C49.7786 177.599 49.7786 176.74 50.337 176.74H59.0129C59.2706 176.74 59.4424 176.912 59.4424 177.169C59.4424 177.427 59.2706 177.599 59.0129 177.599Z" fill="#F9C569"/>
<path d="M46.0856 177.599H8.59015C8.0318 177.599 8.0318 176.74 8.59015 176.74H46.0856C46.3433 176.74 46.5151 176.912 46.5151 177.169C46.5151 177.427 46.3003 177.599 46.0856 177.599Z" fill="#F9C569"/>
<path d="M40.3391 55.2845C39.013 58.4827 37.7648 61.525 38.0379 63.5532C38.2719 65.5813 39.286 68.1165 42.7183 68.7406C45.7605 69.2866 48.7248 66.9854 50.8309 62.305C51.143 61.642 51.338 61.0569 51.611 60.3939C51.806 59.8478 52.04 59.2628 52.3521 58.5217L40.6901 54.5044L40.3391 55.2845ZM40.3001 61.291C40.2221 61.564 39.988 61.759 39.715 61.759C39.676 61.759 39.637 61.759 39.559 61.759C39.403 61.72 39.286 61.642 39.208 61.486C39.13 61.369 39.091 61.174 39.13 61.0569C39.208 60.7449 39.52 60.5499 39.832 60.6279C40.183 60.6669 40.3781 60.9789 40.3001 61.291ZM49.8559 59.2628C49.9339 58.9508 50.2459 58.7557 50.5579 58.8338C50.7139 58.8728 50.8309 58.9508 50.9089 59.1068C50.987 59.2238 51.026 59.4188 50.9869 59.5358C50.9089 59.8088 50.6749 60.0039 50.4019 60.0039C50.3629 60.0039 50.3239 60.0039 50.2459 60.0039C50.0899 59.9648 49.9729 59.8868 49.8949 59.7308C49.8559 59.5748 49.8169 59.4188 49.8559 59.2628ZM47.4377 64.1772C47.5157 63.8652 47.8277 63.6702 48.1397 63.7482C48.2957 63.7872 48.4127 63.8652 48.4907 64.0212C48.5688 64.1382 48.6078 64.3332 48.5687 64.4892C48.4907 64.7622 48.2567 64.9573 47.9837 64.9573C47.9447 64.9573 47.9057 64.9573 47.8277 64.9573C47.6717 64.9183 47.5547 64.8403 47.4767 64.6842C47.4377 64.4892 47.3987 64.2942 47.4377 64.1772ZM42.5232 66.7904C42.6013 66.9074 42.6403 67.1024 42.6012 67.2585C42.5232 67.5315 42.2892 67.7265 42.0162 67.7265C41.9772 67.7265 41.9382 67.7265 41.8602 67.7265C41.7042 67.6875 41.5872 67.6095 41.5092 67.4535C41.4312 67.3365 41.3921 67.1415 41.4312 66.9854C41.5092 66.6734 41.8212 66.4784 42.1332 66.5564C42.2892 66.5564 42.4452 66.6734 42.5232 66.7904ZM40.9241 56.1815C41.0021 55.8695 41.3141 55.6745 41.6262 55.7525C41.9382 55.8305 42.1332 56.1425 42.0552 56.4546C41.9772 56.7276 41.7432 56.9226 41.4702 56.9226C41.4312 56.9226 41.3921 56.9226 41.3141 56.9226C41.1581 56.8836 41.0411 56.8056 40.9631 56.6496C40.8851 56.4936 40.8851 56.3375 40.9241 56.1815Z" fill="#7A2901"/>
<path d="M54.4974 21.468C53.7174 21.156 52.9373 21 52.1572 21C47.7889 21 43.9275 26.0704 42.2894 33.9101C41.6264 37.0303 42.0944 39.8386 42.4844 42.2958C42.8355 44.519 43.1865 46.5861 42.7184 48.5753L54.7314 52.2806C55.2775 50.9545 55.8235 49.5894 56.4086 48.2243C57.8517 44.753 59.2168 41.4767 59.9189 39.2535C62.4931 30.7508 60.3869 23.7692 54.4974 21.468ZM43.1085 33.9881C43.1865 33.6761 43.4985 33.481 43.8105 33.559C43.9665 33.5981 44.0836 33.6761 44.1616 33.8321C44.2396 33.9491 44.2786 34.1441 44.2396 34.2611C44.1616 34.5341 43.9275 34.7291 43.6545 34.7291C43.6155 34.7291 43.5765 34.7291 43.4985 34.7291C43.2255 34.6121 43.0305 34.3001 43.1085 33.9881ZM43.5765 41.7887C43.4205 41.7497 43.3035 41.6717 43.2255 41.5157C43.1475 41.3987 43.1085 41.2037 43.1475 41.0867C43.2255 40.7746 43.5375 40.5796 43.8495 40.6576C44.0056 40.6966 44.1226 40.7747 44.2006 40.9307C44.2786 41.0477 44.3176 41.2427 44.2786 41.3987C44.2006 41.6717 43.9665 41.8667 43.6935 41.8667C43.6935 41.8277 43.6545 41.7887 43.5765 41.7887ZM44.9026 47.7952C44.8246 48.0683 44.5906 48.2633 44.3176 48.2633C44.2786 48.2633 44.2396 48.2633 44.1616 48.2633C44.0055 48.2243 43.8885 48.1463 43.8105 47.9903C43.7325 47.8732 43.6935 47.6782 43.7325 47.5612C43.8105 47.2492 44.1226 47.0542 44.4346 47.1322C44.7856 47.1322 44.9806 47.4442 44.9026 47.7952ZM46.6188 27.6696C46.5408 27.9426 46.3067 28.1376 46.0337 28.1376C45.9947 28.1376 45.9557 28.1376 45.8777 28.1376C45.5657 28.0596 45.3707 27.7476 45.4487 27.4355C45.5267 27.1235 45.8387 26.9285 46.1507 27.0065C46.5018 27.0065 46.6968 27.3185 46.6188 27.6696ZM51.4552 22.8722C51.3772 23.1452 51.1431 23.3402 50.8701 23.3402C50.8311 23.3402 50.7921 23.3402 50.7141 23.3402C50.5581 23.3012 50.4411 23.2232 50.3631 23.0672C50.2851 22.9502 50.2461 22.7551 50.2851 22.6381C50.3631 22.3261 50.6751 22.1311 50.9871 22.2091C51.3382 22.2091 51.5332 22.5211 51.4552 22.8722ZM54.4584 50.7205C54.3804 50.9935 54.1464 51.1885 53.8734 51.1885C53.8344 51.1885 53.7954 51.1885 53.7174 51.1885C53.4053 51.1105 53.2103 50.7985 53.2883 50.4865C53.3663 50.1744 53.6784 49.9794 53.9904 50.0574C54.3414 50.0964 54.5364 50.4085 54.4584 50.7205ZM57.0326 44.519C56.9546 44.792 56.7206 44.987 56.4476 44.987C56.4086 44.987 56.3696 44.987 56.2916 44.987C56.1356 44.948 56.0186 44.87 55.9405 44.714C55.8625 44.597 55.8235 44.402 55.8625 44.2849C55.9405 43.9729 56.2526 43.7779 56.5646 43.8559C56.7206 43.8949 56.8376 43.9729 56.9156 44.1289C57.0716 44.2069 57.0716 44.402 57.0326 44.519ZM57.9297 25.3294C57.8517 25.6024 57.6177 25.7974 57.3447 25.7974C57.3057 25.7974 57.2667 25.7974 57.1887 25.7974C57.0326 25.7584 56.9156 25.6804 56.8376 25.5244C56.7596 25.4074 56.7206 25.2124 56.7596 25.0563C56.8376 24.7443 57.1496 24.5493 57.4617 24.6273C57.6177 24.6663 57.7347 24.7443 57.8127 24.9003C57.9297 25.0173 57.9687 25.1733 57.9297 25.3294ZM59.2948 38.2784C59.2168 38.5515 58.9828 38.7465 58.7098 38.7465C58.6708 38.7465 58.6318 38.7465 58.5538 38.7465C58.3978 38.7075 58.2807 38.6295 58.2027 38.4735C58.1247 38.3564 58.0857 38.1614 58.1247 38.0054C58.2027 37.6934 58.5148 37.4984 58.8268 37.5764C58.9828 37.6154 59.0998 37.6934 59.1778 37.8494C59.3338 37.9664 59.3338 38.1224 59.2948 38.2784ZM59.6459 32.1939C59.6069 32.1939 59.5679 32.1939 59.4898 32.1939C59.1778 32.1159 58.9828 31.8039 59.0608 31.4919C59.1388 31.1798 59.4508 30.9848 59.7629 31.0628C60.0749 31.1408 60.2699 31.4529 60.1919 31.7649C60.1529 31.9989 59.9189 32.1939 59.6459 32.1939Z" fill="#7A2901"/>
<path d="M45.5274 53.919L48.8427 55.0111C48.9597 55.0501 49.0377 55.0501 49.1547 55.0501C49.5837 55.0501 49.9348 54.777 50.0908 54.387C50.2468 53.88 49.9738 53.3339 49.4667 53.1389L46.1514 52.0468C46.0344 52.0078 45.9564 52.0078 45.8394 52.0078C45.4104 52.0078 45.0593 52.2808 44.9033 52.6709C44.8253 52.9049 44.8253 53.1779 44.9423 53.4119C45.0983 53.646 45.2934 53.802 45.5274 53.919Z" fill="#7A2901"/>
<path d="M43.5791 158H34.0977V156.005L37.5024 152.563C38.5106 151.531 39.1693 150.816 39.4785 150.42C39.7878 150.018 40.0104 149.647 40.1465 149.307C40.2826 148.967 40.3506 148.614 40.3506 148.25C40.3506 147.705 40.1991 147.3 39.896 147.034C39.5991 146.768 39.2002 146.635 38.6992 146.635C38.1735 146.635 37.6632 146.756 37.1685 146.997C36.6737 147.238 36.1572 147.582 35.6191 148.027L34.0605 146.181C34.7285 145.612 35.2821 145.21 35.7212 144.975C36.1603 144.74 36.6396 144.56 37.1592 144.437C37.6787 144.307 38.2601 144.242 38.9033 144.242C39.7507 144.242 40.499 144.396 41.1484 144.706C41.7979 145.015 42.3019 145.448 42.6606 146.004C43.0194 146.561 43.1987 147.198 43.1987 147.916C43.1987 148.54 43.0874 149.128 42.8647 149.678C42.6483 150.222 42.3081 150.782 41.8442 151.357C41.3866 151.933 40.5763 152.752 39.4136 153.816L37.6694 155.458V155.588H43.5791V158ZM49.8877 149.335C51.1989 149.335 52.241 149.703 53.0142 150.439C53.7935 151.175 54.1831 152.183 54.1831 153.463C54.1831 154.979 53.7161 156.145 52.7822 156.961C51.8483 157.777 50.5124 158.186 48.7744 158.186C47.2653 158.186 46.0469 157.941 45.1191 157.453V154.976C45.6077 155.235 46.1768 155.449 46.8262 155.616C47.4756 155.777 48.091 155.857 48.6724 155.857C50.4227 155.857 51.2979 155.139 51.2979 153.705C51.2979 152.338 50.3918 151.654 48.5796 151.654C48.2518 151.654 47.89 151.688 47.4941 151.756C47.0983 151.818 46.7767 151.886 46.5293 151.96L45.3882 151.348L45.8984 144.437H53.2554V146.867H48.4126L48.1621 149.53L48.4868 149.465C48.8641 149.378 49.3311 149.335 49.8877 149.335ZM67.6631 158H64.3975L60.8442 152.285L59.6289 153.157V158H56.7529V144.437H59.6289V150.643L60.7607 149.047L64.4346 144.437H67.626L62.8945 150.439L67.6631 158Z" fill="#CB5F00"/>
<defs>
<linearGradient id="paint0_linear" x1="44.5564" y1="99.7504" x2="45.2389" y2="184.105" gradientUnits="userSpaceOnUse">
<stop stop-color="#D91B24"/>
<stop offset="1" stop-color="#393C5A"/>
</linearGradient>
<linearGradient id="paint1_linear" x1="46.8385" y1="99.7504" x2="47.5593" y2="184.104" gradientUnits="userSpaceOnUse">
<stop stop-color="#D91B24"/>
<stop offset="1" stop-color="#393C5A"/>
</linearGradient>
</defs>
</svg>
