<svg width="146" height="191" viewBox="0 0 146 191" fill="none" xmlns="http://www.w3.org/2000/svg">
<path fill-rule="evenodd" clip-rule="evenodd" d="M118.926 65.9368H134.699C137.714 65.9368 140.382 67.2125 142.353 69.1841C144.325 71.1556 145.6 73.939 145.6 76.8384V90.5234C145.6 93.5387 144.325 96.2061 142.353 98.1777C140.382 100.149 137.598 101.425 134.699 101.425H118.81C115.795 101.425 113.128 100.149 111.156 98.1777C109.185 96.2061 107.909 93.4227 107.909 90.5234V76.8384C107.909 73.823 109.185 71.1556 111.156 69.1841C113.128 67.0965 115.911 65.9368 118.926 65.9368ZM134.699 70.4598H118.81C117.071 70.4598 115.447 71.1556 114.287 72.3154C113.128 73.4751 112.432 75.0988 112.432 76.8384V90.5234C112.432 92.263 113.128 93.8866 114.287 95.0464C115.447 96.2061 117.071 96.902 118.81 96.902H134.699C136.439 96.902 138.062 96.2061 139.222 95.0464C140.382 93.8866 141.077 92.263 141.077 90.5234V76.8384C141.077 75.0988 140.382 73.4751 139.222 72.3154C138.062 71.1556 136.439 70.4598 134.699 70.4598Z" fill="url(#paint0_linear)"/>
<path fill-rule="evenodd" clip-rule="evenodd" d="M11.3019 65.9368H27.1904C30.2057 65.9368 32.8731 67.2125 34.8447 69.1841C36.8162 71.1556 38.092 73.939 38.092 76.8384V90.5234C38.092 93.5387 36.8162 96.2061 34.8447 98.1777C32.8731 100.149 30.0897 101.425 27.1904 101.425H11.3019C8.28653 101.425 5.61912 100.149 3.64755 98.1777C1.67599 96.2061 0.400269 93.4227 0.400269 90.5234V76.8384C0.400269 73.823 1.67599 71.1556 3.64755 69.1841C5.50314 67.0965 8.28653 65.9368 11.3019 65.9368ZM27.0744 70.4598H11.3019C9.56225 70.4598 7.93861 71.1556 6.77886 72.3154C5.61912 73.4751 4.92327 75.0988 4.92327 76.8384V90.5234C4.92327 92.263 5.61912 93.8866 6.77886 95.0464C7.93861 96.2061 9.56225 96.902 11.3019 96.902H27.1904C28.93 96.902 30.5536 96.2061 31.7134 95.0464C32.8731 93.8866 33.569 92.263 33.569 90.5234V76.8384C33.569 75.0988 32.8731 73.4751 31.7134 72.3154C30.4376 71.1556 28.814 70.4598 27.0744 70.4598Z" fill="url(#paint1_linear)"/>
<path fill-rule="evenodd" clip-rule="evenodd" d="M25.2184 53.9915H120.549C126.928 53.9915 133.075 59.3263 132.147 65.5889L114.867 179.012C113.939 185.275 109.648 190.609 103.269 190.609H42.4986C36.12 190.609 31.829 185.275 30.9012 179.012L13.621 65.5889C12.6932 59.3263 18.8398 53.9915 25.2184 53.9915Z" fill="url(#paint2_linear)"/>
<path fill-rule="evenodd" clip-rule="evenodd" d="M72.8844 53.9915H120.55C126.928 53.9915 133.075 59.3263 132.147 65.5889L114.867 179.012C113.939 185.275 109.648 190.609 103.27 190.609H72.8844V53.9915Z" fill="url(#paint3_linear)"/>
<path fill-rule="evenodd" clip-rule="evenodd" d="M9.33001 47.9607H136.554C139.105 47.9607 141.077 50.0482 141.077 52.4837V57.5866C141.077 60.138 138.989 62.1096 136.554 62.1096H9.33001C6.77857 62.1096 4.80701 60.022 4.80701 57.5866V52.4837C4.80701 50.0482 6.77857 47.9607 9.33001 47.9607Z" fill="#FF8C00"/>
<path fill-rule="evenodd" clip-rule="evenodd" d="M72.8839 47.9607H138.062C139.685 47.9607 141.077 50.0482 141.077 52.4837V57.5866C141.077 60.138 139.685 62.1096 138.062 62.1096H72.8839V47.9607Z" fill="#E77F00"/>
<path fill-rule="evenodd" clip-rule="evenodd" d="M88.6566 5.16619L73.232 1.45501C70.3327 0.759163 67.3173 1.33903 64.9978 2.73073C62.5624 4.2384 60.8228 6.55789 60.1269 9.45725L58.9672 14.3282L63.3742 15.3719L64.5339 10.501C64.9978 8.7614 66.0416 7.36971 67.4333 6.55789C68.825 5.74607 70.5646 5.39814 72.1883 5.74607L87.6129 9.45725C89.3525 9.92115 90.7442 10.9649 91.556 12.3566C92.3678 13.7483 92.7157 15.4879 92.3678 17.1116L91.2081 21.9825L95.6151 23.0263L96.7748 18.1553C97.4707 15.256 96.8908 12.2406 95.4991 9.92114C93.8755 7.71763 91.556 5.86204 88.6566 5.16619Z" fill="#F68503"/>
<path fill-rule="evenodd" clip-rule="evenodd" d="M88.6557 5.16614L81.0014 3.31055L79.9576 7.71758L87.612 9.57317C89.3516 10.0371 90.7433 11.0808 91.5551 12.4725C92.3669 13.8642 92.7148 15.6038 92.3669 17.2275L91.2072 22.0984L95.6142 23.1422L96.7739 18.2713C97.4698 15.3719 96.8899 12.3566 95.4982 10.0371C93.8746 7.71758 91.5551 5.86199 88.6557 5.16614Z" fill="#ED7500"/>
<path fill-rule="evenodd" clip-rule="evenodd" d="M16.1728 0.411218L139.802 30.1007C142.237 30.6805 143.745 33.116 143.165 35.6674L142.005 40.5384C141.425 42.9738 138.99 44.4815 136.438 43.9016L12.9255 14.2122C10.49 13.6323 8.98235 11.1968 9.56222 8.6454L10.722 3.77448C11.3018 1.33901 13.7373 -0.168654 16.1728 0.411218Z" fill="#E77F00"/>
<path fill-rule="evenodd" clip-rule="evenodd" d="M78.1024 15.2559L141.424 30.4485C143.048 30.7964 143.86 33.1159 143.28 35.5514L142.12 40.4223C141.54 42.8578 139.685 44.5974 138.177 44.1335L74.7391 29.0568L78.1024 15.2559Z" fill="#FF8C00"/>
<path fill-rule="evenodd" clip-rule="evenodd" d="M74.9608 83.678C75.8542 83.678 76.5988 83.678 77.4922 83.678V74.4456L96.7017 90.0812L77.4922 105.717V94.5485C76.5988 94.5485 75.8542 94.3996 74.9608 94.3996C66.324 94.3996 58.4317 97.9734 52.7731 103.632C48.4547 107.95 45.3276 113.46 44.1363 119.714L34.1593 114.651C36.0951 107.504 39.9668 101.101 45.0297 95.8887C52.7731 88.4432 63.3457 83.678 74.9608 83.678ZM115.018 162.898L106.53 154.411C113.231 146.965 117.4 136.988 117.4 126.118C117.4 114.354 112.635 103.781 105.041 96.1865C103.701 94.8463 102.36 93.655 100.871 92.4637L92.0855 99.6114C94.0213 100.803 95.6593 102.292 97.2973 103.781C102.956 109.44 106.53 117.332 106.53 125.969C106.53 133.861 103.701 141.009 98.7865 146.518L92.83 140.562L90.2986 165.281L115.018 162.898ZM26.7137 144.582L33.4147 120.757L55.4535 132.074L45.3276 136.541C46.9656 141.157 49.4971 145.178 52.7731 148.454C58.4317 154.113 66.324 157.687 74.9608 157.687C78.9813 157.687 82.853 156.942 86.4269 155.602L85.2356 167.366C81.9596 168.11 78.5346 168.557 74.9608 168.557C63.1968 168.557 52.6242 163.792 45.0297 156.197C40.7113 151.879 37.4353 146.667 35.2016 140.86L26.7137 144.582Z" fill="url(#paint4_linear)"/>
<path fill-rule="evenodd" clip-rule="evenodd" d="M74.96 83.678C75.8535 83.678 76.598 83.678 77.4915 83.678V74.4456L96.701 90.0812L77.4915 105.717V94.5485C76.598 94.5485 75.8535 94.3996 74.96 94.3996C73.9176 94.3996 73.0242 94.3996 71.9818 94.5485V83.678C73.0242 83.8269 74.0666 83.678 74.96 83.678ZM115.017 162.898L106.529 154.411C113.23 146.965 117.4 136.988 117.4 126.118C117.4 114.354 112.634 103.781 105.04 96.1865C103.7 94.8463 102.36 93.655 100.87 92.4637L92.0847 99.6114C94.0206 100.803 95.6586 102.292 97.2966 103.781C102.955 109.44 106.529 117.332 106.529 125.969C106.529 133.861 103.7 141.009 98.7857 146.518L92.8293 140.562L90.2978 165.281L115.017 162.898ZM71.9818 157.389C73.0242 157.538 73.9176 157.538 74.96 157.538C78.9806 157.538 82.8523 156.793 86.4261 155.453L85.2349 167.217C81.9588 167.961 78.5339 168.408 74.96 168.408C73.9176 168.408 73.0242 168.408 71.9818 168.259V157.389Z" fill="url(#paint5_linear)"/>
<path d="M62.7928 135.287H58.2665V122.895L58.3104 120.858L58.3837 118.632C57.6317 119.384 57.1093 119.877 56.8163 120.111L54.3553 122.089L52.1727 119.364L59.0721 113.871H62.7928V135.287ZM83.5936 124.579C83.5936 128.319 82.9784 131.088 81.7479 132.885C80.5272 134.682 78.6425 135.58 76.0936 135.58C73.6229 135.58 71.7577 134.652 70.4979 132.797C69.2479 130.941 68.6229 128.202 68.6229 124.579C68.6229 120.8 69.2333 118.017 70.454 116.229C71.6747 114.433 73.5546 113.534 76.0936 113.534C78.5643 113.534 80.4296 114.472 81.6893 116.347C82.9589 118.222 83.5936 120.966 83.5936 124.579ZM73.12 124.579C73.12 127.206 73.3446 129.091 73.7938 130.233C74.2528 131.366 75.0194 131.933 76.0936 131.933C77.1483 131.933 77.91 131.356 78.3788 130.204C78.8475 129.052 79.0819 127.177 79.0819 124.579C79.0819 121.952 78.8427 120.067 78.3641 118.925C77.8954 117.772 77.1385 117.196 76.0936 117.196C75.0292 117.196 74.2675 117.772 73.8085 118.925C73.3495 120.067 73.12 121.952 73.12 124.579ZM100.732 124.579C100.732 128.319 100.117 131.088 98.8866 132.885C97.6659 134.682 95.7811 135.58 93.2323 135.58C90.7616 135.58 88.8964 134.652 87.6366 132.797C86.3866 130.941 85.7616 128.202 85.7616 124.579C85.7616 120.8 86.3719 118.017 87.5927 116.229C88.8134 114.433 90.6932 113.534 93.2323 113.534C95.703 113.534 97.5682 114.472 98.828 116.347C100.098 118.222 100.732 120.966 100.732 124.579ZM90.2587 124.579C90.2587 127.206 90.4833 129.091 90.9325 130.233C91.3915 131.366 92.1581 131.933 93.2323 131.933C94.287 131.933 95.0487 131.356 95.5175 130.204C95.9862 129.052 96.2206 127.177 96.2206 124.579C96.2206 121.952 95.9813 120.067 95.5028 118.925C95.0341 117.772 94.2772 117.196 93.2323 117.196C92.1678 117.196 91.4061 117.772 90.9471 118.925C90.4882 120.067 90.2587 121.952 90.2587 124.579Z" fill="#FFBF00"/>
<defs>
<linearGradient id="paint0_linear" x1="126.931" y1="61.6721" x2="126.931" y2="98.5879" gradientUnits="userSpaceOnUse">
<stop stop-color="#00A4ED"/>
<stop offset="1" stop-color="#0009E3"/>
</linearGradient>
<linearGradient id="paint1_linear" x1="19.4228" y1="61.6721" x2="19.4228" y2="98.5879" gradientUnits="userSpaceOnUse">
<stop stop-color="#00A4ED"/>
<stop offset="1" stop-color="#0009E3"/>
</linearGradient>
<linearGradient id="paint2_linear" x1="73.4403" y1="37.5741" x2="73.4403" y2="179.688" gradientUnits="userSpaceOnUse">
<stop stop-color="#00A4ED"/>
<stop offset="1" stop-color="#0009E3"/>
</linearGradient>
<linearGradient id="paint3_linear" x1="102.841" y1="37.5741" x2="102.841" y2="179.688" gradientUnits="userSpaceOnUse">
<stop stop-color="#00A4ED"/>
<stop offset="1" stop-color="#0009E3"/>
</linearGradient>
<linearGradient id="paint4_linear" x1="72.057" y1="74.4456" x2="72.057" y2="168.557" gradientUnits="userSpaceOnUse">
<stop stop-color="#FFC700"/>
<stop offset="1" stop-color="#FF4070"/>
</linearGradient>
<linearGradient id="paint5_linear" x1="94.6907" y1="74.4456" x2="94.6907" y2="168.408" gradientUnits="userSpaceOnUse">
<stop stop-color="#FFC700"/>
<stop offset="1" stop-color="#FF4070"/>
</linearGradient>
</defs>
</svg>
