<svg width="168" height="219" viewBox="0 0 168 219" fill="none" xmlns="http://www.w3.org/2000/svg">
<path fill-rule="evenodd" clip-rule="evenodd" d="M136.523 75.5059H154.663C158.131 75.5059 161.199 76.9731 163.467 79.2407C165.734 81.5083 167.201 84.7095 167.201 88.0442V103.784C167.201 107.252 165.734 110.32 163.467 112.587C161.199 114.855 157.998 116.322 154.663 116.322H136.389C132.921 116.322 129.853 114.855 127.586 112.587C125.318 110.32 123.851 107.118 123.851 103.784V88.0442C123.851 84.5761 125.318 81.5083 127.586 79.2407C129.853 76.8397 133.054 75.5059 136.523 75.5059ZM154.663 80.7079H136.389C134.388 80.7079 132.521 81.5082 131.187 82.8421C129.853 84.176 129.053 86.0434 129.053 88.0442V103.784C129.053 105.785 129.853 107.652 131.187 108.986C132.521 110.32 134.388 111.12 136.389 111.12H154.663C156.664 111.12 158.531 110.32 159.865 108.986C161.199 107.652 161.999 105.785 161.999 103.784V88.0442C161.999 86.0434 161.199 84.176 159.865 82.8421C158.531 81.5082 156.664 80.7079 154.663 80.7079Z" fill="url(#paint0_linear)"/>
<path fill-rule="evenodd" clip-rule="evenodd" d="M12.7395 75.5059H31.0134C34.4815 75.5059 37.5494 76.9731 39.8169 79.2407C42.0845 81.5083 43.5517 84.7095 43.5517 88.0442V103.784C43.5517 107.252 42.0845 110.32 39.8169 112.587C37.5494 114.855 34.3481 116.322 31.0134 116.322H12.7395C9.27144 116.322 6.20356 114.855 3.93599 112.587C1.66842 110.32 0.201172 107.118 0.201172 103.784V88.0442C0.201172 84.5761 1.66842 81.5083 3.93599 79.2407C6.07017 76.8397 9.27144 75.5059 12.7395 75.5059ZM30.88 80.7079H12.7395C10.7387 80.7079 8.87129 81.5082 7.53742 82.8421C6.20356 84.176 5.40324 86.0434 5.40324 88.0442V103.784C5.40324 105.785 6.20356 107.652 7.53742 108.986C8.87129 110.32 10.7387 111.12 12.7395 111.12H31.0134C33.0142 111.12 34.8816 110.32 36.2155 108.986C37.5494 107.652 38.3497 105.785 38.3497 103.784V88.0442C38.3497 86.0434 37.5494 84.176 36.2155 82.8421C34.7482 81.5082 32.8808 80.7079 30.88 80.7079Z" fill="url(#paint1_linear)"/>
<path fill-rule="evenodd" clip-rule="evenodd" d="M28.746 61.7671H138.39C145.726 61.7671 152.795 67.9029 151.728 75.1057L131.854 205.558C130.787 212.76 125.851 218.896 118.515 218.896H48.6205C41.2843 218.896 36.349 212.76 35.2819 205.558L15.4073 75.1057C14.3402 67.9029 21.4097 61.7671 28.746 61.7671Z" fill="url(#paint2_linear)"/>
<path fill-rule="evenodd" clip-rule="evenodd" d="M83.5681 61.7671H138.39C145.726 61.7671 152.796 67.9029 151.729 75.1057L131.854 205.558C130.787 212.76 125.852 218.896 118.515 218.896H83.5681V61.7671Z" fill="url(#paint3_linear)"/>
<path fill-rule="evenodd" clip-rule="evenodd" d="M10.4721 54.8311H156.797C159.731 54.8311 161.999 57.232 161.999 60.0331V65.9021C161.999 68.8366 159.598 71.1042 156.797 71.1042H10.4721C7.53759 71.1042 5.27002 68.7032 5.27002 65.9021V60.0331C5.27002 57.232 7.53759 54.8311 10.4721 54.8311Z" fill="#FF8C00"/>
<path fill-rule="evenodd" clip-rule="evenodd" d="M83.5676 54.8311H158.531C160.398 54.8311 161.999 57.232 161.999 60.0331V65.9021C161.999 68.8366 160.398 71.1042 158.531 71.1042H83.5676V54.8311Z" fill="#E77F00"/>
<path fill-rule="evenodd" clip-rule="evenodd" d="M101.708 5.61164L83.9676 1.34327C80.6329 0.542954 77.1649 1.20988 74.4971 2.81052C71.696 4.54454 69.6952 7.21228 68.8949 10.5469L67.561 16.1492L72.6297 17.3496L73.9636 11.7474C74.4971 9.74661 75.6976 8.14598 77.2982 7.21228C78.8989 6.27857 80.8997 5.87841 82.7671 6.27857L100.507 10.5469C102.508 11.0805 104.109 12.281 105.043 13.8816C105.976 15.4822 106.376 17.483 105.976 19.3504L104.642 24.9527L109.711 26.1531L111.045 20.5509C111.845 17.2163 111.178 13.7482 109.578 11.0805C107.71 8.54614 105.043 6.41196 101.708 5.61164Z" fill="#F68503"/>
<path fill-rule="evenodd" clip-rule="evenodd" d="M101.707 5.61172L92.9034 3.47754L91.7029 8.54623L100.506 10.6804C102.507 11.214 104.108 12.4144 105.042 14.0151C105.975 15.6157 106.375 17.6165 105.975 19.4839L104.641 25.0861L109.71 26.2866L111.044 20.6844C111.844 17.3497 111.177 13.8817 109.577 11.214C107.709 8.54623 105.042 6.41204 101.707 5.61172Z" fill="#ED7500"/>
<path fill-rule="evenodd" clip-rule="evenodd" d="M18.342 0.142742L160.532 34.2897C163.333 34.9566 165.067 37.7577 164.4 40.6922L163.066 46.2944C162.399 49.0955 159.598 50.8296 156.664 50.1626L14.6071 16.0157C11.806 15.3488 10.072 12.5477 10.7389 9.61318L12.0728 4.01095C12.7397 1.20983 15.5408 -0.52419 18.342 0.142742Z" fill="#E77F00"/>
<path fill-rule="evenodd" clip-rule="evenodd" d="M89.5686 17.2163L162.398 34.6899C164.265 35.0901 165.199 37.7578 164.532 40.5589L163.198 46.1611C162.531 48.9623 160.397 50.9631 158.663 50.4295L85.7004 33.0893L89.5686 17.2163Z" fill="#FF8C00"/>
<path fill-rule="evenodd" clip-rule="evenodd" d="M86.9602 91.9203C88.0298 91.9203 88.9211 91.9203 89.9907 91.9203V80.8677L112.987 99.5859L89.9907 118.304V104.934C88.9211 104.934 88.0298 104.756 86.9602 104.756C76.6206 104.756 67.1724 109.034 60.3982 115.808C55.2284 120.978 51.4847 127.574 50.0586 135.061L38.1146 129C40.4321 120.443 45.0671 112.778 51.1282 106.538C60.3982 97.6249 73.0552 91.9203 86.9602 91.9203ZM134.914 186.759L124.753 176.598C132.775 167.684 137.767 155.74 137.767 142.727C137.767 128.644 132.062 115.987 122.97 106.895C121.366 105.29 119.762 103.864 117.979 102.438L107.461 110.995C109.779 112.421 111.739 114.204 113.7 115.987C120.475 122.761 124.753 132.209 124.753 142.549C124.753 151.997 121.366 160.554 115.483 167.15L108.352 160.019L105.322 189.611L134.914 186.759ZM29.2012 164.832L37.2233 136.309L63.607 149.858L51.4847 155.206C53.4457 160.732 56.4763 165.545 60.3982 169.467C67.1724 176.241 76.6206 180.52 86.9602 180.52C91.7734 180.52 96.4084 179.628 100.687 178.024L99.2607 192.107C95.3388 192.999 91.2386 193.533 86.9602 193.533C72.8769 193.533 60.2199 187.829 51.1282 178.737C45.9584 173.567 42.0365 167.328 39.3625 160.375L29.2012 164.832Z" fill="url(#paint4_linear)"/>
<path fill-rule="evenodd" clip-rule="evenodd" d="M86.9594 91.9203C88.029 91.9203 88.9204 91.9203 89.99 91.9203V80.8677L112.987 99.5859L89.99 118.304V104.934C88.9204 104.934 88.029 104.756 86.9594 104.756C85.7115 104.756 84.6419 104.756 83.394 104.934V91.9203C84.6419 92.0986 85.8898 91.9203 86.9594 91.9203ZM134.914 186.759L124.752 176.598C132.774 167.684 137.766 155.74 137.766 142.727C137.766 128.644 132.061 115.987 122.97 106.895C121.365 105.29 119.761 103.864 117.978 102.438L107.46 110.995C109.778 112.421 111.739 114.204 113.7 115.987C120.474 122.761 124.752 132.209 124.752 142.549C124.752 151.997 121.365 160.554 115.482 167.15L108.352 160.019L105.321 189.611L134.914 186.759ZM83.394 180.163C84.6419 180.341 85.7115 180.341 86.9594 180.341C91.7727 180.341 96.4077 179.45 100.686 177.846L99.2599 191.929C95.338 192.82 91.2379 193.355 86.9594 193.355C85.7115 193.355 84.6419 193.355 83.394 193.177V180.163Z" fill="url(#paint5_linear)"/>
<path d="M73.373 153H58.4023V149.851L63.7783 144.416C65.3701 142.785 66.4102 141.657 66.8984 141.032C67.3867 140.397 67.7383 139.812 67.9531 139.274C68.168 138.737 68.2754 138.181 68.2754 137.604C68.2754 136.745 68.0361 136.105 67.5576 135.686C67.0889 135.266 66.459 135.056 65.668 135.056C64.8379 135.056 64.0322 135.246 63.251 135.627C62.4697 136.008 61.6543 136.55 60.8047 137.253L58.3438 134.338C59.3984 133.439 60.2725 132.805 60.9658 132.434C61.6592 132.062 62.416 131.779 63.2363 131.584C64.0566 131.379 64.9746 131.276 65.9902 131.276C67.3281 131.276 68.5098 131.521 69.5352 132.009C70.5605 132.497 71.3564 133.181 71.9229 134.06C72.4893 134.938 72.7725 135.944 72.7725 137.077C72.7725 138.063 72.5967 138.991 72.2451 139.86C71.9033 140.72 71.3662 141.604 70.6338 142.512C69.9111 143.42 68.6318 144.714 66.7959 146.394L64.042 148.986V149.191H73.373V153ZM81.0635 149.851C80.5557 151.823 79.6963 154.162 78.4854 156.867H75.2627C75.8975 154.27 76.3906 151.818 76.7422 149.514H80.8438L81.0635 149.851ZM92.0352 139.318C94.1055 139.318 95.751 139.899 96.9717 141.062C98.2021 142.224 98.8174 143.815 98.8174 145.837C98.8174 148.229 98.0801 150.07 96.6055 151.359C95.1309 152.648 93.0215 153.293 90.2773 153.293C87.8945 153.293 85.9707 152.907 84.5059 152.136V148.225C85.2773 148.635 86.1758 148.972 87.2012 149.235C88.2266 149.489 89.1982 149.616 90.1162 149.616C92.8799 149.616 94.2617 148.483 94.2617 146.218C94.2617 144.06 92.8311 142.98 89.9697 142.98C89.4521 142.98 88.8809 143.034 88.2559 143.142C87.6309 143.239 87.123 143.347 86.7324 143.464L84.9307 142.497L85.7363 131.584H97.3525V135.422H89.7061L89.3105 139.626L89.8232 139.523C90.4189 139.387 91.1562 139.318 92.0352 139.318ZM120.102 153H114.945L109.335 143.977L107.416 145.354V153H102.875V131.584H107.416V141.384L109.203 138.864L115.004 131.584H120.043L112.572 141.062L120.102 153Z" fill="#FFBF00"/>
<defs>
<linearGradient id="paint0_linear" x1="145.729" y1="70.601" x2="145.729" y2="113.059" gradientUnits="userSpaceOnUse">
<stop stop-color="#00A4ED"/>
<stop offset="1" stop-color="#0009E3"/>
</linearGradient>
<linearGradient id="paint1_linear" x1="22.0796" y1="70.601" x2="22.0796" y2="113.059" gradientUnits="userSpaceOnUse">
<stop stop-color="#00A4ED"/>
<stop offset="1" stop-color="#0009E3"/>
</linearGradient>
<linearGradient id="paint2_linear" x1="84.2077" y1="42.8849" x2="84.2077" y2="206.335" gradientUnits="userSpaceOnUse">
<stop stop-color="#00A4ED"/>
<stop offset="1" stop-color="#0009E3"/>
</linearGradient>
<linearGradient id="paint3_linear" x1="118.022" y1="42.8849" x2="118.022" y2="206.335" gradientUnits="userSpaceOnUse">
<stop stop-color="#00A4ED"/>
<stop offset="1" stop-color="#0009E3"/>
</linearGradient>
<linearGradient id="paint4_linear" x1="83.4839" y1="80.8677" x2="83.4839" y2="193.533" gradientUnits="userSpaceOnUse">
<stop stop-color="#FFC700"/>
<stop offset="1" stop-color="#FF4070"/>
</linearGradient>
<linearGradient id="paint5_linear" x1="110.58" y1="80.8677" x2="110.58" y2="193.355" gradientUnits="userSpaceOnUse">
<stop stop-color="#FFC700"/>
<stop offset="1" stop-color="#FF4070"/>
</linearGradient>
</defs>
</svg>
