<svg width="99" height="190" viewBox="0 0 99 190" fill="none" xmlns="http://www.w3.org/2000/svg">
<path d="M52.1839 68.8921H46.8152V101.577H52.1839V68.8921Z" fill="#FFB10F"/>
<path d="M58.1117 105.314H40.9316C40.9316 103.252 42.6067 101.534 44.7112 101.534H54.3321C56.4366 101.577 58.1117 103.252 58.1117 105.314Z" fill="#FFDC01"/>
<path d="M87.532 174.807H11.5103L15.8053 109.05H83.6664L87.532 174.807Z" fill="url(#paint0_linear)"/>
<path d="M83.6662 109.05H15.8051L15.5474 112.959C31.6966 119.187 57.7244 132.243 67.6029 154.277C71.5114 162.996 74.3461 169.653 76.4506 174.807H87.5317L83.6662 109.05Z" fill="url(#paint1_linear)"/>
<path d="M84.5263 105.314H14.5176V109.05H84.5263V105.314Z" fill="#FFB10F"/>
<path d="M94.4907 185.201H4.51025V178.243C4.51025 176.353 6.05646 174.807 7.94626 174.807H91.0547C92.9445 174.807 94.4907 176.353 94.4907 178.243V185.201Z" fill="#FFB10F"/>
<path d="M91.0542 174.807H76.3652C78.255 174.807 79.8012 176.353 79.8012 178.243V185.201H94.4902V178.243C94.4902 176.353 92.9869 174.807 91.0542 174.807Z" fill="#FFA30F"/>
<path d="M99 185.115H0V189.195H99V185.115Z" fill="#D67205"/>
<path d="M99 187.907H0V189.152H99V187.907Z" fill="#BD6504"/>
<path d="M46.8152 76.4084L49.9076 75.1199L52.1839 76.0648V68.8921H46.8152V76.4084Z" fill="#E09C0D"/>
<path d="M76.3656 81.133L49.8653 70.4814L23.5369 81.5625L25.4267 53.0866L6.78638 31.4397L34.4892 24.4818L49.264 0.0432129L64.4684 24.2241L92.2571 30.7525L73.9604 52.6571L76.3656 81.133Z" fill="#FFDC01"/>
<path d="M27.7031 79.8013C42.7356 63.2226 52.6571 36.5076 53.1725 6.22777L49.264 0L34.4892 24.4386L6.78638 31.4395L25.4697 53.0434L23.5369 81.5193L27.7031 79.8013Z" fill="#FFDC01"/>
<path d="M67.8947 135H36.1053C36.1053 136.81 35.1789 138.233 34 138.233V161.767C35.1789 161.767 36.1053 163.19 36.1053 165H67.8947C67.8947 163.19 68.8211 161.767 70 161.767V138.168C68.8632 138.233 67.8947 136.746 67.8947 135Z" fill="#FFCC00"/>
<path d="M73.445 177.599H63.5665C63.0081 177.599 63.0081 176.74 63.5665 176.74H73.445C73.7027 176.74 73.8745 176.912 73.8745 177.169C73.8745 177.427 73.6597 177.599 73.445 177.599Z" fill="#F9C569"/>
<path d="M59.0129 177.599H50.337C49.7786 177.599 49.7786 176.74 50.337 176.74H59.0129C59.2706 176.74 59.4424 176.912 59.4424 177.169C59.4424 177.427 59.2706 177.599 59.0129 177.599Z" fill="#F9C569"/>
<path d="M46.0856 177.599H8.59015C8.0318 177.599 8.0318 176.74 8.59015 176.74H46.0856C46.3433 176.74 46.5151 176.912 46.5151 177.169C46.5151 177.427 46.3003 177.599 46.0856 177.599Z" fill="#F9C569"/>
<path d="M40.3391 55.2845C39.013 58.4827 37.7648 61.525 38.0379 63.5532C38.2719 65.5813 39.286 68.1165 42.7183 68.7406C45.7605 69.2866 48.7248 66.9854 50.8309 62.305C51.143 61.642 51.338 61.0569 51.611 60.3939C51.806 59.8478 52.04 59.2628 52.3521 58.5217L40.6901 54.5044L40.3391 55.2845ZM40.3001 61.291C40.2221 61.564 39.988 61.759 39.715 61.759C39.676 61.759 39.637 61.759 39.559 61.759C39.403 61.72 39.286 61.642 39.208 61.486C39.13 61.369 39.091 61.174 39.13 61.0569C39.208 60.7449 39.52 60.5499 39.832 60.6279C40.183 60.6669 40.3781 60.9789 40.3001 61.291ZM49.8559 59.2628C49.9339 58.9508 50.2459 58.7557 50.5579 58.8338C50.7139 58.8728 50.8309 58.9508 50.9089 59.1068C50.987 59.2238 51.026 59.4188 50.9869 59.5358C50.9089 59.8088 50.6749 60.0039 50.4019 60.0039C50.3629 60.0039 50.3239 60.0039 50.2459 60.0039C50.0899 59.9648 49.9729 59.8868 49.8949 59.7308C49.8559 59.5748 49.8169 59.4188 49.8559 59.2628ZM47.4377 64.1772C47.5157 63.8652 47.8277 63.6702 48.1397 63.7482C48.2957 63.7872 48.4127 63.8652 48.4907 64.0212C48.5688 64.1382 48.6078 64.3332 48.5687 64.4892C48.4907 64.7622 48.2567 64.9573 47.9837 64.9573C47.9447 64.9573 47.9057 64.9573 47.8277 64.9573C47.6717 64.9183 47.5547 64.8403 47.4767 64.6842C47.4377 64.4892 47.3987 64.2942 47.4377 64.1772ZM42.5232 66.7904C42.6013 66.9074 42.6403 67.1024 42.6012 67.2585C42.5232 67.5315 42.2892 67.7265 42.0162 67.7265C41.9772 67.7265 41.9382 67.7265 41.8602 67.7265C41.7042 67.6875 41.5872 67.6095 41.5092 67.4535C41.4312 67.3365 41.3921 67.1415 41.4312 66.9854C41.5092 66.6734 41.8212 66.4784 42.1332 66.5564C42.2892 66.5564 42.4452 66.6734 42.5232 66.7904ZM40.9241 56.1815C41.0021 55.8695 41.3141 55.6745 41.6262 55.7525C41.9382 55.8305 42.1332 56.1425 42.0552 56.4546C41.9772 56.7276 41.7432 56.9226 41.4702 56.9226C41.4312 56.9226 41.3921 56.9226 41.3141 56.9226C41.1581 56.8836 41.0411 56.8056 40.9631 56.6496C40.8851 56.4936 40.8851 56.3375 40.9241 56.1815Z" fill="#7A2901"/>
<path d="M54.4973 21.468C53.7173 21.156 52.9372 21 52.1571 21C47.7888 21 43.9275 26.0704 42.2893 33.9101C41.6263 37.0303 42.0943 39.8386 42.4843 42.2958C42.8354 44.519 43.1864 46.5861 42.7184 48.5753L54.7314 52.2806C55.2774 50.9545 55.8234 49.5894 56.4085 48.2243C57.8516 44.753 59.2167 41.4767 59.9188 39.2535C62.493 30.7508 60.3868 23.7692 54.4973 21.468ZM43.1084 33.9881C43.1864 33.6761 43.4984 33.481 43.8104 33.559C43.9665 33.5981 44.0835 33.6761 44.1615 33.8321C44.2395 33.9491 44.2785 34.1441 44.2395 34.2611C44.1615 34.5341 43.9275 34.7291 43.6544 34.7291C43.6154 34.7291 43.5764 34.7291 43.4984 34.7291C43.2254 34.6121 43.0304 34.3001 43.1084 33.9881ZM43.5764 41.7887C43.4204 41.7497 43.3034 41.6717 43.2254 41.5157C43.1474 41.3987 43.1084 41.2037 43.1474 41.0867C43.2254 40.7746 43.5374 40.5796 43.8494 40.6576C44.0055 40.6966 44.1225 40.7747 44.2005 40.9307C44.2785 41.0477 44.3175 41.2427 44.2785 41.3987C44.2005 41.6717 43.9665 41.8667 43.6934 41.8667C43.6934 41.8277 43.6544 41.7887 43.5764 41.7887ZM44.9025 47.7952C44.8245 48.0683 44.5905 48.2633 44.3175 48.2633C44.2785 48.2633 44.2395 48.2633 44.1615 48.2633C44.0055 48.2243 43.8885 48.1463 43.8104 47.9903C43.7324 47.8732 43.6934 47.6782 43.7324 47.5612C43.8104 47.2492 44.1225 47.0542 44.4345 47.1322C44.7855 47.1322 44.9805 47.4442 44.9025 47.7952ZM46.6187 27.6696C46.5407 27.9426 46.3067 28.1376 46.0336 28.1376C45.9946 28.1376 45.9556 28.1376 45.8776 28.1376C45.5656 28.0596 45.3706 27.7476 45.4486 27.4355C45.5266 27.1235 45.8386 26.9285 46.1506 27.0065C46.5017 27.0065 46.6967 27.3185 46.6187 27.6696ZM51.4551 22.8722C51.3771 23.1452 51.1431 23.3402 50.87 23.3402C50.831 23.3402 50.792 23.3402 50.714 23.3402C50.558 23.3012 50.441 23.2232 50.363 23.0672C50.285 22.9502 50.246 22.7551 50.285 22.6381C50.363 22.3261 50.675 22.1311 50.987 22.2091C51.3381 22.2091 51.5331 22.5211 51.4551 22.8722ZM54.4583 50.7205C54.3803 50.9935 54.1463 51.1885 53.8733 51.1885C53.8343 51.1885 53.7953 51.1885 53.7173 51.1885C53.4052 51.1105 53.2102 50.7985 53.2882 50.4865C53.3662 50.1744 53.6783 49.9794 53.9903 50.0574C54.3413 50.0964 54.5363 50.4085 54.4583 50.7205ZM57.0325 44.519C56.9545 44.792 56.7205 44.987 56.4475 44.987C56.4085 44.987 56.3695 44.987 56.2915 44.987C56.1355 44.948 56.0185 44.87 55.9405 44.714C55.8624 44.597 55.8234 44.402 55.8624 44.2849C55.9405 43.9729 56.2525 43.7779 56.5645 43.8559C56.7205 43.8949 56.8375 43.9729 56.9155 44.1289C57.0715 44.2069 57.0715 44.402 57.0325 44.519ZM57.9296 25.3294C57.8516 25.6024 57.6176 25.7974 57.3446 25.7974C57.3056 25.7974 57.2666 25.7974 57.1886 25.7974C57.0325 25.7584 56.9155 25.6804 56.8375 25.5244C56.7595 25.4074 56.7205 25.2124 56.7595 25.0563C56.8375 24.7443 57.1496 24.5493 57.4616 24.6273C57.6176 24.6663 57.7346 24.7443 57.8126 24.9003C57.9296 25.0173 57.9686 25.1733 57.9296 25.3294ZM59.2947 38.2784C59.2167 38.5515 58.9827 38.7465 58.7097 38.7465C58.6707 38.7465 58.6317 38.7465 58.5537 38.7465C58.3977 38.7075 58.2806 38.6295 58.2026 38.4735C58.1246 38.3564 58.0856 38.1614 58.1246 38.0054C58.2026 37.6934 58.5147 37.4984 58.8267 37.5764C58.9827 37.6154 59.0997 37.6934 59.1777 37.8494C59.3337 37.9664 59.3337 38.1224 59.2947 38.2784ZM59.6458 32.1939C59.6068 32.1939 59.5678 32.1939 59.4898 32.1939C59.1777 32.1159 58.9827 31.8039 59.0607 31.4919C59.1387 31.1798 59.4507 30.9848 59.7628 31.0628C60.0748 31.1408 60.2698 31.4529 60.1918 31.7649C60.1528 31.9989 59.9188 32.1939 59.6458 32.1939Z" fill="#7A2901"/>
<path d="M45.5273 53.919L48.8426 55.0111C48.9596 55.0501 49.0376 55.0501 49.1546 55.0501C49.5836 55.0501 49.9347 54.777 50.0907 54.387C50.2467 53.88 49.9737 53.3339 49.4666 53.1389L46.1513 52.0468C46.0343 52.0078 45.9563 52.0078 45.8393 52.0078C45.4103 52.0078 45.0593 52.2808 44.9032 52.6709C44.8252 52.9049 44.8252 53.1779 44.9422 53.4119C45.0983 53.646 45.2933 53.802 45.5273 53.919Z" fill="#7A2901"/>
<path d="M54.9141 159H51.293V149.086L51.3281 147.457L51.3867 145.676C50.7852 146.277 50.3672 146.672 50.1328 146.859L48.1641 148.441L46.418 146.262L51.9375 141.867H54.9141V159Z" fill="#CB5F00"/>
<defs>
<linearGradient id="paint0_linear" x1="44.5564" y1="99.7504" x2="45.2389" y2="184.105" gradientUnits="userSpaceOnUse">
<stop stop-color="#D91B24"/>
<stop offset="1" stop-color="#393C5A"/>
</linearGradient>
<linearGradient id="paint1_linear" x1="46.8385" y1="99.7504" x2="47.5593" y2="184.104" gradientUnits="userSpaceOnUse">
<stop stop-color="#D91B24"/>
<stop offset="1" stop-color="#393C5A"/>
</linearGradient>
</defs>
</svg>
