<svg width="200" height="137" viewBox="0 0 200 137" fill="none" xmlns="http://www.w3.org/2000/svg">
<g filter="url(#filter0_d)">
<path d="M7.02159 94.9368C7.02159 94.9368 4.1037 97.8547 4.1037 109.04C4.1037 120.225 0.796759 121.879 31.5319 121.879C62.2669 121.879 58.571 121.49 58.571 110.693C58.571 110.693 71.896 111.082 93.8774 118.183C115.859 125.283 176.356 123.824 189.973 104.76C203.59 85.7941 189.876 90.3654 189.876 90.3654C189.876 90.3654 29.8784 79.5692 7.02159 94.9368Z" fill="#4C094E"/>
<path d="M15.386 41.3445C15.386 41.3445 7.11865 48.4447 7.11865 94.9364C7.11865 94.9364 53.6103 89.976 90.1812 100.286C126.752 110.693 174.897 101.161 189.876 90.365C189.876 90.365 192.794 67.1192 171.59 65.4657C150.387 63.8122 115.567 65.0767 102.242 51.3626C88.8195 37.6485 89.3058 23.5454 89.3058 12.7492C89.3058 1.953 75.9808 -5.53625 64.0175 5.25994L15.386 41.3445Z" fill="url(#paint0_linear)"/>
<path d="M74.7164 33.0775C74.7164 37.6488 71.0204 41.3448 66.4491 41.3448H15.386C10.8146 41.3448 7.11865 37.6488 7.11865 33.0775V13.5276C7.11865 8.95625 10.8146 5.26025 15.386 5.26025H66.4491C71.0204 5.26025 74.7164 8.95625 74.7164 13.5276V33.0775Z" fill="#4C094E"/>
<path d="M11.5924 124.018C11.5924 124.893 10.8143 125.672 9.9389 125.672H5.65933C4.78396 125.672 4.00586 124.893 4.00586 124.018V116.14C4.00586 115.264 4.78396 114.486 5.65933 114.486H9.9389C10.8143 114.486 11.5924 115.264 11.5924 116.14V124.018Z" fill="#4C094E"/>
<path d="M23.3609 124.018C23.3609 124.893 22.5828 125.672 21.7075 125.672H17.4279C16.5525 125.672 15.7744 124.893 15.7744 124.018V116.14C15.7744 115.264 16.5525 114.486 17.4279 114.486H21.7075C22.5828 114.486 23.3609 115.264 23.3609 116.14V124.018Z" fill="#4C094E"/>
<path d="M35.2288 124.018C35.2288 124.893 34.4507 125.672 33.5754 125.672H29.2958C28.4204 125.672 27.6423 124.893 27.6423 124.018V116.14C27.6423 115.264 28.4204 114.486 29.2958 114.486H33.5754C34.4507 114.486 35.2288 115.264 35.2288 116.14V124.018Z" fill="#4C094E"/>
<path d="M46.9976 124.018C46.9976 124.893 46.2195 125.672 45.3442 125.672H41.0646C40.1892 125.672 39.4111 124.893 39.4111 124.018V116.14C39.4111 115.264 40.1892 114.486 41.0646 114.486H45.3442C46.2195 114.486 46.9976 115.264 46.9976 116.14V124.018Z" fill="#4C094E"/>
<path d="M58.7662 124.018C58.7662 124.893 57.9881 125.672 57.1127 125.672H52.8332C51.9578 125.672 51.1797 124.893 51.1797 124.018V116.14C51.1797 115.264 51.9578 114.486 52.8332 114.486H57.1127C57.9881 114.486 58.7662 115.264 58.7662 116.14V124.018Z" fill="#4C094E"/>
<path d="M147.664 124.018C147.664 124.893 146.886 125.672 146.01 125.672H141.731C140.855 125.672 140.077 124.893 140.077 124.018V116.14C140.077 115.264 140.855 114.486 141.731 114.486H146.01C146.886 114.486 147.664 115.264 147.664 116.14V124.018Z" fill="#A67C52"/>
<path d="M100.492 124.018C100.492 124.893 99.7137 125.672 98.8383 125.672H94.5587C93.6834 125.672 92.9053 124.893 92.9053 124.018V116.14C92.9053 115.264 93.6834 114.486 94.5587 114.486H98.8383C99.7137 114.486 100.492 115.264 100.492 116.14V124.018Z" fill="#4C094E"/>
<path d="M112.358 124.018C112.358 124.893 111.58 125.672 110.705 125.672H106.425C105.55 125.672 104.771 124.893 104.771 124.018V116.14C104.771 115.264 105.55 114.486 106.425 114.486H110.705C111.58 114.486 112.358 115.264 112.358 116.14V124.018Z" fill="#4C094E"/>
<path d="M124.127 124.018C124.127 124.893 123.348 125.672 122.473 125.672H118.194C117.318 125.672 116.54 124.893 116.54 124.018V116.14C116.54 115.264 117.318 114.486 118.194 114.486H122.473C123.348 114.486 124.127 115.264 124.127 116.14V124.018Z" fill="#4C094E"/>
<path d="M135.895 124.018C135.895 124.893 135.117 125.672 134.242 125.672H129.962C129.087 125.672 128.309 124.893 128.309 124.018V116.14C128.309 115.264 129.087 114.486 129.962 114.486H134.242C135.117 114.486 135.895 115.264 135.895 116.14V124.018Z" fill="#4C094E"/>
<path d="M147.664 124.018C147.664 124.893 146.886 125.672 146.01 125.672H141.731C140.855 125.672 140.077 124.893 140.077 124.018V116.14C140.077 115.264 140.855 114.486 141.731 114.486H146.01C146.886 114.486 147.664 115.264 147.664 116.14V124.018Z" fill="#4C094E"/>
<path d="M159.432 124.018C159.432 124.893 158.654 125.672 157.779 125.672H153.499C152.624 125.672 151.846 124.893 151.846 124.018V116.14C151.846 115.264 152.624 114.486 153.499 114.486H157.779C158.654 114.486 159.432 115.264 159.432 116.14V124.018Z" fill="#4C094E"/>
<path d="M171.201 121.781C171.201 122.656 170.423 123.434 169.547 123.434H165.268C164.392 123.434 163.614 122.656 163.614 121.781V113.902C163.614 113.027 164.392 112.249 165.268 112.249H169.547C170.423 112.249 171.201 113.027 171.201 113.902V121.781Z" fill="#4C094E"/>
<path d="M183.067 118.376C183.067 119.252 182.289 120.03 181.414 120.03H177.134C176.259 120.03 175.48 119.252 175.48 118.376V110.498C175.48 109.623 176.259 108.845 177.134 108.845H181.414C182.289 108.845 183.067 109.623 183.067 110.498V118.376Z" fill="#4C094E"/>
<path d="M191.043 110.595C191.043 111.471 190.264 112.249 189.389 112.249H185.11C184.234 112.249 183.456 111.471 183.456 110.595V102.717C183.456 101.842 184.234 101.063 185.11 101.063H189.389C190.264 101.063 191.043 101.842 191.043 102.717V110.595Z" fill="#4C094E"/>
<path d="M90.8625 18.2931H79.9691C78.1211 18.2931 76.6621 16.8341 76.6621 14.9861C76.6621 13.1381 78.1211 11.6792 79.9691 11.6792H90.8625C92.7105 11.6792 94.1694 13.1381 94.1694 14.9861C94.1694 16.8341 92.6132 18.2931 90.8625 18.2931Z" fill="#333333"/>
<path d="M155.638 76.6506C155.249 76.6506 154.86 76.5533 154.471 76.456C152.721 75.7752 151.942 73.8299 152.623 72.1765L156.611 62.0611C157.292 60.3104 159.237 59.5323 160.891 60.2131C162.641 60.894 163.419 62.8392 162.739 64.4927L158.751 74.608C158.265 75.8725 157 76.6506 155.638 76.6506Z" fill="#333333"/>
<path d="M99.4205 66.0495C99.0315 65.9522 98.6424 65.855 98.2534 65.5632C96.6972 64.5905 96.3081 62.548 97.2808 60.9918L103.214 51.8491C104.186 50.2929 106.229 49.9038 107.785 50.8765C109.341 51.8491 109.73 53.8916 108.758 55.4478L102.825 64.5905C102.047 65.7577 100.685 66.244 99.4205 66.0495Z" fill="#333333"/>
<path d="M87.2643 53.2104C86.8752 53.0159 86.5834 52.7241 86.2916 52.4323C85.1245 51.0706 85.2217 48.9308 86.6807 47.7637L94.948 40.6635C96.3097 39.4963 98.4495 39.5936 99.6167 41.0525C100.784 42.4142 100.687 44.554 99.2276 45.7211L90.9603 52.8213C89.8904 53.6967 88.4314 53.794 87.2643 53.2104Z" fill="#333333"/>
<path d="M78.9969 35.3143C78.7051 35.0226 78.5106 34.6335 78.4133 34.2445C77.8297 32.4937 78.8024 30.6457 80.5531 30.0621L90.863 26.6579C92.6137 26.0744 94.4617 27.047 95.0453 28.7977C95.6289 30.5485 94.6562 32.3965 92.9055 32.98L82.5956 36.287C81.2339 36.7733 79.775 36.287 78.9969 35.3143Z" fill="#333333"/>
<path d="M120.138 74.1221C119.749 74.1221 119.359 74.1221 118.873 74.0249C117.122 73.5386 116.053 71.6906 116.636 69.9398L119.651 59.4354C120.138 57.6847 121.986 56.6148 123.736 57.1984C125.487 57.6847 126.557 59.5327 125.973 61.2834L122.958 71.7878C122.666 73.0522 121.499 73.9276 120.138 74.1221Z" fill="#333333"/>
<path d="M139.494 75.2891C139.105 75.2891 138.716 75.2891 138.229 75.1919C136.479 74.7055 135.409 72.8576 135.992 71.1068L139.007 60.6024C139.494 58.8517 141.342 57.7818 143.093 58.3654C144.843 58.8517 145.913 60.6997 145.33 62.4504L142.314 72.9548C142.023 74.2192 140.855 75.1919 139.494 75.2891Z" fill="#333333"/>
<g opacity="0.3">
<path opacity="0.3" d="M14.2181 36.4817C12.3701 36.4817 10.9111 35.0227 10.9111 33.1747V12.0687C10.9111 10.2207 12.3701 8.76172 14.2181 8.76172H34.4488C36.2968 8.76172 37.7557 10.2207 37.7557 12.0687C37.7557 13.9167 36.2968 15.3756 34.4488 15.3756H17.525V33.0775C17.525 34.9255 16.0661 36.4817 14.2181 36.4817Z" fill="#F2F2F2"/>
</g>
<g opacity="0.3">
<path opacity="0.3" d="M15.8737 91.4351C14.1229 91.4351 12.664 90.0735 12.5667 88.3227C10.6215 55.8369 18.8888 47.375 19.8614 46.4996C21.2231 45.2352 23.3629 45.4298 24.5301 46.7914C25.6972 48.1531 25.6 50.1956 24.3355 51.4601C24.0438 51.7518 17.4299 59.3384 19.1806 88.0309C19.2779 89.8789 17.9162 91.4351 16.0682 91.5324C15.9709 91.4351 15.8737 91.4351 15.8737 91.4351Z" fill="#F2F2F2"/>
</g>
</g>
<path d="M85.7263 122.191L74.2277 115.548L68.9155 127.906L48.7547 66.8904L65.5749 61.2394L85.7263 122.191Z" fill="#ED1CBF"/>
<path d="M23.4208 129.102L33.4446 119.983L40.901 130.786L48.9358 66.6273L31.3816 64.8905L23.4208 129.102Z" fill="#ED1CBF"/>
<path d="M26.5451 103.137C31.575 106.245 37.3657 108.255 43.5282 108.78L48.763 66.6237L31.3171 64.9408L26.5451 103.137Z" fill="#D919AF"/>
<path d="M65.5202 61.1855L48.7534 66.8301L61.7389 106.04C67.6578 103.564 72.7672 99.6689 76.6909 94.9355L65.5202 61.1855Z" fill="#D919AF"/>
<path d="M52.3421 104.89C71.2646 101.728 84.3478 84.1316 81.5642 65.5879C78.7807 47.0442 61.1846 34.5752 42.2621 37.7375C23.3397 40.8998 10.2565 58.496 13.04 77.0396C15.8235 95.5833 33.4197 108.052 52.3421 104.89Z" fill="#FFCF03"/>
<path d="M67.3443 43.1896C74.1532 48.2393 78.9732 55.8128 80.3229 64.8042C83.1071 83.3529 70.0283 100.943 51.1008 104.106C41.9257 105.64 33.0562 103.512 26.0284 98.7572C33.2148 104.13 42.6636 106.612 52.4161 104.982C71.3437 101.819 84.4225 84.2288 81.6382 65.6801C80.1395 56.1336 74.8043 48.195 67.3443 43.1896Z" fill="#FFA506"/>
<path d="M68.5452 67.6361C68.8519 69.7563 67.1775 71.9004 66.8118 73.9455C66.4551 76.0528 67.2767 78.5312 66.2296 80.4387C65.1825 82.3463 62.5907 83.1792 61.0196 84.6662C59.4486 86.1532 58.6298 88.7243 56.6549 89.706C54.7445 90.6765 52.1853 89.9057 49.9912 90.2862C47.797 90.6667 45.5806 92.2656 43.4898 91.9889C41.3345 91.7234 39.8301 89.5552 37.9163 88.6725C35.9934 87.7275 33.3024 87.8745 31.7681 86.4146C30.2984 84.9436 30.3803 82.3085 29.3817 80.4361C28.4567 78.6149 26.2591 77.1422 25.9524 75.022C25.6456 72.9018 27.3201 70.7577 27.6858 68.7126C28.0424 66.6052 27.2208 64.1268 28.268 62.2193C29.3151 60.3118 31.9069 59.4788 33.4779 57.9919C35.0489 56.5049 35.8678 53.9338 37.8427 52.9521C39.753 51.9816 42.3122 52.7524 44.5064 52.3719C46.7006 51.9914 48.9169 50.3925 51.0077 50.6692C53.163 50.9347 54.6675 53.1029 56.5813 53.9855C58.5042 54.9306 61.1952 54.7835 62.7294 56.2434C64.1992 57.7145 64.1173 60.3496 65.1158 62.2219C66.0408 64.0432 68.2385 65.5159 68.5452 67.6361Z" fill="#FFEC03"/>
<path d="M52.9351 88.6922C50.2079 88.5897 49.4335 88.724 46.8687 89.7441C45.9922 90.0879 44.7466 90.6235 43.8715 90.5196C42.315 90.2781 40.773 88.3081 38.7766 87.3118C36.7801 86.3156 34.1355 86.3267 33.0605 85.2985C31.9856 84.2703 32.012 81.7087 30.9954 79.7115C30.5374 78.8321 29.9038 78.1109 29.3438 77.4409C27.3515 75.1015 27.2793 74.6026 28.5138 71.7037C28.9128 70.8034 29.2473 69.9144 29.4437 68.9854C29.8469 66.742 29.0988 64.3147 29.8309 62.9731C30.563 61.6316 33.0813 60.7474 34.6989 59.1245C36.3165 57.5015 37.227 55.1063 38.6391 54.35C39.442 53.955 40.7779 54.043 41.7084 54.0734C44.4357 54.1758 45.2101 54.0415 47.7749 53.0214C48.7159 52.6665 49.897 52.1421 50.7721 52.246C52.3286 52.4875 53.8705 54.4575 55.867 55.4538C57.928 56.4388 60.5081 56.4389 61.583 57.4671C62.6579 58.4953 62.6316 61.0569 63.6482 63.054C64.1062 63.9335 64.7398 64.6547 65.2998 65.3247C67.2921 67.6641 67.3643 68.163 66.1297 71.0619C65.1457 73.406 64.9868 74.1368 65.0986 76.7383C65.2089 79.7876 65.0604 80.133 62.3367 81.8839C61.4873 82.4147 60.6379 82.9456 59.8891 83.7147C58.2715 85.3376 57.3611 87.7329 55.9489 88.4892C55.8198 88.5115 53.9302 88.7114 52.9351 88.6922Z" fill="#FFDC01"/>
<path d="M45.7898 94.8264C47.2947 95.6352 47.9264 97.2954 47.9264 97.2954C47.9264 97.2954 46.0617 97.69 44.5568 96.8813C43.052 96.0725 42.4203 94.4123 42.4203 94.4123C42.4203 94.4123 44.2204 94.0292 45.7898 94.8264Z" fill="#FFAA2E"/>
<path d="M44.5696 97.9296C46.1601 97.0886 47.9794 97.3914 47.9794 97.3914C47.9794 97.3914 47.2333 99.0809 45.6428 99.9219C44.0523 100.763 42.233 100.46 42.233 100.46C42.233 100.46 42.9791 98.7706 44.5696 97.9296Z" fill="#FFAA2E"/>
<path d="M40.2237 94.1987C41.6316 95.2215 42.0066 96.9373 42.0066 96.9373C42.0066 96.9373 40.0988 97.0856 38.6909 96.0628C37.283 95.04 36.908 93.3242 36.908 93.3242C36.908 93.3242 38.8245 93.238 40.2237 94.1987Z" fill="#FFAA2E"/>
<path d="M38.5821 97.1222C40.2693 96.5159 41.9841 97.0216 41.9841 97.0216C41.9841 97.0216 41.0208 98.5559 39.3422 99.2228C37.655 99.8292 35.9402 99.3234 35.9402 99.3234C35.9402 99.3234 36.9035 97.7891 38.5821 97.1222Z" fill="#FFAA2E"/>
<path d="M35.7134 92.8197C36.8874 94.0199 37.0125 95.8546 37.0125 95.8546C37.0125 95.8546 35.1127 95.6798 33.9387 94.4797C32.7647 93.2795 32.6396 91.4448 32.6396 91.4448C32.6396 91.4448 34.5306 91.5571 35.7134 92.8197Z" fill="#FFAA2E"/>
<path d="M33.6268 95.4319C35.3475 95.0687 36.9678 95.837 36.9678 95.837C36.9678 95.837 35.787 97.2196 34.0021 97.5941C32.2814 97.9573 30.6611 97.189 30.6611 97.189C30.6611 97.189 31.906 95.7952 33.6268 95.4319Z" fill="#FFAA2E"/>
<path d="M31.3441 90.2457C32.2261 91.6982 31.807 93.5095 31.807 93.5095C31.807 93.5095 30.0338 92.9223 29.1518 91.4698C28.2698 90.0173 28.6888 88.206 28.6888 88.206C28.6888 88.206 30.462 88.7932 31.3441 90.2457Z" fill="#FFAA2E"/>
<path d="M28.6512 92.3696C30.4253 92.3686 31.7782 93.5591 31.7782 93.5591C31.7782 93.5591 30.2327 94.6998 28.5141 94.629C26.74 94.63 25.3871 93.4394 25.3871 93.4394C25.3871 93.4394 26.9326 92.2988 28.6512 92.3696Z" fill="#FFAA2E"/>
<path d="M27.7901 87.0916C28.2312 88.7549 27.3843 90.4516 27.3843 90.4516C27.3843 90.4516 25.8114 89.439 25.3793 87.8385C24.9383 86.1752 25.7851 84.4784 25.7851 84.4784C25.7851 84.4784 27.3491 85.4282 27.7901 87.0916Z" fill="#FFAA2E"/>
<path d="M24.7174 88.4798C26.4275 88.9287 27.4153 90.3183 27.4153 90.3183C27.4153 90.3183 25.6772 91.0631 23.9757 90.6752C22.2655 90.2263 21.2778 88.8367 21.2778 88.8367C21.2778 88.8367 23.0714 88.0196 24.7174 88.4798Z" fill="#FFAA2E"/>
<path d="M24.5075 82.8551C24.6183 84.5776 23.4076 86.0801 23.4076 86.0801C23.4076 86.0801 22.0743 84.8297 22.0296 83.0956C21.9188 81.373 23.1295 79.8706 23.1295 79.8706C23.1295 79.8706 24.4628 81.1209 24.5075 82.8551Z" fill="#FFAA2E"/>
<path d="M21.2889 83.6641C22.8477 84.4014 23.5447 86.0501 23.5447 86.0501C23.5447 86.0501 21.6924 86.5036 20.1336 85.7663C18.5748 85.029 17.8778 83.3803 17.8778 83.3803C17.8778 83.3803 19.7213 82.8651 21.2889 83.6641Z" fill="#FFAA2E"/>
<path d="M22.535 78.6712C22.3062 80.3875 20.9393 81.7233 20.9393 81.7233C20.9393 81.7233 19.8466 80.2389 20.0754 78.5226C20.3041 76.8063 21.671 75.4705 21.671 75.4705C21.671 75.4705 22.7638 76.9549 22.535 78.6712Z" fill="#FFAA2E"/>
<path d="M19.2469 78.9595C20.6457 79.9229 21.031 81.7026 21.031 81.7026C21.031 81.7026 19.1253 81.8484 17.7265 80.8851C16.3277 79.9218 15.9424 78.1421 15.9424 78.1421C15.9424 78.1421 17.8393 77.9341 19.2469 78.9595Z" fill="#FFAA2E"/>
<path d="M21.6256 73.8609C20.9876 75.5155 19.3162 76.517 19.3162 76.517C19.3162 76.517 18.6732 74.8312 19.3112 73.1766C19.9492 71.522 21.6206 70.5205 21.6206 70.5205C21.6206 70.5205 22.2635 72.2062 21.6256 73.8609Z" fill="#FFAA2E"/>
<path d="M18.3586 73.2903C19.4793 74.569 19.4015 76.3802 19.4015 76.3802C19.4015 76.3802 17.546 76.0657 16.4253 74.787C15.3046 73.5082 15.3825 71.697 15.3825 71.697C15.3825 71.697 17.229 71.9489 18.3586 73.2903Z" fill="#FFAA2E"/>
<path d="M21.6469 68.7705C20.6553 70.2223 18.8085 70.8042 18.8085 70.8042C18.8085 70.8042 18.6173 68.9872 19.6089 67.5354C20.6005 66.0836 22.4474 65.5017 22.4474 65.5017C22.4474 65.5017 22.7035 67.3072 21.6469 68.7705Z" fill="#FFAA2E"/>
<path d="M18.6792 67.4358C19.4406 68.9775 18.8822 70.751 18.8822 70.751C18.8822 70.751 17.1547 70.0233 16.3933 68.4816C15.6319 66.9399 16.1903 65.1664 16.1903 65.1664C16.1903 65.1664 17.9838 65.8825 18.6792 67.4358Z" fill="#FFAA2E"/>
<path d="M22.8339 64.4142C21.5634 65.6512 19.6721 65.7878 19.6721 65.7878C19.6721 65.7878 19.8704 63.9736 21.2142 62.7875C22.4847 61.5505 24.376 61.4139 24.376 61.4139C24.376 61.4139 24.1134 63.2393 22.8339 64.4142Z" fill="#FFAA2E"/>
<path d="M20.2357 62.5C20.6154 64.1797 19.6433 65.8335 19.6433 65.8335C19.6433 65.8335 18.135 64.7357 17.7553 63.056C17.3755 61.3763 18.3477 59.7225 18.3477 59.7225C18.3477 59.7225 19.8559 60.8203 20.2357 62.5Z" fill="#FFAA2E"/>
<path d="M24.4788 60.4348C22.9834 61.4511 21.1254 61.3293 21.1254 61.3293C21.1254 61.3293 21.6617 59.5937 23.093 58.5884C24.5883 57.5721 26.4464 57.6939 26.4464 57.6939C26.4464 57.6939 25.9101 59.4295 24.4788 60.4348Z" fill="#FFAA2E"/>
<path d="M22.2041 58.0831C22.2551 59.8191 21.0585 61.3175 21.0585 61.3175C21.0585 61.3175 19.7862 59.9855 19.6787 58.3238C19.6277 56.5877 20.8243 55.0894 20.8243 55.0894C20.8243 55.0894 22.1532 56.3471 22.2041 58.0831Z" fill="#FFAA2E"/>
<path d="M55.1283 93.1153C53.9198 94.4061 53.7763 96.204 53.7763 96.204C53.7763 96.204 55.6586 95.9329 56.8671 94.6421C58.0755 93.3513 58.219 91.5534 58.219 91.5534C58.219 91.5534 56.4014 91.813 55.1283 93.1153Z" fill="#FFAA2E"/>
<path d="M57.2433 95.6475C55.497 95.3941 53.851 96.3073 53.851 96.3073C53.851 96.3073 55.0301 97.6577 56.7764 97.9111C58.5228 98.1645 60.1688 97.2514 60.1688 97.2514C60.1688 97.2514 58.9897 95.9009 57.2433 95.6475Z" fill="#FFAA2E"/>
<path d="M59.5659 91.1694C58.5083 92.6307 58.6238 94.3926 58.6238 94.3926C58.6238 94.3926 60.4791 93.8717 61.5366 92.4104C62.5942 90.9491 62.4787 89.1872 62.4787 89.1872C62.4787 89.1872 60.6322 89.7702 59.5659 91.1694Z" fill="#FFAA2E"/>
<path d="M62.0307 93.4009C60.257 93.4019 58.7671 94.47 58.7671 94.47C58.7671 94.47 60.1111 95.5993 61.8936 95.6588C63.6674 95.6578 65.1572 94.5896 65.1572 94.5896C65.1572 94.5896 63.8132 93.4604 62.0307 93.4009Z" fill="#FFAA2E"/>
<path d="M63.3953 88.2782C62.6094 89.8266 62.9958 91.6149 62.9958 91.6149C62.9958 91.6149 64.7545 90.7901 65.5405 89.2418C66.3264 87.6934 65.94 85.9051 65.94 85.9051C65.94 85.9051 64.2466 86.7182 63.3953 88.2782Z" fill="#FFAA2E"/>
<path d="M66.1916 90.0779C64.4535 90.3204 63.1272 91.6047 63.1272 91.6047C63.1272 91.6047 64.6367 92.5161 66.4388 92.2624C68.1769 92.0199 69.5031 90.7356 69.5031 90.7356C69.5031 90.7356 67.9383 89.8958 66.1916 90.0779Z" fill="#FFAA2E"/>
<path d="M66.6398 84.6333C66.2029 86.3191 67.1027 87.8971 67.1027 87.8971C67.1027 87.8971 68.6267 86.7268 69.0636 85.0411C69.5005 83.3553 68.6006 81.7773 68.6006 81.7773C68.6006 81.7773 67.0678 82.8848 66.6398 84.6333Z" fill="#FFAA2E"/>
<path d="M69.8629 85.7202C68.1755 86.3268 67.2207 87.9221 67.2207 87.9221C67.2207 87.9221 69.0084 88.4773 70.6231 87.8214C72.3105 87.2148 73.2653 85.6195 73.2653 85.6195C73.2653 85.6195 71.5503 85.1136 69.8629 85.7202Z" fill="#FFAA2E"/>
<path d="M69.1782 80.189C69.221 81.9225 70.498 83.2452 70.498 83.2452C70.498 83.2452 71.7125 81.7416 71.6787 80.0711C71.6359 78.3376 70.3589 77.0149 70.3589 77.0149C70.3589 77.0149 69.1444 78.5184 69.1782 80.189Z" fill="#FFAA2E"/>
<path d="M72.4989 80.605C70.9968 81.6209 70.4427 83.2827 70.4427 83.2827C70.4427 83.2827 72.3023 83.3923 73.8131 82.4375C75.3151 81.4217 75.8693 79.7599 75.8693 79.7599C75.8693 79.7599 74.001 79.5892 72.4989 80.605Z" fill="#FFAA2E"/>
<path d="M70.7158 75.5124C71.0916 77.1885 72.663 78.2035 72.663 78.2035C72.663 78.2035 73.582 76.5586 73.1399 74.8941C72.7641 73.218 71.1927 72.203 71.1927 72.203C71.1927 72.203 70.2737 73.8479 70.7158 75.5124Z" fill="#FFAA2E"/>
<path d="M74.0468 75.204C72.7686 76.442 72.5629 78.2499 72.5629 78.2499C72.5629 78.2499 74.4502 78.0432 75.7284 76.8053C77.0065 75.5673 77.2123 73.7594 77.2123 73.7594C77.2123 73.7594 75.3249 73.966 74.0468 75.204Z" fill="#FFAA2E"/>
<path d="M71.292 70.9244C71.9885 72.4785 73.6617 73.2809 73.6617 73.2809C73.6617 73.2809 74.2872 71.4949 73.5907 69.9408C72.8942 68.3867 71.221 67.5843 71.221 67.5843C71.221 67.5843 70.6616 69.3587 71.292 70.9244Z" fill="#FFAA2E"/>
<path d="M74.5331 70.1053C73.4693 71.5041 73.5954 73.3296 73.5954 73.3296C73.5954 73.3296 75.4482 72.8107 76.512 71.4119C77.5758 70.0131 77.4498 68.1876 77.4498 68.1876C77.4498 68.1876 75.6617 68.695 74.5331 70.1053Z" fill="#FFAA2E"/>
<path d="M70.6839 66.1948C71.7499 67.5489 73.6176 67.9263 73.6176 67.9263C73.6176 67.9263 73.7613 66.1018 72.6952 64.7477C71.6292 63.3936 69.7615 63.0162 69.7615 63.0162C69.7615 63.0162 69.6179 64.8407 70.6839 66.1948Z" fill="#FFAA2E"/>
<path d="M73.6486 64.6362C72.9373 66.2381 73.5136 67.9338 73.5136 67.9338C73.5136 67.9338 75.1912 66.9958 75.9024 65.3938C76.6137 63.7918 76.0374 62.0962 76.0374 62.0962C76.0374 62.0962 74.2855 62.9831 73.6486 64.6362Z" fill="#FFAA2E"/>
<path d="M69.0175 61.3666C70.3623 62.405 72.2798 62.3211 72.2798 62.3211C72.2798 62.3211 71.9588 60.5272 70.6141 59.4887C69.2693 58.4503 67.3518 58.5342 67.3518 58.5342C67.3518 58.5342 67.6078 60.3396 69.0175 61.3666Z" fill="#FFAA2E"/>
<path d="M71.4633 59.1816C71.1688 60.9087 72.1942 62.404 72.1942 62.404C72.1942 62.404 73.6344 61.12 73.929 59.3929C74.2236 57.6657 73.1982 56.1704 73.1982 56.1704C73.1982 56.1704 71.7669 57.5173 71.4633 59.1816Z" fill="#FFAA2E"/>
<path d="M66.6152 57.6297C68.1733 58.3772 70.0107 57.8685 70.0107 57.8685C70.0107 57.8685 69.309 56.21 67.6956 55.5358C66.1375 54.7884 64.3001 55.297 64.3001 55.297C64.3001 55.297 65.0661 56.9443 66.6152 57.6297Z" fill="#FFAA2E"/>
<path d="M68.5233 55.0162C68.64 56.7412 70.0351 57.9877 70.0351 57.9877C70.0351 57.9877 71.1572 56.4374 71.0404 54.7125C70.9237 52.9876 69.5286 51.7411 69.5286 51.7411C69.5286 51.7411 68.4066 53.2913 68.5233 55.0162Z" fill="#FFAA2E"/>
<path d="M63.6918 54.3699C65.4023 54.8332 67.1349 54.0919 67.1349 54.0919C67.1349 54.0919 66.1324 52.6218 64.486 52.1474C62.7754 51.6842 61.0429 52.4254 61.0429 52.4254C61.0429 52.4254 62.0454 53.8956 63.6918 54.3699Z" fill="#FFAA2E"/>
<path d="M65.1555 51.4449C65.6008 53.1131 67.165 54.1364 67.165 54.1364C67.165 54.1364 67.9962 52.4424 67.6258 50.826C67.1804 49.1578 65.6162 48.1345 65.6162 48.1345C65.6162 48.1345 64.7193 49.8398 65.1555 51.4449Z" fill="#FFAA2E"/>
<path d="M62.2434 49.5397C62.188 49.6131 62.1326 49.6865 62.0128 49.771L61.9574 49.8443C68.1538 53.4254 72.5863 59.4162 73.6489 66.7561C75.63 80.4406 65.0137 93.7575 50.0069 96.3579C35.0001 98.9582 21.1508 89.9443 19.1607 76.1976C18.1431 69.1687 20.3895 62.3394 24.8847 56.9058C24.7469 56.8659 24.5446 56.8372 24.4068 56.7973C19.9206 62.2931 17.6832 69.1846 18.7098 76.2757C20.727 90.2091 34.7965 99.376 50.0609 96.7311C65.3253 94.0861 76.1169 80.6113 74.0997 66.6779C73.0281 59.2758 68.5132 53.1718 62.2434 49.5397Z" fill="#FF9912"/>
<path d="M27.5826 56.6159C25.9087 57.28 24.1838 56.6974 24.1838 56.6974C24.1838 56.6974 25.1298 55.0911 26.8126 54.4882C28.4866 53.8241 30.2115 54.4068 30.2115 54.4068C30.2115 54.4068 29.1926 55.9628 27.5826 56.6159Z" fill="#FFAA2E"/>
<path d="M26.0034 53.7666C25.6429 55.4424 24.1428 56.6694 24.1428 56.6694C24.1428 56.6694 23.2406 55.0822 23.6011 53.4064C23.9616 51.7306 25.4617 50.5036 25.4617 50.5036C25.4617 50.5036 26.3639 52.0908 26.0034 53.7666Z" fill="#FFAA2E"/>
<path d="M59.7292 51.5302C61.5105 51.601 62.9849 50.469 62.9849 50.469C62.9849 50.469 61.6274 49.2583 59.855 49.2487C58.0737 49.178 56.5993 50.31 56.5993 50.31C56.5993 50.31 57.9479 51.4594 59.7292 51.5302Z" fill="#FFAA2E"/>
<path d="M60.3711 48.3554C61.1896 49.8279 62.9644 50.49 62.9644 50.49C62.9644 50.49 63.3721 48.6769 62.5537 47.2044C61.7352 45.7319 59.9604 45.0698 59.9604 45.0698C59.9604 45.0698 59.5527 46.8829 60.3711 48.3554Z" fill="#FFAA2E"/>
<path d="M37.269 49.4021L34.7913 49.1072L32.8534 50.6556L32.4306 48.2772L30.3794 46.8798L32.5664 45.6765L33.272 43.3673L35.0308 45.0068L37.516 44.9138L36.4612 47.088L37.269 49.4021Z" fill="#FFEC03"/>
<path d="M52.7139 47.1918L54.975 48.2321L54.9371 45.7887L56.6357 43.9577L54.3029 43.3161L53.1288 41.1916L51.7247 43.2313L49.2315 43.7124L50.7622 45.584L50.4056 48.0288L52.7139 47.1918Z" fill="#FFEC03"/>
<path d="M45.9122 47.7069L43.5163 47.0764L41.3299 48.2794L41.292 45.8372L39.4695 44.2088L41.8315 43.2986L42.8859 41.1249L44.416 42.9955L46.8289 43.3011L45.4254 45.3398L45.9122 47.7069Z" fill="#FFEC03"/>
<path d="M39.7806 81.5351L36.055 82.1252L34.4395 71.9252L34.2103 70.2436L33.9803 68.4014C33.4594 69.1183 33.0937 69.5923 32.8831 69.8234L31.1153 71.7719L28.9637 69.8139L33.9263 64.3932L36.9887 63.9082L39.7806 81.5351ZM53.3685 79.383L46.9342 66.2261L46.8257 66.2433C47.424 69.0323 47.7976 70.8971 47.9466 71.8375L49.2451 80.0361L45.9054 80.565L43.1136 62.9381L48.2015 62.1322L54.5081 74.9509L54.5804 74.9395L56.8703 60.7592L61.9583 59.9534L64.7501 77.5803L61.2657 78.1322L59.9442 69.7889C59.8819 69.3951 59.814 68.9403 59.7405 68.4246C59.6751 67.9077 59.515 66.5323 59.26 64.2986L59.1515 64.3158L56.7926 78.8407L53.3685 79.383Z" fill="#ED1CBF"/>
<defs>
<filter id="filter0_d" x="0" y="0" width="200" height="133.672" filterUnits="userSpaceOnUse" color-interpolation-filters="sRGB">
<feFlood flood-opacity="0" result="BackgroundImageFix"/>
<feColorMatrix in="SourceAlpha" type="matrix" values="0 0 0 0 0 0 0 0 0 0 0 0 0 0 0 0 0 0 127 0"/>
<feOffset dy="4"/>
<feGaussianBlur stdDeviation="2"/>
<feColorMatrix type="matrix" values="0 0 0 0 0 0 0 0 0 0 0 0 0 0 0 0 0 0 0.25 0"/>
<feBlend mode="normal" in2="BackgroundImageFix" result="effect1_dropShadow"/>
<feBlend mode="normal" in="SourceGraphic" in2="effect1_dropShadow" result="shape"/>
</filter>
<linearGradient id="paint0_linear" x1="98.5651" y1="0" x2="98.5651" y2="104.774" gradientUnits="userSpaceOnUse">
<stop stop-color="#FF9905"/>
<stop offset="1" stop-color="#C822AD"/>
</linearGradient>
</defs>
</svg>
