<svg width="168" height="219" viewBox="0 0 168 219" fill="none" xmlns="http://www.w3.org/2000/svg">
<path fill-rule="evenodd" clip-rule="evenodd" d="M136.524 75.5059H154.664C158.132 75.5059 161.2 76.9731 163.468 79.2407C165.735 81.5083 167.202 84.7095 167.202 88.0442V103.784C167.202 107.252 165.735 110.32 163.468 112.587C161.2 114.855 157.999 116.322 154.664 116.322H136.39C132.922 116.322 129.854 114.855 127.587 112.587C125.319 110.32 123.852 107.118 123.852 103.784V88.0442C123.852 84.5761 125.319 81.5083 127.587 79.2407C129.854 76.8397 133.055 75.5059 136.524 75.5059ZM154.664 80.7079H136.39C134.389 80.7079 132.522 81.5082 131.188 82.8421C129.854 84.176 129.054 86.0434 129.054 88.0442V103.784C129.054 105.785 129.854 107.652 131.188 108.986C132.522 110.32 134.389 111.12 136.39 111.12H154.664C156.665 111.12 158.532 110.32 159.866 108.986C161.2 107.652 162 105.785 162 103.784V88.0442C162 86.0434 161.2 84.176 159.866 82.8421C158.532 81.5082 156.665 80.7079 154.664 80.7079Z" fill="url(#paint0_linear)"/>
<path fill-rule="evenodd" clip-rule="evenodd" d="M12.7405 75.5059H31.0144C34.4824 75.5059 37.5503 76.9731 39.8179 79.2407C42.0855 81.5083 43.5527 84.7095 43.5527 88.0442V103.784C43.5527 107.252 42.0855 110.32 39.8179 112.587C37.5503 114.855 34.3491 116.322 31.0144 116.322H12.7405C9.27242 116.322 6.20453 114.855 3.93697 112.587C1.6694 110.32 0.202148 107.118 0.202148 103.784V88.0442C0.202148 84.5761 1.6694 81.5083 3.93697 79.2407C6.07115 76.8397 9.27242 75.5059 12.7405 75.5059ZM30.881 80.7079H12.7405C10.7397 80.7079 8.87226 81.5082 7.5384 82.8421C6.20454 84.176 5.40421 86.0434 5.40421 88.0442V103.784C5.40421 105.785 6.20454 107.652 7.5384 108.986C8.87226 110.32 10.7397 111.12 12.7405 111.12H31.0144C33.0152 111.12 34.8826 110.32 36.2165 108.986C37.5503 107.652 38.3507 105.785 38.3507 103.784V88.0442C38.3507 86.0434 37.5503 84.176 36.2165 82.8421C34.7492 81.5082 32.8818 80.7079 30.881 80.7079Z" fill="url(#paint1_linear)"/>
<path fill-rule="evenodd" clip-rule="evenodd" d="M28.747 61.7671H138.391C145.727 61.7671 152.796 67.9029 151.729 75.1057L131.855 205.558C130.788 212.76 125.852 218.896 118.516 218.896H48.6215C41.2853 218.896 36.35 212.76 35.2829 205.558L15.4083 75.1057C14.3412 67.9029 21.4107 61.7671 28.747 61.7671Z" fill="url(#paint2_linear)"/>
<path fill-rule="evenodd" clip-rule="evenodd" d="M83.5691 61.7671H138.391C145.727 61.7671 152.797 67.9029 151.73 75.1057L131.855 205.558C130.788 212.76 125.853 218.896 118.516 218.896H83.5691V61.7671Z" fill="url(#paint3_linear)"/>
<path fill-rule="evenodd" clip-rule="evenodd" d="M10.4731 54.8311H156.798C159.732 54.8311 162 57.232 162 60.0331V65.9021C162 68.8366 159.599 71.1042 156.798 71.1042H10.4731C7.53857 71.1042 5.271 68.7032 5.271 65.9021V60.0331C5.271 57.232 7.53857 54.8311 10.4731 54.8311Z" fill="#FF8C00"/>
<path fill-rule="evenodd" clip-rule="evenodd" d="M83.5686 54.8311H158.532C160.399 54.8311 162 57.232 162 60.0331V65.9021C162 68.8366 160.399 71.1042 158.532 71.1042H83.5686V54.8311Z" fill="#E77F00"/>
<path fill-rule="evenodd" clip-rule="evenodd" d="M101.709 5.61164L83.9685 1.34327C80.6339 0.542954 77.1658 1.20988 74.4981 2.81052C71.697 4.54454 69.6962 7.21228 68.8959 10.5469L67.562 16.1492L72.6307 17.3496L73.9646 11.7474C74.4981 9.74661 75.6986 8.14598 77.2992 7.21228C78.8999 6.27857 80.9007 5.87841 82.7681 6.27857L100.508 10.5469C102.509 11.0805 104.11 12.281 105.044 13.8816C105.977 15.4822 106.377 17.483 105.977 19.3504L104.643 24.9527L109.712 26.1531L111.046 20.5509C111.846 17.2163 111.179 13.7482 109.579 11.0805C107.711 8.54614 105.044 6.41196 101.709 5.61164Z" fill="#F68503"/>
<path fill-rule="evenodd" clip-rule="evenodd" d="M101.708 5.61172L92.9043 3.47754L91.7039 8.54623L100.507 10.6804C102.508 11.214 104.109 12.4144 105.042 14.0151C105.976 15.6157 106.376 17.6165 105.976 19.4839L104.642 25.0861L109.711 26.2866L111.045 20.6844C111.845 17.3497 111.178 13.8817 109.578 11.214C107.71 8.54623 105.042 6.41204 101.708 5.61172Z" fill="#ED7500"/>
<path fill-rule="evenodd" clip-rule="evenodd" d="M18.3429 0.142742L160.533 34.2897C163.334 34.9566 165.068 37.7577 164.401 40.6922L163.067 46.2944C162.4 49.0955 159.599 50.8296 156.665 50.1626L14.6081 16.0157C11.807 15.3488 10.073 12.5477 10.7399 9.61318L12.0738 4.01095C12.7407 1.20983 15.5418 -0.52419 18.3429 0.142742Z" fill="#E77F00"/>
<path fill-rule="evenodd" clip-rule="evenodd" d="M89.5696 17.2163L162.399 34.6899C164.266 35.0901 165.2 37.7578 164.533 40.5589L163.199 46.1611C162.532 48.9623 160.398 50.9631 158.664 50.4295L85.7014 33.0893L89.5696 17.2163Z" fill="#FF8C00"/>
<path fill-rule="evenodd" clip-rule="evenodd" d="M86.9611 91.9203C88.0307 91.9203 88.9221 91.9203 89.9917 91.9203V80.8677L112.988 99.5859L89.9917 118.304V104.934C88.9221 104.934 88.0307 104.756 86.9611 104.756C76.6216 104.756 67.1733 109.034 60.3991 115.808C55.2294 120.978 51.4857 127.574 50.0596 135.061L38.1156 129C40.4331 120.443 45.068 112.778 51.1292 106.538C60.3991 97.6249 73.0562 91.9203 86.9611 91.9203ZM134.915 186.759L124.754 176.598C132.776 167.684 137.768 155.74 137.768 142.727C137.768 128.644 132.063 115.987 122.971 106.895C121.367 105.29 119.763 103.864 117.98 102.438L107.462 110.995C109.78 112.421 111.74 114.204 113.701 115.987C120.476 122.761 124.754 132.209 124.754 142.549C124.754 151.997 121.367 160.554 115.484 167.15L108.353 160.019L105.323 189.611L134.915 186.759ZM29.2021 164.832L37.2242 136.309L63.608 149.858L51.4857 155.206C53.4467 160.732 56.4772 165.545 60.3991 169.467C67.1733 176.241 76.6216 180.52 86.9611 180.52C91.7744 180.52 96.4094 179.628 100.688 178.024L99.2617 192.107C95.3398 192.999 91.2396 193.533 86.9611 193.533C72.8779 193.533 60.2209 187.829 51.1292 178.737C45.9594 173.567 42.0375 167.328 39.3635 160.375L29.2021 164.832Z" fill="url(#paint4_linear)"/>
<path fill-rule="evenodd" clip-rule="evenodd" d="M86.9604 91.9203C88.03 91.9203 88.9214 91.9203 89.991 91.9203V80.8677L112.988 99.5859L89.991 118.304V104.934C88.9214 104.934 88.03 104.756 86.9604 104.756C85.7125 104.756 84.6429 104.756 83.395 104.934V91.9203C84.6429 92.0986 85.8908 91.9203 86.9604 91.9203ZM134.915 186.759L124.753 176.598C132.775 167.684 137.767 155.74 137.767 142.727C137.767 128.644 132.062 115.987 122.971 106.895C121.366 105.29 119.762 103.864 117.979 102.438L107.461 110.995C109.779 112.421 111.74 114.204 113.701 115.987C120.475 122.761 124.753 132.209 124.753 142.549C124.753 151.997 121.366 160.554 115.483 167.15L108.353 160.019L105.322 189.611L134.915 186.759ZM83.395 180.163C84.6429 180.341 85.7125 180.341 86.9604 180.341C91.7736 180.341 96.4086 179.45 100.687 177.846L99.2609 191.929C95.339 192.82 91.2388 193.355 86.9604 193.355C85.7125 193.355 84.6429 193.355 83.395 193.177V180.163Z" fill="url(#paint5_linear)"/>
<path d="M77.374 153H62.4033V149.851L67.7793 144.416C69.3711 142.785 70.4111 141.657 70.8994 141.032C71.3877 140.397 71.7393 139.812 71.9541 139.274C72.1689 138.737 72.2764 138.181 72.2764 137.604C72.2764 136.745 72.0371 136.105 71.5586 135.686C71.0898 135.266 70.46 135.056 69.6689 135.056C68.8389 135.056 68.0332 135.246 67.252 135.627C66.4707 136.008 65.6553 136.55 64.8057 137.253L62.3447 134.338C63.3994 133.439 64.2734 132.805 64.9668 132.434C65.6602 132.062 66.417 131.779 67.2373 131.584C68.0576 131.379 68.9756 131.276 69.9912 131.276C71.3291 131.276 72.5107 131.521 73.5361 132.009C74.5615 132.497 75.3574 133.181 75.9238 134.06C76.4902 134.938 76.7734 135.944 76.7734 137.077C76.7734 138.063 76.5977 138.991 76.2461 139.86C75.9043 140.72 75.3672 141.604 74.6348 142.512C73.9121 143.42 72.6328 144.714 70.7969 146.394L68.043 148.986V149.191H77.374V153ZM87.335 139.318C89.4053 139.318 91.0508 139.899 92.2715 141.062C93.502 142.224 94.1172 143.815 94.1172 145.837C94.1172 148.229 93.3799 150.07 91.9053 151.359C90.4307 152.648 88.3213 153.293 85.5771 153.293C83.1943 153.293 81.2705 152.907 79.8057 152.136V148.225C80.5771 148.635 81.4756 148.972 82.501 149.235C83.5264 149.489 84.498 149.616 85.416 149.616C88.1797 149.616 89.5615 148.483 89.5615 146.218C89.5615 144.06 88.1309 142.98 85.2695 142.98C84.752 142.98 84.1807 143.034 83.5557 143.142C82.9307 143.239 82.4229 143.347 82.0322 143.464L80.2305 142.497L81.0361 131.584H92.6523V135.422H85.0059L84.6104 139.626L85.123 139.523C85.7188 139.387 86.4561 139.318 87.335 139.318ZM115.401 153H110.245L104.635 143.977L102.716 145.354V153H98.1748V131.584H102.716V141.384L104.503 138.864L110.304 131.584H115.343L107.872 141.062L115.401 153Z" fill="#FFBF00"/>
<defs>
<linearGradient id="paint0_linear" x1="145.73" y1="70.601" x2="145.73" y2="113.059" gradientUnits="userSpaceOnUse">
<stop stop-color="#00A4ED"/>
<stop offset="1" stop-color="#0009E3"/>
</linearGradient>
<linearGradient id="paint1_linear" x1="22.0806" y1="70.601" x2="22.0806" y2="113.059" gradientUnits="userSpaceOnUse">
<stop stop-color="#00A4ED"/>
<stop offset="1" stop-color="#0009E3"/>
</linearGradient>
<linearGradient id="paint2_linear" x1="84.2087" y1="42.8849" x2="84.2087" y2="206.335" gradientUnits="userSpaceOnUse">
<stop stop-color="#00A4ED"/>
<stop offset="1" stop-color="#0009E3"/>
</linearGradient>
<linearGradient id="paint3_linear" x1="118.023" y1="42.8849" x2="118.023" y2="206.335" gradientUnits="userSpaceOnUse">
<stop stop-color="#00A4ED"/>
<stop offset="1" stop-color="#0009E3"/>
</linearGradient>
<linearGradient id="paint4_linear" x1="83.4849" y1="80.8677" x2="83.4849" y2="193.533" gradientUnits="userSpaceOnUse">
<stop stop-color="#FFC700"/>
<stop offset="1" stop-color="#FF4070"/>
</linearGradient>
<linearGradient id="paint5_linear" x1="110.581" y1="80.8677" x2="110.581" y2="193.355" gradientUnits="userSpaceOnUse">
<stop stop-color="#FFC700"/>
<stop offset="1" stop-color="#FF4070"/>
</linearGradient>
</defs>
</svg>
