<svg width="200" height="138" viewBox="0 0 200 138" fill="none" xmlns="http://www.w3.org/2000/svg">
<g filter="url(#filter0_d)">
<path d="M7.02159 94.9368C7.02159 94.9368 4.1037 97.8547 4.1037 109.04C4.1037 120.225 0.796759 121.879 31.5319 121.879C62.2669 121.879 58.571 121.49 58.571 110.693C58.571 110.693 71.896 111.082 93.8774 118.183C115.859 125.283 176.356 123.824 189.973 104.76C203.59 85.7941 189.876 90.3654 189.876 90.3654C189.876 90.3654 29.8784 79.5692 7.02159 94.9368Z" fill="#4C094E"/>
<path d="M15.3858 41.3445C15.3858 41.3445 7.11841 48.4447 7.11841 94.9364C7.11841 94.9364 53.6101 89.976 90.181 100.286C126.752 110.693 174.897 101.161 189.875 90.365C189.875 90.365 192.793 67.1192 171.59 65.4657C150.387 63.8122 115.567 65.0767 102.242 51.3626C88.8193 37.6485 89.3056 23.5454 89.3056 12.7492C89.3056 1.953 75.9806 -5.53625 64.0172 5.25994L15.3858 41.3445Z" fill="url(#paint0_linear)"/>
<path d="M74.7162 33.0775C74.7162 37.6488 71.0202 41.3448 66.4488 41.3448H15.3858C10.8144 41.3448 7.11841 37.6488 7.11841 33.0775V13.5276C7.11841 8.95625 10.8144 5.26025 15.3858 5.26025H66.4488C71.0202 5.26025 74.7162 8.95625 74.7162 13.5276V33.0775Z" fill="#4C094E"/>
<path d="M11.5924 124.018C11.5924 124.893 10.8143 125.672 9.9389 125.672H5.65933C4.78396 125.672 4.00586 124.893 4.00586 124.018V116.14C4.00586 115.264 4.78396 114.486 5.65933 114.486H9.9389C10.8143 114.486 11.5924 115.264 11.5924 116.14V124.018Z" fill="#4C094E"/>
<path d="M23.3609 124.018C23.3609 124.893 22.5828 125.672 21.7075 125.672H17.4279C16.5525 125.672 15.7744 124.893 15.7744 124.018V116.14C15.7744 115.264 16.5525 114.486 17.4279 114.486H21.7075C22.5828 114.486 23.3609 115.264 23.3609 116.14V124.018Z" fill="#4C094E"/>
<path d="M35.2288 124.018C35.2288 124.893 34.4507 125.672 33.5754 125.672H29.2958C28.4204 125.672 27.6423 124.893 27.6423 124.018V116.14C27.6423 115.264 28.4204 114.486 29.2958 114.486H33.5754C34.4507 114.486 35.2288 115.264 35.2288 116.14V124.018Z" fill="#4C094E"/>
<path d="M46.9976 124.018C46.9976 124.893 46.2195 125.672 45.3442 125.672H41.0646C40.1892 125.672 39.4111 124.893 39.4111 124.018V116.14C39.4111 115.264 40.1892 114.486 41.0646 114.486H45.3442C46.2195 114.486 46.9976 115.264 46.9976 116.14V124.018Z" fill="#4C094E"/>
<path d="M58.7662 124.018C58.7662 124.893 57.9881 125.672 57.1127 125.672H52.8332C51.9578 125.672 51.1797 124.893 51.1797 124.018V116.14C51.1797 115.264 51.9578 114.486 52.8332 114.486H57.1127C57.9881 114.486 58.7662 115.264 58.7662 116.14V124.018Z" fill="#4C094E"/>
<path d="M147.664 124.018C147.664 124.893 146.886 125.672 146.01 125.672H141.731C140.855 125.672 140.077 124.893 140.077 124.018V116.14C140.077 115.264 140.855 114.486 141.731 114.486H146.01C146.886 114.486 147.664 115.264 147.664 116.14V124.018Z" fill="#A67C52"/>
<path d="M100.492 124.018C100.492 124.893 99.7137 125.672 98.8383 125.672H94.5587C93.6834 125.672 92.9053 124.893 92.9053 124.018V116.14C92.9053 115.264 93.6834 114.486 94.5587 114.486H98.8383C99.7137 114.486 100.492 115.264 100.492 116.14V124.018Z" fill="#4C094E"/>
<path d="M112.358 124.018C112.358 124.893 111.58 125.672 110.705 125.672H106.425C105.55 125.672 104.771 124.893 104.771 124.018V116.14C104.771 115.264 105.55 114.486 106.425 114.486H110.705C111.58 114.486 112.358 115.264 112.358 116.14V124.018Z" fill="#4C094E"/>
<path d="M124.127 124.018C124.127 124.893 123.348 125.672 122.473 125.672H118.194C117.318 125.672 116.54 124.893 116.54 124.018V116.14C116.54 115.264 117.318 114.486 118.194 114.486H122.473C123.348 114.486 124.127 115.264 124.127 116.14V124.018Z" fill="#4C094E"/>
<path d="M135.895 124.018C135.895 124.893 135.117 125.672 134.242 125.672H129.962C129.087 125.672 128.309 124.893 128.309 124.018V116.14C128.309 115.264 129.087 114.486 129.962 114.486H134.242C135.117 114.486 135.895 115.264 135.895 116.14V124.018Z" fill="#4C094E"/>
<path d="M147.664 124.018C147.664 124.893 146.886 125.672 146.01 125.672H141.731C140.855 125.672 140.077 124.893 140.077 124.018V116.14C140.077 115.264 140.855 114.486 141.731 114.486H146.01C146.886 114.486 147.664 115.264 147.664 116.14V124.018Z" fill="#4C094E"/>
<path d="M159.432 124.018C159.432 124.893 158.654 125.672 157.779 125.672H153.499C152.624 125.672 151.846 124.893 151.846 124.018V116.14C151.846 115.264 152.624 114.486 153.499 114.486H157.779C158.654 114.486 159.432 115.264 159.432 116.14V124.018Z" fill="#4C094E"/>
<path d="M171.201 121.781C171.201 122.656 170.423 123.434 169.547 123.434H165.268C164.392 123.434 163.614 122.656 163.614 121.781V113.902C163.614 113.027 164.392 112.249 165.268 112.249H169.547C170.423 112.249 171.201 113.027 171.201 113.902V121.781Z" fill="#4C094E"/>
<path d="M183.067 118.376C183.067 119.252 182.289 120.03 181.414 120.03H177.134C176.259 120.03 175.48 119.252 175.48 118.376V110.498C175.48 109.623 176.259 108.845 177.134 108.845H181.414C182.289 108.845 183.067 109.623 183.067 110.498V118.376Z" fill="#4C094E"/>
<path d="M191.043 110.595C191.043 111.471 190.264 112.249 189.389 112.249H185.11C184.234 112.249 183.456 111.471 183.456 110.595V102.717C183.456 101.842 184.234 101.063 185.11 101.063H189.389C190.264 101.063 191.043 101.842 191.043 102.717V110.595Z" fill="#4C094E"/>
<path d="M90.8625 18.2931H79.9691C78.1211 18.2931 76.6621 16.8341 76.6621 14.9861C76.6621 13.1381 78.1211 11.6792 79.9691 11.6792H90.8625C92.7105 11.6792 94.1694 13.1381 94.1694 14.9861C94.1694 16.8341 92.6132 18.2931 90.8625 18.2931Z" fill="#333333"/>
<path d="M155.638 76.6506C155.249 76.6506 154.86 76.5533 154.471 76.456C152.721 75.7752 151.942 73.8299 152.623 72.1765L156.611 62.0611C157.292 60.3104 159.237 59.5323 160.891 60.2131C162.641 60.894 163.419 62.8392 162.739 64.4927L158.751 74.608C158.265 75.8725 157 76.6506 155.638 76.6506Z" fill="#333333"/>
<path d="M99.4205 66.0495C99.0315 65.9522 98.6424 65.855 98.2534 65.5632C96.6972 64.5905 96.3081 62.548 97.2808 60.9918L103.214 51.8491C104.186 50.2929 106.229 49.9038 107.785 50.8765C109.341 51.8491 109.73 53.8916 108.758 55.4478L102.825 64.5905C102.047 65.7577 100.685 66.244 99.4205 66.0495Z" fill="#333333"/>
<path d="M87.2643 53.2104C86.8752 53.0159 86.5834 52.7241 86.2916 52.4323C85.1245 51.0706 85.2217 48.9308 86.6807 47.7637L94.948 40.6635C96.3097 39.4963 98.4495 39.5936 99.6167 41.0525C100.784 42.4142 100.687 44.554 99.2276 45.7211L90.9603 52.8213C89.8904 53.6967 88.4314 53.794 87.2643 53.2104Z" fill="#333333"/>
<path d="M78.9969 35.3143C78.7051 35.0226 78.5106 34.6335 78.4133 34.2445C77.8297 32.4937 78.8024 30.6457 80.5531 30.0621L90.863 26.6579C92.6137 26.0744 94.4617 27.047 95.0453 28.7977C95.6289 30.5485 94.6562 32.3965 92.9055 32.98L82.5956 36.287C81.2339 36.7733 79.775 36.287 78.9969 35.3143Z" fill="#333333"/>
<path d="M120.138 74.1221C119.749 74.1221 119.359 74.1221 118.873 74.0249C117.122 73.5386 116.053 71.6906 116.636 69.9398L119.651 59.4354C120.138 57.6847 121.986 56.6148 123.736 57.1984C125.487 57.6847 126.557 59.5327 125.973 61.2834L122.958 71.7878C122.666 73.0522 121.499 73.9276 120.138 74.1221Z" fill="#333333"/>
<path d="M139.494 75.2891C139.105 75.2891 138.716 75.2891 138.229 75.1919C136.479 74.7055 135.409 72.8576 135.992 71.1068L139.007 60.6024C139.494 58.8517 141.342 57.7818 143.093 58.3654C144.843 58.8517 145.913 60.6997 145.33 62.4504L142.314 72.9548C142.023 74.2192 140.855 75.1919 139.494 75.2891Z" fill="#333333"/>
<g opacity="0.3">
<path opacity="0.3" d="M14.2181 36.4817C12.3701 36.4817 10.9111 35.0227 10.9111 33.1747V12.0687C10.9111 10.2207 12.3701 8.76172 14.2181 8.76172H34.4488C36.2968 8.76172 37.7557 10.2207 37.7557 12.0687C37.7557 13.9167 36.2968 15.3756 34.4488 15.3756H17.525V33.0775C17.525 34.9255 16.0661 36.4817 14.2181 36.4817Z" fill="#F2F2F2"/>
</g>
<g opacity="0.3">
<path opacity="0.3" d="M15.8734 91.4351C14.1227 91.4351 12.6637 90.0735 12.5665 88.3227C10.6212 55.8369 18.8886 47.375 19.8612 46.4996C21.2229 45.2352 23.3627 45.4298 24.5298 46.7914C25.697 48.1531 25.5997 50.1956 24.3353 51.4601C24.0435 51.7518 17.4296 59.3384 19.1804 88.0309C19.2776 89.8789 17.9159 91.4351 16.068 91.5324C15.9707 91.4351 15.8734 91.4351 15.8734 91.4351Z" fill="#F2F2F2"/>
</g>
</g>
<path d="M88.7264 123.191L77.2279 116.547L71.9158 128.905L51.7549 67.8899L68.5751 62.2389L88.7264 123.191Z" fill="#ED1CBF"/>
<path d="M26.4206 130.101L36.4445 120.983L43.9008 131.786L51.9357 67.6268L34.3814 65.89L26.4206 130.101Z" fill="#ED1CBF"/>
<path d="M29.5451 104.137C34.575 107.244 40.3657 109.255 46.5282 109.779L51.763 67.6232L34.3171 65.9403L29.5451 104.137Z" fill="#D919AF"/>
<path d="M68.5201 62.185L51.7534 67.8296L64.7388 107.04C70.6577 104.564 75.7671 100.668 79.6907 95.935L68.5201 62.185Z" fill="#D919AF"/>
<path d="M55.3421 105.89C74.2646 102.727 87.3478 85.1311 84.5642 66.5874C81.7807 48.0438 64.1846 35.5747 45.2621 38.737C26.3397 41.8993 13.2565 59.4955 16.04 78.0391C18.8235 96.5828 36.4197 109.052 55.3421 105.89Z" fill="#FFCF03"/>
<path d="M70.3444 44.1891C77.1533 49.2388 81.9733 56.8123 83.323 65.8037C86.1073 84.3524 73.0284 101.943 54.1008 105.106C44.9258 106.639 36.0562 104.512 29.0284 99.7567C36.2148 105.13 45.6636 107.612 55.4162 105.982C74.3438 102.819 87.4226 85.2283 84.6383 66.6796C83.1396 57.1331 77.8044 49.1945 70.3444 44.1891Z" fill="#FFA506"/>
<path d="M71.5452 68.6356C71.8519 70.7558 70.1775 72.8999 69.8118 74.945C69.4551 77.0524 70.2767 79.5307 69.2296 81.4383C68.1825 83.3458 65.5907 84.1787 64.0196 85.6657C62.4486 87.1527 61.6298 89.7238 59.6549 90.7055C57.7445 91.676 55.1853 90.9052 52.9912 91.2857C50.797 91.6662 48.5806 93.2651 46.4898 92.9884C44.3345 92.7229 42.8301 90.5547 40.9163 89.672C38.9934 88.727 36.3024 88.874 34.7681 87.4142C33.2984 85.9431 33.3803 83.308 32.3817 81.4356C31.4567 79.6144 29.2591 78.1417 28.9524 76.0215C28.6456 73.9013 30.3201 71.7572 30.6858 69.7121C31.0424 67.6047 30.2208 65.1263 31.268 63.2188C32.3151 61.3113 34.9069 60.4783 36.4779 58.9914C38.0489 57.5044 38.8678 54.9333 40.8427 53.9516C42.753 52.9811 45.3122 53.7519 47.5064 53.3714C49.7006 52.9909 51.9169 51.392 54.0077 51.6687C56.163 51.9342 57.6675 54.1024 59.5813 54.985C61.5042 55.9301 64.1952 55.7831 65.7294 57.2429C67.1992 58.714 67.1173 61.3491 68.1158 63.2215C69.0408 65.0427 71.2385 66.5154 71.5452 68.6356Z" fill="#FFEC03"/>
<path d="M55.9351 89.6917C53.2079 89.5893 52.4335 89.7235 49.8687 90.7436C48.9922 91.0874 47.7466 91.623 46.8715 91.5191C45.315 91.2776 43.773 89.3076 41.7766 88.3113C39.7801 87.3151 37.1355 87.3262 36.0605 86.298C34.9856 85.2698 35.012 82.7082 33.9954 80.7111C33.5374 79.8316 32.9038 79.1104 32.3438 78.4404C30.3515 76.101 30.2793 75.6021 31.5138 72.7032C31.9128 71.8029 32.2473 70.9139 32.4437 69.9849C32.8469 67.7415 32.0988 65.3142 32.8309 63.9727C33.563 62.6311 36.0813 61.7469 37.6989 60.124C39.3165 58.501 40.227 56.1058 41.6391 55.3495C42.442 54.9545 43.7779 55.0425 44.7085 55.0729C47.4357 55.1753 48.2101 55.041 50.7749 54.021C51.7159 53.666 52.897 53.1416 53.7721 53.2455C55.3286 53.487 56.8705 55.457 58.867 56.4533C60.928 57.4383 63.5081 57.4384 64.583 58.4666C65.6579 59.4948 65.6316 62.0564 66.6482 64.0535C67.1062 64.933 67.7398 65.6542 68.2998 66.3242C70.2921 68.6636 70.3643 69.1625 69.1297 72.0614C68.1457 74.4055 67.9868 75.1363 68.0986 77.7379C68.2089 80.7872 68.0604 81.1325 65.3367 82.8834C64.4873 83.4142 63.6379 83.9451 62.8891 84.7142C61.2715 86.3371 60.3611 88.7324 58.9489 89.4887C58.8198 89.5111 56.9302 89.7109 55.9351 89.6917Z" fill="#FFDC01"/>
<path d="M48.7899 95.826C50.2947 96.6347 50.9265 98.2949 50.9265 98.2949C50.9265 98.2949 49.0617 98.6896 47.5569 97.8808C46.052 97.072 45.4203 95.4118 45.4203 95.4118C45.4203 95.4118 47.2204 95.0287 48.7899 95.826Z" fill="#FFAA2E"/>
<path d="M47.5698 98.9291C49.1603 98.0881 50.9795 98.391 50.9795 98.391C50.9795 98.391 50.2335 100.08 48.643 100.921C47.0525 101.762 45.2332 101.46 45.2332 101.46C45.2332 101.46 45.9793 99.7701 47.5698 98.9291Z" fill="#FFAA2E"/>
<path d="M43.2236 95.1982C44.6315 96.221 45.0065 97.9368 45.0065 97.9368C45.0065 97.9368 43.0987 98.0851 41.6909 97.0623C40.283 96.0395 39.908 94.3237 39.908 94.3237C39.908 94.3237 41.8245 94.2375 43.2236 95.1982Z" fill="#FFAA2E"/>
<path d="M41.5821 98.1217C43.2694 97.5154 44.9842 98.0211 44.9842 98.0211C44.9842 98.0211 44.0209 99.5554 42.3423 100.222C40.655 100.829 38.9402 100.323 38.9402 100.323C38.9402 100.323 39.9035 98.7886 41.5821 98.1217Z" fill="#FFAA2E"/>
<path d="M38.7133 93.8192C39.8873 95.0194 40.0125 96.8541 40.0125 96.8541C40.0125 96.8541 38.1127 96.6793 36.9387 95.4792C35.7647 94.279 35.6396 92.4443 35.6396 92.4443C35.6396 92.4443 37.5305 92.5566 38.7133 93.8192Z" fill="#FFAA2E"/>
<path d="M36.6267 96.4314C38.3475 96.0682 39.9677 96.8365 39.9677 96.8365C39.9677 96.8365 38.7869 98.2191 37.0021 98.5936C35.2813 98.9568 33.6611 98.1885 33.6611 98.1885C33.6611 98.1885 34.906 96.7947 36.6267 96.4314Z" fill="#FFAA2E"/>
<path d="M34.3441 91.2452C35.2261 92.6977 34.807 94.509 34.807 94.509C34.807 94.509 33.0338 93.9218 32.1518 92.4693C31.2698 91.0168 31.6888 89.2055 31.6888 89.2055C31.6888 89.2055 33.462 89.7927 34.3441 91.2452Z" fill="#FFAA2E"/>
<path d="M31.6512 93.3691C33.4253 93.3681 34.7782 94.5587 34.7782 94.5587C34.7782 94.5587 33.2327 95.6993 31.5141 95.6285C29.74 95.6295 28.3871 94.4389 28.3871 94.4389C28.3871 94.4389 29.9326 93.2983 31.6512 93.3691Z" fill="#FFAA2E"/>
<path d="M30.7902 88.0911C31.2313 89.7544 30.3844 91.4511 30.3844 91.4511C30.3844 91.4511 28.8114 90.4385 28.3793 88.838C27.9383 87.1747 28.7851 85.478 28.7851 85.478C28.7851 85.478 30.3492 86.4277 30.7902 88.0911Z" fill="#FFAA2E"/>
<path d="M27.7174 89.4793C29.4276 89.9282 30.4153 91.3178 30.4153 91.3178C30.4153 91.3178 28.6772 92.0626 26.9757 91.6747C25.2656 91.2259 24.2778 89.8362 24.2778 89.8362C24.2778 89.8362 26.0715 89.0191 27.7174 89.4793Z" fill="#FFAA2E"/>
<path d="M27.5075 83.8546C27.6184 85.5771 26.4076 87.0796 26.4076 87.0796C26.4076 87.0796 25.0743 85.8293 25.0296 84.0951C24.9188 82.3726 26.1295 80.8701 26.1295 80.8701C26.1295 80.8701 27.4629 82.1204 27.5075 83.8546Z" fill="#FFAA2E"/>
<path d="M24.2887 84.6636C25.8475 85.4009 26.5445 87.0496 26.5445 87.0496C26.5445 87.0496 24.6922 87.5031 23.1334 86.7658C21.5745 86.0285 20.8775 84.3798 20.8775 84.3798C20.8775 84.3798 22.721 83.8646 24.2887 84.6636Z" fill="#FFAA2E"/>
<path d="M25.535 79.6707C25.3062 81.387 23.9393 82.7228 23.9393 82.7228C23.9393 82.7228 22.8466 81.2384 23.0754 79.5221C23.3041 77.8058 24.671 76.47 24.671 76.47C24.671 76.47 25.7638 77.9544 25.535 79.6707Z" fill="#FFAA2E"/>
<path d="M22.2468 79.9591C23.6455 80.9224 24.0308 82.7021 24.0308 82.7021C24.0308 82.7021 22.1252 82.848 20.7264 81.8846C19.3277 80.9213 18.9424 79.1416 18.9424 79.1416C18.9424 79.1416 20.8392 78.9336 22.2468 79.9591Z" fill="#FFAA2E"/>
<path d="M24.6256 74.8604C23.9876 76.515 22.3162 77.5165 22.3162 77.5165C22.3162 77.5165 21.6732 75.8307 22.3112 74.1761C22.9492 72.5215 24.6207 71.52 24.6207 71.52C24.6207 71.52 25.2636 73.2058 24.6256 74.8604Z" fill="#FFAA2E"/>
<path d="M21.3585 74.2898C22.4792 75.5685 22.4013 77.3797 22.4013 77.3797C22.4013 77.3797 20.5459 77.0652 19.4253 75.7865C18.3046 74.5077 18.3825 72.6965 18.3825 72.6965C18.3825 72.6965 20.229 72.9484 21.3585 74.2898Z" fill="#FFAA2E"/>
<path d="M24.6468 69.77C23.6552 71.2218 21.8085 71.8037 21.8085 71.8037C21.8085 71.8037 21.6173 69.9867 22.6089 68.5349C23.6004 67.0831 25.4472 66.5012 25.4472 66.5012C25.4472 66.5012 25.7033 68.3068 24.6468 69.77Z" fill="#FFAA2E"/>
<path d="M21.6792 68.4353C22.4406 69.977 21.8821 71.7505 21.8821 71.7505C21.8821 71.7505 20.1547 71.0228 19.3933 69.4811C18.6319 67.9394 19.1903 66.1659 19.1903 66.1659C19.1903 66.1659 20.9838 66.882 21.6792 68.4353Z" fill="#FFAA2E"/>
<path d="M25.8338 65.4137C24.5634 66.6507 22.6721 66.7873 22.6721 66.7873C22.6721 66.7873 22.8704 64.9731 24.2142 63.787C25.4847 62.55 27.3759 62.4134 27.3759 62.4134C27.3759 62.4134 27.1133 64.2388 25.8338 65.4137Z" fill="#FFAA2E"/>
<path d="M23.2355 63.4995C23.6153 65.1792 22.6431 66.833 22.6431 66.833C22.6431 66.833 21.1348 65.7352 20.7551 64.0555C20.3753 62.3758 21.3475 60.722 21.3475 60.722C21.3475 60.722 22.8558 61.8198 23.2355 63.4995Z" fill="#FFAA2E"/>
<path d="M27.4788 61.4343C25.9834 62.4506 24.1254 62.3288 24.1254 62.3288C24.1254 62.3288 24.6617 60.5932 26.0929 59.5879C27.5883 58.5716 29.4464 58.6934 29.4464 58.6934C29.4464 58.6934 28.91 60.4291 27.4788 61.4343Z" fill="#FFAA2E"/>
<path d="M25.2041 59.0826C25.2551 60.8187 24.0585 62.317 24.0585 62.317C24.0585 62.317 22.7862 60.985 22.6787 59.3233C22.6277 57.5872 23.8243 56.0889 23.8243 56.0889C23.8243 56.0889 25.1532 57.3466 25.2041 59.0826Z" fill="#FFAA2E"/>
<path d="M58.1282 94.1148C56.9198 95.4056 56.7763 97.2035 56.7763 97.2035C56.7763 97.2035 58.6585 96.9324 59.8669 95.6416C61.0754 94.3508 61.2188 92.5529 61.2188 92.5529C61.2188 92.5529 59.4013 92.8126 58.1282 94.1148Z" fill="#FFAA2E"/>
<path d="M60.2432 96.647C58.4968 96.3936 56.8508 97.3068 56.8508 97.3068C56.8508 97.3068 58.0299 98.6573 59.7763 98.9107C61.5227 99.164 63.1687 98.2509 63.1687 98.2509C63.1687 98.2509 61.9896 96.9004 60.2432 96.647Z" fill="#FFAA2E"/>
<path d="M62.5659 92.1689C61.5083 93.6302 61.6238 95.3921 61.6238 95.3921C61.6238 95.3921 63.479 94.8712 64.5366 93.4099C65.5941 91.9486 65.4786 90.1867 65.4786 90.1867C65.4786 90.1867 63.6321 90.7697 62.5659 92.1689Z" fill="#FFAA2E"/>
<path d="M65.0308 94.4004C63.257 94.4014 61.7671 95.4696 61.7671 95.4696C61.7671 95.4696 63.1112 96.5988 64.8936 96.6583C66.6674 96.6573 68.1573 95.5892 68.1573 95.5892C68.1573 95.5892 66.8132 94.4599 65.0308 94.4004Z" fill="#FFAA2E"/>
<path d="M66.3953 89.2777C65.6094 90.8261 65.9958 92.6144 65.9958 92.6144C65.9958 92.6144 67.7545 91.7896 68.5404 90.2413C69.3263 88.6929 68.9399 86.9046 68.9399 86.9046C68.9399 86.9046 67.2466 87.7178 66.3953 89.2777Z" fill="#FFAA2E"/>
<path d="M69.1913 91.0774C67.4532 91.3199 66.127 92.6042 66.127 92.6042C66.127 92.6042 67.6364 93.5156 69.4385 93.2619C71.1766 93.0194 72.5028 91.7351 72.5028 91.7351C72.5028 91.7351 70.938 90.8953 69.1913 91.0774Z" fill="#FFAA2E"/>
<path d="M69.6398 85.6328C69.2029 87.3186 70.1027 88.8966 70.1027 88.8966C70.1027 88.8966 71.6267 87.7263 72.0636 86.0406C72.5004 84.3548 71.6006 82.7768 71.6006 82.7768C71.6006 82.7768 70.0678 83.8843 69.6398 85.6328Z" fill="#FFAA2E"/>
<path d="M72.8629 86.7197C71.1755 87.3263 70.2207 88.9216 70.2207 88.9216C70.2207 88.9216 72.0084 89.4768 73.6231 88.8209C75.3105 88.2143 76.2652 86.619 76.2652 86.619C76.2652 86.619 74.5503 86.1131 72.8629 86.7197Z" fill="#FFAA2E"/>
<path d="M72.178 81.1885C72.2208 82.922 73.4978 84.2447 73.4978 84.2447C73.4978 84.2447 74.7124 82.7412 74.6786 81.0706C74.6357 79.3371 73.3588 78.0144 73.3588 78.0144C73.3588 78.0144 72.1442 79.518 72.178 81.1885Z" fill="#FFAA2E"/>
<path d="M75.4988 81.605C73.9968 82.6209 73.4427 84.2827 73.4427 84.2827C73.4427 84.2827 75.3023 84.3924 76.813 83.4375C78.315 82.4217 78.8691 80.7599 78.8691 80.7599C78.8691 80.7599 77.0009 80.5892 75.4988 81.605Z" fill="#FFAA2E"/>
<path d="M73.716 76.5124C74.0918 78.1885 75.6631 79.2035 75.6631 79.2035C75.6631 79.2035 76.582 77.5586 76.14 75.8941C75.7642 74.218 74.1929 73.203 74.1929 73.203C74.1929 73.203 73.274 74.8479 73.716 76.5124Z" fill="#FFAA2E"/>
<path d="M77.0468 76.204C75.7686 77.442 75.5629 79.2499 75.5629 79.2499C75.5629 79.2499 77.4502 79.0432 78.7284 77.8053C80.0065 76.5673 80.2123 74.7594 80.2123 74.7594C80.2123 74.7594 78.3249 74.966 77.0468 76.204Z" fill="#FFAA2E"/>
<path d="M74.292 71.9244C74.9884 73.4785 76.6616 74.2809 76.6616 74.2809C76.6616 74.2809 77.287 72.4949 76.5906 70.9408C75.8941 69.3867 74.221 68.5843 74.221 68.5843C74.221 68.5843 73.6616 70.3587 74.292 71.9244Z" fill="#FFAA2E"/>
<path d="M77.5331 71.1053C76.4693 72.5041 76.5953 74.3296 76.5953 74.3296C76.5953 74.3296 78.4482 73.8107 79.512 72.4119C80.5757 71.0131 80.4497 69.1876 80.4497 69.1876C80.4497 69.1876 78.6617 69.695 77.5331 71.1053Z" fill="#FFAA2E"/>
<path d="M73.6839 67.1948C74.75 68.5489 76.6177 68.9263 76.6177 68.9263C76.6177 68.9263 76.7613 67.1018 75.6953 65.7477C74.6292 64.3936 72.7615 64.0162 72.7615 64.0162C72.7615 64.0162 72.6179 65.8407 73.6839 67.1948Z" fill="#FFAA2E"/>
<path d="M76.6488 65.6361C75.9375 67.2381 76.5139 68.9338 76.5139 68.9338C76.5139 68.9338 78.1913 67.9958 78.9026 66.3938C79.6139 64.7918 79.0375 63.0962 79.0375 63.0962C79.0375 63.0962 77.2857 63.9831 76.6488 65.6361Z" fill="#FFAA2E"/>
<path d="M72.0176 62.3666C73.3624 63.405 75.2798 63.3211 75.2798 63.3211C75.2798 63.3211 74.9589 61.5272 73.6141 60.4887C72.2693 59.4503 70.3518 59.5342 70.3518 59.5342C70.3518 59.5342 70.6078 61.3396 72.0176 62.3666Z" fill="#FFAA2E"/>
<path d="M74.4636 60.1816C74.169 61.9087 75.1944 63.404 75.1944 63.404C75.1944 63.404 76.6346 62.12 76.9292 60.3929C77.2237 58.6657 76.1984 57.1704 76.1984 57.1704C76.1984 57.1704 74.7671 58.5173 74.4636 60.1816Z" fill="#FFAA2E"/>
<path d="M69.6152 58.6293C71.1733 59.3767 73.0106 58.868 73.0106 58.868C73.0106 58.868 72.3089 57.2096 70.6955 56.5353C69.1374 55.7879 67.3001 56.2966 67.3001 56.2966C67.3001 56.2966 68.0661 57.9439 69.6152 58.6293Z" fill="#FFAA2E"/>
<path d="M71.5233 56.0158C71.64 57.7407 73.0352 58.9872 73.0352 58.9872C73.0352 58.9872 74.1573 57.4369 74.0405 55.712C73.9238 53.9871 72.5287 52.7406 72.5287 52.7406C72.5287 52.7406 71.4066 54.2908 71.5233 56.0158Z" fill="#FFAA2E"/>
<path d="M66.6918 55.3694C68.4023 55.8327 70.1348 55.0914 70.1348 55.0914C70.1348 55.0914 69.1323 53.6213 67.4859 53.1469C65.7754 52.6837 64.0429 53.4249 64.0429 53.4249C64.0429 53.4249 65.0453 54.8951 66.6918 55.3694Z" fill="#FFAA2E"/>
<path d="M68.1555 52.4444C68.6008 54.1126 70.165 55.1359 70.165 55.1359C70.165 55.1359 70.9962 53.442 70.6258 51.8255C70.1804 50.1573 68.6162 49.134 68.6162 49.134C68.6162 49.134 67.7193 50.8393 68.1555 52.4444Z" fill="#FFAA2E"/>
<path d="M65.2434 50.5392C65.188 50.6126 65.1326 50.686 65.0127 50.7705L64.9573 50.8438C71.1537 54.4248 75.5862 60.4157 76.6488 67.7556C78.63 81.4401 68.0136 94.757 53.0068 97.3573C38 99.9577 24.1508 90.9438 22.1607 77.1971C21.1431 70.1682 23.3895 63.3389 27.8847 57.9053C27.7468 57.8654 27.5446 57.8367 27.4068 57.7968C22.9206 63.2926 20.6832 70.1841 21.7098 77.2752C23.727 91.2086 37.7965 100.376 53.0609 97.7305C68.3253 95.0856 79.1168 81.6108 77.0997 67.6774C76.0281 60.2753 71.5131 54.1713 65.2434 50.5392Z" fill="#FF9912"/>
<path d="M30.5826 57.6154C28.9087 58.2795 27.1838 57.6969 27.1838 57.6969C27.1838 57.6969 28.1298 56.0906 29.8126 55.4877C31.4866 54.8236 33.2115 55.4063 33.2115 55.4063C33.2115 55.4063 32.1926 56.9623 30.5826 57.6154Z" fill="#FFAA2E"/>
<path d="M29.0033 54.7661C28.6428 56.4419 27.1428 57.6689 27.1428 57.6689C27.1428 57.6689 26.2406 56.0818 26.6011 54.4059C26.9616 52.7301 28.4617 51.5031 28.4617 51.5031C28.4617 51.5031 29.3639 53.0903 29.0033 54.7661Z" fill="#FFAA2E"/>
<path d="M62.7292 52.5297C64.5105 52.6005 65.9849 51.4685 65.9849 51.4685C65.9849 51.4685 64.6274 50.2578 62.855 50.2482C61.0737 50.1775 59.5993 51.3095 59.5993 51.3095C59.5993 51.3095 60.9479 52.4589 62.7292 52.5297Z" fill="#FFAA2E"/>
<path d="M63.3711 49.3549C64.1896 50.8274 65.9644 51.4895 65.9644 51.4895C65.9644 51.4895 66.3721 49.6764 65.5537 48.2039C64.7352 46.7314 62.9604 46.0693 62.9604 46.0693C62.9604 46.0693 62.5527 47.8824 63.3711 49.3549Z" fill="#FFAA2E"/>
<path d="M40.2689 50.4016L37.7912 50.1067L35.8534 51.6551L35.4306 49.2767L33.3794 47.8793L35.5663 46.676L36.272 44.3668L38.0307 46.0064L40.5159 45.9133L39.4611 48.0875L40.2689 50.4016Z" fill="#FFEC03"/>
<path d="M55.7137 48.1913L57.9749 49.2316L57.937 46.7883L59.6356 44.9572L57.3027 44.3156L56.1287 42.1911L54.7245 44.2308L52.2313 44.7119L53.762 46.5835L53.4054 49.0283L55.7137 48.1913Z" fill="#FFEC03"/>
<path d="M48.9123 48.706L46.5163 48.0754L44.3299 49.2785L44.292 46.8363L42.4695 45.2078L44.8315 44.2976L45.886 42.1239L47.4161 43.9945L49.829 44.3001L48.4255 46.3388L48.9123 48.706Z" fill="#FFEC03"/>
<path d="M47.2626 82.4086L43.5371 82.9986L41.9216 72.7986L41.6923 71.117L41.4623 69.2749C40.9415 69.9918 40.5757 70.4658 40.3651 70.6969L38.5974 72.6454L36.4458 70.6874L41.4084 65.2667L44.4708 64.7816L47.2626 82.4086ZM62.9873 70.8835C63.4749 73.962 63.3294 76.3209 62.5509 77.9603C61.7804 79.5983 60.3462 80.5835 58.2483 80.9158C56.2148 81.2379 54.5586 80.7174 53.2798 79.3545C52.0091 77.9903 51.1376 75.8171 50.6653 72.8351C50.1726 69.7244 50.3122 67.3541 51.0839 65.724C51.8544 64.0859 53.2846 63.1014 55.3744 62.7704C57.408 62.4483 59.0654 62.9768 60.3467 64.3558C61.6361 65.7336 62.5163 67.9095 62.9873 70.8835ZM54.3667 72.2488C54.7092 74.411 55.1397 75.933 55.6584 76.8149C56.1839 77.6874 56.8887 78.0537 57.7729 77.9137C58.6409 77.7762 59.1928 77.2026 59.4284 76.1931C59.664 75.1835 59.6125 73.6097 59.2738 71.4716C58.9314 69.3095 58.4887 67.7893 57.9459 66.9113C57.4099 66.0239 56.7118 65.6484 55.8518 65.7846C54.9757 65.9234 54.4238 66.4969 54.1963 67.5052C53.9675 68.5054 54.0243 70.0867 54.3667 72.2488Z" fill="#ED1CBF"/>
<defs>
<filter id="filter0_d" x="0" y="0" width="200" height="133.672" filterUnits="userSpaceOnUse" color-interpolation-filters="sRGB">
<feFlood flood-opacity="0" result="BackgroundImageFix"/>
<feColorMatrix in="SourceAlpha" type="matrix" values="0 0 0 0 0 0 0 0 0 0 0 0 0 0 0 0 0 0 127 0"/>
<feOffset dy="4"/>
<feGaussianBlur stdDeviation="2"/>
<feColorMatrix type="matrix" values="0 0 0 0 0 0 0 0 0 0 0 0 0 0 0 0 0 0 0.25 0"/>
<feBlend mode="normal" in2="BackgroundImageFix" result="effect1_dropShadow"/>
<feBlend mode="normal" in="SourceGraphic" in2="effect1_dropShadow" result="shape"/>
</filter>
<linearGradient id="paint0_linear" x1="98.5649" y1="0" x2="98.5649" y2="104.774" gradientUnits="userSpaceOnUse">
<stop stop-color="#FF9905"/>
<stop offset="1" stop-color="#C822AD"/>
</linearGradient>
</defs>
</svg>
