<svg width="168" height="219" viewBox="0 0 168 219" fill="none" xmlns="http://www.w3.org/2000/svg">
<path fill-rule="evenodd" clip-rule="evenodd" d="M136.524 75.5059H154.665C158.133 75.5059 161.201 76.9731 163.468 79.2407C165.736 81.5083 167.203 84.7095 167.203 88.0442V103.784C167.203 107.252 165.736 110.32 163.468 112.587C161.201 114.855 157.999 116.322 154.665 116.322H136.391C132.923 116.322 129.855 114.855 127.587 112.587C125.32 110.32 123.853 107.118 123.853 103.784V88.0442C123.853 84.5761 125.32 81.5083 127.587 79.2407C129.855 76.8397 133.056 75.5059 136.524 75.5059ZM154.665 80.7079H136.391C134.39 80.7079 132.523 81.5082 131.189 82.8421C129.855 84.176 129.055 86.0434 129.055 88.0442V103.784C129.055 105.785 129.855 107.652 131.189 108.986C132.523 110.32 134.39 111.12 136.391 111.12H154.665C156.666 111.12 158.533 110.32 159.867 108.986C161.201 107.652 162.001 105.785 162.001 103.784V88.0442C162.001 86.0434 161.201 84.176 159.867 82.8421C158.533 81.5082 156.666 80.7079 154.665 80.7079Z" fill="url(#paint0_linear)"/>
<path fill-rule="evenodd" clip-rule="evenodd" d="M12.741 75.5059H31.0149C34.4829 75.5059 37.5508 76.9731 39.8184 79.2407C42.086 81.5083 43.5532 84.7095 43.5532 88.0442V103.784C43.5532 107.252 42.086 110.32 39.8184 112.587C37.5508 114.855 34.3495 116.322 31.0149 116.322H12.741C9.27291 116.322 6.20502 114.855 3.93745 112.587C1.66989 110.32 0.202637 107.118 0.202637 103.784V88.0442C0.202637 84.5761 1.66989 81.5083 3.93745 79.2407C6.07164 76.8397 9.27291 75.5059 12.741 75.5059ZM30.8815 80.7079H12.741C10.7402 80.7079 8.87275 81.5082 7.53889 82.8421C6.20502 84.176 5.4047 86.0434 5.4047 88.0442V103.784C5.4047 105.785 6.20502 107.652 7.53889 108.986C8.87275 110.32 10.7402 111.12 12.741 111.12H31.0149C33.0157 111.12 34.8831 110.32 36.217 108.986C37.5508 107.652 38.3511 105.785 38.3511 103.784V88.0442C38.3511 86.0434 37.5508 84.176 36.217 82.8421C34.7497 81.5082 32.8823 80.7079 30.8815 80.7079Z" fill="url(#paint1_linear)"/>
<path fill-rule="evenodd" clip-rule="evenodd" d="M28.7477 61.7671H138.391C145.728 61.7671 152.797 67.9029 151.73 75.1057L131.855 205.558C130.788 212.76 125.853 218.896 118.517 218.896H48.6223C41.286 218.896 36.3507 212.76 35.2836 205.558L15.409 75.1057C14.342 67.9029 21.4114 61.7671 28.7477 61.7671Z" fill="url(#paint2_linear)"/>
<path fill-rule="evenodd" clip-rule="evenodd" d="M83.5693 61.7671H138.391C145.727 61.7671 152.797 67.9029 151.73 75.1057L131.855 205.558C130.788 212.76 125.853 218.896 118.517 218.896H83.5693V61.7671Z" fill="url(#paint3_linear)"/>
<path fill-rule="evenodd" clip-rule="evenodd" d="M10.4736 54.8311H156.798C159.733 54.8311 162 57.232 162 60.0331V65.9021C162 68.8366 159.6 71.1042 156.798 71.1042H10.4736C7.53905 71.1042 5.27148 68.7032 5.27148 65.9021V60.0331C5.27148 57.232 7.53905 54.8311 10.4736 54.8311Z" fill="#FF8C00"/>
<path fill-rule="evenodd" clip-rule="evenodd" d="M83.5693 54.8311H158.532C160.4 54.8311 162.001 57.232 162.001 60.0331V65.9021C162.001 68.8366 160.4 71.1042 158.532 71.1042H83.5693V54.8311Z" fill="#E77F00"/>
<path fill-rule="evenodd" clip-rule="evenodd" d="M101.709 5.61164L83.969 1.34327C80.6344 0.542954 77.1663 1.20988 74.4986 2.81052C71.6975 4.54454 69.6967 7.21228 68.8964 10.5469L67.5625 16.1492L72.6312 17.3496L73.9651 11.7474C74.4986 9.74661 75.6991 8.14598 77.2997 7.21228C78.9003 6.27857 80.9011 5.87841 82.7685 6.27857L100.509 10.5469C102.51 11.0805 104.11 12.281 105.044 13.8816C105.978 15.4822 106.378 17.483 105.978 19.3504L104.644 24.9527L109.713 26.1531L111.046 20.5509C111.847 17.2163 111.18 13.7482 109.579 11.0805C107.712 8.54614 105.044 6.41196 101.709 5.61164Z" fill="#F68503"/>
<path fill-rule="evenodd" clip-rule="evenodd" d="M101.708 5.61172L92.9046 3.47754L91.7041 8.54623L100.508 10.6804C102.508 11.214 104.109 12.4144 105.043 14.0151C105.976 15.6157 106.377 17.6165 105.976 19.4839L104.643 25.0861L109.711 26.2866L111.045 20.6844C111.845 17.3497 111.179 13.8817 109.578 11.214C107.71 8.54623 105.043 6.41204 101.708 5.61172Z" fill="#ED7500"/>
<path fill-rule="evenodd" clip-rule="evenodd" d="M18.3434 0.142742L160.533 34.2897C163.334 34.9566 165.068 37.7577 164.402 40.6922L163.068 46.2944C162.401 49.0955 159.6 50.8296 156.665 50.1626L14.6086 16.0157C11.8075 15.3488 10.0735 12.5477 10.7404 9.61318L12.0743 4.01095C12.7412 1.20983 15.5423 -0.52419 18.3434 0.142742Z" fill="#E77F00"/>
<path fill-rule="evenodd" clip-rule="evenodd" d="M89.5703 17.2163L162.399 34.6899C164.267 35.0901 165.2 37.7578 164.533 40.5589L163.2 46.1611C162.533 48.9623 160.399 50.9631 158.664 50.4295L85.7021 33.0893L89.5703 17.2163Z" fill="#FF8C00"/>
<path fill-rule="evenodd" clip-rule="evenodd" d="M86.9616 91.9203C88.0312 91.9203 88.9226 91.9203 89.9922 91.9203V80.8677L112.989 99.5859L89.9922 118.304V104.934C88.9226 104.934 88.0312 104.756 86.9616 104.756C76.6221 104.756 67.1738 109.034 60.3996 115.808C55.2298 120.978 51.4862 127.574 50.0601 135.061L38.1161 129C40.4336 120.443 45.0685 112.778 51.1297 106.538C60.3996 97.6249 73.0567 91.9203 86.9616 91.9203ZM134.916 186.759L124.755 176.598C132.777 167.684 137.768 155.74 137.768 142.727C137.768 128.644 132.064 115.987 122.972 106.895C121.367 105.29 119.763 103.864 117.98 102.438L107.463 110.995C109.78 112.421 111.741 114.204 113.702 115.987C120.476 122.761 124.755 132.209 124.755 142.549C124.755 151.997 121.367 160.554 115.485 167.15L108.354 160.019L105.323 189.611L134.916 186.759ZM29.2026 164.832L37.2247 136.309L63.6085 149.858L51.4862 155.206C53.4472 160.732 56.4777 165.545 60.3996 169.467C67.1738 176.241 76.6221 180.52 86.9616 180.52C91.7749 180.52 96.4099 179.628 100.688 178.024L99.2622 192.107C95.3402 192.999 91.2401 193.533 86.9616 193.533C72.8784 193.533 60.2214 187.829 51.1297 178.737C45.9599 173.567 42.038 167.328 39.3639 160.375L29.2026 164.832Z" fill="url(#paint4_linear)"/>
<path fill-rule="evenodd" clip-rule="evenodd" d="M86.9609 91.9203C88.0305 91.9203 88.9218 91.9203 89.9915 91.9203V80.8677L112.988 99.5859L89.9915 118.304V104.934C88.9218 104.934 88.0305 104.756 86.9609 104.756C85.713 104.756 84.6434 104.756 83.3955 104.934V91.9203C84.6434 92.0986 85.8913 91.9203 86.9609 91.9203ZM134.915 186.759L124.754 176.598C132.776 167.684 137.767 155.74 137.767 142.727C137.767 128.644 132.063 115.987 122.971 106.895C121.367 105.29 119.762 103.864 117.98 102.438L107.462 110.995C109.779 112.421 111.74 114.204 113.701 115.987C120.475 122.761 124.754 132.209 124.754 142.549C124.754 151.997 121.367 160.554 115.484 167.15L108.353 160.019L105.323 189.611L134.915 186.759ZM83.3955 180.163C84.6434 180.341 85.713 180.341 86.9609 180.341C91.7741 180.341 96.4091 179.45 100.688 177.846L99.2614 191.929C95.3395 192.82 91.2393 193.355 86.9609 193.355C85.713 193.355 84.6434 193.355 83.3955 193.177V180.163Z" fill="url(#paint5_linear)"/>
<path d="M70.1968 139.318C72.2671 139.318 73.9126 139.899 75.1333 141.062C76.3638 142.224 76.979 143.815 76.979 145.837C76.979 148.229 76.2417 150.07 74.7671 151.359C73.2925 152.648 71.1831 153.293 68.439 153.293C66.0562 153.293 64.1323 152.907 62.6675 152.136V148.225C63.439 148.635 64.3374 148.972 65.3628 149.235C66.3882 149.489 67.3599 149.616 68.2778 149.616C71.0415 149.616 72.4233 148.483 72.4233 146.218C72.4233 144.06 70.9927 142.98 68.1313 142.98C67.6138 142.98 67.0425 143.034 66.4175 143.142C65.7925 143.239 65.2847 143.347 64.894 143.464L63.0923 142.497L63.8979 131.584H75.5142V135.422H67.8677L67.4722 139.626L67.9849 139.523C68.5806 139.387 69.3179 139.318 70.1968 139.318ZM94.396 142.292C94.396 146.032 93.7808 148.801 92.5503 150.598C91.3296 152.395 89.4448 153.293 86.896 153.293C84.4253 153.293 82.5601 152.365 81.3003 150.51C80.0503 148.654 79.4253 145.915 79.4253 142.292C79.4253 138.513 80.0356 135.729 81.2563 133.942C82.4771 132.146 84.3569 131.247 86.896 131.247C89.3667 131.247 91.2319 132.185 92.4917 134.06C93.7612 135.935 94.396 138.679 94.396 142.292ZM83.9224 142.292C83.9224 144.919 84.147 146.804 84.5962 147.946C85.0552 149.079 85.8218 149.646 86.896 149.646C87.9507 149.646 88.7124 149.069 89.1812 147.917C89.6499 146.765 89.8843 144.89 89.8843 142.292C89.8843 139.665 89.645 137.78 89.1665 136.638C88.6978 135.485 87.9409 134.909 86.896 134.909C85.8315 134.909 85.0698 135.485 84.6108 136.638C84.1519 137.78 83.9224 139.665 83.9224 142.292ZM115.402 153H110.246L104.635 143.977L102.716 145.354V153H98.1753V131.584H102.716V141.384L104.503 138.864L110.304 131.584H115.343L107.873 141.062L115.402 153Z" fill="#FFBF00"/>
<defs>
<linearGradient id="paint0_linear" x1="145.731" y1="70.601" x2="145.731" y2="113.059" gradientUnits="userSpaceOnUse">
<stop stop-color="#00A4ED"/>
<stop offset="1" stop-color="#0009E3"/>
</linearGradient>
<linearGradient id="paint1_linear" x1="22.0811" y1="70.601" x2="22.0811" y2="113.059" gradientUnits="userSpaceOnUse">
<stop stop-color="#00A4ED"/>
<stop offset="1" stop-color="#0009E3"/>
</linearGradient>
<linearGradient id="paint2_linear" x1="84.2094" y1="42.8849" x2="84.2094" y2="206.335" gradientUnits="userSpaceOnUse">
<stop stop-color="#00A4ED"/>
<stop offset="1" stop-color="#0009E3"/>
</linearGradient>
<linearGradient id="paint3_linear" x1="118.023" y1="42.8849" x2="118.023" y2="206.335" gradientUnits="userSpaceOnUse">
<stop stop-color="#00A4ED"/>
<stop offset="1" stop-color="#0009E3"/>
</linearGradient>
<linearGradient id="paint4_linear" x1="83.4854" y1="80.8677" x2="83.4854" y2="193.533" gradientUnits="userSpaceOnUse">
<stop stop-color="#FFC700"/>
<stop offset="1" stop-color="#FF4070"/>
</linearGradient>
<linearGradient id="paint5_linear" x1="110.581" y1="80.8677" x2="110.581" y2="193.355" gradientUnits="userSpaceOnUse">
<stop stop-color="#FFC700"/>
<stop offset="1" stop-color="#FF4070"/>
</linearGradient>
</defs>
</svg>
