<svg width="126" height="165" viewBox="0 0 126 165" fill="none" xmlns="http://www.w3.org/2000/svg">
<path fill-rule="evenodd" clip-rule="evenodd" d="M102.4 57.0015H116C118.6 57.0015 120.9 58.1015 122.6 59.8015C124.3 61.5015 125.4 63.9015 125.4 66.4015V78.2015C125.4 80.8015 124.3 83.1015 122.6 84.8015C120.9 86.5015 118.5 87.6015 116 87.6015H102.3C99.6999 87.6015 97.3999 86.5015 95.6999 84.8015C93.9999 83.1015 92.8999 80.7015 92.8999 78.2015V66.4015C92.8999 63.8015 93.9999 61.5015 95.6999 59.8015C97.3999 58.0015 99.7999 57.0015 102.4 57.0015ZM116 60.9015H102.3C100.8 60.9015 99.3999 61.5015 98.3999 62.5015C97.3999 63.5015 96.7999 64.9015 96.7999 66.4015V78.2015C96.7999 79.7015 97.3999 81.1015 98.3999 82.1015C99.3999 83.1015 100.8 83.7015 102.3 83.7015H116C117.5 83.7015 118.9 83.1015 119.9 82.1015C120.9 81.1015 121.5 79.7015 121.5 78.2015V66.4015C121.5 64.9015 120.9 63.5015 119.9 62.5015C118.9 61.5015 117.5 60.9015 116 60.9015Z" fill="url(#paint0_linear)"/>
<path fill-rule="evenodd" clip-rule="evenodd" d="M9.59995 57.0015H23.2999C25.9 57.0015 28.2 58.1015 29.9 59.8015C31.6 61.5015 32.7 63.9015 32.7 66.4015V78.2015C32.7 80.8015 31.6 83.1015 29.9 84.8015C28.2 86.5015 25.7999 87.6015 23.2999 87.6015H9.59995C6.99995 87.6015 4.69995 86.5015 2.99995 84.8015C1.29995 83.1015 0.199951 80.7015 0.199951 78.2015V66.4015C0.199951 63.8015 1.29995 61.5015 2.99995 59.8015C4.59995 58.0015 6.99995 57.0015 9.59995 57.0015ZM23.2 60.9015H9.59995C8.09995 60.9015 6.69995 61.5015 5.69995 62.5015C4.69995 63.5015 4.09995 64.9015 4.09995 66.4015V78.2015C4.09995 79.7015 4.69995 81.1015 5.69995 82.1015C6.69995 83.1015 8.09995 83.7015 9.59995 83.7015H23.2999C24.7999 83.7015 26.2 83.1015 27.2 82.1015C28.2 81.1015 28.7999 79.7015 28.7999 78.2015V66.4015C28.7999 64.9015 28.2 63.5015 27.2 62.5015C26.1 61.5015 24.7 60.9015 23.2 60.9015Z" fill="url(#paint1_linear)"/>
<path fill-rule="evenodd" clip-rule="evenodd" d="M21.6 46.7017H103.8C109.3 46.7017 114.6 51.3017 113.8 56.7017L98.9 154.502C98.1 159.902 94.4 164.502 88.9 164.502H36.5C31 164.502 27.3 159.902 26.5 154.502L11.6 56.7017C10.8 51.3017 16.1 46.7017 21.6 46.7017Z" fill="url(#paint2_linear)"/>
<path fill-rule="evenodd" clip-rule="evenodd" d="M62.7 46.7017H103.8C109.3 46.7017 114.6 51.3017 113.8 56.7017L98.8999 154.502C98.0999 159.902 94.4 164.502 88.9 164.502H62.7V46.7017Z" fill="url(#paint3_linear)"/>
<path fill-rule="evenodd" clip-rule="evenodd" d="M7.9 41.5015H117.6C119.8 41.5015 121.5 43.3015 121.5 45.4015V49.8015C121.5 52.0015 119.7 53.7015 117.6 53.7015H7.9C5.7 53.7015 4 51.9015 4 49.8015V45.4015C4 43.3015 5.7 41.5015 7.9 41.5015Z" fill="#FF8C00"/>
<path fill-rule="evenodd" clip-rule="evenodd" d="M62.7 41.5015H118.9C120.3 41.5015 121.5 43.3015 121.5 45.4015V49.8015C121.5 52.0015 120.3 53.7015 118.9 53.7015H62.7V41.5015Z" fill="#E77F00"/>
<path fill-rule="evenodd" clip-rule="evenodd" d="M76.3 4.6017L63 1.4017C60.5 0.801701 57.9 1.3017 55.9 2.5017C53.8 3.8017 52.3 5.8017 51.7 8.3017L50.7 12.5017L54.5 13.4017L55.5 9.2017C55.9 7.7017 56.8 6.5017 58 5.8017C59.2 5.1017 60.7 4.8017 62.1 5.1017L75.4 8.3017C76.9 8.7017 78.1 9.6017 78.8 10.8017C79.5 12.0017 79.8 13.5017 79.5 14.9017L78.5 19.1017L82.3 20.0017L83.3 15.8017C83.9 13.3017 83.4 10.7017 82.2 8.7017C80.8 6.8017 78.8 5.2017 76.3 4.6017Z" fill="#F68503"/>
<path fill-rule="evenodd" clip-rule="evenodd" d="M76.3 4.60171L69.7 3.00171L68.8 6.80171L75.4 8.40171C76.9 8.80171 78.1 9.70171 78.8 10.9017C79.5 12.1017 79.8 13.6017 79.5 15.0017L78.5 19.2017L82.3 20.1017L83.3 15.9017C83.9 13.4017 83.4 10.8017 82.2 8.80171C80.8 6.80171 78.8 5.20171 76.3 4.60171Z" fill="#ED7500"/>
<path fill-rule="evenodd" clip-rule="evenodd" d="M13.7999 0.501545L120.4 26.1015C122.5 26.6015 123.8 28.7015 123.3 30.9015L122.3 35.1015C121.8 37.2015 119.7 38.5015 117.5 38.0015L10.9999 12.4015C8.89994 11.9015 7.59993 9.80155 8.09993 7.60155L9.09993 3.40155C9.59993 1.30155 11.6999 0.00154531 13.7999 0.501545Z" fill="#E77F00"/>
<path fill-rule="evenodd" clip-rule="evenodd" d="M67.2 13.3015L121.8 26.4015C123.2 26.7015 123.9 28.7015 123.4 30.8015L122.4 35.0015C121.9 37.1015 120.3 38.6015 119 38.2015L64.3 25.2015L67.2 13.3015Z" fill="#FF8C00"/>
<path fill-rule="evenodd" clip-rule="evenodd" d="M64.4411 76.5209C65.1308 76.5209 65.7055 76.5209 66.3951 76.5209V69.3945L81.2226 81.4634L66.3951 93.5323V84.9117C65.7055 84.9117 65.1308 84.7967 64.4411 84.7967C57.7745 84.7967 51.6826 87.5553 47.3148 91.9231C43.9815 95.2565 41.5677 99.5093 40.6482 104.337L32.947 100.429C34.4413 94.9116 37.4298 89.9691 41.3378 85.9462C47.3148 80.1991 55.4757 76.5209 64.4411 76.5209ZM95.3605 137.67L88.8088 131.118C93.9812 125.371 97.1996 117.67 97.1996 109.279C97.1996 100.199 93.5214 92.0381 87.6594 86.176C86.6249 85.1416 85.5904 84.222 84.441 83.3025L77.6594 88.8197C79.1537 89.7392 80.418 90.8887 81.6824 92.0381C86.0502 96.4059 88.8088 102.498 88.8088 109.164C88.8088 115.256 86.6249 120.774 82.8318 125.026L78.2341 120.429L76.2801 139.509L95.3605 137.67ZM27.2 123.532L32.3723 105.141L49.3837 113.877L41.5677 117.325C42.8321 120.889 44.7861 123.992 47.3148 126.521C51.6826 130.888 57.7745 133.647 64.4411 133.647C67.5445 133.647 70.533 133.072 73.2916 132.038L72.3721 141.118C69.8434 141.693 67.1997 142.038 64.4411 142.038C55.3607 142.038 47.1998 138.36 41.3378 132.498C38.0045 129.164 35.4758 125.141 33.7516 120.659L27.2 123.532Z" fill="url(#paint4_linear)"/>
<path fill-rule="evenodd" clip-rule="evenodd" d="M64.4417 76.5209C65.1313 76.5209 65.706 76.5209 66.3957 76.5209V69.3945L81.2232 81.4634L66.3957 93.5323V84.9117C65.706 84.9117 65.1313 84.7967 64.4417 84.7967C63.6371 84.7967 62.9474 84.7967 62.1428 84.9117V76.5209C62.9474 76.6359 63.752 76.5209 64.4417 76.5209ZM95.361 137.67L88.8093 131.118C93.9817 125.371 97.2001 117.67 97.2001 109.279C97.2001 100.199 93.522 92.0381 87.6599 86.176C86.6255 85.1416 85.591 84.222 84.4416 83.3025L77.66 88.8197C79.1542 89.7392 80.4186 90.8887 81.6829 92.0381C86.0507 96.4059 88.8093 102.498 88.8093 109.164C88.8093 115.256 86.6254 120.774 82.8324 125.026L78.2347 120.429L76.2807 139.509L95.361 137.67ZM62.1428 133.417C62.9474 133.532 63.6371 133.532 64.4417 133.532C67.5451 133.532 70.5336 132.957 73.2922 131.923L72.3727 141.003C69.8439 141.578 67.2003 141.923 64.4417 141.923C63.6371 141.923 62.9474 141.923 62.1428 141.808V133.417Z" fill="url(#paint5_linear)"/>
<path d="M64.1921 107.152C66.9526 107.152 69.1466 107.927 70.7742 109.477C72.4148 111.026 73.2351 113.148 73.2351 115.844C73.2351 119.034 72.252 121.488 70.2859 123.207C68.3197 124.926 65.5072 125.785 61.8484 125.785C58.6713 125.785 56.1062 125.271 54.1531 124.242V119.027C55.1817 119.574 56.3796 120.023 57.7468 120.375C59.114 120.714 60.4096 120.883 61.6335 120.883C65.3184 120.883 67.1609 119.372 67.1609 116.352C67.1609 113.474 65.2533 112.035 61.4382 112.035C60.7481 112.035 59.9864 112.107 59.1531 112.25C58.3197 112.38 57.6427 112.523 57.1218 112.68L54.7195 111.391L55.7937 96.8398H71.282V101.957H61.0867L60.5593 107.562L61.2429 107.426C62.0372 107.243 63.0203 107.152 64.1921 107.152Z" fill="#FFBF00"/>
<defs>
<linearGradient id="paint0_linear" x1="109.302" y1="53.3243" x2="109.302" y2="85.1552" gradientUnits="userSpaceOnUse">
<stop stop-color="#00A4ED"/>
<stop offset="1" stop-color="#0009E3"/>
</linearGradient>
<linearGradient id="paint1_linear" x1="16.6023" y1="53.3243" x2="16.6023" y2="85.1552" gradientUnits="userSpaceOnUse">
<stop stop-color="#00A4ED"/>
<stop offset="1" stop-color="#0009E3"/>
</linearGradient>
<linearGradient id="paint2_linear" x1="63.1797" y1="32.5456" x2="63.1797" y2="155.084" gradientUnits="userSpaceOnUse">
<stop stop-color="#00A4ED"/>
<stop offset="1" stop-color="#0009E3"/>
</linearGradient>
<linearGradient id="paint3_linear" x1="88.53" y1="32.5456" x2="88.53" y2="155.084" gradientUnits="userSpaceOnUse">
<stop stop-color="#00A4ED"/>
<stop offset="1" stop-color="#0009E3"/>
</linearGradient>
<linearGradient id="paint4_linear" x1="62.1998" y1="69.3945" x2="62.1998" y2="142.038" gradientUnits="userSpaceOnUse">
<stop stop-color="#FFC700"/>
<stop offset="1" stop-color="#FF4070"/>
</linearGradient>
<linearGradient id="paint5_linear" x1="79.6715" y1="69.3945" x2="79.6715" y2="141.923" gradientUnits="userSpaceOnUse">
<stop stop-color="#FFC700"/>
<stop offset="1" stop-color="#FF4070"/>
</linearGradient>
</defs>
</svg>
