<svg width="200" height="137" viewBox="0 0 200 137" fill="none" xmlns="http://www.w3.org/2000/svg">
<g filter="url(#filter0_d)">
<path d="M7.02159 94.9368C7.02159 94.9368 4.1037 97.8547 4.1037 109.04C4.1037 120.225 0.796759 121.879 31.5319 121.879C62.2669 121.879 58.571 121.49 58.571 110.693C58.571 110.693 71.896 111.082 93.8774 118.183C115.859 125.283 176.356 123.824 189.973 104.76C203.59 85.7941 189.876 90.3654 189.876 90.3654C189.876 90.3654 29.8784 79.5692 7.02159 94.9368Z" fill="#4C094E"/>
<path d="M15.3859 41.3445C15.3859 41.3445 7.11853 48.4447 7.11853 94.9364C7.11853 94.9364 53.6102 89.976 90.1811 100.286C126.752 110.693 174.897 101.161 189.876 90.365C189.876 90.365 192.793 67.1192 171.59 65.4657C150.387 63.8122 115.567 65.0767 102.242 51.3626C88.8194 37.6485 89.3057 23.5454 89.3057 12.7492C89.3057 1.953 75.9807 -5.53625 64.0174 5.25994L15.3859 41.3445Z" fill="url(#paint0_linear)"/>
<path d="M74.7163 33.0775C74.7163 37.6488 71.0203 41.3448 66.4489 41.3448H15.3859C10.8145 41.3448 7.11853 37.6488 7.11853 33.0775V13.5276C7.11853 8.95625 10.8145 5.26025 15.3859 5.26025H66.4489C71.0203 5.26025 74.7163 8.95625 74.7163 13.5276V33.0775Z" fill="#4C094E"/>
<path d="M11.5924 124.018C11.5924 124.893 10.8143 125.672 9.9389 125.672H5.65933C4.78396 125.672 4.00586 124.893 4.00586 124.018V116.14C4.00586 115.264 4.78396 114.486 5.65933 114.486H9.9389C10.8143 114.486 11.5924 115.264 11.5924 116.14V124.018Z" fill="#4C094E"/>
<path d="M23.361 124.018C23.361 124.893 22.5829 125.672 21.7076 125.672H17.428C16.5526 125.672 15.7745 124.893 15.7745 124.018V116.14C15.7745 115.264 16.5526 114.486 17.428 114.486H21.7076C22.5829 114.486 23.361 115.264 23.361 116.14V124.018Z" fill="#4C094E"/>
<path d="M35.2288 124.018C35.2288 124.893 34.4507 125.672 33.5754 125.672H29.2958C28.4204 125.672 27.6423 124.893 27.6423 124.018V116.14C27.6423 115.264 28.4204 114.486 29.2958 114.486H33.5754C34.4507 114.486 35.2288 115.264 35.2288 116.14V124.018Z" fill="#4C094E"/>
<path d="M46.9975 124.018C46.9975 124.893 46.2194 125.672 45.344 125.672H41.0645C40.1891 125.672 39.411 124.893 39.411 124.018V116.14C39.411 115.264 40.1891 114.486 41.0645 114.486H45.344C46.2194 114.486 46.9975 115.264 46.9975 116.14V124.018Z" fill="#4C094E"/>
<path d="M58.7662 124.018C58.7662 124.893 57.9881 125.672 57.1127 125.672H52.8332C51.9578 125.672 51.1797 124.893 51.1797 124.018V116.14C51.1797 115.264 51.9578 114.486 52.8332 114.486H57.1127C57.9881 114.486 58.7662 115.264 58.7662 116.14V124.018Z" fill="#4C094E"/>
<path d="M147.664 124.018C147.664 124.893 146.886 125.672 146.01 125.672H141.731C140.855 125.672 140.077 124.893 140.077 124.018V116.14C140.077 115.264 140.855 114.486 141.731 114.486H146.01C146.886 114.486 147.664 115.264 147.664 116.14V124.018Z" fill="#A67C52"/>
<path d="M100.492 124.018C100.492 124.893 99.7137 125.672 98.8383 125.672H94.5587C93.6834 125.672 92.9053 124.893 92.9053 124.018V116.14C92.9053 115.264 93.6834 114.486 94.5587 114.486H98.8383C99.7137 114.486 100.492 115.264 100.492 116.14V124.018Z" fill="#4C094E"/>
<path d="M112.358 124.018C112.358 124.893 111.58 125.672 110.705 125.672H106.425C105.55 125.672 104.771 124.893 104.771 124.018V116.14C104.771 115.264 105.55 114.486 106.425 114.486H110.705C111.58 114.486 112.358 115.264 112.358 116.14V124.018Z" fill="#4C094E"/>
<path d="M124.127 124.018C124.127 124.893 123.348 125.672 122.473 125.672H118.194C117.318 125.672 116.54 124.893 116.54 124.018V116.14C116.54 115.264 117.318 114.486 118.194 114.486H122.473C123.348 114.486 124.127 115.264 124.127 116.14V124.018Z" fill="#4C094E"/>
<path d="M135.895 124.018C135.895 124.893 135.117 125.672 134.242 125.672H129.962C129.087 125.672 128.309 124.893 128.309 124.018V116.14C128.309 115.264 129.087 114.486 129.962 114.486H134.242C135.117 114.486 135.895 115.264 135.895 116.14V124.018Z" fill="#4C094E"/>
<path d="M147.664 124.018C147.664 124.893 146.886 125.672 146.01 125.672H141.731C140.855 125.672 140.077 124.893 140.077 124.018V116.14C140.077 115.264 140.855 114.486 141.731 114.486H146.01C146.886 114.486 147.664 115.264 147.664 116.14V124.018Z" fill="#4C094E"/>
<path d="M159.432 124.018C159.432 124.893 158.654 125.672 157.779 125.672H153.499C152.624 125.672 151.846 124.893 151.846 124.018V116.14C151.846 115.264 152.624 114.486 153.499 114.486H157.779C158.654 114.486 159.432 115.264 159.432 116.14V124.018Z" fill="#4C094E"/>
<path d="M171.201 121.781C171.201 122.656 170.423 123.434 169.547 123.434H165.268C164.392 123.434 163.614 122.656 163.614 121.781V113.902C163.614 113.027 164.392 112.249 165.268 112.249H169.547C170.423 112.249 171.201 113.027 171.201 113.902V121.781Z" fill="#4C094E"/>
<path d="M183.067 118.376C183.067 119.252 182.289 120.03 181.414 120.03H177.134C176.259 120.03 175.48 119.252 175.48 118.376V110.498C175.48 109.623 176.259 108.845 177.134 108.845H181.414C182.289 108.845 183.067 109.623 183.067 110.498V118.376Z" fill="#4C094E"/>
<path d="M191.043 110.595C191.043 111.471 190.264 112.249 189.389 112.249H185.11C184.234 112.249 183.456 111.471 183.456 110.595V102.717C183.456 101.842 184.234 101.063 185.11 101.063H189.389C190.264 101.063 191.043 101.842 191.043 102.717V110.595Z" fill="#4C094E"/>
<path d="M90.8624 18.2931H79.9689C78.1209 18.2931 76.662 16.8341 76.662 14.9861C76.662 13.1381 78.1209 11.6792 79.9689 11.6792H90.8624C92.7104 11.6792 94.1693 13.1381 94.1693 14.9861C94.1693 16.8341 92.6131 18.2931 90.8624 18.2931Z" fill="#333333"/>
<path d="M155.638 76.6506C155.249 76.6506 154.86 76.5533 154.471 76.456C152.721 75.7752 151.942 73.8299 152.623 72.1765L156.611 62.0611C157.292 60.3104 159.237 59.5323 160.891 60.2131C162.641 60.894 163.419 62.8392 162.739 64.4927L158.751 74.608C158.265 75.8725 157 76.6506 155.638 76.6506Z" fill="#333333"/>
<path d="M99.4207 66.0495C99.0316 65.9522 98.6426 65.855 98.2535 65.5632C96.6973 64.5905 96.3083 62.548 97.2809 60.9918L103.214 51.8491C104.187 50.2929 106.229 49.9038 107.785 50.8765C109.341 51.8491 109.731 53.8916 108.758 55.4478L102.825 64.5905C102.047 65.7577 100.685 66.244 99.4207 66.0495Z" fill="#333333"/>
<path d="M87.2643 53.2104C86.8752 53.0159 86.5834 52.7241 86.2916 52.4323C85.1245 51.0706 85.2217 48.9308 86.6807 47.7637L94.948 40.6635C96.3097 39.4963 98.4495 39.5936 99.6167 41.0525C100.784 42.4142 100.687 44.554 99.2276 45.7211L90.9603 52.8213C89.8904 53.6967 88.4314 53.794 87.2643 53.2104Z" fill="#333333"/>
<path d="M78.9969 35.3143C78.7051 35.0226 78.5106 34.6335 78.4133 34.2445C77.8297 32.4937 78.8024 30.6457 80.5531 30.0621L90.863 26.6579C92.6137 26.0744 94.4617 27.047 95.0453 28.7977C95.6289 30.5485 94.6562 32.3965 92.9055 32.98L82.5956 36.287C81.2339 36.7733 79.775 36.287 78.9969 35.3143Z" fill="#333333"/>
<path d="M120.138 74.1221C119.749 74.1221 119.359 74.1221 118.873 74.0249C117.122 73.5386 116.053 71.6906 116.636 69.9398L119.651 59.4354C120.138 57.6847 121.986 56.6148 123.736 57.1984C125.487 57.6847 126.557 59.5327 125.973 61.2834L122.958 71.7878C122.666 73.0522 121.499 73.9276 120.138 74.1221Z" fill="#333333"/>
<path d="M139.494 75.2891C139.105 75.2891 138.716 75.2891 138.229 75.1919C136.479 74.7055 135.409 72.8576 135.992 71.1068L139.007 60.6024C139.494 58.8517 141.342 57.7818 143.092 58.3654C144.843 58.8517 145.913 60.6997 145.329 62.4504L142.314 72.9548C142.022 74.2192 140.855 75.1919 139.494 75.2891Z" fill="#333333"/>
<g opacity="0.3">
<path opacity="0.3" d="M14.2182 36.4817C12.3702 36.4817 10.9113 35.0227 10.9113 33.1747V12.0687C10.9113 10.2207 12.3702 8.76172 14.2182 8.76172H34.4489C36.2969 8.76172 37.7558 10.2207 37.7558 12.0687C37.7558 13.9167 36.2969 15.3756 34.4489 15.3756H17.5251V33.0775C17.5251 34.9255 16.0662 36.4817 14.2182 36.4817Z" fill="#F2F2F2"/>
</g>
<g opacity="0.3">
<path opacity="0.3" d="M15.8735 91.4351C14.1228 91.4351 12.6639 90.0735 12.5666 88.3227C10.6213 55.8369 18.8887 47.375 19.8613 46.4996C21.223 45.2352 23.3628 45.4298 24.53 46.7914C25.6971 48.1531 25.5998 50.1956 24.3354 51.4601C24.0436 51.7518 17.4298 59.3384 19.1805 88.0309C19.2778 89.8789 17.9161 91.4351 16.0681 91.5324C15.9708 91.4351 15.8735 91.4351 15.8735 91.4351Z" fill="#F2F2F2"/>
</g>
</g>
<path d="M85.7264 122.191L74.2278 115.547L68.9157 127.905L48.7548 66.8899L65.5751 61.2389L85.7264 122.191Z" fill="#ED1CBF"/>
<path d="M23.4207 129.101L33.4446 119.983L40.9009 130.786L48.9358 66.6268L31.3815 64.89L23.4207 129.101Z" fill="#ED1CBF"/>
<path d="M26.5452 103.137C31.5751 106.244 37.3658 108.255 43.5282 108.779L48.763 66.6232L31.3172 64.9403L26.5452 103.137Z" fill="#D919AF"/>
<path d="M65.5202 61.185L48.7535 66.8296L61.7389 106.04C67.6578 103.564 72.7671 99.6684 76.6908 94.935L65.5202 61.185Z" fill="#D919AF"/>
<path d="M52.3421 104.89C71.2646 101.727 84.3478 84.1311 81.5642 65.5874C78.7807 47.0438 61.1846 34.5747 42.2621 37.737C23.3397 40.8993 10.2565 58.4955 13.04 77.0391C15.8235 95.5828 33.4197 108.052 52.3421 104.89Z" fill="#FFCF03"/>
<path d="M67.3444 43.1891C74.1533 48.2388 78.9733 55.8123 80.323 64.8037C83.1073 83.3524 70.0284 100.943 51.1008 104.106C41.9258 105.639 33.0562 103.512 26.0284 98.7567C33.2148 104.13 42.6637 106.612 52.4162 104.982C71.3438 101.819 84.4226 84.2283 81.6383 65.6796C80.1396 56.1331 74.8044 48.1945 67.3444 43.1891Z" fill="#FFA506"/>
<path d="M68.5453 67.6356C68.852 69.7558 67.1776 71.8999 66.8119 73.945C66.4552 76.0524 67.2768 78.5308 66.2297 80.4383C65.1826 82.3458 62.5908 83.1788 61.0197 84.6658C59.4487 86.1527 58.6299 88.7238 56.655 89.7055C54.7446 90.676 52.1854 89.9052 49.9912 90.2857C47.7971 90.6662 45.5807 92.2651 43.4899 91.9884C41.3346 91.7229 39.8301 89.5547 37.9163 88.6721C35.9934 87.727 33.3024 87.874 31.7681 86.4142C30.2984 84.9431 30.3803 82.308 29.3817 80.4356C28.4567 78.6144 26.2591 77.1417 25.9524 75.0215C25.6457 72.9013 27.3201 70.7572 27.6858 68.7121C28.0425 66.6047 27.2208 64.1263 28.268 62.2188C29.3151 60.3113 31.9069 59.4783 33.4779 57.9914C35.049 56.5044 35.8678 53.9333 37.8427 52.9516C39.7531 51.9811 42.3123 52.7519 44.5064 52.3714C46.7006 51.9909 48.917 50.392 51.0078 50.6687C53.1631 50.9342 54.6675 53.1024 56.5814 53.9851C58.5042 54.9301 61.1953 54.7831 62.7295 56.243C64.1993 57.714 64.1174 60.3491 65.1159 62.2215C66.0409 64.0427 68.2386 65.5154 68.5453 67.6356Z" fill="#FFEC03"/>
<path d="M52.935 88.6917C50.2078 88.5893 49.4334 88.7236 46.8685 89.7437C45.9921 90.0874 44.7465 90.6231 43.8714 90.5191C42.3149 90.2776 40.7729 88.3076 38.7764 87.3114C36.78 86.3151 34.1354 86.3262 33.0604 85.298C31.9855 84.2699 32.0119 81.7083 30.9952 79.7111C30.5372 78.8316 29.9037 78.1104 29.3437 77.4404C27.3513 75.101 27.2792 74.6021 28.5137 71.7032C28.9127 70.803 29.2472 69.9139 29.4436 68.9849C29.8468 66.7415 29.0987 64.3142 29.8308 62.9727C30.5629 61.6311 33.0812 60.7469 34.6988 59.124C36.3164 57.5011 37.2268 55.1058 38.639 54.3495C39.4419 53.9546 40.7777 54.0425 41.7083 54.0729C44.4355 54.1754 45.21 54.0411 47.7748 53.021C48.7158 52.666 49.8969 52.1416 50.7719 52.2455C52.3284 52.487 53.8704 54.457 55.8669 55.4533C57.9279 56.4383 60.508 56.4384 61.5829 57.4666C62.6578 58.4948 62.6314 61.0564 63.6481 63.0536C64.1061 63.933 64.7396 64.6542 65.2997 65.3242C67.292 67.6636 67.3641 68.1625 66.1296 71.0615C65.1456 73.4056 64.9867 74.1363 65.0984 76.7379C65.2088 79.7872 65.0603 80.1326 62.3365 81.8834C61.4871 82.4142 60.6378 82.9451 59.889 83.7142C58.2714 85.3371 57.361 87.7324 55.9488 88.4887C55.8197 88.5111 53.9301 88.7109 52.935 88.6917Z" fill="#FFDC01"/>
<path d="M45.7899 94.826C47.2948 95.6347 47.9265 97.295 47.9265 97.295C47.9265 97.295 46.0618 97.6896 44.5569 96.8808C43.052 96.072 42.4203 94.4118 42.4203 94.4118C42.4203 94.4118 44.2204 94.0287 45.7899 94.826Z" fill="#FFAA2E"/>
<path d="M44.5697 97.9291C46.1602 97.0881 47.9794 97.391 47.9794 97.391C47.9794 97.391 47.2334 99.0805 45.6429 99.9215C44.0524 100.762 42.2331 100.46 42.2331 100.46C42.2331 100.46 42.9792 98.7701 44.5697 97.9291Z" fill="#FFAA2E"/>
<path d="M40.2236 94.1982C41.6315 95.221 42.0065 96.9368 42.0065 96.9368C42.0065 96.9368 40.0987 97.0851 38.6909 96.0623C37.283 95.0395 36.908 93.3237 36.908 93.3237C36.908 93.3237 38.8245 93.2375 40.2236 94.1982Z" fill="#FFAA2E"/>
<path d="M38.582 97.1217C40.2693 96.5154 41.9841 97.0211 41.9841 97.0211C41.9841 97.0211 41.0208 98.5554 39.3422 99.2223C37.6549 99.8287 35.9401 99.3229 35.9401 99.3229C35.9401 99.3229 36.9034 97.7886 38.582 97.1217Z" fill="#FFAA2E"/>
<path d="M35.7133 92.8192C36.8873 94.0194 37.0124 95.8541 37.0124 95.8541C37.0124 95.8541 35.1126 95.6793 33.9387 94.4792C32.7647 93.279 32.6396 91.4443 32.6396 91.4443C32.6396 91.4443 34.5305 91.5566 35.7133 92.8192Z" fill="#FFAA2E"/>
<path d="M33.6267 95.4314C35.3475 95.0682 36.9677 95.8365 36.9677 95.8365C36.9677 95.8365 35.7869 97.2191 34.0021 97.5936C32.2813 97.9568 30.6611 97.1885 30.6611 97.1885C30.6611 97.1885 31.9059 95.7947 33.6267 95.4314Z" fill="#FFAA2E"/>
<path d="M31.3442 90.2452C32.2262 91.6977 31.8071 93.509 31.8071 93.509C31.8071 93.509 30.0339 92.9218 29.1519 91.4693C28.2699 90.0168 28.689 88.2055 28.689 88.2055C28.689 88.2055 30.4622 88.7927 31.3442 90.2452Z" fill="#FFAA2E"/>
<path d="M28.6512 92.3686C30.4253 92.3676 31.7782 93.5582 31.7782 93.5582C31.7782 93.5582 30.2327 94.6988 28.5141 94.628C26.74 94.629 25.3871 93.4384 25.3871 93.4384C25.3871 93.4384 26.9326 92.2978 28.6512 92.3686Z" fill="#FFAA2E"/>
<path d="M27.7902 87.0911C28.2313 88.7544 27.3844 90.4511 27.3844 90.4511C27.3844 90.4511 25.8114 89.4385 25.3793 87.838C24.9383 86.1747 25.7851 84.478 25.7851 84.478C25.7851 84.478 27.3492 85.4277 27.7902 87.0911Z" fill="#FFAA2E"/>
<path d="M24.7173 88.4793C26.4275 88.9282 27.4153 90.3178 27.4153 90.3178C27.4153 90.3178 25.6772 91.0626 23.9756 90.6747C22.2654 90.2259 21.2777 88.8362 21.2777 88.8362C21.2777 88.8362 23.0714 88.0191 24.7173 88.4793Z" fill="#FFAA2E"/>
<path d="M24.5074 82.8546C24.6183 84.5771 23.4075 86.0796 23.4075 86.0796C23.4075 86.0796 22.0741 84.8293 22.0295 83.0951C21.9186 81.3726 23.1294 79.8701 23.1294 79.8701C23.1294 79.8701 24.4628 81.1204 24.5074 82.8546Z" fill="#FFAA2E"/>
<path d="M21.2888 83.6636C22.8477 84.4009 23.5447 86.0496 23.5447 86.0496C23.5447 86.0496 21.6924 86.5031 20.1335 85.7658C18.5746 85.0285 17.8776 83.3798 17.8776 83.3798C17.8776 83.3798 19.7211 82.8646 21.2888 83.6636Z" fill="#FFAA2E"/>
<path d="M22.535 78.6707C22.3062 80.387 20.9393 81.7228 20.9393 81.7228C20.9393 81.7228 19.8466 80.2384 20.0753 78.5221C20.3041 76.8058 21.671 75.47 21.671 75.47C21.671 75.47 22.7637 76.9544 22.535 78.6707Z" fill="#FFAA2E"/>
<path d="M19.2469 78.9591C20.6457 79.9224 21.031 81.7021 21.031 81.7021C21.031 81.7021 19.1253 81.848 17.7265 80.8846C16.3278 79.9213 15.9425 78.1416 15.9425 78.1416C15.9425 78.1416 17.8393 77.9336 19.2469 78.9591Z" fill="#FFAA2E"/>
<path d="M21.6255 73.8604C20.9875 75.515 19.316 76.5165 19.316 76.5165C19.316 76.5165 18.6731 74.8307 19.3111 73.1761C19.9491 71.5215 21.6206 70.52 21.6206 70.52C21.6206 70.52 22.2635 72.2058 21.6255 73.8604Z" fill="#FFAA2E"/>
<path d="M18.3586 73.2898C19.4793 74.5685 19.4014 76.3797 19.4014 76.3797C19.4014 76.3797 17.546 76.0652 16.4254 74.7865C15.3047 73.5077 15.3826 71.6965 15.3826 71.6965C15.3826 71.6965 17.2291 71.9484 18.3586 73.2898Z" fill="#FFAA2E"/>
<path d="M21.6468 68.77C20.6552 70.2218 18.8084 70.8037 18.8084 70.8037C18.8084 70.8037 18.6173 68.9867 19.6088 67.5349C20.6004 66.0831 22.4472 65.5012 22.4472 65.5012C22.4472 65.5012 22.7033 67.3068 21.6468 68.77Z" fill="#FFAA2E"/>
<path d="M18.6792 67.4353C19.4406 68.977 18.8822 70.7505 18.8822 70.7505C18.8822 70.7505 17.1547 70.0228 16.3933 68.4811C15.6319 66.9394 16.1903 65.1659 16.1903 65.1659C16.1903 65.1659 17.9838 65.882 18.6792 67.4353Z" fill="#FFAA2E"/>
<path d="M22.8338 64.4137C21.5633 65.6507 19.6721 65.7873 19.6721 65.7873C19.6721 65.7873 19.8704 63.9731 21.2142 62.787C22.4846 61.55 24.3759 61.4134 24.3759 61.4134C24.3759 61.4134 24.1133 63.2388 22.8338 64.4137Z" fill="#FFAA2E"/>
<path d="M20.2357 62.4995C20.6154 64.1792 19.6432 65.833 19.6432 65.833C19.6432 65.833 18.135 64.7352 17.7552 63.0555C17.3754 61.3758 18.3476 59.722 18.3476 59.722C18.3476 59.722 19.8559 60.8198 20.2357 62.4995Z" fill="#FFAA2E"/>
<path d="M24.4788 60.4343C22.9834 61.4506 21.1254 61.3288 21.1254 61.3288C21.1254 61.3288 21.6617 59.5932 23.093 58.5879C24.5883 57.5716 26.4464 57.6934 26.4464 57.6934C26.4464 57.6934 25.9101 59.4291 24.4788 60.4343Z" fill="#FFAA2E"/>
<path d="M22.2042 58.0826C22.2552 59.8187 21.0586 61.317 21.0586 61.317C21.0586 61.317 19.7862 59.985 19.6787 58.3233C19.6278 56.5872 20.8244 55.0889 20.8244 55.0889C20.8244 55.0889 22.1533 56.3466 22.2042 58.0826Z" fill="#FFAA2E"/>
<path d="M55.1283 93.1148C53.9198 94.4056 53.7763 96.2035 53.7763 96.2035C53.7763 96.2035 55.6585 95.9324 56.867 94.6416C58.0754 93.3508 58.2189 91.5529 58.2189 91.5529C58.2189 91.5529 56.4013 91.8126 55.1283 93.1148Z" fill="#FFAA2E"/>
<path d="M57.2434 95.647C55.497 95.3936 53.851 96.3068 53.851 96.3068C53.851 96.3068 55.0301 97.6573 56.7765 97.9107C58.5229 98.164 60.1689 97.2509 60.1689 97.2509C60.1689 97.2509 58.9898 95.9004 57.2434 95.647Z" fill="#FFAA2E"/>
<path d="M59.566 91.1689C58.5085 92.6302 58.6239 94.3921 58.6239 94.3921C58.6239 94.3921 60.4792 93.8712 61.5367 92.4099C62.5942 90.9486 62.4787 89.1867 62.4787 89.1867C62.4787 89.1867 60.6323 89.7697 59.566 91.1689Z" fill="#FFAA2E"/>
<path d="M62.0308 93.4004C60.257 93.4014 58.7671 94.4696 58.7671 94.4696C58.7671 94.4696 60.1112 95.5988 61.8936 95.6583C63.6674 95.6573 65.1573 94.5892 65.1573 94.5892C65.1573 94.5892 63.8133 93.4599 62.0308 93.4004Z" fill="#FFAA2E"/>
<path d="M63.3954 88.2777C62.6095 89.8261 62.9959 91.6144 62.9959 91.6144C62.9959 91.6144 64.7546 90.7896 65.5405 89.2413C66.3264 87.6929 65.94 85.9046 65.94 85.9046C65.94 85.9046 64.2466 86.7178 63.3954 88.2777Z" fill="#FFAA2E"/>
<path d="M66.1914 90.0774C64.4533 90.3199 63.1271 91.6042 63.1271 91.6042C63.1271 91.6042 64.6365 92.5157 66.4387 92.2619C68.1768 92.0194 69.503 90.7351 69.503 90.7351C69.503 90.7351 67.9382 89.8953 66.1914 90.0774Z" fill="#FFAA2E"/>
<path d="M66.6399 84.6328C66.203 86.3186 67.1028 87.8966 67.1028 87.8966C67.1028 87.8966 68.6267 86.7263 69.0636 85.0406C69.5005 83.3548 68.6007 81.7768 68.6007 81.7768C68.6007 81.7768 67.0679 82.8843 66.6399 84.6328Z" fill="#FFAA2E"/>
<path d="M69.8628 85.7197C68.1754 86.3263 67.2207 87.9216 67.2207 87.9216C67.2207 87.9216 69.0084 88.4768 70.623 87.8209C72.3104 87.2143 73.2652 85.619 73.2652 85.619C73.2652 85.619 71.5502 85.1131 69.8628 85.7197Z" fill="#FFAA2E"/>
<path d="M69.1781 80.189C69.2209 81.9225 70.4979 83.2452 70.4979 83.2452C70.4979 83.2452 71.7125 81.7417 71.6787 80.0711C71.6359 78.3376 70.3589 77.0149 70.3589 77.0149C70.3589 77.0149 69.1443 78.5184 69.1781 80.189Z" fill="#FFAA2E"/>
<path d="M72.4989 80.605C70.9968 81.6209 70.4427 83.2827 70.4427 83.2827C70.4427 83.2827 72.3023 83.3924 73.813 82.4375C75.315 81.4217 75.8691 79.7599 75.8691 79.7599C75.8691 79.7599 74.0009 79.5892 72.4989 80.605Z" fill="#FFAA2E"/>
<path d="M70.7159 75.5124C71.0916 77.1885 72.6629 78.2035 72.6629 78.2035C72.6629 78.2035 73.5818 76.5586 73.1398 74.8941C72.764 73.218 71.1927 72.203 71.1927 72.203C71.1927 72.203 70.2738 73.8479 70.7159 75.5124Z" fill="#FFAA2E"/>
<path d="M74.0468 75.204C72.7686 76.442 72.5629 78.2499 72.5629 78.2499C72.5629 78.2499 74.4502 78.0432 75.7284 76.8053C77.0066 75.5673 77.2124 73.7594 77.2124 73.7594C77.2124 73.7594 75.325 73.966 74.0468 75.204Z" fill="#FFAA2E"/>
<path d="M71.292 70.9244C71.9885 72.4785 73.6616 73.2809 73.6616 73.2809C73.6616 73.2809 74.2871 71.4949 73.5907 69.9408C72.8942 68.3867 71.221 67.5843 71.221 67.5843C71.221 67.5843 70.6616 69.3587 71.292 70.9244Z" fill="#FFAA2E"/>
<path d="M74.5331 70.1053C73.4694 71.5041 73.5954 73.3296 73.5954 73.3296C73.5954 73.3296 75.4482 72.8107 76.512 71.4119C77.5757 70.0131 77.4497 68.1876 77.4497 68.1876C77.4497 68.1876 75.6617 68.695 74.5331 70.1053Z" fill="#FFAA2E"/>
<path d="M70.6839 66.1948C71.7499 67.5489 73.6176 67.9263 73.6176 67.9263C73.6176 67.9263 73.7612 66.1018 72.6952 64.7477C71.6292 63.3936 69.7615 63.0162 69.7615 63.0162C69.7615 63.0162 69.6179 64.8407 70.6839 66.1948Z" fill="#FFAA2E"/>
<path d="M73.6486 64.6361C72.9374 66.2381 73.5137 67.9338 73.5137 67.9338C73.5137 67.9338 75.1912 66.9958 75.9024 65.3938C76.6137 63.7918 76.0374 62.0962 76.0374 62.0962C76.0374 62.0962 74.2856 62.9831 73.6486 64.6361Z" fill="#FFAA2E"/>
<path d="M69.0175 61.3666C70.3624 62.405 72.2799 62.3211 72.2799 62.3211C72.2799 62.3211 71.9589 60.5272 70.6141 59.4887C69.2693 58.4503 67.3518 58.5342 67.3518 58.5342C67.3518 58.5342 67.6078 60.3396 69.0175 61.3666Z" fill="#FFAA2E"/>
<path d="M71.4634 59.1816C71.1689 60.9087 72.1942 62.404 72.1942 62.404C72.1942 62.404 73.6344 61.12 73.929 59.3929C74.2235 57.6657 73.1982 56.1704 73.1982 56.1704C73.1982 56.1704 71.7669 57.5173 71.4634 59.1816Z" fill="#FFAA2E"/>
<path d="M66.6152 57.6293C68.1733 58.3767 70.0107 57.868 70.0107 57.868C70.0107 57.868 69.309 56.2096 67.6956 55.5353C66.1375 54.7879 64.3001 55.2966 64.3001 55.2966C64.3001 55.2966 65.0661 56.9439 66.6152 57.6293Z" fill="#FFAA2E"/>
<path d="M68.5232 55.0158C68.6399 56.7407 70.035 57.9872 70.035 57.9872C70.035 57.9872 71.1571 56.4369 71.0404 54.712C70.9237 52.9871 69.5286 51.7406 69.5286 51.7406C69.5286 51.7406 68.4065 53.2908 68.5232 55.0158Z" fill="#FFAA2E"/>
<path d="M63.6918 54.3694C65.4023 54.8327 67.1349 54.0914 67.1349 54.0914C67.1349 54.0914 66.1324 52.6213 64.486 52.1469C62.7754 51.6837 61.0429 52.4249 61.0429 52.4249C61.0429 52.4249 62.0454 53.8951 63.6918 54.3694Z" fill="#FFAA2E"/>
<path d="M65.1555 51.4444C65.6008 53.1126 67.165 54.1359 67.165 54.1359C67.165 54.1359 67.9962 52.442 67.6258 50.8255C67.1804 49.1573 65.6162 48.134 65.6162 48.134C65.6162 48.134 64.7193 49.8393 65.1555 51.4444Z" fill="#FFAA2E"/>
<path d="M62.2434 49.5392C62.188 49.6126 62.1326 49.686 62.0128 49.7705L61.9574 49.8438C68.1538 53.4248 72.5863 59.4157 73.6489 66.7556C75.63 80.4401 65.0137 93.757 50.0069 96.3573C35.0002 98.9577 21.1509 89.9438 19.1608 76.1971C18.1432 69.1682 20.3896 62.3389 24.8848 56.9053C24.747 56.8654 24.5447 56.8367 24.4069 56.7968C19.9208 62.2926 17.6834 69.1841 18.71 76.2752C20.7271 90.2086 34.7966 99.3755 50.061 96.7305C65.3254 94.0856 76.1169 80.6108 74.0998 66.6774C73.0281 59.2753 68.5132 53.1713 62.2434 49.5392Z" fill="#FF9912"/>
<path d="M27.5826 56.6154C25.9086 57.2795 24.1837 56.6969 24.1837 56.6969C24.1837 56.6969 25.1297 55.0906 26.8126 54.4877C28.4865 53.8236 30.2115 54.4063 30.2115 54.4063C30.2115 54.4063 29.1925 55.9623 27.5826 56.6154Z" fill="#FFAA2E"/>
<path d="M26.0035 53.7661C25.643 55.4419 24.1429 56.6689 24.1429 56.6689C24.1429 56.6689 23.2407 55.0818 23.6012 53.4059C23.9618 51.7301 25.4618 50.5031 25.4618 50.5031C25.4618 50.5031 26.364 52.0903 26.0035 53.7661Z" fill="#FFAA2E"/>
<path d="M59.7292 51.5297C61.5105 51.6005 62.9849 50.4685 62.9849 50.4685C62.9849 50.4685 61.6274 49.2578 59.855 49.2482C58.0737 49.1775 56.5993 50.3095 56.5993 50.3095C56.5993 50.3095 57.9479 51.4589 59.7292 51.5297Z" fill="#FFAA2E"/>
<path d="M60.3711 48.3549C61.1895 49.8274 62.9642 50.4895 62.9642 50.4895C62.9642 50.4895 63.3719 48.6764 62.5536 47.2039C61.7352 45.7314 59.9604 45.0693 59.9604 45.0693C59.9604 45.0693 59.5527 46.8824 60.3711 48.3549Z" fill="#FFAA2E"/>
<path d="M37.2689 49.4016L34.7912 49.1067L32.8534 50.6551L32.4306 48.2767L30.3794 46.8793L32.5663 45.676L33.272 43.3668L35.0307 45.0064L37.5159 44.9133L36.4611 47.0875L37.2689 49.4016Z" fill="#FFEC03"/>
<path d="M52.7138 47.1913L54.975 48.2316L54.9371 45.7883L56.6357 43.9572L54.3028 43.3156L53.1288 41.1911L51.7246 43.2308L49.2314 43.7119L50.7622 45.5835L50.4055 48.0283L52.7138 47.1913Z" fill="#FFEC03"/>
<path d="M45.9122 47.7064L43.5163 47.0759L41.3299 48.2789L41.292 45.8368L39.4695 44.2083L41.8315 43.2981L42.8859 41.1244L44.416 42.995L46.8289 43.3006L45.4254 45.3393L45.9122 47.7064Z" fill="#FFEC03"/>
<path d="M35.0157 81.7645L22.6937 83.7161L22.2831 81.1239L25.9995 75.95C27.097 74.4002 27.806 73.3362 28.1264 72.7582C28.4456 72.172 28.6586 71.6439 28.7654 71.1739C28.8722 70.7038 28.888 70.2316 28.8129 69.7574C28.7009 69.05 28.4206 68.5548 27.972 68.2715C27.5314 67.987 26.9856 67.8963 26.3346 67.9994C25.6513 68.1076 25.013 68.3694 24.4197 68.7847C23.8263 69.2 23.2258 69.7524 22.6182 70.4419L20.2126 68.3634C20.9636 67.4865 21.6002 66.8501 22.1225 66.4542C22.6448 66.0584 23.2308 65.7266 23.8806 65.459C24.529 65.1832 25.2712 64.9792 26.1071 64.8468C27.2083 64.6723 28.2127 64.7193 29.1203 64.9875C30.028 65.2557 30.7722 65.7146 31.3529 66.3641C31.9337 67.0137 32.2979 67.8047 32.4456 68.7371C32.5742 69.5489 32.5504 70.3354 32.3744 71.0966C32.2051 71.8485 31.8782 72.6459 31.3938 73.4889C30.9174 74.3307 30.0331 75.5624 28.741 77.1843L26.8123 79.6773L26.839 79.8461L34.5192 78.6297L35.0157 81.7645ZM41.4307 69.2049C43.1347 68.9351 44.5648 69.1988 45.721 69.9962C46.8853 70.7923 47.5992 72.0222 47.8627 73.686C48.1746 75.6553 47.8077 77.2666 46.7621 78.5198C45.7164 79.773 44.0643 80.5785 41.8056 80.9362C39.8444 81.2469 38.2107 81.1802 36.9044 80.7361L36.3946 77.517C37.083 77.754 37.8664 77.9142 38.7448 77.9975C39.6218 78.0728 40.4381 78.0507 41.1937 77.931C43.4684 77.5707 44.4581 76.4582 44.1627 74.5934C43.8814 72.817 42.5632 72.1154 40.2081 72.4884C39.7821 72.5559 39.3189 72.6745 38.8184 72.8444C38.3168 73.0063 37.9128 73.1609 37.6066 73.3083L35.9975 72.7474L35.238 63.6601L44.799 62.1458L45.2993 65.3047L39.0057 66.3015L39.2282 69.8133L39.6368 69.6621C40.1093 69.4719 40.7073 69.3195 41.4307 69.2049ZM61.7361 68.4978C62.2237 71.5763 62.0782 73.9352 61.2997 75.5746C60.5292 77.2127 59.095 78.1979 56.9971 78.5301C54.9636 78.8522 53.3074 78.3318 52.0286 76.9688C50.7579 75.6046 49.8864 73.4314 49.4141 70.4494C48.9214 67.3388 49.0609 64.9684 49.8327 63.3384C50.6032 61.7003 52.0333 60.7157 54.1232 60.3847C56.1568 60.0626 57.8142 60.5911 59.0955 61.9702C60.3848 63.3479 61.265 65.5238 61.7361 68.4978ZM53.1155 69.8632C53.458 72.0253 53.8885 73.5474 54.4072 74.4292C54.9327 75.3018 55.6375 75.668 56.5216 75.528C57.3897 75.3905 57.9416 74.817 58.1772 73.8074C58.4128 72.7978 58.3612 71.224 58.0226 69.086C57.6801 66.9238 57.2375 65.4037 56.6947 64.5256C56.1587 63.6383 55.4606 63.2627 54.6006 63.3989C53.7245 63.5377 53.1726 64.1112 52.9451 65.1195C52.7162 66.1198 52.773 67.701 53.1155 69.8632ZM80.4214 74.5729L76.1774 75.2451L70.3833 68.5495L68.9834 69.933L69.9802 76.2266L66.2426 76.8186L63.4508 59.1916L67.1884 58.5997L68.4659 66.6656L69.6084 64.3589L73.4338 57.6105L77.5813 56.9536L72.6679 65.7282L80.4214 74.5729Z" fill="#ED1CBF"/>
<defs>
<filter id="filter0_d" x="0" y="0" width="200" height="133.672" filterUnits="userSpaceOnUse" color-interpolation-filters="sRGB">
<feFlood flood-opacity="0" result="BackgroundImageFix"/>
<feColorMatrix in="SourceAlpha" type="matrix" values="0 0 0 0 0 0 0 0 0 0 0 0 0 0 0 0 0 0 127 0"/>
<feOffset dy="4"/>
<feGaussianBlur stdDeviation="2"/>
<feColorMatrix type="matrix" values="0 0 0 0 0 0 0 0 0 0 0 0 0 0 0 0 0 0 0.25 0"/>
<feBlend mode="normal" in2="BackgroundImageFix" result="effect1_dropShadow"/>
<feBlend mode="normal" in="SourceGraphic" in2="effect1_dropShadow" result="shape"/>
</filter>
<linearGradient id="paint0_linear" x1="98.565" y1="0" x2="98.565" y2="104.774" gradientUnits="userSpaceOnUse">
<stop stop-color="#FF9905"/>
<stop offset="1" stop-color="#C822AD"/>
</linearGradient>
</defs>
</svg>
