<svg width="126" height="165" viewBox="0 0 126 165" fill="none" xmlns="http://www.w3.org/2000/svg">
<path fill-rule="evenodd" clip-rule="evenodd" d="M102.2 57.0015H115.8C118.4 57.0015 120.7 58.1015 122.4 59.8015C124.1 61.5015 125.2 63.9015 125.2 66.4015V78.2015C125.2 80.8015 124.1 83.1015 122.4 84.8015C120.7 86.5015 118.3 87.6015 115.8 87.6015H102.1C99.5 87.6015 97.1999 86.5015 95.4999 84.8015C93.7999 83.1015 92.7 80.7015 92.7 78.2015V66.4015C92.7 63.8015 93.7999 61.5015 95.4999 59.8015C97.1999 58.0015 99.5999 57.0015 102.2 57.0015ZM115.8 60.9015H102.1C100.6 60.9015 99.1999 61.5015 98.1999 62.5015C97.1999 63.5015 96.6 64.9015 96.6 66.4015V78.2015C96.6 79.7015 97.1999 81.1015 98.1999 82.1015C99.1999 83.1015 100.6 83.7015 102.1 83.7015H115.8C117.3 83.7015 118.7 83.1015 119.7 82.1015C120.7 81.1015 121.3 79.7015 121.3 78.2015V66.4015C121.3 64.9015 120.7 63.5015 119.7 62.5015C118.7 61.5015 117.3 60.9015 115.8 60.9015Z" fill="url(#paint0_linear)"/>
<path fill-rule="evenodd" clip-rule="evenodd" d="M9.4 57.0015H23.1C25.7 57.0015 28 58.1015 29.7 59.8015C31.4 61.5015 32.5 63.9015 32.5 66.4015V78.2015C32.5 80.8015 31.4 83.1015 29.7 84.8015C28 86.5015 25.6 87.6015 23.1 87.6015H9.4C6.8 87.6015 4.5 86.5015 2.8 84.8015C1.1 83.1015 0 80.7015 0 78.2015V66.4015C0 63.8015 1.1 61.5015 2.8 59.8015C4.4 58.0015 6.8 57.0015 9.4 57.0015ZM23 60.9015H9.4C7.9 60.9015 6.5 61.5015 5.5 62.5015C4.5 63.5015 3.9 64.9015 3.9 66.4015V78.2015C3.9 79.7015 4.5 81.1015 5.5 82.1015C6.5 83.1015 7.9 83.7015 9.4 83.7015H23.1C24.6 83.7015 26 83.1015 27 82.1015C28 81.1015 28.6 79.7015 28.6 78.2015V66.4015C28.6 64.9015 28 63.5015 27 62.5015C25.9 61.5015 24.5 60.9015 23 60.9015Z" fill="url(#paint1_linear)"/>
<path fill-rule="evenodd" clip-rule="evenodd" d="M21.4 46.7017H103.6C109.1 46.7017 114.4 51.3017 113.6 56.7017L98.7 154.502C97.9 159.902 94.2 164.502 88.7 164.502H36.3C30.8 164.502 27.1 159.902 26.3 154.502L11.4 56.7017C10.6 51.3017 15.9 46.7017 21.4 46.7017Z" fill="url(#paint2_linear)"/>
<path fill-rule="evenodd" clip-rule="evenodd" d="M62.5 46.7017H103.6C109.1 46.7017 114.4 51.3017 113.6 56.7017L98.7 154.502C97.9 159.902 94.2 164.502 88.7 164.502H62.5V46.7017Z" fill="url(#paint3_linear)"/>
<path fill-rule="evenodd" clip-rule="evenodd" d="M7.70005 41.5015H117.4C119.6 41.5015 121.3 43.3015 121.3 45.4015V49.8015C121.3 52.0015 119.5 53.7015 117.4 53.7015H7.70005C5.50005 53.7015 3.80005 51.9015 3.80005 49.8015V45.4015C3.80005 43.3015 5.50005 41.5015 7.70005 41.5015Z" fill="#FF8C00"/>
<path fill-rule="evenodd" clip-rule="evenodd" d="M62.5 41.5015H118.7C120.1 41.5015 121.3 43.3015 121.3 45.4015V49.8015C121.3 52.0015 120.1 53.7015 118.7 53.7015H62.5V41.5015Z" fill="#E77F00"/>
<path fill-rule="evenodd" clip-rule="evenodd" d="M76.1 4.6017L62.8 1.4017C60.3 0.801701 57.7 1.3017 55.7 2.5017C53.6 3.8017 52.1 5.8017 51.5 8.3017L50.5 12.5017L54.3 13.4017L55.3 9.2017C55.7 7.7017 56.6 6.5017 57.8 5.8017C59 5.1017 60.5 4.8017 61.9 5.1017L75.2 8.3017C76.7 8.7017 77.9 9.6017 78.6 10.8017C79.3 12.0017 79.6 13.5017 79.3 14.9017L78.3 19.1017L82.1 20.0017L83.1 15.8017C83.7 13.3017 83.2 10.7017 82 8.7017C80.6 6.8017 78.6 5.2017 76.1 4.6017Z" fill="#F68503"/>
<path fill-rule="evenodd" clip-rule="evenodd" d="M76.1001 4.60171L69.5001 3.00171L68.6001 6.80171L75.2001 8.40171C76.7001 8.80171 77.9001 9.70171 78.6001 10.9017C79.3001 12.1017 79.6001 13.6017 79.3001 15.0017L78.3001 19.2017L82.1001 20.1017L83.1001 15.9017C83.7001 13.4017 83.2001 10.8017 82.0001 8.80171C80.6001 6.80171 78.6001 5.20171 76.1001 4.60171Z" fill="#ED7500"/>
<path fill-rule="evenodd" clip-rule="evenodd" d="M13.6 0.501545L120.2 26.1015C122.3 26.6015 123.6 28.7015 123.1 30.9015L122.1 35.1015C121.6 37.2015 119.5 38.5015 117.3 38.0015L10.8 12.4015C8.69998 11.9015 7.39998 9.80155 7.89998 7.60155L8.89998 3.40155C9.39998 1.30155 11.5 0.00154531 13.6 0.501545Z" fill="#E77F00"/>
<path fill-rule="evenodd" clip-rule="evenodd" d="M67.0001 13.3015L121.6 26.4015C123 26.7015 123.7 28.7015 123.2 30.8015L122.2 35.0015C121.7 37.1015 120.1 38.6015 118.8 38.2015L64.1001 25.2015L67.0001 13.3015Z" fill="#FF8C00"/>
<path fill-rule="evenodd" clip-rule="evenodd" d="M64.2412 76.5209C64.9308 76.5209 65.5055 76.5209 66.1952 76.5209V69.3945L81.0227 81.4634L66.1952 93.5323V84.9117C65.5055 84.9117 64.9308 84.7967 64.2412 84.7967C57.5745 84.7967 51.4826 87.5553 47.1148 91.9231C43.7815 95.2565 41.3677 99.5093 40.4482 104.337L32.7471 100.429C34.2413 94.9116 37.2298 89.9691 41.1379 85.9462C47.1148 80.1991 55.2757 76.5209 64.2412 76.5209ZM95.1605 137.67L88.6089 131.118C93.7812 125.371 96.9996 117.67 96.9996 109.279C96.9996 100.199 93.3215 92.0381 87.4594 86.176C86.425 85.1416 85.3905 84.222 84.2411 83.3025L77.4595 88.8197C78.9537 89.7392 80.2181 90.8887 81.4824 92.0381C85.8502 96.4059 88.6089 102.498 88.6089 109.164C88.6089 115.256 86.4249 120.774 82.6319 125.026L78.0342 120.429L76.0802 139.509L95.1605 137.67ZM27 123.532L32.1724 105.141L49.1838 113.877L41.3677 117.325C42.6321 120.889 44.5861 123.992 47.1148 126.521C51.4826 130.888 57.5745 133.647 64.2412 133.647C67.3446 133.647 70.3331 133.072 73.0917 132.038L72.1722 141.118C69.6434 141.693 66.9998 142.038 64.2412 142.038C55.1608 142.038 46.9999 138.36 41.1379 132.498C37.8045 129.164 35.2758 125.141 33.5517 120.659L27 123.532Z" fill="url(#paint4_linear)"/>
<path fill-rule="evenodd" clip-rule="evenodd" d="M64.2417 76.5209C64.9314 76.5209 65.5061 76.5209 66.1957 76.5209V69.3945L81.0232 81.4634L66.1957 93.5323V84.9117C65.5061 84.9117 64.9314 84.7967 64.2417 84.7967C63.4371 84.7967 62.7475 84.7967 61.9429 84.9117V76.5209C62.7475 76.6359 63.5521 76.5209 64.2417 76.5209ZM95.1611 137.67L88.6094 131.118C93.7818 125.371 97.0001 117.67 97.0001 109.279C97.0001 100.199 93.322 92.0381 87.46 86.176C86.4255 85.1416 85.391 84.222 84.2416 83.3025L77.46 88.8197C78.9543 89.7392 80.2186 90.8887 81.483 92.0381C85.8508 96.4059 88.6094 102.498 88.6094 109.164C88.6094 115.256 86.4255 120.774 82.6324 125.026L78.0347 120.429L76.0807 139.509L95.1611 137.67ZM61.9429 133.417C62.7475 133.532 63.4371 133.532 64.2417 133.532C67.3451 133.532 70.3336 132.957 73.0922 131.923L72.1727 141.003C69.644 141.578 67.0003 141.923 64.2417 141.923C63.4371 141.923 62.7475 141.923 61.9429 141.808V133.417Z" fill="url(#paint5_linear)"/>
<path d="M68.5234 125.395H62.4883V108.871L62.5469 106.156L62.6445 103.188C61.6419 104.19 60.9453 104.848 60.5547 105.16L57.2734 107.797L54.3633 104.164L63.5625 96.8398H68.5234V125.395Z" fill="#FFBF00"/>
<defs>
<linearGradient id="paint0_linear" x1="109.102" y1="53.3243" x2="109.102" y2="85.1552" gradientUnits="userSpaceOnUse">
<stop stop-color="#00A4ED"/>
<stop offset="1" stop-color="#0009E3"/>
</linearGradient>
<linearGradient id="paint1_linear" x1="16.4023" y1="53.3243" x2="16.4023" y2="85.1552" gradientUnits="userSpaceOnUse">
<stop stop-color="#00A4ED"/>
<stop offset="1" stop-color="#0009E3"/>
</linearGradient>
<linearGradient id="paint2_linear" x1="62.9798" y1="32.5456" x2="62.9798" y2="155.084" gradientUnits="userSpaceOnUse">
<stop stop-color="#00A4ED"/>
<stop offset="1" stop-color="#0009E3"/>
</linearGradient>
<linearGradient id="paint3_linear" x1="88.3301" y1="32.5456" x2="88.3301" y2="155.084" gradientUnits="userSpaceOnUse">
<stop stop-color="#00A4ED"/>
<stop offset="1" stop-color="#0009E3"/>
</linearGradient>
<linearGradient id="paint4_linear" x1="61.9998" y1="69.3945" x2="61.9998" y2="142.038" gradientUnits="userSpaceOnUse">
<stop stop-color="#FFC700"/>
<stop offset="1" stop-color="#FF4070"/>
</linearGradient>
<linearGradient id="paint5_linear" x1="79.4715" y1="69.3945" x2="79.4715" y2="141.923" gradientUnits="userSpaceOnUse">
<stop stop-color="#FFC700"/>
<stop offset="1" stop-color="#FF4070"/>
</linearGradient>
</defs>
</svg>
