<svg width="200" height="137" viewBox="0 0 200 137" fill="none" xmlns="http://www.w3.org/2000/svg">
<g filter="url(#filter0_d)">
<path d="M7.02159 95.4368C7.02159 95.4368 4.1037 98.3547 4.1037 109.54C4.1037 120.725 0.796759 122.379 31.5319 122.379C62.2669 122.379 58.571 121.99 58.571 111.193C58.571 111.193 71.896 111.582 93.8774 118.683C115.859 125.783 176.356 124.324 189.973 105.26C203.59 86.2941 189.876 90.8654 189.876 90.8654C189.876 90.8654 29.8784 80.0692 7.02159 95.4368Z" fill="#4C094E"/>
<path d="M15.3859 41.8445C15.3859 41.8445 7.11853 48.9447 7.11853 95.4364C7.11853 95.4364 53.6102 90.476 90.1811 100.786C126.752 111.193 174.897 101.661 189.876 90.865C189.876 90.865 192.793 67.6192 171.59 65.9657C150.387 64.3122 115.567 65.5767 102.242 51.8626C88.8194 38.1485 89.3057 24.0454 89.3057 13.2492C89.3057 2.453 75.9807 -5.03625 64.0174 5.75994L15.3859 41.8445Z" fill="url(#paint0_linear)"/>
<path d="M74.7163 33.5775C74.7163 38.1488 71.0203 41.8448 66.4489 41.8448H15.3859C10.8145 41.8448 7.11853 38.1488 7.11853 33.5775V14.0276C7.11853 9.45625 10.8145 5.76025 15.3859 5.76025H66.4489C71.0203 5.76025 74.7163 9.45625 74.7163 14.0276V33.5775Z" fill="#4C094E"/>
<path d="M11.5924 124.518C11.5924 125.393 10.8143 126.172 9.9389 126.172H5.65933C4.78396 126.172 4.00586 125.393 4.00586 124.518V116.64C4.00586 115.764 4.78396 114.986 5.65933 114.986H9.9389C10.8143 114.986 11.5924 115.764 11.5924 116.64V124.518Z" fill="#4C094E"/>
<path d="M23.361 124.518C23.361 125.393 22.5829 126.172 21.7076 126.172H17.428C16.5526 126.172 15.7745 125.393 15.7745 124.518V116.64C15.7745 115.764 16.5526 114.986 17.428 114.986H21.7076C22.5829 114.986 23.361 115.764 23.361 116.64V124.518Z" fill="#4C094E"/>
<path d="M35.2288 124.518C35.2288 125.393 34.4507 126.172 33.5754 126.172H29.2958C28.4204 126.172 27.6423 125.393 27.6423 124.518V116.64C27.6423 115.764 28.4204 114.986 29.2958 114.986H33.5754C34.4507 114.986 35.2288 115.764 35.2288 116.64V124.518Z" fill="#4C094E"/>
<path d="M46.9975 124.518C46.9975 125.393 46.2194 126.172 45.344 126.172H41.0645C40.1891 126.172 39.411 125.393 39.411 124.518V116.64C39.411 115.764 40.1891 114.986 41.0645 114.986H45.344C46.2194 114.986 46.9975 115.764 46.9975 116.64V124.518Z" fill="#4C094E"/>
<path d="M58.7662 124.518C58.7662 125.393 57.9881 126.172 57.1127 126.172H52.8332C51.9578 126.172 51.1797 125.393 51.1797 124.518V116.64C51.1797 115.764 51.9578 114.986 52.8332 114.986H57.1127C57.9881 114.986 58.7662 115.764 58.7662 116.64V124.518Z" fill="#4C094E"/>
<path d="M147.664 124.518C147.664 125.393 146.886 126.172 146.01 126.172H141.731C140.855 126.172 140.077 125.393 140.077 124.518V116.64C140.077 115.764 140.855 114.986 141.731 114.986H146.01C146.886 114.986 147.664 115.764 147.664 116.64V124.518Z" fill="#A67C52"/>
<path d="M100.492 124.518C100.492 125.393 99.7137 126.172 98.8383 126.172H94.5587C93.6834 126.172 92.9053 125.393 92.9053 124.518V116.64C92.9053 115.764 93.6834 114.986 94.5587 114.986H98.8383C99.7137 114.986 100.492 115.764 100.492 116.64V124.518Z" fill="#4C094E"/>
<path d="M112.358 124.518C112.358 125.393 111.58 126.172 110.705 126.172H106.425C105.55 126.172 104.771 125.393 104.771 124.518V116.64C104.771 115.764 105.55 114.986 106.425 114.986H110.705C111.58 114.986 112.358 115.764 112.358 116.64V124.518Z" fill="#4C094E"/>
<path d="M124.127 124.518C124.127 125.393 123.348 126.172 122.473 126.172H118.194C117.318 126.172 116.54 125.393 116.54 124.518V116.64C116.54 115.764 117.318 114.986 118.194 114.986H122.473C123.348 114.986 124.127 115.764 124.127 116.64V124.518Z" fill="#4C094E"/>
<path d="M135.895 124.518C135.895 125.393 135.117 126.172 134.242 126.172H129.962C129.087 126.172 128.309 125.393 128.309 124.518V116.64C128.309 115.764 129.087 114.986 129.962 114.986H134.242C135.117 114.986 135.895 115.764 135.895 116.64V124.518Z" fill="#4C094E"/>
<path d="M147.664 124.518C147.664 125.393 146.886 126.172 146.01 126.172H141.731C140.855 126.172 140.077 125.393 140.077 124.518V116.64C140.077 115.764 140.855 114.986 141.731 114.986H146.01C146.886 114.986 147.664 115.764 147.664 116.64V124.518Z" fill="#4C094E"/>
<path d="M159.432 124.518C159.432 125.393 158.654 126.172 157.779 126.172H153.499C152.624 126.172 151.846 125.393 151.846 124.518V116.64C151.846 115.764 152.624 114.986 153.499 114.986H157.779C158.654 114.986 159.432 115.764 159.432 116.64V124.518Z" fill="#4C094E"/>
<path d="M171.201 122.281C171.201 123.156 170.423 123.934 169.547 123.934H165.268C164.392 123.934 163.614 123.156 163.614 122.281V114.402C163.614 113.527 164.392 112.749 165.268 112.749H169.547C170.423 112.749 171.201 113.527 171.201 114.402V122.281Z" fill="#4C094E"/>
<path d="M183.067 118.876C183.067 119.752 182.289 120.53 181.414 120.53H177.134C176.259 120.53 175.48 119.752 175.48 118.876V110.998C175.48 110.123 176.259 109.345 177.134 109.345H181.414C182.289 109.345 183.067 110.123 183.067 110.998V118.876Z" fill="#4C094E"/>
<path d="M191.043 111.095C191.043 111.971 190.264 112.749 189.389 112.749H185.11C184.234 112.749 183.456 111.971 183.456 111.095V103.217C183.456 102.342 184.234 101.563 185.11 101.563H189.389C190.264 101.563 191.043 102.342 191.043 103.217V111.095Z" fill="#4C094E"/>
<path d="M90.8624 18.7931H79.9689C78.1209 18.7931 76.662 17.3341 76.662 15.4861C76.662 13.6381 78.1209 12.1792 79.9689 12.1792H90.8624C92.7104 12.1792 94.1693 13.6381 94.1693 15.4861C94.1693 17.3341 92.6131 18.7931 90.8624 18.7931Z" fill="#333333"/>
<path d="M155.638 77.1506C155.249 77.1506 154.86 77.0533 154.471 76.956C152.721 76.2752 151.942 74.3299 152.623 72.6765L156.611 62.5611C157.292 60.8104 159.237 60.0323 160.891 60.7131C162.641 61.394 163.419 63.3392 162.739 64.9927L158.751 75.108C158.265 76.3725 157 77.1506 155.638 77.1506Z" fill="#333333"/>
<path d="M99.4207 66.5495C99.0316 66.4522 98.6426 66.355 98.2535 66.0632C96.6973 65.0905 96.3083 63.048 97.2809 61.4918L103.214 52.3491C104.187 50.7929 106.229 50.4038 107.785 51.3765C109.341 52.3491 109.731 54.3916 108.758 55.9478L102.825 65.0905C102.047 66.2577 100.685 66.744 99.4207 66.5495Z" fill="#333333"/>
<path d="M87.2643 53.7104C86.8752 53.5159 86.5834 53.2241 86.2916 52.9323C85.1245 51.5706 85.2217 49.4308 86.6807 48.2637L94.948 41.1635C96.3097 39.9963 98.4495 40.0936 99.6167 41.5525C100.784 42.9142 100.687 45.054 99.2276 46.2211L90.9603 53.3213C89.8904 54.1967 88.4314 54.294 87.2643 53.7104Z" fill="#333333"/>
<path d="M78.9969 35.8143C78.7051 35.5226 78.5106 35.1335 78.4133 34.7445C77.8297 32.9937 78.8024 31.1457 80.5531 30.5621L90.863 27.1579C92.6137 26.5744 94.4617 27.547 95.0453 29.2977C95.6289 31.0485 94.6562 32.8965 92.9055 33.48L82.5956 36.787C81.2339 37.2733 79.775 36.787 78.9969 35.8143Z" fill="#333333"/>
<path d="M120.138 74.6221C119.749 74.6221 119.359 74.6221 118.873 74.5249C117.122 74.0386 116.053 72.1906 116.636 70.4398L119.651 59.9354C120.138 58.1847 121.986 57.1148 123.736 57.6984C125.487 58.1847 126.557 60.0327 125.973 61.7834L122.958 72.2878C122.666 73.5522 121.499 74.4276 120.138 74.6221Z" fill="#333333"/>
<path d="M139.494 75.7891C139.105 75.7891 138.716 75.7891 138.229 75.6919C136.479 75.2055 135.409 73.3576 135.992 71.6068L139.007 61.1024C139.494 59.3517 141.342 58.2818 143.093 58.8654C144.843 59.3517 145.913 61.1997 145.33 62.9504L142.314 73.4548C142.023 74.7192 140.855 75.6919 139.494 75.7891Z" fill="#333333"/>
<g opacity="0.3">
<path opacity="0.3" d="M14.2182 36.9817C12.3702 36.9817 10.9113 35.5227 10.9113 33.6747V12.5687C10.9113 10.7207 12.3702 9.26172 14.2182 9.26172H34.4489C36.2969 9.26172 37.7558 10.7207 37.7558 12.5687C37.7558 14.4167 36.2969 15.8756 34.4489 15.8756H17.5251V33.5775C17.5251 35.4255 16.0662 36.9817 14.2182 36.9817Z" fill="#F2F2F2"/>
</g>
<g opacity="0.3">
<path opacity="0.3" d="M15.8735 91.9351C14.1228 91.9351 12.6639 90.5735 12.5666 88.8227C10.6213 56.3369 18.8887 47.875 19.8613 46.9996C21.223 45.7352 23.3628 45.9298 24.53 47.2914C25.6971 48.6531 25.5998 50.6956 24.3354 51.9601C24.0436 52.2518 17.4298 59.8384 19.1805 88.5309C19.2778 90.3789 17.9161 91.9351 16.0681 92.0324C15.9708 91.9351 15.8735 91.9351 15.8735 91.9351Z" fill="#F2F2F2"/>
</g>
</g>
<path d="M85.7264 122.691L74.2278 116.047L68.9157 128.405L48.7548 67.3899L65.5751 61.7389L85.7264 122.691Z" fill="#ED1CBF"/>
<path d="M23.4207 129.601L33.4446 120.483L40.9009 131.286L48.9358 67.1268L31.3815 65.39L23.4207 129.601Z" fill="#ED1CBF"/>
<path d="M26.5452 103.637C31.5751 106.744 37.3658 108.755 43.5282 109.279L48.763 67.1232L31.3172 65.4403L26.5452 103.637Z" fill="#D919AF"/>
<path d="M65.5202 61.685L48.7535 67.3296L61.7389 106.54C67.6578 104.064 72.7671 100.168 76.6908 95.435L65.5202 61.685Z" fill="#D919AF"/>
<path d="M52.3421 105.39C71.2646 102.227 84.3478 84.6311 81.5642 66.0874C78.7807 47.5438 61.1846 35.0747 42.2621 38.237C23.3397 41.3993 10.2565 58.9955 13.04 77.5391C15.8235 96.0828 33.4197 108.552 52.3421 105.39Z" fill="#FFCF03"/>
<path d="M67.3444 43.6891C74.1533 48.7388 78.9733 56.3123 80.323 65.3037C83.1073 83.8524 70.0284 101.443 51.1008 104.606C41.9258 106.139 33.0562 104.012 26.0284 99.2567C33.2148 104.63 42.6637 107.112 52.4162 105.482C71.3438 102.319 84.4226 84.7283 81.6383 66.1796C80.1396 56.6331 74.8044 48.6945 67.3444 43.6891Z" fill="#FFA506"/>
<path d="M68.5453 68.1356C68.852 70.2558 67.1776 72.3999 66.8119 74.445C66.4552 76.5524 67.2768 79.0308 66.2297 80.9383C65.1826 82.8458 62.5908 83.6788 61.0197 85.1658C59.4487 86.6527 58.6299 89.2238 56.655 90.2055C54.7446 91.176 52.1854 90.4052 49.9912 90.7857C47.7971 91.1662 45.5807 92.7651 43.4899 92.4884C41.3346 92.2229 39.8301 90.0547 37.9163 89.1721C35.9934 88.227 33.3024 88.374 31.7681 86.9142C30.2984 85.4431 30.3803 82.808 29.3817 80.9356C28.4567 79.1144 26.2591 77.6417 25.9524 75.5215C25.6457 73.4013 27.3201 71.2572 27.6858 69.2121C28.0425 67.1047 27.2208 64.6263 28.268 62.7188C29.3151 60.8113 31.9069 59.9783 33.4779 58.4914C35.049 57.0044 35.8678 54.4333 37.8427 53.4516C39.7531 52.4811 42.3123 53.2519 44.5064 52.8714C46.7006 52.4909 48.917 50.892 51.0078 51.1687C53.1631 51.4342 54.6675 53.6024 56.5814 54.4851C58.5042 55.4301 61.1953 55.2831 62.7295 56.743C64.1993 58.214 64.1174 60.8491 65.1159 62.7215C66.0409 64.5427 68.2386 66.0154 68.5453 68.1356Z" fill="#FFEC03"/>
<path d="M52.935 89.1917C50.2078 89.0893 49.4334 89.2236 46.8685 90.2437C45.9921 90.5874 44.7465 91.1231 43.8714 91.0191C42.3149 90.7776 40.7729 88.8076 38.7764 87.8114C36.78 86.8151 34.1354 86.8262 33.0604 85.798C31.9855 84.7699 32.0119 82.2083 30.9952 80.2111C30.5372 79.3316 29.9037 78.6104 29.3437 77.9404C27.3513 75.601 27.2792 75.1021 28.5137 72.2032C28.9127 71.303 29.2472 70.4139 29.4436 69.4849C29.8468 67.2415 29.0987 64.8142 29.8308 63.4727C30.5629 62.1311 33.0812 61.2469 34.6988 59.624C36.3164 58.0011 37.2268 55.6058 38.639 54.8495C39.4419 54.4546 40.7777 54.5425 41.7083 54.5729C44.4355 54.6754 45.21 54.5411 47.7748 53.521C48.7158 53.166 49.8969 52.6416 50.7719 52.7455C52.3284 52.987 53.8704 54.957 55.8669 55.9533C57.9279 56.9383 60.508 56.9384 61.5829 57.9666C62.6578 58.9948 62.6314 61.5564 63.6481 63.5536C64.1061 64.433 64.7396 65.1542 65.2997 65.8242C67.292 68.1636 67.3641 68.6625 66.1296 71.5615C65.1456 73.9056 64.9867 74.6363 65.0984 77.2379C65.2088 80.2872 65.0603 80.6326 62.3365 82.3834C61.4871 82.9142 60.6378 83.4451 59.889 84.2142C58.2714 85.8371 57.361 88.2324 55.9488 88.9887C55.8197 89.0111 53.9301 89.2109 52.935 89.1917Z" fill="#FFDC01"/>
<path d="M45.7898 95.326C47.2947 96.1347 47.9264 97.795 47.9264 97.795C47.9264 97.795 46.0617 98.1896 44.5568 97.3808C43.0519 96.572 42.4201 94.9118 42.4201 94.9118C42.4201 94.9118 44.2203 94.5287 45.7898 95.326Z" fill="#FFAA2E"/>
<path d="M44.5695 98.4291C46.16 97.5881 47.9793 97.891 47.9793 97.891C47.9793 97.891 47.2332 99.5805 45.6427 100.421C44.0522 101.262 42.233 100.96 42.233 100.96C42.233 100.96 42.9791 99.2701 44.5695 98.4291Z" fill="#FFAA2E"/>
<path d="M40.2236 94.6982C41.6315 95.721 42.0065 97.4368 42.0065 97.4368C42.0065 97.4368 40.0987 97.5851 38.6909 96.5623C37.283 95.5395 36.908 93.8237 36.908 93.8237C36.908 93.8237 38.8245 93.7375 40.2236 94.6982Z" fill="#FFAA2E"/>
<path d="M38.582 97.6217C40.2693 97.0154 41.9841 97.5211 41.9841 97.5211C41.9841 97.5211 41.0208 99.0554 39.3422 99.7223C37.6549 100.329 35.9401 99.8229 35.9401 99.8229C35.9401 99.8229 36.9034 98.2886 38.582 97.6217Z" fill="#FFAA2E"/>
<path d="M35.7133 93.3192C36.8873 94.5194 37.0124 96.3541 37.0124 96.3541C37.0124 96.3541 35.1126 96.1793 33.9387 94.9792C32.7647 93.779 32.6396 91.9443 32.6396 91.9443C32.6396 91.9443 34.5305 92.0566 35.7133 93.3192Z" fill="#FFAA2E"/>
<path d="M33.6267 95.9314C35.3475 95.5682 36.9677 96.3365 36.9677 96.3365C36.9677 96.3365 35.7869 97.7191 34.0021 98.0936C32.2813 98.4568 30.6611 97.6885 30.6611 97.6885C30.6611 97.6885 31.9059 96.2947 33.6267 95.9314Z" fill="#FFAA2E"/>
<path d="M31.3442 90.7452C32.2262 92.1977 31.8071 94.009 31.8071 94.009C31.8071 94.009 30.0339 93.4218 29.1519 91.9693C28.2699 90.5168 28.689 88.7055 28.689 88.7055C28.689 88.7055 30.4622 89.2927 31.3442 90.7452Z" fill="#FFAA2E"/>
<path d="M28.6512 92.8686C30.4253 92.8676 31.7782 94.0582 31.7782 94.0582C31.7782 94.0582 30.2327 95.1988 28.5141 95.128C26.74 95.129 25.3871 93.9384 25.3871 93.9384C25.3871 93.9384 26.9326 92.7978 28.6512 92.8686Z" fill="#FFAA2E"/>
<path d="M27.7902 87.5911C28.2313 89.2544 27.3844 90.9511 27.3844 90.9511C27.3844 90.9511 25.8114 89.9385 25.3793 88.338C24.9383 86.6747 25.7851 84.978 25.7851 84.978C25.7851 84.978 27.3492 85.9277 27.7902 87.5911Z" fill="#FFAA2E"/>
<path d="M24.7173 88.9793C26.4275 89.4282 27.4153 90.8178 27.4153 90.8178C27.4153 90.8178 25.6772 91.5626 23.9756 91.1747C22.2654 90.7259 21.2777 89.3362 21.2777 89.3362C21.2777 89.3362 23.0714 88.5191 24.7173 88.9793Z" fill="#FFAA2E"/>
<path d="M24.5075 83.3546C24.6183 85.0771 23.4076 86.5796 23.4076 86.5796C23.4076 86.5796 22.0742 85.3293 22.0295 83.5951C21.9187 81.8726 23.1294 80.3701 23.1294 80.3701C23.1294 80.3701 24.4628 81.6204 24.5075 83.3546Z" fill="#FFAA2E"/>
<path d="M21.2888 84.1636C22.8477 84.9009 23.5447 86.5496 23.5447 86.5496C23.5447 86.5496 21.6924 87.0031 20.1335 86.2658C18.5746 85.5285 17.8776 83.8798 17.8776 83.8798C17.8776 83.8798 19.7212 83.3646 21.2888 84.1636Z" fill="#FFAA2E"/>
<path d="M22.535 79.1707C22.3062 80.887 20.9393 82.2228 20.9393 82.2228C20.9393 82.2228 19.8466 80.7384 20.0754 79.0221C20.3041 77.3058 21.671 75.97 21.671 75.97C21.671 75.97 22.7638 77.4544 22.535 79.1707Z" fill="#FFAA2E"/>
<path d="M19.2469 79.4591C20.6457 80.4224 21.031 82.2021 21.031 82.2021C21.031 82.2021 19.1253 82.348 17.7266 81.3846C16.3278 80.4213 15.9425 78.6416 15.9425 78.6416C15.9425 78.6416 17.8394 78.4336 19.2469 79.4591Z" fill="#FFAA2E"/>
<path d="M21.6255 74.3604C20.9876 76.015 19.3161 77.0165 19.3161 77.0165C19.3161 77.0165 18.6731 75.3307 19.3111 73.6761C19.9491 72.0215 21.6206 71.02 21.6206 71.02C21.6206 71.02 22.2635 72.7058 21.6255 74.3604Z" fill="#FFAA2E"/>
<path d="M18.3587 73.7898C19.4793 75.0685 19.4015 76.8797 19.4015 76.8797C19.4015 76.8797 17.546 76.5652 16.4254 75.2865C15.3047 74.0077 15.3826 72.1965 15.3826 72.1965C15.3826 72.1965 17.2291 72.4484 18.3587 73.7898Z" fill="#FFAA2E"/>
<path d="M21.6469 69.27C20.6553 70.7218 18.8085 71.3037 18.8085 71.3037C18.8085 71.3037 18.6173 69.4867 19.6089 68.0349C20.6005 66.5831 22.4473 66.0012 22.4473 66.0012C22.4473 66.0012 22.7034 67.8068 21.6469 69.27Z" fill="#FFAA2E"/>
<path d="M18.6792 67.9353C19.4406 69.477 18.8822 71.2505 18.8822 71.2505C18.8822 71.2505 17.1547 70.5228 16.3933 68.9811C15.6319 67.4394 16.1903 65.6659 16.1903 65.6659C16.1903 65.6659 17.9838 66.382 18.6792 67.9353Z" fill="#FFAA2E"/>
<path d="M22.8338 64.9137C21.5633 66.1507 19.6721 66.2873 19.6721 66.2873C19.6721 66.2873 19.8704 64.4731 21.2142 63.287C22.4846 62.05 24.3759 61.9134 24.3759 61.9134C24.3759 61.9134 24.1133 63.7388 22.8338 64.9137Z" fill="#FFAA2E"/>
<path d="M20.2357 62.9995C20.6154 64.6792 19.6432 66.333 19.6432 66.333C19.6432 66.333 18.135 65.2352 17.7552 63.5555C17.3754 61.8758 18.3476 60.222 18.3476 60.222C18.3476 60.222 19.8559 61.3198 20.2357 62.9995Z" fill="#FFAA2E"/>
<path d="M24.4788 60.9343C22.9834 61.9506 21.1254 61.8288 21.1254 61.8288C21.1254 61.8288 21.6617 60.0932 23.093 59.0879C24.5883 58.0716 26.4464 58.1934 26.4464 58.1934C26.4464 58.1934 25.9101 59.9291 24.4788 60.9343Z" fill="#FFAA2E"/>
<path d="M22.2042 58.5826C22.2552 60.3187 21.0586 61.817 21.0586 61.817C21.0586 61.817 19.7862 60.485 19.6787 58.8233C19.6278 57.0872 20.8244 55.5889 20.8244 55.5889C20.8244 55.5889 22.1533 56.8466 22.2042 58.5826Z" fill="#FFAA2E"/>
<path d="M55.1283 93.6148C53.9198 94.9056 53.7763 96.7035 53.7763 96.7035C53.7763 96.7035 55.6585 96.4324 56.867 95.1416C58.0754 93.8508 58.2189 92.0529 58.2189 92.0529C58.2189 92.0529 56.4013 92.3126 55.1283 93.6148Z" fill="#FFAA2E"/>
<path d="M57.2434 96.147C55.497 95.8936 53.851 96.8068 53.851 96.8068C53.851 96.8068 55.0301 98.1573 56.7765 98.4107C58.5229 98.664 60.1689 97.7509 60.1689 97.7509C60.1689 97.7509 58.9898 96.4004 57.2434 96.147Z" fill="#FFAA2E"/>
<path d="M59.5659 91.6689C58.5083 93.1302 58.6238 94.8921 58.6238 94.8921C58.6238 94.8921 60.479 94.3712 61.5366 92.9099C62.5941 91.4486 62.4786 89.6867 62.4786 89.6867C62.4786 89.6867 60.6321 90.2697 59.5659 91.6689Z" fill="#FFAA2E"/>
<path d="M62.0307 93.9004C60.2569 93.9014 58.767 94.9696 58.767 94.9696C58.767 94.9696 60.1111 96.0988 61.8935 96.1583C63.6673 96.1573 65.1572 95.0892 65.1572 95.0892C65.1572 95.0892 63.8131 93.9599 62.0307 93.9004Z" fill="#FFAA2E"/>
<path d="M63.3953 88.7777C62.6094 90.3261 62.9958 92.1144 62.9958 92.1144C62.9958 92.1144 64.7545 91.2896 65.5404 89.7413C66.3263 88.1929 65.9399 86.4046 65.9399 86.4046C65.9399 86.4046 64.2465 87.2178 63.3953 88.7777Z" fill="#FFAA2E"/>
<path d="M66.1913 90.5774C64.4532 90.8199 63.127 92.1042 63.127 92.1042C63.127 92.1042 64.6364 93.0157 66.4386 92.7619C68.1767 92.5194 69.5029 91.2351 69.5029 91.2351C69.5029 91.2351 67.938 90.3953 66.1913 90.5774Z" fill="#FFAA2E"/>
<path d="M66.6398 85.1328C66.2029 86.8186 67.1027 88.3966 67.1027 88.3966C67.1027 88.3966 68.6266 87.2263 69.0635 85.5406C69.5003 83.8548 68.6006 82.2768 68.6006 82.2768C68.6006 82.2768 67.0677 83.3843 66.6398 85.1328Z" fill="#FFAA2E"/>
<path d="M69.8627 86.2197C68.1753 86.8263 67.2206 88.4216 67.2206 88.4216C67.2206 88.4216 69.0083 88.9768 70.6229 88.3209C72.3103 87.7143 73.265 86.119 73.265 86.119C73.265 86.119 71.5501 85.6131 69.8627 86.2197Z" fill="#FFAA2E"/>
<path d="M69.178 80.689C69.2208 82.4225 70.4978 83.7452 70.4978 83.7452C70.4978 83.7452 71.7124 82.2417 71.6786 80.5711C71.6357 78.8376 70.3588 77.5149 70.3588 77.5149C70.3588 77.5149 69.1442 79.0184 69.178 80.689Z" fill="#FFAA2E"/>
<path d="M72.4987 81.105C70.9967 82.1209 70.4426 83.7827 70.4426 83.7827C70.4426 83.7827 72.3022 83.8924 73.8129 82.9375C75.3149 81.9217 75.869 80.2599 75.869 80.2599C75.869 80.2599 74.0008 80.0892 72.4987 81.105Z" fill="#FFAA2E"/>
<path d="M70.7158 76.0124C71.0915 77.6885 72.6629 78.7035 72.6629 78.7035C72.6629 78.7035 73.5817 77.0586 73.1397 75.3941C72.7639 73.718 71.1926 72.703 71.1926 72.703C71.1926 72.703 70.2737 74.3479 70.7158 76.0124Z" fill="#FFAA2E"/>
<path d="M74.0467 75.704C72.7685 76.942 72.5628 78.7499 72.5628 78.7499C72.5628 78.7499 74.4501 78.5432 75.7283 77.3053C77.0065 76.0673 77.2123 74.2594 77.2123 74.2594C77.2123 74.2594 75.3249 74.466 74.0467 75.704Z" fill="#FFAA2E"/>
<path d="M71.2919 71.4244C71.9884 72.9785 73.6615 73.7809 73.6615 73.7809C73.6615 73.7809 74.2871 71.9949 73.5906 70.4408C72.8941 68.8867 71.2209 68.0843 71.2209 68.0843C71.2209 68.0843 70.6615 69.8587 71.2919 71.4244Z" fill="#FFAA2E"/>
<path d="M74.533 70.6053C73.4693 72.0041 73.5953 73.8296 73.5953 73.8296C73.5953 73.8296 75.4481 73.3107 76.5119 71.9119C77.5756 70.5131 77.4496 68.6876 77.4496 68.6876C77.4496 68.6876 75.6616 69.195 74.533 70.6053Z" fill="#FFAA2E"/>
<path d="M70.6838 66.6948C71.7498 68.0489 73.6175 68.4263 73.6175 68.4263C73.6175 68.4263 73.7611 66.6018 72.6951 65.2477C71.6291 63.8936 69.7614 63.5162 69.7614 63.5162C69.7614 63.5162 69.6178 65.3407 70.6838 66.6948Z" fill="#FFAA2E"/>
<path d="M73.6485 65.1361C72.9373 66.7381 73.5136 68.4338 73.5136 68.4338C73.5136 68.4338 75.1911 67.4958 75.9024 65.8938C76.6136 64.2918 76.0373 62.5962 76.0373 62.5962C76.0373 62.5962 74.2855 63.4831 73.6485 65.1361Z" fill="#FFAA2E"/>
<path d="M69.0175 61.8666C70.3623 62.905 72.2798 62.8211 72.2798 62.8211C72.2798 62.8211 71.9588 61.0272 70.614 59.9887C69.2692 58.9503 67.3517 59.0342 67.3517 59.0342C67.3517 59.0342 67.6077 60.8396 69.0175 61.8666Z" fill="#FFAA2E"/>
<path d="M71.4633 59.6816C71.1688 61.4087 72.1941 62.904 72.1941 62.904C72.1941 62.904 73.6343 61.62 73.9289 59.8929C74.2234 58.1657 73.1981 56.6704 73.1981 56.6704C73.1981 56.6704 71.7668 58.0173 71.4633 59.6816Z" fill="#FFAA2E"/>
<path d="M66.6152 58.1293C68.1733 58.8767 70.0107 58.368 70.0107 58.368C70.0107 58.368 69.309 56.7096 67.6956 56.0353C66.1375 55.2879 64.3001 55.7966 64.3001 55.7966C64.3001 55.7966 65.0661 57.4439 66.6152 58.1293Z" fill="#FFAA2E"/>
<path d="M68.5232 55.5158C68.6399 57.2407 70.035 58.4872 70.035 58.4872C70.035 58.4872 71.1571 56.9369 71.0404 55.212C70.9237 53.4871 69.5286 52.2406 69.5286 52.2406C69.5286 52.2406 68.4065 53.7908 68.5232 55.5158Z" fill="#FFAA2E"/>
<path d="M63.6918 54.8694C65.4023 55.3327 67.1349 54.5914 67.1349 54.5914C67.1349 54.5914 66.1324 53.1213 64.486 52.6469C62.7754 52.1837 61.0429 52.9249 61.0429 52.9249C61.0429 52.9249 62.0454 54.3951 63.6918 54.8694Z" fill="#FFAA2E"/>
<path d="M65.1555 51.9444C65.6008 53.6126 67.165 54.6359 67.165 54.6359C67.165 54.6359 67.9962 52.942 67.6258 51.3255C67.1804 49.6573 65.6162 48.634 65.6162 48.634C65.6162 48.634 64.7193 50.3393 65.1555 51.9444Z" fill="#FFAA2E"/>
<path d="M62.2434 50.0392C62.188 50.1126 62.1326 50.186 62.0128 50.2705L61.9574 50.3438C68.1538 53.9248 72.5863 59.9157 73.6489 67.2556C75.63 80.9401 65.0137 94.257 50.0069 96.8573C35.0002 99.4577 21.1509 90.4438 19.1608 76.6971C18.1432 69.6682 20.3896 62.8389 24.8848 57.4053C24.747 57.3654 24.5447 57.3367 24.4069 57.2968C19.9208 62.7926 17.6834 69.6841 18.71 76.7752C20.7271 90.7086 34.7966 99.8755 50.061 97.2305C65.3254 94.5856 76.1169 81.1108 74.0998 67.1774C73.0281 59.7753 68.5132 53.6713 62.2434 50.0392Z" fill="#FF9912"/>
<path d="M27.5826 57.1154C25.9086 57.7795 24.1837 57.1969 24.1837 57.1969C24.1837 57.1969 25.1297 55.5906 26.8126 54.9877C28.4865 54.3236 30.2115 54.9063 30.2115 54.9063C30.2115 54.9063 29.1925 56.4623 27.5826 57.1154Z" fill="#FFAA2E"/>
<path d="M26.0035 54.2661C25.643 55.9419 24.1429 57.1689 24.1429 57.1689C24.1429 57.1689 23.2407 55.5818 23.6012 53.9059C23.9618 52.2301 25.4618 51.0031 25.4618 51.0031C25.4618 51.0031 26.364 52.5903 26.0035 54.2661Z" fill="#FFAA2E"/>
<path d="M59.7292 52.0297C61.5105 52.1005 62.9849 50.9685 62.9849 50.9685C62.9849 50.9685 61.6274 49.7578 59.855 49.7482C58.0737 49.6775 56.5993 50.8095 56.5993 50.8095C56.5993 50.8095 57.9479 51.9589 59.7292 52.0297Z" fill="#FFAA2E"/>
<path d="M60.3711 48.8549C61.1895 50.3274 62.9642 50.9895 62.9642 50.9895C62.9642 50.9895 63.3719 49.1764 62.5536 47.7039C61.7352 46.2314 59.9604 45.5693 59.9604 45.5693C59.9604 45.5693 59.5527 47.3824 60.3711 48.8549Z" fill="#FFAA2E"/>
<path d="M37.2689 49.9016L34.7912 49.6067L32.8534 51.1551L32.4306 48.7767L30.3794 47.3793L32.5663 46.176L33.272 43.8668L35.0307 45.5064L37.5159 45.4133L36.4611 47.5875L37.2689 49.9016Z" fill="#FFEC03"/>
<path d="M52.7138 47.6913L54.975 48.7316L54.9371 46.2883L56.6357 44.4572L54.3028 43.8156L53.1288 41.6911L51.7246 43.7308L49.2314 44.2119L50.7622 46.0835L50.4055 48.5283L52.7138 47.6913Z" fill="#FFEC03"/>
<path d="M45.9122 48.2064L43.5163 47.5759L41.3299 48.7789L41.292 46.3368L39.4695 44.7083L41.8315 43.7981L42.8859 41.6244L44.416 43.495L46.8289 43.8006L45.4254 45.8393L45.9122 48.2064Z" fill="#FFEC03"/>
<path d="M43.0282 82.6289L39.3027 83.219L37.6872 73.019L37.4579 71.3374L37.2279 69.4952C36.707 70.2122 36.3413 70.6862 36.1307 70.9173L34.363 72.8657L32.2113 70.9077L37.174 65.487L40.2364 65.002L43.0282 82.6289ZM63.3318 79.4132L59.0878 80.0854L53.2938 73.3898L51.8938 74.7733L52.8906 81.0669L49.153 81.6589L46.3612 64.0319L50.0988 63.4399L51.3763 71.5059L52.5188 69.1992L56.3442 62.4508L60.4917 61.7939L55.5783 70.5685L63.3318 79.4132Z" fill="#ED1CBF"/>
<defs>
<filter id="filter0_d" x="0" y="0.5" width="200" height="133.672" filterUnits="userSpaceOnUse" color-interpolation-filters="sRGB">
<feFlood flood-opacity="0" result="BackgroundImageFix"/>
<feColorMatrix in="SourceAlpha" type="matrix" values="0 0 0 0 0 0 0 0 0 0 0 0 0 0 0 0 0 0 127 0"/>
<feOffset dy="4"/>
<feGaussianBlur stdDeviation="2"/>
<feColorMatrix type="matrix" values="0 0 0 0 0 0 0 0 0 0 0 0 0 0 0 0 0 0 0.25 0"/>
<feBlend mode="normal" in2="BackgroundImageFix" result="effect1_dropShadow"/>
<feBlend mode="normal" in="SourceGraphic" in2="effect1_dropShadow" result="shape"/>
</filter>
<linearGradient id="paint0_linear" x1="98.565" y1="0.5" x2="98.565" y2="105.274" gradientUnits="userSpaceOnUse">
<stop stop-color="#FF9905"/>
<stop offset="1" stop-color="#C822AD"/>
</linearGradient>
</defs>
</svg>
