<svg width="33" height="15" viewBox="0 0 33 15" fill="none" xmlns="http://www.w3.org/2000/svg">
<path d="M30.2377 2.44214C27.3556 -0.387518 22.7262 -0.345036 19.8966 2.53695C18.7458 3.70907 18.07 5.17027 17.8672 6.68183L11.0707 6.74415C11.0707 6.74415 11.0707 6.74415 11.0706 6.74415C11.0705 6.74415 11.0706 6.74415 11.0705 6.74415L6.63868 6.78479C6.63868 6.78479 6.63868 6.78479 6.63862 6.78479C6.63855 6.78479 6.63862 6.78479 6.63855 6.78479L1.4677 6.8322C0.890788 6.83749 0.427373 7.30948 0.432662 7.88639C0.437952 8.4633 0.909944 8.92671 1.48685 8.92142L5.61323 8.88359L5.65106 13.0095C5.65635 13.5865 6.12834 14.0499 6.70525 14.0446C7.28216 14.0393 7.74557 13.5673 7.74028 12.9904L7.70245 8.86443L10.0451 8.84295L10.0694 11.4916C10.0747 12.0685 10.5467 12.5319 11.1236 12.5266C11.7005 12.5213 12.1639 12.0493 12.1586 11.4724L12.1344 8.8238L17.8863 8.77102C18.1169 10.2786 18.8192 11.7272 19.9914 12.878C22.8734 15.7076 27.5028 15.6652 30.3324 12.7832C33.1621 9.90119 33.1197 5.27179 30.2377 2.44214ZM21.4551 11.3872C20.4285 10.3793 19.9065 9.05168 19.8915 7.7186C19.8915 7.71504 19.892 7.71157 19.892 7.70797C19.8919 7.70437 19.8914 7.70091 19.8913 7.69734C19.8818 6.36422 20.3795 5.02727 21.3874 4.00069C23.4087 1.94203 26.7153 1.91171 28.7739 3.93296C30.8326 5.95421 30.8629 9.26082 28.8417 11.3195C26.8204 13.3781 23.5138 13.4085 21.4551 11.3872Z" fill="white"/>
</svg>
