<svg id="Layer_1" data-name="Layer 1" xmlns="http://www.w3.org/2000/svg" viewBox="0 0 15.84 15.84"><defs><style>.cls-1{fill:#380000;}.cls-2{fill:#fdd55d;}.cls-3{fill:#2c5955;}</style></defs><title>coin</title><circle class="cls-1" cx="8.75" cy="8.75" r="7.09"/><circle class="cls-2" cx="7.09" cy="7.09" r="7.09"/><path class="cls-3" d="M542.88,289.11l0,0a.26.26,0,0,1,0,.4l-1,.63a.27.27,0,0,0-.08.07L540.42,292a.26.26,0,0,0,.11.4,2.25,2.25,0,0,0,2.46-.5,3.79,3.79,0,0,0,1-1.24.26.26,0,0,1,.3-.13l.52.13a.27.27,0,0,1,.19.27l-.18,2.53a.26.26,0,0,1-.26.24l-6.41,0a.25.25,0,0,1-.23-.15l-.56-1.13a.24.24,0,0,1,0-.28L539.1,290a.26.26,0,0,0,0-.34h0a.26.26,0,0,1,.06-.41l1-.54a.27.27,0,0,0,.08-.07l1.55-1.91a.25.25,0,0,0-.15-.41,1.93,1.93,0,0,0-.47-.05,2,2,0,0,0-1.4.57,2.92,2.92,0,0,0-.77,1.05.25.25,0,0,1-.32.14l-.36-.12a.26.26,0,0,1-.17-.24l-.05-2.32a.26.26,0,0,1,.26-.27l6.66,0a.26.26,0,0,1,.21.41l-2.33,3.28A.26.26,0,0,0,542.88,289.11Z" transform="translate(-534.35 -282.22)"/></svg>