<svg width="54" height="54" viewBox="0 0 54 54" fill="none" xmlns="http://www.w3.org/2000/svg">
<path d="M27.2676 51.608C41.1046 51.608 52.3216 40.3909 52.3216 26.554C52.3216 12.717 41.1046 1.5 27.2676 1.5C13.4307 1.5 2.21362 12.717 2.21362 26.554C2.21362 40.3909 13.4307 51.608 27.2676 51.608Z" stroke="#FFD34E" stroke-width="3" stroke-miterlimit="10"/>
<path d="M16.0524 29.7726C15.3409 29.0848 14.1787 29.8438 14.5582 30.7687C16.6216 35.9153 21.6495 39.5677 27.5313 39.5677C33.3182 39.5677 38.2751 36.0576 40.4096 31.0296C40.7891 30.1047 39.6269 29.322 38.9154 30.0098C34.8598 33.9705 26.1795 39.6151 16.0524 29.7726Z" fill="#FDD55D"/>
<path d="M17.2145 24.0335C18.3541 24.0335 19.2779 22.4832 19.2779 20.5708C19.2779 18.6584 18.3541 17.1082 17.2145 17.1082C16.0749 17.1082 15.1511 18.6584 15.1511 20.5708C15.1511 22.4832 16.0749 24.0335 17.2145 24.0335Z" fill="#FDD55D"/>
<path d="M37.7769 24.0333C38.9164 24.0333 39.8402 22.4831 39.8402 20.5707C39.8402 18.6583 38.9164 17.108 37.7769 17.108C36.6373 17.108 35.7135 18.6583 35.7135 20.5707C35.7135 22.4831 36.6373 24.0333 37.7769 24.0333Z" fill="#FDD55D"/>
</svg>
