<svg width="54" height="54" viewBox="0 0 54 54" fill="none" xmlns="http://www.w3.org/2000/svg">
<path d="M27.1596 51.608C40.9965 51.608 52.2136 40.3909 52.2136 26.554C52.2136 12.717 40.9965 1.5 27.1596 1.5C13.3227 1.5 2.10559 12.717 2.10559 26.554C2.10559 40.3909 13.3227 51.608 27.1596 51.608Z" stroke="#FFD34E" stroke-width="3" stroke-miterlimit="10"/>
<path d="M27.0355 43.357C25.4955 43.357 24.2355 42.0397 24.2355 40.4297V24.1834C24.2355 22.5734 25.4955 21.2561 27.0355 21.2561C28.5755 21.2561 29.8355 22.5734 29.8355 24.1834V40.4297C29.8355 42.0397 28.7155 43.357 27.0355 43.357Z" fill="#FFD34F"/>
<path d="M27.0355 16.4262C28.9685 16.4262 30.5355 14.788 30.5355 12.7671C30.5355 10.7463 28.9685 9.10803 27.0355 9.10803C25.1025 9.10803 23.5355 10.7463 23.5355 12.7671C23.5355 14.788 25.1025 16.4262 27.0355 16.4262Z" fill="#FFD34F"/>
</svg>
