<svg xmlns="http://www.w3.org/2000/svg" viewBox="0 0 17.59 17.59"><defs><style>.cls-1{fill:none;}.cls-1,.cls-2{stroke:#ffd34e;stroke-miterlimit:10;}.cls-2{fill:#ffd34e;stroke-width:0.25px;}</style></defs><title>pro</title><g id="Layer_2" data-name="Layer 2"><g id="popup"><circle class="cls-1" cx="8.79" cy="8.79" r="8.29"/><path class="cls-2" d="M3.24,9.27v2.07H2.47V6.25h.87a3.91,3.91,0,0,1,1,.09,1.28,1.28,0,0,1,.58.34,1.43,1.43,0,0,1,.43,1.08,1.38,1.38,0,0,1-.46,1.1,1.85,1.85,0,0,1-1.27.41Zm0-.71h.29q1.05,0,1.05-.81c0-.53-.36-.79-1.09-.79H3.24Z"/><path class="cls-2" d="M8.09,9.17l1.57,2.17H8.72L7.27,9.26H7.13v2.08H6.36V6.25h.9a2.28,2.28,0,0,1,1.46.38,1.38,1.38,0,0,1,.49,1.11,1.43,1.43,0,0,1-.31.93A1.36,1.36,0,0,1,8.09,9.17Zm-1-.58h.24c.73,0,1.09-.28,1.09-.84S8.11,7,7.4,7H7.13Z"/><path class="cls-2" d="M10.24,8.77A2.47,2.47,0,0,1,11,6.93a2.67,2.67,0,0,1,3.75,0,2.55,2.55,0,0,1,.78,1.87,2.48,2.48,0,0,1-.79,1.86,2.63,2.63,0,0,1-1.9.77,2.67,2.67,0,0,1-1.77-.68A2.51,2.51,0,0,1,10.24,8.77Zm.78,0a1.88,1.88,0,0,0,1.86,1.93,1.8,1.8,0,0,0,1.35-.55,1.86,1.86,0,0,0,.55-1.36,1.88,1.88,0,0,0-.54-1.37,1.91,1.91,0,0,0-2.68,0A1.86,1.86,0,0,0,11,8.78Z"/></g></g></svg>