<svg xmlns="http://www.w3.org/2000/svg" viewBox="0 0 133.59 23.17"><defs><style>.cls-1{fill:none;stroke:#fff;stroke-miterlimit:10;}.cls-2{font-size:11.77px;fill:#fff;font-family:Futura-Medium, Futura;font-weight:500;}.cls-3{letter-spacing:-0.03em;}</style></defs><title>galds</title><g id="Layer_2" data-name="Layer 2"><g id="Layer_1-2" data-name="Layer 1"><path class="cls-1" d="M23.71,3.31l5.47,7a2.09,2.09,0,0,1,0,2.57l-5.47,7a1.73,1.73,0,0,0,1.36,2.81h83.44a1.74,1.74,0,0,0,1.37-2.81l-5.48-7a2.09,2.09,0,0,1,0-2.57l5.48-7A1.74,1.74,0,0,0,108.51.5H25.07A1.73,1.73,0,0,0,23.71,3.31Z"/><path class="cls-1" d="M22.44,13.13a2.49,2.49,0,0,0,0-3.08L16.08,1.93A3.73,3.73,0,0,0,13.14.5H2.24A1.74,1.74,0,0,0,.87,3.31l5.48,7a2.09,2.09,0,0,1,0,2.57l-5.48,7a1.74,1.74,0,0,0,1.37,2.81h10.9a3.7,3.7,0,0,0,2.94-1.43Z"/><path class="cls-1" d="M111.14,13.13a2.49,2.49,0,0,1,0-3.08l6.36-8.12A3.76,3.76,0,0,1,120.44.5h10.91a1.73,1.73,0,0,1,1.36,2.81l-5.47,7a2.09,2.09,0,0,0,0,2.57l5.47,7a1.73,1.73,0,0,1-1.36,2.81H120.44a3.73,3.73,0,0,1-2.94-1.43Z"/><text class="cls-2" transform="translate(47.37 16.37)"><tspan class="cls-3">G</tspan><tspan x="9.51" y="0">ALDS</tspan></text></g></g></svg>