<svg xmlns="http://www.w3.org/2000/svg" viewBox="0 0 80.5 29.2"><defs><style>.cls-1{fill:#fdd55d;stroke:#fff;stroke-miterlimit:10;}.cls-2{font-size:12.22px;fill:#380000;font-family:Futura-Medium, Futura;font-weight:500;}</style></defs><title>MAZAIS</title><g id="Layer_2" data-name="Layer 2"><g id="Layer_1-2" data-name="Layer 1"><path class="cls-1" d="M73.81,16.21l5.8-6.88a1.67,1.67,0,0,0-1.28-2.75H58a4.58,4.58,0,0,0-4.58,4.58V23.55a5.16,5.16,0,0,0,5.15,5.15H78.33A1.67,1.67,0,0,0,79.61,26l-5.8-6.88A2.25,2.25,0,0,1,73.81,16.21Z"/><path class="cls-1" d="M6.69,16.21.9,9.33A1.67,1.67,0,0,1,2.17,6.58H22.56a4.58,4.58,0,0,1,4.58,4.58V23.55A5.16,5.16,0,0,1,22,28.7H2.17A1.66,1.66,0,0,1,.9,26l5.79-6.88A2.22,2.22,0,0,0,6.69,16.21Z"/><rect class="cls-1" x="12.16" y="0.5" width="56.18" height="22.12" rx="4.83"/><text class="cls-2" transform="translate(19.73 15.87)">Mazais</text></g></g></svg>