<svg width="153" height="251" viewBox="0 0 153 251" fill="none" xmlns="http://www.w3.org/2000/svg">
<g filter="url(#filter0_d)">
<path d="M57.2717 163.399C57.2717 163.399 58.0019 163.335 59.2427 163.284C60.4785 163.176 62.281 163.076 64.4157 162.891C65.483 162.798 66.6627 162.695 67.8423 162.593C69.0782 162.485 70.3653 162.317 71.6574 162.204C73.0007 162.031 74.344 161.857 75.7435 161.679C77.143 161.501 78.5425 161.322 79.9371 161.088C81.3366 160.91 82.7263 160.619 84.1209 160.384C85.5155 160.15 86.849 159.864 88.1264 159.583C89.4038 159.302 90.6811 159.021 91.8413 158.694C93.0014 158.367 94.1054 158.044 95.1531 157.727C97.1315 157.045 98.7679 156.337 99.7204 155.575C100.197 155.194 100.499 154.772 100.587 154.481C100.629 154.308 100.675 154.19 100.67 154.134C100.661 154.022 100.661 154.022 100.661 154.022C100.661 154.022 100.666 154.078 100.67 154.134C100.68 154.246 100.69 154.359 100.648 154.532C100.565 154.879 100.38 155.348 99.9085 155.785C99.0268 156.711 97.4148 157.7 95.4511 158.55C93.4313 159.405 91.0646 160.177 88.4073 160.861C87.0786 161.203 85.75 161.545 84.3554 161.779C82.9656 162.07 81.571 162.304 80.1203 162.544C78.7257 162.778 77.27 162.961 75.8656 163.083C74.4661 163.262 73.0617 163.384 71.7087 163.445C70.3605 163.562 69.0635 163.618 67.8228 163.67C66.5821 163.721 65.3975 163.767 64.3204 163.748C62.1711 163.765 60.354 163.697 59.1035 163.636C58.0117 163.448 57.2717 163.399 57.2717 163.399Z" fill="#C7DBE1"/>
<path d="M68.7301 54.5994C68.5164 65.8955 70.8763 89.0996 66.6256 97.2012C66.6256 97.2012 68.1963 106.42 67.9202 133.698C67.8153 143.788 67.3085 155.153 66.658 165.846L76.0426 171.096C74.6599 159.127 71.9424 130.828 75.5515 122.227C73.3837 117.93 72.8414 96.9597 73.656 85.6968C74.4282 74.4375 76.1701 71.3812 76.1701 71.3812C73.6097 69.9379 71.6941 50.3688 73.3697 43.6019C72.7834 40.7907 65.5316 37.9613 65.7068 41.4489C65.7584 43.025 68.9437 43.3033 68.7301 54.5994Z" fill="#452828"/>
<path d="M68.6932 45.3329C68.6932 45.3329 70.6859 46.1421 71.7698 45.8342C72.0961 49.0951 71.8068 55.1008 71.8068 55.1008C71.8068 55.1008 69.8658 60.7802 69.5101 63.0752C69.3644 58.9442 69.9947 48.5089 68.6932 45.3329Z" fill="#593232"/>
<path d="M70.7121 72.9666C71.5877 74.6846 73.2393 75.0108 74.5463 74.8117C73.9638 76.9555 73.2819 80.9022 73.2819 80.9022C73.2819 80.9022 70.7546 78.8579 69.9638 78.1151C70.2532 77.022 70.7121 72.9666 70.7121 72.9666Z" fill="#593232"/>
<path d="M68.8692 100.894C70.143 101.295 71.8186 99.4409 72.7033 97.8262C72.4619 100.453 72.2629 104.059 72.2629 104.059C72.2629 104.059 69.8776 106.103 69.2951 108.247C69.2379 105.133 68.8692 100.894 68.8692 100.894Z" fill="#593232"/>
<path d="M74.6934 170.316C72.7613 154.978 72.665 129.313 73.2604 125.843C73.2604 125.843 69.6492 124.107 69.0335 121.939C69.6752 134.229 68.8939 151.768 67.9116 166.506L74.6934 170.316Z" fill="#593232"/>
<path d="M72.7796 41.7308C75.1114 39.563 81.0488 32.6817 77.9979 22.652C74.947 12.6224 68.9966 11.9865 65.1164 16.9802C61.2362 21.9739 59.664 34.8406 66.2081 41.3199C68.6376 43.7144 72.7796 41.7308 72.7796 41.7308Z" fill="#CFCDCD"/>
<path d="M71.4045 40.6544C74.658 38.2782 78.2801 33.2642 76.621 24.0106C75.0042 14.7533 69.8797 14.7718 67.5055 16.9433C65.1737 19.1111 60.0474 29.4248 65.6385 38.2083L71.4045 40.6544Z" fill="#E2E1E0"/>
<path d="M68.4328 22.2024C66.5765 21.9794 62.2927 33.6295 65.6846 38.2471C69.0764 42.8646 72.7834 41.7733 73.7972 40.6599C74.8111 39.5465 72.2725 22.6374 68.4328 22.2024Z" fill="#C4C2C1"/>
<path d="M67.5444 29.6699C62.7076 37.9079 64.4349 43.5246 70.6894 44.2195C76.9015 44.918 74.5714 36.7907 67.5444 29.6699Z" fill="#573232"/>
<path d="M67.9684 31.5981C67.515 31.2958 66.0017 41.8932 70.7945 42.9715C73.5355 43.5448 70.4127 33.1796 67.9684 31.5981Z" fill="#70554A"/>
<path d="M70.1742 97.2343C67.8221 98.6777 63.5842 97.5939 60.5923 92.1726C57.6005 86.7513 57.5469 77.7853 60.9958 75.6911C64.4447 73.597 71.0642 79.4717 73.1584 82.9206C75.2101 86.3732 75.6046 93.8572 70.1742 97.2343Z" fill="#CFCDCD"/>
<path d="M72.5886 70.9665C69.7369 70.1039 69.7626 64.5056 70.6271 60.2013C71.4455 55.8584 75.6648 48.8702 80.7304 50.1383C85.7499 51.3678 85.1399 64.4925 80.1021 68.9461C75.0642 73.3997 74.9979 71.6541 72.5886 70.9665Z" fill="#CFCDCD"/>
<path d="M72.4215 122.584C69.3487 122.125 67.4702 115.753 69.1918 110.99C70.871 106.23 75.6397 101.629 78.79 101.996C81.9403 102.362 83.9497 108.766 82.7405 113.528C81.5774 118.328 77.5277 123.336 72.4215 122.584Z" fill="#CFCDCD"/>
<path d="M61.91 76.3806C64.7377 75.4939 69.5231 80.4175 71.6246 83.9512C73.7261 87.4848 73.8644 93.496 70.1851 95.3966C66.5058 97.2971 62.3711 94.4529 60.6069 88.4123C58.8427 82.3716 59.8731 77.0277 61.91 76.3806Z" fill="#E2E1E0"/>
<path d="M80.2769 50.8186C83.8051 51.1098 84.3288 64.0078 79.3721 68.4117C74.4153 72.8155 71.1526 70.6644 71.0953 65.5859C71.0842 60.5462 73.8251 50.3118 80.2769 50.8186Z" fill="#E2E1E0"/>
<path d="M79.0298 102.787C81.2621 103.404 83.8411 108.989 81.7139 114.001C79.5831 118.971 76.7001 122.169 73.5148 121.891C70.3294 121.613 69.2344 116.881 69.6141 113.388C69.9901 109.852 74.7385 101.579 79.0298 102.787Z" fill="#E2E1E0"/>
<path d="M63.7037 80.7956C61.5175 82.1818 60.0392 92.6908 64.5113 95.9756C68.9833 99.2604 71.9566 95.6271 73.0386 92.8418C74.0782 90.0601 65.8899 79.4093 63.7037 80.7956Z" fill="#C4C2C1"/>
<path d="M79.1508 55.06C77.3867 52.9494 67.5858 67.4715 72.5887 70.9664C77.5916 74.4614 87.3391 64.7283 79.1508 55.06Z" fill="#C4C2C1"/>
<path d="M78.0325 106.547C80.0012 105.607 80.7572 117.246 76.7405 120.671C72.7663 124.092 71.334 121.867 70.8436 120.158C70.3569 118.492 71.3467 109.734 78.0325 106.547Z" fill="#C4C2C1"/>
<path d="M63.8716 85.1809C61.4937 91.24 65.081 100.07 69.8737 99.1829C74.6665 98.2962 72.4138 92.0417 63.8716 85.1809Z" fill="#573232"/>
<path d="M80.2881 59.7882C73.5064 64.8207 69.676 68.913 71.9913 71.9582C74.3066 75.0034 82.2182 71.6668 80.2881 59.7882Z" fill="#573232"/>
<path d="M76.4603 110.571C71.2934 114.523 67.616 120.866 72.1323 123.677C76.6449 126.446 80.3443 117.41 76.4603 110.571Z" fill="#573232"/>
<path d="M64.8134 87.662C66.6512 88.6555 73.339 95.8058 70.6865 98.2151C68.0726 100.578 62.6179 86.486 64.8134 87.662Z" fill="#70554A"/>
<path d="M79.396 62.3008C78.6937 60.6105 71.8071 71.8035 73.5454 72.6348C75.3224 73.42 80.3583 64.5239 79.396 62.3008Z" fill="#70554A"/>
<path d="M76.228 112.813C77.5055 112.274 76.5065 123.382 73.5903 123.252C70.7129 123.075 74.4603 113.607 76.228 112.813Z" fill="#70554A"/>
<path d="M102.441 30.6078C101.906 32.3203 101.665 43.7896 97.1398 54.1365C97.1398 54.1365 96.2568 53.3162 95.8938 60.4389C95.4884 67.5654 92.1929 100.403 83.6473 113.15C80.9229 117.189 81.0004 120.044 80.5119 123.76C80.182 126.352 77.4356 141.927 74.0127 154.143L74.5107 174.604C79.7915 143.473 88.8586 119.532 88.8586 119.532C90.2096 106.086 96.5264 86.869 96.5264 86.869C95.5051 80.0375 100.993 61.1061 100.884 57.3992C100.699 49.3842 106.48 33.3322 106.694 29.8962C106.872 26.5486 102.441 30.6078 102.441 30.6078Z" fill="#452828"/>
<path d="M102.791 33.6529C102.419 33.3009 101.114 42.855 100.972 43.679C100.83 44.503 101.931 45.8597 101.943 46.4993C101.96 47.1813 104.994 34.9138 105.221 34.0824C105.447 33.251 103.398 34.241 102.791 33.6529Z" fill="#593232"/>
<path d="M96.6737 64.002C95.9271 64.7504 95.4682 69.7883 95.4774 70.3856C95.4867 70.9828 98.7235 66.9421 98.8065 66.4223C98.8894 65.9025 99.0958 63.3642 99.1216 62.6784C99.1935 62.0314 97.5013 63.2038 96.6737 64.002Z" fill="#593232"/>
<path d="M92.5118 88.8415C92.2629 89.4184 90.0382 100.676 89.7303 101.557C89.4225 102.438 90.5747 105.371 90.7922 104.925C91.0097 104.479 94.6925 90.8304 94.9266 90.0839C95.1994 89.2912 92.768 88.3493 92.5118 88.8415Z" fill="#593232"/>
<path d="M82.2906 122.11C81.5477 122.901 76.4365 148.122 75.9794 149.742C75.5222 151.363 73.7232 160.148 74.4588 163.203C75.198 166.3 75.9427 162.091 76.6025 159.855C77.3085 157.658 86.2225 124.588 86.7755 123.087C87.3285 121.587 82.6039 121.784 82.2906 122.11Z" fill="#593232"/>
<path d="M101.834 31.0022C100.555 30.0456 96.8702 21.5662 99.46 14.5061C102.004 7.40727 107.39 3.5214 110.138 4.17943C112.891 4.87987 115.757 10.8246 114.918 17.3907C114.08 23.9567 111.488 29.5219 106.782 30.9137C102.115 32.2594 101.834 31.0022 101.834 31.0022Z" fill="#CFCDCD"/>
<path d="M99.0329 59.696C100.491 57.3051 104.97 44.9546 94.7486 37.9408C91.2057 35.515 87.0269 46.8996 88.6363 52.1421C90.288 57.3809 95.9306 64.7929 99.0329 59.696Z" fill="#CFCDCD"/>
<path d="M94.4564 86.1519C94.3181 81.1232 95.6028 71.8271 100.218 67.9228C104.838 64.0609 108.121 65.954 108.726 69.9596C109.33 73.9652 104.643 85.3941 99.2326 87.5306C93.826 89.7096 94.4564 86.1519 94.4564 86.1519Z" fill="#CFCDCD"/>
<path d="M86.337 119.025C88.0365 116.954 92.0955 110.578 88.4161 102.654C84.7366 94.7291 79.789 94.8177 77.1549 99.404C74.5208 103.99 74.7367 114.822 80.8604 119.415C83.1425 121.097 86.337 119.025 86.337 119.025Z" fill="#CFCDCD"/>
<path d="M101.789 28.9984C100.485 27.2748 98.5957 19.7927 100.441 14.976C102.328 10.1556 107.158 4.78026 110.144 5.71664C113.13 6.65302 114.106 14.4283 113.217 18.9482C112.332 23.5105 110.231 29.8019 105.545 29.9532C100.81 30.0233 101.789 28.9984 101.789 28.9984Z" fill="#E2E1E0"/>
<path d="M97.8163 59.46C99.7739 57.4101 101.337 50.8238 97.9377 44.1564C94.5348 37.4466 93.344 38.49 91.3901 41.5647C89.4362 44.6395 88.4501 53.4397 94.0669 58.59L97.8163 59.46Z" fill="#E2E1E0"/>
<path d="M95.4352 85.1269C95.8334 81.8458 96.6498 74.0428 100.523 69.9468C104.396 65.8508 106.914 67.2978 107.492 70.0241C108.071 72.7504 105.507 80.1073 101.38 84.2254C97.2528 88.3436 95.4352 85.1269 95.4352 85.1269Z" fill="#E2E1E0"/>
<path d="M85.0762 118.28C87.5241 115.974 89.8577 111.371 87.4557 103.89C85.0537 96.4102 80.8361 97.0333 79.1329 99.061C77.4333 101.131 74.4233 110.236 80.0843 116.877L85.0762 118.28Z" fill="#E2E1E0"/>
<path d="M90.0114 45.3584C90.3874 43.7878 101.455 55.128 98.5869 60.4609C97.116 63.1946 87.5359 55.6978 90.0114 45.3584Z" fill="#C4C2C1"/>
<path d="M107.13 14.7788C104.846 14.5502 99.318 20.2426 99.366 22.7588C99.414 25.275 100.275 29.7709 103.774 30.7054C107.272 31.6399 109.954 29.5698 110.673 28.0122C111.396 26.4969 109.156 14.987 107.13 14.7788Z" fill="#C4C2C1"/>
<path d="M104.877 73.8399C103.472 74.3892 95.1271 81.0955 94.8986 83.3794C94.7124 85.6597 98.7808 89.7058 102.849 83.9268C105.019 80.876 107.562 72.7947 104.877 73.8399Z" fill="#C4C2C1"/>
<path d="M80.4878 103.343C78.9117 103.395 76.757 113.493 80.088 116.92C83.419 120.346 86.337 119.025 87.0614 118.022C87.7821 116.977 83.7247 103.233 80.4878 103.343Z" fill="#C4C2C1"/>
<path d="M93.6023 50.3004C91.4345 52.8811 93.2596 64.0426 97.8661 62.4886C100.358 61.6738 100.454 55.8985 93.6023 50.3004Z" fill="#573232"/>
<path d="M94.2683 87.9197C96.8306 90.858 102.965 87.7186 103.736 77.912C98.5835 81.0513 91.894 85.1787 94.2683 87.9197Z" fill="#573232"/>
<path d="M80.6482 109.609C77.6142 116.964 79.712 121.438 84.9139 121.327C90.1122 121.174 87.2438 114.717 80.6482 109.609Z" fill="#573232"/>
<path d="M104.774 20.1096C99.4583 25.7835 99.3626 32.5413 104.351 32.9191C109.343 33.3393 110.157 26.0064 104.774 20.1096Z" fill="#573232"/>
<path d="M104.747 21.2655C105.235 20.4968 106.909 31.885 105.451 32.3109C103.997 32.7791 101.846 32.1118 101.785 28.956C101.685 25.8463 103.921 22.5761 104.747 21.2655Z" fill="#70554A"/>
<path d="M93.6798 51.1908C92.9701 50.3981 92.502 59.7513 97.1123 62.1698C99.0386 63.1983 94.7692 52.4203 93.6798 51.1908Z" fill="#70554A"/>
<path d="M102.624 80.358C104.09 80.017 100.033 88.8707 95.6399 87.9712C93.7301 87.6247 101.579 80.6198 102.624 80.358Z" fill="#70554A"/>
<path d="M81.2084 111.14C80.7623 110.923 80.7735 119.893 84.8602 120.221C87.1405 120.407 83.3928 112.189 81.2084 111.14Z" fill="#70554A"/>
<path d="M65.8835 148.1C63.5443 149.201 72.0865 156.061 77.9043 171.874L77.7547 152.963C72.195 138.153 66.8895 122.339 68.3181 119.609C66.1208 118.903 61.2339 109.375 58.3433 96.7682C55.4491 84.1191 54.5199 72.4525 55.7125 69.9566C51.8727 68.5391 47.8503 50.7765 46.969 44.5737C46.0878 38.3708 46.0675 33.7163 45.7154 32.1237C45.3596 30.4886 40.8932 32.6712 40.8932 32.6712C40.1595 34.0593 41.8222 34.5127 43.2804 40.9644C44.7386 47.4162 46.477 54.1425 45.0134 56.9611C47.0338 59.562 52.3633 81.0555 52.2068 97.43C52.1258 100.427 56.2899 102.628 61.1014 120.621C65.487 137.156 68.5121 146.889 65.8835 148.1Z" fill="#452828"/>
<path d="M42.9911 37.1451C43.5257 37.3976 44.9303 37.8308 45.6437 36.7008C45.2658 39.7239 46.6909 49.7241 47.95 52.9039C46.5398 51.9159 45.8061 48.3914 45.4337 47.0568C45.1074 45.7609 42.9911 37.1451 42.9911 37.1451Z" fill="#593232"/>
<path d="M51.5448 72.6258C50.7245 71.5438 52.3007 81.3173 52.3007 81.3173L55.1303 83.8905C55.1303 83.8905 54.3578 75.4996 54.531 73.5622C53.9688 72.5005 52.1273 73.4295 51.5448 72.6258Z" fill="#593232"/>
<path d="M47.0359 60.0745C47.0359 60.0745 48.6009 58.9132 48.4774 57.0016C49.3843 58.5887 49.4766 64.5612 49.1043 68.1392C48.3485 64.3603 47.0359 60.0745 47.0359 60.0745Z" fill="#593232"/>
<path d="M54.4837 100.521C55.5473 100.472 56.3786 95.7858 56.5297 93.5941C57.9123 98.6854 59.5972 104.306 59.5972 104.306C59.5972 104.306 60.1486 114.083 59.284 112.492C58.3383 110.951 54.4837 100.521 54.4837 100.521Z" fill="#593232"/>
<path d="M77.8785 167.647L77.8175 158.596C77.1004 155.754 76.5161 153.455 76.5916 152.85C74.6966 147.761 67.4095 127.335 67.4094 122.422C67.4094 122.422 64.5319 124.21 63.0683 122.116L64.7533 132.649C64.7533 132.649 67.5552 134.413 69.1664 139.186C70.7812 144 70.4458 147.02 68.7297 150.373C70.068 152.008 74.9161 161.582 77.8785 167.647Z" fill="#593232"/>
<path d="M36.2163 6.89197C32.102 8.70221 31.9805 21.0582 34.2884 25.9837C36.5964 30.9091 41.1514 34.6565 45.0021 33.2537C48.8142 31.8969 49.38 23.176 48.7845 18.7851C48.1964 14.479 40.2883 5.08542 36.2163 6.89197Z" fill="#CFCDCD"/>
<path d="M44.7832 57.7501C41.8781 57.7464 36.2079 57.3852 32.4381 48.9132C29.1458 41.5103 34.1099 37.1913 41.0281 43.5526C44.1416 46.4429 49.611 57.7574 44.7832 57.7501Z" fill="#CFCDCD"/>
<path d="M53.5375 70.4875C57.9928 70.1427 61.4067 63.2245 62.3411 56.7783C63.2756 50.332 59.3455 47.3846 54.564 52.3285C48.8109 58.3822 49.6332 70.7843 53.5375 70.4875Z" fill="#CFCDCD"/>
<path d="M51.0253 98.0882C48.6898 97.2661 42.2472 92.444 40.6857 83.8226C39.0819 75.205 47.9466 76.4417 53.051 84.5414C55.3866 88.311 56.8356 100.061 51.0253 98.0882Z" fill="#CFCDCD"/>
<path d="M41.037 31.3772C38.9743 30.745 35.2211 27.8675 34.5519 21.6462C33.879 15.3825 34.3213 8.68005 37.3647 7.81732C40.408 6.95458 45.7705 14.092 46.7401 17.3824C47.7098 20.6727 47.8371 29.5043 45.2767 31.991C42.7163 34.4777 41.037 31.3772 41.037 31.3772Z" fill="#E2E1E0"/>
<path d="M44.9491 56.7104C45.2919 53.7758 44.2411 47.5876 39.9516 43.9452C35.662 40.3028 32.1707 42.4006 32.6722 46.2016C33.1312 50.0063 37.4964 55.9916 42.7463 57.4146L44.9491 56.7104Z" fill="#E2E1E0"/>
<path d="M52.4793 69.1271C51.2535 68.2939 50.7464 60.9905 52.7796 57.3535C54.8552 53.7129 58.8552 50.5883 60.4239 51.4344C62.0387 52.3192 60.9199 59.5931 58.5955 63.8107C56.3172 68.0671 54.5697 70.5685 52.4793 69.1271Z" fill="#E2E1E0"/>
<path d="M53.372 96.0899C54.3102 93.6161 54.4649 85.5716 48.4721 81.0094C42.4756 76.4048 41.0674 80.8418 41.7956 84.7939C42.5237 88.7461 46.6898 94.407 50.6291 96.9692L53.372 96.0899Z" fill="#E2E1E0"/>
<path d="M46.1107 83.8206C44.7263 85.0943 44.8997 90.0345 46.6989 93.0392C48.498 96.0438 50.3119 98.2355 52.5018 96.8917C54.6917 95.5479 54.769 92.5082 53.8252 89.5146C52.885 86.5634 46.9807 83.0187 46.1107 83.8206Z" fill="#C4C2C1"/>
<path d="M58.6875 57.0107C56.5013 57.4144 51.8819 61.2763 51.6884 66.4193C51.4949 71.5622 55.2738 70.8064 57.8618 66.1814C59.3014 63.5785 60.9972 56.5535 58.6875 57.0107Z" fill="#C4C2C1"/>
<path d="M36.9949 47.278C35.6235 49.1914 39.0209 55.3464 41.2993 56.9851C43.5777 58.6238 46.8017 56.891 45.668 53.1877C44.538 49.5268 38.0604 45.7757 36.9949 47.278Z" fill="#C4C2C1"/>
<path d="M39.8957 14.8164C36.8579 16.234 34.9648 24.4296 37.2839 28.4997C39.6029 32.5698 42.9615 34.8408 45.0021 33.2536C47.0426 31.6665 47.5771 26.0239 47.555 23.8045C47.4941 21.6312 41.3741 14.1325 39.8957 14.8164Z" fill="#C4C2C1"/>
<path d="M39.5567 21.7235C39.5567 21.7235 37.9827 37.0252 44.6225 35.7642C48.3202 35.0582 47.5883 29.0986 39.5567 21.7235Z" fill="#573232"/>
<path d="M37.7065 51.5306C40.1509 59.0072 45.0119 59.3961 46.8276 57.1877C48.6506 55.0642 44.6247 51.0144 37.7065 51.5306Z" fill="#573232"/>
<path d="M60.1791 58.9315C61.4216 68.3068 56.2861 71.1456 52.7339 71.0701C49.4785 70.9688 53.5578 62.3694 60.1791 58.9315Z" fill="#573232"/>
<path d="M46.8391 87.7727C46.1701 95.3065 49.9841 100.357 54.3141 98.571C57.2395 97.3341 53.9177 90.5745 46.8391 87.7727Z" fill="#573232"/>
<path d="M40.4341 23.9539C39.7686 24.6526 42.0841 36.5403 44.6224 35.7642C47.157 34.9458 41.765 22.5566 40.4341 23.9539Z" fill="#70554A"/>
<path d="M39.1 52.8191C37.1313 52.7767 46.2136 58.48 46.8311 57.2301C47.4873 55.9343 43.6346 52.8946 39.1 52.8191Z" fill="#70554A"/>
<path d="M59.3364 60.5426C58.9401 58.4411 52.5862 69.3742 53.5374 70.4876C54.4886 71.6009 59.9853 64.0744 59.3364 60.5426Z" fill="#70554A"/>
<path d="M47.9931 89.2529C46.3838 88.923 52.2127 100.932 54.3141 98.571C56.4155 96.2096 50.7305 89.7838 47.9931 89.2529Z" fill="#70554A"/>
<path d="M66.6647 118.77C70.3588 118.022 75.9974 106.724 73.3945 98.4066C70.7491 90.0931 66.5592 91.5255 63.221 95.874C59.8827 100.223 58.7455 113.179 63.4019 118.584C65.1661 120.695 66.6647 118.77 66.6647 118.77Z" fill="#CFCDCD"/>
<path d="M68.4673 93.3247C71.8978 92.9836 73.9772 100.193 72.9782 105.406C71.9792 110.619 68.3848 118.407 65.6031 118.35C62.8215 118.293 61.1809 114.164 61.5347 108.409C61.9346 102.693 63.3446 93.8557 68.4673 93.3247Z" fill="#E2E1E0"/>
<path d="M68.3031 100.772C69.9363 100.886 72.6131 112.999 68.9762 116.861C65.3393 120.722 61.859 118.035 61.8165 114.109C61.728 110.143 65.7648 100.565 68.3031 100.772Z" fill="#C4C2C1"/>
<path d="M66.611 104.892C66.611 104.892 57.2875 117.535 64.4987 120.881C68.1523 122.614 75.5016 113.303 66.611 104.892Z" fill="#573232"/>
<path d="M58.6463 137.58C58.9543 144.559 64.6025 150.561 67.6311 148.546C70.656 146.489 67.8632 141.392 58.6463 137.58Z" fill="#573232"/>
<path d="M67.0056 106.481C68.1798 105.738 74.3847 117.159 65.4979 120.581C64.3016 121.069 65.9549 107.17 67.0056 106.481Z" fill="#70554A"/>
<path d="M60.0161 139.084C58.0824 138.953 63.5186 148.904 67.6496 147.776C68.7795 147.506 61.8226 139.226 60.0161 139.084Z" fill="#70554A"/>
<path d="M82.6312 67.5727C80.8304 76.8282 79.3523 96.1798 74.709 102.222C74.709 102.222 74.6593 110.001 70.4531 132.367C68.9103 140.66 66.8514 149.895 64.7446 158.58L71.6887 164.255C72.3134 154.247 74.1859 130.59 78.4034 124.072C77.2549 120.199 79.8538 102.928 82.1357 93.8018C84.4177 84.6753 86.2721 82.4209 86.2721 82.4209C84.3863 80.8762 85.6561 64.533 88.0118 59.2019C87.9325 56.8166 82.3821 53.412 82.0393 56.3467C81.8532 57.6444 84.432 58.3172 82.6312 67.5727Z" fill="#452828"/>
<path d="M83.9748 59.9373C83.9748 59.9373 85.5085 60.8719 86.4412 60.7908C86.2071 63.5024 85.0938 68.3836 85.0938 68.3836C85.0938 68.3836 82.657 72.7819 82.045 74.5865C82.5206 71.2132 84.561 62.7484 83.9748 59.9373Z" fill="#593232"/>
<path d="M81.5734 82.915C82.049 84.4542 83.3301 84.9408 84.4472 85.0145C83.6546 86.7067 82.5173 89.8386 82.5173 89.8386C82.5173 89.8386 80.7605 87.8128 80.1817 87.0515C80.6204 86.2017 81.5734 82.915 81.5734 82.915Z" fill="#593232"/>
<path d="M75.9828 105.572C76.9671 106.084 78.6095 104.831 79.6123 103.59C79.0298 105.734 78.3441 108.656 78.3441 108.656C78.3441 108.656 76.1119 110.003 75.3156 111.653C75.6916 109.1 75.9828 105.572 75.9828 105.572Z" fill="#593232"/>
<path d="M70.6361 163.45C71.2682 150.579 74.9453 129.499 75.9426 126.721C75.9426 126.721 73.2107 124.78 73.0447 122.872C71.7527 133.065 68.5529 147.355 65.6203 159.315L70.6361 163.45Z" fill="#593232"/>
<path d="M87.8295 57.5945C90.0544 56.1622 95.9143 51.3381 94.8617 42.6724C93.809 34.0068 89.0291 32.5857 85.1084 36.1305C81.1876 39.6754 78.0264 49.989 82.4598 56.2674C84.1151 58.6011 87.8295 57.5945 87.8295 57.5945Z" fill="#CFCDCD"/>
<path d="M86.8395 56.5272C89.8736 55.0672 93.5326 51.4597 93.5749 43.5959C93.5748 35.7359 89.3701 35.0336 87.1452 36.4659C84.9203 37.8983 79.2262 45.6128 82.5315 53.6553L86.8395 56.5272Z" fill="#E2E1E0"/>
<path d="M87.0623 40.9157C85.5728 40.4899 80.3673 49.4008 82.4891 53.6589C84.5685 57.9207 87.8294 57.5944 88.8303 56.8239C89.8349 56.0957 90.1757 41.841 87.0623 40.9157Z" fill="#C4C2C1"/>
<path d="M85.2781 46.9232C80.0799 52.9714 80.7196 57.871 85.7188 59.3585C90.7567 60.7999 90.0211 53.8155 85.2781 46.9232Z" fill="#573232"/>
<path d="M85.3793 48.5804C85.0531 48.267 82.2882 56.752 86.0542 58.3041C88.1814 59.187 87.1029 50.2246 85.3793 48.5804Z" fill="#70554A"/>
<path d="M77.5774 102.784C75.4317 103.655 72.1395 102.147 70.4748 97.2508C68.8102 92.3549 70.0949 85.0239 73.1899 83.7722C76.331 82.5592 80.8897 88.3141 82.1027 91.4551C83.3156 94.5962 82.5747 100.812 77.5774 102.784Z" fill="#CFCDCD"/>
<path d="M83.3781 81.5618C81.1476 80.4743 82.0286 75.8696 83.3097 72.4262C84.6332 68.9791 89.1032 63.8913 93.0573 65.6406C97.0113 67.3899 94.5653 78.0685 89.8224 81.0014C85.0795 83.9342 85.2546 82.5093 83.3781 81.5618Z" fill="#CFCDCD"/>
<path d="M75.7417 123.919C73.279 123.108 72.6687 117.565 74.7867 113.92C76.8623 110.28 81.4632 107.188 84.0071 107.949C86.5509 108.711 87.2459 114.246 85.563 117.981C83.8838 121.758 79.8358 125.314 75.7417 123.919Z" fill="#CFCDCD"/>
<path d="M73.8461 84.4413C76.2941 84.1002 79.5274 88.8597 80.7017 92.0469C81.876 95.234 81.1553 100.209 77.8262 101.225C74.5432 102.279 71.5495 99.2933 70.9688 94.0895C70.4342 88.9244 72.0728 84.681 73.8461 84.4413Z" fill="#E2E1E0"/>
<path d="M92.674 66.1438C95.5146 66.8793 94.0935 77.5542 89.393 80.4833C84.6888 83.3701 82.3127 81.0991 83.0186 76.9368C83.6822 72.7782 87.4314 64.8056 92.674 66.1438Z" fill="#E2E1E0"/>
<path d="M84.0659 108.628C85.8042 109.459 87.091 114.431 84.6412 118.189C82.149 121.952 79.3084 124.164 76.7296 123.491C74.1507 122.818 73.9239 118.737 74.7902 115.928C75.6142 113.122 80.6778 107 84.0659 108.628Z" fill="#E2E1E0"/>
<path d="M74.6977 88.3399C72.6756 89.1565 69.9494 97.5955 73.1421 100.906C76.3385 104.259 79.3192 101.693 80.5874 99.5751C81.8556 97.457 76.6775 87.5269 74.6977 88.3399Z" fill="#C4C2C1"/>
<path d="M91.1237 69.4398C89.9679 67.4471 79.8167 77.9415 83.4205 81.5581C86.9819 85.1784 96.4051 78.592 91.1237 69.4398Z" fill="#C4C2C1"/>
<path d="M82.6984 111.566C84.4496 111.072 83.3677 120.735 79.5907 122.986C75.81 125.194 74.9933 123.172 74.8256 121.734C74.6541 120.254 76.7315 113.196 82.6984 111.566Z" fill="#C4C2C1"/>
<path d="M74.2019 91.9713C71.3595 96.6185 73.0131 104.335 77.074 104.366C81.1275 104.312 80.1818 98.8414 74.2019 91.9713Z" fill="#573232"/>
<path d="M91.3503 73.5211C85.0461 76.6751 81.2746 79.4808 82.7585 82.2993C84.2425 85.1177 91.238 83.5268 91.3503 73.5211Z" fill="#573232"/>
<path d="M80.8293 114.633C76.0034 117.104 72.055 121.804 75.3879 124.761C78.6322 127.683 82.9935 120.853 80.8293 114.633Z" fill="#573232"/>
<path d="M74.602 94.1153C75.9772 95.1918 80.4161 102.025 77.9055 103.61C75.3985 105.238 72.9541 92.8489 74.602 94.1153Z" fill="#70554A"/>
<path d="M90.2795 75.451C89.9347 73.9431 82.6591 82.1369 83.9808 83.0899C85.2565 84.0042 90.7035 77.3791 90.2795 75.451Z" fill="#70554A"/>
<path d="M80.302 116.431C81.432 116.162 79.0118 125.172 76.6136 124.612C74.2615 124.09 78.7131 116.825 80.302 116.431Z" fill="#70554A"/>
<path d="M59.6124 137.88C59.6124 137.88 70.3612 152.922 83.5749 183.042L82.8354 168.155C79.5671 161.519 76.6729 154.765 76.9641 153.202C74.4793 153.119 70.1362 146.406 66.0272 136.981C61.9182 127.556 59.072 120.37 59.8849 117.438C57.8185 117.746 52.1703 107.814 48.1516 99.9185C44.133 92.0235 38.1917 80.1948 38.6433 78.0196C35.8193 78.9487 29.2475 65.7651 26.4916 60.1097C23.7357 54.4544 25.0389 54.2129 24.2241 52.7032L19.3872 55.0461C20.0472 56.7402 21.1292 55.9199 25.369 64.3937C29.6089 72.8676 45.158 97.9149 43.5359 99.8928C41.9174 101.913 43.9746 101.008 45.4585 103.827C46.9425 106.645 59.5661 126.052 60.0603 136.645C60.1727 138.43 59.6124 137.88 59.6124 137.88Z" fill="#452828"/>
<path d="M21.9752 57.2987C23.142 57.4535 24.0029 56.0544 24.0029 56.0544C25.0868 58.694 28.7147 66.025 29.7599 67.7282C30.0051 69.0739 31.6365 74.5708 31.6365 74.5708C31.6365 74.5708 24.8343 61.1936 21.9752 57.2987Z" fill="#593232"/>
<path d="M35.9758 81.2417L39.5557 88.0215C39.5557 88.0215 41.9189 89.6528 42.9789 91.5257C41.047 86.9947 38.3482 82.4878 38.2579 80.9578C37.8819 81.5458 35.9758 81.2417 35.9758 81.2417Z" fill="#593232"/>
<path d="M45.418 102.378C46.5332 101.939 46.8005 99.6088 46.8005 99.6088C48.3176 102.809 52.2606 109.344 52.8542 110.274C52.5685 112.392 53.9161 116.59 54.388 118.087C51.6929 113.622 50.4947 108.685 45.418 102.378Z" fill="#593232"/>
<path d="M56.4692 120.896C57.6932 122.199 58.7752 121.379 59.284 120.352C59.6287 123.825 61.863 129.867 63.1257 132.107C61.2934 129.703 58.8822 127.521 58.8822 127.521L56.4692 120.896Z" fill="#593232"/>
<path d="M61.3543 138.754C63.2512 138.461 63.5368 136.343 63.4465 134.813C64.7424 137.434 69.3546 146.26 69.3546 146.26C69.3546 146.26 69.7713 151.051 70.4829 153.339C71.152 155.63 65.8375 144.131 61.3543 138.754Z" fill="#593232"/>
<path d="M82.861 169.435C80.2876 164.404 77.6608 159.25 76.763 157.278C75.045 157.171 72.9602 157.267 72.0882 155.591C74.0183 159.61 79.1706 170.226 83.3386 179.346L82.861 169.435Z" fill="#593232"/>
<path d="M20.1944 55.4886C18.8193 55.3946 12.2163 51.1845 10.6844 44.8673C9.15617 38.5925 11.1229 33.2099 13.3995 32.3711C15.676 31.5324 20.5388 34.3987 23.0735 39.4753C25.5658 44.5555 26.3622 49.7833 23.6949 53.0055C20.9853 56.2314 20.1944 55.4886 20.1944 55.4886Z" fill="#CFCDCD"/>
<path d="M44.9183 98.1066C44.4998 95.7508 40.341 85.2621 29.8284 86.6891C26.197 87.1758 29.9889 96.8847 34.0019 99.3123C38.0537 101.694 45.8271 103.154 44.9183 98.1066Z" fill="#CFCDCD"/>
<path d="M34.4955 78.4658C32.2558 74.816 29.1294 67.356 30.8823 62.4618C32.6353 57.5677 35.8796 57.5418 38.0345 60.2165C40.1931 62.9336 41.6588 73.4001 38.5878 77.3837C35.5592 81.3635 34.4955 78.4658 34.4955 78.4658Z" fill="#CFCDCD"/>
<path d="M19.2176 54.0785C17.4977 53.4591 12.587 49.0591 11.6136 44.7438C10.6827 40.4248 11.5545 34.2404 14.1352 33.4606C16.7158 32.6808 21.046 37.7721 22.6 41.3961C24.1153 45.0662 25.6195 50.5741 22.3236 52.954C19.0204 55.249 19.2176 54.0785 19.2176 54.0785Z" fill="#E2E1E0"/>
<path d="M43.9874 98.7001C44.074 96.2577 41.3236 91.1572 35.3566 88.8567C29.3897 86.5563 29.2072 87.8964 29.7308 90.9693C30.2543 94.0422 34.5955 100.243 41.0915 100.276L43.9874 98.7001Z" fill="#E2E1E0"/>
<path d="M34.7777 77.2877C33.655 74.6942 30.901 68.5687 31.9829 63.8184C33.0649 59.068 35.5387 59.0237 37.1461 60.8062C38.7536 62.5887 40.0495 69.14 38.7629 73.9936C37.5188 78.8435 34.7777 77.2877 34.7777 77.2877Z" fill="#E2E1E0"/>
<path d="M30.9934 94.1914C30.3317 92.9674 43.8177 93.8023 45.027 98.8659C45.6796 101.458 35.3236 102.23 30.9934 94.1914Z" fill="#C4C2C1"/>
<path d="M16.3158 41.3445C14.6015 42.2625 13.35 48.9926 14.5722 50.7659C15.7943 52.5392 18.5576 55.3319 21.4553 54.2682C24.3992 53.2432 25.3116 50.4727 25.1014 49.0385C24.8949 47.6468 17.8255 40.5297 16.3158 41.3445Z" fill="#C4C2C1"/>
<path d="M36.8532 64.8045C36.044 65.8146 32.7814 74.4711 33.6183 76.2352C34.4552 77.9993 39.2166 79.2084 39.7566 73.1383C40.0312 69.9105 38.3869 62.7915 36.8532 64.8045Z" fill="#C4C2C1"/>
<path d="M36.0831 95.244C36.1642 98.1417 43.6576 104.239 45.7294 100.556C46.8852 98.619 43.6556 94.8844 36.0831 95.244Z" fill="#573232"/>
<path d="M35.1298 79.8629C38.2967 80.9117 41.4487 75.8959 37.7564 68.3142C35.3343 72.8821 32.1822 78.8804 35.1298 79.8629Z" fill="#573232"/>
<path d="M17.175 46.3105C16.0396 52.9023 19.1992 57.7964 22.9412 55.6341C26.6444 53.5178 23.765 47.9159 17.175 46.3105Z" fill="#573232"/>
<path d="M17.6725 47.1214C17.6485 46.3545 24.2202 53.6431 23.411 54.6533C22.6055 55.7058 20.7732 56.2496 19.2136 54.0358C17.6578 51.8643 17.7444 48.4394 17.6725 47.1214Z" fill="#70554A"/>
<path d="M36.6434 95.7932C35.7383 95.701 40.7652 101.928 45.0694 100.827C46.9091 100.368 38.0683 95.9683 36.6434 95.7932Z" fill="#70554A"/>
<path d="M37.9979 70.6C38.9454 69.7059 39.7529 78.0084 36.1491 79.3043C34.5749 79.8684 37.3288 71.2562 37.9979 70.6Z" fill="#70554A"/>
<path d="M57.6413 119.64C56.4524 119.231 53.2172 115.924 53.4918 110.732C53.7664 105.539 55.6613 102.768 57.748 103.185C59.8771 103.598 61.9178 109.871 60.7823 113.515C59.6505 117.202 59.1805 120.147 57.6413 119.64Z" fill="#CFCDCD"/>
<path d="M59.0112 136.865C57.2839 136.161 53.2138 132.585 52.3141 128.135C51.4145 123.685 56.0617 126.527 58.9263 129.012C61.8333 131.493 63.3264 134.909 62.0269 136.175C60.7734 137.48 60.2075 137.359 59.0112 136.865Z" fill="#CFCDCD"/>
<path d="M57.5069 118.584C56.3382 117.917 54.1353 114.691 54.4284 110.693C54.7638 106.691 56.2864 103.568 57.8071 103.863C59.3279 104.158 61.0239 108.923 60.2166 113.393C59.4553 117.902 57.5069 118.584 57.5069 118.584Z" fill="#E2E1E0"/>
<path d="M61.487 135.368C62.2925 134.315 61.391 130.335 55.236 126.855C52.9484 125.602 52.106 126.23 52.6627 128.702C53.2195 131.174 56.003 134.691 58.5653 135.665C61.1275 136.638 61.487 135.368 61.487 135.368Z" fill="#E2E1E0"/>
<path d="M53.3872 129.665C53.0332 128.542 59.7597 131.716 61.1404 133.348C62.5248 135.021 61.1017 137.324 59.5975 136.728C58.097 136.175 54.4103 133.079 53.3872 129.665Z" fill="#C4C2C1"/>
<path d="M57.9601 108.079C57.0458 109.355 54.2108 114.087 55.3611 116.507C56.5114 118.927 57.4441 119.829 58.5594 118.407C59.6709 116.944 61.0791 113.489 60.633 111.307C60.1832 109.082 59.7186 105.705 57.9601 108.079Z" fill="#C4C2C1"/>
<path d="M59.7333 109.804C62.6735 114.632 60.0487 119.815 58.0099 119.95C53.9324 120.219 55.5969 114.308 59.7333 109.804Z" fill="#573232"/>
<path d="M54.7696 131.808C56.5854 137.46 59.7486 139.449 62.1855 137.016C64.6187 134.54 59.2858 132.654 54.7696 131.808Z" fill="#573232"/>
<path d="M59.7134 112.027C59.2138 110.704 55.494 118.033 57.0351 119.052C58.5762 120.072 60.3346 113.767 59.7134 112.027Z" fill="#70554A"/>
<path d="M55.8997 132.522C54.8564 133.296 60.8843 138.752 62.1432 137.019C63.4409 135.241 56.8619 131.797 55.8997 132.522Z" fill="#70554A"/>
<path d="M75.2405 154.505C77.211 154.078 79.8654 149.233 79.0634 145.416C78.2615 141.598 76.5601 138.243 73.701 140.243C70.8457 142.286 69.7343 147.68 70.5638 150.341C71.3971 153.046 73.9409 154.789 75.2405 154.505Z" fill="#CFCDCD"/>
<path d="M77.0856 144.776C77.7253 145.746 78.8387 149.707 77.3567 152.314C75.8747 154.92 72.5658 153.713 71.598 151.917C70.5915 150.168 76.2469 143.482 77.0856 144.776Z" fill="#C4C2C1"/>
<path d="M75.2477 146.73C78.105 150.113 77.7733 155.14 75.2719 155.357C72.8552 155.567 72.0828 152.089 75.2477 146.73Z" fill="#573232"/>
<path d="M75.2274 147.971C76.1823 147.161 77.6276 153.956 74.9842 154.998C74.2432 155.318 74.3113 148.734 75.2274 147.971Z" fill="#70554A"/>
<path d="M61.3471 154.39C61.3471 154.39 73.2591 168.561 88.7659 197.542L86.8817 182.755C83.1267 176.417 79.6961 169.881 79.8988 168.283C77.4324 168.412 72.564 162.043 67.7601 152.978C62.9562 143.912 59.5311 136.948 60.1283 133.991C58.0767 134.469 51.6561 124.988 47.0273 117.445C42.3986 109.902 35.5577 98.5364 35.8397 96.3759C33.1189 97.5097 25.5278 84.8846 22.324 79.4818C19.1201 74.0789 20.4123 73.7103 19.4777 72.2964L14.8435 75.0062C15.627 76.6468 16.6593 75.7454 21.5516 83.8634C26.444 91.9815 43.8862 115.711 42.4485 117.844C41.0107 119.976 42.972 118.951 44.6568 121.624C46.3417 124.297 60.4179 142.723 61.7987 153.197C61.9886 154.889 61.3471 154.39 61.3471 154.39Z" fill="#452828"/>
<path d="M17.5755 76.9472C18.7312 76.9748 19.5036 75.5407 19.5036 75.5407C20.7921 78.0771 24.949 85.1058 26.114 86.7132C26.4827 88.0054 28.5308 93.3806 28.5308 93.3806C28.5308 93.3806 20.7129 80.6044 17.5755 76.9472Z" fill="#593232"/>
<path d="M33.3567 99.753L37.4656 106.23C37.4656 106.23 39.9376 107.639 41.1635 109.454C38.861 105.084 35.8415 100.818 35.624 99.2995C35.2904 99.8838 33.3567 99.753 33.3567 99.753Z" fill="#593232"/>
<path d="M44.4358 120.063C45.5012 119.543 45.5952 117.185 45.5952 117.185C47.3169 120.282 51.7853 126.472 52.46 127.353C52.3476 129.499 54.0233 133.539 54.58 135.029C51.6066 130.802 49.988 125.945 44.4358 120.063Z" fill="#593232"/>
<path d="M56.9043 137.689C58.2057 138.9 59.2343 137.956 59.7007 136.933C60.3385 140.338 63.0281 146.213 64.453 148.353C62.4198 146.095 59.8538 144.096 59.8538 144.096L56.9043 137.689Z" fill="#593232"/>
<path d="M63.1628 155.129C65.0485 154.709 65.1186 152.567 64.9397 151.002C66.3979 153.523 71.7474 161.986 71.7474 161.986C71.7474 161.986 72.5457 166.744 73.4194 168.932C74.2545 171.166 68.0404 160.13 63.1628 155.129Z" fill="#593232"/>
<path d="M87.0348 184.023C84.0522 179.199 81.0585 174.248 79.9985 172.375C78.2916 172.395 76.1791 172.665 75.2261 171.039C77.4842 174.901 83.4089 185.065 88.2718 193.826L87.0348 184.023Z" fill="#593232"/>
<path d="M15.6786 75.2753C14.3145 75.3085 7.37051 71.5979 5.34088 65.4522C3.31125 59.3065 4.88171 53.7874 7.1011 52.7828C9.32048 51.7781 14.4045 54.2407 17.3023 59.0721C20.2038 63.9459 21.4205 69.0944 18.9837 72.5102C16.5081 75.972 15.6786 75.2753 15.6786 75.2753Z" fill="#CFCDCD"/>
<path d="M43.6004 115.864C42.97 113.526 38.0314 103.405 27.6773 105.672C24.1141 106.452 28.6471 115.84 32.8426 117.91C37.0381 119.98 44.9296 120.832 43.6004 115.864Z" fill="#CFCDCD"/>
<path d="M31.7142 97.0765C29.1925 93.6221 25.4909 86.4257 26.8475 81.3951C28.2042 76.3646 31.4264 76.0844 33.8246 78.6097C36.1804 81.1388 38.4903 91.4892 35.7346 95.6589C32.9825 99.871 31.7142 97.0765 31.7142 97.0765Z" fill="#CFCDCD"/>
<path d="M14.5819 73.9609C12.7883 73.4761 7.5715 69.4871 6.26265 65.2438C4.9962 60.9967 5.39427 54.768 7.91413 53.7799C10.434 52.7918 15.1586 57.507 16.9633 61.0665C18.7643 64.5836 20.7275 69.9662 17.581 72.5894C14.4731 75.1664 14.5819 73.9609 14.5819 73.9609Z" fill="#E2E1E0"/>
<path d="M42.758 116.492C42.6326 114.068 39.5154 109.171 33.377 107.355C27.2386 105.539 27.187 106.911 27.9189 109.923C28.6931 112.931 33.5173 118.791 39.969 118.315L42.758 116.492Z" fill="#E2E1E0"/>
<path d="M31.9078 95.8635C30.6229 93.3695 27.3324 87.4616 28.0678 82.6559C28.7609 77.854 31.2586 77.594 32.9822 79.2383C34.7058 80.8825 36.5031 87.3047 35.6516 92.2486C34.7189 97.2423 31.9078 95.8635 31.9078 95.8635Z" fill="#E2E1E0"/>
<path d="M29.4288 113.038C28.6859 111.864 42.2106 111.67 43.7941 116.616C44.6126 119.15 34.3691 120.725 29.4288 113.038Z" fill="#C4C2C1"/>
<path d="M10.6774 61.4853C9.02025 62.5692 8.28855 69.3823 9.66925 71.0136C11.0536 72.6874 13.968 75.2533 16.8049 73.9813C19.6418 72.7094 20.3349 69.8724 20.0436 68.4881C19.71 67.1074 12.1373 60.5894 10.6774 61.4853Z" fill="#C4C2C1"/>
<path d="M32.9895 83.253C32.2724 84.3406 29.6679 93.1962 30.6707 94.9031C31.6275 96.5713 36.4866 97.4303 36.5565 91.3582C36.5307 88.1139 34.3462 81.17 32.9895 83.253Z" fill="#C4C2C1"/>
<path d="M34.6123 113.698C34.9054 116.577 42.8559 122.037 44.6623 118.249C45.595 116.203 42.0871 112.706 34.6123 113.698Z" fill="#573232"/>
<path d="M32.4295 98.424C35.659 99.2111 38.4498 93.9704 34.186 86.6947C32.0791 91.4488 29.4156 97.6609 32.4295 98.424Z" fill="#573232"/>
<path d="M11.9144 66.3757C11.2988 73.0505 14.8602 77.6533 18.4105 75.2513C21.9571 72.807 18.6298 67.4576 11.9144 66.3757Z" fill="#573232"/>
<path d="M12.4968 67.1794C12.4305 66.4163 19.5514 73.1444 18.7957 74.2781C18.0362 75.3693 16.2611 76.0791 14.5393 73.9648C12.86 71.8468 12.6498 68.4476 12.4968 67.1794Z" fill="#70554A"/>
<path d="M35.2113 114.201C34.3099 114.151 39.8161 119.995 44.006 118.562C45.7885 117.938 36.6251 114.249 35.2113 114.201Z" fill="#70554A"/>
<path d="M34.5972 88.9656C35.4525 87.9942 36.9383 96.2376 33.3991 97.7843C31.8783 98.4719 33.9741 89.6606 34.5972 88.9656Z" fill="#70554A"/>
<path d="M57.9808 136.314C56.7568 135.993 53.2894 132.963 53.1363 127.764C53.0257 122.562 54.6976 119.683 56.8119 119.926C58.9262 120.17 61.507 126.267 60.637 130.017C59.8094 133.762 59.555 136.732 57.9808 136.314Z" fill="#CFCDCD"/>
<path d="M57.7615 135.265C56.5153 134.69 54.0728 131.655 54.1078 127.637C54.1004 123.622 55.3999 120.391 56.9557 120.597C58.5078 120.761 60.5356 125.412 60.1172 129.934C59.6564 134.459 57.7615 135.265 57.7615 135.265Z" fill="#E2E1E0"/>
<path d="M54.523 146.653C54.0879 145.58 61.0632 148.178 62.5638 149.713C64.0643 151.249 62.868 153.702 61.2864 153.199C59.7121 152.781 55.7968 150.003 54.523 146.653Z" fill="#C4C2C1"/>
<path d="M57.3632 124.791C56.5374 126.102 54.1061 131.055 55.4186 133.376C56.7311 135.696 57.7449 136.548 58.7643 135.007C59.7412 133.469 60.8841 129.91 60.2683 127.742C59.6987 125.613 58.9798 122.258 57.3632 124.791Z" fill="#C4C2C1"/>
<path d="M59.3376 126.371C62.6833 130.949 60.4198 136.358 58.3921 136.62C54.3404 137.186 55.5237 131.145 59.3376 126.371Z" fill="#573232"/>
<path d="M56.0677 148.697C58.3388 154.181 61.6108 155.947 63.8597 153.317C66.1085 150.686 60.6356 149.154 56.0677 148.697Z" fill="#573232"/>
<path d="M59.4445 128.583C58.8638 127.309 55.721 134.887 57.3358 135.772C58.9543 136.699 60.2316 130.266 59.4445 128.583Z" fill="#70554A"/>
<path d="M57.2714 149.276C56.3203 150.128 62.6928 155.127 63.8559 153.274C64.9804 151.468 58.1452 148.517 57.2714 149.276Z" fill="#70554A"/>
<path d="M78.2326 169.752C80.1884 169.155 82.4427 164.132 81.3477 160.382C80.2527 156.633 78.2618 153.388 75.5982 155.671C72.9309 157.91 72.2121 163.398 73.2499 165.999C74.3265 168.554 76.9404 170.121 78.2326 169.752Z" fill="#CFCDCD"/>
<path d="M79.3385 159.873C80.0168 160.797 81.4621 164.644 80.2031 167.359C78.9018 170.078 75.5302 169.133 74.4002 167.437C73.2702 165.741 78.3799 158.675 79.3385 159.873Z" fill="#C4C2C1"/>
<path d="M77.6424 161.986C80.778 165.131 80.7892 170.17 78.3486 170.596C75.9467 170.976 74.9236 167.562 77.6424 161.986Z" fill="#573232"/>
<path d="M77.7071 163.219C78.6122 162.329 80.6013 168.991 78.0188 170.24C77.3238 170.6 76.8832 164.06 77.7071 163.219Z" fill="#70554A"/>
<path d="M99.5288 59.7895C98.3844 71.0295 98.8228 94.3492 93.9185 102.073C93.9185 102.073 94.7237 111.389 92.1992 138.552C91.2625 148.599 89.8204 159.883 88.2903 170.486L97.21 176.492C96.819 164.45 96.4443 136.023 100.75 127.749C98.9443 123.288 100.133 102.345 101.874 91.1872C103.572 80.03 105.56 77.1277 105.56 77.1277C103.127 75.4782 102.832 55.8178 105.059 49.212C104.707 46.3622 97.7133 42.9443 97.6002 46.4345C97.5217 48.0095 100.673 48.5495 99.5288 59.7895Z" fill="#452828"/>
<path d="M100.256 50.5514C100.256 50.5514 102.175 51.5221 103.281 51.3047C103.337 54.5814 102.554 60.5427 102.554 60.5427C102.554 60.5427 100.151 66.0428 99.6073 68.3006C99.8027 64.1717 101.291 53.8239 100.256 50.5514Z" fill="#593232"/>
<path d="M99.9895 78.2576C100.72 80.042 102.34 80.5033 103.658 80.4126C102.901 82.5011 101.896 86.3781 101.896 86.3781C101.896 86.3781 99.546 84.1324 98.8192 83.3269C99.1977 82.2613 99.9895 78.2576 99.9895 78.2576Z" fill="#593232"/>
<path d="M95.85 105.937C97.0863 106.443 98.9091 104.733 99.924 103.197C99.4668 105.795 98.9711 109.371 98.9711 109.371C98.9711 109.371 96.4254 111.212 95.6681 113.301C95.8679 110.193 95.85 105.937 95.85 105.937Z" fill="#593232"/>
<path d="M95.9297 175.604C95.269 160.158 97.2895 134.573 98.1689 131.164C98.1689 131.164 94.7132 129.136 94.2783 126.925C93.9044 139.226 91.6794 156.641 89.4852 171.248L95.9297 175.604Z" fill="#593232"/>
<path d="M104.626 47.2987C107.128 45.3306 113.613 38.9623 111.399 28.7152C109.186 18.4681 103.308 17.3437 99.0296 22.0005C94.7508 26.6572 92.123 39.3504 98.1105 46.3472C100.334 48.9339 104.626 47.2987 104.626 47.2987Z" fill="#CFCDCD"/>
<path d="M103.344 46.1125C106.782 44.0128 110.806 39.3145 109.915 29.9556C109.067 20.5965 103.959 20.1924 101.414 22.1607C98.9109 24.1289 92.9517 33.9847 97.7993 43.1993L103.344 46.1125Z" fill="#E2E1E0"/>
<path d="M101.904 27.4783C100.072 27.103 94.8426 38.3601 97.8421 43.2417C100.842 48.1232 104.626 47.3413 105.728 46.3153C106.83 45.2893 105.695 28.2284 101.904 27.4783Z" fill="#C4C2C1"/>
<path d="M100.403 34.8471C94.9032 42.6583 96.1615 48.3982 102.337 49.6065C108.471 50.8149 106.819 42.5231 100.403 34.8471Z" fill="#573232"/>
<path d="M100.666 36.8036C100.239 36.4649 97.8575 46.9015 102.545 48.3714C105.229 49.1687 102.972 38.5813 100.666 36.8036Z" fill="#70554A"/>
<path d="M97.4522 102.398C94.9891 103.643 90.8551 102.213 88.3204 96.5637C85.7858 90.9142 86.4718 81.9742 90.0816 80.1716C93.6914 78.369 99.804 84.7696 101.607 88.3794C103.367 91.9894 103.143 99.4805 97.4522 102.398Z" fill="#CFCDCD"/>
<path d="M102.025 76.419C99.2537 75.3241 99.741 69.747 100.957 65.5287C102.131 61.268 106.912 54.6515 111.856 56.3331C116.757 57.9722 115.067 71.002 109.679 75.025C104.291 79.048 104.369 77.3028 102.025 76.419Z" fill="#CFCDCD"/>
<path d="M97.6017 127.847C94.5771 127.136 93.2305 120.631 95.339 116.026C97.405 111.421 102.537 107.229 105.646 107.854C108.756 108.479 110.23 115.027 108.632 119.672C107.077 124.36 102.628 129.018 97.6017 127.847Z" fill="#CFCDCD"/>
<path d="M90.9358 80.934C93.827 80.2835 98.1902 85.5849 99.9931 89.2798C101.796 92.9748 101.438 98.9769 97.6147 100.568C93.7912 102.158 89.9051 98.9828 88.6451 92.8172C87.385 86.6517 88.8525 81.4109 90.9358 80.934Z" fill="#E2E1E0"/>
<path d="M111.348 56.9736C114.84 57.5548 114.299 70.452 108.996 74.4321C103.693 78.4122 100.618 75.9994 100.98 70.9335C101.385 65.91 104.96 55.9365 111.348 56.9736Z" fill="#E2E1E0"/>
<path d="M105.82 108.662C107.994 109.461 110.103 115.24 107.57 120.06C105.037 124.837 101.9 127.787 98.7483 127.247C95.5967 126.707 94.8957 121.9 95.5621 118.451C96.2284 114.958 101.643 107.105 105.82 108.662Z" fill="#E2E1E0"/>
<path d="M92.3594 85.4819C90.0663 86.6832 87.7265 97.0345 91.9125 100.677C96.0984 104.319 99.3612 100.943 100.669 98.2569C101.935 95.5704 94.6524 84.2807 92.3594 85.4819Z" fill="#C4C2C1"/>
<path d="M109.876 61.1078C108.292 58.8589 97.3269 72.5234 102.025 76.419C106.722 80.3145 117.239 71.4184 109.876 61.1078Z" fill="#C4C2C1"/>
<path d="M104.516 112.327C106.555 111.552 106.349 123.214 102.064 126.296C97.8208 129.378 96.5769 127.043 96.2291 125.299C95.8815 123.598 97.59 114.952 104.516 112.327Z" fill="#C4C2C1"/>
<path d="M92.1651 89.8661C89.2957 95.7085 92.1427 104.804 96.9922 104.315C101.842 103.827 100.112 97.408 92.1651 89.8661Z" fill="#573232"/>
<path d="M110.62 65.9137C103.446 70.3698 99.2912 74.1324 101.347 77.3581C103.404 80.5838 111.564 77.911 110.62 65.9137Z" fill="#573232"/>
<path d="M102.617 116.208C97.142 119.721 92.9541 125.739 97.2232 128.913C101.492 132.044 105.924 123.344 102.617 116.208Z" fill="#573232"/>
<path d="M92.8991 92.4164C94.6488 93.5581 100.724 101.235 97.882 103.418C95.0822 105.557 90.8081 91.0633 92.8991 92.4164Z" fill="#70554A"/>
<path d="M109.523 68.3441C108.963 66.6016 101.177 77.1886 102.84 78.1604C104.547 79.0895 110.299 70.639 109.523 68.3441Z" fill="#70554A"/>
<path d="M102.201 118.423C103.518 117.992 101.607 128.979 98.7114 128.609C95.8583 128.195 100.374 119.069 102.201 118.423Z" fill="#70554A"/>
<path d="M134.335 41.1583C133.661 42.8209 132.475 54.2313 127.112 64.1698C127.112 64.1698 126.299 63.2795 125.35 70.348C124.358 77.4167 118.366 109.871 108.799 121.87C105.751 125.67 105.592 128.522 104.799 132.185C104.257 134.741 100.235 150.036 95.8166 161.928L94.6257 182.361C102.456 151.772 113.466 128.659 113.466 128.659C115.921 115.371 123.801 96.7402 123.801 96.7402C123.347 89.8478 130.376 71.4334 130.574 67.7301C131.051 59.7272 138.135 44.2065 138.632 40.7998C139.086 37.4784 134.335 41.1583 134.335 41.1583Z" fill="#452828"/>
<path d="M134.433 44.2221C134.091 43.8405 132.002 53.2545 131.793 54.064C131.584 54.8735 132.569 56.3163 132.529 56.9548C132.489 57.6359 136.524 45.6603 136.819 44.8505C137.113 44.0406 134.989 44.8581 134.433 44.2221Z" fill="#593232"/>
<path d="M125.834 73.9633C125.028 74.6476 124.155 79.6305 124.115 80.2265C124.075 80.8225 127.634 77.0625 127.759 76.5513C127.885 76.04 128.3 73.5274 128.382 72.8461C128.507 72.2072 126.724 73.2361 125.834 73.9633Z" fill="#593232"/>
<path d="M119.637 98.3749C119.342 98.9294 116.196 109.965 115.817 110.818C115.438 111.67 116.344 114.688 116.597 114.262C116.851 113.835 121.647 100.537 121.942 99.8121C122.279 99.0447 119.933 97.9055 119.637 98.3749Z" fill="#593232"/>
<path d="M106.708 130.688C105.902 131.415 98.7286 156.128 98.1394 157.705C97.5502 159.282 95.0329 167.89 95.5141 170.994C95.9954 174.142 97.0846 170.009 97.9266 167.835C98.8113 165.703 110.422 133.481 111.097 132.031C111.772 130.581 107.047 130.388 106.708 130.688Z" fill="#593232"/>
<path d="M133.698 41.5015C132.502 40.4426 129.529 31.6882 132.692 24.8657C135.812 18.0008 141.501 14.5723 144.185 15.4548C146.87 16.3797 149.237 22.5407 147.86 29.0152C146.482 35.4897 143.441 40.8222 138.636 41.8212C133.873 42.7775 133.698 41.5015 133.698 41.5015Z" fill="#CFCDCD"/>
<path d="M128.54 69.8665C130.19 67.604 135.672 55.6649 126.064 47.8321C122.733 45.1224 117.63 56.1237 118.801 61.481C120.016 66.8382 125.028 74.6903 128.54 69.8665Z" fill="#CFCDCD"/>
<path d="M121.797 95.8549C122.074 90.8319 124.121 81.6735 129.043 78.1631C133.965 74.6952 137.081 76.8526 137.353 80.8944C137.625 84.9363 132.011 95.9397 126.443 97.6228C120.876 99.3485 121.797 95.8549 121.797 95.8549Z" fill="#CFCDCD"/>
<path d="M110.995 127.946C112.859 126.023 117.43 120.003 114.417 111.802C111.403 103.601 106.465 103.282 103.462 107.635C100.459 111.989 99.7806 122.801 105.505 127.884C107.64 129.748 110.995 127.946 110.995 127.946Z" fill="#CFCDCD"/>
<path d="M133.817 39.5006C132.661 37.6755 131.395 30.063 133.631 25.4148C135.909 20.7665 141.165 15.8078 144.064 16.9872C146.963 18.1666 147.294 25.9958 146.036 30.4271C144.778 34.9009 142.165 40.9976 137.483 40.762C132.757 40.4413 133.817 39.5006 133.817 39.5006Z" fill="#E2E1E0"/>
<path d="M127.347 69.5309C129.467 67.6495 131.568 61.2145 128.73 54.2895C125.892 47.322 124.619 48.2636 122.418 51.1668C120.217 54.0699 118.509 62.7588 123.682 68.3547L127.347 69.5309Z" fill="#E2E1E0"/>
<path d="M122.857 94.9141C123.525 91.677 124.982 83.9679 129.179 80.2052C133.377 76.4426 135.767 78.0923 136.119 80.857C136.471 83.6218 133.309 90.7422 128.856 94.5059C124.404 98.2697 122.857 94.9141 122.857 94.9141Z" fill="#E2E1E0"/>
<path d="M109.8 127.1C112.43 125.004 115.135 120.609 113.358 112.956C111.581 105.303 107.326 105.576 105.461 107.457C103.597 109.379 99.8465 118.205 104.941 125.29L109.8 127.1Z" fill="#E2E1E0"/>
<path d="M120.731 54.8338C121.236 53.2996 131.33 65.5138 128.032 70.592C126.341 73.1951 117.412 64.9338 120.731 54.8338Z" fill="#C4C2C1"/>
<path d="M140.313 25.7699C138.056 25.3538 132.077 30.5709 131.918 33.0825C131.758 35.594 132.245 40.1457 135.655 41.3655C139.065 42.5854 141.908 40.7434 142.753 39.2504C143.598 37.7999 142.315 26.1445 140.313 25.7699Z" fill="#C4C2C1"/>
<path d="M133.197 84.4441C131.752 84.8757 122.883 90.871 122.467 93.1283C122.093 95.3854 125.814 99.7532 130.345 94.3294C132.759 91.4679 135.96 83.6239 133.197 84.4441Z" fill="#C4C2C1"/>
<path d="M106.459 111.836C104.884 111.757 101.904 121.643 104.941 125.333C107.978 129.023 110.995 127.946 111.799 127.007C112.604 126.024 109.694 111.993 106.459 111.836Z" fill="#C4C2C1"/>
<path d="M123.902 60.0551C121.529 62.4482 122.428 73.7222 127.147 72.5534C129.698 71.9468 130.269 66.1992 123.902 60.0551Z" fill="#573232"/>
<path d="M121.464 97.6011C123.775 100.741 130.148 98.1179 131.724 88.4081C126.331 91.1119 119.324 94.6736 121.464 97.6011Z" fill="#573232"/>
<path d="M106.102 118.093C102.472 125.173 104.193 129.805 109.387 130.123C114.58 130.399 112.254 123.728 106.102 118.093Z" fill="#573232"/>
<path d="M137.526 30.8885C131.76 36.1047 131.108 42.8316 136.048 43.6194C140.988 44.4498 142.404 37.2091 137.526 30.8885Z" fill="#573232"/>
<path d="M137.403 32.0381C137.954 31.3123 138.683 42.7998 137.195 43.1039C135.706 43.4506 133.618 42.6082 133.817 39.4581C133.974 36.3508 136.472 33.2761 137.403 32.0381Z" fill="#70554A"/>
<path d="M123.906 60.9489C123.264 60.1004 122.027 69.3832 126.422 72.1735C128.257 73.3574 124.891 62.264 123.906 60.9489Z" fill="#70554A"/>
<path d="M130.415 90.7543C131.904 90.5352 127.13 99.0242 122.827 97.7656C120.952 97.2628 129.352 90.929 130.415 90.7543Z" fill="#70554A"/>
<path d="M106.534 119.666C106.107 119.412 105.379 128.353 109.424 129.017C111.682 129.39 108.624 120.891 106.534 119.666Z" fill="#70554A"/>
<path d="M88.9817 152.737C86.5597 153.641 94.5071 161.183 99.0012 177.421L100.412 158.562C96.0919 143.344 92.1086 127.147 93.7574 124.544C91.6259 123.659 87.5413 113.76 85.7001 100.958C83.8588 88.1134 83.8948 76.4099 85.2891 74.0208C81.5794 72.2915 79.0353 54.2578 78.6686 48.0034C78.3019 41.749 78.6654 37.1087 78.4458 35.4924C78.2261 33.8336 73.5949 35.6404 73.5949 35.6404C72.7493 36.9633 74.3689 37.5523 75.2902 44.1023C76.2114 50.6523 77.3892 57.4991 75.6981 60.1873C77.4971 62.946 81.0361 84.8058 79.5299 101.112C79.202 104.092 83.1705 106.629 86.4818 124.957C89.489 141.797 91.7012 151.747 88.9817 152.737Z" fill="#452828"/>
<path d="M75.3168 40.2721C75.8287 40.5678 77.1928 41.1153 77.9969 40.048C77.3711 43.0297 77.9667 53.1133 78.9592 56.3861C77.6353 55.2851 77.1948 51.7122 76.9337 50.3514C76.7154 49.033 75.3168 40.2721 75.3168 40.2721Z" fill="#593232"/>
<path d="M80.9156 76.3375C80.1873 75.1915 80.9522 85.0616 80.9522 85.0616L83.5599 87.8595C83.5599 87.8595 83.482 79.4334 83.8144 77.5169C83.3416 76.4124 81.4298 77.1865 80.9156 76.3375Z" fill="#593232"/>
<path d="M77.457 63.4569C77.457 63.4569 79.1125 62.4286 79.147 60.5133C79.92 62.1698 79.5194 68.1296 78.8533 71.6647C78.4117 67.8363 77.457 63.4569 77.457 63.4569Z" fill="#593232"/>
<path d="M81.5442 104.38C82.6083 104.418 83.8231 99.8171 84.1545 97.6453C85.1125 102.833 86.3282 108.573 86.3282 108.573C86.3282 108.573 86.0714 118.363 85.341 116.706C84.5256 115.092 81.5442 104.38 81.5442 104.38Z" fill="#593232"/>
<path d="M99.3241 173.206L100.01 164.181C99.5294 161.289 99.1366 158.95 99.2618 158.354C97.7928 153.126 92.2149 132.168 92.62 127.272C92.62 127.272 89.6048 128.817 88.3188 126.609L89.1296 137.245C89.1296 137.245 91.7765 139.234 92.9886 144.124C94.2009 149.055 93.6176 152.037 91.6309 155.237C92.8298 156.977 96.8719 166.918 99.3241 173.206Z" fill="#593232"/>
<path d="M71.0597 9.56337C66.8101 11.0282 65.6701 23.3321 67.5641 28.431C69.458 33.53 73.6885 37.6403 77.6418 36.5598C81.5528 35.522 82.8357 26.8774 82.6044 22.4524C82.3734 18.1125 75.2668 8.09874 71.0597 9.56337Z" fill="#CFCDCD"/>
<path d="M75.4037 60.9548C72.5087 60.7116 66.8876 59.884 63.8293 51.13C61.1586 43.4808 66.462 39.5858 72.8321 46.496C75.6966 49.6332 80.2144 61.3601 75.4037 60.9548Z" fill="#CFCDCD"/>
<path d="M83.0778 74.3705C87.5464 74.3943 91.5191 67.7812 92.9819 61.434C94.4448 55.0868 90.7712 51.8253 85.5982 56.3581C79.3655 61.9167 79.1624 74.3444 83.0778 74.3705Z" fill="#CFCDCD"/>
<path d="M78.2982 101.67C76.0384 100.658 70.0154 95.3214 69.1702 86.6007C68.2824 77.8801 77.015 79.8436 81.434 88.3366C83.4508 92.286 83.9261 104.115 78.2982 101.67Z" fill="#CFCDCD"/>
<path d="M73.8449 34.3627C71.8413 33.5625 68.3383 30.3854 68.1843 24.1301C68.0302 17.8322 69.0237 11.189 72.1279 10.5802C75.232 9.97135 79.9876 17.5266 80.6826 20.8858C81.3777 24.2449 80.7763 33.0568 78.0196 35.324C75.2628 37.5911 73.8449 34.3627 73.8449 34.3627Z" fill="#E2E1E0"/>
<path d="M75.6548 59.9322C76.2384 57.0359 75.7015 50.7822 71.7269 46.7984C67.7523 42.8147 64.0999 44.6175 64.2862 48.4469C64.43 52.2764 68.2867 58.6013 73.4014 60.4524L75.6548 59.9322Z" fill="#E2E1E0"/>
<path d="M82.1354 72.9276C80.9825 71.9962 81.0794 64.6759 83.4056 61.2189C85.7743 57.7618 90.0184 54.9778 91.512 55.9503C93.0483 56.9652 91.3335 64.1221 88.6692 68.1337C86.0477 72.1877 84.0999 74.5365 82.1354 72.9276Z" fill="#E2E1E0"/>
<path d="M80.8017 99.8721C81.9407 97.4841 82.7583 89.4799 77.1621 84.439C71.5657 79.3556 69.7963 83.6613 70.1962 87.6601C70.596 91.6588 74.281 97.644 77.9956 100.522L80.8017 99.8721Z" fill="#E2E1E0"/>
<path d="M74.5768 87.046C73.0921 88.2013 72.8575 93.1389 74.4028 96.2817C75.9481 99.4245 77.575 101.758 79.8683 100.6C82.1615 99.441 82.4893 96.418 81.7955 93.3568C81.1019 90.3381 75.51 86.3186 74.5768 87.046Z" fill="#C4C2C1"/>
<path d="M89.3216 61.3644C87.1095 61.5864 82.1874 65.0543 81.5705 70.1638C80.9536 75.2733 84.7819 74.8316 87.7425 70.4358C89.3918 67.9605 91.6611 61.0992 89.3216 61.3644Z" fill="#C4C2C1"/>
<path d="M68.5055 49.8761C66.981 51.6699 69.8593 58.084 71.9948 59.905C74.1303 61.726 77.4862 60.265 76.6617 56.4808C75.8374 52.7392 69.6912 48.4667 68.5055 49.8761Z" fill="#C4C2C1"/>
<path d="M74.0732 17.7642C70.9288 18.9264 68.3664 26.938 70.3419 31.1855C72.3174 35.4329 75.4773 37.9731 77.6418 36.5596C79.8063 35.1461 80.8043 29.5669 80.9652 27.3532C81.0838 25.1823 75.6029 17.2045 74.0732 17.7642Z" fill="#C4C2C1"/>
<path d="M73.1657 24.6198C73.1657 24.6198 70.3353 39.7396 77.0564 39.0305C80.7998 38.6317 80.5618 32.6321 73.1657 24.6198Z" fill="#573232"/>
<path d="M68.864 54.1729C70.6835 61.8256 75.4959 62.614 77.4874 60.5629C79.4794 58.5969 75.8011 54.2289 68.864 54.1729Z" fill="#573232"/>
<path d="M90.6497 63.4016C91.1149 72.8474 85.7627 75.2531 82.2289 74.885C78.993 74.5155 83.7674 66.2819 90.6497 63.4016Z" fill="#573232"/>
<path d="M74.9769 91.0446C73.6889 98.4976 77.0734 103.846 81.536 102.422C84.5534 101.431 81.8003 94.4205 74.9769 91.0446Z" fill="#573232"/>
<path d="M73.8563 26.915C73.1355 27.5564 74.4628 39.5946 77.0564 39.0305C79.6499 38.4238 75.2979 25.6322 73.8563 26.915Z" fill="#70554A"/>
<path d="M70.1464 55.5718C68.1879 55.3673 76.769 61.8 77.4875 60.6054C78.2483 59.368 74.6594 56.021 70.1464 55.5718Z" fill="#70554A"/>
<path d="M89.6771 64.9378C89.4554 62.8109 82.2216 73.1827 83.0777 74.3708C83.9339 75.5588 90.0326 68.5112 89.6771 64.9378Z" fill="#70554A"/>
<path d="M76.0049 92.6149C74.4283 92.1534 79.247 104.603 81.536 102.422C83.8249 100.242 78.6892 93.3697 76.0049 92.6149Z" fill="#70554A"/>
<path d="M92.1789 123.571C95.9221 123.13 102.473 112.336 100.565 103.832C98.6141 95.3287 94.3204 96.4107 90.6349 100.469C86.9494 104.528 84.7477 117.347 88.9426 123.117C90.5266 125.366 92.1789 123.571 92.1789 123.571Z" fill="#CFCDCD"/>
<path d="M96.0736 98.3612C99.5205 98.3042 100.998 105.66 99.5729 110.773C98.1474 115.886 93.9229 123.352 91.1555 123.065C88.3881 122.779 87.0935 118.529 87.9207 112.822C88.7906 107.159 90.9245 98.4679 96.0736 98.3612Z" fill="#E2E1E0"/>
<path d="M95.2959 105.769C96.9141 106.018 98.5829 118.31 94.64 121.859C90.697 125.408 87.4502 122.442 87.7316 118.526C87.9704 114.567 92.7832 105.354 95.2959 105.769Z" fill="#C4C2C1"/>
<path d="M93.2698 109.736C93.2698 109.736 82.9354 121.568 89.8462 125.496C93.3445 127.524 101.437 118.851 93.2698 109.736Z" fill="#573232"/>
<path d="M82.6367 141.656C82.3681 148.637 87.5021 155.084 90.6866 153.326C93.8708 151.525 91.5078 146.215 82.6367 141.656Z" fill="#573232"/>
<path d="M93.532 111.352C94.7634 110.708 100.005 122.602 90.8667 125.279C89.6342 125.668 92.428 111.952 93.532 111.352Z" fill="#70554A"/>
<path d="M83.8778 143.268C81.9615 142.978 86.5586 153.343 90.7685 152.559C91.9169 152.384 85.6664 143.558 83.8778 143.268Z" fill="#70554A"/>
<path d="M114.692 74.9987C112.134 84.0742 109.065 103.238 103.939 108.877C103.939 108.877 103.248 116.626 97.2119 138.568C94.9906 146.706 92.1771 155.74 89.3614 164.221L95.8137 170.449C97.2616 160.528 101.079 137.105 105.819 130.957C104.994 127.002 109.008 110.005 112.035 101.098C115.062 92.1904 117.096 90.0966 117.096 90.0966C115.344 88.4016 117.957 72.2188 120.744 67.1001C120.862 64.7164 115.611 60.8657 115.027 63.7621C114.735 65.0401 117.249 65.9232 114.692 74.9987Z" fill="#452828"/>
<path d="M116.66 67.5002C116.66 67.5002 118.112 68.558 119.048 68.5541C118.591 71.2371 117.079 76.0099 117.079 76.0099C117.079 76.0099 114.288 80.1923 113.529 81.9403C114.281 78.6177 117.013 70.35 116.66 67.5002Z" fill="#593232"/>
<path d="M112.372 90.2016C112.719 91.7747 113.956 92.3653 115.063 92.5309C114.134 94.152 112.742 97.1794 112.742 97.1794C112.742 97.1794 111.158 95.0157 110.644 94.2092C111.151 93.3985 112.372 90.2016 112.372 90.2016Z" fill="#593232"/>
<path d="M104.932 112.32C105.871 112.912 107.611 111.798 108.713 110.644C107.956 112.733 107.031 115.588 107.031 115.588C107.031 115.588 104.695 116.747 103.766 118.326C104.351 115.812 104.932 112.32 104.932 112.32Z" fill="#593232"/>
<path d="M94.8312 169.56C96.5224 156.786 101.925 136.08 103.148 133.394C103.148 133.394 100.586 131.234 100.578 129.319C98.4495 139.371 94.0822 153.349 90.1733 165.026L94.8312 169.56Z" fill="#593232"/>
<path d="M120.695 65.4832C123.03 64.2392 129.268 59.9147 128.934 51.1918C128.599 42.4689 123.953 40.6585 119.753 43.8679C115.553 47.0774 111.552 57.0952 115.453 63.7178C116.91 66.18 120.695 65.4832 120.695 65.4832Z" fill="#CFCDCD"/>
<path d="M119.796 64.3378C122.941 63.133 126.885 59.8395 127.575 52.006C128.223 44.1727 124.091 43.1261 121.755 44.3701C119.42 45.6141 113.109 52.8328 115.74 61.1205L119.796 64.3378Z" fill="#E2E1E0"/>
<path d="M121.306 48.798C119.856 48.2508 113.934 56.7021 115.697 61.1206C117.418 65.5394 120.695 65.4831 121.756 64.7977C122.817 64.1549 124.332 49.9769 121.306 48.798Z" fill="#C4C2C1"/>
<path d="M119.032 54.6379C113.353 60.2368 113.586 65.1725 118.446 67.0671C123.348 68.9191 123.191 61.8978 119.032 54.6379Z" fill="#573232"/>
<path d="M118.996 56.2977C118.697 55.9585 115.242 64.1866 118.867 66.0439C120.914 67.0993 120.579 58.0785 118.996 56.2977Z" fill="#70554A"/>
<path d="M106.751 109.674C104.541 110.364 101.384 108.59 100.129 103.573C98.874 98.5569 100.759 91.3568 103.947 90.3645C107.177 89.4147 111.246 95.5259 112.195 98.7563C113.145 101.987 111.894 108.12 106.751 109.674Z" fill="#CFCDCD"/>
<path d="M114.282 89.0017C112.149 87.734 113.407 83.2176 114.967 79.8915C116.571 76.5653 121.445 71.8635 125.241 73.9329C129.038 76.0023 125.72 86.4428 120.751 88.9746C115.782 91.5063 116.074 90.1007 114.282 89.0017Z" fill="#CFCDCD"/>
<path d="M103.179 130.585C100.792 129.573 100.641 123.999 103.052 120.542C105.421 117.084 110.261 114.383 112.733 115.351C115.206 116.32 115.442 121.894 113.457 125.477C111.472 129.103 107.144 132.313 103.179 130.585Z" fill="#CFCDCD"/>
<path d="M104.545 91.0855C107.013 90.9474 109.843 95.9573 110.75 99.2305C111.658 102.504 110.529 107.402 107.128 108.14C103.769 108.92 101.032 105.697 100.882 100.463C100.775 95.2719 102.758 91.1781 104.545 91.0855Z" fill="#E2E1E0"/>
<path d="M124.818 74.4028C127.588 75.37 125.292 85.8914 120.366 88.423C115.439 90.912 113.259 88.4528 114.305 84.3629C115.31 80.2731 119.704 72.6369 124.818 74.4028Z" fill="#E2E1E0"/>
<path d="M112.736 116.032C114.4 117.004 115.272 122.065 112.521 125.609C109.727 129.153 106.714 131.123 104.199 130.24C101.684 129.357 101.795 125.271 102.89 122.542C103.942 119.814 109.494 114.131 112.736 116.032Z" fill="#E2E1E0"/>
<path d="M105.073 95.041C102.99 95.6881 99.5771 103.873 102.486 107.436C105.395 111.041 108.577 108.73 110.016 106.724C111.454 104.717 107.113 94.3941 105.073 95.041Z" fill="#C4C2C1"/>
<path d="M123.001 77.5598C122.014 75.4786 111.032 85.1002 114.325 89.0017C117.576 92.9033 127.51 87.1163 123.001 77.5598Z" fill="#C4C2C1"/>
<path d="M111.131 118.848C112.917 118.5 111.042 128.041 107.092 129.972C103.142 131.862 102.495 129.779 102.446 128.332C102.397 126.843 105.05 119.98 111.131 118.848Z" fill="#C4C2C1"/>
<path d="M104.279 98.6192C101.063 103.016 102.075 110.842 106.119 111.208C110.163 111.489 109.672 105.959 104.279 98.6192Z" fill="#573232"/>
<path d="M122.89 81.6457C116.348 84.2692 112.358 86.7543 113.604 89.6855C114.851 92.6168 121.953 91.6081 122.89 81.6457Z" fill="#573232"/>
<path d="M109.015 121.751C104.002 123.814 99.6794 128.173 102.757 131.395C105.749 134.574 110.659 128.127 109.015 121.751Z" fill="#573232"/>
<path d="M104.501 100.789C105.783 101.975 109.643 109.151 107.01 110.524C104.378 111.939 102.963 99.3908 104.501 100.789Z" fill="#70554A"/>
<path d="M121.664 83.4809C121.445 81.9498 113.518 89.5158 114.757 90.5745C115.953 91.5909 121.928 85.4375 121.664 83.4809Z" fill="#70554A"/>
<path d="M108.341 123.498C109.49 123.323 106.335 132.104 103.991 131.347C101.69 130.633 106.725 123.761 108.341 123.498Z" fill="#70554A"/>
<path d="M83.5747 142.035C83.5747 142.035 93.0466 157.912 103.731 189.019L104.222 174.122C101.512 167.239 99.1848 160.269 99.6039 158.735C97.1344 158.448 93.3597 151.399 90.0419 141.667C86.7241 131.936 84.4801 124.54 85.532 121.684C83.4473 121.821 78.6373 111.457 75.2834 103.257C71.9295 95.0578 66.9838 82.7795 67.6132 80.6489C64.7222 81.342 59.26 67.6614 56.9798 61.798C54.6996 55.9346 56.0183 55.8014 55.3308 54.2297L50.3172 56.1658C50.8352 57.9085 51.9812 57.1802 55.5078 65.9748C59.0345 74.7694 72.4652 101.014 70.6855 102.851C68.906 104.731 71.0307 103.999 72.2772 106.93C73.5237 109.861 84.504 130.243 84.1229 140.841C84.0879 142.629 83.5747 142.035 83.5747 142.035Z" fill="#452828"/>
<path d="M52.7106 58.624C53.8607 58.8746 54.834 57.5512 54.834 57.5512C55.6965 60.2712 58.7075 67.8764 59.6087 69.66C59.7421 71.0213 60.9147 76.634 60.9147 76.634C60.9147 76.634 55.2388 62.7415 52.7106 58.624Z" fill="#593232"/>
<path d="M64.6891 83.6402L67.6978 90.6921C67.6978 90.6921 69.9184 92.5127 70.8203 94.4666C69.2686 89.7918 66.9507 85.0776 66.9869 83.5454C66.5636 84.1004 64.6891 83.6402 64.6891 83.6402Z" fill="#593232"/>
<path d="M72.3562 105.483C73.5038 105.137 73.9622 102.837 73.9622 102.837C75.2103 106.152 78.6011 112.989 79.1159 113.966C78.6565 116.053 79.6534 120.347 80.0003 121.878C77.6825 117.206 76.8954 112.188 72.3562 105.483Z" fill="#593232"/>
<path d="M81.8427 124.849C82.9551 126.249 84.1011 125.521 84.6928 124.539C84.75 128.029 86.4784 134.235 87.5521 136.571C85.9242 134.024 83.7013 131.651 83.7013 131.651L81.8427 124.849Z" fill="#593232"/>
<path d="M85.2386 143.049C87.1532 142.914 87.6125 140.827 87.6487 139.294C88.724 142.013 92.5927 151.19 92.5927 151.19C92.5927 151.19 92.6129 155.999 93.1334 158.337C93.6114 160.676 89.2631 148.778 85.2386 143.049Z" fill="#593232"/>
<path d="M104.142 175.399C101.992 170.173 99.7995 164.82 99.0674 162.781C97.3641 162.532 95.2784 162.456 94.5477 160.714C96.1398 164.878 100.399 175.883 103.801 185.316L104.142 175.399Z" fill="#593232"/>
<path d="M51.0852 56.6734C49.7225 56.4663 43.4892 51.726 42.4834 45.304C41.4778 38.9246 43.8817 33.7225 46.2197 33.0743C48.5576 32.4261 53.1675 35.6837 55.2749 40.952C57.3398 46.2205 57.7024 51.4961 54.7785 54.4874C51.8121 57.4789 51.0852 56.6734 51.0852 56.6734Z" fill="#CFCDCD"/>
<path d="M72.2104 101.185C71.9876 98.8026 68.7079 88.0067 58.1134 88.5619C54.4542 88.7475 57.4326 98.736 61.2318 101.486C65.0733 104.194 72.6999 106.29 72.2104 101.185Z" fill="#CFCDCD"/>
<path d="M63.4428 80.7515C61.5117 76.9294 59.011 69.237 61.1616 64.5041C63.3122 59.7712 66.5475 60.0129 68.4746 62.8562C70.4018 65.742 70.9994 76.2938 67.6104 80.0105C64.2639 83.7271 63.4428 80.7515 63.4428 80.7515Z" fill="#CFCDCD"/>
<path d="M50.2279 55.1875C48.5649 54.4284 44.0337 49.6384 43.4195 45.2576C42.8479 40.8765 44.2267 34.785 46.8629 34.2207C49.4991 33.6564 53.3946 39.0874 54.6445 42.8272C55.852 46.6098 56.897 52.223 53.4161 54.3229C49.9348 56.3377 50.2279 55.1875 50.2279 55.1875Z" fill="#E2E1E0"/>
<path d="M71.2338 101.7C71.5215 99.2727 69.2011 93.9627 63.4441 91.1781C57.6872 88.3935 57.3948 89.714 57.6632 92.8196C57.9316 95.9252 61.7466 102.463 68.2178 103.032L71.2338 101.7Z" fill="#E2E1E0"/>
<path d="M63.8211 79.6008C62.9162 76.9234 60.6766 70.5917 62.1466 65.9468C63.6166 61.3018 66.0857 61.4617 67.5406 63.3707C68.9956 65.2797 69.7469 71.9155 68.0645 76.6465C66.4246 81.3772 63.8211 79.6008 63.8211 79.6008Z" fill="#E2E1E0"/>
<path d="M58.6559 96.1349C58.0973 94.8605 71.4685 96.8046 72.2562 101.951C72.6928 104.588 62.3084 104.503 58.6559 96.1349Z" fill="#C4C2C1"/>
<path d="M48.3861 42.2575C46.6019 43.0311 44.7997 49.635 45.8714 51.5031C46.9432 53.3711 49.4668 56.3821 52.4424 55.561C55.4607 54.7823 56.5984 52.0964 56.5073 50.6498C56.4162 49.2458 49.9578 41.57 48.3861 42.2575Z" fill="#C4C2C1"/>
<path d="M66.9189 67.3311C66.0292 68.2711 62.0638 76.629 62.7524 78.4561C63.441 80.2832 68.0865 81.8809 69.1252 75.8759C69.6651 72.6818 68.6133 65.4515 66.9189 67.3311Z" fill="#C4C2C1"/>
<path d="M63.6414 97.6034C63.4833 100.498 70.4483 107.193 72.8168 103.693C74.1284 101.858 71.2177 97.8695 63.6414 97.6034Z" fill="#573232"/>
<path d="M63.9597 82.1962C67.0293 83.5025 70.5843 78.7637 67.5297 70.9034C64.7392 75.256 61.1032 80.974 63.9597 82.1962Z" fill="#573232"/>
<path d="M48.8328 47.2775C47.1576 53.7533 49.9029 58.8912 53.8105 57.0448C57.6756 55.2412 55.2679 49.4209 48.8328 47.2775Z" fill="#573232"/>
<path d="M49.2617 48.1268C49.3011 47.3606 55.2493 55.1662 54.3596 56.1062C53.47 57.0887 51.5991 57.4796 50.2275 55.1447C48.856 52.8524 49.2247 49.4462 49.2617 48.1268Z" fill="#70554A"/>
<path d="M64.1544 98.1972C63.26 98.0307 67.7564 104.651 72.1367 103.909C74.008 103.603 65.5601 98.4892 64.1544 98.1972Z" fill="#70554A"/>
<path d="M67.5819 73.2015C68.5998 72.3886 68.72 80.7294 65.0216 81.7237C63.4062 82.1561 66.8609 73.8003 67.5819 73.2015Z" fill="#70554A"/>
<path d="M83.1145 123.695C81.9633 123.189 79.0118 119.626 79.7137 114.474C80.4155 109.322 82.5325 106.717 84.5777 107.304C86.6655 107.891 88.182 114.311 86.7499 117.849C85.3179 121.43 84.6066 124.327 83.1145 123.695Z" fill="#CFCDCD"/>
<path d="M83.0592 140.973C81.3959 140.129 77.6345 136.23 77.1049 131.721C76.5753 127.212 80.9722 130.428 83.6222 133.14C86.3147 135.853 87.5211 139.38 86.1215 140.535C84.7647 141.732 84.2108 141.564 83.0592 140.973Z" fill="#CFCDCD"/>
<path d="M83.0675 122.631C81.9578 121.869 80.0285 118.473 80.6502 114.512C81.3145 110.552 83.0894 107.565 84.5807 107.985C86.0719 108.404 87.3692 113.293 86.196 117.681C85.0656 122.112 83.0675 122.631 83.0675 122.631Z" fill="#E2E1E0"/>
<path d="M85.6501 139.686C86.5396 138.703 85.9694 134.662 80.1223 130.687C77.9459 129.249 77.0545 129.806 77.4055 132.315C77.7565 134.825 80.2405 138.559 82.7138 139.74C85.1871 140.922 85.6501 139.686 85.6501 139.686Z" fill="#E2E1E0"/>
<path d="M78.0482 133.334C77.7881 132.186 84.2298 135.904 85.4713 137.644C86.713 139.426 85.1049 141.603 83.655 140.886C82.2052 140.211 78.7863 136.821 78.0482 133.334Z" fill="#C4C2C1"/>
<path d="M84.3855 112.199C83.3691 113.395 80.1536 117.877 81.1004 120.384C82.0472 122.891 82.9024 123.866 84.131 122.541C85.3595 121.174 87.0478 117.848 86.7831 115.636C86.5183 113.382 86.3338 109.978 84.3855 112.199Z" fill="#C4C2C1"/>
<path d="M86.0104 114.064C88.5425 119.118 85.4992 124.068 83.4563 124.034C79.3705 123.966 81.5167 118.211 86.0104 114.064Z" fill="#573232"/>
<path d="M79.2491 135.584C80.5926 141.367 83.5811 143.61 86.2103 141.386C88.8394 139.119 83.6802 136.8 79.2491 135.584Z" fill="#573232"/>
<path d="M85.8072 116.278C85.4185 114.918 81.107 121.916 82.5587 123.059C84.0105 124.202 86.2828 118.064 85.8072 116.278Z" fill="#70554A"/>
<path d="M80.3166 136.388C79.213 137.074 84.7704 143.009 86.1679 141.386C87.6079 139.72 81.3353 135.746 80.3166 136.388Z" fill="#70554A"/>
<path d="M97.7787 159.892C99.7778 159.628 102.823 155.019 102.338 151.149C101.854 147.278 100.435 143.794 97.4205 145.552C94.4065 147.352 92.8541 152.636 93.4613 155.357C94.0687 158.12 96.4601 160.068 97.7787 159.892Z" fill="#CFCDCD"/>
<path d="M100.42 150.348C100.977 151.367 101.76 155.407 100.068 157.882C98.3765 160.358 95.1785 158.882 94.3621 157.013C93.5032 155.186 99.6906 148.989 100.42 150.348Z" fill="#C4C2C1"/>
<path d="M98.427 152.144C100.996 155.751 100.251 160.733 97.7397 160.743C95.3139 160.754 94.8309 157.223 98.427 152.144Z" fill="#573232"/>
<path d="M98.3045 153.379C99.3228 152.651 100.203 159.541 97.4827 160.361C96.7177 160.62 97.3285 154.064 98.3045 153.379Z" fill="#70554A"/>
<path d="M78.6163 155.263C78.6163 155.263 89.3191 170.368 102.383 200.529L95.9592 188.702L101.725 185.637C98.5053 179.011 95.6254 172.214 95.9592 170.638C93.4906 170.563 89.1639 163.815 85.1239 154.384C81.0839 144.953 78.2448 137.73 79.0837 134.833C76.9997 135.14 71.3828 125.162 67.3918 117.263C63.4007 109.364 57.5204 97.4728 57.9796 95.343C55.1746 96.2484 48.6504 83.0404 45.903 77.3918C43.1556 71.7432 44.4738 71.4823 43.659 69.9962L38.8171 72.3146C39.4626 74.0142 40.5657 73.201 44.772 81.6949C48.9783 90.1887 64.4044 115.275 62.7956 117.282C61.1869 119.289 63.226 118.43 64.6847 121.232C66.1435 124.035 78.6523 143.559 79.1647 154.111C79.2144 155.813 78.6163 155.263 78.6163 155.263Z" fill="#452828"/>
<path d="M46.7055 77.8428C47.8551 77.9657 48.7431 76.6001 48.7431 76.6001C49.8181 79.2342 53.3812 86.5817 54.4097 88.2797C54.6706 89.5979 56.2684 95.1236 56.2684 95.1236C56.2684 95.1236 49.5307 81.7463 46.7055 77.8428Z" fill="#593232"/>
<path d="M60.5525 101.872L64.1133 108.667C64.1133 108.667 66.4607 110.274 67.5327 112.185C65.5985 107.639 62.941 103.139 62.8495 101.607C62.4688 102.162 60.5525 101.872 60.5525 101.872Z" fill="#593232"/>
<path d="M69.919 123.027C71.0237 122.596 71.3118 120.255 71.3118 120.255C72.7723 123.483 76.715 130.02 77.3147 130.954C77.0258 133.083 78.3625 137.248 78.7945 138.778C76.1798 134.321 74.9673 129.347 69.919 123.027Z" fill="#593232"/>
<path d="M80.8916 141.621C82.0887 142.935 83.1916 142.079 83.7408 141.098C84.0957 144.544 86.2916 150.62 87.5353 152.871C85.6951 150.453 83.3026 148.25 83.3026 148.25L80.8916 141.621Z" fill="#593232"/>
<path d="M85.6907 159.517C87.6047 159.254 87.8511 157.125 87.8019 155.551C89.0472 158.184 93.6806 167.059 93.6806 167.059C93.6806 167.059 94.0839 171.867 94.7742 174.119C95.4222 176.415 90.1393 164.904 85.6907 159.517Z" fill="#593232"/>
<path d="M44.953 76.0203C43.5908 75.9409 36.9765 71.6704 35.4605 65.3782C33.9446 59.0861 35.9648 53.7153 38.2595 52.8971C40.5542 52.0789 45.4178 54.9524 47.9073 60.0062C50.3971 65.1027 51.1851 70.334 48.4748 73.5372C45.7222 76.7831 44.953 76.0203 44.953 76.0203Z" fill="#CFCDCD"/>
<path d="M69.4328 118.773C68.9972 116.392 64.9101 105.897 54.4043 107.303C50.789 107.786 54.5323 117.516 58.5429 119.925C62.5534 122.334 70.3477 123.834 69.4328 118.773Z" fill="#CFCDCD"/>
<path d="M59.1362 99.0696C56.9079 95.419 53.8123 87.9418 55.5792 83.0403C57.346 78.1388 60.5804 78.1252 62.7622 80.8397C64.9015 83.5544 66.35 94.0601 63.2598 97.9883C60.1697 101.959 59.1362 99.0696 59.1362 99.0696Z" fill="#CFCDCD"/>
<path d="M43.9684 74.6199C42.2209 73.9888 37.3508 69.5833 36.3964 65.2464C35.4844 60.9094 36.3948 54.7347 38.9875 53.9578C41.5803 53.1809 45.8999 58.2697 47.405 61.9658C48.9098 65.6195 50.4226 71.1456 47.0704 73.5004C43.7606 75.8124 43.9684 74.6199 43.9684 74.6199Z" fill="#E2E1E0"/>
<path d="M68.5414 119.33C68.6163 116.904 65.9136 111.766 59.9458 109.45C53.978 107.134 53.8135 108.497 54.2945 111.559C54.8181 114.621 59.1426 120.859 65.6116 120.917L68.5414 119.33Z" fill="#E2E1E0"/>
<path d="M59.4291 97.8767C58.3543 95.2852 55.5622 89.126 56.6914 84.3974C57.7781 79.6689 60.2887 79.6158 61.8709 81.3966C63.453 83.1774 64.7146 89.726 63.4583 94.5828C62.117 99.4826 59.4291 97.8767 59.4291 97.8767Z" fill="#E2E1E0"/>
<path d="M55.5425 114.788C54.8989 113.557 68.3935 114.479 69.5638 119.538C70.1705 122.132 59.8321 122.856 55.5425 114.788Z" fill="#C4C2C1"/>
<path d="M41.106 61.8648C39.3651 62.8084 38.0741 69.5379 39.3156 71.2775C40.5572 73.0597 43.2501 75.8572 46.1822 74.8235C49.1144 73.7898 50.039 71.0197 49.8629 69.616C49.6442 68.2126 42.6348 61.0923 41.106 61.8648Z" fill="#C4C2C1"/>
<path d="M61.5471 85.3983C60.7428 86.4231 57.4169 95.0337 58.2755 96.8175C59.0914 98.559 63.8632 99.8156 64.4336 93.7701C64.6754 90.5347 63.0709 83.4343 61.5471 85.3983Z" fill="#C4C2C1"/>
<path d="M60.6539 115.873C60.7086 118.767 68.1817 124.864 70.2944 121.238C71.3926 119.275 68.185 115.501 60.6539 115.873Z" fill="#573232"/>
<path d="M59.738 100.471C62.8917 101.522 66.1051 96.5294 62.4558 88.9269C59.964 93.491 56.7973 99.4624 59.738 100.471Z" fill="#573232"/>
<path d="M41.9356 66.8405C40.7717 73.4418 43.9414 78.3226 47.6776 76.2216C51.4137 74.078 48.5388 68.4725 41.9356 66.8405Z" fill="#573232"/>
<path d="M42.4497 67.6895C42.4465 66.9235 48.9884 74.216 48.1417 75.2834C47.2949 76.3084 45.4672 76.8693 43.9257 74.6202C42.4268 72.371 42.4976 68.9661 42.4497 67.6895Z" fill="#70554A"/>
<path d="M61.2094 116.424C60.3151 116.3 65.3207 122.578 69.6145 121.496C71.4425 121.02 62.6144 116.589 61.2094 116.424Z" fill="#70554A"/>
<path d="M62.6783 91.2239C63.6108 90.3263 64.4118 98.6642 60.7571 99.9138C59.1848 100.474 62 91.8652 62.6783 91.2239Z" fill="#70554A"/>
<path d="M82.0778 140.339C80.8845 139.918 77.6788 136.612 77.9549 131.419C78.2735 126.226 80.1772 123.494 82.2642 123.911C84.3513 124.328 86.4205 130.618 85.2442 134.283C84.1106 137.947 83.6122 140.886 82.0778 140.339Z" fill="#CFCDCD"/>
<path d="M83.3846 157.612C81.6367 156.896 77.6213 153.338 76.7087 148.831C75.8388 144.366 80.4471 147.24 83.3089 149.739C86.1708 152.238 87.6746 155.636 86.3607 156.919C85.1319 158.201 84.5356 158.075 83.3846 157.612Z" fill="#CFCDCD"/>
<path d="M81.9457 139.276C80.7513 138.6 78.5673 135.375 78.9335 131.373C79.2572 127.371 80.8187 124.258 82.3522 124.592C83.8855 124.883 85.5228 129.685 84.733 134.157C83.9006 138.629 81.9457 139.276 81.9457 139.276Z" fill="#E2E1E0"/>
<path d="M85.8468 156.112C86.6509 155.045 85.7829 151.048 79.6401 147.584C77.3792 146.317 76.4882 146.959 77.0518 149.425C77.6154 151.891 80.3541 155.454 82.9116 156.422C85.4691 157.391 85.8468 156.112 85.8468 156.112Z" fill="#E2E1E0"/>
<path d="M77.7792 150.358C77.4341 149.253 84.1715 152.417 85.5403 154.071C86.9091 155.725 85.5145 158.071 83.9798 157.439C82.4454 156.893 78.7725 153.801 77.7792 150.358Z" fill="#C4C2C1"/>
<path d="M82.4125 128.805C81.4815 130.043 78.65 134.778 79.7667 137.2C80.8833 139.621 81.8235 140.553 82.9665 139.101C84.0669 137.65 85.4993 134.196 85.0645 131.985C84.6723 129.817 84.2325 126.414 82.4125 128.805Z" fill="#C4C2C1"/>
<path d="M84.2499 130.542C87.2067 135.381 84.5049 140.584 82.4625 140.678C78.378 140.908 80.0554 134.985 84.2499 130.542Z" fill="#573232"/>
<path d="M79.1501 152.523C80.9613 158.175 84.0765 160.205 86.5346 157.769C88.9927 155.333 83.6647 153.355 79.1501 152.523Z" fill="#573232"/>
<path d="M84.1741 132.755C83.7004 131.438 79.9434 138.731 81.4798 139.746C83.0163 140.803 84.8198 134.497 84.1741 132.755Z" fill="#70554A"/>
<path d="M80.302 153.199C79.2838 153.969 85.2224 159.477 86.5344 157.726C87.8039 156.019 81.2353 152.514 80.302 153.199Z" fill="#70554A"/>
<path d="M99.5033 175.333C101.502 174.899 104.163 170.079 103.38 166.252C102.598 162.425 100.882 159.028 98.0391 161.083C95.1962 163.095 94.0273 168.505 94.8471 171.182C95.7093 173.817 98.1852 175.594 99.5033 175.333Z" fill="#CFCDCD"/>
<path d="M101.42 165.58C102.02 166.556 103.143 170.509 101.664 173.111C100.143 175.714 96.8612 174.493 95.8749 172.71C94.8886 170.927 100.564 164.307 101.42 165.58Z" fill="#C4C2C1"/>
<path d="M99.5556 167.545C102.421 170.938 102.017 175.961 99.5494 176.184C97.1243 176.365 96.3862 172.878 99.5556 167.545Z" fill="#573232"/>
<path d="M99.5184 168.78C100.494 167.967 101.927 174.77 99.2499 175.803C98.5277 176.104 98.6279 169.549 99.5184 168.78Z" fill="#70554A"/>
<path d="M102.947 236.335L109.488 140.533H53.834L60.3185 236.335C60.3185 236.335 63.307 241.523 83.0425 241.523C102.778 241.523 102.947 236.335 102.947 236.335Z" fill="url(#paint0_linear)"/>
<path d="M60.3185 236.335C60.3185 236.335 60.4313 236.504 60.6568 236.673C60.7696 236.786 60.9387 236.899 61.1079 237.068C61.3335 237.181 61.5026 237.35 61.7846 237.519C62.0665 237.688 62.3484 237.857 62.6867 237.97C62.8559 238.027 63.0251 238.139 63.1942 238.196C63.3634 238.252 63.5889 238.365 63.7581 238.421C63.9837 238.478 64.1528 238.591 64.3784 238.647C64.6039 238.703 64.8295 238.76 65.055 238.872C65.5061 239.042 66.0136 239.154 66.5211 239.267C66.7466 239.324 67.0286 239.38 67.3105 239.436C67.5924 239.493 67.8744 239.549 68.1563 239.606C68.7202 239.718 69.284 239.831 69.9043 239.944C71.0884 240.169 72.3289 240.282 73.6822 240.395C74.9791 240.508 76.3324 240.62 77.7421 240.677C78.4188 240.733 79.1518 240.733 79.8284 240.79C80.5051 240.79 81.2381 240.79 81.9147 240.79H82.9861H84.0575C84.7905 240.79 85.4671 240.79 86.1438 240.79C87.5535 240.733 88.8504 240.733 90.2037 240.62C90.8803 240.564 91.5006 240.508 92.1208 240.451C92.7411 240.395 93.3613 240.339 93.9816 240.226C94.6018 240.169 95.1657 240.057 95.7296 239.944C96.2935 239.887 96.8009 239.775 97.3084 239.606C97.5904 239.549 97.8159 239.493 98.0415 239.436C98.267 239.38 98.4926 239.267 98.7181 239.211C98.9437 239.154 99.1692 239.098 99.3947 238.985C99.6203 238.929 99.7895 238.816 100.015 238.76C100.804 238.478 101.425 238.083 101.932 237.745C102.383 237.35 102.722 237.012 102.891 236.73C103.06 236.448 103.06 236.279 103.06 236.279C103.06 236.279 103.06 236.448 102.947 236.786C102.834 237.068 102.552 237.519 102.101 237.97C101.65 238.421 101.03 238.872 100.241 239.267C100.071 239.38 99.8458 239.493 99.6203 239.606C99.3947 239.718 99.1692 239.775 98.9437 239.887C98.7181 240 98.4926 240.057 98.2106 240.169C97.9851 240.226 97.7031 240.339 97.4776 240.395C96.9701 240.564 96.4062 240.733 95.8424 240.846C95.2785 240.959 94.7146 241.128 94.0944 241.241C93.4741 241.353 92.8538 241.466 92.2336 241.579C91.6133 241.635 90.9367 241.748 90.26 241.805C89.5834 241.917 88.9068 241.917 88.2301 241.974C87.5535 242.03 86.8204 242.087 86.1438 242.087C85.4671 242.087 84.7341 242.143 84.0575 242.143H82.9861H81.9147C81.1817 242.143 80.5051 242.087 79.772 242.087C79.039 242.087 78.3624 242.03 77.6293 241.974C76.2197 241.917 74.8664 241.692 73.5131 241.579C72.1598 241.41 70.9193 241.184 69.6788 240.902C69.0585 240.79 68.4946 240.62 67.9308 240.451C67.6488 240.395 67.3669 240.282 67.0849 240.226C66.803 240.113 66.5775 240.057 66.2955 239.944C65.788 239.775 65.2806 239.605 64.8295 239.38C64.6039 239.267 64.3784 239.211 64.1528 239.098C63.9273 238.985 63.7581 238.872 63.5326 238.816C63.1378 238.647 62.7995 238.421 62.4612 238.196C62.1229 238.027 61.8409 237.801 61.6154 237.632C61.1079 237.237 60.7696 236.899 60.544 236.617C60.3749 236.504 60.3185 236.335 60.3185 236.335Z" fill="#E69725"/>
<path d="M50.8456 140.421C50.8456 143.917 64.6604 146.736 81.6329 146.736C98.6618 146.736 112.42 143.917 112.42 140.421V130.44C112.42 133.936 98.6055 135.628 81.6329 135.628C64.604 135.628 50.8456 133.936 50.8456 130.44V140.421V140.421Z" fill="url(#paint1_linear)"/>
</g>
<defs>
<filter id="filter0_d" x="0.401459" y="4.10744" width="151.863" height="246.035" filterUnits="userSpaceOnUse" color-interpolation-filters="sRGB">
<feFlood flood-opacity="0" result="BackgroundImageFix"/>
<feColorMatrix in="SourceAlpha" type="matrix" values="0 0 0 0 0 0 0 0 0 0 0 0 0 0 0 0 0 0 127 0"/>
<feOffset dy="4"/>
<feGaussianBlur stdDeviation="2"/>
<feColorMatrix type="matrix" values="0 0 0 0 0 0 0 0 0 0 0 0 0 0 0 0 0 0 0.25 0"/>
<feBlend mode="normal" in2="BackgroundImageFix" result="effect1_dropShadow"/>
<feBlend mode="normal" in="SourceGraphic" in2="effect1_dropShadow" result="shape"/>
</filter>
<linearGradient id="paint0_linear" x1="81.661" y1="140.533" x2="81.661" y2="241.523" gradientUnits="userSpaceOnUse">
<stop stop-color="#E5E93E"/>
<stop offset="1" stop-color="#FFAA2E"/>
</linearGradient>
<linearGradient id="paint1_linear" x1="81.6329" y1="130.44" x2="81.6329" y2="146.736" gradientUnits="userSpaceOnUse">
<stop stop-color="#FFF85B"/>
<stop offset="1" stop-color="#E3AE0F"/>
</linearGradient>
</defs>
</svg>
