<svg xmlns="http://www.w3.org/2000/svg" viewBox="0 0 36 42" width="36" height="42">
	<style>
		tspan { white-space:pre }
		.shp0 { fill: #fab29a } 
		.shp1 { opacity: 0.502;fill: #cc8a79 } 
	</style>
	<path id="Layer" class="shp0" d="M22.51 25.9L18.87 34.15L16.3 40L12.04 40L12.04 31.81C12.04 31.81 10.88 31.15 8.78 28.75C6.68 26.33 6.8 21.6 6.95 19.84L5.02 9.75C4.88 8.97 5.41 8.22 6.24 8.08C7.01 7.93 7.78 8.48 7.92 9.23L9.91 18C9.94 18.14 10.09 18.23 10.23 18.23C10.41 18.2 10.5 18.06 10.5 17.91L9.17 5.74C9.05 4.85 9.7 4.04 10.59 3.95C11.48 3.84 12.25 4.5 12.39 5.34L14.05 16.82C14.08 16.93 14.17 17.02 14.29 17.05C14.46 17.08 14.64 16.93 14.64 16.76L14.2 2.97C14.08 1.99 14.79 1.13 15.77 1.01C16.71 0.9 17.57 1.53 17.78 2.43L18.58 15.84C18.67 16.33 19.11 16.15 19.26 15.69L20.68 4.76C20.92 4.07 21.57 3.64 22.28 3.64C22.43 3.64 22.54 3.67 22.69 3.7C23.55 3.9 24.08 4.73 23.93 5.6L23.19 16.04L23.14 16.93L23.05 18.23C23.19 18.86 23.22 19.7 23.43 20.82C23.55 21.4 23.7 22.06 23.93 22.78C24.38 24.11 23.55 25.15 22.51 25.9Z" />
	<path id="Layer" class="shp1" d="M22.51 25.9L18.87 34.15C16.83 34.06 15.17 33.02 14.64 30.22C12.9 20.97 21.77 21.43 21.77 21.43C22.13 21.26 22.84 21 23.46 20.8C23.58 21.37 23.73 22.04 23.96 22.76C24.38 24.11 23.55 25.15 22.51 25.9Z" />
	<path id="Layer" class="shp0" d="M32.93 21.95C32.4 20.97 31.18 19.73 29.23 19.73C26.78 19.73 25.65 21.05 25.65 21.05C25.65 21.05 23.93 21 22.19 21.98C22.19 21.98 14.52 22.12 14.52 29.47L14.52 39.97L20.98 39.97L20.98 31.49L22.9 28.7C23.76 27.74 25.33 26.13 26.78 25.24C26.78 25.24 30.39 23.56 32.46 22.99C32.93 22.87 33.17 22.38 32.93 21.95Z" />
	<path id="Layer" class="shp1" d="M23.19 16.01L23.14 16.9C12.07 17.25 8.28 19.67 7.84 19.96C12.16 16.56 21.6 16.07 23.19 16.01Z" />
</svg>