<svg width="36" height="36" viewBox="0 0 36 36" fill="none" xmlns="http://www.w3.org/2000/svg">
<path d="M18.0001 32.1666H5.25C4.46799 32.1666 3.83336 31.5319 3.83336 30.75V5.24994C3.83336 4.46794 4.46806 3.83331 5.25 3.83331H18.0001C18.7835 3.83331 19.4167 3.20008 19.4167 2.41667C19.4167 1.63326 18.7835 0.999902 18.0001 0.999902H5.25C2.90684 0.999902 1.00002 2.90678 1.00002 5.24994V30.7499C1.00002 33.0931 2.90684 34.9999 5.25 34.9999H18.0001C18.7835 34.9999 19.4167 34.3667 19.4167 33.5833C19.4167 32.7999 18.7835 32.1666 18.0001 32.1666Z" fill="white"/>
<path fill-rule="evenodd" clip-rule="evenodd" d="M5.25 31.5666H18.0001C19.1148 31.5666 20.0167 32.4685 20.0167 33.5833C20.0167 34.698 19.1148 35.5999 18.0001 35.5999H5.25C2.57547 35.5999 0.400024 33.4245 0.400024 30.7499V5.24994C0.400024 2.57543 2.57546 0.399902 5.25 0.399902H18.0001C19.1149 0.399902 20.0167 1.30197 20.0167 2.41667C20.0167 3.53145 19.1148 4.43331 18.0001 4.43331H5.25C4.79941 4.43331 4.43336 4.79932 4.43336 5.24994V30.75C4.43336 31.2006 4.79938 31.5666 5.25 31.5666ZM5.25 32.1666H18.0001C18.7835 32.1666 19.4167 32.7999 19.4167 33.5833C19.4167 34.3667 18.7835 34.9999 18.0001 34.9999H5.25C2.90684 34.9999 1.00002 33.0931 1.00002 30.7499V5.24994C1.00002 2.90678 2.90684 0.999902 5.25 0.999902H18.0001C18.7835 0.999902 19.4167 1.63326 19.4167 2.41667C19.4167 3.20008 18.7835 3.83331 18.0001 3.83331H5.25C4.46806 3.83331 3.83336 4.46794 3.83336 5.24994V30.75C3.83336 31.5319 4.46799 32.1666 5.25 32.1666Z" fill="white"/>
<path d="M34.6911 16.9912L26.0778 8.49118C25.5224 7.9415 24.6243 7.94863 24.0746 8.50537C23.5249 9.06211 23.5306 9.95885 24.0888 10.5085L30.2442 16.5832H13.7499C12.9665 16.5832 12.3333 17.2164 12.3333 17.9998C12.3333 18.7832 12.9665 19.4165 13.7499 19.4165H30.2442L24.0888 25.4911C23.5307 26.0408 23.5264 26.9376 24.0746 27.4943C24.3523 27.7748 24.7178 27.9165 25.0833 27.9165C25.4432 27.9165 25.8029 27.7805 26.0778 27.5084L34.6911 19.0084C34.9603 18.7421 35.1133 18.3794 35.1133 17.9997C35.1133 17.6202 34.9617 17.259 34.6911 16.9912Z" fill="white"/>
<path fill-rule="evenodd" clip-rule="evenodd" d="M35.1132 16.5647C35.4968 16.9444 35.7133 17.4589 35.7133 17.9997C35.7133 18.5411 35.4951 19.057 35.1131 19.4349L26.4999 27.9349C26.4998 27.935 26.5 27.9348 26.4999 27.9349C26.1078 28.3228 25.594 28.5165 25.0833 28.5165C24.5628 28.5165 24.0421 28.3144 23.6482 27.9164L23.6471 27.9153C22.8674 27.1235 22.8725 25.8469 23.6678 25.0637L28.782 20.0165H13.7499C12.6351 20.0165 11.7333 19.1145 11.7333 17.9998C11.7333 16.885 12.6352 15.9832 13.7499 15.9832H28.782L23.6678 10.936C22.8736 10.1535 22.8653 8.87628 23.6477 8.08382C24.429 7.29248 25.7071 7.28049 26.4995 8.06439L26.0778 8.49118C25.5224 7.9415 24.6243 7.94863 24.0746 8.50537C23.5249 9.06211 23.5306 9.95885 24.0888 10.5085L30.2442 16.5832H13.7499C12.9665 16.5832 12.3333 17.2164 12.3333 17.9998C12.3333 18.7832 12.9665 19.4165 13.7499 19.4165H30.2442L24.0888 25.4911C23.5307 26.0408 23.5264 26.9376 24.0746 27.4943C24.3523 27.7748 24.7178 27.9165 25.0833 27.9165C25.4432 27.9165 25.8029 27.7805 26.0778 27.5084L34.6911 19.0084C34.9603 18.7421 35.1133 18.3794 35.1133 17.9997C35.1133 17.6202 34.9617 17.259 34.6911 16.9912L26.0778 8.49118L26.4995 8.06439" fill="white"/>
</svg>
