<svg xmlns="http://www.w3.org/2000/svg" viewBox="0 0 49.17 59.6"><defs><style>.cls-1{fill:#380000;}.cls-2{fill:#fdd55d;}.cls-3{fill:#fff;}.cls-4,.cls-5{fill:none;stroke-miterlimit:10;}.cls-4{stroke:#fdd55d;stroke-width:4px;}.cls-5{stroke:#380000;}</style></defs><title>alus</title><g id="Layer_2" data-name="Layer 2"><g id="popup"><ellipse class="cls-1" cx="23.23" cy="54.96" rx="23.23" ry="4.65"/><path class="cls-2" d="M10.18,13.26H38a0,0,0,0,1,0,0V49a5.38,5.38,0,0,1-5.38,5.38H15.56A5.38,5.38,0,0,1,10.18,49V13.26A0,0,0,0,1,10.18,13.26Z"/><circle class="cls-3" cx="11.5" cy="13.26" r="6.64"/><circle class="cls-3" cx="19.3" cy="7.12" r="6.64"/><circle class="cls-3" cx="20.43" cy="12.95" r="4.81"/><circle class="cls-3" cx="28.37" cy="11.65" r="6.11"/><circle class="cls-3" cx="37.08" cy="13.68" r="6.11"/><circle class="cls-3" cx="30.79" cy="6.64" r="6.64"/><path class="cls-4" d="M34.06,25h8.05a5.05,5.05,0,0,1,5.05,5.05v3.83A5.05,5.05,0,0,1,42.12,39H34.06a0,0,0,0,1,0,0V25A0,0,0,0,1,34.06,25Z"/><rect class="cls-5" x="14.82" y="25.42" width="4.2" height="21.23" rx="2.1"/><rect class="cls-5" x="22.12" y="25.42" width="4.2" height="21.23" rx="2.1"/><rect class="cls-5" x="29.42" y="25.42" width="4.2" height="21.23" rx="2.1"/></g></g></svg>