<svg xmlns="http://www.w3.org/2000/svg" xmlns:xlink="http://www.w3.org/1999/xlink" viewBox="0 0 59.56 57.84"><defs><style>.cls-1{fill:#380000;}.cls-2{fill:#fdd55d;}.cls-3{clip-path:url(#clip-path);}.cls-4{fill:#fff;}.cls-5{fill:none;stroke:#fff;stroke-miterlimit:10;}</style><clipPath id="clip-path"><path class="cls-1" d="M26.18,4.64.12,16.35a18.18,18.18,0,0,0,15,20l18.1-21.84Z"/></clipPath></defs><title>cirvis</title><g id="Layer_2" data-name="Layer 2"><g id="popup"><ellipse class="cls-1" cx="36.33" cy="53.19" rx="23.23" ry="4.65"/><ellipse class="cls-1" cx="36.33" cy="53.19" rx="23.23" ry="4.65"/><rect class="cls-2" x="28.58" y="-5.69" width="7.74" height="64.81" rx="3.87" transform="matrix(0.8, -0.6, 0.6, 0.8, -9.54, 24.78)"/><rect class="cls-1" x="18.44" y="3.56" width="10.17" height="21.47" transform="translate(-3.87 16.95) rotate(-36.82)"/><path class="cls-1" d="M26.18,4.64.12,16.35a18.18,18.18,0,0,0,15,20l18.1-21.84Z"/><g class="cls-3"><rect class="cls-4" x="4.59" y="11.49" width="4.87" height="29.2"/><line class="cls-5" x1="12.01" y1="9.72" x2="12.01" y2="40.47"/></g></g></g></svg>