<svg xmlns="http://www.w3.org/2000/svg" viewBox="0 0 46.45 64.04"><defs><style>.cls-1,.cls-4{fill:#380000;}.cls-2{fill:#fdd55d;}.cls-3{fill:#fff;}.cls-4{stroke:#380000;stroke-linecap:round;stroke-miterlimit:10;}</style></defs><title>ezelis</title><g id="Layer_2" data-name="Layer 2"><g id="popup"><ellipse class="cls-1" cx="23.23" cy="59.39" rx="23.23" ry="4.65"/><ellipse class="cls-1" cx="15.25" cy="15.43" rx="5.05" ry="15.43"/><path class="cls-2" d="M18.42,15.43c0,5.34-1.42,14.1-3.17,14.1s-3.18-8.76-3.18-14.1,1.42-9.68,3.18-9.68S18.42,10.08,18.42,15.43Z"/><ellipse class="cls-1" cx="30.7" cy="15.43" rx="5.05" ry="15.43"/><path class="cls-2" d="M27.53,15.43c0,5.34,1.41,14.1,3.17,14.1s3.17-8.76,3.17-14.1S32.45,5.75,30.7,5.75,27.53,10.08,27.53,15.43Z"/><path class="cls-2" d="M26.15,53.47H20.3c-5.58,0-10.11-15.17-10.11-20.75h0A10.11,10.11,0,0,1,20.3,22.61h5.85A10.11,10.11,0,0,1,36.26,32.72h0C36.26,38.3,31.73,53.47,26.15,53.47Z"/><rect class="cls-3" x="10.8" y="40.17" width="24.85" height="20.22" rx="10.11"/><line class="cls-4" x1="14.85" y1="33.39" x2="19.63" y2="33.39"/><line class="cls-4" x1="26.95" y1="33.39" x2="31.74" y2="33.39"/><circle class="cls-1" cx="17.44" cy="50.08" r="2.06"/><circle class="cls-1" cx="29.2" cy="50.08" r="2.06"/></g></g></svg>