<svg xmlns="http://www.w3.org/2000/svg" viewBox="0 0 46.45 52.98"><defs><style>.cls-1{fill:#380000;}.cls-2{fill:#fdd55d;}.cls-3{fill:#fff;}</style></defs><title>inde</title><g id="Layer_2" data-name="Layer 2"><g id="popup"><ellipse class="cls-1" cx="23.23" cy="48.34" rx="23.23" ry="4.65"/><circle class="cls-2" cx="23.12" cy="33.01" r="15.76"/><path class="cls-3" d="M21.43,0H24.8a2.3,2.3,0,0,1,2.3,2.3V5.81a0,0,0,0,1,0,0h-8a0,0,0,0,1,0,0V2.3A2.3,2.3,0,0,1,21.43,0Z"/><rect class="cls-2" x="18.47" y="4.98" width="9.29" height="24.22"/><rect class="cls-2" x="15.87" y="3.66" width="14.49" height="6.69" rx="3.35"/><path class="cls-1" d="M22.71,29.39h.77a4.85,4.85,0,0,1,4.85,4.85v0A2.33,2.33,0,0,1,26,36.61H20.2a2.33,2.33,0,0,1-2.33-2.33v0A4.85,4.85,0,0,1,22.71,29.39Z"/><rect class="cls-1" x="20.39" y="33.79" width="5.42" height="6.09" rx="2.33"/><circle class="cls-2" cx="20.87" cy="33.45" r="0.95"/><circle class="cls-2" cx="24.95" cy="33.45" r="0.95"/><path class="cls-1" d="M32.67,27.07a1.31,1.31,0,0,0-1.59-.21,1.33,1.33,0,1,0-2.09.28,1.39,1.39,0,0,0,.19.15l-2,2,1.47,1.47,2-2a1.37,1.37,0,0,0,.16.18,1.32,1.32,0,0,0,1.87-1.87Z"/><path class="cls-1" d="M13.56,28.94a1.33,1.33,0,0,0,1.88,0,.84.84,0,0,0,.15-.18l2,2,1.47-1.47-2-2a1.3,1.3,0,0,0,.18-.15,1.33,1.33,0,1,0-2.08-.28,1.32,1.32,0,0,0-1.6,2.08Z"/><path class="cls-1" d="M13.56,40a1.34,1.34,0,0,0,1.6.21,1.32,1.32,0,1,0,2.08-.28.84.84,0,0,0-.18-.15l2-2-1.47-1.47-2,2a.9.9,0,0,0-.15-.19A1.33,1.33,0,0,0,13.56,40Z"/><path class="cls-1" d="M32.67,38.1a1.33,1.33,0,0,0-1.87,0,1.46,1.46,0,0,0-.16.19l-2-2-1.47,1.47,2,2a.9.9,0,0,0-.19.15,1.33,1.33,0,1,0,2.09.28,1.32,1.32,0,0,0,1.59-2.09Z"/></g></g></svg>