<svg xmlns="http://www.w3.org/2000/svg" viewBox="0 0 46.45 51.48"><defs><style>.cls-1{fill:#380000;}.cls-2{fill:#fdd55d;}.cls-3{fill:none;stroke:#fdd55d;stroke-miterlimit:10;}.cls-4{fill:#fff;}</style></defs><title>kafija</title><g id="Layer_2" data-name="Layer 2"><g id="popup"><ellipse class="cls-1" cx="23.23" cy="46.84" rx="23.23" ry="4.65"/><ellipse class="cls-2" cx="23.23" cy="45.81" rx="9.11" ry="2.14"/><path class="cls-2" d="M38.82,26.21c0,10.23-7,18.52-15.59,18.52S7.63,36.44,7.63,26.21"/><ellipse class="cls-1" cx="23.23" cy="25.95" rx="15.59" ry="4.72"/><path class="cls-3" d="M36.85,40.49l-4.38-.71,4.15-6.62,1.67.41a3.37,3.37,0,0,1,2.23,4.27h0A3.39,3.39,0,0,1,36.85,40.49Z"/><path class="cls-4" d="M21,25.65s4.64-5.25,4-10.51S18.55,7.26,24.88,0c-.46,6.49,6,8.34,6,16.38C30.91,20.29,29.21,25.19,21,25.65Z"/><path class="cls-4" d="M16.52,21.75s2-2.23,1.7-4.45-2.75-3.34-.07-6.41c-.2,2.74,2.55,3.53,2.55,6.93C20.7,19.48,20,21.55,16.52,21.75Z"/></g></g></svg>