<svg xmlns="http://www.w3.org/2000/svg" xmlns:xlink="http://www.w3.org/1999/xlink" viewBox="0 0 46.45 47.41"><defs><style>.cls-1{fill:#fdd55d;}.cls-2{fill:#380000;}.cls-3{fill:none;stroke:#fdd55d;stroke-linecap:round;stroke-miterlimit:10;}.cls-4{fill:#fff;}.cls-5{clip-path:url(#clip-path);}</style><clipPath id="clip-path"><rect class="cls-1" x="6.39" y="24.15" width="5.97" height="2.88" rx="1.44" transform="translate(27.79 45.69) rotate(157.63)"/></clipPath></defs><title>pukje</title><g id="Layer_2" data-name="Layer 2"><g id="popup"><ellipse class="cls-2" cx="23.23" cy="42.77" rx="23.23" ry="4.65"/><path class="cls-3" d="M23.61,41.55s2.16-16.43-1.16-26.71"/><path class="cls-1" d="M29.08,32.58a8.93,8.93,0,0,0,1-5.64,8.92,8.92,0,0,0-4.66,3.34,8.93,8.93,0,0,0-1,5.64A8.92,8.92,0,0,0,29.08,32.58Z"/><path class="cls-1" d="M21.09,22.26a8.89,8.89,0,0,0-5.61-1.19,9,9,0,0,0,3.19,4.76,8.9,8.9,0,0,0,5.6,1.2A9,9,0,0,0,21.09,22.26Z"/><ellipse class="cls-2" cx="20.14" cy="3.91" rx="6.57" ry="3.53" transform="translate(-0.23 6.33) rotate(-17.76)"/><ellipse class="cls-2" cx="28.83" cy="5.84" rx="6.57" ry="3.53" transform="translate(-0.41 9.08) rotate(-17.76)"/><ellipse class="cls-2" cx="27.34" cy="11.7" rx="6.57" ry="3.53" transform="translate(-2.27 8.9) rotate(-17.76)"/><ellipse class="cls-2" cx="16.77" cy="14.42" rx="6.57" ry="3.53" transform="translate(-3.6 5.8) rotate(-17.76)"/><ellipse class="cls-2" cx="12.36" cy="10.11" rx="6.57" ry="3.53" transform="translate(-2.49 4.25) rotate(-17.76)"/><ellipse class="cls-4" cx="20.99" cy="8.69" rx="5.96" ry="3.2" transform="translate(-1.65 6.82) rotate(-17.76)"/><rect class="cls-1" x="6.39" y="24.15" width="5.97" height="2.88" rx="1.44" transform="translate(27.79 45.69) rotate(157.63)"/><g class="cls-5"><rect class="cls-2" x="10.49" y="23.06" width="1.05" height="4.15" transform="translate(30.76 44.18) rotate(157.63)"/><rect class="cls-2" x="8.59" y="23.83" width="1.05" height="4.15" transform="translate(27.41 46.4) rotate(157.63)"/><polygon class="cls-2" points="7.53 28.8 8.5 28.4 6.92 24.57 5.11 25.38 7.53 28.8"/></g><path class="cls-4" d="M6.89,22.73a5.83,5.83,0,0,0,2.45,2.34,4.6,4.6,0,0,0,.1-3.39,1.38,1.38,0,0,0-2.55,1.05Z"/></g></g></svg>