<svg xmlns="http://www.w3.org/2000/svg" viewBox="0 0 50.1 48.79"><defs><style>.cls-1{fill:#380000;}.cls-2{fill:#fdd55d;}.cls-3{fill:#fff;}.cls-4{fill:none;stroke:#380000;stroke-linecap:round;stroke-linejoin:round;}</style></defs><title>salvetes</title><g id="Layer_2" data-name="Layer 2"><g id="popup"><ellipse class="cls-1" cx="26.87" cy="44.14" rx="23.23" ry="4.65"/><polygon class="cls-2" points="42.3 17.55 17.52 17.55 8.76 21.74 33.48 44.91 42.3 40.68 42.3 17.55"/><rect class="cls-3" x="8.69" y="21.78" width="24.78" height="23.13"/><path class="cls-3" d="M19.48,19.28s-2.2-5.1.69-7.3,7.29.83,7.85-2.34-2.21-8,2.06-9.64H44.54C40.27,1.65,43,6.47,42.47,9.64s-4.95.14-7.85,2.34-.68,7.3-.68,7.3H19.75"/><polyline class="cls-4" points="12.17 26.86 16.9 29.22 12.17 32.71"/><polyline class="cls-4" points="28.48 26.86 23.75 29.22 28.48 32.71"/><path class="cls-1" d="M13.91,41.71a2.84,2.84,0,0,1-2-4.66c2.19-2.55,8.22-5.87,15.36-.15a2.84,2.84,0,0,1-3.55,4.43c-1.09-.87-4.84-3.48-7.53-.55A2.9,2.9,0,0,1,13.91,41.71Z"/><path class="cls-3" d="M37.58,22.71a1.7,1.7,0,0,1,1.94,2.79c-.77.53-3.92.66-3.92.66S36.81,23.25,37.58,22.71Z"/><path class="cls-3" d="M42.18,31.55a1.7,1.7,0,1,1-1.44,3.08c-.85-.4-2.53-3.07-2.53-3.07S41.34,31.15,42.18,31.55Z"/><path class="cls-3" d="M46.56,23a1.7,1.7,0,1,1,1,3.25c-.9.27-3.93-.61-3.93-.61S45.66,23.22,46.56,23Z"/><path class="cls-3" d="M5.05,23.83a1.7,1.7,0,0,0-1.94,2.79c.77.53,3.92.66,3.92.66S5.82,24.37,5.05,23.83Z"/><path class="cls-3" d="M1.24,31.69A1.7,1.7,0,1,0,2.16,35c.9-.26,3-2.61,3-2.61S2.14,31.43,1.24,31.69Z"/></g></g></svg>