<svg xmlns="http://www.w3.org/2000/svg" viewBox="0 0 46.45 48.34"><defs><style>.cls-1{fill:#380000;}.cls-2{fill:#fdd55d;}.cls-3{fill:#fff;}</style></defs><title>viins</title><g id="Layer_2" data-name="Layer 2"><g id="popup"><ellipse class="cls-1" cx="23.23" cy="43.69" rx="23.23" ry="4.65"/><path class="cls-2" d="M14.92,2.2C15.09,1,11,12.53,11,18.55c0,8.63,10.25,5.05,10.25,9.12s.73,10-2.11,12.86h8.06c-2.85-2.85-2.12-8.79-2.12-12.86s10.25-.49,10.25-9.12c0-6-4.07-17.57-3.9-16.35"/><ellipse class="cls-3" cx="23.23" cy="2.69" rx="8.57" ry="2.69"/><ellipse class="cls-2" cx="23.23" cy="41.26" rx="12.65" ry="3.96"/><path class="cls-1" d="M23,24.49c-1.92-.14-8.43-1.52-9.76-4s1.33-9.41,1.33-9.41S17.32,10,23.17,10c7,0,8.49,1.11,8.49,1.11S34.32,18,33,20.48s-7.83,3.87-9.75,4"/></g></g></svg>