<svg xmlns="http://www.w3.org/2000/svg" viewBox="0 0 46.45 47.89"><defs><style>.cls-1{fill:#380000;}.cls-2{fill:#fdd55d;}.cls-3{fill:#fff;}.cls-4{fill:none;stroke:#380000;stroke-linecap:round;stroke-miterlimit:10;}</style></defs><title>zaabaks</title><g id="Layer_2" data-name="Layer 2"><g id="popup"><ellipse class="cls-1" cx="23.23" cy="43.25" rx="23.23" ry="4.65"/><path class="cls-2" d="M22.5,23.66V4.36A3.53,3.53,0,0,0,19,.83H8A3.53,3.53,0,0,0,4.48,4.36V38.41h.19v.19H42.25V37.35A13.69,13.69,0,0,0,28.56,23.66Z"/><path class="cls-3" d="M4.58,38.59h13a0,0,0,0,1,0,0v3a2.08,2.08,0,0,1-2.08,2.08h-8a2.92,2.92,0,0,1-2.92-2.92V38.59A0,0,0,0,1,4.58,38.59Z"/><path class="cls-3" d="M40.28,43.68H22.89l-5.28-5.09H42.25v3.12A2,2,0,0,1,40.28,43.68Z"/><line class="cls-4" x1="16.61" y1="11.91" x2="22.5" y2="8.6"/><line class="cls-4" x1="16.63" y1="8.56" x2="22.48" y2="11.94"/><line class="cls-4" x1="16.61" y1="18.23" x2="22.5" y2="14.93"/><line class="cls-4" x1="16.63" y1="14.89" x2="22.48" y2="18.27"/><ellipse class="cls-1" cx="13.49" cy="2.65" rx="8.63" ry="2.65"/></g></g></svg>